<?xml version="1.0" encoding="utf-8" standalone="no"?>
<!DOCTYPE svg PUBLIC "-//W3C//DTD SVG 1.1//EN"
  "http://www.w3.org/Graphics/SVG/1.1/DTD/svg11.dtd">
<svg xmlns:xlink="http://www.w3.org/1999/xlink" width="711.90625pt" height="496.474375pt" viewBox="0 0 711.90625 496.474375" xmlns="http://www.w3.org/2000/svg" version="1.1">
 <metadata>
  <rdf:RDF xmlns:dc="http://purl.org/dc/elements/1.1/" xmlns:cc="http://creativecommons.org/ns#" xmlns:rdf="http://www.w3.org/1999/02/22-rdf-syntax-ns#">
   <cc:Work>
    <dc:type rdf:resource="http://purl.org/dc/dcmitype/StillImage"/>
    <dc:date>2026-03-20T12:45:57.877520</dc:date>
    <dc:format>image/svg+xml</dc:format>
    <dc:creator>
     <cc:Agent>
      <dc:title>Matplotlib v3.10.6, https://matplotlib.org/</dc:title>
     </cc:Agent>
    </dc:creator>
   </cc:Work>
  </rdf:RDF>
 </metadata>
 <defs>
  <style type="text/css">*{stroke-linejoin: round; stroke-linecap: butt}</style>
 </defs>
 <g id="figure_1">
  <g id="patch_1">
   <path d="M 0 496.474375 
L 711.90625 496.474375 
L 711.90625 0 
L 0 0 
z
" style="fill: #ffffff"/>
  </g>
  <g id="axes_1">
   <g id="patch_2">
    <path d="M 46.965625 458.918125 
L 548.915625 458.918125 
L 548.915625 22.318125 
L 46.965625 22.318125 
z
" style="fill: #ffffff"/>
   </g>
   <g id="matplotlib.axis_1">
    <g id="xtick_1">
     <g id="line2d_1">
      <path d="M 69.781534 458.918125 
L 69.781534 22.318125 
" clip-path="url(#p89bdafb680)" style="fill: none; stroke-dasharray: 2.96,1.28; stroke-dashoffset: 0; stroke: #b0b0b0; stroke-opacity: 0.6; stroke-width: 0.8"/>
     </g>
     <g id="line2d_2">
      <defs>
       <path id="mdb41db7607" d="M 0 0 
L 0 3.5 
" style="stroke: #000000; stroke-width: 0.8"/>
      </defs>
      <g>
       <use xlink:href="#mdb41db7607" x="69.781534" y="458.918125" style="stroke: #000000; stroke-width: 0.8"/>
      </g>
     </g>
     <g id="text_1">
      <!-- 0 -->
      <g transform="translate(66.600284 473.516563) scale(0.1 -0.1)">
       <defs>
        <path id="DejaVuSans-30" d="M 2034 4250 
Q 1547 4250 1301 3770 
Q 1056 3291 1056 2328 
Q 1056 1369 1301 889 
Q 1547 409 2034 409 
Q 2525 409 2770 889 
Q 3016 1369 3016 2328 
Q 3016 3291 2770 3770 
Q 2525 4250 2034 4250 
z
M 2034 4750 
Q 2819 4750 3233 4129 
Q 3647 3509 3647 2328 
Q 3647 1150 3233 529 
Q 2819 -91 2034 -91 
Q 1250 -91 836 529 
Q 422 1150 422 2328 
Q 422 3509 836 4129 
Q 1250 4750 2034 4750 
z
" transform="scale(0.015625)"/>
       </defs>
       <use xlink:href="#DejaVuSans-30"/>
      </g>
     </g>
    </g>
    <g id="xtick_2">
     <g id="line2d_3">
      <path d="M 145.840903 458.918125 
L 145.840903 22.318125 
" clip-path="url(#p89bdafb680)" style="fill: none; stroke-dasharray: 2.96,1.28; stroke-dashoffset: 0; stroke: #b0b0b0; stroke-opacity: 0.6; stroke-width: 0.8"/>
     </g>
     <g id="line2d_4">
      <g>
       <use xlink:href="#mdb41db7607" x="145.840903" y="458.918125" style="stroke: #000000; stroke-width: 0.8"/>
      </g>
     </g>
     <g id="text_2">
      <!-- 2000 -->
      <g transform="translate(133.115903 473.516563) scale(0.1 -0.1)">
       <defs>
        <path id="DejaVuSans-32" d="M 1228 531 
L 3431 531 
L 3431 0 
L 469 0 
L 469 531 
Q 828 903 1448 1529 
Q 2069 2156 2228 2338 
Q 2531 2678 2651 2914 
Q 2772 3150 2772 3378 
Q 2772 3750 2511 3984 
Q 2250 4219 1831 4219 
Q 1534 4219 1204 4116 
Q 875 4013 500 3803 
L 500 4441 
Q 881 4594 1212 4672 
Q 1544 4750 1819 4750 
Q 2544 4750 2975 4387 
Q 3406 4025 3406 3419 
Q 3406 3131 3298 2873 
Q 3191 2616 2906 2266 
Q 2828 2175 2409 1742 
Q 1991 1309 1228 531 
z
" transform="scale(0.015625)"/>
       </defs>
       <use xlink:href="#DejaVuSans-32"/>
       <use xlink:href="#DejaVuSans-30" transform="translate(63.623047 0)"/>
       <use xlink:href="#DejaVuSans-30" transform="translate(127.246094 0)"/>
       <use xlink:href="#DejaVuSans-30" transform="translate(190.869141 0)"/>
      </g>
     </g>
    </g>
    <g id="xtick_3">
     <g id="line2d_5">
      <path d="M 221.900271 458.918125 
L 221.900271 22.318125 
" clip-path="url(#p89bdafb680)" style="fill: none; stroke-dasharray: 2.96,1.28; stroke-dashoffset: 0; stroke: #b0b0b0; stroke-opacity: 0.6; stroke-width: 0.8"/>
     </g>
     <g id="line2d_6">
      <g>
       <use xlink:href="#mdb41db7607" x="221.900271" y="458.918125" style="stroke: #000000; stroke-width: 0.8"/>
      </g>
     </g>
     <g id="text_3">
      <!-- 4000 -->
      <g transform="translate(209.175271 473.516563) scale(0.1 -0.1)">
       <defs>
        <path id="DejaVuSans-34" d="M 2419 4116 
L 825 1625 
L 2419 1625 
L 2419 4116 
z
M 2253 4666 
L 3047 4666 
L 3047 1625 
L 3713 1625 
L 3713 1100 
L 3047 1100 
L 3047 0 
L 2419 0 
L 2419 1100 
L 313 1100 
L 313 1709 
L 2253 4666 
z
" transform="scale(0.015625)"/>
       </defs>
       <use xlink:href="#DejaVuSans-34"/>
       <use xlink:href="#DejaVuSans-30" transform="translate(63.623047 0)"/>
       <use xlink:href="#DejaVuSans-30" transform="translate(127.246094 0)"/>
       <use xlink:href="#DejaVuSans-30" transform="translate(190.869141 0)"/>
      </g>
     </g>
    </g>
    <g id="xtick_4">
     <g id="line2d_7">
      <path d="M 297.95964 458.918125 
L 297.95964 22.318125 
" clip-path="url(#p89bdafb680)" style="fill: none; stroke-dasharray: 2.96,1.28; stroke-dashoffset: 0; stroke: #b0b0b0; stroke-opacity: 0.6; stroke-width: 0.8"/>
     </g>
     <g id="line2d_8">
      <g>
       <use xlink:href="#mdb41db7607" x="297.95964" y="458.918125" style="stroke: #000000; stroke-width: 0.8"/>
      </g>
     </g>
     <g id="text_4">
      <!-- 6000 -->
      <g transform="translate(285.23464 473.516563) scale(0.1 -0.1)">
       <defs>
        <path id="DejaVuSans-36" d="M 2113 2584 
Q 1688 2584 1439 2293 
Q 1191 2003 1191 1497 
Q 1191 994 1439 701 
Q 1688 409 2113 409 
Q 2538 409 2786 701 
Q 3034 994 3034 1497 
Q 3034 2003 2786 2293 
Q 2538 2584 2113 2584 
z
M 3366 4563 
L 3366 3988 
Q 3128 4100 2886 4159 
Q 2644 4219 2406 4219 
Q 1781 4219 1451 3797 
Q 1122 3375 1075 2522 
Q 1259 2794 1537 2939 
Q 1816 3084 2150 3084 
Q 2853 3084 3261 2657 
Q 3669 2231 3669 1497 
Q 3669 778 3244 343 
Q 2819 -91 2113 -91 
Q 1303 -91 875 529 
Q 447 1150 447 2328 
Q 447 3434 972 4092 
Q 1497 4750 2381 4750 
Q 2619 4750 2861 4703 
Q 3103 4656 3366 4563 
z
" transform="scale(0.015625)"/>
       </defs>
       <use xlink:href="#DejaVuSans-36"/>
       <use xlink:href="#DejaVuSans-30" transform="translate(63.623047 0)"/>
       <use xlink:href="#DejaVuSans-30" transform="translate(127.246094 0)"/>
       <use xlink:href="#DejaVuSans-30" transform="translate(190.869141 0)"/>
      </g>
     </g>
    </g>
    <g id="xtick_5">
     <g id="line2d_9">
      <path d="M 374.019008 458.918125 
L 374.019008 22.318125 
" clip-path="url(#p89bdafb680)" style="fill: none; stroke-dasharray: 2.96,1.28; stroke-dashoffset: 0; stroke: #b0b0b0; stroke-opacity: 0.6; stroke-width: 0.8"/>
     </g>
     <g id="line2d_10">
      <g>
       <use xlink:href="#mdb41db7607" x="374.019008" y="458.918125" style="stroke: #000000; stroke-width: 0.8"/>
      </g>
     </g>
     <g id="text_5">
      <!-- 8000 -->
      <g transform="translate(361.294008 473.516563) scale(0.1 -0.1)">
       <defs>
        <path id="DejaVuSans-38" d="M 2034 2216 
Q 1584 2216 1326 1975 
Q 1069 1734 1069 1313 
Q 1069 891 1326 650 
Q 1584 409 2034 409 
Q 2484 409 2743 651 
Q 3003 894 3003 1313 
Q 3003 1734 2745 1975 
Q 2488 2216 2034 2216 
z
M 1403 2484 
Q 997 2584 770 2862 
Q 544 3141 544 3541 
Q 544 4100 942 4425 
Q 1341 4750 2034 4750 
Q 2731 4750 3128 4425 
Q 3525 4100 3525 3541 
Q 3525 3141 3298 2862 
Q 3072 2584 2669 2484 
Q 3125 2378 3379 2068 
Q 3634 1759 3634 1313 
Q 3634 634 3220 271 
Q 2806 -91 2034 -91 
Q 1263 -91 848 271 
Q 434 634 434 1313 
Q 434 1759 690 2068 
Q 947 2378 1403 2484 
z
M 1172 3481 
Q 1172 3119 1398 2916 
Q 1625 2713 2034 2713 
Q 2441 2713 2670 2916 
Q 2900 3119 2900 3481 
Q 2900 3844 2670 4047 
Q 2441 4250 2034 4250 
Q 1625 4250 1398 4047 
Q 1172 3844 1172 3481 
z
" transform="scale(0.015625)"/>
       </defs>
       <use xlink:href="#DejaVuSans-38"/>
       <use xlink:href="#DejaVuSans-30" transform="translate(63.623047 0)"/>
       <use xlink:href="#DejaVuSans-30" transform="translate(127.246094 0)"/>
       <use xlink:href="#DejaVuSans-30" transform="translate(190.869141 0)"/>
      </g>
     </g>
    </g>
    <g id="xtick_6">
     <g id="line2d_11">
      <path d="M 450.078377 458.918125 
L 450.078377 22.318125 
" clip-path="url(#p89bdafb680)" style="fill: none; stroke-dasharray: 2.96,1.28; stroke-dashoffset: 0; stroke: #b0b0b0; stroke-opacity: 0.6; stroke-width: 0.8"/>
     </g>
     <g id="line2d_12">
      <g>
       <use xlink:href="#mdb41db7607" x="450.078377" y="458.918125" style="stroke: #000000; stroke-width: 0.8"/>
      </g>
     </g>
     <g id="text_6">
      <!-- 10000 -->
      <g transform="translate(434.172127 473.516563) scale(0.1 -0.1)">
       <defs>
        <path id="DejaVuSans-31" d="M 794 531 
L 1825 531 
L 1825 4091 
L 703 3866 
L 703 4441 
L 1819 4666 
L 2450 4666 
L 2450 531 
L 3481 531 
L 3481 0 
L 794 0 
L 794 531 
z
" transform="scale(0.015625)"/>
       </defs>
       <use xlink:href="#DejaVuSans-31"/>
       <use xlink:href="#DejaVuSans-30" transform="translate(63.623047 0)"/>
       <use xlink:href="#DejaVuSans-30" transform="translate(127.246094 0)"/>
       <use xlink:href="#DejaVuSans-30" transform="translate(190.869141 0)"/>
       <use xlink:href="#DejaVuSans-30" transform="translate(254.492188 0)"/>
      </g>
     </g>
    </g>
    <g id="xtick_7">
     <g id="line2d_13">
      <path d="M 526.137746 458.918125 
L 526.137746 22.318125 
" clip-path="url(#p89bdafb680)" style="fill: none; stroke-dasharray: 2.96,1.28; stroke-dashoffset: 0; stroke: #b0b0b0; stroke-opacity: 0.6; stroke-width: 0.8"/>
     </g>
     <g id="line2d_14">
      <g>
       <use xlink:href="#mdb41db7607" x="526.137746" y="458.918125" style="stroke: #000000; stroke-width: 0.8"/>
      </g>
     </g>
     <g id="text_7">
      <!-- 12000 -->
      <g transform="translate(510.231496 473.516563) scale(0.1 -0.1)">
       <use xlink:href="#DejaVuSans-31"/>
       <use xlink:href="#DejaVuSans-32" transform="translate(63.623047 0)"/>
       <use xlink:href="#DejaVuSans-30" transform="translate(127.246094 0)"/>
       <use xlink:href="#DejaVuSans-30" transform="translate(190.869141 0)"/>
       <use xlink:href="#DejaVuSans-30" transform="translate(254.492188 0)"/>
      </g>
     </g>
    </g>
    <g id="text_8">
     <!-- Distance from Terminus [nt] -->
     <g transform="translate(228.197656 487.194687) scale(0.1 -0.1)">
      <defs>
       <path id="DejaVuSans-44" d="M 1259 4147 
L 1259 519 
L 2022 519 
Q 2988 519 3436 956 
Q 3884 1394 3884 2338 
Q 3884 3275 3436 3711 
Q 2988 4147 2022 4147 
L 1259 4147 
z
M 628 4666 
L 1925 4666 
Q 3281 4666 3915 4102 
Q 4550 3538 4550 2338 
Q 4550 1131 3912 565 
Q 3275 0 1925 0 
L 628 0 
L 628 4666 
z
" transform="scale(0.015625)"/>
       <path id="DejaVuSans-69" d="M 603 3500 
L 1178 3500 
L 1178 0 
L 603 0 
L 603 3500 
z
M 603 4863 
L 1178 4863 
L 1178 4134 
L 603 4134 
L 603 4863 
z
" transform="scale(0.015625)"/>
       <path id="DejaVuSans-73" d="M 2834 3397 
L 2834 2853 
Q 2591 2978 2328 3040 
Q 2066 3103 1784 3103 
Q 1356 3103 1142 2972 
Q 928 2841 928 2578 
Q 928 2378 1081 2264 
Q 1234 2150 1697 2047 
L 1894 2003 
Q 2506 1872 2764 1633 
Q 3022 1394 3022 966 
Q 3022 478 2636 193 
Q 2250 -91 1575 -91 
Q 1294 -91 989 -36 
Q 684 19 347 128 
L 347 722 
Q 666 556 975 473 
Q 1284 391 1588 391 
Q 1994 391 2212 530 
Q 2431 669 2431 922 
Q 2431 1156 2273 1281 
Q 2116 1406 1581 1522 
L 1381 1569 
Q 847 1681 609 1914 
Q 372 2147 372 2553 
Q 372 3047 722 3315 
Q 1072 3584 1716 3584 
Q 2034 3584 2315 3537 
Q 2597 3491 2834 3397 
z
" transform="scale(0.015625)"/>
       <path id="DejaVuSans-74" d="M 1172 4494 
L 1172 3500 
L 2356 3500 
L 2356 3053 
L 1172 3053 
L 1172 1153 
Q 1172 725 1289 603 
Q 1406 481 1766 481 
L 2356 481 
L 2356 0 
L 1766 0 
Q 1100 0 847 248 
Q 594 497 594 1153 
L 594 3053 
L 172 3053 
L 172 3500 
L 594 3500 
L 594 4494 
L 1172 4494 
z
" transform="scale(0.015625)"/>
       <path id="DejaVuSans-61" d="M 2194 1759 
Q 1497 1759 1228 1600 
Q 959 1441 959 1056 
Q 959 750 1161 570 
Q 1363 391 1709 391 
Q 2188 391 2477 730 
Q 2766 1069 2766 1631 
L 2766 1759 
L 2194 1759 
z
M 3341 1997 
L 3341 0 
L 2766 0 
L 2766 531 
Q 2569 213 2275 61 
Q 1981 -91 1556 -91 
Q 1019 -91 701 211 
Q 384 513 384 1019 
Q 384 1609 779 1909 
Q 1175 2209 1959 2209 
L 2766 2209 
L 2766 2266 
Q 2766 2663 2505 2880 
Q 2244 3097 1772 3097 
Q 1472 3097 1187 3025 
Q 903 2953 641 2809 
L 641 3341 
Q 956 3463 1253 3523 
Q 1550 3584 1831 3584 
Q 2591 3584 2966 3190 
Q 3341 2797 3341 1997 
z
" transform="scale(0.015625)"/>
       <path id="DejaVuSans-6e" d="M 3513 2113 
L 3513 0 
L 2938 0 
L 2938 2094 
Q 2938 2591 2744 2837 
Q 2550 3084 2163 3084 
Q 1697 3084 1428 2787 
Q 1159 2491 1159 1978 
L 1159 0 
L 581 0 
L 581 3500 
L 1159 3500 
L 1159 2956 
Q 1366 3272 1645 3428 
Q 1925 3584 2291 3584 
Q 2894 3584 3203 3211 
Q 3513 2838 3513 2113 
z
" transform="scale(0.015625)"/>
       <path id="DejaVuSans-63" d="M 3122 3366 
L 3122 2828 
Q 2878 2963 2633 3030 
Q 2388 3097 2138 3097 
Q 1578 3097 1268 2742 
Q 959 2388 959 1747 
Q 959 1106 1268 751 
Q 1578 397 2138 397 
Q 2388 397 2633 464 
Q 2878 531 3122 666 
L 3122 134 
Q 2881 22 2623 -34 
Q 2366 -91 2075 -91 
Q 1284 -91 818 406 
Q 353 903 353 1747 
Q 353 2603 823 3093 
Q 1294 3584 2113 3584 
Q 2378 3584 2631 3529 
Q 2884 3475 3122 3366 
z
" transform="scale(0.015625)"/>
       <path id="DejaVuSans-65" d="M 3597 1894 
L 3597 1613 
L 953 1613 
Q 991 1019 1311 708 
Q 1631 397 2203 397 
Q 2534 397 2845 478 
Q 3156 559 3463 722 
L 3463 178 
Q 3153 47 2828 -22 
Q 2503 -91 2169 -91 
Q 1331 -91 842 396 
Q 353 884 353 1716 
Q 353 2575 817 3079 
Q 1281 3584 2069 3584 
Q 2775 3584 3186 3129 
Q 3597 2675 3597 1894 
z
M 3022 2063 
Q 3016 2534 2758 2815 
Q 2500 3097 2075 3097 
Q 1594 3097 1305 2825 
Q 1016 2553 972 2059 
L 3022 2063 
z
" transform="scale(0.015625)"/>
       <path id="DejaVuSans-20" transform="scale(0.015625)"/>
       <path id="DejaVuSans-66" d="M 2375 4863 
L 2375 4384 
L 1825 4384 
Q 1516 4384 1395 4259 
Q 1275 4134 1275 3809 
L 1275 3500 
L 2222 3500 
L 2222 3053 
L 1275 3053 
L 1275 0 
L 697 0 
L 697 3053 
L 147 3053 
L 147 3500 
L 697 3500 
L 697 3744 
Q 697 4328 969 4595 
Q 1241 4863 1831 4863 
L 2375 4863 
z
" transform="scale(0.015625)"/>
       <path id="DejaVuSans-72" d="M 2631 2963 
Q 2534 3019 2420 3045 
Q 2306 3072 2169 3072 
Q 1681 3072 1420 2755 
Q 1159 2438 1159 1844 
L 1159 0 
L 581 0 
L 581 3500 
L 1159 3500 
L 1159 2956 
Q 1341 3275 1631 3429 
Q 1922 3584 2338 3584 
Q 2397 3584 2469 3576 
Q 2541 3569 2628 3553 
L 2631 2963 
z
" transform="scale(0.015625)"/>
       <path id="DejaVuSans-6f" d="M 1959 3097 
Q 1497 3097 1228 2736 
Q 959 2375 959 1747 
Q 959 1119 1226 758 
Q 1494 397 1959 397 
Q 2419 397 2687 759 
Q 2956 1122 2956 1747 
Q 2956 2369 2687 2733 
Q 2419 3097 1959 3097 
z
M 1959 3584 
Q 2709 3584 3137 3096 
Q 3566 2609 3566 1747 
Q 3566 888 3137 398 
Q 2709 -91 1959 -91 
Q 1206 -91 779 398 
Q 353 888 353 1747 
Q 353 2609 779 3096 
Q 1206 3584 1959 3584 
z
" transform="scale(0.015625)"/>
       <path id="DejaVuSans-6d" d="M 3328 2828 
Q 3544 3216 3844 3400 
Q 4144 3584 4550 3584 
Q 5097 3584 5394 3201 
Q 5691 2819 5691 2113 
L 5691 0 
L 5113 0 
L 5113 2094 
Q 5113 2597 4934 2840 
Q 4756 3084 4391 3084 
Q 3944 3084 3684 2787 
Q 3425 2491 3425 1978 
L 3425 0 
L 2847 0 
L 2847 2094 
Q 2847 2600 2669 2842 
Q 2491 3084 2119 3084 
Q 1678 3084 1418 2786 
Q 1159 2488 1159 1978 
L 1159 0 
L 581 0 
L 581 3500 
L 1159 3500 
L 1159 2956 
Q 1356 3278 1631 3431 
Q 1906 3584 2284 3584 
Q 2666 3584 2933 3390 
Q 3200 3197 3328 2828 
z
" transform="scale(0.015625)"/>
       <path id="DejaVuSans-54" d="M -19 4666 
L 3928 4666 
L 3928 4134 
L 2272 4134 
L 2272 0 
L 1638 0 
L 1638 4134 
L -19 4134 
L -19 4666 
z
" transform="scale(0.015625)"/>
       <path id="DejaVuSans-75" d="M 544 1381 
L 544 3500 
L 1119 3500 
L 1119 1403 
Q 1119 906 1312 657 
Q 1506 409 1894 409 
Q 2359 409 2629 706 
Q 2900 1003 2900 1516 
L 2900 3500 
L 3475 3500 
L 3475 0 
L 2900 0 
L 2900 538 
Q 2691 219 2414 64 
Q 2138 -91 1772 -91 
Q 1169 -91 856 284 
Q 544 659 544 1381 
z
M 1991 3584 
L 1991 3584 
z
" transform="scale(0.015625)"/>
       <path id="DejaVuSans-5b" d="M 550 4863 
L 1875 4863 
L 1875 4416 
L 1125 4416 
L 1125 -397 
L 1875 -397 
L 1875 -844 
L 550 -844 
L 550 4863 
z
" transform="scale(0.015625)"/>
       <path id="DejaVuSans-5d" d="M 1947 4863 
L 1947 -844 
L 622 -844 
L 622 -397 
L 1369 -397 
L 1369 4416 
L 622 4416 
L 622 4863 
L 1947 4863 
z
" transform="scale(0.015625)"/>
      </defs>
      <use xlink:href="#DejaVuSans-44"/>
      <use xlink:href="#DejaVuSans-69" transform="translate(77.001953 0)"/>
      <use xlink:href="#DejaVuSans-73" transform="translate(104.785156 0)"/>
      <use xlink:href="#DejaVuSans-74" transform="translate(156.884766 0)"/>
      <use xlink:href="#DejaVuSans-61" transform="translate(196.09375 0)"/>
      <use xlink:href="#DejaVuSans-6e" transform="translate(257.373047 0)"/>
      <use xlink:href="#DejaVuSans-63" transform="translate(320.751953 0)"/>
      <use xlink:href="#DejaVuSans-65" transform="translate(375.732422 0)"/>
      <use xlink:href="#DejaVuSans-20" transform="translate(437.255859 0)"/>
      <use xlink:href="#DejaVuSans-66" transform="translate(469.042969 0)"/>
      <use xlink:href="#DejaVuSans-72" transform="translate(504.248047 0)"/>
      <use xlink:href="#DejaVuSans-6f" transform="translate(543.111328 0)"/>
      <use xlink:href="#DejaVuSans-6d" transform="translate(604.292969 0)"/>
      <use xlink:href="#DejaVuSans-20" transform="translate(701.705078 0)"/>
      <use xlink:href="#DejaVuSans-54" transform="translate(733.492188 0)"/>
      <use xlink:href="#DejaVuSans-65" transform="translate(777.576172 0)"/>
      <use xlink:href="#DejaVuSans-72" transform="translate(839.099609 0)"/>
      <use xlink:href="#DejaVuSans-6d" transform="translate(878.462891 0)"/>
      <use xlink:href="#DejaVuSans-69" transform="translate(975.875 0)"/>
      <use xlink:href="#DejaVuSans-6e" transform="translate(1003.658203 0)"/>
      <use xlink:href="#DejaVuSans-75" transform="translate(1067.037109 0)"/>
      <use xlink:href="#DejaVuSans-73" transform="translate(1130.416016 0)"/>
      <use xlink:href="#DejaVuSans-20" transform="translate(1182.515625 0)"/>
      <use xlink:href="#DejaVuSans-5b" transform="translate(1214.302734 0)"/>
      <use xlink:href="#DejaVuSans-6e" transform="translate(1253.316406 0)"/>
      <use xlink:href="#DejaVuSans-74" transform="translate(1316.695312 0)"/>
      <use xlink:href="#DejaVuSans-5d" transform="translate(1355.904297 0)"/>
     </g>
    </g>
   </g>
   <g id="matplotlib.axis_2">
    <g id="ytick_1">
     <g id="line2d_15">
      <path d="M 46.965625 439.07267 
L 548.915625 439.07267 
" clip-path="url(#p89bdafb680)" style="fill: none; stroke-dasharray: 2.96,1.28; stroke-dashoffset: 0; stroke: #b0b0b0; stroke-opacity: 0.6; stroke-width: 0.8"/>
     </g>
     <g id="line2d_16">
      <defs>
       <path id="m83b4bf0802" d="M 0 0 
L -3.5 0 
" style="stroke: #000000; stroke-width: 0.8"/>
      </defs>
      <g>
       <use xlink:href="#m83b4bf0802" x="46.965625" y="439.07267" style="stroke: #000000; stroke-width: 0.8"/>
      </g>
     </g>
     <g id="text_9">
      <!-- 0 -->
      <g transform="translate(33.603125 442.871889) scale(0.1 -0.1)">
       <use xlink:href="#DejaVuSans-30"/>
      </g>
     </g>
    </g>
    <g id="ytick_2">
     <g id="line2d_17">
      <path d="M 46.965625 383.63844 
L 548.915625 383.63844 
" clip-path="url(#p89bdafb680)" style="fill: none; stroke-dasharray: 2.96,1.28; stroke-dashoffset: 0; stroke: #b0b0b0; stroke-opacity: 0.6; stroke-width: 0.8"/>
     </g>
     <g id="line2d_18">
      <g>
       <use xlink:href="#m83b4bf0802" x="46.965625" y="383.63844" style="stroke: #000000; stroke-width: 0.8"/>
      </g>
     </g>
     <g id="text_10">
      <!-- 25 -->
      <g transform="translate(27.240625 387.437659) scale(0.1 -0.1)">
       <defs>
        <path id="DejaVuSans-35" d="M 691 4666 
L 3169 4666 
L 3169 4134 
L 1269 4134 
L 1269 2991 
Q 1406 3038 1543 3061 
Q 1681 3084 1819 3084 
Q 2600 3084 3056 2656 
Q 3513 2228 3513 1497 
Q 3513 744 3044 326 
Q 2575 -91 1722 -91 
Q 1428 -91 1123 -41 
Q 819 9 494 109 
L 494 744 
Q 775 591 1075 516 
Q 1375 441 1709 441 
Q 2250 441 2565 725 
Q 2881 1009 2881 1497 
Q 2881 1984 2565 2268 
Q 2250 2553 1709 2553 
Q 1456 2553 1204 2497 
Q 953 2441 691 2322 
L 691 4666 
z
" transform="scale(0.015625)"/>
       </defs>
       <use xlink:href="#DejaVuSans-32"/>
       <use xlink:href="#DejaVuSans-35" transform="translate(63.623047 0)"/>
      </g>
     </g>
    </g>
    <g id="ytick_3">
     <g id="line2d_19">
      <path d="M 46.965625 328.204209 
L 548.915625 328.204209 
" clip-path="url(#p89bdafb680)" style="fill: none; stroke-dasharray: 2.96,1.28; stroke-dashoffset: 0; stroke: #b0b0b0; stroke-opacity: 0.6; stroke-width: 0.8"/>
     </g>
     <g id="line2d_20">
      <g>
       <use xlink:href="#m83b4bf0802" x="46.965625" y="328.204209" style="stroke: #000000; stroke-width: 0.8"/>
      </g>
     </g>
     <g id="text_11">
      <!-- 50 -->
      <g transform="translate(27.240625 332.003428) scale(0.1 -0.1)">
       <use xlink:href="#DejaVuSans-35"/>
       <use xlink:href="#DejaVuSans-30" transform="translate(63.623047 0)"/>
      </g>
     </g>
    </g>
    <g id="ytick_4">
     <g id="line2d_21">
      <path d="M 46.965625 272.769979 
L 548.915625 272.769979 
" clip-path="url(#p89bdafb680)" style="fill: none; stroke-dasharray: 2.96,1.28; stroke-dashoffset: 0; stroke: #b0b0b0; stroke-opacity: 0.6; stroke-width: 0.8"/>
     </g>
     <g id="line2d_22">
      <g>
       <use xlink:href="#m83b4bf0802" x="46.965625" y="272.769979" style="stroke: #000000; stroke-width: 0.8"/>
      </g>
     </g>
     <g id="text_12">
      <!-- 75 -->
      <g transform="translate(27.240625 276.569197) scale(0.1 -0.1)">
       <defs>
        <path id="DejaVuSans-37" d="M 525 4666 
L 3525 4666 
L 3525 4397 
L 1831 0 
L 1172 0 
L 2766 4134 
L 525 4134 
L 525 4666 
z
" transform="scale(0.015625)"/>
       </defs>
       <use xlink:href="#DejaVuSans-37"/>
       <use xlink:href="#DejaVuSans-35" transform="translate(63.623047 0)"/>
      </g>
     </g>
    </g>
    <g id="ytick_5">
     <g id="line2d_23">
      <path d="M 46.965625 217.335748 
L 548.915625 217.335748 
" clip-path="url(#p89bdafb680)" style="fill: none; stroke-dasharray: 2.96,1.28; stroke-dashoffset: 0; stroke: #b0b0b0; stroke-opacity: 0.6; stroke-width: 0.8"/>
     </g>
     <g id="line2d_24">
      <g>
       <use xlink:href="#m83b4bf0802" x="46.965625" y="217.335748" style="stroke: #000000; stroke-width: 0.8"/>
      </g>
     </g>
     <g id="text_13">
      <!-- 100 -->
      <g transform="translate(20.878125 221.134967) scale(0.1 -0.1)">
       <use xlink:href="#DejaVuSans-31"/>
       <use xlink:href="#DejaVuSans-30" transform="translate(63.623047 0)"/>
       <use xlink:href="#DejaVuSans-30" transform="translate(127.246094 0)"/>
      </g>
     </g>
    </g>
    <g id="ytick_6">
     <g id="line2d_25">
      <path d="M 46.965625 161.901518 
L 548.915625 161.901518 
" clip-path="url(#p89bdafb680)" style="fill: none; stroke-dasharray: 2.96,1.28; stroke-dashoffset: 0; stroke: #b0b0b0; stroke-opacity: 0.6; stroke-width: 0.8"/>
     </g>
     <g id="line2d_26">
      <g>
       <use xlink:href="#m83b4bf0802" x="46.965625" y="161.901518" style="stroke: #000000; stroke-width: 0.8"/>
      </g>
     </g>
     <g id="text_14">
      <!-- 125 -->
      <g transform="translate(20.878125 165.700736) scale(0.1 -0.1)">
       <use xlink:href="#DejaVuSans-31"/>
       <use xlink:href="#DejaVuSans-32" transform="translate(63.623047 0)"/>
       <use xlink:href="#DejaVuSans-35" transform="translate(127.246094 0)"/>
      </g>
     </g>
    </g>
    <g id="ytick_7">
     <g id="line2d_27">
      <path d="M 46.965625 106.467287 
L 548.915625 106.467287 
" clip-path="url(#p89bdafb680)" style="fill: none; stroke-dasharray: 2.96,1.28; stroke-dashoffset: 0; stroke: #b0b0b0; stroke-opacity: 0.6; stroke-width: 0.8"/>
     </g>
     <g id="line2d_28">
      <g>
       <use xlink:href="#m83b4bf0802" x="46.965625" y="106.467287" style="stroke: #000000; stroke-width: 0.8"/>
      </g>
     </g>
     <g id="text_15">
      <!-- 150 -->
      <g transform="translate(20.878125 110.266506) scale(0.1 -0.1)">
       <use xlink:href="#DejaVuSans-31"/>
       <use xlink:href="#DejaVuSans-35" transform="translate(63.623047 0)"/>
       <use xlink:href="#DejaVuSans-30" transform="translate(127.246094 0)"/>
      </g>
     </g>
    </g>
    <g id="ytick_8">
     <g id="line2d_29">
      <path d="M 46.965625 51.033056 
L 548.915625 51.033056 
" clip-path="url(#p89bdafb680)" style="fill: none; stroke-dasharray: 2.96,1.28; stroke-dashoffset: 0; stroke: #b0b0b0; stroke-opacity: 0.6; stroke-width: 0.8"/>
     </g>
     <g id="line2d_30">
      <g>
       <use xlink:href="#m83b4bf0802" x="46.965625" y="51.033056" style="stroke: #000000; stroke-width: 0.8"/>
      </g>
     </g>
     <g id="text_16">
      <!-- 175 -->
      <g transform="translate(20.878125 54.832275) scale(0.1 -0.1)">
       <use xlink:href="#DejaVuSans-31"/>
       <use xlink:href="#DejaVuSans-37" transform="translate(63.623047 0)"/>
       <use xlink:href="#DejaVuSans-35" transform="translate(127.246094 0)"/>
      </g>
     </g>
    </g>
    <g id="text_17">
     <!-- Average Cumulative Count -->
     <g transform="translate(14.798438 307.715) rotate(-90) scale(0.1 -0.1)">
      <defs>
       <path id="DejaVuSans-41" d="M 2188 4044 
L 1331 1722 
L 3047 1722 
L 2188 4044 
z
M 1831 4666 
L 2547 4666 
L 4325 0 
L 3669 0 
L 3244 1197 
L 1141 1197 
L 716 0 
L 50 0 
L 1831 4666 
z
" transform="scale(0.015625)"/>
       <path id="DejaVuSans-76" d="M 191 3500 
L 800 3500 
L 1894 563 
L 2988 3500 
L 3597 3500 
L 2284 0 
L 1503 0 
L 191 3500 
z
" transform="scale(0.015625)"/>
       <path id="DejaVuSans-67" d="M 2906 1791 
Q 2906 2416 2648 2759 
Q 2391 3103 1925 3103 
Q 1463 3103 1205 2759 
Q 947 2416 947 1791 
Q 947 1169 1205 825 
Q 1463 481 1925 481 
Q 2391 481 2648 825 
Q 2906 1169 2906 1791 
z
M 3481 434 
Q 3481 -459 3084 -895 
Q 2688 -1331 1869 -1331 
Q 1566 -1331 1297 -1286 
Q 1028 -1241 775 -1147 
L 775 -588 
Q 1028 -725 1275 -790 
Q 1522 -856 1778 -856 
Q 2344 -856 2625 -561 
Q 2906 -266 2906 331 
L 2906 616 
Q 2728 306 2450 153 
Q 2172 0 1784 0 
Q 1141 0 747 490 
Q 353 981 353 1791 
Q 353 2603 747 3093 
Q 1141 3584 1784 3584 
Q 2172 3584 2450 3431 
Q 2728 3278 2906 2969 
L 2906 3500 
L 3481 3500 
L 3481 434 
z
" transform="scale(0.015625)"/>
       <path id="DejaVuSans-43" d="M 4122 4306 
L 4122 3641 
Q 3803 3938 3442 4084 
Q 3081 4231 2675 4231 
Q 1875 4231 1450 3742 
Q 1025 3253 1025 2328 
Q 1025 1406 1450 917 
Q 1875 428 2675 428 
Q 3081 428 3442 575 
Q 3803 722 4122 1019 
L 4122 359 
Q 3791 134 3420 21 
Q 3050 -91 2638 -91 
Q 1578 -91 968 557 
Q 359 1206 359 2328 
Q 359 3453 968 4101 
Q 1578 4750 2638 4750 
Q 3056 4750 3426 4639 
Q 3797 4528 4122 4306 
z
" transform="scale(0.015625)"/>
       <path id="DejaVuSans-6c" d="M 603 4863 
L 1178 4863 
L 1178 0 
L 603 0 
L 603 4863 
z
" transform="scale(0.015625)"/>
      </defs>
      <use xlink:href="#DejaVuSans-41"/>
      <use xlink:href="#DejaVuSans-76" transform="translate(62.533203 0)"/>
      <use xlink:href="#DejaVuSans-65" transform="translate(121.712891 0)"/>
      <use xlink:href="#DejaVuSans-72" transform="translate(183.236328 0)"/>
      <use xlink:href="#DejaVuSans-61" transform="translate(224.349609 0)"/>
      <use xlink:href="#DejaVuSans-67" transform="translate(285.628906 0)"/>
      <use xlink:href="#DejaVuSans-65" transform="translate(349.105469 0)"/>
      <use xlink:href="#DejaVuSans-20" transform="translate(410.628906 0)"/>
      <use xlink:href="#DejaVuSans-43" transform="translate(442.416016 0)"/>
      <use xlink:href="#DejaVuSans-75" transform="translate(512.240234 0)"/>
      <use xlink:href="#DejaVuSans-6d" transform="translate(575.619141 0)"/>
      <use xlink:href="#DejaVuSans-75" transform="translate(673.03125 0)"/>
      <use xlink:href="#DejaVuSans-6c" transform="translate(736.410156 0)"/>
      <use xlink:href="#DejaVuSans-61" transform="translate(764.193359 0)"/>
      <use xlink:href="#DejaVuSans-74" transform="translate(825.472656 0)"/>
      <use xlink:href="#DejaVuSans-69" transform="translate(864.681641 0)"/>
      <use xlink:href="#DejaVuSans-76" transform="translate(892.464844 0)"/>
      <use xlink:href="#DejaVuSans-65" transform="translate(951.644531 0)"/>
      <use xlink:href="#DejaVuSans-20" transform="translate(1013.167969 0)"/>
      <use xlink:href="#DejaVuSans-43" transform="translate(1044.955078 0)"/>
      <use xlink:href="#DejaVuSans-6f" transform="translate(1114.779297 0)"/>
      <use xlink:href="#DejaVuSans-75" transform="translate(1175.960938 0)"/>
      <use xlink:href="#DejaVuSans-6e" transform="translate(1239.339844 0)"/>
      <use xlink:href="#DejaVuSans-74" transform="translate(1302.71875 0)"/>
     </g>
    </g>
   </g>
   <g id="line2d_31">
    <path d="M 69.781534 439.07267 
L 225.208854 439.07267 
L 225.322943 436.855301 
L 227.186397 436.855301 
L 227.300486 434.637932 
L 228.859703 434.637932 
L 228.973793 432.420563 
L 229.620297 432.420563 
L 229.734386 430.203194 
L 230.038624 430.203194 
L 230.152713 427.985824 
L 230.418921 427.985824 
L 230.53301 425.768455 
L 231.63587 425.768455 
L 231.749959 423.551086 
L 232.472523 423.551086 
L 232.586613 421.333717 
L 233.651444 421.333717 
L 233.765533 419.116347 
L 234.06977 419.116347 
L 234.183859 416.898978 
L 395.353661 416.898978 
L 395.46775 414.681609 
L 397.369235 414.681609 
L 397.483324 412.46424 
L 399.08057 412.46424 
L 399.194659 410.246871 
L 399.841164 410.246871 
L 399.955253 408.029501 
L 400.259491 408.029501 
L 400.37358 405.812132 
L 400.639787 405.812132 
L 400.753876 403.594763 
L 402.73142 403.594763 
L 402.845509 401.377394 
L 403.149747 401.377394 
L 403.263836 399.160024 
L 403.9864 399.160024 
L 404.100489 396.942655 
L 405.241379 396.942655 
L 405.355468 394.725286 
L 405.659706 394.725286 
L 405.773795 392.507917 
L 406.078032 392.507917 
L 406.192121 390.290548 
L 406.914685 390.290548 
L 407.028774 388.073178 
L 407.751338 388.073178 
L 407.865427 385.855809 
L 409.424645 385.855809 
L 409.538734 383.63844 
L 410.261298 383.63844 
L 410.375387 381.421071 
L 411.516277 381.421071 
L 411.630366 379.203701 
L 412.35293 379.203701 
L 412.467019 376.986332 
L 413.60791 376.986332 
L 413.721999 374.768963 
L 414.444563 374.768963 
L 414.558652 372.551594 
L 414.862889 372.551594 
L 414.976978 370.334225 
L 415.281216 370.334225 
L 415.395305 368.116855 
L 416.117869 368.116855 
L 416.231958 365.899486 
L 418.589798 365.899486 
L 418.703887 363.682117 
L 420.225075 363.682117 
L 420.339164 361.464748 
L 421.898381 361.464748 
L 422.01247 359.247378 
L 422.735034 359.247378 
L 422.849123 357.030009 
L 423.951984 357.030009 
L 424.066073 354.81264 
L 424.788637 354.81264 
L 424.902726 352.595271 
L 426.043617 352.595271 
L 426.157706 350.377902 
L 426.88027 350.377902 
L 426.994359 348.160532 
L 427.716923 348.160532 
L 427.831012 345.943163 
L 428.135249 345.943163 
L 428.249338 343.725794 
L 430.264911 343.725794 
L 430.379001 341.508425 
L 431.063535 341.508425 
L 431.177624 339.291055 
L 431.481861 339.291055 
L 431.59595 337.073686 
L 432.318514 337.073686 
L 432.432603 334.856317 
L 433.991821 334.856317 
L 434.10591 332.638948 
L 434.828474 332.638948 
L 434.942563 330.421579 
L 436.083453 330.421579 
L 436.197542 328.204209 
L 436.920106 328.204209 
L 437.034195 325.98684 
L 438.099026 325.98684 
L 438.213116 323.769471 
L 439.734303 323.769471 
L 439.848392 321.552102 
L 440.152629 321.552102 
L 440.266718 319.334732 
L 440.951253 319.334732 
L 441.065342 317.117363 
L 441.407609 317.117363 
L 441.521698 314.899994 
L 441.863965 314.899994 
L 441.978054 312.682625 
L 443.537271 312.682625 
L 443.65136 310.465256 
L 443.955598 310.465256 
L 444.069687 308.247886 
L 444.792251 308.247886 
L 444.90634 306.030517 
L 445.210577 306.030517 
L 445.324666 303.813148 
L 446.04723 303.813148 
L 446.16132 301.595779 
L 446.465557 301.595779 
L 446.579646 299.378409 
L 446.883884 299.378409 
L 446.997973 297.16104 
L 447.30221 297.16104 
L 447.416299 294.943671 
L 447.720537 294.943671 
L 447.834626 292.726302 
L 448.55719 292.726302 
L 448.671279 290.508933 
L 448.975516 290.508933 
L 449.089605 288.291563 
L 449.812169 288.291563 
L 449.926258 286.074194 
L 450.648822 286.074194 
L 450.762911 283.856825 
L 451.485475 283.856825 
L 451.599564 281.639456 
L 451.903802 281.639456 
L 452.017891 279.422086 
L 453.158781 279.422086 
L 453.27287 277.204717 
L 453.577108 277.204717 
L 453.691197 274.987348 
L 453.995434 274.987348 
L 454.109524 272.769979 
L 454.413761 272.769979 
L 454.52785 270.55261 
L 455.212384 270.55261 
L 455.326473 268.33524 
L 455.630711 268.33524 
L 455.7448 266.117871 
L 456.467364 266.117871 
L 456.581453 263.900502 
L 456.88569 263.900502 
L 456.99978 261.683133 
L 458.977323 261.683133 
L 459.091412 259.465763 
L 460.232303 259.465763 
L 460.346392 257.248394 
L 460.650629 257.248394 
L 460.764718 255.031025 
L 461.905609 255.031025 
L 462.019698 252.813656 
L 463.997241 252.813656 
L 464.111331 250.596287 
L 464.415568 250.596287 
L 464.529657 248.378917 
L 464.833895 248.378917 
L 464.947984 246.161548 
L 465.670548 246.161548 
L 465.784637 243.944179 
L 466.925527 243.944179 
L 467.039616 241.72681 
L 467.76218 241.72681 
L 467.876269 239.50944 
L 469.01716 239.50944 
L 469.131249 237.292071 
L 470.272139 237.292071 
L 470.386228 235.074702 
L 471.108792 235.074702 
L 471.222881 232.857333 
L 471.907416 232.857333 
L 472.021505 230.639963 
L 473.580722 230.639963 
L 473.694811 228.422594 
L 476.090681 228.422594 
L 476.20477 226.205225 
L 477.763987 226.205225 
L 477.878076 223.987856 
L 478.60064 223.987856 
L 478.714729 221.770487 
L 479.437293 221.770487 
L 479.551382 219.553117 
L 480.692273 219.553117 
L 480.806362 217.335748 
L 481.947252 217.335748 
L 482.061341 215.118379 
L 482.365579 215.118379 
L 482.479668 212.90101 
L 484.875538 212.90101 
L 484.989627 210.68364 
L 485.712191 210.68364 
L 485.82628 208.466271 
L 486.929141 208.466271 
L 487.04323 206.248902 
L 487.765794 206.248902 
L 487.879883 204.031533 
L 489.020774 204.031533 
L 489.134863 201.814164 
L 489.4391 201.814164 
L 489.553189 199.596794 
L 491.074377 199.596794 
L 491.188466 197.379425 
L 492.329356 197.379425 
L 492.443445 195.162056 
L 493.12798 195.162056 
L 493.242069 192.944687 
L 494.382959 192.944687 
L 494.497048 190.727317 
L 495.637939 190.727317 
L 495.752028 188.509948 
L 496.474592 188.509948 
L 496.588681 186.292579 
L 498.071839 186.292579 
L 498.185928 184.07521 
L 498.490165 184.07521 
L 498.604254 181.857841 
L 498.908492 181.857841 
L 499.022581 179.640471 
L 499.326818 179.640471 
L 499.440907 177.423102 
L 500.543768 177.423102 
L 500.657857 175.205733 
L 501.722688 175.205733 
L 501.836777 172.988364 
L 502.559341 172.988364 
L 502.67343 170.770994 
L 502.977668 170.770994 
L 503.091757 168.553625 
L 504.194618 168.553625 
L 504.308707 166.336256 
L 505.411568 166.336256 
L 505.525657 164.118887 
L 507.465171 164.118887 
L 507.57926 161.901518 
L 507.883497 161.901518 
L 507.997586 159.684148 
L 508.301824 159.684148 
L 508.415913 157.466779 
L 509.100447 157.466779 
L 509.214536 155.24941 
L 509.89907 155.24941 
L 510.013159 153.032041 
L 510.317397 153.032041 
L 510.431486 150.814671 
L 511.11602 150.814671 
L 511.230109 148.597302 
L 511.952673 148.597302 
L 512.066762 146.379933 
L 512.789326 146.379933 
L 512.903415 144.162564 
L 514.462633 144.162564 
L 514.576722 141.945195 
L 514.880959 141.945195 
L 514.995048 139.727825 
L 516.516235 139.727825 
L 516.630325 137.510456 
L 517.352889 137.510456 
L 517.466978 135.293087 
L 518.950135 135.293087 
L 519.064224 133.075718 
L 519.786788 133.075718 
L 519.900877 130.858348 
L 520.205115 130.858348 
L 520.319204 128.640979 
L 523.095371 128.640979 
L 523.20946 126.42361 
L 525.187003 126.42361 
L 525.301093 124.206241 
L 525.60533 124.206241 
L 525.719419 121.988872 
L 526.099716 121.988872 
L 526.099716 121.988872 
" clip-path="url(#p89bdafb680)" style="fill: none; stroke-dasharray: 7.4,3.2; stroke-dashoffset: 0; stroke: #006ba4; stroke-width: 2"/>
   </g>
   <g id="line2d_32">
    <path d="M 69.781534 439.07267 
L 230.761188 439.07267 
L 230.875277 436.855301 
L 231.978138 436.855301 
L 232.092227 434.637932 
L 234.412037 434.637932 
L 234.526126 432.420563 
L 234.830364 432.420563 
L 234.944453 430.203194 
L 235.24869 430.203194 
L 235.362779 427.985824 
L 400.982055 427.985824 
L 401.096144 425.768455 
L 401.400381 425.768455 
L 401.51447 423.551086 
L 401.818708 423.551086 
L 401.932797 421.333717 
L 402.237034 421.333717 
L 402.351123 419.116347 
L 403.492014 419.116347 
L 403.606103 416.898978 
L 404.328667 416.898978 
L 404.442756 414.681609 
L 404.746993 414.681609 
L 404.861082 412.46424 
L 406.420299 412.46424 
L 406.534388 410.246871 
L 407.256952 410.246871 
L 407.371042 408.029501 
L 408.093606 408.029501 
L 408.207695 405.812132 
L 408.511932 405.812132 
L 408.626021 403.594763 
L 408.930259 403.594763 
L 409.044348 401.377394 
L 409.766912 401.377394 
L 409.881001 399.160024 
L 410.603565 399.160024 
L 410.717654 396.942655 
L 411.021891 396.942655 
L 411.13598 394.725286 
L 411.858544 394.725286 
L 411.972633 392.507917 
L 412.695197 392.507917 
L 412.809286 390.290548 
L 413.113524 390.290548 
L 413.227613 388.073178 
L 413.950177 388.073178 
L 414.064266 385.855809 
L 415.623483 385.855809 
L 415.737572 383.63844 
L 416.460136 383.63844 
L 416.574225 381.421071 
L 416.878463 381.421071 
L 416.992552 379.203701 
L 417.296789 379.203701 
L 417.410878 376.986332 
L 417.715116 376.986332 
L 417.829205 374.768963 
L 418.932066 374.768963 
L 419.046155 372.551594 
L 419.350392 372.551594 
L 419.464481 370.334225 
L 420.567342 370.334225 
L 420.681431 368.116855 
L 420.985669 368.116855 
L 421.099758 365.899486 
L 421.403995 365.899486 
L 421.518084 363.682117 
L 422.240648 363.682117 
L 422.354737 361.464748 
L 423.077301 361.464748 
L 423.19139 359.247378 
L 424.294251 359.247378 
L 424.40834 357.030009 
L 425.130904 357.030009 
L 425.244993 354.81264 
L 425.549231 354.81264 
L 425.66332 352.595271 
L 426.385884 352.595271 
L 426.499973 350.377902 
L 427.222537 350.377902 
L 427.336626 348.160532 
L 428.477516 348.160532 
L 428.591605 345.943163 
L 428.895843 345.943163 
L 429.009932 343.725794 
L 429.314169 343.725794 
L 429.428258 341.508425 
L 431.824129 341.508425 
L 431.938218 339.291055 
L 432.660782 339.291055 
L 432.774871 337.073686 
L 433.079108 337.073686 
L 433.193197 334.856317 
L 433.497435 334.856317 
L 433.611524 332.638948 
L 434.334088 332.638948 
L 434.448177 330.421579 
L 435.170741 330.421579 
L 435.28483 328.204209 
L 435.589067 328.204209 
L 435.703156 325.98684 
L 436.42572 325.98684 
L 436.539809 323.769471 
L 438.441294 323.769471 
L 438.555383 321.552102 
L 438.85962 321.552102 
L 438.973709 319.334732 
L 442.206232 319.334732 
L 442.320321 317.117363 
L 442.624559 317.117363 
L 442.738648 314.899994 
L 443.042885 314.899994 
L 443.156974 312.682625 
L 444.297865 312.682625 
L 444.411954 310.465256 
L 445.552845 310.465256 
L 445.666934 308.247886 
L 448.062804 308.247886 
L 448.176893 306.030517 
L 449.317783 306.030517 
L 449.431872 303.813148 
L 450.154436 303.813148 
L 450.268525 301.595779 
L 450.991089 301.595779 
L 451.105178 299.378409 
L 452.246069 299.378409 
L 452.360158 297.16104 
L 452.664396 297.16104 
L 452.778485 294.943671 
L 455.972978 294.943671 
L 456.087067 292.726302 
L 457.227958 292.726302 
L 457.342047 290.508933 
L 457.646284 290.508933 
L 457.760373 288.291563 
L 458.064611 288.291563 
L 458.1787 286.074194 
L 458.482937 286.074194 
L 458.597026 283.856825 
L 459.31959 283.856825 
L 459.433679 281.639456 
L 459.737917 281.639456 
L 459.852006 279.422086 
L 460.992896 279.422086 
L 461.106985 277.204717 
L 461.411223 277.204717 
L 461.525312 274.987348 
L 462.247876 274.987348 
L 462.361965 272.769979 
L 462.666203 272.769979 
L 462.780292 270.55261 
L 463.084529 270.55261 
L 463.198618 268.33524 
L 463.502856 268.33524 
L 463.616945 266.117871 
L 465.176162 266.117871 
L 465.290251 263.900502 
L 466.012815 263.900502 
L 466.126904 261.683133 
L 466.431141 261.683133 
L 466.54523 259.465763 
L 467.267794 259.465763 
L 467.381883 257.248394 
L 468.104447 257.248394 
L 468.218536 255.031025 
L 468.522774 255.031025 
L 468.636863 252.813656 
L 469.359427 252.813656 
L 469.473516 250.596287 
L 469.777753 250.596287 
L 469.891843 248.378917 
L 470.614407 248.378917 
L 470.728496 246.161548 
L 472.249683 246.161548 
L 472.363772 243.944179 
L 472.668009 243.944179 
L 472.782099 241.72681 
L 473.086336 241.72681 
L 473.200425 239.50944 
L 473.922989 239.50944 
L 474.037078 237.292071 
L 474.341316 237.292071 
L 474.455405 235.074702 
L 474.759642 235.074702 
L 474.873731 232.857333 
L 475.177969 232.857333 
L 475.292058 230.639963 
L 475.596295 230.639963 
L 475.710384 228.422594 
L 476.432948 228.422594 
L 476.547037 226.205225 
L 476.851275 226.205225 
L 476.965364 223.987856 
L 477.269601 223.987856 
L 477.38369 221.770487 
L 478.106254 221.770487 
L 478.220343 219.553117 
L 478.942907 219.553117 
L 479.056996 217.335748 
L 479.77956 217.335748 
L 479.893649 215.118379 
L 480.197887 215.118379 
L 480.311976 212.90101 
L 481.03454 212.90101 
L 481.148629 210.68364 
L 481.452867 210.68364 
L 481.566956 208.466271 
L 482.707846 208.466271 
L 482.821935 206.248902 
L 483.126173 206.248902 
L 483.240262 204.031533 
L 483.544499 204.031533 
L 483.658588 201.814164 
L 483.962826 201.814164 
L 484.076915 199.596794 
L 484.381152 199.596794 
L 484.495241 197.379425 
L 485.217805 197.379425 
L 485.331894 195.162056 
L 486.054458 195.162056 
L 486.168547 192.944687 
L 487.271408 192.944687 
L 487.385497 190.727317 
L 488.108061 190.727317 
L 488.22215 188.509948 
L 488.526388 188.509948 
L 488.640477 186.292579 
L 489.781367 186.292579 
L 489.895456 184.07521 
L 490.199694 184.07521 
L 490.313783 181.857841 
L 491.416644 181.857841 
L 491.530733 179.640471 
L 491.83497 179.640471 
L 491.949059 177.423102 
L 493.470247 177.423102 
L 493.584336 175.205733 
L 493.888573 175.205733 
L 494.002662 172.988364 
L 494.725226 172.988364 
L 494.839315 170.770994 
L 495.143553 170.770994 
L 495.257642 168.553625 
L 495.980206 168.553625 
L 496.094295 166.336256 
L 496.816859 166.336256 
L 496.930948 164.118887 
L 499.669085 164.118887 
L 499.783174 161.901518 
L 502.064955 161.901518 
L 502.179044 159.684148 
L 503.319935 159.684148 
L 503.434024 157.466779 
L 504.536885 157.466779 
L 504.650974 155.24941 
L 505.753835 155.24941 
L 505.867924 153.032041 
L 506.172161 153.032041 
L 506.28625 150.814671 
L 506.590488 150.814671 
L 506.704577 148.597302 
L 511.458287 148.597302 
L 511.572377 146.379933 
L 512.294941 146.379933 
L 512.40903 144.162564 
L 513.131594 144.162564 
L 513.245683 141.945195 
L 513.54992 141.945195 
L 513.664009 139.727825 
L 513.968247 139.727825 
L 514.082336 137.510456 
L 515.223226 137.510456 
L 515.337315 135.293087 
L 515.641553 135.293087 
L 515.755642 133.075718 
L 516.858503 133.075718 
L 516.972592 130.858348 
L 517.695156 130.858348 
L 517.809245 128.640979 
L 519.292402 128.640979 
L 519.406491 126.42361 
L 520.547382 126.42361 
L 520.661471 124.206241 
L 520.965709 124.206241 
L 521.079798 121.988872 
L 521.384035 121.988872 
L 521.498124 119.771502 
L 521.802362 119.771502 
L 521.916451 117.554133 
L 522.220688 117.554133 
L 522.334777 115.336764 
L 522.639015 115.336764 
L 522.753104 113.119395 
L 523.437638 113.119395 
L 523.551727 110.902025 
L 524.274291 110.902025 
L 524.38838 108.684656 
L 524.692618 108.684656 
L 524.806707 106.467287 
L 526.099716 106.467287 
L 526.099716 106.467287 
" clip-path="url(#p89bdafb680)" style="fill: none; stroke-dasharray: 7.4,3.2; stroke-dashoffset: 0; stroke: #ff800e; stroke-width: 2"/>
   </g>
   <g id="line2d_33">
    <path d="M 69.781534 439.07267 
L 182.235311 439.07267 
L 182.3494 436.855301 
L 352.380118 436.855301 
L 352.494207 434.637932 
L 526.099716 434.637932 
L 526.099716 434.637932 
" clip-path="url(#p89bdafb680)" style="fill: none; stroke-dasharray: 7.4,3.2; stroke-dashoffset: 0; stroke: #ababab; stroke-width: 2"/>
   </g>
   <g id="line2d_34">
    <path d="M 69.781534 439.07267 
L 224.44826 439.07267 
L 224.562349 436.855301 
L 225.170824 436.855301 
L 225.284913 434.637932 
L 225.969447 434.637932 
L 226.083537 432.420563 
L 227.148368 432.420563 
L 227.262457 430.203194 
L 228.821674 430.203194 
L 228.935763 427.985824 
L 229.24 427.985824 
L 229.354089 425.768455 
L 229.582267 425.768455 
L 229.696357 423.551086 
L 230.000594 423.551086 
L 230.114683 421.333717 
L 230.380891 421.333717 
L 230.49498 419.116347 
L 231.217544 419.116347 
L 231.331633 416.898978 
L 231.597841 416.898978 
L 231.71193 414.681609 
L 232.434494 414.681609 
L 232.548583 412.46424 
L 232.85282 412.46424 
L 232.966909 410.246871 
L 233.233117 410.246871 
L 233.347206 408.029501 
L 233.613414 408.029501 
L 233.727503 405.812132 
L 234.031741 405.812132 
L 234.14583 403.594763 
L 394.593068 403.594763 
L 394.707157 401.377394 
L 395.315632 401.377394 
L 395.429721 399.160024 
L 396.152285 399.160024 
L 396.266374 396.942655 
L 397.331205 396.942655 
L 397.445294 394.725286 
L 399.042541 394.725286 
L 399.15663 392.507917 
L 399.460867 392.507917 
L 399.574956 390.290548 
L 399.803134 390.290548 
L 399.917223 388.073178 
L 400.221461 388.073178 
L 400.33555 385.855809 
L 400.601758 385.855809 
L 400.715847 383.63844 
L 402.69339 383.63844 
L 402.807479 381.421071 
L 403.111717 381.421071 
L 403.225806 379.203701 
L 403.94837 379.203701 
L 404.062459 376.986332 
L 405.20335 376.986332 
L 405.317439 374.768963 
L 405.621676 374.768963 
L 405.735765 372.551594 
L 406.040003 372.551594 
L 406.154092 370.334225 
L 406.876656 370.334225 
L 406.990745 368.116855 
L 407.713309 368.116855 
L 407.827398 365.899486 
L 409.386615 365.899486 
L 409.500704 363.682117 
L 410.223268 363.682117 
L 410.337357 361.464748 
L 411.478247 361.464748 
L 411.592337 359.247378 
L 412.314901 359.247378 
L 412.42899 357.030009 
L 413.56988 357.030009 
L 413.683969 354.81264 
L 414.406533 354.81264 
L 414.520622 352.595271 
L 414.82486 352.595271 
L 414.938949 350.377902 
L 415.243186 350.377902 
L 415.357275 348.160532 
L 416.079839 348.160532 
L 416.193928 345.943163 
L 418.171472 345.943163 
L 418.285561 343.725794 
L 418.551769 343.725794 
L 418.665858 341.508425 
L 419.806748 341.508425 
L 419.920837 339.291055 
L 420.187045 339.291055 
L 420.301134 337.073686 
L 421.860351 337.073686 
L 421.97444 334.856317 
L 422.697004 334.856317 
L 422.811093 332.638948 
L 423.533657 332.638948 
L 423.647746 330.421579 
L 423.913954 330.421579 
L 424.028043 328.204209 
L 424.750607 328.204209 
L 424.864696 325.98684 
L 426.005587 325.98684 
L 426.119676 323.769471 
L 426.84224 323.769471 
L 426.956329 321.552102 
L 427.678893 321.552102 
L 427.792982 319.334732 
L 428.097219 319.334732 
L 428.211309 317.117363 
L 430.226882 317.117363 
L 430.340971 314.899994 
L 430.645208 314.899994 
L 430.759297 312.682625 
L 431.025505 312.682625 
L 431.139594 310.465256 
L 431.443832 310.465256 
L 431.557921 308.247886 
L 432.280485 308.247886 
L 432.394574 306.030517 
L 433.953791 306.030517 
L 434.06788 303.813148 
L 434.790444 303.813148 
L 434.904533 301.595779 
L 436.045424 301.595779 
L 436.159513 299.378409 
L 436.882077 299.378409 
L 436.996166 297.16104 
L 437.300403 297.16104 
L 437.414492 294.943671 
L 437.6807 294.943671 
L 437.794789 292.726302 
L 438.060997 292.726302 
L 438.175086 290.508933 
L 439.315976 290.508933 
L 439.430065 288.291563 
L 439.696273 288.291563 
L 439.810362 286.074194 
L 440.1146 286.074194 
L 440.228689 283.856825 
L 440.532926 283.856825 
L 440.647015 281.639456 
L 440.913223 281.639456 
L 441.027312 279.422086 
L 441.369579 279.422086 
L 441.483668 277.204717 
L 441.825936 277.204717 
L 441.940025 274.987348 
L 443.499242 274.987348 
L 443.613331 272.769979 
L 443.917568 272.769979 
L 444.031657 270.55261 
L 444.754221 270.55261 
L 444.86831 268.33524 
L 445.172548 268.33524 
L 445.286637 266.117871 
L 446.009201 266.117871 
L 446.12329 263.900502 
L 446.427527 263.900502 
L 446.541616 261.683133 
L 446.845854 261.683133 
L 446.959943 259.465763 
L 447.26418 259.465763 
L 447.378269 257.248394 
L 447.682507 257.248394 
L 447.796596 255.031025 
L 448.51916 255.031025 
L 448.633249 252.813656 
L 448.937486 252.813656 
L 449.051576 250.596287 
L 449.77414 250.596287 
L 449.888229 248.378917 
L 450.610793 248.378917 
L 450.724882 246.161548 
L 451.447446 246.161548 
L 451.561535 243.944179 
L 451.865772 243.944179 
L 451.979861 241.72681 
L 453.120752 241.72681 
L 453.234841 239.50944 
L 453.539078 239.50944 
L 453.653167 237.292071 
L 453.957405 237.292071 
L 454.071494 235.074702 
L 454.375731 235.074702 
L 454.48982 232.857333 
L 454.794058 232.857333 
L 454.908147 230.639963 
L 455.174355 230.639963 
L 455.288444 228.422594 
L 455.592681 228.422594 
L 455.70677 226.205225 
L 456.429334 226.205225 
L 456.543423 223.987856 
L 456.847661 223.987856 
L 456.96175 221.770487 
L 458.939293 221.770487 
L 459.053383 219.553117 
L 460.194273 219.553117 
L 460.308362 217.335748 
L 460.6126 217.335748 
L 460.726689 215.118379 
L 461.867579 215.118379 
L 461.981668 212.90101 
L 463.959212 212.90101 
L 464.073301 210.68364 
L 464.377538 210.68364 
L 464.491627 208.466271 
L 464.795865 208.466271 
L 464.909954 206.248902 
L 465.632518 206.248902 
L 465.746607 204.031533 
L 466.887497 204.031533 
L 467.001587 201.814164 
L 467.724151 201.814164 
L 467.83824 199.596794 
L 468.97913 199.596794 
L 469.093219 197.379425 
L 470.23411 197.379425 
L 470.348199 195.162056 
L 471.070763 195.162056 
L 471.184852 192.944687 
L 471.489089 192.944687 
L 471.603178 190.727317 
L 471.869386 190.727317 
L 471.983475 188.509948 
L 473.542692 188.509948 
L 473.656781 186.292579 
L 476.052651 186.292579 
L 476.16674 184.07521 
L 477.725957 184.07521 
L 477.840047 181.857841 
L 478.562611 181.857841 
L 478.6767 179.640471 
L 479.399264 179.640471 
L 479.513353 177.423102 
L 480.654243 177.423102 
L 480.768332 175.205733 
L 481.909223 175.205733 
L 482.023312 172.988364 
L 482.327549 172.988364 
L 482.441638 170.770994 
L 484.837508 170.770994 
L 484.951598 168.553625 
L 485.674162 168.553625 
L 485.788251 166.336256 
L 486.510815 166.336256 
L 486.624904 164.118887 
L 486.891111 164.118887 
L 487.0052 161.901518 
L 487.727764 161.901518 
L 487.841854 159.684148 
L 488.982744 159.684148 
L 489.096833 157.466779 
L 489.401071 157.466779 
L 489.51516 155.24941 
L 490.65605 155.24941 
L 490.770139 153.032041 
L 491.036347 153.032041 
L 491.150436 150.814671 
L 492.291327 150.814671 
L 492.405416 148.597302 
L 492.709653 148.597302 
L 492.823742 146.379933 
L 493.08995 146.379933 
L 493.204039 144.162564 
L 494.34493 144.162564 
L 494.459019 141.945195 
L 495.599909 141.945195 
L 495.713998 139.727825 
L 496.436562 139.727825 
L 496.550651 137.510456 
L 497.273215 137.510456 
L 497.387304 135.293087 
L 497.653512 135.293087 
L 497.767601 133.075718 
L 498.033809 133.075718 
L 498.147898 130.858348 
L 498.452135 130.858348 
L 498.566224 128.640979 
L 498.870462 128.640979 
L 498.984551 126.42361 
L 499.288788 126.42361 
L 499.402878 124.206241 
L 500.125442 124.206241 
L 500.239531 121.988872 
L 500.505738 121.988872 
L 500.619827 119.771502 
L 500.924065 119.771502 
L 501.038154 117.554133 
L 501.304362 117.554133 
L 501.418451 115.336764 
L 501.684659 115.336764 
L 501.798748 113.119395 
L 502.521312 113.119395 
L 502.635401 110.902025 
L 502.939638 110.902025 
L 503.053727 108.684656 
L 503.776291 108.684656 
L 503.89038 106.467287 
L 504.156588 106.467287 
L 504.270677 104.249918 
L 504.993241 104.249918 
L 505.10733 102.032549 
L 505.373538 102.032549 
L 505.487627 99.815179 
L 507.046844 99.815179 
L 507.160933 97.59781 
L 507.427141 97.59781 
L 507.54123 95.380441 
L 507.845467 95.380441 
L 507.959557 93.163072 
L 508.263794 93.163072 
L 508.377883 90.945702 
L 508.682121 90.945702 
L 508.79621 88.728333 
L 509.062417 88.728333 
L 509.176506 86.510964 
L 509.480744 86.510964 
L 509.594833 84.293595 
L 509.861041 84.293595 
L 509.97513 82.076226 
L 510.279367 82.076226 
L 510.393456 79.858856 
L 510.697694 79.858856 
L 510.811783 77.641487 
L 511.077991 77.641487 
L 511.19208 75.424118 
L 511.914644 75.424118 
L 512.028733 73.206749 
L 512.751297 73.206749 
L 512.865386 70.989379 
L 514.424603 70.989379 
L 514.538692 68.77201 
L 514.842929 68.77201 
L 514.957018 66.554641 
L 516.097909 66.554641 
L 516.211998 64.337272 
L 516.478206 64.337272 
L 516.592295 62.119903 
L 517.314859 62.119903 
L 517.428948 59.902533 
L 518.151512 59.902533 
L 518.265601 57.685164 
L 518.531809 57.685164 
L 518.645898 55.467795 
L 518.912106 55.467795 
L 519.026195 53.250426 
L 519.748759 53.250426 
L 519.862848 51.033056 
L 520.167085 51.033056 
L 520.281174 48.815687 
L 523.057341 48.815687 
L 523.17143 46.598318 
L 525.148974 46.598318 
L 525.263063 44.380949 
L 525.5673 44.380949 
L 525.681389 42.16358 
L 526.099716 42.16358 
L 526.099716 42.16358 
" clip-path="url(#p89bdafb680)" style="fill: none; stroke-dasharray: 7.4,3.2; stroke-dashoffset: 0; stroke: #595959; stroke-width: 2"/>
   </g>
   <g id="line2d_35">
    <path d="M 69.781534 439.07267 
L 526.099716 439.07267 
L 526.099716 439.07267 
" clip-path="url(#p89bdafb680)" style="fill: none; stroke-dasharray: 7.4,3.2; stroke-dashoffset: 0; stroke: #5f9ed1; stroke-width: 2"/>
   </g>
   <g id="patch_3">
    <path d="M 46.965625 458.918125 
L 46.965625 22.318125 
" style="fill: none; stroke: #000000; stroke-width: 0.8; stroke-linejoin: miter; stroke-linecap: square"/>
   </g>
   <g id="patch_4">
    <path d="M 548.915625 458.918125 
L 548.915625 22.318125 
" style="fill: none; stroke: #000000; stroke-width: 0.8; stroke-linejoin: miter; stroke-linecap: square"/>
   </g>
   <g id="patch_5">
    <path d="M 46.965625 458.918125 
L 548.915625 458.918125 
" style="fill: none; stroke: #000000; stroke-width: 0.8; stroke-linejoin: miter; stroke-linecap: square"/>
   </g>
   <g id="patch_6">
    <path d="M 46.965625 22.318125 
L 548.915625 22.318125 
" style="fill: none; stroke: #000000; stroke-width: 0.8; stroke-linejoin: miter; stroke-linecap: square"/>
   </g>
   <g id="text_18">
    <!-- Telomeric Motif Distribution: A_praecox -->
    <g transform="translate(164.265313 16.318125) scale(0.12 -0.12)">
     <defs>
      <path id="DejaVuSans-Bold-54" d="M 31 4666 
L 4331 4666 
L 4331 3756 
L 2784 3756 
L 2784 0 
L 1581 0 
L 1581 3756 
L 31 3756 
L 31 4666 
z
" transform="scale(0.015625)"/>
      <path id="DejaVuSans-Bold-65" d="M 4031 1759 
L 4031 1441 
L 1416 1441 
Q 1456 1047 1700 850 
Q 1944 653 2381 653 
Q 2734 653 3104 758 
Q 3475 863 3866 1075 
L 3866 213 
Q 3469 63 3072 -14 
Q 2675 -91 2278 -91 
Q 1328 -91 801 392 
Q 275 875 275 1747 
Q 275 2603 792 3093 
Q 1309 3584 2216 3584 
Q 3041 3584 3536 3087 
Q 4031 2591 4031 1759 
z
M 2881 2131 
Q 2881 2450 2695 2645 
Q 2509 2841 2209 2841 
Q 1884 2841 1681 2658 
Q 1478 2475 1428 2131 
L 2881 2131 
z
" transform="scale(0.015625)"/>
      <path id="DejaVuSans-Bold-6c" d="M 538 4863 
L 1656 4863 
L 1656 0 
L 538 0 
L 538 4863 
z
" transform="scale(0.015625)"/>
      <path id="DejaVuSans-Bold-6f" d="M 2203 2784 
Q 1831 2784 1636 2517 
Q 1441 2250 1441 1747 
Q 1441 1244 1636 976 
Q 1831 709 2203 709 
Q 2569 709 2762 976 
Q 2956 1244 2956 1747 
Q 2956 2250 2762 2517 
Q 2569 2784 2203 2784 
z
M 2203 3584 
Q 3106 3584 3614 3096 
Q 4122 2609 4122 1747 
Q 4122 884 3614 396 
Q 3106 -91 2203 -91 
Q 1297 -91 786 396 
Q 275 884 275 1747 
Q 275 2609 786 3096 
Q 1297 3584 2203 3584 
z
" transform="scale(0.015625)"/>
      <path id="DejaVuSans-Bold-6d" d="M 3781 2919 
Q 3994 3244 4286 3414 
Q 4578 3584 4928 3584 
Q 5531 3584 5847 3212 
Q 6163 2841 6163 2131 
L 6163 0 
L 5038 0 
L 5038 1825 
Q 5041 1866 5042 1909 
Q 5044 1953 5044 2034 
Q 5044 2406 4934 2573 
Q 4825 2741 4581 2741 
Q 4263 2741 4089 2478 
Q 3916 2216 3909 1719 
L 3909 0 
L 2784 0 
L 2784 1825 
Q 2784 2406 2684 2573 
Q 2584 2741 2328 2741 
Q 2006 2741 1831 2477 
Q 1656 2213 1656 1722 
L 1656 0 
L 531 0 
L 531 3500 
L 1656 3500 
L 1656 2988 
Q 1863 3284 2130 3434 
Q 2397 3584 2719 3584 
Q 3081 3584 3359 3409 
Q 3638 3234 3781 2919 
z
" transform="scale(0.015625)"/>
      <path id="DejaVuSans-Bold-72" d="M 3138 2547 
Q 2991 2616 2845 2648 
Q 2700 2681 2553 2681 
Q 2122 2681 1889 2404 
Q 1656 2128 1656 1613 
L 1656 0 
L 538 0 
L 538 3500 
L 1656 3500 
L 1656 2925 
Q 1872 3269 2151 3426 
Q 2431 3584 2822 3584 
Q 2878 3584 2943 3579 
Q 3009 3575 3134 3559 
L 3138 2547 
z
" transform="scale(0.015625)"/>
      <path id="DejaVuSans-Bold-69" d="M 538 3500 
L 1656 3500 
L 1656 0 
L 538 0 
L 538 3500 
z
M 538 4863 
L 1656 4863 
L 1656 3950 
L 538 3950 
L 538 4863 
z
" transform="scale(0.015625)"/>
      <path id="DejaVuSans-Bold-63" d="M 3366 3391 
L 3366 2478 
Q 3138 2634 2908 2709 
Q 2678 2784 2431 2784 
Q 1963 2784 1702 2511 
Q 1441 2238 1441 1747 
Q 1441 1256 1702 982 
Q 1963 709 2431 709 
Q 2694 709 2930 787 
Q 3166 866 3366 1019 
L 3366 103 
Q 3103 6 2833 -42 
Q 2563 -91 2291 -91 
Q 1344 -91 809 395 
Q 275 881 275 1747 
Q 275 2613 809 3098 
Q 1344 3584 2291 3584 
Q 2566 3584 2833 3536 
Q 3100 3488 3366 3391 
z
" transform="scale(0.015625)"/>
      <path id="DejaVuSans-Bold-20" transform="scale(0.015625)"/>
      <path id="DejaVuSans-Bold-4d" d="M 588 4666 
L 2119 4666 
L 3181 2169 
L 4250 4666 
L 5778 4666 
L 5778 0 
L 4641 0 
L 4641 3413 
L 3566 897 
L 2803 897 
L 1728 3413 
L 1728 0 
L 588 0 
L 588 4666 
z
" transform="scale(0.015625)"/>
      <path id="DejaVuSans-Bold-74" d="M 1759 4494 
L 1759 3500 
L 2913 3500 
L 2913 2700 
L 1759 2700 
L 1759 1216 
Q 1759 972 1856 886 
Q 1953 800 2241 800 
L 2816 800 
L 2816 0 
L 1856 0 
Q 1194 0 917 276 
Q 641 553 641 1216 
L 641 2700 
L 84 2700 
L 84 3500 
L 641 3500 
L 641 4494 
L 1759 4494 
z
" transform="scale(0.015625)"/>
      <path id="DejaVuSans-Bold-66" d="M 2841 4863 
L 2841 4128 
L 2222 4128 
Q 1984 4128 1890 4042 
Q 1797 3956 1797 3744 
L 1797 3500 
L 2753 3500 
L 2753 2700 
L 1797 2700 
L 1797 0 
L 678 0 
L 678 2700 
L 122 2700 
L 122 3500 
L 678 3500 
L 678 3744 
Q 678 4316 997 4589 
Q 1316 4863 1984 4863 
L 2841 4863 
z
" transform="scale(0.015625)"/>
      <path id="DejaVuSans-Bold-44" d="M 1791 3756 
L 1791 909 
L 2222 909 
Q 2959 909 3348 1275 
Q 3738 1641 3738 2338 
Q 3738 3031 3350 3393 
Q 2963 3756 2222 3756 
L 1791 3756 
z
M 588 4666 
L 1856 4666 
Q 2919 4666 3439 4514 
Q 3959 4363 4331 4000 
Q 4659 3684 4818 3271 
Q 4978 2859 4978 2338 
Q 4978 1809 4818 1395 
Q 4659 981 4331 666 
Q 3956 303 3431 151 
Q 2906 0 1856 0 
L 588 0 
L 588 4666 
z
" transform="scale(0.015625)"/>
      <path id="DejaVuSans-Bold-73" d="M 3272 3391 
L 3272 2541 
Q 2913 2691 2578 2766 
Q 2244 2841 1947 2841 
Q 1628 2841 1473 2761 
Q 1319 2681 1319 2516 
Q 1319 2381 1436 2309 
Q 1553 2238 1856 2203 
L 2053 2175 
Q 2913 2066 3209 1816 
Q 3506 1566 3506 1031 
Q 3506 472 3093 190 
Q 2681 -91 1863 -91 
Q 1516 -91 1145 -36 
Q 775 19 384 128 
L 384 978 
Q 719 816 1070 734 
Q 1422 653 1784 653 
Q 2113 653 2278 743 
Q 2444 834 2444 1013 
Q 2444 1163 2330 1236 
Q 2216 1309 1875 1350 
L 1678 1375 
Q 931 1469 631 1722 
Q 331 1975 331 2491 
Q 331 3047 712 3315 
Q 1094 3584 1881 3584 
Q 2191 3584 2531 3537 
Q 2872 3491 3272 3391 
z
" transform="scale(0.015625)"/>
      <path id="DejaVuSans-Bold-62" d="M 2400 722 
Q 2759 722 2948 984 
Q 3138 1247 3138 1747 
Q 3138 2247 2948 2509 
Q 2759 2772 2400 2772 
Q 2041 2772 1848 2508 
Q 1656 2244 1656 1747 
Q 1656 1250 1848 986 
Q 2041 722 2400 722 
z
M 1656 2988 
Q 1888 3294 2169 3439 
Q 2450 3584 2816 3584 
Q 3463 3584 3878 3070 
Q 4294 2556 4294 1747 
Q 4294 938 3878 423 
Q 3463 -91 2816 -91 
Q 2450 -91 2169 54 
Q 1888 200 1656 506 
L 1656 0 
L 538 0 
L 538 4863 
L 1656 4863 
L 1656 2988 
z
" transform="scale(0.015625)"/>
      <path id="DejaVuSans-Bold-75" d="M 500 1363 
L 500 3500 
L 1625 3500 
L 1625 3150 
Q 1625 2866 1622 2436 
Q 1619 2006 1619 1863 
Q 1619 1441 1641 1255 
Q 1663 1069 1716 984 
Q 1784 875 1895 815 
Q 2006 756 2150 756 
Q 2500 756 2700 1025 
Q 2900 1294 2900 1772 
L 2900 3500 
L 4019 3500 
L 4019 0 
L 2900 0 
L 2900 506 
Q 2647 200 2364 54 
Q 2081 -91 1741 -91 
Q 1134 -91 817 281 
Q 500 653 500 1363 
z
" transform="scale(0.015625)"/>
      <path id="DejaVuSans-Bold-6e" d="M 4056 2131 
L 4056 0 
L 2931 0 
L 2931 347 
L 2931 1631 
Q 2931 2084 2911 2256 
Q 2891 2428 2841 2509 
Q 2775 2619 2662 2680 
Q 2550 2741 2406 2741 
Q 2056 2741 1856 2470 
Q 1656 2200 1656 1722 
L 1656 0 
L 538 0 
L 538 3500 
L 1656 3500 
L 1656 2988 
Q 1909 3294 2193 3439 
Q 2478 3584 2822 3584 
Q 3428 3584 3742 3212 
Q 4056 2841 4056 2131 
z
" transform="scale(0.015625)"/>
      <path id="DejaVuSans-Bold-3a" d="M 716 3500 
L 1844 3500 
L 1844 2291 
L 716 2291 
L 716 3500 
z
M 716 1209 
L 1844 1209 
L 1844 0 
L 716 0 
L 716 1209 
z
" transform="scale(0.015625)"/>
      <path id="DejaVuSans-Bold-41" d="M 3419 850 
L 1538 850 
L 1241 0 
L 31 0 
L 1759 4666 
L 3194 4666 
L 4922 0 
L 3713 0 
L 3419 850 
z
M 1838 1716 
L 3116 1716 
L 2478 3572 
L 1838 1716 
z
" transform="scale(0.015625)"/>
      <path id="DejaVuSans-Bold-5f" d="M 3200 -916 
L 3200 -1509 
L 0 -1509 
L 0 -916 
L 3200 -916 
z
" transform="scale(0.015625)"/>
      <path id="DejaVuSans-Bold-70" d="M 1656 506 
L 1656 -1331 
L 538 -1331 
L 538 3500 
L 1656 3500 
L 1656 2988 
Q 1888 3294 2169 3439 
Q 2450 3584 2816 3584 
Q 3463 3584 3878 3070 
Q 4294 2556 4294 1747 
Q 4294 938 3878 423 
Q 3463 -91 2816 -91 
Q 2450 -91 2169 54 
Q 1888 200 1656 506 
z
M 2400 2772 
Q 2041 2772 1848 2508 
Q 1656 2244 1656 1747 
Q 1656 1250 1848 986 
Q 2041 722 2400 722 
Q 2759 722 2948 984 
Q 3138 1247 3138 1747 
Q 3138 2247 2948 2509 
Q 2759 2772 2400 2772 
z
" transform="scale(0.015625)"/>
      <path id="DejaVuSans-Bold-61" d="M 2106 1575 
Q 1756 1575 1579 1456 
Q 1403 1338 1403 1106 
Q 1403 894 1545 773 
Q 1688 653 1941 653 
Q 2256 653 2472 879 
Q 2688 1106 2688 1447 
L 2688 1575 
L 2106 1575 
z
M 3816 1997 
L 3816 0 
L 2688 0 
L 2688 519 
Q 2463 200 2181 54 
Q 1900 -91 1497 -91 
Q 953 -91 614 226 
Q 275 544 275 1050 
Q 275 1666 698 1953 
Q 1122 2241 2028 2241 
L 2688 2241 
L 2688 2328 
Q 2688 2594 2478 2717 
Q 2269 2841 1825 2841 
Q 1466 2841 1156 2769 
Q 847 2697 581 2553 
L 581 3406 
Q 941 3494 1303 3539 
Q 1666 3584 2028 3584 
Q 2975 3584 3395 3211 
Q 3816 2838 3816 1997 
z
" transform="scale(0.015625)"/>
      <path id="DejaVuSans-Bold-78" d="M 1422 1791 
L 159 3500 
L 1344 3500 
L 2059 2463 
L 2784 3500 
L 3969 3500 
L 2706 1797 
L 4031 0 
L 2847 0 
L 2059 1106 
L 1281 0 
L 97 0 
L 1422 1791 
z
" transform="scale(0.015625)"/>
     </defs>
     <use xlink:href="#DejaVuSans-Bold-54"/>
     <use xlink:href="#DejaVuSans-Bold-65" transform="translate(54.962891 0)"/>
     <use xlink:href="#DejaVuSans-Bold-6c" transform="translate(122.785156 0)"/>
     <use xlink:href="#DejaVuSans-Bold-6f" transform="translate(157.0625 0)"/>
     <use xlink:href="#DejaVuSans-Bold-6d" transform="translate(225.763672 0)"/>
     <use xlink:href="#DejaVuSans-Bold-65" transform="translate(329.962891 0)"/>
     <use xlink:href="#DejaVuSans-Bold-72" transform="translate(397.785156 0)"/>
     <use xlink:href="#DejaVuSans-Bold-69" transform="translate(447.101562 0)"/>
     <use xlink:href="#DejaVuSans-Bold-63" transform="translate(481.378906 0)"/>
     <use xlink:href="#DejaVuSans-Bold-20" transform="translate(540.65625 0)"/>
     <use xlink:href="#DejaVuSans-Bold-4d" transform="translate(575.470703 0)"/>
     <use xlink:href="#DejaVuSans-Bold-6f" transform="translate(674.982422 0)"/>
     <use xlink:href="#DejaVuSans-Bold-74" transform="translate(743.683594 0)"/>
     <use xlink:href="#DejaVuSans-Bold-69" transform="translate(791.486328 0)"/>
     <use xlink:href="#DejaVuSans-Bold-66" transform="translate(825.763672 0)"/>
     <use xlink:href="#DejaVuSans-Bold-20" transform="translate(869.269531 0)"/>
     <use xlink:href="#DejaVuSans-Bold-44" transform="translate(904.083984 0)"/>
     <use xlink:href="#DejaVuSans-Bold-69" transform="translate(987.091797 0)"/>
     <use xlink:href="#DejaVuSans-Bold-73" transform="translate(1021.369141 0)"/>
     <use xlink:href="#DejaVuSans-Bold-74" transform="translate(1080.890625 0)"/>
     <use xlink:href="#DejaVuSans-Bold-72" transform="translate(1128.693359 0)"/>
     <use xlink:href="#DejaVuSans-Bold-69" transform="translate(1178.009766 0)"/>
     <use xlink:href="#DejaVuSans-Bold-62" transform="translate(1212.287109 0)"/>
     <use xlink:href="#DejaVuSans-Bold-75" transform="translate(1283.869141 0)"/>
     <use xlink:href="#DejaVuSans-Bold-74" transform="translate(1355.060547 0)"/>
     <use xlink:href="#DejaVuSans-Bold-69" transform="translate(1402.863281 0)"/>
     <use xlink:href="#DejaVuSans-Bold-6f" transform="translate(1437.140625 0)"/>
     <use xlink:href="#DejaVuSans-Bold-6e" transform="translate(1505.841797 0)"/>
     <use xlink:href="#DejaVuSans-Bold-3a" transform="translate(1577.033203 0)"/>
     <use xlink:href="#DejaVuSans-Bold-20" transform="translate(1617.023438 0)"/>
     <use xlink:href="#DejaVuSans-Bold-41" transform="translate(1651.837891 0)"/>
     <use xlink:href="#DejaVuSans-Bold-5f" transform="translate(1729.230469 0)"/>
     <use xlink:href="#DejaVuSans-Bold-70" transform="translate(1779.230469 0)"/>
     <use xlink:href="#DejaVuSans-Bold-72" transform="translate(1850.8125 0)"/>
     <use xlink:href="#DejaVuSans-Bold-61" transform="translate(1900.128906 0)"/>
     <use xlink:href="#DejaVuSans-Bold-65" transform="translate(1967.609375 0)"/>
     <use xlink:href="#DejaVuSans-Bold-63" transform="translate(2035.431641 0)"/>
     <use xlink:href="#DejaVuSans-Bold-6f" transform="translate(2094.708984 0)"/>
     <use xlink:href="#DejaVuSans-Bold-78" transform="translate(2163.410156 0)"/>
    </g>
   </g>
   <g id="legend_1">
    <g id="patch_7">
     <path d="M 555.915625 118.386875 
L 702.70625 118.386875 
Q 704.70625 118.386875 704.70625 116.386875 
L 704.70625 29.318125 
Q 704.70625 27.318125 702.70625 27.318125 
L 555.915625 27.318125 
Q 553.915625 27.318125 553.915625 29.318125 
L 553.915625 116.386875 
Q 553.915625 118.386875 555.915625 118.386875 
z
" style="fill: #ffffff; opacity: 0.8; stroke: #cccccc; stroke-linejoin: miter"/>
    </g>
    <g id="text_19">
     <!-- Motifs &amp; Orientation -->
     <g transform="translate(578.91875 38.916563) scale(0.1 -0.1)">
      <defs>
       <path id="DejaVuSans-4d" d="M 628 4666 
L 1569 4666 
L 2759 1491 
L 3956 4666 
L 4897 4666 
L 4897 0 
L 4281 0 
L 4281 4097 
L 3078 897 
L 2444 897 
L 1241 4097 
L 1241 0 
L 628 0 
L 628 4666 
z
" transform="scale(0.015625)"/>
       <path id="DejaVuSans-26" d="M 1556 2509 
Q 1272 2256 1139 2004 
Q 1006 1753 1006 1478 
Q 1006 1022 1337 719 
Q 1669 416 2169 416 
Q 2466 416 2725 514 
Q 2984 613 3213 813 
L 1556 2509 
z
M 1997 2859 
L 3584 1234 
Q 3769 1513 3872 1830 
Q 3975 2147 3994 2503 
L 4575 2503 
Q 4538 2091 4375 1687 
Q 4213 1284 3922 891 
L 4794 0 
L 4006 0 
L 3559 459 
Q 3234 181 2878 45 
Q 2522 -91 2113 -91 
Q 1359 -91 881 339 
Q 403 769 403 1441 
Q 403 1841 612 2192 
Q 822 2544 1241 2853 
Q 1091 3050 1012 3245 
Q 934 3441 934 3628 
Q 934 4134 1281 4442 
Q 1628 4750 2203 4750 
Q 2463 4750 2720 4694 
Q 2978 4638 3244 4525 
L 3244 3956 
Q 2972 4103 2725 4179 
Q 2478 4256 2266 4256 
Q 1938 4256 1733 4082 
Q 1528 3909 1528 3634 
Q 1528 3475 1620 3314 
Q 1713 3153 1997 2859 
z
" transform="scale(0.015625)"/>
       <path id="DejaVuSans-4f" d="M 2522 4238 
Q 1834 4238 1429 3725 
Q 1025 3213 1025 2328 
Q 1025 1447 1429 934 
Q 1834 422 2522 422 
Q 3209 422 3611 934 
Q 4013 1447 4013 2328 
Q 4013 3213 3611 3725 
Q 3209 4238 2522 4238 
z
M 2522 4750 
Q 3503 4750 4090 4092 
Q 4678 3434 4678 2328 
Q 4678 1225 4090 567 
Q 3503 -91 2522 -91 
Q 1538 -91 948 565 
Q 359 1222 359 2328 
Q 359 3434 948 4092 
Q 1538 4750 2522 4750 
z
" transform="scale(0.015625)"/>
      </defs>
      <use xlink:href="#DejaVuSans-4d"/>
      <use xlink:href="#DejaVuSans-6f" transform="translate(86.279297 0)"/>
      <use xlink:href="#DejaVuSans-74" transform="translate(147.460938 0)"/>
      <use xlink:href="#DejaVuSans-69" transform="translate(186.669922 0)"/>
      <use xlink:href="#DejaVuSans-66" transform="translate(214.453125 0)"/>
      <use xlink:href="#DejaVuSans-73" transform="translate(249.658203 0)"/>
      <use xlink:href="#DejaVuSans-20" transform="translate(301.757812 0)"/>
      <use xlink:href="#DejaVuSans-26" transform="translate(333.544922 0)"/>
      <use xlink:href="#DejaVuSans-20" transform="translate(411.523438 0)"/>
      <use xlink:href="#DejaVuSans-4f" transform="translate(443.310547 0)"/>
      <use xlink:href="#DejaVuSans-72" transform="translate(522.021484 0)"/>
      <use xlink:href="#DejaVuSans-69" transform="translate(563.134766 0)"/>
      <use xlink:href="#DejaVuSans-65" transform="translate(590.917969 0)"/>
      <use xlink:href="#DejaVuSans-6e" transform="translate(652.441406 0)"/>
      <use xlink:href="#DejaVuSans-74" transform="translate(715.820312 0)"/>
      <use xlink:href="#DejaVuSans-61" transform="translate(755.029297 0)"/>
      <use xlink:href="#DejaVuSans-74" transform="translate(816.308594 0)"/>
      <use xlink:href="#DejaVuSans-69" transform="translate(855.517578 0)"/>
      <use xlink:href="#DejaVuSans-6f" transform="translate(883.300781 0)"/>
      <use xlink:href="#DejaVuSans-6e" transform="translate(944.482422 0)"/>
     </g>
    </g>
    <g id="line2d_36">
     <path d="M 557.915625 50.094688 
L 567.915625 50.094688 
L 577.915625 50.094688 
" style="fill: none; stroke-dasharray: 7.4,3.2; stroke-dashoffset: 0; stroke: #006ba4; stroke-width: 2"/>
    </g>
    <g id="text_20">
     <!-- TTTTCTGGGT (3' end) -->
     <g transform="translate(585.915625 53.594688) scale(0.1 -0.1)">
      <defs>
       <path id="DejaVuSans-47" d="M 3809 666 
L 3809 1919 
L 2778 1919 
L 2778 2438 
L 4434 2438 
L 4434 434 
Q 4069 175 3628 42 
Q 3188 -91 2688 -91 
Q 1594 -91 976 548 
Q 359 1188 359 2328 
Q 359 3472 976 4111 
Q 1594 4750 2688 4750 
Q 3144 4750 3555 4637 
Q 3966 4525 4313 4306 
L 4313 3634 
Q 3963 3931 3569 4081 
Q 3175 4231 2741 4231 
Q 1884 4231 1454 3753 
Q 1025 3275 1025 2328 
Q 1025 1384 1454 906 
Q 1884 428 2741 428 
Q 3075 428 3337 486 
Q 3600 544 3809 666 
z
" transform="scale(0.015625)"/>
       <path id="DejaVuSans-28" d="M 1984 4856 
Q 1566 4138 1362 3434 
Q 1159 2731 1159 2009 
Q 1159 1288 1364 580 
Q 1569 -128 1984 -844 
L 1484 -844 
Q 1016 -109 783 600 
Q 550 1309 550 2009 
Q 550 2706 781 3412 
Q 1013 4119 1484 4856 
L 1984 4856 
z
" transform="scale(0.015625)"/>
       <path id="DejaVuSans-33" d="M 2597 2516 
Q 3050 2419 3304 2112 
Q 3559 1806 3559 1356 
Q 3559 666 3084 287 
Q 2609 -91 1734 -91 
Q 1441 -91 1130 -33 
Q 819 25 488 141 
L 488 750 
Q 750 597 1062 519 
Q 1375 441 1716 441 
Q 2309 441 2620 675 
Q 2931 909 2931 1356 
Q 2931 1769 2642 2001 
Q 2353 2234 1838 2234 
L 1294 2234 
L 1294 2753 
L 1863 2753 
Q 2328 2753 2575 2939 
Q 2822 3125 2822 3475 
Q 2822 3834 2567 4026 
Q 2313 4219 1838 4219 
Q 1578 4219 1281 4162 
Q 984 4106 628 3988 
L 628 4550 
Q 988 4650 1302 4700 
Q 1616 4750 1894 4750 
Q 2613 4750 3031 4423 
Q 3450 4097 3450 3541 
Q 3450 3153 3228 2886 
Q 3006 2619 2597 2516 
z
" transform="scale(0.015625)"/>
       <path id="DejaVuSans-27" d="M 1147 4666 
L 1147 2931 
L 616 2931 
L 616 4666 
L 1147 4666 
z
" transform="scale(0.015625)"/>
       <path id="DejaVuSans-64" d="M 2906 2969 
L 2906 4863 
L 3481 4863 
L 3481 0 
L 2906 0 
L 2906 525 
Q 2725 213 2448 61 
Q 2172 -91 1784 -91 
Q 1150 -91 751 415 
Q 353 922 353 1747 
Q 353 2572 751 3078 
Q 1150 3584 1784 3584 
Q 2172 3584 2448 3432 
Q 2725 3281 2906 2969 
z
M 947 1747 
Q 947 1113 1208 752 
Q 1469 391 1925 391 
Q 2381 391 2643 752 
Q 2906 1113 2906 1747 
Q 2906 2381 2643 2742 
Q 2381 3103 1925 3103 
Q 1469 3103 1208 2742 
Q 947 2381 947 1747 
z
" transform="scale(0.015625)"/>
       <path id="DejaVuSans-29" d="M 513 4856 
L 1013 4856 
Q 1481 4119 1714 3412 
Q 1947 2706 1947 2009 
Q 1947 1309 1714 600 
Q 1481 -109 1013 -844 
L 513 -844 
Q 928 -128 1133 580 
Q 1338 1288 1338 2009 
Q 1338 2731 1133 3434 
Q 928 4138 513 4856 
z
" transform="scale(0.015625)"/>
      </defs>
      <use xlink:href="#DejaVuSans-54"/>
      <use xlink:href="#DejaVuSans-54" transform="translate(59.333984 0)"/>
      <use xlink:href="#DejaVuSans-54" transform="translate(118.667969 0)"/>
      <use xlink:href="#DejaVuSans-54" transform="translate(178.001953 0)"/>
      <use xlink:href="#DejaVuSans-43" transform="translate(233.210938 0)"/>
      <use xlink:href="#DejaVuSans-54" transform="translate(303.035156 0)"/>
      <use xlink:href="#DejaVuSans-47" transform="translate(364.119141 0)"/>
      <use xlink:href="#DejaVuSans-47" transform="translate(441.609375 0)"/>
      <use xlink:href="#DejaVuSans-47" transform="translate(519.099609 0)"/>
      <use xlink:href="#DejaVuSans-54" transform="translate(592.964844 0)"/>
      <use xlink:href="#DejaVuSans-20" transform="translate(654.048828 0)"/>
      <use xlink:href="#DejaVuSans-28" transform="translate(685.835938 0)"/>
      <use xlink:href="#DejaVuSans-33" transform="translate(724.849609 0)"/>
      <use xlink:href="#DejaVuSans-27" transform="translate(788.472656 0)"/>
      <use xlink:href="#DejaVuSans-20" transform="translate(815.962891 0)"/>
      <use xlink:href="#DejaVuSans-65" transform="translate(847.75 0)"/>
      <use xlink:href="#DejaVuSans-6e" transform="translate(909.273438 0)"/>
      <use xlink:href="#DejaVuSans-64" transform="translate(972.652344 0)"/>
      <use xlink:href="#DejaVuSans-29" transform="translate(1036.128906 0)"/>
     </g>
    </g>
    <g id="line2d_37">
     <path d="M 557.915625 64.772813 
L 567.915625 64.772813 
L 577.915625 64.772813 
" style="fill: none; stroke-dasharray: 7.4,3.2; stroke-dashoffset: 0; stroke: #ff800e; stroke-width: 2"/>
    </g>
    <g id="text_21">
     <!-- TTATGTCTGGG (3' end) -->
     <g transform="translate(585.915625 68.272813) scale(0.1 -0.1)">
      <use xlink:href="#DejaVuSans-54"/>
      <use xlink:href="#DejaVuSans-54" transform="translate(59.333984 0)"/>
      <use xlink:href="#DejaVuSans-41" transform="translate(112.667969 0)"/>
      <use xlink:href="#DejaVuSans-54" transform="translate(173.326172 0)"/>
      <use xlink:href="#DejaVuSans-47" transform="translate(234.410156 0)"/>
      <use xlink:href="#DejaVuSans-54" transform="translate(308.275391 0)"/>
      <use xlink:href="#DejaVuSans-43" transform="translate(363.484375 0)"/>
      <use xlink:href="#DejaVuSans-54" transform="translate(433.308594 0)"/>
      <use xlink:href="#DejaVuSans-47" transform="translate(494.392578 0)"/>
      <use xlink:href="#DejaVuSans-47" transform="translate(571.882812 0)"/>
      <use xlink:href="#DejaVuSans-47" transform="translate(649.373047 0)"/>
      <use xlink:href="#DejaVuSans-20" transform="translate(726.863281 0)"/>
      <use xlink:href="#DejaVuSans-28" transform="translate(758.650391 0)"/>
      <use xlink:href="#DejaVuSans-33" transform="translate(797.664062 0)"/>
      <use xlink:href="#DejaVuSans-27" transform="translate(861.287109 0)"/>
      <use xlink:href="#DejaVuSans-20" transform="translate(888.777344 0)"/>
      <use xlink:href="#DejaVuSans-65" transform="translate(920.564453 0)"/>
      <use xlink:href="#DejaVuSans-6e" transform="translate(982.087891 0)"/>
      <use xlink:href="#DejaVuSans-64" transform="translate(1045.466797 0)"/>
      <use xlink:href="#DejaVuSans-29" transform="translate(1108.943359 0)"/>
     </g>
    </g>
    <g id="line2d_38">
     <path d="M 557.915625 79.450938 
L 567.915625 79.450938 
L 577.915625 79.450938 
" style="fill: none; stroke-dasharray: 7.4,3.2; stroke-dashoffset: 0; stroke: #ababab; stroke-width: 2"/>
    </g>
    <g id="text_22">
     <!-- TTAGTTT (3' end) -->
     <g transform="translate(585.915625 82.950938) scale(0.1 -0.1)">
      <use xlink:href="#DejaVuSans-54"/>
      <use xlink:href="#DejaVuSans-54" transform="translate(59.333984 0)"/>
      <use xlink:href="#DejaVuSans-41" transform="translate(112.667969 0)"/>
      <use xlink:href="#DejaVuSans-47" transform="translate(179.326172 0)"/>
      <use xlink:href="#DejaVuSans-54" transform="translate(253.191406 0)"/>
      <use xlink:href="#DejaVuSans-54" transform="translate(312.525391 0)"/>
      <use xlink:href="#DejaVuSans-54" transform="translate(371.859375 0)"/>
      <use xlink:href="#DejaVuSans-20" transform="translate(432.943359 0)"/>
      <use xlink:href="#DejaVuSans-28" transform="translate(464.730469 0)"/>
      <use xlink:href="#DejaVuSans-33" transform="translate(503.744141 0)"/>
      <use xlink:href="#DejaVuSans-27" transform="translate(567.367188 0)"/>
      <use xlink:href="#DejaVuSans-20" transform="translate(594.857422 0)"/>
      <use xlink:href="#DejaVuSans-65" transform="translate(626.644531 0)"/>
      <use xlink:href="#DejaVuSans-6e" transform="translate(688.167969 0)"/>
      <use xlink:href="#DejaVuSans-64" transform="translate(751.546875 0)"/>
      <use xlink:href="#DejaVuSans-29" transform="translate(815.023438 0)"/>
     </g>
    </g>
    <g id="line2d_39">
     <path d="M 557.915625 94.129063 
L 567.915625 94.129063 
L 577.915625 94.129063 
" style="fill: none; stroke-dasharray: 7.4,3.2; stroke-dashoffset: 0; stroke: #595959; stroke-width: 2"/>
    </g>
    <g id="text_23">
     <!-- TTTTTCTGG (3' end) -->
     <g transform="translate(585.915625 97.629063) scale(0.1 -0.1)">
      <use xlink:href="#DejaVuSans-54"/>
      <use xlink:href="#DejaVuSans-54" transform="translate(59.333984 0)"/>
      <use xlink:href="#DejaVuSans-54" transform="translate(118.667969 0)"/>
      <use xlink:href="#DejaVuSans-54" transform="translate(178.001953 0)"/>
      <use xlink:href="#DejaVuSans-54" transform="translate(237.335938 0)"/>
      <use xlink:href="#DejaVuSans-43" transform="translate(292.544922 0)"/>
      <use xlink:href="#DejaVuSans-54" transform="translate(362.369141 0)"/>
      <use xlink:href="#DejaVuSans-47" transform="translate(423.453125 0)"/>
      <use xlink:href="#DejaVuSans-47" transform="translate(500.943359 0)"/>
      <use xlink:href="#DejaVuSans-20" transform="translate(578.433594 0)"/>
      <use xlink:href="#DejaVuSans-28" transform="translate(610.220703 0)"/>
      <use xlink:href="#DejaVuSans-33" transform="translate(649.234375 0)"/>
      <use xlink:href="#DejaVuSans-27" transform="translate(712.857422 0)"/>
      <use xlink:href="#DejaVuSans-20" transform="translate(740.347656 0)"/>
      <use xlink:href="#DejaVuSans-65" transform="translate(772.134766 0)"/>
      <use xlink:href="#DejaVuSans-6e" transform="translate(833.658203 0)"/>
      <use xlink:href="#DejaVuSans-64" transform="translate(897.037109 0)"/>
      <use xlink:href="#DejaVuSans-29" transform="translate(960.513672 0)"/>
     </g>
    </g>
    <g id="line2d_40">
     <path d="M 557.915625 108.807188 
L 567.915625 108.807188 
L 577.915625 108.807188 
" style="fill: none; stroke-dasharray: 7.4,3.2; stroke-dashoffset: 0; stroke: #5f9ed1; stroke-width: 2"/>
    </g>
    <g id="text_24">
     <!-- TTTTTTCTAG (3' end) -->
     <g transform="translate(585.915625 112.307188) scale(0.1 -0.1)">
      <use xlink:href="#DejaVuSans-54"/>
      <use xlink:href="#DejaVuSans-54" transform="translate(59.333984 0)"/>
      <use xlink:href="#DejaVuSans-54" transform="translate(118.667969 0)"/>
      <use xlink:href="#DejaVuSans-54" transform="translate(178.001953 0)"/>
      <use xlink:href="#DejaVuSans-54" transform="translate(237.335938 0)"/>
      <use xlink:href="#DejaVuSans-54" transform="translate(296.669922 0)"/>
      <use xlink:href="#DejaVuSans-43" transform="translate(351.878906 0)"/>
      <use xlink:href="#DejaVuSans-54" transform="translate(421.703125 0)"/>
      <use xlink:href="#DejaVuSans-41" transform="translate(475.037109 0)"/>
      <use xlink:href="#DejaVuSans-47" transform="translate(541.695312 0)"/>
      <use xlink:href="#DejaVuSans-20" transform="translate(619.185547 0)"/>
      <use xlink:href="#DejaVuSans-28" transform="translate(650.972656 0)"/>
      <use xlink:href="#DejaVuSans-33" transform="translate(689.986328 0)"/>
      <use xlink:href="#DejaVuSans-27" transform="translate(753.609375 0)"/>
      <use xlink:href="#DejaVuSans-20" transform="translate(781.099609 0)"/>
      <use xlink:href="#DejaVuSans-65" transform="translate(812.886719 0)"/>
      <use xlink:href="#DejaVuSans-6e" transform="translate(874.410156 0)"/>
      <use xlink:href="#DejaVuSans-64" transform="translate(937.789062 0)"/>
      <use xlink:href="#DejaVuSans-29" transform="translate(1001.265625 0)"/>
     </g>
    </g>
   </g>
  </g>
 </g>
 <defs>
  <clipPath id="p89bdafb680">
   <rect x="46.965625" y="22.318125" width="501.95" height="436.6"/>
  </clipPath>
 </defs>
</svg>
