<?xml version="1.0" encoding="utf-8" standalone="no"?>
<!DOCTYPE svg PUBLIC "-//W3C//DTD SVG 1.1//EN"
  "http://www.w3.org/Graphics/SVG/1.1/DTD/svg11.dtd">
<svg xmlns:xlink="http://www.w3.org/1999/xlink" width="568.279063pt" height="423.99625pt" viewBox="0 0 568.279063 423.99625" xmlns="http://www.w3.org/2000/svg" version="1.1">
 <metadata>
  <rdf:RDF xmlns:dc="http://purl.org/dc/elements/1.1/" xmlns:cc="http://creativecommons.org/ns#" xmlns:rdf="http://www.w3.org/1999/02/22-rdf-syntax-ns#">
   <cc:Work>
    <dc:type rdf:resource="http://purl.org/dc/dcmitype/StillImage"/>
    <dc:date>2026-04-30T14:56:05.048822</dc:date>
    <dc:format>image/svg+xml</dc:format>
    <dc:creator>
     <cc:Agent>
      <dc:title>Matplotlib v3.10.6, https://matplotlib.org/</dc:title>
     </cc:Agent>
    </dc:creator>
   </cc:Work>
  </rdf:RDF>
 </metadata>
 <defs>
  <style type="text/css">*{stroke-linejoin: round; stroke-linecap: butt}</style>
 </defs>
 <g id="figure_1">
  <g id="patch_1">
   <path d="M 0 423.99625 
L 568.279063 423.99625 
L 568.279063 0 
L 0 0 
z
" style="fill: #ffffff"/>
  </g>
  <g id="axes_1">
   <g id="patch_2">
    <path d="M 46.965625 386.44 
L 400.505625 386.44 
L 400.505625 7.2 
L 46.965625 7.2 
z
" style="fill: #ffffff"/>
   </g>
   <g id="matplotlib.axis_1">
    <g id="xtick_1">
     <g id="line2d_1">
      <path d="M 63.035625 386.44 
L 63.035625 7.2 
" clip-path="url(#pf9c9594f18)" style="fill: none; stroke-dasharray: 2.96,1.28; stroke-dashoffset: 0; stroke: #b0b0b0; stroke-opacity: 0.6; stroke-width: 0.8"/>
     </g>
     <g id="line2d_2">
      <defs>
       <path id="m98c4f76802" d="M 0 0 
L 0 3.5 
" style="stroke: #000000; stroke-width: 0.8"/>
      </defs>
      <g>
       <use xlink:href="#m98c4f76802" x="63.035625" y="386.44" style="stroke: #000000; stroke-width: 0.8"/>
      </g>
     </g>
     <g id="text_1">
      <!-- 0 -->
      <g transform="translate(59.854375 401.038437) scale(0.1 -0.1)">
       <defs>
        <path id="DejaVuSans-30" d="M 2034 4250 
Q 1547 4250 1301 3770 
Q 1056 3291 1056 2328 
Q 1056 1369 1301 889 
Q 1547 409 2034 409 
Q 2525 409 2770 889 
Q 3016 1369 3016 2328 
Q 3016 3291 2770 3770 
Q 2525 4250 2034 4250 
z
M 2034 4750 
Q 2819 4750 3233 4129 
Q 3647 3509 3647 2328 
Q 3647 1150 3233 529 
Q 2819 -91 2034 -91 
Q 1250 -91 836 529 
Q 422 1150 422 2328 
Q 422 3509 836 4129 
Q 1250 4750 2034 4750 
z
" transform="scale(0.015625)"/>
       </defs>
       <use xlink:href="#DejaVuSans-30"/>
      </g>
     </g>
    </g>
    <g id="xtick_2">
     <g id="line2d_3">
      <path d="M 103.215648 386.44 
L 103.215648 7.2 
" clip-path="url(#pf9c9594f18)" style="fill: none; stroke-dasharray: 2.96,1.28; stroke-dashoffset: 0; stroke: #b0b0b0; stroke-opacity: 0.6; stroke-width: 0.8"/>
     </g>
     <g id="line2d_4">
      <g>
       <use xlink:href="#m98c4f76802" x="103.215648" y="386.44" style="stroke: #000000; stroke-width: 0.8"/>
      </g>
     </g>
     <g id="text_2">
      <!-- 1000 -->
      <g transform="translate(90.490648 401.038437) scale(0.1 -0.1)">
       <defs>
        <path id="DejaVuSans-31" d="M 794 531 
L 1825 531 
L 1825 4091 
L 703 3866 
L 703 4441 
L 1819 4666 
L 2450 4666 
L 2450 531 
L 3481 531 
L 3481 0 
L 794 0 
L 794 531 
z
" transform="scale(0.015625)"/>
       </defs>
       <use xlink:href="#DejaVuSans-31"/>
       <use xlink:href="#DejaVuSans-30" transform="translate(63.623047 0)"/>
       <use xlink:href="#DejaVuSans-30" transform="translate(127.246094 0)"/>
       <use xlink:href="#DejaVuSans-30" transform="translate(190.869141 0)"/>
      </g>
     </g>
    </g>
    <g id="xtick_3">
     <g id="line2d_5">
      <path d="M 143.39567 386.44 
L 143.39567 7.2 
" clip-path="url(#pf9c9594f18)" style="fill: none; stroke-dasharray: 2.96,1.28; stroke-dashoffset: 0; stroke: #b0b0b0; stroke-opacity: 0.6; stroke-width: 0.8"/>
     </g>
     <g id="line2d_6">
      <g>
       <use xlink:href="#m98c4f76802" x="143.39567" y="386.44" style="stroke: #000000; stroke-width: 0.8"/>
      </g>
     </g>
     <g id="text_3">
      <!-- 2000 -->
      <g transform="translate(130.67067 401.038437) scale(0.1 -0.1)">
       <defs>
        <path id="DejaVuSans-32" d="M 1228 531 
L 3431 531 
L 3431 0 
L 469 0 
L 469 531 
Q 828 903 1448 1529 
Q 2069 2156 2228 2338 
Q 2531 2678 2651 2914 
Q 2772 3150 2772 3378 
Q 2772 3750 2511 3984 
Q 2250 4219 1831 4219 
Q 1534 4219 1204 4116 
Q 875 4013 500 3803 
L 500 4441 
Q 881 4594 1212 4672 
Q 1544 4750 1819 4750 
Q 2544 4750 2975 4387 
Q 3406 4025 3406 3419 
Q 3406 3131 3298 2873 
Q 3191 2616 2906 2266 
Q 2828 2175 2409 1742 
Q 1991 1309 1228 531 
z
" transform="scale(0.015625)"/>
       </defs>
       <use xlink:href="#DejaVuSans-32"/>
       <use xlink:href="#DejaVuSans-30" transform="translate(63.623047 0)"/>
       <use xlink:href="#DejaVuSans-30" transform="translate(127.246094 0)"/>
       <use xlink:href="#DejaVuSans-30" transform="translate(190.869141 0)"/>
      </g>
     </g>
    </g>
    <g id="xtick_4">
     <g id="line2d_7">
      <path d="M 183.575693 386.44 
L 183.575693 7.2 
" clip-path="url(#pf9c9594f18)" style="fill: none; stroke-dasharray: 2.96,1.28; stroke-dashoffset: 0; stroke: #b0b0b0; stroke-opacity: 0.6; stroke-width: 0.8"/>
     </g>
     <g id="line2d_8">
      <g>
       <use xlink:href="#m98c4f76802" x="183.575693" y="386.44" style="stroke: #000000; stroke-width: 0.8"/>
      </g>
     </g>
     <g id="text_4">
      <!-- 3000 -->
      <g transform="translate(170.850693 401.038437) scale(0.1 -0.1)">
       <defs>
        <path id="DejaVuSans-33" d="M 2597 2516 
Q 3050 2419 3304 2112 
Q 3559 1806 3559 1356 
Q 3559 666 3084 287 
Q 2609 -91 1734 -91 
Q 1441 -91 1130 -33 
Q 819 25 488 141 
L 488 750 
Q 750 597 1062 519 
Q 1375 441 1716 441 
Q 2309 441 2620 675 
Q 2931 909 2931 1356 
Q 2931 1769 2642 2001 
Q 2353 2234 1838 2234 
L 1294 2234 
L 1294 2753 
L 1863 2753 
Q 2328 2753 2575 2939 
Q 2822 3125 2822 3475 
Q 2822 3834 2567 4026 
Q 2313 4219 1838 4219 
Q 1578 4219 1281 4162 
Q 984 4106 628 3988 
L 628 4550 
Q 988 4650 1302 4700 
Q 1616 4750 1894 4750 
Q 2613 4750 3031 4423 
Q 3450 4097 3450 3541 
Q 3450 3153 3228 2886 
Q 3006 2619 2597 2516 
z
" transform="scale(0.015625)"/>
       </defs>
       <use xlink:href="#DejaVuSans-33"/>
       <use xlink:href="#DejaVuSans-30" transform="translate(63.623047 0)"/>
       <use xlink:href="#DejaVuSans-30" transform="translate(127.246094 0)"/>
       <use xlink:href="#DejaVuSans-30" transform="translate(190.869141 0)"/>
      </g>
     </g>
    </g>
    <g id="xtick_5">
     <g id="line2d_9">
      <path d="M 223.755715 386.44 
L 223.755715 7.2 
" clip-path="url(#pf9c9594f18)" style="fill: none; stroke-dasharray: 2.96,1.28; stroke-dashoffset: 0; stroke: #b0b0b0; stroke-opacity: 0.6; stroke-width: 0.8"/>
     </g>
     <g id="line2d_10">
      <g>
       <use xlink:href="#m98c4f76802" x="223.755715" y="386.44" style="stroke: #000000; stroke-width: 0.8"/>
      </g>
     </g>
     <g id="text_5">
      <!-- 4000 -->
      <g transform="translate(211.030715 401.038437) scale(0.1 -0.1)">
       <defs>
        <path id="DejaVuSans-34" d="M 2419 4116 
L 825 1625 
L 2419 1625 
L 2419 4116 
z
M 2253 4666 
L 3047 4666 
L 3047 1625 
L 3713 1625 
L 3713 1100 
L 3047 1100 
L 3047 0 
L 2419 0 
L 2419 1100 
L 313 1100 
L 313 1709 
L 2253 4666 
z
" transform="scale(0.015625)"/>
       </defs>
       <use xlink:href="#DejaVuSans-34"/>
       <use xlink:href="#DejaVuSans-30" transform="translate(63.623047 0)"/>
       <use xlink:href="#DejaVuSans-30" transform="translate(127.246094 0)"/>
       <use xlink:href="#DejaVuSans-30" transform="translate(190.869141 0)"/>
      </g>
     </g>
    </g>
    <g id="xtick_6">
     <g id="line2d_11">
      <path d="M 263.935738 386.44 
L 263.935738 7.2 
" clip-path="url(#pf9c9594f18)" style="fill: none; stroke-dasharray: 2.96,1.28; stroke-dashoffset: 0; stroke: #b0b0b0; stroke-opacity: 0.6; stroke-width: 0.8"/>
     </g>
     <g id="line2d_12">
      <g>
       <use xlink:href="#m98c4f76802" x="263.935738" y="386.44" style="stroke: #000000; stroke-width: 0.8"/>
      </g>
     </g>
     <g id="text_6">
      <!-- 5000 -->
      <g transform="translate(251.210738 401.038437) scale(0.1 -0.1)">
       <defs>
        <path id="DejaVuSans-35" d="M 691 4666 
L 3169 4666 
L 3169 4134 
L 1269 4134 
L 1269 2991 
Q 1406 3038 1543 3061 
Q 1681 3084 1819 3084 
Q 2600 3084 3056 2656 
Q 3513 2228 3513 1497 
Q 3513 744 3044 326 
Q 2575 -91 1722 -91 
Q 1428 -91 1123 -41 
Q 819 9 494 109 
L 494 744 
Q 775 591 1075 516 
Q 1375 441 1709 441 
Q 2250 441 2565 725 
Q 2881 1009 2881 1497 
Q 2881 1984 2565 2268 
Q 2250 2553 1709 2553 
Q 1456 2553 1204 2497 
Q 953 2441 691 2322 
L 691 4666 
z
" transform="scale(0.015625)"/>
       </defs>
       <use xlink:href="#DejaVuSans-35"/>
       <use xlink:href="#DejaVuSans-30" transform="translate(63.623047 0)"/>
       <use xlink:href="#DejaVuSans-30" transform="translate(127.246094 0)"/>
       <use xlink:href="#DejaVuSans-30" transform="translate(190.869141 0)"/>
      </g>
     </g>
    </g>
    <g id="xtick_7">
     <g id="line2d_13">
      <path d="M 304.11576 386.44 
L 304.11576 7.2 
" clip-path="url(#pf9c9594f18)" style="fill: none; stroke-dasharray: 2.96,1.28; stroke-dashoffset: 0; stroke: #b0b0b0; stroke-opacity: 0.6; stroke-width: 0.8"/>
     </g>
     <g id="line2d_14">
      <g>
       <use xlink:href="#m98c4f76802" x="304.11576" y="386.44" style="stroke: #000000; stroke-width: 0.8"/>
      </g>
     </g>
     <g id="text_7">
      <!-- 6000 -->
      <g transform="translate(291.39076 401.038437) scale(0.1 -0.1)">
       <defs>
        <path id="DejaVuSans-36" d="M 2113 2584 
Q 1688 2584 1439 2293 
Q 1191 2003 1191 1497 
Q 1191 994 1439 701 
Q 1688 409 2113 409 
Q 2538 409 2786 701 
Q 3034 994 3034 1497 
Q 3034 2003 2786 2293 
Q 2538 2584 2113 2584 
z
M 3366 4563 
L 3366 3988 
Q 3128 4100 2886 4159 
Q 2644 4219 2406 4219 
Q 1781 4219 1451 3797 
Q 1122 3375 1075 2522 
Q 1259 2794 1537 2939 
Q 1816 3084 2150 3084 
Q 2853 3084 3261 2657 
Q 3669 2231 3669 1497 
Q 3669 778 3244 343 
Q 2819 -91 2113 -91 
Q 1303 -91 875 529 
Q 447 1150 447 2328 
Q 447 3434 972 4092 
Q 1497 4750 2381 4750 
Q 2619 4750 2861 4703 
Q 3103 4656 3366 4563 
z
" transform="scale(0.015625)"/>
       </defs>
       <use xlink:href="#DejaVuSans-36"/>
       <use xlink:href="#DejaVuSans-30" transform="translate(63.623047 0)"/>
       <use xlink:href="#DejaVuSans-30" transform="translate(127.246094 0)"/>
       <use xlink:href="#DejaVuSans-30" transform="translate(190.869141 0)"/>
      </g>
     </g>
    </g>
    <g id="xtick_8">
     <g id="line2d_15">
      <path d="M 344.295783 386.44 
L 344.295783 7.2 
" clip-path="url(#pf9c9594f18)" style="fill: none; stroke-dasharray: 2.96,1.28; stroke-dashoffset: 0; stroke: #b0b0b0; stroke-opacity: 0.6; stroke-width: 0.8"/>
     </g>
     <g id="line2d_16">
      <g>
       <use xlink:href="#m98c4f76802" x="344.295783" y="386.44" style="stroke: #000000; stroke-width: 0.8"/>
      </g>
     </g>
     <g id="text_8">
      <!-- 7000 -->
      <g transform="translate(331.570783 401.038437) scale(0.1 -0.1)">
       <defs>
        <path id="DejaVuSans-37" d="M 525 4666 
L 3525 4666 
L 3525 4397 
L 1831 0 
L 1172 0 
L 2766 4134 
L 525 4134 
L 525 4666 
z
" transform="scale(0.015625)"/>
       </defs>
       <use xlink:href="#DejaVuSans-37"/>
       <use xlink:href="#DejaVuSans-30" transform="translate(63.623047 0)"/>
       <use xlink:href="#DejaVuSans-30" transform="translate(127.246094 0)"/>
       <use xlink:href="#DejaVuSans-30" transform="translate(190.869141 0)"/>
      </g>
     </g>
    </g>
    <g id="xtick_9">
     <g id="line2d_17">
      <path d="M 384.475805 386.44 
L 384.475805 7.2 
" clip-path="url(#pf9c9594f18)" style="fill: none; stroke-dasharray: 2.96,1.28; stroke-dashoffset: 0; stroke: #b0b0b0; stroke-opacity: 0.6; stroke-width: 0.8"/>
     </g>
     <g id="line2d_18">
      <g>
       <use xlink:href="#m98c4f76802" x="384.475805" y="386.44" style="stroke: #000000; stroke-width: 0.8"/>
      </g>
     </g>
     <g id="text_9">
      <!-- 8000 -->
      <g transform="translate(371.750805 401.038437) scale(0.1 -0.1)">
       <defs>
        <path id="DejaVuSans-38" d="M 2034 2216 
Q 1584 2216 1326 1975 
Q 1069 1734 1069 1313 
Q 1069 891 1326 650 
Q 1584 409 2034 409 
Q 2484 409 2743 651 
Q 3003 894 3003 1313 
Q 3003 1734 2745 1975 
Q 2488 2216 2034 2216 
z
M 1403 2484 
Q 997 2584 770 2862 
Q 544 3141 544 3541 
Q 544 4100 942 4425 
Q 1341 4750 2034 4750 
Q 2731 4750 3128 4425 
Q 3525 4100 3525 3541 
Q 3525 3141 3298 2862 
Q 3072 2584 2669 2484 
Q 3125 2378 3379 2068 
Q 3634 1759 3634 1313 
Q 3634 634 3220 271 
Q 2806 -91 2034 -91 
Q 1263 -91 848 271 
Q 434 634 434 1313 
Q 434 1759 690 2068 
Q 947 2378 1403 2484 
z
M 1172 3481 
Q 1172 3119 1398 2916 
Q 1625 2713 2034 2713 
Q 2441 2713 2670 2916 
Q 2900 3119 2900 3481 
Q 2900 3844 2670 4047 
Q 2441 4250 2034 4250 
Q 1625 4250 1398 4047 
Q 1172 3844 1172 3481 
z
" transform="scale(0.015625)"/>
       </defs>
       <use xlink:href="#DejaVuSans-38"/>
       <use xlink:href="#DejaVuSans-30" transform="translate(63.623047 0)"/>
       <use xlink:href="#DejaVuSans-30" transform="translate(127.246094 0)"/>
       <use xlink:href="#DejaVuSans-30" transform="translate(190.869141 0)"/>
      </g>
     </g>
    </g>
    <g id="text_10">
     <!-- Distance from terminus [nt] -->
     <g transform="translate(154.236406 414.716562) scale(0.1 -0.1)">
      <defs>
       <path id="DejaVuSans-44" d="M 1259 4147 
L 1259 519 
L 2022 519 
Q 2988 519 3436 956 
Q 3884 1394 3884 2338 
Q 3884 3275 3436 3711 
Q 2988 4147 2022 4147 
L 1259 4147 
z
M 628 4666 
L 1925 4666 
Q 3281 4666 3915 4102 
Q 4550 3538 4550 2338 
Q 4550 1131 3912 565 
Q 3275 0 1925 0 
L 628 0 
L 628 4666 
z
" transform="scale(0.015625)"/>
       <path id="DejaVuSans-69" d="M 603 3500 
L 1178 3500 
L 1178 0 
L 603 0 
L 603 3500 
z
M 603 4863 
L 1178 4863 
L 1178 4134 
L 603 4134 
L 603 4863 
z
" transform="scale(0.015625)"/>
       <path id="DejaVuSans-73" d="M 2834 3397 
L 2834 2853 
Q 2591 2978 2328 3040 
Q 2066 3103 1784 3103 
Q 1356 3103 1142 2972 
Q 928 2841 928 2578 
Q 928 2378 1081 2264 
Q 1234 2150 1697 2047 
L 1894 2003 
Q 2506 1872 2764 1633 
Q 3022 1394 3022 966 
Q 3022 478 2636 193 
Q 2250 -91 1575 -91 
Q 1294 -91 989 -36 
Q 684 19 347 128 
L 347 722 
Q 666 556 975 473 
Q 1284 391 1588 391 
Q 1994 391 2212 530 
Q 2431 669 2431 922 
Q 2431 1156 2273 1281 
Q 2116 1406 1581 1522 
L 1381 1569 
Q 847 1681 609 1914 
Q 372 2147 372 2553 
Q 372 3047 722 3315 
Q 1072 3584 1716 3584 
Q 2034 3584 2315 3537 
Q 2597 3491 2834 3397 
z
" transform="scale(0.015625)"/>
       <path id="DejaVuSans-74" d="M 1172 4494 
L 1172 3500 
L 2356 3500 
L 2356 3053 
L 1172 3053 
L 1172 1153 
Q 1172 725 1289 603 
Q 1406 481 1766 481 
L 2356 481 
L 2356 0 
L 1766 0 
Q 1100 0 847 248 
Q 594 497 594 1153 
L 594 3053 
L 172 3053 
L 172 3500 
L 594 3500 
L 594 4494 
L 1172 4494 
z
" transform="scale(0.015625)"/>
       <path id="DejaVuSans-61" d="M 2194 1759 
Q 1497 1759 1228 1600 
Q 959 1441 959 1056 
Q 959 750 1161 570 
Q 1363 391 1709 391 
Q 2188 391 2477 730 
Q 2766 1069 2766 1631 
L 2766 1759 
L 2194 1759 
z
M 3341 1997 
L 3341 0 
L 2766 0 
L 2766 531 
Q 2569 213 2275 61 
Q 1981 -91 1556 -91 
Q 1019 -91 701 211 
Q 384 513 384 1019 
Q 384 1609 779 1909 
Q 1175 2209 1959 2209 
L 2766 2209 
L 2766 2266 
Q 2766 2663 2505 2880 
Q 2244 3097 1772 3097 
Q 1472 3097 1187 3025 
Q 903 2953 641 2809 
L 641 3341 
Q 956 3463 1253 3523 
Q 1550 3584 1831 3584 
Q 2591 3584 2966 3190 
Q 3341 2797 3341 1997 
z
" transform="scale(0.015625)"/>
       <path id="DejaVuSans-6e" d="M 3513 2113 
L 3513 0 
L 2938 0 
L 2938 2094 
Q 2938 2591 2744 2837 
Q 2550 3084 2163 3084 
Q 1697 3084 1428 2787 
Q 1159 2491 1159 1978 
L 1159 0 
L 581 0 
L 581 3500 
L 1159 3500 
L 1159 2956 
Q 1366 3272 1645 3428 
Q 1925 3584 2291 3584 
Q 2894 3584 3203 3211 
Q 3513 2838 3513 2113 
z
" transform="scale(0.015625)"/>
       <path id="DejaVuSans-63" d="M 3122 3366 
L 3122 2828 
Q 2878 2963 2633 3030 
Q 2388 3097 2138 3097 
Q 1578 3097 1268 2742 
Q 959 2388 959 1747 
Q 959 1106 1268 751 
Q 1578 397 2138 397 
Q 2388 397 2633 464 
Q 2878 531 3122 666 
L 3122 134 
Q 2881 22 2623 -34 
Q 2366 -91 2075 -91 
Q 1284 -91 818 406 
Q 353 903 353 1747 
Q 353 2603 823 3093 
Q 1294 3584 2113 3584 
Q 2378 3584 2631 3529 
Q 2884 3475 3122 3366 
z
" transform="scale(0.015625)"/>
       <path id="DejaVuSans-65" d="M 3597 1894 
L 3597 1613 
L 953 1613 
Q 991 1019 1311 708 
Q 1631 397 2203 397 
Q 2534 397 2845 478 
Q 3156 559 3463 722 
L 3463 178 
Q 3153 47 2828 -22 
Q 2503 -91 2169 -91 
Q 1331 -91 842 396 
Q 353 884 353 1716 
Q 353 2575 817 3079 
Q 1281 3584 2069 3584 
Q 2775 3584 3186 3129 
Q 3597 2675 3597 1894 
z
M 3022 2063 
Q 3016 2534 2758 2815 
Q 2500 3097 2075 3097 
Q 1594 3097 1305 2825 
Q 1016 2553 972 2059 
L 3022 2063 
z
" transform="scale(0.015625)"/>
       <path id="DejaVuSans-20" transform="scale(0.015625)"/>
       <path id="DejaVuSans-66" d="M 2375 4863 
L 2375 4384 
L 1825 4384 
Q 1516 4384 1395 4259 
Q 1275 4134 1275 3809 
L 1275 3500 
L 2222 3500 
L 2222 3053 
L 1275 3053 
L 1275 0 
L 697 0 
L 697 3053 
L 147 3053 
L 147 3500 
L 697 3500 
L 697 3744 
Q 697 4328 969 4595 
Q 1241 4863 1831 4863 
L 2375 4863 
z
" transform="scale(0.015625)"/>
       <path id="DejaVuSans-72" d="M 2631 2963 
Q 2534 3019 2420 3045 
Q 2306 3072 2169 3072 
Q 1681 3072 1420 2755 
Q 1159 2438 1159 1844 
L 1159 0 
L 581 0 
L 581 3500 
L 1159 3500 
L 1159 2956 
Q 1341 3275 1631 3429 
Q 1922 3584 2338 3584 
Q 2397 3584 2469 3576 
Q 2541 3569 2628 3553 
L 2631 2963 
z
" transform="scale(0.015625)"/>
       <path id="DejaVuSans-6f" d="M 1959 3097 
Q 1497 3097 1228 2736 
Q 959 2375 959 1747 
Q 959 1119 1226 758 
Q 1494 397 1959 397 
Q 2419 397 2687 759 
Q 2956 1122 2956 1747 
Q 2956 2369 2687 2733 
Q 2419 3097 1959 3097 
z
M 1959 3584 
Q 2709 3584 3137 3096 
Q 3566 2609 3566 1747 
Q 3566 888 3137 398 
Q 2709 -91 1959 -91 
Q 1206 -91 779 398 
Q 353 888 353 1747 
Q 353 2609 779 3096 
Q 1206 3584 1959 3584 
z
" transform="scale(0.015625)"/>
       <path id="DejaVuSans-6d" d="M 3328 2828 
Q 3544 3216 3844 3400 
Q 4144 3584 4550 3584 
Q 5097 3584 5394 3201 
Q 5691 2819 5691 2113 
L 5691 0 
L 5113 0 
L 5113 2094 
Q 5113 2597 4934 2840 
Q 4756 3084 4391 3084 
Q 3944 3084 3684 2787 
Q 3425 2491 3425 1978 
L 3425 0 
L 2847 0 
L 2847 2094 
Q 2847 2600 2669 2842 
Q 2491 3084 2119 3084 
Q 1678 3084 1418 2786 
Q 1159 2488 1159 1978 
L 1159 0 
L 581 0 
L 581 3500 
L 1159 3500 
L 1159 2956 
Q 1356 3278 1631 3431 
Q 1906 3584 2284 3584 
Q 2666 3584 2933 3390 
Q 3200 3197 3328 2828 
z
" transform="scale(0.015625)"/>
       <path id="DejaVuSans-75" d="M 544 1381 
L 544 3500 
L 1119 3500 
L 1119 1403 
Q 1119 906 1312 657 
Q 1506 409 1894 409 
Q 2359 409 2629 706 
Q 2900 1003 2900 1516 
L 2900 3500 
L 3475 3500 
L 3475 0 
L 2900 0 
L 2900 538 
Q 2691 219 2414 64 
Q 2138 -91 1772 -91 
Q 1169 -91 856 284 
Q 544 659 544 1381 
z
M 1991 3584 
L 1991 3584 
z
" transform="scale(0.015625)"/>
       <path id="DejaVuSans-5b" d="M 550 4863 
L 1875 4863 
L 1875 4416 
L 1125 4416 
L 1125 -397 
L 1875 -397 
L 1875 -844 
L 550 -844 
L 550 4863 
z
" transform="scale(0.015625)"/>
       <path id="DejaVuSans-5d" d="M 1947 4863 
L 1947 -844 
L 622 -844 
L 622 -397 
L 1369 -397 
L 1369 4416 
L 622 4416 
L 622 4863 
L 1947 4863 
z
" transform="scale(0.015625)"/>
      </defs>
      <use xlink:href="#DejaVuSans-44"/>
      <use xlink:href="#DejaVuSans-69" transform="translate(77.001953 0)"/>
      <use xlink:href="#DejaVuSans-73" transform="translate(104.785156 0)"/>
      <use xlink:href="#DejaVuSans-74" transform="translate(156.884766 0)"/>
      <use xlink:href="#DejaVuSans-61" transform="translate(196.09375 0)"/>
      <use xlink:href="#DejaVuSans-6e" transform="translate(257.373047 0)"/>
      <use xlink:href="#DejaVuSans-63" transform="translate(320.751953 0)"/>
      <use xlink:href="#DejaVuSans-65" transform="translate(375.732422 0)"/>
      <use xlink:href="#DejaVuSans-20" transform="translate(437.255859 0)"/>
      <use xlink:href="#DejaVuSans-66" transform="translate(469.042969 0)"/>
      <use xlink:href="#DejaVuSans-72" transform="translate(504.248047 0)"/>
      <use xlink:href="#DejaVuSans-6f" transform="translate(543.111328 0)"/>
      <use xlink:href="#DejaVuSans-6d" transform="translate(604.292969 0)"/>
      <use xlink:href="#DejaVuSans-20" transform="translate(701.705078 0)"/>
      <use xlink:href="#DejaVuSans-74" transform="translate(733.492188 0)"/>
      <use xlink:href="#DejaVuSans-65" transform="translate(772.701172 0)"/>
      <use xlink:href="#DejaVuSans-72" transform="translate(834.224609 0)"/>
      <use xlink:href="#DejaVuSans-6d" transform="translate(873.587891 0)"/>
      <use xlink:href="#DejaVuSans-69" transform="translate(971 0)"/>
      <use xlink:href="#DejaVuSans-6e" transform="translate(998.783203 0)"/>
      <use xlink:href="#DejaVuSans-75" transform="translate(1062.162109 0)"/>
      <use xlink:href="#DejaVuSans-73" transform="translate(1125.541016 0)"/>
      <use xlink:href="#DejaVuSans-20" transform="translate(1177.640625 0)"/>
      <use xlink:href="#DejaVuSans-5b" transform="translate(1209.427734 0)"/>
      <use xlink:href="#DejaVuSans-6e" transform="translate(1248.441406 0)"/>
      <use xlink:href="#DejaVuSans-74" transform="translate(1311.820312 0)"/>
      <use xlink:href="#DejaVuSans-5d" transform="translate(1351.029297 0)"/>
     </g>
    </g>
   </g>
   <g id="matplotlib.axis_2">
    <g id="ytick_1">
     <g id="line2d_19">
      <path d="M 46.965625 369.201818 
L 400.505625 369.201818 
" clip-path="url(#pf9c9594f18)" style="fill: none; stroke-dasharray: 2.96,1.28; stroke-dashoffset: 0; stroke: #b0b0b0; stroke-opacity: 0.6; stroke-width: 0.8"/>
     </g>
     <g id="line2d_20">
      <defs>
       <path id="m4d68157dff" d="M 0 0 
L -3.5 0 
" style="stroke: #000000; stroke-width: 0.8"/>
      </defs>
      <g>
       <use xlink:href="#m4d68157dff" x="46.965625" y="369.201818" style="stroke: #000000; stroke-width: 0.8"/>
      </g>
     </g>
     <g id="text_11">
      <!-- 0 -->
      <g transform="translate(33.603125 373.001037) scale(0.1 -0.1)">
       <use xlink:href="#DejaVuSans-30"/>
      </g>
     </g>
    </g>
    <g id="ytick_2">
     <g id="line2d_21">
      <path d="M 46.965625 322.435183 
L 400.505625 322.435183 
" clip-path="url(#pf9c9594f18)" style="fill: none; stroke-dasharray: 2.96,1.28; stroke-dashoffset: 0; stroke: #b0b0b0; stroke-opacity: 0.6; stroke-width: 0.8"/>
     </g>
     <g id="line2d_22">
      <g>
       <use xlink:href="#m4d68157dff" x="46.965625" y="322.435183" style="stroke: #000000; stroke-width: 0.8"/>
      </g>
     </g>
     <g id="text_12">
      <!-- 50 -->
      <g transform="translate(27.240625 326.234402) scale(0.1 -0.1)">
       <use xlink:href="#DejaVuSans-35"/>
       <use xlink:href="#DejaVuSans-30" transform="translate(63.623047 0)"/>
      </g>
     </g>
    </g>
    <g id="ytick_3">
     <g id="line2d_23">
      <path d="M 46.965625 275.668547 
L 400.505625 275.668547 
" clip-path="url(#pf9c9594f18)" style="fill: none; stroke-dasharray: 2.96,1.28; stroke-dashoffset: 0; stroke: #b0b0b0; stroke-opacity: 0.6; stroke-width: 0.8"/>
     </g>
     <g id="line2d_24">
      <g>
       <use xlink:href="#m4d68157dff" x="46.965625" y="275.668547" style="stroke: #000000; stroke-width: 0.8"/>
      </g>
     </g>
     <g id="text_13">
      <!-- 100 -->
      <g transform="translate(20.878125 279.467766) scale(0.1 -0.1)">
       <use xlink:href="#DejaVuSans-31"/>
       <use xlink:href="#DejaVuSans-30" transform="translate(63.623047 0)"/>
       <use xlink:href="#DejaVuSans-30" transform="translate(127.246094 0)"/>
      </g>
     </g>
    </g>
    <g id="ytick_4">
     <g id="line2d_25">
      <path d="M 46.965625 228.901912 
L 400.505625 228.901912 
" clip-path="url(#pf9c9594f18)" style="fill: none; stroke-dasharray: 2.96,1.28; stroke-dashoffset: 0; stroke: #b0b0b0; stroke-opacity: 0.6; stroke-width: 0.8"/>
     </g>
     <g id="line2d_26">
      <g>
       <use xlink:href="#m4d68157dff" x="46.965625" y="228.901912" style="stroke: #000000; stroke-width: 0.8"/>
      </g>
     </g>
     <g id="text_14">
      <!-- 150 -->
      <g transform="translate(20.878125 232.701131) scale(0.1 -0.1)">
       <use xlink:href="#DejaVuSans-31"/>
       <use xlink:href="#DejaVuSans-35" transform="translate(63.623047 0)"/>
       <use xlink:href="#DejaVuSans-30" transform="translate(127.246094 0)"/>
      </g>
     </g>
    </g>
    <g id="ytick_5">
     <g id="line2d_27">
      <path d="M 46.965625 182.135276 
L 400.505625 182.135276 
" clip-path="url(#pf9c9594f18)" style="fill: none; stroke-dasharray: 2.96,1.28; stroke-dashoffset: 0; stroke: #b0b0b0; stroke-opacity: 0.6; stroke-width: 0.8"/>
     </g>
     <g id="line2d_28">
      <g>
       <use xlink:href="#m4d68157dff" x="46.965625" y="182.135276" style="stroke: #000000; stroke-width: 0.8"/>
      </g>
     </g>
     <g id="text_15">
      <!-- 200 -->
      <g transform="translate(20.878125 185.934495) scale(0.1 -0.1)">
       <use xlink:href="#DejaVuSans-32"/>
       <use xlink:href="#DejaVuSans-30" transform="translate(63.623047 0)"/>
       <use xlink:href="#DejaVuSans-30" transform="translate(127.246094 0)"/>
      </g>
     </g>
    </g>
    <g id="ytick_6">
     <g id="line2d_29">
      <path d="M 46.965625 135.368641 
L 400.505625 135.368641 
" clip-path="url(#pf9c9594f18)" style="fill: none; stroke-dasharray: 2.96,1.28; stroke-dashoffset: 0; stroke: #b0b0b0; stroke-opacity: 0.6; stroke-width: 0.8"/>
     </g>
     <g id="line2d_30">
      <g>
       <use xlink:href="#m4d68157dff" x="46.965625" y="135.368641" style="stroke: #000000; stroke-width: 0.8"/>
      </g>
     </g>
     <g id="text_16">
      <!-- 250 -->
      <g transform="translate(20.878125 139.16786) scale(0.1 -0.1)">
       <use xlink:href="#DejaVuSans-32"/>
       <use xlink:href="#DejaVuSans-35" transform="translate(63.623047 0)"/>
       <use xlink:href="#DejaVuSans-30" transform="translate(127.246094 0)"/>
      </g>
     </g>
    </g>
    <g id="ytick_7">
     <g id="line2d_31">
      <path d="M 46.965625 88.602006 
L 400.505625 88.602006 
" clip-path="url(#pf9c9594f18)" style="fill: none; stroke-dasharray: 2.96,1.28; stroke-dashoffset: 0; stroke: #b0b0b0; stroke-opacity: 0.6; stroke-width: 0.8"/>
     </g>
     <g id="line2d_32">
      <g>
       <use xlink:href="#m4d68157dff" x="46.965625" y="88.602006" style="stroke: #000000; stroke-width: 0.8"/>
      </g>
     </g>
     <g id="text_17">
      <!-- 300 -->
      <g transform="translate(20.878125 92.401224) scale(0.1 -0.1)">
       <use xlink:href="#DejaVuSans-33"/>
       <use xlink:href="#DejaVuSans-30" transform="translate(63.623047 0)"/>
       <use xlink:href="#DejaVuSans-30" transform="translate(127.246094 0)"/>
      </g>
     </g>
    </g>
    <g id="ytick_8">
     <g id="line2d_33">
      <path d="M 46.965625 41.83537 
L 400.505625 41.83537 
" clip-path="url(#pf9c9594f18)" style="fill: none; stroke-dasharray: 2.96,1.28; stroke-dashoffset: 0; stroke: #b0b0b0; stroke-opacity: 0.6; stroke-width: 0.8"/>
     </g>
     <g id="line2d_34">
      <g>
       <use xlink:href="#m4d68157dff" x="46.965625" y="41.83537" style="stroke: #000000; stroke-width: 0.8"/>
      </g>
     </g>
     <g id="text_18">
      <!-- 350 -->
      <g transform="translate(20.878125 45.634589) scale(0.1 -0.1)">
       <use xlink:href="#DejaVuSans-33"/>
       <use xlink:href="#DejaVuSans-35" transform="translate(63.623047 0)"/>
       <use xlink:href="#DejaVuSans-30" transform="translate(127.246094 0)"/>
      </g>
     </g>
    </g>
    <g id="text_19">
     <!-- Average cumulative count -->
     <g transform="translate(14.798438 262.4325) rotate(-90) scale(0.1 -0.1)">
      <defs>
       <path id="DejaVuSans-41" d="M 2188 4044 
L 1331 1722 
L 3047 1722 
L 2188 4044 
z
M 1831 4666 
L 2547 4666 
L 4325 0 
L 3669 0 
L 3244 1197 
L 1141 1197 
L 716 0 
L 50 0 
L 1831 4666 
z
" transform="scale(0.015625)"/>
       <path id="DejaVuSans-76" d="M 191 3500 
L 800 3500 
L 1894 563 
L 2988 3500 
L 3597 3500 
L 2284 0 
L 1503 0 
L 191 3500 
z
" transform="scale(0.015625)"/>
       <path id="DejaVuSans-67" d="M 2906 1791 
Q 2906 2416 2648 2759 
Q 2391 3103 1925 3103 
Q 1463 3103 1205 2759 
Q 947 2416 947 1791 
Q 947 1169 1205 825 
Q 1463 481 1925 481 
Q 2391 481 2648 825 
Q 2906 1169 2906 1791 
z
M 3481 434 
Q 3481 -459 3084 -895 
Q 2688 -1331 1869 -1331 
Q 1566 -1331 1297 -1286 
Q 1028 -1241 775 -1147 
L 775 -588 
Q 1028 -725 1275 -790 
Q 1522 -856 1778 -856 
Q 2344 -856 2625 -561 
Q 2906 -266 2906 331 
L 2906 616 
Q 2728 306 2450 153 
Q 2172 0 1784 0 
Q 1141 0 747 490 
Q 353 981 353 1791 
Q 353 2603 747 3093 
Q 1141 3584 1784 3584 
Q 2172 3584 2450 3431 
Q 2728 3278 2906 2969 
L 2906 3500 
L 3481 3500 
L 3481 434 
z
" transform="scale(0.015625)"/>
       <path id="DejaVuSans-6c" d="M 603 4863 
L 1178 4863 
L 1178 0 
L 603 0 
L 603 4863 
z
" transform="scale(0.015625)"/>
      </defs>
      <use xlink:href="#DejaVuSans-41"/>
      <use xlink:href="#DejaVuSans-76" transform="translate(62.533203 0)"/>
      <use xlink:href="#DejaVuSans-65" transform="translate(121.712891 0)"/>
      <use xlink:href="#DejaVuSans-72" transform="translate(183.236328 0)"/>
      <use xlink:href="#DejaVuSans-61" transform="translate(224.349609 0)"/>
      <use xlink:href="#DejaVuSans-67" transform="translate(285.628906 0)"/>
      <use xlink:href="#DejaVuSans-65" transform="translate(349.105469 0)"/>
      <use xlink:href="#DejaVuSans-20" transform="translate(410.628906 0)"/>
      <use xlink:href="#DejaVuSans-63" transform="translate(442.416016 0)"/>
      <use xlink:href="#DejaVuSans-75" transform="translate(497.396484 0)"/>
      <use xlink:href="#DejaVuSans-6d" transform="translate(560.775391 0)"/>
      <use xlink:href="#DejaVuSans-75" transform="translate(658.1875 0)"/>
      <use xlink:href="#DejaVuSans-6c" transform="translate(721.566406 0)"/>
      <use xlink:href="#DejaVuSans-61" transform="translate(749.349609 0)"/>
      <use xlink:href="#DejaVuSans-74" transform="translate(810.628906 0)"/>
      <use xlink:href="#DejaVuSans-69" transform="translate(849.837891 0)"/>
      <use xlink:href="#DejaVuSans-76" transform="translate(877.621094 0)"/>
      <use xlink:href="#DejaVuSans-65" transform="translate(936.800781 0)"/>
      <use xlink:href="#DejaVuSans-20" transform="translate(998.324219 0)"/>
      <use xlink:href="#DejaVuSans-63" transform="translate(1030.111328 0)"/>
      <use xlink:href="#DejaVuSans-6f" transform="translate(1085.091797 0)"/>
      <use xlink:href="#DejaVuSans-75" transform="translate(1146.273438 0)"/>
      <use xlink:href="#DejaVuSans-6e" transform="translate(1209.652344 0)"/>
      <use xlink:href="#DejaVuSans-74" transform="translate(1273.03125 0)"/>
     </g>
    </g>
   </g>
   <g id="line2d_35">
    <path d="M 63.035625 369.181033 
L 63.598145 369.097892 
L 63.879405 368.952396 
L 64.160666 368.869255 
L 64.401746 368.682189 
L 64.924086 368.578263 
L 65.808047 368.2457 
L 66.290207 368.141774 
L 66.852727 367.975493 
L 67.174167 367.871567 
L 67.415247 367.767641 
L 67.817048 367.684501 
L 68.178668 367.60136 
L 68.379568 367.539004 
L 68.781368 367.435079 
L 69.625149 367.123301 
L 69.946589 367.019375 
L 70.589469 366.811523 
L 70.790369 366.749168 
L 70.951089 366.645242 
L 71.19217 366.541316 
L 71.87523 366.312679 
L 72.51811 366.208754 
L 73.321711 365.917761 
L 73.643151 365.813835 
L 74.044951 365.730695 
L 74.768192 365.626769 
L 75.089632 365.585198 
L 75.370892 365.481273 
L 76.013772 365.273421 
L 76.495933 365.169495 
L 76.937913 365.065569 
L 77.460253 364.961643 
L 78.464754 364.566725 
L 78.866554 364.462799 
L 79.429074 364.296518 
L 79.589794 364.213377 
L 79.830874 364.109451 
L 80.071955 364.005525 
L 80.714835 363.797674 
L 81.116635 363.693748 
L 82.040776 363.3404 
L 82.322036 363.236474 
L 82.482756 363.153333 
L 83.045276 363.049407 
L 83.326536 363.028622 
L 83.889057 362.924696 
L 84.290857 362.841556 
L 84.813197 362.7792 
L 84.973917 362.716845 
L 85.456078 362.592134 
L 85.656978 362.508993 
L 85.857878 362.446638 
L 86.500758 362.342712 
L 87.103458 362.155645 
L 87.826699 362.072504 
L 88.027599 362.010149 
L 88.389219 361.947793 
L 88.99192 361.843868 
L 89.35354 361.781512 
L 89.71516 361.677586 
L 90.35804 361.469734 
L 90.67948 361.365809 
L 91.201821 361.220312 
L 91.804521 361.116387 
L 92.688482 360.783824 
L 93.451902 360.700683 
L 93.773342 360.513617 
L 94.175142 360.472046 
L 94.376043 360.305765 
L 94.576943 360.243409 
L 94.898383 360.139483 
L 95.219823 360.097913 
L 95.782343 359.993987 
L 96.344864 359.827706 
L 97.108284 359.72378 
L 97.590444 359.599069 
L 98.434225 359.495143 
L 98.755665 359.453573 
L 99.237825 359.349647 
L 99.559265 359.308077 
L 100.282506 359.204151 
L 100.965566 358.975514 
L 101.367366 358.871588 
L 101.728987 358.809233 
L 102.612947 358.705307 
L 103.336188 358.455885 
L 103.697808 358.351959 
L 104.340688 358.144107 
L 105.224649 358.040181 
L 105.465729 357.936255 
L 105.867529 357.853115 
L 106.229149 357.749189 
L 106.430049 357.686833 
L 107.23365 357.395841 
L 107.79617 357.291915 
L 108.19797 357.208774 
L 108.921211 357.104848 
L 109.081931 357.063278 
L 109.684631 356.959352 
L 110.086431 356.876212 
L 110.849852 356.772286 
L 111.211472 356.70993 
L 111.733812 356.606004 
L 112.135612 356.522864 
L 112.778493 356.439723 
L 112.939213 356.398153 
L 113.702633 356.294227 
L 114.184794 356.169516 
L 114.707134 356.06559 
L 115.108934 355.982449 
L 116.233975 355.878523 
L 116.515235 355.857738 
L 117.077755 355.753812 
L 117.439375 355.691457 
L 118.403696 355.587531 
L 118.725136 355.545961 
L 119.247476 355.442035 
L 119.649277 355.358894 
L 120.533237 355.254968 
L 121.015397 355.130257 
L 121.738638 355.026331 
L 122.140438 354.943191 
L 122.301158 354.90162 
L 122.461878 354.797694 
L 122.743138 354.693769 
L 123.064579 354.652198 
L 123.747639 354.548272 
L 124.109259 354.485917 
L 124.591419 354.381991 
L 124.95304 354.319636 
L 125.837 354.21571 
L 126.15844 354.174139 
L 127.162941 354.070213 
L 127.725461 353.903932 
L 128.488882 353.800006 
L 128.930862 353.69608 
L 129.533562 353.592155 
L 129.694282 353.488229 
L 130.055903 353.405088 
L 130.256803 353.342732 
L 130.578243 353.301162 
L 131.020223 353.197236 
L 131.462203 353.09331 
L 131.823824 352.989385 
L 132.185444 352.927029 
L 133.511384 352.823103 
L 133.913185 352.739963 
L 134.676605 352.636037 
L 134.957865 352.615251 
L 135.640926 352.511326 
L 135.882006 352.4074 
L 136.645426 352.303474 
L 136.966866 352.261904 
L 137.891007 352.157978 
L 138.574067 351.929341 
L 139.578568 351.8462 
L 139.779468 351.783845 
L 140.462528 351.700704 
L 140.623248 351.659134 
L 141.748289 351.555208 
L 142.029549 351.534423 
L 142.63225 351.430497 
L 143.07423 351.326571 
L 143.47603 351.222645 
L 143.71711 351.097934 
L 144.19927 350.994008 
L 144.601071 350.910867 
L 145.565391 350.806942 
L 145.846651 350.786156 
L 146.851152 350.703016 
L 147.052052 350.64066 
L 147.936013 350.536734 
L 148.337813 350.453594 
L 148.860153 350.349668 
L 149.261953 350.266527 
L 150.105734 350.162601 
L 150.467354 350.100246 
L 151.311134 349.99632 
L 151.672755 349.933964 
L 152.436175 349.830039 
L 152.837975 349.746898 
L 153.199595 349.642972 
L 153.400496 349.580616 
L 153.842476 349.476691 
L 154.083556 349.372765 
L 154.686256 349.268839 
L 155.047877 349.206483 
L 155.610397 349.102558 
L 155.931837 349.060987 
L 156.534537 348.957061 
L 156.896158 348.894706 
L 157.458678 348.79078 
L 157.940838 348.666069 
L 158.905159 348.562143 
L 159.347139 348.458217 
L 160.311459 348.354291 
L 160.79362 348.22958 
L 161.19542 348.125654 
L 161.59722 348.042514 
L 162.963341 347.938588 
L 163.244601 347.917803 
L 164.811622 347.813877 
L 165.173242 347.751521 
L 165.775943 347.647596 
L 166.097383 347.606025 
L 166.499183 347.502099 
L 166.820623 347.460529 
L 167.503684 347.356603 
L 167.945664 347.252677 
L 169.512685 347.148751 
L 169.874305 347.086396 
L 170.517185 346.98247 
L 170.878805 346.920115 
L 171.561866 346.816189 
L 172.044026 346.691478 
L 173.169067 346.587552 
L 173.490507 346.545981 
L 174.133387 346.442056 
L 174.535187 346.358915 
L 175.780768 346.254989 
L 176.142388 346.192634 
L 176.945989 346.088708 
L 177.508509 345.922426 
L 178.47283 345.8185 
L 178.83445 345.756145 
L 179.63805 345.652219 
L 180.039851 345.569078 
L 181.807772 345.465153 
L 182.209572 345.382012 
L 183.173892 345.278086 
L 183.495332 345.236516 
L 184.821273 345.13259 
L 185.223073 345.049449 
L 186.227574 344.945523 
L 186.629374 344.862383 
L 187.352615 344.758457 
L 187.674055 344.716886 
L 188.879455 344.612961 
L 189.241076 344.550605 
L 190.607196 344.446679 
L 190.968817 344.384324 
L 191.933137 344.280398 
L 192.214397 344.259613 
L 193.419798 344.155687 
L 193.821598 344.072546 
L 195.549339 343.96862 
L 195.830599 343.947835 
L 198.040501 343.843909 
L 198.201221 343.739983 
L 199.446801 343.636057 
L 199.728062 343.615272 
L 200.370942 343.511346 
L 200.652202 343.490561 
L 201.455803 343.386635 
L 201.817423 343.32428 
L 203.223724 343.220354 
L 203.545164 343.178784 
L 205.192545 343.074858 
L 205.473805 343.054073 
L 206.397945 342.950147 
L 206.799746 342.867006 
L 207.362266 342.783865 
L 207.522986 342.742295 
L 208.206046 342.638369 
L 208.487306 342.617584 
L 209.411447 342.513658 
L 209.732887 342.472088 
L 210.697208 342.368162 
L 211.219548 342.222666 
L 212.143689 342.11874 
L 212.465129 342.07717 
L 213.268729 341.994029 
L 213.429449 341.952459 
L 214.03215 341.848533 
L 214.35359 341.806962 
L 215.39827 341.703037 
L 215.719711 341.661466 
L 216.242051 341.55754 
L 216.523311 341.536755 
L 217.688532 341.432829 
L 218.050152 341.370474 
L 218.693032 341.266548 
L 219.054652 341.204192 
L 220.260053 341.121052 
L 220.460953 341.037911 
L 221.264554 340.933985 
L 221.666354 340.850845 
L 222.590494 340.746919 
L 222.992295 340.663778 
L 223.554815 340.559852 
L 223.876255 340.518282 
L 225.081656 340.414356 
L 225.322736 340.31043 
L 225.925436 340.206504 
L 226.206696 340.185719 
L 227.251377 340.081793 
L 227.612997 340.019438 
L 229.380918 339.915512 
L 229.662178 339.894727 
L 230.546139 339.790801 
L 230.907759 339.728445 
L 233.19802 339.645305 
L 233.35874 339.603734 
L 233.720361 339.520594 
L 233.961441 339.416668 
L 235.046301 339.312742 
L 235.367742 339.271172 
L 236.211522 339.188031 
L 236.492782 339.042535 
L 238.180343 338.938609 
L 238.461603 338.917824 
L 240.470604 338.813898 
L 240.832225 338.751542 
L 241.836725 338.647616 
L 242.198345 338.585261 
L 245.131487 338.481335 
L 245.452927 338.439765 
L 248.265529 338.335839 
L 248.627149 338.273483 
L 250.15399 338.169557 
L 250.51561 338.107202 
L 251.520111 338.003276 
L 251.841551 337.961706 
L 254.493432 337.85778 
L 254.814872 337.81621 
L 256.984594 337.712284 
L 257.386394 337.629143 
L 258.511434 337.525217 
L 258.913235 337.442076 
L 261.002596 337.338151 
L 261.324036 337.29658 
L 263.533937 337.192654 
L 263.895557 337.130299 
L 264.538438 337.026373 
L 264.819698 337.005588 
L 266.386719 336.901662 
L 266.748339 336.839306 
L 267.95374 336.735381 
L 268.235 336.714595 
L 269.2395 336.61067 
L 269.560941 336.569099 
L 271.610122 336.465173 
L 272.011922 336.382033 
L 273.458403 336.298892 
L 273.659303 336.236536 
L 274.342363 336.153396 
L 274.503083 336.111825 
L 277.396045 336.0079 
L 277.677305 335.987114 
L 279.927386 335.883189 
L 280.208647 335.862403 
L 282.539088 335.758478 
L 282.860528 335.716907 
L 285.110609 335.612981 
L 285.43205 335.571411 
L 287.802671 335.467485 
L 288.083931 335.4467 
L 290.012572 335.342774 
L 290.334012 335.301204 
L 292.101933 335.197278 
L 292.543914 335.093352 
L 293.468054 334.989426 
L 293.789494 334.947856 
L 296.200296 334.84393 
L 296.481556 334.823145 
L 297.928037 334.719219 
L 298.209297 334.698434 
L 300.178118 334.594508 
L 300.459378 334.573723 
L 304.51756 334.469797 
L 304.79882 334.449012 
L 305.883681 334.345086 
L 306.164941 334.324301 
L 308.053402 334.220375 
L 308.334662 334.19959 
L 311.147264 334.095664 
L 311.307984 334.054094 
L 313.879505 333.950168 
L 314.200946 333.908597 
L 316.571567 333.804671 
L 316.852827 333.783886 
L 318.821648 333.67996 
L 319.102908 333.659175 
L 323.080731 333.555249 
L 323.402171 333.513679 
L 325.732612 333.409753 
L 326.013872 333.388968 
L 327.299633 333.285042 
L 327.621073 333.243472 
L 329.268454 333.160331 
L 329.429174 333.118761 
L 331.438175 333.014835 
L 331.719435 332.99405 
L 333.447176 332.890124 
L 333.728437 332.869339 
L 336.460678 332.765413 
L 336.782118 332.723843 
L 338.268779 332.619917 
L 338.550039 332.599132 
L 341.242101 332.495206 
L 341.523361 332.47442 
L 343.010022 332.370495 
L 343.331462 332.328924 
L 345.260103 332.224998 
L 345.541363 332.204213 
L 347.711084 332.100287 
L 347.992345 332.079502 
L 351.889807 331.975576 
L 352.171067 331.954791 
L 359.765091 331.850865 
L 360.046351 331.83008 
L 362.537513 331.726154 
L 362.858953 331.684584 
L 366.676055 331.580658 
L 366.997495 331.539088 
L 370.332437 331.435162 
L 370.694057 331.372806 
L 374.149539 331.268881 
L 374.430799 331.248095 
L 377.082681 331.14417 
L 377.363941 331.123384 
L 378.770242 331.019459 
L 379.051502 330.998673 
L 381.060503 330.894747 
L 381.381943 330.853177 
L 384.435625 330.770036 
L 384.435625 330.770036 
" clip-path="url(#pf9c9594f18)" style="fill: none; stroke: #add8e6; stroke-width: 2; stroke-linecap: square"/>
   </g>
   <g id="line2d_36">
    <path d="M 63.035625 369.181033 
L 63.799045 369.077107 
L 64.080306 369.056322 
L 64.642826 368.973181 
L 64.883906 368.84847 
L 65.808047 368.744544 
L 66.330387 368.599048 
L 67.575968 368.495122 
L 67.977768 368.411982 
L 69.022448 368.308056 
L 69.384069 368.2457 
L 69.986769 368.141774 
L 70.147489 368.100204 
L 70.710009 367.996278 
L 71.19217 367.871567 
L 71.79487 367.767641 
L 71.99577 367.684501 
L 72.31721 367.580575 
L 72.51811 367.518219 
L 73.080631 367.414293 
L 73.482431 367.331153 
L 74.125311 367.227227 
L 74.486931 367.164871 
L 74.928912 367.060946 
L 75.129812 366.99859 
L 75.772692 366.894664 
L 75.973592 366.832309 
L 76.656653 366.728383 
L 77.219173 366.562101 
L 77.781693 366.478961 
L 77.982593 366.416605 
L 78.263854 366.39582 
L 78.665654 366.312679 
L 78.987094 366.125613 
L 79.790694 366.021687 
L 80.112135 365.980117 
L 80.513935 365.876191 
L 80.915735 365.79305 
L 81.357715 365.689124 
L 81.558615 365.605984 
L 82.201496 365.502058 
L 82.683656 365.377347 
L 83.326536 365.273421 
L 83.808697 365.14871 
L 84.250677 365.044784 
L 84.692657 364.940858 
L 85.496258 364.836932 
L 86.058778 364.670651 
L 86.661478 364.566725 
L 87.344539 364.338088 
L 87.746339 364.234162 
L 88.389219 364.026311 
L 88.871379 363.94317 
L 89.11246 363.839244 
L 89.55444 363.735318 
L 89.91606 363.672963 
L 90.35804 363.569037 
L 90.840201 363.444326 
L 91.322361 363.3404 
L 91.523261 363.278044 
L 92.246501 363.174119 
L 92.849202 362.987052 
L 93.451902 362.883126 
L 93.773342 362.841556 
L 94.416223 362.73763 
L 94.978743 362.571349 
L 95.581443 362.467423 
L 95.983243 362.384282 
L 96.304684 362.280356 
L 96.786844 362.155645 
L 97.349364 362.051719 
L 98.112785 361.781512 
L 98.635125 361.677586 
L 99.117285 361.552875 
L 99.559265 361.469734 
L 99.800346 361.345023 
L 100.322686 361.241098 
L 100.925386 361.054031 
L 101.407546 360.950105 
L 101.970067 360.783824 
L 102.452227 360.679898 
L 103.014747 360.513617 
L 103.496908 360.409691 
L 104.260328 360.139483 
L 104.662128 360.035558 
L 105.345189 359.806921 
L 105.746989 359.702995 
L 105.907709 359.661425 
L 106.430049 359.557499 
L 107.15329 359.308077 
L 107.63545 359.204151 
L 107.83635 359.12101 
L 108.19797 359.017084 
L 108.921211 358.767662 
L 109.242651 358.663736 
L 110.046251 358.372744 
L 110.327511 358.268818 
L 111.050752 358.019396 
L 111.332012 357.91547 
L 111.773992 357.811544 
L 112.055252 357.707618 
L 112.738313 357.478982 
L 113.019573 357.375056 
L 113.300833 357.208774 
L 113.702633 357.104848 
L 114.908034 356.606004 
L 115.229474 356.502079 
L 115.671454 356.398153 
L 115.912535 356.294227 
L 117.198295 355.753812 
L 117.640276 355.649886 
L 118.122436 355.525175 
L 118.242976 355.442035 
L 118.443876 355.379679 
L 119.046576 355.192613 
L 119.408197 355.088687 
L 120.292157 354.756124 
L 120.573417 354.672983 
L 120.854677 354.527487 
L 121.417198 354.444347 
L 121.698458 354.278065 
L 122.260978 354.174139 
L 122.461878 354.090999 
L 122.823498 353.987073 
L 124.189619 353.405088 
L 125.11376 353.301162 
L 125.35484 353.197236 
L 125.55574 353.114096 
L 125.79682 353.01017 
L 126.962041 352.532111 
L 127.243301 352.428185 
L 127.846001 352.241118 
L 128.247802 352.137193 
L 129.493382 351.617563 
L 130.015723 351.513637 
L 130.738963 351.264215 
L 130.980043 351.160289 
L 131.140763 351.035578 
L 132.386344 350.515949 
L 132.667604 350.432808 
L 132.989044 350.224957 
L 133.471204 350.141816 
L 133.712285 350.03789 
L 134.596245 349.705328 
L 134.917685 349.601402 
L 135.078405 349.559831 
L 135.359666 349.476691 
L 135.560566 349.268839 
L 135.801646 349.164913 
L 135.962366 349.081772 
L 137.770467 348.271151 
L 137.931187 348.18801 
L 138.132087 348.042514 
L 138.614247 347.938588 
L 139.096408 347.813877 
L 139.377668 347.709951 
L 139.658928 347.564455 
L 140.141088 347.460529 
L 140.703608 347.294248 
L 140.904509 347.190322 
L 145.726111 344.820812 
L 146.007371 344.716886 
L 147.011872 344.321968 
L 147.333312 344.218042 
L 147.614572 344.072546 
L 148.297633 343.843909 
L 148.538713 343.760769 
L 148.739613 343.698413 
L 149.061053 343.594487 
L 149.342313 343.448991 
L 149.583393 343.345065 
L 149.824474 343.241139 
L 150.065554 343.137213 
L 150.306634 342.950147 
L 150.467354 342.867006 
L 150.708434 342.742295 
L 151.110234 342.659154 
L 151.351314 342.451303 
L 152.958515 341.744607 
L 153.159415 341.682251 
L 153.400496 341.495185 
L 153.721936 341.391259 
L 153.963016 341.287333 
L 154.324636 341.204192 
L 154.605896 341.037911 
L 155.088057 340.933985 
L 157.016698 340.061008 
L 157.297958 339.957082 
L 157.498858 339.894727 
L 157.780118 339.790801 
L 158.141738 339.541379 
L 158.302458 339.458238 
L 158.503358 339.312742 
L 159.186419 339.084105 
L 159.347139 339.021749 
L 159.548039 338.855468 
L 159.829299 338.751542 
L 160.75344 338.398194 
L 161.0347 338.294268 
L 161.27578 338.190343 
L 162.11956 337.878565 
L 162.400821 337.774639 
L 163.445501 337.358936 
L 163.766941 337.25501 
L 164.570542 336.714595 
L 164.731262 336.61067 
L 164.972342 336.506744 
L 165.173242 336.382033 
L 165.414322 336.278107 
L 165.695582 336.132611 
L 165.856303 336.028685 
L 166.097383 335.924759 
L 166.298283 335.820833 
L 166.539363 335.696122 
L 166.860803 335.592196 
L 171.039525 333.555249 
L 171.360966 333.451324 
L 173.450327 332.495206 
L 173.651227 332.412065 
L 174.012847 332.183428 
L 174.374467 332.079502 
L 177.146889 330.770036 
L 177.387969 330.666111 
L 177.669229 330.416689 
L 181.124711 328.504453 
L 181.405971 328.358957 
L 186.790094 325.449033 
L 187.031174 325.324322 
L 187.392795 325.220396 
L 188.276755 324.638411 
L 188.558015 324.47213 
L 188.758915 324.368204 
L 190.165216 323.536797 
L 190.325936 323.453656 
L 190.567016 323.34973 
L 191.129537 322.934027 
L 191.450977 322.74696 
L 197.07618 319.712325 
L 197.8396 319.067985 
L 199.969142 317.862445 
L 200.210222 317.654593 
L 202.661203 316.303557 
L 202.821923 316.116491 
L 203.424624 315.700787 
L 203.625524 315.555291 
L 205.112185 314.703099 
L 205.272905 314.536818 
L 205.795245 314.141899 
L 206.116685 313.954833 
L 206.598845 313.601485 
L 206.799746 313.435204 
L 206.920286 313.393633 
L 207.121186 313.206567 
L 207.362266 313.123426 
L 207.804246 312.811648 
L 208.286406 312.728508 
L 208.447126 312.603797 
L 208.648027 312.499871 
L 209.210547 312.063382 
L 209.451627 311.959456 
L 210.094507 311.502183 
L 210.415948 311.315116 
L 211.340088 310.712346 
L 211.902608 310.275858 
L 212.063328 310.192717 
L 212.465129 309.901724 
L 212.666029 309.818584 
L 212.907109 309.589947 
L 213.148189 309.486021 
L 213.549989 309.195029 
L 213.710709 309.111888 
L 213.99197 308.966392 
L 215.960791 307.823207 
L 216.201871 307.636141 
L 217.367091 306.90866 
L 217.728712 306.659238 
L 218.090332 306.555312 
L 218.411772 306.368245 
L 218.853752 306.014897 
L 219.295733 305.70312 
L 219.617173 305.599194 
L 220.300233 305.14192 
L 220.541313 304.954854 
L 220.782393 304.850928 
L 221.103834 304.663861 
L 223.474455 303.312825 
L 223.715535 303.125759 
L 224.036975 302.917907 
L 224.278055 302.834766 
L 224.760216 302.481418 
L 225.001296 302.377492 
L 226.528137 301.462945 
L 226.929937 301.171953 
L 227.291557 301.068027 
L 227.974617 300.631538 
L 228.215698 300.382116 
L 228.336238 300.340546 
L 228.577318 300.091124 
L 228.818398 299.987198 
L 229.863078 299.342857 
L 230.023799 299.218146 
L 230.144339 299.114221 
L 233.19802 297.409837 
L 233.39892 297.285125 
L 235.448102 296.121156 
L 235.689182 295.934089 
L 235.809722 295.850949 
L 236.010622 295.622312 
L 236.171342 295.539171 
L 236.412422 295.41446 
L 236.774042 295.310534 
L 239.948264 293.585365 
L 240.108984 293.398298 
L 240.751865 292.941025 
L 241.033125 292.774743 
L 241.274205 292.670817 
L 241.475105 292.483751 
L 242.921586 291.631559 
L 243.122486 291.423707 
L 243.363566 291.319781 
L 243.604646 291.215855 
L 244.167166 290.800152 
L 244.448427 290.633871 
L 244.810047 290.529945 
L 247.100308 289.220479 
L 247.341388 289.116553 
L 247.542288 289.033412 
L 248.104809 288.576139 
L 248.185169 288.513783 
L 248.386069 288.389072 
L 248.667329 288.285146 
L 249.63165 287.661591 
L 249.91291 287.49531 
L 250.15399 287.412169 
L 250.55579 287.121177 
L 250.63615 287.038036 
L 251.03795 286.767829 
L 251.19867 286.663903 
L 251.35939 286.518407 
L 251.600471 286.435266 
L 251.841551 286.310555 
L 252.122811 286.206629 
L 253.649652 285.312867 
L 253.850552 285.146585 
L 254.573792 284.647741 
L 254.855052 284.48146 
L 255.096133 284.419104 
L 255.377393 284.169682 
L 258.832875 282.506869 
L 259.073955 282.402943 
L 260.279355 281.654677 
L 260.480256 281.488395 
L 260.681156 281.384469 
L 261.082956 281.114262 
L 261.364216 281.010336 
L 261.725836 280.698559 
L 261.926736 280.532277 
L 262.167817 280.428352 
L 262.449077 280.282855 
L 265.623298 278.536901 
L 265.824199 278.41219 
L 266.788519 277.788635 
L 267.029599 277.663924 
L 267.190319 277.580783 
L 267.431399 277.393717 
L 267.59212 277.310576 
L 267.79302 277.123509 
L 268.0341 277.019583 
L 268.31536 276.874087 
L 268.95824 276.416813 
L 269.15914 276.292102 
L 269.360041 276.063466 
L 269.520761 275.917969 
L 269.761841 275.834829 
L 270.002921 275.626977 
L 270.886881 275.086563 
L 271.087782 274.920281 
L 273.136963 273.756312 
L 273.297683 273.631601 
L 275.226324 272.509201 
L 275.427224 272.363705 
L 276.793345 271.532298 
L 277.034425 271.407587 
L 277.195145 271.303661 
L 277.396045 271.13738 
L 277.556765 271.075024 
L 277.717485 270.971099 
L 277.918385 270.908743 
L 278.079105 270.804817 
L 278.360366 270.638536 
L 278.480906 270.53461 
L 281.815848 268.705515 
L 281.976568 268.601589 
L 282.257828 268.518448 
L 282.458728 268.352167 
L 282.699808 268.248241 
L 283.423048 267.749397 
L 283.664129 267.624686 
L 283.865029 267.52076 
L 284.226649 267.292123 
L 284.467729 267.188197 
L 285.47223 266.564642 
L 285.67313 266.439931 
L 285.91421 266.377576 
L 286.15529 266.190509 
L 286.39637 266.086583 
L 286.59727 265.982658 
L 286.87853 265.816376 
L 287.159791 265.71245 
L 287.441051 265.546169 
L 287.601771 265.463028 
L 287.883031 265.192821 
L 288.164291 265.10968 
L 288.405371 265.005754 
L 290.615272 263.779429 
L 290.775993 263.654718 
L 291.217973 263.550792 
L 291.459053 263.446867 
L 291.941213 263.093519 
L 292.302833 262.989593 
L 292.543914 262.885667 
L 293.066254 262.781741 
L 295.276155 261.763268 
L 295.597595 261.659342 
L 296.481556 261.118927 
L 296.642276 261.015002 
L 302.629099 258.042722 
L 302.789819 257.938796 
L 303.27198 257.585448 
L 303.4327 257.502308 
L 303.59342 257.398382 
L 304.71846 256.733256 
L 304.91936 256.54619 
L 305.120261 256.463049 
L 305.481881 256.234412 
L 306.205121 255.735568 
L 306.446201 255.631642 
L 309.901683 253.968828 
L 310.102583 253.864903 
L 310.383844 253.719406 
L 310.624924 253.615481 
L 311.066904 253.303703 
L 313.437525 252.202089 
L 313.678605 252.098163 
L 315.928687 251.058905 
L 316.089407 250.954979 
L 316.973367 250.622416 
L 317.214447 250.51849 
L 318.821648 249.811794 
L 319.263629 249.707868 
L 321.35299 248.75175 
L 321.47353 248.71018 
L 321.67443 248.502328 
L 321.99587 248.398403 
L 322.27713 248.232121 
L 322.63875 248.128195 
L 325.049552 247.005796 
L 325.290632 246.90187 
L 326.174592 246.569308 
L 326.536213 246.465382 
L 327.460353 246.112034 
L 327.781793 246.008108 
L 328.987194 245.509264 
L 329.188094 245.446908 
L 329.348814 245.363768 
L 331.156915 244.553146 
L 331.438175 244.44922 
L 333.889157 243.306036 
L 334.210597 243.20211 
L 334.853477 242.994258 
L 335.174917 242.931903 
L 335.375818 242.807192 
L 336.661578 242.266777 
L 336.983018 242.162851 
L 337.183919 242.079711 
L 337.465179 241.975785 
L 338.389319 241.622437 
L 338.630399 241.518511 
L 338.871479 241.414585 
L 339.75544 241.082022 
L 340.07688 240.978096 
L 341.201921 240.520823 
L 341.443001 240.416897 
L 342.407321 240.042764 
L 342.608222 239.959623 
L 342.849302 239.772556 
L 343.853802 239.377638 
L 344.094882 239.273712 
L 344.657403 239.107431 
L 344.898483 239.02429 
L 345.179743 238.878794 
L 345.541363 238.795653 
L 345.782443 238.670942 
L 346.184244 238.567017 
L 347.992345 237.756395 
L 348.595045 237.652469 
L 348.836125 237.548543 
L 349.800446 237.17441 
L 350.041526 237.091269 
L 350.242426 237.028914 
L 350.403146 236.924988 
L 350.804946 236.841847 
L 351.086206 236.737921 
L 351.246926 236.654781 
L 351.648727 236.550855 
L 352.693407 236.135152 
L 352.894307 236.052011 
L 353.095207 235.96887 
L 353.456828 235.864944 
L 354.260428 235.573952 
L 354.622048 235.470026 
L 355.706909 235.033537 
L 356.148889 234.929612 
L 356.79177 234.72176 
L 357.07303 234.617834 
L 359.202571 233.640931 
L 359.604371 233.55779 
L 359.765091 233.47465 
L 360.086531 233.370724 
L 360.287431 233.246013 
L 360.689232 233.162872 
L 360.849952 233.058946 
L 361.171392 233.017376 
L 361.774092 232.91345 
L 362.216073 232.809524 
L 362.457153 232.705598 
L 363.140213 232.476961 
L 363.742913 232.373036 
L 364.345614 232.185969 
L 364.667054 232.102828 
L 364.867954 232.040473 
L 365.350114 231.957332 
L 365.591194 231.853406 
L 365.912635 231.770266 
L 366.073355 231.645555 
L 366.234075 231.562414 
L 366.394795 231.520843 
L 366.716235 231.416918 
L 367.479656 231.14671 
L 367.881456 231.042785 
L 368.162716 230.897288 
L 368.644876 230.793362 
L 369.448477 230.50237 
L 369.729737 230.398444 
L 369.890457 230.315304 
L 370.452977 230.149022 
L 371.055678 230.045096 
L 371.296758 229.94117 
L 372.140538 229.629393 
L 372.743238 229.525467 
L 373.104859 229.463112 
L 373.345939 229.359186 
L 374.109359 229.088978 
L 374.6317 228.985053 
L 374.87278 228.881127 
L 375.35494 228.797986 
L 375.59602 228.673275 
L 376.07818 228.569349 
L 376.680881 228.382283 
L 377.042501 228.278357 
L 377.645201 228.09129 
L 377.966641 227.987364 
L 378.569342 227.800298 
L 378.810422 227.696372 
L 379.493482 227.467735 
L 379.895282 227.363809 
L 380.297083 227.280669 
L 380.779243 227.176743 
L 381.140863 227.114387 
L 381.502483 227.031246 
L 381.703383 226.968891 
L 382.065004 226.864965 
L 382.506984 226.761039 
L 382.989144 226.657113 
L 383.310584 226.615543 
L 383.551665 226.532402 
L 383.832925 226.386906 
L 384.194545 226.324551 
L 384.435625 226.324551 
L 384.435625 226.324551 
" clip-path="url(#pf9c9594f18)" style="fill: none; stroke: #6495ed; stroke-width: 2; stroke-linecap: square"/>
   </g>
   <g id="line2d_37">
    <path d="M 63.035625 369.201818 
L 64.080306 368.786115 
L 64.200846 368.682189 
L 64.482106 368.536693 
L 65.084806 368.100204 
L 65.566966 367.746856 
L 65.767867 367.64293 
L 67.776868 366.541316 
L 67.977768 366.291894 
L 68.339388 365.980117 
L 68.701008 365.605984 
L 68.901908 365.522843 
L 69.142988 365.335776 
L 69.705509 364.920073 
L 70.026949 364.733006 
L 72.35739 363.402755 
L 72.75919 363.132548 
L 74.446751 362.13486 
L 74.728012 361.843868 
L 74.888732 361.760727 
L 75.210172 361.57366 
L 77.219173 360.430476 
L 77.460253 360.222624 
L 77.902233 359.869276 
L 78.424574 359.474358 
L 78.906734 359.349647 
L 79.147814 359.266506 
L 79.388894 359.07944 
L 79.871054 358.726092 
L 79.951414 358.684522 
L 80.112135 358.580596 
L 80.875555 358.060966 
L 81.397895 357.666048 
L 81.558615 357.582907 
L 82.322036 356.938567 
L 82.924736 356.502079 
L 83.085456 356.398153 
L 83.366716 356.294227 
L 83.567616 356.169516 
L 84.009597 355.857738 
L 84.170317 355.774598 
L 84.411397 355.587531 
L 84.813197 355.254968 
L 85.134637 354.90162 
L 85.255177 354.797694 
L 85.536438 354.652198 
L 85.697158 354.548272 
L 89.39372 352.552896 
L 89.59462 352.365829 
L 89.91606 352.157978 
L 90.0366 352.054052 
L 90.31786 351.908556 
L 90.51876 351.825415 
L 91.242001 351.222645 
L 93.050102 350.162601 
L 93.251002 350.017105 
L 93.652802 349.684542 
L 93.893882 349.497476 
L 94.255502 349.185698 
L 94.416223 349.019417 
L 94.737663 348.811565 
L 94.898383 348.707639 
L 95.219823 348.416647 
L 95.420723 348.250366 
L 96.786844 347.460529 
L 96.987744 347.252677 
L 97.309184 346.98247 
L 97.510084 346.836974 
L 97.670804 346.753833 
L 97.952065 346.504411 
L 98.434225 346.130278 
L 99.197645 345.485938 
L 99.438725 345.382012 
L 99.961066 344.987094 
L 100.362866 344.675316 
L 100.563766 344.52982 
L 100.804846 344.425894 
L 101.045926 344.301183 
L 101.206646 344.197257 
L 101.407546 344.072546 
L 101.608447 343.96862 
L 101.809347 343.760769 
L 102.010247 343.677628 
L 102.291507 343.428206 
L 102.854027 343.012502 
L 103.496908 342.492873 
L 104.581768 341.827748 
L 104.742488 341.703037 
L 105.063929 341.412044 
L 105.264829 341.287333 
L 105.425549 341.245763 
L 105.586269 341.058696 
L 106.028249 340.726133 
L 106.229149 340.539067 
L 106.389869 340.435141 
L 106.711309 340.164934 
L 106.95239 339.957082 
L 107.55509 339.520594 
L 107.83635 339.375097 
L 107.99707 339.271172 
L 108.23815 339.084105 
L 108.39887 338.980179 
L 108.720311 338.793113 
L 108.921211 338.689187 
L 109.162291 338.439765 
L 109.684631 338.024061 
L 109.805171 337.940921 
L 110.126611 337.753854 
L 111.532912 336.901662 
L 111.733812 336.756166 
L 111.934712 336.589884 
L 112.095432 336.465173 
L 112.336513 336.215751 
L 112.698133 335.800048 
L 112.858853 335.716907 
L 113.059753 335.509056 
L 113.421373 335.197278 
L 113.863353 334.864715 
L 113.983894 334.781575 
L 114.626774 334.24116 
L 114.787494 334.137234 
L 115.108934 333.804671 
L 115.550914 333.472109 
L 115.832175 333.222687 
L 116.716135 332.661487 
L 116.917035 332.412065 
L 119.046576 330.333548 
L 119.207296 330.250407 
L 120.412697 329.148793 
L 120.613597 329.065652 
L 121.176118 328.629164 
L 121.658278 328.255031 
L 122.662778 327.361268 
L 123.225299 326.96635 
L 123.506559 326.716928 
L 124.028899 326.342795 
L 124.511059 325.76081 
L 124.631599 325.698455 
L 125.07358 325.199611 
L 125.71646 324.659196 
L 125.87718 324.55527 
L 126.19862 324.222707 
L 126.35934 324.014856 
L 126.560241 323.9525 
L 126.720961 323.786219 
L 126.962041 323.536797 
L 127.203121 323.30816 
L 127.645101 322.809316 
L 127.805821 322.726175 
L 128.930862 321.707702 
L 129.332662 321.375139 
L 131.100583 319.69154 
L 131.301483 319.483688 
L 131.542563 319.296622 
L 131.864004 319.026415 
L 132.185444 318.714637 
L 134.596245 316.116491 
L 134.756965 315.929424 
L 134.917685 315.742358 
L 135.239125 315.43058 
L 136.524886 314.245825 
L 136.886506 313.934048 
L 137.167767 313.66384 
L 137.368667 313.455989 
L 137.690107 313.123426 
L 138.172267 312.770078 
L 138.373167 312.645367 
L 138.413347 312.645367 
L 138.614247 312.37516 
L 139.056228 311.855531 
L 139.136588 311.710034 
L 139.417848 311.460612 
L 139.538388 311.273546 
L 141.306309 309.31974 
L 141.587569 308.945607 
L 141.667929 308.924821 
L 141.909009 308.592259 
L 142.431349 308.19734 
L 142.75279 308.010274 
L 143.87783 307.303578 
L 144.07873 307.178867 
L 144.440351 306.95023 
L 144.761791 306.680023 
L 145.002871 306.430601 
L 145.485031 305.848616 
L 145.605571 305.74469 
L 145.886831 305.370557 
L 146.248452 305.079565 
L 146.449352 304.830143 
L 147.252952 304.144232 
L 147.373492 304.061091 
L 147.614572 303.811669 
L 147.815472 303.645388 
L 148.016373 303.375181 
L 148.136913 303.33361 
L 148.418173 302.980262 
L 148.538713 302.876337 
L 149.663754 301.857863 
L 149.904834 301.629226 
L 150.105734 301.504515 
L 151.471855 300.23662 
L 151.712935 299.987198 
L 154.123736 297.617688 
L 154.244276 297.555333 
L 154.445176 297.26434 
L 154.766616 296.973348 
L 154.967516 296.723926 
L 155.570217 295.97566 
L 157.297958 294.333631 
L 157.498858 294.104994 
L 159.869479 291.506848 
L 160.190919 291.19507 
L 161.71776 289.760893 
L 161.87848 289.553042 
L 163.445501 287.786302 
L 163.686581 287.432954 
L 164.088382 287.121177 
L 164.329462 286.93411 
L 165.293782 285.832496 
L 165.494682 285.541504 
L 165.936663 285.188156 
L 166.258103 284.876378 
L 166.418823 284.689312 
L 167.061703 283.83712 
L 167.142063 283.774764 
L 167.664404 283.130424 
L 167.945664 282.901787 
L 168.267104 282.486084 
L 168.869804 281.737817 
L 169.110884 281.529966 
L 169.271604 281.322114 
L 169.432325 281.238973 
L 170.075205 280.407566 
L 170.276105 280.2205 
L 170.557365 279.846367 
L 170.677905 279.763226 
L 170.878805 279.451449 
L 171.481506 278.682397 
L 171.722586 278.495331 
L 171.883306 278.329049 
L 172.887807 277.16508 
L 173.128887 276.811732 
L 173.410147 276.396028 
L 173.611047 276.208962 
L 174.173567 275.502266 
L 174.374467 275.294414 
L 174.495007 275.190488 
L 174.736088 274.878711 
L 174.896808 274.79557 
L 175.178068 274.296726 
L 175.298608 274.234371 
L 175.981668 273.340608 
L 176.222748 273.091186 
L 177.950489 271.158165 
L 178.191569 270.908743 
L 178.71391 270.243618 
L 178.95499 269.911055 
L 179.07553 269.786344 
L 179.27643 269.557707 
L 179.47733 269.37064 
L 179.67823 269.121218 
L 180.200571 268.456093 
L 180.522011 268.019604 
L 181.405971 266.959561 
L 181.727411 266.626998 
L 181.968492 266.439931 
L 182.129212 266.23208 
L 182.209572 266.128154 
L 182.531012 265.816376 
L 182.691732 265.650095 
L 183.173892 264.901829 
L 183.816773 264.091207 
L 183.977493 263.90414 
L 184.138213 263.696289 
L 184.339113 263.405296 
L 184.660553 263.072734 
L 184.781093 262.906452 
L 185.022173 262.573889 
L 185.544514 261.887979 
L 186.187394 261.056572 
L 186.348114 260.84872 
L 187.272255 259.767891 
L 187.432975 259.60161 
L 187.513335 259.518469 
L 188.558015 258.312929 
L 188.839275 257.980367 
L 188.999996 257.7933 
L 189.441976 257.086604 
L 189.683056 256.837182 
L 190.486656 255.881064 
L 190.727737 255.548502 
L 190.968817 255.319865 
L 191.250077 255.070443 
L 191.852777 254.301391 
L 192.455477 253.511555 
L 192.576018 253.428414 
L 192.776918 253.158207 
L 193.500158 252.264444 
L 193.741238 252.077378 
L 194.263578 251.412252 
L 194.544839 251.058905 
L 194.705559 250.851053 
L 194.986819 250.51849 
L 195.107359 250.331424 
L 195.388619 249.95729 
L 195.428799 249.95729 
L 195.710059 249.416876 
L 196.39312 248.585469 
L 196.67438 248.232121 
L 196.75474 248.190551 
L 196.95564 247.899558 
L 197.19672 247.670922 
L 197.55834 247.276003 
L 197.71906 247.088937 
L 198.120861 246.631663 
L 198.442301 246.340671 
L 199.406621 245.031205 
L 199.687882 244.781783 
L 200.129862 244.282939 
L 200.290582 244.075087 
L 200.571842 243.742524 
L 201.254902 242.848762 
L 201.375442 242.744836 
L 201.495983 242.64091 
L 201.696883 242.266777 
L 202.420123 241.331444 
L 203.987144 239.58549 
L 204.268404 239.211357 
L 204.549664 238.94115 
L 204.750564 238.608587 
L 204.951464 238.400735 
L 205.152365 238.172098 
L 205.393445 237.881106 
L 205.513985 237.714825 
L 205.755065 237.465402 
L 205.915785 237.257551 
L 206.156865 237.008129 
L 206.317585 236.904203 
L 208.085506 234.929612 
L 208.326586 234.597049 
L 209.732887 233.038161 
L 209.973967 232.705598 
L 210.335587 232.414606 
L 210.616848 232.040473 
L 210.857928 231.811836 
L 211.299908 231.292207 
L 211.581168 231.06357 
L 211.782068 230.834933 
L 211.942788 230.627081 
L 212.505309 229.94117 
L 212.746389 229.712534 
L 213.630349 228.506994 
L 213.831249 228.299142 
L 214.03215 228.028935 
L 214.19287 227.821083 
L 214.67503 227.218313 
L 214.91611 226.88575 
L 215.23755 226.553188 
L 215.35809 226.366121 
L 218.090332 223.393842 
L 218.411772 222.978138 
L 218.974292 222.562435 
L 219.818073 221.440035 
L 220.018973 221.211399 
L 220.661853 220.400777 
L 221.023473 219.901933 
L 221.626174 219.112096 
L 221.706534 219.028956 
L 222.309234 218.259904 
L 222.510134 218.031267 
L 222.952115 217.532423 
L 223.956615 216.368454 
L 224.237875 215.91118 
L 225.242376 214.767995 
L 225.443276 214.539359 
L 225.885256 213.998944 
L 226.126336 213.604026 
L 226.447777 213.333819 
L 226.970117 212.689478 
L 227.050477 212.585552 
L 227.653177 211.816501 
L 227.894257 211.567079 
L 228.336238 211.04745 
L 228.577318 210.798028 
L 229.019298 210.278398 
L 229.099658 210.174473 
L 229.340738 209.84191 
L 229.461278 209.737984 
L 229.742538 209.363851 
L 229.822898 209.301495 
L 230.385419 208.574014 
L 230.465779 208.490874 
L 231.389919 207.410045 
L 231.8319 206.682564 
L 231.91226 206.640993 
L 232.07298 206.453927 
L 232.95694 205.269172 
L 233.961441 204.084417 
L 234.845401 202.878877 
L 235.166841 202.60867 
L 235.488282 202.192967 
L 236.492782 201.049782 
L 236.693682 200.634079 
L 237.336563 199.844242 
L 237.577643 199.449324 
L 237.658003 199.386969 
L 237.939263 199.054406 
L 238.059803 198.99205 
L 238.341063 198.555562 
L 239.104484 197.516303 
L 239.184844 197.433163 
L 239.506284 196.996674 
L 239.667004 196.809607 
L 240.068804 196.373119 
L 241.595645 194.64795 
L 242.117985 193.982824 
L 242.318885 193.878898 
L 243.524286 192.195299 
L 243.564466 192.195299 
L 243.725186 191.945877 
L 243.966266 191.71724 
L 244.126986 191.467818 
L 244.247526 191.363893 
L 246.256528 188.433183 
L 247.140488 187.41471 
L 247.421748 186.978221 
L 248.948589 185.253052 
L 249.229849 184.899704 
L 249.390569 184.691853 
L 250.03345 183.881231 
L 250.15399 183.860446 
L 250.35489 183.527883 
L 250.75669 183.091394 
L 251.600471 182.072921 
L 253.006771 180.077545 
L 253.810372 179.100641 
L 254.413072 178.352375 
L 255.417573 177.167621 
L 255.578293 176.918198 
L 255.658653 176.876628 
L 255.980093 176.398569 
L 256.100633 176.294643 
L 256.542613 175.629518 
L 257.868554 173.758852 
L 258.672155 172.781949 
L 259.073955 172.199965 
L 259.716835 171.389343 
L 260.399896 170.578721 
L 260.640976 170.183803 
L 260.761516 170.079877 
L 260.962416 169.80967 
L 261.283856 169.269255 
L 262.047276 168.354708 
L 262.449077 167.731153 
L 262.730337 167.502516 
L 263.091957 167.003672 
L 263.172317 166.899746 
L 263.413397 166.484042 
L 264.216998 165.423999 
L 264.658978 164.821229 
L 264.859878 164.530236 
L 264.980418 164.38474 
L 265.261678 164.010607 
L 265.382218 163.823541 
L 265.703659 163.407837 
L 266.145639 162.825852 
L 266.426899 162.368579 
L 266.547439 162.306223 
L 266.868879 161.89052 
L 267.75284 160.830476 
L 268.27518 160.186136 
L 268.47608 159.978284 
L 268.99842 159.354729 
L 269.279681 159.105307 
L 269.882381 158.357041 
L 270.364541 157.7127 
L 271.610122 155.945961 
L 271.690482 155.842035 
L 271.891382 155.571828 
L 272.614622 154.69885 
L 272.815522 154.428643 
L 273.458403 153.638807 
L 273.699483 153.368599 
L 273.860203 153.181533 
L 274.061103 152.869755 
L 274.262003 152.703474 
L 274.462903 152.391696 
L 274.623623 152.28777 
L 275.507584 151.269297 
L 275.748664 150.895164 
L 275.869204 150.791238 
L 276.110284 150.35475 
L 276.632625 149.689624 
L 276.873705 149.273921 
L 277.034425 149.169995 
L 278.038925 147.798173 
L 278.561266 147.112263 
L 279.405046 145.969078 
L 279.485406 145.906723 
L 280.690807 144.202339 
L 280.851527 143.994487 
L 282.097108 142.56031 
L 282.940888 141.417126 
L 283.222148 141.167704 
L 283.985569 140.14923 
L 284.106109 140.003734 
L 284.307009 139.650386 
L 285.91421 137.883647 
L 286.15529 137.530299 
L 286.67763 136.885959 
L 286.99907 136.345544 
L 287.07943 136.283189 
L 287.360691 135.929841 
L 287.923211 135.24393 
L 288.204471 134.807441 
L 288.325011 134.620375 
L 289.008072 133.747398 
L 289.128612 133.664257 
L 289.329512 133.352479 
L 289.610772 132.87442 
L 290.133112 132.209295 
L 290.374192 131.918303 
L 290.534912 131.731236 
L 291.057253 130.899829 
L 291.258153 130.691978 
L 291.659953 130.234704 
L 291.780493 130.047637 
L 292.503734 129.17466 
L 292.744814 128.779742 
L 293.468054 127.885979 
L 297.325336 122.086917 
L 297.486056 121.920635 
L 297.887857 121.33865 
L 299.334337 119.239348 
L 299.454877 119.156207 
L 299.776318 118.698934 
L 300.137938 118.054593 
L 300.419198 117.618105 
L 300.620098 117.347898 
L 300.740638 117.243972 
L 301.102258 116.745128 
L 301.262978 116.537276 
L 301.624599 116.017647 
L 302.307659 115.123884 
L 302.388019 115.019958 
L 302.709459 114.437974 
L 302.829999 114.334048 
L 303.35234 113.668922 
L 303.6336 113.232434 
L 304.27648 112.421812 
L 306.245301 110.260154 
L 306.647101 109.657384 
L 306.888182 109.428747 
L 307.772142 108.243993 
L 308.053402 107.99457 
L 308.415022 107.495726 
L 310.624924 104.211669 
L 310.705284 104.107743 
L 310.946364 103.858321 
L 311.307984 103.359477 
L 311.348164 103.359477 
L 311.589244 102.902203 
L 312.151765 102.216293 
L 312.392845 101.800589 
L 312.915185 101.177034 
L 313.156265 100.927612 
L 313.437525 100.491124 
L 313.959866 99.846783 
L 314.200946 99.618146 
L 315.044726 98.474962 
L 315.245626 98.246325 
L 315.446526 97.976118 
L 315.647426 97.747481 
L 315.968867 97.331778 
L 316.129587 97.040785 
L 316.290307 96.832933 
L 316.491207 96.562726 
L 316.651927 96.271734 
L 316.772467 96.188593 
L 317.897508 94.588135 
L 318.058228 94.484209 
L 318.419848 93.96458 
L 318.580568 93.756728 
L 319.062728 92.987677 
L 319.263629 92.779825 
L 320.348489 91.283293 
L 320.469029 91.220937 
L 321.31281 90.077753 
L 321.43335 89.911471 
L 321.95569 89.267131 
L 322.19677 89.038494 
L 322.47803 88.560435 
L 322.75929 88.165517 
L 322.960191 87.916095 
L 324.045051 86.419563 
L 324.607571 85.692082 
L 325.451352 84.548897 
L 325.652252 84.32026 
L 325.893332 83.925342 
L 326.415673 83.301787 
L 326.576393 83.093935 
L 327.219273 82.262528 
L 327.339813 82.096247 
L 327.580893 81.763684 
L 328.063053 81.202485 
L 328.143413 81.119344 
L 328.344314 80.828352 
L 328.585394 80.57893 
L 329.107734 79.913804 
L 329.388994 79.560456 
L 329.589894 79.331819 
L 330.313135 78.438057 
L 330.554215 78.188635 
L 330.875655 77.856072 
L 331.036375 77.689791 
L 331.317635 77.357228 
L 332.000696 76.463466 
L 332.121236 76.35954 
L 332.281956 76.172473 
L 332.482856 75.964621 
L 332.683756 75.777555 
L 332.924836 75.444992 
L 333.487356 74.717511 
L 333.688257 74.447304 
L 333.889157 74.135526 
L 334.049877 73.90689 
L 334.893657 72.78449 
L 335.094557 72.555853 
L 335.295457 72.285646 
L 335.375818 72.223291 
L 336.058878 71.350313 
L 336.139238 71.350313 
L 336.340138 71.080106 
L 336.541038 70.89304 
L 336.782118 70.643618 
L 336.942838 70.414981 
L 337.023198 70.37341 
L 337.304459 70.040848 
L 337.746439 69.521218 
L 337.826799 69.458863 
L 338.108059 69.022374 
L 338.389319 68.793737 
L 338.550039 68.544315 
L 339.39382 67.525842 
L 339.8358 67.006213 
L 340.07688 66.756791 
L 341.362641 65.343399 
L 341.523361 65.177118 
L 345.059203 61.435787 
L 345.260103 61.16558 
L 345.702083 60.64595 
L 345.862803 60.458884 
L 346.023523 60.271817 
L 346.184244 60.188676 
L 348.876305 57.54896 
L 348.996845 57.465819 
L 349.197745 57.237182 
L 349.318285 57.154041 
L 349.599545 56.800694 
L 353.697908 52.456593 
L 353.858628 52.331882 
L 354.099708 52.103245 
L 354.260428 51.999319 
L 354.340788 51.895393 
L 354.983669 51.354979 
L 355.144389 51.292623 
L 355.506009 50.87692 
L 355.626549 50.772994 
L 355.827449 50.544357 
L 356.148889 50.232579 
L 358.760591 47.676003 
L 359.082031 47.405796 
L 359.483831 46.948522 
L 359.604371 46.844596 
L 360.930312 45.597486 
L 361.050852 45.49356 
L 361.291932 45.223353 
L 361.573192 44.953146 
L 362.015172 44.454302 
L 362.336613 44.163309 
L 362.899133 43.726821 
L 363.140213 43.477399 
L 363.421473 43.103266 
L 363.783093 42.791488 
L 363.983994 42.521281 
L 364.345614 42.230288 
L 364.546514 42.064007 
L 364.827774 41.7938 
L 365.149214 41.502807 
L 365.269754 41.398882 
L 365.390294 41.336526 
L 365.591194 41.045534 
L 365.792095 40.941608 
L 365.992995 40.692186 
L 366.997495 39.798423 
L 367.198395 39.590572 
L 367.399295 39.445075 
L 367.479656 39.34115 
L 368.484156 38.426602 
L 368.644876 38.322676 
L 368.885956 38.073254 
L 370.252077 36.805359 
L 370.533337 36.555937 
L 370.854777 36.223374 
L 371.176218 36.015522 
L 371.377118 35.72453 
L 373.064679 34.124072 
L 373.345939 33.87465 
L 373.546839 33.729153 
L 373.707559 33.625228 
L 373.988819 33.396591 
L 374.189719 33.147169 
L 375.71656 31.692207 
L 375.79692 31.609066 
L 377.002321 30.486667 
L 377.203221 30.403526 
L 377.404121 30.216459 
L 377.805921 29.883897 
L 378.047001 29.676045 
L 378.408622 29.364267 
L 378.649702 29.135631 
L 378.770242 29.031705 
L 378.971142 28.803068 
L 379.252402 28.553646 
L 379.332762 28.512075 
L 379.573842 28.241868 
L 379.935462 27.950876 
L 380.337263 27.514387 
L 381.261403 26.703765 
L 381.502483 26.454343 
L 382.105184 25.955499 
L 382.225724 25.893144 
L 382.466804 25.622937 
L 383.350764 24.853885 
L 384.395445 24.438182 
L 384.435625 24.438182 
L 384.435625 24.438182 
" clip-path="url(#pf9c9594f18)" style="fill: none; stroke: #00008b; stroke-width: 2; stroke-linecap: square"/>
   </g>
   <g id="patch_3">
    <path d="M 46.965625 386.44 
L 46.965625 7.2 
" style="fill: none; stroke: #000000; stroke-width: 0.8; stroke-linejoin: miter; stroke-linecap: square"/>
   </g>
   <g id="patch_4">
    <path d="M 400.505625 386.44 
L 400.505625 7.2 
" style="fill: none; stroke: #000000; stroke-width: 0.8; stroke-linejoin: miter; stroke-linecap: square"/>
   </g>
   <g id="patch_5">
    <path d="M 46.965625 386.44 
L 400.505625 386.44 
" style="fill: none; stroke: #000000; stroke-width: 0.8; stroke-linejoin: miter; stroke-linecap: square"/>
   </g>
   <g id="patch_6">
    <path d="M 46.965625 7.2 
L 400.505625 7.2 
" style="fill: none; stroke: #000000; stroke-width: 0.8; stroke-linejoin: miter; stroke-linecap: square"/>
   </g>
   <g id="legend_1">
    <g id="patch_7">
     <path d="M 407.505625 73.9125 
L 559.079062 73.9125 
Q 561.079062 73.9125 561.079062 71.9125 
L 561.079062 14.2 
Q 561.079062 12.2 559.079062 12.2 
L 407.505625 12.2 
Q 405.505625 12.2 405.505625 14.2 
L 405.505625 71.9125 
Q 405.505625 73.9125 407.505625 73.9125 
z
" style="fill: #ffffff; opacity: 0.8; stroke: #cccccc; stroke-linejoin: miter"/>
    </g>
    <g id="text_20">
     <!-- Motifs &amp; orientation -->
     <g transform="translate(433.776719 23.798437) scale(0.1 -0.1)">
      <defs>
       <path id="DejaVuSans-4d" d="M 628 4666 
L 1569 4666 
L 2759 1491 
L 3956 4666 
L 4897 4666 
L 4897 0 
L 4281 0 
L 4281 4097 
L 3078 897 
L 2444 897 
L 1241 4097 
L 1241 0 
L 628 0 
L 628 4666 
z
" transform="scale(0.015625)"/>
       <path id="DejaVuSans-26" d="M 1556 2509 
Q 1272 2256 1139 2004 
Q 1006 1753 1006 1478 
Q 1006 1022 1337 719 
Q 1669 416 2169 416 
Q 2466 416 2725 514 
Q 2984 613 3213 813 
L 1556 2509 
z
M 1997 2859 
L 3584 1234 
Q 3769 1513 3872 1830 
Q 3975 2147 3994 2503 
L 4575 2503 
Q 4538 2091 4375 1687 
Q 4213 1284 3922 891 
L 4794 0 
L 4006 0 
L 3559 459 
Q 3234 181 2878 45 
Q 2522 -91 2113 -91 
Q 1359 -91 881 339 
Q 403 769 403 1441 
Q 403 1841 612 2192 
Q 822 2544 1241 2853 
Q 1091 3050 1012 3245 
Q 934 3441 934 3628 
Q 934 4134 1281 4442 
Q 1628 4750 2203 4750 
Q 2463 4750 2720 4694 
Q 2978 4638 3244 4525 
L 3244 3956 
Q 2972 4103 2725 4179 
Q 2478 4256 2266 4256 
Q 1938 4256 1733 4082 
Q 1528 3909 1528 3634 
Q 1528 3475 1620 3314 
Q 1713 3153 1997 2859 
z
" transform="scale(0.015625)"/>
      </defs>
      <use xlink:href="#DejaVuSans-4d"/>
      <use xlink:href="#DejaVuSans-6f" transform="translate(86.279297 0)"/>
      <use xlink:href="#DejaVuSans-74" transform="translate(147.460938 0)"/>
      <use xlink:href="#DejaVuSans-69" transform="translate(186.669922 0)"/>
      <use xlink:href="#DejaVuSans-66" transform="translate(214.453125 0)"/>
      <use xlink:href="#DejaVuSans-73" transform="translate(249.658203 0)"/>
      <use xlink:href="#DejaVuSans-20" transform="translate(301.757812 0)"/>
      <use xlink:href="#DejaVuSans-26" transform="translate(333.544922 0)"/>
      <use xlink:href="#DejaVuSans-20" transform="translate(411.523438 0)"/>
      <use xlink:href="#DejaVuSans-6f" transform="translate(443.310547 0)"/>
      <use xlink:href="#DejaVuSans-72" transform="translate(504.492188 0)"/>
      <use xlink:href="#DejaVuSans-69" transform="translate(545.605469 0)"/>
      <use xlink:href="#DejaVuSans-65" transform="translate(573.388672 0)"/>
      <use xlink:href="#DejaVuSans-6e" transform="translate(634.912109 0)"/>
      <use xlink:href="#DejaVuSans-74" transform="translate(698.291016 0)"/>
      <use xlink:href="#DejaVuSans-61" transform="translate(737.5 0)"/>
      <use xlink:href="#DejaVuSans-74" transform="translate(798.779297 0)"/>
      <use xlink:href="#DejaVuSans-69" transform="translate(837.988281 0)"/>
      <use xlink:href="#DejaVuSans-6f" transform="translate(865.771484 0)"/>
      <use xlink:href="#DejaVuSans-6e" transform="translate(926.953125 0)"/>
     </g>
    </g>
    <g id="line2d_38">
     <path d="M 409.505625 34.976562 
L 419.505625 34.976562 
L 429.505625 34.976562 
" style="fill: none; stroke: #add8e6; stroke-width: 2; stroke-linecap: square"/>
    </g>
    <g id="text_21">
     <!-- AAACCCAGAAA (5' end) -->
     <g transform="translate(437.505625 38.476562) scale(0.1 -0.1)">
      <defs>
       <path id="DejaVuSans-43" d="M 4122 4306 
L 4122 3641 
Q 3803 3938 3442 4084 
Q 3081 4231 2675 4231 
Q 1875 4231 1450 3742 
Q 1025 3253 1025 2328 
Q 1025 1406 1450 917 
Q 1875 428 2675 428 
Q 3081 428 3442 575 
Q 3803 722 4122 1019 
L 4122 359 
Q 3791 134 3420 21 
Q 3050 -91 2638 -91 
Q 1578 -91 968 557 
Q 359 1206 359 2328 
Q 359 3453 968 4101 
Q 1578 4750 2638 4750 
Q 3056 4750 3426 4639 
Q 3797 4528 4122 4306 
z
" transform="scale(0.015625)"/>
       <path id="DejaVuSans-47" d="M 3809 666 
L 3809 1919 
L 2778 1919 
L 2778 2438 
L 4434 2438 
L 4434 434 
Q 4069 175 3628 42 
Q 3188 -91 2688 -91 
Q 1594 -91 976 548 
Q 359 1188 359 2328 
Q 359 3472 976 4111 
Q 1594 4750 2688 4750 
Q 3144 4750 3555 4637 
Q 3966 4525 4313 4306 
L 4313 3634 
Q 3963 3931 3569 4081 
Q 3175 4231 2741 4231 
Q 1884 4231 1454 3753 
Q 1025 3275 1025 2328 
Q 1025 1384 1454 906 
Q 1884 428 2741 428 
Q 3075 428 3337 486 
Q 3600 544 3809 666 
z
" transform="scale(0.015625)"/>
       <path id="DejaVuSans-28" d="M 1984 4856 
Q 1566 4138 1362 3434 
Q 1159 2731 1159 2009 
Q 1159 1288 1364 580 
Q 1569 -128 1984 -844 
L 1484 -844 
Q 1016 -109 783 600 
Q 550 1309 550 2009 
Q 550 2706 781 3412 
Q 1013 4119 1484 4856 
L 1984 4856 
z
" transform="scale(0.015625)"/>
       <path id="DejaVuSans-27" d="M 1147 4666 
L 1147 2931 
L 616 2931 
L 616 4666 
L 1147 4666 
z
" transform="scale(0.015625)"/>
       <path id="DejaVuSans-64" d="M 2906 2969 
L 2906 4863 
L 3481 4863 
L 3481 0 
L 2906 0 
L 2906 525 
Q 2725 213 2448 61 
Q 2172 -91 1784 -91 
Q 1150 -91 751 415 
Q 353 922 353 1747 
Q 353 2572 751 3078 
Q 1150 3584 1784 3584 
Q 2172 3584 2448 3432 
Q 2725 3281 2906 2969 
z
M 947 1747 
Q 947 1113 1208 752 
Q 1469 391 1925 391 
Q 2381 391 2643 752 
Q 2906 1113 2906 1747 
Q 2906 2381 2643 2742 
Q 2381 3103 1925 3103 
Q 1469 3103 1208 2742 
Q 947 2381 947 1747 
z
" transform="scale(0.015625)"/>
       <path id="DejaVuSans-29" d="M 513 4856 
L 1013 4856 
Q 1481 4119 1714 3412 
Q 1947 2706 1947 2009 
Q 1947 1309 1714 600 
Q 1481 -109 1013 -844 
L 513 -844 
Q 928 -128 1133 580 
Q 1338 1288 1338 2009 
Q 1338 2731 1133 3434 
Q 928 4138 513 4856 
z
" transform="scale(0.015625)"/>
      </defs>
      <use xlink:href="#DejaVuSans-41"/>
      <use xlink:href="#DejaVuSans-41" transform="translate(71.158203 0)"/>
      <use xlink:href="#DejaVuSans-41" transform="translate(142.316406 0)"/>
      <use xlink:href="#DejaVuSans-43" transform="translate(208.974609 0)"/>
      <use xlink:href="#DejaVuSans-43" transform="translate(278.798828 0)"/>
      <use xlink:href="#DejaVuSans-43" transform="translate(348.623047 0)"/>
      <use xlink:href="#DejaVuSans-41" transform="translate(418.447266 0)"/>
      <use xlink:href="#DejaVuSans-47" transform="translate(485.105469 0)"/>
      <use xlink:href="#DejaVuSans-41" transform="translate(562.595703 0)"/>
      <use xlink:href="#DejaVuSans-41" transform="translate(633.753906 0)"/>
      <use xlink:href="#DejaVuSans-41" transform="translate(704.912109 0)"/>
      <use xlink:href="#DejaVuSans-20" transform="translate(773.320312 0)"/>
      <use xlink:href="#DejaVuSans-28" transform="translate(805.107422 0)"/>
      <use xlink:href="#DejaVuSans-35" transform="translate(844.121094 0)"/>
      <use xlink:href="#DejaVuSans-27" transform="translate(907.744141 0)"/>
      <use xlink:href="#DejaVuSans-20" transform="translate(935.234375 0)"/>
      <use xlink:href="#DejaVuSans-65" transform="translate(967.021484 0)"/>
      <use xlink:href="#DejaVuSans-6e" transform="translate(1028.544922 0)"/>
      <use xlink:href="#DejaVuSans-64" transform="translate(1091.923828 0)"/>
      <use xlink:href="#DejaVuSans-29" transform="translate(1155.400391 0)"/>
     </g>
    </g>
    <g id="line2d_39">
     <path d="M 409.505625 49.654687 
L 419.505625 49.654687 
L 429.505625 49.654687 
" style="fill: none; stroke: #6495ed; stroke-width: 2; stroke-linecap: square"/>
    </g>
    <g id="text_22">
     <!-- AATCAGAAA (5' end) -->
     <g transform="translate(437.505625 53.154687) scale(0.1 -0.1)">
      <defs>
       <path id="DejaVuSans-54" d="M -19 4666 
L 3928 4666 
L 3928 4134 
L 2272 4134 
L 2272 0 
L 1638 0 
L 1638 4134 
L -19 4134 
L -19 4666 
z
" transform="scale(0.015625)"/>
      </defs>
      <use xlink:href="#DejaVuSans-41"/>
      <use xlink:href="#DejaVuSans-41" transform="translate(71.158203 0)"/>
      <use xlink:href="#DejaVuSans-54" transform="translate(131.816406 0)"/>
      <use xlink:href="#DejaVuSans-43" transform="translate(187.025391 0)"/>
      <use xlink:href="#DejaVuSans-41" transform="translate(256.849609 0)"/>
      <use xlink:href="#DejaVuSans-47" transform="translate(323.507812 0)"/>
      <use xlink:href="#DejaVuSans-41" transform="translate(400.998047 0)"/>
      <use xlink:href="#DejaVuSans-41" transform="translate(472.15625 0)"/>
      <use xlink:href="#DejaVuSans-41" transform="translate(543.314453 0)"/>
      <use xlink:href="#DejaVuSans-20" transform="translate(611.722656 0)"/>
      <use xlink:href="#DejaVuSans-28" transform="translate(643.509766 0)"/>
      <use xlink:href="#DejaVuSans-35" transform="translate(682.523438 0)"/>
      <use xlink:href="#DejaVuSans-27" transform="translate(746.146484 0)"/>
      <use xlink:href="#DejaVuSans-20" transform="translate(773.636719 0)"/>
      <use xlink:href="#DejaVuSans-65" transform="translate(805.423828 0)"/>
      <use xlink:href="#DejaVuSans-6e" transform="translate(866.947266 0)"/>
      <use xlink:href="#DejaVuSans-64" transform="translate(930.326172 0)"/>
      <use xlink:href="#DejaVuSans-29" transform="translate(993.802734 0)"/>
     </g>
    </g>
    <g id="line2d_40">
     <path d="M 409.505625 64.332812 
L 419.505625 64.332812 
L 429.505625 64.332812 
" style="fill: none; stroke: #00008b; stroke-width: 2; stroke-linecap: square"/>
    </g>
    <g id="text_23">
     <!-- AAAACCAGAAA (5' end) -->
     <g transform="translate(437.505625 67.832812) scale(0.1 -0.1)">
      <use xlink:href="#DejaVuSans-41"/>
      <use xlink:href="#DejaVuSans-41" transform="translate(71.158203 0)"/>
      <use xlink:href="#DejaVuSans-41" transform="translate(142.316406 0)"/>
      <use xlink:href="#DejaVuSans-41" transform="translate(213.474609 0)"/>
      <use xlink:href="#DejaVuSans-43" transform="translate(280.132812 0)"/>
      <use xlink:href="#DejaVuSans-43" transform="translate(349.957031 0)"/>
      <use xlink:href="#DejaVuSans-41" transform="translate(419.78125 0)"/>
      <use xlink:href="#DejaVuSans-47" transform="translate(486.439453 0)"/>
      <use xlink:href="#DejaVuSans-41" transform="translate(563.929688 0)"/>
      <use xlink:href="#DejaVuSans-41" transform="translate(635.087891 0)"/>
      <use xlink:href="#DejaVuSans-41" transform="translate(706.246094 0)"/>
      <use xlink:href="#DejaVuSans-20" transform="translate(774.654297 0)"/>
      <use xlink:href="#DejaVuSans-28" transform="translate(806.441406 0)"/>
      <use xlink:href="#DejaVuSans-35" transform="translate(845.455078 0)"/>
      <use xlink:href="#DejaVuSans-27" transform="translate(909.078125 0)"/>
      <use xlink:href="#DejaVuSans-20" transform="translate(936.568359 0)"/>
      <use xlink:href="#DejaVuSans-65" transform="translate(968.355469 0)"/>
      <use xlink:href="#DejaVuSans-6e" transform="translate(1029.878906 0)"/>
      <use xlink:href="#DejaVuSans-64" transform="translate(1093.257812 0)"/>
      <use xlink:href="#DejaVuSans-29" transform="translate(1156.734375 0)"/>
     </g>
    </g>
   </g>
  </g>
 </g>
 <defs>
  <clipPath id="pf9c9594f18">
   <rect x="46.965625" y="7.2" width="353.54" height="379.24"/>
  </clipPath>
 </defs>
</svg>
