<?xml version="1.0" encoding="utf-8" standalone="no"?>
<!DOCTYPE svg PUBLIC "-//W3C//DTD SVG 1.1//EN"
  "http://www.w3.org/Graphics/SVG/1.1/DTD/svg11.dtd">
<svg xmlns:xlink="http://www.w3.org/1999/xlink" width="568.077813pt" height="423.99625pt" viewBox="0 0 568.077813 423.99625" xmlns="http://www.w3.org/2000/svg" version="1.1">
 <metadata>
  <rdf:RDF xmlns:dc="http://purl.org/dc/elements/1.1/" xmlns:cc="http://creativecommons.org/ns#" xmlns:rdf="http://www.w3.org/1999/02/22-rdf-syntax-ns#">
   <cc:Work>
    <dc:type rdf:resource="http://purl.org/dc/dcmitype/StillImage"/>
    <dc:date>2026-04-30T15:25:31.391054</dc:date>
    <dc:format>image/svg+xml</dc:format>
    <dc:creator>
     <cc:Agent>
      <dc:title>Matplotlib v3.10.6, https://matplotlib.org/</dc:title>
     </cc:Agent>
    </dc:creator>
   </cc:Work>
  </rdf:RDF>
 </metadata>
 <defs>
  <style type="text/css">*{stroke-linejoin: round; stroke-linecap: butt}</style>
 </defs>
 <g id="figure_1">
  <g id="patch_1">
   <path d="M 0 423.99625 
L 568.077813 423.99625 
L 568.077813 0 
L 0 0 
z
" style="fill: #ffffff"/>
  </g>
  <g id="axes_1">
   <g id="patch_2">
    <path d="M 46.965625 386.44 
L 402.485625 386.44 
L 402.485625 7.2 
L 46.965625 7.2 
z
" style="fill: #ffffff"/>
   </g>
   <g id="matplotlib.axis_1">
    <g id="xtick_1">
     <g id="line2d_1">
      <path d="M 63.125625 386.44 
L 63.125625 7.2 
" clip-path="url(#p30c2f10064)" style="fill: none; stroke-dasharray: 2.96,1.28; stroke-dashoffset: 0; stroke: #b0b0b0; stroke-opacity: 0.6; stroke-width: 0.8"/>
     </g>
     <g id="line2d_2">
      <defs>
       <path id="m063cd24c97" d="M 0 0 
L 0 3.5 
" style="stroke: #000000; stroke-width: 0.8"/>
      </defs>
      <g>
       <use xlink:href="#m063cd24c97" x="63.125625" y="386.44" style="stroke: #000000; stroke-width: 0.8"/>
      </g>
     </g>
     <g id="text_1">
      <!-- 0 -->
      <g transform="translate(59.944375 401.038437) scale(0.1 -0.1)">
       <defs>
        <path id="DejaVuSans-30" d="M 2034 4250 
Q 1547 4250 1301 3770 
Q 1056 3291 1056 2328 
Q 1056 1369 1301 889 
Q 1547 409 2034 409 
Q 2525 409 2770 889 
Q 3016 1369 3016 2328 
Q 3016 3291 2770 3770 
Q 2525 4250 2034 4250 
z
M 2034 4750 
Q 2819 4750 3233 4129 
Q 3647 3509 3647 2328 
Q 3647 1150 3233 529 
Q 2819 -91 2034 -91 
Q 1250 -91 836 529 
Q 422 1150 422 2328 
Q 422 3509 836 4129 
Q 1250 4750 2034 4750 
z
" transform="scale(0.015625)"/>
       </defs>
       <use xlink:href="#DejaVuSans-30"/>
      </g>
     </g>
    </g>
    <g id="xtick_2">
     <g id="line2d_3">
      <path d="M 103.525625 386.44 
L 103.525625 7.2 
" clip-path="url(#p30c2f10064)" style="fill: none; stroke-dasharray: 2.96,1.28; stroke-dashoffset: 0; stroke: #b0b0b0; stroke-opacity: 0.6; stroke-width: 0.8"/>
     </g>
     <g id="line2d_4">
      <g>
       <use xlink:href="#m063cd24c97" x="103.525625" y="386.44" style="stroke: #000000; stroke-width: 0.8"/>
      </g>
     </g>
     <g id="text_2">
      <!-- 1000 -->
      <g transform="translate(90.800625 401.038437) scale(0.1 -0.1)">
       <defs>
        <path id="DejaVuSans-31" d="M 794 531 
L 1825 531 
L 1825 4091 
L 703 3866 
L 703 4441 
L 1819 4666 
L 2450 4666 
L 2450 531 
L 3481 531 
L 3481 0 
L 794 0 
L 794 531 
z
" transform="scale(0.015625)"/>
       </defs>
       <use xlink:href="#DejaVuSans-31"/>
       <use xlink:href="#DejaVuSans-30" transform="translate(63.623047 0)"/>
       <use xlink:href="#DejaVuSans-30" transform="translate(127.246094 0)"/>
       <use xlink:href="#DejaVuSans-30" transform="translate(190.869141 0)"/>
      </g>
     </g>
    </g>
    <g id="xtick_3">
     <g id="line2d_5">
      <path d="M 143.925625 386.44 
L 143.925625 7.2 
" clip-path="url(#p30c2f10064)" style="fill: none; stroke-dasharray: 2.96,1.28; stroke-dashoffset: 0; stroke: #b0b0b0; stroke-opacity: 0.6; stroke-width: 0.8"/>
     </g>
     <g id="line2d_6">
      <g>
       <use xlink:href="#m063cd24c97" x="143.925625" y="386.44" style="stroke: #000000; stroke-width: 0.8"/>
      </g>
     </g>
     <g id="text_3">
      <!-- 2000 -->
      <g transform="translate(131.200625 401.038437) scale(0.1 -0.1)">
       <defs>
        <path id="DejaVuSans-32" d="M 1228 531 
L 3431 531 
L 3431 0 
L 469 0 
L 469 531 
Q 828 903 1448 1529 
Q 2069 2156 2228 2338 
Q 2531 2678 2651 2914 
Q 2772 3150 2772 3378 
Q 2772 3750 2511 3984 
Q 2250 4219 1831 4219 
Q 1534 4219 1204 4116 
Q 875 4013 500 3803 
L 500 4441 
Q 881 4594 1212 4672 
Q 1544 4750 1819 4750 
Q 2544 4750 2975 4387 
Q 3406 4025 3406 3419 
Q 3406 3131 3298 2873 
Q 3191 2616 2906 2266 
Q 2828 2175 2409 1742 
Q 1991 1309 1228 531 
z
" transform="scale(0.015625)"/>
       </defs>
       <use xlink:href="#DejaVuSans-32"/>
       <use xlink:href="#DejaVuSans-30" transform="translate(63.623047 0)"/>
       <use xlink:href="#DejaVuSans-30" transform="translate(127.246094 0)"/>
       <use xlink:href="#DejaVuSans-30" transform="translate(190.869141 0)"/>
      </g>
     </g>
    </g>
    <g id="xtick_4">
     <g id="line2d_7">
      <path d="M 184.325625 386.44 
L 184.325625 7.2 
" clip-path="url(#p30c2f10064)" style="fill: none; stroke-dasharray: 2.96,1.28; stroke-dashoffset: 0; stroke: #b0b0b0; stroke-opacity: 0.6; stroke-width: 0.8"/>
     </g>
     <g id="line2d_8">
      <g>
       <use xlink:href="#m063cd24c97" x="184.325625" y="386.44" style="stroke: #000000; stroke-width: 0.8"/>
      </g>
     </g>
     <g id="text_4">
      <!-- 3000 -->
      <g transform="translate(171.600625 401.038437) scale(0.1 -0.1)">
       <defs>
        <path id="DejaVuSans-33" d="M 2597 2516 
Q 3050 2419 3304 2112 
Q 3559 1806 3559 1356 
Q 3559 666 3084 287 
Q 2609 -91 1734 -91 
Q 1441 -91 1130 -33 
Q 819 25 488 141 
L 488 750 
Q 750 597 1062 519 
Q 1375 441 1716 441 
Q 2309 441 2620 675 
Q 2931 909 2931 1356 
Q 2931 1769 2642 2001 
Q 2353 2234 1838 2234 
L 1294 2234 
L 1294 2753 
L 1863 2753 
Q 2328 2753 2575 2939 
Q 2822 3125 2822 3475 
Q 2822 3834 2567 4026 
Q 2313 4219 1838 4219 
Q 1578 4219 1281 4162 
Q 984 4106 628 3988 
L 628 4550 
Q 988 4650 1302 4700 
Q 1616 4750 1894 4750 
Q 2613 4750 3031 4423 
Q 3450 4097 3450 3541 
Q 3450 3153 3228 2886 
Q 3006 2619 2597 2516 
z
" transform="scale(0.015625)"/>
       </defs>
       <use xlink:href="#DejaVuSans-33"/>
       <use xlink:href="#DejaVuSans-30" transform="translate(63.623047 0)"/>
       <use xlink:href="#DejaVuSans-30" transform="translate(127.246094 0)"/>
       <use xlink:href="#DejaVuSans-30" transform="translate(190.869141 0)"/>
      </g>
     </g>
    </g>
    <g id="xtick_5">
     <g id="line2d_9">
      <path d="M 224.725625 386.44 
L 224.725625 7.2 
" clip-path="url(#p30c2f10064)" style="fill: none; stroke-dasharray: 2.96,1.28; stroke-dashoffset: 0; stroke: #b0b0b0; stroke-opacity: 0.6; stroke-width: 0.8"/>
     </g>
     <g id="line2d_10">
      <g>
       <use xlink:href="#m063cd24c97" x="224.725625" y="386.44" style="stroke: #000000; stroke-width: 0.8"/>
      </g>
     </g>
     <g id="text_5">
      <!-- 4000 -->
      <g transform="translate(212.000625 401.038437) scale(0.1 -0.1)">
       <defs>
        <path id="DejaVuSans-34" d="M 2419 4116 
L 825 1625 
L 2419 1625 
L 2419 4116 
z
M 2253 4666 
L 3047 4666 
L 3047 1625 
L 3713 1625 
L 3713 1100 
L 3047 1100 
L 3047 0 
L 2419 0 
L 2419 1100 
L 313 1100 
L 313 1709 
L 2253 4666 
z
" transform="scale(0.015625)"/>
       </defs>
       <use xlink:href="#DejaVuSans-34"/>
       <use xlink:href="#DejaVuSans-30" transform="translate(63.623047 0)"/>
       <use xlink:href="#DejaVuSans-30" transform="translate(127.246094 0)"/>
       <use xlink:href="#DejaVuSans-30" transform="translate(190.869141 0)"/>
      </g>
     </g>
    </g>
    <g id="xtick_6">
     <g id="line2d_11">
      <path d="M 265.125625 386.44 
L 265.125625 7.2 
" clip-path="url(#p30c2f10064)" style="fill: none; stroke-dasharray: 2.96,1.28; stroke-dashoffset: 0; stroke: #b0b0b0; stroke-opacity: 0.6; stroke-width: 0.8"/>
     </g>
     <g id="line2d_12">
      <g>
       <use xlink:href="#m063cd24c97" x="265.125625" y="386.44" style="stroke: #000000; stroke-width: 0.8"/>
      </g>
     </g>
     <g id="text_6">
      <!-- 5000 -->
      <g transform="translate(252.400625 401.038437) scale(0.1 -0.1)">
       <defs>
        <path id="DejaVuSans-35" d="M 691 4666 
L 3169 4666 
L 3169 4134 
L 1269 4134 
L 1269 2991 
Q 1406 3038 1543 3061 
Q 1681 3084 1819 3084 
Q 2600 3084 3056 2656 
Q 3513 2228 3513 1497 
Q 3513 744 3044 326 
Q 2575 -91 1722 -91 
Q 1428 -91 1123 -41 
Q 819 9 494 109 
L 494 744 
Q 775 591 1075 516 
Q 1375 441 1709 441 
Q 2250 441 2565 725 
Q 2881 1009 2881 1497 
Q 2881 1984 2565 2268 
Q 2250 2553 1709 2553 
Q 1456 2553 1204 2497 
Q 953 2441 691 2322 
L 691 4666 
z
" transform="scale(0.015625)"/>
       </defs>
       <use xlink:href="#DejaVuSans-35"/>
       <use xlink:href="#DejaVuSans-30" transform="translate(63.623047 0)"/>
       <use xlink:href="#DejaVuSans-30" transform="translate(127.246094 0)"/>
       <use xlink:href="#DejaVuSans-30" transform="translate(190.869141 0)"/>
      </g>
     </g>
    </g>
    <g id="xtick_7">
     <g id="line2d_13">
      <path d="M 305.525625 386.44 
L 305.525625 7.2 
" clip-path="url(#p30c2f10064)" style="fill: none; stroke-dasharray: 2.96,1.28; stroke-dashoffset: 0; stroke: #b0b0b0; stroke-opacity: 0.6; stroke-width: 0.8"/>
     </g>
     <g id="line2d_14">
      <g>
       <use xlink:href="#m063cd24c97" x="305.525625" y="386.44" style="stroke: #000000; stroke-width: 0.8"/>
      </g>
     </g>
     <g id="text_7">
      <!-- 6000 -->
      <g transform="translate(292.800625 401.038437) scale(0.1 -0.1)">
       <defs>
        <path id="DejaVuSans-36" d="M 2113 2584 
Q 1688 2584 1439 2293 
Q 1191 2003 1191 1497 
Q 1191 994 1439 701 
Q 1688 409 2113 409 
Q 2538 409 2786 701 
Q 3034 994 3034 1497 
Q 3034 2003 2786 2293 
Q 2538 2584 2113 2584 
z
M 3366 4563 
L 3366 3988 
Q 3128 4100 2886 4159 
Q 2644 4219 2406 4219 
Q 1781 4219 1451 3797 
Q 1122 3375 1075 2522 
Q 1259 2794 1537 2939 
Q 1816 3084 2150 3084 
Q 2853 3084 3261 2657 
Q 3669 2231 3669 1497 
Q 3669 778 3244 343 
Q 2819 -91 2113 -91 
Q 1303 -91 875 529 
Q 447 1150 447 2328 
Q 447 3434 972 4092 
Q 1497 4750 2381 4750 
Q 2619 4750 2861 4703 
Q 3103 4656 3366 4563 
z
" transform="scale(0.015625)"/>
       </defs>
       <use xlink:href="#DejaVuSans-36"/>
       <use xlink:href="#DejaVuSans-30" transform="translate(63.623047 0)"/>
       <use xlink:href="#DejaVuSans-30" transform="translate(127.246094 0)"/>
       <use xlink:href="#DejaVuSans-30" transform="translate(190.869141 0)"/>
      </g>
     </g>
    </g>
    <g id="xtick_8">
     <g id="line2d_15">
      <path d="M 345.925625 386.44 
L 345.925625 7.2 
" clip-path="url(#p30c2f10064)" style="fill: none; stroke-dasharray: 2.96,1.28; stroke-dashoffset: 0; stroke: #b0b0b0; stroke-opacity: 0.6; stroke-width: 0.8"/>
     </g>
     <g id="line2d_16">
      <g>
       <use xlink:href="#m063cd24c97" x="345.925625" y="386.44" style="stroke: #000000; stroke-width: 0.8"/>
      </g>
     </g>
     <g id="text_8">
      <!-- 7000 -->
      <g transform="translate(333.200625 401.038437) scale(0.1 -0.1)">
       <defs>
        <path id="DejaVuSans-37" d="M 525 4666 
L 3525 4666 
L 3525 4397 
L 1831 0 
L 1172 0 
L 2766 4134 
L 525 4134 
L 525 4666 
z
" transform="scale(0.015625)"/>
       </defs>
       <use xlink:href="#DejaVuSans-37"/>
       <use xlink:href="#DejaVuSans-30" transform="translate(63.623047 0)"/>
       <use xlink:href="#DejaVuSans-30" transform="translate(127.246094 0)"/>
       <use xlink:href="#DejaVuSans-30" transform="translate(190.869141 0)"/>
      </g>
     </g>
    </g>
    <g id="xtick_9">
     <g id="line2d_17">
      <path d="M 386.325625 386.44 
L 386.325625 7.2 
" clip-path="url(#p30c2f10064)" style="fill: none; stroke-dasharray: 2.96,1.28; stroke-dashoffset: 0; stroke: #b0b0b0; stroke-opacity: 0.6; stroke-width: 0.8"/>
     </g>
     <g id="line2d_18">
      <g>
       <use xlink:href="#m063cd24c97" x="386.325625" y="386.44" style="stroke: #000000; stroke-width: 0.8"/>
      </g>
     </g>
     <g id="text_9">
      <!-- 8000 -->
      <g transform="translate(373.600625 401.038437) scale(0.1 -0.1)">
       <defs>
        <path id="DejaVuSans-38" d="M 2034 2216 
Q 1584 2216 1326 1975 
Q 1069 1734 1069 1313 
Q 1069 891 1326 650 
Q 1584 409 2034 409 
Q 2484 409 2743 651 
Q 3003 894 3003 1313 
Q 3003 1734 2745 1975 
Q 2488 2216 2034 2216 
z
M 1403 2484 
Q 997 2584 770 2862 
Q 544 3141 544 3541 
Q 544 4100 942 4425 
Q 1341 4750 2034 4750 
Q 2731 4750 3128 4425 
Q 3525 4100 3525 3541 
Q 3525 3141 3298 2862 
Q 3072 2584 2669 2484 
Q 3125 2378 3379 2068 
Q 3634 1759 3634 1313 
Q 3634 634 3220 271 
Q 2806 -91 2034 -91 
Q 1263 -91 848 271 
Q 434 634 434 1313 
Q 434 1759 690 2068 
Q 947 2378 1403 2484 
z
M 1172 3481 
Q 1172 3119 1398 2916 
Q 1625 2713 2034 2713 
Q 2441 2713 2670 2916 
Q 2900 3119 2900 3481 
Q 2900 3844 2670 4047 
Q 2441 4250 2034 4250 
Q 1625 4250 1398 4047 
Q 1172 3844 1172 3481 
z
" transform="scale(0.015625)"/>
       </defs>
       <use xlink:href="#DejaVuSans-38"/>
       <use xlink:href="#DejaVuSans-30" transform="translate(63.623047 0)"/>
       <use xlink:href="#DejaVuSans-30" transform="translate(127.246094 0)"/>
       <use xlink:href="#DejaVuSans-30" transform="translate(190.869141 0)"/>
      </g>
     </g>
    </g>
    <g id="text_10">
     <!-- Distance from terminus [nt] -->
     <g transform="translate(155.226406 414.716562) scale(0.1 -0.1)">
      <defs>
       <path id="DejaVuSans-44" d="M 1259 4147 
L 1259 519 
L 2022 519 
Q 2988 519 3436 956 
Q 3884 1394 3884 2338 
Q 3884 3275 3436 3711 
Q 2988 4147 2022 4147 
L 1259 4147 
z
M 628 4666 
L 1925 4666 
Q 3281 4666 3915 4102 
Q 4550 3538 4550 2338 
Q 4550 1131 3912 565 
Q 3275 0 1925 0 
L 628 0 
L 628 4666 
z
" transform="scale(0.015625)"/>
       <path id="DejaVuSans-69" d="M 603 3500 
L 1178 3500 
L 1178 0 
L 603 0 
L 603 3500 
z
M 603 4863 
L 1178 4863 
L 1178 4134 
L 603 4134 
L 603 4863 
z
" transform="scale(0.015625)"/>
       <path id="DejaVuSans-73" d="M 2834 3397 
L 2834 2853 
Q 2591 2978 2328 3040 
Q 2066 3103 1784 3103 
Q 1356 3103 1142 2972 
Q 928 2841 928 2578 
Q 928 2378 1081 2264 
Q 1234 2150 1697 2047 
L 1894 2003 
Q 2506 1872 2764 1633 
Q 3022 1394 3022 966 
Q 3022 478 2636 193 
Q 2250 -91 1575 -91 
Q 1294 -91 989 -36 
Q 684 19 347 128 
L 347 722 
Q 666 556 975 473 
Q 1284 391 1588 391 
Q 1994 391 2212 530 
Q 2431 669 2431 922 
Q 2431 1156 2273 1281 
Q 2116 1406 1581 1522 
L 1381 1569 
Q 847 1681 609 1914 
Q 372 2147 372 2553 
Q 372 3047 722 3315 
Q 1072 3584 1716 3584 
Q 2034 3584 2315 3537 
Q 2597 3491 2834 3397 
z
" transform="scale(0.015625)"/>
       <path id="DejaVuSans-74" d="M 1172 4494 
L 1172 3500 
L 2356 3500 
L 2356 3053 
L 1172 3053 
L 1172 1153 
Q 1172 725 1289 603 
Q 1406 481 1766 481 
L 2356 481 
L 2356 0 
L 1766 0 
Q 1100 0 847 248 
Q 594 497 594 1153 
L 594 3053 
L 172 3053 
L 172 3500 
L 594 3500 
L 594 4494 
L 1172 4494 
z
" transform="scale(0.015625)"/>
       <path id="DejaVuSans-61" d="M 2194 1759 
Q 1497 1759 1228 1600 
Q 959 1441 959 1056 
Q 959 750 1161 570 
Q 1363 391 1709 391 
Q 2188 391 2477 730 
Q 2766 1069 2766 1631 
L 2766 1759 
L 2194 1759 
z
M 3341 1997 
L 3341 0 
L 2766 0 
L 2766 531 
Q 2569 213 2275 61 
Q 1981 -91 1556 -91 
Q 1019 -91 701 211 
Q 384 513 384 1019 
Q 384 1609 779 1909 
Q 1175 2209 1959 2209 
L 2766 2209 
L 2766 2266 
Q 2766 2663 2505 2880 
Q 2244 3097 1772 3097 
Q 1472 3097 1187 3025 
Q 903 2953 641 2809 
L 641 3341 
Q 956 3463 1253 3523 
Q 1550 3584 1831 3584 
Q 2591 3584 2966 3190 
Q 3341 2797 3341 1997 
z
" transform="scale(0.015625)"/>
       <path id="DejaVuSans-6e" d="M 3513 2113 
L 3513 0 
L 2938 0 
L 2938 2094 
Q 2938 2591 2744 2837 
Q 2550 3084 2163 3084 
Q 1697 3084 1428 2787 
Q 1159 2491 1159 1978 
L 1159 0 
L 581 0 
L 581 3500 
L 1159 3500 
L 1159 2956 
Q 1366 3272 1645 3428 
Q 1925 3584 2291 3584 
Q 2894 3584 3203 3211 
Q 3513 2838 3513 2113 
z
" transform="scale(0.015625)"/>
       <path id="DejaVuSans-63" d="M 3122 3366 
L 3122 2828 
Q 2878 2963 2633 3030 
Q 2388 3097 2138 3097 
Q 1578 3097 1268 2742 
Q 959 2388 959 1747 
Q 959 1106 1268 751 
Q 1578 397 2138 397 
Q 2388 397 2633 464 
Q 2878 531 3122 666 
L 3122 134 
Q 2881 22 2623 -34 
Q 2366 -91 2075 -91 
Q 1284 -91 818 406 
Q 353 903 353 1747 
Q 353 2603 823 3093 
Q 1294 3584 2113 3584 
Q 2378 3584 2631 3529 
Q 2884 3475 3122 3366 
z
" transform="scale(0.015625)"/>
       <path id="DejaVuSans-65" d="M 3597 1894 
L 3597 1613 
L 953 1613 
Q 991 1019 1311 708 
Q 1631 397 2203 397 
Q 2534 397 2845 478 
Q 3156 559 3463 722 
L 3463 178 
Q 3153 47 2828 -22 
Q 2503 -91 2169 -91 
Q 1331 -91 842 396 
Q 353 884 353 1716 
Q 353 2575 817 3079 
Q 1281 3584 2069 3584 
Q 2775 3584 3186 3129 
Q 3597 2675 3597 1894 
z
M 3022 2063 
Q 3016 2534 2758 2815 
Q 2500 3097 2075 3097 
Q 1594 3097 1305 2825 
Q 1016 2553 972 2059 
L 3022 2063 
z
" transform="scale(0.015625)"/>
       <path id="DejaVuSans-20" transform="scale(0.015625)"/>
       <path id="DejaVuSans-66" d="M 2375 4863 
L 2375 4384 
L 1825 4384 
Q 1516 4384 1395 4259 
Q 1275 4134 1275 3809 
L 1275 3500 
L 2222 3500 
L 2222 3053 
L 1275 3053 
L 1275 0 
L 697 0 
L 697 3053 
L 147 3053 
L 147 3500 
L 697 3500 
L 697 3744 
Q 697 4328 969 4595 
Q 1241 4863 1831 4863 
L 2375 4863 
z
" transform="scale(0.015625)"/>
       <path id="DejaVuSans-72" d="M 2631 2963 
Q 2534 3019 2420 3045 
Q 2306 3072 2169 3072 
Q 1681 3072 1420 2755 
Q 1159 2438 1159 1844 
L 1159 0 
L 581 0 
L 581 3500 
L 1159 3500 
L 1159 2956 
Q 1341 3275 1631 3429 
Q 1922 3584 2338 3584 
Q 2397 3584 2469 3576 
Q 2541 3569 2628 3553 
L 2631 2963 
z
" transform="scale(0.015625)"/>
       <path id="DejaVuSans-6f" d="M 1959 3097 
Q 1497 3097 1228 2736 
Q 959 2375 959 1747 
Q 959 1119 1226 758 
Q 1494 397 1959 397 
Q 2419 397 2687 759 
Q 2956 1122 2956 1747 
Q 2956 2369 2687 2733 
Q 2419 3097 1959 3097 
z
M 1959 3584 
Q 2709 3584 3137 3096 
Q 3566 2609 3566 1747 
Q 3566 888 3137 398 
Q 2709 -91 1959 -91 
Q 1206 -91 779 398 
Q 353 888 353 1747 
Q 353 2609 779 3096 
Q 1206 3584 1959 3584 
z
" transform="scale(0.015625)"/>
       <path id="DejaVuSans-6d" d="M 3328 2828 
Q 3544 3216 3844 3400 
Q 4144 3584 4550 3584 
Q 5097 3584 5394 3201 
Q 5691 2819 5691 2113 
L 5691 0 
L 5113 0 
L 5113 2094 
Q 5113 2597 4934 2840 
Q 4756 3084 4391 3084 
Q 3944 3084 3684 2787 
Q 3425 2491 3425 1978 
L 3425 0 
L 2847 0 
L 2847 2094 
Q 2847 2600 2669 2842 
Q 2491 3084 2119 3084 
Q 1678 3084 1418 2786 
Q 1159 2488 1159 1978 
L 1159 0 
L 581 0 
L 581 3500 
L 1159 3500 
L 1159 2956 
Q 1356 3278 1631 3431 
Q 1906 3584 2284 3584 
Q 2666 3584 2933 3390 
Q 3200 3197 3328 2828 
z
" transform="scale(0.015625)"/>
       <path id="DejaVuSans-75" d="M 544 1381 
L 544 3500 
L 1119 3500 
L 1119 1403 
Q 1119 906 1312 657 
Q 1506 409 1894 409 
Q 2359 409 2629 706 
Q 2900 1003 2900 1516 
L 2900 3500 
L 3475 3500 
L 3475 0 
L 2900 0 
L 2900 538 
Q 2691 219 2414 64 
Q 2138 -91 1772 -91 
Q 1169 -91 856 284 
Q 544 659 544 1381 
z
M 1991 3584 
L 1991 3584 
z
" transform="scale(0.015625)"/>
       <path id="DejaVuSans-5b" d="M 550 4863 
L 1875 4863 
L 1875 4416 
L 1125 4416 
L 1125 -397 
L 1875 -397 
L 1875 -844 
L 550 -844 
L 550 4863 
z
" transform="scale(0.015625)"/>
       <path id="DejaVuSans-5d" d="M 1947 4863 
L 1947 -844 
L 622 -844 
L 622 -397 
L 1369 -397 
L 1369 4416 
L 622 4416 
L 622 4863 
L 1947 4863 
z
" transform="scale(0.015625)"/>
      </defs>
      <use xlink:href="#DejaVuSans-44"/>
      <use xlink:href="#DejaVuSans-69" transform="translate(77.001953 0)"/>
      <use xlink:href="#DejaVuSans-73" transform="translate(104.785156 0)"/>
      <use xlink:href="#DejaVuSans-74" transform="translate(156.884766 0)"/>
      <use xlink:href="#DejaVuSans-61" transform="translate(196.09375 0)"/>
      <use xlink:href="#DejaVuSans-6e" transform="translate(257.373047 0)"/>
      <use xlink:href="#DejaVuSans-63" transform="translate(320.751953 0)"/>
      <use xlink:href="#DejaVuSans-65" transform="translate(375.732422 0)"/>
      <use xlink:href="#DejaVuSans-20" transform="translate(437.255859 0)"/>
      <use xlink:href="#DejaVuSans-66" transform="translate(469.042969 0)"/>
      <use xlink:href="#DejaVuSans-72" transform="translate(504.248047 0)"/>
      <use xlink:href="#DejaVuSans-6f" transform="translate(543.111328 0)"/>
      <use xlink:href="#DejaVuSans-6d" transform="translate(604.292969 0)"/>
      <use xlink:href="#DejaVuSans-20" transform="translate(701.705078 0)"/>
      <use xlink:href="#DejaVuSans-74" transform="translate(733.492188 0)"/>
      <use xlink:href="#DejaVuSans-65" transform="translate(772.701172 0)"/>
      <use xlink:href="#DejaVuSans-72" transform="translate(834.224609 0)"/>
      <use xlink:href="#DejaVuSans-6d" transform="translate(873.587891 0)"/>
      <use xlink:href="#DejaVuSans-69" transform="translate(971 0)"/>
      <use xlink:href="#DejaVuSans-6e" transform="translate(998.783203 0)"/>
      <use xlink:href="#DejaVuSans-75" transform="translate(1062.162109 0)"/>
      <use xlink:href="#DejaVuSans-73" transform="translate(1125.541016 0)"/>
      <use xlink:href="#DejaVuSans-20" transform="translate(1177.640625 0)"/>
      <use xlink:href="#DejaVuSans-5b" transform="translate(1209.427734 0)"/>
      <use xlink:href="#DejaVuSans-6e" transform="translate(1248.441406 0)"/>
      <use xlink:href="#DejaVuSans-74" transform="translate(1311.820312 0)"/>
      <use xlink:href="#DejaVuSans-5d" transform="translate(1351.029297 0)"/>
     </g>
    </g>
   </g>
   <g id="matplotlib.axis_2">
    <g id="ytick_1">
     <g id="line2d_19">
      <path d="M 46.965625 369.201818 
L 402.485625 369.201818 
" clip-path="url(#p30c2f10064)" style="fill: none; stroke-dasharray: 2.96,1.28; stroke-dashoffset: 0; stroke: #b0b0b0; stroke-opacity: 0.6; stroke-width: 0.8"/>
     </g>
     <g id="line2d_20">
      <defs>
       <path id="m1a21389b1e" d="M 0 0 
L -3.5 0 
" style="stroke: #000000; stroke-width: 0.8"/>
      </defs>
      <g>
       <use xlink:href="#m1a21389b1e" x="46.965625" y="369.201818" style="stroke: #000000; stroke-width: 0.8"/>
      </g>
     </g>
     <g id="text_11">
      <!-- 0 -->
      <g transform="translate(33.603125 373.001037) scale(0.1 -0.1)">
       <use xlink:href="#DejaVuSans-30"/>
      </g>
     </g>
    </g>
    <g id="ytick_2">
     <g id="line2d_21">
      <path d="M 46.965625 305.198668 
L 402.485625 305.198668 
" clip-path="url(#p30c2f10064)" style="fill: none; stroke-dasharray: 2.96,1.28; stroke-dashoffset: 0; stroke: #b0b0b0; stroke-opacity: 0.6; stroke-width: 0.8"/>
     </g>
     <g id="line2d_22">
      <g>
       <use xlink:href="#m1a21389b1e" x="46.965625" y="305.198668" style="stroke: #000000; stroke-width: 0.8"/>
      </g>
     </g>
     <g id="text_12">
      <!-- 50 -->
      <g transform="translate(27.240625 308.997887) scale(0.1 -0.1)">
       <use xlink:href="#DejaVuSans-35"/>
       <use xlink:href="#DejaVuSans-30" transform="translate(63.623047 0)"/>
      </g>
     </g>
    </g>
    <g id="ytick_3">
     <g id="line2d_23">
      <path d="M 46.965625 241.195518 
L 402.485625 241.195518 
" clip-path="url(#p30c2f10064)" style="fill: none; stroke-dasharray: 2.96,1.28; stroke-dashoffset: 0; stroke: #b0b0b0; stroke-opacity: 0.6; stroke-width: 0.8"/>
     </g>
     <g id="line2d_24">
      <g>
       <use xlink:href="#m1a21389b1e" x="46.965625" y="241.195518" style="stroke: #000000; stroke-width: 0.8"/>
      </g>
     </g>
     <g id="text_13">
      <!-- 100 -->
      <g transform="translate(20.878125 244.994736) scale(0.1 -0.1)">
       <use xlink:href="#DejaVuSans-31"/>
       <use xlink:href="#DejaVuSans-30" transform="translate(63.623047 0)"/>
       <use xlink:href="#DejaVuSans-30" transform="translate(127.246094 0)"/>
      </g>
     </g>
    </g>
    <g id="ytick_4">
     <g id="line2d_25">
      <path d="M 46.965625 177.192367 
L 402.485625 177.192367 
" clip-path="url(#p30c2f10064)" style="fill: none; stroke-dasharray: 2.96,1.28; stroke-dashoffset: 0; stroke: #b0b0b0; stroke-opacity: 0.6; stroke-width: 0.8"/>
     </g>
     <g id="line2d_26">
      <g>
       <use xlink:href="#m1a21389b1e" x="46.965625" y="177.192367" style="stroke: #000000; stroke-width: 0.8"/>
      </g>
     </g>
     <g id="text_14">
      <!-- 150 -->
      <g transform="translate(20.878125 180.991586) scale(0.1 -0.1)">
       <use xlink:href="#DejaVuSans-31"/>
       <use xlink:href="#DejaVuSans-35" transform="translate(63.623047 0)"/>
       <use xlink:href="#DejaVuSans-30" transform="translate(127.246094 0)"/>
      </g>
     </g>
    </g>
    <g id="ytick_5">
     <g id="line2d_27">
      <path d="M 46.965625 113.189217 
L 402.485625 113.189217 
" clip-path="url(#p30c2f10064)" style="fill: none; stroke-dasharray: 2.96,1.28; stroke-dashoffset: 0; stroke: #b0b0b0; stroke-opacity: 0.6; stroke-width: 0.8"/>
     </g>
     <g id="line2d_28">
      <g>
       <use xlink:href="#m1a21389b1e" x="46.965625" y="113.189217" style="stroke: #000000; stroke-width: 0.8"/>
      </g>
     </g>
     <g id="text_15">
      <!-- 200 -->
      <g transform="translate(20.878125 116.988436) scale(0.1 -0.1)">
       <use xlink:href="#DejaVuSans-32"/>
       <use xlink:href="#DejaVuSans-30" transform="translate(63.623047 0)"/>
       <use xlink:href="#DejaVuSans-30" transform="translate(127.246094 0)"/>
      </g>
     </g>
    </g>
    <g id="ytick_6">
     <g id="line2d_29">
      <path d="M 46.965625 49.186067 
L 402.485625 49.186067 
" clip-path="url(#p30c2f10064)" style="fill: none; stroke-dasharray: 2.96,1.28; stroke-dashoffset: 0; stroke: #b0b0b0; stroke-opacity: 0.6; stroke-width: 0.8"/>
     </g>
     <g id="line2d_30">
      <g>
       <use xlink:href="#m1a21389b1e" x="46.965625" y="49.186067" style="stroke: #000000; stroke-width: 0.8"/>
      </g>
     </g>
     <g id="text_16">
      <!-- 250 -->
      <g transform="translate(20.878125 52.985285) scale(0.1 -0.1)">
       <use xlink:href="#DejaVuSans-32"/>
       <use xlink:href="#DejaVuSans-35" transform="translate(63.623047 0)"/>
       <use xlink:href="#DejaVuSans-30" transform="translate(127.246094 0)"/>
      </g>
     </g>
    </g>
    <g id="text_17">
     <!-- Average cumulative count -->
     <g transform="translate(14.798438 262.4325) rotate(-90) scale(0.1 -0.1)">
      <defs>
       <path id="DejaVuSans-41" d="M 2188 4044 
L 1331 1722 
L 3047 1722 
L 2188 4044 
z
M 1831 4666 
L 2547 4666 
L 4325 0 
L 3669 0 
L 3244 1197 
L 1141 1197 
L 716 0 
L 50 0 
L 1831 4666 
z
" transform="scale(0.015625)"/>
       <path id="DejaVuSans-76" d="M 191 3500 
L 800 3500 
L 1894 563 
L 2988 3500 
L 3597 3500 
L 2284 0 
L 1503 0 
L 191 3500 
z
" transform="scale(0.015625)"/>
       <path id="DejaVuSans-67" d="M 2906 1791 
Q 2906 2416 2648 2759 
Q 2391 3103 1925 3103 
Q 1463 3103 1205 2759 
Q 947 2416 947 1791 
Q 947 1169 1205 825 
Q 1463 481 1925 481 
Q 2391 481 2648 825 
Q 2906 1169 2906 1791 
z
M 3481 434 
Q 3481 -459 3084 -895 
Q 2688 -1331 1869 -1331 
Q 1566 -1331 1297 -1286 
Q 1028 -1241 775 -1147 
L 775 -588 
Q 1028 -725 1275 -790 
Q 1522 -856 1778 -856 
Q 2344 -856 2625 -561 
Q 2906 -266 2906 331 
L 2906 616 
Q 2728 306 2450 153 
Q 2172 0 1784 0 
Q 1141 0 747 490 
Q 353 981 353 1791 
Q 353 2603 747 3093 
Q 1141 3584 1784 3584 
Q 2172 3584 2450 3431 
Q 2728 3278 2906 2969 
L 2906 3500 
L 3481 3500 
L 3481 434 
z
" transform="scale(0.015625)"/>
       <path id="DejaVuSans-6c" d="M 603 4863 
L 1178 4863 
L 1178 0 
L 603 0 
L 603 4863 
z
" transform="scale(0.015625)"/>
      </defs>
      <use xlink:href="#DejaVuSans-41"/>
      <use xlink:href="#DejaVuSans-76" transform="translate(62.533203 0)"/>
      <use xlink:href="#DejaVuSans-65" transform="translate(121.712891 0)"/>
      <use xlink:href="#DejaVuSans-72" transform="translate(183.236328 0)"/>
      <use xlink:href="#DejaVuSans-61" transform="translate(224.349609 0)"/>
      <use xlink:href="#DejaVuSans-67" transform="translate(285.628906 0)"/>
      <use xlink:href="#DejaVuSans-65" transform="translate(349.105469 0)"/>
      <use xlink:href="#DejaVuSans-20" transform="translate(410.628906 0)"/>
      <use xlink:href="#DejaVuSans-63" transform="translate(442.416016 0)"/>
      <use xlink:href="#DejaVuSans-75" transform="translate(497.396484 0)"/>
      <use xlink:href="#DejaVuSans-6d" transform="translate(560.775391 0)"/>
      <use xlink:href="#DejaVuSans-75" transform="translate(658.1875 0)"/>
      <use xlink:href="#DejaVuSans-6c" transform="translate(721.566406 0)"/>
      <use xlink:href="#DejaVuSans-61" transform="translate(749.349609 0)"/>
      <use xlink:href="#DejaVuSans-74" transform="translate(810.628906 0)"/>
      <use xlink:href="#DejaVuSans-69" transform="translate(849.837891 0)"/>
      <use xlink:href="#DejaVuSans-76" transform="translate(877.621094 0)"/>
      <use xlink:href="#DejaVuSans-65" transform="translate(936.800781 0)"/>
      <use xlink:href="#DejaVuSans-20" transform="translate(998.324219 0)"/>
      <use xlink:href="#DejaVuSans-63" transform="translate(1030.111328 0)"/>
      <use xlink:href="#DejaVuSans-6f" transform="translate(1085.091797 0)"/>
      <use xlink:href="#DejaVuSans-75" transform="translate(1146.273438 0)"/>
      <use xlink:href="#DejaVuSans-6e" transform="translate(1209.652344 0)"/>
      <use xlink:href="#DejaVuSans-74" transform="translate(1273.03125 0)"/>
     </g>
    </g>
   </g>
   <g id="line2d_31">
    <path d="M 63.125625 369.201818 
L 63.287225 369.201818 
L 63.448825 368.348443 
L 63.731625 368.348443 
L 63.893225 367.495068 
L 64.054825 367.495068 
L 64.216425 366.641692 
L 64.297225 366.641692 
L 64.418425 366.215005 
L 64.620425 366.215005 
L 64.782025 365.361629 
L 65.064825 365.361629 
L 65.226425 364.508254 
L 65.347625 364.508254 
L 65.468825 364.081566 
L 65.509225 364.081566 
L 65.670825 363.228191 
L 65.953625 363.228191 
L 66.115225 362.374815 
L 66.276825 362.374815 
L 66.438425 361.52144 
L 66.519225 361.52144 
L 66.640425 361.094752 
L 66.721225 361.094752 
L 66.882825 360.241377 
L 66.963625 360.241377 
L 67.084825 359.814689 
L 67.165625 359.814689 
L 67.327225 358.961314 
L 67.408025 358.961314 
L 67.529225 358.534626 
L 67.610025 358.534626 
L 67.771625 357.681251 
L 67.852425 357.681251 
L 67.973625 357.254563 
L 68.054425 357.254563 
L 68.216025 356.401188 
L 68.296825 356.401188 
L 68.418025 355.9745 
L 68.498825 355.9745 
L 68.660425 355.121125 
L 68.741225 355.121125 
L 68.862425 354.694437 
L 68.943225 354.694437 
L 69.104825 353.841062 
L 69.185625 353.841062 
L 69.306825 353.414374 
L 69.387625 353.414374 
L 69.549225 352.560999 
L 69.630025 352.560999 
L 69.751225 352.134311 
L 69.832025 352.134311 
L 69.953225 351.707624 
L 70.074425 351.707624 
L 70.195625 351.280936 
L 70.276425 351.280936 
L 70.397625 350.854248 
L 70.518825 350.854248 
L 70.640025 350.000873 
L 70.720825 350.000873 
L 70.842025 349.574185 
L 70.963225 349.574185 
L 71.084425 348.72081 
L 71.165225 348.72081 
L 71.286425 348.294122 
L 71.407625 348.294122 
L 71.528825 347.867435 
L 71.811625 347.867435 
L 71.973225 347.014059 
L 72.094425 347.014059 
L 72.215625 346.587372 
L 72.296425 346.587372 
L 72.417625 346.160684 
L 72.538825 346.160684 
L 72.660025 345.733996 
L 72.740825 345.733996 
L 72.862025 344.880621 
L 72.983225 344.880621 
L 73.104425 344.453933 
L 73.185225 344.453933 
L 73.306425 343.600558 
L 73.427625 343.600558 
L 73.548825 343.17387 
L 73.629625 343.17387 
L 73.750825 342.320495 
L 73.872025 342.320495 
L 73.993225 341.893807 
L 74.074025 341.893807 
L 74.195225 341.040432 
L 74.518425 341.040432 
L 74.680025 340.187057 
L 74.801225 340.187057 
L 74.922425 339.760369 
L 74.962825 339.760369 
L 75.124425 338.906994 
L 75.245625 338.906994 
L 75.366825 338.480306 
L 75.407225 338.480306 
L 75.568825 337.626931 
L 75.690025 337.626931 
L 75.811225 337.200243 
L 75.851625 337.200243 
L 76.013225 336.346868 
L 76.134425 336.346868 
L 76.255625 335.92018 
L 76.296025 335.92018 
L 76.457625 335.066805 
L 76.578825 335.066805 
L 76.700025 334.640117 
L 76.740425 334.640117 
L 76.902025 333.786742 
L 77.023225 333.786742 
L 77.144425 333.360054 
L 77.184825 333.360054 
L 77.346425 332.506679 
L 77.467625 332.506679 
L 77.588825 332.079991 
L 77.629225 332.079991 
L 77.790825 331.226616 
L 77.912025 331.226616 
L 78.033225 330.799928 
L 78.114025 330.799928 
L 78.275625 329.946553 
L 78.356425 329.946553 
L 78.477625 329.519865 
L 78.558425 329.519865 
L 78.720025 328.66649 
L 78.800825 328.66649 
L 78.922025 328.239802 
L 79.002825 328.239802 
L 79.164425 327.386427 
L 79.245225 327.386427 
L 79.366425 326.959739 
L 79.447225 326.959739 
L 79.608825 326.106364 
L 79.932025 326.106364 
L 80.053225 325.679676 
L 80.134025 325.679676 
L 80.295625 324.826301 
L 80.376425 324.826301 
L 80.497625 324.399613 
L 80.578425 324.399613 
L 80.740025 323.546238 
L 80.820825 323.546238 
L 80.942025 323.11955 
L 81.063225 323.11955 
L 81.184425 322.692862 
L 81.265225 322.692862 
L 81.386425 322.266175 
L 81.507625 322.266175 
L 81.628825 321.839487 
L 81.709625 321.839487 
L 81.830825 321.412799 
L 81.871225 321.412799 
L 82.032825 320.559424 
L 82.154025 320.559424 
L 82.275225 320.132736 
L 82.315625 320.132736 
L 82.477225 319.279361 
L 82.598425 319.279361 
L 82.719625 318.852673 
L 82.840825 318.852673 
L 82.962025 318.425986 
L 83.042825 318.425986 
L 83.204425 317.57261 
L 83.487225 317.57261 
L 83.689225 316.292547 
L 83.931625 316.292547 
L 84.133625 315.012484 
L 84.376025 315.012484 
L 84.578025 313.732421 
L 84.820425 313.732421 
L 85.022425 312.452358 
L 85.264825 312.452358 
L 85.426425 311.598983 
L 85.709225 311.598983 
L 85.911225 310.31892 
L 86.153625 310.31892 
L 86.355625 309.038857 
L 86.598025 309.038857 
L 86.800025 307.758794 
L 87.042425 307.758794 
L 87.244425 306.478731 
L 87.486825 306.478731 
L 87.688825 305.198668 
L 87.931225 305.198668 
L 88.133225 303.918605 
L 88.375625 303.918605 
L 88.577625 302.638542 
L 88.820025 302.638542 
L 88.981625 301.785167 
L 89.264425 301.785167 
L 89.466425 300.505104 
L 89.708825 300.505104 
L 89.910825 299.225041 
L 90.153225 299.225041 
L 90.355225 297.944977 
L 90.597625 297.944977 
L 90.799625 296.664914 
L 91.042025 296.664914 
L 91.244025 295.384851 
L 91.486425 295.384851 
L 91.688425 294.104788 
L 91.930825 294.104788 
L 92.132825 292.824725 
L 92.456025 292.824725 
L 92.577225 291.97135 
L 92.860025 291.97135 
L 93.062025 290.691287 
L 93.304425 290.691287 
L 93.506425 289.411224 
L 93.748825 289.411224 
L 93.950825 288.131161 
L 94.193225 288.131161 
L 94.395225 286.851098 
L 94.637625 286.851098 
L 94.799225 285.997723 
L 95.082025 285.997723 
L 95.284025 284.71766 
L 95.526425 284.71766 
L 95.728425 283.437597 
L 95.970825 283.437597 
L 96.172825 282.157534 
L 96.415225 282.157534 
L 96.576825 281.304158 
L 96.859625 281.304158 
L 97.061625 280.024095 
L 97.304025 280.024095 
L 97.506025 278.744032 
L 97.748425 278.744032 
L 97.910025 277.890657 
L 98.192825 277.890657 
L 98.354425 276.610594 
L 98.637225 276.610594 
L 98.798825 275.330531 
L 99.081625 275.330531 
L 99.243225 274.477156 
L 99.485625 274.477156 
L 99.687625 273.197093 
L 100.010825 273.197093 
L 100.132025 272.770405 
L 100.455225 272.770405 
L 100.576425 271.91703 
L 100.818825 271.91703 
L 101.020825 270.636967 
L 101.263225 270.636967 
L 101.465225 269.356904 
L 101.707625 269.356904 
L 101.909625 268.076841 
L 102.152025 268.076841 
L 102.354025 266.796778 
L 102.596425 266.796778 
L 102.798425 265.516715 
L 103.040825 265.516715 
L 103.242825 264.236652 
L 103.485225 264.236652 
L 103.687225 262.956589 
L 104.010425 262.956589 
L 104.131625 262.103213 
L 104.454825 262.103213 
L 104.576025 261.249838 
L 104.656825 261.249838 
L 104.778025 260.82315 
L 104.899225 260.82315 
L 105.020425 259.969775 
L 105.101225 259.969775 
L 105.222425 259.543087 
L 105.343625 259.543087 
L 105.464825 258.689712 
L 105.545625 258.689712 
L 105.666825 258.263024 
L 105.788025 258.263024 
L 105.909225 257.409649 
L 105.990025 257.409649 
L 106.111225 256.982961 
L 106.232425 256.982961 
L 106.353625 256.129586 
L 106.434425 256.129586 
L 106.555625 255.702898 
L 106.676825 255.702898 
L 106.798025 254.849523 
L 106.878825 254.849523 
L 107.000025 254.422835 
L 107.121225 254.422835 
L 107.242425 253.56946 
L 107.323225 253.56946 
L 107.444425 253.142772 
L 107.565625 253.142772 
L 107.686825 252.289397 
L 107.767625 252.289397 
L 107.888825 251.862709 
L 108.010025 251.862709 
L 108.131225 251.009334 
L 108.212025 251.009334 
L 108.333225 250.582646 
L 108.454425 250.582646 
L 108.575625 249.729271 
L 108.656425 249.729271 
L 108.777625 249.302583 
L 108.898825 249.302583 
L 109.020025 248.449208 
L 109.100825 248.449208 
L 109.222025 248.02252 
L 109.343225 248.02252 
L 109.464425 247.169145 
L 109.545225 247.169145 
L 109.666425 246.742457 
L 109.787625 246.742457 
L 109.908825 245.889082 
L 109.989625 245.889082 
L 110.110825 245.462394 
L 110.232025 245.462394 
L 110.353225 244.609019 
L 110.434025 244.609019 
L 110.555225 244.182331 
L 110.676425 244.182331 
L 110.797625 243.328956 
L 110.878425 243.328956 
L 110.999625 242.902268 
L 111.120825 242.902268 
L 111.242025 242.048893 
L 111.322825 242.048893 
L 111.444025 241.622205 
L 111.565225 241.622205 
L 111.686425 240.76883 
L 111.767225 240.76883 
L 111.888425 240.342142 
L 112.009625 240.342142 
L 112.130825 239.488767 
L 112.211625 239.488767 
L 112.332825 239.062079 
L 112.454025 239.062079 
L 112.575225 238.208704 
L 112.656025 238.208704 
L 112.777225 237.782016 
L 112.898425 237.782016 
L 113.019625 236.928641 
L 113.342825 236.928641 
L 113.464025 236.075266 
L 113.544825 236.075266 
L 113.666025 235.648578 
L 113.787225 235.648578 
L 113.908425 234.795203 
L 113.989225 234.795203 
L 114.110425 234.368515 
L 114.231625 234.368515 
L 114.352825 233.51514 
L 114.433625 233.51514 
L 114.554825 233.088452 
L 114.676025 233.088452 
L 114.797225 232.235077 
L 114.878025 232.235077 
L 114.999225 231.808389 
L 115.120425 231.808389 
L 115.241625 230.955014 
L 115.322425 230.955014 
L 115.443625 230.528326 
L 115.564825 230.528326 
L 115.686025 229.67495 
L 115.766825 229.67495 
L 115.888025 229.248263 
L 116.009225 229.248263 
L 116.130425 228.394887 
L 116.211225 228.394887 
L 116.332425 227.9682 
L 116.453625 227.9682 
L 116.574825 227.541512 
L 116.898025 227.541512 
L 117.019225 227.114824 
L 117.140425 227.114824 
L 117.302025 226.261449 
L 117.342425 226.261449 
L 117.463625 225.834761 
L 117.584825 225.834761 
L 117.746425 224.981386 
L 117.786825 224.981386 
L 117.908025 224.554698 
L 118.029225 224.554698 
L 118.190825 223.701323 
L 118.231225 223.701323 
L 118.352425 223.274635 
L 118.594825 223.274635 
L 118.756425 222.42126 
L 119.039225 222.42126 
L 119.200825 221.567885 
L 119.241225 221.567885 
L 119.362425 221.141197 
L 119.483625 221.141197 
L 119.645225 220.287822 
L 119.928025 220.287822 
L 120.130025 219.007759 
L 120.372425 219.007759 
L 120.574425 217.727696 
L 120.816825 217.727696 
L 121.018825 216.447633 
L 121.261225 216.447633 
L 121.422825 215.594257 
L 121.705625 215.594257 
L 121.867225 214.740882 
L 122.150025 214.740882 
L 122.311625 213.887507 
L 122.634825 213.887507 
L 122.796425 213.034131 
L 123.079225 213.034131 
L 123.240825 212.180756 
L 123.523625 212.180756 
L 123.685225 211.327381 
L 123.766025 211.327381 
L 123.887225 210.900693 
L 123.968025 210.900693 
L 124.129625 210.047318 
L 124.210425 210.047318 
L 124.331625 209.62063 
L 124.412425 209.62063 
L 124.574025 208.767255 
L 124.654825 208.767255 
L 124.776025 208.340567 
L 124.856825 208.340567 
L 125.018425 207.487192 
L 125.099225 207.487192 
L 125.220425 207.060504 
L 125.301225 207.060504 
L 125.462825 206.207129 
L 125.543625 206.207129 
L 125.664825 205.780441 
L 125.745625 205.780441 
L 125.907225 204.927066 
L 125.988025 204.927066 
L 126.109225 204.500378 
L 126.190025 204.500378 
L 126.351625 203.647003 
L 126.432425 203.647003 
L 126.553625 203.220315 
L 126.634425 203.220315 
L 126.796025 202.36694 
L 126.876825 202.36694 
L 126.998025 201.940252 
L 127.200025 201.940252 
L 127.361625 201.086877 
L 127.482825 201.086877 
L 127.604025 200.660189 
L 127.644425 200.660189 
L 127.806025 199.806814 
L 127.927225 199.806814 
L 128.048425 199.380126 
L 128.088825 199.380126 
L 128.250425 198.526751 
L 128.533225 198.526751 
L 128.694825 197.673375 
L 128.977625 197.673375 
L 129.139225 196.82 
L 129.422025 196.82 
L 129.543225 196.393312 
L 129.583625 196.393312 
L 129.704825 195.966625 
L 129.866425 195.966625 
L 130.068425 194.686562 
L 130.310825 194.686562 
L 130.512825 193.406499 
L 130.755225 193.406499 
L 130.957225 192.126436 
L 131.199625 192.126436 
L 131.401625 190.846373 
L 131.644025 190.846373 
L 131.805625 189.992997 
L 132.088425 189.992997 
L 132.250025 189.139622 
L 132.532825 189.139622 
L 132.694425 188.286247 
L 132.977225 188.286247 
L 133.098425 187.859559 
L 133.421625 187.859559 
L 133.583225 187.006184 
L 133.866025 187.006184 
L 134.027625 186.152808 
L 134.310425 186.152808 
L 134.472025 185.299433 
L 134.512425 185.299433 
L 134.633625 184.872745 
L 134.754825 184.872745 
L 134.916425 184.01937 
L 135.199225 184.01937 
L 135.360825 183.165995 
L 135.643625 183.165995 
L 135.845625 181.885932 
L 136.088025 181.885932 
L 136.249625 181.032556 
L 136.532425 181.032556 
L 136.694025 180.179181 
L 136.976825 180.179181 
L 137.178825 178.899118 
L 137.421225 178.899118 
L 137.582825 178.045743 
L 137.865625 178.045743 
L 138.027225 177.192367 
L 138.310025 177.192367 
L 138.471625 176.338992 
L 138.754425 176.338992 
L 138.916025 175.485617 
L 139.198825 175.485617 
L 139.360425 174.632241 
L 139.643225 174.632241 
L 139.804825 173.778866 
L 139.966425 173.778866 
L 140.168425 172.498803 
L 140.532025 172.498803 
L 140.693625 171.645428 
L 140.976425 171.645428 
L 141.138025 170.792052 
L 141.259225 170.792052 
L 141.380425 170.365365 
L 141.420825 170.365365 
L 141.582425 169.511989 
L 141.905625 169.511989 
L 142.026825 168.658614 
L 142.350025 168.658614 
L 142.471225 167.805239 
L 142.552025 167.805239 
L 142.673225 167.378551 
L 142.794425 167.378551 
L 142.915625 166.525176 
L 143.238825 166.525176 
L 143.360025 165.6718 
L 143.683225 165.6718 
L 143.804425 164.818425 
L 144.127625 164.818425 
L 144.248825 163.96505 
L 144.572025 163.96505 
L 144.693225 163.111674 
L 145.016425 163.111674 
L 145.137625 162.258299 
L 145.460825 162.258299 
L 145.582025 161.404923 
L 145.905225 161.404923 
L 146.026425 160.551548 
L 146.349625 160.551548 
L 146.511225 159.698173 
L 146.794025 159.698173 
L 146.955625 158.844797 
L 147.238425 158.844797 
L 147.400025 157.991422 
L 147.682825 157.991422 
L 147.844425 157.138047 
L 148.127225 157.138047 
L 148.329225 155.857984 
L 148.571625 155.857984 
L 148.733225 155.004608 
L 149.016025 155.004608 
L 149.177625 154.151233 
L 149.460425 154.151233 
L 149.662425 152.87117 
L 149.904825 152.87117 
L 150.066425 152.017795 
L 150.349225 152.017795 
L 150.510825 151.164419 
L 150.793625 151.164419 
L 150.955225 150.311044 
L 151.238025 150.311044 
L 151.399625 149.457669 
L 151.682425 149.457669 
L 151.844025 148.604293 
L 152.126825 148.604293 
L 152.288425 147.750918 
L 152.571225 147.750918 
L 152.732825 146.897543 
L 153.015625 146.897543 
L 153.177225 146.044167 
L 153.460025 146.044167 
L 153.621625 145.190792 
L 153.904425 145.190792 
L 154.066025 144.337417 
L 154.348825 144.337417 
L 154.510425 143.484041 
L 154.793225 143.484041 
L 154.954825 142.630666 
L 155.237625 142.630666 
L 155.358825 142.203978 
L 155.682025 142.203978 
L 155.803225 141.777291 
L 156.126425 141.777291 
L 156.247625 141.350603 
L 156.570825 141.350603 
L 156.692025 140.923915 
L 156.974825 140.923915 
L 157.136425 140.07054 
L 157.459625 140.07054 
L 157.580825 139.643852 
L 158.267625 139.643852 
L 158.388825 139.217165 
L 158.671625 139.217165 
L 158.792825 138.790477 
L 159.116025 138.790477 
L 159.237225 138.363789 
L 159.560425 138.363789 
L 159.681625 137.510414 
L 160.004825 137.510414 
L 160.126025 137.083726 
L 162.388425 137.083726 
L 162.509625 136.657039 
L 162.873225 136.657039 
L 162.994425 136.230351 
L 163.681225 136.230351 
L 163.802425 135.803663 
L 164.166025 135.803663 
L 164.287225 135.376976 
L 164.974025 135.376976 
L 165.095225 134.950288 
L 170.630025 134.950288 
L 170.751225 134.5236 
L 171.922825 134.5236 
L 172.044025 134.096913 
L 386.285225 134.096913 
L 386.285225 134.096913 
" clip-path="url(#p30c2f10064)" style="fill: none; stroke: #add8e6; stroke-width: 2; stroke-linecap: square"/>
   </g>
   <g id="line2d_32">
    <path d="M 63.125625 369.201818 
L 99.081625 369.201818 
L 99.202825 368.775131 
L 128.775625 368.775131 
L 128.896825 368.348443 
L 133.058025 368.348443 
L 133.179225 367.921755 
L 386.285225 367.921755 
L 386.285225 367.921755 
" clip-path="url(#p30c2f10064)" style="fill: none; stroke: #6495ed; stroke-width: 2; stroke-linecap: square"/>
   </g>
   <g id="line2d_33">
    <path d="M 63.125625 369.201818 
L 83.325625 369.201818 
L 83.446825 368.775131 
L 92.617625 368.775131 
L 92.738825 368.348443 
L 100.172425 368.348443 
L 100.293625 367.921755 
L 386.285225 367.921755 
L 386.285225 367.921755 
" clip-path="url(#p30c2f10064)" style="fill: none; stroke: #00008b; stroke-width: 2; stroke-linecap: square"/>
   </g>
   <g id="line2d_34">
    <path d="M 386.325625 369.201818 
L 250.258425 369.201818 
L 250.137225 368.775131 
L 249.814025 368.775131 
L 249.692825 368.348443 
L 249.369625 368.348443 
L 249.248425 367.921755 
L 248.925225 367.921755 
L 248.804025 367.495068 
L 248.480825 367.495068 
L 248.359625 367.06838 
L 248.036425 367.06838 
L 247.915225 366.641692 
L 247.592025 366.641692 
L 247.470825 366.215005 
L 247.147625 366.215005 
L 247.026425 365.788317 
L 246.703225 365.788317 
L 246.582025 365.361629 
L 246.258825 365.361629 
L 246.137625 364.934941 
L 245.814425 364.934941 
L 245.693225 364.508254 
L 245.370025 364.508254 
L 245.248825 364.081566 
L 244.925625 364.081566 
L 244.804425 363.654878 
L 244.481225 363.654878 
L 244.360025 363.228191 
L 244.036825 363.228191 
L 243.915625 362.801503 
L 243.592425 362.801503 
L 243.471225 362.374815 
L 243.148025 362.374815 
L 243.026825 361.948128 
L 242.703625 361.948128 
L 242.582425 361.52144 
L 242.259225 361.52144 
L 242.138025 361.094752 
L 241.814825 361.094752 
L 241.693625 360.668065 
L 241.370425 360.668065 
L 241.249225 360.241377 
L 240.926025 360.241377 
L 240.804825 359.814689 
L 240.481625 359.814689 
L 240.360425 359.388002 
L 240.037225 359.388002 
L 239.916025 358.961314 
L 239.592825 358.961314 
L 239.471625 358.534626 
L 239.148425 358.534626 
L 239.027225 358.107939 
L 238.704025 358.107939 
L 238.582825 357.681251 
L 238.259625 357.681251 
L 238.138425 357.254563 
L 237.815225 357.254563 
L 237.694025 356.827876 
L 237.370825 356.827876 
L 237.249625 356.401188 
L 236.926425 356.401188 
L 236.805225 355.9745 
L 236.482025 355.9745 
L 236.360825 355.547813 
L 236.037625 355.547813 
L 235.916425 355.121125 
L 235.593225 355.121125 
L 235.472025 354.694437 
L 235.148825 354.694437 
L 235.027625 354.26775 
L 234.704425 354.26775 
L 234.583225 353.841062 
L 234.260025 353.841062 
L 234.138825 353.414374 
L 233.815625 353.414374 
L 233.694425 352.987687 
L 233.371225 352.987687 
L 233.250025 352.560999 
L 232.926825 352.560999 
L 232.805625 352.134311 
L 232.482425 352.134311 
L 232.361225 351.707624 
L 232.038025 351.707624 
L 231.916825 351.280936 
L 231.593625 351.280936 
L 231.472425 350.854248 
L 231.149225 350.854248 
L 231.028025 350.427561 
L 230.704825 350.427561 
L 230.583625 350.000873 
L 230.260425 350.000873 
L 230.139225 349.574185 
L 229.816025 349.574185 
L 229.694825 349.147498 
L 229.371625 349.147498 
L 229.250425 348.72081 
L 228.927225 348.72081 
L 228.806025 348.294122 
L 228.482825 348.294122 
L 228.361625 347.867435 
L 228.038425 347.867435 
L 227.917225 347.440747 
L 227.594025 347.440747 
L 227.472825 347.014059 
L 227.149625 347.014059 
L 227.028425 346.587372 
L 226.705225 346.587372 
L 226.584025 346.160684 
L 226.260825 346.160684 
L 226.139625 345.733996 
L 225.089225 345.733996 
L 224.968025 345.307309 
L 224.644825 345.307309 
L 224.523625 344.880621 
L 223.917625 344.880621 
L 223.756025 344.027246 
L 223.473225 344.027246 
L 223.311625 343.17387 
L 223.028825 343.17387 
L 222.867225 342.320495 
L 222.584425 342.320495 
L 222.422825 341.46712 
L 222.140025 341.46712 
L 221.978425 340.613744 
L 221.695625 340.613744 
L 221.534025 339.760369 
L 221.251225 339.760369 
L 221.089625 338.906994 
L 220.806825 338.906994 
L 220.645225 338.053618 
L 220.362425 338.053618 
L 220.200825 337.200243 
L 219.918025 337.200243 
L 219.756425 336.346868 
L 219.473625 336.346868 
L 219.312025 335.493492 
L 219.029225 335.493492 
L 218.867625 334.640117 
L 218.584825 334.640117 
L 218.423225 333.786742 
L 218.140425 333.786742 
L 217.978825 332.933366 
L 217.696025 332.933366 
L 217.534425 332.079991 
L 217.251625 332.079991 
L 217.090025 331.226616 
L 216.807225 331.226616 
L 216.645625 330.37324 
L 216.362825 330.37324 
L 216.201225 329.519865 
L 215.918425 329.519865 
L 215.756825 328.66649 
L 215.474025 328.66649 
L 215.312425 327.813114 
L 215.029625 327.813114 
L 214.868025 326.959739 
L 214.585225 326.959739 
L 214.423625 326.106364 
L 214.140825 326.106364 
L 213.979225 325.252988 
L 213.696425 325.252988 
L 213.534825 324.399613 
L 213.252025 324.399613 
L 213.090425 323.546238 
L 212.807625 323.546238 
L 212.646025 322.692862 
L 212.363225 322.692862 
L 212.201625 321.839487 
L 211.918825 321.839487 
L 211.757225 320.986112 
L 211.474425 320.986112 
L 211.312825 320.132736 
L 211.030025 320.132736 
L 210.868425 319.279361 
L 210.585625 319.279361 
L 210.424025 318.425986 
L 210.141225 318.425986 
L 209.979625 317.57261 
L 209.696825 317.57261 
L 209.535225 316.719235 
L 209.252425 316.719235 
L 209.090825 315.86586 
L 208.808025 315.86586 
L 208.646425 315.012484 
L 208.363625 315.012484 
L 208.202025 314.159109 
L 207.919225 314.159109 
L 207.757625 313.305734 
L 207.474825 313.305734 
L 207.313225 312.452358 
L 207.030425 312.452358 
L 206.868825 311.598983 
L 206.586025 311.598983 
L 206.424425 310.745608 
L 206.141625 310.745608 
L 205.980025 309.892232 
L 205.697225 309.892232 
L 205.535625 309.038857 
L 205.252825 309.038857 
L 205.091225 308.185482 
L 204.687225 308.185482 
L 204.566025 307.758794 
L 204.404425 307.758794 
L 204.283225 307.332106 
L 204.242825 307.332106 
L 204.121625 306.905419 
L 203.960025 306.905419 
L 203.838825 306.478731 
L 203.798425 306.478731 
L 203.677225 306.052043 
L 203.515625 306.052043 
L 203.394425 305.625356 
L 203.354025 305.625356 
L 203.232825 305.198668 
L 203.071225 305.198668 
L 202.950025 304.77198 
L 202.909625 304.77198 
L 202.788425 304.345293 
L 202.626825 304.345293 
L 202.505625 303.918605 
L 202.465225 303.918605 
L 202.344025 303.491917 
L 202.182425 303.491917 
L 202.061225 303.06523 
L 202.020825 303.06523 
L 201.899625 302.638542 
L 201.738025 302.638542 
L 201.616825 302.211854 
L 201.576425 302.211854 
L 201.455225 301.785167 
L 201.293625 301.785167 
L 201.172425 301.358479 
L 201.132025 301.358479 
L 201.010825 300.931791 
L 200.849225 300.931791 
L 200.728025 300.505104 
L 200.687625 300.505104 
L 200.566425 300.078416 
L 200.404825 300.078416 
L 200.283625 299.651728 
L 199.960425 299.651728 
L 199.798825 298.798353 
L 199.516025 298.798353 
L 199.354425 297.944977 
L 199.071625 297.944977 
L 198.910025 297.091602 
L 198.627225 297.091602 
L 198.465625 296.238227 
L 198.182825 296.238227 
L 198.021225 295.384851 
L 197.738425 295.384851 
L 197.576825 294.531476 
L 197.294025 294.531476 
L 197.132425 293.678101 
L 196.849625 293.678101 
L 196.688025 292.824725 
L 196.405225 292.824725 
L 196.243625 291.97135 
L 195.960825 291.97135 
L 195.799225 291.117975 
L 195.516425 291.117975 
L 195.354825 290.264599 
L 195.072025 290.264599 
L 194.910425 289.411224 
L 194.506425 289.411224 
L 194.385225 288.984536 
L 194.062025 288.984536 
L 193.900425 288.131161 
L 193.617625 288.131161 
L 193.456025 287.277786 
L 193.173225 287.277786 
L 193.011625 286.42441 
L 192.728825 286.42441 
L 192.567225 285.571035 
L 192.284425 285.571035 
L 192.122825 284.71766 
L 191.840025 284.71766 
L 191.678425 283.864284 
L 191.395625 283.864284 
L 191.234025 283.010909 
L 190.951225 283.010909 
L 190.789625 282.157534 
L 190.506825 282.157534 
L 190.345225 281.304158 
L 190.062425 281.304158 
L 189.941225 280.877471 
L 189.618025 280.877471 
L 189.496825 280.450783 
L 189.173625 280.450783 
L 189.052425 280.024095 
L 188.850425 280.024095 
L 188.688825 279.17072 
L 188.406025 279.17072 
L 188.244425 278.317345 
L 187.961625 278.317345 
L 187.800025 277.463969 
L 187.517225 277.463969 
L 187.355625 276.610594 
L 187.072825 276.610594 
L 186.911225 275.757219 
L 186.628425 275.757219 
L 186.466825 274.903843 
L 186.184025 274.903843 
L 186.022425 274.050468 
L 185.739625 274.050468 
L 185.578025 273.197093 
L 185.295225 273.197093 
L 185.133625 272.343717 
L 184.850825 272.343717 
L 184.729625 271.91703 
L 184.406425 271.91703 
L 184.285225 271.490342 
L 184.244825 271.490342 
L 184.123625 271.063654 
L 183.962025 271.063654 
L 183.840825 270.636967 
L 183.800425 270.636967 
L 183.679225 270.210279 
L 183.517625 270.210279 
L 183.396425 269.783591 
L 183.356025 269.783591 
L 183.234825 269.356904 
L 183.073225 269.356904 
L 182.952025 268.930216 
L 182.911625 268.930216 
L 182.790425 268.503528 
L 182.628825 268.503528 
L 182.507625 268.076841 
L 182.467225 268.076841 
L 182.346025 267.650153 
L 182.184425 267.650153 
L 182.063225 267.223465 
L 182.022825 267.223465 
L 181.901625 266.796778 
L 181.740025 266.796778 
L 181.618825 266.37009 
L 181.578425 266.37009 
L 181.457225 265.943402 
L 181.295625 265.943402 
L 181.174425 265.516715 
L 181.134025 265.516715 
L 181.012825 265.090027 
L 180.851225 265.090027 
L 180.730025 264.663339 
L 180.689625 264.663339 
L 180.568425 264.236652 
L 180.406825 264.236652 
L 180.285625 263.809964 
L 180.245225 263.809964 
L 180.124025 263.383276 
L 179.962425 263.383276 
L 179.841225 262.956589 
L 179.800825 262.956589 
L 179.679625 262.529901 
L 179.518025 262.529901 
L 179.396825 262.103213 
L 179.356425 262.103213 
L 179.235225 261.676526 
L 179.073625 261.676526 
L 178.952425 261.249838 
L 178.912025 261.249838 
L 178.790825 260.82315 
L 178.629225 260.82315 
L 178.508025 260.396463 
L 178.467625 260.396463 
L 178.346425 259.969775 
L 178.184825 259.969775 
L 178.063625 259.543087 
L 178.023225 259.543087 
L 177.902025 259.1164 
L 177.740425 259.1164 
L 177.619225 258.689712 
L 177.578825 258.689712 
L 177.457625 258.263024 
L 177.296025 258.263024 
L 177.174825 257.836337 
L 177.134425 257.836337 
L 177.013225 257.409649 
L 176.851625 257.409649 
L 176.730425 256.982961 
L 176.690025 256.982961 
L 176.568825 256.556274 
L 176.407225 256.556274 
L 176.286025 256.129586 
L 176.245625 256.129586 
L 176.124425 255.702898 
L 175.962825 255.702898 
L 175.841625 255.276211 
L 175.801225 255.276211 
L 175.680025 254.849523 
L 175.518425 254.849523 
L 175.397225 254.422835 
L 175.356825 254.422835 
L 175.235625 253.996148 
L 175.074025 253.996148 
L 174.952825 253.56946 
L 174.629625 253.56946 
L 174.508425 253.142772 
L 174.427625 253.142772 
L 174.306425 252.716085 
L 174.185225 252.716085 
L 174.064025 252.289397 
L 173.983225 252.289397 
L 173.862025 251.862709 
L 173.740825 251.862709 
L 173.619625 251.436022 
L 173.538825 251.436022 
L 173.417625 251.009334 
L 173.296425 251.009334 
L 173.175225 250.582646 
L 173.094425 250.582646 
L 172.973225 250.155959 
L 172.852025 250.155959 
L 172.730825 249.729271 
L 172.650025 249.729271 
L 172.528825 249.302583 
L 172.407625 249.302583 
L 172.286425 248.875896 
L 172.205625 248.875896 
L 172.084425 248.449208 
L 171.963225 248.449208 
L 171.842025 248.02252 
L 171.761225 248.02252 
L 171.640025 247.595833 
L 171.518825 247.595833 
L 171.397625 247.169145 
L 171.316825 247.169145 
L 171.195625 246.742457 
L 171.074425 246.742457 
L 170.953225 246.31577 
L 170.872425 246.31577 
L 170.751225 245.889082 
L 170.630025 245.889082 
L 170.508825 245.462394 
L 170.428025 245.462394 
L 170.306825 245.035707 
L 170.185625 245.035707 
L 170.064425 244.609019 
L 169.983625 244.609019 
L 169.862425 244.182331 
L 169.741225 244.182331 
L 169.620025 243.755644 
L 169.539225 243.755644 
L 169.418025 243.328956 
L 169.296825 243.328956 
L 169.175625 242.902268 
L 169.094825 242.902268 
L 168.973625 242.475581 
L 168.852425 242.475581 
L 168.731225 242.048893 
L 168.650425 242.048893 
L 168.529225 241.622205 
L 168.408025 241.622205 
L 168.286825 241.195518 
L 168.165625 241.195518 
L 168.044425 240.76883 
L 167.963625 240.76883 
L 167.842425 240.342142 
L 167.721225 240.342142 
L 167.600025 239.915455 
L 167.519225 239.915455 
L 167.398025 239.488767 
L 167.276825 239.488767 
L 167.155625 239.062079 
L 167.074825 239.062079 
L 166.953625 238.635392 
L 166.832425 238.635392 
L 166.711225 238.208704 
L 166.630425 238.208704 
L 166.509225 237.782016 
L 166.388025 237.782016 
L 166.266825 237.355329 
L 166.186025 237.355329 
L 166.064825 236.928641 
L 165.741625 236.928641 
L 165.620425 236.501953 
L 165.418425 236.501953 
L 165.297225 236.075266 
L 164.974025 236.075266 
L 164.812425 235.22189 
L 164.529625 235.22189 
L 164.368025 234.368515 
L 164.085225 234.368515 
L 163.923625 233.51514 
L 163.640825 233.51514 
L 163.479225 232.661764 
L 163.196425 232.661764 
L 163.034825 231.808389 
L 162.752025 231.808389 
L 162.590425 230.955014 
L 162.307625 230.955014 
L 162.146025 230.101638 
L 161.863225 230.101638 
L 161.701625 229.248263 
L 161.418825 229.248263 
L 161.257225 228.394887 
L 160.974425 228.394887 
L 160.812825 227.541512 
L 160.530025 227.541512 
L 160.368425 226.688137 
L 160.085625 226.688137 
L 159.924025 225.834761 
L 159.641225 225.834761 
L 159.479625 224.981386 
L 159.196825 224.981386 
L 159.035225 224.128011 
L 158.752425 224.128011 
L 158.590825 223.274635 
L 158.308025 223.274635 
L 158.146425 222.42126 
L 157.863625 222.42126 
L 157.702025 221.567885 
L 157.419225 221.567885 
L 157.257625 220.714509 
L 156.974825 220.714509 
L 156.813225 219.861134 
L 156.530425 219.861134 
L 156.368825 219.007759 
L 156.086025 219.007759 
L 155.924425 218.154383 
L 155.641625 218.154383 
L 155.480025 217.301008 
L 155.197225 217.301008 
L 155.035625 216.447633 
L 154.752825 216.447633 
L 154.591225 215.594257 
L 154.308425 215.594257 
L 154.146825 214.740882 
L 153.864025 214.740882 
L 153.702425 213.887507 
L 153.419625 213.887507 
L 153.258025 213.034131 
L 152.975225 213.034131 
L 152.813625 212.180756 
L 152.530825 212.180756 
L 152.369225 211.327381 
L 152.086425 211.327381 
L 151.924825 210.474005 
L 151.642025 210.474005 
L 151.480425 209.62063 
L 151.197625 209.62063 
L 151.036025 208.767255 
L 150.753225 208.767255 
L 150.591625 207.913879 
L 150.308825 207.913879 
L 150.147225 207.060504 
L 149.864425 207.060504 
L 149.702825 206.207129 
L 149.420025 206.207129 
L 149.258425 205.353753 
L 148.975625 205.353753 
L 148.814025 204.500378 
L 148.531225 204.500378 
L 148.369625 203.647003 
L 148.086825 203.647003 
L 147.925225 202.793627 
L 147.642425 202.793627 
L 147.480825 201.940252 
L 147.198025 201.940252 
L 147.036425 201.086877 
L 146.753625 201.086877 
L 146.592025 200.233501 
L 146.309225 200.233501 
L 146.147625 199.380126 
L 145.864825 199.380126 
L 145.703225 198.526751 
L 145.420425 198.526751 
L 145.258825 197.673375 
L 144.976025 197.673375 
L 144.814425 196.82 
L 144.531625 196.82 
L 144.370025 195.966625 
L 144.087225 195.966625 
L 143.966025 195.539937 
L 143.642825 195.539937 
L 143.481225 194.686562 
L 143.198425 194.686562 
L 143.036825 193.833186 
L 142.754025 193.833186 
L 142.592425 192.979811 
L 142.309625 192.979811 
L 142.148025 192.126436 
L 141.824825 192.126436 
L 141.703625 191.699748 
L 141.461225 191.699748 
L 141.299625 190.846373 
L 141.016825 190.846373 
L 140.855225 189.992997 
L 140.572425 189.992997 
L 140.410825 189.139622 
L 140.128025 189.139622 
L 139.966425 188.286247 
L 139.683625 188.286247 
L 139.522025 187.432871 
L 139.239225 187.432871 
L 139.077625 186.579496 
L 138.794825 186.579496 
L 138.633225 185.726121 
L 138.350425 185.726121 
L 138.188825 184.872745 
L 137.906025 184.872745 
L 137.744425 184.01937 
L 137.461625 184.01937 
L 137.300025 183.165995 
L 137.017225 183.165995 
L 136.855625 182.312619 
L 136.572825 182.312619 
L 136.411225 181.459244 
L 136.128425 181.459244 
L 135.966825 180.605869 
L 135.684025 180.605869 
L 135.522425 179.752493 
L 135.239625 179.752493 
L 135.078025 178.899118 
L 134.795225 178.899118 
L 134.633625 178.045743 
L 134.350825 178.045743 
L 134.229625 177.619055 
L 133.906425 177.619055 
L 133.744825 176.76568 
L 133.462025 176.76568 
L 133.300425 175.912304 
L 133.017625 175.912304 
L 132.856025 175.058929 
L 132.573225 175.058929 
L 132.411625 174.205554 
L 132.128825 174.205554 
L 131.967225 173.352178 
L 131.684425 173.352178 
L 131.522825 172.498803 
L 131.118825 172.498803 
L 130.957225 171.645428 
L 130.674425 171.645428 
L 130.512825 170.792052 
L 130.230025 170.792052 
L 130.068425 169.938677 
L 129.785625 169.938677 
L 129.624025 169.085302 
L 129.341225 169.085302 
L 129.179625 168.231926 
L 128.896825 168.231926 
L 128.735225 167.378551 
L 128.452425 167.378551 
L 128.290825 166.525176 
L 128.008025 166.525176 
L 127.846425 165.6718 
L 127.563625 165.6718 
L 127.402025 164.818425 
L 127.119225 164.818425 
L 126.957625 163.96505 
L 126.594025 163.96505 
L 126.472825 163.538362 
L 126.149625 163.538362 
L 126.028425 163.111674 
L 125.947625 163.111674 
L 125.826425 162.684986 
L 125.705225 162.684986 
L 125.584025 162.258299 
L 125.260825 162.258299 
L 125.139625 161.831611 
L 125.099225 161.831611 
L 124.978025 161.404923 
L 124.816425 161.404923 
L 124.695225 160.978236 
L 124.654825 160.978236 
L 124.533625 160.551548 
L 124.372025 160.551548 
L 124.250825 160.12486 
L 124.210425 160.12486 
L 124.089225 159.698173 
L 123.927625 159.698173 
L 123.806425 159.271485 
L 123.766025 159.271485 
L 123.644825 158.844797 
L 123.483225 158.844797 
L 123.362025 158.41811 
L 123.321625 158.41811 
L 123.200425 157.991422 
L 123.038825 157.991422 
L 122.917625 157.564734 
L 122.877225 157.564734 
L 122.756025 157.138047 
L 122.594425 157.138047 
L 122.473225 156.711359 
L 122.432825 156.711359 
L 122.311625 156.284671 
L 122.150025 156.284671 
L 122.028825 155.857984 
L 121.988425 155.857984 
L 121.867225 155.431296 
L 121.705625 155.431296 
L 121.584425 155.004608 
L 121.544025 155.004608 
L 121.422825 154.577921 
L 121.261225 154.577921 
L 121.140025 154.151233 
L 121.099625 154.151233 
L 120.978425 153.724545 
L 120.816825 153.724545 
L 120.695625 153.297858 
L 120.655225 153.297858 
L 120.534025 152.87117 
L 120.372425 152.87117 
L 120.251225 152.444482 
L 120.210825 152.444482 
L 120.089625 152.017795 
L 119.928025 152.017795 
L 119.806825 151.591107 
L 119.766425 151.591107 
L 119.645225 151.164419 
L 119.483625 151.164419 
L 119.362425 150.737732 
L 119.039225 150.737732 
L 118.877625 149.884356 
L 118.594825 149.884356 
L 118.433225 149.030981 
L 118.150425 149.030981 
L 117.988825 148.177606 
L 117.706025 148.177606 
L 117.544425 147.32423 
L 117.261625 147.32423 
L 117.100025 146.470855 
L 116.817225 146.470855 
L 116.655625 145.61748 
L 116.372825 145.61748 
L 116.211225 144.764104 
L 115.928425 144.764104 
L 115.766825 143.910729 
L 115.484025 143.910729 
L 115.322425 143.057354 
L 115.039625 143.057354 
L 114.878025 142.203978 
L 114.595225 142.203978 
L 114.433625 141.350603 
L 114.150825 141.350603 
L 113.989225 140.497228 
L 113.706425 140.497228 
L 113.585225 140.07054 
L 113.544825 140.07054 
L 113.423625 139.643852 
L 113.262025 139.643852 
L 113.140825 139.217165 
L 112.817625 139.217165 
L 112.656025 138.363789 
L 112.373225 138.363789 
L 112.211625 137.510414 
L 111.928825 137.510414 
L 111.767225 136.657039 
L 111.484425 136.657039 
L 111.322825 135.803663 
L 111.040025 135.803663 
L 110.878425 134.950288 
L 110.595625 134.950288 
L 110.474425 134.5236 
L 110.151225 134.5236 
L 110.030025 134.096913 
L 109.747225 134.096913 
L 109.585625 133.243537 
L 109.262425 133.243537 
L 109.141225 132.81685 
L 108.898825 132.81685 
L 108.737225 131.963474 
L 108.454425 131.963474 
L 108.292825 131.110099 
L 108.010025 131.110099 
L 107.848425 130.256724 
L 107.565625 130.256724 
L 107.404025 129.403348 
L 107.121225 129.403348 
L 106.959625 128.549973 
L 106.676825 128.549973 
L 106.515225 127.696598 
L 106.232425 127.696598 
L 106.070825 126.843222 
L 105.788025 126.843222 
L 105.626425 125.989847 
L 105.343625 125.989847 
L 105.182025 125.136472 
L 104.899225 125.136472 
L 104.737625 124.283096 
L 104.454825 124.283096 
L 104.293225 123.429721 
L 104.010425 123.429721 
L 103.848825 122.576346 
L 103.566025 122.576346 
L 103.404425 121.72297 
L 103.121625 121.72297 
L 102.960025 120.869595 
L 102.677225 120.869595 
L 102.515625 120.01622 
L 102.232825 120.01622 
L 102.071225 119.162844 
L 101.788425 119.162844 
L 101.626825 118.309469 
L 101.344025 118.309469 
L 101.182425 117.456094 
L 100.899625 117.456094 
L 100.738025 116.602718 
L 100.455225 116.602718 
L 100.293625 115.749343 
L 100.010825 115.749343 
L 99.849225 114.895968 
L 99.566425 114.895968 
L 99.404825 114.042592 
L 99.122025 114.042592 
L 98.960425 113.189217 
L 98.677625 113.189217 
L 98.516025 112.335842 
L 98.233225 112.335842 
L 98.071625 111.482466 
L 97.788825 111.482466 
L 97.627225 110.629091 
L 97.304025 110.629091 
L 97.142425 109.775716 
L 96.859625 109.775716 
L 96.698025 108.92234 
L 96.415225 108.92234 
L 96.253625 108.068965 
L 95.970825 108.068965 
L 95.768825 106.788902 
L 95.526425 106.788902 
L 95.324425 105.508839 
L 95.082025 105.508839 
L 94.880025 104.228776 
L 94.637625 104.228776 
L 94.435625 102.948713 
L 94.193225 102.948713 
L 93.991225 101.66865 
L 93.748825 101.66865 
L 93.546825 100.388587 
L 93.304425 100.388587 
L 93.102425 99.108524 
L 92.860025 99.108524 
L 92.658025 97.828461 
L 92.415625 97.828461 
L 92.213625 96.548398 
L 91.971225 96.548398 
L 91.769225 95.268335 
L 91.526825 95.268335 
L 91.365225 94.414959 
L 91.082425 94.414959 
L 90.920825 93.134896 
L 90.597625 93.134896 
L 90.476425 92.708209 
L 90.234025 92.708209 
L 90.032025 91.428146 
L 89.789625 91.428146 
L 89.587625 90.148083 
L 89.345225 90.148083 
L 89.183625 89.294707 
L 89.102825 89.294707 
L 88.981625 88.86802 
L 88.900825 88.86802 
L 88.739225 88.014644 
L 88.658425 88.014644 
L 88.537225 87.587957 
L 88.416025 87.587957 
L 88.294825 87.161269 
L 88.214025 87.161269 
L 88.092825 86.734581 
L 87.971625 86.734581 
L 87.850425 85.881206 
L 87.769625 85.881206 
L 87.648425 85.454518 
L 87.527225 85.454518 
L 87.406025 84.601143 
L 87.325225 84.601143 
L 87.204025 84.174455 
L 87.082825 84.174455 
L 86.961625 83.32108 
L 86.880825 83.32108 
L 86.759625 82.894392 
L 86.638425 82.894392 
L 86.517225 82.041017 
L 86.436425 82.041017 
L 86.315225 81.614329 
L 86.194025 81.614329 
L 86.072825 80.760954 
L 85.992025 80.760954 
L 85.870825 80.334266 
L 85.749625 80.334266 
L 85.628425 79.480891 
L 85.547625 79.480891 
L 85.426425 79.054203 
L 85.305225 79.054203 
L 85.184025 78.200828 
L 85.103225 78.200828 
L 84.982025 77.77414 
L 84.860825 77.77414 
L 84.739625 76.920765 
L 84.658825 76.920765 
L 84.537625 76.494077 
L 84.416425 76.494077 
L 84.295225 75.640702 
L 84.214425 75.640702 
L 84.093225 75.214014 
L 83.972025 75.214014 
L 83.850825 74.360639 
L 83.770025 74.360639 
L 83.648825 73.933951 
L 83.527625 73.933951 
L 83.406425 73.080576 
L 83.325625 73.080576 
L 83.204425 72.653888 
L 83.083225 72.653888 
L 82.962025 71.800513 
L 82.881225 71.800513 
L 82.760025 71.373825 
L 82.638825 71.373825 
L 82.517625 70.52045 
L 82.194425 70.52045 
L 82.073225 69.667075 
L 81.750025 69.667075 
L 81.628825 68.813699 
L 81.386425 68.813699 
L 81.184425 67.533636 
L 80.942025 67.533636 
L 80.740025 66.253573 
L 80.497625 66.253573 
L 80.295625 64.97351 
L 79.972425 64.97351 
L 79.810825 64.120135 
L 79.528025 64.120135 
L 79.366425 62.840072 
L 79.083625 62.840072 
L 78.922025 61.986697 
L 78.639225 61.986697 
L 78.477625 60.706634 
L 78.194825 60.706634 
L 78.033225 59.426571 
L 77.750425 59.426571 
L 77.588825 58.146508 
L 77.306025 58.146508 
L 77.184825 57.293132 
L 76.861625 57.293132 
L 76.700025 56.013069 
L 76.417225 56.013069 
L 76.255625 54.733006 
L 75.972825 54.733006 
L 75.811225 53.452943 
L 75.528425 53.452943 
L 75.366825 52.17288 
L 75.084025 52.17288 
L 74.922425 50.892817 
L 74.639625 50.892817 
L 74.518425 50.039442 
L 74.195225 50.039442 
L 74.033625 48.759379 
L 73.750825 48.759379 
L 73.589225 47.479316 
L 73.306425 47.479316 
L 73.144825 46.625941 
L 72.862025 46.625941 
L 72.700425 45.772565 
L 72.417625 45.772565 
L 72.215625 44.492502 
L 71.973225 44.492502 
L 71.771225 43.212439 
L 71.528825 43.212439 
L 71.367225 42.359064 
L 71.286425 42.359064 
L 71.165225 41.932376 
L 71.084425 41.932376 
L 70.922825 41.079001 
L 70.640025 41.079001 
L 70.478425 40.225626 
L 70.397625 40.225626 
L 70.276425 39.798938 
L 70.195625 39.798938 
L 70.074425 39.37225 
L 69.751225 39.37225 
L 69.630025 38.945563 
L 69.468425 38.945563 
L 69.347225 38.518875 
L 69.306825 38.518875 
L 69.185625 38.092187 
L 69.024025 38.092187 
L 68.902825 37.238812 
L 68.862425 37.238812 
L 68.741225 36.812124 
L 68.579625 36.812124 
L 68.458425 36.385437 
L 68.418025 36.385437 
L 68.296825 35.958749 
L 68.175625 35.958749 
L 68.014025 35.105374 
L 67.973625 35.105374 
L 67.852425 34.678686 
L 67.731225 34.678686 
L 67.569625 33.825311 
L 67.529225 33.825311 
L 67.408025 33.398623 
L 67.286825 33.398623 
L 67.125225 32.545248 
L 67.084825 32.545248 
L 66.963625 32.11856 
L 66.842425 32.11856 
L 66.680825 31.265185 
L 66.640425 31.265185 
L 66.519225 30.838497 
L 66.398025 30.838497 
L 66.236425 29.985122 
L 66.196025 29.985122 
L 66.074825 29.558434 
L 65.953625 29.558434 
L 65.792025 28.705059 
L 65.751625 28.705059 
L 65.630425 28.278371 
L 65.307225 28.278371 
L 65.186025 27.851683 
L 64.984025 27.851683 
L 64.822425 26.998308 
L 64.539625 26.998308 
L 64.337625 25.718245 
L 64.054825 25.718245 
L 63.893225 24.864869 
L 63.610425 24.864869 
L 63.489225 24.438182 
L 63.166025 24.438182 
L 63.166025 24.438182 
" clip-path="url(#p30c2f10064)" style="fill: none; stroke-dasharray: 7.4,3.2; stroke-dashoffset: 0; stroke: #fa8072; stroke-width: 2"/>
   </g>
   <g id="line2d_35">
    <path d="M 386.325625 369.201818 
L 90.597625 369.201818 
L 90.476425 368.775131 
L 82.032825 368.775131 
L 81.911625 368.348443 
L 63.166025 368.348443 
L 63.166025 368.348443 
" clip-path="url(#p30c2f10064)" style="fill: none; stroke-dasharray: 7.4,3.2; stroke-dashoffset: 0; stroke: #ff4500; stroke-width: 2"/>
   </g>
   <g id="line2d_36">
    <path d="M 386.325625 369.201818 
L 377.033625 369.201818 
L 376.912425 368.775131 
L 334.694425 368.775131 
L 334.573225 368.348443 
L 311.181625 368.348443 
L 311.060425 367.921755 
L 289.042425 367.921755 
L 288.921225 367.495068 
L 273.771225 367.495068 
L 273.650025 367.06838 
L 265.408425 367.06838 
L 265.287225 366.641692 
L 246.218425 366.641692 
L 246.097225 366.215005 
L 180.245225 366.215005 
L 180.124025 365.788317 
L 174.912425 365.788317 
L 174.791225 365.361629 
L 134.472025 365.361629 
L 134.350825 364.934941 
L 88.456425 364.934941 
L 88.335225 364.508254 
L 80.053225 364.508254 
L 79.932025 364.081566 
L 77.265625 364.081566 
L 77.144425 363.654878 
L 63.166025 363.654878 
L 63.166025 363.654878 
" clip-path="url(#p30c2f10064)" style="fill: none; stroke-dasharray: 7.4,3.2; stroke-dashoffset: 0; stroke: #8b0000; stroke-width: 2"/>
   </g>
   <g id="patch_3">
    <path d="M 46.965625 386.44 
L 46.965625 7.2 
" style="fill: none; stroke: #000000; stroke-width: 0.8; stroke-linejoin: miter; stroke-linecap: square"/>
   </g>
   <g id="patch_4">
    <path d="M 402.485625 386.44 
L 402.485625 7.2 
" style="fill: none; stroke: #000000; stroke-width: 0.8; stroke-linejoin: miter; stroke-linecap: square"/>
   </g>
   <g id="patch_5">
    <path d="M 46.965625 386.44 
L 402.485625 386.44 
" style="fill: none; stroke: #000000; stroke-width: 0.8; stroke-linejoin: miter; stroke-linecap: square"/>
   </g>
   <g id="patch_6">
    <path d="M 46.965625 7.2 
L 402.485625 7.2 
" style="fill: none; stroke: #000000; stroke-width: 0.8; stroke-linejoin: miter; stroke-linecap: square"/>
   </g>
   <g id="legend_1">
    <g id="patch_7">
     <path d="M 409.485625 117.946875 
L 558.877813 117.946875 
Q 560.877813 117.946875 560.877813 115.946875 
L 560.877813 14.2 
Q 560.877813 12.2 558.877813 12.2 
L 409.485625 12.2 
Q 407.485625 12.2 407.485625 14.2 
L 407.485625 115.946875 
Q 407.485625 117.946875 409.485625 117.946875 
z
" style="fill: #ffffff; opacity: 0.8; stroke: #cccccc; stroke-linejoin: miter"/>
    </g>
    <g id="text_18">
     <!-- Motifs &amp; orientation -->
     <g transform="translate(434.666094 23.798437) scale(0.1 -0.1)">
      <defs>
       <path id="DejaVuSans-4d" d="M 628 4666 
L 1569 4666 
L 2759 1491 
L 3956 4666 
L 4897 4666 
L 4897 0 
L 4281 0 
L 4281 4097 
L 3078 897 
L 2444 897 
L 1241 4097 
L 1241 0 
L 628 0 
L 628 4666 
z
" transform="scale(0.015625)"/>
       <path id="DejaVuSans-26" d="M 1556 2509 
Q 1272 2256 1139 2004 
Q 1006 1753 1006 1478 
Q 1006 1022 1337 719 
Q 1669 416 2169 416 
Q 2466 416 2725 514 
Q 2984 613 3213 813 
L 1556 2509 
z
M 1997 2859 
L 3584 1234 
Q 3769 1513 3872 1830 
Q 3975 2147 3994 2503 
L 4575 2503 
Q 4538 2091 4375 1687 
Q 4213 1284 3922 891 
L 4794 0 
L 4006 0 
L 3559 459 
Q 3234 181 2878 45 
Q 2522 -91 2113 -91 
Q 1359 -91 881 339 
Q 403 769 403 1441 
Q 403 1841 612 2192 
Q 822 2544 1241 2853 
Q 1091 3050 1012 3245 
Q 934 3441 934 3628 
Q 934 4134 1281 4442 
Q 1628 4750 2203 4750 
Q 2463 4750 2720 4694 
Q 2978 4638 3244 4525 
L 3244 3956 
Q 2972 4103 2725 4179 
Q 2478 4256 2266 4256 
Q 1938 4256 1733 4082 
Q 1528 3909 1528 3634 
Q 1528 3475 1620 3314 
Q 1713 3153 1997 2859 
z
" transform="scale(0.015625)"/>
      </defs>
      <use xlink:href="#DejaVuSans-4d"/>
      <use xlink:href="#DejaVuSans-6f" transform="translate(86.279297 0)"/>
      <use xlink:href="#DejaVuSans-74" transform="translate(147.460938 0)"/>
      <use xlink:href="#DejaVuSans-69" transform="translate(186.669922 0)"/>
      <use xlink:href="#DejaVuSans-66" transform="translate(214.453125 0)"/>
      <use xlink:href="#DejaVuSans-73" transform="translate(249.658203 0)"/>
      <use xlink:href="#DejaVuSans-20" transform="translate(301.757812 0)"/>
      <use xlink:href="#DejaVuSans-26" transform="translate(333.544922 0)"/>
      <use xlink:href="#DejaVuSans-20" transform="translate(411.523438 0)"/>
      <use xlink:href="#DejaVuSans-6f" transform="translate(443.310547 0)"/>
      <use xlink:href="#DejaVuSans-72" transform="translate(504.492188 0)"/>
      <use xlink:href="#DejaVuSans-69" transform="translate(545.605469 0)"/>
      <use xlink:href="#DejaVuSans-65" transform="translate(573.388672 0)"/>
      <use xlink:href="#DejaVuSans-6e" transform="translate(634.912109 0)"/>
      <use xlink:href="#DejaVuSans-74" transform="translate(698.291016 0)"/>
      <use xlink:href="#DejaVuSans-61" transform="translate(737.5 0)"/>
      <use xlink:href="#DejaVuSans-74" transform="translate(798.779297 0)"/>
      <use xlink:href="#DejaVuSans-69" transform="translate(837.988281 0)"/>
      <use xlink:href="#DejaVuSans-6f" transform="translate(865.771484 0)"/>
      <use xlink:href="#DejaVuSans-6e" transform="translate(926.953125 0)"/>
     </g>
    </g>
    <g id="line2d_37">
     <path d="M 411.485625 34.976562 
L 421.485625 34.976562 
L 431.485625 34.976562 
" style="fill: none; stroke: #add8e6; stroke-width: 2; stroke-linecap: square"/>
    </g>
    <g id="text_19">
     <!-- CCCAGACCTAA (5' end) -->
     <g transform="translate(439.485625 38.476562) scale(0.1 -0.1)">
      <defs>
       <path id="DejaVuSans-43" d="M 4122 4306 
L 4122 3641 
Q 3803 3938 3442 4084 
Q 3081 4231 2675 4231 
Q 1875 4231 1450 3742 
Q 1025 3253 1025 2328 
Q 1025 1406 1450 917 
Q 1875 428 2675 428 
Q 3081 428 3442 575 
Q 3803 722 4122 1019 
L 4122 359 
Q 3791 134 3420 21 
Q 3050 -91 2638 -91 
Q 1578 -91 968 557 
Q 359 1206 359 2328 
Q 359 3453 968 4101 
Q 1578 4750 2638 4750 
Q 3056 4750 3426 4639 
Q 3797 4528 4122 4306 
z
" transform="scale(0.015625)"/>
       <path id="DejaVuSans-47" d="M 3809 666 
L 3809 1919 
L 2778 1919 
L 2778 2438 
L 4434 2438 
L 4434 434 
Q 4069 175 3628 42 
Q 3188 -91 2688 -91 
Q 1594 -91 976 548 
Q 359 1188 359 2328 
Q 359 3472 976 4111 
Q 1594 4750 2688 4750 
Q 3144 4750 3555 4637 
Q 3966 4525 4313 4306 
L 4313 3634 
Q 3963 3931 3569 4081 
Q 3175 4231 2741 4231 
Q 1884 4231 1454 3753 
Q 1025 3275 1025 2328 
Q 1025 1384 1454 906 
Q 1884 428 2741 428 
Q 3075 428 3337 486 
Q 3600 544 3809 666 
z
" transform="scale(0.015625)"/>
       <path id="DejaVuSans-54" d="M -19 4666 
L 3928 4666 
L 3928 4134 
L 2272 4134 
L 2272 0 
L 1638 0 
L 1638 4134 
L -19 4134 
L -19 4666 
z
" transform="scale(0.015625)"/>
       <path id="DejaVuSans-28" d="M 1984 4856 
Q 1566 4138 1362 3434 
Q 1159 2731 1159 2009 
Q 1159 1288 1364 580 
Q 1569 -128 1984 -844 
L 1484 -844 
Q 1016 -109 783 600 
Q 550 1309 550 2009 
Q 550 2706 781 3412 
Q 1013 4119 1484 4856 
L 1984 4856 
z
" transform="scale(0.015625)"/>
       <path id="DejaVuSans-27" d="M 1147 4666 
L 1147 2931 
L 616 2931 
L 616 4666 
L 1147 4666 
z
" transform="scale(0.015625)"/>
       <path id="DejaVuSans-64" d="M 2906 2969 
L 2906 4863 
L 3481 4863 
L 3481 0 
L 2906 0 
L 2906 525 
Q 2725 213 2448 61 
Q 2172 -91 1784 -91 
Q 1150 -91 751 415 
Q 353 922 353 1747 
Q 353 2572 751 3078 
Q 1150 3584 1784 3584 
Q 2172 3584 2448 3432 
Q 2725 3281 2906 2969 
z
M 947 1747 
Q 947 1113 1208 752 
Q 1469 391 1925 391 
Q 2381 391 2643 752 
Q 2906 1113 2906 1747 
Q 2906 2381 2643 2742 
Q 2381 3103 1925 3103 
Q 1469 3103 1208 2742 
Q 947 2381 947 1747 
z
" transform="scale(0.015625)"/>
       <path id="DejaVuSans-29" d="M 513 4856 
L 1013 4856 
Q 1481 4119 1714 3412 
Q 1947 2706 1947 2009 
Q 1947 1309 1714 600 
Q 1481 -109 1013 -844 
L 513 -844 
Q 928 -128 1133 580 
Q 1338 1288 1338 2009 
Q 1338 2731 1133 3434 
Q 928 4138 513 4856 
z
" transform="scale(0.015625)"/>
      </defs>
      <use xlink:href="#DejaVuSans-43"/>
      <use xlink:href="#DejaVuSans-43" transform="translate(69.824219 0)"/>
      <use xlink:href="#DejaVuSans-43" transform="translate(139.648438 0)"/>
      <use xlink:href="#DejaVuSans-41" transform="translate(209.472656 0)"/>
      <use xlink:href="#DejaVuSans-47" transform="translate(276.130859 0)"/>
      <use xlink:href="#DejaVuSans-41" transform="translate(353.621094 0)"/>
      <use xlink:href="#DejaVuSans-43" transform="translate(420.279297 0)"/>
      <use xlink:href="#DejaVuSans-43" transform="translate(490.103516 0)"/>
      <use xlink:href="#DejaVuSans-54" transform="translate(559.927734 0)"/>
      <use xlink:href="#DejaVuSans-41" transform="translate(613.261719 0)"/>
      <use xlink:href="#DejaVuSans-41" transform="translate(684.419922 0)"/>
      <use xlink:href="#DejaVuSans-20" transform="translate(752.828125 0)"/>
      <use xlink:href="#DejaVuSans-28" transform="translate(784.615234 0)"/>
      <use xlink:href="#DejaVuSans-35" transform="translate(823.628906 0)"/>
      <use xlink:href="#DejaVuSans-27" transform="translate(887.251953 0)"/>
      <use xlink:href="#DejaVuSans-20" transform="translate(914.742188 0)"/>
      <use xlink:href="#DejaVuSans-65" transform="translate(946.529297 0)"/>
      <use xlink:href="#DejaVuSans-6e" transform="translate(1008.052734 0)"/>
      <use xlink:href="#DejaVuSans-64" transform="translate(1071.431641 0)"/>
      <use xlink:href="#DejaVuSans-29" transform="translate(1134.908203 0)"/>
     </g>
    </g>
    <g id="line2d_38">
     <path d="M 411.485625 49.654688 
L 421.485625 49.654688 
L 431.485625 49.654688 
" style="fill: none; stroke: #6495ed; stroke-width: 2; stroke-linecap: square"/>
    </g>
    <g id="text_20">
     <!-- CCCAGACTAA (5' end) -->
     <g transform="translate(439.485625 53.154688) scale(0.1 -0.1)">
      <use xlink:href="#DejaVuSans-43"/>
      <use xlink:href="#DejaVuSans-43" transform="translate(69.824219 0)"/>
      <use xlink:href="#DejaVuSans-43" transform="translate(139.648438 0)"/>
      <use xlink:href="#DejaVuSans-41" transform="translate(209.472656 0)"/>
      <use xlink:href="#DejaVuSans-47" transform="translate(276.130859 0)"/>
      <use xlink:href="#DejaVuSans-41" transform="translate(353.621094 0)"/>
      <use xlink:href="#DejaVuSans-43" transform="translate(420.279297 0)"/>
      <use xlink:href="#DejaVuSans-54" transform="translate(490.103516 0)"/>
      <use xlink:href="#DejaVuSans-41" transform="translate(543.4375 0)"/>
      <use xlink:href="#DejaVuSans-41" transform="translate(614.595703 0)"/>
      <use xlink:href="#DejaVuSans-20" transform="translate(683.003906 0)"/>
      <use xlink:href="#DejaVuSans-28" transform="translate(714.791016 0)"/>
      <use xlink:href="#DejaVuSans-35" transform="translate(753.804688 0)"/>
      <use xlink:href="#DejaVuSans-27" transform="translate(817.427734 0)"/>
      <use xlink:href="#DejaVuSans-20" transform="translate(844.917969 0)"/>
      <use xlink:href="#DejaVuSans-65" transform="translate(876.705078 0)"/>
      <use xlink:href="#DejaVuSans-6e" transform="translate(938.228516 0)"/>
      <use xlink:href="#DejaVuSans-64" transform="translate(1001.607422 0)"/>
      <use xlink:href="#DejaVuSans-29" transform="translate(1065.083984 0)"/>
     </g>
    </g>
    <g id="line2d_39">
     <path d="M 411.485625 64.332812 
L 421.485625 64.332812 
L 431.485625 64.332812 
" style="fill: none; stroke: #00008b; stroke-width: 2; stroke-linecap: square"/>
    </g>
    <g id="text_21">
     <!-- CCCTAA (5' end) -->
     <g transform="translate(439.485625 67.832812) scale(0.1 -0.1)">
      <use xlink:href="#DejaVuSans-43"/>
      <use xlink:href="#DejaVuSans-43" transform="translate(69.824219 0)"/>
      <use xlink:href="#DejaVuSans-43" transform="translate(139.648438 0)"/>
      <use xlink:href="#DejaVuSans-54" transform="translate(209.472656 0)"/>
      <use xlink:href="#DejaVuSans-41" transform="translate(262.806641 0)"/>
      <use xlink:href="#DejaVuSans-41" transform="translate(333.964844 0)"/>
      <use xlink:href="#DejaVuSans-20" transform="translate(402.373047 0)"/>
      <use xlink:href="#DejaVuSans-28" transform="translate(434.160156 0)"/>
      <use xlink:href="#DejaVuSans-35" transform="translate(473.173828 0)"/>
      <use xlink:href="#DejaVuSans-27" transform="translate(536.796875 0)"/>
      <use xlink:href="#DejaVuSans-20" transform="translate(564.287109 0)"/>
      <use xlink:href="#DejaVuSans-65" transform="translate(596.074219 0)"/>
      <use xlink:href="#DejaVuSans-6e" transform="translate(657.597656 0)"/>
      <use xlink:href="#DejaVuSans-64" transform="translate(720.976562 0)"/>
      <use xlink:href="#DejaVuSans-29" transform="translate(784.453125 0)"/>
     </g>
    </g>
    <g id="line2d_40">
     <path d="M 411.485625 79.010938 
L 421.485625 79.010938 
L 431.485625 79.010938 
" style="fill: none; stroke-dasharray: 7.4,3.2; stroke-dashoffset: 0; stroke: #fa8072; stroke-width: 2"/>
    </g>
    <g id="text_22">
     <!-- TTAGGTCTGGG (3' end) -->
     <g transform="translate(439.485625 82.510938) scale(0.1 -0.1)">
      <use xlink:href="#DejaVuSans-54"/>
      <use xlink:href="#DejaVuSans-54" transform="translate(59.333984 0)"/>
      <use xlink:href="#DejaVuSans-41" transform="translate(112.667969 0)"/>
      <use xlink:href="#DejaVuSans-47" transform="translate(179.326172 0)"/>
      <use xlink:href="#DejaVuSans-47" transform="translate(256.816406 0)"/>
      <use xlink:href="#DejaVuSans-54" transform="translate(330.681641 0)"/>
      <use xlink:href="#DejaVuSans-43" transform="translate(385.890625 0)"/>
      <use xlink:href="#DejaVuSans-54" transform="translate(455.714844 0)"/>
      <use xlink:href="#DejaVuSans-47" transform="translate(516.798828 0)"/>
      <use xlink:href="#DejaVuSans-47" transform="translate(594.289062 0)"/>
      <use xlink:href="#DejaVuSans-47" transform="translate(671.779297 0)"/>
      <use xlink:href="#DejaVuSans-20" transform="translate(749.269531 0)"/>
      <use xlink:href="#DejaVuSans-28" transform="translate(781.056641 0)"/>
      <use xlink:href="#DejaVuSans-33" transform="translate(820.070312 0)"/>
      <use xlink:href="#DejaVuSans-27" transform="translate(883.693359 0)"/>
      <use xlink:href="#DejaVuSans-20" transform="translate(911.183594 0)"/>
      <use xlink:href="#DejaVuSans-65" transform="translate(942.970703 0)"/>
      <use xlink:href="#DejaVuSans-6e" transform="translate(1004.494141 0)"/>
      <use xlink:href="#DejaVuSans-64" transform="translate(1067.873047 0)"/>
      <use xlink:href="#DejaVuSans-29" transform="translate(1131.349609 0)"/>
     </g>
    </g>
    <g id="line2d_41">
     <path d="M 411.485625 93.689063 
L 421.485625 93.689063 
L 431.485625 93.689063 
" style="fill: none; stroke-dasharray: 7.4,3.2; stroke-dashoffset: 0; stroke: #ff4500; stroke-width: 2"/>
    </g>
    <g id="text_23">
     <!-- TTAGTCTGGG (3' end) -->
     <g transform="translate(439.485625 97.189063) scale(0.1 -0.1)">
      <use xlink:href="#DejaVuSans-54"/>
      <use xlink:href="#DejaVuSans-54" transform="translate(59.333984 0)"/>
      <use xlink:href="#DejaVuSans-41" transform="translate(112.667969 0)"/>
      <use xlink:href="#DejaVuSans-47" transform="translate(179.326172 0)"/>
      <use xlink:href="#DejaVuSans-54" transform="translate(253.191406 0)"/>
      <use xlink:href="#DejaVuSans-43" transform="translate(308.400391 0)"/>
      <use xlink:href="#DejaVuSans-54" transform="translate(378.224609 0)"/>
      <use xlink:href="#DejaVuSans-47" transform="translate(439.308594 0)"/>
      <use xlink:href="#DejaVuSans-47" transform="translate(516.798828 0)"/>
      <use xlink:href="#DejaVuSans-47" transform="translate(594.289062 0)"/>
      <use xlink:href="#DejaVuSans-20" transform="translate(671.779297 0)"/>
      <use xlink:href="#DejaVuSans-28" transform="translate(703.566406 0)"/>
      <use xlink:href="#DejaVuSans-33" transform="translate(742.580078 0)"/>
      <use xlink:href="#DejaVuSans-27" transform="translate(806.203125 0)"/>
      <use xlink:href="#DejaVuSans-20" transform="translate(833.693359 0)"/>
      <use xlink:href="#DejaVuSans-65" transform="translate(865.480469 0)"/>
      <use xlink:href="#DejaVuSans-6e" transform="translate(927.003906 0)"/>
      <use xlink:href="#DejaVuSans-64" transform="translate(990.382812 0)"/>
      <use xlink:href="#DejaVuSans-29" transform="translate(1053.859375 0)"/>
     </g>
    </g>
    <g id="line2d_42">
     <path d="M 411.485625 108.367188 
L 421.485625 108.367188 
L 431.485625 108.367188 
" style="fill: none; stroke-dasharray: 7.4,3.2; stroke-dashoffset: 0; stroke: #8b0000; stroke-width: 2"/>
    </g>
    <g id="text_24">
     <!-- TTAGGG (3' end) -->
     <g transform="translate(439.485625 111.867188) scale(0.1 -0.1)">
      <use xlink:href="#DejaVuSans-54"/>
      <use xlink:href="#DejaVuSans-54" transform="translate(59.333984 0)"/>
      <use xlink:href="#DejaVuSans-41" transform="translate(112.667969 0)"/>
      <use xlink:href="#DejaVuSans-47" transform="translate(179.326172 0)"/>
      <use xlink:href="#DejaVuSans-47" transform="translate(256.816406 0)"/>
      <use xlink:href="#DejaVuSans-47" transform="translate(334.306641 0)"/>
      <use xlink:href="#DejaVuSans-20" transform="translate(411.796875 0)"/>
      <use xlink:href="#DejaVuSans-28" transform="translate(443.583984 0)"/>
      <use xlink:href="#DejaVuSans-33" transform="translate(482.597656 0)"/>
      <use xlink:href="#DejaVuSans-27" transform="translate(546.220703 0)"/>
      <use xlink:href="#DejaVuSans-20" transform="translate(573.710938 0)"/>
      <use xlink:href="#DejaVuSans-65" transform="translate(605.498047 0)"/>
      <use xlink:href="#DejaVuSans-6e" transform="translate(667.021484 0)"/>
      <use xlink:href="#DejaVuSans-64" transform="translate(730.400391 0)"/>
      <use xlink:href="#DejaVuSans-29" transform="translate(793.876953 0)"/>
     </g>
    </g>
   </g>
  </g>
 </g>
 <defs>
  <clipPath id="p30c2f10064">
   <rect x="46.965625" y="7.2" width="355.52" height="379.24"/>
  </clipPath>
 </defs>
</svg>
