<?xml version="1.0" encoding="utf-8" standalone="no"?>
<!DOCTYPE svg PUBLIC "-//W3C//DTD SVG 1.1//EN"
  "http://www.w3.org/Graphics/SVG/1.1/DTD/svg11.dtd">
<svg xmlns:xlink="http://www.w3.org/1999/xlink" width="568.077813pt" height="423.99625pt" viewBox="0 0 568.077813 423.99625" xmlns="http://www.w3.org/2000/svg" version="1.1">
 <metadata>
  <rdf:RDF xmlns:dc="http://purl.org/dc/elements/1.1/" xmlns:cc="http://creativecommons.org/ns#" xmlns:rdf="http://www.w3.org/1999/02/22-rdf-syntax-ns#">
   <cc:Work>
    <dc:type rdf:resource="http://purl.org/dc/dcmitype/StillImage"/>
    <dc:date>2026-04-30T15:25:32.027223</dc:date>
    <dc:format>image/svg+xml</dc:format>
    <dc:creator>
     <cc:Agent>
      <dc:title>Matplotlib v3.10.6, https://matplotlib.org/</dc:title>
     </cc:Agent>
    </dc:creator>
   </cc:Work>
  </rdf:RDF>
 </metadata>
 <defs>
  <style type="text/css">*{stroke-linejoin: round; stroke-linecap: butt}</style>
 </defs>
 <g id="figure_1">
  <g id="patch_1">
   <path d="M 0 423.99625 
L 568.077813 423.99625 
L 568.077813 0 
L 0 0 
z
" style="fill: #ffffff"/>
  </g>
  <g id="axes_1">
   <g id="patch_2">
    <path d="M 46.965625 386.44 
L 402.485625 386.44 
L 402.485625 7.2 
L 46.965625 7.2 
z
" style="fill: #ffffff"/>
   </g>
   <g id="matplotlib.axis_1">
    <g id="xtick_1">
     <g id="line2d_1">
      <path d="M 63.125625 386.44 
L 63.125625 7.2 
" clip-path="url(#p0a9d6bd3f0)" style="fill: none; stroke-dasharray: 2.96,1.28; stroke-dashoffset: 0; stroke: #b0b0b0; stroke-opacity: 0.6; stroke-width: 0.8"/>
     </g>
     <g id="line2d_2">
      <defs>
       <path id="m9013f1161c" d="M 0 0 
L 0 3.5 
" style="stroke: #000000; stroke-width: 0.8"/>
      </defs>
      <g>
       <use xlink:href="#m9013f1161c" x="63.125625" y="386.44" style="stroke: #000000; stroke-width: 0.8"/>
      </g>
     </g>
     <g id="text_1">
      <!-- 0 -->
      <g transform="translate(59.944375 401.038437) scale(0.1 -0.1)">
       <defs>
        <path id="DejaVuSans-30" d="M 2034 4250 
Q 1547 4250 1301 3770 
Q 1056 3291 1056 2328 
Q 1056 1369 1301 889 
Q 1547 409 2034 409 
Q 2525 409 2770 889 
Q 3016 1369 3016 2328 
Q 3016 3291 2770 3770 
Q 2525 4250 2034 4250 
z
M 2034 4750 
Q 2819 4750 3233 4129 
Q 3647 3509 3647 2328 
Q 3647 1150 3233 529 
Q 2819 -91 2034 -91 
Q 1250 -91 836 529 
Q 422 1150 422 2328 
Q 422 3509 836 4129 
Q 1250 4750 2034 4750 
z
" transform="scale(0.015625)"/>
       </defs>
       <use xlink:href="#DejaVuSans-30"/>
      </g>
     </g>
    </g>
    <g id="xtick_2">
     <g id="line2d_3">
      <path d="M 103.525625 386.44 
L 103.525625 7.2 
" clip-path="url(#p0a9d6bd3f0)" style="fill: none; stroke-dasharray: 2.96,1.28; stroke-dashoffset: 0; stroke: #b0b0b0; stroke-opacity: 0.6; stroke-width: 0.8"/>
     </g>
     <g id="line2d_4">
      <g>
       <use xlink:href="#m9013f1161c" x="103.525625" y="386.44" style="stroke: #000000; stroke-width: 0.8"/>
      </g>
     </g>
     <g id="text_2">
      <!-- 1000 -->
      <g transform="translate(90.800625 401.038437) scale(0.1 -0.1)">
       <defs>
        <path id="DejaVuSans-31" d="M 794 531 
L 1825 531 
L 1825 4091 
L 703 3866 
L 703 4441 
L 1819 4666 
L 2450 4666 
L 2450 531 
L 3481 531 
L 3481 0 
L 794 0 
L 794 531 
z
" transform="scale(0.015625)"/>
       </defs>
       <use xlink:href="#DejaVuSans-31"/>
       <use xlink:href="#DejaVuSans-30" transform="translate(63.623047 0)"/>
       <use xlink:href="#DejaVuSans-30" transform="translate(127.246094 0)"/>
       <use xlink:href="#DejaVuSans-30" transform="translate(190.869141 0)"/>
      </g>
     </g>
    </g>
    <g id="xtick_3">
     <g id="line2d_5">
      <path d="M 143.925625 386.44 
L 143.925625 7.2 
" clip-path="url(#p0a9d6bd3f0)" style="fill: none; stroke-dasharray: 2.96,1.28; stroke-dashoffset: 0; stroke: #b0b0b0; stroke-opacity: 0.6; stroke-width: 0.8"/>
     </g>
     <g id="line2d_6">
      <g>
       <use xlink:href="#m9013f1161c" x="143.925625" y="386.44" style="stroke: #000000; stroke-width: 0.8"/>
      </g>
     </g>
     <g id="text_3">
      <!-- 2000 -->
      <g transform="translate(131.200625 401.038437) scale(0.1 -0.1)">
       <defs>
        <path id="DejaVuSans-32" d="M 1228 531 
L 3431 531 
L 3431 0 
L 469 0 
L 469 531 
Q 828 903 1448 1529 
Q 2069 2156 2228 2338 
Q 2531 2678 2651 2914 
Q 2772 3150 2772 3378 
Q 2772 3750 2511 3984 
Q 2250 4219 1831 4219 
Q 1534 4219 1204 4116 
Q 875 4013 500 3803 
L 500 4441 
Q 881 4594 1212 4672 
Q 1544 4750 1819 4750 
Q 2544 4750 2975 4387 
Q 3406 4025 3406 3419 
Q 3406 3131 3298 2873 
Q 3191 2616 2906 2266 
Q 2828 2175 2409 1742 
Q 1991 1309 1228 531 
z
" transform="scale(0.015625)"/>
       </defs>
       <use xlink:href="#DejaVuSans-32"/>
       <use xlink:href="#DejaVuSans-30" transform="translate(63.623047 0)"/>
       <use xlink:href="#DejaVuSans-30" transform="translate(127.246094 0)"/>
       <use xlink:href="#DejaVuSans-30" transform="translate(190.869141 0)"/>
      </g>
     </g>
    </g>
    <g id="xtick_4">
     <g id="line2d_7">
      <path d="M 184.325625 386.44 
L 184.325625 7.2 
" clip-path="url(#p0a9d6bd3f0)" style="fill: none; stroke-dasharray: 2.96,1.28; stroke-dashoffset: 0; stroke: #b0b0b0; stroke-opacity: 0.6; stroke-width: 0.8"/>
     </g>
     <g id="line2d_8">
      <g>
       <use xlink:href="#m9013f1161c" x="184.325625" y="386.44" style="stroke: #000000; stroke-width: 0.8"/>
      </g>
     </g>
     <g id="text_4">
      <!-- 3000 -->
      <g transform="translate(171.600625 401.038437) scale(0.1 -0.1)">
       <defs>
        <path id="DejaVuSans-33" d="M 2597 2516 
Q 3050 2419 3304 2112 
Q 3559 1806 3559 1356 
Q 3559 666 3084 287 
Q 2609 -91 1734 -91 
Q 1441 -91 1130 -33 
Q 819 25 488 141 
L 488 750 
Q 750 597 1062 519 
Q 1375 441 1716 441 
Q 2309 441 2620 675 
Q 2931 909 2931 1356 
Q 2931 1769 2642 2001 
Q 2353 2234 1838 2234 
L 1294 2234 
L 1294 2753 
L 1863 2753 
Q 2328 2753 2575 2939 
Q 2822 3125 2822 3475 
Q 2822 3834 2567 4026 
Q 2313 4219 1838 4219 
Q 1578 4219 1281 4162 
Q 984 4106 628 3988 
L 628 4550 
Q 988 4650 1302 4700 
Q 1616 4750 1894 4750 
Q 2613 4750 3031 4423 
Q 3450 4097 3450 3541 
Q 3450 3153 3228 2886 
Q 3006 2619 2597 2516 
z
" transform="scale(0.015625)"/>
       </defs>
       <use xlink:href="#DejaVuSans-33"/>
       <use xlink:href="#DejaVuSans-30" transform="translate(63.623047 0)"/>
       <use xlink:href="#DejaVuSans-30" transform="translate(127.246094 0)"/>
       <use xlink:href="#DejaVuSans-30" transform="translate(190.869141 0)"/>
      </g>
     </g>
    </g>
    <g id="xtick_5">
     <g id="line2d_9">
      <path d="M 224.725625 386.44 
L 224.725625 7.2 
" clip-path="url(#p0a9d6bd3f0)" style="fill: none; stroke-dasharray: 2.96,1.28; stroke-dashoffset: 0; stroke: #b0b0b0; stroke-opacity: 0.6; stroke-width: 0.8"/>
     </g>
     <g id="line2d_10">
      <g>
       <use xlink:href="#m9013f1161c" x="224.725625" y="386.44" style="stroke: #000000; stroke-width: 0.8"/>
      </g>
     </g>
     <g id="text_5">
      <!-- 4000 -->
      <g transform="translate(212.000625 401.038437) scale(0.1 -0.1)">
       <defs>
        <path id="DejaVuSans-34" d="M 2419 4116 
L 825 1625 
L 2419 1625 
L 2419 4116 
z
M 2253 4666 
L 3047 4666 
L 3047 1625 
L 3713 1625 
L 3713 1100 
L 3047 1100 
L 3047 0 
L 2419 0 
L 2419 1100 
L 313 1100 
L 313 1709 
L 2253 4666 
z
" transform="scale(0.015625)"/>
       </defs>
       <use xlink:href="#DejaVuSans-34"/>
       <use xlink:href="#DejaVuSans-30" transform="translate(63.623047 0)"/>
       <use xlink:href="#DejaVuSans-30" transform="translate(127.246094 0)"/>
       <use xlink:href="#DejaVuSans-30" transform="translate(190.869141 0)"/>
      </g>
     </g>
    </g>
    <g id="xtick_6">
     <g id="line2d_11">
      <path d="M 265.125625 386.44 
L 265.125625 7.2 
" clip-path="url(#p0a9d6bd3f0)" style="fill: none; stroke-dasharray: 2.96,1.28; stroke-dashoffset: 0; stroke: #b0b0b0; stroke-opacity: 0.6; stroke-width: 0.8"/>
     </g>
     <g id="line2d_12">
      <g>
       <use xlink:href="#m9013f1161c" x="265.125625" y="386.44" style="stroke: #000000; stroke-width: 0.8"/>
      </g>
     </g>
     <g id="text_6">
      <!-- 5000 -->
      <g transform="translate(252.400625 401.038437) scale(0.1 -0.1)">
       <defs>
        <path id="DejaVuSans-35" d="M 691 4666 
L 3169 4666 
L 3169 4134 
L 1269 4134 
L 1269 2991 
Q 1406 3038 1543 3061 
Q 1681 3084 1819 3084 
Q 2600 3084 3056 2656 
Q 3513 2228 3513 1497 
Q 3513 744 3044 326 
Q 2575 -91 1722 -91 
Q 1428 -91 1123 -41 
Q 819 9 494 109 
L 494 744 
Q 775 591 1075 516 
Q 1375 441 1709 441 
Q 2250 441 2565 725 
Q 2881 1009 2881 1497 
Q 2881 1984 2565 2268 
Q 2250 2553 1709 2553 
Q 1456 2553 1204 2497 
Q 953 2441 691 2322 
L 691 4666 
z
" transform="scale(0.015625)"/>
       </defs>
       <use xlink:href="#DejaVuSans-35"/>
       <use xlink:href="#DejaVuSans-30" transform="translate(63.623047 0)"/>
       <use xlink:href="#DejaVuSans-30" transform="translate(127.246094 0)"/>
       <use xlink:href="#DejaVuSans-30" transform="translate(190.869141 0)"/>
      </g>
     </g>
    </g>
    <g id="xtick_7">
     <g id="line2d_13">
      <path d="M 305.525625 386.44 
L 305.525625 7.2 
" clip-path="url(#p0a9d6bd3f0)" style="fill: none; stroke-dasharray: 2.96,1.28; stroke-dashoffset: 0; stroke: #b0b0b0; stroke-opacity: 0.6; stroke-width: 0.8"/>
     </g>
     <g id="line2d_14">
      <g>
       <use xlink:href="#m9013f1161c" x="305.525625" y="386.44" style="stroke: #000000; stroke-width: 0.8"/>
      </g>
     </g>
     <g id="text_7">
      <!-- 6000 -->
      <g transform="translate(292.800625 401.038437) scale(0.1 -0.1)">
       <defs>
        <path id="DejaVuSans-36" d="M 2113 2584 
Q 1688 2584 1439 2293 
Q 1191 2003 1191 1497 
Q 1191 994 1439 701 
Q 1688 409 2113 409 
Q 2538 409 2786 701 
Q 3034 994 3034 1497 
Q 3034 2003 2786 2293 
Q 2538 2584 2113 2584 
z
M 3366 4563 
L 3366 3988 
Q 3128 4100 2886 4159 
Q 2644 4219 2406 4219 
Q 1781 4219 1451 3797 
Q 1122 3375 1075 2522 
Q 1259 2794 1537 2939 
Q 1816 3084 2150 3084 
Q 2853 3084 3261 2657 
Q 3669 2231 3669 1497 
Q 3669 778 3244 343 
Q 2819 -91 2113 -91 
Q 1303 -91 875 529 
Q 447 1150 447 2328 
Q 447 3434 972 4092 
Q 1497 4750 2381 4750 
Q 2619 4750 2861 4703 
Q 3103 4656 3366 4563 
z
" transform="scale(0.015625)"/>
       </defs>
       <use xlink:href="#DejaVuSans-36"/>
       <use xlink:href="#DejaVuSans-30" transform="translate(63.623047 0)"/>
       <use xlink:href="#DejaVuSans-30" transform="translate(127.246094 0)"/>
       <use xlink:href="#DejaVuSans-30" transform="translate(190.869141 0)"/>
      </g>
     </g>
    </g>
    <g id="xtick_8">
     <g id="line2d_15">
      <path d="M 345.925625 386.44 
L 345.925625 7.2 
" clip-path="url(#p0a9d6bd3f0)" style="fill: none; stroke-dasharray: 2.96,1.28; stroke-dashoffset: 0; stroke: #b0b0b0; stroke-opacity: 0.6; stroke-width: 0.8"/>
     </g>
     <g id="line2d_16">
      <g>
       <use xlink:href="#m9013f1161c" x="345.925625" y="386.44" style="stroke: #000000; stroke-width: 0.8"/>
      </g>
     </g>
     <g id="text_8">
      <!-- 7000 -->
      <g transform="translate(333.200625 401.038437) scale(0.1 -0.1)">
       <defs>
        <path id="DejaVuSans-37" d="M 525 4666 
L 3525 4666 
L 3525 4397 
L 1831 0 
L 1172 0 
L 2766 4134 
L 525 4134 
L 525 4666 
z
" transform="scale(0.015625)"/>
       </defs>
       <use xlink:href="#DejaVuSans-37"/>
       <use xlink:href="#DejaVuSans-30" transform="translate(63.623047 0)"/>
       <use xlink:href="#DejaVuSans-30" transform="translate(127.246094 0)"/>
       <use xlink:href="#DejaVuSans-30" transform="translate(190.869141 0)"/>
      </g>
     </g>
    </g>
    <g id="xtick_9">
     <g id="line2d_17">
      <path d="M 386.325625 386.44 
L 386.325625 7.2 
" clip-path="url(#p0a9d6bd3f0)" style="fill: none; stroke-dasharray: 2.96,1.28; stroke-dashoffset: 0; stroke: #b0b0b0; stroke-opacity: 0.6; stroke-width: 0.8"/>
     </g>
     <g id="line2d_18">
      <g>
       <use xlink:href="#m9013f1161c" x="386.325625" y="386.44" style="stroke: #000000; stroke-width: 0.8"/>
      </g>
     </g>
     <g id="text_9">
      <!-- 8000 -->
      <g transform="translate(373.600625 401.038437) scale(0.1 -0.1)">
       <defs>
        <path id="DejaVuSans-38" d="M 2034 2216 
Q 1584 2216 1326 1975 
Q 1069 1734 1069 1313 
Q 1069 891 1326 650 
Q 1584 409 2034 409 
Q 2484 409 2743 651 
Q 3003 894 3003 1313 
Q 3003 1734 2745 1975 
Q 2488 2216 2034 2216 
z
M 1403 2484 
Q 997 2584 770 2862 
Q 544 3141 544 3541 
Q 544 4100 942 4425 
Q 1341 4750 2034 4750 
Q 2731 4750 3128 4425 
Q 3525 4100 3525 3541 
Q 3525 3141 3298 2862 
Q 3072 2584 2669 2484 
Q 3125 2378 3379 2068 
Q 3634 1759 3634 1313 
Q 3634 634 3220 271 
Q 2806 -91 2034 -91 
Q 1263 -91 848 271 
Q 434 634 434 1313 
Q 434 1759 690 2068 
Q 947 2378 1403 2484 
z
M 1172 3481 
Q 1172 3119 1398 2916 
Q 1625 2713 2034 2713 
Q 2441 2713 2670 2916 
Q 2900 3119 2900 3481 
Q 2900 3844 2670 4047 
Q 2441 4250 2034 4250 
Q 1625 4250 1398 4047 
Q 1172 3844 1172 3481 
z
" transform="scale(0.015625)"/>
       </defs>
       <use xlink:href="#DejaVuSans-38"/>
       <use xlink:href="#DejaVuSans-30" transform="translate(63.623047 0)"/>
       <use xlink:href="#DejaVuSans-30" transform="translate(127.246094 0)"/>
       <use xlink:href="#DejaVuSans-30" transform="translate(190.869141 0)"/>
      </g>
     </g>
    </g>
    <g id="text_10">
     <!-- Distance from terminus [nt] -->
     <g transform="translate(155.226406 414.716562) scale(0.1 -0.1)">
      <defs>
       <path id="DejaVuSans-44" d="M 1259 4147 
L 1259 519 
L 2022 519 
Q 2988 519 3436 956 
Q 3884 1394 3884 2338 
Q 3884 3275 3436 3711 
Q 2988 4147 2022 4147 
L 1259 4147 
z
M 628 4666 
L 1925 4666 
Q 3281 4666 3915 4102 
Q 4550 3538 4550 2338 
Q 4550 1131 3912 565 
Q 3275 0 1925 0 
L 628 0 
L 628 4666 
z
" transform="scale(0.015625)"/>
       <path id="DejaVuSans-69" d="M 603 3500 
L 1178 3500 
L 1178 0 
L 603 0 
L 603 3500 
z
M 603 4863 
L 1178 4863 
L 1178 4134 
L 603 4134 
L 603 4863 
z
" transform="scale(0.015625)"/>
       <path id="DejaVuSans-73" d="M 2834 3397 
L 2834 2853 
Q 2591 2978 2328 3040 
Q 2066 3103 1784 3103 
Q 1356 3103 1142 2972 
Q 928 2841 928 2578 
Q 928 2378 1081 2264 
Q 1234 2150 1697 2047 
L 1894 2003 
Q 2506 1872 2764 1633 
Q 3022 1394 3022 966 
Q 3022 478 2636 193 
Q 2250 -91 1575 -91 
Q 1294 -91 989 -36 
Q 684 19 347 128 
L 347 722 
Q 666 556 975 473 
Q 1284 391 1588 391 
Q 1994 391 2212 530 
Q 2431 669 2431 922 
Q 2431 1156 2273 1281 
Q 2116 1406 1581 1522 
L 1381 1569 
Q 847 1681 609 1914 
Q 372 2147 372 2553 
Q 372 3047 722 3315 
Q 1072 3584 1716 3584 
Q 2034 3584 2315 3537 
Q 2597 3491 2834 3397 
z
" transform="scale(0.015625)"/>
       <path id="DejaVuSans-74" d="M 1172 4494 
L 1172 3500 
L 2356 3500 
L 2356 3053 
L 1172 3053 
L 1172 1153 
Q 1172 725 1289 603 
Q 1406 481 1766 481 
L 2356 481 
L 2356 0 
L 1766 0 
Q 1100 0 847 248 
Q 594 497 594 1153 
L 594 3053 
L 172 3053 
L 172 3500 
L 594 3500 
L 594 4494 
L 1172 4494 
z
" transform="scale(0.015625)"/>
       <path id="DejaVuSans-61" d="M 2194 1759 
Q 1497 1759 1228 1600 
Q 959 1441 959 1056 
Q 959 750 1161 570 
Q 1363 391 1709 391 
Q 2188 391 2477 730 
Q 2766 1069 2766 1631 
L 2766 1759 
L 2194 1759 
z
M 3341 1997 
L 3341 0 
L 2766 0 
L 2766 531 
Q 2569 213 2275 61 
Q 1981 -91 1556 -91 
Q 1019 -91 701 211 
Q 384 513 384 1019 
Q 384 1609 779 1909 
Q 1175 2209 1959 2209 
L 2766 2209 
L 2766 2266 
Q 2766 2663 2505 2880 
Q 2244 3097 1772 3097 
Q 1472 3097 1187 3025 
Q 903 2953 641 2809 
L 641 3341 
Q 956 3463 1253 3523 
Q 1550 3584 1831 3584 
Q 2591 3584 2966 3190 
Q 3341 2797 3341 1997 
z
" transform="scale(0.015625)"/>
       <path id="DejaVuSans-6e" d="M 3513 2113 
L 3513 0 
L 2938 0 
L 2938 2094 
Q 2938 2591 2744 2837 
Q 2550 3084 2163 3084 
Q 1697 3084 1428 2787 
Q 1159 2491 1159 1978 
L 1159 0 
L 581 0 
L 581 3500 
L 1159 3500 
L 1159 2956 
Q 1366 3272 1645 3428 
Q 1925 3584 2291 3584 
Q 2894 3584 3203 3211 
Q 3513 2838 3513 2113 
z
" transform="scale(0.015625)"/>
       <path id="DejaVuSans-63" d="M 3122 3366 
L 3122 2828 
Q 2878 2963 2633 3030 
Q 2388 3097 2138 3097 
Q 1578 3097 1268 2742 
Q 959 2388 959 1747 
Q 959 1106 1268 751 
Q 1578 397 2138 397 
Q 2388 397 2633 464 
Q 2878 531 3122 666 
L 3122 134 
Q 2881 22 2623 -34 
Q 2366 -91 2075 -91 
Q 1284 -91 818 406 
Q 353 903 353 1747 
Q 353 2603 823 3093 
Q 1294 3584 2113 3584 
Q 2378 3584 2631 3529 
Q 2884 3475 3122 3366 
z
" transform="scale(0.015625)"/>
       <path id="DejaVuSans-65" d="M 3597 1894 
L 3597 1613 
L 953 1613 
Q 991 1019 1311 708 
Q 1631 397 2203 397 
Q 2534 397 2845 478 
Q 3156 559 3463 722 
L 3463 178 
Q 3153 47 2828 -22 
Q 2503 -91 2169 -91 
Q 1331 -91 842 396 
Q 353 884 353 1716 
Q 353 2575 817 3079 
Q 1281 3584 2069 3584 
Q 2775 3584 3186 3129 
Q 3597 2675 3597 1894 
z
M 3022 2063 
Q 3016 2534 2758 2815 
Q 2500 3097 2075 3097 
Q 1594 3097 1305 2825 
Q 1016 2553 972 2059 
L 3022 2063 
z
" transform="scale(0.015625)"/>
       <path id="DejaVuSans-20" transform="scale(0.015625)"/>
       <path id="DejaVuSans-66" d="M 2375 4863 
L 2375 4384 
L 1825 4384 
Q 1516 4384 1395 4259 
Q 1275 4134 1275 3809 
L 1275 3500 
L 2222 3500 
L 2222 3053 
L 1275 3053 
L 1275 0 
L 697 0 
L 697 3053 
L 147 3053 
L 147 3500 
L 697 3500 
L 697 3744 
Q 697 4328 969 4595 
Q 1241 4863 1831 4863 
L 2375 4863 
z
" transform="scale(0.015625)"/>
       <path id="DejaVuSans-72" d="M 2631 2963 
Q 2534 3019 2420 3045 
Q 2306 3072 2169 3072 
Q 1681 3072 1420 2755 
Q 1159 2438 1159 1844 
L 1159 0 
L 581 0 
L 581 3500 
L 1159 3500 
L 1159 2956 
Q 1341 3275 1631 3429 
Q 1922 3584 2338 3584 
Q 2397 3584 2469 3576 
Q 2541 3569 2628 3553 
L 2631 2963 
z
" transform="scale(0.015625)"/>
       <path id="DejaVuSans-6f" d="M 1959 3097 
Q 1497 3097 1228 2736 
Q 959 2375 959 1747 
Q 959 1119 1226 758 
Q 1494 397 1959 397 
Q 2419 397 2687 759 
Q 2956 1122 2956 1747 
Q 2956 2369 2687 2733 
Q 2419 3097 1959 3097 
z
M 1959 3584 
Q 2709 3584 3137 3096 
Q 3566 2609 3566 1747 
Q 3566 888 3137 398 
Q 2709 -91 1959 -91 
Q 1206 -91 779 398 
Q 353 888 353 1747 
Q 353 2609 779 3096 
Q 1206 3584 1959 3584 
z
" transform="scale(0.015625)"/>
       <path id="DejaVuSans-6d" d="M 3328 2828 
Q 3544 3216 3844 3400 
Q 4144 3584 4550 3584 
Q 5097 3584 5394 3201 
Q 5691 2819 5691 2113 
L 5691 0 
L 5113 0 
L 5113 2094 
Q 5113 2597 4934 2840 
Q 4756 3084 4391 3084 
Q 3944 3084 3684 2787 
Q 3425 2491 3425 1978 
L 3425 0 
L 2847 0 
L 2847 2094 
Q 2847 2600 2669 2842 
Q 2491 3084 2119 3084 
Q 1678 3084 1418 2786 
Q 1159 2488 1159 1978 
L 1159 0 
L 581 0 
L 581 3500 
L 1159 3500 
L 1159 2956 
Q 1356 3278 1631 3431 
Q 1906 3584 2284 3584 
Q 2666 3584 2933 3390 
Q 3200 3197 3328 2828 
z
" transform="scale(0.015625)"/>
       <path id="DejaVuSans-75" d="M 544 1381 
L 544 3500 
L 1119 3500 
L 1119 1403 
Q 1119 906 1312 657 
Q 1506 409 1894 409 
Q 2359 409 2629 706 
Q 2900 1003 2900 1516 
L 2900 3500 
L 3475 3500 
L 3475 0 
L 2900 0 
L 2900 538 
Q 2691 219 2414 64 
Q 2138 -91 1772 -91 
Q 1169 -91 856 284 
Q 544 659 544 1381 
z
M 1991 3584 
L 1991 3584 
z
" transform="scale(0.015625)"/>
       <path id="DejaVuSans-5b" d="M 550 4863 
L 1875 4863 
L 1875 4416 
L 1125 4416 
L 1125 -397 
L 1875 -397 
L 1875 -844 
L 550 -844 
L 550 4863 
z
" transform="scale(0.015625)"/>
       <path id="DejaVuSans-5d" d="M 1947 4863 
L 1947 -844 
L 622 -844 
L 622 -397 
L 1369 -397 
L 1369 4416 
L 622 4416 
L 622 4863 
L 1947 4863 
z
" transform="scale(0.015625)"/>
      </defs>
      <use xlink:href="#DejaVuSans-44"/>
      <use xlink:href="#DejaVuSans-69" transform="translate(77.001953 0)"/>
      <use xlink:href="#DejaVuSans-73" transform="translate(104.785156 0)"/>
      <use xlink:href="#DejaVuSans-74" transform="translate(156.884766 0)"/>
      <use xlink:href="#DejaVuSans-61" transform="translate(196.09375 0)"/>
      <use xlink:href="#DejaVuSans-6e" transform="translate(257.373047 0)"/>
      <use xlink:href="#DejaVuSans-63" transform="translate(320.751953 0)"/>
      <use xlink:href="#DejaVuSans-65" transform="translate(375.732422 0)"/>
      <use xlink:href="#DejaVuSans-20" transform="translate(437.255859 0)"/>
      <use xlink:href="#DejaVuSans-66" transform="translate(469.042969 0)"/>
      <use xlink:href="#DejaVuSans-72" transform="translate(504.248047 0)"/>
      <use xlink:href="#DejaVuSans-6f" transform="translate(543.111328 0)"/>
      <use xlink:href="#DejaVuSans-6d" transform="translate(604.292969 0)"/>
      <use xlink:href="#DejaVuSans-20" transform="translate(701.705078 0)"/>
      <use xlink:href="#DejaVuSans-74" transform="translate(733.492188 0)"/>
      <use xlink:href="#DejaVuSans-65" transform="translate(772.701172 0)"/>
      <use xlink:href="#DejaVuSans-72" transform="translate(834.224609 0)"/>
      <use xlink:href="#DejaVuSans-6d" transform="translate(873.587891 0)"/>
      <use xlink:href="#DejaVuSans-69" transform="translate(971 0)"/>
      <use xlink:href="#DejaVuSans-6e" transform="translate(998.783203 0)"/>
      <use xlink:href="#DejaVuSans-75" transform="translate(1062.162109 0)"/>
      <use xlink:href="#DejaVuSans-73" transform="translate(1125.541016 0)"/>
      <use xlink:href="#DejaVuSans-20" transform="translate(1177.640625 0)"/>
      <use xlink:href="#DejaVuSans-5b" transform="translate(1209.427734 0)"/>
      <use xlink:href="#DejaVuSans-6e" transform="translate(1248.441406 0)"/>
      <use xlink:href="#DejaVuSans-74" transform="translate(1311.820312 0)"/>
      <use xlink:href="#DejaVuSans-5d" transform="translate(1351.029297 0)"/>
     </g>
    </g>
   </g>
   <g id="matplotlib.axis_2">
    <g id="ytick_1">
     <g id="line2d_19">
      <path d="M 46.965625 369.201818 
L 402.485625 369.201818 
" clip-path="url(#p0a9d6bd3f0)" style="fill: none; stroke-dasharray: 2.96,1.28; stroke-dashoffset: 0; stroke: #b0b0b0; stroke-opacity: 0.6; stroke-width: 0.8"/>
     </g>
     <g id="line2d_20">
      <defs>
       <path id="m72fb64dc8c" d="M 0 0 
L -3.5 0 
" style="stroke: #000000; stroke-width: 0.8"/>
      </defs>
      <g>
       <use xlink:href="#m72fb64dc8c" x="46.965625" y="369.201818" style="stroke: #000000; stroke-width: 0.8"/>
      </g>
     </g>
     <g id="text_11">
      <!-- 0 -->
      <g transform="translate(33.603125 373.001037) scale(0.1 -0.1)">
       <use xlink:href="#DejaVuSans-30"/>
      </g>
     </g>
    </g>
    <g id="ytick_2">
     <g id="line2d_21">
      <path d="M 46.965625 291.552351 
L 402.485625 291.552351 
" clip-path="url(#p0a9d6bd3f0)" style="fill: none; stroke-dasharray: 2.96,1.28; stroke-dashoffset: 0; stroke: #b0b0b0; stroke-opacity: 0.6; stroke-width: 0.8"/>
     </g>
     <g id="line2d_22">
      <g>
       <use xlink:href="#m72fb64dc8c" x="46.965625" y="291.552351" style="stroke: #000000; stroke-width: 0.8"/>
      </g>
     </g>
     <g id="text_12">
      <!-- 50 -->
      <g transform="translate(27.240625 295.351569) scale(0.1 -0.1)">
       <use xlink:href="#DejaVuSans-35"/>
       <use xlink:href="#DejaVuSans-30" transform="translate(63.623047 0)"/>
      </g>
     </g>
    </g>
    <g id="ytick_3">
     <g id="line2d_23">
      <path d="M 46.965625 213.902883 
L 402.485625 213.902883 
" clip-path="url(#p0a9d6bd3f0)" style="fill: none; stroke-dasharray: 2.96,1.28; stroke-dashoffset: 0; stroke: #b0b0b0; stroke-opacity: 0.6; stroke-width: 0.8"/>
     </g>
     <g id="line2d_24">
      <g>
       <use xlink:href="#m72fb64dc8c" x="46.965625" y="213.902883" style="stroke: #000000; stroke-width: 0.8"/>
      </g>
     </g>
     <g id="text_13">
      <!-- 100 -->
      <g transform="translate(20.878125 217.702102) scale(0.1 -0.1)">
       <use xlink:href="#DejaVuSans-31"/>
       <use xlink:href="#DejaVuSans-30" transform="translate(63.623047 0)"/>
       <use xlink:href="#DejaVuSans-30" transform="translate(127.246094 0)"/>
      </g>
     </g>
    </g>
    <g id="ytick_4">
     <g id="line2d_25">
      <path d="M 46.965625 136.253415 
L 402.485625 136.253415 
" clip-path="url(#p0a9d6bd3f0)" style="fill: none; stroke-dasharray: 2.96,1.28; stroke-dashoffset: 0; stroke: #b0b0b0; stroke-opacity: 0.6; stroke-width: 0.8"/>
     </g>
     <g id="line2d_26">
      <g>
       <use xlink:href="#m72fb64dc8c" x="46.965625" y="136.253415" style="stroke: #000000; stroke-width: 0.8"/>
      </g>
     </g>
     <g id="text_14">
      <!-- 150 -->
      <g transform="translate(20.878125 140.052634) scale(0.1 -0.1)">
       <use xlink:href="#DejaVuSans-31"/>
       <use xlink:href="#DejaVuSans-35" transform="translate(63.623047 0)"/>
       <use xlink:href="#DejaVuSans-30" transform="translate(127.246094 0)"/>
      </g>
     </g>
    </g>
    <g id="ytick_5">
     <g id="line2d_27">
      <path d="M 46.965625 58.603948 
L 402.485625 58.603948 
" clip-path="url(#p0a9d6bd3f0)" style="fill: none; stroke-dasharray: 2.96,1.28; stroke-dashoffset: 0; stroke: #b0b0b0; stroke-opacity: 0.6; stroke-width: 0.8"/>
     </g>
     <g id="line2d_28">
      <g>
       <use xlink:href="#m72fb64dc8c" x="46.965625" y="58.603948" style="stroke: #000000; stroke-width: 0.8"/>
      </g>
     </g>
     <g id="text_15">
      <!-- 200 -->
      <g transform="translate(20.878125 62.403166) scale(0.1 -0.1)">
       <use xlink:href="#DejaVuSans-32"/>
       <use xlink:href="#DejaVuSans-30" transform="translate(63.623047 0)"/>
       <use xlink:href="#DejaVuSans-30" transform="translate(127.246094 0)"/>
      </g>
     </g>
    </g>
    <g id="text_16">
     <!-- Average cumulative count -->
     <g transform="translate(14.798438 262.4325) rotate(-90) scale(0.1 -0.1)">
      <defs>
       <path id="DejaVuSans-41" d="M 2188 4044 
L 1331 1722 
L 3047 1722 
L 2188 4044 
z
M 1831 4666 
L 2547 4666 
L 4325 0 
L 3669 0 
L 3244 1197 
L 1141 1197 
L 716 0 
L 50 0 
L 1831 4666 
z
" transform="scale(0.015625)"/>
       <path id="DejaVuSans-76" d="M 191 3500 
L 800 3500 
L 1894 563 
L 2988 3500 
L 3597 3500 
L 2284 0 
L 1503 0 
L 191 3500 
z
" transform="scale(0.015625)"/>
       <path id="DejaVuSans-67" d="M 2906 1791 
Q 2906 2416 2648 2759 
Q 2391 3103 1925 3103 
Q 1463 3103 1205 2759 
Q 947 2416 947 1791 
Q 947 1169 1205 825 
Q 1463 481 1925 481 
Q 2391 481 2648 825 
Q 2906 1169 2906 1791 
z
M 3481 434 
Q 3481 -459 3084 -895 
Q 2688 -1331 1869 -1331 
Q 1566 -1331 1297 -1286 
Q 1028 -1241 775 -1147 
L 775 -588 
Q 1028 -725 1275 -790 
Q 1522 -856 1778 -856 
Q 2344 -856 2625 -561 
Q 2906 -266 2906 331 
L 2906 616 
Q 2728 306 2450 153 
Q 2172 0 1784 0 
Q 1141 0 747 490 
Q 353 981 353 1791 
Q 353 2603 747 3093 
Q 1141 3584 1784 3584 
Q 2172 3584 2450 3431 
Q 2728 3278 2906 2969 
L 2906 3500 
L 3481 3500 
L 3481 434 
z
" transform="scale(0.015625)"/>
       <path id="DejaVuSans-6c" d="M 603 4863 
L 1178 4863 
L 1178 0 
L 603 0 
L 603 4863 
z
" transform="scale(0.015625)"/>
      </defs>
      <use xlink:href="#DejaVuSans-41"/>
      <use xlink:href="#DejaVuSans-76" transform="translate(62.533203 0)"/>
      <use xlink:href="#DejaVuSans-65" transform="translate(121.712891 0)"/>
      <use xlink:href="#DejaVuSans-72" transform="translate(183.236328 0)"/>
      <use xlink:href="#DejaVuSans-61" transform="translate(224.349609 0)"/>
      <use xlink:href="#DejaVuSans-67" transform="translate(285.628906 0)"/>
      <use xlink:href="#DejaVuSans-65" transform="translate(349.105469 0)"/>
      <use xlink:href="#DejaVuSans-20" transform="translate(410.628906 0)"/>
      <use xlink:href="#DejaVuSans-63" transform="translate(442.416016 0)"/>
      <use xlink:href="#DejaVuSans-75" transform="translate(497.396484 0)"/>
      <use xlink:href="#DejaVuSans-6d" transform="translate(560.775391 0)"/>
      <use xlink:href="#DejaVuSans-75" transform="translate(658.1875 0)"/>
      <use xlink:href="#DejaVuSans-6c" transform="translate(721.566406 0)"/>
      <use xlink:href="#DejaVuSans-61" transform="translate(749.349609 0)"/>
      <use xlink:href="#DejaVuSans-74" transform="translate(810.628906 0)"/>
      <use xlink:href="#DejaVuSans-69" transform="translate(849.837891 0)"/>
      <use xlink:href="#DejaVuSans-76" transform="translate(877.621094 0)"/>
      <use xlink:href="#DejaVuSans-65" transform="translate(936.800781 0)"/>
      <use xlink:href="#DejaVuSans-20" transform="translate(998.324219 0)"/>
      <use xlink:href="#DejaVuSans-63" transform="translate(1030.111328 0)"/>
      <use xlink:href="#DejaVuSans-6f" transform="translate(1085.091797 0)"/>
      <use xlink:href="#DejaVuSans-75" transform="translate(1146.273438 0)"/>
      <use xlink:href="#DejaVuSans-6e" transform="translate(1209.652344 0)"/>
      <use xlink:href="#DejaVuSans-74" transform="translate(1273.03125 0)"/>
     </g>
    </g>
   </g>
   <g id="line2d_29">
    <path d="M 63.125625 368.684155 
L 63.166025 368.684155 
L 63.287225 368.166492 
L 63.529625 368.166492 
L 63.650825 367.648829 
L 63.974025 367.648829 
L 64.135625 366.613503 
L 64.418425 366.613503 
L 64.580025 365.578176 
L 64.741625 365.578176 
L 64.862825 365.060513 
L 64.903225 365.060513 
L 65.024425 364.54285 
L 65.186025 364.54285 
L 65.347625 363.507524 
L 65.630425 363.507524 
L 65.832425 361.954535 
L 66.074825 361.954535 
L 66.196025 361.436871 
L 66.600025 361.436871 
L 66.761625 360.401545 
L 66.923225 360.401545 
L 67.084825 359.366219 
L 67.165625 359.366219 
L 67.286825 358.848556 
L 67.610025 358.848556 
L 67.731225 358.330893 
L 67.892825 358.330893 
L 68.014025 357.81323 
L 68.054425 357.81323 
L 68.175625 357.295566 
L 68.296825 357.295566 
L 68.418025 356.777903 
L 68.498825 356.777903 
L 68.620025 356.26024 
L 68.741225 356.26024 
L 68.862425 355.742577 
L 68.943225 355.742577 
L 69.064425 355.224914 
L 69.185625 355.224914 
L 69.306825 354.707251 
L 69.387625 354.707251 
L 69.508825 354.189588 
L 69.549225 354.189588 
L 69.710825 353.154262 
L 70.074425 353.154262 
L 70.195625 352.636598 
L 70.316825 352.636598 
L 70.478425 351.601272 
L 70.518825 351.601272 
L 70.640025 351.083609 
L 70.761225 351.083609 
L 70.882425 350.565946 
L 70.922825 350.565946 
L 71.084425 349.53062 
L 71.205625 349.53062 
L 71.326825 349.012957 
L 71.407625 349.012957 
L 71.528825 348.495293 
L 71.650025 348.495293 
L 71.771225 347.97763 
L 71.811625 347.97763 
L 71.973225 346.942304 
L 72.094425 346.942304 
L 72.215625 346.424641 
L 72.256025 346.424641 
L 72.417625 345.389315 
L 72.538825 345.389315 
L 72.660025 344.871652 
L 72.700425 344.871652 
L 72.862025 343.836325 
L 72.983225 343.836325 
L 73.104425 343.318662 
L 73.144825 343.318662 
L 73.306425 342.283336 
L 73.427625 342.283336 
L 73.548825 341.765673 
L 73.589225 341.765673 
L 73.750825 340.730347 
L 73.872025 340.730347 
L 73.993225 340.212684 
L 74.114425 340.212684 
L 74.235625 339.69502 
L 74.316425 339.69502 
L 74.478025 338.659694 
L 74.558825 338.659694 
L 74.680025 338.142031 
L 74.760825 338.142031 
L 74.922425 337.106705 
L 75.003225 337.106705 
L 75.124425 336.589042 
L 75.205225 336.589042 
L 75.366825 335.553716 
L 75.447625 335.553716 
L 75.568825 335.036052 
L 75.649625 335.036052 
L 75.811225 334.000726 
L 75.892025 334.000726 
L 76.013225 333.483063 
L 76.094025 333.483063 
L 76.255625 332.447737 
L 76.336425 332.447737 
L 76.457625 331.930074 
L 76.538425 331.930074 
L 76.700025 330.894747 
L 76.780825 330.894747 
L 76.902025 330.377084 
L 76.982825 330.377084 
L 77.104025 329.859421 
L 77.225225 329.859421 
L 77.346425 329.341758 
L 77.427225 329.341758 
L 77.548425 328.824095 
L 77.669625 328.824095 
L 77.790825 328.306432 
L 77.831225 328.306432 
L 77.992825 327.271106 
L 78.114025 327.271106 
L 78.235225 326.753443 
L 78.316025 326.753443 
L 78.437225 326.235779 
L 78.558425 326.235779 
L 78.679625 325.718116 
L 78.760425 325.718116 
L 78.922025 324.68279 
L 79.204825 324.68279 
L 79.366425 323.647464 
L 79.528025 323.647464 
L 79.689625 322.612138 
L 79.770425 322.612138 
L 79.891625 322.094474 
L 79.972425 322.094474 
L 80.134025 321.059148 
L 80.214825 321.059148 
L 80.336025 320.541485 
L 80.416825 320.541485 
L 80.578425 319.506159 
L 80.659225 319.506159 
L 80.780425 318.988496 
L 80.861225 318.988496 
L 81.022825 317.95317 
L 81.305625 317.95317 
L 81.467225 316.917843 
L 81.507625 316.917843 
L 81.628825 316.40018 
L 81.750025 316.40018 
L 81.911625 315.364854 
L 82.194425 315.364854 
L 82.396425 313.811865 
L 82.638825 313.811865 
L 82.840825 312.258875 
L 83.083225 312.258875 
L 83.285225 310.705886 
L 83.527625 310.705886 
L 83.729625 309.152897 
L 83.972025 309.152897 
L 84.174025 307.599907 
L 84.416425 307.599907 
L 84.618425 306.046918 
L 84.860825 306.046918 
L 85.062825 304.493928 
L 85.305225 304.493928 
L 85.507225 302.940939 
L 85.749625 302.940939 
L 85.951625 301.38795 
L 86.194025 301.38795 
L 86.396025 299.83496 
L 86.638425 299.83496 
L 86.840425 298.281971 
L 87.082825 298.281971 
L 87.284825 296.728982 
L 87.527225 296.728982 
L 87.729225 295.175992 
L 87.971625 295.175992 
L 88.173625 293.623003 
L 88.416025 293.623003 
L 88.618025 292.070014 
L 88.900825 292.070014 
L 89.102825 290.517024 
L 89.345225 290.517024 
L 89.547225 288.964035 
L 89.830025 288.964035 
L 90.032025 287.411046 
L 90.274425 287.411046 
L 90.476425 285.858056 
L 90.718825 285.858056 
L 90.920825 284.305067 
L 91.163225 284.305067 
L 91.365225 282.752078 
L 91.607625 282.752078 
L 91.769225 281.716751 
L 92.052025 281.716751 
L 92.213625 280.681425 
L 92.496425 280.681425 
L 92.698425 279.128436 
L 92.940825 279.128436 
L 93.142825 277.575446 
L 93.385225 277.575446 
L 93.587225 276.022457 
L 93.829625 276.022457 
L 93.991225 274.987131 
L 94.072025 274.987131 
L 94.193225 274.469468 
L 94.274025 274.469468 
L 94.435625 273.434141 
L 94.516425 273.434141 
L 94.637625 272.916478 
L 94.718425 272.916478 
L 94.880025 271.881152 
L 94.960825 271.881152 
L 95.082025 271.363489 
L 95.162825 271.363489 
L 95.324425 270.328163 
L 95.405225 270.328163 
L 95.526425 269.8105 
L 95.607225 269.8105 
L 95.768825 268.775173 
L 95.849625 268.775173 
L 95.970825 268.25751 
L 96.051625 268.25751 
L 96.213225 267.222184 
L 96.294025 267.222184 
L 96.415225 266.704521 
L 96.496025 266.704521 
L 96.657625 265.669195 
L 96.738425 265.669195 
L 96.859625 265.151532 
L 96.940425 265.151532 
L 97.102025 264.116205 
L 97.182825 264.116205 
L 97.304025 263.598542 
L 97.384825 263.598542 
L 97.546425 262.563216 
L 97.627225 262.563216 
L 97.748425 262.045553 
L 97.829225 262.045553 
L 97.990825 261.010227 
L 98.071625 261.010227 
L 98.192825 260.492563 
L 98.273625 260.492563 
L 98.435225 259.457237 
L 98.516025 259.457237 
L 98.637225 258.939574 
L 98.718025 258.939574 
L 98.879625 257.904248 
L 98.960425 257.904248 
L 99.081625 257.386585 
L 99.162425 257.386585 
L 99.324025 256.351259 
L 99.404825 256.351259 
L 99.526025 255.833595 
L 99.606825 255.833595 
L 99.768425 254.798269 
L 99.849225 254.798269 
L 99.970425 254.280606 
L 100.051225 254.280606 
L 100.212825 253.24528 
L 100.293625 253.24528 
L 100.414825 252.727617 
L 100.495625 252.727617 
L 100.657225 251.69229 
L 100.738025 251.69229 
L 100.859225 251.174627 
L 100.940025 251.174627 
L 101.101625 250.139301 
L 101.182425 250.139301 
L 101.303625 249.621638 
L 101.384425 249.621638 
L 101.546025 248.586312 
L 101.626825 248.586312 
L 101.748025 248.068649 
L 101.828825 248.068649 
L 101.990425 247.033322 
L 102.071225 247.033322 
L 102.192425 246.515659 
L 102.273225 246.515659 
L 102.434825 245.480333 
L 102.515625 245.480333 
L 102.636825 244.96267 
L 102.717625 244.96267 
L 102.879225 243.927344 
L 102.960025 243.927344 
L 103.081225 243.409681 
L 103.162025 243.409681 
L 103.323625 242.374354 
L 103.404425 242.374354 
L 103.525625 241.856691 
L 103.606425 241.856691 
L 103.768025 240.821365 
L 103.848825 240.821365 
L 103.970025 240.303702 
L 104.050825 240.303702 
L 104.212425 239.268376 
L 104.293225 239.268376 
L 104.414425 238.750713 
L 104.495225 238.750713 
L 104.656825 237.715386 
L 104.737625 237.715386 
L 104.858825 237.197723 
L 104.939625 237.197723 
L 105.101225 236.162397 
L 105.182025 236.162397 
L 105.303225 235.644734 
L 105.384025 235.644734 
L 105.545625 234.609408 
L 105.626425 234.609408 
L 105.747625 234.091744 
L 105.828425 234.091744 
L 105.990025 233.056418 
L 106.070825 233.056418 
L 106.192025 232.538755 
L 106.272825 232.538755 
L 106.434425 231.503429 
L 106.515225 231.503429 
L 106.636425 230.985766 
L 106.717225 230.985766 
L 106.878825 229.95044 
L 107.161625 229.95044 
L 107.323225 228.915113 
L 107.444425 228.915113 
L 107.565625 228.39745 
L 107.606025 228.39745 
L 107.767625 227.362124 
L 107.888825 227.362124 
L 108.010025 226.844461 
L 108.090825 226.844461 
L 108.212025 226.326798 
L 108.333225 226.326798 
L 108.454425 225.809135 
L 108.535225 225.809135 
L 108.656425 224.773808 
L 108.777625 224.773808 
L 108.898825 224.256145 
L 108.979625 224.256145 
L 109.100825 223.220819 
L 109.343225 223.220819 
L 109.504825 222.185493 
L 109.787625 222.185493 
L 109.949225 221.150167 
L 110.232025 221.150167 
L 110.393625 220.11484 
L 110.676425 220.11484 
L 110.838025 219.079514 
L 111.120825 219.079514 
L 111.282425 218.044188 
L 111.646025 218.044188 
L 111.767225 217.526525 
L 111.969225 217.526525 
L 112.130825 216.491198 
L 112.454025 216.491198 
L 112.615625 215.455872 
L 112.898425 215.455872 
L 113.060025 214.420546 
L 113.383225 214.420546 
L 113.544825 213.38522 
L 113.827625 213.38522 
L 113.989225 212.349894 
L 114.272025 212.349894 
L 114.433625 211.314567 
L 114.716425 211.314567 
L 114.878025 210.279241 
L 115.201225 210.279241 
L 115.322425 209.761578 
L 115.645625 209.761578 
L 115.766825 209.243915 
L 115.928425 209.243915 
L 116.049625 208.726252 
L 116.090025 208.726252 
L 116.211225 208.208589 
L 116.372825 208.208589 
L 116.494025 207.690925 
L 116.534425 207.690925 
L 116.655625 207.173262 
L 116.817225 207.173262 
L 116.938425 206.655599 
L 116.978825 206.655599 
L 117.100025 206.137936 
L 117.261625 206.137936 
L 117.382825 205.620273 
L 117.423225 205.620273 
L 117.544425 205.10261 
L 117.706025 205.10261 
L 117.827225 204.584947 
L 117.867625 204.584947 
L 117.988825 204.067284 
L 118.150425 204.067284 
L 118.271625 203.549621 
L 118.312025 203.549621 
L 118.433225 203.031957 
L 118.594825 203.031957 
L 118.716025 202.514294 
L 118.756425 202.514294 
L 118.877625 201.996631 
L 119.039225 201.996631 
L 119.160425 201.478968 
L 119.200825 201.478968 
L 119.322025 200.961305 
L 119.483625 200.961305 
L 119.604825 200.443642 
L 119.645225 200.443642 
L 119.766425 199.925979 
L 119.928025 199.925979 
L 120.049225 199.408316 
L 120.372425 199.408316 
L 120.493625 198.890652 
L 120.816825 198.890652 
L 120.978425 197.855326 
L 121.342025 197.855326 
L 121.463225 197.337663 
L 121.665225 197.337663 
L 121.826825 196.302337 
L 122.109625 196.302337 
L 122.230825 195.784674 
L 122.271225 195.784674 
L 122.392425 195.267011 
L 122.554025 195.267011 
L 122.675225 194.749348 
L 122.715625 194.749348 
L 122.836825 194.231684 
L 122.998425 194.231684 
L 123.119625 193.714021 
L 123.160025 193.714021 
L 123.281225 193.196358 
L 123.442825 193.196358 
L 123.564025 192.678695 
L 123.604425 192.678695 
L 123.725625 192.161032 
L 123.887225 192.161032 
L 124.008425 191.643369 
L 124.048825 191.643369 
L 124.170025 191.125706 
L 124.331625 191.125706 
L 124.452825 190.608043 
L 124.493225 190.608043 
L 124.614425 190.090379 
L 124.776025 190.090379 
L 124.897225 189.572716 
L 124.937625 189.572716 
L 125.058825 189.055053 
L 125.220425 189.055053 
L 125.341625 188.53739 
L 125.382025 188.53739 
L 125.503225 188.019727 
L 125.826425 188.019727 
L 125.947625 187.502064 
L 126.068825 187.502064 
L 126.190025 186.984401 
L 126.270825 186.984401 
L 126.392025 186.466738 
L 126.513225 186.466738 
L 126.634425 185.949075 
L 126.715225 185.949075 
L 126.836425 185.431411 
L 126.957625 185.431411 
L 127.078825 184.913748 
L 127.159625 184.913748 
L 127.280825 184.396085 
L 127.402025 184.396085 
L 127.523225 183.878422 
L 127.604025 183.878422 
L 127.725225 183.360759 
L 127.846425 183.360759 
L 127.967625 182.843096 
L 128.048425 182.843096 
L 128.169625 182.325433 
L 128.290825 182.325433 
L 128.412025 181.80777 
L 128.492825 181.80777 
L 128.614025 181.290106 
L 128.937225 181.290106 
L 129.058425 180.772443 
L 129.381625 180.772443 
L 129.543225 179.737117 
L 129.826025 179.737117 
L 129.987625 178.701791 
L 130.270425 178.701791 
L 130.432025 177.666465 
L 130.714825 177.666465 
L 130.876425 176.631138 
L 131.159225 176.631138 
L 131.320825 175.595812 
L 131.603625 175.595812 
L 131.765225 174.560486 
L 132.048025 174.560486 
L 132.209625 173.52516 
L 132.492425 173.52516 
L 132.654025 172.489833 
L 132.936825 172.489833 
L 133.098425 171.454507 
L 133.381225 171.454507 
L 133.542825 170.419181 
L 133.825625 170.419181 
L 133.987225 169.383855 
L 134.270025 169.383855 
L 134.431625 168.348529 
L 134.795225 168.348529 
L 134.956825 167.313202 
L 135.239625 167.313202 
L 135.401225 166.277876 
L 135.684025 166.277876 
L 135.845625 165.24255 
L 136.128425 165.24255 
L 136.290025 164.207224 
L 136.572825 164.207224 
L 136.734425 163.171897 
L 137.017225 163.171897 
L 137.178825 162.136571 
L 137.461625 162.136571 
L 137.623225 161.101245 
L 137.906025 161.101245 
L 138.067625 160.065919 
L 138.350425 160.065919 
L 138.512025 159.030592 
L 138.794825 159.030592 
L 138.956425 157.995266 
L 139.239225 157.995266 
L 139.400825 156.95994 
L 139.683625 156.95994 
L 139.845225 155.924614 
L 140.128025 155.924614 
L 140.289625 154.889287 
L 140.572425 154.889287 
L 140.734025 153.853961 
L 141.016825 153.853961 
L 141.178425 152.818635 
L 141.461225 152.818635 
L 141.582425 152.300972 
L 141.905625 152.300972 
L 142.067225 151.265646 
L 142.350025 151.265646 
L 142.511625 150.230319 
L 142.794425 150.230319 
L 142.915625 149.712656 
L 143.238825 149.712656 
L 143.360025 148.67733 
L 143.683225 148.67733 
L 143.804425 148.159667 
L 144.127625 148.159667 
L 144.248825 147.124341 
L 144.572025 147.124341 
L 144.693225 146.089014 
L 145.016425 146.089014 
L 145.137625 145.571351 
L 145.460825 145.571351 
L 145.582025 145.053688 
L 145.905225 145.053688 
L 146.026425 144.536025 
L 146.349625 144.536025 
L 146.470825 144.018362 
L 147.602025 144.018362 
L 147.723225 143.500699 
L 148.046425 143.500699 
L 148.167625 142.983036 
L 148.490825 142.983036 
L 148.612025 142.465373 
L 148.935225 142.465373 
L 149.056425 141.94771 
L 149.379625 141.94771 
L 149.500825 141.430046 
L 149.824025 141.430046 
L 149.945225 140.912383 
L 150.268425 140.912383 
L 150.389625 140.39472 
L 150.712825 140.39472 
L 150.834025 139.877057 
L 151.157225 139.877057 
L 151.278425 139.359394 
L 151.601625 139.359394 
L 151.722825 138.841731 
L 152.046025 138.841731 
L 152.167225 138.324068 
L 152.975225 138.324068 
L 153.096425 137.806405 
L 153.419625 137.806405 
L 153.540825 137.288741 
L 153.864025 137.288741 
L 153.985225 136.771078 
L 154.308425 136.771078 
L 154.429625 136.253415 
L 154.752825 136.253415 
L 154.874025 135.735752 
L 155.197225 135.735752 
L 155.318425 135.218089 
L 155.641625 135.218089 
L 155.762825 134.700426 
L 156.086025 134.700426 
L 156.207225 134.182763 
L 156.530425 134.182763 
L 156.651625 133.6651 
L 156.974825 133.6651 
L 157.096025 133.147437 
L 157.419225 133.147437 
L 157.540425 132.629773 
L 157.863625 132.629773 
L 157.984825 132.11211 
L 158.792825 132.11211 
L 158.914025 131.594447 
L 159.237225 131.594447 
L 159.358425 131.076784 
L 159.681625 131.076784 
L 159.802825 130.559121 
L 160.126025 130.559121 
L 160.247225 130.041458 
L 160.570425 130.041458 
L 160.691625 129.523795 
L 161.014825 129.523795 
L 161.136025 129.006132 
L 161.459225 129.006132 
L 161.580425 128.488468 
L 161.903625 128.488468 
L 162.024825 127.970805 
L 162.348025 127.970805 
L 162.469225 127.453142 
L 162.792425 127.453142 
L 162.913625 126.935479 
L 163.236825 126.935479 
L 163.358025 126.417816 
L 163.681225 126.417816 
L 163.802425 125.900153 
L 164.125625 125.900153 
L 164.246825 125.38249 
L 164.570025 125.38249 
L 164.691225 124.864827 
L 165.014425 124.864827 
L 165.135625 124.347164 
L 165.458825 124.347164 
L 165.580025 123.8295 
L 165.903225 123.8295 
L 166.024425 123.311837 
L 166.347625 123.311837 
L 166.468825 122.794174 
L 166.792025 122.794174 
L 166.913225 122.276511 
L 167.640425 122.276511 
L 167.761625 121.758848 
L 168.084825 121.758848 
L 168.206025 121.241185 
L 168.529225 121.241185 
L 168.650425 120.723522 
L 168.973625 120.723522 
L 169.094825 120.205859 
L 169.620025 120.205859 
L 169.741225 119.688195 
L 170.064425 119.688195 
L 170.185625 119.170532 
L 170.791625 119.170532 
L 170.912825 118.652869 
L 171.236025 118.652869 
L 171.357225 118.135206 
L 171.680425 118.135206 
L 171.801625 117.617543 
L 172.124825 117.617543 
L 172.246025 117.09988 
L 172.569225 117.09988 
L 172.690425 116.582217 
L 173.013625 116.582217 
L 173.134825 116.064554 
L 173.458025 116.064554 
L 173.579225 115.546891 
L 174.387225 115.546891 
L 174.508425 115.029227 
L 174.831625 115.029227 
L 174.952825 114.511564 
L 175.276025 114.511564 
L 175.397225 113.993901 
L 175.720425 113.993901 
L 175.841625 113.476238 
L 176.164825 113.476238 
L 176.286025 112.958575 
L 176.609225 112.958575 
L 176.730425 112.440912 
L 177.094025 112.440912 
L 177.215225 111.923249 
L 177.538425 111.923249 
L 177.659625 111.405586 
L 177.982825 111.405586 
L 178.104025 110.887922 
L 178.427225 110.887922 
L 178.548425 110.370259 
L 178.871625 110.370259 
L 178.992825 109.852596 
L 179.316025 109.852596 
L 179.437225 109.334933 
L 179.760425 109.334933 
L 179.881625 108.81727 
L 180.204825 108.81727 
L 180.326025 108.299607 
L 180.649225 108.299607 
L 180.770425 107.781944 
L 181.093625 107.781944 
L 181.214825 107.264281 
L 181.538025 107.264281 
L 181.659225 106.746618 
L 182.386425 106.746618 
L 182.507625 106.228954 
L 183.315625 106.228954 
L 183.436825 105.711291 
L 183.760025 105.711291 
L 183.881225 105.193628 
L 184.244825 105.193628 
L 184.366025 104.675965 
L 184.689225 104.675965 
L 184.810425 104.158302 
L 185.860825 104.158302 
L 185.982025 103.640639 
L 186.305225 103.640639 
L 186.426425 103.122976 
L 186.749625 103.122976 
L 186.870825 102.605313 
L 187.194025 102.605313 
L 187.315225 102.087649 
L 187.638425 102.087649 
L 187.759625 101.569986 
L 386.285225 101.569986 
L 386.285225 101.569986 
" clip-path="url(#p0a9d6bd3f0)" style="fill: none; stroke: #add8e6; stroke-width: 2; stroke-linecap: square"/>
   </g>
   <g id="line2d_30">
    <path d="M 63.125625 369.201818 
L 65.347625 369.201818 
L 65.468825 368.684155 
L 111.565225 368.684155 
L 111.686425 368.166492 
L 120.089625 368.166492 
L 120.210825 367.648829 
L 121.261225 367.648829 
L 121.382425 367.131166 
L 386.285225 367.131166 
L 386.285225 367.131166 
" clip-path="url(#p0a9d6bd3f0)" style="fill: none; stroke: #6495ed; stroke-width: 2; stroke-linecap: square"/>
   </g>
   <g id="line2d_31">
    <path d="M 63.125625 369.201818 
L 65.064825 369.201818 
L 65.186025 368.684155 
L 108.292825 368.684155 
L 108.414025 368.166492 
L 115.686025 368.166492 
L 115.807225 367.648829 
L 152.732825 367.648829 
L 152.854025 367.131166 
L 170.549225 367.131166 
L 170.670425 366.613503 
L 174.144825 366.613503 
L 174.266025 366.095839 
L 183.275225 366.095839 
L 183.396425 365.578176 
L 198.384825 365.578176 
L 198.506025 365.060513 
L 228.967625 365.060513 
L 229.088825 364.54285 
L 234.825625 364.54285 
L 234.946825 364.025187 
L 264.115625 364.025187 
L 264.236825 363.507524 
L 280.518025 363.507524 
L 280.639225 362.989861 
L 291.547225 362.989861 
L 291.668425 362.472198 
L 294.698425 362.472198 
L 294.819625 361.954535 
L 322.210825 361.954535 
L 322.332025 361.436871 
L 346.450825 361.436871 
L 346.572025 360.919208 
L 374.044025 360.919208 
L 374.165225 360.401545 
L 386.285225 360.401545 
L 386.285225 360.401545 
" clip-path="url(#p0a9d6bd3f0)" style="fill: none; stroke: #00008b; stroke-width: 2; stroke-linecap: square"/>
   </g>
   <g id="line2d_32">
    <path d="M 386.325625 369.201818 
L 199.112025 369.201818 
L 198.990825 368.425324 
L 198.667625 368.425324 
L 198.546425 367.648829 
L 198.223225 367.648829 
L 198.102025 366.872334 
L 197.778825 366.872334 
L 197.657625 366.095839 
L 197.334425 366.095839 
L 197.213225 365.319345 
L 196.890025 365.319345 
L 196.768825 364.54285 
L 196.445625 364.54285 
L 196.324425 363.766355 
L 196.001225 363.766355 
L 195.880025 362.989861 
L 195.556825 362.989861 
L 195.435625 362.213366 
L 195.112425 362.213366 
L 194.991225 361.436871 
L 194.668025 361.436871 
L 194.546825 360.660377 
L 194.223625 360.660377 
L 194.102425 359.883882 
L 193.779225 359.883882 
L 193.658025 359.107387 
L 192.930825 359.107387 
L 192.809625 358.330893 
L 192.486425 358.330893 
L 192.365225 357.554398 
L 192.042025 357.554398 
L 191.920825 356.777903 
L 191.597625 356.777903 
L 191.476425 356.001409 
L 191.153225 356.001409 
L 191.032025 355.224914 
L 190.708825 355.224914 
L 190.587625 354.448419 
L 190.264425 354.448419 
L 190.143225 353.671925 
L 189.820025 353.671925 
L 189.698825 352.89543 
L 189.375625 352.89543 
L 189.254425 352.118935 
L 188.931225 352.118935 
L 188.810025 351.342441 
L 188.486825 351.342441 
L 188.365625 350.565946 
L 188.042425 350.565946 
L 187.921225 349.789451 
L 187.598025 349.789451 
L 187.476825 349.012957 
L 187.153625 349.012957 
L 187.032425 348.236462 
L 186.709225 348.236462 
L 186.588025 347.459967 
L 186.264825 347.459967 
L 186.143625 346.683473 
L 185.820425 346.683473 
L 185.699225 345.906978 
L 185.376025 345.906978 
L 185.254825 345.130483 
L 184.931625 345.130483 
L 184.810425 344.353989 
L 184.487225 344.353989 
L 184.366025 343.577494 
L 184.042825 343.577494 
L 183.921625 342.800999 
L 183.598425 342.800999 
L 183.477225 342.024505 
L 183.154025 342.024505 
L 183.032825 341.24801 
L 182.709625 341.24801 
L 182.588425 340.471515 
L 182.265225 340.471515 
L 182.144025 339.69502 
L 181.820825 339.69502 
L 181.699625 338.918526 
L 181.376425 338.918526 
L 181.255225 338.142031 
L 180.932025 338.142031 
L 180.810825 337.365536 
L 180.487625 337.365536 
L 180.366425 336.589042 
L 180.043225 336.589042 
L 179.922025 335.812547 
L 179.598825 335.812547 
L 179.477625 335.036052 
L 179.154425 335.036052 
L 179.033225 334.259558 
L 178.669625 334.259558 
L 178.548425 333.483063 
L 178.225225 333.483063 
L 178.104025 332.706568 
L 177.780825 332.706568 
L 177.659625 331.930074 
L 177.336425 331.930074 
L 177.215225 331.153579 
L 176.892025 331.153579 
L 176.770825 330.377084 
L 176.447625 330.377084 
L 176.326425 329.60059 
L 176.003225 329.60059 
L 175.882025 328.824095 
L 175.558825 328.824095 
L 175.437625 328.0476 
L 175.114425 328.0476 
L 174.993225 327.271106 
L 174.670025 327.271106 
L 174.548825 326.494611 
L 174.225625 326.494611 
L 174.104425 325.718116 
L 173.781225 325.718116 
L 173.660025 324.941622 
L 173.336825 324.941622 
L 173.215625 324.165127 
L 172.892425 324.165127 
L 172.771225 323.388632 
L 172.448025 323.388632 
L 172.326825 322.612138 
L 172.003625 322.612138 
L 171.882425 321.835643 
L 171.559225 321.835643 
L 171.438025 321.059148 
L 171.114825 321.059148 
L 170.993625 320.282654 
L 170.670425 320.282654 
L 170.549225 319.506159 
L 170.226025 319.506159 
L 170.104825 318.729664 
L 169.781625 318.729664 
L 169.660425 317.95317 
L 169.337225 317.95317 
L 169.216025 317.176675 
L 168.892825 317.176675 
L 168.771625 316.40018 
L 168.448425 316.40018 
L 168.327225 315.623686 
L 168.004025 315.623686 
L 167.882825 314.847191 
L 167.519225 314.847191 
L 167.398025 314.070696 
L 167.074825 314.070696 
L 166.953625 313.294201 
L 166.630425 313.294201 
L 166.509225 312.517707 
L 166.186025 312.517707 
L 166.064825 311.741212 
L 165.701225 311.741212 
L 165.580025 310.964717 
L 165.256825 310.964717 
L 165.135625 310.188223 
L 164.812425 310.188223 
L 164.691225 309.411728 
L 164.368025 309.411728 
L 164.246825 308.635233 
L 163.923625 308.635233 
L 163.802425 307.858739 
L 163.479225 307.858739 
L 163.358025 307.082244 
L 163.034825 307.082244 
L 162.913625 306.305749 
L 162.590425 306.305749 
L 162.469225 305.529255 
L 162.146025 305.529255 
L 162.024825 304.75276 
L 161.701625 304.75276 
L 161.580425 303.976265 
L 161.257225 303.976265 
L 161.136025 303.199771 
L 160.812825 303.199771 
L 160.691625 302.423276 
L 160.368425 302.423276 
L 160.247225 301.646781 
L 159.924025 301.646781 
L 159.802825 300.870287 
L 159.479625 300.870287 
L 159.358425 300.093792 
L 159.035225 300.093792 
L 158.914025 299.317297 
L 158.590825 299.317297 
L 158.469625 298.540803 
L 158.146425 298.540803 
L 158.025225 297.764308 
L 157.298025 297.764308 
L 157.176825 296.987813 
L 156.853625 296.987813 
L 156.732425 296.211319 
L 156.409225 296.211319 
L 156.288025 295.434824 
L 155.964825 295.434824 
L 155.843625 294.658329 
L 155.520425 294.658329 
L 155.399225 293.881835 
L 155.076025 293.881835 
L 154.954825 293.10534 
L 154.631625 293.10534 
L 154.510425 292.328845 
L 154.187225 292.328845 
L 154.066025 291.552351 
L 153.742825 291.552351 
L 153.621625 290.775856 
L 153.298425 290.775856 
L 153.177225 289.999361 
L 152.854025 289.999361 
L 152.732825 289.222867 
L 151.399625 289.222867 
L 151.278425 288.446372 
L 150.955225 288.446372 
L 150.834025 287.669877 
L 150.510825 287.669877 
L 150.389625 286.893382 
L 150.066425 286.893382 
L 149.945225 286.116888 
L 149.622025 286.116888 
L 149.500825 285.340393 
L 149.177625 285.340393 
L 149.056425 284.563898 
L 148.733225 284.563898 
L 148.612025 283.787404 
L 148.288825 283.787404 
L 148.167625 283.010909 
L 147.844425 283.010909 
L 147.723225 282.234414 
L 147.400025 282.234414 
L 147.278825 281.45792 
L 146.955625 281.45792 
L 146.834425 280.681425 
L 146.511225 280.681425 
L 146.390025 279.90493 
L 146.066825 279.90493 
L 145.945625 279.128436 
L 145.622425 279.128436 
L 145.501225 278.351941 
L 145.178025 278.351941 
L 145.056825 277.575446 
L 144.733625 277.575446 
L 144.612425 276.798952 
L 144.289225 276.798952 
L 144.168025 276.022457 
L 143.844825 276.022457 
L 143.723625 275.245962 
L 143.400425 275.245962 
L 143.279225 274.469468 
L 142.956025 274.469468 
L 142.834825 273.692973 
L 142.511625 273.692973 
L 142.390425 272.916478 
L 141.703625 272.916478 
L 141.582425 272.139984 
L 141.259225 272.139984 
L 141.138025 271.363489 
L 140.814825 271.363489 
L 140.693625 270.586994 
L 140.370425 270.586994 
L 140.249225 269.8105 
L 140.128025 269.8105 
L 140.006825 269.034005 
L 139.926025 269.034005 
L 139.804825 268.25751 
L 139.683625 268.25751 
L 139.562425 267.481016 
L 139.481625 267.481016 
L 139.360425 266.704521 
L 139.239225 266.704521 
L 139.118025 265.928026 
L 139.037225 265.928026 
L 138.916025 265.151532 
L 138.794825 265.151532 
L 138.673625 264.375037 
L 138.592825 264.375037 
L 138.471625 263.598542 
L 138.350425 263.598542 
L 138.229225 262.822048 
L 138.148425 262.822048 
L 138.027225 262.045553 
L 137.906025 262.045553 
L 137.784825 261.269058 
L 137.704025 261.269058 
L 137.582825 260.492563 
L 137.461625 260.492563 
L 137.340425 259.716069 
L 137.259625 259.716069 
L 137.138425 258.939574 
L 137.017225 258.939574 
L 136.896025 258.163079 
L 136.815225 258.163079 
L 136.694025 257.386585 
L 136.532425 257.386585 
L 136.411225 256.61009 
L 136.370825 256.61009 
L 136.249625 255.833595 
L 136.088025 255.833595 
L 135.966825 255.057101 
L 135.926425 255.057101 
L 135.805225 254.280606 
L 135.643625 254.280606 
L 135.522425 253.504111 
L 135.482025 253.504111 
L 135.360825 252.727617 
L 135.199225 252.727617 
L 135.078025 251.951122 
L 135.037625 251.951122 
L 134.916425 251.174627 
L 134.754825 251.174627 
L 134.633625 250.398133 
L 134.593225 250.398133 
L 134.472025 249.621638 
L 134.270025 249.621638 
L 134.108425 248.068649 
L 133.704425 248.068649 
L 133.583225 247.292154 
L 133.260025 247.292154 
L 133.138825 246.515659 
L 132.856025 246.515659 
L 132.694425 244.96267 
L 132.411625 244.96267 
L 132.250025 243.409681 
L 131.967225 243.409681 
L 131.805625 241.856691 
L 131.522825 241.856691 
L 131.361225 240.303702 
L 131.078425 240.303702 
L 130.916825 238.750713 
L 130.634025 238.750713 
L 130.472425 237.197723 
L 130.189625 237.197723 
L 130.028025 235.644734 
L 129.745225 235.644734 
L 129.583625 234.091744 
L 129.300825 234.091744 
L 129.139225 232.538755 
L 128.856425 232.538755 
L 128.694825 230.985766 
L 128.412025 230.985766 
L 128.290825 230.209271 
L 128.250425 230.209271 
L 128.129225 229.432776 
L 127.967625 229.432776 
L 127.846425 228.656282 
L 127.806025 228.656282 
L 127.684825 227.879787 
L 127.523225 227.879787 
L 127.402025 227.103292 
L 127.361625 227.103292 
L 127.240425 226.326798 
L 127.078825 226.326798 
L 126.957625 225.550303 
L 126.917225 225.550303 
L 126.796025 224.773808 
L 126.472825 224.773808 
L 126.351625 223.997314 
L 126.149625 223.997314 
L 125.988025 222.444324 
L 125.705225 222.444324 
L 125.543625 220.891335 
L 125.260825 220.891335 
L 125.099225 219.338346 
L 124.816425 219.338346 
L 124.654825 217.785356 
L 124.372025 217.785356 
L 124.210425 216.232367 
L 123.927625 216.232367 
L 123.806425 215.455872 
L 123.766025 215.455872 
L 123.644825 214.679378 
L 123.483225 214.679378 
L 123.362025 213.902883 
L 123.321625 213.902883 
L 123.200425 213.126388 
L 123.038825 213.126388 
L 122.917625 212.349894 
L 122.877225 212.349894 
L 122.756025 211.573399 
L 122.594425 211.573399 
L 122.473225 210.796904 
L 122.432825 210.796904 
L 122.311625 210.02041 
L 122.150025 210.02041 
L 122.028825 209.243915 
L 121.705625 209.243915 
L 121.584425 208.46742 
L 121.261225 208.46742 
L 121.140025 207.690925 
L 120.978425 207.690925 
L 120.857225 206.914431 
L 120.816825 206.914431 
L 120.695625 206.137936 
L 120.534025 206.137936 
L 120.412825 205.361441 
L 120.372425 205.361441 
L 120.251225 204.584947 
L 120.089625 204.584947 
L 119.968425 203.808452 
L 119.928025 203.808452 
L 119.806825 203.031957 
L 119.645225 203.031957 
L 119.524025 202.255463 
L 119.483625 202.255463 
L 119.362425 201.478968 
L 119.200825 201.478968 
L 119.079625 200.702473 
L 119.039225 200.702473 
L 118.918025 199.925979 
L 118.756425 199.925979 
L 118.635225 199.149484 
L 118.594825 199.149484 
L 118.473625 198.372989 
L 118.312025 198.372989 
L 118.190825 197.596495 
L 118.150425 197.596495 
L 118.029225 196.82 
L 117.867625 196.82 
L 117.746425 196.043505 
L 117.665625 196.043505 
L 117.544425 195.267011 
L 117.221225 195.267011 
L 117.100025 194.490516 
L 116.938425 194.490516 
L 116.817225 193.714021 
L 116.776825 193.714021 
L 116.655625 192.937527 
L 116.494025 192.937527 
L 116.372825 192.161032 
L 116.332425 192.161032 
L 116.211225 191.384537 
L 116.049625 191.384537 
L 115.928425 190.608043 
L 115.888025 190.608043 
L 115.766825 189.831548 
L 115.605225 189.831548 
L 115.484025 189.055053 
L 115.443625 189.055053 
L 115.322425 188.278559 
L 115.160825 188.278559 
L 115.039625 187.502064 
L 114.958825 187.502064 
L 114.837625 186.725569 
L 114.716425 186.725569 
L 114.595225 185.949075 
L 114.514425 185.949075 
L 114.393225 185.17258 
L 114.272025 185.17258 
L 114.150825 184.396085 
L 114.070025 184.396085 
L 113.948825 183.61959 
L 113.827625 183.61959 
L 113.706425 182.843096 
L 113.625625 182.843096 
L 113.504425 182.066601 
L 113.383225 182.066601 
L 113.262025 181.290106 
L 113.181225 181.290106 
L 113.060025 180.513612 
L 112.938825 180.513612 
L 112.817625 179.737117 
L 112.736825 179.737117 
L 112.615625 178.960622 
L 112.494425 178.960622 
L 112.373225 178.184128 
L 112.292425 178.184128 
L 112.171225 177.407633 
L 112.050025 177.407633 
L 111.928825 176.631138 
L 111.848025 176.631138 
L 111.726825 175.854644 
L 111.403625 175.854644 
L 111.282425 175.078149 
L 111.120825 175.078149 
L 110.999625 174.301654 
L 110.959225 174.301654 
L 110.838025 173.52516 
L 110.676425 173.52516 
L 110.555225 172.748665 
L 110.514825 172.748665 
L 110.393625 171.97217 
L 110.232025 171.97217 
L 110.110825 171.195676 
L 110.070425 171.195676 
L 109.949225 170.419181 
L 109.787625 170.419181 
L 109.666425 169.642686 
L 109.585625 169.642686 
L 109.464425 168.866192 
L 109.343225 168.866192 
L 109.222025 168.089697 
L 109.141225 168.089697 
L 109.020025 167.313202 
L 108.898825 167.313202 
L 108.777625 166.536708 
L 108.696825 166.536708 
L 108.575625 165.760213 
L 108.252425 165.760213 
L 108.131225 164.983718 
L 107.808025 164.983718 
L 107.686825 164.207224 
L 107.606025 164.207224 
L 107.484825 163.430729 
L 107.363625 163.430729 
L 107.242425 162.654234 
L 107.161625 162.654234 
L 107.040425 161.87774 
L 106.919225 161.87774 
L 106.798025 161.101245 
L 106.717225 161.101245 
L 106.596025 160.32475 
L 106.272825 160.32475 
L 106.151625 159.548256 
L 105.990025 159.548256 
L 105.868825 158.771761 
L 105.828425 158.771761 
L 105.707225 157.995266 
L 105.545625 157.995266 
L 105.424425 157.218771 
L 105.101225 157.218771 
L 104.939625 155.665782 
L 104.656825 155.665782 
L 104.495225 154.112793 
L 104.212425 154.112793 
L 104.050825 152.559803 
L 103.768025 152.559803 
L 103.606425 151.006814 
L 103.323625 151.006814 
L 103.162025 149.453825 
L 102.879225 149.453825 
L 102.717625 147.900835 
L 102.434825 147.900835 
L 102.273225 146.347846 
L 101.990425 146.347846 
L 101.828825 144.794857 
L 101.546025 144.794857 
L 101.384425 143.241867 
L 101.101625 143.241867 
L 100.980425 142.465373 
L 100.940025 142.465373 
L 100.818825 141.688878 
L 100.657225 141.688878 
L 100.536025 140.912383 
L 100.495625 140.912383 
L 100.374425 140.135889 
L 100.212825 140.135889 
L 100.091625 139.359394 
L 100.051225 139.359394 
L 99.930025 138.582899 
L 99.768425 138.582899 
L 99.647225 137.806405 
L 99.606825 137.806405 
L 99.485625 137.02991 
L 99.324025 137.02991 
L 99.202825 136.253415 
L 99.162425 136.253415 
L 99.041225 135.476921 
L 98.879625 135.476921 
L 98.758425 134.700426 
L 98.718025 134.700426 
L 98.596825 133.923931 
L 98.273625 133.923931 
L 98.152425 133.147437 
L 98.031225 133.147437 
L 97.910025 132.370942 
L 97.829225 132.370942 
L 97.708025 131.594447 
L 97.384825 131.594447 
L 97.263625 130.817952 
L 97.061625 130.817952 
L 96.900025 129.264963 
L 96.617225 129.264963 
L 96.455625 127.711974 
L 96.051625 127.711974 
L 95.930425 126.935479 
L 95.647625 126.935479 
L 95.486025 125.38249 
L 95.203225 125.38249 
L 95.041625 123.8295 
L 94.758825 123.8295 
L 94.597225 122.276511 
L 94.314425 122.276511 
L 94.152825 120.723522 
L 93.870025 120.723522 
L 93.708425 119.170532 
L 93.425625 119.170532 
L 93.264025 117.617543 
L 92.981225 117.617543 
L 92.819625 116.064554 
L 92.536825 116.064554 
L 92.375225 114.511564 
L 92.052025 114.511564 
L 91.930825 113.73507 
L 91.607625 113.73507 
L 91.486425 112.18208 
L 91.163225 112.18208 
L 91.042025 110.629091 
L 90.718825 110.629091 
L 90.557225 109.076102 
L 90.274425 109.076102 
L 90.112825 107.523112 
L 89.830025 107.523112 
L 89.668425 105.970123 
L 89.385625 105.970123 
L 89.224025 104.417133 
L 88.941225 104.417133 
L 88.779625 102.864144 
L 88.496825 102.864144 
L 88.335225 101.311155 
L 88.052425 101.311155 
L 87.890825 99.758165 
L 87.608025 99.758165 
L 87.446425 98.205176 
L 87.163625 98.205176 
L 87.002025 96.652187 
L 86.719225 96.652187 
L 86.557625 95.099197 
L 86.274825 95.099197 
L 86.113225 93.546208 
L 85.830425 93.546208 
L 85.668825 91.993219 
L 85.386025 91.993219 
L 85.224425 90.440229 
L 84.941625 90.440229 
L 84.780025 88.88724 
L 84.497225 88.88724 
L 84.335625 87.334251 
L 84.052825 87.334251 
L 83.891225 85.781261 
L 83.608425 85.781261 
L 83.446825 84.228272 
L 83.164025 84.228272 
L 83.002425 82.675283 
L 82.719625 82.675283 
L 82.558025 81.122293 
L 82.275225 81.122293 
L 82.113625 79.569304 
L 81.830825 79.569304 
L 81.669225 78.016314 
L 81.386425 78.016314 
L 81.224825 76.463325 
L 80.942025 76.463325 
L 80.780425 74.910336 
L 80.497625 74.910336 
L 80.336025 73.357346 
L 80.053225 73.357346 
L 79.891625 71.804357 
L 79.608825 71.804357 
L 79.447225 70.251368 
L 79.164425 70.251368 
L 79.002825 68.698378 
L 78.720025 68.698378 
L 78.558425 67.145389 
L 78.275625 67.145389 
L 78.114025 65.5924 
L 77.831225 65.5924 
L 77.669625 64.03941 
L 77.306025 64.03941 
L 77.184825 63.262916 
L 76.982825 63.262916 
L 76.821225 61.709926 
L 76.538425 61.709926 
L 76.376825 60.156937 
L 76.094025 60.156937 
L 75.932425 58.603948 
L 75.609225 58.603948 
L 75.447625 57.050958 
L 75.164825 57.050958 
L 75.003225 55.497969 
L 74.720425 55.497969 
L 74.558825 53.94498 
L 74.276025 53.94498 
L 74.114425 52.39199 
L 73.831625 52.39199 
L 73.670025 50.839001 
L 73.387225 50.839001 
L 73.225625 49.286011 
L 72.942825 49.286011 
L 72.781225 47.733022 
L 72.498425 47.733022 
L 72.377225 46.956527 
L 72.013625 46.956527 
L 71.892425 46.180033 
L 71.650025 46.180033 
L 71.488425 44.627043 
L 71.124825 44.627043 
L 71.003625 43.850549 
L 70.640025 43.850549 
L 70.518825 43.074054 
L 70.276425 43.074054 
L 70.114825 41.521065 
L 69.832025 41.521065 
L 69.670425 39.968075 
L 69.387625 39.968075 
L 69.226025 38.415086 
L 68.377625 38.415086 
L 68.216025 36.862097 
L 67.933225 36.862097 
L 67.812025 36.085602 
L 67.488825 36.085602 
L 67.327225 34.532613 
L 67.044425 34.532613 
L 66.882825 32.979623 
L 66.600025 32.979623 
L 66.478825 32.203129 
L 66.236425 32.203129 
L 66.074825 30.650139 
L 65.792025 30.650139 
L 65.630425 29.09715 
L 65.347625 29.09715 
L 65.186025 27.544161 
L 64.903225 27.544161 
L 64.741625 25.991171 
L 64.054825 25.991171 
L 63.933625 25.214676 
L 63.852825 25.214676 
L 63.731625 24.438182 
L 63.166025 24.438182 
L 63.166025 24.438182 
" clip-path="url(#p0a9d6bd3f0)" style="fill: none; stroke-dasharray: 7.4,3.2; stroke-dashoffset: 0; stroke: #fa8072; stroke-width: 2"/>
   </g>
   <g id="line2d_33">
    <path d="M 386.325625 369.201818 
L 63.166025 369.201818 
L 63.166025 369.201818 
" clip-path="url(#p0a9d6bd3f0)" style="fill: none; stroke-dasharray: 7.4,3.2; stroke-dashoffset: 0; stroke: #ff4500; stroke-width: 2"/>
   </g>
   <g id="line2d_34">
    <path d="M 386.325625 369.201818 
L 367.297225 369.201818 
L 367.176025 368.425324 
L 361.398825 368.425324 
L 361.277625 367.648829 
L 329.967625 367.648829 
L 329.846425 366.872334 
L 298.294025 366.872334 
L 298.172825 366.095839 
L 256.076025 366.095839 
L 255.954825 365.319345 
L 254.177225 365.319345 
L 254.056025 364.54285 
L 239.754425 364.54285 
L 239.633225 363.766355 
L 205.697225 363.766355 
L 205.576025 362.989861 
L 197.213225 362.989861 
L 197.092025 362.213366 
L 195.314425 362.213366 
L 195.193225 361.436871 
L 152.409625 361.436871 
L 152.288425 360.660377 
L 146.753625 360.660377 
L 146.632425 359.883882 
L 133.340825 359.883882 
L 133.219625 359.107387 
L 121.988425 359.107387 
L 121.867225 358.330893 
L 117.423225 358.330893 
L 117.302025 357.554398 
L 97.586825 357.554398 
L 97.465625 356.777903 
L 96.172825 356.777903 
L 96.051625 356.001409 
L 92.092425 356.001409 
L 91.971225 355.224914 
L 63.166025 355.224914 
L 63.166025 355.224914 
" clip-path="url(#p0a9d6bd3f0)" style="fill: none; stroke-dasharray: 7.4,3.2; stroke-dashoffset: 0; stroke: #8b0000; stroke-width: 2"/>
   </g>
   <g id="patch_3">
    <path d="M 46.965625 386.44 
L 46.965625 7.2 
" style="fill: none; stroke: #000000; stroke-width: 0.8; stroke-linejoin: miter; stroke-linecap: square"/>
   </g>
   <g id="patch_4">
    <path d="M 402.485625 386.44 
L 402.485625 7.2 
" style="fill: none; stroke: #000000; stroke-width: 0.8; stroke-linejoin: miter; stroke-linecap: square"/>
   </g>
   <g id="patch_5">
    <path d="M 46.965625 386.44 
L 402.485625 386.44 
" style="fill: none; stroke: #000000; stroke-width: 0.8; stroke-linejoin: miter; stroke-linecap: square"/>
   </g>
   <g id="patch_6">
    <path d="M 46.965625 7.2 
L 402.485625 7.2 
" style="fill: none; stroke: #000000; stroke-width: 0.8; stroke-linejoin: miter; stroke-linecap: square"/>
   </g>
   <g id="legend_1">
    <g id="patch_7">
     <path d="M 409.485625 117.946875 
L 558.877813 117.946875 
Q 560.877813 117.946875 560.877813 115.946875 
L 560.877813 14.2 
Q 560.877813 12.2 558.877813 12.2 
L 409.485625 12.2 
Q 407.485625 12.2 407.485625 14.2 
L 407.485625 115.946875 
Q 407.485625 117.946875 409.485625 117.946875 
z
" style="fill: #ffffff; opacity: 0.8; stroke: #cccccc; stroke-linejoin: miter"/>
    </g>
    <g id="text_17">
     <!-- Motifs &amp; orientation -->
     <g transform="translate(434.666094 23.798437) scale(0.1 -0.1)">
      <defs>
       <path id="DejaVuSans-4d" d="M 628 4666 
L 1569 4666 
L 2759 1491 
L 3956 4666 
L 4897 4666 
L 4897 0 
L 4281 0 
L 4281 4097 
L 3078 897 
L 2444 897 
L 1241 4097 
L 1241 0 
L 628 0 
L 628 4666 
z
" transform="scale(0.015625)"/>
       <path id="DejaVuSans-26" d="M 1556 2509 
Q 1272 2256 1139 2004 
Q 1006 1753 1006 1478 
Q 1006 1022 1337 719 
Q 1669 416 2169 416 
Q 2466 416 2725 514 
Q 2984 613 3213 813 
L 1556 2509 
z
M 1997 2859 
L 3584 1234 
Q 3769 1513 3872 1830 
Q 3975 2147 3994 2503 
L 4575 2503 
Q 4538 2091 4375 1687 
Q 4213 1284 3922 891 
L 4794 0 
L 4006 0 
L 3559 459 
Q 3234 181 2878 45 
Q 2522 -91 2113 -91 
Q 1359 -91 881 339 
Q 403 769 403 1441 
Q 403 1841 612 2192 
Q 822 2544 1241 2853 
Q 1091 3050 1012 3245 
Q 934 3441 934 3628 
Q 934 4134 1281 4442 
Q 1628 4750 2203 4750 
Q 2463 4750 2720 4694 
Q 2978 4638 3244 4525 
L 3244 3956 
Q 2972 4103 2725 4179 
Q 2478 4256 2266 4256 
Q 1938 4256 1733 4082 
Q 1528 3909 1528 3634 
Q 1528 3475 1620 3314 
Q 1713 3153 1997 2859 
z
" transform="scale(0.015625)"/>
      </defs>
      <use xlink:href="#DejaVuSans-4d"/>
      <use xlink:href="#DejaVuSans-6f" transform="translate(86.279297 0)"/>
      <use xlink:href="#DejaVuSans-74" transform="translate(147.460938 0)"/>
      <use xlink:href="#DejaVuSans-69" transform="translate(186.669922 0)"/>
      <use xlink:href="#DejaVuSans-66" transform="translate(214.453125 0)"/>
      <use xlink:href="#DejaVuSans-73" transform="translate(249.658203 0)"/>
      <use xlink:href="#DejaVuSans-20" transform="translate(301.757812 0)"/>
      <use xlink:href="#DejaVuSans-26" transform="translate(333.544922 0)"/>
      <use xlink:href="#DejaVuSans-20" transform="translate(411.523438 0)"/>
      <use xlink:href="#DejaVuSans-6f" transform="translate(443.310547 0)"/>
      <use xlink:href="#DejaVuSans-72" transform="translate(504.492188 0)"/>
      <use xlink:href="#DejaVuSans-69" transform="translate(545.605469 0)"/>
      <use xlink:href="#DejaVuSans-65" transform="translate(573.388672 0)"/>
      <use xlink:href="#DejaVuSans-6e" transform="translate(634.912109 0)"/>
      <use xlink:href="#DejaVuSans-74" transform="translate(698.291016 0)"/>
      <use xlink:href="#DejaVuSans-61" transform="translate(737.5 0)"/>
      <use xlink:href="#DejaVuSans-74" transform="translate(798.779297 0)"/>
      <use xlink:href="#DejaVuSans-69" transform="translate(837.988281 0)"/>
      <use xlink:href="#DejaVuSans-6f" transform="translate(865.771484 0)"/>
      <use xlink:href="#DejaVuSans-6e" transform="translate(926.953125 0)"/>
     </g>
    </g>
    <g id="line2d_35">
     <path d="M 411.485625 34.976562 
L 421.485625 34.976562 
L 431.485625 34.976562 
" style="fill: none; stroke: #add8e6; stroke-width: 2; stroke-linecap: square"/>
    </g>
    <g id="text_18">
     <!-- CCCAGACCTAA (5' end) -->
     <g transform="translate(439.485625 38.476562) scale(0.1 -0.1)">
      <defs>
       <path id="DejaVuSans-43" d="M 4122 4306 
L 4122 3641 
Q 3803 3938 3442 4084 
Q 3081 4231 2675 4231 
Q 1875 4231 1450 3742 
Q 1025 3253 1025 2328 
Q 1025 1406 1450 917 
Q 1875 428 2675 428 
Q 3081 428 3442 575 
Q 3803 722 4122 1019 
L 4122 359 
Q 3791 134 3420 21 
Q 3050 -91 2638 -91 
Q 1578 -91 968 557 
Q 359 1206 359 2328 
Q 359 3453 968 4101 
Q 1578 4750 2638 4750 
Q 3056 4750 3426 4639 
Q 3797 4528 4122 4306 
z
" transform="scale(0.015625)"/>
       <path id="DejaVuSans-47" d="M 3809 666 
L 3809 1919 
L 2778 1919 
L 2778 2438 
L 4434 2438 
L 4434 434 
Q 4069 175 3628 42 
Q 3188 -91 2688 -91 
Q 1594 -91 976 548 
Q 359 1188 359 2328 
Q 359 3472 976 4111 
Q 1594 4750 2688 4750 
Q 3144 4750 3555 4637 
Q 3966 4525 4313 4306 
L 4313 3634 
Q 3963 3931 3569 4081 
Q 3175 4231 2741 4231 
Q 1884 4231 1454 3753 
Q 1025 3275 1025 2328 
Q 1025 1384 1454 906 
Q 1884 428 2741 428 
Q 3075 428 3337 486 
Q 3600 544 3809 666 
z
" transform="scale(0.015625)"/>
       <path id="DejaVuSans-54" d="M -19 4666 
L 3928 4666 
L 3928 4134 
L 2272 4134 
L 2272 0 
L 1638 0 
L 1638 4134 
L -19 4134 
L -19 4666 
z
" transform="scale(0.015625)"/>
       <path id="DejaVuSans-28" d="M 1984 4856 
Q 1566 4138 1362 3434 
Q 1159 2731 1159 2009 
Q 1159 1288 1364 580 
Q 1569 -128 1984 -844 
L 1484 -844 
Q 1016 -109 783 600 
Q 550 1309 550 2009 
Q 550 2706 781 3412 
Q 1013 4119 1484 4856 
L 1984 4856 
z
" transform="scale(0.015625)"/>
       <path id="DejaVuSans-27" d="M 1147 4666 
L 1147 2931 
L 616 2931 
L 616 4666 
L 1147 4666 
z
" transform="scale(0.015625)"/>
       <path id="DejaVuSans-64" d="M 2906 2969 
L 2906 4863 
L 3481 4863 
L 3481 0 
L 2906 0 
L 2906 525 
Q 2725 213 2448 61 
Q 2172 -91 1784 -91 
Q 1150 -91 751 415 
Q 353 922 353 1747 
Q 353 2572 751 3078 
Q 1150 3584 1784 3584 
Q 2172 3584 2448 3432 
Q 2725 3281 2906 2969 
z
M 947 1747 
Q 947 1113 1208 752 
Q 1469 391 1925 391 
Q 2381 391 2643 752 
Q 2906 1113 2906 1747 
Q 2906 2381 2643 2742 
Q 2381 3103 1925 3103 
Q 1469 3103 1208 2742 
Q 947 2381 947 1747 
z
" transform="scale(0.015625)"/>
       <path id="DejaVuSans-29" d="M 513 4856 
L 1013 4856 
Q 1481 4119 1714 3412 
Q 1947 2706 1947 2009 
Q 1947 1309 1714 600 
Q 1481 -109 1013 -844 
L 513 -844 
Q 928 -128 1133 580 
Q 1338 1288 1338 2009 
Q 1338 2731 1133 3434 
Q 928 4138 513 4856 
z
" transform="scale(0.015625)"/>
      </defs>
      <use xlink:href="#DejaVuSans-43"/>
      <use xlink:href="#DejaVuSans-43" transform="translate(69.824219 0)"/>
      <use xlink:href="#DejaVuSans-43" transform="translate(139.648438 0)"/>
      <use xlink:href="#DejaVuSans-41" transform="translate(209.472656 0)"/>
      <use xlink:href="#DejaVuSans-47" transform="translate(276.130859 0)"/>
      <use xlink:href="#DejaVuSans-41" transform="translate(353.621094 0)"/>
      <use xlink:href="#DejaVuSans-43" transform="translate(420.279297 0)"/>
      <use xlink:href="#DejaVuSans-43" transform="translate(490.103516 0)"/>
      <use xlink:href="#DejaVuSans-54" transform="translate(559.927734 0)"/>
      <use xlink:href="#DejaVuSans-41" transform="translate(613.261719 0)"/>
      <use xlink:href="#DejaVuSans-41" transform="translate(684.419922 0)"/>
      <use xlink:href="#DejaVuSans-20" transform="translate(752.828125 0)"/>
      <use xlink:href="#DejaVuSans-28" transform="translate(784.615234 0)"/>
      <use xlink:href="#DejaVuSans-35" transform="translate(823.628906 0)"/>
      <use xlink:href="#DejaVuSans-27" transform="translate(887.251953 0)"/>
      <use xlink:href="#DejaVuSans-20" transform="translate(914.742188 0)"/>
      <use xlink:href="#DejaVuSans-65" transform="translate(946.529297 0)"/>
      <use xlink:href="#DejaVuSans-6e" transform="translate(1008.052734 0)"/>
      <use xlink:href="#DejaVuSans-64" transform="translate(1071.431641 0)"/>
      <use xlink:href="#DejaVuSans-29" transform="translate(1134.908203 0)"/>
     </g>
    </g>
    <g id="line2d_36">
     <path d="M 411.485625 49.654687 
L 421.485625 49.654687 
L 431.485625 49.654687 
" style="fill: none; stroke: #6495ed; stroke-width: 2; stroke-linecap: square"/>
    </g>
    <g id="text_19">
     <!-- CCCAGACTAA (5' end) -->
     <g transform="translate(439.485625 53.154687) scale(0.1 -0.1)">
      <use xlink:href="#DejaVuSans-43"/>
      <use xlink:href="#DejaVuSans-43" transform="translate(69.824219 0)"/>
      <use xlink:href="#DejaVuSans-43" transform="translate(139.648438 0)"/>
      <use xlink:href="#DejaVuSans-41" transform="translate(209.472656 0)"/>
      <use xlink:href="#DejaVuSans-47" transform="translate(276.130859 0)"/>
      <use xlink:href="#DejaVuSans-41" transform="translate(353.621094 0)"/>
      <use xlink:href="#DejaVuSans-43" transform="translate(420.279297 0)"/>
      <use xlink:href="#DejaVuSans-54" transform="translate(490.103516 0)"/>
      <use xlink:href="#DejaVuSans-41" transform="translate(543.4375 0)"/>
      <use xlink:href="#DejaVuSans-41" transform="translate(614.595703 0)"/>
      <use xlink:href="#DejaVuSans-20" transform="translate(683.003906 0)"/>
      <use xlink:href="#DejaVuSans-28" transform="translate(714.791016 0)"/>
      <use xlink:href="#DejaVuSans-35" transform="translate(753.804688 0)"/>
      <use xlink:href="#DejaVuSans-27" transform="translate(817.427734 0)"/>
      <use xlink:href="#DejaVuSans-20" transform="translate(844.917969 0)"/>
      <use xlink:href="#DejaVuSans-65" transform="translate(876.705078 0)"/>
      <use xlink:href="#DejaVuSans-6e" transform="translate(938.228516 0)"/>
      <use xlink:href="#DejaVuSans-64" transform="translate(1001.607422 0)"/>
      <use xlink:href="#DejaVuSans-29" transform="translate(1065.083984 0)"/>
     </g>
    </g>
    <g id="line2d_37">
     <path d="M 411.485625 64.332812 
L 421.485625 64.332812 
L 431.485625 64.332812 
" style="fill: none; stroke: #00008b; stroke-width: 2; stroke-linecap: square"/>
    </g>
    <g id="text_20">
     <!-- CCCTAA (5' end) -->
     <g transform="translate(439.485625 67.832812) scale(0.1 -0.1)">
      <use xlink:href="#DejaVuSans-43"/>
      <use xlink:href="#DejaVuSans-43" transform="translate(69.824219 0)"/>
      <use xlink:href="#DejaVuSans-43" transform="translate(139.648438 0)"/>
      <use xlink:href="#DejaVuSans-54" transform="translate(209.472656 0)"/>
      <use xlink:href="#DejaVuSans-41" transform="translate(262.806641 0)"/>
      <use xlink:href="#DejaVuSans-41" transform="translate(333.964844 0)"/>
      <use xlink:href="#DejaVuSans-20" transform="translate(402.373047 0)"/>
      <use xlink:href="#DejaVuSans-28" transform="translate(434.160156 0)"/>
      <use xlink:href="#DejaVuSans-35" transform="translate(473.173828 0)"/>
      <use xlink:href="#DejaVuSans-27" transform="translate(536.796875 0)"/>
      <use xlink:href="#DejaVuSans-20" transform="translate(564.287109 0)"/>
      <use xlink:href="#DejaVuSans-65" transform="translate(596.074219 0)"/>
      <use xlink:href="#DejaVuSans-6e" transform="translate(657.597656 0)"/>
      <use xlink:href="#DejaVuSans-64" transform="translate(720.976562 0)"/>
      <use xlink:href="#DejaVuSans-29" transform="translate(784.453125 0)"/>
     </g>
    </g>
    <g id="line2d_38">
     <path d="M 411.485625 79.010937 
L 421.485625 79.010937 
L 431.485625 79.010937 
" style="fill: none; stroke-dasharray: 7.4,3.2; stroke-dashoffset: 0; stroke: #fa8072; stroke-width: 2"/>
    </g>
    <g id="text_21">
     <!-- TTAGGTCTGGG (3' end) -->
     <g transform="translate(439.485625 82.510937) scale(0.1 -0.1)">
      <use xlink:href="#DejaVuSans-54"/>
      <use xlink:href="#DejaVuSans-54" transform="translate(59.333984 0)"/>
      <use xlink:href="#DejaVuSans-41" transform="translate(112.667969 0)"/>
      <use xlink:href="#DejaVuSans-47" transform="translate(179.326172 0)"/>
      <use xlink:href="#DejaVuSans-47" transform="translate(256.816406 0)"/>
      <use xlink:href="#DejaVuSans-54" transform="translate(330.681641 0)"/>
      <use xlink:href="#DejaVuSans-43" transform="translate(385.890625 0)"/>
      <use xlink:href="#DejaVuSans-54" transform="translate(455.714844 0)"/>
      <use xlink:href="#DejaVuSans-47" transform="translate(516.798828 0)"/>
      <use xlink:href="#DejaVuSans-47" transform="translate(594.289062 0)"/>
      <use xlink:href="#DejaVuSans-47" transform="translate(671.779297 0)"/>
      <use xlink:href="#DejaVuSans-20" transform="translate(749.269531 0)"/>
      <use xlink:href="#DejaVuSans-28" transform="translate(781.056641 0)"/>
      <use xlink:href="#DejaVuSans-33" transform="translate(820.070312 0)"/>
      <use xlink:href="#DejaVuSans-27" transform="translate(883.693359 0)"/>
      <use xlink:href="#DejaVuSans-20" transform="translate(911.183594 0)"/>
      <use xlink:href="#DejaVuSans-65" transform="translate(942.970703 0)"/>
      <use xlink:href="#DejaVuSans-6e" transform="translate(1004.494141 0)"/>
      <use xlink:href="#DejaVuSans-64" transform="translate(1067.873047 0)"/>
      <use xlink:href="#DejaVuSans-29" transform="translate(1131.349609 0)"/>
     </g>
    </g>
    <g id="line2d_39">
     <path d="M 411.485625 93.689062 
L 421.485625 93.689062 
L 431.485625 93.689062 
" style="fill: none; stroke-dasharray: 7.4,3.2; stroke-dashoffset: 0; stroke: #ff4500; stroke-width: 2"/>
    </g>
    <g id="text_22">
     <!-- TTAGTCTGGG (3' end) -->
     <g transform="translate(439.485625 97.189062) scale(0.1 -0.1)">
      <use xlink:href="#DejaVuSans-54"/>
      <use xlink:href="#DejaVuSans-54" transform="translate(59.333984 0)"/>
      <use xlink:href="#DejaVuSans-41" transform="translate(112.667969 0)"/>
      <use xlink:href="#DejaVuSans-47" transform="translate(179.326172 0)"/>
      <use xlink:href="#DejaVuSans-54" transform="translate(253.191406 0)"/>
      <use xlink:href="#DejaVuSans-43" transform="translate(308.400391 0)"/>
      <use xlink:href="#DejaVuSans-54" transform="translate(378.224609 0)"/>
      <use xlink:href="#DejaVuSans-47" transform="translate(439.308594 0)"/>
      <use xlink:href="#DejaVuSans-47" transform="translate(516.798828 0)"/>
      <use xlink:href="#DejaVuSans-47" transform="translate(594.289062 0)"/>
      <use xlink:href="#DejaVuSans-20" transform="translate(671.779297 0)"/>
      <use xlink:href="#DejaVuSans-28" transform="translate(703.566406 0)"/>
      <use xlink:href="#DejaVuSans-33" transform="translate(742.580078 0)"/>
      <use xlink:href="#DejaVuSans-27" transform="translate(806.203125 0)"/>
      <use xlink:href="#DejaVuSans-20" transform="translate(833.693359 0)"/>
      <use xlink:href="#DejaVuSans-65" transform="translate(865.480469 0)"/>
      <use xlink:href="#DejaVuSans-6e" transform="translate(927.003906 0)"/>
      <use xlink:href="#DejaVuSans-64" transform="translate(990.382812 0)"/>
      <use xlink:href="#DejaVuSans-29" transform="translate(1053.859375 0)"/>
     </g>
    </g>
    <g id="line2d_40">
     <path d="M 411.485625 108.367187 
L 421.485625 108.367187 
L 431.485625 108.367187 
" style="fill: none; stroke-dasharray: 7.4,3.2; stroke-dashoffset: 0; stroke: #8b0000; stroke-width: 2"/>
    </g>
    <g id="text_23">
     <!-- TTAGGG (3' end) -->
     <g transform="translate(439.485625 111.867187) scale(0.1 -0.1)">
      <use xlink:href="#DejaVuSans-54"/>
      <use xlink:href="#DejaVuSans-54" transform="translate(59.333984 0)"/>
      <use xlink:href="#DejaVuSans-41" transform="translate(112.667969 0)"/>
      <use xlink:href="#DejaVuSans-47" transform="translate(179.326172 0)"/>
      <use xlink:href="#DejaVuSans-47" transform="translate(256.816406 0)"/>
      <use xlink:href="#DejaVuSans-47" transform="translate(334.306641 0)"/>
      <use xlink:href="#DejaVuSans-20" transform="translate(411.796875 0)"/>
      <use xlink:href="#DejaVuSans-28" transform="translate(443.583984 0)"/>
      <use xlink:href="#DejaVuSans-33" transform="translate(482.597656 0)"/>
      <use xlink:href="#DejaVuSans-27" transform="translate(546.220703 0)"/>
      <use xlink:href="#DejaVuSans-20" transform="translate(573.710938 0)"/>
      <use xlink:href="#DejaVuSans-65" transform="translate(605.498047 0)"/>
      <use xlink:href="#DejaVuSans-6e" transform="translate(667.021484 0)"/>
      <use xlink:href="#DejaVuSans-64" transform="translate(730.400391 0)"/>
      <use xlink:href="#DejaVuSans-29" transform="translate(793.876953 0)"/>
     </g>
    </g>
   </g>
  </g>
 </g>
 <defs>
  <clipPath id="p0a9d6bd3f0">
   <rect x="46.965625" y="7.2" width="355.52" height="379.24"/>
  </clipPath>
 </defs>
</svg>
