<?xml version="1.0" encoding="utf-8" standalone="no"?>
<!DOCTYPE svg PUBLIC "-//W3C//DTD SVG 1.1//EN"
  "http://www.w3.org/Graphics/SVG/1.1/DTD/svg11.dtd">
<svg xmlns:xlink="http://www.w3.org/1999/xlink" width="568.077813pt" height="423.99625pt" viewBox="0 0 568.077813 423.99625" xmlns="http://www.w3.org/2000/svg" version="1.1">
 <metadata>
  <rdf:RDF xmlns:dc="http://purl.org/dc/elements/1.1/" xmlns:cc="http://creativecommons.org/ns#" xmlns:rdf="http://www.w3.org/1999/02/22-rdf-syntax-ns#">
   <cc:Work>
    <dc:type rdf:resource="http://purl.org/dc/dcmitype/StillImage"/>
    <dc:date>2026-04-30T15:25:31.718028</dc:date>
    <dc:format>image/svg+xml</dc:format>
    <dc:creator>
     <cc:Agent>
      <dc:title>Matplotlib v3.10.6, https://matplotlib.org/</dc:title>
     </cc:Agent>
    </dc:creator>
   </cc:Work>
  </rdf:RDF>
 </metadata>
 <defs>
  <style type="text/css">*{stroke-linejoin: round; stroke-linecap: butt}</style>
 </defs>
 <g id="figure_1">
  <g id="patch_1">
   <path d="M 0 423.99625 
L 568.077813 423.99625 
L 568.077813 0 
L 0 0 
z
" style="fill: #ffffff"/>
  </g>
  <g id="axes_1">
   <g id="patch_2">
    <path d="M 46.965625 386.44 
L 402.485625 386.44 
L 402.485625 7.2 
L 46.965625 7.2 
z
" style="fill: #ffffff"/>
   </g>
   <g id="matplotlib.axis_1">
    <g id="xtick_1">
     <g id="line2d_1">
      <path d="M 63.125625 386.44 
L 63.125625 7.2 
" clip-path="url(#p76273b1473)" style="fill: none; stroke-dasharray: 2.96,1.28; stroke-dashoffset: 0; stroke: #b0b0b0; stroke-opacity: 0.6; stroke-width: 0.8"/>
     </g>
     <g id="line2d_2">
      <defs>
       <path id="mee08431006" d="M 0 0 
L 0 3.5 
" style="stroke: #000000; stroke-width: 0.8"/>
      </defs>
      <g>
       <use xlink:href="#mee08431006" x="63.125625" y="386.44" style="stroke: #000000; stroke-width: 0.8"/>
      </g>
     </g>
     <g id="text_1">
      <!-- 0 -->
      <g transform="translate(59.944375 401.038437) scale(0.1 -0.1)">
       <defs>
        <path id="DejaVuSans-30" d="M 2034 4250 
Q 1547 4250 1301 3770 
Q 1056 3291 1056 2328 
Q 1056 1369 1301 889 
Q 1547 409 2034 409 
Q 2525 409 2770 889 
Q 3016 1369 3016 2328 
Q 3016 3291 2770 3770 
Q 2525 4250 2034 4250 
z
M 2034 4750 
Q 2819 4750 3233 4129 
Q 3647 3509 3647 2328 
Q 3647 1150 3233 529 
Q 2819 -91 2034 -91 
Q 1250 -91 836 529 
Q 422 1150 422 2328 
Q 422 3509 836 4129 
Q 1250 4750 2034 4750 
z
" transform="scale(0.015625)"/>
       </defs>
       <use xlink:href="#DejaVuSans-30"/>
      </g>
     </g>
    </g>
    <g id="xtick_2">
     <g id="line2d_3">
      <path d="M 103.530676 386.44 
L 103.530676 7.2 
" clip-path="url(#p76273b1473)" style="fill: none; stroke-dasharray: 2.96,1.28; stroke-dashoffset: 0; stroke: #b0b0b0; stroke-opacity: 0.6; stroke-width: 0.8"/>
     </g>
     <g id="line2d_4">
      <g>
       <use xlink:href="#mee08431006" x="103.530676" y="386.44" style="stroke: #000000; stroke-width: 0.8"/>
      </g>
     </g>
     <g id="text_2">
      <!-- 1000 -->
      <g transform="translate(90.805676 401.038437) scale(0.1 -0.1)">
       <defs>
        <path id="DejaVuSans-31" d="M 794 531 
L 1825 531 
L 1825 4091 
L 703 3866 
L 703 4441 
L 1819 4666 
L 2450 4666 
L 2450 531 
L 3481 531 
L 3481 0 
L 794 0 
L 794 531 
z
" transform="scale(0.015625)"/>
       </defs>
       <use xlink:href="#DejaVuSans-31"/>
       <use xlink:href="#DejaVuSans-30" transform="translate(63.623047 0)"/>
       <use xlink:href="#DejaVuSans-30" transform="translate(127.246094 0)"/>
       <use xlink:href="#DejaVuSans-30" transform="translate(190.869141 0)"/>
      </g>
     </g>
    </g>
    <g id="xtick_3">
     <g id="line2d_5">
      <path d="M 143.935726 386.44 
L 143.935726 7.2 
" clip-path="url(#p76273b1473)" style="fill: none; stroke-dasharray: 2.96,1.28; stroke-dashoffset: 0; stroke: #b0b0b0; stroke-opacity: 0.6; stroke-width: 0.8"/>
     </g>
     <g id="line2d_6">
      <g>
       <use xlink:href="#mee08431006" x="143.935726" y="386.44" style="stroke: #000000; stroke-width: 0.8"/>
      </g>
     </g>
     <g id="text_3">
      <!-- 2000 -->
      <g transform="translate(131.210726 401.038437) scale(0.1 -0.1)">
       <defs>
        <path id="DejaVuSans-32" d="M 1228 531 
L 3431 531 
L 3431 0 
L 469 0 
L 469 531 
Q 828 903 1448 1529 
Q 2069 2156 2228 2338 
Q 2531 2678 2651 2914 
Q 2772 3150 2772 3378 
Q 2772 3750 2511 3984 
Q 2250 4219 1831 4219 
Q 1534 4219 1204 4116 
Q 875 4013 500 3803 
L 500 4441 
Q 881 4594 1212 4672 
Q 1544 4750 1819 4750 
Q 2544 4750 2975 4387 
Q 3406 4025 3406 3419 
Q 3406 3131 3298 2873 
Q 3191 2616 2906 2266 
Q 2828 2175 2409 1742 
Q 1991 1309 1228 531 
z
" transform="scale(0.015625)"/>
       </defs>
       <use xlink:href="#DejaVuSans-32"/>
       <use xlink:href="#DejaVuSans-30" transform="translate(63.623047 0)"/>
       <use xlink:href="#DejaVuSans-30" transform="translate(127.246094 0)"/>
       <use xlink:href="#DejaVuSans-30" transform="translate(190.869141 0)"/>
      </g>
     </g>
    </g>
    <g id="xtick_4">
     <g id="line2d_7">
      <path d="M 184.340777 386.44 
L 184.340777 7.2 
" clip-path="url(#p76273b1473)" style="fill: none; stroke-dasharray: 2.96,1.28; stroke-dashoffset: 0; stroke: #b0b0b0; stroke-opacity: 0.6; stroke-width: 0.8"/>
     </g>
     <g id="line2d_8">
      <g>
       <use xlink:href="#mee08431006" x="184.340777" y="386.44" style="stroke: #000000; stroke-width: 0.8"/>
      </g>
     </g>
     <g id="text_4">
      <!-- 3000 -->
      <g transform="translate(171.615777 401.038437) scale(0.1 -0.1)">
       <defs>
        <path id="DejaVuSans-33" d="M 2597 2516 
Q 3050 2419 3304 2112 
Q 3559 1806 3559 1356 
Q 3559 666 3084 287 
Q 2609 -91 1734 -91 
Q 1441 -91 1130 -33 
Q 819 25 488 141 
L 488 750 
Q 750 597 1062 519 
Q 1375 441 1716 441 
Q 2309 441 2620 675 
Q 2931 909 2931 1356 
Q 2931 1769 2642 2001 
Q 2353 2234 1838 2234 
L 1294 2234 
L 1294 2753 
L 1863 2753 
Q 2328 2753 2575 2939 
Q 2822 3125 2822 3475 
Q 2822 3834 2567 4026 
Q 2313 4219 1838 4219 
Q 1578 4219 1281 4162 
Q 984 4106 628 3988 
L 628 4550 
Q 988 4650 1302 4700 
Q 1616 4750 1894 4750 
Q 2613 4750 3031 4423 
Q 3450 4097 3450 3541 
Q 3450 3153 3228 2886 
Q 3006 2619 2597 2516 
z
" transform="scale(0.015625)"/>
       </defs>
       <use xlink:href="#DejaVuSans-33"/>
       <use xlink:href="#DejaVuSans-30" transform="translate(63.623047 0)"/>
       <use xlink:href="#DejaVuSans-30" transform="translate(127.246094 0)"/>
       <use xlink:href="#DejaVuSans-30" transform="translate(190.869141 0)"/>
      </g>
     </g>
    </g>
    <g id="xtick_5">
     <g id="line2d_9">
      <path d="M 224.745828 386.44 
L 224.745828 7.2 
" clip-path="url(#p76273b1473)" style="fill: none; stroke-dasharray: 2.96,1.28; stroke-dashoffset: 0; stroke: #b0b0b0; stroke-opacity: 0.6; stroke-width: 0.8"/>
     </g>
     <g id="line2d_10">
      <g>
       <use xlink:href="#mee08431006" x="224.745828" y="386.44" style="stroke: #000000; stroke-width: 0.8"/>
      </g>
     </g>
     <g id="text_5">
      <!-- 4000 -->
      <g transform="translate(212.020828 401.038437) scale(0.1 -0.1)">
       <defs>
        <path id="DejaVuSans-34" d="M 2419 4116 
L 825 1625 
L 2419 1625 
L 2419 4116 
z
M 2253 4666 
L 3047 4666 
L 3047 1625 
L 3713 1625 
L 3713 1100 
L 3047 1100 
L 3047 0 
L 2419 0 
L 2419 1100 
L 313 1100 
L 313 1709 
L 2253 4666 
z
" transform="scale(0.015625)"/>
       </defs>
       <use xlink:href="#DejaVuSans-34"/>
       <use xlink:href="#DejaVuSans-30" transform="translate(63.623047 0)"/>
       <use xlink:href="#DejaVuSans-30" transform="translate(127.246094 0)"/>
       <use xlink:href="#DejaVuSans-30" transform="translate(190.869141 0)"/>
      </g>
     </g>
    </g>
    <g id="xtick_6">
     <g id="line2d_11">
      <path d="M 265.150878 386.44 
L 265.150878 7.2 
" clip-path="url(#p76273b1473)" style="fill: none; stroke-dasharray: 2.96,1.28; stroke-dashoffset: 0; stroke: #b0b0b0; stroke-opacity: 0.6; stroke-width: 0.8"/>
     </g>
     <g id="line2d_12">
      <g>
       <use xlink:href="#mee08431006" x="265.150878" y="386.44" style="stroke: #000000; stroke-width: 0.8"/>
      </g>
     </g>
     <g id="text_6">
      <!-- 5000 -->
      <g transform="translate(252.425878 401.038437) scale(0.1 -0.1)">
       <defs>
        <path id="DejaVuSans-35" d="M 691 4666 
L 3169 4666 
L 3169 4134 
L 1269 4134 
L 1269 2991 
Q 1406 3038 1543 3061 
Q 1681 3084 1819 3084 
Q 2600 3084 3056 2656 
Q 3513 2228 3513 1497 
Q 3513 744 3044 326 
Q 2575 -91 1722 -91 
Q 1428 -91 1123 -41 
Q 819 9 494 109 
L 494 744 
Q 775 591 1075 516 
Q 1375 441 1709 441 
Q 2250 441 2565 725 
Q 2881 1009 2881 1497 
Q 2881 1984 2565 2268 
Q 2250 2553 1709 2553 
Q 1456 2553 1204 2497 
Q 953 2441 691 2322 
L 691 4666 
z
" transform="scale(0.015625)"/>
       </defs>
       <use xlink:href="#DejaVuSans-35"/>
       <use xlink:href="#DejaVuSans-30" transform="translate(63.623047 0)"/>
       <use xlink:href="#DejaVuSans-30" transform="translate(127.246094 0)"/>
       <use xlink:href="#DejaVuSans-30" transform="translate(190.869141 0)"/>
      </g>
     </g>
    </g>
    <g id="xtick_7">
     <g id="line2d_13">
      <path d="M 305.555929 386.44 
L 305.555929 7.2 
" clip-path="url(#p76273b1473)" style="fill: none; stroke-dasharray: 2.96,1.28; stroke-dashoffset: 0; stroke: #b0b0b0; stroke-opacity: 0.6; stroke-width: 0.8"/>
     </g>
     <g id="line2d_14">
      <g>
       <use xlink:href="#mee08431006" x="305.555929" y="386.44" style="stroke: #000000; stroke-width: 0.8"/>
      </g>
     </g>
     <g id="text_7">
      <!-- 6000 -->
      <g transform="translate(292.830929 401.038437) scale(0.1 -0.1)">
       <defs>
        <path id="DejaVuSans-36" d="M 2113 2584 
Q 1688 2584 1439 2293 
Q 1191 2003 1191 1497 
Q 1191 994 1439 701 
Q 1688 409 2113 409 
Q 2538 409 2786 701 
Q 3034 994 3034 1497 
Q 3034 2003 2786 2293 
Q 2538 2584 2113 2584 
z
M 3366 4563 
L 3366 3988 
Q 3128 4100 2886 4159 
Q 2644 4219 2406 4219 
Q 1781 4219 1451 3797 
Q 1122 3375 1075 2522 
Q 1259 2794 1537 2939 
Q 1816 3084 2150 3084 
Q 2853 3084 3261 2657 
Q 3669 2231 3669 1497 
Q 3669 778 3244 343 
Q 2819 -91 2113 -91 
Q 1303 -91 875 529 
Q 447 1150 447 2328 
Q 447 3434 972 4092 
Q 1497 4750 2381 4750 
Q 2619 4750 2861 4703 
Q 3103 4656 3366 4563 
z
" transform="scale(0.015625)"/>
       </defs>
       <use xlink:href="#DejaVuSans-36"/>
       <use xlink:href="#DejaVuSans-30" transform="translate(63.623047 0)"/>
       <use xlink:href="#DejaVuSans-30" transform="translate(127.246094 0)"/>
       <use xlink:href="#DejaVuSans-30" transform="translate(190.869141 0)"/>
      </g>
     </g>
    </g>
    <g id="xtick_8">
     <g id="line2d_15">
      <path d="M 345.960979 386.44 
L 345.960979 7.2 
" clip-path="url(#p76273b1473)" style="fill: none; stroke-dasharray: 2.96,1.28; stroke-dashoffset: 0; stroke: #b0b0b0; stroke-opacity: 0.6; stroke-width: 0.8"/>
     </g>
     <g id="line2d_16">
      <g>
       <use xlink:href="#mee08431006" x="345.960979" y="386.44" style="stroke: #000000; stroke-width: 0.8"/>
      </g>
     </g>
     <g id="text_8">
      <!-- 7000 -->
      <g transform="translate(333.235979 401.038437) scale(0.1 -0.1)">
       <defs>
        <path id="DejaVuSans-37" d="M 525 4666 
L 3525 4666 
L 3525 4397 
L 1831 0 
L 1172 0 
L 2766 4134 
L 525 4134 
L 525 4666 
z
" transform="scale(0.015625)"/>
       </defs>
       <use xlink:href="#DejaVuSans-37"/>
       <use xlink:href="#DejaVuSans-30" transform="translate(63.623047 0)"/>
       <use xlink:href="#DejaVuSans-30" transform="translate(127.246094 0)"/>
       <use xlink:href="#DejaVuSans-30" transform="translate(190.869141 0)"/>
      </g>
     </g>
    </g>
    <g id="xtick_9">
     <g id="line2d_17">
      <path d="M 386.36603 386.44 
L 386.36603 7.2 
" clip-path="url(#p76273b1473)" style="fill: none; stroke-dasharray: 2.96,1.28; stroke-dashoffset: 0; stroke: #b0b0b0; stroke-opacity: 0.6; stroke-width: 0.8"/>
     </g>
     <g id="line2d_18">
      <g>
       <use xlink:href="#mee08431006" x="386.36603" y="386.44" style="stroke: #000000; stroke-width: 0.8"/>
      </g>
     </g>
     <g id="text_9">
      <!-- 8000 -->
      <g transform="translate(373.64103 401.038437) scale(0.1 -0.1)">
       <defs>
        <path id="DejaVuSans-38" d="M 2034 2216 
Q 1584 2216 1326 1975 
Q 1069 1734 1069 1313 
Q 1069 891 1326 650 
Q 1584 409 2034 409 
Q 2484 409 2743 651 
Q 3003 894 3003 1313 
Q 3003 1734 2745 1975 
Q 2488 2216 2034 2216 
z
M 1403 2484 
Q 997 2584 770 2862 
Q 544 3141 544 3541 
Q 544 4100 942 4425 
Q 1341 4750 2034 4750 
Q 2731 4750 3128 4425 
Q 3525 4100 3525 3541 
Q 3525 3141 3298 2862 
Q 3072 2584 2669 2484 
Q 3125 2378 3379 2068 
Q 3634 1759 3634 1313 
Q 3634 634 3220 271 
Q 2806 -91 2034 -91 
Q 1263 -91 848 271 
Q 434 634 434 1313 
Q 434 1759 690 2068 
Q 947 2378 1403 2484 
z
M 1172 3481 
Q 1172 3119 1398 2916 
Q 1625 2713 2034 2713 
Q 2441 2713 2670 2916 
Q 2900 3119 2900 3481 
Q 2900 3844 2670 4047 
Q 2441 4250 2034 4250 
Q 1625 4250 1398 4047 
Q 1172 3844 1172 3481 
z
" transform="scale(0.015625)"/>
       </defs>
       <use xlink:href="#DejaVuSans-38"/>
       <use xlink:href="#DejaVuSans-30" transform="translate(63.623047 0)"/>
       <use xlink:href="#DejaVuSans-30" transform="translate(127.246094 0)"/>
       <use xlink:href="#DejaVuSans-30" transform="translate(190.869141 0)"/>
      </g>
     </g>
    </g>
    <g id="text_10">
     <!-- Distance from terminus [nt] -->
     <g transform="translate(155.226406 414.716562) scale(0.1 -0.1)">
      <defs>
       <path id="DejaVuSans-44" d="M 1259 4147 
L 1259 519 
L 2022 519 
Q 2988 519 3436 956 
Q 3884 1394 3884 2338 
Q 3884 3275 3436 3711 
Q 2988 4147 2022 4147 
L 1259 4147 
z
M 628 4666 
L 1925 4666 
Q 3281 4666 3915 4102 
Q 4550 3538 4550 2338 
Q 4550 1131 3912 565 
Q 3275 0 1925 0 
L 628 0 
L 628 4666 
z
" transform="scale(0.015625)"/>
       <path id="DejaVuSans-69" d="M 603 3500 
L 1178 3500 
L 1178 0 
L 603 0 
L 603 3500 
z
M 603 4863 
L 1178 4863 
L 1178 4134 
L 603 4134 
L 603 4863 
z
" transform="scale(0.015625)"/>
       <path id="DejaVuSans-73" d="M 2834 3397 
L 2834 2853 
Q 2591 2978 2328 3040 
Q 2066 3103 1784 3103 
Q 1356 3103 1142 2972 
Q 928 2841 928 2578 
Q 928 2378 1081 2264 
Q 1234 2150 1697 2047 
L 1894 2003 
Q 2506 1872 2764 1633 
Q 3022 1394 3022 966 
Q 3022 478 2636 193 
Q 2250 -91 1575 -91 
Q 1294 -91 989 -36 
Q 684 19 347 128 
L 347 722 
Q 666 556 975 473 
Q 1284 391 1588 391 
Q 1994 391 2212 530 
Q 2431 669 2431 922 
Q 2431 1156 2273 1281 
Q 2116 1406 1581 1522 
L 1381 1569 
Q 847 1681 609 1914 
Q 372 2147 372 2553 
Q 372 3047 722 3315 
Q 1072 3584 1716 3584 
Q 2034 3584 2315 3537 
Q 2597 3491 2834 3397 
z
" transform="scale(0.015625)"/>
       <path id="DejaVuSans-74" d="M 1172 4494 
L 1172 3500 
L 2356 3500 
L 2356 3053 
L 1172 3053 
L 1172 1153 
Q 1172 725 1289 603 
Q 1406 481 1766 481 
L 2356 481 
L 2356 0 
L 1766 0 
Q 1100 0 847 248 
Q 594 497 594 1153 
L 594 3053 
L 172 3053 
L 172 3500 
L 594 3500 
L 594 4494 
L 1172 4494 
z
" transform="scale(0.015625)"/>
       <path id="DejaVuSans-61" d="M 2194 1759 
Q 1497 1759 1228 1600 
Q 959 1441 959 1056 
Q 959 750 1161 570 
Q 1363 391 1709 391 
Q 2188 391 2477 730 
Q 2766 1069 2766 1631 
L 2766 1759 
L 2194 1759 
z
M 3341 1997 
L 3341 0 
L 2766 0 
L 2766 531 
Q 2569 213 2275 61 
Q 1981 -91 1556 -91 
Q 1019 -91 701 211 
Q 384 513 384 1019 
Q 384 1609 779 1909 
Q 1175 2209 1959 2209 
L 2766 2209 
L 2766 2266 
Q 2766 2663 2505 2880 
Q 2244 3097 1772 3097 
Q 1472 3097 1187 3025 
Q 903 2953 641 2809 
L 641 3341 
Q 956 3463 1253 3523 
Q 1550 3584 1831 3584 
Q 2591 3584 2966 3190 
Q 3341 2797 3341 1997 
z
" transform="scale(0.015625)"/>
       <path id="DejaVuSans-6e" d="M 3513 2113 
L 3513 0 
L 2938 0 
L 2938 2094 
Q 2938 2591 2744 2837 
Q 2550 3084 2163 3084 
Q 1697 3084 1428 2787 
Q 1159 2491 1159 1978 
L 1159 0 
L 581 0 
L 581 3500 
L 1159 3500 
L 1159 2956 
Q 1366 3272 1645 3428 
Q 1925 3584 2291 3584 
Q 2894 3584 3203 3211 
Q 3513 2838 3513 2113 
z
" transform="scale(0.015625)"/>
       <path id="DejaVuSans-63" d="M 3122 3366 
L 3122 2828 
Q 2878 2963 2633 3030 
Q 2388 3097 2138 3097 
Q 1578 3097 1268 2742 
Q 959 2388 959 1747 
Q 959 1106 1268 751 
Q 1578 397 2138 397 
Q 2388 397 2633 464 
Q 2878 531 3122 666 
L 3122 134 
Q 2881 22 2623 -34 
Q 2366 -91 2075 -91 
Q 1284 -91 818 406 
Q 353 903 353 1747 
Q 353 2603 823 3093 
Q 1294 3584 2113 3584 
Q 2378 3584 2631 3529 
Q 2884 3475 3122 3366 
z
" transform="scale(0.015625)"/>
       <path id="DejaVuSans-65" d="M 3597 1894 
L 3597 1613 
L 953 1613 
Q 991 1019 1311 708 
Q 1631 397 2203 397 
Q 2534 397 2845 478 
Q 3156 559 3463 722 
L 3463 178 
Q 3153 47 2828 -22 
Q 2503 -91 2169 -91 
Q 1331 -91 842 396 
Q 353 884 353 1716 
Q 353 2575 817 3079 
Q 1281 3584 2069 3584 
Q 2775 3584 3186 3129 
Q 3597 2675 3597 1894 
z
M 3022 2063 
Q 3016 2534 2758 2815 
Q 2500 3097 2075 3097 
Q 1594 3097 1305 2825 
Q 1016 2553 972 2059 
L 3022 2063 
z
" transform="scale(0.015625)"/>
       <path id="DejaVuSans-20" transform="scale(0.015625)"/>
       <path id="DejaVuSans-66" d="M 2375 4863 
L 2375 4384 
L 1825 4384 
Q 1516 4384 1395 4259 
Q 1275 4134 1275 3809 
L 1275 3500 
L 2222 3500 
L 2222 3053 
L 1275 3053 
L 1275 0 
L 697 0 
L 697 3053 
L 147 3053 
L 147 3500 
L 697 3500 
L 697 3744 
Q 697 4328 969 4595 
Q 1241 4863 1831 4863 
L 2375 4863 
z
" transform="scale(0.015625)"/>
       <path id="DejaVuSans-72" d="M 2631 2963 
Q 2534 3019 2420 3045 
Q 2306 3072 2169 3072 
Q 1681 3072 1420 2755 
Q 1159 2438 1159 1844 
L 1159 0 
L 581 0 
L 581 3500 
L 1159 3500 
L 1159 2956 
Q 1341 3275 1631 3429 
Q 1922 3584 2338 3584 
Q 2397 3584 2469 3576 
Q 2541 3569 2628 3553 
L 2631 2963 
z
" transform="scale(0.015625)"/>
       <path id="DejaVuSans-6f" d="M 1959 3097 
Q 1497 3097 1228 2736 
Q 959 2375 959 1747 
Q 959 1119 1226 758 
Q 1494 397 1959 397 
Q 2419 397 2687 759 
Q 2956 1122 2956 1747 
Q 2956 2369 2687 2733 
Q 2419 3097 1959 3097 
z
M 1959 3584 
Q 2709 3584 3137 3096 
Q 3566 2609 3566 1747 
Q 3566 888 3137 398 
Q 2709 -91 1959 -91 
Q 1206 -91 779 398 
Q 353 888 353 1747 
Q 353 2609 779 3096 
Q 1206 3584 1959 3584 
z
" transform="scale(0.015625)"/>
       <path id="DejaVuSans-6d" d="M 3328 2828 
Q 3544 3216 3844 3400 
Q 4144 3584 4550 3584 
Q 5097 3584 5394 3201 
Q 5691 2819 5691 2113 
L 5691 0 
L 5113 0 
L 5113 2094 
Q 5113 2597 4934 2840 
Q 4756 3084 4391 3084 
Q 3944 3084 3684 2787 
Q 3425 2491 3425 1978 
L 3425 0 
L 2847 0 
L 2847 2094 
Q 2847 2600 2669 2842 
Q 2491 3084 2119 3084 
Q 1678 3084 1418 2786 
Q 1159 2488 1159 1978 
L 1159 0 
L 581 0 
L 581 3500 
L 1159 3500 
L 1159 2956 
Q 1356 3278 1631 3431 
Q 1906 3584 2284 3584 
Q 2666 3584 2933 3390 
Q 3200 3197 3328 2828 
z
" transform="scale(0.015625)"/>
       <path id="DejaVuSans-75" d="M 544 1381 
L 544 3500 
L 1119 3500 
L 1119 1403 
Q 1119 906 1312 657 
Q 1506 409 1894 409 
Q 2359 409 2629 706 
Q 2900 1003 2900 1516 
L 2900 3500 
L 3475 3500 
L 3475 0 
L 2900 0 
L 2900 538 
Q 2691 219 2414 64 
Q 2138 -91 1772 -91 
Q 1169 -91 856 284 
Q 544 659 544 1381 
z
M 1991 3584 
L 1991 3584 
z
" transform="scale(0.015625)"/>
       <path id="DejaVuSans-5b" d="M 550 4863 
L 1875 4863 
L 1875 4416 
L 1125 4416 
L 1125 -397 
L 1875 -397 
L 1875 -844 
L 550 -844 
L 550 4863 
z
" transform="scale(0.015625)"/>
       <path id="DejaVuSans-5d" d="M 1947 4863 
L 1947 -844 
L 622 -844 
L 622 -397 
L 1369 -397 
L 1369 4416 
L 622 4416 
L 622 4863 
L 1947 4863 
z
" transform="scale(0.015625)"/>
      </defs>
      <use xlink:href="#DejaVuSans-44"/>
      <use xlink:href="#DejaVuSans-69" transform="translate(77.001953 0)"/>
      <use xlink:href="#DejaVuSans-73" transform="translate(104.785156 0)"/>
      <use xlink:href="#DejaVuSans-74" transform="translate(156.884766 0)"/>
      <use xlink:href="#DejaVuSans-61" transform="translate(196.09375 0)"/>
      <use xlink:href="#DejaVuSans-6e" transform="translate(257.373047 0)"/>
      <use xlink:href="#DejaVuSans-63" transform="translate(320.751953 0)"/>
      <use xlink:href="#DejaVuSans-65" transform="translate(375.732422 0)"/>
      <use xlink:href="#DejaVuSans-20" transform="translate(437.255859 0)"/>
      <use xlink:href="#DejaVuSans-66" transform="translate(469.042969 0)"/>
      <use xlink:href="#DejaVuSans-72" transform="translate(504.248047 0)"/>
      <use xlink:href="#DejaVuSans-6f" transform="translate(543.111328 0)"/>
      <use xlink:href="#DejaVuSans-6d" transform="translate(604.292969 0)"/>
      <use xlink:href="#DejaVuSans-20" transform="translate(701.705078 0)"/>
      <use xlink:href="#DejaVuSans-74" transform="translate(733.492188 0)"/>
      <use xlink:href="#DejaVuSans-65" transform="translate(772.701172 0)"/>
      <use xlink:href="#DejaVuSans-72" transform="translate(834.224609 0)"/>
      <use xlink:href="#DejaVuSans-6d" transform="translate(873.587891 0)"/>
      <use xlink:href="#DejaVuSans-69" transform="translate(971 0)"/>
      <use xlink:href="#DejaVuSans-6e" transform="translate(998.783203 0)"/>
      <use xlink:href="#DejaVuSans-75" transform="translate(1062.162109 0)"/>
      <use xlink:href="#DejaVuSans-73" transform="translate(1125.541016 0)"/>
      <use xlink:href="#DejaVuSans-20" transform="translate(1177.640625 0)"/>
      <use xlink:href="#DejaVuSans-5b" transform="translate(1209.427734 0)"/>
      <use xlink:href="#DejaVuSans-6e" transform="translate(1248.441406 0)"/>
      <use xlink:href="#DejaVuSans-74" transform="translate(1311.820312 0)"/>
      <use xlink:href="#DejaVuSans-5d" transform="translate(1351.029297 0)"/>
     </g>
    </g>
   </g>
   <g id="matplotlib.axis_2">
    <g id="ytick_1">
     <g id="line2d_19">
      <path d="M 46.965625 369.201818 
L 402.485625 369.201818 
" clip-path="url(#p76273b1473)" style="fill: none; stroke-dasharray: 2.96,1.28; stroke-dashoffset: 0; stroke: #b0b0b0; stroke-opacity: 0.6; stroke-width: 0.8"/>
     </g>
     <g id="line2d_20">
      <defs>
       <path id="mddb87f2924" d="M 0 0 
L -3.5 0 
" style="stroke: #000000; stroke-width: 0.8"/>
      </defs>
      <g>
       <use xlink:href="#mddb87f2924" x="46.965625" y="369.201818" style="stroke: #000000; stroke-width: 0.8"/>
      </g>
     </g>
     <g id="text_11">
      <!-- 0 -->
      <g transform="translate(33.603125 373.001037) scale(0.1 -0.1)">
       <use xlink:href="#DejaVuSans-30"/>
      </g>
     </g>
    </g>
    <g id="ytick_2">
     <g id="line2d_21">
      <path d="M 46.965625 312.027086 
L 402.485625 312.027086 
" clip-path="url(#p76273b1473)" style="fill: none; stroke-dasharray: 2.96,1.28; stroke-dashoffset: 0; stroke: #b0b0b0; stroke-opacity: 0.6; stroke-width: 0.8"/>
     </g>
     <g id="line2d_22">
      <g>
       <use xlink:href="#mddb87f2924" x="46.965625" y="312.027086" style="stroke: #000000; stroke-width: 0.8"/>
      </g>
     </g>
     <g id="text_12">
      <!-- 50 -->
      <g transform="translate(27.240625 315.826305) scale(0.1 -0.1)">
       <use xlink:href="#DejaVuSans-35"/>
       <use xlink:href="#DejaVuSans-30" transform="translate(63.623047 0)"/>
      </g>
     </g>
    </g>
    <g id="ytick_3">
     <g id="line2d_23">
      <path d="M 46.965625 254.852353 
L 402.485625 254.852353 
" clip-path="url(#p76273b1473)" style="fill: none; stroke-dasharray: 2.96,1.28; stroke-dashoffset: 0; stroke: #b0b0b0; stroke-opacity: 0.6; stroke-width: 0.8"/>
     </g>
     <g id="line2d_24">
      <g>
       <use xlink:href="#mddb87f2924" x="46.965625" y="254.852353" style="stroke: #000000; stroke-width: 0.8"/>
      </g>
     </g>
     <g id="text_13">
      <!-- 100 -->
      <g transform="translate(20.878125 258.651572) scale(0.1 -0.1)">
       <use xlink:href="#DejaVuSans-31"/>
       <use xlink:href="#DejaVuSans-30" transform="translate(63.623047 0)"/>
       <use xlink:href="#DejaVuSans-30" transform="translate(127.246094 0)"/>
      </g>
     </g>
    </g>
    <g id="ytick_4">
     <g id="line2d_25">
      <path d="M 46.965625 197.677621 
L 402.485625 197.677621 
" clip-path="url(#p76273b1473)" style="fill: none; stroke-dasharray: 2.96,1.28; stroke-dashoffset: 0; stroke: #b0b0b0; stroke-opacity: 0.6; stroke-width: 0.8"/>
     </g>
     <g id="line2d_26">
      <g>
       <use xlink:href="#mddb87f2924" x="46.965625" y="197.677621" style="stroke: #000000; stroke-width: 0.8"/>
      </g>
     </g>
     <g id="text_14">
      <!-- 150 -->
      <g transform="translate(20.878125 201.47684) scale(0.1 -0.1)">
       <use xlink:href="#DejaVuSans-31"/>
       <use xlink:href="#DejaVuSans-35" transform="translate(63.623047 0)"/>
       <use xlink:href="#DejaVuSans-30" transform="translate(127.246094 0)"/>
      </g>
     </g>
    </g>
    <g id="ytick_5">
     <g id="line2d_27">
      <path d="M 46.965625 140.502889 
L 402.485625 140.502889 
" clip-path="url(#p76273b1473)" style="fill: none; stroke-dasharray: 2.96,1.28; stroke-dashoffset: 0; stroke: #b0b0b0; stroke-opacity: 0.6; stroke-width: 0.8"/>
     </g>
     <g id="line2d_28">
      <g>
       <use xlink:href="#mddb87f2924" x="46.965625" y="140.502889" style="stroke: #000000; stroke-width: 0.8"/>
      </g>
     </g>
     <g id="text_15">
      <!-- 200 -->
      <g transform="translate(20.878125 144.302107) scale(0.1 -0.1)">
       <use xlink:href="#DejaVuSans-32"/>
       <use xlink:href="#DejaVuSans-30" transform="translate(63.623047 0)"/>
       <use xlink:href="#DejaVuSans-30" transform="translate(127.246094 0)"/>
      </g>
     </g>
    </g>
    <g id="ytick_6">
     <g id="line2d_29">
      <path d="M 46.965625 83.328156 
L 402.485625 83.328156 
" clip-path="url(#p76273b1473)" style="fill: none; stroke-dasharray: 2.96,1.28; stroke-dashoffset: 0; stroke: #b0b0b0; stroke-opacity: 0.6; stroke-width: 0.8"/>
     </g>
     <g id="line2d_30">
      <g>
       <use xlink:href="#mddb87f2924" x="46.965625" y="83.328156" style="stroke: #000000; stroke-width: 0.8"/>
      </g>
     </g>
     <g id="text_16">
      <!-- 250 -->
      <g transform="translate(20.878125 87.127375) scale(0.1 -0.1)">
       <use xlink:href="#DejaVuSans-32"/>
       <use xlink:href="#DejaVuSans-35" transform="translate(63.623047 0)"/>
       <use xlink:href="#DejaVuSans-30" transform="translate(127.246094 0)"/>
      </g>
     </g>
    </g>
    <g id="ytick_7">
     <g id="line2d_31">
      <path d="M 46.965625 26.153424 
L 402.485625 26.153424 
" clip-path="url(#p76273b1473)" style="fill: none; stroke-dasharray: 2.96,1.28; stroke-dashoffset: 0; stroke: #b0b0b0; stroke-opacity: 0.6; stroke-width: 0.8"/>
     </g>
     <g id="line2d_32">
      <g>
       <use xlink:href="#mddb87f2924" x="46.965625" y="26.153424" style="stroke: #000000; stroke-width: 0.8"/>
      </g>
     </g>
     <g id="text_17">
      <!-- 300 -->
      <g transform="translate(20.878125 29.952643) scale(0.1 -0.1)">
       <use xlink:href="#DejaVuSans-33"/>
       <use xlink:href="#DejaVuSans-30" transform="translate(63.623047 0)"/>
       <use xlink:href="#DejaVuSans-30" transform="translate(127.246094 0)"/>
      </g>
     </g>
    </g>
    <g id="text_18">
     <!-- Average cumulative count -->
     <g transform="translate(14.798438 262.4325) rotate(-90) scale(0.1 -0.1)">
      <defs>
       <path id="DejaVuSans-41" d="M 2188 4044 
L 1331 1722 
L 3047 1722 
L 2188 4044 
z
M 1831 4666 
L 2547 4666 
L 4325 0 
L 3669 0 
L 3244 1197 
L 1141 1197 
L 716 0 
L 50 0 
L 1831 4666 
z
" transform="scale(0.015625)"/>
       <path id="DejaVuSans-76" d="M 191 3500 
L 800 3500 
L 1894 563 
L 2988 3500 
L 3597 3500 
L 2284 0 
L 1503 0 
L 191 3500 
z
" transform="scale(0.015625)"/>
       <path id="DejaVuSans-67" d="M 2906 1791 
Q 2906 2416 2648 2759 
Q 2391 3103 1925 3103 
Q 1463 3103 1205 2759 
Q 947 2416 947 1791 
Q 947 1169 1205 825 
Q 1463 481 1925 481 
Q 2391 481 2648 825 
Q 2906 1169 2906 1791 
z
M 3481 434 
Q 3481 -459 3084 -895 
Q 2688 -1331 1869 -1331 
Q 1566 -1331 1297 -1286 
Q 1028 -1241 775 -1147 
L 775 -588 
Q 1028 -725 1275 -790 
Q 1522 -856 1778 -856 
Q 2344 -856 2625 -561 
Q 2906 -266 2906 331 
L 2906 616 
Q 2728 306 2450 153 
Q 2172 0 1784 0 
Q 1141 0 747 490 
Q 353 981 353 1791 
Q 353 2603 747 3093 
Q 1141 3584 1784 3584 
Q 2172 3584 2450 3431 
Q 2728 3278 2906 2969 
L 2906 3500 
L 3481 3500 
L 3481 434 
z
" transform="scale(0.015625)"/>
       <path id="DejaVuSans-6c" d="M 603 4863 
L 1178 4863 
L 1178 0 
L 603 0 
L 603 4863 
z
" transform="scale(0.015625)"/>
      </defs>
      <use xlink:href="#DejaVuSans-41"/>
      <use xlink:href="#DejaVuSans-76" transform="translate(62.533203 0)"/>
      <use xlink:href="#DejaVuSans-65" transform="translate(121.712891 0)"/>
      <use xlink:href="#DejaVuSans-72" transform="translate(183.236328 0)"/>
      <use xlink:href="#DejaVuSans-61" transform="translate(224.349609 0)"/>
      <use xlink:href="#DejaVuSans-67" transform="translate(285.628906 0)"/>
      <use xlink:href="#DejaVuSans-65" transform="translate(349.105469 0)"/>
      <use xlink:href="#DejaVuSans-20" transform="translate(410.628906 0)"/>
      <use xlink:href="#DejaVuSans-63" transform="translate(442.416016 0)"/>
      <use xlink:href="#DejaVuSans-75" transform="translate(497.396484 0)"/>
      <use xlink:href="#DejaVuSans-6d" transform="translate(560.775391 0)"/>
      <use xlink:href="#DejaVuSans-75" transform="translate(658.1875 0)"/>
      <use xlink:href="#DejaVuSans-6c" transform="translate(721.566406 0)"/>
      <use xlink:href="#DejaVuSans-61" transform="translate(749.349609 0)"/>
      <use xlink:href="#DejaVuSans-74" transform="translate(810.628906 0)"/>
      <use xlink:href="#DejaVuSans-69" transform="translate(849.837891 0)"/>
      <use xlink:href="#DejaVuSans-76" transform="translate(877.621094 0)"/>
      <use xlink:href="#DejaVuSans-65" transform="translate(936.800781 0)"/>
      <use xlink:href="#DejaVuSans-20" transform="translate(998.324219 0)"/>
      <use xlink:href="#DejaVuSans-63" transform="translate(1030.111328 0)"/>
      <use xlink:href="#DejaVuSans-6f" transform="translate(1085.091797 0)"/>
      <use xlink:href="#DejaVuSans-75" transform="translate(1146.273438 0)"/>
      <use xlink:href="#DejaVuSans-6e" transform="translate(1209.652344 0)"/>
      <use xlink:href="#DejaVuSans-74" transform="translate(1273.03125 0)"/>
     </g>
    </g>
   </g>
   <g id="line2d_33">
    <path d="M 63.125625 368.630071 
L 64.297371 368.630071 
L 64.418587 368.058324 
L 64.499397 368.058324 
L 64.620612 367.486576 
L 64.741827 367.486576 
L 64.863042 366.914829 
L 65.186283 366.914829 
L 65.307498 366.343082 
L 65.630738 366.343082 
L 65.751953 365.771334 
L 66.075194 365.771334 
L 66.236814 364.62784 
L 66.560054 364.62784 
L 66.681269 363.484345 
L 67.570181 363.484345 
L 67.731801 362.34085 
L 68.459092 362.34085 
L 68.620712 361.197356 
L 68.903547 361.197356 
L 69.024762 360.625608 
L 69.348003 360.625608 
L 69.469218 360.053861 
L 69.792458 360.053861 
L 69.913674 359.482114 
L 71.368255 359.482114 
L 71.48947 358.910366 
L 71.570281 358.910366 
L 71.691496 358.338619 
L 71.812711 358.338619 
L 71.933926 357.766872 
L 72.297571 357.766872 
L 72.418787 357.195124 
L 73.307698 357.195124 
L 73.428913 356.623377 
L 73.752153 356.623377 
L 73.873368 356.05163 
L 74.115799 356.05163 
L 74.277419 354.908135 
L 74.560254 354.908135 
L 74.721875 353.76464 
L 75.045115 353.76464 
L 75.16633 353.192893 
L 75.893621 353.192893 
L 76.055241 352.049398 
L 76.338077 352.049398 
L 76.499697 350.905904 
L 76.782532 350.905904 
L 76.944152 349.762409 
L 77.348203 349.762409 
L 77.469418 349.190662 
L 77.711848 349.190662 
L 77.873468 348.047167 
L 78.156304 348.047167 
L 78.317924 346.903673 
L 78.600759 346.903673 
L 78.76238 345.760178 
L 79.045215 345.760178 
L 79.206835 344.616683 
L 79.489671 344.616683 
L 79.651291 343.473189 
L 79.934126 343.473189 
L 80.095746 342.329694 
L 80.378582 342.329694 
L 80.540202 341.186199 
L 81.348303 341.186199 
L 81.509923 340.042705 
L 81.792758 340.042705 
L 81.954379 338.89921 
L 82.237214 338.89921 
L 82.398834 337.755715 
L 82.68167 337.755715 
L 82.84329 336.612221 
L 83.126125 336.612221 
L 83.24734 336.040473 
L 83.287745 336.040473 
L 83.40896 335.468726 
L 83.570581 335.468726 
L 83.691796 334.896979 
L 83.732201 334.896979 
L 83.853416 334.325231 
L 84.015036 334.325231 
L 84.136251 333.753484 
L 84.176656 333.753484 
L 84.297872 333.181737 
L 84.621112 333.181737 
L 84.742327 332.609989 
L 84.944352 332.609989 
L 85.105973 331.466495 
L 85.388808 331.466495 
L 85.510023 330.894747 
L 85.833263 330.894747 
L 85.954479 330.323 
L 86.277719 330.323 
L 86.398934 329.751253 
L 86.479744 329.751253 
L 86.600959 329.179506 
L 86.722175 329.179506 
L 86.84339 328.607758 
L 86.9242 328.607758 
L 87.045415 328.036011 
L 87.16663 328.036011 
L 87.287845 327.464264 
L 87.368655 327.464264 
L 87.489871 326.892516 
L 87.611086 326.892516 
L 87.732301 326.320769 
L 87.813111 326.320769 
L 87.934326 325.749022 
L 88.055541 325.749022 
L 88.176756 325.177274 
L 88.257566 325.177274 
L 88.378782 324.605527 
L 88.499997 324.605527 
L 88.621212 324.03378 
L 88.944452 324.03378 
L 89.065668 323.462032 
L 89.186883 323.462032 
L 89.308098 322.890285 
L 89.388908 322.890285 
L 89.510123 322.318538 
L 89.631338 322.318538 
L 89.752553 321.74679 
L 89.833363 321.74679 
L 89.954579 321.175043 
L 90.075794 321.175043 
L 90.197009 320.603296 
L 90.277819 320.603296 
L 90.399034 320.031548 
L 90.560654 320.031548 
L 90.68187 319.459801 
L 90.722275 319.459801 
L 90.84349 318.888054 
L 91.00511 318.888054 
L 91.126325 318.316306 
L 91.16673 318.316306 
L 91.287945 317.744559 
L 91.449565 317.744559 
L 91.570781 317.172812 
L 91.611186 317.172812 
L 91.732401 316.601064 
L 91.894021 316.601064 
L 92.015236 316.029317 
L 92.055641 316.029317 
L 92.176856 315.45757 
L 92.338477 315.45757 
L 92.459692 314.885822 
L 92.500097 314.885822 
L 92.621312 314.314075 
L 92.782932 314.314075 
L 92.904147 313.742328 
L 92.944552 313.742328 
L 93.065768 313.17058 
L 93.227388 313.17058 
L 93.348603 312.598833 
L 93.389008 312.598833 
L 93.510223 312.027086 
L 93.671843 312.027086 
L 93.793058 311.455338 
L 93.833463 311.455338 
L 93.954679 310.883591 
L 94.277919 310.883591 
L 94.399134 310.311844 
L 94.641564 310.311844 
L 94.803185 309.168349 
L 95.08602 309.168349 
L 95.24764 308.024855 
L 95.530476 308.024855 
L 95.651691 307.453107 
L 96.136551 307.453107 
L 96.257767 306.88136 
L 96.500197 306.88136 
L 96.661817 305.737865 
L 96.944652 305.737865 
L 97.106273 304.594371 
L 97.389108 304.594371 
L 97.550728 303.450876 
L 97.833563 303.450876 
L 97.995184 302.307381 
L 98.278019 302.307381 
L 98.439639 301.163887 
L 98.722475 301.163887 
L 98.884095 300.020392 
L 99.16693 300.020392 
L 99.32855 298.876897 
L 99.611386 298.876897 
L 99.773006 297.733403 
L 100.055841 297.733403 
L 100.217461 296.589908 
L 100.500297 296.589908 
L 100.661917 295.446413 
L 100.944752 295.446413 
L 101.065968 294.874666 
L 101.106373 294.874666 
L 101.227588 294.302919 
L 101.389208 294.302919 
L 101.510423 293.731171 
L 101.550828 293.731171 
L 101.672043 293.159424 
L 101.833664 293.159424 
L 101.954879 292.587677 
L 101.995284 292.587677 
L 102.116499 292.015929 
L 102.278119 292.015929 
L 102.399334 291.444182 
L 102.439739 291.444182 
L 102.560954 290.872435 
L 102.722575 290.872435 
L 102.84379 290.300687 
L 102.884195 290.300687 
L 103.00541 289.72894 
L 103.16703 289.72894 
L 103.288245 289.157193 
L 103.32865 289.157193 
L 103.449866 288.585445 
L 103.611486 288.585445 
L 103.732701 288.013698 
L 103.773106 288.013698 
L 103.894321 287.441951 
L 104.055941 287.441951 
L 104.177156 286.870204 
L 104.217561 286.870204 
L 104.338777 286.298456 
L 104.500397 286.298456 
L 104.621612 285.726709 
L 104.662017 285.726709 
L 104.783232 285.154962 
L 104.944852 285.154962 
L 105.066068 284.583214 
L 105.389308 284.583214 
L 105.510523 284.011467 
L 105.631738 284.011467 
L 105.752953 283.43972 
L 105.833764 283.43972 
L 105.954979 282.867972 
L 106.076194 282.867972 
L 106.197409 282.296225 
L 106.278219 282.296225 
L 106.399434 281.724478 
L 106.520649 281.724478 
L 106.641865 281.15273 
L 106.76308 281.15273 
L 106.884295 280.580983 
L 106.965105 280.580983 
L 107.08632 280.009236 
L 107.207535 280.009236 
L 107.32875 279.437488 
L 107.40956 279.437488 
L 107.530776 278.865741 
L 107.651991 278.865741 
L 107.773206 278.293994 
L 107.854016 278.293994 
L 107.975231 277.722246 
L 108.096446 277.722246 
L 108.217662 277.150499 
L 108.298472 277.150499 
L 108.419687 276.578752 
L 108.581307 276.578752 
L 108.702522 276.007004 
L 108.742927 276.007004 
L 108.864142 275.435257 
L 109.025763 275.435257 
L 109.146978 274.86351 
L 109.187383 274.86351 
L 109.308598 274.291762 
L 109.470218 274.291762 
L 109.591433 273.720015 
L 109.631838 273.720015 
L 109.753053 273.148268 
L 110.076294 273.148268 
L 110.197509 272.57652 
L 110.439939 272.57652 
L 110.601559 271.433026 
L 110.884395 271.433026 
L 111.00561 270.861278 
L 111.32885 270.861278 
L 111.450066 269.717784 
L 111.773306 269.717784 
L 111.894521 269.146036 
L 112.217762 269.146036 
L 112.379382 268.002542 
L 112.662217 268.002542 
L 112.783432 267.430795 
L 113.106673 267.430795 
L 113.268293 266.2873 
L 113.551128 266.2873 
L 113.712748 265.143805 
L 114.035989 265.143805 
L 114.197609 264.000311 
L 114.520849 264.000311 
L 114.68247 262.856816 
L 114.965305 262.856816 
L 115.126925 261.713321 
L 115.490571 261.713321 
L 115.611786 261.141574 
L 115.894621 261.141574 
L 116.056241 259.998079 
L 116.339077 259.998079 
L 116.500697 258.854585 
L 116.783532 258.854585 
L 116.945152 257.71109 
L 117.227988 257.71109 
L 117.389608 256.567595 
L 117.672443 256.567595 
L 117.834064 255.424101 
L 118.116899 255.424101 
L 118.278519 254.280606 
L 118.561354 254.280606 
L 118.722975 253.137111 
L 119.00581 253.137111 
L 119.16743 251.993617 
L 119.450266 251.993617 
L 119.611886 250.850122 
L 119.894721 250.850122 
L 120.056341 249.706627 
L 120.339177 249.706627 
L 120.500797 248.563133 
L 120.824037 248.563133 
L 120.985658 247.419638 
L 121.268493 247.419638 
L 121.430113 246.276144 
L 121.712948 246.276144 
L 121.874569 245.132649 
L 122.157404 245.132649 
L 122.319024 243.989154 
L 122.60186 243.989154 
L 122.76348 242.84566 
L 123.046315 242.84566 
L 123.207935 241.702165 
L 123.490771 241.702165 
L 123.652391 240.55867 
L 123.935226 240.55867 
L 124.096846 239.415176 
L 124.379682 239.415176 
L 124.541302 238.271681 
L 124.864542 238.271681 
L 124.985758 237.128186 
L 125.308998 237.128186 
L 125.470618 235.984692 
L 125.753453 235.984692 
L 125.915074 234.841197 
L 126.197909 234.841197 
L 126.359529 233.697702 
L 126.642365 233.697702 
L 126.803985 232.554208 
L 127.08682 232.554208 
L 127.24844 231.410713 
L 127.531276 231.410713 
L 127.692896 230.267218 
L 127.975731 230.267218 
L 128.137351 229.123724 
L 128.420187 229.123724 
L 128.541402 228.551976 
L 128.864642 228.551976 
L 129.026263 227.408482 
L 129.309098 227.408482 
L 129.470718 226.264987 
L 129.753553 226.264987 
L 129.915174 225.121493 
L 130.198009 225.121493 
L 130.359629 223.977998 
L 130.642465 223.977998 
L 130.804085 222.834503 
L 131.08692 222.834503 
L 131.24854 221.691009 
L 131.531376 221.691009 
L 131.692996 220.547514 
L 131.975831 220.547514 
L 132.137451 219.404019 
L 132.420287 219.404019 
L 132.581907 218.260525 
L 132.864742 218.260525 
L 133.026363 217.11703 
L 133.309198 217.11703 
L 133.470818 215.973535 
L 133.794059 215.973535 
L 133.915274 215.401788 
L 134.238514 215.401788 
L 134.400134 214.258293 
L 134.68297 214.258293 
L 134.84459 213.114799 
L 135.127425 213.114799 
L 135.289045 211.971304 
L 135.571881 211.971304 
L 135.733501 210.827809 
L 136.016336 210.827809 
L 136.177957 209.684315 
L 136.460792 209.684315 
L 136.622412 208.54082 
L 136.905247 208.54082 
L 137.066868 207.397325 
L 137.390108 207.397325 
L 137.511323 206.825578 
L 137.834564 206.825578 
L 137.996184 205.682084 
L 138.279019 205.682084 
L 138.440639 204.538589 
L 138.723475 204.538589 
L 138.885095 203.395094 
L 139.16793 203.395094 
L 139.32955 202.2516 
L 139.612386 202.2516 
L 139.774006 201.108105 
L 140.056841 201.108105 
L 140.218462 199.96461 
L 140.501297 199.96461 
L 140.662917 198.821116 
L 140.945753 198.821116 
L 141.107373 197.677621 
L 141.390208 197.677621 
L 141.551828 196.534126 
L 141.834664 196.534126 
L 141.996284 195.390632 
L 142.279119 195.390632 
L 142.440739 194.247137 
L 142.723575 194.247137 
L 142.885195 193.103642 
L 143.16803 193.103642 
L 143.289245 192.531895 
L 143.612486 192.531895 
L 143.733701 191.960148 
L 144.056941 191.960148 
L 144.178157 191.3884 
L 144.380182 191.3884 
L 144.541802 190.244906 
L 144.824637 190.244906 
L 144.986258 189.101411 
L 145.269093 189.101411 
L 145.430713 187.957916 
L 145.713548 187.957916 
L 145.875169 186.814422 
L 146.158004 186.814422 
L 146.319624 185.670927 
L 146.60246 185.670927 
L 146.76408 184.527433 
L 147.046915 184.527433 
L 147.16813 183.955685 
L 147.491371 183.955685 
L 147.612586 183.383938 
L 147.935826 183.383938 
L 148.057041 182.240443 
L 148.380282 182.240443 
L 148.501497 181.096949 
L 148.824737 181.096949 
L 148.945953 179.953454 
L 149.269193 179.953454 
L 149.390408 178.809959 
L 149.713649 178.809959 
L 149.834864 177.666465 
L 150.158104 177.666465 
L 150.279319 176.52297 
L 150.60256 176.52297 
L 150.723775 175.379475 
L 151.047015 175.379475 
L 151.16823 174.235981 
L 151.491471 174.235981 
L 151.612686 173.092486 
L 151.935926 173.092486 
L 152.057141 171.948991 
L 152.380382 171.948991 
L 152.501597 170.805497 
L 152.824837 170.805497 
L 152.946053 169.662002 
L 153.269293 169.662002 
L 153.390508 168.518507 
L 153.713749 168.518507 
L 153.834964 167.375013 
L 154.158204 167.375013 
L 154.279419 166.231518 
L 154.60266 166.231518 
L 154.723875 165.088024 
L 155.047115 165.088024 
L 155.16833 163.944529 
L 155.491571 163.944529 
L 155.612786 162.801034 
L 155.936026 162.801034 
L 156.057241 161.65754 
L 156.380482 161.65754 
L 156.501697 160.514045 
L 156.824937 160.514045 
L 156.946153 159.37055 
L 157.269393 159.37055 
L 157.390608 158.227056 
L 157.713849 158.227056 
L 157.835064 157.083561 
L 158.158304 157.083561 
L 158.279519 155.940066 
L 158.60276 155.940066 
L 158.723975 155.368319 
L 159.047215 155.368319 
L 159.16843 154.796572 
L 159.532076 154.796572 
L 159.653291 154.224824 
L 159.734101 154.224824 
L 159.855316 153.653077 
L 159.976531 153.653077 
L 160.097747 153.08133 
L 160.178557 153.08133 
L 160.299772 152.509582 
L 160.623012 152.509582 
L 160.744227 151.937835 
L 160.825037 151.937835 
L 160.946253 151.366088 
L 161.067468 151.366088 
L 161.188683 150.79434 
L 161.269493 150.79434 
L 161.390708 150.222593 
L 161.552328 150.222593 
L 161.673543 149.650846 
L 161.713949 149.650846 
L 161.835164 149.079098 
L 161.996784 149.079098 
L 162.117999 148.507351 
L 162.158404 148.507351 
L 162.279619 147.935604 
L 162.441239 147.935604 
L 162.562455 147.363856 
L 162.60286 147.363856 
L 162.724075 146.792109 
L 162.885695 146.792109 
L 163.00691 146.220362 
L 163.047315 146.220362 
L 163.16853 145.648615 
L 163.330151 145.648615 
L 163.451366 145.076867 
L 163.491771 145.076867 
L 163.612986 144.50512 
L 163.774606 144.50512 
L 163.895821 143.933373 
L 163.936226 143.933373 
L 164.057441 143.361625 
L 164.219062 143.361625 
L 164.340277 142.789878 
L 164.380682 142.789878 
L 164.501897 142.218131 
L 164.663517 142.218131 
L 164.784732 141.646383 
L 164.825137 141.646383 
L 164.946353 141.074636 
L 165.107973 141.074636 
L 165.229188 140.502889 
L 165.269593 140.502889 
L 165.390808 139.931141 
L 165.552428 139.931141 
L 165.673644 139.359394 
L 165.714049 139.359394 
L 165.835264 138.787647 
L 165.996884 138.787647 
L 166.118099 138.215899 
L 166.158504 138.215899 
L 166.279719 137.644152 
L 166.441339 137.644152 
L 166.562555 137.072405 
L 166.60296 137.072405 
L 166.724175 136.500657 
L 166.885795 136.500657 
L 167.00701 135.92891 
L 167.047415 135.92891 
L 167.16863 135.357163 
L 167.330251 135.357163 
L 167.451466 134.785415 
L 167.491871 134.785415 
L 167.613086 134.213668 
L 167.774706 134.213668 
L 167.895921 133.641921 
L 167.936326 133.641921 
L 168.057541 133.070173 
L 168.219162 133.070173 
L 168.340377 132.498426 
L 168.663617 132.498426 
L 168.825237 131.354931 
L 169.108073 131.354931 
L 169.269693 130.211437 
L 169.552528 130.211437 
L 169.714149 129.067942 
L 169.996984 129.067942 
L 170.158604 127.924447 
L 170.441439 127.924447 
L 170.60306 126.780953 
L 170.9263 126.780953 
L 171.047515 126.209205 
L 171.370756 126.209205 
L 171.491971 125.065711 
L 171.815211 125.065711 
L 171.936426 123.922216 
L 172.259667 123.922216 
L 172.380882 122.778722 
L 172.704122 122.778722 
L 172.825337 122.206974 
L 173.148578 122.206974 
L 173.310198 121.06348 
L 173.593033 121.06348 
L 173.754654 119.919985 
L 174.037489 119.919985 
L 174.199109 118.77649 
L 174.52235 118.77649 
L 174.643565 117.632996 
L 174.966805 117.632996 
L 175.08802 116.489501 
L 175.411261 116.489501 
L 175.572881 115.346006 
L 175.855716 115.346006 
L 176.017336 114.202512 
L 176.300172 114.202512 
L 176.461792 113.059017 
L 176.744627 113.059017 
L 176.906248 111.915522 
L 177.229488 111.915522 
L 177.350703 111.343775 
L 177.673944 111.343775 
L 177.795159 110.772028 
L 178.118399 110.772028 
L 178.239614 110.20028 
L 178.562855 110.20028 
L 178.68407 109.628533 
L 179.00731 109.628533 
L 179.128525 109.056786 
L 179.451766 109.056786 
L 179.572981 108.485038 
L 179.896221 108.485038 
L 180.017436 107.913291 
L 180.340677 107.913291 
L 180.461892 107.341544 
L 180.785132 107.341544 
L 180.906348 106.769796 
L 181.229588 106.769796 
L 181.350803 106.198049 
L 181.674044 106.198049 
L 181.795259 105.626302 
L 182.118499 105.626302 
L 182.239714 105.054555 
L 182.967005 105.054555 
L 183.08822 104.482807 
L 183.411461 104.482807 
L 183.532676 103.91106 
L 183.855916 103.91106 
L 183.977131 103.339313 
L 184.300372 103.339313 
L 184.421587 102.767565 
L 185.350903 102.767565 
L 185.472118 102.195818 
L 185.795359 102.195818 
L 185.916574 101.624071 
L 186.239814 101.624071 
L 186.361029 101.052323 
L 186.68427 101.052323 
L 186.805485 100.480576 
L 187.128725 100.480576 
L 187.249941 99.908829 
L 187.613586 99.908829 
L 187.734801 99.337081 
L 188.098447 99.337081 
L 188.219662 98.765334 
L 188.542902 98.765334 
L 188.664117 98.193587 
L 189.027763 98.193587 
L 189.148978 97.621839 
L 189.472218 97.621839 
L 189.593433 97.050092 
L 189.916674 97.050092 
L 190.037889 96.478345 
L 190.361129 96.478345 
L 190.482345 95.906597 
L 190.805585 95.906597 
L 190.9268 95.33485 
L 191.250041 95.33485 
L 191.371256 94.763103 
L 191.694496 94.763103 
L 191.815711 94.191355 
L 192.138952 94.191355 
L 192.260167 93.619608 
L 192.583407 93.619608 
L 192.704622 93.047861 
L 193.431913 93.047861 
L 193.553128 92.476113 
L 193.876369 92.476113 
L 193.997584 91.904366 
L 194.320824 91.904366 
L 194.44204 91.332619 
L 194.84609 91.332619 
L 194.967305 90.760871 
L 195.290546 90.760871 
L 195.411761 90.189124 
L 195.735001 90.189124 
L 195.856216 89.617377 
L 196.179457 89.617377 
L 196.300672 89.045629 
L 196.623912 89.045629 
L 196.745127 88.473882 
L 197.068368 88.473882 
L 197.189583 87.902135 
L 197.512823 87.902135 
L 197.634039 87.330387 
L 197.957279 87.330387 
L 198.078494 86.75864 
L 198.401735 86.75864 
L 198.52295 86.186893 
L 198.84619 86.186893 
L 198.967405 85.615145 
L 199.290646 85.615145 
L 199.411861 85.043398 
L 199.735101 85.043398 
L 199.856316 84.471651 
L 200.179557 84.471651 
L 200.300772 83.899904 
L 200.624012 83.899904 
L 200.745227 83.328156 
L 201.068468 83.328156 
L 201.189683 82.756409 
L 201.512923 82.756409 
L 201.634139 82.184662 
L 201.957379 82.184662 
L 202.078594 81.612914 
L 202.401835 81.612914 
L 202.52305 81.041167 
L 202.84629 81.041167 
L 202.967505 80.46942 
L 203.290746 80.46942 
L 203.411961 79.897672 
L 203.735201 79.897672 
L 203.856416 79.325925 
L 204.179657 79.325925 
L 204.300872 78.754178 
L 204.624112 78.754178 
L 204.745327 78.18243 
L 205.068568 78.18243 
L 205.189783 77.610683 
L 205.513023 77.610683 
L 205.634239 77.038936 
L 205.957479 77.038936 
L 206.078694 76.467188 
L 206.401935 76.467188 
L 206.52315 75.895441 
L 207.250441 75.895441 
L 207.371656 75.323694 
L 207.694896 75.323694 
L 207.816111 74.751946 
L 208.139352 74.751946 
L 208.260567 74.180199 
L 208.583807 74.180199 
L 208.705022 73.608452 
L 209.028263 73.608452 
L 209.149478 73.036704 
L 209.472718 73.036704 
L 209.593934 72.464957 
L 209.917174 72.464957 
L 210.038389 71.89321 
L 210.36163 71.89321 
L 210.482845 71.321462 
L 210.806085 71.321462 
L 210.9273 70.749715 
L 211.250541 70.749715 
L 211.371756 70.177968 
L 211.694996 70.177968 
L 211.816211 69.60622 
L 212.139452 69.60622 
L 212.260667 69.034473 
L 212.624312 69.034473 
L 212.745527 68.462726 
L 213.109173 68.462726 
L 213.230388 67.890978 
L 213.553629 67.890978 
L 213.674844 67.319231 
L 213.998084 67.319231 
L 214.119299 66.747484 
L 214.482945 66.747484 
L 214.60416 66.175736 
L 214.9274 66.175736 
L 215.048615 65.603989 
L 215.371856 65.603989 
L 215.493071 65.032242 
L 215.816311 65.032242 
L 215.937526 64.460494 
L 216.260767 64.460494 
L 216.381982 63.888747 
L 216.705222 63.888747 
L 216.826438 63.317 
L 217.149678 63.317 
L 217.270893 62.745253 
L 217.594134 62.745253 
L 217.715349 62.173505 
L 218.038589 62.173505 
L 218.159804 61.601758 
L 218.483045 61.601758 
L 218.60426 61.030011 
L 218.9275 61.030011 
L 219.048715 60.458263 
L 219.371956 60.458263 
L 219.493171 59.886516 
L 219.816411 59.886516 
L 219.937627 59.314769 
L 220.260867 59.314769 
L 220.382082 58.743021 
L 220.705322 58.743021 
L 220.826538 58.171274 
L 221.634639 58.171274 
L 221.755854 57.599527 
L 222.079094 57.599527 
L 222.200309 57.027779 
L 222.52355 57.027779 
L 222.644765 56.456032 
L 222.968005 56.456032 
L 223.08922 55.884285 
L 223.412461 55.884285 
L 223.533676 55.312537 
L 224.341777 55.312537 
L 224.462992 54.74079 
L 224.786233 54.74079 
L 224.907448 54.169043 
L 225.230688 54.169043 
L 225.351903 53.597295 
L 225.675144 53.597295 
L 225.796359 53.025548 
L 226.119599 53.025548 
L 226.240814 52.453801 
L 226.564055 52.453801 
L 226.68527 51.882053 
L 227.00851 51.882053 
L 227.129726 51.310306 
L 227.493371 51.310306 
L 227.614586 50.738559 
L 227.937827 50.738559 
L 228.059042 50.166811 
L 228.382282 50.166811 
L 228.503497 49.595064 
L 228.867143 49.595064 
L 228.988358 49.023317 
L 230.079294 49.023317 
L 230.200509 48.451569 
L 230.52375 48.451569 
L 230.644965 47.879822 
L 230.968205 47.879822 
L 231.08942 47.308075 
L 231.412661 47.308075 
L 231.533876 46.736327 
L 231.857116 46.736327 
L 231.978332 46.16458 
L 232.786433 46.16458 
L 232.907648 45.592833 
L 233.230888 45.592833 
L 233.352103 45.021085 
L 234.160204 45.021085 
L 234.281419 44.449338 
L 234.60466 44.449338 
L 234.725875 43.877591 
L 235.049115 43.877591 
L 235.170331 43.305844 
L 235.493571 43.305844 
L 235.614786 42.734096 
L 235.938027 42.734096 
L 236.059242 42.162349 
L 236.382482 42.162349 
L 236.503697 41.590602 
L 236.867343 41.590602 
L 236.988558 41.018854 
L 237.311798 41.018854 
L 237.433013 40.447107 
L 237.756254 40.447107 
L 237.877469 39.87536 
L 238.200709 39.87536 
L 238.321925 39.303612 
L 238.645165 39.303612 
L 238.76638 38.731865 
L 239.08962 38.731865 
L 239.210836 38.160118 
L 239.534076 38.160118 
L 239.655291 37.58837 
L 239.978532 37.58837 
L 240.099747 37.016623 
L 240.422987 37.016623 
L 240.544202 36.444876 
L 240.867443 36.444876 
L 240.988658 35.873128 
L 241.311898 35.873128 
L 241.433113 35.301381 
L 241.796759 35.301381 
L 241.917974 34.729634 
L 242.241214 34.729634 
L 242.36243 34.157886 
L 242.68567 34.157886 
L 242.806885 33.586139 
L 243.130126 33.586139 
L 243.251341 33.014392 
L 243.574581 33.014392 
L 243.695796 32.442644 
L 244.019037 32.442644 
L 244.140252 31.870897 
L 244.463492 31.870897 
L 244.584707 31.29915 
L 244.907948 31.29915 
L 245.029163 30.727402 
L 245.352403 30.727402 
L 245.473618 30.155655 
L 245.796859 30.155655 
L 245.918074 29.583908 
L 246.241314 29.583908 
L 246.36253 29.01216 
L 246.68577 29.01216 
L 246.806985 28.440413 
L 247.130226 28.440413 
L 247.251441 27.868666 
L 247.574681 27.868666 
L 247.695896 27.296918 
L 248.019137 27.296918 
L 248.140352 26.725171 
L 248.463592 26.725171 
L 248.584807 26.153424 
L 248.908048 26.153424 
L 249.029263 25.581676 
L 249.352503 25.581676 
L 249.473719 25.009929 
L 249.796959 25.009929 
L 249.918174 24.438182 
L 386.325625 24.438182 
L 386.325625 24.438182 
" clip-path="url(#p76273b1473)" style="fill: none; stroke: #add8e6; stroke-width: 2; stroke-linecap: square"/>
   </g>
   <g id="line2d_34">
    <path d="M 63.125625 369.201818 
L 386.325625 369.201818 
L 386.325625 369.201818 
" clip-path="url(#p76273b1473)" style="fill: none; stroke: #6495ed; stroke-width: 2; stroke-linecap: square"/>
   </g>
   <g id="line2d_35">
    <path d="M 63.125625 369.201818 
L 63.48927 369.201818 
L 63.610486 368.630071 
L 65.186283 368.630071 
L 65.307498 368.058324 
L 71.125825 368.058324 
L 71.24704 367.486576 
L 73.024862 367.486576 
L 73.146078 366.914829 
L 77.469418 366.914829 
L 77.590633 366.343082 
L 81.065467 366.343082 
L 81.227088 365.199587 
L 137.632538 365.199587 
L 137.753754 364.62784 
L 158.966405 364.62784 
L 159.08762 364.056092 
L 159.491671 364.056092 
L 159.612886 363.484345 
L 168.461592 363.484345 
L 168.582807 362.912598 
L 172.946553 362.912598 
L 173.067768 362.34085 
L 221.392208 362.34085 
L 221.513423 361.769103 
L 224.099347 361.769103 
L 224.220562 361.197356 
L 232.544002 361.197356 
L 232.665217 360.625608 
L 386.325625 360.625608 
L 386.325625 360.625608 
" clip-path="url(#p76273b1473)" style="fill: none; stroke: #00008b; stroke-width: 2; stroke-linecap: square"/>
   </g>
   <g id="patch_3">
    <path d="M 46.965625 386.44 
L 46.965625 7.2 
" style="fill: none; stroke: #000000; stroke-width: 0.8; stroke-linejoin: miter; stroke-linecap: square"/>
   </g>
   <g id="patch_4">
    <path d="M 402.485625 386.44 
L 402.485625 7.2 
" style="fill: none; stroke: #000000; stroke-width: 0.8; stroke-linejoin: miter; stroke-linecap: square"/>
   </g>
   <g id="patch_5">
    <path d="M 46.965625 386.44 
L 402.485625 386.44 
" style="fill: none; stroke: #000000; stroke-width: 0.8; stroke-linejoin: miter; stroke-linecap: square"/>
   </g>
   <g id="patch_6">
    <path d="M 46.965625 7.2 
L 402.485625 7.2 
" style="fill: none; stroke: #000000; stroke-width: 0.8; stroke-linejoin: miter; stroke-linecap: square"/>
   </g>
   <g id="legend_1">
    <g id="patch_7">
     <path d="M 409.485625 73.9125 
L 558.877813 73.9125 
Q 560.877813 73.9125 560.877813 71.9125 
L 560.877813 14.2 
Q 560.877813 12.2 558.877813 12.2 
L 409.485625 12.2 
Q 407.485625 12.2 407.485625 14.2 
L 407.485625 71.9125 
Q 407.485625 73.9125 409.485625 73.9125 
z
" style="fill: #ffffff; opacity: 0.8; stroke: #cccccc; stroke-linejoin: miter"/>
    </g>
    <g id="text_19">
     <!-- Motifs &amp; orientation -->
     <g transform="translate(434.666094 23.798437) scale(0.1 -0.1)">
      <defs>
       <path id="DejaVuSans-4d" d="M 628 4666 
L 1569 4666 
L 2759 1491 
L 3956 4666 
L 4897 4666 
L 4897 0 
L 4281 0 
L 4281 4097 
L 3078 897 
L 2444 897 
L 1241 4097 
L 1241 0 
L 628 0 
L 628 4666 
z
" transform="scale(0.015625)"/>
       <path id="DejaVuSans-26" d="M 1556 2509 
Q 1272 2256 1139 2004 
Q 1006 1753 1006 1478 
Q 1006 1022 1337 719 
Q 1669 416 2169 416 
Q 2466 416 2725 514 
Q 2984 613 3213 813 
L 1556 2509 
z
M 1997 2859 
L 3584 1234 
Q 3769 1513 3872 1830 
Q 3975 2147 3994 2503 
L 4575 2503 
Q 4538 2091 4375 1687 
Q 4213 1284 3922 891 
L 4794 0 
L 4006 0 
L 3559 459 
Q 3234 181 2878 45 
Q 2522 -91 2113 -91 
Q 1359 -91 881 339 
Q 403 769 403 1441 
Q 403 1841 612 2192 
Q 822 2544 1241 2853 
Q 1091 3050 1012 3245 
Q 934 3441 934 3628 
Q 934 4134 1281 4442 
Q 1628 4750 2203 4750 
Q 2463 4750 2720 4694 
Q 2978 4638 3244 4525 
L 3244 3956 
Q 2972 4103 2725 4179 
Q 2478 4256 2266 4256 
Q 1938 4256 1733 4082 
Q 1528 3909 1528 3634 
Q 1528 3475 1620 3314 
Q 1713 3153 1997 2859 
z
" transform="scale(0.015625)"/>
      </defs>
      <use xlink:href="#DejaVuSans-4d"/>
      <use xlink:href="#DejaVuSans-6f" transform="translate(86.279297 0)"/>
      <use xlink:href="#DejaVuSans-74" transform="translate(147.460938 0)"/>
      <use xlink:href="#DejaVuSans-69" transform="translate(186.669922 0)"/>
      <use xlink:href="#DejaVuSans-66" transform="translate(214.453125 0)"/>
      <use xlink:href="#DejaVuSans-73" transform="translate(249.658203 0)"/>
      <use xlink:href="#DejaVuSans-20" transform="translate(301.757812 0)"/>
      <use xlink:href="#DejaVuSans-26" transform="translate(333.544922 0)"/>
      <use xlink:href="#DejaVuSans-20" transform="translate(411.523438 0)"/>
      <use xlink:href="#DejaVuSans-6f" transform="translate(443.310547 0)"/>
      <use xlink:href="#DejaVuSans-72" transform="translate(504.492188 0)"/>
      <use xlink:href="#DejaVuSans-69" transform="translate(545.605469 0)"/>
      <use xlink:href="#DejaVuSans-65" transform="translate(573.388672 0)"/>
      <use xlink:href="#DejaVuSans-6e" transform="translate(634.912109 0)"/>
      <use xlink:href="#DejaVuSans-74" transform="translate(698.291016 0)"/>
      <use xlink:href="#DejaVuSans-61" transform="translate(737.5 0)"/>
      <use xlink:href="#DejaVuSans-74" transform="translate(798.779297 0)"/>
      <use xlink:href="#DejaVuSans-69" transform="translate(837.988281 0)"/>
      <use xlink:href="#DejaVuSans-6f" transform="translate(865.771484 0)"/>
      <use xlink:href="#DejaVuSans-6e" transform="translate(926.953125 0)"/>
     </g>
    </g>
    <g id="line2d_36">
     <path d="M 411.485625 34.976562 
L 421.485625 34.976562 
L 431.485625 34.976562 
" style="fill: none; stroke: #add8e6; stroke-width: 2; stroke-linecap: square"/>
    </g>
    <g id="text_20">
     <!-- CCCAGACCTAA (5' end) -->
     <g transform="translate(439.485625 38.476562) scale(0.1 -0.1)">
      <defs>
       <path id="DejaVuSans-43" d="M 4122 4306 
L 4122 3641 
Q 3803 3938 3442 4084 
Q 3081 4231 2675 4231 
Q 1875 4231 1450 3742 
Q 1025 3253 1025 2328 
Q 1025 1406 1450 917 
Q 1875 428 2675 428 
Q 3081 428 3442 575 
Q 3803 722 4122 1019 
L 4122 359 
Q 3791 134 3420 21 
Q 3050 -91 2638 -91 
Q 1578 -91 968 557 
Q 359 1206 359 2328 
Q 359 3453 968 4101 
Q 1578 4750 2638 4750 
Q 3056 4750 3426 4639 
Q 3797 4528 4122 4306 
z
" transform="scale(0.015625)"/>
       <path id="DejaVuSans-47" d="M 3809 666 
L 3809 1919 
L 2778 1919 
L 2778 2438 
L 4434 2438 
L 4434 434 
Q 4069 175 3628 42 
Q 3188 -91 2688 -91 
Q 1594 -91 976 548 
Q 359 1188 359 2328 
Q 359 3472 976 4111 
Q 1594 4750 2688 4750 
Q 3144 4750 3555 4637 
Q 3966 4525 4313 4306 
L 4313 3634 
Q 3963 3931 3569 4081 
Q 3175 4231 2741 4231 
Q 1884 4231 1454 3753 
Q 1025 3275 1025 2328 
Q 1025 1384 1454 906 
Q 1884 428 2741 428 
Q 3075 428 3337 486 
Q 3600 544 3809 666 
z
" transform="scale(0.015625)"/>
       <path id="DejaVuSans-54" d="M -19 4666 
L 3928 4666 
L 3928 4134 
L 2272 4134 
L 2272 0 
L 1638 0 
L 1638 4134 
L -19 4134 
L -19 4666 
z
" transform="scale(0.015625)"/>
       <path id="DejaVuSans-28" d="M 1984 4856 
Q 1566 4138 1362 3434 
Q 1159 2731 1159 2009 
Q 1159 1288 1364 580 
Q 1569 -128 1984 -844 
L 1484 -844 
Q 1016 -109 783 600 
Q 550 1309 550 2009 
Q 550 2706 781 3412 
Q 1013 4119 1484 4856 
L 1984 4856 
z
" transform="scale(0.015625)"/>
       <path id="DejaVuSans-27" d="M 1147 4666 
L 1147 2931 
L 616 2931 
L 616 4666 
L 1147 4666 
z
" transform="scale(0.015625)"/>
       <path id="DejaVuSans-64" d="M 2906 2969 
L 2906 4863 
L 3481 4863 
L 3481 0 
L 2906 0 
L 2906 525 
Q 2725 213 2448 61 
Q 2172 -91 1784 -91 
Q 1150 -91 751 415 
Q 353 922 353 1747 
Q 353 2572 751 3078 
Q 1150 3584 1784 3584 
Q 2172 3584 2448 3432 
Q 2725 3281 2906 2969 
z
M 947 1747 
Q 947 1113 1208 752 
Q 1469 391 1925 391 
Q 2381 391 2643 752 
Q 2906 1113 2906 1747 
Q 2906 2381 2643 2742 
Q 2381 3103 1925 3103 
Q 1469 3103 1208 2742 
Q 947 2381 947 1747 
z
" transform="scale(0.015625)"/>
       <path id="DejaVuSans-29" d="M 513 4856 
L 1013 4856 
Q 1481 4119 1714 3412 
Q 1947 2706 1947 2009 
Q 1947 1309 1714 600 
Q 1481 -109 1013 -844 
L 513 -844 
Q 928 -128 1133 580 
Q 1338 1288 1338 2009 
Q 1338 2731 1133 3434 
Q 928 4138 513 4856 
z
" transform="scale(0.015625)"/>
      </defs>
      <use xlink:href="#DejaVuSans-43"/>
      <use xlink:href="#DejaVuSans-43" transform="translate(69.824219 0)"/>
      <use xlink:href="#DejaVuSans-43" transform="translate(139.648438 0)"/>
      <use xlink:href="#DejaVuSans-41" transform="translate(209.472656 0)"/>
      <use xlink:href="#DejaVuSans-47" transform="translate(276.130859 0)"/>
      <use xlink:href="#DejaVuSans-41" transform="translate(353.621094 0)"/>
      <use xlink:href="#DejaVuSans-43" transform="translate(420.279297 0)"/>
      <use xlink:href="#DejaVuSans-43" transform="translate(490.103516 0)"/>
      <use xlink:href="#DejaVuSans-54" transform="translate(559.927734 0)"/>
      <use xlink:href="#DejaVuSans-41" transform="translate(613.261719 0)"/>
      <use xlink:href="#DejaVuSans-41" transform="translate(684.419922 0)"/>
      <use xlink:href="#DejaVuSans-20" transform="translate(752.828125 0)"/>
      <use xlink:href="#DejaVuSans-28" transform="translate(784.615234 0)"/>
      <use xlink:href="#DejaVuSans-35" transform="translate(823.628906 0)"/>
      <use xlink:href="#DejaVuSans-27" transform="translate(887.251953 0)"/>
      <use xlink:href="#DejaVuSans-20" transform="translate(914.742188 0)"/>
      <use xlink:href="#DejaVuSans-65" transform="translate(946.529297 0)"/>
      <use xlink:href="#DejaVuSans-6e" transform="translate(1008.052734 0)"/>
      <use xlink:href="#DejaVuSans-64" transform="translate(1071.431641 0)"/>
      <use xlink:href="#DejaVuSans-29" transform="translate(1134.908203 0)"/>
     </g>
    </g>
    <g id="line2d_37">
     <path d="M 411.485625 49.654688 
L 421.485625 49.654688 
L 431.485625 49.654688 
" style="fill: none; stroke: #6495ed; stroke-width: 2; stroke-linecap: square"/>
    </g>
    <g id="text_21">
     <!-- CCCAGACTAA (5' end) -->
     <g transform="translate(439.485625 53.154688) scale(0.1 -0.1)">
      <use xlink:href="#DejaVuSans-43"/>
      <use xlink:href="#DejaVuSans-43" transform="translate(69.824219 0)"/>
      <use xlink:href="#DejaVuSans-43" transform="translate(139.648438 0)"/>
      <use xlink:href="#DejaVuSans-41" transform="translate(209.472656 0)"/>
      <use xlink:href="#DejaVuSans-47" transform="translate(276.130859 0)"/>
      <use xlink:href="#DejaVuSans-41" transform="translate(353.621094 0)"/>
      <use xlink:href="#DejaVuSans-43" transform="translate(420.279297 0)"/>
      <use xlink:href="#DejaVuSans-54" transform="translate(490.103516 0)"/>
      <use xlink:href="#DejaVuSans-41" transform="translate(543.4375 0)"/>
      <use xlink:href="#DejaVuSans-41" transform="translate(614.595703 0)"/>
      <use xlink:href="#DejaVuSans-20" transform="translate(683.003906 0)"/>
      <use xlink:href="#DejaVuSans-28" transform="translate(714.791016 0)"/>
      <use xlink:href="#DejaVuSans-35" transform="translate(753.804688 0)"/>
      <use xlink:href="#DejaVuSans-27" transform="translate(817.427734 0)"/>
      <use xlink:href="#DejaVuSans-20" transform="translate(844.917969 0)"/>
      <use xlink:href="#DejaVuSans-65" transform="translate(876.705078 0)"/>
      <use xlink:href="#DejaVuSans-6e" transform="translate(938.228516 0)"/>
      <use xlink:href="#DejaVuSans-64" transform="translate(1001.607422 0)"/>
      <use xlink:href="#DejaVuSans-29" transform="translate(1065.083984 0)"/>
     </g>
    </g>
    <g id="line2d_38">
     <path d="M 411.485625 64.332812 
L 421.485625 64.332812 
L 431.485625 64.332812 
" style="fill: none; stroke: #00008b; stroke-width: 2; stroke-linecap: square"/>
    </g>
    <g id="text_22">
     <!-- CCCTAA (5' end) -->
     <g transform="translate(439.485625 67.832812) scale(0.1 -0.1)">
      <use xlink:href="#DejaVuSans-43"/>
      <use xlink:href="#DejaVuSans-43" transform="translate(69.824219 0)"/>
      <use xlink:href="#DejaVuSans-43" transform="translate(139.648438 0)"/>
      <use xlink:href="#DejaVuSans-54" transform="translate(209.472656 0)"/>
      <use xlink:href="#DejaVuSans-41" transform="translate(262.806641 0)"/>
      <use xlink:href="#DejaVuSans-41" transform="translate(333.964844 0)"/>
      <use xlink:href="#DejaVuSans-20" transform="translate(402.373047 0)"/>
      <use xlink:href="#DejaVuSans-28" transform="translate(434.160156 0)"/>
      <use xlink:href="#DejaVuSans-35" transform="translate(473.173828 0)"/>
      <use xlink:href="#DejaVuSans-27" transform="translate(536.796875 0)"/>
      <use xlink:href="#DejaVuSans-20" transform="translate(564.287109 0)"/>
      <use xlink:href="#DejaVuSans-65" transform="translate(596.074219 0)"/>
      <use xlink:href="#DejaVuSans-6e" transform="translate(657.597656 0)"/>
      <use xlink:href="#DejaVuSans-64" transform="translate(720.976562 0)"/>
      <use xlink:href="#DejaVuSans-29" transform="translate(784.453125 0)"/>
     </g>
    </g>
   </g>
  </g>
 </g>
 <defs>
  <clipPath id="p76273b1473">
   <rect x="46.965625" y="7.2" width="355.52" height="379.24"/>
  </clipPath>
 </defs>
</svg>
