<?xml version="1.0" encoding="utf-8" standalone="no"?>
<!DOCTYPE svg PUBLIC "-//W3C//DTD SVG 1.1//EN"
  "http://www.w3.org/Graphics/SVG/1.1/DTD/svg11.dtd">
<svg xmlns:xlink="http://www.w3.org/1999/xlink" width="712.21375pt" height="495.99625pt" viewBox="0 0 712.21375 495.99625" xmlns="http://www.w3.org/2000/svg" version="1.1">
 <metadata>
  <rdf:RDF xmlns:dc="http://purl.org/dc/elements/1.1/" xmlns:cc="http://creativecommons.org/ns#" xmlns:rdf="http://www.w3.org/1999/02/22-rdf-syntax-ns#">
   <cc:Work>
    <dc:type rdf:resource="http://purl.org/dc/dcmitype/StillImage"/>
    <dc:date>2026-04-15T13:12:36.088486</dc:date>
    <dc:format>image/svg+xml</dc:format>
    <dc:creator>
     <cc:Agent>
      <dc:title>Matplotlib v3.10.6, https://matplotlib.org/</dc:title>
     </cc:Agent>
    </dc:creator>
   </cc:Work>
  </rdf:RDF>
 </metadata>
 <defs>
  <style type="text/css">*{stroke-linejoin: round; stroke-linecap: butt}</style>
 </defs>
 <g id="figure_1">
  <g id="patch_1">
   <path d="M 0 495.99625 
L 712.21375 495.99625 
L 712.21375 0 
L 0 0 
z
" style="fill: #ffffff"/>
  </g>
  <g id="axes_1">
   <g id="patch_2">
    <path d="M 46.965625 458.44 
L 572.135625 458.44 
L 572.135625 7.2 
L 46.965625 7.2 
z
" style="fill: #ffffff"/>
   </g>
   <g id="matplotlib.axis_1">
    <g id="xtick_1">
     <g id="line2d_1">
      <path d="M 70.836989 458.44 
L 70.836989 7.2 
" clip-path="url(#pc96c10c934)" style="fill: none; stroke-dasharray: 2.96,1.28; stroke-dashoffset: 0; stroke: #b0b0b0; stroke-opacity: 0.6; stroke-width: 0.8"/>
     </g>
     <g id="line2d_2">
      <defs>
       <path id="m3f69bd6bfa" d="M 0 0 
L 0 3.5 
" style="stroke: #000000; stroke-width: 0.8"/>
      </defs>
      <g>
       <use xlink:href="#m3f69bd6bfa" x="70.836989" y="458.44" style="stroke: #000000; stroke-width: 0.8"/>
      </g>
     </g>
     <g id="text_1">
      <!-- 0 -->
      <g transform="translate(67.655739 473.038438) scale(0.1 -0.1)">
       <defs>
        <path id="DejaVuSans-30" d="M 2034 4250 
Q 1547 4250 1301 3770 
Q 1056 3291 1056 2328 
Q 1056 1369 1301 889 
Q 1547 409 2034 409 
Q 2525 409 2770 889 
Q 3016 1369 3016 2328 
Q 3016 3291 2770 3770 
Q 2525 4250 2034 4250 
z
M 2034 4750 
Q 2819 4750 3233 4129 
Q 3647 3509 3647 2328 
Q 3647 1150 3233 529 
Q 2819 -91 2034 -91 
Q 1250 -91 836 529 
Q 422 1150 422 2328 
Q 422 3509 836 4129 
Q 1250 4750 2034 4750 
z
" transform="scale(0.015625)"/>
       </defs>
       <use xlink:href="#DejaVuSans-30"/>
      </g>
     </g>
    </g>
    <g id="xtick_2">
     <g id="line2d_3">
      <path d="M 130.515398 458.44 
L 130.515398 7.2 
" clip-path="url(#pc96c10c934)" style="fill: none; stroke-dasharray: 2.96,1.28; stroke-dashoffset: 0; stroke: #b0b0b0; stroke-opacity: 0.6; stroke-width: 0.8"/>
     </g>
     <g id="line2d_4">
      <g>
       <use xlink:href="#m3f69bd6bfa" x="130.515398" y="458.44" style="stroke: #000000; stroke-width: 0.8"/>
      </g>
     </g>
     <g id="text_2">
      <!-- 500 -->
      <g transform="translate(120.971648 473.038438) scale(0.1 -0.1)">
       <defs>
        <path id="DejaVuSans-35" d="M 691 4666 
L 3169 4666 
L 3169 4134 
L 1269 4134 
L 1269 2991 
Q 1406 3038 1543 3061 
Q 1681 3084 1819 3084 
Q 2600 3084 3056 2656 
Q 3513 2228 3513 1497 
Q 3513 744 3044 326 
Q 2575 -91 1722 -91 
Q 1428 -91 1123 -41 
Q 819 9 494 109 
L 494 744 
Q 775 591 1075 516 
Q 1375 441 1709 441 
Q 2250 441 2565 725 
Q 2881 1009 2881 1497 
Q 2881 1984 2565 2268 
Q 2250 2553 1709 2553 
Q 1456 2553 1204 2497 
Q 953 2441 691 2322 
L 691 4666 
z
" transform="scale(0.015625)"/>
       </defs>
       <use xlink:href="#DejaVuSans-35"/>
       <use xlink:href="#DejaVuSans-30" transform="translate(63.623047 0)"/>
       <use xlink:href="#DejaVuSans-30" transform="translate(127.246094 0)"/>
      </g>
     </g>
    </g>
    <g id="xtick_3">
     <g id="line2d_5">
      <path d="M 190.193807 458.44 
L 190.193807 7.2 
" clip-path="url(#pc96c10c934)" style="fill: none; stroke-dasharray: 2.96,1.28; stroke-dashoffset: 0; stroke: #b0b0b0; stroke-opacity: 0.6; stroke-width: 0.8"/>
     </g>
     <g id="line2d_6">
      <g>
       <use xlink:href="#m3f69bd6bfa" x="190.193807" y="458.44" style="stroke: #000000; stroke-width: 0.8"/>
      </g>
     </g>
     <g id="text_3">
      <!-- 1000 -->
      <g transform="translate(177.468807 473.038438) scale(0.1 -0.1)">
       <defs>
        <path id="DejaVuSans-31" d="M 794 531 
L 1825 531 
L 1825 4091 
L 703 3866 
L 703 4441 
L 1819 4666 
L 2450 4666 
L 2450 531 
L 3481 531 
L 3481 0 
L 794 0 
L 794 531 
z
" transform="scale(0.015625)"/>
       </defs>
       <use xlink:href="#DejaVuSans-31"/>
       <use xlink:href="#DejaVuSans-30" transform="translate(63.623047 0)"/>
       <use xlink:href="#DejaVuSans-30" transform="translate(127.246094 0)"/>
       <use xlink:href="#DejaVuSans-30" transform="translate(190.869141 0)"/>
      </g>
     </g>
    </g>
    <g id="xtick_4">
     <g id="line2d_7">
      <path d="M 249.872216 458.44 
L 249.872216 7.2 
" clip-path="url(#pc96c10c934)" style="fill: none; stroke-dasharray: 2.96,1.28; stroke-dashoffset: 0; stroke: #b0b0b0; stroke-opacity: 0.6; stroke-width: 0.8"/>
     </g>
     <g id="line2d_8">
      <g>
       <use xlink:href="#m3f69bd6bfa" x="249.872216" y="458.44" style="stroke: #000000; stroke-width: 0.8"/>
      </g>
     </g>
     <g id="text_4">
      <!-- 1500 -->
      <g transform="translate(237.147216 473.038438) scale(0.1 -0.1)">
       <use xlink:href="#DejaVuSans-31"/>
       <use xlink:href="#DejaVuSans-35" transform="translate(63.623047 0)"/>
       <use xlink:href="#DejaVuSans-30" transform="translate(127.246094 0)"/>
       <use xlink:href="#DejaVuSans-30" transform="translate(190.869141 0)"/>
      </g>
     </g>
    </g>
    <g id="xtick_5">
     <g id="line2d_9">
      <path d="M 309.550625 458.44 
L 309.550625 7.2 
" clip-path="url(#pc96c10c934)" style="fill: none; stroke-dasharray: 2.96,1.28; stroke-dashoffset: 0; stroke: #b0b0b0; stroke-opacity: 0.6; stroke-width: 0.8"/>
     </g>
     <g id="line2d_10">
      <g>
       <use xlink:href="#m3f69bd6bfa" x="309.550625" y="458.44" style="stroke: #000000; stroke-width: 0.8"/>
      </g>
     </g>
     <g id="text_5">
      <!-- 2000 -->
      <g transform="translate(296.825625 473.038438) scale(0.1 -0.1)">
       <defs>
        <path id="DejaVuSans-32" d="M 1228 531 
L 3431 531 
L 3431 0 
L 469 0 
L 469 531 
Q 828 903 1448 1529 
Q 2069 2156 2228 2338 
Q 2531 2678 2651 2914 
Q 2772 3150 2772 3378 
Q 2772 3750 2511 3984 
Q 2250 4219 1831 4219 
Q 1534 4219 1204 4116 
Q 875 4013 500 3803 
L 500 4441 
Q 881 4594 1212 4672 
Q 1544 4750 1819 4750 
Q 2544 4750 2975 4387 
Q 3406 4025 3406 3419 
Q 3406 3131 3298 2873 
Q 3191 2616 2906 2266 
Q 2828 2175 2409 1742 
Q 1991 1309 1228 531 
z
" transform="scale(0.015625)"/>
       </defs>
       <use xlink:href="#DejaVuSans-32"/>
       <use xlink:href="#DejaVuSans-30" transform="translate(63.623047 0)"/>
       <use xlink:href="#DejaVuSans-30" transform="translate(127.246094 0)"/>
       <use xlink:href="#DejaVuSans-30" transform="translate(190.869141 0)"/>
      </g>
     </g>
    </g>
    <g id="xtick_6">
     <g id="line2d_11">
      <path d="M 369.229034 458.44 
L 369.229034 7.2 
" clip-path="url(#pc96c10c934)" style="fill: none; stroke-dasharray: 2.96,1.28; stroke-dashoffset: 0; stroke: #b0b0b0; stroke-opacity: 0.6; stroke-width: 0.8"/>
     </g>
     <g id="line2d_12">
      <g>
       <use xlink:href="#m3f69bd6bfa" x="369.229034" y="458.44" style="stroke: #000000; stroke-width: 0.8"/>
      </g>
     </g>
     <g id="text_6">
      <!-- 2500 -->
      <g transform="translate(356.504034 473.038438) scale(0.1 -0.1)">
       <use xlink:href="#DejaVuSans-32"/>
       <use xlink:href="#DejaVuSans-35" transform="translate(63.623047 0)"/>
       <use xlink:href="#DejaVuSans-30" transform="translate(127.246094 0)"/>
       <use xlink:href="#DejaVuSans-30" transform="translate(190.869141 0)"/>
      </g>
     </g>
    </g>
    <g id="xtick_7">
     <g id="line2d_13">
      <path d="M 428.907443 458.44 
L 428.907443 7.2 
" clip-path="url(#pc96c10c934)" style="fill: none; stroke-dasharray: 2.96,1.28; stroke-dashoffset: 0; stroke: #b0b0b0; stroke-opacity: 0.6; stroke-width: 0.8"/>
     </g>
     <g id="line2d_14">
      <g>
       <use xlink:href="#m3f69bd6bfa" x="428.907443" y="458.44" style="stroke: #000000; stroke-width: 0.8"/>
      </g>
     </g>
     <g id="text_7">
      <!-- 3000 -->
      <g transform="translate(416.182443 473.038438) scale(0.1 -0.1)">
       <defs>
        <path id="DejaVuSans-33" d="M 2597 2516 
Q 3050 2419 3304 2112 
Q 3559 1806 3559 1356 
Q 3559 666 3084 287 
Q 2609 -91 1734 -91 
Q 1441 -91 1130 -33 
Q 819 25 488 141 
L 488 750 
Q 750 597 1062 519 
Q 1375 441 1716 441 
Q 2309 441 2620 675 
Q 2931 909 2931 1356 
Q 2931 1769 2642 2001 
Q 2353 2234 1838 2234 
L 1294 2234 
L 1294 2753 
L 1863 2753 
Q 2328 2753 2575 2939 
Q 2822 3125 2822 3475 
Q 2822 3834 2567 4026 
Q 2313 4219 1838 4219 
Q 1578 4219 1281 4162 
Q 984 4106 628 3988 
L 628 4550 
Q 988 4650 1302 4700 
Q 1616 4750 1894 4750 
Q 2613 4750 3031 4423 
Q 3450 4097 3450 3541 
Q 3450 3153 3228 2886 
Q 3006 2619 2597 2516 
z
" transform="scale(0.015625)"/>
       </defs>
       <use xlink:href="#DejaVuSans-33"/>
       <use xlink:href="#DejaVuSans-30" transform="translate(63.623047 0)"/>
       <use xlink:href="#DejaVuSans-30" transform="translate(127.246094 0)"/>
       <use xlink:href="#DejaVuSans-30" transform="translate(190.869141 0)"/>
      </g>
     </g>
    </g>
    <g id="xtick_8">
     <g id="line2d_15">
      <path d="M 488.585852 458.44 
L 488.585852 7.2 
" clip-path="url(#pc96c10c934)" style="fill: none; stroke-dasharray: 2.96,1.28; stroke-dashoffset: 0; stroke: #b0b0b0; stroke-opacity: 0.6; stroke-width: 0.8"/>
     </g>
     <g id="line2d_16">
      <g>
       <use xlink:href="#m3f69bd6bfa" x="488.585852" y="458.44" style="stroke: #000000; stroke-width: 0.8"/>
      </g>
     </g>
     <g id="text_8">
      <!-- 3500 -->
      <g transform="translate(475.860852 473.038438) scale(0.1 -0.1)">
       <use xlink:href="#DejaVuSans-33"/>
       <use xlink:href="#DejaVuSans-35" transform="translate(63.623047 0)"/>
       <use xlink:href="#DejaVuSans-30" transform="translate(127.246094 0)"/>
       <use xlink:href="#DejaVuSans-30" transform="translate(190.869141 0)"/>
      </g>
     </g>
    </g>
    <g id="xtick_9">
     <g id="line2d_17">
      <path d="M 548.264261 458.44 
L 548.264261 7.2 
" clip-path="url(#pc96c10c934)" style="fill: none; stroke-dasharray: 2.96,1.28; stroke-dashoffset: 0; stroke: #b0b0b0; stroke-opacity: 0.6; stroke-width: 0.8"/>
     </g>
     <g id="line2d_18">
      <g>
       <use xlink:href="#m3f69bd6bfa" x="548.264261" y="458.44" style="stroke: #000000; stroke-width: 0.8"/>
      </g>
     </g>
     <g id="text_9">
      <!-- 4000 -->
      <g transform="translate(535.539261 473.038438) scale(0.1 -0.1)">
       <defs>
        <path id="DejaVuSans-34" d="M 2419 4116 
L 825 1625 
L 2419 1625 
L 2419 4116 
z
M 2253 4666 
L 3047 4666 
L 3047 1625 
L 3713 1625 
L 3713 1100 
L 3047 1100 
L 3047 0 
L 2419 0 
L 2419 1100 
L 313 1100 
L 313 1709 
L 2253 4666 
z
" transform="scale(0.015625)"/>
       </defs>
       <use xlink:href="#DejaVuSans-34"/>
       <use xlink:href="#DejaVuSans-30" transform="translate(63.623047 0)"/>
       <use xlink:href="#DejaVuSans-30" transform="translate(127.246094 0)"/>
       <use xlink:href="#DejaVuSans-30" transform="translate(190.869141 0)"/>
      </g>
     </g>
    </g>
    <g id="text_10">
     <!-- Distance from terminus [nt] -->
     <g transform="translate(240.051406 486.716563) scale(0.1 -0.1)">
      <defs>
       <path id="DejaVuSans-44" d="M 1259 4147 
L 1259 519 
L 2022 519 
Q 2988 519 3436 956 
Q 3884 1394 3884 2338 
Q 3884 3275 3436 3711 
Q 2988 4147 2022 4147 
L 1259 4147 
z
M 628 4666 
L 1925 4666 
Q 3281 4666 3915 4102 
Q 4550 3538 4550 2338 
Q 4550 1131 3912 565 
Q 3275 0 1925 0 
L 628 0 
L 628 4666 
z
" transform="scale(0.015625)"/>
       <path id="DejaVuSans-69" d="M 603 3500 
L 1178 3500 
L 1178 0 
L 603 0 
L 603 3500 
z
M 603 4863 
L 1178 4863 
L 1178 4134 
L 603 4134 
L 603 4863 
z
" transform="scale(0.015625)"/>
       <path id="DejaVuSans-73" d="M 2834 3397 
L 2834 2853 
Q 2591 2978 2328 3040 
Q 2066 3103 1784 3103 
Q 1356 3103 1142 2972 
Q 928 2841 928 2578 
Q 928 2378 1081 2264 
Q 1234 2150 1697 2047 
L 1894 2003 
Q 2506 1872 2764 1633 
Q 3022 1394 3022 966 
Q 3022 478 2636 193 
Q 2250 -91 1575 -91 
Q 1294 -91 989 -36 
Q 684 19 347 128 
L 347 722 
Q 666 556 975 473 
Q 1284 391 1588 391 
Q 1994 391 2212 530 
Q 2431 669 2431 922 
Q 2431 1156 2273 1281 
Q 2116 1406 1581 1522 
L 1381 1569 
Q 847 1681 609 1914 
Q 372 2147 372 2553 
Q 372 3047 722 3315 
Q 1072 3584 1716 3584 
Q 2034 3584 2315 3537 
Q 2597 3491 2834 3397 
z
" transform="scale(0.015625)"/>
       <path id="DejaVuSans-74" d="M 1172 4494 
L 1172 3500 
L 2356 3500 
L 2356 3053 
L 1172 3053 
L 1172 1153 
Q 1172 725 1289 603 
Q 1406 481 1766 481 
L 2356 481 
L 2356 0 
L 1766 0 
Q 1100 0 847 248 
Q 594 497 594 1153 
L 594 3053 
L 172 3053 
L 172 3500 
L 594 3500 
L 594 4494 
L 1172 4494 
z
" transform="scale(0.015625)"/>
       <path id="DejaVuSans-61" d="M 2194 1759 
Q 1497 1759 1228 1600 
Q 959 1441 959 1056 
Q 959 750 1161 570 
Q 1363 391 1709 391 
Q 2188 391 2477 730 
Q 2766 1069 2766 1631 
L 2766 1759 
L 2194 1759 
z
M 3341 1997 
L 3341 0 
L 2766 0 
L 2766 531 
Q 2569 213 2275 61 
Q 1981 -91 1556 -91 
Q 1019 -91 701 211 
Q 384 513 384 1019 
Q 384 1609 779 1909 
Q 1175 2209 1959 2209 
L 2766 2209 
L 2766 2266 
Q 2766 2663 2505 2880 
Q 2244 3097 1772 3097 
Q 1472 3097 1187 3025 
Q 903 2953 641 2809 
L 641 3341 
Q 956 3463 1253 3523 
Q 1550 3584 1831 3584 
Q 2591 3584 2966 3190 
Q 3341 2797 3341 1997 
z
" transform="scale(0.015625)"/>
       <path id="DejaVuSans-6e" d="M 3513 2113 
L 3513 0 
L 2938 0 
L 2938 2094 
Q 2938 2591 2744 2837 
Q 2550 3084 2163 3084 
Q 1697 3084 1428 2787 
Q 1159 2491 1159 1978 
L 1159 0 
L 581 0 
L 581 3500 
L 1159 3500 
L 1159 2956 
Q 1366 3272 1645 3428 
Q 1925 3584 2291 3584 
Q 2894 3584 3203 3211 
Q 3513 2838 3513 2113 
z
" transform="scale(0.015625)"/>
       <path id="DejaVuSans-63" d="M 3122 3366 
L 3122 2828 
Q 2878 2963 2633 3030 
Q 2388 3097 2138 3097 
Q 1578 3097 1268 2742 
Q 959 2388 959 1747 
Q 959 1106 1268 751 
Q 1578 397 2138 397 
Q 2388 397 2633 464 
Q 2878 531 3122 666 
L 3122 134 
Q 2881 22 2623 -34 
Q 2366 -91 2075 -91 
Q 1284 -91 818 406 
Q 353 903 353 1747 
Q 353 2603 823 3093 
Q 1294 3584 2113 3584 
Q 2378 3584 2631 3529 
Q 2884 3475 3122 3366 
z
" transform="scale(0.015625)"/>
       <path id="DejaVuSans-65" d="M 3597 1894 
L 3597 1613 
L 953 1613 
Q 991 1019 1311 708 
Q 1631 397 2203 397 
Q 2534 397 2845 478 
Q 3156 559 3463 722 
L 3463 178 
Q 3153 47 2828 -22 
Q 2503 -91 2169 -91 
Q 1331 -91 842 396 
Q 353 884 353 1716 
Q 353 2575 817 3079 
Q 1281 3584 2069 3584 
Q 2775 3584 3186 3129 
Q 3597 2675 3597 1894 
z
M 3022 2063 
Q 3016 2534 2758 2815 
Q 2500 3097 2075 3097 
Q 1594 3097 1305 2825 
Q 1016 2553 972 2059 
L 3022 2063 
z
" transform="scale(0.015625)"/>
       <path id="DejaVuSans-20" transform="scale(0.015625)"/>
       <path id="DejaVuSans-66" d="M 2375 4863 
L 2375 4384 
L 1825 4384 
Q 1516 4384 1395 4259 
Q 1275 4134 1275 3809 
L 1275 3500 
L 2222 3500 
L 2222 3053 
L 1275 3053 
L 1275 0 
L 697 0 
L 697 3053 
L 147 3053 
L 147 3500 
L 697 3500 
L 697 3744 
Q 697 4328 969 4595 
Q 1241 4863 1831 4863 
L 2375 4863 
z
" transform="scale(0.015625)"/>
       <path id="DejaVuSans-72" d="M 2631 2963 
Q 2534 3019 2420 3045 
Q 2306 3072 2169 3072 
Q 1681 3072 1420 2755 
Q 1159 2438 1159 1844 
L 1159 0 
L 581 0 
L 581 3500 
L 1159 3500 
L 1159 2956 
Q 1341 3275 1631 3429 
Q 1922 3584 2338 3584 
Q 2397 3584 2469 3576 
Q 2541 3569 2628 3553 
L 2631 2963 
z
" transform="scale(0.015625)"/>
       <path id="DejaVuSans-6f" d="M 1959 3097 
Q 1497 3097 1228 2736 
Q 959 2375 959 1747 
Q 959 1119 1226 758 
Q 1494 397 1959 397 
Q 2419 397 2687 759 
Q 2956 1122 2956 1747 
Q 2956 2369 2687 2733 
Q 2419 3097 1959 3097 
z
M 1959 3584 
Q 2709 3584 3137 3096 
Q 3566 2609 3566 1747 
Q 3566 888 3137 398 
Q 2709 -91 1959 -91 
Q 1206 -91 779 398 
Q 353 888 353 1747 
Q 353 2609 779 3096 
Q 1206 3584 1959 3584 
z
" transform="scale(0.015625)"/>
       <path id="DejaVuSans-6d" d="M 3328 2828 
Q 3544 3216 3844 3400 
Q 4144 3584 4550 3584 
Q 5097 3584 5394 3201 
Q 5691 2819 5691 2113 
L 5691 0 
L 5113 0 
L 5113 2094 
Q 5113 2597 4934 2840 
Q 4756 3084 4391 3084 
Q 3944 3084 3684 2787 
Q 3425 2491 3425 1978 
L 3425 0 
L 2847 0 
L 2847 2094 
Q 2847 2600 2669 2842 
Q 2491 3084 2119 3084 
Q 1678 3084 1418 2786 
Q 1159 2488 1159 1978 
L 1159 0 
L 581 0 
L 581 3500 
L 1159 3500 
L 1159 2956 
Q 1356 3278 1631 3431 
Q 1906 3584 2284 3584 
Q 2666 3584 2933 3390 
Q 3200 3197 3328 2828 
z
" transform="scale(0.015625)"/>
       <path id="DejaVuSans-75" d="M 544 1381 
L 544 3500 
L 1119 3500 
L 1119 1403 
Q 1119 906 1312 657 
Q 1506 409 1894 409 
Q 2359 409 2629 706 
Q 2900 1003 2900 1516 
L 2900 3500 
L 3475 3500 
L 3475 0 
L 2900 0 
L 2900 538 
Q 2691 219 2414 64 
Q 2138 -91 1772 -91 
Q 1169 -91 856 284 
Q 544 659 544 1381 
z
M 1991 3584 
L 1991 3584 
z
" transform="scale(0.015625)"/>
       <path id="DejaVuSans-5b" d="M 550 4863 
L 1875 4863 
L 1875 4416 
L 1125 4416 
L 1125 -397 
L 1875 -397 
L 1875 -844 
L 550 -844 
L 550 4863 
z
" transform="scale(0.015625)"/>
       <path id="DejaVuSans-5d" d="M 1947 4863 
L 1947 -844 
L 622 -844 
L 622 -397 
L 1369 -397 
L 1369 4416 
L 622 4416 
L 622 4863 
L 1947 4863 
z
" transform="scale(0.015625)"/>
      </defs>
      <use xlink:href="#DejaVuSans-44"/>
      <use xlink:href="#DejaVuSans-69" transform="translate(77.001953 0)"/>
      <use xlink:href="#DejaVuSans-73" transform="translate(104.785156 0)"/>
      <use xlink:href="#DejaVuSans-74" transform="translate(156.884766 0)"/>
      <use xlink:href="#DejaVuSans-61" transform="translate(196.09375 0)"/>
      <use xlink:href="#DejaVuSans-6e" transform="translate(257.373047 0)"/>
      <use xlink:href="#DejaVuSans-63" transform="translate(320.751953 0)"/>
      <use xlink:href="#DejaVuSans-65" transform="translate(375.732422 0)"/>
      <use xlink:href="#DejaVuSans-20" transform="translate(437.255859 0)"/>
      <use xlink:href="#DejaVuSans-66" transform="translate(469.042969 0)"/>
      <use xlink:href="#DejaVuSans-72" transform="translate(504.248047 0)"/>
      <use xlink:href="#DejaVuSans-6f" transform="translate(543.111328 0)"/>
      <use xlink:href="#DejaVuSans-6d" transform="translate(604.292969 0)"/>
      <use xlink:href="#DejaVuSans-20" transform="translate(701.705078 0)"/>
      <use xlink:href="#DejaVuSans-74" transform="translate(733.492188 0)"/>
      <use xlink:href="#DejaVuSans-65" transform="translate(772.701172 0)"/>
      <use xlink:href="#DejaVuSans-72" transform="translate(834.224609 0)"/>
      <use xlink:href="#DejaVuSans-6d" transform="translate(873.587891 0)"/>
      <use xlink:href="#DejaVuSans-69" transform="translate(971 0)"/>
      <use xlink:href="#DejaVuSans-6e" transform="translate(998.783203 0)"/>
      <use xlink:href="#DejaVuSans-75" transform="translate(1062.162109 0)"/>
      <use xlink:href="#DejaVuSans-73" transform="translate(1125.541016 0)"/>
      <use xlink:href="#DejaVuSans-20" transform="translate(1177.640625 0)"/>
      <use xlink:href="#DejaVuSans-5b" transform="translate(1209.427734 0)"/>
      <use xlink:href="#DejaVuSans-6e" transform="translate(1248.441406 0)"/>
      <use xlink:href="#DejaVuSans-74" transform="translate(1311.820312 0)"/>
      <use xlink:href="#DejaVuSans-5d" transform="translate(1351.029297 0)"/>
     </g>
    </g>
   </g>
   <g id="matplotlib.axis_2">
    <g id="ytick_1">
     <g id="line2d_19">
      <path d="M 46.965625 437.929091 
L 572.135625 437.929091 
" clip-path="url(#pc96c10c934)" style="fill: none; stroke-dasharray: 2.96,1.28; stroke-dashoffset: 0; stroke: #b0b0b0; stroke-opacity: 0.6; stroke-width: 0.8"/>
     </g>
     <g id="line2d_20">
      <defs>
       <path id="mf7d5953a31" d="M 0 0 
L -3.5 0 
" style="stroke: #000000; stroke-width: 0.8"/>
      </defs>
      <g>
       <use xlink:href="#mf7d5953a31" x="46.965625" y="437.929091" style="stroke: #000000; stroke-width: 0.8"/>
      </g>
     </g>
     <g id="text_11">
      <!-- 0 -->
      <g transform="translate(33.603125 441.72831) scale(0.1 -0.1)">
       <use xlink:href="#DejaVuSans-30"/>
      </g>
     </g>
    </g>
    <g id="ytick_2">
     <g id="line2d_21">
      <path d="M 46.965625 376.242146 
L 572.135625 376.242146 
" clip-path="url(#pc96c10c934)" style="fill: none; stroke-dasharray: 2.96,1.28; stroke-dashoffset: 0; stroke: #b0b0b0; stroke-opacity: 0.6; stroke-width: 0.8"/>
     </g>
     <g id="line2d_22">
      <g>
       <use xlink:href="#mf7d5953a31" x="46.965625" y="376.242146" style="stroke: #000000; stroke-width: 0.8"/>
      </g>
     </g>
     <g id="text_12">
      <!-- 20 -->
      <g transform="translate(27.240625 380.041365) scale(0.1 -0.1)">
       <use xlink:href="#DejaVuSans-32"/>
       <use xlink:href="#DejaVuSans-30" transform="translate(63.623047 0)"/>
      </g>
     </g>
    </g>
    <g id="ytick_3">
     <g id="line2d_23">
      <path d="M 46.965625 314.555202 
L 572.135625 314.555202 
" clip-path="url(#pc96c10c934)" style="fill: none; stroke-dasharray: 2.96,1.28; stroke-dashoffset: 0; stroke: #b0b0b0; stroke-opacity: 0.6; stroke-width: 0.8"/>
     </g>
     <g id="line2d_24">
      <g>
       <use xlink:href="#mf7d5953a31" x="46.965625" y="314.555202" style="stroke: #000000; stroke-width: 0.8"/>
      </g>
     </g>
     <g id="text_13">
      <!-- 40 -->
      <g transform="translate(27.240625 318.35442) scale(0.1 -0.1)">
       <use xlink:href="#DejaVuSans-34"/>
       <use xlink:href="#DejaVuSans-30" transform="translate(63.623047 0)"/>
      </g>
     </g>
    </g>
    <g id="ytick_4">
     <g id="line2d_25">
      <path d="M 46.965625 252.868257 
L 572.135625 252.868257 
" clip-path="url(#pc96c10c934)" style="fill: none; stroke-dasharray: 2.96,1.28; stroke-dashoffset: 0; stroke: #b0b0b0; stroke-opacity: 0.6; stroke-width: 0.8"/>
     </g>
     <g id="line2d_26">
      <g>
       <use xlink:href="#mf7d5953a31" x="46.965625" y="252.868257" style="stroke: #000000; stroke-width: 0.8"/>
      </g>
     </g>
     <g id="text_14">
      <!-- 60 -->
      <g transform="translate(27.240625 256.667476) scale(0.1 -0.1)">
       <defs>
        <path id="DejaVuSans-36" d="M 2113 2584 
Q 1688 2584 1439 2293 
Q 1191 2003 1191 1497 
Q 1191 994 1439 701 
Q 1688 409 2113 409 
Q 2538 409 2786 701 
Q 3034 994 3034 1497 
Q 3034 2003 2786 2293 
Q 2538 2584 2113 2584 
z
M 3366 4563 
L 3366 3988 
Q 3128 4100 2886 4159 
Q 2644 4219 2406 4219 
Q 1781 4219 1451 3797 
Q 1122 3375 1075 2522 
Q 1259 2794 1537 2939 
Q 1816 3084 2150 3084 
Q 2853 3084 3261 2657 
Q 3669 2231 3669 1497 
Q 3669 778 3244 343 
Q 2819 -91 2113 -91 
Q 1303 -91 875 529 
Q 447 1150 447 2328 
Q 447 3434 972 4092 
Q 1497 4750 2381 4750 
Q 2619 4750 2861 4703 
Q 3103 4656 3366 4563 
z
" transform="scale(0.015625)"/>
       </defs>
       <use xlink:href="#DejaVuSans-36"/>
       <use xlink:href="#DejaVuSans-30" transform="translate(63.623047 0)"/>
      </g>
     </g>
    </g>
    <g id="ytick_5">
     <g id="line2d_27">
      <path d="M 46.965625 191.181312 
L 572.135625 191.181312 
" clip-path="url(#pc96c10c934)" style="fill: none; stroke-dasharray: 2.96,1.28; stroke-dashoffset: 0; stroke: #b0b0b0; stroke-opacity: 0.6; stroke-width: 0.8"/>
     </g>
     <g id="line2d_28">
      <g>
       <use xlink:href="#mf7d5953a31" x="46.965625" y="191.181312" style="stroke: #000000; stroke-width: 0.8"/>
      </g>
     </g>
     <g id="text_15">
      <!-- 80 -->
      <g transform="translate(27.240625 194.980531) scale(0.1 -0.1)">
       <defs>
        <path id="DejaVuSans-38" d="M 2034 2216 
Q 1584 2216 1326 1975 
Q 1069 1734 1069 1313 
Q 1069 891 1326 650 
Q 1584 409 2034 409 
Q 2484 409 2743 651 
Q 3003 894 3003 1313 
Q 3003 1734 2745 1975 
Q 2488 2216 2034 2216 
z
M 1403 2484 
Q 997 2584 770 2862 
Q 544 3141 544 3541 
Q 544 4100 942 4425 
Q 1341 4750 2034 4750 
Q 2731 4750 3128 4425 
Q 3525 4100 3525 3541 
Q 3525 3141 3298 2862 
Q 3072 2584 2669 2484 
Q 3125 2378 3379 2068 
Q 3634 1759 3634 1313 
Q 3634 634 3220 271 
Q 2806 -91 2034 -91 
Q 1263 -91 848 271 
Q 434 634 434 1313 
Q 434 1759 690 2068 
Q 947 2378 1403 2484 
z
M 1172 3481 
Q 1172 3119 1398 2916 
Q 1625 2713 2034 2713 
Q 2441 2713 2670 2916 
Q 2900 3119 2900 3481 
Q 2900 3844 2670 4047 
Q 2441 4250 2034 4250 
Q 1625 4250 1398 4047 
Q 1172 3844 1172 3481 
z
" transform="scale(0.015625)"/>
       </defs>
       <use xlink:href="#DejaVuSans-38"/>
       <use xlink:href="#DejaVuSans-30" transform="translate(63.623047 0)"/>
      </g>
     </g>
    </g>
    <g id="ytick_6">
     <g id="line2d_29">
      <path d="M 46.965625 129.494368 
L 572.135625 129.494368 
" clip-path="url(#pc96c10c934)" style="fill: none; stroke-dasharray: 2.96,1.28; stroke-dashoffset: 0; stroke: #b0b0b0; stroke-opacity: 0.6; stroke-width: 0.8"/>
     </g>
     <g id="line2d_30">
      <g>
       <use xlink:href="#mf7d5953a31" x="46.965625" y="129.494368" style="stroke: #000000; stroke-width: 0.8"/>
      </g>
     </g>
     <g id="text_16">
      <!-- 100 -->
      <g transform="translate(20.878125 133.293586) scale(0.1 -0.1)">
       <use xlink:href="#DejaVuSans-31"/>
       <use xlink:href="#DejaVuSans-30" transform="translate(63.623047 0)"/>
       <use xlink:href="#DejaVuSans-30" transform="translate(127.246094 0)"/>
      </g>
     </g>
    </g>
    <g id="ytick_7">
     <g id="line2d_31">
      <path d="M 46.965625 67.807423 
L 572.135625 67.807423 
" clip-path="url(#pc96c10c934)" style="fill: none; stroke-dasharray: 2.96,1.28; stroke-dashoffset: 0; stroke: #b0b0b0; stroke-opacity: 0.6; stroke-width: 0.8"/>
     </g>
     <g id="line2d_32">
      <g>
       <use xlink:href="#mf7d5953a31" x="46.965625" y="67.807423" style="stroke: #000000; stroke-width: 0.8"/>
      </g>
     </g>
     <g id="text_17">
      <!-- 120 -->
      <g transform="translate(20.878125 71.606642) scale(0.1 -0.1)">
       <use xlink:href="#DejaVuSans-31"/>
       <use xlink:href="#DejaVuSans-32" transform="translate(63.623047 0)"/>
       <use xlink:href="#DejaVuSans-30" transform="translate(127.246094 0)"/>
      </g>
     </g>
    </g>
    <g id="text_18">
     <!-- Average cumulative count -->
     <g transform="translate(14.798438 298.4325) rotate(-90) scale(0.1 -0.1)">
      <defs>
       <path id="DejaVuSans-41" d="M 2188 4044 
L 1331 1722 
L 3047 1722 
L 2188 4044 
z
M 1831 4666 
L 2547 4666 
L 4325 0 
L 3669 0 
L 3244 1197 
L 1141 1197 
L 716 0 
L 50 0 
L 1831 4666 
z
" transform="scale(0.015625)"/>
       <path id="DejaVuSans-76" d="M 191 3500 
L 800 3500 
L 1894 563 
L 2988 3500 
L 3597 3500 
L 2284 0 
L 1503 0 
L 191 3500 
z
" transform="scale(0.015625)"/>
       <path id="DejaVuSans-67" d="M 2906 1791 
Q 2906 2416 2648 2759 
Q 2391 3103 1925 3103 
Q 1463 3103 1205 2759 
Q 947 2416 947 1791 
Q 947 1169 1205 825 
Q 1463 481 1925 481 
Q 2391 481 2648 825 
Q 2906 1169 2906 1791 
z
M 3481 434 
Q 3481 -459 3084 -895 
Q 2688 -1331 1869 -1331 
Q 1566 -1331 1297 -1286 
Q 1028 -1241 775 -1147 
L 775 -588 
Q 1028 -725 1275 -790 
Q 1522 -856 1778 -856 
Q 2344 -856 2625 -561 
Q 2906 -266 2906 331 
L 2906 616 
Q 2728 306 2450 153 
Q 2172 0 1784 0 
Q 1141 0 747 490 
Q 353 981 353 1791 
Q 353 2603 747 3093 
Q 1141 3584 1784 3584 
Q 2172 3584 2450 3431 
Q 2728 3278 2906 2969 
L 2906 3500 
L 3481 3500 
L 3481 434 
z
" transform="scale(0.015625)"/>
       <path id="DejaVuSans-6c" d="M 603 4863 
L 1178 4863 
L 1178 0 
L 603 0 
L 603 4863 
z
" transform="scale(0.015625)"/>
      </defs>
      <use xlink:href="#DejaVuSans-41"/>
      <use xlink:href="#DejaVuSans-76" transform="translate(62.533203 0)"/>
      <use xlink:href="#DejaVuSans-65" transform="translate(121.712891 0)"/>
      <use xlink:href="#DejaVuSans-72" transform="translate(183.236328 0)"/>
      <use xlink:href="#DejaVuSans-61" transform="translate(224.349609 0)"/>
      <use xlink:href="#DejaVuSans-67" transform="translate(285.628906 0)"/>
      <use xlink:href="#DejaVuSans-65" transform="translate(349.105469 0)"/>
      <use xlink:href="#DejaVuSans-20" transform="translate(410.628906 0)"/>
      <use xlink:href="#DejaVuSans-63" transform="translate(442.416016 0)"/>
      <use xlink:href="#DejaVuSans-75" transform="translate(497.396484 0)"/>
      <use xlink:href="#DejaVuSans-6d" transform="translate(560.775391 0)"/>
      <use xlink:href="#DejaVuSans-75" transform="translate(658.1875 0)"/>
      <use xlink:href="#DejaVuSans-6c" transform="translate(721.566406 0)"/>
      <use xlink:href="#DejaVuSans-61" transform="translate(749.349609 0)"/>
      <use xlink:href="#DejaVuSans-74" transform="translate(810.628906 0)"/>
      <use xlink:href="#DejaVuSans-69" transform="translate(849.837891 0)"/>
      <use xlink:href="#DejaVuSans-76" transform="translate(877.621094 0)"/>
      <use xlink:href="#DejaVuSans-65" transform="translate(936.800781 0)"/>
      <use xlink:href="#DejaVuSans-20" transform="translate(998.324219 0)"/>
      <use xlink:href="#DejaVuSans-63" transform="translate(1030.111328 0)"/>
      <use xlink:href="#DejaVuSans-6f" transform="translate(1085.091797 0)"/>
      <use xlink:href="#DejaVuSans-75" transform="translate(1146.273438 0)"/>
      <use xlink:href="#DejaVuSans-6e" transform="translate(1209.652344 0)"/>
      <use xlink:href="#DejaVuSans-74" transform="translate(1273.03125 0)"/>
     </g>
    </g>
   </g>
   <g id="line2d_33">
    <path d="M 70.836989 437.929091 
L 91.724432 437.929091 
L 91.843789 436.900975 
L 92.798643 436.900975 
L 92.918 435.872859 
L 104.376255 435.872859 
L 104.495611 434.844744 
L 110.105382 434.844744 
L 110.224739 433.816628 
L 138.034877 433.816628 
L 138.154234 432.788512 
L 158.92232 432.788512 
L 159.041677 431.760396 
L 164.532091 431.760396 
L 164.651448 430.732281 
L 180.764618 430.732281 
L 180.883975 429.704165 
L 206.068264 429.704165 
L 206.18762 428.676049 
L 234.833257 428.676049 
L 234.952614 427.647933 
L 245.456014 427.647933 
L 245.57537 426.619818 
L 249.156075 426.619818 
L 249.275432 425.591702 
L 249.991573 425.591702 
L 250.11093 424.563586 
L 251.662568 424.563586 
L 251.781925 423.53547 
L 252.498066 423.53547 
L 252.617423 422.507355 
L 253.333564 422.507355 
L 253.45292 421.479239 
L 259.062691 421.479239 
L 259.182048 420.451123 
L 260.733686 420.451123 
L 260.853043 419.423008 
L 289.737393 419.423008 
L 289.85675 418.394892 
L 290.692248 418.394892 
L 290.811605 417.366776 
L 307.163489 417.366776 
L 307.282845 416.33866 
L 331.392923 416.33866 
L 331.51228 415.310545 
L 335.212341 415.310545 
L 335.331698 414.282429 
L 335.451055 414.282429 
L 335.570411 413.254313 
L 336.286552 413.254313 
L 336.405909 412.226197 
L 346.193168 412.226197 
L 346.312525 411.198082 
L 362.545052 411.198082 
L 362.664409 410.169966 
L 366.961255 410.169966 
L 367.080611 409.14185 
L 373.048452 409.14185 
L 373.167809 408.113734 
L 384.74542 408.113734 
L 384.864777 407.085619 
L 387.132557 407.085619 
L 387.251914 406.057503 
L 392.2649 406.057503 
L 392.384257 405.029387 
L 395.606891 405.029387 
L 395.726248 404.001271 
L 404.200582 404.001271 
L 404.319939 402.973156 
L 430.697795 402.973156 
L 430.817152 401.94504 
L 477.485668 401.94504 
L 477.605025 400.916924 
L 495.866618 400.916924 
L 495.985975 399.888808 
L 508.876511 399.888808 
L 508.995868 398.860693 
L 524.154184 398.860693 
L 524.273541 397.832577 
L 530.360739 397.832577 
L 530.480095 396.804461 
L 548.144905 396.804461 
L 548.144905 396.804461 
" clip-path="url(#pc96c10c934)" style="fill: none; stroke: #006ba4; stroke-width: 2; stroke-linecap: square"/>
   </g>
   <g id="line2d_34">
    <path d="M 70.836989 437.929091 
L 77.1629 437.929091 
L 77.282257 436.900975 
L 78.714539 436.900975 
L 78.953252 434.844744 
L 79.43068 434.844744 
L 79.550036 433.816628 
L 80.266177 433.816628 
L 80.385534 432.788512 
L 80.982318 432.788512 
L 81.101675 431.760396 
L 81.698459 431.760396 
L 81.817816 430.732281 
L 83.369455 430.732281 
L 83.488811 429.704165 
L 84.68238 429.704165 
L 84.801736 428.676049 
L 85.39852 428.676049 
L 85.517877 427.647933 
L 86.114661 427.647933 
L 86.234018 426.619818 
L 86.830802 426.619818 
L 86.950159 425.591702 
L 87.546943 425.591702 
L 87.6663 424.563586 
L 88.263084 424.563586 
L 88.382441 423.53547 
L 88.979225 423.53547 
L 89.098582 422.507355 
L 89.695366 422.507355 
L 89.814723 421.479239 
L 89.93408 421.479239 
L 90.053436 420.451123 
L 90.530864 420.451123 
L 90.65022 419.423008 
L 91.247005 419.423008 
L 91.366361 418.394892 
L 91.843789 418.394892 
L 91.963145 417.366776 
L 92.918 417.366776 
L 93.037357 416.33866 
L 94.827709 416.33866 
L 94.947066 415.310545 
L 96.259991 415.310545 
L 96.379348 414.282429 
L 96.976132 414.282429 
L 97.095489 413.254313 
L 97.334202 413.254313 
L 97.453559 412.226197 
L 100.079409 412.226197 
L 100.198766 411.198082 
L 102.705259 411.198082 
L 102.824616 410.169966 
L 103.4214 410.169966 
L 103.540757 409.14185 
L 104.495611 409.14185 
L 104.614968 407.085619 
L 105.927893 407.085619 
L 106.04725 406.057503 
L 106.285964 406.057503 
L 106.40532 405.029387 
L 108.553743 405.029387 
L 108.6731 404.001271 
L 109.389241 404.001271 
L 109.508598 402.973156 
L 110.105382 402.973156 
L 110.344095 400.916924 
L 112.850589 400.916924 
L 112.969945 399.888808 
L 113.686086 399.888808 
L 113.805443 398.860693 
L 115.953866 398.860693 
L 116.073223 397.832577 
L 116.789364 397.832577 
L 116.90872 396.804461 
L 118.221645 396.804461 
L 118.341002 395.776345 
L 119.415214 395.776345 
L 119.53457 394.74823 
L 120.608782 394.74823 
L 120.728139 393.720114 
L 121.324923 393.720114 
L 121.44428 392.691998 
L 122.16042 392.691998 
L 122.279777 391.663882 
L 122.876561 391.663882 
L 122.995918 390.635767 
L 123.592702 390.635767 
L 123.712059 389.607651 
L 124.308843 389.607651 
L 124.4282 388.579535 
L 125.024984 388.579535 
L 125.144341 387.551419 
L 125.860482 387.551419 
L 125.979839 386.523304 
L 126.576623 386.523304 
L 126.69598 385.495188 
L 127.41212 385.495188 
L 127.531477 384.467072 
L 128.128261 384.467072 
L 128.247618 383.438956 
L 130.873468 383.438956 
L 130.992825 382.410841 
L 131.589609 382.410841 
L 131.708966 381.382725 
L 132.30575 381.382725 
L 132.425107 380.354609 
L 133.738032 380.354609 
L 133.857389 379.326494 
L 134.454173 379.326494 
L 134.57353 378.298378 
L 135.170314 378.298378 
L 135.28967 377.270262 
L 135.886455 377.270262 
L 136.005811 376.242146 
L 137.19938 376.242146 
L 137.438093 374.185915 
L 138.154234 374.185915 
L 138.273591 373.157799 
L 138.751018 373.157799 
L 138.870375 372.129683 
L 140.302657 372.129683 
L 140.422014 371.101568 
L 140.54137 371.101568 
L 140.660727 370.073452 
L 141.018798 370.073452 
L 141.138155 369.045336 
L 142.570436 369.045336 
L 142.689793 368.01722 
L 144.838216 368.01722 
L 144.957573 366.989105 
L 146.509211 366.989105 
L 146.628568 365.960989 
L 147.225352 365.960989 
L 147.344709 364.932873 
L 147.941493 364.932873 
L 148.06085 363.904757 
L 148.657634 363.904757 
L 148.776991 362.876642 
L 150.089916 362.876642 
L 150.209273 361.848526 
L 152.357695 361.848526 
L 152.477052 360.82041 
L 153.073836 360.82041 
L 153.193193 359.792294 
L 153.551264 359.792294 
L 153.67062 358.764179 
L 154.625475 358.764179 
L 154.744832 357.736063 
L 155.341616 357.736063 
L 155.460973 356.707947 
L 156.057757 356.707947 
L 156.177114 355.679831 
L 156.773898 355.679831 
L 156.893255 354.651716 
L 157.490039 354.651716 
L 157.609395 353.6236 
L 158.20618 353.6236 
L 158.325536 352.595484 
L 159.041677 352.595484 
L 159.161034 351.567368 
L 159.877175 351.567368 
L 159.996532 350.539253 
L 162.025598 350.539253 
L 162.144955 349.511137 
L 162.741739 349.511137 
L 162.861095 348.483021 
L 164.17402 348.483021 
L 164.293377 347.454905 
L 164.651448 347.454905 
L 164.770805 346.42679 
L 164.890161 346.42679 
L 165.009518 345.398674 
L 167.038584 345.398674 
L 167.157941 344.370558 
L 167.874082 344.370558 
L 167.993439 343.342442 
L 170.738645 343.342442 
L 170.977359 341.286211 
L 171.574143 341.286211 
L 171.6935 340.258095 
L 172.409641 340.258095 
L 172.528998 339.229979 
L 173.125782 339.229979 
L 173.245139 338.201864 
L 173.841923 338.201864 
L 173.96128 337.173748 
L 175.393561 337.173748 
L 175.512918 336.145632 
L 176.9452 336.145632 
L 177.064557 335.117517 
L 177.30327 335.117517 
L 177.422627 334.089401 
L 178.258125 334.089401 
L 178.377482 333.061285 
L 178.974266 333.061285 
L 179.093623 332.033169 
L 179.690407 332.033169 
L 179.809764 331.005054 
L 180.406548 331.005054 
L 180.525905 329.976938 
L 180.645261 329.976938 
L 180.764618 328.948822 
L 180.883975 328.948822 
L 181.003332 327.920706 
L 181.122689 327.920706 
L 181.242045 326.892591 
L 181.600116 326.892591 
L 181.719473 325.864475 
L 182.674327 325.864475 
L 182.913041 323.808243 
L 183.390468 323.808243 
L 183.509825 322.780128 
L 184.225966 322.780128 
L 184.345323 321.752012 
L 185.777605 321.752012 
L 185.896961 320.723896 
L 186.493745 320.723896 
L 186.613102 319.69578 
L 186.851816 319.69578 
L 187.09053 317.639549 
L 188.045384 317.639549 
L 188.164741 316.611433 
L 189.477666 316.611433 
L 189.597023 315.583317 
L 190.193807 315.583317 
L 190.313164 314.555202 
L 191.506732 314.555202 
L 191.626089 313.527086 
L 192.939014 313.527086 
L 193.05837 312.49897 
L 195.922934 312.49897 
L 196.042291 311.470854 
L 196.639075 311.470854 
L 196.758432 310.442739 
L 197.355216 310.442739 
L 197.474573 309.414623 
L 200.339136 309.414623 
L 200.458493 308.386507 
L 200.697207 308.386507 
L 200.816564 306.330276 
L 201.055277 306.330276 
L 201.174634 305.30216 
L 201.771418 305.30216 
L 201.890775 304.274044 
L 203.681127 304.274044 
L 203.800484 303.245928 
L 205.352123 303.245928 
L 205.47148 302.217813 
L 206.18762 302.217813 
L 206.306977 301.189697 
L 208.694114 301.189697 
L 208.81347 300.161581 
L 210.126395 300.161581 
L 210.245752 299.133465 
L 210.72318 299.133465 
L 210.842536 298.10535 
L 212.752245 298.10535 
L 212.871602 297.077234 
L 213.468386 297.077234 
L 213.587743 296.049118 
L 217.168448 296.049118 
L 217.407161 293.992887 
L 218.720086 293.992887 
L 218.839443 292.964771 
L 220.987866 292.964771 
L 221.107223 291.936655 
L 227.552491 291.936655 
L 227.671848 290.90854 
L 227.910561 290.90854 
L 228.029918 289.880424 
L 228.626702 289.880424 
L 228.746059 288.852308 
L 229.342843 288.852308 
L 229.4622 287.824192 
L 229.700914 287.824192 
L 229.82027 286.796077 
L 230.775125 286.796077 
L 230.894482 285.767961 
L 231.491266 285.767961 
L 231.610623 284.739845 
L 232.207407 284.739845 
L 232.326764 283.711729 
L 232.923548 283.711729 
L 233.042905 282.683614 
L 233.878402 282.683614 
L 233.997759 281.655498 
L 234.952614 281.655498 
L 235.07197 280.627382 
L 235.668755 280.627382 
L 235.788111 279.599266 
L 237.220393 279.599266 
L 237.33975 278.571151 
L 237.936534 278.571151 
L 238.055891 277.543035 
L 238.652675 277.543035 
L 238.772032 276.514919 
L 239.488173 276.514919 
L 239.60753 275.486803 
L 240.204314 275.486803 
L 240.32367 274.458688 
L 241.875309 274.458688 
L 241.994666 273.430572 
L 244.023732 273.430572 
L 244.143089 272.402456 
L 244.739873 272.402456 
L 244.85923 271.37434 
L 245.57537 271.37434 
L 245.694727 270.346225 
L 247.723793 270.346225 
L 247.84315 269.318109 
L 248.559291 269.318109 
L 248.678648 268.289993 
L 249.275432 268.289993 
L 249.394789 267.261877 
L 249.872216 267.261877 
L 249.991573 266.233762 
L 250.11093 266.233762 
L 250.230286 265.205646 
L 250.82707 265.205646 
L 250.946427 264.17753 
L 251.781925 264.17753 
L 251.901282 263.149414 
L 252.617423 263.149414 
L 252.73678 262.121299 
L 253.45292 262.121299 
L 253.572277 261.093183 
L 254.049705 261.093183 
L 254.169061 260.065067 
L 254.765845 260.065067 
L 254.885202 259.036951 
L 257.152982 259.036951 
L 257.272339 258.008836 
L 259.182048 258.008836 
L 259.301405 256.98072 
L 259.420761 256.98072 
L 259.540118 255.952604 
L 260.853043 255.952604 
L 260.9724 253.896373 
L 262.285325 253.896373 
L 262.404682 252.868257 
L 263.24018 252.868257 
L 263.359536 251.840141 
L 264.075677 251.840141 
L 264.195034 250.812026 
L 265.507959 250.812026 
L 265.627316 249.78391 
L 266.2241 249.78391 
L 266.343457 248.755794 
L 266.820884 248.755794 
L 267.059598 246.699563 
L 268.253166 246.699563 
L 268.372523 245.671447 
L 269.566091 245.671447 
L 269.685448 244.643331 
L 270.282232 244.643331 
L 270.401589 243.615215 
L 271.83387 243.615215 
L 271.953227 242.5871 
L 273.862936 242.5871 
L 273.982293 241.558984 
L 275.295218 241.558984 
L 275.414575 240.530868 
L 276.011359 240.530868 
L 276.130716 239.502752 
L 276.7275 239.502752 
L 276.846857 238.474637 
L 276.966214 238.474637 
L 277.08557 237.446521 
L 277.682355 237.446521 
L 277.801711 236.418405 
L 278.040425 236.418405 
L 278.159782 235.390289 
L 278.756566 235.390289 
L 278.875923 234.362174 
L 279.472707 234.362174 
L 279.592064 233.334058 
L 280.188848 233.334058 
L 280.308205 232.305942 
L 283.769552 232.305942 
L 284.008266 230.249711 
L 284.485693 230.249711 
L 284.60505 229.221595 
L 285.440548 229.221595 
L 285.559905 228.193479 
L 286.156689 228.193479 
L 286.276045 227.165363 
L 286.634116 227.165363 
L 286.753473 226.137248 
L 286.87283 226.137248 
L 286.992186 225.109132 
L 287.350257 225.109132 
L 287.469614 224.081016 
L 287.58897 224.081016 
L 287.708327 223.0529 
L 288.305111 223.0529 
L 288.424468 222.024785 
L 289.021252 222.024785 
L 289.140609 220.996669 
L 289.85675 220.996669 
L 289.976107 219.968553 
L 290.811605 219.968553 
L 290.930961 218.940437 
L 291.527745 218.940437 
L 291.647102 217.912322 
L 292.4826 217.912322 
L 292.601957 216.884206 
L 293.079384 216.884206 
L 293.198741 215.85609 
L 296.898802 215.85609 
L 297.018159 214.827974 
L 297.7343 214.827974 
L 297.853657 213.799859 
L 297.973014 213.799859 
L 298.09237 212.771743 
L 298.450441 212.771743 
L 298.569798 211.743627 
L 302.269859 211.743627 
L 302.389216 210.715512 
L 302.747286 210.715512 
L 302.866643 209.687396 
L 304.776352 209.687396 
L 305.015066 207.631164 
L 305.492493 207.631164 
L 305.61185 206.603049 
L 306.327991 206.603049 
L 306.447348 204.546817 
L 307.282845 204.546817 
L 307.402202 203.518701 
L 308.118343 203.518701 
L 308.2377 202.490586 
L 309.669982 202.490586 
L 309.789339 201.46247 
L 310.386123 201.46247 
L 310.50548 200.434354 
L 310.86355 200.434354 
L 310.982907 199.406238 
L 313.13133 199.406238 
L 313.250686 198.378123 
L 313.84747 198.378123 
L 313.966827 197.350007 
L 314.563611 197.350007 
L 314.682968 196.321891 
L 315.279752 196.321891 
L 315.399109 195.293775 
L 316.11525 195.293775 
L 316.234607 194.26566 
L 316.831391 194.26566 
L 316.950748 193.237544 
L 317.666889 193.237544 
L 317.905602 191.181312 
L 318.38303 191.181312 
L 318.502386 189.125081 
L 319.218527 189.125081 
L 319.337884 188.096965 
L 319.695955 188.096965 
L 319.815311 187.068849 
L 321.00888 187.068849 
L 321.128236 186.040734 
L 322.679875 186.040734 
L 322.799232 185.012618 
L 323.037945 185.012618 
L 323.157302 183.984502 
L 324.231514 183.984502 
L 324.35087 182.956386 
L 324.947655 182.956386 
L 325.067011 181.928271 
L 327.573505 181.928271 
L 327.692861 180.900155 
L 328.170289 180.900155 
L 328.289645 179.872039 
L 329.483214 179.872039 
L 329.60257 178.843923 
L 331.154209 178.843923 
L 331.273566 177.815808 
L 331.51228 177.815808 
L 331.631636 176.787692 
L 332.22842 176.787692 
L 332.347777 175.759576 
L 333.899416 175.759576 
L 334.018773 174.73146 
L 335.331698 174.73146 
L 335.451055 173.703345 
L 335.570411 173.703345 
L 335.689768 172.675229 
L 336.405909 172.675229 
L 336.525266 171.647113 
L 337.241407 171.647113 
L 337.360764 170.618997 
L 337.957548 170.618997 
L 338.076905 169.590882 
L 338.912402 169.590882 
L 339.031759 168.562766 
L 341.060825 168.562766 
L 341.180182 167.53465 
L 341.299539 167.53465 
L 341.418895 166.506535 
L 342.01568 166.506535 
L 342.135036 165.478419 
L 342.73182 165.478419 
L 342.851177 164.450303 
L 343.567318 164.450303 
L 343.686675 163.422187 
L 344.760886 163.422187 
L 344.880243 162.394072 
L 345.835098 162.394072 
L 345.954455 161.365956 
L 346.312525 161.365956 
L 346.431882 160.33784 
L 346.551239 160.33784 
L 346.670595 159.309724 
L 347.26738 159.309724 
L 347.506093 157.253493 
L 348.102877 157.253493 
L 348.222234 156.225377 
L 349.654516 156.225377 
L 349.89323 154.169146 
L 351.802939 154.169146 
L 351.922295 153.14103 
L 352.51908 153.14103 
L 352.638436 152.112914 
L 356.457855 152.112914 
L 356.577211 151.084798 
L 357.173995 151.084798 
L 357.293352 150.056683 
L 357.651423 150.056683 
L 357.77078 149.028567 
L 358.009493 149.028567 
L 358.12885 148.000451 
L 358.844991 148.000451 
L 358.964348 146.972335 
L 359.561132 146.972335 
L 359.680489 144.916104 
L 360.39663 144.916104 
L 360.515986 143.887988 
L 360.993414 143.887988 
L 361.232127 141.831757 
L 361.828911 141.831757 
L 361.948268 140.803641 
L 362.664409 140.803641 
L 362.783766 139.775525 
L 364.096691 139.775525 
L 364.216048 138.747409 
L 364.454761 138.747409 
L 364.574118 137.719294 
L 367.080611 137.719294 
L 367.199968 136.691178 
L 367.319325 136.691178 
L 367.438682 135.663062 
L 367.796752 135.663062 
L 367.916109 134.634946 
L 368.512893 134.634946 
L 368.63225 133.606831 
L 371.019386 133.606831 
L 371.138743 132.578715 
L 371.735527 132.578715 
L 371.854884 131.550599 
L 372.451668 131.550599 
L 372.571025 130.522483 
L 373.167809 130.522483 
L 373.287166 128.466252 
L 373.88395 128.466252 
L 374.003307 127.438136 
L 375.913016 127.438136 
L 376.032373 126.410021 
L 376.629157 126.410021 
L 376.748514 125.381905 
L 376.86787 125.381905 
L 376.987227 124.353789 
L 377.345298 124.353789 
L 377.464655 123.325673 
L 378.77758 123.325673 
L 378.896936 122.297558 
L 379.016293 122.297558 
L 379.13565 121.269442 
L 379.613077 121.269442 
L 379.732434 120.241326 
L 380.567932 120.241326 
L 380.687289 119.21321 
L 382.11957 119.21321 
L 382.238927 118.185095 
L 383.551852 118.185095 
L 383.671209 117.156979 
L 384.02928 117.156979 
L 384.148636 116.128863 
L 384.38735 116.128863 
L 384.506707 115.100747 
L 384.864777 115.100747 
L 384.984134 114.072632 
L 385.103491 114.072632 
L 385.222848 113.044516 
L 385.580918 113.044516 
L 385.700275 112.0164 
L 387.251914 112.0164 
L 387.37127 110.988284 
L 389.99712 110.988284 
L 390.116477 109.960169 
L 390.713261 109.960169 
L 390.832618 108.932053 
L 391.548759 108.932053 
L 391.668116 107.903937 
L 391.90683 107.903937 
L 392.026186 106.875821 
L 392.384257 106.875821 
L 392.62297 104.81959 
L 394.771393 104.81959 
L 394.89075 103.791474 
L 395.010107 103.791474 
L 395.129464 102.763358 
L 395.726248 102.763358 
L 395.845605 101.735243 
L 396.442389 101.735243 
L 396.561745 100.707127 
L 397.15853 100.707127 
L 397.277886 99.679011 
L 397.87467 99.679011 
L 397.994027 98.650895 
L 399.187595 98.650895 
L 399.306952 97.62278 
L 399.903736 97.62278 
L 400.023093 96.594664 
L 401.216661 96.594664 
L 401.336018 95.566548 
L 404.319939 95.566548 
L 404.439295 94.538432 
L 409.213568 94.538432 
L 409.332925 93.510317 
L 412.197489 93.510317 
L 412.316845 92.482201 
L 413.749127 92.482201 
L 413.868484 91.454085 
L 413.987841 91.454085 
L 414.107198 90.425969 
L 420.671823 90.425969 
L 420.79118 89.397854 
L 421.984748 89.397854 
L 422.104105 88.369738 
L 423.894457 88.369738 
L 424.013814 87.341622 
L 425.923523 87.341622 
L 426.04288 86.313506 
L 426.75902 86.313506 
L 426.878377 85.285391 
L 427.594518 85.285391 
L 427.713875 84.257275 
L 428.310659 84.257275 
L 428.549373 82.201044 
L 429.146157 82.201044 
L 429.265514 81.172928 
L 429.742941 81.172928 
L 429.862298 80.144812 
L 430.817152 80.144812 
L 430.936509 79.116696 
L 431.055866 79.116696 
L 431.175223 78.088581 
L 431.29458 78.088581 
L 431.413936 77.060465 
L 432.368791 77.060465 
L 432.488148 76.032349 
L 433.084932 76.032349 
L 433.204289 73.976118 
L 433.801073 73.976118 
L 433.92043 72.948002 
L 434.397857 72.948002 
L 434.63657 70.89177 
L 435.233355 70.89177 
L 435.352711 69.863655 
L 435.830139 69.863655 
L 435.949495 68.835539 
L 436.068852 68.835539 
L 436.188209 67.807423 
L 438.455989 67.807423 
L 438.575345 66.779307 
L 439.17213 66.779307 
L 439.291486 65.751192 
L 439.88827 65.751192 
L 440.007627 64.723076 
L 440.604411 64.723076 
L 440.723768 63.69496 
L 442.752834 63.69496 
L 442.872191 62.666844 
L 448.123891 62.666844 
L 448.243248 61.638729 
L 461.253141 61.638729 
L 461.372498 60.610613 
L 462.566066 60.610613 
L 462.685423 59.582497 
L 463.759634 59.582497 
L 463.878991 58.554381 
L 470.443616 58.554381 
L 470.562973 57.526266 
L 471.995255 57.526266 
L 472.114611 56.49815 
L 477.605025 56.49815 
L 477.724382 55.470034 
L 478.321166 55.470034 
L 478.440523 54.441918 
L 485.124505 54.441918 
L 485.243861 53.413803 
L 485.960002 53.413803 
L 486.079359 52.385687 
L 491.331059 52.385687 
L 491.450416 51.357571 
L 492.0472 51.357571 
L 492.166557 50.329455 
L 494.195623 50.329455 
L 494.31498 49.30134 
L 495.985975 49.30134 
L 496.105332 48.273224 
L 498.492468 48.273224 
L 498.611825 47.245108 
L 504.221595 47.245108 
L 504.340952 46.216992 
L 508.995868 46.216992 
L 509.115225 45.188877 
L 509.712009 45.188877 
L 509.831366 44.160761 
L 510.42815 44.160761 
L 510.547507 43.132645 
L 513.650784 43.132645 
L 513.770141 42.10453 
L 515.202423 42.10453 
L 515.32178 41.076414 
L 516.754061 41.076414 
L 516.873418 40.048298 
L 518.186343 40.048298 
L 518.3057 39.020182 
L 522.005761 39.020182 
L 522.125118 37.992067 
L 524.273541 37.992067 
L 524.392898 36.963951 
L 528.212316 36.963951 
L 528.331673 35.935835 
L 530.480095 35.935835 
L 530.599452 34.907719 
L 548.144905 34.907719 
L 548.144905 34.907719 
" clip-path="url(#pc96c10c934)" style="fill: none; stroke: #ff800e; stroke-width: 2; stroke-linecap: square"/>
   </g>
   <g id="line2d_35">
    <path d="M 548.264261 437.929091 
L 540.267355 437.929091 
L 540.147998 436.386917 
L 513.770141 436.386917 
L 513.650784 434.844744 
L 510.42815 434.844744 
L 510.308793 433.30257 
L 484.050293 433.30257 
L 483.930936 431.760396 
L 460.417643 431.760396 
L 460.298286 430.218223 
L 459.582145 430.218223 
L 459.462789 428.676049 
L 403.12637 428.676049 
L 403.007014 427.133876 
L 356.577211 427.133876 
L 356.457855 425.591702 
L 344.64153 425.591702 
L 344.522173 424.049528 
L 341.060825 424.049528 
L 340.941468 422.507355 
L 340.10597 422.507355 
L 339.986614 420.965181 
L 335.809125 420.965181 
L 335.689768 419.423008 
L 282.814698 419.423008 
L 282.695341 417.880834 
L 279.830777 417.880834 
L 279.71142 414.796487 
L 276.608143 414.796487 
L 276.488786 413.254313 
L 272.908082 413.254313 
L 272.788725 411.712139 
L 272.191941 411.712139 
L 272.072584 410.169966 
L 265.627316 410.169966 
L 265.507959 408.627792 
L 263.836964 408.627792 
L 263.717607 407.085619 
L 262.404682 407.085619 
L 262.285325 405.543445 
L 240.920455 405.543445 
L 240.801098 404.001271 
L 239.010745 404.001271 
L 238.891389 402.459098 
L 187.567957 402.459098 
L 187.4486 400.916924 
L 182.793684 400.916924 
L 182.674327 399.374751 
L 181.958186 399.374751 
L 181.83883 397.832577 
L 180.287191 397.832577 
L 180.167834 396.290403 
L 175.990345 396.290403 
L 175.870989 394.74823 
L 174.31935 394.74823 
L 174.199993 393.206056 
L 164.890161 393.206056 
L 164.770805 391.663882 
L 134.454173 391.663882 
L 134.334816 390.121709 
L 133.618675 390.121709 
L 133.499318 388.579535 
L 132.66382 388.579535 
L 132.544464 387.037362 
L 131.828323 387.037362 
L 131.708966 385.495188 
L 130.276684 385.495188 
L 130.157327 383.953014 
L 122.876561 383.953014 
L 122.757205 382.410841 
L 122.041064 382.410841 
L 121.921707 380.868667 
L 121.086209 380.868667 
L 120.966852 379.326494 
L 120.250711 379.326494 
L 120.131355 377.78432 
L 118.460359 377.78432 
L 118.341002 376.242146 
L 117.624861 376.242146 
L 117.505505 374.699973 
L 111.537664 374.699973 
L 111.418307 373.157799 
L 110.702166 373.157799 
L 110.582809 371.615625 
L 109.866668 371.615625 
L 109.747311 370.073452 
L 92.798643 370.073452 
L 92.679286 368.531278 
L 87.427586 368.531278 
L 87.30823 366.989105 
L 76.685473 366.989105 
L 76.566116 365.446931 
L 70.956345 365.446931 
L 70.956345 365.446931 
" clip-path="url(#pc96c10c934)" style="fill: none; stroke-dasharray: 7.4,3.2; stroke-dashoffset: 0; stroke: #006ba4; stroke-width: 2"/>
   </g>
   <g id="line2d_36">
    <path d="M 548.264261 437.929091 
L 540.267355 437.929091 
L 540.147998 436.386917 
L 529.405884 436.386917 
L 529.286527 434.844744 
L 513.770141 434.844744 
L 513.650784 433.30257 
L 510.42815 433.30257 
L 510.308793 431.760396 
L 500.640891 431.760396 
L 500.521534 430.218223 
L 487.15357 430.218223 
L 487.034214 428.676049 
L 486.43743 428.676049 
L 486.318073 427.133876 
L 485.721289 427.133876 
L 485.601932 425.591702 
L 484.050293 425.591702 
L 483.930936 424.049528 
L 481.066373 424.049528 
L 480.947016 422.507355 
L 479.634091 422.507355 
L 479.514734 420.965181 
L 478.201809 420.965181 
L 478.082452 419.423008 
L 473.069466 419.423008 
L 472.950109 417.880834 
L 470.204902 417.880834 
L 470.085545 416.33866 
L 469.488761 416.33866 
L 469.369405 414.796487 
L 468.05648 414.796487 
L 467.937123 413.254313 
L 460.417643 413.254313 
L 460.298286 411.712139 
L 459.582145 411.712139 
L 459.462789 410.169966 
L 458.746648 410.169966 
L 458.627291 408.627792 
L 457.195009 408.627792 
L 457.075652 407.085619 
L 438.933416 407.085619 
L 438.814059 405.543445 
L 430.339725 405.543445 
L 430.220368 404.001271 
L 426.281593 404.001271 
L 426.162236 402.459098 
L 422.939602 402.459098 
L 422.820245 400.916924 
L 413.987841 400.916924 
L 413.868484 399.374751 
L 405.75222 399.374751 
L 405.632864 397.832577 
L 404.439295 397.832577 
L 404.319939 396.290403 
L 403.12637 396.290403 
L 403.007014 394.74823 
L 393.100398 394.74823 
L 392.981041 393.206056 
L 389.63905 393.206056 
L 389.519693 391.663882 
L 387.490627 391.663882 
L 387.37127 390.121709 
L 382.596998 390.121709 
L 382.477641 388.579535 
L 377.942082 388.579535 
L 377.822725 387.037362 
L 368.393536 387.037362 
L 368.27418 385.495188 
L 363.261193 385.495188 
L 363.141836 383.953014 
L 362.545052 383.953014 
L 362.425695 382.410841 
L 360.993414 382.410841 
L 360.874057 380.868667 
L 360.515986 380.868667 
L 360.39663 379.326494 
L 359.680489 379.326494 
L 359.561132 377.78432 
L 359.441775 377.78432 
L 359.322418 376.242146 
L 356.577211 376.242146 
L 356.457855 374.699973 
L 353.354577 374.699973 
L 353.23522 373.157799 
L 352.51908 373.157799 
L 352.399723 371.615625 
L 350.848084 371.615625 
L 350.728727 370.073452 
L 346.312525 370.073452 
L 346.193168 368.531278 
L 344.64153 368.531278 
L 344.522173 366.989105 
L 342.254393 366.989105 
L 342.135036 365.446931 
L 341.060825 365.446931 
L 340.941468 363.904757 
L 340.10597 363.904757 
L 339.986614 362.362584 
L 335.809125 362.362584 
L 335.689768 360.82041 
L 333.421989 360.82041 
L 333.302632 359.278237 
L 332.705848 359.278237 
L 332.586491 357.736063 
L 330.557425 357.736063 
L 330.438068 356.193889 
L 329.841284 356.193889 
L 329.721927 354.651716 
L 325.425082 354.651716 
L 325.305725 353.109542 
L 323.9928 353.109542 
L 323.873443 351.567368 
L 321.605664 351.567368 
L 321.486307 350.025195 
L 320.770166 350.025195 
L 320.650809 348.483021 
L 314.921682 348.483021 
L 314.802325 346.940848 
L 310.386123 346.940848 
L 310.266766 345.398674 
L 308.118343 345.398674 
L 307.998986 343.8565 
L 305.25378 343.8565 
L 305.134423 342.314327 
L 294.153595 342.314327 
L 294.034239 340.772153 
L 293.198741 340.772153 
L 293.079384 339.229979 
L 290.572891 339.229979 
L 290.453534 337.687806 
L 288.066398 337.687806 
L 287.947041 336.145632 
L 287.708327 336.145632 
L 287.58897 334.603459 
L 286.276045 334.603459 
L 286.156689 333.061285 
L 285.201834 333.061285 
L 285.082477 331.519111 
L 282.814698 331.519111 
L 282.695341 329.976938 
L 281.382416 329.976938 
L 281.263059 328.434764 
L 279.830777 328.434764 
L 279.71142 325.350417 
L 278.398495 325.350417 
L 278.279139 323.808243 
L 276.608143 323.808243 
L 276.488786 322.26607 
L 272.908082 322.26607 
L 272.788725 320.723896 
L 272.191941 320.723896 
L 272.072584 319.181722 
L 268.730593 319.181722 
L 268.611236 317.639549 
L 268.014452 317.639549 
L 267.895095 316.097375 
L 267.298311 316.097375 
L 267.178955 314.555202 
L 265.627316 314.555202 
L 265.507959 313.013028 
L 263.836964 313.013028 
L 263.717607 311.470854 
L 262.404682 311.470854 
L 262.285325 309.928681 
L 260.375616 309.928681 
L 260.256259 308.386507 
L 259.540118 308.386507 
L 259.420761 306.844334 
L 258.943334 306.844334 
L 258.823977 305.30216 
L 258.107836 305.30216 
L 257.98848 303.759986 
L 255.36263 303.759986 
L 255.243273 302.217813 
L 253.810991 302.217813 
L 253.691634 300.675639 
L 253.09485 300.675639 
L 252.975493 299.133465 
L 250.946427 299.133465 
L 250.82707 297.591292 
L 250.230286 297.591292 
L 250.11093 296.049118 
L 249.514145 296.049118 
L 249.394789 294.506945 
L 247.962507 294.506945 
L 247.84315 292.964771 
L 247.365723 292.964771 
L 247.127009 289.880424 
L 245.694727 289.880424 
L 245.57537 288.33825 
L 244.978586 288.33825 
L 244.85923 286.796077 
L 244.501159 286.796077 
L 244.381802 285.253903 
L 244.262445 285.253903 
L 244.143089 283.711729 
L 242.114023 283.711729 
L 241.994666 282.169556 
L 241.636595 282.169556 
L 241.517239 280.627382 
L 240.920455 280.627382 
L 240.801098 279.085208 
L 240.681741 279.085208 
L 240.562384 277.543035 
L 239.9656 277.543035 
L 239.846243 276.000861 
L 239.249459 276.000861 
L 239.130102 274.458688 
L 239.010745 274.458688 
L 238.891389 272.916514 
L 238.413961 272.916514 
L 238.294605 271.37434 
L 237.69782 271.37434 
L 237.578464 269.832167 
L 235.788111 269.832167 
L 235.668755 268.289993 
L 235.549398 268.289993 
L 235.430041 266.74782 
L 234.35583 266.74782 
L 234.236473 265.205646 
L 234.117116 265.205646 
L 233.997759 263.663472 
L 233.400975 263.663472 
L 233.281618 262.121299 
L 232.804191 262.121299 
L 232.684834 260.579125 
L 230.297698 260.579125 
L 230.178341 259.036951 
L 227.075064 259.036951 
L 226.955707 257.494778 
L 223.733073 257.494778 
L 223.494359 254.410431 
L 222.897575 254.410431 
L 222.658861 251.326083 
L 221.465293 251.326083 
L 221.345936 249.78391 
L 220.033011 249.78391 
L 219.913655 248.241736 
L 219.197514 248.241736 
L 219.078157 246.699563 
L 218.481373 246.699563 
L 218.362016 245.157389 
L 216.094236 245.157389 
L 215.97488 243.615215 
L 215.020025 243.615215 
L 214.900668 242.073042 
L 212.632889 242.073042 
L 212.513532 240.530868 
L 211.916748 240.530868 
L 211.797391 238.988694 
L 210.365109 238.988694 
L 210.245752 237.446521 
L 208.216686 237.446521 
L 208.09733 235.904347 
L 206.665048 235.904347 
L 206.545691 234.362174 
L 205.710193 234.362174 
L 205.590836 232.82 
L 204.994052 232.82 
L 204.874695 231.277826 
L 204.277911 231.277826 
L 204.158555 229.735653 
L 203.442414 229.735653 
L 203.323057 228.193479 
L 202.248845 228.193479 
L 202.129489 226.651306 
L 200.816564 226.651306 
L 200.697207 225.109132 
L 197.952 225.109132 
L 197.832643 223.566958 
L 197.235859 223.566958 
L 197.116502 222.024785 
L 196.400361 222.024785 
L 196.281005 220.482611 
L 194.848723 220.482611 
L 194.729366 218.940437 
L 193.535798 218.940437 
L 193.416441 217.398264 
L 192.819657 217.398264 
L 192.7003 215.85609 
L 192.461586 215.85609 
L 192.34223 214.313917 
L 192.103516 214.313917 
L 191.984159 212.771743 
L 191.387375 212.771743 
L 191.268018 211.229569 
L 191.029305 211.229569 
L 190.909948 209.687396 
L 188.642168 209.687396 
L 188.522811 208.145222 
L 188.284098 208.145222 
L 188.164741 206.603049 
L 187.567957 206.603049 
L 187.4486 205.060875 
L 185.896961 205.060875 
L 185.777605 203.518701 
L 185.538891 203.518701 
L 185.419534 201.976528 
L 185.061464 201.976528 
L 184.942107 200.434354 
L 184.345323 200.434354 
L 184.225966 198.89218 
L 183.629182 198.89218 
L 183.509825 197.350007 
L 182.913041 197.350007 
L 182.674327 194.26566 
L 182.077543 194.26566 
L 181.83883 191.181312 
L 181.361402 191.181312 
L 181.242045 189.639139 
L 180.287191 189.639139 
L 180.167834 188.096965 
L 177.780698 188.096965 
L 177.661341 186.554792 
L 176.9452 186.554792 
L 176.825843 185.012618 
L 175.990345 185.012618 
L 175.870989 183.470444 
L 175.393561 183.470444 
L 175.274205 181.928271 
L 174.31935 181.928271 
L 174.199993 180.386097 
L 172.767711 180.386097 
L 172.648355 178.843923 
L 172.05157 178.843923 
L 171.932214 177.30175 
L 171.812857 177.30175 
L 171.6935 175.759576 
L 170.619289 175.759576 
L 170.499932 174.217403 
L 169.903148 174.217403 
L 169.664434 171.133055 
L 169.187007 171.133055 
L 168.948293 168.048708 
L 168.351509 168.048708 
L 168.232152 164.964361 
L 166.322443 164.964361 
L 166.203086 163.422187 
L 166.08373 163.422187 
L 165.964373 161.880014 
L 165.606302 161.880014 
L 165.486945 160.33784 
L 165.367589 160.33784 
L 165.248232 158.795666 
L 164.890161 158.795666 
L 164.770805 157.253493 
L 164.651448 157.253493 
L 164.532091 155.711319 
L 162.980452 155.711319 
L 162.861095 154.169146 
L 162.264311 154.169146 
L 162.144955 152.626972 
L 161.54817 152.626972 
L 161.428814 151.084798 
L 160.951386 151.084798 
L 160.83203 149.542625 
L 160.712673 149.542625 
L 160.593316 148.000451 
L 159.996532 148.000451 
L 159.877175 146.458278 
L 159.399748 146.458278 
L 159.280391 144.916104 
L 158.683607 144.916104 
L 158.444893 141.831757 
L 157.131968 141.831757 
L 157.012611 140.289583 
L 155.58033 140.289583 
L 155.460973 138.747409 
L 154.864189 138.747409 
L 154.744832 137.205236 
L 154.267405 137.205236 
L 154.148048 135.663062 
L 153.551264 135.663062 
L 153.431907 134.120889 
L 153.31255 134.120889 
L 153.193193 132.578715 
L 151.999625 132.578715 
L 151.880268 131.036541 
L 147.464066 131.036541 
L 147.344709 129.494368 
L 145.912427 129.494368 
L 145.79307 127.952194 
L 145.07693 127.952194 
L 144.957573 126.410021 
L 143.525291 126.410021 
L 143.405934 124.867847 
L 139.944586 124.867847 
L 139.82523 123.325673 
L 139.109089 123.325673 
L 138.989732 121.7835 
L 138.870375 121.7835 
L 138.751018 120.241326 
L 138.034877 120.241326 
L 137.91552 118.699152 
L 134.454173 118.699152 
L 134.334816 117.156979 
L 134.215459 117.156979 
L 134.096102 115.614805 
L 133.618675 115.614805 
L 133.379961 112.530458 
L 132.66382 112.530458 
L 132.544464 109.446111 
L 131.94768 109.446111 
L 131.708966 106.361763 
L 131.112182 106.361763 
L 130.992825 104.81959 
L 130.276684 104.81959 
L 130.157327 103.277416 
L 126.576623 103.277416 
L 126.457266 101.735243 
L 124.4282 101.735243 
L 124.308843 100.193069 
L 122.876561 100.193069 
L 122.757205 98.650895 
L 122.041064 98.650895 
L 121.921707 97.108722 
L 121.563636 97.108722 
L 121.44428 95.566548 
L 121.086209 95.566548 
L 120.966852 94.024375 
L 120.250711 94.024375 
L 120.131355 92.482201 
L 118.460359 92.482201 
L 118.341002 90.940027 
L 117.624861 90.940027 
L 117.505505 89.397854 
L 115.953866 89.397854 
L 115.834509 87.85568 
L 114.402227 87.85568 
L 114.28287 86.313506 
L 113.686086 86.313506 
L 113.56673 84.771333 
L 112.969945 84.771333 
L 112.850589 83.229159 
L 112.253805 83.229159 
L 112.134448 81.686986 
L 112.015091 81.686986 
L 111.895734 80.144812 
L 111.537664 80.144812 
L 111.418307 78.602638 
L 110.702166 78.602638 
L 110.582809 77.060465 
L 110.463452 77.060465 
L 110.344095 75.518291 
L 109.866668 75.518291 
L 109.747311 73.976118 
L 108.31503 73.976118 
L 108.195673 70.89177 
L 106.285964 70.89177 
L 106.166607 69.349597 
L 105.450466 69.349597 
L 105.211752 66.265249 
L 104.614968 66.265249 
L 104.495611 64.723076 
L 103.898827 64.723076 
L 103.77947 63.180902 
L 103.06333 63.180902 
L 102.943973 61.638729 
L 102.227832 61.638729 
L 102.108475 60.096555 
L 101.631048 60.096555 
L 101.511691 58.554381 
L 100.79555 58.554381 
L 100.676193 57.012208 
L 99.960052 57.012208 
L 99.840695 55.470034 
L 99.363268 55.470034 
L 99.243911 53.927861 
L 97.930986 53.927861 
L 97.81163 52.385687 
L 97.572916 52.385687 
L 97.453559 50.843513 
L 97.214845 50.843513 
L 97.095489 49.30134 
L 96.021277 49.30134 
L 95.90192 47.759166 
L 95.066423 47.759166 
L 94.947066 46.216992 
L 93.514784 46.216992 
L 93.395427 44.674819 
L 92.798643 44.674819 
L 92.679286 43.132645 
L 88.979225 43.132645 
L 88.859868 41.590472 
L 87.427586 41.590472 
L 87.30823 40.048298 
L 85.517877 40.048298 
L 85.39852 38.506124 
L 79.072609 38.506124 
L 78.953252 36.963951 
L 77.640327 36.963951 
L 77.52097 35.421777 
L 76.924186 35.421777 
L 76.80483 33.879604 
L 76.685473 33.879604 
L 76.566116 32.33743 
L 76.208045 32.33743 
L 76.088689 30.795256 
L 75.849975 30.795256 
L 75.730618 29.253083 
L 75.133834 29.253083 
L 75.014477 27.710909 
L 70.956345 27.710909 
L 70.956345 27.710909 
" clip-path="url(#pc96c10c934)" style="fill: none; stroke-dasharray: 7.4,3.2; stroke-dashoffset: 0; stroke: #ff800e; stroke-width: 2"/>
   </g>
   <g id="patch_3">
    <path d="M 46.965625 458.44 
L 46.965625 7.2 
" style="fill: none; stroke: #000000; stroke-width: 0.8; stroke-linejoin: miter; stroke-linecap: square"/>
   </g>
   <g id="patch_4">
    <path d="M 572.135625 458.44 
L 572.135625 7.2 
" style="fill: none; stroke: #000000; stroke-width: 0.8; stroke-linejoin: miter; stroke-linecap: square"/>
   </g>
   <g id="patch_5">
    <path d="M 46.965625 458.44 
L 572.135625 458.44 
" style="fill: none; stroke: #000000; stroke-width: 0.8; stroke-linejoin: miter; stroke-linecap: square"/>
   </g>
   <g id="patch_6">
    <path d="M 46.965625 7.2 
L 572.135625 7.2 
" style="fill: none; stroke: #000000; stroke-width: 0.8; stroke-linejoin: miter; stroke-linecap: square"/>
   </g>
   <g id="legend_1">
    <g id="patch_7">
     <path d="M 579.135625 88.590625 
L 703.01375 88.590625 
Q 705.01375 88.590625 705.01375 86.590625 
L 705.01375 14.2 
Q 705.01375 12.2 703.01375 12.2 
L 579.135625 12.2 
Q 577.135625 12.2 577.135625 14.2 
L 577.135625 86.590625 
Q 577.135625 88.590625 579.135625 88.590625 
z
" style="fill: #ffffff; opacity: 0.8; stroke: #cccccc; stroke-linejoin: miter"/>
    </g>
    <g id="text_19">
     <!-- Motifs &amp; orientation -->
     <g transform="translate(591.559062 23.798438) scale(0.1 -0.1)">
      <defs>
       <path id="DejaVuSans-4d" d="M 628 4666 
L 1569 4666 
L 2759 1491 
L 3956 4666 
L 4897 4666 
L 4897 0 
L 4281 0 
L 4281 4097 
L 3078 897 
L 2444 897 
L 1241 4097 
L 1241 0 
L 628 0 
L 628 4666 
z
" transform="scale(0.015625)"/>
       <path id="DejaVuSans-26" d="M 1556 2509 
Q 1272 2256 1139 2004 
Q 1006 1753 1006 1478 
Q 1006 1022 1337 719 
Q 1669 416 2169 416 
Q 2466 416 2725 514 
Q 2984 613 3213 813 
L 1556 2509 
z
M 1997 2859 
L 3584 1234 
Q 3769 1513 3872 1830 
Q 3975 2147 3994 2503 
L 4575 2503 
Q 4538 2091 4375 1687 
Q 4213 1284 3922 891 
L 4794 0 
L 4006 0 
L 3559 459 
Q 3234 181 2878 45 
Q 2522 -91 2113 -91 
Q 1359 -91 881 339 
Q 403 769 403 1441 
Q 403 1841 612 2192 
Q 822 2544 1241 2853 
Q 1091 3050 1012 3245 
Q 934 3441 934 3628 
Q 934 4134 1281 4442 
Q 1628 4750 2203 4750 
Q 2463 4750 2720 4694 
Q 2978 4638 3244 4525 
L 3244 3956 
Q 2972 4103 2725 4179 
Q 2478 4256 2266 4256 
Q 1938 4256 1733 4082 
Q 1528 3909 1528 3634 
Q 1528 3475 1620 3314 
Q 1713 3153 1997 2859 
z
" transform="scale(0.015625)"/>
      </defs>
      <use xlink:href="#DejaVuSans-4d"/>
      <use xlink:href="#DejaVuSans-6f" transform="translate(86.279297 0)"/>
      <use xlink:href="#DejaVuSans-74" transform="translate(147.460938 0)"/>
      <use xlink:href="#DejaVuSans-69" transform="translate(186.669922 0)"/>
      <use xlink:href="#DejaVuSans-66" transform="translate(214.453125 0)"/>
      <use xlink:href="#DejaVuSans-73" transform="translate(249.658203 0)"/>
      <use xlink:href="#DejaVuSans-20" transform="translate(301.757812 0)"/>
      <use xlink:href="#DejaVuSans-26" transform="translate(333.544922 0)"/>
      <use xlink:href="#DejaVuSans-20" transform="translate(411.523438 0)"/>
      <use xlink:href="#DejaVuSans-6f" transform="translate(443.310547 0)"/>
      <use xlink:href="#DejaVuSans-72" transform="translate(504.492188 0)"/>
      <use xlink:href="#DejaVuSans-69" transform="translate(545.605469 0)"/>
      <use xlink:href="#DejaVuSans-65" transform="translate(573.388672 0)"/>
      <use xlink:href="#DejaVuSans-6e" transform="translate(634.912109 0)"/>
      <use xlink:href="#DejaVuSans-74" transform="translate(698.291016 0)"/>
      <use xlink:href="#DejaVuSans-61" transform="translate(737.5 0)"/>
      <use xlink:href="#DejaVuSans-74" transform="translate(798.779297 0)"/>
      <use xlink:href="#DejaVuSans-69" transform="translate(837.988281 0)"/>
      <use xlink:href="#DejaVuSans-6f" transform="translate(865.771484 0)"/>
      <use xlink:href="#DejaVuSans-6e" transform="translate(926.953125 0)"/>
     </g>
    </g>
    <g id="line2d_37">
     <path d="M 581.135625 34.976563 
L 591.135625 34.976563 
L 601.135625 34.976563 
" style="fill: none; stroke: #006ba4; stroke-width: 2; stroke-linecap: square"/>
    </g>
    <g id="text_20">
     <!-- CCCGAAA (5' end) -->
     <g transform="translate(609.135625 38.476563) scale(0.1 -0.1)">
      <defs>
       <path id="DejaVuSans-43" d="M 4122 4306 
L 4122 3641 
Q 3803 3938 3442 4084 
Q 3081 4231 2675 4231 
Q 1875 4231 1450 3742 
Q 1025 3253 1025 2328 
Q 1025 1406 1450 917 
Q 1875 428 2675 428 
Q 3081 428 3442 575 
Q 3803 722 4122 1019 
L 4122 359 
Q 3791 134 3420 21 
Q 3050 -91 2638 -91 
Q 1578 -91 968 557 
Q 359 1206 359 2328 
Q 359 3453 968 4101 
Q 1578 4750 2638 4750 
Q 3056 4750 3426 4639 
Q 3797 4528 4122 4306 
z
" transform="scale(0.015625)"/>
       <path id="DejaVuSans-47" d="M 3809 666 
L 3809 1919 
L 2778 1919 
L 2778 2438 
L 4434 2438 
L 4434 434 
Q 4069 175 3628 42 
Q 3188 -91 2688 -91 
Q 1594 -91 976 548 
Q 359 1188 359 2328 
Q 359 3472 976 4111 
Q 1594 4750 2688 4750 
Q 3144 4750 3555 4637 
Q 3966 4525 4313 4306 
L 4313 3634 
Q 3963 3931 3569 4081 
Q 3175 4231 2741 4231 
Q 1884 4231 1454 3753 
Q 1025 3275 1025 2328 
Q 1025 1384 1454 906 
Q 1884 428 2741 428 
Q 3075 428 3337 486 
Q 3600 544 3809 666 
z
" transform="scale(0.015625)"/>
       <path id="DejaVuSans-28" d="M 1984 4856 
Q 1566 4138 1362 3434 
Q 1159 2731 1159 2009 
Q 1159 1288 1364 580 
Q 1569 -128 1984 -844 
L 1484 -844 
Q 1016 -109 783 600 
Q 550 1309 550 2009 
Q 550 2706 781 3412 
Q 1013 4119 1484 4856 
L 1984 4856 
z
" transform="scale(0.015625)"/>
       <path id="DejaVuSans-27" d="M 1147 4666 
L 1147 2931 
L 616 2931 
L 616 4666 
L 1147 4666 
z
" transform="scale(0.015625)"/>
       <path id="DejaVuSans-64" d="M 2906 2969 
L 2906 4863 
L 3481 4863 
L 3481 0 
L 2906 0 
L 2906 525 
Q 2725 213 2448 61 
Q 2172 -91 1784 -91 
Q 1150 -91 751 415 
Q 353 922 353 1747 
Q 353 2572 751 3078 
Q 1150 3584 1784 3584 
Q 2172 3584 2448 3432 
Q 2725 3281 2906 2969 
z
M 947 1747 
Q 947 1113 1208 752 
Q 1469 391 1925 391 
Q 2381 391 2643 752 
Q 2906 1113 2906 1747 
Q 2906 2381 2643 2742 
Q 2381 3103 1925 3103 
Q 1469 3103 1208 2742 
Q 947 2381 947 1747 
z
" transform="scale(0.015625)"/>
       <path id="DejaVuSans-29" d="M 513 4856 
L 1013 4856 
Q 1481 4119 1714 3412 
Q 1947 2706 1947 2009 
Q 1947 1309 1714 600 
Q 1481 -109 1013 -844 
L 513 -844 
Q 928 -128 1133 580 
Q 1338 1288 1338 2009 
Q 1338 2731 1133 3434 
Q 928 4138 513 4856 
z
" transform="scale(0.015625)"/>
      </defs>
      <use xlink:href="#DejaVuSans-43"/>
      <use xlink:href="#DejaVuSans-43" transform="translate(69.824219 0)"/>
      <use xlink:href="#DejaVuSans-43" transform="translate(139.648438 0)"/>
      <use xlink:href="#DejaVuSans-47" transform="translate(209.472656 0)"/>
      <use xlink:href="#DejaVuSans-41" transform="translate(286.962891 0)"/>
      <use xlink:href="#DejaVuSans-41" transform="translate(358.121094 0)"/>
      <use xlink:href="#DejaVuSans-41" transform="translate(429.279297 0)"/>
      <use xlink:href="#DejaVuSans-20" transform="translate(497.6875 0)"/>
      <use xlink:href="#DejaVuSans-28" transform="translate(529.474609 0)"/>
      <use xlink:href="#DejaVuSans-35" transform="translate(568.488281 0)"/>
      <use xlink:href="#DejaVuSans-27" transform="translate(632.111328 0)"/>
      <use xlink:href="#DejaVuSans-20" transform="translate(659.601562 0)"/>
      <use xlink:href="#DejaVuSans-65" transform="translate(691.388672 0)"/>
      <use xlink:href="#DejaVuSans-6e" transform="translate(752.912109 0)"/>
      <use xlink:href="#DejaVuSans-64" transform="translate(816.291016 0)"/>
      <use xlink:href="#DejaVuSans-29" transform="translate(879.767578 0)"/>
     </g>
    </g>
    <g id="line2d_38">
     <path d="M 581.135625 49.654688 
L 591.135625 49.654688 
L 601.135625 49.654688 
" style="fill: none; stroke: #ff800e; stroke-width: 2; stroke-linecap: square"/>
    </g>
    <g id="text_21">
     <!-- CCGAAA (5' end) -->
     <g transform="translate(609.135625 53.154688) scale(0.1 -0.1)">
      <use xlink:href="#DejaVuSans-43"/>
      <use xlink:href="#DejaVuSans-43" transform="translate(69.824219 0)"/>
      <use xlink:href="#DejaVuSans-47" transform="translate(139.648438 0)"/>
      <use xlink:href="#DejaVuSans-41" transform="translate(217.138672 0)"/>
      <use xlink:href="#DejaVuSans-41" transform="translate(288.296875 0)"/>
      <use xlink:href="#DejaVuSans-41" transform="translate(359.455078 0)"/>
      <use xlink:href="#DejaVuSans-20" transform="translate(427.863281 0)"/>
      <use xlink:href="#DejaVuSans-28" transform="translate(459.650391 0)"/>
      <use xlink:href="#DejaVuSans-35" transform="translate(498.664062 0)"/>
      <use xlink:href="#DejaVuSans-27" transform="translate(562.287109 0)"/>
      <use xlink:href="#DejaVuSans-20" transform="translate(589.777344 0)"/>
      <use xlink:href="#DejaVuSans-65" transform="translate(621.564453 0)"/>
      <use xlink:href="#DejaVuSans-6e" transform="translate(683.087891 0)"/>
      <use xlink:href="#DejaVuSans-64" transform="translate(746.466797 0)"/>
      <use xlink:href="#DejaVuSans-29" transform="translate(809.943359 0)"/>
     </g>
    </g>
    <g id="line2d_39">
     <path d="M 581.135625 64.332813 
L 591.135625 64.332813 
L 601.135625 64.332813 
" style="fill: none; stroke-dasharray: 7.4,3.2; stroke-dashoffset: 0; stroke: #006ba4; stroke-width: 2"/>
    </g>
    <g id="text_22">
     <!-- TTTCGGG (3' end) -->
     <g transform="translate(609.135625 67.832813) scale(0.1 -0.1)">
      <defs>
       <path id="DejaVuSans-54" d="M -19 4666 
L 3928 4666 
L 3928 4134 
L 2272 4134 
L 2272 0 
L 1638 0 
L 1638 4134 
L -19 4134 
L -19 4666 
z
" transform="scale(0.015625)"/>
      </defs>
      <use xlink:href="#DejaVuSans-54"/>
      <use xlink:href="#DejaVuSans-54" transform="translate(59.333984 0)"/>
      <use xlink:href="#DejaVuSans-54" transform="translate(118.667969 0)"/>
      <use xlink:href="#DejaVuSans-43" transform="translate(173.876953 0)"/>
      <use xlink:href="#DejaVuSans-47" transform="translate(243.701172 0)"/>
      <use xlink:href="#DejaVuSans-47" transform="translate(321.191406 0)"/>
      <use xlink:href="#DejaVuSans-47" transform="translate(398.681641 0)"/>
      <use xlink:href="#DejaVuSans-20" transform="translate(476.171875 0)"/>
      <use xlink:href="#DejaVuSans-28" transform="translate(507.958984 0)"/>
      <use xlink:href="#DejaVuSans-33" transform="translate(546.972656 0)"/>
      <use xlink:href="#DejaVuSans-27" transform="translate(610.595703 0)"/>
      <use xlink:href="#DejaVuSans-20" transform="translate(638.085938 0)"/>
      <use xlink:href="#DejaVuSans-65" transform="translate(669.873047 0)"/>
      <use xlink:href="#DejaVuSans-6e" transform="translate(731.396484 0)"/>
      <use xlink:href="#DejaVuSans-64" transform="translate(794.775391 0)"/>
      <use xlink:href="#DejaVuSans-29" transform="translate(858.251953 0)"/>
     </g>
    </g>
    <g id="line2d_40">
     <path d="M 581.135625 79.010938 
L 591.135625 79.010938 
L 601.135625 79.010938 
" style="fill: none; stroke-dasharray: 7.4,3.2; stroke-dashoffset: 0; stroke: #ff800e; stroke-width: 2"/>
    </g>
    <g id="text_23">
     <!-- TTTCGG (3' end) -->
     <g transform="translate(609.135625 82.510938) scale(0.1 -0.1)">
      <use xlink:href="#DejaVuSans-54"/>
      <use xlink:href="#DejaVuSans-54" transform="translate(59.333984 0)"/>
      <use xlink:href="#DejaVuSans-54" transform="translate(118.667969 0)"/>
      <use xlink:href="#DejaVuSans-43" transform="translate(173.876953 0)"/>
      <use xlink:href="#DejaVuSans-47" transform="translate(243.701172 0)"/>
      <use xlink:href="#DejaVuSans-47" transform="translate(321.191406 0)"/>
      <use xlink:href="#DejaVuSans-20" transform="translate(398.681641 0)"/>
      <use xlink:href="#DejaVuSans-28" transform="translate(430.46875 0)"/>
      <use xlink:href="#DejaVuSans-33" transform="translate(469.482422 0)"/>
      <use xlink:href="#DejaVuSans-27" transform="translate(533.105469 0)"/>
      <use xlink:href="#DejaVuSans-20" transform="translate(560.595703 0)"/>
      <use xlink:href="#DejaVuSans-65" transform="translate(592.382812 0)"/>
      <use xlink:href="#DejaVuSans-6e" transform="translate(653.90625 0)"/>
      <use xlink:href="#DejaVuSans-64" transform="translate(717.285156 0)"/>
      <use xlink:href="#DejaVuSans-29" transform="translate(780.761719 0)"/>
     </g>
    </g>
   </g>
  </g>
 </g>
 <defs>
  <clipPath id="pc96c10c934">
   <rect x="46.965625" y="7.2" width="525.17" height="451.24"/>
  </clipPath>
 </defs>
</svg>
