<?xml version="1.0" encoding="utf-8" standalone="no"?>
<!DOCTYPE svg PUBLIC "-//W3C//DTD SVG 1.1//EN"
  "http://www.w3.org/Graphics/SVG/1.1/DTD/svg11.dtd">
<svg xmlns:xlink="http://www.w3.org/1999/xlink" width="568.24125pt" height="423.99625pt" viewBox="0 0 568.24125 423.99625" xmlns="http://www.w3.org/2000/svg" version="1.1">
 <metadata>
  <rdf:RDF xmlns:dc="http://purl.org/dc/elements/1.1/" xmlns:cc="http://creativecommons.org/ns#" xmlns:rdf="http://www.w3.org/1999/02/22-rdf-syntax-ns#">
   <cc:Work>
    <dc:type rdf:resource="http://purl.org/dc/dcmitype/StillImage"/>
    <dc:date>2026-04-30T15:30:55.537850</dc:date>
    <dc:format>image/svg+xml</dc:format>
    <dc:creator>
     <cc:Agent>
      <dc:title>Matplotlib v3.10.6, https://matplotlib.org/</dc:title>
     </cc:Agent>
    </dc:creator>
   </cc:Work>
  </rdf:RDF>
 </metadata>
 <defs>
  <style type="text/css">*{stroke-linejoin: round; stroke-linecap: butt}</style>
 </defs>
 <g id="figure_1">
  <g id="patch_1">
   <path d="M 0 423.99625 
L 568.24125 423.99625 
L 568.24125 0 
L 0 0 
z
" style="fill: #ffffff"/>
  </g>
  <g id="axes_1">
   <g id="patch_2">
    <path d="M 40.603125 386.44 
L 428.163125 386.44 
L 428.163125 7.2 
L 40.603125 7.2 
z
" style="fill: #ffffff"/>
   </g>
   <g id="matplotlib.axis_1">
    <g id="xtick_1">
     <g id="line2d_1">
      <path d="M 58.219489 386.44 
L 58.219489 7.2 
" clip-path="url(#p1108a25373)" style="fill: none; stroke-dasharray: 2.96,1.28; stroke-dashoffset: 0; stroke: #b0b0b0; stroke-opacity: 0.6; stroke-width: 0.8"/>
     </g>
     <g id="line2d_2">
      <defs>
       <path id="m11da573391" d="M 0 0 
L 0 3.5 
" style="stroke: #000000; stroke-width: 0.8"/>
      </defs>
      <g>
       <use xlink:href="#m11da573391" x="58.219489" y="386.44" style="stroke: #000000; stroke-width: 0.8"/>
      </g>
     </g>
     <g id="text_1">
      <!-- 0 -->
      <g transform="translate(55.038239 401.038437) scale(0.1 -0.1)">
       <defs>
        <path id="DejaVuSans-30" d="M 2034 4250 
Q 1547 4250 1301 3770 
Q 1056 3291 1056 2328 
Q 1056 1369 1301 889 
Q 1547 409 2034 409 
Q 2525 409 2770 889 
Q 3016 1369 3016 2328 
Q 3016 3291 2770 3770 
Q 2525 4250 2034 4250 
z
M 2034 4750 
Q 2819 4750 3233 4129 
Q 3647 3509 3647 2328 
Q 3647 1150 3233 529 
Q 2819 -91 2034 -91 
Q 1250 -91 836 529 
Q 422 1150 422 2328 
Q 422 3509 836 4129 
Q 1250 4750 2034 4750 
z
" transform="scale(0.015625)"/>
       </defs>
       <use xlink:href="#DejaVuSans-30"/>
      </g>
     </g>
    </g>
    <g id="xtick_2">
     <g id="line2d_3">
      <path d="M 102.260398 386.44 
L 102.260398 7.2 
" clip-path="url(#p1108a25373)" style="fill: none; stroke-dasharray: 2.96,1.28; stroke-dashoffset: 0; stroke: #b0b0b0; stroke-opacity: 0.6; stroke-width: 0.8"/>
     </g>
     <g id="line2d_4">
      <g>
       <use xlink:href="#m11da573391" x="102.260398" y="386.44" style="stroke: #000000; stroke-width: 0.8"/>
      </g>
     </g>
     <g id="text_2">
      <!-- 1000 -->
      <g transform="translate(89.535398 401.038437) scale(0.1 -0.1)">
       <defs>
        <path id="DejaVuSans-31" d="M 794 531 
L 1825 531 
L 1825 4091 
L 703 3866 
L 703 4441 
L 1819 4666 
L 2450 4666 
L 2450 531 
L 3481 531 
L 3481 0 
L 794 0 
L 794 531 
z
" transform="scale(0.015625)"/>
       </defs>
       <use xlink:href="#DejaVuSans-31"/>
       <use xlink:href="#DejaVuSans-30" transform="translate(63.623047 0)"/>
       <use xlink:href="#DejaVuSans-30" transform="translate(127.246094 0)"/>
       <use xlink:href="#DejaVuSans-30" transform="translate(190.869141 0)"/>
      </g>
     </g>
    </g>
    <g id="xtick_3">
     <g id="line2d_5">
      <path d="M 146.301307 386.44 
L 146.301307 7.2 
" clip-path="url(#p1108a25373)" style="fill: none; stroke-dasharray: 2.96,1.28; stroke-dashoffset: 0; stroke: #b0b0b0; stroke-opacity: 0.6; stroke-width: 0.8"/>
     </g>
     <g id="line2d_6">
      <g>
       <use xlink:href="#m11da573391" x="146.301307" y="386.44" style="stroke: #000000; stroke-width: 0.8"/>
      </g>
     </g>
     <g id="text_3">
      <!-- 2000 -->
      <g transform="translate(133.576307 401.038437) scale(0.1 -0.1)">
       <defs>
        <path id="DejaVuSans-32" d="M 1228 531 
L 3431 531 
L 3431 0 
L 469 0 
L 469 531 
Q 828 903 1448 1529 
Q 2069 2156 2228 2338 
Q 2531 2678 2651 2914 
Q 2772 3150 2772 3378 
Q 2772 3750 2511 3984 
Q 2250 4219 1831 4219 
Q 1534 4219 1204 4116 
Q 875 4013 500 3803 
L 500 4441 
Q 881 4594 1212 4672 
Q 1544 4750 1819 4750 
Q 2544 4750 2975 4387 
Q 3406 4025 3406 3419 
Q 3406 3131 3298 2873 
Q 3191 2616 2906 2266 
Q 2828 2175 2409 1742 
Q 1991 1309 1228 531 
z
" transform="scale(0.015625)"/>
       </defs>
       <use xlink:href="#DejaVuSans-32"/>
       <use xlink:href="#DejaVuSans-30" transform="translate(63.623047 0)"/>
       <use xlink:href="#DejaVuSans-30" transform="translate(127.246094 0)"/>
       <use xlink:href="#DejaVuSans-30" transform="translate(190.869141 0)"/>
      </g>
     </g>
    </g>
    <g id="xtick_4">
     <g id="line2d_7">
      <path d="M 190.342216 386.44 
L 190.342216 7.2 
" clip-path="url(#p1108a25373)" style="fill: none; stroke-dasharray: 2.96,1.28; stroke-dashoffset: 0; stroke: #b0b0b0; stroke-opacity: 0.6; stroke-width: 0.8"/>
     </g>
     <g id="line2d_8">
      <g>
       <use xlink:href="#m11da573391" x="190.342216" y="386.44" style="stroke: #000000; stroke-width: 0.8"/>
      </g>
     </g>
     <g id="text_4">
      <!-- 3000 -->
      <g transform="translate(177.617216 401.038437) scale(0.1 -0.1)">
       <defs>
        <path id="DejaVuSans-33" d="M 2597 2516 
Q 3050 2419 3304 2112 
Q 3559 1806 3559 1356 
Q 3559 666 3084 287 
Q 2609 -91 1734 -91 
Q 1441 -91 1130 -33 
Q 819 25 488 141 
L 488 750 
Q 750 597 1062 519 
Q 1375 441 1716 441 
Q 2309 441 2620 675 
Q 2931 909 2931 1356 
Q 2931 1769 2642 2001 
Q 2353 2234 1838 2234 
L 1294 2234 
L 1294 2753 
L 1863 2753 
Q 2328 2753 2575 2939 
Q 2822 3125 2822 3475 
Q 2822 3834 2567 4026 
Q 2313 4219 1838 4219 
Q 1578 4219 1281 4162 
Q 984 4106 628 3988 
L 628 4550 
Q 988 4650 1302 4700 
Q 1616 4750 1894 4750 
Q 2613 4750 3031 4423 
Q 3450 4097 3450 3541 
Q 3450 3153 3228 2886 
Q 3006 2619 2597 2516 
z
" transform="scale(0.015625)"/>
       </defs>
       <use xlink:href="#DejaVuSans-33"/>
       <use xlink:href="#DejaVuSans-30" transform="translate(63.623047 0)"/>
       <use xlink:href="#DejaVuSans-30" transform="translate(127.246094 0)"/>
       <use xlink:href="#DejaVuSans-30" transform="translate(190.869141 0)"/>
      </g>
     </g>
    </g>
    <g id="xtick_5">
     <g id="line2d_9">
      <path d="M 234.383125 386.44 
L 234.383125 7.2 
" clip-path="url(#p1108a25373)" style="fill: none; stroke-dasharray: 2.96,1.28; stroke-dashoffset: 0; stroke: #b0b0b0; stroke-opacity: 0.6; stroke-width: 0.8"/>
     </g>
     <g id="line2d_10">
      <g>
       <use xlink:href="#m11da573391" x="234.383125" y="386.44" style="stroke: #000000; stroke-width: 0.8"/>
      </g>
     </g>
     <g id="text_5">
      <!-- 4000 -->
      <g transform="translate(221.658125 401.038437) scale(0.1 -0.1)">
       <defs>
        <path id="DejaVuSans-34" d="M 2419 4116 
L 825 1625 
L 2419 1625 
L 2419 4116 
z
M 2253 4666 
L 3047 4666 
L 3047 1625 
L 3713 1625 
L 3713 1100 
L 3047 1100 
L 3047 0 
L 2419 0 
L 2419 1100 
L 313 1100 
L 313 1709 
L 2253 4666 
z
" transform="scale(0.015625)"/>
       </defs>
       <use xlink:href="#DejaVuSans-34"/>
       <use xlink:href="#DejaVuSans-30" transform="translate(63.623047 0)"/>
       <use xlink:href="#DejaVuSans-30" transform="translate(127.246094 0)"/>
       <use xlink:href="#DejaVuSans-30" transform="translate(190.869141 0)"/>
      </g>
     </g>
    </g>
    <g id="xtick_6">
     <g id="line2d_11">
      <path d="M 278.424034 386.44 
L 278.424034 7.2 
" clip-path="url(#p1108a25373)" style="fill: none; stroke-dasharray: 2.96,1.28; stroke-dashoffset: 0; stroke: #b0b0b0; stroke-opacity: 0.6; stroke-width: 0.8"/>
     </g>
     <g id="line2d_12">
      <g>
       <use xlink:href="#m11da573391" x="278.424034" y="386.44" style="stroke: #000000; stroke-width: 0.8"/>
      </g>
     </g>
     <g id="text_6">
      <!-- 5000 -->
      <g transform="translate(265.699034 401.038437) scale(0.1 -0.1)">
       <defs>
        <path id="DejaVuSans-35" d="M 691 4666 
L 3169 4666 
L 3169 4134 
L 1269 4134 
L 1269 2991 
Q 1406 3038 1543 3061 
Q 1681 3084 1819 3084 
Q 2600 3084 3056 2656 
Q 3513 2228 3513 1497 
Q 3513 744 3044 326 
Q 2575 -91 1722 -91 
Q 1428 -91 1123 -41 
Q 819 9 494 109 
L 494 744 
Q 775 591 1075 516 
Q 1375 441 1709 441 
Q 2250 441 2565 725 
Q 2881 1009 2881 1497 
Q 2881 1984 2565 2268 
Q 2250 2553 1709 2553 
Q 1456 2553 1204 2497 
Q 953 2441 691 2322 
L 691 4666 
z
" transform="scale(0.015625)"/>
       </defs>
       <use xlink:href="#DejaVuSans-35"/>
       <use xlink:href="#DejaVuSans-30" transform="translate(63.623047 0)"/>
       <use xlink:href="#DejaVuSans-30" transform="translate(127.246094 0)"/>
       <use xlink:href="#DejaVuSans-30" transform="translate(190.869141 0)"/>
      </g>
     </g>
    </g>
    <g id="xtick_7">
     <g id="line2d_13">
      <path d="M 322.464943 386.44 
L 322.464943 7.2 
" clip-path="url(#p1108a25373)" style="fill: none; stroke-dasharray: 2.96,1.28; stroke-dashoffset: 0; stroke: #b0b0b0; stroke-opacity: 0.6; stroke-width: 0.8"/>
     </g>
     <g id="line2d_14">
      <g>
       <use xlink:href="#m11da573391" x="322.464943" y="386.44" style="stroke: #000000; stroke-width: 0.8"/>
      </g>
     </g>
     <g id="text_7">
      <!-- 6000 -->
      <g transform="translate(309.739943 401.038437) scale(0.1 -0.1)">
       <defs>
        <path id="DejaVuSans-36" d="M 2113 2584 
Q 1688 2584 1439 2293 
Q 1191 2003 1191 1497 
Q 1191 994 1439 701 
Q 1688 409 2113 409 
Q 2538 409 2786 701 
Q 3034 994 3034 1497 
Q 3034 2003 2786 2293 
Q 2538 2584 2113 2584 
z
M 3366 4563 
L 3366 3988 
Q 3128 4100 2886 4159 
Q 2644 4219 2406 4219 
Q 1781 4219 1451 3797 
Q 1122 3375 1075 2522 
Q 1259 2794 1537 2939 
Q 1816 3084 2150 3084 
Q 2853 3084 3261 2657 
Q 3669 2231 3669 1497 
Q 3669 778 3244 343 
Q 2819 -91 2113 -91 
Q 1303 -91 875 529 
Q 447 1150 447 2328 
Q 447 3434 972 4092 
Q 1497 4750 2381 4750 
Q 2619 4750 2861 4703 
Q 3103 4656 3366 4563 
z
" transform="scale(0.015625)"/>
       </defs>
       <use xlink:href="#DejaVuSans-36"/>
       <use xlink:href="#DejaVuSans-30" transform="translate(63.623047 0)"/>
       <use xlink:href="#DejaVuSans-30" transform="translate(127.246094 0)"/>
       <use xlink:href="#DejaVuSans-30" transform="translate(190.869141 0)"/>
      </g>
     </g>
    </g>
    <g id="xtick_8">
     <g id="line2d_15">
      <path d="M 366.505852 386.44 
L 366.505852 7.2 
" clip-path="url(#p1108a25373)" style="fill: none; stroke-dasharray: 2.96,1.28; stroke-dashoffset: 0; stroke: #b0b0b0; stroke-opacity: 0.6; stroke-width: 0.8"/>
     </g>
     <g id="line2d_16">
      <g>
       <use xlink:href="#m11da573391" x="366.505852" y="386.44" style="stroke: #000000; stroke-width: 0.8"/>
      </g>
     </g>
     <g id="text_8">
      <!-- 7000 -->
      <g transform="translate(353.780852 401.038437) scale(0.1 -0.1)">
       <defs>
        <path id="DejaVuSans-37" d="M 525 4666 
L 3525 4666 
L 3525 4397 
L 1831 0 
L 1172 0 
L 2766 4134 
L 525 4134 
L 525 4666 
z
" transform="scale(0.015625)"/>
       </defs>
       <use xlink:href="#DejaVuSans-37"/>
       <use xlink:href="#DejaVuSans-30" transform="translate(63.623047 0)"/>
       <use xlink:href="#DejaVuSans-30" transform="translate(127.246094 0)"/>
       <use xlink:href="#DejaVuSans-30" transform="translate(190.869141 0)"/>
      </g>
     </g>
    </g>
    <g id="xtick_9">
     <g id="line2d_17">
      <path d="M 410.546761 386.44 
L 410.546761 7.2 
" clip-path="url(#p1108a25373)" style="fill: none; stroke-dasharray: 2.96,1.28; stroke-dashoffset: 0; stroke: #b0b0b0; stroke-opacity: 0.6; stroke-width: 0.8"/>
     </g>
     <g id="line2d_18">
      <g>
       <use xlink:href="#m11da573391" x="410.546761" y="386.44" style="stroke: #000000; stroke-width: 0.8"/>
      </g>
     </g>
     <g id="text_9">
      <!-- 8000 -->
      <g transform="translate(397.821761 401.038437) scale(0.1 -0.1)">
       <defs>
        <path id="DejaVuSans-38" d="M 2034 2216 
Q 1584 2216 1326 1975 
Q 1069 1734 1069 1313 
Q 1069 891 1326 650 
Q 1584 409 2034 409 
Q 2484 409 2743 651 
Q 3003 894 3003 1313 
Q 3003 1734 2745 1975 
Q 2488 2216 2034 2216 
z
M 1403 2484 
Q 997 2584 770 2862 
Q 544 3141 544 3541 
Q 544 4100 942 4425 
Q 1341 4750 2034 4750 
Q 2731 4750 3128 4425 
Q 3525 4100 3525 3541 
Q 3525 3141 3298 2862 
Q 3072 2584 2669 2484 
Q 3125 2378 3379 2068 
Q 3634 1759 3634 1313 
Q 3634 634 3220 271 
Q 2806 -91 2034 -91 
Q 1263 -91 848 271 
Q 434 634 434 1313 
Q 434 1759 690 2068 
Q 947 2378 1403 2484 
z
M 1172 3481 
Q 1172 3119 1398 2916 
Q 1625 2713 2034 2713 
Q 2441 2713 2670 2916 
Q 2900 3119 2900 3481 
Q 2900 3844 2670 4047 
Q 2441 4250 2034 4250 
Q 1625 4250 1398 4047 
Q 1172 3844 1172 3481 
z
" transform="scale(0.015625)"/>
       </defs>
       <use xlink:href="#DejaVuSans-38"/>
       <use xlink:href="#DejaVuSans-30" transform="translate(63.623047 0)"/>
       <use xlink:href="#DejaVuSans-30" transform="translate(127.246094 0)"/>
       <use xlink:href="#DejaVuSans-30" transform="translate(190.869141 0)"/>
      </g>
     </g>
    </g>
    <g id="text_10">
     <!-- Distance from terminus [nt] -->
     <g transform="translate(164.883906 414.716562) scale(0.1 -0.1)">
      <defs>
       <path id="DejaVuSans-44" d="M 1259 4147 
L 1259 519 
L 2022 519 
Q 2988 519 3436 956 
Q 3884 1394 3884 2338 
Q 3884 3275 3436 3711 
Q 2988 4147 2022 4147 
L 1259 4147 
z
M 628 4666 
L 1925 4666 
Q 3281 4666 3915 4102 
Q 4550 3538 4550 2338 
Q 4550 1131 3912 565 
Q 3275 0 1925 0 
L 628 0 
L 628 4666 
z
" transform="scale(0.015625)"/>
       <path id="DejaVuSans-69" d="M 603 3500 
L 1178 3500 
L 1178 0 
L 603 0 
L 603 3500 
z
M 603 4863 
L 1178 4863 
L 1178 4134 
L 603 4134 
L 603 4863 
z
" transform="scale(0.015625)"/>
       <path id="DejaVuSans-73" d="M 2834 3397 
L 2834 2853 
Q 2591 2978 2328 3040 
Q 2066 3103 1784 3103 
Q 1356 3103 1142 2972 
Q 928 2841 928 2578 
Q 928 2378 1081 2264 
Q 1234 2150 1697 2047 
L 1894 2003 
Q 2506 1872 2764 1633 
Q 3022 1394 3022 966 
Q 3022 478 2636 193 
Q 2250 -91 1575 -91 
Q 1294 -91 989 -36 
Q 684 19 347 128 
L 347 722 
Q 666 556 975 473 
Q 1284 391 1588 391 
Q 1994 391 2212 530 
Q 2431 669 2431 922 
Q 2431 1156 2273 1281 
Q 2116 1406 1581 1522 
L 1381 1569 
Q 847 1681 609 1914 
Q 372 2147 372 2553 
Q 372 3047 722 3315 
Q 1072 3584 1716 3584 
Q 2034 3584 2315 3537 
Q 2597 3491 2834 3397 
z
" transform="scale(0.015625)"/>
       <path id="DejaVuSans-74" d="M 1172 4494 
L 1172 3500 
L 2356 3500 
L 2356 3053 
L 1172 3053 
L 1172 1153 
Q 1172 725 1289 603 
Q 1406 481 1766 481 
L 2356 481 
L 2356 0 
L 1766 0 
Q 1100 0 847 248 
Q 594 497 594 1153 
L 594 3053 
L 172 3053 
L 172 3500 
L 594 3500 
L 594 4494 
L 1172 4494 
z
" transform="scale(0.015625)"/>
       <path id="DejaVuSans-61" d="M 2194 1759 
Q 1497 1759 1228 1600 
Q 959 1441 959 1056 
Q 959 750 1161 570 
Q 1363 391 1709 391 
Q 2188 391 2477 730 
Q 2766 1069 2766 1631 
L 2766 1759 
L 2194 1759 
z
M 3341 1997 
L 3341 0 
L 2766 0 
L 2766 531 
Q 2569 213 2275 61 
Q 1981 -91 1556 -91 
Q 1019 -91 701 211 
Q 384 513 384 1019 
Q 384 1609 779 1909 
Q 1175 2209 1959 2209 
L 2766 2209 
L 2766 2266 
Q 2766 2663 2505 2880 
Q 2244 3097 1772 3097 
Q 1472 3097 1187 3025 
Q 903 2953 641 2809 
L 641 3341 
Q 956 3463 1253 3523 
Q 1550 3584 1831 3584 
Q 2591 3584 2966 3190 
Q 3341 2797 3341 1997 
z
" transform="scale(0.015625)"/>
       <path id="DejaVuSans-6e" d="M 3513 2113 
L 3513 0 
L 2938 0 
L 2938 2094 
Q 2938 2591 2744 2837 
Q 2550 3084 2163 3084 
Q 1697 3084 1428 2787 
Q 1159 2491 1159 1978 
L 1159 0 
L 581 0 
L 581 3500 
L 1159 3500 
L 1159 2956 
Q 1366 3272 1645 3428 
Q 1925 3584 2291 3584 
Q 2894 3584 3203 3211 
Q 3513 2838 3513 2113 
z
" transform="scale(0.015625)"/>
       <path id="DejaVuSans-63" d="M 3122 3366 
L 3122 2828 
Q 2878 2963 2633 3030 
Q 2388 3097 2138 3097 
Q 1578 3097 1268 2742 
Q 959 2388 959 1747 
Q 959 1106 1268 751 
Q 1578 397 2138 397 
Q 2388 397 2633 464 
Q 2878 531 3122 666 
L 3122 134 
Q 2881 22 2623 -34 
Q 2366 -91 2075 -91 
Q 1284 -91 818 406 
Q 353 903 353 1747 
Q 353 2603 823 3093 
Q 1294 3584 2113 3584 
Q 2378 3584 2631 3529 
Q 2884 3475 3122 3366 
z
" transform="scale(0.015625)"/>
       <path id="DejaVuSans-65" d="M 3597 1894 
L 3597 1613 
L 953 1613 
Q 991 1019 1311 708 
Q 1631 397 2203 397 
Q 2534 397 2845 478 
Q 3156 559 3463 722 
L 3463 178 
Q 3153 47 2828 -22 
Q 2503 -91 2169 -91 
Q 1331 -91 842 396 
Q 353 884 353 1716 
Q 353 2575 817 3079 
Q 1281 3584 2069 3584 
Q 2775 3584 3186 3129 
Q 3597 2675 3597 1894 
z
M 3022 2063 
Q 3016 2534 2758 2815 
Q 2500 3097 2075 3097 
Q 1594 3097 1305 2825 
Q 1016 2553 972 2059 
L 3022 2063 
z
" transform="scale(0.015625)"/>
       <path id="DejaVuSans-20" transform="scale(0.015625)"/>
       <path id="DejaVuSans-66" d="M 2375 4863 
L 2375 4384 
L 1825 4384 
Q 1516 4384 1395 4259 
Q 1275 4134 1275 3809 
L 1275 3500 
L 2222 3500 
L 2222 3053 
L 1275 3053 
L 1275 0 
L 697 0 
L 697 3053 
L 147 3053 
L 147 3500 
L 697 3500 
L 697 3744 
Q 697 4328 969 4595 
Q 1241 4863 1831 4863 
L 2375 4863 
z
" transform="scale(0.015625)"/>
       <path id="DejaVuSans-72" d="M 2631 2963 
Q 2534 3019 2420 3045 
Q 2306 3072 2169 3072 
Q 1681 3072 1420 2755 
Q 1159 2438 1159 1844 
L 1159 0 
L 581 0 
L 581 3500 
L 1159 3500 
L 1159 2956 
Q 1341 3275 1631 3429 
Q 1922 3584 2338 3584 
Q 2397 3584 2469 3576 
Q 2541 3569 2628 3553 
L 2631 2963 
z
" transform="scale(0.015625)"/>
       <path id="DejaVuSans-6f" d="M 1959 3097 
Q 1497 3097 1228 2736 
Q 959 2375 959 1747 
Q 959 1119 1226 758 
Q 1494 397 1959 397 
Q 2419 397 2687 759 
Q 2956 1122 2956 1747 
Q 2956 2369 2687 2733 
Q 2419 3097 1959 3097 
z
M 1959 3584 
Q 2709 3584 3137 3096 
Q 3566 2609 3566 1747 
Q 3566 888 3137 398 
Q 2709 -91 1959 -91 
Q 1206 -91 779 398 
Q 353 888 353 1747 
Q 353 2609 779 3096 
Q 1206 3584 1959 3584 
z
" transform="scale(0.015625)"/>
       <path id="DejaVuSans-6d" d="M 3328 2828 
Q 3544 3216 3844 3400 
Q 4144 3584 4550 3584 
Q 5097 3584 5394 3201 
Q 5691 2819 5691 2113 
L 5691 0 
L 5113 0 
L 5113 2094 
Q 5113 2597 4934 2840 
Q 4756 3084 4391 3084 
Q 3944 3084 3684 2787 
Q 3425 2491 3425 1978 
L 3425 0 
L 2847 0 
L 2847 2094 
Q 2847 2600 2669 2842 
Q 2491 3084 2119 3084 
Q 1678 3084 1418 2786 
Q 1159 2488 1159 1978 
L 1159 0 
L 581 0 
L 581 3500 
L 1159 3500 
L 1159 2956 
Q 1356 3278 1631 3431 
Q 1906 3584 2284 3584 
Q 2666 3584 2933 3390 
Q 3200 3197 3328 2828 
z
" transform="scale(0.015625)"/>
       <path id="DejaVuSans-75" d="M 544 1381 
L 544 3500 
L 1119 3500 
L 1119 1403 
Q 1119 906 1312 657 
Q 1506 409 1894 409 
Q 2359 409 2629 706 
Q 2900 1003 2900 1516 
L 2900 3500 
L 3475 3500 
L 3475 0 
L 2900 0 
L 2900 538 
Q 2691 219 2414 64 
Q 2138 -91 1772 -91 
Q 1169 -91 856 284 
Q 544 659 544 1381 
z
M 1991 3584 
L 1991 3584 
z
" transform="scale(0.015625)"/>
       <path id="DejaVuSans-5b" d="M 550 4863 
L 1875 4863 
L 1875 4416 
L 1125 4416 
L 1125 -397 
L 1875 -397 
L 1875 -844 
L 550 -844 
L 550 4863 
z
" transform="scale(0.015625)"/>
       <path id="DejaVuSans-5d" d="M 1947 4863 
L 1947 -844 
L 622 -844 
L 622 -397 
L 1369 -397 
L 1369 4416 
L 622 4416 
L 622 4863 
L 1947 4863 
z
" transform="scale(0.015625)"/>
      </defs>
      <use xlink:href="#DejaVuSans-44"/>
      <use xlink:href="#DejaVuSans-69" transform="translate(77.001953 0)"/>
      <use xlink:href="#DejaVuSans-73" transform="translate(104.785156 0)"/>
      <use xlink:href="#DejaVuSans-74" transform="translate(156.884766 0)"/>
      <use xlink:href="#DejaVuSans-61" transform="translate(196.09375 0)"/>
      <use xlink:href="#DejaVuSans-6e" transform="translate(257.373047 0)"/>
      <use xlink:href="#DejaVuSans-63" transform="translate(320.751953 0)"/>
      <use xlink:href="#DejaVuSans-65" transform="translate(375.732422 0)"/>
      <use xlink:href="#DejaVuSans-20" transform="translate(437.255859 0)"/>
      <use xlink:href="#DejaVuSans-66" transform="translate(469.042969 0)"/>
      <use xlink:href="#DejaVuSans-72" transform="translate(504.248047 0)"/>
      <use xlink:href="#DejaVuSans-6f" transform="translate(543.111328 0)"/>
      <use xlink:href="#DejaVuSans-6d" transform="translate(604.292969 0)"/>
      <use xlink:href="#DejaVuSans-20" transform="translate(701.705078 0)"/>
      <use xlink:href="#DejaVuSans-74" transform="translate(733.492188 0)"/>
      <use xlink:href="#DejaVuSans-65" transform="translate(772.701172 0)"/>
      <use xlink:href="#DejaVuSans-72" transform="translate(834.224609 0)"/>
      <use xlink:href="#DejaVuSans-6d" transform="translate(873.587891 0)"/>
      <use xlink:href="#DejaVuSans-69" transform="translate(971 0)"/>
      <use xlink:href="#DejaVuSans-6e" transform="translate(998.783203 0)"/>
      <use xlink:href="#DejaVuSans-75" transform="translate(1062.162109 0)"/>
      <use xlink:href="#DejaVuSans-73" transform="translate(1125.541016 0)"/>
      <use xlink:href="#DejaVuSans-20" transform="translate(1177.640625 0)"/>
      <use xlink:href="#DejaVuSans-5b" transform="translate(1209.427734 0)"/>
      <use xlink:href="#DejaVuSans-6e" transform="translate(1248.441406 0)"/>
      <use xlink:href="#DejaVuSans-74" transform="translate(1311.820312 0)"/>
      <use xlink:href="#DejaVuSans-5d" transform="translate(1351.029297 0)"/>
     </g>
    </g>
   </g>
   <g id="matplotlib.axis_2">
    <g id="ytick_1">
     <g id="line2d_19">
      <path d="M 40.603125 369.201818 
L 428.163125 369.201818 
" clip-path="url(#p1108a25373)" style="fill: none; stroke-dasharray: 2.96,1.28; stroke-dashoffset: 0; stroke: #b0b0b0; stroke-opacity: 0.6; stroke-width: 0.8"/>
     </g>
     <g id="line2d_20">
      <defs>
       <path id="md32b8089ed" d="M 0 0 
L -3.5 0 
" style="stroke: #000000; stroke-width: 0.8"/>
      </defs>
      <g>
       <use xlink:href="#md32b8089ed" x="40.603125" y="369.201818" style="stroke: #000000; stroke-width: 0.8"/>
      </g>
     </g>
     <g id="text_11">
      <!-- 0 -->
      <g transform="translate(27.240625 373.001037) scale(0.1 -0.1)">
       <use xlink:href="#DejaVuSans-30"/>
      </g>
     </g>
    </g>
    <g id="ytick_2">
     <g id="line2d_21">
      <path d="M 40.603125 289.487683 
L 428.163125 289.487683 
" clip-path="url(#p1108a25373)" style="fill: none; stroke-dasharray: 2.96,1.28; stroke-dashoffset: 0; stroke: #b0b0b0; stroke-opacity: 0.6; stroke-width: 0.8"/>
     </g>
     <g id="line2d_22">
      <g>
       <use xlink:href="#md32b8089ed" x="40.603125" y="289.487683" style="stroke: #000000; stroke-width: 0.8"/>
      </g>
     </g>
     <g id="text_12">
      <!-- 20 -->
      <g transform="translate(20.878125 293.286901) scale(0.1 -0.1)">
       <use xlink:href="#DejaVuSans-32"/>
       <use xlink:href="#DejaVuSans-30" transform="translate(63.623047 0)"/>
      </g>
     </g>
    </g>
    <g id="ytick_3">
     <g id="line2d_23">
      <path d="M 40.603125 209.773547 
L 428.163125 209.773547 
" clip-path="url(#p1108a25373)" style="fill: none; stroke-dasharray: 2.96,1.28; stroke-dashoffset: 0; stroke: #b0b0b0; stroke-opacity: 0.6; stroke-width: 0.8"/>
     </g>
     <g id="line2d_24">
      <g>
       <use xlink:href="#md32b8089ed" x="40.603125" y="209.773547" style="stroke: #000000; stroke-width: 0.8"/>
      </g>
     </g>
     <g id="text_13">
      <!-- 40 -->
      <g transform="translate(20.878125 213.572766) scale(0.1 -0.1)">
       <use xlink:href="#DejaVuSans-34"/>
       <use xlink:href="#DejaVuSans-30" transform="translate(63.623047 0)"/>
      </g>
     </g>
    </g>
    <g id="ytick_4">
     <g id="line2d_25">
      <path d="M 40.603125 130.059411 
L 428.163125 130.059411 
" clip-path="url(#p1108a25373)" style="fill: none; stroke-dasharray: 2.96,1.28; stroke-dashoffset: 0; stroke: #b0b0b0; stroke-opacity: 0.6; stroke-width: 0.8"/>
     </g>
     <g id="line2d_26">
      <g>
       <use xlink:href="#md32b8089ed" x="40.603125" y="130.059411" style="stroke: #000000; stroke-width: 0.8"/>
      </g>
     </g>
     <g id="text_14">
      <!-- 60 -->
      <g transform="translate(20.878125 133.85863) scale(0.1 -0.1)">
       <use xlink:href="#DejaVuSans-36"/>
       <use xlink:href="#DejaVuSans-30" transform="translate(63.623047 0)"/>
      </g>
     </g>
    </g>
    <g id="ytick_5">
     <g id="line2d_27">
      <path d="M 40.603125 50.345276 
L 428.163125 50.345276 
" clip-path="url(#p1108a25373)" style="fill: none; stroke-dasharray: 2.96,1.28; stroke-dashoffset: 0; stroke: #b0b0b0; stroke-opacity: 0.6; stroke-width: 0.8"/>
     </g>
     <g id="line2d_28">
      <g>
       <use xlink:href="#md32b8089ed" x="40.603125" y="50.345276" style="stroke: #000000; stroke-width: 0.8"/>
      </g>
     </g>
     <g id="text_15">
      <!-- 80 -->
      <g transform="translate(20.878125 54.144495) scale(0.1 -0.1)">
       <use xlink:href="#DejaVuSans-38"/>
       <use xlink:href="#DejaVuSans-30" transform="translate(63.623047 0)"/>
      </g>
     </g>
    </g>
    <g id="text_16">
     <!-- Average cumulative count -->
     <g transform="translate(14.798438 262.4325) rotate(-90) scale(0.1 -0.1)">
      <defs>
       <path id="DejaVuSans-41" d="M 2188 4044 
L 1331 1722 
L 3047 1722 
L 2188 4044 
z
M 1831 4666 
L 2547 4666 
L 4325 0 
L 3669 0 
L 3244 1197 
L 1141 1197 
L 716 0 
L 50 0 
L 1831 4666 
z
" transform="scale(0.015625)"/>
       <path id="DejaVuSans-76" d="M 191 3500 
L 800 3500 
L 1894 563 
L 2988 3500 
L 3597 3500 
L 2284 0 
L 1503 0 
L 191 3500 
z
" transform="scale(0.015625)"/>
       <path id="DejaVuSans-67" d="M 2906 1791 
Q 2906 2416 2648 2759 
Q 2391 3103 1925 3103 
Q 1463 3103 1205 2759 
Q 947 2416 947 1791 
Q 947 1169 1205 825 
Q 1463 481 1925 481 
Q 2391 481 2648 825 
Q 2906 1169 2906 1791 
z
M 3481 434 
Q 3481 -459 3084 -895 
Q 2688 -1331 1869 -1331 
Q 1566 -1331 1297 -1286 
Q 1028 -1241 775 -1147 
L 775 -588 
Q 1028 -725 1275 -790 
Q 1522 -856 1778 -856 
Q 2344 -856 2625 -561 
Q 2906 -266 2906 331 
L 2906 616 
Q 2728 306 2450 153 
Q 2172 0 1784 0 
Q 1141 0 747 490 
Q 353 981 353 1791 
Q 353 2603 747 3093 
Q 1141 3584 1784 3584 
Q 2172 3584 2450 3431 
Q 2728 3278 2906 2969 
L 2906 3500 
L 3481 3500 
L 3481 434 
z
" transform="scale(0.015625)"/>
       <path id="DejaVuSans-6c" d="M 603 4863 
L 1178 4863 
L 1178 0 
L 603 0 
L 603 4863 
z
" transform="scale(0.015625)"/>
      </defs>
      <use xlink:href="#DejaVuSans-41"/>
      <use xlink:href="#DejaVuSans-76" transform="translate(62.533203 0)"/>
      <use xlink:href="#DejaVuSans-65" transform="translate(121.712891 0)"/>
      <use xlink:href="#DejaVuSans-72" transform="translate(183.236328 0)"/>
      <use xlink:href="#DejaVuSans-61" transform="translate(224.349609 0)"/>
      <use xlink:href="#DejaVuSans-67" transform="translate(285.628906 0)"/>
      <use xlink:href="#DejaVuSans-65" transform="translate(349.105469 0)"/>
      <use xlink:href="#DejaVuSans-20" transform="translate(410.628906 0)"/>
      <use xlink:href="#DejaVuSans-63" transform="translate(442.416016 0)"/>
      <use xlink:href="#DejaVuSans-75" transform="translate(497.396484 0)"/>
      <use xlink:href="#DejaVuSans-6d" transform="translate(560.775391 0)"/>
      <use xlink:href="#DejaVuSans-75" transform="translate(658.1875 0)"/>
      <use xlink:href="#DejaVuSans-6c" transform="translate(721.566406 0)"/>
      <use xlink:href="#DejaVuSans-61" transform="translate(749.349609 0)"/>
      <use xlink:href="#DejaVuSans-74" transform="translate(810.628906 0)"/>
      <use xlink:href="#DejaVuSans-69" transform="translate(849.837891 0)"/>
      <use xlink:href="#DejaVuSans-76" transform="translate(877.621094 0)"/>
      <use xlink:href="#DejaVuSans-65" transform="translate(936.800781 0)"/>
      <use xlink:href="#DejaVuSans-20" transform="translate(998.324219 0)"/>
      <use xlink:href="#DejaVuSans-63" transform="translate(1030.111328 0)"/>
      <use xlink:href="#DejaVuSans-6f" transform="translate(1085.091797 0)"/>
      <use xlink:href="#DejaVuSans-75" transform="translate(1146.273438 0)"/>
      <use xlink:href="#DejaVuSans-6e" transform="translate(1209.652344 0)"/>
      <use xlink:href="#DejaVuSans-74" transform="translate(1273.03125 0)"/>
     </g>
    </g>
   </g>
   <g id="line2d_29">
    <path d="M 58.219489 369.201818 
L 63.063989 369.201818 
L 63.196111 368.205391 
L 71.38772 368.205391 
L 71.519843 367.208965 
L 80.239943 367.208965 
L 80.372066 366.212538 
L 82.882398 366.212538 
L 83.01452 365.216111 
L 96.05063 365.216111 
L 96.182752 364.219685 
L 98.164593 364.219685 
L 98.296716 363.223258 
L 98.47288 363.223258 
L 98.649043 361.230405 
L 99.661984 361.230405 
L 99.794107 360.233978 
L 104.28628 360.233978 
L 104.418402 359.237551 
L 115.736916 359.237551 
L 115.869039 358.241125 
L 116.617734 358.241125 
L 116.749857 357.244698 
L 117.674716 357.244698 
L 117.806839 356.248271 
L 118.731698 356.248271 
L 118.86382 355.251844 
L 119.480393 355.251844 
L 119.612516 354.255418 
L 119.78868 354.255418 
L 119.920802 353.258991 
L 121.24203 353.258991 
L 121.374152 352.262564 
L 122.034766 352.262564 
L 122.166889 351.266138 
L 123.003666 351.266138 
L 123.135789 350.269711 
L 125.954407 350.269711 
L 126.08653 349.273284 
L 127.09947 349.273284 
L 127.231593 348.276858 
L 135.070875 348.276858 
L 135.202998 347.280431 
L 137.27292 347.280431 
L 137.405043 346.284004 
L 140.575989 346.284004 
L 140.708111 345.287578 
L 147.094043 345.287578 
L 147.226166 344.291151 
L 149.692457 344.291151 
L 149.82458 343.294724 
L 153.524016 343.294724 
L 153.656139 342.298297 
L 157.355575 342.298297 
L 157.487698 341.301871 
L 172.285443 341.301871 
L 172.417566 340.305444 
L 177.350148 340.305444 
L 177.48227 339.309017 
L 180.741298 339.309017 
L 180.87342 338.312591 
L 181.930402 338.312591 
L 182.062525 337.316164 
L 183.824161 337.316164 
L 183.956284 336.319737 
L 187.61168 336.319737 
L 187.743802 335.323311 
L 201.17628 335.323311 
L 201.308402 334.326884 
L 202.277302 334.326884 
L 202.409425 333.330457 
L 206.857557 333.330457 
L 206.98968 332.33403 
L 207.03372 332.33403 
L 207.165843 331.337604 
L 209.764257 331.337604 
L 209.89638 330.341177 
L 220.510239 330.341177 
L 220.642361 329.34475 
L 224.033511 329.34475 
L 224.165634 328.348324 
L 225.751107 328.348324 
L 225.88323 327.351897 
L 228.34952 327.351897 
L 228.481643 326.35547 
L 232.577448 326.35547 
L 232.70957 325.359044 
L 232.929775 325.359044 
L 233.061898 324.362617 
L 235.880516 324.362617 
L 236.012639 323.36619 
L 245.921843 323.36619 
L 246.053966 322.369764 
L 251.515039 322.369764 
L 251.647161 321.373337 
L 254.730025 321.373337 
L 254.862148 320.37691 
L 257.284398 320.37691 
L 257.41652 319.380483 
L 257.636725 319.380483 
L 257.768848 318.384057 
L 410.50272 318.384057 
L 410.50272 318.384057 
" clip-path="url(#p1108a25373)" style="fill: none; stroke: #add8e6; stroke-width: 2; stroke-linecap: square"/>
   </g>
   <g id="line2d_30">
    <path d="M 58.219489 369.201818 
L 59.408593 369.201818 
L 59.540716 368.205391 
L 59.981125 368.205391 
L 60.113248 367.208965 
L 60.72982 367.208965 
L 60.861943 366.212538 
L 61.258311 366.212538 
L 61.390434 365.216111 
L 63.10803 365.216111 
L 63.240152 364.219685 
L 64.56138 364.219685 
L 64.693502 363.223258 
L 65.354116 363.223258 
L 65.486239 362.226831 
L 65.882607 362.226831 
L 66.01473 361.230405 
L 66.895548 361.230405 
L 67.02767 360.233978 
L 67.159793 360.233978 
L 67.291916 359.237551 
L 67.688284 359.237551 
L 67.820407 358.241125 
L 69.44992 358.241125 
L 69.582043 357.244698 
L 69.93437 357.244698 
L 70.110534 355.251844 
L 70.242657 355.251844 
L 70.37478 354.255418 
L 71.431761 354.255418 
L 71.563884 353.258991 
L 71.607925 353.258991 
L 71.740048 352.262564 
L 73.721889 352.262564 
L 73.854011 351.266138 
L 77.905775 351.266138 
L 78.081939 349.273284 
L 79.09488 349.273284 
L 79.227002 348.276858 
L 79.711452 348.276858 
L 79.843575 347.280431 
L 80.283984 347.280431 
L 80.416107 346.284004 
L 80.460148 346.284004 
L 80.59227 345.287578 
L 80.812475 345.287578 
L 80.944598 344.291151 
L 81.957539 344.291151 
L 82.089661 343.294724 
L 82.926439 343.294724 
L 83.058561 342.298297 
L 83.146643 342.298297 
L 83.322807 340.305444 
L 83.45493 340.305444 
L 83.587052 339.309017 
L 84.071502 339.309017 
L 84.203625 338.312591 
L 84.379789 338.312591 
L 84.555952 336.319737 
L 84.996361 336.319737 
L 85.128484 335.323311 
L 85.568893 335.323311 
L 85.701016 334.326884 
L 86.185466 334.326884 
L 86.317589 333.330457 
L 86.36163 333.330457 
L 86.537793 331.337604 
L 86.581834 331.337604 
L 86.757998 329.34475 
L 86.934161 329.34475 
L 87.066284 328.348324 
L 87.37457 328.348324 
L 87.506693 327.351897 
L 88.607716 327.351897 
L 88.739839 326.35547 
L 90.105107 326.35547 
L 90.23723 325.359044 
L 91.162089 325.359044 
L 91.294211 324.362617 
L 91.602498 324.362617 
L 91.73462 323.36619 
L 91.866743 323.36619 
L 91.998866 322.369764 
L 92.439275 322.369764 
L 92.615439 320.37691 
L 93.276052 320.37691 
L 93.408175 319.380483 
L 93.67242 319.380483 
L 93.804543 318.384057 
L 94.11283 318.384057 
L 94.244952 317.38763 
L 94.64132 317.38763 
L 94.773443 316.391203 
L 94.949607 316.391203 
L 95.08173 315.394777 
L 95.213852 315.394777 
L 95.345975 314.39835 
L 95.478098 314.39835 
L 95.61022 313.401923 
L 96.05063 313.401923 
L 96.226793 311.40907 
L 96.358916 311.40907 
L 96.491039 310.412643 
L 96.623161 310.412643 
L 96.755284 309.416217 
L 97.944389 309.416217 
L 98.076511 308.41979 
L 98.208634 308.41979 
L 98.340757 307.423363 
L 98.51692 307.423363 
L 98.693084 305.43051 
L 98.781166 305.43051 
L 98.913289 304.434083 
L 99.089452 304.434083 
L 99.221575 303.437656 
L 99.397739 303.437656 
L 99.529861 302.44123 
L 99.706025 302.44123 
L 99.882189 300.448376 
L 100.014311 300.448376 
L 100.146434 299.45195 
L 101.247457 299.45195 
L 101.37958 298.455523 
L 101.731907 298.455523 
L 101.86403 297.459096 
L 101.996152 297.459096 
L 102.172316 295.466243 
L 102.39252 295.466243 
L 102.524643 294.469816 
L 102.612725 294.469816 
L 102.788889 292.476963 
L 104.33032 292.476963 
L 104.506484 290.484109 
L 104.638607 290.484109 
L 104.77073 289.487683 
L 104.81477 289.487683 
L 104.990934 287.494829 
L 105.78367 287.494829 
L 105.915793 286.498403 
L 105.959834 286.498403 
L 106.135998 284.505549 
L 106.22408 284.505549 
L 106.356202 283.509122 
L 106.488325 283.509122 
L 106.664489 281.516269 
L 106.840652 281.516269 
L 106.972775 280.519842 
L 107.060857 280.519842 
L 107.19298 279.523416 
L 107.413184 279.523416 
L 107.545307 278.526989 
L 107.67743 278.526989 
L 107.809552 277.530562 
L 107.985716 277.530562 
L 108.117839 276.534136 
L 108.249961 276.534136 
L 108.382084 275.537709 
L 108.514207 275.537709 
L 108.64633 274.541282 
L 109.086739 274.541282 
L 109.218861 273.544855 
L 109.306943 273.544855 
L 109.439066 272.548429 
L 109.571189 272.548429 
L 109.747352 270.555575 
L 110.055639 270.555575 
L 110.231802 268.562722 
L 110.319884 268.562722 
L 110.496048 266.569869 
L 110.672211 266.569869 
L 110.804334 265.573442 
L 110.892416 265.573442 
L 111.06858 263.580589 
L 111.200702 263.580589 
L 111.376866 261.587735 
L 111.508989 261.587735 
L 111.641111 260.591308 
L 111.729193 260.591308 
L 111.861316 259.594882 
L 112.08152 259.594882 
L 112.213643 257.602028 
L 112.301725 257.602028 
L 112.477889 255.609175 
L 113.53487 255.609175 
L 113.755075 252.619895 
L 114.94418 252.619895 
L 115.120343 250.627042 
L 115.296507 250.627042 
L 115.42863 249.630615 
L 115.780957 249.630615 
L 115.91308 248.634188 
L 116.045202 248.634188 
L 116.221366 246.641335 
L 116.617734 246.641335 
L 116.793898 244.648481 
L 117.102184 244.648481 
L 117.234307 243.652055 
L 117.718757 243.652055 
L 117.85088 242.655628 
L 117.983002 242.655628 
L 118.115125 241.659201 
L 118.159166 241.659201 
L 118.37937 238.669921 
L 118.775739 238.669921 
L 118.907861 237.673494 
L 118.951902 237.673494 
L 119.084025 235.680641 
L 119.524434 235.680641 
L 119.656557 233.687788 
L 119.83272 233.687788 
L 119.964843 232.691361 
L 120.008884 232.691361 
L 120.141007 231.694934 
L 120.27313 231.694934 
L 120.405252 230.698508 
L 120.537375 230.698508 
L 120.669498 229.702081 
L 120.977784 229.702081 
L 121.109907 228.705654 
L 121.153948 228.705654 
L 121.330111 226.712801 
L 121.682439 226.712801 
L 121.814561 225.716374 
L 122.078807 225.716374 
L 122.21093 224.719947 
L 122.343052 224.719947 
L 122.519216 222.727094 
L 123.047707 222.727094 
L 123.17983 221.730667 
L 123.311952 221.730667 
L 123.444075 220.734241 
L 124.104689 220.734241 
L 124.236811 219.737814 
L 124.368934 219.737814 
L 124.501057 218.741387 
L 124.897425 218.741387 
L 125.029548 217.744961 
L 125.249752 217.744961 
L 125.425916 215.752107 
L 125.822284 215.752107 
L 125.954407 214.755681 
L 125.998448 214.755681 
L 126.13057 213.759254 
L 127.143511 213.759254 
L 127.275634 212.762827 
L 127.407757 212.762827 
L 127.53988 211.7664 
L 127.672002 211.7664 
L 127.848166 209.773547 
L 128.684943 209.773547 
L 128.817066 208.77712 
L 129.03727 208.77712 
L 129.169393 207.780694 
L 129.785966 207.780694 
L 129.96213 205.78784 
L 130.534661 205.78784 
L 130.666784 204.791414 
L 130.842948 204.791414 
L 130.97507 203.794987 
L 131.635684 203.794987 
L 131.767807 202.79856 
L 132.164175 202.79856 
L 132.296298 201.802133 
L 135.114916 201.802133 
L 135.247039 200.805707 
L 135.995734 200.805707 
L 136.171898 198.812853 
L 136.25998 198.812853 
L 136.436143 196.82 
L 136.876552 196.82 
L 137.052716 194.827147 
L 137.316961 194.827147 
L 137.449084 193.83072 
L 137.625248 193.83072 
L 137.75737 192.834293 
L 138.153739 192.834293 
L 138.285861 191.837867 
L 138.462025 191.837867 
L 138.594148 190.84144 
L 138.990516 190.84144 
L 139.122639 189.845013 
L 139.254761 189.845013 
L 139.386884 188.848586 
L 139.783252 188.848586 
L 139.915375 187.85216 
L 140.13558 187.85216 
L 140.311743 185.859306 
L 140.62003 185.859306 
L 140.752152 184.86288 
L 141.412766 184.86288 
L 141.58893 182.870026 
L 141.677011 182.870026 
L 141.809134 181.8736 
L 142.337625 181.8736 
L 142.55783 178.884319 
L 143.702893 178.884319 
L 143.835016 177.887893 
L 144.05522 177.887893 
L 144.187343 176.891466 
L 144.275425 176.891466 
L 144.407548 175.895039 
L 144.53967 175.895039 
L 144.715834 173.902186 
L 146.785757 173.902186 
L 146.96192 171.909333 
L 147.138084 171.909333 
L 147.270207 170.912906 
L 147.44637 170.912906 
L 147.578493 169.916479 
L 147.710616 169.916479 
L 147.842739 168.920053 
L 148.062943 168.920053 
L 148.239107 166.927199 
L 148.89972 166.927199 
L 149.075884 164.934346 
L 149.252048 164.934346 
L 149.38417 163.937919 
L 149.736498 163.937919 
L 149.86862 161.945066 
L 150.000743 161.945066 
L 150.132866 160.948639 
L 150.529234 160.948639 
L 150.705398 158.955786 
L 150.83752 158.955786 
L 150.969643 157.959359 
L 151.145807 157.959359 
L 151.27793 156.962932 
L 151.76238 156.962932 
L 151.894502 155.966506 
L 152.819361 155.966506 
L 152.951484 154.970079 
L 153.568057 154.970079 
L 153.74422 152.977225 
L 154.845243 152.977225 
L 154.977366 151.980799 
L 155.329693 151.980799 
L 155.461816 150.984372 
L 155.63798 150.984372 
L 155.770102 149.987945 
L 156.474757 149.987945 
L 156.60688 148.991519 
L 157.399616 148.991519 
L 157.531739 147.995092 
L 157.751943 147.995092 
L 157.884066 146.998665 
L 158.324475 146.998665 
L 158.456598 146.002239 
L 158.632761 146.002239 
L 158.764884 145.005812 
L 159.02913 145.005812 
L 159.161252 144.009385 
L 160.702684 144.009385 
L 160.834807 143.012958 
L 160.922889 143.012958 
L 161.099052 141.020105 
L 161.539461 141.020105 
L 161.671584 140.023678 
L 162.684525 140.023678 
L 162.816648 139.027252 
L 164.005752 139.027252 
L 164.137875 138.030825 
L 164.534243 138.030825 
L 164.666366 137.034398 
L 164.754448 137.034398 
L 164.88657 136.037972 
L 166.163757 136.037972 
L 166.29588 135.041545 
L 166.428002 135.041545 
L 166.560125 134.045118 
L 169.554907 134.045118 
L 169.73107 132.052265 
L 170.65593 132.052265 
L 170.788052 131.055838 
L 172.329484 131.055838 
L 172.461607 130.059411 
L 172.549689 130.059411 
L 172.681811 129.062985 
L 173.210302 129.062985 
L 173.342425 128.066558 
L 173.386466 128.066558 
L 173.518589 127.070131 
L 175.01598 127.070131 
L 175.148102 126.073705 
L 176.249125 126.073705 
L 176.381248 125.077278 
L 177.041861 125.077278 
L 177.173984 124.080851 
L 177.394189 124.080851 
L 177.526311 123.084425 
L 178.759457 123.084425 
L 178.93562 121.091571 
L 179.199866 121.091571 
L 179.331989 120.095145 
L 179.596234 120.095145 
L 179.728357 119.098718 
L 180.300889 119.098718 
L 180.433011 118.102291 
L 180.785339 118.102291 
L 180.961502 116.109438 
L 181.31383 116.109438 
L 181.445952 115.113011 
L 181.974443 115.113011 
L 182.150607 113.120158 
L 183.692039 113.120158 
L 183.824161 112.123731 
L 183.868202 112.123731 
L 184.000325 111.127304 
L 184.044366 111.127304 
L 184.176489 110.130878 
L 184.352652 110.130878 
L 184.484775 109.134451 
L 185.541757 109.134451 
L 185.67388 108.138024 
L 186.68682 108.138024 
L 186.818943 107.141597 
L 186.907025 107.141597 
L 187.083189 105.148744 
L 187.65572 105.148744 
L 187.831884 103.155891 
L 188.404416 103.155891 
L 188.536539 102.159464 
L 188.712702 102.159464 
L 188.844825 101.163037 
L 189.06503 101.163037 
L 189.197152 100.166611 
L 189.945848 100.166611 
L 190.07797 99.170184 
L 190.738584 99.170184 
L 190.870707 98.173757 
L 190.958789 98.173757 
L 191.090911 97.177331 
L 191.619402 97.177331 
L 191.751525 96.180904 
L 193.90953 96.180904 
L 194.041652 95.184477 
L 194.526102 95.184477 
L 194.658225 94.18805 
L 195.495002 94.18805 
L 195.627125 93.191624 
L 195.759248 93.191624 
L 195.89137 92.195197 
L 197.564925 92.195197 
L 197.697048 91.19877 
L 197.873211 91.19877 
L 198.005334 90.202344 
L 198.357661 90.202344 
L 198.489784 89.205917 
L 198.665948 89.205917 
L 198.79807 88.20949 
L 199.855052 88.20949 
L 199.987175 87.213064 
L 201.22032 87.213064 
L 201.352443 86.216637 
L 202.321343 86.216637 
L 202.453466 85.22021 
L 202.805793 85.22021 
L 202.937916 84.223783 
L 205.800575 84.223783 
L 205.932698 83.227357 
L 206.329066 83.227357 
L 206.461189 82.23093 
L 206.901598 82.23093 
L 207.03372 81.234503 
L 207.077761 81.234503 
L 207.209884 80.238077 
L 209.323848 80.238077 
L 209.45597 79.24165 
L 209.808298 79.24165 
L 209.984461 77.248797 
L 210.336789 77.248797 
L 210.468911 76.25237 
L 210.512952 76.25237 
L 210.645075 75.255943 
L 210.86528 75.255943 
L 210.997402 74.259517 
L 211.041443 74.259517 
L 211.173566 73.26309 
L 211.217607 73.26309 
L 211.34973 72.266663 
L 212.142466 72.266663 
L 212.274589 71.270236 
L 212.891161 71.270236 
L 213.023284 70.27381 
L 213.860061 70.27381 
L 213.992184 69.277383 
L 214.168348 69.277383 
L 214.30047 68.280956 
L 215.005125 68.280956 
L 215.137248 67.28453 
L 215.489575 67.28453 
L 215.621698 66.288103 
L 218.220111 66.288103 
L 218.352234 65.291676 
L 218.66052 65.291676 
L 218.792643 64.29525 
L 219.409216 64.29525 
L 219.541339 63.298823 
L 220.55428 63.298823 
L 220.686402 62.302396 
L 221.919548 62.302396 
L 222.05167 61.30597 
L 222.712284 61.30597 
L 222.844407 60.309543 
L 224.077552 60.309543 
L 224.209675 59.313116 
L 225.795148 59.313116 
L 225.92727 58.316689 
L 226.720007 58.316689 
L 226.85213 57.320263 
L 228.393561 57.320263 
L 228.525684 56.323836 
L 229.538625 56.323836 
L 229.670748 55.327409 
L 230.551566 55.327409 
L 230.683689 54.330983 
L 231.080057 54.330983 
L 231.21218 53.334556 
L 232.621489 53.334556 
L 232.753611 52.338129 
L 232.973816 52.338129 
L 233.105939 51.341703 
L 234.64737 51.341703 
L 234.779493 50.345276 
L 234.999698 50.345276 
L 235.13182 49.348849 
L 235.440107 49.348849 
L 235.57223 48.352422 
L 235.792434 48.352422 
L 235.968598 46.359569 
L 237.377907 46.359569 
L 237.51003 45.363142 
L 237.598111 45.363142 
L 237.730234 44.366716 
L 239.49187 44.366716 
L 239.623993 43.370289 
L 240.328648 43.370289 
L 240.46077 42.373862 
L 241.121384 42.373862 
L 241.253507 41.377436 
L 241.42967 41.377436 
L 241.561793 40.381009 
L 241.958161 40.381009 
L 242.090284 39.384582 
L 243.984043 39.384582 
L 244.116166 38.388156 
L 245.965884 38.388156 
L 246.098007 37.391729 
L 251.55908 37.391729 
L 251.691202 36.395302 
L 254.774066 36.395302 
L 254.906189 35.398875 
L 255.522761 35.398875 
L 255.654884 34.402449 
L 257.328439 34.402449 
L 257.460561 33.406022 
L 257.680766 33.406022 
L 257.812889 32.409595 
L 258.253298 32.409595 
L 258.38542 31.413169 
L 259.83877 31.413169 
L 259.970893 30.416742 
L 261.204039 30.416742 
L 261.336161 29.420315 
L 262.040816 29.420315 
L 262.172939 28.423889 
L 264.947516 28.423889 
L 265.079639 27.427462 
L 265.520048 27.427462 
L 265.65217 26.431035 
L 266.312784 26.431035 
L 266.444907 25.434609 
L 369.412552 25.434609 
L 369.544675 24.438182 
L 410.50272 24.438182 
L 410.50272 24.438182 
" clip-path="url(#p1108a25373)" style="fill: none; stroke: #00008b; stroke-width: 2; stroke-linecap: square"/>
   </g>
   <g id="line2d_31">
    <path d="M 410.546761 369.201818 
L 164.181916 369.201818 
L 164.049793 365.216111 
L 163.257057 365.216111 
L 163.124934 361.230405 
L 144.627752 361.230405 
L 144.49563 357.244698 
L 141.500848 357.244698 
L 141.368725 353.258991 
L 121.24203 353.258991 
L 121.109907 349.273284 
L 110.496048 349.273284 
L 110.363925 345.287578 
L 77.113039 345.287578 
L 76.980916 341.301871 
L 58.26353 341.301871 
L 58.26353 341.301871 
" clip-path="url(#p1108a25373)" style="fill: none; stroke-dasharray: 7.4,3.2; stroke-dashoffset: 0; stroke: #fa8072; stroke-width: 2"/>
   </g>
   <g id="line2d_32">
    <path d="M 410.546761 369.201818 
L 166.516084 369.201818 
L 166.383961 365.216111 
L 164.181916 365.216111 
L 164.049793 361.230405 
L 163.87363 361.230405 
L 163.741507 357.244698 
L 163.257057 357.244698 
L 163.124934 353.258991 
L 162.90473 353.258991 
L 162.772607 349.273284 
L 159.99803 349.273284 
L 159.865907 345.287578 
L 158.500639 345.287578 
L 158.368516 341.301871 
L 157.223452 341.301871 
L 157.09133 337.316164 
L 156.518798 337.316164 
L 156.386675 333.330457 
L 151.233889 333.330457 
L 151.101766 329.34475 
L 149.208007 329.34475 
L 149.075884 325.359044 
L 144.627752 325.359044 
L 144.49563 321.373337 
L 144.099261 321.373337 
L 143.967139 317.38763 
L 141.500848 317.38763 
L 141.368725 313.401923 
L 139.69517 313.401923 
L 139.563048 309.416217 
L 126.61502 309.416217 
L 126.482898 305.43051 
L 121.24203 305.43051 
L 121.109907 301.444803 
L 118.423411 301.444803 
L 118.291289 297.459096 
L 117.36643 297.459096 
L 117.234307 293.473389 
L 110.496048 293.473389 
L 110.363925 289.487683 
L 94.64132 289.487683 
L 94.509198 285.501976 
L 92.747561 285.501976 
L 92.615439 281.516269 
L 87.638816 281.516269 
L 87.506693 277.530562 
L 81.869457 277.530562 
L 81.737334 273.544855 
L 80.372066 273.544855 
L 80.239943 269.559149 
L 77.113039 269.559149 
L 76.980916 265.573442 
L 68.701225 265.573442 
L 68.569102 261.587735 
L 65.04583 261.587735 
L 64.913707 257.602028 
L 64.781584 257.602028 
L 64.649461 253.616322 
L 61.786802 253.616322 
L 61.65468 249.630615 
L 60.72982 249.630615 
L 60.597698 245.644908 
L 58.26353 245.644908 
L 58.26353 245.644908 
" clip-path="url(#p1108a25373)" style="fill: none; stroke-dasharray: 7.4,3.2; stroke-dashoffset: 0; stroke: #8b0000; stroke-width: 2"/>
   </g>
   <g id="patch_3">
    <path d="M 40.603125 386.44 
L 40.603125 7.2 
" style="fill: none; stroke: #000000; stroke-width: 0.8; stroke-linejoin: miter; stroke-linecap: square"/>
   </g>
   <g id="patch_4">
    <path d="M 428.163125 386.44 
L 428.163125 7.2 
" style="fill: none; stroke: #000000; stroke-width: 0.8; stroke-linejoin: miter; stroke-linecap: square"/>
   </g>
   <g id="patch_5">
    <path d="M 40.603125 386.44 
L 428.163125 386.44 
" style="fill: none; stroke: #000000; stroke-width: 0.8; stroke-linejoin: miter; stroke-linecap: square"/>
   </g>
   <g id="patch_6">
    <path d="M 40.603125 7.2 
L 428.163125 7.2 
" style="fill: none; stroke: #000000; stroke-width: 0.8; stroke-linejoin: miter; stroke-linecap: square"/>
   </g>
   <g id="legend_1">
    <g id="patch_7">
     <path d="M 435.163125 88.590625 
L 559.04125 88.590625 
Q 561.04125 88.590625 561.04125 86.590625 
L 561.04125 14.2 
Q 561.04125 12.2 559.04125 12.2 
L 435.163125 12.2 
Q 433.163125 12.2 433.163125 14.2 
L 433.163125 86.590625 
Q 433.163125 88.590625 435.163125 88.590625 
z
" style="fill: #ffffff; opacity: 0.8; stroke: #cccccc; stroke-linejoin: miter"/>
    </g>
    <g id="text_17">
     <!-- Motifs &amp; orientation -->
     <g transform="translate(447.586562 23.798437) scale(0.1 -0.1)">
      <defs>
       <path id="DejaVuSans-4d" d="M 628 4666 
L 1569 4666 
L 2759 1491 
L 3956 4666 
L 4897 4666 
L 4897 0 
L 4281 0 
L 4281 4097 
L 3078 897 
L 2444 897 
L 1241 4097 
L 1241 0 
L 628 0 
L 628 4666 
z
" transform="scale(0.015625)"/>
       <path id="DejaVuSans-26" d="M 1556 2509 
Q 1272 2256 1139 2004 
Q 1006 1753 1006 1478 
Q 1006 1022 1337 719 
Q 1669 416 2169 416 
Q 2466 416 2725 514 
Q 2984 613 3213 813 
L 1556 2509 
z
M 1997 2859 
L 3584 1234 
Q 3769 1513 3872 1830 
Q 3975 2147 3994 2503 
L 4575 2503 
Q 4538 2091 4375 1687 
Q 4213 1284 3922 891 
L 4794 0 
L 4006 0 
L 3559 459 
Q 3234 181 2878 45 
Q 2522 -91 2113 -91 
Q 1359 -91 881 339 
Q 403 769 403 1441 
Q 403 1841 612 2192 
Q 822 2544 1241 2853 
Q 1091 3050 1012 3245 
Q 934 3441 934 3628 
Q 934 4134 1281 4442 
Q 1628 4750 2203 4750 
Q 2463 4750 2720 4694 
Q 2978 4638 3244 4525 
L 3244 3956 
Q 2972 4103 2725 4179 
Q 2478 4256 2266 4256 
Q 1938 4256 1733 4082 
Q 1528 3909 1528 3634 
Q 1528 3475 1620 3314 
Q 1713 3153 1997 2859 
z
" transform="scale(0.015625)"/>
      </defs>
      <use xlink:href="#DejaVuSans-4d"/>
      <use xlink:href="#DejaVuSans-6f" transform="translate(86.279297 0)"/>
      <use xlink:href="#DejaVuSans-74" transform="translate(147.460938 0)"/>
      <use xlink:href="#DejaVuSans-69" transform="translate(186.669922 0)"/>
      <use xlink:href="#DejaVuSans-66" transform="translate(214.453125 0)"/>
      <use xlink:href="#DejaVuSans-73" transform="translate(249.658203 0)"/>
      <use xlink:href="#DejaVuSans-20" transform="translate(301.757812 0)"/>
      <use xlink:href="#DejaVuSans-26" transform="translate(333.544922 0)"/>
      <use xlink:href="#DejaVuSans-20" transform="translate(411.523438 0)"/>
      <use xlink:href="#DejaVuSans-6f" transform="translate(443.310547 0)"/>
      <use xlink:href="#DejaVuSans-72" transform="translate(504.492188 0)"/>
      <use xlink:href="#DejaVuSans-69" transform="translate(545.605469 0)"/>
      <use xlink:href="#DejaVuSans-65" transform="translate(573.388672 0)"/>
      <use xlink:href="#DejaVuSans-6e" transform="translate(634.912109 0)"/>
      <use xlink:href="#DejaVuSans-74" transform="translate(698.291016 0)"/>
      <use xlink:href="#DejaVuSans-61" transform="translate(737.5 0)"/>
      <use xlink:href="#DejaVuSans-74" transform="translate(798.779297 0)"/>
      <use xlink:href="#DejaVuSans-69" transform="translate(837.988281 0)"/>
      <use xlink:href="#DejaVuSans-6f" transform="translate(865.771484 0)"/>
      <use xlink:href="#DejaVuSans-6e" transform="translate(926.953125 0)"/>
     </g>
    </g>
    <g id="line2d_33">
     <path d="M 437.163125 34.976562 
L 447.163125 34.976562 
L 457.163125 34.976562 
" style="fill: none; stroke: #add8e6; stroke-width: 2; stroke-linecap: square"/>
    </g>
    <g id="text_18">
     <!-- CCCGAAA (5' end) -->
     <g transform="translate(465.163125 38.476562) scale(0.1 -0.1)">
      <defs>
       <path id="DejaVuSans-43" d="M 4122 4306 
L 4122 3641 
Q 3803 3938 3442 4084 
Q 3081 4231 2675 4231 
Q 1875 4231 1450 3742 
Q 1025 3253 1025 2328 
Q 1025 1406 1450 917 
Q 1875 428 2675 428 
Q 3081 428 3442 575 
Q 3803 722 4122 1019 
L 4122 359 
Q 3791 134 3420 21 
Q 3050 -91 2638 -91 
Q 1578 -91 968 557 
Q 359 1206 359 2328 
Q 359 3453 968 4101 
Q 1578 4750 2638 4750 
Q 3056 4750 3426 4639 
Q 3797 4528 4122 4306 
z
" transform="scale(0.015625)"/>
       <path id="DejaVuSans-47" d="M 3809 666 
L 3809 1919 
L 2778 1919 
L 2778 2438 
L 4434 2438 
L 4434 434 
Q 4069 175 3628 42 
Q 3188 -91 2688 -91 
Q 1594 -91 976 548 
Q 359 1188 359 2328 
Q 359 3472 976 4111 
Q 1594 4750 2688 4750 
Q 3144 4750 3555 4637 
Q 3966 4525 4313 4306 
L 4313 3634 
Q 3963 3931 3569 4081 
Q 3175 4231 2741 4231 
Q 1884 4231 1454 3753 
Q 1025 3275 1025 2328 
Q 1025 1384 1454 906 
Q 1884 428 2741 428 
Q 3075 428 3337 486 
Q 3600 544 3809 666 
z
" transform="scale(0.015625)"/>
       <path id="DejaVuSans-28" d="M 1984 4856 
Q 1566 4138 1362 3434 
Q 1159 2731 1159 2009 
Q 1159 1288 1364 580 
Q 1569 -128 1984 -844 
L 1484 -844 
Q 1016 -109 783 600 
Q 550 1309 550 2009 
Q 550 2706 781 3412 
Q 1013 4119 1484 4856 
L 1984 4856 
z
" transform="scale(0.015625)"/>
       <path id="DejaVuSans-27" d="M 1147 4666 
L 1147 2931 
L 616 2931 
L 616 4666 
L 1147 4666 
z
" transform="scale(0.015625)"/>
       <path id="DejaVuSans-64" d="M 2906 2969 
L 2906 4863 
L 3481 4863 
L 3481 0 
L 2906 0 
L 2906 525 
Q 2725 213 2448 61 
Q 2172 -91 1784 -91 
Q 1150 -91 751 415 
Q 353 922 353 1747 
Q 353 2572 751 3078 
Q 1150 3584 1784 3584 
Q 2172 3584 2448 3432 
Q 2725 3281 2906 2969 
z
M 947 1747 
Q 947 1113 1208 752 
Q 1469 391 1925 391 
Q 2381 391 2643 752 
Q 2906 1113 2906 1747 
Q 2906 2381 2643 2742 
Q 2381 3103 1925 3103 
Q 1469 3103 1208 2742 
Q 947 2381 947 1747 
z
" transform="scale(0.015625)"/>
       <path id="DejaVuSans-29" d="M 513 4856 
L 1013 4856 
Q 1481 4119 1714 3412 
Q 1947 2706 1947 2009 
Q 1947 1309 1714 600 
Q 1481 -109 1013 -844 
L 513 -844 
Q 928 -128 1133 580 
Q 1338 1288 1338 2009 
Q 1338 2731 1133 3434 
Q 928 4138 513 4856 
z
" transform="scale(0.015625)"/>
      </defs>
      <use xlink:href="#DejaVuSans-43"/>
      <use xlink:href="#DejaVuSans-43" transform="translate(69.824219 0)"/>
      <use xlink:href="#DejaVuSans-43" transform="translate(139.648438 0)"/>
      <use xlink:href="#DejaVuSans-47" transform="translate(209.472656 0)"/>
      <use xlink:href="#DejaVuSans-41" transform="translate(286.962891 0)"/>
      <use xlink:href="#DejaVuSans-41" transform="translate(358.121094 0)"/>
      <use xlink:href="#DejaVuSans-41" transform="translate(429.279297 0)"/>
      <use xlink:href="#DejaVuSans-20" transform="translate(497.6875 0)"/>
      <use xlink:href="#DejaVuSans-28" transform="translate(529.474609 0)"/>
      <use xlink:href="#DejaVuSans-35" transform="translate(568.488281 0)"/>
      <use xlink:href="#DejaVuSans-27" transform="translate(632.111328 0)"/>
      <use xlink:href="#DejaVuSans-20" transform="translate(659.601562 0)"/>
      <use xlink:href="#DejaVuSans-65" transform="translate(691.388672 0)"/>
      <use xlink:href="#DejaVuSans-6e" transform="translate(752.912109 0)"/>
      <use xlink:href="#DejaVuSans-64" transform="translate(816.291016 0)"/>
      <use xlink:href="#DejaVuSans-29" transform="translate(879.767578 0)"/>
     </g>
    </g>
    <g id="line2d_34">
     <path d="M 437.163125 49.654687 
L 447.163125 49.654687 
L 457.163125 49.654687 
" style="fill: none; stroke: #00008b; stroke-width: 2; stroke-linecap: square"/>
    </g>
    <g id="text_19">
     <!-- CCGAAA (5' end) -->
     <g transform="translate(465.163125 53.154687) scale(0.1 -0.1)">
      <use xlink:href="#DejaVuSans-43"/>
      <use xlink:href="#DejaVuSans-43" transform="translate(69.824219 0)"/>
      <use xlink:href="#DejaVuSans-47" transform="translate(139.648438 0)"/>
      <use xlink:href="#DejaVuSans-41" transform="translate(217.138672 0)"/>
      <use xlink:href="#DejaVuSans-41" transform="translate(288.296875 0)"/>
      <use xlink:href="#DejaVuSans-41" transform="translate(359.455078 0)"/>
      <use xlink:href="#DejaVuSans-20" transform="translate(427.863281 0)"/>
      <use xlink:href="#DejaVuSans-28" transform="translate(459.650391 0)"/>
      <use xlink:href="#DejaVuSans-35" transform="translate(498.664062 0)"/>
      <use xlink:href="#DejaVuSans-27" transform="translate(562.287109 0)"/>
      <use xlink:href="#DejaVuSans-20" transform="translate(589.777344 0)"/>
      <use xlink:href="#DejaVuSans-65" transform="translate(621.564453 0)"/>
      <use xlink:href="#DejaVuSans-6e" transform="translate(683.087891 0)"/>
      <use xlink:href="#DejaVuSans-64" transform="translate(746.466797 0)"/>
      <use xlink:href="#DejaVuSans-29" transform="translate(809.943359 0)"/>
     </g>
    </g>
    <g id="line2d_35">
     <path d="M 437.163125 64.332812 
L 447.163125 64.332812 
L 457.163125 64.332812 
" style="fill: none; stroke-dasharray: 7.4,3.2; stroke-dashoffset: 0; stroke: #fa8072; stroke-width: 2"/>
    </g>
    <g id="text_20">
     <!-- TTTCGGG (3' end) -->
     <g transform="translate(465.163125 67.832812) scale(0.1 -0.1)">
      <defs>
       <path id="DejaVuSans-54" d="M -19 4666 
L 3928 4666 
L 3928 4134 
L 2272 4134 
L 2272 0 
L 1638 0 
L 1638 4134 
L -19 4134 
L -19 4666 
z
" transform="scale(0.015625)"/>
      </defs>
      <use xlink:href="#DejaVuSans-54"/>
      <use xlink:href="#DejaVuSans-54" transform="translate(59.333984 0)"/>
      <use xlink:href="#DejaVuSans-54" transform="translate(118.667969 0)"/>
      <use xlink:href="#DejaVuSans-43" transform="translate(173.876953 0)"/>
      <use xlink:href="#DejaVuSans-47" transform="translate(243.701172 0)"/>
      <use xlink:href="#DejaVuSans-47" transform="translate(321.191406 0)"/>
      <use xlink:href="#DejaVuSans-47" transform="translate(398.681641 0)"/>
      <use xlink:href="#DejaVuSans-20" transform="translate(476.171875 0)"/>
      <use xlink:href="#DejaVuSans-28" transform="translate(507.958984 0)"/>
      <use xlink:href="#DejaVuSans-33" transform="translate(546.972656 0)"/>
      <use xlink:href="#DejaVuSans-27" transform="translate(610.595703 0)"/>
      <use xlink:href="#DejaVuSans-20" transform="translate(638.085938 0)"/>
      <use xlink:href="#DejaVuSans-65" transform="translate(669.873047 0)"/>
      <use xlink:href="#DejaVuSans-6e" transform="translate(731.396484 0)"/>
      <use xlink:href="#DejaVuSans-64" transform="translate(794.775391 0)"/>
      <use xlink:href="#DejaVuSans-29" transform="translate(858.251953 0)"/>
     </g>
    </g>
    <g id="line2d_36">
     <path d="M 437.163125 79.010937 
L 447.163125 79.010937 
L 457.163125 79.010937 
" style="fill: none; stroke-dasharray: 7.4,3.2; stroke-dashoffset: 0; stroke: #8b0000; stroke-width: 2"/>
    </g>
    <g id="text_21">
     <!-- TTTCGG (3' end) -->
     <g transform="translate(465.163125 82.510937) scale(0.1 -0.1)">
      <use xlink:href="#DejaVuSans-54"/>
      <use xlink:href="#DejaVuSans-54" transform="translate(59.333984 0)"/>
      <use xlink:href="#DejaVuSans-54" transform="translate(118.667969 0)"/>
      <use xlink:href="#DejaVuSans-43" transform="translate(173.876953 0)"/>
      <use xlink:href="#DejaVuSans-47" transform="translate(243.701172 0)"/>
      <use xlink:href="#DejaVuSans-47" transform="translate(321.191406 0)"/>
      <use xlink:href="#DejaVuSans-20" transform="translate(398.681641 0)"/>
      <use xlink:href="#DejaVuSans-28" transform="translate(430.46875 0)"/>
      <use xlink:href="#DejaVuSans-33" transform="translate(469.482422 0)"/>
      <use xlink:href="#DejaVuSans-27" transform="translate(533.105469 0)"/>
      <use xlink:href="#DejaVuSans-20" transform="translate(560.595703 0)"/>
      <use xlink:href="#DejaVuSans-65" transform="translate(592.382812 0)"/>
      <use xlink:href="#DejaVuSans-6e" transform="translate(653.90625 0)"/>
      <use xlink:href="#DejaVuSans-64" transform="translate(717.285156 0)"/>
      <use xlink:href="#DejaVuSans-29" transform="translate(780.761719 0)"/>
     </g>
    </g>
   </g>
  </g>
 </g>
 <defs>
  <clipPath id="p1108a25373">
   <rect x="40.603125" y="7.2" width="387.56" height="379.24"/>
  </clipPath>
 </defs>
</svg>
