<?xml version="1.0" encoding="utf-8" standalone="no"?>
<!DOCTYPE svg PUBLIC "-//W3C//DTD SVG 1.1//EN"
  "http://www.w3.org/Graphics/SVG/1.1/DTD/svg11.dtd">
<svg xmlns:xlink="http://www.w3.org/1999/xlink" width="568.21375pt" height="423.99625pt" viewBox="0 0 568.21375 423.99625" xmlns="http://www.w3.org/2000/svg" version="1.1">
 <metadata>
  <rdf:RDF xmlns:dc="http://purl.org/dc/elements/1.1/" xmlns:cc="http://creativecommons.org/ns#" xmlns:rdf="http://www.w3.org/1999/02/22-rdf-syntax-ns#">
   <cc:Work>
    <dc:type rdf:resource="http://purl.org/dc/dcmitype/StillImage"/>
    <dc:date>2026-04-30T15:30:56.508128</dc:date>
    <dc:format>image/svg+xml</dc:format>
    <dc:creator>
     <cc:Agent>
      <dc:title>Matplotlib v3.10.6, https://matplotlib.org/</dc:title>
     </cc:Agent>
    </dc:creator>
   </cc:Work>
  </rdf:RDF>
 </metadata>
 <defs>
  <style type="text/css">*{stroke-linejoin: round; stroke-linecap: butt}</style>
 </defs>
 <g id="figure_1">
  <g id="patch_1">
   <path d="M 0 423.99625 
L 568.21375 423.99625 
L 568.21375 0 
L 0 0 
z
" style="fill: #ffffff"/>
  </g>
  <g id="axes_1">
   <g id="patch_2">
    <path d="M 46.965625 386.44 
L 428.135625 386.44 
L 428.135625 7.2 
L 46.965625 7.2 
z
" style="fill: #ffffff"/>
   </g>
   <g id="matplotlib.axis_1">
    <g id="xtick_1">
     <g id="line2d_1">
      <path d="M 64.291534 386.44 
L 64.291534 7.2 
" clip-path="url(#pc0fb279e95)" style="fill: none; stroke-dasharray: 2.96,1.28; stroke-dashoffset: 0; stroke: #b0b0b0; stroke-opacity: 0.6; stroke-width: 0.8"/>
     </g>
     <g id="line2d_2">
      <defs>
       <path id="m18cf09ff11" d="M 0 0 
L 0 3.5 
" style="stroke: #000000; stroke-width: 0.8"/>
      </defs>
      <g>
       <use xlink:href="#m18cf09ff11" x="64.291534" y="386.44" style="stroke: #000000; stroke-width: 0.8"/>
      </g>
     </g>
     <g id="text_1">
      <!-- 0 -->
      <g transform="translate(61.110284 401.038437) scale(0.1 -0.1)">
       <defs>
        <path id="DejaVuSans-30" d="M 2034 4250 
Q 1547 4250 1301 3770 
Q 1056 3291 1056 2328 
Q 1056 1369 1301 889 
Q 1547 409 2034 409 
Q 2525 409 2770 889 
Q 3016 1369 3016 2328 
Q 3016 3291 2770 3770 
Q 2525 4250 2034 4250 
z
M 2034 4750 
Q 2819 4750 3233 4129 
Q 3647 3509 3647 2328 
Q 3647 1150 3233 529 
Q 2819 -91 2034 -91 
Q 1250 -91 836 529 
Q 422 1150 422 2328 
Q 422 3509 836 4129 
Q 1250 4750 2034 4750 
z
" transform="scale(0.015625)"/>
       </defs>
       <use xlink:href="#DejaVuSans-30"/>
      </g>
     </g>
    </g>
    <g id="xtick_2">
     <g id="line2d_3">
      <path d="M 107.606307 386.44 
L 107.606307 7.2 
" clip-path="url(#pc0fb279e95)" style="fill: none; stroke-dasharray: 2.96,1.28; stroke-dashoffset: 0; stroke: #b0b0b0; stroke-opacity: 0.6; stroke-width: 0.8"/>
     </g>
     <g id="line2d_4">
      <g>
       <use xlink:href="#m18cf09ff11" x="107.606307" y="386.44" style="stroke: #000000; stroke-width: 0.8"/>
      </g>
     </g>
     <g id="text_2">
      <!-- 1000 -->
      <g transform="translate(94.881307 401.038437) scale(0.1 -0.1)">
       <defs>
        <path id="DejaVuSans-31" d="M 794 531 
L 1825 531 
L 1825 4091 
L 703 3866 
L 703 4441 
L 1819 4666 
L 2450 4666 
L 2450 531 
L 3481 531 
L 3481 0 
L 794 0 
L 794 531 
z
" transform="scale(0.015625)"/>
       </defs>
       <use xlink:href="#DejaVuSans-31"/>
       <use xlink:href="#DejaVuSans-30" transform="translate(63.623047 0)"/>
       <use xlink:href="#DejaVuSans-30" transform="translate(127.246094 0)"/>
       <use xlink:href="#DejaVuSans-30" transform="translate(190.869141 0)"/>
      </g>
     </g>
    </g>
    <g id="xtick_3">
     <g id="line2d_5">
      <path d="M 150.92108 386.44 
L 150.92108 7.2 
" clip-path="url(#pc0fb279e95)" style="fill: none; stroke-dasharray: 2.96,1.28; stroke-dashoffset: 0; stroke: #b0b0b0; stroke-opacity: 0.6; stroke-width: 0.8"/>
     </g>
     <g id="line2d_6">
      <g>
       <use xlink:href="#m18cf09ff11" x="150.92108" y="386.44" style="stroke: #000000; stroke-width: 0.8"/>
      </g>
     </g>
     <g id="text_3">
      <!-- 2000 -->
      <g transform="translate(138.19608 401.038437) scale(0.1 -0.1)">
       <defs>
        <path id="DejaVuSans-32" d="M 1228 531 
L 3431 531 
L 3431 0 
L 469 0 
L 469 531 
Q 828 903 1448 1529 
Q 2069 2156 2228 2338 
Q 2531 2678 2651 2914 
Q 2772 3150 2772 3378 
Q 2772 3750 2511 3984 
Q 2250 4219 1831 4219 
Q 1534 4219 1204 4116 
Q 875 4013 500 3803 
L 500 4441 
Q 881 4594 1212 4672 
Q 1544 4750 1819 4750 
Q 2544 4750 2975 4387 
Q 3406 4025 3406 3419 
Q 3406 3131 3298 2873 
Q 3191 2616 2906 2266 
Q 2828 2175 2409 1742 
Q 1991 1309 1228 531 
z
" transform="scale(0.015625)"/>
       </defs>
       <use xlink:href="#DejaVuSans-32"/>
       <use xlink:href="#DejaVuSans-30" transform="translate(63.623047 0)"/>
       <use xlink:href="#DejaVuSans-30" transform="translate(127.246094 0)"/>
       <use xlink:href="#DejaVuSans-30" transform="translate(190.869141 0)"/>
      </g>
     </g>
    </g>
    <g id="xtick_4">
     <g id="line2d_7">
      <path d="M 194.235852 386.44 
L 194.235852 7.2 
" clip-path="url(#pc0fb279e95)" style="fill: none; stroke-dasharray: 2.96,1.28; stroke-dashoffset: 0; stroke: #b0b0b0; stroke-opacity: 0.6; stroke-width: 0.8"/>
     </g>
     <g id="line2d_8">
      <g>
       <use xlink:href="#m18cf09ff11" x="194.235852" y="386.44" style="stroke: #000000; stroke-width: 0.8"/>
      </g>
     </g>
     <g id="text_4">
      <!-- 3000 -->
      <g transform="translate(181.510852 401.038437) scale(0.1 -0.1)">
       <defs>
        <path id="DejaVuSans-33" d="M 2597 2516 
Q 3050 2419 3304 2112 
Q 3559 1806 3559 1356 
Q 3559 666 3084 287 
Q 2609 -91 1734 -91 
Q 1441 -91 1130 -33 
Q 819 25 488 141 
L 488 750 
Q 750 597 1062 519 
Q 1375 441 1716 441 
Q 2309 441 2620 675 
Q 2931 909 2931 1356 
Q 2931 1769 2642 2001 
Q 2353 2234 1838 2234 
L 1294 2234 
L 1294 2753 
L 1863 2753 
Q 2328 2753 2575 2939 
Q 2822 3125 2822 3475 
Q 2822 3834 2567 4026 
Q 2313 4219 1838 4219 
Q 1578 4219 1281 4162 
Q 984 4106 628 3988 
L 628 4550 
Q 988 4650 1302 4700 
Q 1616 4750 1894 4750 
Q 2613 4750 3031 4423 
Q 3450 4097 3450 3541 
Q 3450 3153 3228 2886 
Q 3006 2619 2597 2516 
z
" transform="scale(0.015625)"/>
       </defs>
       <use xlink:href="#DejaVuSans-33"/>
       <use xlink:href="#DejaVuSans-30" transform="translate(63.623047 0)"/>
       <use xlink:href="#DejaVuSans-30" transform="translate(127.246094 0)"/>
       <use xlink:href="#DejaVuSans-30" transform="translate(190.869141 0)"/>
      </g>
     </g>
    </g>
    <g id="xtick_5">
     <g id="line2d_9">
      <path d="M 237.550625 386.44 
L 237.550625 7.2 
" clip-path="url(#pc0fb279e95)" style="fill: none; stroke-dasharray: 2.96,1.28; stroke-dashoffset: 0; stroke: #b0b0b0; stroke-opacity: 0.6; stroke-width: 0.8"/>
     </g>
     <g id="line2d_10">
      <g>
       <use xlink:href="#m18cf09ff11" x="237.550625" y="386.44" style="stroke: #000000; stroke-width: 0.8"/>
      </g>
     </g>
     <g id="text_5">
      <!-- 4000 -->
      <g transform="translate(224.825625 401.038437) scale(0.1 -0.1)">
       <defs>
        <path id="DejaVuSans-34" d="M 2419 4116 
L 825 1625 
L 2419 1625 
L 2419 4116 
z
M 2253 4666 
L 3047 4666 
L 3047 1625 
L 3713 1625 
L 3713 1100 
L 3047 1100 
L 3047 0 
L 2419 0 
L 2419 1100 
L 313 1100 
L 313 1709 
L 2253 4666 
z
" transform="scale(0.015625)"/>
       </defs>
       <use xlink:href="#DejaVuSans-34"/>
       <use xlink:href="#DejaVuSans-30" transform="translate(63.623047 0)"/>
       <use xlink:href="#DejaVuSans-30" transform="translate(127.246094 0)"/>
       <use xlink:href="#DejaVuSans-30" transform="translate(190.869141 0)"/>
      </g>
     </g>
    </g>
    <g id="xtick_6">
     <g id="line2d_11">
      <path d="M 280.865398 386.44 
L 280.865398 7.2 
" clip-path="url(#pc0fb279e95)" style="fill: none; stroke-dasharray: 2.96,1.28; stroke-dashoffset: 0; stroke: #b0b0b0; stroke-opacity: 0.6; stroke-width: 0.8"/>
     </g>
     <g id="line2d_12">
      <g>
       <use xlink:href="#m18cf09ff11" x="280.865398" y="386.44" style="stroke: #000000; stroke-width: 0.8"/>
      </g>
     </g>
     <g id="text_6">
      <!-- 5000 -->
      <g transform="translate(268.140398 401.038437) scale(0.1 -0.1)">
       <defs>
        <path id="DejaVuSans-35" d="M 691 4666 
L 3169 4666 
L 3169 4134 
L 1269 4134 
L 1269 2991 
Q 1406 3038 1543 3061 
Q 1681 3084 1819 3084 
Q 2600 3084 3056 2656 
Q 3513 2228 3513 1497 
Q 3513 744 3044 326 
Q 2575 -91 1722 -91 
Q 1428 -91 1123 -41 
Q 819 9 494 109 
L 494 744 
Q 775 591 1075 516 
Q 1375 441 1709 441 
Q 2250 441 2565 725 
Q 2881 1009 2881 1497 
Q 2881 1984 2565 2268 
Q 2250 2553 1709 2553 
Q 1456 2553 1204 2497 
Q 953 2441 691 2322 
L 691 4666 
z
" transform="scale(0.015625)"/>
       </defs>
       <use xlink:href="#DejaVuSans-35"/>
       <use xlink:href="#DejaVuSans-30" transform="translate(63.623047 0)"/>
       <use xlink:href="#DejaVuSans-30" transform="translate(127.246094 0)"/>
       <use xlink:href="#DejaVuSans-30" transform="translate(190.869141 0)"/>
      </g>
     </g>
    </g>
    <g id="xtick_7">
     <g id="line2d_13">
      <path d="M 324.18017 386.44 
L 324.18017 7.2 
" clip-path="url(#pc0fb279e95)" style="fill: none; stroke-dasharray: 2.96,1.28; stroke-dashoffset: 0; stroke: #b0b0b0; stroke-opacity: 0.6; stroke-width: 0.8"/>
     </g>
     <g id="line2d_14">
      <g>
       <use xlink:href="#m18cf09ff11" x="324.18017" y="386.44" style="stroke: #000000; stroke-width: 0.8"/>
      </g>
     </g>
     <g id="text_7">
      <!-- 6000 -->
      <g transform="translate(311.45517 401.038437) scale(0.1 -0.1)">
       <defs>
        <path id="DejaVuSans-36" d="M 2113 2584 
Q 1688 2584 1439 2293 
Q 1191 2003 1191 1497 
Q 1191 994 1439 701 
Q 1688 409 2113 409 
Q 2538 409 2786 701 
Q 3034 994 3034 1497 
Q 3034 2003 2786 2293 
Q 2538 2584 2113 2584 
z
M 3366 4563 
L 3366 3988 
Q 3128 4100 2886 4159 
Q 2644 4219 2406 4219 
Q 1781 4219 1451 3797 
Q 1122 3375 1075 2522 
Q 1259 2794 1537 2939 
Q 1816 3084 2150 3084 
Q 2853 3084 3261 2657 
Q 3669 2231 3669 1497 
Q 3669 778 3244 343 
Q 2819 -91 2113 -91 
Q 1303 -91 875 529 
Q 447 1150 447 2328 
Q 447 3434 972 4092 
Q 1497 4750 2381 4750 
Q 2619 4750 2861 4703 
Q 3103 4656 3366 4563 
z
" transform="scale(0.015625)"/>
       </defs>
       <use xlink:href="#DejaVuSans-36"/>
       <use xlink:href="#DejaVuSans-30" transform="translate(63.623047 0)"/>
       <use xlink:href="#DejaVuSans-30" transform="translate(127.246094 0)"/>
       <use xlink:href="#DejaVuSans-30" transform="translate(190.869141 0)"/>
      </g>
     </g>
    </g>
    <g id="xtick_8">
     <g id="line2d_15">
      <path d="M 367.494943 386.44 
L 367.494943 7.2 
" clip-path="url(#pc0fb279e95)" style="fill: none; stroke-dasharray: 2.96,1.28; stroke-dashoffset: 0; stroke: #b0b0b0; stroke-opacity: 0.6; stroke-width: 0.8"/>
     </g>
     <g id="line2d_16">
      <g>
       <use xlink:href="#m18cf09ff11" x="367.494943" y="386.44" style="stroke: #000000; stroke-width: 0.8"/>
      </g>
     </g>
     <g id="text_8">
      <!-- 7000 -->
      <g transform="translate(354.769943 401.038437) scale(0.1 -0.1)">
       <defs>
        <path id="DejaVuSans-37" d="M 525 4666 
L 3525 4666 
L 3525 4397 
L 1831 0 
L 1172 0 
L 2766 4134 
L 525 4134 
L 525 4666 
z
" transform="scale(0.015625)"/>
       </defs>
       <use xlink:href="#DejaVuSans-37"/>
       <use xlink:href="#DejaVuSans-30" transform="translate(63.623047 0)"/>
       <use xlink:href="#DejaVuSans-30" transform="translate(127.246094 0)"/>
       <use xlink:href="#DejaVuSans-30" transform="translate(190.869141 0)"/>
      </g>
     </g>
    </g>
    <g id="xtick_9">
     <g id="line2d_17">
      <path d="M 410.809716 386.44 
L 410.809716 7.2 
" clip-path="url(#pc0fb279e95)" style="fill: none; stroke-dasharray: 2.96,1.28; stroke-dashoffset: 0; stroke: #b0b0b0; stroke-opacity: 0.6; stroke-width: 0.8"/>
     </g>
     <g id="line2d_18">
      <g>
       <use xlink:href="#m18cf09ff11" x="410.809716" y="386.44" style="stroke: #000000; stroke-width: 0.8"/>
      </g>
     </g>
     <g id="text_9">
      <!-- 8000 -->
      <g transform="translate(398.084716 401.038437) scale(0.1 -0.1)">
       <defs>
        <path id="DejaVuSans-38" d="M 2034 2216 
Q 1584 2216 1326 1975 
Q 1069 1734 1069 1313 
Q 1069 891 1326 650 
Q 1584 409 2034 409 
Q 2484 409 2743 651 
Q 3003 894 3003 1313 
Q 3003 1734 2745 1975 
Q 2488 2216 2034 2216 
z
M 1403 2484 
Q 997 2584 770 2862 
Q 544 3141 544 3541 
Q 544 4100 942 4425 
Q 1341 4750 2034 4750 
Q 2731 4750 3128 4425 
Q 3525 4100 3525 3541 
Q 3525 3141 3298 2862 
Q 3072 2584 2669 2484 
Q 3125 2378 3379 2068 
Q 3634 1759 3634 1313 
Q 3634 634 3220 271 
Q 2806 -91 2034 -91 
Q 1263 -91 848 271 
Q 434 634 434 1313 
Q 434 1759 690 2068 
Q 947 2378 1403 2484 
z
M 1172 3481 
Q 1172 3119 1398 2916 
Q 1625 2713 2034 2713 
Q 2441 2713 2670 2916 
Q 2900 3119 2900 3481 
Q 2900 3844 2670 4047 
Q 2441 4250 2034 4250 
Q 1625 4250 1398 4047 
Q 1172 3844 1172 3481 
z
" transform="scale(0.015625)"/>
       </defs>
       <use xlink:href="#DejaVuSans-38"/>
       <use xlink:href="#DejaVuSans-30" transform="translate(63.623047 0)"/>
       <use xlink:href="#DejaVuSans-30" transform="translate(127.246094 0)"/>
       <use xlink:href="#DejaVuSans-30" transform="translate(190.869141 0)"/>
      </g>
     </g>
    </g>
    <g id="text_10">
     <!-- Distance from terminus [nt] -->
     <g transform="translate(168.051406 414.716562) scale(0.1 -0.1)">
      <defs>
       <path id="DejaVuSans-44" d="M 1259 4147 
L 1259 519 
L 2022 519 
Q 2988 519 3436 956 
Q 3884 1394 3884 2338 
Q 3884 3275 3436 3711 
Q 2988 4147 2022 4147 
L 1259 4147 
z
M 628 4666 
L 1925 4666 
Q 3281 4666 3915 4102 
Q 4550 3538 4550 2338 
Q 4550 1131 3912 565 
Q 3275 0 1925 0 
L 628 0 
L 628 4666 
z
" transform="scale(0.015625)"/>
       <path id="DejaVuSans-69" d="M 603 3500 
L 1178 3500 
L 1178 0 
L 603 0 
L 603 3500 
z
M 603 4863 
L 1178 4863 
L 1178 4134 
L 603 4134 
L 603 4863 
z
" transform="scale(0.015625)"/>
       <path id="DejaVuSans-73" d="M 2834 3397 
L 2834 2853 
Q 2591 2978 2328 3040 
Q 2066 3103 1784 3103 
Q 1356 3103 1142 2972 
Q 928 2841 928 2578 
Q 928 2378 1081 2264 
Q 1234 2150 1697 2047 
L 1894 2003 
Q 2506 1872 2764 1633 
Q 3022 1394 3022 966 
Q 3022 478 2636 193 
Q 2250 -91 1575 -91 
Q 1294 -91 989 -36 
Q 684 19 347 128 
L 347 722 
Q 666 556 975 473 
Q 1284 391 1588 391 
Q 1994 391 2212 530 
Q 2431 669 2431 922 
Q 2431 1156 2273 1281 
Q 2116 1406 1581 1522 
L 1381 1569 
Q 847 1681 609 1914 
Q 372 2147 372 2553 
Q 372 3047 722 3315 
Q 1072 3584 1716 3584 
Q 2034 3584 2315 3537 
Q 2597 3491 2834 3397 
z
" transform="scale(0.015625)"/>
       <path id="DejaVuSans-74" d="M 1172 4494 
L 1172 3500 
L 2356 3500 
L 2356 3053 
L 1172 3053 
L 1172 1153 
Q 1172 725 1289 603 
Q 1406 481 1766 481 
L 2356 481 
L 2356 0 
L 1766 0 
Q 1100 0 847 248 
Q 594 497 594 1153 
L 594 3053 
L 172 3053 
L 172 3500 
L 594 3500 
L 594 4494 
L 1172 4494 
z
" transform="scale(0.015625)"/>
       <path id="DejaVuSans-61" d="M 2194 1759 
Q 1497 1759 1228 1600 
Q 959 1441 959 1056 
Q 959 750 1161 570 
Q 1363 391 1709 391 
Q 2188 391 2477 730 
Q 2766 1069 2766 1631 
L 2766 1759 
L 2194 1759 
z
M 3341 1997 
L 3341 0 
L 2766 0 
L 2766 531 
Q 2569 213 2275 61 
Q 1981 -91 1556 -91 
Q 1019 -91 701 211 
Q 384 513 384 1019 
Q 384 1609 779 1909 
Q 1175 2209 1959 2209 
L 2766 2209 
L 2766 2266 
Q 2766 2663 2505 2880 
Q 2244 3097 1772 3097 
Q 1472 3097 1187 3025 
Q 903 2953 641 2809 
L 641 3341 
Q 956 3463 1253 3523 
Q 1550 3584 1831 3584 
Q 2591 3584 2966 3190 
Q 3341 2797 3341 1997 
z
" transform="scale(0.015625)"/>
       <path id="DejaVuSans-6e" d="M 3513 2113 
L 3513 0 
L 2938 0 
L 2938 2094 
Q 2938 2591 2744 2837 
Q 2550 3084 2163 3084 
Q 1697 3084 1428 2787 
Q 1159 2491 1159 1978 
L 1159 0 
L 581 0 
L 581 3500 
L 1159 3500 
L 1159 2956 
Q 1366 3272 1645 3428 
Q 1925 3584 2291 3584 
Q 2894 3584 3203 3211 
Q 3513 2838 3513 2113 
z
" transform="scale(0.015625)"/>
       <path id="DejaVuSans-63" d="M 3122 3366 
L 3122 2828 
Q 2878 2963 2633 3030 
Q 2388 3097 2138 3097 
Q 1578 3097 1268 2742 
Q 959 2388 959 1747 
Q 959 1106 1268 751 
Q 1578 397 2138 397 
Q 2388 397 2633 464 
Q 2878 531 3122 666 
L 3122 134 
Q 2881 22 2623 -34 
Q 2366 -91 2075 -91 
Q 1284 -91 818 406 
Q 353 903 353 1747 
Q 353 2603 823 3093 
Q 1294 3584 2113 3584 
Q 2378 3584 2631 3529 
Q 2884 3475 3122 3366 
z
" transform="scale(0.015625)"/>
       <path id="DejaVuSans-65" d="M 3597 1894 
L 3597 1613 
L 953 1613 
Q 991 1019 1311 708 
Q 1631 397 2203 397 
Q 2534 397 2845 478 
Q 3156 559 3463 722 
L 3463 178 
Q 3153 47 2828 -22 
Q 2503 -91 2169 -91 
Q 1331 -91 842 396 
Q 353 884 353 1716 
Q 353 2575 817 3079 
Q 1281 3584 2069 3584 
Q 2775 3584 3186 3129 
Q 3597 2675 3597 1894 
z
M 3022 2063 
Q 3016 2534 2758 2815 
Q 2500 3097 2075 3097 
Q 1594 3097 1305 2825 
Q 1016 2553 972 2059 
L 3022 2063 
z
" transform="scale(0.015625)"/>
       <path id="DejaVuSans-20" transform="scale(0.015625)"/>
       <path id="DejaVuSans-66" d="M 2375 4863 
L 2375 4384 
L 1825 4384 
Q 1516 4384 1395 4259 
Q 1275 4134 1275 3809 
L 1275 3500 
L 2222 3500 
L 2222 3053 
L 1275 3053 
L 1275 0 
L 697 0 
L 697 3053 
L 147 3053 
L 147 3500 
L 697 3500 
L 697 3744 
Q 697 4328 969 4595 
Q 1241 4863 1831 4863 
L 2375 4863 
z
" transform="scale(0.015625)"/>
       <path id="DejaVuSans-72" d="M 2631 2963 
Q 2534 3019 2420 3045 
Q 2306 3072 2169 3072 
Q 1681 3072 1420 2755 
Q 1159 2438 1159 1844 
L 1159 0 
L 581 0 
L 581 3500 
L 1159 3500 
L 1159 2956 
Q 1341 3275 1631 3429 
Q 1922 3584 2338 3584 
Q 2397 3584 2469 3576 
Q 2541 3569 2628 3553 
L 2631 2963 
z
" transform="scale(0.015625)"/>
       <path id="DejaVuSans-6f" d="M 1959 3097 
Q 1497 3097 1228 2736 
Q 959 2375 959 1747 
Q 959 1119 1226 758 
Q 1494 397 1959 397 
Q 2419 397 2687 759 
Q 2956 1122 2956 1747 
Q 2956 2369 2687 2733 
Q 2419 3097 1959 3097 
z
M 1959 3584 
Q 2709 3584 3137 3096 
Q 3566 2609 3566 1747 
Q 3566 888 3137 398 
Q 2709 -91 1959 -91 
Q 1206 -91 779 398 
Q 353 888 353 1747 
Q 353 2609 779 3096 
Q 1206 3584 1959 3584 
z
" transform="scale(0.015625)"/>
       <path id="DejaVuSans-6d" d="M 3328 2828 
Q 3544 3216 3844 3400 
Q 4144 3584 4550 3584 
Q 5097 3584 5394 3201 
Q 5691 2819 5691 2113 
L 5691 0 
L 5113 0 
L 5113 2094 
Q 5113 2597 4934 2840 
Q 4756 3084 4391 3084 
Q 3944 3084 3684 2787 
Q 3425 2491 3425 1978 
L 3425 0 
L 2847 0 
L 2847 2094 
Q 2847 2600 2669 2842 
Q 2491 3084 2119 3084 
Q 1678 3084 1418 2786 
Q 1159 2488 1159 1978 
L 1159 0 
L 581 0 
L 581 3500 
L 1159 3500 
L 1159 2956 
Q 1356 3278 1631 3431 
Q 1906 3584 2284 3584 
Q 2666 3584 2933 3390 
Q 3200 3197 3328 2828 
z
" transform="scale(0.015625)"/>
       <path id="DejaVuSans-75" d="M 544 1381 
L 544 3500 
L 1119 3500 
L 1119 1403 
Q 1119 906 1312 657 
Q 1506 409 1894 409 
Q 2359 409 2629 706 
Q 2900 1003 2900 1516 
L 2900 3500 
L 3475 3500 
L 3475 0 
L 2900 0 
L 2900 538 
Q 2691 219 2414 64 
Q 2138 -91 1772 -91 
Q 1169 -91 856 284 
Q 544 659 544 1381 
z
M 1991 3584 
L 1991 3584 
z
" transform="scale(0.015625)"/>
       <path id="DejaVuSans-5b" d="M 550 4863 
L 1875 4863 
L 1875 4416 
L 1125 4416 
L 1125 -397 
L 1875 -397 
L 1875 -844 
L 550 -844 
L 550 4863 
z
" transform="scale(0.015625)"/>
       <path id="DejaVuSans-5d" d="M 1947 4863 
L 1947 -844 
L 622 -844 
L 622 -397 
L 1369 -397 
L 1369 4416 
L 622 4416 
L 622 4863 
L 1947 4863 
z
" transform="scale(0.015625)"/>
      </defs>
      <use xlink:href="#DejaVuSans-44"/>
      <use xlink:href="#DejaVuSans-69" transform="translate(77.001953 0)"/>
      <use xlink:href="#DejaVuSans-73" transform="translate(104.785156 0)"/>
      <use xlink:href="#DejaVuSans-74" transform="translate(156.884766 0)"/>
      <use xlink:href="#DejaVuSans-61" transform="translate(196.09375 0)"/>
      <use xlink:href="#DejaVuSans-6e" transform="translate(257.373047 0)"/>
      <use xlink:href="#DejaVuSans-63" transform="translate(320.751953 0)"/>
      <use xlink:href="#DejaVuSans-65" transform="translate(375.732422 0)"/>
      <use xlink:href="#DejaVuSans-20" transform="translate(437.255859 0)"/>
      <use xlink:href="#DejaVuSans-66" transform="translate(469.042969 0)"/>
      <use xlink:href="#DejaVuSans-72" transform="translate(504.248047 0)"/>
      <use xlink:href="#DejaVuSans-6f" transform="translate(543.111328 0)"/>
      <use xlink:href="#DejaVuSans-6d" transform="translate(604.292969 0)"/>
      <use xlink:href="#DejaVuSans-20" transform="translate(701.705078 0)"/>
      <use xlink:href="#DejaVuSans-74" transform="translate(733.492188 0)"/>
      <use xlink:href="#DejaVuSans-65" transform="translate(772.701172 0)"/>
      <use xlink:href="#DejaVuSans-72" transform="translate(834.224609 0)"/>
      <use xlink:href="#DejaVuSans-6d" transform="translate(873.587891 0)"/>
      <use xlink:href="#DejaVuSans-69" transform="translate(971 0)"/>
      <use xlink:href="#DejaVuSans-6e" transform="translate(998.783203 0)"/>
      <use xlink:href="#DejaVuSans-75" transform="translate(1062.162109 0)"/>
      <use xlink:href="#DejaVuSans-73" transform="translate(1125.541016 0)"/>
      <use xlink:href="#DejaVuSans-20" transform="translate(1177.640625 0)"/>
      <use xlink:href="#DejaVuSans-5b" transform="translate(1209.427734 0)"/>
      <use xlink:href="#DejaVuSans-6e" transform="translate(1248.441406 0)"/>
      <use xlink:href="#DejaVuSans-74" transform="translate(1311.820312 0)"/>
      <use xlink:href="#DejaVuSans-5d" transform="translate(1351.029297 0)"/>
     </g>
    </g>
   </g>
   <g id="matplotlib.axis_2">
    <g id="ytick_1">
     <g id="line2d_19">
      <path d="M 46.965625 369.201818 
L 428.135625 369.201818 
" clip-path="url(#pc0fb279e95)" style="fill: none; stroke-dasharray: 2.96,1.28; stroke-dashoffset: 0; stroke: #b0b0b0; stroke-opacity: 0.6; stroke-width: 0.8"/>
     </g>
     <g id="line2d_20">
      <defs>
       <path id="m7e148105a9" d="M 0 0 
L -3.5 0 
" style="stroke: #000000; stroke-width: 0.8"/>
      </defs>
      <g>
       <use xlink:href="#m7e148105a9" x="46.965625" y="369.201818" style="stroke: #000000; stroke-width: 0.8"/>
      </g>
     </g>
     <g id="text_11">
      <!-- 0 -->
      <g transform="translate(33.603125 373.001037) scale(0.1 -0.1)">
       <use xlink:href="#DejaVuSans-30"/>
      </g>
     </g>
    </g>
    <g id="ytick_2">
     <g id="line2d_21">
      <path d="M 46.965625 299.080401 
L 428.135625 299.080401 
" clip-path="url(#pc0fb279e95)" style="fill: none; stroke-dasharray: 2.96,1.28; stroke-dashoffset: 0; stroke: #b0b0b0; stroke-opacity: 0.6; stroke-width: 0.8"/>
     </g>
     <g id="line2d_22">
      <g>
       <use xlink:href="#m7e148105a9" x="46.965625" y="299.080401" style="stroke: #000000; stroke-width: 0.8"/>
      </g>
     </g>
     <g id="text_12">
      <!-- 20 -->
      <g transform="translate(27.240625 302.879619) scale(0.1 -0.1)">
       <use xlink:href="#DejaVuSans-32"/>
       <use xlink:href="#DejaVuSans-30" transform="translate(63.623047 0)"/>
      </g>
     </g>
    </g>
    <g id="ytick_3">
     <g id="line2d_23">
      <path d="M 46.965625 228.958983 
L 428.135625 228.958983 
" clip-path="url(#pc0fb279e95)" style="fill: none; stroke-dasharray: 2.96,1.28; stroke-dashoffset: 0; stroke: #b0b0b0; stroke-opacity: 0.6; stroke-width: 0.8"/>
     </g>
     <g id="line2d_24">
      <g>
       <use xlink:href="#m7e148105a9" x="46.965625" y="228.958983" style="stroke: #000000; stroke-width: 0.8"/>
      </g>
     </g>
     <g id="text_13">
      <!-- 40 -->
      <g transform="translate(27.240625 232.758202) scale(0.1 -0.1)">
       <use xlink:href="#DejaVuSans-34"/>
       <use xlink:href="#DejaVuSans-30" transform="translate(63.623047 0)"/>
      </g>
     </g>
    </g>
    <g id="ytick_4">
     <g id="line2d_25">
      <path d="M 46.965625 158.837565 
L 428.135625 158.837565 
" clip-path="url(#pc0fb279e95)" style="fill: none; stroke-dasharray: 2.96,1.28; stroke-dashoffset: 0; stroke: #b0b0b0; stroke-opacity: 0.6; stroke-width: 0.8"/>
     </g>
     <g id="line2d_26">
      <g>
       <use xlink:href="#m7e148105a9" x="46.965625" y="158.837565" style="stroke: #000000; stroke-width: 0.8"/>
      </g>
     </g>
     <g id="text_14">
      <!-- 60 -->
      <g transform="translate(27.240625 162.636784) scale(0.1 -0.1)">
       <use xlink:href="#DejaVuSans-36"/>
       <use xlink:href="#DejaVuSans-30" transform="translate(63.623047 0)"/>
      </g>
     </g>
    </g>
    <g id="ytick_5">
     <g id="line2d_27">
      <path d="M 46.965625 88.716148 
L 428.135625 88.716148 
" clip-path="url(#pc0fb279e95)" style="fill: none; stroke-dasharray: 2.96,1.28; stroke-dashoffset: 0; stroke: #b0b0b0; stroke-opacity: 0.6; stroke-width: 0.8"/>
     </g>
     <g id="line2d_28">
      <g>
       <use xlink:href="#m7e148105a9" x="46.965625" y="88.716148" style="stroke: #000000; stroke-width: 0.8"/>
      </g>
     </g>
     <g id="text_15">
      <!-- 80 -->
      <g transform="translate(27.240625 92.515367) scale(0.1 -0.1)">
       <use xlink:href="#DejaVuSans-38"/>
       <use xlink:href="#DejaVuSans-30" transform="translate(63.623047 0)"/>
      </g>
     </g>
    </g>
    <g id="ytick_6">
     <g id="line2d_29">
      <path d="M 46.965625 18.59473 
L 428.135625 18.59473 
" clip-path="url(#pc0fb279e95)" style="fill: none; stroke-dasharray: 2.96,1.28; stroke-dashoffset: 0; stroke: #b0b0b0; stroke-opacity: 0.6; stroke-width: 0.8"/>
     </g>
     <g id="line2d_30">
      <g>
       <use xlink:href="#m7e148105a9" x="46.965625" y="18.59473" style="stroke: #000000; stroke-width: 0.8"/>
      </g>
     </g>
     <g id="text_16">
      <!-- 100 -->
      <g transform="translate(20.878125 22.393949) scale(0.1 -0.1)">
       <use xlink:href="#DejaVuSans-31"/>
       <use xlink:href="#DejaVuSans-30" transform="translate(63.623047 0)"/>
       <use xlink:href="#DejaVuSans-30" transform="translate(127.246094 0)"/>
      </g>
     </g>
    </g>
    <g id="text_17">
     <!-- Average cumulative count -->
     <g transform="translate(14.798438 262.4325) rotate(-90) scale(0.1 -0.1)">
      <defs>
       <path id="DejaVuSans-41" d="M 2188 4044 
L 1331 1722 
L 3047 1722 
L 2188 4044 
z
M 1831 4666 
L 2547 4666 
L 4325 0 
L 3669 0 
L 3244 1197 
L 1141 1197 
L 716 0 
L 50 0 
L 1831 4666 
z
" transform="scale(0.015625)"/>
       <path id="DejaVuSans-76" d="M 191 3500 
L 800 3500 
L 1894 563 
L 2988 3500 
L 3597 3500 
L 2284 0 
L 1503 0 
L 191 3500 
z
" transform="scale(0.015625)"/>
       <path id="DejaVuSans-67" d="M 2906 1791 
Q 2906 2416 2648 2759 
Q 2391 3103 1925 3103 
Q 1463 3103 1205 2759 
Q 947 2416 947 1791 
Q 947 1169 1205 825 
Q 1463 481 1925 481 
Q 2391 481 2648 825 
Q 2906 1169 2906 1791 
z
M 3481 434 
Q 3481 -459 3084 -895 
Q 2688 -1331 1869 -1331 
Q 1566 -1331 1297 -1286 
Q 1028 -1241 775 -1147 
L 775 -588 
Q 1028 -725 1275 -790 
Q 1522 -856 1778 -856 
Q 2344 -856 2625 -561 
Q 2906 -266 2906 331 
L 2906 616 
Q 2728 306 2450 153 
Q 2172 0 1784 0 
Q 1141 0 747 490 
Q 353 981 353 1791 
Q 353 2603 747 3093 
Q 1141 3584 1784 3584 
Q 2172 3584 2450 3431 
Q 2728 3278 2906 2969 
L 2906 3500 
L 3481 3500 
L 3481 434 
z
" transform="scale(0.015625)"/>
       <path id="DejaVuSans-6c" d="M 603 4863 
L 1178 4863 
L 1178 0 
L 603 0 
L 603 4863 
z
" transform="scale(0.015625)"/>
      </defs>
      <use xlink:href="#DejaVuSans-41"/>
      <use xlink:href="#DejaVuSans-76" transform="translate(62.533203 0)"/>
      <use xlink:href="#DejaVuSans-65" transform="translate(121.712891 0)"/>
      <use xlink:href="#DejaVuSans-72" transform="translate(183.236328 0)"/>
      <use xlink:href="#DejaVuSans-61" transform="translate(224.349609 0)"/>
      <use xlink:href="#DejaVuSans-67" transform="translate(285.628906 0)"/>
      <use xlink:href="#DejaVuSans-65" transform="translate(349.105469 0)"/>
      <use xlink:href="#DejaVuSans-20" transform="translate(410.628906 0)"/>
      <use xlink:href="#DejaVuSans-63" transform="translate(442.416016 0)"/>
      <use xlink:href="#DejaVuSans-75" transform="translate(497.396484 0)"/>
      <use xlink:href="#DejaVuSans-6d" transform="translate(560.775391 0)"/>
      <use xlink:href="#DejaVuSans-75" transform="translate(658.1875 0)"/>
      <use xlink:href="#DejaVuSans-6c" transform="translate(721.566406 0)"/>
      <use xlink:href="#DejaVuSans-61" transform="translate(749.349609 0)"/>
      <use xlink:href="#DejaVuSans-74" transform="translate(810.628906 0)"/>
      <use xlink:href="#DejaVuSans-69" transform="translate(849.837891 0)"/>
      <use xlink:href="#DejaVuSans-76" transform="translate(877.621094 0)"/>
      <use xlink:href="#DejaVuSans-65" transform="translate(936.800781 0)"/>
      <use xlink:href="#DejaVuSans-20" transform="translate(998.324219 0)"/>
      <use xlink:href="#DejaVuSans-63" transform="translate(1030.111328 0)"/>
      <use xlink:href="#DejaVuSans-6f" transform="translate(1085.091797 0)"/>
      <use xlink:href="#DejaVuSans-75" transform="translate(1146.273438 0)"/>
      <use xlink:href="#DejaVuSans-6e" transform="translate(1209.652344 0)"/>
      <use xlink:href="#DejaVuSans-74" transform="translate(1273.03125 0)"/>
     </g>
    </g>
   </g>
   <g id="line2d_31">
    <path d="M 64.291534 369.201818 
L 68.96953 369.201818 
L 69.099474 368.033128 
L 74.643765 368.033128 
L 74.773709 366.864438 
L 74.946968 366.864438 
L 75.076913 365.695747 
L 83.22009 365.695747 
L 83.350034 364.527057 
L 83.783182 364.527057 
L 83.913126 363.358367 
L 85.429143 363.358367 
L 85.559088 362.189676 
L 85.602402 362.189676 
L 85.775661 359.852296 
L 86.03555 359.852296 
L 86.165494 358.683606 
L 95.174967 358.683606 
L 95.304911 357.514915 
L 95.47817 357.514915 
L 95.608115 356.346225 
L 96.734299 356.346225 
L 96.864243 355.177535 
L 97.037502 355.177535 
L 97.167447 354.008844 
L 97.340706 354.008844 
L 97.47065 352.840154 
L 97.687224 352.840154 
L 97.817168 351.671464 
L 98.077057 351.671464 
L 98.207001 350.502773 
L 98.423575 350.502773 
L 98.553519 349.334083 
L 99.636389 349.334083 
L 99.766333 348.165393 
L 100.37274 348.165393 
L 100.502684 346.996703 
L 101.932072 346.996703 
L 102.062016 345.828012 
L 102.235275 345.828012 
L 102.365219 344.659322 
L 104.487643 344.659322 
L 104.617587 343.490632 
L 105.050735 343.490632 
L 105.18068 342.321941 
L 105.353939 342.321941 
L 105.483883 341.153251 
L 107.303103 341.153251 
L 107.433048 339.984561 
L 112.024414 339.984561 
L 112.154358 338.815871 
L 113.367172 338.815871 
L 113.497116 337.64718 
L 114.450041 337.64718 
L 114.579985 336.47849 
L 114.753244 336.47849 
L 114.883189 335.3098 
L 118.34837 335.3098 
L 118.52163 332.972419 
L 118.651574 332.972419 
L 118.781518 331.803729 
L 118.954777 331.803729 
L 119.084722 330.635039 
L 119.734443 330.635039 
L 119.864387 329.466348 
L 120.037647 329.466348 
L 120.167591 328.297658 
L 120.25422 328.297658 
L 120.384165 327.128968 
L 120.773998 327.128968 
L 120.903942 325.960277 
L 121.077201 325.960277 
L 121.207145 324.791587 
L 121.900182 324.791587 
L 122.030126 323.622897 
L 125.928456 323.622897 
L 126.0584 322.454206 
L 129.696841 322.454206 
L 129.826785 321.285516 
L 131.082914 321.285516 
L 131.212858 320.116826 
L 131.386117 320.116826 
L 131.516061 318.948136 
L 132.555616 318.948136 
L 132.68556 317.779445 
L 133.465226 317.779445 
L 133.59517 316.610755 
L 136.020798 316.610755 
L 136.150742 315.442065 
L 136.540575 315.442065 
L 136.670519 314.273374 
L 173.271502 314.273374 
L 173.401447 313.104684 
L 179.50883 313.104684 
L 179.638774 311.935994 
L 191.593651 311.935994 
L 191.723595 310.767304 
L 192.156743 310.767304 
L 192.286687 309.598613 
L 202.985436 309.598613 
L 203.115381 308.429923 
L 216.499645 308.429923 
L 216.62959 307.261233 
L 218.188922 307.261233 
L 218.318866 306.092542 
L 258.038513 306.092542 
L 258.168457 304.923852 
L 272.852165 304.923852 
L 272.982109 303.755162 
L 410.766401 303.755162 
L 410.766401 303.755162 
" clip-path="url(#pc0fb279e95)" style="fill: none; stroke: #add8e6; stroke-width: 2; stroke-linecap: square"/>
   </g>
   <g id="line2d_32">
    <path d="M 64.291534 369.201818 
L 65.461033 369.201818 
L 65.590977 368.033128 
L 66.240699 368.033128 
L 66.370643 365.695747 
L 67.583457 365.695747 
L 67.756716 363.358367 
L 68.319808 363.358367 
L 68.449752 362.189676 
L 68.752956 362.189676 
L 68.8829 361.020986 
L 69.012844 361.020986 
L 69.142789 359.852296 
L 69.272733 359.852296 
L 69.402677 358.683606 
L 69.662566 358.683606 
L 69.79251 357.514915 
L 69.965769 357.514915 
L 70.095714 356.346225 
L 70.615491 356.346225 
L 70.78875 354.008844 
L 70.87538 354.008844 
L 71.048639 351.671464 
L 71.135268 351.671464 
L 71.308527 349.334083 
L 71.568416 349.334083 
L 71.69836 348.165393 
L 71.828305 348.165393 
L 71.958249 346.996703 
L 72.088193 346.996703 
L 72.218137 345.828012 
L 72.391397 345.828012 
L 72.521341 344.659322 
L 72.651285 344.659322 
L 72.824544 342.321941 
L 73.171063 342.321941 
L 73.301007 341.153251 
L 73.430951 341.153251 
L 73.560895 339.984561 
L 73.69084 339.984561 
L 73.820784 338.815871 
L 74.557135 338.815871 
L 74.730394 336.47849 
L 74.990283 336.47849 
L 75.120227 335.3098 
L 75.250172 335.3098 
L 75.380116 334.141109 
L 75.466745 334.141109 
L 75.59669 332.972419 
L 76.246411 332.972419 
L 76.376356 331.803729 
L 76.5063 331.803729 
L 76.636244 330.635039 
L 76.896133 330.635039 
L 77.026077 329.466348 
L 77.069392 329.466348 
L 77.242651 327.128968 
L 77.329281 327.128968 
L 77.459225 325.960277 
L 77.892373 325.960277 
L 78.022317 324.791587 
L 78.152261 324.791587 
L 78.282206 323.622897 
L 78.41215 323.622897 
L 78.542094 322.454206 
L 78.672039 322.454206 
L 78.801983 320.116826 
L 78.931927 320.116826 
L 79.105186 317.779445 
L 79.235131 317.779445 
L 79.365075 316.610755 
L 79.495019 316.610755 
L 79.624964 315.442065 
L 79.711593 315.442065 
L 79.841538 314.273374 
L 79.971482 314.273374 
L 80.101426 313.104684 
L 80.188056 313.104684 
L 80.361315 310.767304 
L 80.447944 310.767304 
L 80.664518 307.261233 
L 80.751148 307.261233 
L 80.881092 306.092542 
L 81.054351 306.092542 
L 81.270925 302.586471 
L 81.357555 302.586471 
L 81.574128 299.080401 
L 81.834017 299.080401 
L 81.963961 297.91171 
L 82.353794 297.91171 
L 82.483739 296.74302 
L 82.743627 296.74302 
L 82.873572 295.57433 
L 82.916886 295.57433 
L 83.046831 294.405639 
L 83.263405 294.405639 
L 83.393349 293.236949 
L 83.826497 293.236949 
L 83.956441 292.068259 
L 84.1297 292.068259 
L 84.259644 290.899569 
L 84.649477 290.899569 
L 84.779422 288.562188 
L 84.909366 288.562188 
L 85.03931 287.393498 
L 85.472458 287.393498 
L 85.602402 286.224807 
L 85.645717 286.224807 
L 85.818976 283.887427 
L 86.078865 283.887427 
L 86.252124 281.550046 
L 86.728586 281.550046 
L 86.858531 280.381356 
L 86.988475 280.381356 
L 87.161734 278.043975 
L 87.768141 278.043975 
L 87.898085 276.875285 
L 88.071344 276.875285 
L 88.201289 275.706595 
L 88.331233 275.706595 
L 88.461177 274.537904 
L 88.634436 274.537904 
L 88.764381 273.369214 
L 88.894325 273.369214 
L 89.067584 271.031834 
L 89.154214 271.031834 
L 89.327473 268.694453 
L 89.457417 268.694453 
L 89.587361 266.357072 
L 89.717306 266.357072 
L 89.84725 265.188382 
L 90.020509 265.188382 
L 90.150453 264.019692 
L 90.323712 264.019692 
L 90.453657 262.851002 
L 90.583601 262.851002 
L 90.713545 261.682311 
L 90.84349 261.682311 
L 90.973434 260.513621 
L 91.406582 260.513621 
L 91.536526 259.344931 
L 91.579841 259.344931 
L 91.709785 258.17624 
L 93.139173 258.17624 
L 93.269117 257.00755 
L 93.57232 257.00755 
L 93.702265 255.83886 
L 94.135413 255.83886 
L 94.265357 254.670169 
L 94.395301 254.670169 
L 94.56856 252.332789 
L 95.218282 252.332789 
L 95.348226 251.164099 
L 95.391541 251.164099 
L 95.5648 248.826718 
L 95.65143 248.826718 
L 95.781374 247.658028 
L 96.127892 247.658028 
L 96.257836 246.489337 
L 96.777614 246.489337 
L 96.950873 244.151957 
L 96.994188 244.151957 
L 97.167447 241.814576 
L 97.254076 241.814576 
L 97.427335 239.477196 
L 97.730539 239.477196 
L 97.860483 238.308505 
L 98.120372 238.308505 
L 98.250316 237.139815 
L 98.46689 237.139815 
L 98.596834 235.971125 
L 99.029982 235.971125 
L 99.159926 234.802435 
L 99.28987 234.802435 
L 99.419815 233.633744 
L 99.636389 233.633744 
L 99.809648 231.296364 
L 100.416055 231.296364 
L 100.545999 228.958983 
L 100.675943 228.958983 
L 100.849202 226.621602 
L 101.065776 226.621602 
L 101.239035 224.284222 
L 101.412294 224.284222 
L 101.542239 223.115532 
L 101.672183 223.115532 
L 101.802127 221.946841 
L 101.888757 221.946841 
L 102.105331 218.44077 
L 102.27859 218.44077 
L 102.408534 217.27208 
L 102.451849 217.27208 
L 102.581793 216.10339 
L 102.711737 216.10339 
L 102.841682 214.9347 
L 102.971626 214.9347 
L 103.10157 213.766009 
L 103.361459 213.766009 
L 103.491403 212.597319 
L 104.18444 212.597319 
L 104.314384 211.428629 
L 104.530958 211.428629 
L 104.660902 210.259938 
L 104.790847 210.259938 
L 104.920791 209.091248 
L 105.050735 209.091248 
L 105.223994 205.585177 
L 105.397253 205.585177 
L 105.527198 204.416487 
L 106.220234 204.416487 
L 106.393493 202.079106 
L 106.610067 202.079106 
L 106.740011 200.910416 
L 106.869956 200.910416 
L 106.9999 199.741726 
L 107.346418 199.741726 
L 107.476362 198.573035 
L 107.606307 198.573035 
L 107.736251 197.404345 
L 107.866195 197.404345 
L 107.99614 196.235655 
L 108.126084 196.235655 
L 108.256028 195.066965 
L 109.338898 195.066965 
L 109.512157 192.729584 
L 109.598786 192.729584 
L 109.772045 190.392203 
L 109.858675 190.392203 
L 109.988619 189.223513 
L 110.378452 189.223513 
L 110.508397 188.054823 
L 110.681656 188.054823 
L 110.8116 186.886133 
L 110.941544 186.886133 
L 111.114803 184.548752 
L 111.244748 184.548752 
L 111.374692 183.380062 
L 111.504636 183.380062 
L 111.634581 182.211371 
L 111.764525 182.211371 
L 111.894469 181.042681 
L 112.024414 181.042681 
L 112.197673 178.7053 
L 112.327617 178.7053 
L 112.457561 177.53661 
L 112.847394 177.53661 
L 112.977339 176.36792 
L 113.410486 176.36792 
L 113.540431 175.19923 
L 113.670375 175.19923 
L 113.800319 174.030539 
L 114.493356 174.030539 
L 114.6233 172.861849 
L 114.796559 172.861849 
L 114.926503 171.693159 
L 115.273022 171.693159 
L 115.402966 170.524468 
L 116.44252 170.524468 
L 116.572465 169.355778 
L 117.785278 169.355778 
L 117.915223 168.187088 
L 118.088482 168.187088 
L 118.218426 167.018398 
L 118.391685 167.018398 
L 118.564944 164.681017 
L 118.694889 164.681017 
L 118.824833 163.512327 
L 118.998092 163.512327 
L 119.128036 162.343636 
L 119.474555 162.343636 
L 119.604499 161.174946 
L 119.777758 161.174946 
L 119.907702 160.006256 
L 120.080961 160.006256 
L 120.210906 158.837565 
L 120.297535 158.837565 
L 120.42748 157.668875 
L 120.817312 157.668875 
L 120.990572 155.331495 
L 121.120516 155.331495 
L 121.25046 154.162804 
L 121.380405 154.162804 
L 121.510349 152.994114 
L 121.856867 152.994114 
L 122.030126 150.656733 
L 122.116756 150.656733 
L 122.2467 149.488043 
L 122.679848 149.488043 
L 122.809792 148.319353 
L 123.026366 148.319353 
L 123.15631 147.150663 
L 123.199625 147.150663 
L 123.372884 144.813282 
L 124.022606 144.813282 
L 124.15255 143.644592 
L 125.885141 143.644592 
L 126.0584 141.307211 
L 126.231659 141.307211 
L 126.361603 140.138521 
L 126.491548 140.138521 
L 126.621492 138.969831 
L 127.661047 138.969831 
L 127.834306 136.63245 
L 127.920935 136.63245 
L 128.05088 135.46376 
L 128.613972 135.46376 
L 128.743916 134.295069 
L 128.87386 134.295069 
L 129.003805 133.126379 
L 129.307008 133.126379 
L 129.436952 131.957689 
L 129.740156 131.957689 
L 129.913415 129.620308 
L 130.043359 129.620308 
L 130.173303 128.451618 
L 130.563136 128.451618 
L 130.693081 127.282928 
L 130.823025 127.282928 
L 130.952969 126.114237 
L 131.126228 126.114237 
L 131.256173 123.776857 
L 131.429432 123.776857 
L 131.559376 122.608166 
L 132.598931 122.608166 
L 132.728875 121.439476 
L 133.508541 121.439476 
L 133.638485 120.270786 
L 134.071633 120.270786 
L 134.201577 119.102096 
L 134.634725 119.102096 
L 134.764669 117.933405 
L 135.154502 117.933405 
L 135.284447 116.764715 
L 135.414391 116.764715 
L 135.58765 114.427334 
L 136.064112 114.427334 
L 136.194057 113.258644 
L 136.58389 113.258644 
L 136.713834 112.089954 
L 137.363556 112.089954 
L 137.4935 110.921263 
L 137.926648 110.921263 
L 138.056592 109.752573 
L 139.702553 109.752573 
L 139.832498 108.583883 
L 140.568849 108.583883 
L 140.698793 107.415193 
L 141.608403 107.415193 
L 141.781662 105.077812 
L 142.518014 105.077812 
L 142.691273 102.740431 
L 148.885285 102.740431 
L 149.01523 101.571741 
L 149.92484 101.571741 
L 150.054784 100.403051 
L 150.357987 100.403051 
L 150.487932 99.234361 
L 151.180968 99.234361 
L 151.310913 98.06567 
L 153.606595 98.06567 
L 153.73654 96.89698 
L 153.866484 96.89698 
L 153.996428 95.72829 
L 154.949353 95.72829 
L 155.079298 94.559599 
L 155.772334 94.559599 
L 155.902278 93.390909 
L 157.201722 93.390909 
L 157.331666 92.222219 
L 157.721499 92.222219 
L 157.851443 91.053529 
L 158.501165 91.053529 
L 158.631109 89.884838 
L 159.324145 89.884838 
L 159.45409 88.716148 
L 163.742252 88.716148 
L 163.872197 87.547458 
L 165.778047 87.547458 
L 165.907991 86.378767 
L 166.904231 86.378767 
L 167.034175 85.210077 
L 170.152839 85.210077 
L 170.282783 84.041387 
L 170.456042 84.041387 
L 170.585986 82.872696 
L 170.975819 82.872696 
L 171.105764 81.704006 
L 173.314817 81.704006 
L 173.444761 80.535316 
L 175.437241 80.535316 
L 175.567185 79.366626 
L 179.552144 79.366626 
L 179.682089 78.197935 
L 181.024847 78.197935 
L 181.154791 77.029245 
L 182.540864 77.029245 
L 182.670808 75.860555 
L 183.060641 75.860555 
L 183.190585 74.691864 
L 183.32053 74.691864 
L 183.450474 73.523174 
L 184.14351 73.523174 
L 184.273455 72.354484 
L 186.829026 72.354484 
L 186.95897 71.185794 
L 187.868581 71.185794 
L 187.998525 70.017103 
L 191.636966 70.017103 
L 191.76691 68.848413 
L 192.200058 68.848413 
L 192.330002 67.679723 
L 193.239612 67.679723 
L 193.369557 66.511032 
L 193.499501 66.511032 
L 193.629445 65.342342 
L 195.57861 65.342342 
L 195.708555 64.173652 
L 196.098388 64.173652 
L 196.228332 63.004961 
L 197.051312 63.004961 
L 197.181257 61.836271 
L 198.264126 61.836271 
L 198.39407 60.667581 
L 198.783903 60.667581 
L 198.913848 59.498891 
L 199.303681 59.498891 
L 199.433625 58.3302 
L 202.20577 58.3302 
L 202.335715 57.16151 
L 203.028751 57.16151 
L 203.158695 55.99282 
L 203.895047 55.99282 
L 204.024991 54.824129 
L 204.154935 54.824129 
L 204.28488 53.655439 
L 204.414824 53.655439 
L 204.544768 52.486749 
L 204.934601 52.486749 
L 205.064545 51.318059 
L 205.714267 51.318059 
L 205.844211 50.149368 
L 206.01747 50.149368 
L 206.147415 48.980678 
L 206.320674 48.980678 
L 206.450618 47.811988 
L 208.876245 47.811988 
L 209.00619 46.643297 
L 215.849924 46.643297 
L 215.979868 45.474607 
L 216.54296 45.474607 
L 216.672905 44.305917 
L 218.232236 44.305917 
L 218.362181 43.137227 
L 218.492125 43.137227 
L 218.622069 41.968536 
L 219.271791 41.968536 
L 219.401735 40.799846 
L 220.051457 40.799846 
L 220.181401 39.631156 
L 220.961067 39.631156 
L 221.091011 38.462465 
L 221.567474 38.462465 
L 221.697418 37.293775 
L 221.870677 37.293775 
L 222.000622 36.125085 
L 222.693658 36.125085 
L 222.823602 34.956394 
L 222.953547 34.956394 
L 223.083491 33.787704 
L 223.776527 33.787704 
L 223.906472 32.619014 
L 224.296305 32.619014 
L 224.426249 31.450324 
L 225.942266 31.450324 
L 226.07221 30.281633 
L 226.548673 30.281633 
L 226.678617 29.112943 
L 258.081827 29.112943 
L 258.211772 27.944253 
L 258.428345 27.944253 
L 258.55829 26.775562 
L 272.89548 26.775562 
L 273.025424 25.606872 
L 281.558434 25.606872 
L 281.688378 24.438182 
L 410.766401 24.438182 
L 410.766401 24.438182 
" clip-path="url(#pc0fb279e95)" style="fill: none; stroke: #00008b; stroke-width: 2; stroke-linecap: square"/>
   </g>
   <g id="line2d_33">
    <path d="M 410.809716 369.201818 
L 226.245469 369.201818 
L 226.115525 367.448783 
L 221.177641 367.448783 
L 221.047697 365.695747 
L 220.874437 365.695747 
L 220.744493 363.942712 
L 210.82541 363.942712 
L 210.695466 362.189676 
L 205.974156 362.189676 
L 205.844211 360.436641 
L 192.589891 360.436641 
L 192.459947 358.683606 
L 190.207578 358.683606 
L 190.077634 356.93057 
L 187.305489 356.93057 
L 187.175544 355.177535 
L 175.783759 355.177535 
L 175.653815 353.424499 
L 170.672616 353.424499 
L 170.542672 351.671464 
L 169.763006 351.671464 
L 169.633061 349.918428 
L 168.550192 349.918428 
L 168.420248 348.165393 
L 124.412439 348.165393 
L 124.282494 346.412357 
L 121.077201 346.412357 
L 120.947257 344.659322 
L 108.039455 344.659322 
L 107.90951 342.906287 
L 64.334849 342.906287 
L 64.334849 342.906287 
" clip-path="url(#pc0fb279e95)" style="fill: none; stroke-dasharray: 7.4,3.2; stroke-dashoffset: 0; stroke: #fa8072; stroke-width: 2"/>
   </g>
   <g id="line2d_34">
    <path d="M 410.809716 369.201818 
L 380.099542 369.201818 
L 379.969598 367.448783 
L 338.474045 367.448783 
L 338.344101 365.695747 
L 226.635302 365.695747 
L 226.505358 363.942712 
L 226.245469 363.942712 
L 226.115525 362.189676 
L 224.859397 362.189676 
L 224.729452 360.436641 
L 224.25299 360.436641 
L 224.123045 358.683606 
L 223.993101 358.683606 
L 223.863157 356.93057 
L 223.733212 356.93057 
L 223.603268 355.177535 
L 222.043936 355.177535 
L 221.913992 353.424499 
L 221.43753 353.424499 
L 221.307585 351.671464 
L 221.177641 351.671464 
L 221.047697 349.918428 
L 220.874437 349.918428 
L 220.744493 348.165393 
L 220.571234 348.165393 
L 220.44129 346.412357 
L 218.405495 346.412357 
L 218.275551 344.659322 
L 217.885718 344.659322 
L 217.755774 342.906287 
L 214.074018 342.906287 
L 213.944074 341.153251 
L 212.211483 341.153251 
L 212.081539 339.400216 
L 211.388502 339.400216 
L 211.258558 337.64718 
L 210.82541 337.64718 
L 210.695466 335.894145 
L 208.876245 335.894145 
L 208.746301 334.141109 
L 208.053265 334.141109 
L 207.92332 332.388074 
L 207.316914 332.388074 
L 207.186969 330.635039 
L 206.797136 330.635039 
L 206.667192 328.882003 
L 206.537248 328.882003 
L 206.407303 327.128968 
L 205.974156 327.128968 
L 205.844211 325.375932 
L 204.977916 325.375932 
L 204.847972 323.622897 
L 200.343235 323.622897 
L 200.213291 321.869861 
L 197.094627 321.869861 
L 196.964683 320.116826 
L 196.098388 320.116826 
L 195.968443 318.36379 
L 195.102148 318.36379 
L 194.972203 316.610755 
L 194.798944 316.610755 
L 194.669 314.85772 
L 194.539056 314.85772 
L 194.409111 313.104684 
L 192.589891 313.104684 
L 192.459947 311.351649 
L 191.420392 311.351649 
L 191.290448 309.598613 
L 190.207578 309.598613 
L 190.077634 307.845578 
L 189.904375 307.845578 
L 189.774431 306.092542 
L 187.305489 306.092542 
L 187.175544 304.339507 
L 185.529583 304.339507 
L 185.399639 302.586471 
L 184.186825 302.586471 
L 184.056881 299.080401 
L 183.407159 299.080401 
L 183.277215 297.327365 
L 182.887382 297.327365 
L 182.757437 295.57433 
L 181.804512 295.57433 
L 181.674568 293.821294 
L 181.544624 293.821294 
L 181.41468 292.068259 
L 181.024847 292.068259 
L 180.851587 288.562188 
L 180.678328 288.562188 
L 180.548384 286.809153 
L 179.378885 286.809153 
L 179.248941 285.056117 
L 175.913703 285.056117 
L 175.740444 281.550046 
L 174.657575 281.550046 
L 174.527631 279.797011 
L 174.354372 279.797011 
L 174.224427 278.043975 
L 173.054928 278.043975 
L 172.924984 276.29094 
L 171.408967 276.29094 
L 171.279023 274.537904 
L 170.672616 274.537904 
L 170.542672 272.784869 
L 169.763006 272.784869 
L 169.589747 269.278798 
L 169.069969 269.278798 
L 168.940025 267.525763 
L 168.550192 267.525763 
L 168.420248 265.772727 
L 166.99086 265.772727 
L 166.860916 264.019692 
L 165.344899 264.019692 
L 165.214955 262.266656 
L 164.002141 262.266656 
L 163.872197 260.513621 
L 163.222475 260.513621 
L 163.092531 258.760586 
L 161.923032 258.760586 
L 161.793088 257.00755 
L 160.883477 257.00755 
L 160.753533 255.254515 
L 159.973867 255.254515 
L 159.843923 253.501479 
L 158.847683 253.501479 
L 158.717739 251.748444 
L 157.504925 251.748444 
L 157.374981 249.995408 
L 155.035983 249.995408 
L 154.906039 248.242373 
L 154.516206 248.242373 
L 154.386261 246.489337 
L 153.130133 246.489337 
L 153.000189 244.736302 
L 151.137653 244.736302 
L 151.007709 242.983267 
L 149.535007 242.983267 
L 149.405062 241.230231 
L 149.275118 241.230231 
L 149.145174 239.477196 
L 148.84197 239.477196 
L 148.712026 237.72416 
L 147.975675 237.72416 
L 147.845731 235.971125 
L 146.243084 235.971125 
L 146.11314 234.218089 
L 144.163975 234.218089 
L 144.034031 232.465054 
L 143.644198 232.465054 
L 143.514253 230.712018 
L 142.518014 230.712018 
L 142.388069 228.958983 
L 142.258125 228.958983 
L 142.128181 227.205948 
L 140.30896 227.205948 
L 140.179016 225.452912 
L 140.135701 225.452912 
L 140.005757 223.699877 
L 139.139461 223.699877 
L 139.009517 221.946841 
L 138.576369 221.946841 
L 138.446425 220.193806 
L 136.670519 220.193806 
L 136.540575 218.44077 
L 135.890853 218.44077 
L 135.760909 216.687735 
L 135.630965 216.687735 
L 135.50102 214.9347 
L 134.721355 214.9347 
L 134.59141 213.181664 
L 134.244892 213.181664 
L 134.114948 211.428629 
L 133.941689 211.428629 
L 133.811744 209.675593 
L 133.638485 209.675593 
L 133.508541 207.922558 
L 132.555616 207.922558 
L 132.425672 206.169522 
L 132.295727 206.169522 
L 132.165783 204.416487 
L 131.819265 204.416487 
L 131.68932 202.663451 
L 131.559376 202.663451 
L 131.429432 200.910416 
L 130.433192 200.910416 
L 130.303248 199.157381 
L 130.129989 199.157381 
L 130.000044 197.404345 
L 129.523582 197.404345 
L 129.350323 193.898274 
L 125.885141 193.898274 
L 125.755197 192.145239 
L 124.412439 192.145239 
L 124.282494 190.392203 
L 121.986811 190.392203 
L 121.856867 188.639168 
L 121.596978 188.639168 
L 121.423719 185.133097 
L 121.077201 185.133097 
L 120.947257 183.380062 
L 118.911462 183.380062 
L 118.781518 181.627026 
L 118.088482 181.627026 
L 117.915223 178.120955 
L 115.186392 178.120955 
L 115.056448 176.36792 
L 114.579985 176.36792 
L 114.450041 174.614884 
L 112.934024 174.614884 
L 112.80408 172.861849 
L 112.760765 172.861849 
L 112.63082 171.108814 
L 111.028174 171.108814 
L 110.89823 169.355778 
L 109.382213 169.355778 
L 109.252268 167.602743 
L 108.039455 167.602743 
L 107.90951 165.849707 
L 106.826641 165.849707 
L 106.696697 164.096672 
L 106.263549 164.096672 
L 106.133605 162.343636 
L 105.743772 162.343636 
L 105.613827 160.590601 
L 105.570513 160.590601 
L 105.440568 158.837565 
L 105.09405 158.837565 
L 104.964106 157.08453 
L 104.011181 157.08453 
L 103.881236 155.331495 
L 103.058256 155.331495 
L 102.928311 153.578459 
L 102.798367 153.578459 
L 102.668423 151.825424 
L 102.538478 151.825424 
L 102.408534 150.072388 
L 101.975386 150.072388 
L 101.845442 146.566317 
L 101.455609 146.566317 
L 101.325665 144.813282 
L 100.069536 144.813282 
L 99.939592 143.060247 
L 99.28987 143.060247 
L 99.159926 141.307211 
L 96.777614 141.307211 
L 96.647669 139.554176 
L 93.57232 139.554176 
L 93.442376 137.80114 
L 92.272877 137.80114 
L 92.099618 134.295069 
L 91.796415 134.295069 
L 91.66647 132.542034 
L 90.453657 132.542034 
L 90.323712 130.788998 
L 89.154214 130.788998 
L 89.024269 129.035963 
L 87.334993 129.035963 
L 87.205049 127.282928 
L 86.598642 127.282928 
L 86.468698 125.529892 
L 80.144741 125.529892 
L 80.014797 123.776857 
L 78.542094 123.776857 
L 78.41215 122.023821 
L 77.545855 122.023821 
L 77.41591 120.270786 
L 76.029837 120.270786 
L 75.899893 118.51775 
L 74.210617 118.51775 
L 74.080673 116.764715 
L 71.438472 116.764715 
L 71.308527 115.01168 
L 68.623011 115.01168 
L 68.493067 113.258644 
L 66.457273 113.258644 
L 66.327328 111.505609 
L 65.720922 111.505609 
L 65.590977 109.752573 
L 64.334849 109.752573 
L 64.334849 109.752573 
" clip-path="url(#pc0fb279e95)" style="fill: none; stroke-dasharray: 7.4,3.2; stroke-dashoffset: 0; stroke: #8b0000; stroke-width: 2"/>
   </g>
   <g id="patch_3">
    <path d="M 46.965625 386.44 
L 46.965625 7.2 
" style="fill: none; stroke: #000000; stroke-width: 0.8; stroke-linejoin: miter; stroke-linecap: square"/>
   </g>
   <g id="patch_4">
    <path d="M 428.135625 386.44 
L 428.135625 7.2 
" style="fill: none; stroke: #000000; stroke-width: 0.8; stroke-linejoin: miter; stroke-linecap: square"/>
   </g>
   <g id="patch_5">
    <path d="M 46.965625 386.44 
L 428.135625 386.44 
" style="fill: none; stroke: #000000; stroke-width: 0.8; stroke-linejoin: miter; stroke-linecap: square"/>
   </g>
   <g id="patch_6">
    <path d="M 46.965625 7.2 
L 428.135625 7.2 
" style="fill: none; stroke: #000000; stroke-width: 0.8; stroke-linejoin: miter; stroke-linecap: square"/>
   </g>
   <g id="legend_1">
    <g id="patch_7">
     <path d="M 435.135625 88.590625 
L 559.01375 88.590625 
Q 561.01375 88.590625 561.01375 86.590625 
L 561.01375 14.2 
Q 561.01375 12.2 559.01375 12.2 
L 435.135625 12.2 
Q 433.135625 12.2 433.135625 14.2 
L 433.135625 86.590625 
Q 433.135625 88.590625 435.135625 88.590625 
z
" style="fill: #ffffff; opacity: 0.8; stroke: #cccccc; stroke-linejoin: miter"/>
    </g>
    <g id="text_18">
     <!-- Motifs &amp; orientation -->
     <g transform="translate(447.559062 23.798437) scale(0.1 -0.1)">
      <defs>
       <path id="DejaVuSans-4d" d="M 628 4666 
L 1569 4666 
L 2759 1491 
L 3956 4666 
L 4897 4666 
L 4897 0 
L 4281 0 
L 4281 4097 
L 3078 897 
L 2444 897 
L 1241 4097 
L 1241 0 
L 628 0 
L 628 4666 
z
" transform="scale(0.015625)"/>
       <path id="DejaVuSans-26" d="M 1556 2509 
Q 1272 2256 1139 2004 
Q 1006 1753 1006 1478 
Q 1006 1022 1337 719 
Q 1669 416 2169 416 
Q 2466 416 2725 514 
Q 2984 613 3213 813 
L 1556 2509 
z
M 1997 2859 
L 3584 1234 
Q 3769 1513 3872 1830 
Q 3975 2147 3994 2503 
L 4575 2503 
Q 4538 2091 4375 1687 
Q 4213 1284 3922 891 
L 4794 0 
L 4006 0 
L 3559 459 
Q 3234 181 2878 45 
Q 2522 -91 2113 -91 
Q 1359 -91 881 339 
Q 403 769 403 1441 
Q 403 1841 612 2192 
Q 822 2544 1241 2853 
Q 1091 3050 1012 3245 
Q 934 3441 934 3628 
Q 934 4134 1281 4442 
Q 1628 4750 2203 4750 
Q 2463 4750 2720 4694 
Q 2978 4638 3244 4525 
L 3244 3956 
Q 2972 4103 2725 4179 
Q 2478 4256 2266 4256 
Q 1938 4256 1733 4082 
Q 1528 3909 1528 3634 
Q 1528 3475 1620 3314 
Q 1713 3153 1997 2859 
z
" transform="scale(0.015625)"/>
      </defs>
      <use xlink:href="#DejaVuSans-4d"/>
      <use xlink:href="#DejaVuSans-6f" transform="translate(86.279297 0)"/>
      <use xlink:href="#DejaVuSans-74" transform="translate(147.460938 0)"/>
      <use xlink:href="#DejaVuSans-69" transform="translate(186.669922 0)"/>
      <use xlink:href="#DejaVuSans-66" transform="translate(214.453125 0)"/>
      <use xlink:href="#DejaVuSans-73" transform="translate(249.658203 0)"/>
      <use xlink:href="#DejaVuSans-20" transform="translate(301.757812 0)"/>
      <use xlink:href="#DejaVuSans-26" transform="translate(333.544922 0)"/>
      <use xlink:href="#DejaVuSans-20" transform="translate(411.523438 0)"/>
      <use xlink:href="#DejaVuSans-6f" transform="translate(443.310547 0)"/>
      <use xlink:href="#DejaVuSans-72" transform="translate(504.492188 0)"/>
      <use xlink:href="#DejaVuSans-69" transform="translate(545.605469 0)"/>
      <use xlink:href="#DejaVuSans-65" transform="translate(573.388672 0)"/>
      <use xlink:href="#DejaVuSans-6e" transform="translate(634.912109 0)"/>
      <use xlink:href="#DejaVuSans-74" transform="translate(698.291016 0)"/>
      <use xlink:href="#DejaVuSans-61" transform="translate(737.5 0)"/>
      <use xlink:href="#DejaVuSans-74" transform="translate(798.779297 0)"/>
      <use xlink:href="#DejaVuSans-69" transform="translate(837.988281 0)"/>
      <use xlink:href="#DejaVuSans-6f" transform="translate(865.771484 0)"/>
      <use xlink:href="#DejaVuSans-6e" transform="translate(926.953125 0)"/>
     </g>
    </g>
    <g id="line2d_35">
     <path d="M 437.135625 34.976562 
L 447.135625 34.976562 
L 457.135625 34.976562 
" style="fill: none; stroke: #add8e6; stroke-width: 2; stroke-linecap: square"/>
    </g>
    <g id="text_19">
     <!-- CCCGAAA (5' end) -->
     <g transform="translate(465.135625 38.476562) scale(0.1 -0.1)">
      <defs>
       <path id="DejaVuSans-43" d="M 4122 4306 
L 4122 3641 
Q 3803 3938 3442 4084 
Q 3081 4231 2675 4231 
Q 1875 4231 1450 3742 
Q 1025 3253 1025 2328 
Q 1025 1406 1450 917 
Q 1875 428 2675 428 
Q 3081 428 3442 575 
Q 3803 722 4122 1019 
L 4122 359 
Q 3791 134 3420 21 
Q 3050 -91 2638 -91 
Q 1578 -91 968 557 
Q 359 1206 359 2328 
Q 359 3453 968 4101 
Q 1578 4750 2638 4750 
Q 3056 4750 3426 4639 
Q 3797 4528 4122 4306 
z
" transform="scale(0.015625)"/>
       <path id="DejaVuSans-47" d="M 3809 666 
L 3809 1919 
L 2778 1919 
L 2778 2438 
L 4434 2438 
L 4434 434 
Q 4069 175 3628 42 
Q 3188 -91 2688 -91 
Q 1594 -91 976 548 
Q 359 1188 359 2328 
Q 359 3472 976 4111 
Q 1594 4750 2688 4750 
Q 3144 4750 3555 4637 
Q 3966 4525 4313 4306 
L 4313 3634 
Q 3963 3931 3569 4081 
Q 3175 4231 2741 4231 
Q 1884 4231 1454 3753 
Q 1025 3275 1025 2328 
Q 1025 1384 1454 906 
Q 1884 428 2741 428 
Q 3075 428 3337 486 
Q 3600 544 3809 666 
z
" transform="scale(0.015625)"/>
       <path id="DejaVuSans-28" d="M 1984 4856 
Q 1566 4138 1362 3434 
Q 1159 2731 1159 2009 
Q 1159 1288 1364 580 
Q 1569 -128 1984 -844 
L 1484 -844 
Q 1016 -109 783 600 
Q 550 1309 550 2009 
Q 550 2706 781 3412 
Q 1013 4119 1484 4856 
L 1984 4856 
z
" transform="scale(0.015625)"/>
       <path id="DejaVuSans-27" d="M 1147 4666 
L 1147 2931 
L 616 2931 
L 616 4666 
L 1147 4666 
z
" transform="scale(0.015625)"/>
       <path id="DejaVuSans-64" d="M 2906 2969 
L 2906 4863 
L 3481 4863 
L 3481 0 
L 2906 0 
L 2906 525 
Q 2725 213 2448 61 
Q 2172 -91 1784 -91 
Q 1150 -91 751 415 
Q 353 922 353 1747 
Q 353 2572 751 3078 
Q 1150 3584 1784 3584 
Q 2172 3584 2448 3432 
Q 2725 3281 2906 2969 
z
M 947 1747 
Q 947 1113 1208 752 
Q 1469 391 1925 391 
Q 2381 391 2643 752 
Q 2906 1113 2906 1747 
Q 2906 2381 2643 2742 
Q 2381 3103 1925 3103 
Q 1469 3103 1208 2742 
Q 947 2381 947 1747 
z
" transform="scale(0.015625)"/>
       <path id="DejaVuSans-29" d="M 513 4856 
L 1013 4856 
Q 1481 4119 1714 3412 
Q 1947 2706 1947 2009 
Q 1947 1309 1714 600 
Q 1481 -109 1013 -844 
L 513 -844 
Q 928 -128 1133 580 
Q 1338 1288 1338 2009 
Q 1338 2731 1133 3434 
Q 928 4138 513 4856 
z
" transform="scale(0.015625)"/>
      </defs>
      <use xlink:href="#DejaVuSans-43"/>
      <use xlink:href="#DejaVuSans-43" transform="translate(69.824219 0)"/>
      <use xlink:href="#DejaVuSans-43" transform="translate(139.648438 0)"/>
      <use xlink:href="#DejaVuSans-47" transform="translate(209.472656 0)"/>
      <use xlink:href="#DejaVuSans-41" transform="translate(286.962891 0)"/>
      <use xlink:href="#DejaVuSans-41" transform="translate(358.121094 0)"/>
      <use xlink:href="#DejaVuSans-41" transform="translate(429.279297 0)"/>
      <use xlink:href="#DejaVuSans-20" transform="translate(497.6875 0)"/>
      <use xlink:href="#DejaVuSans-28" transform="translate(529.474609 0)"/>
      <use xlink:href="#DejaVuSans-35" transform="translate(568.488281 0)"/>
      <use xlink:href="#DejaVuSans-27" transform="translate(632.111328 0)"/>
      <use xlink:href="#DejaVuSans-20" transform="translate(659.601562 0)"/>
      <use xlink:href="#DejaVuSans-65" transform="translate(691.388672 0)"/>
      <use xlink:href="#DejaVuSans-6e" transform="translate(752.912109 0)"/>
      <use xlink:href="#DejaVuSans-64" transform="translate(816.291016 0)"/>
      <use xlink:href="#DejaVuSans-29" transform="translate(879.767578 0)"/>
     </g>
    </g>
    <g id="line2d_36">
     <path d="M 437.135625 49.654687 
L 447.135625 49.654687 
L 457.135625 49.654687 
" style="fill: none; stroke: #00008b; stroke-width: 2; stroke-linecap: square"/>
    </g>
    <g id="text_20">
     <!-- CCGAAA (5' end) -->
     <g transform="translate(465.135625 53.154687) scale(0.1 -0.1)">
      <use xlink:href="#DejaVuSans-43"/>
      <use xlink:href="#DejaVuSans-43" transform="translate(69.824219 0)"/>
      <use xlink:href="#DejaVuSans-47" transform="translate(139.648438 0)"/>
      <use xlink:href="#DejaVuSans-41" transform="translate(217.138672 0)"/>
      <use xlink:href="#DejaVuSans-41" transform="translate(288.296875 0)"/>
      <use xlink:href="#DejaVuSans-41" transform="translate(359.455078 0)"/>
      <use xlink:href="#DejaVuSans-20" transform="translate(427.863281 0)"/>
      <use xlink:href="#DejaVuSans-28" transform="translate(459.650391 0)"/>
      <use xlink:href="#DejaVuSans-35" transform="translate(498.664062 0)"/>
      <use xlink:href="#DejaVuSans-27" transform="translate(562.287109 0)"/>
      <use xlink:href="#DejaVuSans-20" transform="translate(589.777344 0)"/>
      <use xlink:href="#DejaVuSans-65" transform="translate(621.564453 0)"/>
      <use xlink:href="#DejaVuSans-6e" transform="translate(683.087891 0)"/>
      <use xlink:href="#DejaVuSans-64" transform="translate(746.466797 0)"/>
      <use xlink:href="#DejaVuSans-29" transform="translate(809.943359 0)"/>
     </g>
    </g>
    <g id="line2d_37">
     <path d="M 437.135625 64.332812 
L 447.135625 64.332812 
L 457.135625 64.332812 
" style="fill: none; stroke-dasharray: 7.4,3.2; stroke-dashoffset: 0; stroke: #fa8072; stroke-width: 2"/>
    </g>
    <g id="text_21">
     <!-- TTTCGGG (3' end) -->
     <g transform="translate(465.135625 67.832812) scale(0.1 -0.1)">
      <defs>
       <path id="DejaVuSans-54" d="M -19 4666 
L 3928 4666 
L 3928 4134 
L 2272 4134 
L 2272 0 
L 1638 0 
L 1638 4134 
L -19 4134 
L -19 4666 
z
" transform="scale(0.015625)"/>
      </defs>
      <use xlink:href="#DejaVuSans-54"/>
      <use xlink:href="#DejaVuSans-54" transform="translate(59.333984 0)"/>
      <use xlink:href="#DejaVuSans-54" transform="translate(118.667969 0)"/>
      <use xlink:href="#DejaVuSans-43" transform="translate(173.876953 0)"/>
      <use xlink:href="#DejaVuSans-47" transform="translate(243.701172 0)"/>
      <use xlink:href="#DejaVuSans-47" transform="translate(321.191406 0)"/>
      <use xlink:href="#DejaVuSans-47" transform="translate(398.681641 0)"/>
      <use xlink:href="#DejaVuSans-20" transform="translate(476.171875 0)"/>
      <use xlink:href="#DejaVuSans-28" transform="translate(507.958984 0)"/>
      <use xlink:href="#DejaVuSans-33" transform="translate(546.972656 0)"/>
      <use xlink:href="#DejaVuSans-27" transform="translate(610.595703 0)"/>
      <use xlink:href="#DejaVuSans-20" transform="translate(638.085938 0)"/>
      <use xlink:href="#DejaVuSans-65" transform="translate(669.873047 0)"/>
      <use xlink:href="#DejaVuSans-6e" transform="translate(731.396484 0)"/>
      <use xlink:href="#DejaVuSans-64" transform="translate(794.775391 0)"/>
      <use xlink:href="#DejaVuSans-29" transform="translate(858.251953 0)"/>
     </g>
    </g>
    <g id="line2d_38">
     <path d="M 437.135625 79.010937 
L 447.135625 79.010937 
L 457.135625 79.010937 
" style="fill: none; stroke-dasharray: 7.4,3.2; stroke-dashoffset: 0; stroke: #8b0000; stroke-width: 2"/>
    </g>
    <g id="text_22">
     <!-- TTTCGG (3' end) -->
     <g transform="translate(465.135625 82.510937) scale(0.1 -0.1)">
      <use xlink:href="#DejaVuSans-54"/>
      <use xlink:href="#DejaVuSans-54" transform="translate(59.333984 0)"/>
      <use xlink:href="#DejaVuSans-54" transform="translate(118.667969 0)"/>
      <use xlink:href="#DejaVuSans-43" transform="translate(173.876953 0)"/>
      <use xlink:href="#DejaVuSans-47" transform="translate(243.701172 0)"/>
      <use xlink:href="#DejaVuSans-47" transform="translate(321.191406 0)"/>
      <use xlink:href="#DejaVuSans-20" transform="translate(398.681641 0)"/>
      <use xlink:href="#DejaVuSans-28" transform="translate(430.46875 0)"/>
      <use xlink:href="#DejaVuSans-33" transform="translate(469.482422 0)"/>
      <use xlink:href="#DejaVuSans-27" transform="translate(533.105469 0)"/>
      <use xlink:href="#DejaVuSans-20" transform="translate(560.595703 0)"/>
      <use xlink:href="#DejaVuSans-65" transform="translate(592.382812 0)"/>
      <use xlink:href="#DejaVuSans-6e" transform="translate(653.90625 0)"/>
      <use xlink:href="#DejaVuSans-64" transform="translate(717.285156 0)"/>
      <use xlink:href="#DejaVuSans-29" transform="translate(780.761719 0)"/>
     </g>
    </g>
   </g>
  </g>
 </g>
 <defs>
  <clipPath id="pc0fb279e95">
   <rect x="46.965625" y="7.2" width="381.17" height="379.24"/>
  </clipPath>
 </defs>
</svg>
