<?xml version="1.0" encoding="utf-8" standalone="no"?>
<!DOCTYPE svg PUBLIC "-//W3C//DTD SVG 1.1//EN"
  "http://www.w3.org/Graphics/SVG/1.1/DTD/svg11.dtd">
<svg xmlns:xlink="http://www.w3.org/1999/xlink" width="712.21375pt" height="496.474375pt" viewBox="0 0 712.21375 496.474375" xmlns="http://www.w3.org/2000/svg" version="1.1">
 <metadata>
  <rdf:RDF xmlns:dc="http://purl.org/dc/elements/1.1/" xmlns:cc="http://creativecommons.org/ns#" xmlns:rdf="http://www.w3.org/1999/02/22-rdf-syntax-ns#">
   <cc:Work>
    <dc:type rdf:resource="http://purl.org/dc/dcmitype/StillImage"/>
    <dc:date>2026-03-20T12:53:35.943910</dc:date>
    <dc:format>image/svg+xml</dc:format>
    <dc:creator>
     <cc:Agent>
      <dc:title>Matplotlib v3.10.6, https://matplotlib.org/</dc:title>
     </cc:Agent>
    </dc:creator>
   </cc:Work>
  </rdf:RDF>
 </metadata>
 <defs>
  <style type="text/css">*{stroke-linejoin: round; stroke-linecap: butt}</style>
 </defs>
 <g id="figure_1">
  <g id="patch_1">
   <path d="M 0 496.474375 
L 712.21375 496.474375 
L 712.21375 0 
L 0 0 
z
" style="fill: #ffffff"/>
  </g>
  <g id="axes_1">
   <g id="patch_2">
    <path d="M 46.965625 458.918125 
L 572.135625 458.918125 
L 572.135625 22.318125 
L 46.965625 22.318125 
z
" style="fill: #ffffff"/>
   </g>
   <g id="matplotlib.axis_1">
    <g id="xtick_1">
     <g id="line2d_1">
      <path d="M 70.836989 458.918125 
L 70.836989 22.318125 
" clip-path="url(#pe3aec71428)" style="fill: none; stroke-dasharray: 2.96,1.28; stroke-dashoffset: 0; stroke: #b0b0b0; stroke-opacity: 0.6; stroke-width: 0.8"/>
     </g>
     <g id="line2d_2">
      <defs>
       <path id="m663104f66b" d="M 0 0 
L 0 3.5 
" style="stroke: #000000; stroke-width: 0.8"/>
      </defs>
      <g>
       <use xlink:href="#m663104f66b" x="70.836989" y="458.918125" style="stroke: #000000; stroke-width: 0.8"/>
      </g>
     </g>
     <g id="text_1">
      <!-- 0 -->
      <g transform="translate(67.655739 473.516563) scale(0.1 -0.1)">
       <defs>
        <path id="DejaVuSans-30" d="M 2034 4250 
Q 1547 4250 1301 3770 
Q 1056 3291 1056 2328 
Q 1056 1369 1301 889 
Q 1547 409 2034 409 
Q 2525 409 2770 889 
Q 3016 1369 3016 2328 
Q 3016 3291 2770 3770 
Q 2525 4250 2034 4250 
z
M 2034 4750 
Q 2819 4750 3233 4129 
Q 3647 3509 3647 2328 
Q 3647 1150 3233 529 
Q 2819 -91 2034 -91 
Q 1250 -91 836 529 
Q 422 1150 422 2328 
Q 422 3509 836 4129 
Q 1250 4750 2034 4750 
z
" transform="scale(0.015625)"/>
       </defs>
       <use xlink:href="#DejaVuSans-30"/>
      </g>
     </g>
    </g>
    <g id="xtick_2">
     <g id="line2d_3">
      <path d="M 150.414832 458.918125 
L 150.414832 22.318125 
" clip-path="url(#pe3aec71428)" style="fill: none; stroke-dasharray: 2.96,1.28; stroke-dashoffset: 0; stroke: #b0b0b0; stroke-opacity: 0.6; stroke-width: 0.8"/>
     </g>
     <g id="line2d_4">
      <g>
       <use xlink:href="#m663104f66b" x="150.414832" y="458.918125" style="stroke: #000000; stroke-width: 0.8"/>
      </g>
     </g>
     <g id="text_2">
      <!-- 2000 -->
      <g transform="translate(137.689832 473.516563) scale(0.1 -0.1)">
       <defs>
        <path id="DejaVuSans-32" d="M 1228 531 
L 3431 531 
L 3431 0 
L 469 0 
L 469 531 
Q 828 903 1448 1529 
Q 2069 2156 2228 2338 
Q 2531 2678 2651 2914 
Q 2772 3150 2772 3378 
Q 2772 3750 2511 3984 
Q 2250 4219 1831 4219 
Q 1534 4219 1204 4116 
Q 875 4013 500 3803 
L 500 4441 
Q 881 4594 1212 4672 
Q 1544 4750 1819 4750 
Q 2544 4750 2975 4387 
Q 3406 4025 3406 3419 
Q 3406 3131 3298 2873 
Q 3191 2616 2906 2266 
Q 2828 2175 2409 1742 
Q 1991 1309 1228 531 
z
" transform="scale(0.015625)"/>
       </defs>
       <use xlink:href="#DejaVuSans-32"/>
       <use xlink:href="#DejaVuSans-30" transform="translate(63.623047 0)"/>
       <use xlink:href="#DejaVuSans-30" transform="translate(127.246094 0)"/>
       <use xlink:href="#DejaVuSans-30" transform="translate(190.869141 0)"/>
      </g>
     </g>
    </g>
    <g id="xtick_3">
     <g id="line2d_5">
      <path d="M 229.992676 458.918125 
L 229.992676 22.318125 
" clip-path="url(#pe3aec71428)" style="fill: none; stroke-dasharray: 2.96,1.28; stroke-dashoffset: 0; stroke: #b0b0b0; stroke-opacity: 0.6; stroke-width: 0.8"/>
     </g>
     <g id="line2d_6">
      <g>
       <use xlink:href="#m663104f66b" x="229.992676" y="458.918125" style="stroke: #000000; stroke-width: 0.8"/>
      </g>
     </g>
     <g id="text_3">
      <!-- 4000 -->
      <g transform="translate(217.267676 473.516563) scale(0.1 -0.1)">
       <defs>
        <path id="DejaVuSans-34" d="M 2419 4116 
L 825 1625 
L 2419 1625 
L 2419 4116 
z
M 2253 4666 
L 3047 4666 
L 3047 1625 
L 3713 1625 
L 3713 1100 
L 3047 1100 
L 3047 0 
L 2419 0 
L 2419 1100 
L 313 1100 
L 313 1709 
L 2253 4666 
z
" transform="scale(0.015625)"/>
       </defs>
       <use xlink:href="#DejaVuSans-34"/>
       <use xlink:href="#DejaVuSans-30" transform="translate(63.623047 0)"/>
       <use xlink:href="#DejaVuSans-30" transform="translate(127.246094 0)"/>
       <use xlink:href="#DejaVuSans-30" transform="translate(190.869141 0)"/>
      </g>
     </g>
    </g>
    <g id="xtick_4">
     <g id="line2d_7">
      <path d="M 309.570519 458.918125 
L 309.570519 22.318125 
" clip-path="url(#pe3aec71428)" style="fill: none; stroke-dasharray: 2.96,1.28; stroke-dashoffset: 0; stroke: #b0b0b0; stroke-opacity: 0.6; stroke-width: 0.8"/>
     </g>
     <g id="line2d_8">
      <g>
       <use xlink:href="#m663104f66b" x="309.570519" y="458.918125" style="stroke: #000000; stroke-width: 0.8"/>
      </g>
     </g>
     <g id="text_4">
      <!-- 6000 -->
      <g transform="translate(296.845519 473.516563) scale(0.1 -0.1)">
       <defs>
        <path id="DejaVuSans-36" d="M 2113 2584 
Q 1688 2584 1439 2293 
Q 1191 2003 1191 1497 
Q 1191 994 1439 701 
Q 1688 409 2113 409 
Q 2538 409 2786 701 
Q 3034 994 3034 1497 
Q 3034 2003 2786 2293 
Q 2538 2584 2113 2584 
z
M 3366 4563 
L 3366 3988 
Q 3128 4100 2886 4159 
Q 2644 4219 2406 4219 
Q 1781 4219 1451 3797 
Q 1122 3375 1075 2522 
Q 1259 2794 1537 2939 
Q 1816 3084 2150 3084 
Q 2853 3084 3261 2657 
Q 3669 2231 3669 1497 
Q 3669 778 3244 343 
Q 2819 -91 2113 -91 
Q 1303 -91 875 529 
Q 447 1150 447 2328 
Q 447 3434 972 4092 
Q 1497 4750 2381 4750 
Q 2619 4750 2861 4703 
Q 3103 4656 3366 4563 
z
" transform="scale(0.015625)"/>
       </defs>
       <use xlink:href="#DejaVuSans-36"/>
       <use xlink:href="#DejaVuSans-30" transform="translate(63.623047 0)"/>
       <use xlink:href="#DejaVuSans-30" transform="translate(127.246094 0)"/>
       <use xlink:href="#DejaVuSans-30" transform="translate(190.869141 0)"/>
      </g>
     </g>
    </g>
    <g id="xtick_5">
     <g id="line2d_9">
      <path d="M 389.148363 458.918125 
L 389.148363 22.318125 
" clip-path="url(#pe3aec71428)" style="fill: none; stroke-dasharray: 2.96,1.28; stroke-dashoffset: 0; stroke: #b0b0b0; stroke-opacity: 0.6; stroke-width: 0.8"/>
     </g>
     <g id="line2d_10">
      <g>
       <use xlink:href="#m663104f66b" x="389.148363" y="458.918125" style="stroke: #000000; stroke-width: 0.8"/>
      </g>
     </g>
     <g id="text_5">
      <!-- 8000 -->
      <g transform="translate(376.423363 473.516563) scale(0.1 -0.1)">
       <defs>
        <path id="DejaVuSans-38" d="M 2034 2216 
Q 1584 2216 1326 1975 
Q 1069 1734 1069 1313 
Q 1069 891 1326 650 
Q 1584 409 2034 409 
Q 2484 409 2743 651 
Q 3003 894 3003 1313 
Q 3003 1734 2745 1975 
Q 2488 2216 2034 2216 
z
M 1403 2484 
Q 997 2584 770 2862 
Q 544 3141 544 3541 
Q 544 4100 942 4425 
Q 1341 4750 2034 4750 
Q 2731 4750 3128 4425 
Q 3525 4100 3525 3541 
Q 3525 3141 3298 2862 
Q 3072 2584 2669 2484 
Q 3125 2378 3379 2068 
Q 3634 1759 3634 1313 
Q 3634 634 3220 271 
Q 2806 -91 2034 -91 
Q 1263 -91 848 271 
Q 434 634 434 1313 
Q 434 1759 690 2068 
Q 947 2378 1403 2484 
z
M 1172 3481 
Q 1172 3119 1398 2916 
Q 1625 2713 2034 2713 
Q 2441 2713 2670 2916 
Q 2900 3119 2900 3481 
Q 2900 3844 2670 4047 
Q 2441 4250 2034 4250 
Q 1625 4250 1398 4047 
Q 1172 3844 1172 3481 
z
" transform="scale(0.015625)"/>
       </defs>
       <use xlink:href="#DejaVuSans-38"/>
       <use xlink:href="#DejaVuSans-30" transform="translate(63.623047 0)"/>
       <use xlink:href="#DejaVuSans-30" transform="translate(127.246094 0)"/>
       <use xlink:href="#DejaVuSans-30" transform="translate(190.869141 0)"/>
      </g>
     </g>
    </g>
    <g id="xtick_6">
     <g id="line2d_11">
      <path d="M 468.726207 458.918125 
L 468.726207 22.318125 
" clip-path="url(#pe3aec71428)" style="fill: none; stroke-dasharray: 2.96,1.28; stroke-dashoffset: 0; stroke: #b0b0b0; stroke-opacity: 0.6; stroke-width: 0.8"/>
     </g>
     <g id="line2d_12">
      <g>
       <use xlink:href="#m663104f66b" x="468.726207" y="458.918125" style="stroke: #000000; stroke-width: 0.8"/>
      </g>
     </g>
     <g id="text_6">
      <!-- 10000 -->
      <g transform="translate(452.819957 473.516563) scale(0.1 -0.1)">
       <defs>
        <path id="DejaVuSans-31" d="M 794 531 
L 1825 531 
L 1825 4091 
L 703 3866 
L 703 4441 
L 1819 4666 
L 2450 4666 
L 2450 531 
L 3481 531 
L 3481 0 
L 794 0 
L 794 531 
z
" transform="scale(0.015625)"/>
       </defs>
       <use xlink:href="#DejaVuSans-31"/>
       <use xlink:href="#DejaVuSans-30" transform="translate(63.623047 0)"/>
       <use xlink:href="#DejaVuSans-30" transform="translate(127.246094 0)"/>
       <use xlink:href="#DejaVuSans-30" transform="translate(190.869141 0)"/>
       <use xlink:href="#DejaVuSans-30" transform="translate(254.492188 0)"/>
      </g>
     </g>
    </g>
    <g id="xtick_7">
     <g id="line2d_13">
      <path d="M 548.30405 458.918125 
L 548.30405 22.318125 
" clip-path="url(#pe3aec71428)" style="fill: none; stroke-dasharray: 2.96,1.28; stroke-dashoffset: 0; stroke: #b0b0b0; stroke-opacity: 0.6; stroke-width: 0.8"/>
     </g>
     <g id="line2d_14">
      <g>
       <use xlink:href="#m663104f66b" x="548.30405" y="458.918125" style="stroke: #000000; stroke-width: 0.8"/>
      </g>
     </g>
     <g id="text_7">
      <!-- 12000 -->
      <g transform="translate(532.3978 473.516563) scale(0.1 -0.1)">
       <use xlink:href="#DejaVuSans-31"/>
       <use xlink:href="#DejaVuSans-32" transform="translate(63.623047 0)"/>
       <use xlink:href="#DejaVuSans-30" transform="translate(127.246094 0)"/>
       <use xlink:href="#DejaVuSans-30" transform="translate(190.869141 0)"/>
       <use xlink:href="#DejaVuSans-30" transform="translate(254.492188 0)"/>
      </g>
     </g>
    </g>
    <g id="text_8">
     <!-- Distance from Terminus [nt] -->
     <g transform="translate(239.807656 487.194687) scale(0.1 -0.1)">
      <defs>
       <path id="DejaVuSans-44" d="M 1259 4147 
L 1259 519 
L 2022 519 
Q 2988 519 3436 956 
Q 3884 1394 3884 2338 
Q 3884 3275 3436 3711 
Q 2988 4147 2022 4147 
L 1259 4147 
z
M 628 4666 
L 1925 4666 
Q 3281 4666 3915 4102 
Q 4550 3538 4550 2338 
Q 4550 1131 3912 565 
Q 3275 0 1925 0 
L 628 0 
L 628 4666 
z
" transform="scale(0.015625)"/>
       <path id="DejaVuSans-69" d="M 603 3500 
L 1178 3500 
L 1178 0 
L 603 0 
L 603 3500 
z
M 603 4863 
L 1178 4863 
L 1178 4134 
L 603 4134 
L 603 4863 
z
" transform="scale(0.015625)"/>
       <path id="DejaVuSans-73" d="M 2834 3397 
L 2834 2853 
Q 2591 2978 2328 3040 
Q 2066 3103 1784 3103 
Q 1356 3103 1142 2972 
Q 928 2841 928 2578 
Q 928 2378 1081 2264 
Q 1234 2150 1697 2047 
L 1894 2003 
Q 2506 1872 2764 1633 
Q 3022 1394 3022 966 
Q 3022 478 2636 193 
Q 2250 -91 1575 -91 
Q 1294 -91 989 -36 
Q 684 19 347 128 
L 347 722 
Q 666 556 975 473 
Q 1284 391 1588 391 
Q 1994 391 2212 530 
Q 2431 669 2431 922 
Q 2431 1156 2273 1281 
Q 2116 1406 1581 1522 
L 1381 1569 
Q 847 1681 609 1914 
Q 372 2147 372 2553 
Q 372 3047 722 3315 
Q 1072 3584 1716 3584 
Q 2034 3584 2315 3537 
Q 2597 3491 2834 3397 
z
" transform="scale(0.015625)"/>
       <path id="DejaVuSans-74" d="M 1172 4494 
L 1172 3500 
L 2356 3500 
L 2356 3053 
L 1172 3053 
L 1172 1153 
Q 1172 725 1289 603 
Q 1406 481 1766 481 
L 2356 481 
L 2356 0 
L 1766 0 
Q 1100 0 847 248 
Q 594 497 594 1153 
L 594 3053 
L 172 3053 
L 172 3500 
L 594 3500 
L 594 4494 
L 1172 4494 
z
" transform="scale(0.015625)"/>
       <path id="DejaVuSans-61" d="M 2194 1759 
Q 1497 1759 1228 1600 
Q 959 1441 959 1056 
Q 959 750 1161 570 
Q 1363 391 1709 391 
Q 2188 391 2477 730 
Q 2766 1069 2766 1631 
L 2766 1759 
L 2194 1759 
z
M 3341 1997 
L 3341 0 
L 2766 0 
L 2766 531 
Q 2569 213 2275 61 
Q 1981 -91 1556 -91 
Q 1019 -91 701 211 
Q 384 513 384 1019 
Q 384 1609 779 1909 
Q 1175 2209 1959 2209 
L 2766 2209 
L 2766 2266 
Q 2766 2663 2505 2880 
Q 2244 3097 1772 3097 
Q 1472 3097 1187 3025 
Q 903 2953 641 2809 
L 641 3341 
Q 956 3463 1253 3523 
Q 1550 3584 1831 3584 
Q 2591 3584 2966 3190 
Q 3341 2797 3341 1997 
z
" transform="scale(0.015625)"/>
       <path id="DejaVuSans-6e" d="M 3513 2113 
L 3513 0 
L 2938 0 
L 2938 2094 
Q 2938 2591 2744 2837 
Q 2550 3084 2163 3084 
Q 1697 3084 1428 2787 
Q 1159 2491 1159 1978 
L 1159 0 
L 581 0 
L 581 3500 
L 1159 3500 
L 1159 2956 
Q 1366 3272 1645 3428 
Q 1925 3584 2291 3584 
Q 2894 3584 3203 3211 
Q 3513 2838 3513 2113 
z
" transform="scale(0.015625)"/>
       <path id="DejaVuSans-63" d="M 3122 3366 
L 3122 2828 
Q 2878 2963 2633 3030 
Q 2388 3097 2138 3097 
Q 1578 3097 1268 2742 
Q 959 2388 959 1747 
Q 959 1106 1268 751 
Q 1578 397 2138 397 
Q 2388 397 2633 464 
Q 2878 531 3122 666 
L 3122 134 
Q 2881 22 2623 -34 
Q 2366 -91 2075 -91 
Q 1284 -91 818 406 
Q 353 903 353 1747 
Q 353 2603 823 3093 
Q 1294 3584 2113 3584 
Q 2378 3584 2631 3529 
Q 2884 3475 3122 3366 
z
" transform="scale(0.015625)"/>
       <path id="DejaVuSans-65" d="M 3597 1894 
L 3597 1613 
L 953 1613 
Q 991 1019 1311 708 
Q 1631 397 2203 397 
Q 2534 397 2845 478 
Q 3156 559 3463 722 
L 3463 178 
Q 3153 47 2828 -22 
Q 2503 -91 2169 -91 
Q 1331 -91 842 396 
Q 353 884 353 1716 
Q 353 2575 817 3079 
Q 1281 3584 2069 3584 
Q 2775 3584 3186 3129 
Q 3597 2675 3597 1894 
z
M 3022 2063 
Q 3016 2534 2758 2815 
Q 2500 3097 2075 3097 
Q 1594 3097 1305 2825 
Q 1016 2553 972 2059 
L 3022 2063 
z
" transform="scale(0.015625)"/>
       <path id="DejaVuSans-20" transform="scale(0.015625)"/>
       <path id="DejaVuSans-66" d="M 2375 4863 
L 2375 4384 
L 1825 4384 
Q 1516 4384 1395 4259 
Q 1275 4134 1275 3809 
L 1275 3500 
L 2222 3500 
L 2222 3053 
L 1275 3053 
L 1275 0 
L 697 0 
L 697 3053 
L 147 3053 
L 147 3500 
L 697 3500 
L 697 3744 
Q 697 4328 969 4595 
Q 1241 4863 1831 4863 
L 2375 4863 
z
" transform="scale(0.015625)"/>
       <path id="DejaVuSans-72" d="M 2631 2963 
Q 2534 3019 2420 3045 
Q 2306 3072 2169 3072 
Q 1681 3072 1420 2755 
Q 1159 2438 1159 1844 
L 1159 0 
L 581 0 
L 581 3500 
L 1159 3500 
L 1159 2956 
Q 1341 3275 1631 3429 
Q 1922 3584 2338 3584 
Q 2397 3584 2469 3576 
Q 2541 3569 2628 3553 
L 2631 2963 
z
" transform="scale(0.015625)"/>
       <path id="DejaVuSans-6f" d="M 1959 3097 
Q 1497 3097 1228 2736 
Q 959 2375 959 1747 
Q 959 1119 1226 758 
Q 1494 397 1959 397 
Q 2419 397 2687 759 
Q 2956 1122 2956 1747 
Q 2956 2369 2687 2733 
Q 2419 3097 1959 3097 
z
M 1959 3584 
Q 2709 3584 3137 3096 
Q 3566 2609 3566 1747 
Q 3566 888 3137 398 
Q 2709 -91 1959 -91 
Q 1206 -91 779 398 
Q 353 888 353 1747 
Q 353 2609 779 3096 
Q 1206 3584 1959 3584 
z
" transform="scale(0.015625)"/>
       <path id="DejaVuSans-6d" d="M 3328 2828 
Q 3544 3216 3844 3400 
Q 4144 3584 4550 3584 
Q 5097 3584 5394 3201 
Q 5691 2819 5691 2113 
L 5691 0 
L 5113 0 
L 5113 2094 
Q 5113 2597 4934 2840 
Q 4756 3084 4391 3084 
Q 3944 3084 3684 2787 
Q 3425 2491 3425 1978 
L 3425 0 
L 2847 0 
L 2847 2094 
Q 2847 2600 2669 2842 
Q 2491 3084 2119 3084 
Q 1678 3084 1418 2786 
Q 1159 2488 1159 1978 
L 1159 0 
L 581 0 
L 581 3500 
L 1159 3500 
L 1159 2956 
Q 1356 3278 1631 3431 
Q 1906 3584 2284 3584 
Q 2666 3584 2933 3390 
Q 3200 3197 3328 2828 
z
" transform="scale(0.015625)"/>
       <path id="DejaVuSans-54" d="M -19 4666 
L 3928 4666 
L 3928 4134 
L 2272 4134 
L 2272 0 
L 1638 0 
L 1638 4134 
L -19 4134 
L -19 4666 
z
" transform="scale(0.015625)"/>
       <path id="DejaVuSans-75" d="M 544 1381 
L 544 3500 
L 1119 3500 
L 1119 1403 
Q 1119 906 1312 657 
Q 1506 409 1894 409 
Q 2359 409 2629 706 
Q 2900 1003 2900 1516 
L 2900 3500 
L 3475 3500 
L 3475 0 
L 2900 0 
L 2900 538 
Q 2691 219 2414 64 
Q 2138 -91 1772 -91 
Q 1169 -91 856 284 
Q 544 659 544 1381 
z
M 1991 3584 
L 1991 3584 
z
" transform="scale(0.015625)"/>
       <path id="DejaVuSans-5b" d="M 550 4863 
L 1875 4863 
L 1875 4416 
L 1125 4416 
L 1125 -397 
L 1875 -397 
L 1875 -844 
L 550 -844 
L 550 4863 
z
" transform="scale(0.015625)"/>
       <path id="DejaVuSans-5d" d="M 1947 4863 
L 1947 -844 
L 622 -844 
L 622 -397 
L 1369 -397 
L 1369 4416 
L 622 4416 
L 622 4863 
L 1947 4863 
z
" transform="scale(0.015625)"/>
      </defs>
      <use xlink:href="#DejaVuSans-44"/>
      <use xlink:href="#DejaVuSans-69" transform="translate(77.001953 0)"/>
      <use xlink:href="#DejaVuSans-73" transform="translate(104.785156 0)"/>
      <use xlink:href="#DejaVuSans-74" transform="translate(156.884766 0)"/>
      <use xlink:href="#DejaVuSans-61" transform="translate(196.09375 0)"/>
      <use xlink:href="#DejaVuSans-6e" transform="translate(257.373047 0)"/>
      <use xlink:href="#DejaVuSans-63" transform="translate(320.751953 0)"/>
      <use xlink:href="#DejaVuSans-65" transform="translate(375.732422 0)"/>
      <use xlink:href="#DejaVuSans-20" transform="translate(437.255859 0)"/>
      <use xlink:href="#DejaVuSans-66" transform="translate(469.042969 0)"/>
      <use xlink:href="#DejaVuSans-72" transform="translate(504.248047 0)"/>
      <use xlink:href="#DejaVuSans-6f" transform="translate(543.111328 0)"/>
      <use xlink:href="#DejaVuSans-6d" transform="translate(604.292969 0)"/>
      <use xlink:href="#DejaVuSans-20" transform="translate(701.705078 0)"/>
      <use xlink:href="#DejaVuSans-54" transform="translate(733.492188 0)"/>
      <use xlink:href="#DejaVuSans-65" transform="translate(777.576172 0)"/>
      <use xlink:href="#DejaVuSans-72" transform="translate(839.099609 0)"/>
      <use xlink:href="#DejaVuSans-6d" transform="translate(878.462891 0)"/>
      <use xlink:href="#DejaVuSans-69" transform="translate(975.875 0)"/>
      <use xlink:href="#DejaVuSans-6e" transform="translate(1003.658203 0)"/>
      <use xlink:href="#DejaVuSans-75" transform="translate(1067.037109 0)"/>
      <use xlink:href="#DejaVuSans-73" transform="translate(1130.416016 0)"/>
      <use xlink:href="#DejaVuSans-20" transform="translate(1182.515625 0)"/>
      <use xlink:href="#DejaVuSans-5b" transform="translate(1214.302734 0)"/>
      <use xlink:href="#DejaVuSans-6e" transform="translate(1253.316406 0)"/>
      <use xlink:href="#DejaVuSans-74" transform="translate(1316.695312 0)"/>
      <use xlink:href="#DejaVuSans-5d" transform="translate(1355.904297 0)"/>
     </g>
    </g>
   </g>
   <g id="matplotlib.axis_2">
    <g id="ytick_1">
     <g id="line2d_15">
      <path d="M 46.965625 439.07267 
L 572.135625 439.07267 
" clip-path="url(#pe3aec71428)" style="fill: none; stroke-dasharray: 2.96,1.28; stroke-dashoffset: 0; stroke: #b0b0b0; stroke-opacity: 0.6; stroke-width: 0.8"/>
     </g>
     <g id="line2d_16">
      <defs>
       <path id="mf0064f5499" d="M 0 0 
L -3.5 0 
" style="stroke: #000000; stroke-width: 0.8"/>
      </defs>
      <g>
       <use xlink:href="#mf0064f5499" x="46.965625" y="439.07267" style="stroke: #000000; stroke-width: 0.8"/>
      </g>
     </g>
     <g id="text_9">
      <!-- 0 -->
      <g transform="translate(33.603125 442.871889) scale(0.1 -0.1)">
       <use xlink:href="#DejaVuSans-30"/>
      </g>
     </g>
    </g>
    <g id="ytick_2">
     <g id="line2d_17">
      <path d="M 46.965625 379.655142 
L 572.135625 379.655142 
" clip-path="url(#pe3aec71428)" style="fill: none; stroke-dasharray: 2.96,1.28; stroke-dashoffset: 0; stroke: #b0b0b0; stroke-opacity: 0.6; stroke-width: 0.8"/>
     </g>
     <g id="line2d_18">
      <g>
       <use xlink:href="#mf0064f5499" x="46.965625" y="379.655142" style="stroke: #000000; stroke-width: 0.8"/>
      </g>
     </g>
     <g id="text_10">
      <!-- 20 -->
      <g transform="translate(27.240625 383.454361) scale(0.1 -0.1)">
       <use xlink:href="#DejaVuSans-32"/>
       <use xlink:href="#DejaVuSans-30" transform="translate(63.623047 0)"/>
      </g>
     </g>
    </g>
    <g id="ytick_3">
     <g id="line2d_19">
      <path d="M 46.965625 320.237613 
L 572.135625 320.237613 
" clip-path="url(#pe3aec71428)" style="fill: none; stroke-dasharray: 2.96,1.28; stroke-dashoffset: 0; stroke: #b0b0b0; stroke-opacity: 0.6; stroke-width: 0.8"/>
     </g>
     <g id="line2d_20">
      <g>
       <use xlink:href="#mf0064f5499" x="46.965625" y="320.237613" style="stroke: #000000; stroke-width: 0.8"/>
      </g>
     </g>
     <g id="text_11">
      <!-- 40 -->
      <g transform="translate(27.240625 324.036832) scale(0.1 -0.1)">
       <use xlink:href="#DejaVuSans-34"/>
       <use xlink:href="#DejaVuSans-30" transform="translate(63.623047 0)"/>
      </g>
     </g>
    </g>
    <g id="ytick_4">
     <g id="line2d_21">
      <path d="M 46.965625 260.820085 
L 572.135625 260.820085 
" clip-path="url(#pe3aec71428)" style="fill: none; stroke-dasharray: 2.96,1.28; stroke-dashoffset: 0; stroke: #b0b0b0; stroke-opacity: 0.6; stroke-width: 0.8"/>
     </g>
     <g id="line2d_22">
      <g>
       <use xlink:href="#mf0064f5499" x="46.965625" y="260.820085" style="stroke: #000000; stroke-width: 0.8"/>
      </g>
     </g>
     <g id="text_12">
      <!-- 60 -->
      <g transform="translate(27.240625 264.619303) scale(0.1 -0.1)">
       <use xlink:href="#DejaVuSans-36"/>
       <use xlink:href="#DejaVuSans-30" transform="translate(63.623047 0)"/>
      </g>
     </g>
    </g>
    <g id="ytick_5">
     <g id="line2d_23">
      <path d="M 46.965625 201.402556 
L 572.135625 201.402556 
" clip-path="url(#pe3aec71428)" style="fill: none; stroke-dasharray: 2.96,1.28; stroke-dashoffset: 0; stroke: #b0b0b0; stroke-opacity: 0.6; stroke-width: 0.8"/>
     </g>
     <g id="line2d_24">
      <g>
       <use xlink:href="#mf0064f5499" x="46.965625" y="201.402556" style="stroke: #000000; stroke-width: 0.8"/>
      </g>
     </g>
     <g id="text_13">
      <!-- 80 -->
      <g transform="translate(27.240625 205.201775) scale(0.1 -0.1)">
       <use xlink:href="#DejaVuSans-38"/>
       <use xlink:href="#DejaVuSans-30" transform="translate(63.623047 0)"/>
      </g>
     </g>
    </g>
    <g id="ytick_6">
     <g id="line2d_25">
      <path d="M 46.965625 141.985028 
L 572.135625 141.985028 
" clip-path="url(#pe3aec71428)" style="fill: none; stroke-dasharray: 2.96,1.28; stroke-dashoffset: 0; stroke: #b0b0b0; stroke-opacity: 0.6; stroke-width: 0.8"/>
     </g>
     <g id="line2d_26">
      <g>
       <use xlink:href="#mf0064f5499" x="46.965625" y="141.985028" style="stroke: #000000; stroke-width: 0.8"/>
      </g>
     </g>
     <g id="text_14">
      <!-- 100 -->
      <g transform="translate(20.878125 145.784246) scale(0.1 -0.1)">
       <use xlink:href="#DejaVuSans-31"/>
       <use xlink:href="#DejaVuSans-30" transform="translate(63.623047 0)"/>
       <use xlink:href="#DejaVuSans-30" transform="translate(127.246094 0)"/>
      </g>
     </g>
    </g>
    <g id="ytick_7">
     <g id="line2d_27">
      <path d="M 46.965625 82.567499 
L 572.135625 82.567499 
" clip-path="url(#pe3aec71428)" style="fill: none; stroke-dasharray: 2.96,1.28; stroke-dashoffset: 0; stroke: #b0b0b0; stroke-opacity: 0.6; stroke-width: 0.8"/>
     </g>
     <g id="line2d_28">
      <g>
       <use xlink:href="#mf0064f5499" x="46.965625" y="82.567499" style="stroke: #000000; stroke-width: 0.8"/>
      </g>
     </g>
     <g id="text_15">
      <!-- 120 -->
      <g transform="translate(20.878125 86.366718) scale(0.1 -0.1)">
       <use xlink:href="#DejaVuSans-31"/>
       <use xlink:href="#DejaVuSans-32" transform="translate(63.623047 0)"/>
       <use xlink:href="#DejaVuSans-30" transform="translate(127.246094 0)"/>
      </g>
     </g>
    </g>
    <g id="ytick_8">
     <g id="line2d_29">
      <path d="M 46.965625 23.14997 
L 572.135625 23.14997 
" clip-path="url(#pe3aec71428)" style="fill: none; stroke-dasharray: 2.96,1.28; stroke-dashoffset: 0; stroke: #b0b0b0; stroke-opacity: 0.6; stroke-width: 0.8"/>
     </g>
     <g id="line2d_30">
      <g>
       <use xlink:href="#mf0064f5499" x="46.965625" y="23.14997" style="stroke: #000000; stroke-width: 0.8"/>
      </g>
     </g>
     <g id="text_16">
      <!-- 140 -->
      <g transform="translate(20.878125 26.949189) scale(0.1 -0.1)">
       <use xlink:href="#DejaVuSans-31"/>
       <use xlink:href="#DejaVuSans-34" transform="translate(63.623047 0)"/>
       <use xlink:href="#DejaVuSans-30" transform="translate(127.246094 0)"/>
      </g>
     </g>
    </g>
    <g id="text_17">
     <!-- Average Cumulative Count -->
     <g transform="translate(14.798438 307.715) rotate(-90) scale(0.1 -0.1)">
      <defs>
       <path id="DejaVuSans-41" d="M 2188 4044 
L 1331 1722 
L 3047 1722 
L 2188 4044 
z
M 1831 4666 
L 2547 4666 
L 4325 0 
L 3669 0 
L 3244 1197 
L 1141 1197 
L 716 0 
L 50 0 
L 1831 4666 
z
" transform="scale(0.015625)"/>
       <path id="DejaVuSans-76" d="M 191 3500 
L 800 3500 
L 1894 563 
L 2988 3500 
L 3597 3500 
L 2284 0 
L 1503 0 
L 191 3500 
z
" transform="scale(0.015625)"/>
       <path id="DejaVuSans-67" d="M 2906 1791 
Q 2906 2416 2648 2759 
Q 2391 3103 1925 3103 
Q 1463 3103 1205 2759 
Q 947 2416 947 1791 
Q 947 1169 1205 825 
Q 1463 481 1925 481 
Q 2391 481 2648 825 
Q 2906 1169 2906 1791 
z
M 3481 434 
Q 3481 -459 3084 -895 
Q 2688 -1331 1869 -1331 
Q 1566 -1331 1297 -1286 
Q 1028 -1241 775 -1147 
L 775 -588 
Q 1028 -725 1275 -790 
Q 1522 -856 1778 -856 
Q 2344 -856 2625 -561 
Q 2906 -266 2906 331 
L 2906 616 
Q 2728 306 2450 153 
Q 2172 0 1784 0 
Q 1141 0 747 490 
Q 353 981 353 1791 
Q 353 2603 747 3093 
Q 1141 3584 1784 3584 
Q 2172 3584 2450 3431 
Q 2728 3278 2906 2969 
L 2906 3500 
L 3481 3500 
L 3481 434 
z
" transform="scale(0.015625)"/>
       <path id="DejaVuSans-43" d="M 4122 4306 
L 4122 3641 
Q 3803 3938 3442 4084 
Q 3081 4231 2675 4231 
Q 1875 4231 1450 3742 
Q 1025 3253 1025 2328 
Q 1025 1406 1450 917 
Q 1875 428 2675 428 
Q 3081 428 3442 575 
Q 3803 722 4122 1019 
L 4122 359 
Q 3791 134 3420 21 
Q 3050 -91 2638 -91 
Q 1578 -91 968 557 
Q 359 1206 359 2328 
Q 359 3453 968 4101 
Q 1578 4750 2638 4750 
Q 3056 4750 3426 4639 
Q 3797 4528 4122 4306 
z
" transform="scale(0.015625)"/>
       <path id="DejaVuSans-6c" d="M 603 4863 
L 1178 4863 
L 1178 0 
L 603 0 
L 603 4863 
z
" transform="scale(0.015625)"/>
      </defs>
      <use xlink:href="#DejaVuSans-41"/>
      <use xlink:href="#DejaVuSans-76" transform="translate(62.533203 0)"/>
      <use xlink:href="#DejaVuSans-65" transform="translate(121.712891 0)"/>
      <use xlink:href="#DejaVuSans-72" transform="translate(183.236328 0)"/>
      <use xlink:href="#DejaVuSans-61" transform="translate(224.349609 0)"/>
      <use xlink:href="#DejaVuSans-67" transform="translate(285.628906 0)"/>
      <use xlink:href="#DejaVuSans-65" transform="translate(349.105469 0)"/>
      <use xlink:href="#DejaVuSans-20" transform="translate(410.628906 0)"/>
      <use xlink:href="#DejaVuSans-43" transform="translate(442.416016 0)"/>
      <use xlink:href="#DejaVuSans-75" transform="translate(512.240234 0)"/>
      <use xlink:href="#DejaVuSans-6d" transform="translate(575.619141 0)"/>
      <use xlink:href="#DejaVuSans-75" transform="translate(673.03125 0)"/>
      <use xlink:href="#DejaVuSans-6c" transform="translate(736.410156 0)"/>
      <use xlink:href="#DejaVuSans-61" transform="translate(764.193359 0)"/>
      <use xlink:href="#DejaVuSans-74" transform="translate(825.472656 0)"/>
      <use xlink:href="#DejaVuSans-69" transform="translate(864.681641 0)"/>
      <use xlink:href="#DejaVuSans-76" transform="translate(892.464844 0)"/>
      <use xlink:href="#DejaVuSans-65" transform="translate(951.644531 0)"/>
      <use xlink:href="#DejaVuSans-20" transform="translate(1013.167969 0)"/>
      <use xlink:href="#DejaVuSans-43" transform="translate(1044.955078 0)"/>
      <use xlink:href="#DejaVuSans-6f" transform="translate(1114.779297 0)"/>
      <use xlink:href="#DejaVuSans-75" transform="translate(1175.960938 0)"/>
      <use xlink:href="#DejaVuSans-6e" transform="translate(1239.339844 0)"/>
      <use xlink:href="#DejaVuSans-74" transform="translate(1302.71875 0)"/>
     </g>
    </g>
   </g>
   <g id="line2d_31">
    <path d="M 70.836989 439.07267 
L 71.632767 439.07267 
L 71.752134 438.478495 
L 71.871501 438.478495 
L 71.990867 437.88432 
L 72.150023 437.88432 
L 72.26939 437.290145 
L 76.407438 437.290145 
L 76.526804 436.695969 
L 77.959206 436.695969 
L 78.078572 436.101794 
L 78.595828 436.101794 
L 78.715195 435.507619 
L 86.832135 435.507619 
L 86.951502 434.913443 
L 87.38918 434.913443 
L 87.508547 434.319268 
L 96.142743 434.319268 
L 96.26211 433.725093 
L 97.336411 433.725093 
L 97.455777 433.130918 
L 97.614933 433.130918 
L 97.774089 431.942567 
L 98.888179 431.942567 
L 99.007545 431.348392 
L 99.882902 431.348392 
L 100.002268 430.754216 
L 105.49314 430.754216 
L 105.612506 430.160041 
L 109.273087 430.160041 
L 109.392454 429.565866 
L 110.705488 429.565866 
L 110.824855 428.971691 
L 111.222744 428.971691 
L 111.342111 428.377515 
L 111.3819 428.377515 
L 111.501267 427.78334 
L 111.660422 427.78334 
L 111.779789 427.189165 
L 112.058312 427.189165 
L 112.177678 426.594989 
L 114.047758 426.594989 
L 114.167124 426.000814 
L 114.923114 426.000814 
L 115.042481 425.406639 
L 122.244276 425.406639 
L 122.363642 424.812464 
L 123.119632 424.812464 
L 123.238999 424.218288 
L 125.109078 424.218288 
L 125.228445 423.624113 
L 130.958049 423.624113 
L 131.077416 423.029938 
L 131.276361 423.029938 
L 131.395728 422.435762 
L 131.594672 422.435762 
L 131.714039 421.841587 
L 131.793617 421.841587 
L 131.912984 421.247412 
L 139.07499 421.247412 
L 139.194356 420.653237 
L 139.870768 420.653237 
L 139.990135 420.059061 
L 141.223591 420.059061 
L 141.342958 419.464886 
L 141.502114 419.464886 
L 141.621481 418.870711 
L 142.73557 418.870711 
L 142.854937 418.276535 
L 143.014093 418.276535 
L 143.13346 417.68236 
L 143.809871 417.68236 
L 143.929238 417.088185 
L 144.366916 417.088185 
L 144.486283 416.49401 
L 144.685228 416.49401 
L 144.884172 414.711484 
L 145.441217 414.711484 
L 145.560584 414.117308 
L 145.719739 414.117308 
L 145.839106 413.523133 
L 146.595096 413.523133 
L 146.714463 412.928958 
L 147.669397 412.928958 
L 147.788763 412.334783 
L 152.245123 412.334783 
L 152.364489 411.740607 
L 152.523645 411.740607 
L 152.643012 411.146432 
L 153.637735 411.146432 
L 153.757102 410.552257 
L 155.070136 410.552257 
L 155.189503 409.958081 
L 155.348659 409.958081 
L 155.468025 409.363906 
L 155.627181 409.363906 
L 155.746548 408.769731 
L 165.415256 408.769731 
L 165.534623 408.175556 
L 165.653989 408.175556 
L 165.813145 406.987205 
L 165.932512 406.987205 
L 166.051879 406.39303 
L 166.489557 406.39303 
L 166.608923 405.798854 
L 167.961747 405.798854 
L 168.081114 405.204679 
L 170.030771 405.204679 
L 170.150137 404.610504 
L 171.184649 404.610504 
L 171.304016 404.016329 
L 179.341378 404.016329 
L 179.460745 403.422153 
L 181.171669 403.422153 
L 181.291036 402.827978 
L 183.001959 402.827978 
L 183.121326 402.233803 
L 184.195627 402.233803 
L 184.314994 401.639627 
L 184.752672 401.639627 
L 184.872039 401.045452 
L 185.031194 401.045452 
L 185.150561 400.451277 
L 185.309717 400.451277 
L 185.429083 399.857102 
L 187.140007 399.857102 
L 187.259374 399.262926 
L 187.856208 399.262926 
L 187.975574 398.668751 
L 193.983702 398.668751 
L 194.103068 398.074576 
L 200.469296 398.074576 
L 200.588663 397.4804 
L 200.787607 397.4804 
L 200.906974 396.886225 
L 208.307713 396.886225 
L 208.42708 396.29205 
L 213.480273 396.29205 
L 213.59964 395.697875 
L 214.673941 395.697875 
L 214.793308 395.103699 
L 216.026764 395.103699 
L 216.146131 394.509524 
L 216.305287 394.509524 
L 216.424654 393.915349 
L 216.583809 393.915349 
L 216.703176 393.321173 
L 219.806712 393.321173 
L 219.926079 392.726998 
L 313.708567 392.726998 
L 313.827934 392.132823 
L 423.685147 392.132823 
L 423.804514 391.538648 
L 481.737184 391.538648 
L 481.856551 390.944472 
L 548.264261 390.944472 
L 548.264261 390.944472 
" clip-path="url(#pe3aec71428)" style="fill: none; stroke: #006ba4; stroke-width: 2; stroke-linecap: square"/>
   </g>
   <g id="line2d_32">
    <path d="M 70.836989 439.07267 
L 71.672556 439.07267 
L 71.791923 438.478495 
L 71.91129 438.478495 
L 72.030656 437.290145 
L 72.150023 437.290145 
L 72.309179 436.101794 
L 72.468334 436.101794 
L 72.587701 435.507619 
L 73.264113 435.507619 
L 73.38348 434.913443 
L 73.74158 434.913443 
L 73.860947 434.319268 
L 73.980313 434.319268 
L 74.09968 433.725093 
L 74.219047 433.725093 
L 74.338414 433.130918 
L 74.457781 433.130918 
L 74.577147 432.536742 
L 75.21377 432.536742 
L 75.372926 431.348392 
L 75.452504 431.348392 
L 75.57187 430.754216 
L 75.691237 430.754216 
L 75.850393 429.565866 
L 75.929971 429.565866 
L 76.049337 428.971691 
L 76.168704 428.971691 
L 76.288071 428.377515 
L 76.447227 428.377515 
L 76.566593 427.78334 
L 76.924694 427.78334 
L 77.04406 427.189165 
L 77.203216 427.189165 
L 77.322583 426.594989 
L 77.481739 426.594989 
L 77.601105 426.000814 
L 77.879628 426.000814 
L 78.038783 424.812464 
L 78.118361 424.812464 
L 78.237728 424.218288 
L 78.357095 424.218288 
L 78.476462 423.624113 
L 78.635617 423.624113 
L 78.754984 423.029938 
L 79.312029 423.029938 
L 79.431396 422.435762 
L 80.02823 422.435762 
L 80.147596 421.841587 
L 80.266963 421.841587 
L 80.38633 421.247412 
L 80.74443 421.247412 
L 80.863797 420.653237 
L 81.022953 420.653237 
L 81.182108 419.464886 
L 81.261686 419.464886 
L 81.420842 418.276535 
L 81.540209 418.276535 
L 81.659575 417.68236 
L 81.778942 417.68236 
L 81.938098 416.49401 
L 82.017676 416.49401 
L 82.137042 415.899834 
L 82.534932 415.899834 
L 82.654298 415.305659 
L 82.773665 415.305659 
L 82.893032 414.711484 
L 83.450077 414.711484 
L 83.569444 414.117308 
L 83.728599 414.117308 
L 83.847966 413.523133 
L 83.887755 413.523133 
L 84.007122 412.928958 
L 84.126489 412.928958 
L 84.285644 411.740607 
L 84.365222 411.740607 
L 84.524378 410.552257 
L 84.643745 410.552257 
L 84.8029 409.363906 
L 84.882478 409.363906 
L 85.001845 408.769731 
L 85.121212 408.769731 
L 85.240578 408.175556 
L 85.359945 408.175556 
L 85.479312 406.987205 
L 85.598679 406.987205 
L 85.718045 406.39303 
L 85.837412 406.39303 
L 85.956779 405.204679 
L 86.076146 405.204679 
L 86.235301 404.016329 
L 86.314879 404.016329 
L 86.474035 402.827978 
L 86.593402 402.827978 
L 86.712768 402.233803 
L 86.832135 402.233803 
L 86.991291 401.045452 
L 87.150447 401.045452 
L 87.269813 400.451277 
L 87.349391 400.451277 
L 87.508547 399.262926 
L 87.826858 399.262926 
L 87.946225 398.668751 
L 88.065592 398.668751 
L 88.184959 398.074576 
L 88.344114 398.074576 
L 88.463481 397.4804 
L 88.582848 397.4804 
L 88.702215 396.29205 
L 89.259259 396.29205 
L 89.418415 395.103699 
L 89.497993 395.103699 
L 89.61736 394.509524 
L 89.736726 394.509524 
L 89.856093 393.915349 
L 89.935671 393.915349 
L 90.055038 393.321173 
L 90.214194 393.321173 
L 90.33356 392.726998 
L 90.492716 392.726998 
L 90.612083 392.132823 
L 91.129339 392.132823 
L 91.288494 390.944472 
L 91.368072 390.944472 
L 91.487439 390.350297 
L 91.80575 390.350297 
L 91.925117 389.756122 
L 92.044484 389.756122 
L 92.163851 389.161946 
L 92.283217 389.161946 
L 92.402584 388.567771 
L 92.482162 388.567771 
L 92.641318 387.379421 
L 92.760685 387.379421 
L 92.880051 386.785245 
L 93.238152 386.785245 
L 93.357518 386.19107 
L 93.397307 386.19107 
L 93.556463 385.002719 
L 93.636041 385.002719 
L 93.755408 384.408544 
L 93.874774 384.408544 
L 94.03393 383.220194 
L 94.193086 383.220194 
L 94.312453 382.626018 
L 94.471608 382.626018 
L 94.590975 382.031843 
L 95.028653 382.031843 
L 95.14802 381.437668 
L 95.307176 381.437668 
L 95.466331 380.249317 
L 95.665276 380.249317 
L 95.784643 379.655142 
L 96.182532 379.655142 
L 96.301899 379.060967 
L 96.341688 379.060967 
L 96.500843 377.872616 
L 97.177255 377.872616 
L 97.296622 377.278441 
L 97.376199 377.278441 
L 97.535355 376.09009 
L 97.654722 376.09009 
L 97.813878 374.90174 
L 98.211767 374.90174 
L 98.331134 374.307564 
L 98.4505 374.307564 
L 98.569867 373.713389 
L 98.649445 373.713389 
L 98.808601 372.525038 
L 98.927967 372.525038 
L 99.047334 371.930863 
L 99.166701 371.930863 
L 99.286068 371.336688 
L 99.405434 371.336688 
L 99.524801 370.742513 
L 99.683957 370.742513 
L 99.803324 370.148337 
L 99.92269 370.148337 
L 100.042057 369.554162 
L 100.161424 369.554162 
L 100.280791 368.959987 
L 100.400158 368.959987 
L 100.559313 367.771636 
L 100.638891 367.771636 
L 100.837836 365.98911 
L 100.957202 365.98911 
L 101.076569 365.394935 
L 101.195936 365.394935 
L 101.394881 363.612409 
L 101.43467 363.612409 
L 101.633614 361.829883 
L 101.752981 361.829883 
L 101.872348 361.235708 
L 101.912137 361.235708 
L 102.071292 360.047357 
L 102.15087 360.047357 
L 102.310026 358.859007 
L 102.668126 358.859007 
L 102.867071 357.076481 
L 103.026226 357.076481 
L 103.185382 355.88813 
L 103.26496 355.88813 
L 103.424116 354.69978 
L 103.782216 354.69978 
L 103.901583 354.105605 
L 104.140316 354.105605 
L 104.259683 353.511429 
L 104.37905 353.511429 
L 104.498416 352.917254 
L 104.538205 352.917254 
L 104.697361 351.728903 
L 104.776939 351.728903 
L 104.896306 351.134728 
L 105.015672 351.134728 
L 105.135039 350.540553 
L 105.254406 350.540553 
L 105.373773 349.946378 
L 105.532928 349.946378 
L 105.652295 349.352202 
L 105.692084 349.352202 
L 105.891029 347.569676 
L 105.970607 347.569676 
L 106.129762 346.381326 
L 106.288918 346.381326 
L 106.408285 345.787151 
L 106.845963 345.787151 
L 106.96533 344.5988 
L 107.283641 344.5988 
L 107.482586 342.816274 
L 107.562163 342.816274 
L 107.68153 342.222099 
L 107.800897 342.222099 
L 107.920264 341.627924 
L 108.158997 341.627924 
L 108.318153 340.439573 
L 108.556887 340.439573 
L 108.716042 339.251222 
L 108.79562 339.251222 
L 108.954776 338.062872 
L 109.034354 338.062872 
L 109.15372 337.468697 
L 109.312876 337.468697 
L 109.432243 336.874521 
L 109.55161 336.874521 
L 109.670976 335.686171 
L 110.228021 335.686171 
L 110.347388 334.49782 
L 110.466755 334.49782 
L 110.586122 332.715294 
L 110.745277 332.715294 
L 110.864644 332.121119 
L 110.904433 332.121119 
L 111.0238 331.526944 
L 111.262533 331.526944 
L 111.3819 330.932768 
L 111.421689 330.932768 
L 111.580845 329.744418 
L 111.700211 329.744418 
L 111.819578 329.150243 
L 112.098101 329.150243 
L 112.257256 327.961892 
L 112.336834 327.961892 
L 112.456201 327.367717 
L 113.013246 327.367717 
L 113.132613 326.773541 
L 113.21219 326.773541 
L 113.371346 325.585191 
L 113.490713 325.585191 
L 113.61008 324.991016 
L 113.689657 324.991016 
L 113.848813 323.802665 
L 114.087547 323.802665 
L 114.206913 323.20849 
L 114.32628 323.20849 
L 114.445647 322.614314 
L 114.68438 322.614314 
L 114.803747 322.020139 
L 114.962903 322.020139 
L 115.08227 320.831789 
L 115.122059 320.831789 
L 115.241425 320.237613 
L 115.360792 320.237613 
L 115.480159 319.643438 
L 115.599526 319.643438 
L 115.718892 319.049263 
L 115.838259 319.049263 
L 115.957626 317.860912 
L 116.076993 317.860912 
L 116.196359 317.266737 
L 116.355515 317.266737 
L 116.474882 316.672562 
L 116.594249 316.672562 
L 116.713615 315.484211 
L 116.832982 315.484211 
L 116.952349 314.29586 
L 116.992138 314.29586 
L 117.151294 313.10751 
L 117.350238 313.10751 
L 117.509394 311.919159 
L 117.588972 311.919159 
L 117.708339 311.324984 
L 117.827705 311.324984 
L 117.947072 310.136633 
L 118.02665 310.136633 
L 118.146017 309.542458 
L 118.504117 309.542458 
L 118.663273 308.354108 
L 118.74285 308.354108 
L 118.862217 307.759932 
L 118.941795 307.759932 
L 119.100951 306.571582 
L 119.220318 306.571582 
L 119.379473 305.383231 
L 119.459051 305.383231 
L 119.618207 304.194881 
L 119.697785 304.194881 
L 119.817151 303.600705 
L 119.85694 303.600705 
L 119.976307 303.00653 
L 120.215041 303.00653 
L 120.334407 302.412355 
L 120.453774 302.412355 
L 120.573141 301.818179 
L 120.652719 301.818179 
L 120.772086 301.224004 
L 121.010819 301.224004 
L 121.130186 300.629829 
L 121.488286 300.629829 
L 121.607653 299.441478 
L 121.925964 299.441478 
L 122.08512 298.253128 
L 122.164698 298.253128 
L 122.363642 296.470602 
L 122.403431 296.470602 
L 122.522798 295.876427 
L 122.681954 295.876427 
L 122.801321 295.282251 
L 122.880898 295.282251 
L 123.000265 294.688076 
L 123.159421 294.688076 
L 123.318576 292.90555 
L 123.398154 292.90555 
L 123.517521 292.311375 
L 123.91541 292.311375 
L 124.074566 291.123024 
L 124.353088 291.123024 
L 124.472455 290.528849 
L 124.631611 290.528849 
L 124.750978 289.934674 
L 124.870344 289.934674 
L 124.989711 289.340498 
L 125.148867 289.340498 
L 125.308023 287.557973 
L 125.3876 287.557973 
L 125.506967 286.369622 
L 125.586545 286.369622 
L 125.745701 285.181271 
L 125.825279 285.181271 
L 125.984434 283.992921 
L 126.103801 283.992921 
L 126.223168 283.398746 
L 126.342535 283.398746 
L 126.461901 282.80457 
L 126.780213 282.80457 
L 126.899579 282.210395 
L 127.098524 282.210395 
L 127.297469 280.427869 
L 127.337258 280.427869 
L 127.456624 279.833694 
L 127.496413 279.833694 
L 127.61578 279.239519 
L 127.735147 279.239519 
L 127.854514 278.645343 
L 127.934091 278.645343 
L 128.093247 277.456993 
L 128.172825 277.456993 
L 128.331981 276.268642 
L 128.928814 276.268642 
L 129.08797 275.080292 
L 129.167548 275.080292 
L 129.286915 274.486116 
L 129.326704 274.486116 
L 129.485859 273.297766 
L 129.883749 273.297766 
L 130.003115 272.70359 
L 130.997838 272.70359 
L 131.117205 271.51524 
L 131.31615 271.51524 
L 131.475305 270.326889 
L 131.515094 270.326889 
L 131.714039 268.544363 
L 131.833406 268.544363 
L 131.992561 266.761838 
L 132.111928 266.761838 
L 132.231295 266.167662 
L 132.549606 266.167662 
L 132.668973 264.979312 
L 132.748551 264.979312 
L 132.907707 263.790961 
L 133.027073 263.790961 
L 133.14644 262.602611 
L 133.265807 262.602611 
L 133.385174 261.41426 
L 133.942219 261.41426 
L 134.061585 260.820085 
L 134.419686 260.820085 
L 134.539052 260.225909 
L 134.897153 260.225909 
L 135.01652 259.631734 
L 135.056308 259.631734 
L 135.215464 258.443384 
L 135.295042 258.443384 
L 135.414409 257.849208 
L 135.573564 257.849208 
L 135.73272 256.660858 
L 135.812298 256.660858 
L 135.971454 255.472507 
L 136.170398 255.472507 
L 136.289765 254.878332 
L 136.409132 254.878332 
L 136.568287 253.095806 
L 136.687654 253.095806 
L 136.807021 251.907455 
L 136.926388 251.907455 
L 137.085543 250.12493 
L 137.881322 250.12493 
L 138.000689 249.530754 
L 138.159844 249.530754 
L 138.279211 248.342404 
L 138.796467 248.342404 
L 138.915834 247.748228 
L 139.114778 247.748228 
L 139.234145 247.154053 
L 139.353512 247.154053 
L 139.472879 246.559878 
L 139.592246 246.559878 
L 139.751401 245.371527 
L 139.910557 245.371527 
L 140.109501 243.589001 
L 140.427813 243.589001 
L 140.586969 242.400651 
L 140.666546 242.400651 
L 140.825702 241.2123 
L 140.90528 241.2123 
L 141.064436 240.02395 
L 141.144013 240.02395 
L 141.342958 238.241424 
L 141.502114 238.241424 
L 141.661269 237.053073 
L 141.740847 237.053073 
L 141.860214 236.458898 
L 141.939792 236.458898 
L 142.098948 235.270547 
L 142.218314 235.270547 
L 142.337681 234.676372 
L 142.616204 234.676372 
L 142.73557 234.082197 
L 142.775359 234.082197 
L 142.894726 233.488022 
L 143.014093 233.488022 
L 143.213037 231.705496 
L 143.252826 231.705496 
L 143.411982 230.517145 
L 143.84966 230.517145 
L 144.008816 229.328795 
L 144.088394 229.328795 
L 144.20776 228.734619 
L 144.327127 228.734619 
L 144.486283 227.546269 
L 144.725016 227.546269 
L 144.923961 225.763743 
L 144.96375 225.763743 
L 145.122906 224.575392 
L 145.282061 224.575392 
L 145.401428 223.981217 
L 145.481006 223.981217 
L 145.640162 222.792866 
L 145.759528 222.792866 
L 145.918684 221.604516 
L 145.958473 221.604516 
L 146.117629 220.416165 
L 146.197207 220.416165 
L 146.356362 219.227815 
L 146.515518 219.227815 
L 146.674674 218.039464 
L 146.754251 218.039464 
L 146.873618 217.445289 
L 146.953196 217.445289 
L 147.112352 216.256938 
L 147.152141 216.256938 
L 147.311296 215.068588 
L 147.390874 215.068588 
L 147.55003 213.880237 
L 147.629608 213.880237 
L 147.828552 212.097711 
L 148.027497 212.097711 
L 148.186653 210.909361 
L 148.26623 210.909361 
L 148.385597 210.315185 
L 148.425386 210.315185 
L 148.544753 209.126835 
L 148.902853 209.126835 
L 149.02222 208.53266 
L 149.141587 208.53266 
L 149.300742 207.344309 
L 149.38032 207.344309 
L 149.499687 206.750134 
L 149.658843 206.750134 
L 149.778209 206.155958 
L 150.056732 206.155958 
L 150.176099 205.561783 
L 150.295465 205.561783 
L 150.414832 204.967608 
L 150.693355 204.967608 
L 150.812721 204.373433 
L 150.932088 204.373433 
L 151.051455 203.185082 
L 151.210611 203.185082 
L 151.329977 202.590907 
L 151.449344 202.590907 
L 151.6085 201.402556 
L 151.9666 201.402556 
L 152.085967 200.808381 
L 152.284912 200.808381 
L 152.483856 199.025855 
L 152.563434 199.025855 
L 152.682801 198.43168 
L 153.160268 198.43168 
L 153.279635 197.837504 
L 153.43879 197.837504 
L 153.558157 197.243329 
L 153.677524 197.243329 
L 153.83668 195.460803 
L 153.916257 195.460803 
L 154.035624 194.866628 
L 154.393724 194.866628 
L 154.513091 194.272453 
L 154.632458 194.272453 
L 154.791614 193.084102 
L 155.109925 193.084102 
L 155.269081 191.895752 
L 155.388447 191.895752 
L 155.547603 190.707401 
L 155.66697 190.707401 
L 155.786337 189.51905 
L 156.104648 189.51905 
L 156.224015 188.924875 
L 156.820849 188.924875 
L 156.980004 187.736525 
L 157.059582 187.736525 
L 157.178949 187.142349 
L 157.298316 187.142349 
L 157.417682 186.548174 
L 157.576838 186.548174 
L 157.696205 185.359823 
L 157.815572 185.359823 
L 157.934938 184.765648 
L 158.094094 184.765648 
L 158.213461 184.171473 
L 158.332828 184.171473 
L 158.491983 182.983122 
L 158.571561 182.983122 
L 158.690928 182.388947 
L 158.850084 182.388947 
L 158.96945 181.794772 
L 159.049028 181.794772 
L 159.208184 180.606421 
L 159.247973 180.606421 
L 159.36734 180.012246 
L 159.446917 180.012246 
L 159.566284 179.418071 
L 159.72544 179.418071 
L 159.884596 178.22972 
L 160.003962 178.22972 
L 160.123329 177.635545 
L 160.202907 177.635545 
L 160.322274 177.041369 
L 160.720163 177.041369 
L 160.879319 175.853019 
L 160.998685 175.853019 
L 161.157841 174.664668 
L 161.237419 174.664668 
L 161.356786 174.070493 
L 161.476153 174.070493 
L 161.635308 172.882142 
L 161.714886 172.882142 
L 161.874042 171.693792 
L 162.112775 171.693792 
L 162.271931 170.505441 
L 162.351509 170.505441 
L 162.510664 169.317091 
L 162.709609 169.317091 
L 162.828976 168.722915 
L 162.948343 168.722915 
L 163.067709 168.12874 
L 163.107498 168.12874 
L 163.226865 167.534565 
L 163.346232 167.534565 
L 163.505388 166.346214 
L 163.545176 166.346214 
L 163.704332 165.157864 
L 163.863488 165.157864 
L 163.982855 163.969513 
L 164.301166 163.969513 
L 164.460322 162.781163 
L 164.619477 162.781163 
L 164.778633 161.592812 
L 164.937789 161.592812 
L 165.057155 160.998637 
L 165.096944 160.998637 
L 165.2561 159.810286 
L 165.455045 159.810286 
L 165.6142 158.621936 
L 165.693778 158.621936 
L 165.852934 157.433585 
L 165.972301 157.433585 
L 166.091667 156.83941 
L 166.211034 156.83941 
L 166.330401 156.245234 
L 166.529346 156.245234 
L 166.648712 155.651059 
L 166.72829 155.651059 
L 166.847657 155.056884 
L 166.967024 155.056884 
L 167.08639 154.462709 
L 167.245546 154.462709 
L 167.364913 153.868533 
L 167.48428 153.868533 
L 167.603646 153.274358 
L 168.001536 153.274358 
L 168.120902 152.680183 
L 168.20048 152.680183 
L 168.319847 152.086007 
L 168.558581 152.086007 
L 168.677947 151.491832 
L 169.115625 151.491832 
L 169.234992 150.897657 
L 169.274781 150.897657 
L 169.394148 150.303482 
L 169.712459 150.303482 
L 169.871615 149.115131 
L 170.07056 149.115131 
L 170.229715 147.92678 
L 170.945916 147.92678 
L 171.065283 147.332605 
L 171.224438 147.332605 
L 171.343805 146.73843 
L 171.463172 146.73843 
L 171.582539 146.144255 
L 172.25895 146.144255 
L 172.378317 145.550079 
L 172.418106 145.550079 
L 172.537473 144.955904 
L 172.65684 144.955904 
L 172.776206 144.361729 
L 172.895573 144.361729 
L 173.01494 143.767553 
L 173.134307 143.767553 
L 173.253673 143.173378 
L 173.37304 143.173378 
L 173.492407 142.579203 
L 173.691351 142.579203 
L 173.810718 141.985028 
L 173.930085 141.985028 
L 174.049452 141.390852 
L 174.168819 141.390852 
L 174.288185 140.796677 
L 174.885019 140.796677 
L 175.004386 140.202502 
L 175.044175 140.202502 
L 175.163542 139.608326 
L 175.720587 139.608326 
L 175.839953 139.014151 
L 175.999109 139.014151 
L 176.158265 137.825801 
L 176.277631 137.825801 
L 176.396998 137.231625 
L 176.516365 137.231625 
L 176.635732 136.63745 
L 176.794887 136.63745 
L 176.914254 136.043275 
L 177.232566 136.043275 
L 177.351932 135.449099 
L 177.471299 135.449099 
L 177.590666 134.854924 
L 177.948766 134.854924 
L 178.107922 133.666574 
L 178.1875 133.666574 
L 178.346655 132.478223 
L 178.585389 132.478223 
L 178.744545 131.289872 
L 178.824122 131.289872 
L 178.943489 130.695697 
L 179.062856 130.695697 
L 179.222012 129.507347 
L 179.301589 129.507347 
L 179.460745 128.318996 
L 179.619901 128.318996 
L 179.739268 127.724821 
L 179.779057 127.724821 
L 179.898423 127.130645 
L 180.01779 127.130645 
L 180.137157 126.53647 
L 180.256524 126.53647 
L 180.415679 125.34812 
L 180.733991 125.34812 
L 180.893146 124.159769 
L 180.972724 124.159769 
L 181.13188 122.971418 
L 181.211458 122.971418 
L 181.370613 121.783068 
L 181.808292 121.783068 
L 181.927658 121.188893 
L 182.047025 121.188893 
L 182.166392 120.594717 
L 182.285759 120.594717 
L 182.405125 120.000542 
L 182.60407 120.000542 
L 182.723437 119.406367 
L 182.842804 119.406367 
L 182.96217 118.812191 
L 183.041748 118.812191 
L 183.161115 118.218016 
L 183.320271 118.218016 
L 183.439637 117.623841 
L 183.559004 117.623841 
L 183.678371 117.029666 
L 183.797738 117.029666 
L 183.917104 116.43549 
L 184.07626 116.43549 
L 184.195627 115.841315 
L 184.235416 115.841315 
L 184.354783 115.24714 
L 184.513938 115.24714 
L 184.633305 114.652964 
L 184.792461 114.652964 
L 184.911827 114.058789 
L 185.070983 114.058789 
L 185.19035 113.464614 
L 185.309717 113.464614 
L 185.468872 112.276263 
L 185.54845 112.276263 
L 185.667817 111.682088 
L 185.787184 111.682088 
L 185.90655 111.087913 
L 186.224862 111.087913 
L 186.344229 110.493737 
L 186.463595 110.493737 
L 186.582962 109.899562 
L 186.861485 109.899562 
L 186.980851 109.305387 
L 187.100218 109.305387 
L 187.259374 108.117036 
L 187.617474 108.117036 
L 187.736841 107.522861 
L 187.816419 107.522861 
L 187.975574 106.33451 
L 188.055152 106.33451 
L 188.214308 105.14616 
L 188.293886 105.14616 
L 188.413253 104.551985 
L 188.572408 104.551985 
L 188.691775 103.957809 
L 189.487553 103.957809 
L 189.60692 103.363634 
L 189.726287 103.363634 
L 189.845654 102.769459 
L 189.925232 102.769459 
L 190.044598 102.175283 
L 190.561854 102.175283 
L 190.72101 100.986933 
L 190.840377 100.986933 
L 190.999532 99.798582 
L 191.477 99.798582 
L 191.596366 99.204407 
L 191.715733 99.204407 
L 191.8351 98.610232 
L 193.187923 98.610232 
L 193.30729 98.016056 
L 194.023491 98.016056 
L 194.142857 97.421881 
L 194.262224 97.421881 
L 194.381591 96.827706 
L 194.42138 96.827706 
L 194.580535 95.639355 
L 195.376314 95.639355 
L 195.495681 95.04518 
L 195.615047 95.04518 
L 195.734414 94.451005 
L 195.89357 94.451005 
L 196.012937 93.856829 
L 196.291459 93.856829 
L 196.410826 93.262654 
L 196.530193 93.262654 
L 196.649559 92.668479 
L 196.768926 92.668479 
L 196.888293 92.074304 
L 197.00766 92.074304 
L 197.127026 91.480128 
L 197.763649 91.480128 
L 197.922805 90.291778 
L 198.002383 90.291778 
L 198.121749 89.697602 
L 198.241116 89.697602 
L 198.360483 89.103427 
L 198.47985 89.103427 
L 198.599217 88.509252 
L 198.758372 88.509252 
L 198.877739 87.915077 
L 199.036895 87.915077 
L 199.156261 87.320901 
L 199.474573 87.320901 
L 199.59394 86.726726 
L 200.509085 86.726726 
L 200.628452 86.132551 
L 200.827396 86.132551 
L 200.946763 85.538375 
L 201.06613 85.538375 
L 201.185496 84.9442 
L 201.941486 84.9442 
L 202.060853 84.350025 
L 203.055576 84.350025 
L 203.174943 83.75585 
L 203.572832 83.75585 
L 203.692199 83.161674 
L 204.050299 83.161674 
L 204.169666 82.567499 
L 204.289032 82.567499 
L 204.408399 81.973324 
L 204.527766 81.973324 
L 204.647133 81.379148 
L 205.243966 81.379148 
L 205.363333 80.784973 
L 205.4827 80.784973 
L 205.602067 80.190798 
L 205.721434 80.190798 
L 205.8408 79.596623 
L 205.960167 79.596623 
L 206.079534 79.002447 
L 206.875312 79.002447 
L 206.994679 78.408272 
L 207.870035 78.408272 
L 207.989402 77.814097 
L 208.347502 77.814097 
L 208.466869 77.219921 
L 208.904547 77.219921 
L 209.023914 76.625746 
L 209.421803 76.625746 
L 209.54117 76.031571 
L 209.660537 76.031571 
L 209.779904 75.437396 
L 210.376737 75.437396 
L 210.496104 74.84322 
L 210.615471 74.84322 
L 210.734838 74.249045 
L 210.854204 74.249045 
L 210.973571 73.65487 
L 211.092938 73.65487 
L 211.212305 73.060694 
L 211.37146 73.060694 
L 211.490827 72.466519 
L 212.286606 72.466519 
L 212.405972 71.872344 
L 212.525339 71.872344 
L 212.644706 71.278169 
L 212.764073 71.278169 
L 212.883439 70.683993 
L 213.520062 70.683993 
L 213.639429 70.089818 
L 214.71373 70.089818 
L 214.833097 69.495643 
L 216.066553 69.495643 
L 216.18592 68.901467 
L 216.345076 68.901467 
L 216.464442 68.307292 
L 216.623598 68.307292 
L 216.742965 67.713117 
L 217.30001 67.713117 
L 217.419377 67.118942 
L 217.578532 67.118942 
L 217.697899 66.524766 
L 217.817266 66.524766 
L 217.936633 65.930591 
L 218.055999 65.930591 
L 218.175366 65.336416 
L 218.533466 65.336416 
L 218.652833 64.74224 
L 218.7722 64.74224 
L 218.891567 64.148065 
L 219.010933 64.148065 
L 219.1303 63.55389 
L 219.846501 63.55389 
L 219.965868 62.959715 
L 221.159535 62.959715 
L 221.278902 62.365539 
L 221.398269 62.365539 
L 221.517636 61.771364 
L 221.915525 61.771364 
L 222.034891 61.177189 
L 223.666237 61.177189 
L 223.785604 60.583013 
L 225.337372 60.583013 
L 225.456739 59.988838 
L 225.695472 59.988838 
L 225.814839 59.394663 
L 225.934206 59.394663 
L 226.053573 58.800488 
L 227.326818 58.800488 
L 227.446185 58.206312 
L 228.241963 58.206312 
L 228.36133 57.612137 
L 236.796581 57.612137 
L 236.915948 57.017962 
L 243.12302 57.017962 
L 243.242387 56.423786 
L 244.356477 56.423786 
L 244.475843 55.829611 
L 245.072677 55.829611 
L 245.192044 55.235436 
L 249.170936 55.235436 
L 249.290303 54.641261 
L 249.40967 54.641261 
L 249.529036 54.047085 
L 249.648403 54.047085 
L 249.76777 53.45291 
L 250.444182 53.45291 
L 250.563548 52.858735 
L 251.478694 52.858735 
L 251.59806 52.264559 
L 251.717427 52.264559 
L 251.836794 51.670384 
L 252.155105 51.670384 
L 252.274472 51.076209 
L 252.911095 51.076209 
L 253.030462 50.482034 
L 253.149828 50.482034 
L 253.269195 49.887858 
L 253.388562 49.887858 
L 253.507929 49.293683 
L 253.667084 49.293683 
L 253.786451 48.699508 
L 273.322812 48.699508 
L 273.442178 48.105332 
L 310.803976 48.105332 
L 310.923343 47.511157 
L 313.748356 47.511157 
L 313.867723 46.916982 
L 314.066668 46.916982 
L 314.186034 46.322807 
L 374.903929 46.322807 
L 375.023296 45.728631 
L 389.98393 45.728631 
L 390.103297 45.134456 
L 423.724936 45.134456 
L 423.844303 44.540281 
L 445.409899 44.540281 
L 445.529265 43.946105 
L 453.049371 43.946105 
L 453.168738 43.35193 
L 455.436707 43.35193 
L 455.556074 42.757755 
L 481.776973 42.757755 
L 481.89634 42.16358 
L 548.264261 42.16358 
L 548.264261 42.16358 
" clip-path="url(#pe3aec71428)" style="fill: none; stroke: #ff800e; stroke-width: 2; stroke-linecap: square"/>
   </g>
   <g id="line2d_33">
    <path d="M 70.836989 439.07267 
L 548.264261 439.07267 
L 548.264261 439.07267 
" clip-path="url(#pe3aec71428)" style="fill: none; stroke-dasharray: 7.4,3.2; stroke-dashoffset: 0; stroke: #006ba4; stroke-width: 2"/>
   </g>
   <g id="line2d_34">
    <path d="M 70.836989 439.07267 
L 166.290612 439.07267 
L 166.409979 436.101794 
L 548.264261 436.101794 
L 548.264261 436.101794 
" clip-path="url(#pe3aec71428)" style="fill: none; stroke-dasharray: 7.4,3.2; stroke-dashoffset: 0; stroke: #ff800e; stroke-width: 2"/>
   </g>
   <g id="patch_3">
    <path d="M 46.965625 458.918125 
L 46.965625 22.318125 
" style="fill: none; stroke: #000000; stroke-width: 0.8; stroke-linejoin: miter; stroke-linecap: square"/>
   </g>
   <g id="patch_4">
    <path d="M 572.135625 458.918125 
L 572.135625 22.318125 
" style="fill: none; stroke: #000000; stroke-width: 0.8; stroke-linejoin: miter; stroke-linecap: square"/>
   </g>
   <g id="patch_5">
    <path d="M 46.965625 458.918125 
L 572.135625 458.918125 
" style="fill: none; stroke: #000000; stroke-width: 0.8; stroke-linejoin: miter; stroke-linecap: square"/>
   </g>
   <g id="patch_6">
    <path d="M 46.965625 22.318125 
L 572.135625 22.318125 
" style="fill: none; stroke: #000000; stroke-width: 0.8; stroke-linejoin: miter; stroke-linecap: square"/>
   </g>
   <g id="text_18">
    <!-- Telomeric Motif Distribution: M_lewisii -->
    <g transform="translate(180.0575 16.318125) scale(0.12 -0.12)">
     <defs>
      <path id="DejaVuSans-Bold-54" d="M 31 4666 
L 4331 4666 
L 4331 3756 
L 2784 3756 
L 2784 0 
L 1581 0 
L 1581 3756 
L 31 3756 
L 31 4666 
z
" transform="scale(0.015625)"/>
      <path id="DejaVuSans-Bold-65" d="M 4031 1759 
L 4031 1441 
L 1416 1441 
Q 1456 1047 1700 850 
Q 1944 653 2381 653 
Q 2734 653 3104 758 
Q 3475 863 3866 1075 
L 3866 213 
Q 3469 63 3072 -14 
Q 2675 -91 2278 -91 
Q 1328 -91 801 392 
Q 275 875 275 1747 
Q 275 2603 792 3093 
Q 1309 3584 2216 3584 
Q 3041 3584 3536 3087 
Q 4031 2591 4031 1759 
z
M 2881 2131 
Q 2881 2450 2695 2645 
Q 2509 2841 2209 2841 
Q 1884 2841 1681 2658 
Q 1478 2475 1428 2131 
L 2881 2131 
z
" transform="scale(0.015625)"/>
      <path id="DejaVuSans-Bold-6c" d="M 538 4863 
L 1656 4863 
L 1656 0 
L 538 0 
L 538 4863 
z
" transform="scale(0.015625)"/>
      <path id="DejaVuSans-Bold-6f" d="M 2203 2784 
Q 1831 2784 1636 2517 
Q 1441 2250 1441 1747 
Q 1441 1244 1636 976 
Q 1831 709 2203 709 
Q 2569 709 2762 976 
Q 2956 1244 2956 1747 
Q 2956 2250 2762 2517 
Q 2569 2784 2203 2784 
z
M 2203 3584 
Q 3106 3584 3614 3096 
Q 4122 2609 4122 1747 
Q 4122 884 3614 396 
Q 3106 -91 2203 -91 
Q 1297 -91 786 396 
Q 275 884 275 1747 
Q 275 2609 786 3096 
Q 1297 3584 2203 3584 
z
" transform="scale(0.015625)"/>
      <path id="DejaVuSans-Bold-6d" d="M 3781 2919 
Q 3994 3244 4286 3414 
Q 4578 3584 4928 3584 
Q 5531 3584 5847 3212 
Q 6163 2841 6163 2131 
L 6163 0 
L 5038 0 
L 5038 1825 
Q 5041 1866 5042 1909 
Q 5044 1953 5044 2034 
Q 5044 2406 4934 2573 
Q 4825 2741 4581 2741 
Q 4263 2741 4089 2478 
Q 3916 2216 3909 1719 
L 3909 0 
L 2784 0 
L 2784 1825 
Q 2784 2406 2684 2573 
Q 2584 2741 2328 2741 
Q 2006 2741 1831 2477 
Q 1656 2213 1656 1722 
L 1656 0 
L 531 0 
L 531 3500 
L 1656 3500 
L 1656 2988 
Q 1863 3284 2130 3434 
Q 2397 3584 2719 3584 
Q 3081 3584 3359 3409 
Q 3638 3234 3781 2919 
z
" transform="scale(0.015625)"/>
      <path id="DejaVuSans-Bold-72" d="M 3138 2547 
Q 2991 2616 2845 2648 
Q 2700 2681 2553 2681 
Q 2122 2681 1889 2404 
Q 1656 2128 1656 1613 
L 1656 0 
L 538 0 
L 538 3500 
L 1656 3500 
L 1656 2925 
Q 1872 3269 2151 3426 
Q 2431 3584 2822 3584 
Q 2878 3584 2943 3579 
Q 3009 3575 3134 3559 
L 3138 2547 
z
" transform="scale(0.015625)"/>
      <path id="DejaVuSans-Bold-69" d="M 538 3500 
L 1656 3500 
L 1656 0 
L 538 0 
L 538 3500 
z
M 538 4863 
L 1656 4863 
L 1656 3950 
L 538 3950 
L 538 4863 
z
" transform="scale(0.015625)"/>
      <path id="DejaVuSans-Bold-63" d="M 3366 3391 
L 3366 2478 
Q 3138 2634 2908 2709 
Q 2678 2784 2431 2784 
Q 1963 2784 1702 2511 
Q 1441 2238 1441 1747 
Q 1441 1256 1702 982 
Q 1963 709 2431 709 
Q 2694 709 2930 787 
Q 3166 866 3366 1019 
L 3366 103 
Q 3103 6 2833 -42 
Q 2563 -91 2291 -91 
Q 1344 -91 809 395 
Q 275 881 275 1747 
Q 275 2613 809 3098 
Q 1344 3584 2291 3584 
Q 2566 3584 2833 3536 
Q 3100 3488 3366 3391 
z
" transform="scale(0.015625)"/>
      <path id="DejaVuSans-Bold-20" transform="scale(0.015625)"/>
      <path id="DejaVuSans-Bold-4d" d="M 588 4666 
L 2119 4666 
L 3181 2169 
L 4250 4666 
L 5778 4666 
L 5778 0 
L 4641 0 
L 4641 3413 
L 3566 897 
L 2803 897 
L 1728 3413 
L 1728 0 
L 588 0 
L 588 4666 
z
" transform="scale(0.015625)"/>
      <path id="DejaVuSans-Bold-74" d="M 1759 4494 
L 1759 3500 
L 2913 3500 
L 2913 2700 
L 1759 2700 
L 1759 1216 
Q 1759 972 1856 886 
Q 1953 800 2241 800 
L 2816 800 
L 2816 0 
L 1856 0 
Q 1194 0 917 276 
Q 641 553 641 1216 
L 641 2700 
L 84 2700 
L 84 3500 
L 641 3500 
L 641 4494 
L 1759 4494 
z
" transform="scale(0.015625)"/>
      <path id="DejaVuSans-Bold-66" d="M 2841 4863 
L 2841 4128 
L 2222 4128 
Q 1984 4128 1890 4042 
Q 1797 3956 1797 3744 
L 1797 3500 
L 2753 3500 
L 2753 2700 
L 1797 2700 
L 1797 0 
L 678 0 
L 678 2700 
L 122 2700 
L 122 3500 
L 678 3500 
L 678 3744 
Q 678 4316 997 4589 
Q 1316 4863 1984 4863 
L 2841 4863 
z
" transform="scale(0.015625)"/>
      <path id="DejaVuSans-Bold-44" d="M 1791 3756 
L 1791 909 
L 2222 909 
Q 2959 909 3348 1275 
Q 3738 1641 3738 2338 
Q 3738 3031 3350 3393 
Q 2963 3756 2222 3756 
L 1791 3756 
z
M 588 4666 
L 1856 4666 
Q 2919 4666 3439 4514 
Q 3959 4363 4331 4000 
Q 4659 3684 4818 3271 
Q 4978 2859 4978 2338 
Q 4978 1809 4818 1395 
Q 4659 981 4331 666 
Q 3956 303 3431 151 
Q 2906 0 1856 0 
L 588 0 
L 588 4666 
z
" transform="scale(0.015625)"/>
      <path id="DejaVuSans-Bold-73" d="M 3272 3391 
L 3272 2541 
Q 2913 2691 2578 2766 
Q 2244 2841 1947 2841 
Q 1628 2841 1473 2761 
Q 1319 2681 1319 2516 
Q 1319 2381 1436 2309 
Q 1553 2238 1856 2203 
L 2053 2175 
Q 2913 2066 3209 1816 
Q 3506 1566 3506 1031 
Q 3506 472 3093 190 
Q 2681 -91 1863 -91 
Q 1516 -91 1145 -36 
Q 775 19 384 128 
L 384 978 
Q 719 816 1070 734 
Q 1422 653 1784 653 
Q 2113 653 2278 743 
Q 2444 834 2444 1013 
Q 2444 1163 2330 1236 
Q 2216 1309 1875 1350 
L 1678 1375 
Q 931 1469 631 1722 
Q 331 1975 331 2491 
Q 331 3047 712 3315 
Q 1094 3584 1881 3584 
Q 2191 3584 2531 3537 
Q 2872 3491 3272 3391 
z
" transform="scale(0.015625)"/>
      <path id="DejaVuSans-Bold-62" d="M 2400 722 
Q 2759 722 2948 984 
Q 3138 1247 3138 1747 
Q 3138 2247 2948 2509 
Q 2759 2772 2400 2772 
Q 2041 2772 1848 2508 
Q 1656 2244 1656 1747 
Q 1656 1250 1848 986 
Q 2041 722 2400 722 
z
M 1656 2988 
Q 1888 3294 2169 3439 
Q 2450 3584 2816 3584 
Q 3463 3584 3878 3070 
Q 4294 2556 4294 1747 
Q 4294 938 3878 423 
Q 3463 -91 2816 -91 
Q 2450 -91 2169 54 
Q 1888 200 1656 506 
L 1656 0 
L 538 0 
L 538 4863 
L 1656 4863 
L 1656 2988 
z
" transform="scale(0.015625)"/>
      <path id="DejaVuSans-Bold-75" d="M 500 1363 
L 500 3500 
L 1625 3500 
L 1625 3150 
Q 1625 2866 1622 2436 
Q 1619 2006 1619 1863 
Q 1619 1441 1641 1255 
Q 1663 1069 1716 984 
Q 1784 875 1895 815 
Q 2006 756 2150 756 
Q 2500 756 2700 1025 
Q 2900 1294 2900 1772 
L 2900 3500 
L 4019 3500 
L 4019 0 
L 2900 0 
L 2900 506 
Q 2647 200 2364 54 
Q 2081 -91 1741 -91 
Q 1134 -91 817 281 
Q 500 653 500 1363 
z
" transform="scale(0.015625)"/>
      <path id="DejaVuSans-Bold-6e" d="M 4056 2131 
L 4056 0 
L 2931 0 
L 2931 347 
L 2931 1631 
Q 2931 2084 2911 2256 
Q 2891 2428 2841 2509 
Q 2775 2619 2662 2680 
Q 2550 2741 2406 2741 
Q 2056 2741 1856 2470 
Q 1656 2200 1656 1722 
L 1656 0 
L 538 0 
L 538 3500 
L 1656 3500 
L 1656 2988 
Q 1909 3294 2193 3439 
Q 2478 3584 2822 3584 
Q 3428 3584 3742 3212 
Q 4056 2841 4056 2131 
z
" transform="scale(0.015625)"/>
      <path id="DejaVuSans-Bold-3a" d="M 716 3500 
L 1844 3500 
L 1844 2291 
L 716 2291 
L 716 3500 
z
M 716 1209 
L 1844 1209 
L 1844 0 
L 716 0 
L 716 1209 
z
" transform="scale(0.015625)"/>
      <path id="DejaVuSans-Bold-5f" d="M 3200 -916 
L 3200 -1509 
L 0 -1509 
L 0 -916 
L 3200 -916 
z
" transform="scale(0.015625)"/>
      <path id="DejaVuSans-Bold-77" d="M 225 3500 
L 1313 3500 
L 1900 1088 
L 2491 3500 
L 3425 3500 
L 4013 1113 
L 4603 3500 
L 5691 3500 
L 4769 0 
L 3547 0 
L 2956 2406 
L 2369 0 
L 1147 0 
L 225 3500 
z
" transform="scale(0.015625)"/>
     </defs>
     <use xlink:href="#DejaVuSans-Bold-54"/>
     <use xlink:href="#DejaVuSans-Bold-65" transform="translate(54.962891 0)"/>
     <use xlink:href="#DejaVuSans-Bold-6c" transform="translate(122.785156 0)"/>
     <use xlink:href="#DejaVuSans-Bold-6f" transform="translate(157.0625 0)"/>
     <use xlink:href="#DejaVuSans-Bold-6d" transform="translate(225.763672 0)"/>
     <use xlink:href="#DejaVuSans-Bold-65" transform="translate(329.962891 0)"/>
     <use xlink:href="#DejaVuSans-Bold-72" transform="translate(397.785156 0)"/>
     <use xlink:href="#DejaVuSans-Bold-69" transform="translate(447.101562 0)"/>
     <use xlink:href="#DejaVuSans-Bold-63" transform="translate(481.378906 0)"/>
     <use xlink:href="#DejaVuSans-Bold-20" transform="translate(540.65625 0)"/>
     <use xlink:href="#DejaVuSans-Bold-4d" transform="translate(575.470703 0)"/>
     <use xlink:href="#DejaVuSans-Bold-6f" transform="translate(674.982422 0)"/>
     <use xlink:href="#DejaVuSans-Bold-74" transform="translate(743.683594 0)"/>
     <use xlink:href="#DejaVuSans-Bold-69" transform="translate(791.486328 0)"/>
     <use xlink:href="#DejaVuSans-Bold-66" transform="translate(825.763672 0)"/>
     <use xlink:href="#DejaVuSans-Bold-20" transform="translate(869.269531 0)"/>
     <use xlink:href="#DejaVuSans-Bold-44" transform="translate(904.083984 0)"/>
     <use xlink:href="#DejaVuSans-Bold-69" transform="translate(987.091797 0)"/>
     <use xlink:href="#DejaVuSans-Bold-73" transform="translate(1021.369141 0)"/>
     <use xlink:href="#DejaVuSans-Bold-74" transform="translate(1080.890625 0)"/>
     <use xlink:href="#DejaVuSans-Bold-72" transform="translate(1128.693359 0)"/>
     <use xlink:href="#DejaVuSans-Bold-69" transform="translate(1178.009766 0)"/>
     <use xlink:href="#DejaVuSans-Bold-62" transform="translate(1212.287109 0)"/>
     <use xlink:href="#DejaVuSans-Bold-75" transform="translate(1283.869141 0)"/>
     <use xlink:href="#DejaVuSans-Bold-74" transform="translate(1355.060547 0)"/>
     <use xlink:href="#DejaVuSans-Bold-69" transform="translate(1402.863281 0)"/>
     <use xlink:href="#DejaVuSans-Bold-6f" transform="translate(1437.140625 0)"/>
     <use xlink:href="#DejaVuSans-Bold-6e" transform="translate(1505.841797 0)"/>
     <use xlink:href="#DejaVuSans-Bold-3a" transform="translate(1577.033203 0)"/>
     <use xlink:href="#DejaVuSans-Bold-20" transform="translate(1617.023438 0)"/>
     <use xlink:href="#DejaVuSans-Bold-4d" transform="translate(1651.837891 0)"/>
     <use xlink:href="#DejaVuSans-Bold-5f" transform="translate(1751.349609 0)"/>
     <use xlink:href="#DejaVuSans-Bold-6c" transform="translate(1801.349609 0)"/>
     <use xlink:href="#DejaVuSans-Bold-65" transform="translate(1835.626953 0)"/>
     <use xlink:href="#DejaVuSans-Bold-77" transform="translate(1903.449219 0)"/>
     <use xlink:href="#DejaVuSans-Bold-69" transform="translate(1995.832031 0)"/>
     <use xlink:href="#DejaVuSans-Bold-73" transform="translate(2030.109375 0)"/>
     <use xlink:href="#DejaVuSans-Bold-69" transform="translate(2089.630859 0)"/>
     <use xlink:href="#DejaVuSans-Bold-69" transform="translate(2123.908203 0)"/>
    </g>
   </g>
   <g id="legend_1">
    <g id="patch_7">
     <path d="M 579.135625 103.70875 
L 703.01375 103.70875 
Q 705.01375 103.70875 705.01375 101.70875 
L 705.01375 29.318125 
Q 705.01375 27.318125 703.01375 27.318125 
L 579.135625 27.318125 
Q 577.135625 27.318125 577.135625 29.318125 
L 577.135625 101.70875 
Q 577.135625 103.70875 579.135625 103.70875 
z
" style="fill: #ffffff; opacity: 0.8; stroke: #cccccc; stroke-linejoin: miter"/>
    </g>
    <g id="text_19">
     <!-- Motifs &amp; Orientation -->
     <g transform="translate(590.6825 38.916562) scale(0.1 -0.1)">
      <defs>
       <path id="DejaVuSans-4d" d="M 628 4666 
L 1569 4666 
L 2759 1491 
L 3956 4666 
L 4897 4666 
L 4897 0 
L 4281 0 
L 4281 4097 
L 3078 897 
L 2444 897 
L 1241 4097 
L 1241 0 
L 628 0 
L 628 4666 
z
" transform="scale(0.015625)"/>
       <path id="DejaVuSans-26" d="M 1556 2509 
Q 1272 2256 1139 2004 
Q 1006 1753 1006 1478 
Q 1006 1022 1337 719 
Q 1669 416 2169 416 
Q 2466 416 2725 514 
Q 2984 613 3213 813 
L 1556 2509 
z
M 1997 2859 
L 3584 1234 
Q 3769 1513 3872 1830 
Q 3975 2147 3994 2503 
L 4575 2503 
Q 4538 2091 4375 1687 
Q 4213 1284 3922 891 
L 4794 0 
L 4006 0 
L 3559 459 
Q 3234 181 2878 45 
Q 2522 -91 2113 -91 
Q 1359 -91 881 339 
Q 403 769 403 1441 
Q 403 1841 612 2192 
Q 822 2544 1241 2853 
Q 1091 3050 1012 3245 
Q 934 3441 934 3628 
Q 934 4134 1281 4442 
Q 1628 4750 2203 4750 
Q 2463 4750 2720 4694 
Q 2978 4638 3244 4525 
L 3244 3956 
Q 2972 4103 2725 4179 
Q 2478 4256 2266 4256 
Q 1938 4256 1733 4082 
Q 1528 3909 1528 3634 
Q 1528 3475 1620 3314 
Q 1713 3153 1997 2859 
z
" transform="scale(0.015625)"/>
       <path id="DejaVuSans-4f" d="M 2522 4238 
Q 1834 4238 1429 3725 
Q 1025 3213 1025 2328 
Q 1025 1447 1429 934 
Q 1834 422 2522 422 
Q 3209 422 3611 934 
Q 4013 1447 4013 2328 
Q 4013 3213 3611 3725 
Q 3209 4238 2522 4238 
z
M 2522 4750 
Q 3503 4750 4090 4092 
Q 4678 3434 4678 2328 
Q 4678 1225 4090 567 
Q 3503 -91 2522 -91 
Q 1538 -91 948 565 
Q 359 1222 359 2328 
Q 359 3434 948 4092 
Q 1538 4750 2522 4750 
z
" transform="scale(0.015625)"/>
      </defs>
      <use xlink:href="#DejaVuSans-4d"/>
      <use xlink:href="#DejaVuSans-6f" transform="translate(86.279297 0)"/>
      <use xlink:href="#DejaVuSans-74" transform="translate(147.460938 0)"/>
      <use xlink:href="#DejaVuSans-69" transform="translate(186.669922 0)"/>
      <use xlink:href="#DejaVuSans-66" transform="translate(214.453125 0)"/>
      <use xlink:href="#DejaVuSans-73" transform="translate(249.658203 0)"/>
      <use xlink:href="#DejaVuSans-20" transform="translate(301.757812 0)"/>
      <use xlink:href="#DejaVuSans-26" transform="translate(333.544922 0)"/>
      <use xlink:href="#DejaVuSans-20" transform="translate(411.523438 0)"/>
      <use xlink:href="#DejaVuSans-4f" transform="translate(443.310547 0)"/>
      <use xlink:href="#DejaVuSans-72" transform="translate(522.021484 0)"/>
      <use xlink:href="#DejaVuSans-69" transform="translate(563.134766 0)"/>
      <use xlink:href="#DejaVuSans-65" transform="translate(590.917969 0)"/>
      <use xlink:href="#DejaVuSans-6e" transform="translate(652.441406 0)"/>
      <use xlink:href="#DejaVuSans-74" transform="translate(715.820312 0)"/>
      <use xlink:href="#DejaVuSans-61" transform="translate(755.029297 0)"/>
      <use xlink:href="#DejaVuSans-74" transform="translate(816.308594 0)"/>
      <use xlink:href="#DejaVuSans-69" transform="translate(855.517578 0)"/>
      <use xlink:href="#DejaVuSans-6f" transform="translate(883.300781 0)"/>
      <use xlink:href="#DejaVuSans-6e" transform="translate(944.482422 0)"/>
     </g>
    </g>
    <g id="line2d_35">
     <path d="M 581.135625 50.094688 
L 591.135625 50.094688 
L 601.135625 50.094688 
" style="fill: none; stroke: #006ba4; stroke-width: 2; stroke-linecap: square"/>
    </g>
    <g id="text_20">
     <!-- CCCGAAA (5' end) -->
     <g transform="translate(609.135625 53.594688) scale(0.1 -0.1)">
      <defs>
       <path id="DejaVuSans-47" d="M 3809 666 
L 3809 1919 
L 2778 1919 
L 2778 2438 
L 4434 2438 
L 4434 434 
Q 4069 175 3628 42 
Q 3188 -91 2688 -91 
Q 1594 -91 976 548 
Q 359 1188 359 2328 
Q 359 3472 976 4111 
Q 1594 4750 2688 4750 
Q 3144 4750 3555 4637 
Q 3966 4525 4313 4306 
L 4313 3634 
Q 3963 3931 3569 4081 
Q 3175 4231 2741 4231 
Q 1884 4231 1454 3753 
Q 1025 3275 1025 2328 
Q 1025 1384 1454 906 
Q 1884 428 2741 428 
Q 3075 428 3337 486 
Q 3600 544 3809 666 
z
" transform="scale(0.015625)"/>
       <path id="DejaVuSans-28" d="M 1984 4856 
Q 1566 4138 1362 3434 
Q 1159 2731 1159 2009 
Q 1159 1288 1364 580 
Q 1569 -128 1984 -844 
L 1484 -844 
Q 1016 -109 783 600 
Q 550 1309 550 2009 
Q 550 2706 781 3412 
Q 1013 4119 1484 4856 
L 1984 4856 
z
" transform="scale(0.015625)"/>
       <path id="DejaVuSans-35" d="M 691 4666 
L 3169 4666 
L 3169 4134 
L 1269 4134 
L 1269 2991 
Q 1406 3038 1543 3061 
Q 1681 3084 1819 3084 
Q 2600 3084 3056 2656 
Q 3513 2228 3513 1497 
Q 3513 744 3044 326 
Q 2575 -91 1722 -91 
Q 1428 -91 1123 -41 
Q 819 9 494 109 
L 494 744 
Q 775 591 1075 516 
Q 1375 441 1709 441 
Q 2250 441 2565 725 
Q 2881 1009 2881 1497 
Q 2881 1984 2565 2268 
Q 2250 2553 1709 2553 
Q 1456 2553 1204 2497 
Q 953 2441 691 2322 
L 691 4666 
z
" transform="scale(0.015625)"/>
       <path id="DejaVuSans-27" d="M 1147 4666 
L 1147 2931 
L 616 2931 
L 616 4666 
L 1147 4666 
z
" transform="scale(0.015625)"/>
       <path id="DejaVuSans-64" d="M 2906 2969 
L 2906 4863 
L 3481 4863 
L 3481 0 
L 2906 0 
L 2906 525 
Q 2725 213 2448 61 
Q 2172 -91 1784 -91 
Q 1150 -91 751 415 
Q 353 922 353 1747 
Q 353 2572 751 3078 
Q 1150 3584 1784 3584 
Q 2172 3584 2448 3432 
Q 2725 3281 2906 2969 
z
M 947 1747 
Q 947 1113 1208 752 
Q 1469 391 1925 391 
Q 2381 391 2643 752 
Q 2906 1113 2906 1747 
Q 2906 2381 2643 2742 
Q 2381 3103 1925 3103 
Q 1469 3103 1208 2742 
Q 947 2381 947 1747 
z
" transform="scale(0.015625)"/>
       <path id="DejaVuSans-29" d="M 513 4856 
L 1013 4856 
Q 1481 4119 1714 3412 
Q 1947 2706 1947 2009 
Q 1947 1309 1714 600 
Q 1481 -109 1013 -844 
L 513 -844 
Q 928 -128 1133 580 
Q 1338 1288 1338 2009 
Q 1338 2731 1133 3434 
Q 928 4138 513 4856 
z
" transform="scale(0.015625)"/>
      </defs>
      <use xlink:href="#DejaVuSans-43"/>
      <use xlink:href="#DejaVuSans-43" transform="translate(69.824219 0)"/>
      <use xlink:href="#DejaVuSans-43" transform="translate(139.648438 0)"/>
      <use xlink:href="#DejaVuSans-47" transform="translate(209.472656 0)"/>
      <use xlink:href="#DejaVuSans-41" transform="translate(286.962891 0)"/>
      <use xlink:href="#DejaVuSans-41" transform="translate(358.121094 0)"/>
      <use xlink:href="#DejaVuSans-41" transform="translate(429.279297 0)"/>
      <use xlink:href="#DejaVuSans-20" transform="translate(497.6875 0)"/>
      <use xlink:href="#DejaVuSans-28" transform="translate(529.474609 0)"/>
      <use xlink:href="#DejaVuSans-35" transform="translate(568.488281 0)"/>
      <use xlink:href="#DejaVuSans-27" transform="translate(632.111328 0)"/>
      <use xlink:href="#DejaVuSans-20" transform="translate(659.601562 0)"/>
      <use xlink:href="#DejaVuSans-65" transform="translate(691.388672 0)"/>
      <use xlink:href="#DejaVuSans-6e" transform="translate(752.912109 0)"/>
      <use xlink:href="#DejaVuSans-64" transform="translate(816.291016 0)"/>
      <use xlink:href="#DejaVuSans-29" transform="translate(879.767578 0)"/>
     </g>
    </g>
    <g id="line2d_36">
     <path d="M 581.135625 64.772813 
L 591.135625 64.772813 
L 601.135625 64.772813 
" style="fill: none; stroke: #ff800e; stroke-width: 2; stroke-linecap: square"/>
    </g>
    <g id="text_21">
     <!-- CCGAAA (5' end) -->
     <g transform="translate(609.135625 68.272813) scale(0.1 -0.1)">
      <use xlink:href="#DejaVuSans-43"/>
      <use xlink:href="#DejaVuSans-43" transform="translate(69.824219 0)"/>
      <use xlink:href="#DejaVuSans-47" transform="translate(139.648438 0)"/>
      <use xlink:href="#DejaVuSans-41" transform="translate(217.138672 0)"/>
      <use xlink:href="#DejaVuSans-41" transform="translate(288.296875 0)"/>
      <use xlink:href="#DejaVuSans-41" transform="translate(359.455078 0)"/>
      <use xlink:href="#DejaVuSans-20" transform="translate(427.863281 0)"/>
      <use xlink:href="#DejaVuSans-28" transform="translate(459.650391 0)"/>
      <use xlink:href="#DejaVuSans-35" transform="translate(498.664062 0)"/>
      <use xlink:href="#DejaVuSans-27" transform="translate(562.287109 0)"/>
      <use xlink:href="#DejaVuSans-20" transform="translate(589.777344 0)"/>
      <use xlink:href="#DejaVuSans-65" transform="translate(621.564453 0)"/>
      <use xlink:href="#DejaVuSans-6e" transform="translate(683.087891 0)"/>
      <use xlink:href="#DejaVuSans-64" transform="translate(746.466797 0)"/>
      <use xlink:href="#DejaVuSans-29" transform="translate(809.943359 0)"/>
     </g>
    </g>
    <g id="line2d_37">
     <path d="M 581.135625 79.450938 
L 591.135625 79.450938 
L 601.135625 79.450938 
" style="fill: none; stroke-dasharray: 7.4,3.2; stroke-dashoffset: 0; stroke: #006ba4; stroke-width: 2"/>
    </g>
    <g id="text_22">
     <!-- TTTCGGG (3' end) -->
     <g transform="translate(609.135625 82.950938) scale(0.1 -0.1)">
      <defs>
       <path id="DejaVuSans-33" d="M 2597 2516 
Q 3050 2419 3304 2112 
Q 3559 1806 3559 1356 
Q 3559 666 3084 287 
Q 2609 -91 1734 -91 
Q 1441 -91 1130 -33 
Q 819 25 488 141 
L 488 750 
Q 750 597 1062 519 
Q 1375 441 1716 441 
Q 2309 441 2620 675 
Q 2931 909 2931 1356 
Q 2931 1769 2642 2001 
Q 2353 2234 1838 2234 
L 1294 2234 
L 1294 2753 
L 1863 2753 
Q 2328 2753 2575 2939 
Q 2822 3125 2822 3475 
Q 2822 3834 2567 4026 
Q 2313 4219 1838 4219 
Q 1578 4219 1281 4162 
Q 984 4106 628 3988 
L 628 4550 
Q 988 4650 1302 4700 
Q 1616 4750 1894 4750 
Q 2613 4750 3031 4423 
Q 3450 4097 3450 3541 
Q 3450 3153 3228 2886 
Q 3006 2619 2597 2516 
z
" transform="scale(0.015625)"/>
      </defs>
      <use xlink:href="#DejaVuSans-54"/>
      <use xlink:href="#DejaVuSans-54" transform="translate(59.333984 0)"/>
      <use xlink:href="#DejaVuSans-54" transform="translate(118.667969 0)"/>
      <use xlink:href="#DejaVuSans-43" transform="translate(173.876953 0)"/>
      <use xlink:href="#DejaVuSans-47" transform="translate(243.701172 0)"/>
      <use xlink:href="#DejaVuSans-47" transform="translate(321.191406 0)"/>
      <use xlink:href="#DejaVuSans-47" transform="translate(398.681641 0)"/>
      <use xlink:href="#DejaVuSans-20" transform="translate(476.171875 0)"/>
      <use xlink:href="#DejaVuSans-28" transform="translate(507.958984 0)"/>
      <use xlink:href="#DejaVuSans-33" transform="translate(546.972656 0)"/>
      <use xlink:href="#DejaVuSans-27" transform="translate(610.595703 0)"/>
      <use xlink:href="#DejaVuSans-20" transform="translate(638.085938 0)"/>
      <use xlink:href="#DejaVuSans-65" transform="translate(669.873047 0)"/>
      <use xlink:href="#DejaVuSans-6e" transform="translate(731.396484 0)"/>
      <use xlink:href="#DejaVuSans-64" transform="translate(794.775391 0)"/>
      <use xlink:href="#DejaVuSans-29" transform="translate(858.251953 0)"/>
     </g>
    </g>
    <g id="line2d_38">
     <path d="M 581.135625 94.129063 
L 591.135625 94.129063 
L 601.135625 94.129063 
" style="fill: none; stroke-dasharray: 7.4,3.2; stroke-dashoffset: 0; stroke: #ff800e; stroke-width: 2"/>
    </g>
    <g id="text_23">
     <!-- TTTCGG (3' end) -->
     <g transform="translate(609.135625 97.629063) scale(0.1 -0.1)">
      <use xlink:href="#DejaVuSans-54"/>
      <use xlink:href="#DejaVuSans-54" transform="translate(59.333984 0)"/>
      <use xlink:href="#DejaVuSans-54" transform="translate(118.667969 0)"/>
      <use xlink:href="#DejaVuSans-43" transform="translate(173.876953 0)"/>
      <use xlink:href="#DejaVuSans-47" transform="translate(243.701172 0)"/>
      <use xlink:href="#DejaVuSans-47" transform="translate(321.191406 0)"/>
      <use xlink:href="#DejaVuSans-20" transform="translate(398.681641 0)"/>
      <use xlink:href="#DejaVuSans-28" transform="translate(430.46875 0)"/>
      <use xlink:href="#DejaVuSans-33" transform="translate(469.482422 0)"/>
      <use xlink:href="#DejaVuSans-27" transform="translate(533.105469 0)"/>
      <use xlink:href="#DejaVuSans-20" transform="translate(560.595703 0)"/>
      <use xlink:href="#DejaVuSans-65" transform="translate(592.382812 0)"/>
      <use xlink:href="#DejaVuSans-6e" transform="translate(653.90625 0)"/>
      <use xlink:href="#DejaVuSans-64" transform="translate(717.285156 0)"/>
      <use xlink:href="#DejaVuSans-29" transform="translate(780.761719 0)"/>
     </g>
    </g>
   </g>
  </g>
 </g>
 <defs>
  <clipPath id="pe3aec71428">
   <rect x="46.965625" y="22.318125" width="525.17" height="436.6"/>
  </clipPath>
 </defs>
</svg>
