<?xml version="1.0" encoding="utf-8" standalone="no"?>
<!DOCTYPE svg PUBLIC "-//W3C//DTD SVG 1.1//EN"
  "http://www.w3.org/Graphics/SVG/1.1/DTD/svg11.dtd">
<svg xmlns:xlink="http://www.w3.org/1999/xlink" width="568.21375pt" height="423.99625pt" viewBox="0 0 568.21375 423.99625" xmlns="http://www.w3.org/2000/svg" version="1.1">
 <metadata>
  <rdf:RDF xmlns:dc="http://purl.org/dc/elements/1.1/" xmlns:cc="http://creativecommons.org/ns#" xmlns:rdf="http://www.w3.org/1999/02/22-rdf-syntax-ns#">
   <cc:Work>
    <dc:type rdf:resource="http://purl.org/dc/dcmitype/StillImage"/>
    <dc:date>2026-04-30T15:30:58.156883</dc:date>
    <dc:format>image/svg+xml</dc:format>
    <dc:creator>
     <cc:Agent>
      <dc:title>Matplotlib v3.10.6, https://matplotlib.org/</dc:title>
     </cc:Agent>
    </dc:creator>
   </cc:Work>
  </rdf:RDF>
 </metadata>
 <defs>
  <style type="text/css">*{stroke-linejoin: round; stroke-linecap: butt}</style>
 </defs>
 <g id="figure_1">
  <g id="patch_1">
   <path d="M 0 423.99625 
L 568.21375 423.99625 
L 568.21375 0 
L 0 0 
z
" style="fill: #ffffff"/>
  </g>
  <g id="axes_1">
   <g id="patch_2">
    <path d="M 46.965625 386.44 
L 428.135625 386.44 
L 428.135625 7.2 
L 46.965625 7.2 
z
" style="fill: #ffffff"/>
   </g>
   <g id="matplotlib.axis_1">
    <g id="xtick_1">
     <g id="line2d_1">
      <path d="M 64.291534 386.44 
L 64.291534 7.2 
" clip-path="url(#pafe79f0b75)" style="fill: none; stroke-dasharray: 2.96,1.28; stroke-dashoffset: 0; stroke: #b0b0b0; stroke-opacity: 0.6; stroke-width: 0.8"/>
     </g>
     <g id="line2d_2">
      <defs>
       <path id="m2b8fec590e" d="M 0 0 
L 0 3.5 
" style="stroke: #000000; stroke-width: 0.8"/>
      </defs>
      <g>
       <use xlink:href="#m2b8fec590e" x="64.291534" y="386.44" style="stroke: #000000; stroke-width: 0.8"/>
      </g>
     </g>
     <g id="text_1">
      <!-- 0 -->
      <g transform="translate(61.110284 401.038437) scale(0.1 -0.1)">
       <defs>
        <path id="DejaVuSans-30" d="M 2034 4250 
Q 1547 4250 1301 3770 
Q 1056 3291 1056 2328 
Q 1056 1369 1301 889 
Q 1547 409 2034 409 
Q 2525 409 2770 889 
Q 3016 1369 3016 2328 
Q 3016 3291 2770 3770 
Q 2525 4250 2034 4250 
z
M 2034 4750 
Q 2819 4750 3233 4129 
Q 3647 3509 3647 2328 
Q 3647 1150 3233 529 
Q 2819 -91 2034 -91 
Q 1250 -91 836 529 
Q 422 1150 422 2328 
Q 422 3509 836 4129 
Q 1250 4750 2034 4750 
z
" transform="scale(0.015625)"/>
       </defs>
       <use xlink:href="#DejaVuSans-30"/>
      </g>
     </g>
    </g>
    <g id="xtick_2">
     <g id="line2d_3">
      <path d="M 107.606307 386.44 
L 107.606307 7.2 
" clip-path="url(#pafe79f0b75)" style="fill: none; stroke-dasharray: 2.96,1.28; stroke-dashoffset: 0; stroke: #b0b0b0; stroke-opacity: 0.6; stroke-width: 0.8"/>
     </g>
     <g id="line2d_4">
      <g>
       <use xlink:href="#m2b8fec590e" x="107.606307" y="386.44" style="stroke: #000000; stroke-width: 0.8"/>
      </g>
     </g>
     <g id="text_2">
      <!-- 1000 -->
      <g transform="translate(94.881307 401.038437) scale(0.1 -0.1)">
       <defs>
        <path id="DejaVuSans-31" d="M 794 531 
L 1825 531 
L 1825 4091 
L 703 3866 
L 703 4441 
L 1819 4666 
L 2450 4666 
L 2450 531 
L 3481 531 
L 3481 0 
L 794 0 
L 794 531 
z
" transform="scale(0.015625)"/>
       </defs>
       <use xlink:href="#DejaVuSans-31"/>
       <use xlink:href="#DejaVuSans-30" transform="translate(63.623047 0)"/>
       <use xlink:href="#DejaVuSans-30" transform="translate(127.246094 0)"/>
       <use xlink:href="#DejaVuSans-30" transform="translate(190.869141 0)"/>
      </g>
     </g>
    </g>
    <g id="xtick_3">
     <g id="line2d_5">
      <path d="M 150.92108 386.44 
L 150.92108 7.2 
" clip-path="url(#pafe79f0b75)" style="fill: none; stroke-dasharray: 2.96,1.28; stroke-dashoffset: 0; stroke: #b0b0b0; stroke-opacity: 0.6; stroke-width: 0.8"/>
     </g>
     <g id="line2d_6">
      <g>
       <use xlink:href="#m2b8fec590e" x="150.92108" y="386.44" style="stroke: #000000; stroke-width: 0.8"/>
      </g>
     </g>
     <g id="text_3">
      <!-- 2000 -->
      <g transform="translate(138.19608 401.038437) scale(0.1 -0.1)">
       <defs>
        <path id="DejaVuSans-32" d="M 1228 531 
L 3431 531 
L 3431 0 
L 469 0 
L 469 531 
Q 828 903 1448 1529 
Q 2069 2156 2228 2338 
Q 2531 2678 2651 2914 
Q 2772 3150 2772 3378 
Q 2772 3750 2511 3984 
Q 2250 4219 1831 4219 
Q 1534 4219 1204 4116 
Q 875 4013 500 3803 
L 500 4441 
Q 881 4594 1212 4672 
Q 1544 4750 1819 4750 
Q 2544 4750 2975 4387 
Q 3406 4025 3406 3419 
Q 3406 3131 3298 2873 
Q 3191 2616 2906 2266 
Q 2828 2175 2409 1742 
Q 1991 1309 1228 531 
z
" transform="scale(0.015625)"/>
       </defs>
       <use xlink:href="#DejaVuSans-32"/>
       <use xlink:href="#DejaVuSans-30" transform="translate(63.623047 0)"/>
       <use xlink:href="#DejaVuSans-30" transform="translate(127.246094 0)"/>
       <use xlink:href="#DejaVuSans-30" transform="translate(190.869141 0)"/>
      </g>
     </g>
    </g>
    <g id="xtick_4">
     <g id="line2d_7">
      <path d="M 194.235852 386.44 
L 194.235852 7.2 
" clip-path="url(#pafe79f0b75)" style="fill: none; stroke-dasharray: 2.96,1.28; stroke-dashoffset: 0; stroke: #b0b0b0; stroke-opacity: 0.6; stroke-width: 0.8"/>
     </g>
     <g id="line2d_8">
      <g>
       <use xlink:href="#m2b8fec590e" x="194.235852" y="386.44" style="stroke: #000000; stroke-width: 0.8"/>
      </g>
     </g>
     <g id="text_4">
      <!-- 3000 -->
      <g transform="translate(181.510852 401.038437) scale(0.1 -0.1)">
       <defs>
        <path id="DejaVuSans-33" d="M 2597 2516 
Q 3050 2419 3304 2112 
Q 3559 1806 3559 1356 
Q 3559 666 3084 287 
Q 2609 -91 1734 -91 
Q 1441 -91 1130 -33 
Q 819 25 488 141 
L 488 750 
Q 750 597 1062 519 
Q 1375 441 1716 441 
Q 2309 441 2620 675 
Q 2931 909 2931 1356 
Q 2931 1769 2642 2001 
Q 2353 2234 1838 2234 
L 1294 2234 
L 1294 2753 
L 1863 2753 
Q 2328 2753 2575 2939 
Q 2822 3125 2822 3475 
Q 2822 3834 2567 4026 
Q 2313 4219 1838 4219 
Q 1578 4219 1281 4162 
Q 984 4106 628 3988 
L 628 4550 
Q 988 4650 1302 4700 
Q 1616 4750 1894 4750 
Q 2613 4750 3031 4423 
Q 3450 4097 3450 3541 
Q 3450 3153 3228 2886 
Q 3006 2619 2597 2516 
z
" transform="scale(0.015625)"/>
       </defs>
       <use xlink:href="#DejaVuSans-33"/>
       <use xlink:href="#DejaVuSans-30" transform="translate(63.623047 0)"/>
       <use xlink:href="#DejaVuSans-30" transform="translate(127.246094 0)"/>
       <use xlink:href="#DejaVuSans-30" transform="translate(190.869141 0)"/>
      </g>
     </g>
    </g>
    <g id="xtick_5">
     <g id="line2d_9">
      <path d="M 237.550625 386.44 
L 237.550625 7.2 
" clip-path="url(#pafe79f0b75)" style="fill: none; stroke-dasharray: 2.96,1.28; stroke-dashoffset: 0; stroke: #b0b0b0; stroke-opacity: 0.6; stroke-width: 0.8"/>
     </g>
     <g id="line2d_10">
      <g>
       <use xlink:href="#m2b8fec590e" x="237.550625" y="386.44" style="stroke: #000000; stroke-width: 0.8"/>
      </g>
     </g>
     <g id="text_5">
      <!-- 4000 -->
      <g transform="translate(224.825625 401.038437) scale(0.1 -0.1)">
       <defs>
        <path id="DejaVuSans-34" d="M 2419 4116 
L 825 1625 
L 2419 1625 
L 2419 4116 
z
M 2253 4666 
L 3047 4666 
L 3047 1625 
L 3713 1625 
L 3713 1100 
L 3047 1100 
L 3047 0 
L 2419 0 
L 2419 1100 
L 313 1100 
L 313 1709 
L 2253 4666 
z
" transform="scale(0.015625)"/>
       </defs>
       <use xlink:href="#DejaVuSans-34"/>
       <use xlink:href="#DejaVuSans-30" transform="translate(63.623047 0)"/>
       <use xlink:href="#DejaVuSans-30" transform="translate(127.246094 0)"/>
       <use xlink:href="#DejaVuSans-30" transform="translate(190.869141 0)"/>
      </g>
     </g>
    </g>
    <g id="xtick_6">
     <g id="line2d_11">
      <path d="M 280.865398 386.44 
L 280.865398 7.2 
" clip-path="url(#pafe79f0b75)" style="fill: none; stroke-dasharray: 2.96,1.28; stroke-dashoffset: 0; stroke: #b0b0b0; stroke-opacity: 0.6; stroke-width: 0.8"/>
     </g>
     <g id="line2d_12">
      <g>
       <use xlink:href="#m2b8fec590e" x="280.865398" y="386.44" style="stroke: #000000; stroke-width: 0.8"/>
      </g>
     </g>
     <g id="text_6">
      <!-- 5000 -->
      <g transform="translate(268.140398 401.038437) scale(0.1 -0.1)">
       <defs>
        <path id="DejaVuSans-35" d="M 691 4666 
L 3169 4666 
L 3169 4134 
L 1269 4134 
L 1269 2991 
Q 1406 3038 1543 3061 
Q 1681 3084 1819 3084 
Q 2600 3084 3056 2656 
Q 3513 2228 3513 1497 
Q 3513 744 3044 326 
Q 2575 -91 1722 -91 
Q 1428 -91 1123 -41 
Q 819 9 494 109 
L 494 744 
Q 775 591 1075 516 
Q 1375 441 1709 441 
Q 2250 441 2565 725 
Q 2881 1009 2881 1497 
Q 2881 1984 2565 2268 
Q 2250 2553 1709 2553 
Q 1456 2553 1204 2497 
Q 953 2441 691 2322 
L 691 4666 
z
" transform="scale(0.015625)"/>
       </defs>
       <use xlink:href="#DejaVuSans-35"/>
       <use xlink:href="#DejaVuSans-30" transform="translate(63.623047 0)"/>
       <use xlink:href="#DejaVuSans-30" transform="translate(127.246094 0)"/>
       <use xlink:href="#DejaVuSans-30" transform="translate(190.869141 0)"/>
      </g>
     </g>
    </g>
    <g id="xtick_7">
     <g id="line2d_13">
      <path d="M 324.18017 386.44 
L 324.18017 7.2 
" clip-path="url(#pafe79f0b75)" style="fill: none; stroke-dasharray: 2.96,1.28; stroke-dashoffset: 0; stroke: #b0b0b0; stroke-opacity: 0.6; stroke-width: 0.8"/>
     </g>
     <g id="line2d_14">
      <g>
       <use xlink:href="#m2b8fec590e" x="324.18017" y="386.44" style="stroke: #000000; stroke-width: 0.8"/>
      </g>
     </g>
     <g id="text_7">
      <!-- 6000 -->
      <g transform="translate(311.45517 401.038437) scale(0.1 -0.1)">
       <defs>
        <path id="DejaVuSans-36" d="M 2113 2584 
Q 1688 2584 1439 2293 
Q 1191 2003 1191 1497 
Q 1191 994 1439 701 
Q 1688 409 2113 409 
Q 2538 409 2786 701 
Q 3034 994 3034 1497 
Q 3034 2003 2786 2293 
Q 2538 2584 2113 2584 
z
M 3366 4563 
L 3366 3988 
Q 3128 4100 2886 4159 
Q 2644 4219 2406 4219 
Q 1781 4219 1451 3797 
Q 1122 3375 1075 2522 
Q 1259 2794 1537 2939 
Q 1816 3084 2150 3084 
Q 2853 3084 3261 2657 
Q 3669 2231 3669 1497 
Q 3669 778 3244 343 
Q 2819 -91 2113 -91 
Q 1303 -91 875 529 
Q 447 1150 447 2328 
Q 447 3434 972 4092 
Q 1497 4750 2381 4750 
Q 2619 4750 2861 4703 
Q 3103 4656 3366 4563 
z
" transform="scale(0.015625)"/>
       </defs>
       <use xlink:href="#DejaVuSans-36"/>
       <use xlink:href="#DejaVuSans-30" transform="translate(63.623047 0)"/>
       <use xlink:href="#DejaVuSans-30" transform="translate(127.246094 0)"/>
       <use xlink:href="#DejaVuSans-30" transform="translate(190.869141 0)"/>
      </g>
     </g>
    </g>
    <g id="xtick_8">
     <g id="line2d_15">
      <path d="M 367.494943 386.44 
L 367.494943 7.2 
" clip-path="url(#pafe79f0b75)" style="fill: none; stroke-dasharray: 2.96,1.28; stroke-dashoffset: 0; stroke: #b0b0b0; stroke-opacity: 0.6; stroke-width: 0.8"/>
     </g>
     <g id="line2d_16">
      <g>
       <use xlink:href="#m2b8fec590e" x="367.494943" y="386.44" style="stroke: #000000; stroke-width: 0.8"/>
      </g>
     </g>
     <g id="text_8">
      <!-- 7000 -->
      <g transform="translate(354.769943 401.038437) scale(0.1 -0.1)">
       <defs>
        <path id="DejaVuSans-37" d="M 525 4666 
L 3525 4666 
L 3525 4397 
L 1831 0 
L 1172 0 
L 2766 4134 
L 525 4134 
L 525 4666 
z
" transform="scale(0.015625)"/>
       </defs>
       <use xlink:href="#DejaVuSans-37"/>
       <use xlink:href="#DejaVuSans-30" transform="translate(63.623047 0)"/>
       <use xlink:href="#DejaVuSans-30" transform="translate(127.246094 0)"/>
       <use xlink:href="#DejaVuSans-30" transform="translate(190.869141 0)"/>
      </g>
     </g>
    </g>
    <g id="xtick_9">
     <g id="line2d_17">
      <path d="M 410.809716 386.44 
L 410.809716 7.2 
" clip-path="url(#pafe79f0b75)" style="fill: none; stroke-dasharray: 2.96,1.28; stroke-dashoffset: 0; stroke: #b0b0b0; stroke-opacity: 0.6; stroke-width: 0.8"/>
     </g>
     <g id="line2d_18">
      <g>
       <use xlink:href="#m2b8fec590e" x="410.809716" y="386.44" style="stroke: #000000; stroke-width: 0.8"/>
      </g>
     </g>
     <g id="text_9">
      <!-- 8000 -->
      <g transform="translate(398.084716 401.038437) scale(0.1 -0.1)">
       <defs>
        <path id="DejaVuSans-38" d="M 2034 2216 
Q 1584 2216 1326 1975 
Q 1069 1734 1069 1313 
Q 1069 891 1326 650 
Q 1584 409 2034 409 
Q 2484 409 2743 651 
Q 3003 894 3003 1313 
Q 3003 1734 2745 1975 
Q 2488 2216 2034 2216 
z
M 1403 2484 
Q 997 2584 770 2862 
Q 544 3141 544 3541 
Q 544 4100 942 4425 
Q 1341 4750 2034 4750 
Q 2731 4750 3128 4425 
Q 3525 4100 3525 3541 
Q 3525 3141 3298 2862 
Q 3072 2584 2669 2484 
Q 3125 2378 3379 2068 
Q 3634 1759 3634 1313 
Q 3634 634 3220 271 
Q 2806 -91 2034 -91 
Q 1263 -91 848 271 
Q 434 634 434 1313 
Q 434 1759 690 2068 
Q 947 2378 1403 2484 
z
M 1172 3481 
Q 1172 3119 1398 2916 
Q 1625 2713 2034 2713 
Q 2441 2713 2670 2916 
Q 2900 3119 2900 3481 
Q 2900 3844 2670 4047 
Q 2441 4250 2034 4250 
Q 1625 4250 1398 4047 
Q 1172 3844 1172 3481 
z
" transform="scale(0.015625)"/>
       </defs>
       <use xlink:href="#DejaVuSans-38"/>
       <use xlink:href="#DejaVuSans-30" transform="translate(63.623047 0)"/>
       <use xlink:href="#DejaVuSans-30" transform="translate(127.246094 0)"/>
       <use xlink:href="#DejaVuSans-30" transform="translate(190.869141 0)"/>
      </g>
     </g>
    </g>
    <g id="text_10">
     <!-- Distance from terminus [nt] -->
     <g transform="translate(168.051406 414.716562) scale(0.1 -0.1)">
      <defs>
       <path id="DejaVuSans-44" d="M 1259 4147 
L 1259 519 
L 2022 519 
Q 2988 519 3436 956 
Q 3884 1394 3884 2338 
Q 3884 3275 3436 3711 
Q 2988 4147 2022 4147 
L 1259 4147 
z
M 628 4666 
L 1925 4666 
Q 3281 4666 3915 4102 
Q 4550 3538 4550 2338 
Q 4550 1131 3912 565 
Q 3275 0 1925 0 
L 628 0 
L 628 4666 
z
" transform="scale(0.015625)"/>
       <path id="DejaVuSans-69" d="M 603 3500 
L 1178 3500 
L 1178 0 
L 603 0 
L 603 3500 
z
M 603 4863 
L 1178 4863 
L 1178 4134 
L 603 4134 
L 603 4863 
z
" transform="scale(0.015625)"/>
       <path id="DejaVuSans-73" d="M 2834 3397 
L 2834 2853 
Q 2591 2978 2328 3040 
Q 2066 3103 1784 3103 
Q 1356 3103 1142 2972 
Q 928 2841 928 2578 
Q 928 2378 1081 2264 
Q 1234 2150 1697 2047 
L 1894 2003 
Q 2506 1872 2764 1633 
Q 3022 1394 3022 966 
Q 3022 478 2636 193 
Q 2250 -91 1575 -91 
Q 1294 -91 989 -36 
Q 684 19 347 128 
L 347 722 
Q 666 556 975 473 
Q 1284 391 1588 391 
Q 1994 391 2212 530 
Q 2431 669 2431 922 
Q 2431 1156 2273 1281 
Q 2116 1406 1581 1522 
L 1381 1569 
Q 847 1681 609 1914 
Q 372 2147 372 2553 
Q 372 3047 722 3315 
Q 1072 3584 1716 3584 
Q 2034 3584 2315 3537 
Q 2597 3491 2834 3397 
z
" transform="scale(0.015625)"/>
       <path id="DejaVuSans-74" d="M 1172 4494 
L 1172 3500 
L 2356 3500 
L 2356 3053 
L 1172 3053 
L 1172 1153 
Q 1172 725 1289 603 
Q 1406 481 1766 481 
L 2356 481 
L 2356 0 
L 1766 0 
Q 1100 0 847 248 
Q 594 497 594 1153 
L 594 3053 
L 172 3053 
L 172 3500 
L 594 3500 
L 594 4494 
L 1172 4494 
z
" transform="scale(0.015625)"/>
       <path id="DejaVuSans-61" d="M 2194 1759 
Q 1497 1759 1228 1600 
Q 959 1441 959 1056 
Q 959 750 1161 570 
Q 1363 391 1709 391 
Q 2188 391 2477 730 
Q 2766 1069 2766 1631 
L 2766 1759 
L 2194 1759 
z
M 3341 1997 
L 3341 0 
L 2766 0 
L 2766 531 
Q 2569 213 2275 61 
Q 1981 -91 1556 -91 
Q 1019 -91 701 211 
Q 384 513 384 1019 
Q 384 1609 779 1909 
Q 1175 2209 1959 2209 
L 2766 2209 
L 2766 2266 
Q 2766 2663 2505 2880 
Q 2244 3097 1772 3097 
Q 1472 3097 1187 3025 
Q 903 2953 641 2809 
L 641 3341 
Q 956 3463 1253 3523 
Q 1550 3584 1831 3584 
Q 2591 3584 2966 3190 
Q 3341 2797 3341 1997 
z
" transform="scale(0.015625)"/>
       <path id="DejaVuSans-6e" d="M 3513 2113 
L 3513 0 
L 2938 0 
L 2938 2094 
Q 2938 2591 2744 2837 
Q 2550 3084 2163 3084 
Q 1697 3084 1428 2787 
Q 1159 2491 1159 1978 
L 1159 0 
L 581 0 
L 581 3500 
L 1159 3500 
L 1159 2956 
Q 1366 3272 1645 3428 
Q 1925 3584 2291 3584 
Q 2894 3584 3203 3211 
Q 3513 2838 3513 2113 
z
" transform="scale(0.015625)"/>
       <path id="DejaVuSans-63" d="M 3122 3366 
L 3122 2828 
Q 2878 2963 2633 3030 
Q 2388 3097 2138 3097 
Q 1578 3097 1268 2742 
Q 959 2388 959 1747 
Q 959 1106 1268 751 
Q 1578 397 2138 397 
Q 2388 397 2633 464 
Q 2878 531 3122 666 
L 3122 134 
Q 2881 22 2623 -34 
Q 2366 -91 2075 -91 
Q 1284 -91 818 406 
Q 353 903 353 1747 
Q 353 2603 823 3093 
Q 1294 3584 2113 3584 
Q 2378 3584 2631 3529 
Q 2884 3475 3122 3366 
z
" transform="scale(0.015625)"/>
       <path id="DejaVuSans-65" d="M 3597 1894 
L 3597 1613 
L 953 1613 
Q 991 1019 1311 708 
Q 1631 397 2203 397 
Q 2534 397 2845 478 
Q 3156 559 3463 722 
L 3463 178 
Q 3153 47 2828 -22 
Q 2503 -91 2169 -91 
Q 1331 -91 842 396 
Q 353 884 353 1716 
Q 353 2575 817 3079 
Q 1281 3584 2069 3584 
Q 2775 3584 3186 3129 
Q 3597 2675 3597 1894 
z
M 3022 2063 
Q 3016 2534 2758 2815 
Q 2500 3097 2075 3097 
Q 1594 3097 1305 2825 
Q 1016 2553 972 2059 
L 3022 2063 
z
" transform="scale(0.015625)"/>
       <path id="DejaVuSans-20" transform="scale(0.015625)"/>
       <path id="DejaVuSans-66" d="M 2375 4863 
L 2375 4384 
L 1825 4384 
Q 1516 4384 1395 4259 
Q 1275 4134 1275 3809 
L 1275 3500 
L 2222 3500 
L 2222 3053 
L 1275 3053 
L 1275 0 
L 697 0 
L 697 3053 
L 147 3053 
L 147 3500 
L 697 3500 
L 697 3744 
Q 697 4328 969 4595 
Q 1241 4863 1831 4863 
L 2375 4863 
z
" transform="scale(0.015625)"/>
       <path id="DejaVuSans-72" d="M 2631 2963 
Q 2534 3019 2420 3045 
Q 2306 3072 2169 3072 
Q 1681 3072 1420 2755 
Q 1159 2438 1159 1844 
L 1159 0 
L 581 0 
L 581 3500 
L 1159 3500 
L 1159 2956 
Q 1341 3275 1631 3429 
Q 1922 3584 2338 3584 
Q 2397 3584 2469 3576 
Q 2541 3569 2628 3553 
L 2631 2963 
z
" transform="scale(0.015625)"/>
       <path id="DejaVuSans-6f" d="M 1959 3097 
Q 1497 3097 1228 2736 
Q 959 2375 959 1747 
Q 959 1119 1226 758 
Q 1494 397 1959 397 
Q 2419 397 2687 759 
Q 2956 1122 2956 1747 
Q 2956 2369 2687 2733 
Q 2419 3097 1959 3097 
z
M 1959 3584 
Q 2709 3584 3137 3096 
Q 3566 2609 3566 1747 
Q 3566 888 3137 398 
Q 2709 -91 1959 -91 
Q 1206 -91 779 398 
Q 353 888 353 1747 
Q 353 2609 779 3096 
Q 1206 3584 1959 3584 
z
" transform="scale(0.015625)"/>
       <path id="DejaVuSans-6d" d="M 3328 2828 
Q 3544 3216 3844 3400 
Q 4144 3584 4550 3584 
Q 5097 3584 5394 3201 
Q 5691 2819 5691 2113 
L 5691 0 
L 5113 0 
L 5113 2094 
Q 5113 2597 4934 2840 
Q 4756 3084 4391 3084 
Q 3944 3084 3684 2787 
Q 3425 2491 3425 1978 
L 3425 0 
L 2847 0 
L 2847 2094 
Q 2847 2600 2669 2842 
Q 2491 3084 2119 3084 
Q 1678 3084 1418 2786 
Q 1159 2488 1159 1978 
L 1159 0 
L 581 0 
L 581 3500 
L 1159 3500 
L 1159 2956 
Q 1356 3278 1631 3431 
Q 1906 3584 2284 3584 
Q 2666 3584 2933 3390 
Q 3200 3197 3328 2828 
z
" transform="scale(0.015625)"/>
       <path id="DejaVuSans-75" d="M 544 1381 
L 544 3500 
L 1119 3500 
L 1119 1403 
Q 1119 906 1312 657 
Q 1506 409 1894 409 
Q 2359 409 2629 706 
Q 2900 1003 2900 1516 
L 2900 3500 
L 3475 3500 
L 3475 0 
L 2900 0 
L 2900 538 
Q 2691 219 2414 64 
Q 2138 -91 1772 -91 
Q 1169 -91 856 284 
Q 544 659 544 1381 
z
M 1991 3584 
L 1991 3584 
z
" transform="scale(0.015625)"/>
       <path id="DejaVuSans-5b" d="M 550 4863 
L 1875 4863 
L 1875 4416 
L 1125 4416 
L 1125 -397 
L 1875 -397 
L 1875 -844 
L 550 -844 
L 550 4863 
z
" transform="scale(0.015625)"/>
       <path id="DejaVuSans-5d" d="M 1947 4863 
L 1947 -844 
L 622 -844 
L 622 -397 
L 1369 -397 
L 1369 4416 
L 622 4416 
L 622 4863 
L 1947 4863 
z
" transform="scale(0.015625)"/>
      </defs>
      <use xlink:href="#DejaVuSans-44"/>
      <use xlink:href="#DejaVuSans-69" transform="translate(77.001953 0)"/>
      <use xlink:href="#DejaVuSans-73" transform="translate(104.785156 0)"/>
      <use xlink:href="#DejaVuSans-74" transform="translate(156.884766 0)"/>
      <use xlink:href="#DejaVuSans-61" transform="translate(196.09375 0)"/>
      <use xlink:href="#DejaVuSans-6e" transform="translate(257.373047 0)"/>
      <use xlink:href="#DejaVuSans-63" transform="translate(320.751953 0)"/>
      <use xlink:href="#DejaVuSans-65" transform="translate(375.732422 0)"/>
      <use xlink:href="#DejaVuSans-20" transform="translate(437.255859 0)"/>
      <use xlink:href="#DejaVuSans-66" transform="translate(469.042969 0)"/>
      <use xlink:href="#DejaVuSans-72" transform="translate(504.248047 0)"/>
      <use xlink:href="#DejaVuSans-6f" transform="translate(543.111328 0)"/>
      <use xlink:href="#DejaVuSans-6d" transform="translate(604.292969 0)"/>
      <use xlink:href="#DejaVuSans-20" transform="translate(701.705078 0)"/>
      <use xlink:href="#DejaVuSans-74" transform="translate(733.492188 0)"/>
      <use xlink:href="#DejaVuSans-65" transform="translate(772.701172 0)"/>
      <use xlink:href="#DejaVuSans-72" transform="translate(834.224609 0)"/>
      <use xlink:href="#DejaVuSans-6d" transform="translate(873.587891 0)"/>
      <use xlink:href="#DejaVuSans-69" transform="translate(971 0)"/>
      <use xlink:href="#DejaVuSans-6e" transform="translate(998.783203 0)"/>
      <use xlink:href="#DejaVuSans-75" transform="translate(1062.162109 0)"/>
      <use xlink:href="#DejaVuSans-73" transform="translate(1125.541016 0)"/>
      <use xlink:href="#DejaVuSans-20" transform="translate(1177.640625 0)"/>
      <use xlink:href="#DejaVuSans-5b" transform="translate(1209.427734 0)"/>
      <use xlink:href="#DejaVuSans-6e" transform="translate(1248.441406 0)"/>
      <use xlink:href="#DejaVuSans-74" transform="translate(1311.820312 0)"/>
      <use xlink:href="#DejaVuSans-5d" transform="translate(1351.029297 0)"/>
     </g>
    </g>
   </g>
   <g id="matplotlib.axis_2">
    <g id="ytick_1">
     <g id="line2d_19">
      <path d="M 46.965625 369.201818 
L 428.135625 369.201818 
" clip-path="url(#pafe79f0b75)" style="fill: none; stroke-dasharray: 2.96,1.28; stroke-dashoffset: 0; stroke: #b0b0b0; stroke-opacity: 0.6; stroke-width: 0.8"/>
     </g>
     <g id="line2d_20">
      <defs>
       <path id="m473fadc64f" d="M 0 0 
L -3.5 0 
" style="stroke: #000000; stroke-width: 0.8"/>
      </defs>
      <g>
       <use xlink:href="#m473fadc64f" x="46.965625" y="369.201818" style="stroke: #000000; stroke-width: 0.8"/>
      </g>
     </g>
     <g id="text_11">
      <!-- 0 -->
      <g transform="translate(33.603125 373.001037) scale(0.1 -0.1)">
       <use xlink:href="#DejaVuSans-30"/>
      </g>
     </g>
    </g>
    <g id="ytick_2">
     <g id="line2d_21">
      <path d="M 46.965625 323.53776 
L 428.135625 323.53776 
" clip-path="url(#pafe79f0b75)" style="fill: none; stroke-dasharray: 2.96,1.28; stroke-dashoffset: 0; stroke: #b0b0b0; stroke-opacity: 0.6; stroke-width: 0.8"/>
     </g>
     <g id="line2d_22">
      <g>
       <use xlink:href="#m473fadc64f" x="46.965625" y="323.53776" style="stroke: #000000; stroke-width: 0.8"/>
      </g>
     </g>
     <g id="text_12">
      <!-- 20 -->
      <g transform="translate(27.240625 327.336979) scale(0.1 -0.1)">
       <use xlink:href="#DejaVuSans-32"/>
       <use xlink:href="#DejaVuSans-30" transform="translate(63.623047 0)"/>
      </g>
     </g>
    </g>
    <g id="ytick_3">
     <g id="line2d_23">
      <path d="M 46.965625 277.873703 
L 428.135625 277.873703 
" clip-path="url(#pafe79f0b75)" style="fill: none; stroke-dasharray: 2.96,1.28; stroke-dashoffset: 0; stroke: #b0b0b0; stroke-opacity: 0.6; stroke-width: 0.8"/>
     </g>
     <g id="line2d_24">
      <g>
       <use xlink:href="#m473fadc64f" x="46.965625" y="277.873703" style="stroke: #000000; stroke-width: 0.8"/>
      </g>
     </g>
     <g id="text_13">
      <!-- 40 -->
      <g transform="translate(27.240625 281.672921) scale(0.1 -0.1)">
       <use xlink:href="#DejaVuSans-34"/>
       <use xlink:href="#DejaVuSans-30" transform="translate(63.623047 0)"/>
      </g>
     </g>
    </g>
    <g id="ytick_4">
     <g id="line2d_25">
      <path d="M 46.965625 232.209645 
L 428.135625 232.209645 
" clip-path="url(#pafe79f0b75)" style="fill: none; stroke-dasharray: 2.96,1.28; stroke-dashoffset: 0; stroke: #b0b0b0; stroke-opacity: 0.6; stroke-width: 0.8"/>
     </g>
     <g id="line2d_26">
      <g>
       <use xlink:href="#m473fadc64f" x="46.965625" y="232.209645" style="stroke: #000000; stroke-width: 0.8"/>
      </g>
     </g>
     <g id="text_14">
      <!-- 60 -->
      <g transform="translate(27.240625 236.008864) scale(0.1 -0.1)">
       <use xlink:href="#DejaVuSans-36"/>
       <use xlink:href="#DejaVuSans-30" transform="translate(63.623047 0)"/>
      </g>
     </g>
    </g>
    <g id="ytick_5">
     <g id="line2d_27">
      <path d="M 46.965625 186.545587 
L 428.135625 186.545587 
" clip-path="url(#pafe79f0b75)" style="fill: none; stroke-dasharray: 2.96,1.28; stroke-dashoffset: 0; stroke: #b0b0b0; stroke-opacity: 0.6; stroke-width: 0.8"/>
     </g>
     <g id="line2d_28">
      <g>
       <use xlink:href="#m473fadc64f" x="46.965625" y="186.545587" style="stroke: #000000; stroke-width: 0.8"/>
      </g>
     </g>
     <g id="text_15">
      <!-- 80 -->
      <g transform="translate(27.240625 190.344806) scale(0.1 -0.1)">
       <use xlink:href="#DejaVuSans-38"/>
       <use xlink:href="#DejaVuSans-30" transform="translate(63.623047 0)"/>
      </g>
     </g>
    </g>
    <g id="ytick_6">
     <g id="line2d_29">
      <path d="M 46.965625 140.881529 
L 428.135625 140.881529 
" clip-path="url(#pafe79f0b75)" style="fill: none; stroke-dasharray: 2.96,1.28; stroke-dashoffset: 0; stroke: #b0b0b0; stroke-opacity: 0.6; stroke-width: 0.8"/>
     </g>
     <g id="line2d_30">
      <g>
       <use xlink:href="#m473fadc64f" x="46.965625" y="140.881529" style="stroke: #000000; stroke-width: 0.8"/>
      </g>
     </g>
     <g id="text_16">
      <!-- 100 -->
      <g transform="translate(20.878125 144.680748) scale(0.1 -0.1)">
       <use xlink:href="#DejaVuSans-31"/>
       <use xlink:href="#DejaVuSans-30" transform="translate(63.623047 0)"/>
       <use xlink:href="#DejaVuSans-30" transform="translate(127.246094 0)"/>
      </g>
     </g>
    </g>
    <g id="ytick_7">
     <g id="line2d_31">
      <path d="M 46.965625 95.217471 
L 428.135625 95.217471 
" clip-path="url(#pafe79f0b75)" style="fill: none; stroke-dasharray: 2.96,1.28; stroke-dashoffset: 0; stroke: #b0b0b0; stroke-opacity: 0.6; stroke-width: 0.8"/>
     </g>
     <g id="line2d_32">
      <g>
       <use xlink:href="#m473fadc64f" x="46.965625" y="95.217471" style="stroke: #000000; stroke-width: 0.8"/>
      </g>
     </g>
     <g id="text_17">
      <!-- 120 -->
      <g transform="translate(20.878125 99.01669) scale(0.1 -0.1)">
       <use xlink:href="#DejaVuSans-31"/>
       <use xlink:href="#DejaVuSans-32" transform="translate(63.623047 0)"/>
       <use xlink:href="#DejaVuSans-30" transform="translate(127.246094 0)"/>
      </g>
     </g>
    </g>
    <g id="ytick_8">
     <g id="line2d_33">
      <path d="M 46.965625 49.553414 
L 428.135625 49.553414 
" clip-path="url(#pafe79f0b75)" style="fill: none; stroke-dasharray: 2.96,1.28; stroke-dashoffset: 0; stroke: #b0b0b0; stroke-opacity: 0.6; stroke-width: 0.8"/>
     </g>
     <g id="line2d_34">
      <g>
       <use xlink:href="#m473fadc64f" x="46.965625" y="49.553414" style="stroke: #000000; stroke-width: 0.8"/>
      </g>
     </g>
     <g id="text_18">
      <!-- 140 -->
      <g transform="translate(20.878125 53.352632) scale(0.1 -0.1)">
       <use xlink:href="#DejaVuSans-31"/>
       <use xlink:href="#DejaVuSans-34" transform="translate(63.623047 0)"/>
       <use xlink:href="#DejaVuSans-30" transform="translate(127.246094 0)"/>
      </g>
     </g>
    </g>
    <g id="text_19">
     <!-- Average cumulative count -->
     <g transform="translate(14.798438 262.4325) rotate(-90) scale(0.1 -0.1)">
      <defs>
       <path id="DejaVuSans-41" d="M 2188 4044 
L 1331 1722 
L 3047 1722 
L 2188 4044 
z
M 1831 4666 
L 2547 4666 
L 4325 0 
L 3669 0 
L 3244 1197 
L 1141 1197 
L 716 0 
L 50 0 
L 1831 4666 
z
" transform="scale(0.015625)"/>
       <path id="DejaVuSans-76" d="M 191 3500 
L 800 3500 
L 1894 563 
L 2988 3500 
L 3597 3500 
L 2284 0 
L 1503 0 
L 191 3500 
z
" transform="scale(0.015625)"/>
       <path id="DejaVuSans-67" d="M 2906 1791 
Q 2906 2416 2648 2759 
Q 2391 3103 1925 3103 
Q 1463 3103 1205 2759 
Q 947 2416 947 1791 
Q 947 1169 1205 825 
Q 1463 481 1925 481 
Q 2391 481 2648 825 
Q 2906 1169 2906 1791 
z
M 3481 434 
Q 3481 -459 3084 -895 
Q 2688 -1331 1869 -1331 
Q 1566 -1331 1297 -1286 
Q 1028 -1241 775 -1147 
L 775 -588 
Q 1028 -725 1275 -790 
Q 1522 -856 1778 -856 
Q 2344 -856 2625 -561 
Q 2906 -266 2906 331 
L 2906 616 
Q 2728 306 2450 153 
Q 2172 0 1784 0 
Q 1141 0 747 490 
Q 353 981 353 1791 
Q 353 2603 747 3093 
Q 1141 3584 1784 3584 
Q 2172 3584 2450 3431 
Q 2728 3278 2906 2969 
L 2906 3500 
L 3481 3500 
L 3481 434 
z
" transform="scale(0.015625)"/>
       <path id="DejaVuSans-6c" d="M 603 4863 
L 1178 4863 
L 1178 0 
L 603 0 
L 603 4863 
z
" transform="scale(0.015625)"/>
      </defs>
      <use xlink:href="#DejaVuSans-41"/>
      <use xlink:href="#DejaVuSans-76" transform="translate(62.533203 0)"/>
      <use xlink:href="#DejaVuSans-65" transform="translate(121.712891 0)"/>
      <use xlink:href="#DejaVuSans-72" transform="translate(183.236328 0)"/>
      <use xlink:href="#DejaVuSans-61" transform="translate(224.349609 0)"/>
      <use xlink:href="#DejaVuSans-67" transform="translate(285.628906 0)"/>
      <use xlink:href="#DejaVuSans-65" transform="translate(349.105469 0)"/>
      <use xlink:href="#DejaVuSans-20" transform="translate(410.628906 0)"/>
      <use xlink:href="#DejaVuSans-63" transform="translate(442.416016 0)"/>
      <use xlink:href="#DejaVuSans-75" transform="translate(497.396484 0)"/>
      <use xlink:href="#DejaVuSans-6d" transform="translate(560.775391 0)"/>
      <use xlink:href="#DejaVuSans-75" transform="translate(658.1875 0)"/>
      <use xlink:href="#DejaVuSans-6c" transform="translate(721.566406 0)"/>
      <use xlink:href="#DejaVuSans-61" transform="translate(749.349609 0)"/>
      <use xlink:href="#DejaVuSans-74" transform="translate(810.628906 0)"/>
      <use xlink:href="#DejaVuSans-69" transform="translate(849.837891 0)"/>
      <use xlink:href="#DejaVuSans-76" transform="translate(877.621094 0)"/>
      <use xlink:href="#DejaVuSans-65" transform="translate(936.800781 0)"/>
      <use xlink:href="#DejaVuSans-20" transform="translate(998.324219 0)"/>
      <use xlink:href="#DejaVuSans-63" transform="translate(1030.111328 0)"/>
      <use xlink:href="#DejaVuSans-6f" transform="translate(1085.091797 0)"/>
      <use xlink:href="#DejaVuSans-75" transform="translate(1146.273438 0)"/>
      <use xlink:href="#DejaVuSans-6e" transform="translate(1209.652344 0)"/>
      <use xlink:href="#DejaVuSans-74" transform="translate(1273.03125 0)"/>
     </g>
    </g>
   </g>
   <g id="line2d_35">
    <path d="M 64.291534 369.201818 
L 65.590977 369.201818 
L 65.720922 368.060217 
L 65.894181 368.060217 
L 66.024125 366.918615 
L 71.78499 366.918615 
L 71.914934 365.777014 
L 73.734155 365.777014 
L 73.864099 364.635412 
L 74.773709 364.635412 
L 74.903653 363.493811 
L 80.881092 363.493811 
L 81.011036 362.35221 
L 87.421623 362.35221 
L 87.551567 361.210608 
L 92.272877 361.210608 
L 92.402822 360.069007 
L 103.751292 360.069007 
L 103.881236 358.927405 
L 110.681656 358.927405 
L 110.8116 357.785804 
L 132.035839 357.785804 
L 132.165783 356.644202 
L 132.728875 356.644202 
L 132.858819 355.502601 
L 135.111187 355.502601 
L 135.241132 354.360999 
L 135.457706 354.360999 
L 135.58765 353.219398 
L 135.760909 353.219398 
L 135.890853 352.077797 
L 138.273166 352.077797 
L 138.40311 350.936195 
L 145.160215 350.936195 
L 145.290159 349.794594 
L 145.939881 349.794594 
L 146.069825 348.652992 
L 146.502973 348.652992 
L 146.632917 347.511391 
L 155.772334 347.511391 
L 155.902278 346.369789 
L 156.075537 346.369789 
L 156.205482 345.228188 
L 158.327906 345.228188 
L 158.45785 344.086586 
L 167.337378 344.086586 
L 167.467323 342.944985 
L 410.766401 342.944985 
L 410.766401 342.944985 
" clip-path="url(#pafe79f0b75)" style="fill: none; stroke: #add8e6; stroke-width: 2; stroke-linecap: square"/>
   </g>
   <g id="line2d_36">
    <path d="M 64.291534 369.201818 
L 65.244459 369.201818 
L 65.374403 368.060217 
L 65.504348 368.060217 
L 65.677607 365.777014 
L 65.764236 365.777014 
L 65.894181 364.635412 
L 65.937495 364.635412 
L 66.110755 362.35221 
L 66.500588 362.35221 
L 66.630532 361.210608 
L 67.496827 361.210608 
L 67.626772 360.069007 
L 67.713401 360.069007 
L 67.88666 357.785804 
L 68.449752 357.785804 
L 68.579697 356.644202 
L 69.142789 356.644202 
L 69.272733 355.502601 
L 69.619251 355.502601 
L 69.749195 354.360999 
L 70.095714 354.360999 
L 70.225658 353.219398 
L 71.265213 353.219398 
L 71.395157 352.077797 
L 71.438472 352.077797 
L 71.568416 350.936195 
L 71.828305 350.936195 
L 71.958249 349.794594 
L 72.261452 349.794594 
L 72.391397 348.652992 
L 72.521341 348.652992 
L 72.651285 347.511391 
L 72.824544 347.511391 
L 72.954489 346.369789 
L 73.777469 346.369789 
L 73.907414 345.228188 
L 74.817024 345.228188 
L 74.990283 342.944985 
L 75.813264 342.944985 
L 75.943208 341.803384 
L 76.029837 341.803384 
L 76.159782 340.661782 
L 76.766189 340.661782 
L 76.896133 339.520181 
L 77.026077 339.520181 
L 77.199336 337.236978 
L 77.41591 337.236978 
L 77.545855 336.095376 
L 78.108947 336.095376 
L 78.238891 334.953775 
L 78.368835 334.953775 
L 78.49878 333.812173 
L 78.975242 333.812173 
L 79.105186 332.670572 
L 79.191816 332.670572 
L 79.32176 331.52897 
L 80.23137 331.52897 
L 80.361315 330.387369 
L 80.491259 330.387369 
L 80.621203 329.245768 
L 80.751148 329.245768 
L 80.881092 328.104166 
L 80.924407 328.104166 
L 81.054351 326.962565 
L 81.22761 326.962565 
L 81.357555 325.820963 
L 82.786942 325.820963 
L 82.916886 324.679362 
L 83.306719 324.679362 
L 83.436664 323.53776 
L 84.432903 323.53776 
L 84.562848 322.396159 
L 84.952681 322.396159 
L 85.082625 321.254557 
L 85.818976 321.254557 
L 85.94892 320.112956 
L 86.12218 320.112956 
L 86.252124 318.971355 
L 86.382068 318.971355 
L 86.512012 317.829753 
L 86.641957 317.829753 
L 86.771901 316.688152 
L 87.464938 316.688152 
L 87.594882 315.54655 
L 87.9414 315.54655 
L 88.114659 313.263347 
L 88.894325 313.263347 
L 89.024269 312.121746 
L 89.803935 312.121746 
L 89.93388 310.980144 
L 90.150453 310.980144 
L 90.280398 309.838543 
L 90.670231 309.838543 
L 90.800175 308.696942 
L 90.84349 308.696942 
L 90.973434 307.55534 
L 91.7531 307.55534 
L 91.883044 306.413739 
L 92.316192 306.413739 
L 92.446136 305.272137 
L 92.576081 305.272137 
L 92.706025 304.130536 
L 93.832209 304.130536 
L 93.962153 302.988934 
L 94.481931 302.988934 
L 94.611875 301.847333 
L 95.131652 301.847333 
L 95.261597 300.705731 
L 97.38402 300.705731 
L 97.513965 299.56413 
L 97.860483 299.56413 
L 97.990427 298.422529 
L 98.46689 298.422529 
L 98.596834 297.280927 
L 99.46313 297.280927 
L 99.636389 294.997724 
L 99.982907 294.997724 
L 100.112851 293.856123 
L 100.28611 293.856123 
L 100.416055 292.714521 
L 100.545999 292.714521 
L 100.719258 290.431318 
L 102.668423 290.431318 
L 102.798367 289.289717 
L 102.928311 289.289717 
L 103.058256 288.148116 
L 103.794607 288.148116 
L 103.924551 287.006514 
L 104.834161 287.006514 
L 104.964106 285.864913 
L 105.137365 285.864913 
L 105.267309 284.723311 
L 107.866195 284.723311 
L 107.99614 283.58171 
L 108.645861 283.58171 
L 108.775806 282.440108 
L 110.72497 282.440108 
L 110.854915 281.298507 
L 111.547951 281.298507 
L 111.677895 280.156905 
L 113.62706 280.156905 
L 113.757005 279.015304 
L 114.190152 279.015304 
L 114.320097 277.873703 
L 114.493356 277.873703 
L 114.6233 276.732101 
L 114.753244 276.732101 
L 114.883189 275.5905 
L 115.273022 275.5905 
L 115.402966 274.448898 
L 116.269261 274.448898 
L 116.399206 273.307297 
L 117.698649 273.307297 
L 117.828593 272.165695 
L 117.958538 272.165695 
L 118.088482 271.024094 
L 118.218426 271.024094 
L 118.34837 269.882492 
L 118.52163 269.882492 
L 118.651574 268.740891 
L 119.821073 268.740891 
L 119.951017 267.59929 
L 122.2467 267.59929 
L 122.376644 266.457688 
L 122.506589 266.457688 
L 122.636533 265.316087 
L 123.15631 265.316087 
L 123.329569 263.032884 
L 123.502828 263.032884 
L 123.632773 261.891282 
L 124.022606 261.891282 
L 124.15255 260.749681 
L 125.97177 260.749681 
L 126.101715 259.608079 
L 126.231659 259.608079 
L 126.361603 258.466478 
L 126.96801 258.466478 
L 127.097955 257.324877 
L 127.531102 257.324877 
L 127.661047 256.183275 
L 128.05088 256.183275 
L 128.180824 255.041674 
L 128.354083 255.041674 
L 128.484027 253.900072 
L 128.613972 253.900072 
L 128.743916 252.758471 
L 129.090434 252.758471 
L 129.220378 251.616869 
L 129.350323 251.616869 
L 129.480267 250.475268 
L 129.653526 250.475268 
L 129.78347 249.333666 
L 130.086674 249.333666 
L 130.216618 248.192065 
L 130.346563 248.192065 
L 130.476507 247.050464 
L 130.736395 247.050464 
L 130.909655 244.767261 
L 131.429432 244.767261 
L 131.602691 242.484058 
L 132.079153 242.484058 
L 132.209098 241.342456 
L 132.77219 241.342456 
L 132.902134 240.200855 
L 134.374836 240.200855 
L 134.504781 239.059253 
L 134.548095 239.059253 
L 134.721355 236.776051 
L 134.894614 236.776051 
L 135.024558 235.634449 
L 135.154502 235.634449 
L 135.284447 234.492848 
L 135.50102 234.492848 
L 135.630965 233.351246 
L 135.804224 233.351246 
L 135.934168 232.209645 
L 136.670519 232.209645 
L 136.800464 231.068043 
L 137.536815 231.068043 
L 137.666759 229.926442 
L 137.753389 229.926442 
L 137.926648 227.643239 
L 138.316481 227.643239 
L 138.446425 226.501638 
L 138.48974 226.501638 
L 138.619684 225.360036 
L 139.269406 225.360036 
L 139.39935 224.218435 
L 139.572609 224.218435 
L 139.702553 223.076833 
L 139.745868 223.076833 
L 139.875812 221.935232 
L 140.612164 221.935232 
L 140.742108 220.79363 
L 141.954922 220.79363 
L 142.084866 219.652029 
L 142.647958 219.652029 
L 142.777902 218.510427 
L 143.12442 218.510427 
L 143.254365 217.368826 
L 144.553808 217.368826 
L 144.683752 216.227225 
L 145.073585 216.227225 
L 145.246844 213.944022 
L 145.593363 213.944022 
L 145.723307 212.80242 
L 145.853251 212.80242 
L 146.02651 210.519217 
L 146.243084 210.519217 
L 146.373028 209.377616 
L 146.546288 209.377616 
L 146.676232 208.236014 
L 146.719547 208.236014 
L 146.892806 205.952812 
L 148.062305 205.952812 
L 148.192249 204.81121 
L 148.365508 204.81121 
L 148.495452 203.669609 
L 148.625397 203.669609 
L 148.755341 202.528007 
L 149.01523 202.528007 
L 149.188489 200.244804 
L 149.275118 200.244804 
L 149.448377 197.961601 
L 149.578322 197.961601 
L 149.708266 196.82 
L 149.92484 196.82 
L 150.054784 195.678399 
L 150.314673 195.678399 
L 150.487932 193.395196 
L 151.007709 193.395196 
L 151.137653 192.253594 
L 151.484172 192.253594 
L 151.614116 191.111993 
L 151.787375 191.111993 
L 151.917319 188.82879 
L 152.047264 188.82879 
L 152.177208 187.687188 
L 152.307152 187.687188 
L 152.437097 186.545587 
L 152.567041 186.545587 
L 152.696985 185.403986 
L 153.73654 185.403986 
L 153.866484 184.262384 
L 153.996428 184.262384 
L 154.169688 181.979181 
L 154.386261 181.979181 
L 154.516206 180.83758 
L 154.64615 180.83758 
L 154.776094 179.695978 
L 155.209242 179.695978 
L 155.339186 178.554377 
L 155.815649 178.554377 
L 155.945593 177.412775 
L 156.118852 177.412775 
L 156.248797 176.271174 
L 157.591555 176.271174 
L 157.721499 175.129573 
L 158.37122 175.129573 
L 158.501165 173.987971 
L 161.013422 173.987971 
L 161.143366 172.84637 
L 161.27331 172.84637 
L 161.403255 171.704768 
L 162.052976 171.704768 
L 162.18292 170.563167 
L 163.958826 170.563167 
L 164.08877 169.421565 
L 164.218715 169.421565 
L 164.348659 168.279964 
L 165.17164 168.279964 
L 165.301584 167.138362 
L 166.817601 167.138362 
L 166.947545 165.996761 
L 167.337378 165.996761 
L 167.510637 163.713558 
L 168.853395 163.713558 
L 168.98334 162.571957 
L 169.373173 162.571957 
L 169.503117 161.430355 
L 169.849635 161.430355 
L 169.97958 160.288754 
L 175.480556 160.288754 
L 175.6105 159.147152 
L 175.783759 159.147152 
L 175.913703 158.005551 
L 178.815793 158.005551 
L 178.945738 156.863949 
L 179.292256 156.863949 
L 179.4222 155.722348 
L 182.584178 155.722348 
L 182.714123 154.580747 
L 185.702842 154.580747 
L 185.832786 153.439145 
L 188.908135 153.439145 
L 189.03808 152.297544 
L 190.424152 152.297544 
L 190.554097 151.155942 
L 190.684041 151.155942 
L 190.813985 150.014341 
L 190.987244 150.014341 
L 191.117189 148.872739 
L 191.463707 148.872739 
L 191.593651 147.731138 
L 192.416632 147.731138 
L 192.546576 146.589536 
L 193.75939 146.589536 
L 193.889334 145.447935 
L 410.766401 145.447935 
L 410.766401 145.447935 
" clip-path="url(#pafe79f0b75)" style="fill: none; stroke: #00008b; stroke-width: 2; stroke-linecap: square"/>
   </g>
   <g id="line2d_37">
    <path d="M 410.809716 369.201818 
L 180.071922 369.201818 
L 179.941977 368.060217 
L 178.42596 368.060217 
L 178.296016 366.918615 
L 145.20353 366.918615 
L 145.073585 365.777014 
L 142.907847 365.777014 
L 142.777902 364.635412 
L 142.604643 364.635412 
L 142.474699 363.493811 
L 140.958682 363.493811 
L 140.828737 362.35221 
L 139.745868 362.35221 
L 139.615924 361.210608 
L 115.662855 361.210608 
L 115.53291 360.069007 
L 112.457561 360.069007 
L 112.327617 358.927405 
L 108.732491 358.927405 
L 108.602547 357.785804 
L 107.129844 357.785804 
L 106.9999 356.644202 
L 104.054495 356.644202 
L 103.924551 355.502601 
L 103.448089 355.502601 
L 103.318144 354.360999 
L 99.506444 354.360999 
L 99.3765 353.219398 
L 96.777614 353.219398 
L 96.647669 352.077797 
L 84.952681 352.077797 
L 84.822736 350.936195 
L 82.830257 350.936195 
L 82.656998 348.652992 
L 82.007276 348.652992 
L 81.877332 347.511391 
L 77.892373 347.511391 
L 77.762428 346.369789 
L 64.334849 346.369789 
L 64.334849 346.369789 
" clip-path="url(#pafe79f0b75)" style="fill: none; stroke-dasharray: 7.4,3.2; stroke-dashoffset: 0; stroke: #fa8072; stroke-width: 2"/>
   </g>
   <g id="line2d_38">
    <path d="M 410.809716 369.201818 
L 399.287986 369.201818 
L 399.158042 368.060217 
L 359.741599 368.060217 
L 359.611655 366.918615 
L 321.624599 366.918615 
L 321.494655 365.777014 
L 244.784192 365.777014 
L 244.654248 364.635412 
L 239.976252 364.635412 
L 239.846308 363.493811 
L 239.326531 363.493811 
L 239.196586 362.35221 
L 238.070402 362.35221 
L 237.940458 361.210608 
L 236.727644 361.210608 
L 236.5977 360.069007 
L 235.731405 360.069007 
L 235.60146 358.927405 
L 234.60522 358.927405 
L 234.475276 357.785804 
L 233.002574 357.785804 
L 232.87263 356.644202 
L 232.482797 356.644202 
L 232.352852 355.502601 
L 232.179593 355.502601 
L 232.049649 354.360999 
L 227.371653 354.360999 
L 227.241709 353.219398 
L 227.111765 353.219398 
L 226.98182 352.077797 
L 225.509118 352.077797 
L 225.379174 350.936195 
L 225.24923 350.936195 
L 225.119285 349.794594 
L 224.989341 349.794594 
L 224.859397 348.652992 
L 224.729452 348.652992 
L 224.599508 347.511391 
L 222.866917 347.511391 
L 222.736973 346.369789 
L 222.303825 346.369789 
L 222.173881 345.228188 
L 222.043936 345.228188 
L 221.913992 344.086586 
L 218.795328 344.086586 
L 218.665384 342.944985 
L 215.460091 342.944985 
L 215.330147 341.803384 
L 214.940314 341.803384 
L 214.810369 340.661782 
L 214.160648 340.661782 
L 214.030703 339.520181 
L 213.337667 339.520181 
L 213.207723 338.378579 
L 212.81789 338.378579 
L 212.687945 337.236978 
L 212.298113 337.236978 
L 212.168168 336.095376 
L 211.778335 336.095376 
L 211.648391 334.953775 
L 211.258558 334.953775 
L 211.128614 333.812173 
L 210.998669 333.812173 
L 210.868725 332.670572 
L 210.738781 332.670572 
L 210.608836 331.52897 
L 208.832931 331.52897 
L 208.702986 330.387369 
L 207.230284 330.387369 
L 207.10034 329.245768 
L 203.28864 329.245768 
L 203.158695 328.104166 
L 202.20577 328.104166 
L 202.075826 326.962565 
L 198.524015 326.962565 
L 198.39407 325.820963 
L 196.618165 325.820963 
L 196.48822 324.679362 
L 196.358276 324.679362 
L 196.228332 323.53776 
L 196.098388 323.53776 
L 195.925128 321.254557 
L 195.795184 321.254557 
L 195.66524 320.112956 
L 195.535295 320.112956 
L 195.405351 318.971355 
L 195.275407 318.971355 
L 195.145462 317.829753 
L 194.972203 317.829753 
L 194.842259 316.688152 
L 194.409111 316.688152 
L 194.279167 315.54655 
L 193.456186 315.54655 
L 193.326242 314.404949 
L 193.196298 314.404949 
L 193.066353 313.263347 
L 192.936409 313.263347 
L 192.806465 312.121746 
L 192.503261 312.121746 
L 192.373317 310.980144 
L 192.026799 310.980144 
L 191.896855 309.838543 
L 191.76691 309.838543 
L 191.636966 308.696942 
L 191.593651 308.696942 
L 191.463707 307.55534 
L 191.203818 307.55534 
L 191.073874 306.413739 
L 190.900615 306.413739 
L 190.77067 305.272137 
L 189.601172 305.272137 
L 189.471227 304.130536 
L 187.695322 304.130536 
L 187.522063 301.847333 
L 187.435433 301.847333 
L 187.262174 299.56413 
L 186.785711 299.56413 
L 186.655767 298.422529 
L 186.309249 298.422529 
L 186.179305 297.280927 
L 185.919416 297.280927 
L 185.789472 296.139326 
L 185.659527 296.139326 
L 185.529583 294.997724 
L 185.399639 294.997724 
L 185.269694 293.856123 
L 184.749917 293.856123 
L 184.619973 292.714521 
L 184.403399 292.714521 
L 184.23014 290.431318 
L 184.056881 290.431318 
L 183.926936 289.289717 
L 183.796992 289.289717 
L 183.667048 288.148116 
L 183.32053 288.148116 
L 183.190585 287.006514 
L 182.627493 287.006514 
L 182.497549 285.864913 
L 182.107716 285.864913 
L 181.977772 284.723311 
L 181.068161 284.723311 
L 180.894902 282.440108 
L 180.808273 282.440108 
L 180.678328 281.298507 
L 180.158551 281.298507 
L 179.985292 279.015304 
L 179.855348 279.015304 
L 179.725403 277.873703 
L 179.595459 277.873703 
L 179.465515 276.732101 
L 179.33557 276.732101 
L 179.205626 275.5905 
L 179.075682 275.5905 
L 178.945738 274.448898 
L 178.42596 274.448898 
L 178.296016 273.307297 
L 177.386406 273.307297 
L 177.256461 272.165695 
L 175.740444 272.165695 
L 175.6105 271.024094 
L 175.480556 271.024094 
L 175.350611 269.882492 
L 174.137798 269.882492 
L 174.007853 268.740891 
L 173.877909 268.740891 
L 173.747965 267.59929 
L 173.574706 267.59929 
L 173.444761 266.457688 
L 173.314817 266.457688 
L 173.184873 265.316087 
L 171.928744 265.316087 
L 171.7988 264.174485 
L 170.282783 264.174485 
L 170.152839 263.032884 
L 170.066209 263.032884 
L 169.936265 261.891282 
L 169.719691 261.891282 
L 169.589747 260.749681 
L 169.459802 260.749681 
L 169.329858 259.608079 
L 168.766766 259.608079 
L 168.636822 258.466478 
L 168.290303 258.466478 
L 168.160359 257.324877 
L 165.99462 257.324877 
L 165.864676 256.183275 
L 165.734732 256.183275 
L 165.604787 253.900072 
L 163.698937 253.900072 
L 163.568993 252.758471 
L 163.439049 252.758471 
L 163.309105 251.616869 
L 162.919272 251.616869 
L 162.789327 250.475268 
L 162.659383 250.475268 
L 162.529439 248.192065 
L 162.312865 248.192065 
L 162.18292 247.050464 
L 160.233756 247.050464 
L 160.103811 245.908862 
L 158.631109 245.908862 
L 158.501165 244.767261 
L 158.111332 244.767261 
L 157.981387 243.625659 
L 156.681944 243.625659 
L 156.552 242.484058 
L 155.122613 242.484058 
L 154.992668 241.342456 
L 154.862724 241.342456 
L 154.73278 240.200855 
L 154.126373 240.200855 
L 153.996428 239.059253 
L 153.130133 239.059253 
L 153.000189 237.917652 
L 151.874005 237.917652 
L 151.74406 236.776051 
L 151.614116 236.776051 
L 151.484172 235.634449 
L 150.401302 235.634449 
L 150.271358 234.492848 
L 149.231803 234.492848 
L 149.101859 233.351246 
L 147.889045 233.351246 
L 147.759101 232.209645 
L 147.369268 232.209645 
L 147.239324 231.068043 
L 147.10938 231.068043 
L 146.979435 229.926442 
L 146.546288 229.926442 
L 146.416343 228.78484 
L 146.069825 228.78484 
L 145.939881 227.643239 
L 145.809936 227.643239 
L 145.679992 226.501638 
L 145.550048 226.501638 
L 145.420103 225.360036 
L 145.20353 225.360036 
L 145.073585 224.218435 
L 145.03027 224.218435 
L 144.900326 223.076833 
L 144.770382 223.076833 
L 144.640437 221.935232 
L 143.990716 221.935232 
L 143.860772 220.79363 
L 143.730827 220.79363 
L 143.600883 219.652029 
L 143.470939 219.652029 
L 143.340994 218.510427 
L 142.907847 218.510427 
L 142.777902 217.368826 
L 142.604643 217.368826 
L 142.474699 216.227225 
L 142.30144 216.227225 
L 142.171495 215.085623 
L 141.738348 215.085623 
L 141.608403 213.944022 
L 141.435144 213.944022 
L 141.3052 212.80242 
L 141.088626 212.80242 
L 140.915367 210.519217 
L 140.612164 210.519217 
L 140.482219 209.377616 
L 140.352275 209.377616 
L 140.179016 207.094413 
L 140.005757 207.094413 
L 139.875812 205.952812 
L 139.745868 205.952812 
L 139.615924 204.81121 
L 139.442665 204.81121 
L 139.31272 203.669609 
L 139.182776 203.669609 
L 139.052832 202.528007 
L 138.229851 202.528007 
L 138.099907 201.386406 
L 137.969963 201.386406 
L 137.840018 200.244804 
L 137.233611 200.244804 
L 137.103667 199.103203 
L 136.627205 199.103203 
L 136.49726 197.961601 
L 136.367316 197.961601 
L 136.237372 196.82 
L 136.107427 196.82 
L 135.977483 195.678399 
L 135.58765 195.678399 
L 135.457706 194.536797 
L 135.067873 194.536797 
L 134.937928 193.395196 
L 134.807984 193.395196 
L 134.67804 192.253594 
L 133.941689 192.253594 
L 133.811744 191.111993 
L 133.421911 191.111993 
L 133.291967 189.970391 
L 132.598931 189.970391 
L 132.468986 188.82879 
L 132.035839 188.82879 
L 131.905894 187.687188 
L 131.77595 187.687188 
L 131.646006 186.545587 
L 130.476507 186.545587 
L 130.346563 185.403986 
L 130.216618 185.403986 
L 130.086674 184.262384 
L 129.95673 184.262384 
L 129.826785 183.120783 
L 129.393638 183.120783 
L 129.263693 181.979181 
L 129.177064 181.979181 
L 129.047119 180.83758 
L 128.917175 180.83758 
L 128.787231 179.695978 
L 128.440713 179.695978 
L 128.267453 177.412775 
L 125.97177 177.412775 
L 125.841826 176.271174 
L 120.600739 176.271174 
L 120.470794 175.129573 
L 120.080961 175.129573 
L 119.951017 173.987971 
L 118.911462 173.987971 
L 118.781518 172.84637 
L 118.651574 172.84637 
L 118.52163 171.704768 
L 118.391685 171.704768 
L 118.261741 170.563167 
L 117.52539 170.563167 
L 117.352131 168.279964 
L 117.222186 168.279964 
L 117.092242 167.138362 
L 116.659094 167.138362 
L 116.52915 165.996761 
L 116.355891 165.996761 
L 116.225947 164.85516 
L 115.662855 164.85516 
L 115.53291 163.713558 
L 115.359651 163.713558 
L 115.229707 162.571957 
L 115.099762 162.571957 
L 114.969818 161.430355 
L 114.839874 161.430355 
L 114.70993 160.288754 
L 114.579985 160.288754 
L 114.450041 159.147152 
L 114.276782 159.147152 
L 114.146838 158.005551 
L 112.71745 158.005551 
L 112.587506 156.863949 
L 112.457561 156.863949 
L 112.327617 155.722348 
L 111.288062 155.722348 
L 111.158118 154.580747 
L 110.075249 154.580747 
L 109.945305 153.439145 
L 109.555472 153.439145 
L 109.425527 152.297544 
L 109.252268 152.297544 
L 109.122324 151.155942 
L 108.99238 151.155942 
L 108.862435 150.014341 
L 108.732491 150.014341 
L 108.602547 148.872739 
L 107.90951 148.872739 
L 107.779566 147.731138 
L 107.129844 147.731138 
L 106.9999 146.589536 
L 106.869956 146.589536 
L 106.696697 144.306334 
L 106.523438 144.306334 
L 106.393493 143.164732 
L 106.220234 143.164732 
L 106.046975 140.881529 
L 105.960345 140.881529 
L 105.830401 139.739928 
L 105.440568 139.739928 
L 105.310624 138.598326 
L 104.877476 138.598326 
L 104.747532 137.456725 
L 104.617587 137.456725 
L 104.444328 135.173522 
L 104.314384 135.173522 
L 104.18444 134.031921 
L 104.054495 134.031921 
L 103.924551 132.890319 
L 103.448089 132.890319 
L 103.318144 131.748718 
L 102.581793 131.748718 
L 102.408534 129.465515 
L 102.321905 129.465515 
L 102.19196 128.323913 
L 102.018701 128.323913 
L 101.888757 127.182312 
L 101.715498 127.182312 
L 101.585553 126.04071 
L 101.455609 126.04071 
L 101.325665 124.899109 
L 101.19572 124.899109 
L 101.065776 123.757508 
L 100.892517 123.757508 
L 100.762573 122.615906 
L 100.632628 122.615906 
L 100.502684 121.474305 
L 100.329425 121.474305 
L 100.199481 120.332703 
L 100.112851 120.332703 
L 99.939592 118.0495 
L 99.852963 118.0495 
L 99.723018 116.907899 
L 99.506444 116.907899 
L 99.3765 115.766297 
L 99.159926 115.766297 
L 99.029982 114.624696 
L 98.900037 114.624696 
L 98.770093 113.483095 
L 98.640149 113.483095 
L 98.510205 112.341493 
L 98.163686 112.341493 
L 97.990427 110.05829 
L 97.903798 110.05829 
L 97.773853 108.916689 
L 96.777614 108.916689 
L 96.647669 107.775087 
L 96.214522 107.775087 
L 96.084577 106.633486 
L 95.954633 106.633486 
L 95.824689 105.491884 
L 95.694744 105.491884 
L 95.5648 104.350283 
L 94.698505 104.350283 
L 94.56856 103.208682 
L 94.438616 103.208682 
L 94.308672 102.06708 
L 94.178727 102.06708 
L 94.048783 100.925479 
L 93.918839 100.925479 
L 93.74558 98.642276 
L 92.619395 98.642276 
L 92.489451 97.500674 
L 92.229563 97.500674 
L 92.099618 96.359073 
L 91.190008 96.359073 
L 91.060064 95.217471 
L 89.890565 95.217471 
L 89.76062 94.07587 
L 89.630676 94.07587 
L 89.500732 92.934269 
L 89.370788 92.934269 
L 89.240843 91.792667 
L 89.110899 91.792667 
L 88.980955 90.651066 
L 88.634436 90.651066 
L 88.504492 89.509464 
L 88.374548 89.509464 
L 88.244603 88.367863 
L 88.114659 88.367863 
L 87.984715 87.226261 
L 87.334993 87.226261 
L 87.205049 86.08466 
L 87.161734 86.08466 
L 86.988475 83.801457 
L 86.512012 83.801457 
L 86.382068 82.659856 
L 86.252124 82.659856 
L 86.12218 81.518254 
L 85.992235 81.518254 
L 85.862291 80.376653 
L 84.952681 80.376653 
L 84.822736 79.235051 
L 84.562848 79.235051 
L 84.432903 78.09345 
L 84.302959 78.09345 
L 84.173015 76.951848 
L 83.479978 76.951848 
L 83.350034 75.810247 
L 83.176775 75.810247 
L 83.046831 74.668645 
L 82.830257 74.668645 
L 82.656998 72.385443 
L 82.527053 72.385443 
L 82.397109 71.243841 
L 82.267165 71.243841 
L 82.13722 70.10224 
L 82.007276 70.10224 
L 81.877332 68.960638 
L 81.530814 68.960638 
L 81.400869 67.819037 
L 80.751148 67.819037 
L 80.621203 66.677435 
L 80.274685 66.677435 
L 80.144741 65.535834 
L 80.014797 65.535834 
L 79.884852 64.394232 
L 79.754908 64.394232 
L 79.624964 63.252631 
L 79.495019 63.252631 
L 79.365075 62.11103 
L 78.931927 62.11103 
L 78.801983 60.969428 
L 77.892373 60.969428 
L 77.762428 59.827827 
L 77.675799 59.827827 
L 77.545855 58.686225 
L 77.156022 58.686225 
L 77.026077 57.544624 
L 76.462985 57.544624 
L 76.333041 56.403022 
L 75.076913 56.403022 
L 74.946968 55.261421 
L 74.210617 55.261421 
L 74.080673 54.119819 
L 73.950728 54.119819 
L 73.820784 52.978218 
L 73.69084 52.978218 
L 73.560895 51.836616 
L 73.387636 51.836616 
L 73.257692 50.695015 
L 72.824544 50.695015 
L 72.6946 48.411812 
L 72.564656 48.411812 
L 72.434711 47.270211 
L 72.304767 47.270211 
L 72.174823 46.128609 
L 72.001564 46.128609 
L 71.871619 44.987008 
L 71.741675 44.987008 
L 71.611731 43.845406 
L 71.265213 43.845406 
L 71.135268 42.703805 
L 71.005324 42.703805 
L 70.87538 41.562203 
L 70.745435 41.562203 
L 70.615491 40.420602 
L 70.485547 40.420602 
L 70.312288 38.137399 
L 69.965769 38.137399 
L 69.835825 36.995798 
L 69.619251 36.995798 
L 69.489307 35.854196 
L 69.056159 35.854196 
L 68.926215 34.712595 
L 68.79627 34.712595 
L 68.666326 33.570993 
L 68.233178 33.570993 
L 68.103234 32.429392 
L 67.97329 32.429392 
L 67.800031 30.146189 
L 67.410198 30.146189 
L 67.280253 29.004588 
L 67.106994 29.004588 
L 66.97705 27.862986 
L 66.587217 27.862986 
L 66.457273 26.721385 
L 66.327328 26.721385 
L 66.197384 25.579783 
L 65.764236 25.579783 
L 65.634292 24.438182 
L 64.334849 24.438182 
L 64.334849 24.438182 
" clip-path="url(#pafe79f0b75)" style="fill: none; stroke-dasharray: 7.4,3.2; stroke-dashoffset: 0; stroke: #8b0000; stroke-width: 2"/>
   </g>
   <g id="patch_3">
    <path d="M 46.965625 386.44 
L 46.965625 7.2 
" style="fill: none; stroke: #000000; stroke-width: 0.8; stroke-linejoin: miter; stroke-linecap: square"/>
   </g>
   <g id="patch_4">
    <path d="M 428.135625 386.44 
L 428.135625 7.2 
" style="fill: none; stroke: #000000; stroke-width: 0.8; stroke-linejoin: miter; stroke-linecap: square"/>
   </g>
   <g id="patch_5">
    <path d="M 46.965625 386.44 
L 428.135625 386.44 
" style="fill: none; stroke: #000000; stroke-width: 0.8; stroke-linejoin: miter; stroke-linecap: square"/>
   </g>
   <g id="patch_6">
    <path d="M 46.965625 7.2 
L 428.135625 7.2 
" style="fill: none; stroke: #000000; stroke-width: 0.8; stroke-linejoin: miter; stroke-linecap: square"/>
   </g>
   <g id="legend_1">
    <g id="patch_7">
     <path d="M 435.135625 88.590625 
L 559.01375 88.590625 
Q 561.01375 88.590625 561.01375 86.590625 
L 561.01375 14.2 
Q 561.01375 12.2 559.01375 12.2 
L 435.135625 12.2 
Q 433.135625 12.2 433.135625 14.2 
L 433.135625 86.590625 
Q 433.135625 88.590625 435.135625 88.590625 
z
" style="fill: #ffffff; opacity: 0.8; stroke: #cccccc; stroke-linejoin: miter"/>
    </g>
    <g id="text_20">
     <!-- Motifs &amp; orientation -->
     <g transform="translate(447.559062 23.798437) scale(0.1 -0.1)">
      <defs>
       <path id="DejaVuSans-4d" d="M 628 4666 
L 1569 4666 
L 2759 1491 
L 3956 4666 
L 4897 4666 
L 4897 0 
L 4281 0 
L 4281 4097 
L 3078 897 
L 2444 897 
L 1241 4097 
L 1241 0 
L 628 0 
L 628 4666 
z
" transform="scale(0.015625)"/>
       <path id="DejaVuSans-26" d="M 1556 2509 
Q 1272 2256 1139 2004 
Q 1006 1753 1006 1478 
Q 1006 1022 1337 719 
Q 1669 416 2169 416 
Q 2466 416 2725 514 
Q 2984 613 3213 813 
L 1556 2509 
z
M 1997 2859 
L 3584 1234 
Q 3769 1513 3872 1830 
Q 3975 2147 3994 2503 
L 4575 2503 
Q 4538 2091 4375 1687 
Q 4213 1284 3922 891 
L 4794 0 
L 4006 0 
L 3559 459 
Q 3234 181 2878 45 
Q 2522 -91 2113 -91 
Q 1359 -91 881 339 
Q 403 769 403 1441 
Q 403 1841 612 2192 
Q 822 2544 1241 2853 
Q 1091 3050 1012 3245 
Q 934 3441 934 3628 
Q 934 4134 1281 4442 
Q 1628 4750 2203 4750 
Q 2463 4750 2720 4694 
Q 2978 4638 3244 4525 
L 3244 3956 
Q 2972 4103 2725 4179 
Q 2478 4256 2266 4256 
Q 1938 4256 1733 4082 
Q 1528 3909 1528 3634 
Q 1528 3475 1620 3314 
Q 1713 3153 1997 2859 
z
" transform="scale(0.015625)"/>
      </defs>
      <use xlink:href="#DejaVuSans-4d"/>
      <use xlink:href="#DejaVuSans-6f" transform="translate(86.279297 0)"/>
      <use xlink:href="#DejaVuSans-74" transform="translate(147.460938 0)"/>
      <use xlink:href="#DejaVuSans-69" transform="translate(186.669922 0)"/>
      <use xlink:href="#DejaVuSans-66" transform="translate(214.453125 0)"/>
      <use xlink:href="#DejaVuSans-73" transform="translate(249.658203 0)"/>
      <use xlink:href="#DejaVuSans-20" transform="translate(301.757812 0)"/>
      <use xlink:href="#DejaVuSans-26" transform="translate(333.544922 0)"/>
      <use xlink:href="#DejaVuSans-20" transform="translate(411.523438 0)"/>
      <use xlink:href="#DejaVuSans-6f" transform="translate(443.310547 0)"/>
      <use xlink:href="#DejaVuSans-72" transform="translate(504.492188 0)"/>
      <use xlink:href="#DejaVuSans-69" transform="translate(545.605469 0)"/>
      <use xlink:href="#DejaVuSans-65" transform="translate(573.388672 0)"/>
      <use xlink:href="#DejaVuSans-6e" transform="translate(634.912109 0)"/>
      <use xlink:href="#DejaVuSans-74" transform="translate(698.291016 0)"/>
      <use xlink:href="#DejaVuSans-61" transform="translate(737.5 0)"/>
      <use xlink:href="#DejaVuSans-74" transform="translate(798.779297 0)"/>
      <use xlink:href="#DejaVuSans-69" transform="translate(837.988281 0)"/>
      <use xlink:href="#DejaVuSans-6f" transform="translate(865.771484 0)"/>
      <use xlink:href="#DejaVuSans-6e" transform="translate(926.953125 0)"/>
     </g>
    </g>
    <g id="line2d_39">
     <path d="M 437.135625 34.976562 
L 447.135625 34.976562 
L 457.135625 34.976562 
" style="fill: none; stroke: #add8e6; stroke-width: 2; stroke-linecap: square"/>
    </g>
    <g id="text_21">
     <!-- CCCGAAA (5' end) -->
     <g transform="translate(465.135625 38.476562) scale(0.1 -0.1)">
      <defs>
       <path id="DejaVuSans-43" d="M 4122 4306 
L 4122 3641 
Q 3803 3938 3442 4084 
Q 3081 4231 2675 4231 
Q 1875 4231 1450 3742 
Q 1025 3253 1025 2328 
Q 1025 1406 1450 917 
Q 1875 428 2675 428 
Q 3081 428 3442 575 
Q 3803 722 4122 1019 
L 4122 359 
Q 3791 134 3420 21 
Q 3050 -91 2638 -91 
Q 1578 -91 968 557 
Q 359 1206 359 2328 
Q 359 3453 968 4101 
Q 1578 4750 2638 4750 
Q 3056 4750 3426 4639 
Q 3797 4528 4122 4306 
z
" transform="scale(0.015625)"/>
       <path id="DejaVuSans-47" d="M 3809 666 
L 3809 1919 
L 2778 1919 
L 2778 2438 
L 4434 2438 
L 4434 434 
Q 4069 175 3628 42 
Q 3188 -91 2688 -91 
Q 1594 -91 976 548 
Q 359 1188 359 2328 
Q 359 3472 976 4111 
Q 1594 4750 2688 4750 
Q 3144 4750 3555 4637 
Q 3966 4525 4313 4306 
L 4313 3634 
Q 3963 3931 3569 4081 
Q 3175 4231 2741 4231 
Q 1884 4231 1454 3753 
Q 1025 3275 1025 2328 
Q 1025 1384 1454 906 
Q 1884 428 2741 428 
Q 3075 428 3337 486 
Q 3600 544 3809 666 
z
" transform="scale(0.015625)"/>
       <path id="DejaVuSans-28" d="M 1984 4856 
Q 1566 4138 1362 3434 
Q 1159 2731 1159 2009 
Q 1159 1288 1364 580 
Q 1569 -128 1984 -844 
L 1484 -844 
Q 1016 -109 783 600 
Q 550 1309 550 2009 
Q 550 2706 781 3412 
Q 1013 4119 1484 4856 
L 1984 4856 
z
" transform="scale(0.015625)"/>
       <path id="DejaVuSans-27" d="M 1147 4666 
L 1147 2931 
L 616 2931 
L 616 4666 
L 1147 4666 
z
" transform="scale(0.015625)"/>
       <path id="DejaVuSans-64" d="M 2906 2969 
L 2906 4863 
L 3481 4863 
L 3481 0 
L 2906 0 
L 2906 525 
Q 2725 213 2448 61 
Q 2172 -91 1784 -91 
Q 1150 -91 751 415 
Q 353 922 353 1747 
Q 353 2572 751 3078 
Q 1150 3584 1784 3584 
Q 2172 3584 2448 3432 
Q 2725 3281 2906 2969 
z
M 947 1747 
Q 947 1113 1208 752 
Q 1469 391 1925 391 
Q 2381 391 2643 752 
Q 2906 1113 2906 1747 
Q 2906 2381 2643 2742 
Q 2381 3103 1925 3103 
Q 1469 3103 1208 2742 
Q 947 2381 947 1747 
z
" transform="scale(0.015625)"/>
       <path id="DejaVuSans-29" d="M 513 4856 
L 1013 4856 
Q 1481 4119 1714 3412 
Q 1947 2706 1947 2009 
Q 1947 1309 1714 600 
Q 1481 -109 1013 -844 
L 513 -844 
Q 928 -128 1133 580 
Q 1338 1288 1338 2009 
Q 1338 2731 1133 3434 
Q 928 4138 513 4856 
z
" transform="scale(0.015625)"/>
      </defs>
      <use xlink:href="#DejaVuSans-43"/>
      <use xlink:href="#DejaVuSans-43" transform="translate(69.824219 0)"/>
      <use xlink:href="#DejaVuSans-43" transform="translate(139.648438 0)"/>
      <use xlink:href="#DejaVuSans-47" transform="translate(209.472656 0)"/>
      <use xlink:href="#DejaVuSans-41" transform="translate(286.962891 0)"/>
      <use xlink:href="#DejaVuSans-41" transform="translate(358.121094 0)"/>
      <use xlink:href="#DejaVuSans-41" transform="translate(429.279297 0)"/>
      <use xlink:href="#DejaVuSans-20" transform="translate(497.6875 0)"/>
      <use xlink:href="#DejaVuSans-28" transform="translate(529.474609 0)"/>
      <use xlink:href="#DejaVuSans-35" transform="translate(568.488281 0)"/>
      <use xlink:href="#DejaVuSans-27" transform="translate(632.111328 0)"/>
      <use xlink:href="#DejaVuSans-20" transform="translate(659.601562 0)"/>
      <use xlink:href="#DejaVuSans-65" transform="translate(691.388672 0)"/>
      <use xlink:href="#DejaVuSans-6e" transform="translate(752.912109 0)"/>
      <use xlink:href="#DejaVuSans-64" transform="translate(816.291016 0)"/>
      <use xlink:href="#DejaVuSans-29" transform="translate(879.767578 0)"/>
     </g>
    </g>
    <g id="line2d_40">
     <path d="M 437.135625 49.654687 
L 447.135625 49.654687 
L 457.135625 49.654687 
" style="fill: none; stroke: #00008b; stroke-width: 2; stroke-linecap: square"/>
    </g>
    <g id="text_22">
     <!-- CCGAAA (5' end) -->
     <g transform="translate(465.135625 53.154687) scale(0.1 -0.1)">
      <use xlink:href="#DejaVuSans-43"/>
      <use xlink:href="#DejaVuSans-43" transform="translate(69.824219 0)"/>
      <use xlink:href="#DejaVuSans-47" transform="translate(139.648438 0)"/>
      <use xlink:href="#DejaVuSans-41" transform="translate(217.138672 0)"/>
      <use xlink:href="#DejaVuSans-41" transform="translate(288.296875 0)"/>
      <use xlink:href="#DejaVuSans-41" transform="translate(359.455078 0)"/>
      <use xlink:href="#DejaVuSans-20" transform="translate(427.863281 0)"/>
      <use xlink:href="#DejaVuSans-28" transform="translate(459.650391 0)"/>
      <use xlink:href="#DejaVuSans-35" transform="translate(498.664062 0)"/>
      <use xlink:href="#DejaVuSans-27" transform="translate(562.287109 0)"/>
      <use xlink:href="#DejaVuSans-20" transform="translate(589.777344 0)"/>
      <use xlink:href="#DejaVuSans-65" transform="translate(621.564453 0)"/>
      <use xlink:href="#DejaVuSans-6e" transform="translate(683.087891 0)"/>
      <use xlink:href="#DejaVuSans-64" transform="translate(746.466797 0)"/>
      <use xlink:href="#DejaVuSans-29" transform="translate(809.943359 0)"/>
     </g>
    </g>
    <g id="line2d_41">
     <path d="M 437.135625 64.332812 
L 447.135625 64.332812 
L 457.135625 64.332812 
" style="fill: none; stroke-dasharray: 7.4,3.2; stroke-dashoffset: 0; stroke: #fa8072; stroke-width: 2"/>
    </g>
    <g id="text_23">
     <!-- TTTCGGG (3' end) -->
     <g transform="translate(465.135625 67.832812) scale(0.1 -0.1)">
      <defs>
       <path id="DejaVuSans-54" d="M -19 4666 
L 3928 4666 
L 3928 4134 
L 2272 4134 
L 2272 0 
L 1638 0 
L 1638 4134 
L -19 4134 
L -19 4666 
z
" transform="scale(0.015625)"/>
      </defs>
      <use xlink:href="#DejaVuSans-54"/>
      <use xlink:href="#DejaVuSans-54" transform="translate(59.333984 0)"/>
      <use xlink:href="#DejaVuSans-54" transform="translate(118.667969 0)"/>
      <use xlink:href="#DejaVuSans-43" transform="translate(173.876953 0)"/>
      <use xlink:href="#DejaVuSans-47" transform="translate(243.701172 0)"/>
      <use xlink:href="#DejaVuSans-47" transform="translate(321.191406 0)"/>
      <use xlink:href="#DejaVuSans-47" transform="translate(398.681641 0)"/>
      <use xlink:href="#DejaVuSans-20" transform="translate(476.171875 0)"/>
      <use xlink:href="#DejaVuSans-28" transform="translate(507.958984 0)"/>
      <use xlink:href="#DejaVuSans-33" transform="translate(546.972656 0)"/>
      <use xlink:href="#DejaVuSans-27" transform="translate(610.595703 0)"/>
      <use xlink:href="#DejaVuSans-20" transform="translate(638.085938 0)"/>
      <use xlink:href="#DejaVuSans-65" transform="translate(669.873047 0)"/>
      <use xlink:href="#DejaVuSans-6e" transform="translate(731.396484 0)"/>
      <use xlink:href="#DejaVuSans-64" transform="translate(794.775391 0)"/>
      <use xlink:href="#DejaVuSans-29" transform="translate(858.251953 0)"/>
     </g>
    </g>
    <g id="line2d_42">
     <path d="M 437.135625 79.010937 
L 447.135625 79.010937 
L 457.135625 79.010937 
" style="fill: none; stroke-dasharray: 7.4,3.2; stroke-dashoffset: 0; stroke: #8b0000; stroke-width: 2"/>
    </g>
    <g id="text_24">
     <!-- TTTCGG (3' end) -->
     <g transform="translate(465.135625 82.510937) scale(0.1 -0.1)">
      <use xlink:href="#DejaVuSans-54"/>
      <use xlink:href="#DejaVuSans-54" transform="translate(59.333984 0)"/>
      <use xlink:href="#DejaVuSans-54" transform="translate(118.667969 0)"/>
      <use xlink:href="#DejaVuSans-43" transform="translate(173.876953 0)"/>
      <use xlink:href="#DejaVuSans-47" transform="translate(243.701172 0)"/>
      <use xlink:href="#DejaVuSans-47" transform="translate(321.191406 0)"/>
      <use xlink:href="#DejaVuSans-20" transform="translate(398.681641 0)"/>
      <use xlink:href="#DejaVuSans-28" transform="translate(430.46875 0)"/>
      <use xlink:href="#DejaVuSans-33" transform="translate(469.482422 0)"/>
      <use xlink:href="#DejaVuSans-27" transform="translate(533.105469 0)"/>
      <use xlink:href="#DejaVuSans-20" transform="translate(560.595703 0)"/>
      <use xlink:href="#DejaVuSans-65" transform="translate(592.382812 0)"/>
      <use xlink:href="#DejaVuSans-6e" transform="translate(653.90625 0)"/>
      <use xlink:href="#DejaVuSans-64" transform="translate(717.285156 0)"/>
      <use xlink:href="#DejaVuSans-29" transform="translate(780.761719 0)"/>
     </g>
    </g>
   </g>
  </g>
 </g>
 <defs>
  <clipPath id="pafe79f0b75">
   <rect x="46.965625" y="7.2" width="381.17" height="379.24"/>
  </clipPath>
 </defs>
</svg>
