<?xml version="1.0" encoding="utf-8" standalone="no"?>
<!DOCTYPE svg PUBLIC "-//W3C//DTD SVG 1.1//EN"
  "http://www.w3.org/Graphics/SVG/1.1/DTD/svg11.dtd">
<svg xmlns:xlink="http://www.w3.org/1999/xlink" width="712.24125pt" height="496.474375pt" viewBox="0 0 712.24125 496.474375" xmlns="http://www.w3.org/2000/svg" version="1.1">
 <metadata>
  <rdf:RDF xmlns:dc="http://purl.org/dc/elements/1.1/" xmlns:cc="http://creativecommons.org/ns#" xmlns:rdf="http://www.w3.org/1999/02/22-rdf-syntax-ns#">
   <cc:Work>
    <dc:type rdf:resource="http://purl.org/dc/dcmitype/StillImage"/>
    <dc:date>2026-03-20T12:53:36.622606</dc:date>
    <dc:format>image/svg+xml</dc:format>
    <dc:creator>
     <cc:Agent>
      <dc:title>Matplotlib v3.10.6, https://matplotlib.org/</dc:title>
     </cc:Agent>
    </dc:creator>
   </cc:Work>
  </rdf:RDF>
 </metadata>
 <defs>
  <style type="text/css">*{stroke-linejoin: round; stroke-linecap: butt}</style>
 </defs>
 <g id="figure_1">
  <g id="patch_1">
   <path d="M 0 496.474375 
L 712.24125 496.474375 
L 712.24125 0 
L 0 0 
z
" style="fill: #ffffff"/>
  </g>
  <g id="axes_1">
   <g id="patch_2">
    <path d="M 40.603125 458.918125 
L 572.163125 458.918125 
L 572.163125 22.318125 
L 40.603125 22.318125 
z
" style="fill: #ffffff"/>
   </g>
   <g id="matplotlib.axis_1">
    <g id="xtick_1">
     <g id="line2d_1">
      <path d="M 64.764943 458.918125 
L 64.764943 22.318125 
" clip-path="url(#p5d03f895ee)" style="fill: none; stroke-dasharray: 2.96,1.28; stroke-dashoffset: 0; stroke: #b0b0b0; stroke-opacity: 0.6; stroke-width: 0.8"/>
     </g>
     <g id="line2d_2">
      <defs>
       <path id="md80a156175" d="M 0 0 
L 0 3.5 
" style="stroke: #000000; stroke-width: 0.8"/>
      </defs>
      <g>
       <use xlink:href="#md80a156175" x="64.764943" y="458.918125" style="stroke: #000000; stroke-width: 0.8"/>
      </g>
     </g>
     <g id="text_1">
      <!-- 0 -->
      <g transform="translate(61.583693 473.516563) scale(0.1 -0.1)">
       <defs>
        <path id="DejaVuSans-30" d="M 2034 4250 
Q 1547 4250 1301 3770 
Q 1056 3291 1056 2328 
Q 1056 1369 1301 889 
Q 1547 409 2034 409 
Q 2525 409 2770 889 
Q 3016 1369 3016 2328 
Q 3016 3291 2770 3770 
Q 2525 4250 2034 4250 
z
M 2034 4750 
Q 2819 4750 3233 4129 
Q 3647 3509 3647 2328 
Q 3647 1150 3233 529 
Q 2819 -91 2034 -91 
Q 1250 -91 836 529 
Q 422 1150 422 2328 
Q 422 3509 836 4129 
Q 1250 4750 2034 4750 
z
" transform="scale(0.015625)"/>
       </defs>
       <use xlink:href="#DejaVuSans-30"/>
      </g>
     </g>
    </g>
    <g id="xtick_2">
     <g id="line2d_3">
      <path d="M 145.311049 458.918125 
L 145.311049 22.318125 
" clip-path="url(#p5d03f895ee)" style="fill: none; stroke-dasharray: 2.96,1.28; stroke-dashoffset: 0; stroke: #b0b0b0; stroke-opacity: 0.6; stroke-width: 0.8"/>
     </g>
     <g id="line2d_4">
      <g>
       <use xlink:href="#md80a156175" x="145.311049" y="458.918125" style="stroke: #000000; stroke-width: 0.8"/>
      </g>
     </g>
     <g id="text_2">
      <!-- 2000 -->
      <g transform="translate(132.586049 473.516563) scale(0.1 -0.1)">
       <defs>
        <path id="DejaVuSans-32" d="M 1228 531 
L 3431 531 
L 3431 0 
L 469 0 
L 469 531 
Q 828 903 1448 1529 
Q 2069 2156 2228 2338 
Q 2531 2678 2651 2914 
Q 2772 3150 2772 3378 
Q 2772 3750 2511 3984 
Q 2250 4219 1831 4219 
Q 1534 4219 1204 4116 
Q 875 4013 500 3803 
L 500 4441 
Q 881 4594 1212 4672 
Q 1544 4750 1819 4750 
Q 2544 4750 2975 4387 
Q 3406 4025 3406 3419 
Q 3406 3131 3298 2873 
Q 3191 2616 2906 2266 
Q 2828 2175 2409 1742 
Q 1991 1309 1228 531 
z
" transform="scale(0.015625)"/>
       </defs>
       <use xlink:href="#DejaVuSans-32"/>
       <use xlink:href="#DejaVuSans-30" transform="translate(63.623047 0)"/>
       <use xlink:href="#DejaVuSans-30" transform="translate(127.246094 0)"/>
       <use xlink:href="#DejaVuSans-30" transform="translate(190.869141 0)"/>
      </g>
     </g>
    </g>
    <g id="xtick_3">
     <g id="line2d_5">
      <path d="M 225.857155 458.918125 
L 225.857155 22.318125 
" clip-path="url(#p5d03f895ee)" style="fill: none; stroke-dasharray: 2.96,1.28; stroke-dashoffset: 0; stroke: #b0b0b0; stroke-opacity: 0.6; stroke-width: 0.8"/>
     </g>
     <g id="line2d_6">
      <g>
       <use xlink:href="#md80a156175" x="225.857155" y="458.918125" style="stroke: #000000; stroke-width: 0.8"/>
      </g>
     </g>
     <g id="text_3">
      <!-- 4000 -->
      <g transform="translate(213.132155 473.516563) scale(0.1 -0.1)">
       <defs>
        <path id="DejaVuSans-34" d="M 2419 4116 
L 825 1625 
L 2419 1625 
L 2419 4116 
z
M 2253 4666 
L 3047 4666 
L 3047 1625 
L 3713 1625 
L 3713 1100 
L 3047 1100 
L 3047 0 
L 2419 0 
L 2419 1100 
L 313 1100 
L 313 1709 
L 2253 4666 
z
" transform="scale(0.015625)"/>
       </defs>
       <use xlink:href="#DejaVuSans-34"/>
       <use xlink:href="#DejaVuSans-30" transform="translate(63.623047 0)"/>
       <use xlink:href="#DejaVuSans-30" transform="translate(127.246094 0)"/>
       <use xlink:href="#DejaVuSans-30" transform="translate(190.869141 0)"/>
      </g>
     </g>
    </g>
    <g id="xtick_4">
     <g id="line2d_7">
      <path d="M 306.403262 458.918125 
L 306.403262 22.318125 
" clip-path="url(#p5d03f895ee)" style="fill: none; stroke-dasharray: 2.96,1.28; stroke-dashoffset: 0; stroke: #b0b0b0; stroke-opacity: 0.6; stroke-width: 0.8"/>
     </g>
     <g id="line2d_8">
      <g>
       <use xlink:href="#md80a156175" x="306.403262" y="458.918125" style="stroke: #000000; stroke-width: 0.8"/>
      </g>
     </g>
     <g id="text_4">
      <!-- 6000 -->
      <g transform="translate(293.678262 473.516563) scale(0.1 -0.1)">
       <defs>
        <path id="DejaVuSans-36" d="M 2113 2584 
Q 1688 2584 1439 2293 
Q 1191 2003 1191 1497 
Q 1191 994 1439 701 
Q 1688 409 2113 409 
Q 2538 409 2786 701 
Q 3034 994 3034 1497 
Q 3034 2003 2786 2293 
Q 2538 2584 2113 2584 
z
M 3366 4563 
L 3366 3988 
Q 3128 4100 2886 4159 
Q 2644 4219 2406 4219 
Q 1781 4219 1451 3797 
Q 1122 3375 1075 2522 
Q 1259 2794 1537 2939 
Q 1816 3084 2150 3084 
Q 2853 3084 3261 2657 
Q 3669 2231 3669 1497 
Q 3669 778 3244 343 
Q 2819 -91 2113 -91 
Q 1303 -91 875 529 
Q 447 1150 447 2328 
Q 447 3434 972 4092 
Q 1497 4750 2381 4750 
Q 2619 4750 2861 4703 
Q 3103 4656 3366 4563 
z
" transform="scale(0.015625)"/>
       </defs>
       <use xlink:href="#DejaVuSans-36"/>
       <use xlink:href="#DejaVuSans-30" transform="translate(63.623047 0)"/>
       <use xlink:href="#DejaVuSans-30" transform="translate(127.246094 0)"/>
       <use xlink:href="#DejaVuSans-30" transform="translate(190.869141 0)"/>
      </g>
     </g>
    </g>
    <g id="xtick_5">
     <g id="line2d_9">
      <path d="M 386.949368 458.918125 
L 386.949368 22.318125 
" clip-path="url(#p5d03f895ee)" style="fill: none; stroke-dasharray: 2.96,1.28; stroke-dashoffset: 0; stroke: #b0b0b0; stroke-opacity: 0.6; stroke-width: 0.8"/>
     </g>
     <g id="line2d_10">
      <g>
       <use xlink:href="#md80a156175" x="386.949368" y="458.918125" style="stroke: #000000; stroke-width: 0.8"/>
      </g>
     </g>
     <g id="text_5">
      <!-- 8000 -->
      <g transform="translate(374.224368 473.516563) scale(0.1 -0.1)">
       <defs>
        <path id="DejaVuSans-38" d="M 2034 2216 
Q 1584 2216 1326 1975 
Q 1069 1734 1069 1313 
Q 1069 891 1326 650 
Q 1584 409 2034 409 
Q 2484 409 2743 651 
Q 3003 894 3003 1313 
Q 3003 1734 2745 1975 
Q 2488 2216 2034 2216 
z
M 1403 2484 
Q 997 2584 770 2862 
Q 544 3141 544 3541 
Q 544 4100 942 4425 
Q 1341 4750 2034 4750 
Q 2731 4750 3128 4425 
Q 3525 4100 3525 3541 
Q 3525 3141 3298 2862 
Q 3072 2584 2669 2484 
Q 3125 2378 3379 2068 
Q 3634 1759 3634 1313 
Q 3634 634 3220 271 
Q 2806 -91 2034 -91 
Q 1263 -91 848 271 
Q 434 634 434 1313 
Q 434 1759 690 2068 
Q 947 2378 1403 2484 
z
M 1172 3481 
Q 1172 3119 1398 2916 
Q 1625 2713 2034 2713 
Q 2441 2713 2670 2916 
Q 2900 3119 2900 3481 
Q 2900 3844 2670 4047 
Q 2441 4250 2034 4250 
Q 1625 4250 1398 4047 
Q 1172 3844 1172 3481 
z
" transform="scale(0.015625)"/>
       </defs>
       <use xlink:href="#DejaVuSans-38"/>
       <use xlink:href="#DejaVuSans-30" transform="translate(63.623047 0)"/>
       <use xlink:href="#DejaVuSans-30" transform="translate(127.246094 0)"/>
       <use xlink:href="#DejaVuSans-30" transform="translate(190.869141 0)"/>
      </g>
     </g>
    </g>
    <g id="xtick_6">
     <g id="line2d_11">
      <path d="M 467.495474 458.918125 
L 467.495474 22.318125 
" clip-path="url(#p5d03f895ee)" style="fill: none; stroke-dasharray: 2.96,1.28; stroke-dashoffset: 0; stroke: #b0b0b0; stroke-opacity: 0.6; stroke-width: 0.8"/>
     </g>
     <g id="line2d_12">
      <g>
       <use xlink:href="#md80a156175" x="467.495474" y="458.918125" style="stroke: #000000; stroke-width: 0.8"/>
      </g>
     </g>
     <g id="text_6">
      <!-- 10000 -->
      <g transform="translate(451.589224 473.516563) scale(0.1 -0.1)">
       <defs>
        <path id="DejaVuSans-31" d="M 794 531 
L 1825 531 
L 1825 4091 
L 703 3866 
L 703 4441 
L 1819 4666 
L 2450 4666 
L 2450 531 
L 3481 531 
L 3481 0 
L 794 0 
L 794 531 
z
" transform="scale(0.015625)"/>
       </defs>
       <use xlink:href="#DejaVuSans-31"/>
       <use xlink:href="#DejaVuSans-30" transform="translate(63.623047 0)"/>
       <use xlink:href="#DejaVuSans-30" transform="translate(127.246094 0)"/>
       <use xlink:href="#DejaVuSans-30" transform="translate(190.869141 0)"/>
       <use xlink:href="#DejaVuSans-30" transform="translate(254.492188 0)"/>
      </g>
     </g>
    </g>
    <g id="xtick_7">
     <g id="line2d_13">
      <path d="M 548.04158 458.918125 
L 548.04158 22.318125 
" clip-path="url(#p5d03f895ee)" style="fill: none; stroke-dasharray: 2.96,1.28; stroke-dashoffset: 0; stroke: #b0b0b0; stroke-opacity: 0.6; stroke-width: 0.8"/>
     </g>
     <g id="line2d_14">
      <g>
       <use xlink:href="#md80a156175" x="548.04158" y="458.918125" style="stroke: #000000; stroke-width: 0.8"/>
      </g>
     </g>
     <g id="text_7">
      <!-- 12000 -->
      <g transform="translate(532.13533 473.516563) scale(0.1 -0.1)">
       <use xlink:href="#DejaVuSans-31"/>
       <use xlink:href="#DejaVuSans-32" transform="translate(63.623047 0)"/>
       <use xlink:href="#DejaVuSans-30" transform="translate(127.246094 0)"/>
       <use xlink:href="#DejaVuSans-30" transform="translate(190.869141 0)"/>
       <use xlink:href="#DejaVuSans-30" transform="translate(254.492188 0)"/>
      </g>
     </g>
    </g>
    <g id="text_8">
     <!-- Distance from Terminus [nt] -->
     <g transform="translate(236.640156 487.194687) scale(0.1 -0.1)">
      <defs>
       <path id="DejaVuSans-44" d="M 1259 4147 
L 1259 519 
L 2022 519 
Q 2988 519 3436 956 
Q 3884 1394 3884 2338 
Q 3884 3275 3436 3711 
Q 2988 4147 2022 4147 
L 1259 4147 
z
M 628 4666 
L 1925 4666 
Q 3281 4666 3915 4102 
Q 4550 3538 4550 2338 
Q 4550 1131 3912 565 
Q 3275 0 1925 0 
L 628 0 
L 628 4666 
z
" transform="scale(0.015625)"/>
       <path id="DejaVuSans-69" d="M 603 3500 
L 1178 3500 
L 1178 0 
L 603 0 
L 603 3500 
z
M 603 4863 
L 1178 4863 
L 1178 4134 
L 603 4134 
L 603 4863 
z
" transform="scale(0.015625)"/>
       <path id="DejaVuSans-73" d="M 2834 3397 
L 2834 2853 
Q 2591 2978 2328 3040 
Q 2066 3103 1784 3103 
Q 1356 3103 1142 2972 
Q 928 2841 928 2578 
Q 928 2378 1081 2264 
Q 1234 2150 1697 2047 
L 1894 2003 
Q 2506 1872 2764 1633 
Q 3022 1394 3022 966 
Q 3022 478 2636 193 
Q 2250 -91 1575 -91 
Q 1294 -91 989 -36 
Q 684 19 347 128 
L 347 722 
Q 666 556 975 473 
Q 1284 391 1588 391 
Q 1994 391 2212 530 
Q 2431 669 2431 922 
Q 2431 1156 2273 1281 
Q 2116 1406 1581 1522 
L 1381 1569 
Q 847 1681 609 1914 
Q 372 2147 372 2553 
Q 372 3047 722 3315 
Q 1072 3584 1716 3584 
Q 2034 3584 2315 3537 
Q 2597 3491 2834 3397 
z
" transform="scale(0.015625)"/>
       <path id="DejaVuSans-74" d="M 1172 4494 
L 1172 3500 
L 2356 3500 
L 2356 3053 
L 1172 3053 
L 1172 1153 
Q 1172 725 1289 603 
Q 1406 481 1766 481 
L 2356 481 
L 2356 0 
L 1766 0 
Q 1100 0 847 248 
Q 594 497 594 1153 
L 594 3053 
L 172 3053 
L 172 3500 
L 594 3500 
L 594 4494 
L 1172 4494 
z
" transform="scale(0.015625)"/>
       <path id="DejaVuSans-61" d="M 2194 1759 
Q 1497 1759 1228 1600 
Q 959 1441 959 1056 
Q 959 750 1161 570 
Q 1363 391 1709 391 
Q 2188 391 2477 730 
Q 2766 1069 2766 1631 
L 2766 1759 
L 2194 1759 
z
M 3341 1997 
L 3341 0 
L 2766 0 
L 2766 531 
Q 2569 213 2275 61 
Q 1981 -91 1556 -91 
Q 1019 -91 701 211 
Q 384 513 384 1019 
Q 384 1609 779 1909 
Q 1175 2209 1959 2209 
L 2766 2209 
L 2766 2266 
Q 2766 2663 2505 2880 
Q 2244 3097 1772 3097 
Q 1472 3097 1187 3025 
Q 903 2953 641 2809 
L 641 3341 
Q 956 3463 1253 3523 
Q 1550 3584 1831 3584 
Q 2591 3584 2966 3190 
Q 3341 2797 3341 1997 
z
" transform="scale(0.015625)"/>
       <path id="DejaVuSans-6e" d="M 3513 2113 
L 3513 0 
L 2938 0 
L 2938 2094 
Q 2938 2591 2744 2837 
Q 2550 3084 2163 3084 
Q 1697 3084 1428 2787 
Q 1159 2491 1159 1978 
L 1159 0 
L 581 0 
L 581 3500 
L 1159 3500 
L 1159 2956 
Q 1366 3272 1645 3428 
Q 1925 3584 2291 3584 
Q 2894 3584 3203 3211 
Q 3513 2838 3513 2113 
z
" transform="scale(0.015625)"/>
       <path id="DejaVuSans-63" d="M 3122 3366 
L 3122 2828 
Q 2878 2963 2633 3030 
Q 2388 3097 2138 3097 
Q 1578 3097 1268 2742 
Q 959 2388 959 1747 
Q 959 1106 1268 751 
Q 1578 397 2138 397 
Q 2388 397 2633 464 
Q 2878 531 3122 666 
L 3122 134 
Q 2881 22 2623 -34 
Q 2366 -91 2075 -91 
Q 1284 -91 818 406 
Q 353 903 353 1747 
Q 353 2603 823 3093 
Q 1294 3584 2113 3584 
Q 2378 3584 2631 3529 
Q 2884 3475 3122 3366 
z
" transform="scale(0.015625)"/>
       <path id="DejaVuSans-65" d="M 3597 1894 
L 3597 1613 
L 953 1613 
Q 991 1019 1311 708 
Q 1631 397 2203 397 
Q 2534 397 2845 478 
Q 3156 559 3463 722 
L 3463 178 
Q 3153 47 2828 -22 
Q 2503 -91 2169 -91 
Q 1331 -91 842 396 
Q 353 884 353 1716 
Q 353 2575 817 3079 
Q 1281 3584 2069 3584 
Q 2775 3584 3186 3129 
Q 3597 2675 3597 1894 
z
M 3022 2063 
Q 3016 2534 2758 2815 
Q 2500 3097 2075 3097 
Q 1594 3097 1305 2825 
Q 1016 2553 972 2059 
L 3022 2063 
z
" transform="scale(0.015625)"/>
       <path id="DejaVuSans-20" transform="scale(0.015625)"/>
       <path id="DejaVuSans-66" d="M 2375 4863 
L 2375 4384 
L 1825 4384 
Q 1516 4384 1395 4259 
Q 1275 4134 1275 3809 
L 1275 3500 
L 2222 3500 
L 2222 3053 
L 1275 3053 
L 1275 0 
L 697 0 
L 697 3053 
L 147 3053 
L 147 3500 
L 697 3500 
L 697 3744 
Q 697 4328 969 4595 
Q 1241 4863 1831 4863 
L 2375 4863 
z
" transform="scale(0.015625)"/>
       <path id="DejaVuSans-72" d="M 2631 2963 
Q 2534 3019 2420 3045 
Q 2306 3072 2169 3072 
Q 1681 3072 1420 2755 
Q 1159 2438 1159 1844 
L 1159 0 
L 581 0 
L 581 3500 
L 1159 3500 
L 1159 2956 
Q 1341 3275 1631 3429 
Q 1922 3584 2338 3584 
Q 2397 3584 2469 3576 
Q 2541 3569 2628 3553 
L 2631 2963 
z
" transform="scale(0.015625)"/>
       <path id="DejaVuSans-6f" d="M 1959 3097 
Q 1497 3097 1228 2736 
Q 959 2375 959 1747 
Q 959 1119 1226 758 
Q 1494 397 1959 397 
Q 2419 397 2687 759 
Q 2956 1122 2956 1747 
Q 2956 2369 2687 2733 
Q 2419 3097 1959 3097 
z
M 1959 3584 
Q 2709 3584 3137 3096 
Q 3566 2609 3566 1747 
Q 3566 888 3137 398 
Q 2709 -91 1959 -91 
Q 1206 -91 779 398 
Q 353 888 353 1747 
Q 353 2609 779 3096 
Q 1206 3584 1959 3584 
z
" transform="scale(0.015625)"/>
       <path id="DejaVuSans-6d" d="M 3328 2828 
Q 3544 3216 3844 3400 
Q 4144 3584 4550 3584 
Q 5097 3584 5394 3201 
Q 5691 2819 5691 2113 
L 5691 0 
L 5113 0 
L 5113 2094 
Q 5113 2597 4934 2840 
Q 4756 3084 4391 3084 
Q 3944 3084 3684 2787 
Q 3425 2491 3425 1978 
L 3425 0 
L 2847 0 
L 2847 2094 
Q 2847 2600 2669 2842 
Q 2491 3084 2119 3084 
Q 1678 3084 1418 2786 
Q 1159 2488 1159 1978 
L 1159 0 
L 581 0 
L 581 3500 
L 1159 3500 
L 1159 2956 
Q 1356 3278 1631 3431 
Q 1906 3584 2284 3584 
Q 2666 3584 2933 3390 
Q 3200 3197 3328 2828 
z
" transform="scale(0.015625)"/>
       <path id="DejaVuSans-54" d="M -19 4666 
L 3928 4666 
L 3928 4134 
L 2272 4134 
L 2272 0 
L 1638 0 
L 1638 4134 
L -19 4134 
L -19 4666 
z
" transform="scale(0.015625)"/>
       <path id="DejaVuSans-75" d="M 544 1381 
L 544 3500 
L 1119 3500 
L 1119 1403 
Q 1119 906 1312 657 
Q 1506 409 1894 409 
Q 2359 409 2629 706 
Q 2900 1003 2900 1516 
L 2900 3500 
L 3475 3500 
L 3475 0 
L 2900 0 
L 2900 538 
Q 2691 219 2414 64 
Q 2138 -91 1772 -91 
Q 1169 -91 856 284 
Q 544 659 544 1381 
z
M 1991 3584 
L 1991 3584 
z
" transform="scale(0.015625)"/>
       <path id="DejaVuSans-5b" d="M 550 4863 
L 1875 4863 
L 1875 4416 
L 1125 4416 
L 1125 -397 
L 1875 -397 
L 1875 -844 
L 550 -844 
L 550 4863 
z
" transform="scale(0.015625)"/>
       <path id="DejaVuSans-5d" d="M 1947 4863 
L 1947 -844 
L 622 -844 
L 622 -397 
L 1369 -397 
L 1369 4416 
L 622 4416 
L 622 4863 
L 1947 4863 
z
" transform="scale(0.015625)"/>
      </defs>
      <use xlink:href="#DejaVuSans-44"/>
      <use xlink:href="#DejaVuSans-69" transform="translate(77.001953 0)"/>
      <use xlink:href="#DejaVuSans-73" transform="translate(104.785156 0)"/>
      <use xlink:href="#DejaVuSans-74" transform="translate(156.884766 0)"/>
      <use xlink:href="#DejaVuSans-61" transform="translate(196.09375 0)"/>
      <use xlink:href="#DejaVuSans-6e" transform="translate(257.373047 0)"/>
      <use xlink:href="#DejaVuSans-63" transform="translate(320.751953 0)"/>
      <use xlink:href="#DejaVuSans-65" transform="translate(375.732422 0)"/>
      <use xlink:href="#DejaVuSans-20" transform="translate(437.255859 0)"/>
      <use xlink:href="#DejaVuSans-66" transform="translate(469.042969 0)"/>
      <use xlink:href="#DejaVuSans-72" transform="translate(504.248047 0)"/>
      <use xlink:href="#DejaVuSans-6f" transform="translate(543.111328 0)"/>
      <use xlink:href="#DejaVuSans-6d" transform="translate(604.292969 0)"/>
      <use xlink:href="#DejaVuSans-20" transform="translate(701.705078 0)"/>
      <use xlink:href="#DejaVuSans-54" transform="translate(733.492188 0)"/>
      <use xlink:href="#DejaVuSans-65" transform="translate(777.576172 0)"/>
      <use xlink:href="#DejaVuSans-72" transform="translate(839.099609 0)"/>
      <use xlink:href="#DejaVuSans-6d" transform="translate(878.462891 0)"/>
      <use xlink:href="#DejaVuSans-69" transform="translate(975.875 0)"/>
      <use xlink:href="#DejaVuSans-6e" transform="translate(1003.658203 0)"/>
      <use xlink:href="#DejaVuSans-75" transform="translate(1067.037109 0)"/>
      <use xlink:href="#DejaVuSans-73" transform="translate(1130.416016 0)"/>
      <use xlink:href="#DejaVuSans-20" transform="translate(1182.515625 0)"/>
      <use xlink:href="#DejaVuSans-5b" transform="translate(1214.302734 0)"/>
      <use xlink:href="#DejaVuSans-6e" transform="translate(1253.316406 0)"/>
      <use xlink:href="#DejaVuSans-74" transform="translate(1316.695312 0)"/>
      <use xlink:href="#DejaVuSans-5d" transform="translate(1355.904297 0)"/>
     </g>
    </g>
   </g>
   <g id="matplotlib.axis_2">
    <g id="ytick_1">
     <g id="line2d_15">
      <path d="M 40.603125 439.07267 
L 572.163125 439.07267 
" clip-path="url(#p5d03f895ee)" style="fill: none; stroke-dasharray: 2.96,1.28; stroke-dashoffset: 0; stroke: #b0b0b0; stroke-opacity: 0.6; stroke-width: 0.8"/>
     </g>
     <g id="line2d_16">
      <defs>
       <path id="m5fde580783" d="M 0 0 
L -3.5 0 
" style="stroke: #000000; stroke-width: 0.8"/>
      </defs>
      <g>
       <use xlink:href="#m5fde580783" x="40.603125" y="439.07267" style="stroke: #000000; stroke-width: 0.8"/>
      </g>
     </g>
     <g id="text_9">
      <!-- 0 -->
      <g transform="translate(27.240625 442.871889) scale(0.1 -0.1)">
       <use xlink:href="#DejaVuSans-30"/>
      </g>
     </g>
    </g>
    <g id="ytick_2">
     <g id="line2d_17">
      <path d="M 40.603125 381.904694 
L 572.163125 381.904694 
" clip-path="url(#p5d03f895ee)" style="fill: none; stroke-dasharray: 2.96,1.28; stroke-dashoffset: 0; stroke: #b0b0b0; stroke-opacity: 0.6; stroke-width: 0.8"/>
     </g>
     <g id="line2d_18">
      <g>
       <use xlink:href="#m5fde580783" x="40.603125" y="381.904694" style="stroke: #000000; stroke-width: 0.8"/>
      </g>
     </g>
     <g id="text_10">
      <!-- 5 -->
      <g transform="translate(27.240625 385.703913) scale(0.1 -0.1)">
       <defs>
        <path id="DejaVuSans-35" d="M 691 4666 
L 3169 4666 
L 3169 4134 
L 1269 4134 
L 1269 2991 
Q 1406 3038 1543 3061 
Q 1681 3084 1819 3084 
Q 2600 3084 3056 2656 
Q 3513 2228 3513 1497 
Q 3513 744 3044 326 
Q 2575 -91 1722 -91 
Q 1428 -91 1123 -41 
Q 819 9 494 109 
L 494 744 
Q 775 591 1075 516 
Q 1375 441 1709 441 
Q 2250 441 2565 725 
Q 2881 1009 2881 1497 
Q 2881 1984 2565 2268 
Q 2250 2553 1709 2553 
Q 1456 2553 1204 2497 
Q 953 2441 691 2322 
L 691 4666 
z
" transform="scale(0.015625)"/>
       </defs>
       <use xlink:href="#DejaVuSans-35"/>
      </g>
     </g>
    </g>
    <g id="ytick_3">
     <g id="line2d_19">
      <path d="M 40.603125 324.736718 
L 572.163125 324.736718 
" clip-path="url(#p5d03f895ee)" style="fill: none; stroke-dasharray: 2.96,1.28; stroke-dashoffset: 0; stroke: #b0b0b0; stroke-opacity: 0.6; stroke-width: 0.8"/>
     </g>
     <g id="line2d_20">
      <g>
       <use xlink:href="#m5fde580783" x="40.603125" y="324.736718" style="stroke: #000000; stroke-width: 0.8"/>
      </g>
     </g>
     <g id="text_11">
      <!-- 10 -->
      <g transform="translate(20.878125 328.535937) scale(0.1 -0.1)">
       <use xlink:href="#DejaVuSans-31"/>
       <use xlink:href="#DejaVuSans-30" transform="translate(63.623047 0)"/>
      </g>
     </g>
    </g>
    <g id="ytick_4">
     <g id="line2d_21">
      <path d="M 40.603125 267.568742 
L 572.163125 267.568742 
" clip-path="url(#p5d03f895ee)" style="fill: none; stroke-dasharray: 2.96,1.28; stroke-dashoffset: 0; stroke: #b0b0b0; stroke-opacity: 0.6; stroke-width: 0.8"/>
     </g>
     <g id="line2d_22">
      <g>
       <use xlink:href="#m5fde580783" x="40.603125" y="267.568742" style="stroke: #000000; stroke-width: 0.8"/>
      </g>
     </g>
     <g id="text_12">
      <!-- 15 -->
      <g transform="translate(20.878125 271.367961) scale(0.1 -0.1)">
       <use xlink:href="#DejaVuSans-31"/>
       <use xlink:href="#DejaVuSans-35" transform="translate(63.623047 0)"/>
      </g>
     </g>
    </g>
    <g id="ytick_5">
     <g id="line2d_23">
      <path d="M 40.603125 210.400766 
L 572.163125 210.400766 
" clip-path="url(#p5d03f895ee)" style="fill: none; stroke-dasharray: 2.96,1.28; stroke-dashoffset: 0; stroke: #b0b0b0; stroke-opacity: 0.6; stroke-width: 0.8"/>
     </g>
     <g id="line2d_24">
      <g>
       <use xlink:href="#m5fde580783" x="40.603125" y="210.400766" style="stroke: #000000; stroke-width: 0.8"/>
      </g>
     </g>
     <g id="text_13">
      <!-- 20 -->
      <g transform="translate(20.878125 214.199985) scale(0.1 -0.1)">
       <use xlink:href="#DejaVuSans-32"/>
       <use xlink:href="#DejaVuSans-30" transform="translate(63.623047 0)"/>
      </g>
     </g>
    </g>
    <g id="ytick_6">
     <g id="line2d_25">
      <path d="M 40.603125 153.23279 
L 572.163125 153.23279 
" clip-path="url(#p5d03f895ee)" style="fill: none; stroke-dasharray: 2.96,1.28; stroke-dashoffset: 0; stroke: #b0b0b0; stroke-opacity: 0.6; stroke-width: 0.8"/>
     </g>
     <g id="line2d_26">
      <g>
       <use xlink:href="#m5fde580783" x="40.603125" y="153.23279" style="stroke: #000000; stroke-width: 0.8"/>
      </g>
     </g>
     <g id="text_14">
      <!-- 25 -->
      <g transform="translate(20.878125 157.032009) scale(0.1 -0.1)">
       <use xlink:href="#DejaVuSans-32"/>
       <use xlink:href="#DejaVuSans-35" transform="translate(63.623047 0)"/>
      </g>
     </g>
    </g>
    <g id="ytick_7">
     <g id="line2d_27">
      <path d="M 40.603125 96.064814 
L 572.163125 96.064814 
" clip-path="url(#p5d03f895ee)" style="fill: none; stroke-dasharray: 2.96,1.28; stroke-dashoffset: 0; stroke: #b0b0b0; stroke-opacity: 0.6; stroke-width: 0.8"/>
     </g>
     <g id="line2d_28">
      <g>
       <use xlink:href="#m5fde580783" x="40.603125" y="96.064814" style="stroke: #000000; stroke-width: 0.8"/>
      </g>
     </g>
     <g id="text_15">
      <!-- 30 -->
      <g transform="translate(20.878125 99.864033) scale(0.1 -0.1)">
       <defs>
        <path id="DejaVuSans-33" d="M 2597 2516 
Q 3050 2419 3304 2112 
Q 3559 1806 3559 1356 
Q 3559 666 3084 287 
Q 2609 -91 1734 -91 
Q 1441 -91 1130 -33 
Q 819 25 488 141 
L 488 750 
Q 750 597 1062 519 
Q 1375 441 1716 441 
Q 2309 441 2620 675 
Q 2931 909 2931 1356 
Q 2931 1769 2642 2001 
Q 2353 2234 1838 2234 
L 1294 2234 
L 1294 2753 
L 1863 2753 
Q 2328 2753 2575 2939 
Q 2822 3125 2822 3475 
Q 2822 3834 2567 4026 
Q 2313 4219 1838 4219 
Q 1578 4219 1281 4162 
Q 984 4106 628 3988 
L 628 4550 
Q 988 4650 1302 4700 
Q 1616 4750 1894 4750 
Q 2613 4750 3031 4423 
Q 3450 4097 3450 3541 
Q 3450 3153 3228 2886 
Q 3006 2619 2597 2516 
z
" transform="scale(0.015625)"/>
       </defs>
       <use xlink:href="#DejaVuSans-33"/>
       <use xlink:href="#DejaVuSans-30" transform="translate(63.623047 0)"/>
      </g>
     </g>
    </g>
    <g id="ytick_8">
     <g id="line2d_29">
      <path d="M 40.603125 38.896838 
L 572.163125 38.896838 
" clip-path="url(#p5d03f895ee)" style="fill: none; stroke-dasharray: 2.96,1.28; stroke-dashoffset: 0; stroke: #b0b0b0; stroke-opacity: 0.6; stroke-width: 0.8"/>
     </g>
     <g id="line2d_30">
      <g>
       <use xlink:href="#m5fde580783" x="40.603125" y="38.896838" style="stroke: #000000; stroke-width: 0.8"/>
      </g>
     </g>
     <g id="text_16">
      <!-- 35 -->
      <g transform="translate(20.878125 42.696057) scale(0.1 -0.1)">
       <use xlink:href="#DejaVuSans-33"/>
       <use xlink:href="#DejaVuSans-35" transform="translate(63.623047 0)"/>
      </g>
     </g>
    </g>
    <g id="text_17">
     <!-- Average Cumulative Count -->
     <g transform="translate(14.798438 307.715) rotate(-90) scale(0.1 -0.1)">
      <defs>
       <path id="DejaVuSans-41" d="M 2188 4044 
L 1331 1722 
L 3047 1722 
L 2188 4044 
z
M 1831 4666 
L 2547 4666 
L 4325 0 
L 3669 0 
L 3244 1197 
L 1141 1197 
L 716 0 
L 50 0 
L 1831 4666 
z
" transform="scale(0.015625)"/>
       <path id="DejaVuSans-76" d="M 191 3500 
L 800 3500 
L 1894 563 
L 2988 3500 
L 3597 3500 
L 2284 0 
L 1503 0 
L 191 3500 
z
" transform="scale(0.015625)"/>
       <path id="DejaVuSans-67" d="M 2906 1791 
Q 2906 2416 2648 2759 
Q 2391 3103 1925 3103 
Q 1463 3103 1205 2759 
Q 947 2416 947 1791 
Q 947 1169 1205 825 
Q 1463 481 1925 481 
Q 2391 481 2648 825 
Q 2906 1169 2906 1791 
z
M 3481 434 
Q 3481 -459 3084 -895 
Q 2688 -1331 1869 -1331 
Q 1566 -1331 1297 -1286 
Q 1028 -1241 775 -1147 
L 775 -588 
Q 1028 -725 1275 -790 
Q 1522 -856 1778 -856 
Q 2344 -856 2625 -561 
Q 2906 -266 2906 331 
L 2906 616 
Q 2728 306 2450 153 
Q 2172 0 1784 0 
Q 1141 0 747 490 
Q 353 981 353 1791 
Q 353 2603 747 3093 
Q 1141 3584 1784 3584 
Q 2172 3584 2450 3431 
Q 2728 3278 2906 2969 
L 2906 3500 
L 3481 3500 
L 3481 434 
z
" transform="scale(0.015625)"/>
       <path id="DejaVuSans-43" d="M 4122 4306 
L 4122 3641 
Q 3803 3938 3442 4084 
Q 3081 4231 2675 4231 
Q 1875 4231 1450 3742 
Q 1025 3253 1025 2328 
Q 1025 1406 1450 917 
Q 1875 428 2675 428 
Q 3081 428 3442 575 
Q 3803 722 4122 1019 
L 4122 359 
Q 3791 134 3420 21 
Q 3050 -91 2638 -91 
Q 1578 -91 968 557 
Q 359 1206 359 2328 
Q 359 3453 968 4101 
Q 1578 4750 2638 4750 
Q 3056 4750 3426 4639 
Q 3797 4528 4122 4306 
z
" transform="scale(0.015625)"/>
       <path id="DejaVuSans-6c" d="M 603 4863 
L 1178 4863 
L 1178 0 
L 603 0 
L 603 4863 
z
" transform="scale(0.015625)"/>
      </defs>
      <use xlink:href="#DejaVuSans-41"/>
      <use xlink:href="#DejaVuSans-76" transform="translate(62.533203 0)"/>
      <use xlink:href="#DejaVuSans-65" transform="translate(121.712891 0)"/>
      <use xlink:href="#DejaVuSans-72" transform="translate(183.236328 0)"/>
      <use xlink:href="#DejaVuSans-61" transform="translate(224.349609 0)"/>
      <use xlink:href="#DejaVuSans-67" transform="translate(285.628906 0)"/>
      <use xlink:href="#DejaVuSans-65" transform="translate(349.105469 0)"/>
      <use xlink:href="#DejaVuSans-20" transform="translate(410.628906 0)"/>
      <use xlink:href="#DejaVuSans-43" transform="translate(442.416016 0)"/>
      <use xlink:href="#DejaVuSans-75" transform="translate(512.240234 0)"/>
      <use xlink:href="#DejaVuSans-6d" transform="translate(575.619141 0)"/>
      <use xlink:href="#DejaVuSans-75" transform="translate(673.03125 0)"/>
      <use xlink:href="#DejaVuSans-6c" transform="translate(736.410156 0)"/>
      <use xlink:href="#DejaVuSans-61" transform="translate(764.193359 0)"/>
      <use xlink:href="#DejaVuSans-74" transform="translate(825.472656 0)"/>
      <use xlink:href="#DejaVuSans-69" transform="translate(864.681641 0)"/>
      <use xlink:href="#DejaVuSans-76" transform="translate(892.464844 0)"/>
      <use xlink:href="#DejaVuSans-65" transform="translate(951.644531 0)"/>
      <use xlink:href="#DejaVuSans-20" transform="translate(1013.167969 0)"/>
      <use xlink:href="#DejaVuSans-43" transform="translate(1044.955078 0)"/>
      <use xlink:href="#DejaVuSans-6f" transform="translate(1114.779297 0)"/>
      <use xlink:href="#DejaVuSans-75" transform="translate(1175.960938 0)"/>
      <use xlink:href="#DejaVuSans-6e" transform="translate(1239.339844 0)"/>
      <use xlink:href="#DejaVuSans-74" transform="translate(1302.71875 0)"/>
     </g>
    </g>
   </g>
   <g id="line2d_31">
    <path d="M 64.764943 439.07267 
L 171.770445 439.07267 
L 171.891264 427.639075 
L 186.268744 427.639075 
L 186.389563 416.20548 
L 266.532939 416.20548 
L 266.653758 404.771885 
L 548.001307 404.771885 
L 548.001307 404.771885 
" clip-path="url(#p5d03f895ee)" style="fill: none; stroke: #006ba4; stroke-width: 2; stroke-linecap: square"/>
   </g>
   <g id="line2d_32">
    <path d="M 64.764943 439.07267 
L 171.810718 439.07267 
L 171.931537 427.639075 
L 186.309017 427.639075 
L 186.429836 416.20548 
L 248.087881 416.20548 
L 248.2087 404.771885 
L 266.573212 404.771885 
L 266.694031 393.33829 
L 288.280388 393.33829 
L 288.401207 381.904694 
L 291.582778 381.904694 
L 291.703597 370.471099 
L 548.001307 370.471099 
L 548.001307 370.471099 
" clip-path="url(#p5d03f895ee)" style="fill: none; stroke: #ff800e; stroke-width: 2; stroke-linecap: square"/>
   </g>
   <g id="line2d_33">
    <path d="M 64.764943 439.07267 
L 81.679625 439.07267 
L 81.800445 437.4393 
L 260.773892 437.4393 
L 260.894712 435.805929 
L 499.10982 435.805929 
L 499.23064 434.172558 
L 499.713916 434.172558 
L 499.834735 432.539187 
L 499.995828 432.539187 
L 500.116647 430.905817 
L 500.640196 430.905817 
L 500.761016 429.272446 
L 501.526204 429.272446 
L 501.647023 427.639075 
L 502.653849 427.639075 
L 502.774668 426.005704 
L 525.045667 426.005704 
L 525.166486 424.372334 
L 528.025873 424.372334 
L 528.146692 422.738963 
L 531.489355 422.738963 
L 531.650447 419.472222 
L 532.979458 419.472222 
L 533.100277 417.838851 
L 535.838845 417.838851 
L 535.959664 416.20548 
L 536.402668 416.20548 
L 536.523487 414.572109 
L 540.067515 414.572109 
L 540.188335 412.938739 
L 542.604718 412.938739 
L 542.725537 411.305368 
L 548.001307 411.305368 
L 548.001307 411.305368 
" clip-path="url(#p5d03f895ee)" style="fill: none; stroke-dasharray: 7.4,3.2; stroke-dashoffset: 0; stroke: #006ba4; stroke-width: 2"/>
   </g>
   <g id="line2d_34">
    <path d="M 64.764943 439.07267 
L 81.679625 439.07267 
L 81.800445 437.4393 
L 83.129455 437.4393 
L 83.250275 435.805929 
L 89.935601 435.805929 
L 90.056421 434.172558 
L 124.369062 434.172558 
L 124.489881 432.539187 
L 133.913775 432.539187 
L 134.034594 430.905817 
L 183.127446 430.905817 
L 183.248265 429.272446 
L 184.818914 429.272446 
L 184.939734 427.639075 
L 255.618942 427.639075 
L 255.739761 426.005704 
L 260.773892 426.005704 
L 260.894712 424.372334 
L 263.069456 424.372334 
L 263.190276 422.738963 
L 269.71451 422.738963 
L 269.835329 421.105592 
L 295.287899 421.105592 
L 295.408718 419.472222 
L 314.135688 419.472222 
L 314.256507 417.838851 
L 332.057196 417.838851 
L 332.178015 416.20548 
L 333.547299 416.20548 
L 333.668118 414.572109 
L 382.720697 414.572109 
L 382.841516 412.938739 
L 438.941879 412.938739 
L 439.062698 411.305368 
L 443.412188 411.305368 
L 443.533007 409.671997 
L 444.016284 409.671997 
L 444.137103 408.038626 
L 445.184202 408.038626 
L 445.305022 406.405256 
L 446.432667 406.405256 
L 446.553486 404.771885 
L 447.358947 404.771885 
L 447.479766 403.138514 
L 448.406047 403.138514 
L 448.526866 401.505143 
L 449.77533 401.505143 
L 449.936423 398.238402 
L 450.016969 398.238402 
L 450.137788 396.605031 
L 450.258607 396.605031 
L 450.419699 393.33829 
L 450.540518 393.33829 
L 450.701611 390.071548 
L 450.782157 390.071548 
L 450.902976 388.438177 
L 451.023795 388.438177 
L 451.144614 386.804807 
L 451.305706 386.804807 
L 451.426526 385.171436 
L 452.715263 385.171436 
L 452.836082 383.538065 
L 452.956902 383.538065 
L 453.077721 381.904694 
L 453.19854 381.904694 
L 453.319359 380.271324 
L 454.044274 380.271324 
L 454.165093 378.637953 
L 454.285912 378.637953 
L 454.406732 377.004582 
L 454.809462 377.004582 
L 454.930281 375.371211 
L 455.091373 375.371211 
L 455.252466 372.10447 
L 455.373285 372.10447 
L 455.494104 370.471099 
L 456.863388 370.471099 
L 456.984207 368.837728 
L 457.105026 368.837728 
L 457.225845 367.204358 
L 457.346664 367.204358 
L 457.507757 363.937616 
L 457.588303 363.937616 
L 457.709122 362.304245 
L 458.152125 362.304245 
L 458.272945 360.670875 
L 458.393764 360.670875 
L 458.514583 359.037504 
L 458.917313 359.037504 
L 459.038133 357.404133 
L 459.320044 357.404133 
L 459.440863 355.770762 
L 459.722775 355.770762 
L 459.883867 352.504021 
L 459.964413 352.504021 
L 460.125505 349.23728 
L 460.206051 349.23728 
L 460.32687 347.603909 
L 461.172604 347.603909 
L 461.293424 345.970538 
L 461.454516 345.970538 
L 461.575335 344.337167 
L 461.696154 344.337167 
L 461.816973 342.703797 
L 462.139158 342.703797 
L 462.259977 341.070426 
L 463.105711 341.070426 
L 463.22653 339.437055 
L 464.313903 339.437055 
L 464.434722 337.803684 
L 465.079091 337.803684 
L 465.19991 336.170314 
L 465.361002 336.170314 
L 465.481821 334.536943 
L 465.60264 334.536943 
L 465.723459 332.903572 
L 465.844279 332.903572 
L 465.965098 331.270201 
L 466.085917 331.270201 
L 466.247009 328.00346 
L 466.690013 328.00346 
L 466.810832 326.370089 
L 467.414928 326.370089 
L 467.535747 324.736718 
L 467.656566 324.736718 
L 467.777385 323.103348 
L 468.180116 323.103348 
L 468.300935 321.469977 
L 468.663392 321.469977 
L 468.784211 319.836606 
L 469.146669 319.836606 
L 469.307761 316.569865 
L 469.42858 316.569865 
L 469.549399 314.936494 
L 469.629946 314.936494 
L 469.750765 313.303123 
L 470.113222 313.303123 
L 470.234041 311.669752 
L 470.354861 311.669752 
L 470.47568 310.036382 
L 470.596499 310.036382 
L 470.757591 306.76964 
L 470.918683 306.76964 
L 471.039502 305.136269 
L 471.200595 305.136269 
L 471.321414 303.502899 
L 471.442233 303.502899 
L 471.563052 301.869528 
L 472.368513 301.869528 
L 472.489332 300.236157 
L 472.730971 300.236157 
L 472.85179 298.602786 
L 473.858616 298.602786 
L 473.979435 296.969416 
L 474.261347 296.969416 
L 474.382166 295.336045 
L 474.784896 295.336045 
L 474.905716 293.702674 
L 475.026535 293.702674 
L 475.147354 292.069303 
L 476.113907 292.069303 
L 476.234726 290.435933 
L 477.523464 290.435933 
L 477.644283 288.802562 
L 478.248379 288.802562 
L 478.369198 287.169191 
L 478.490017 287.169191 
L 478.651109 283.90245 
L 480.382851 283.90245 
L 480.50367 282.269079 
L 480.624489 282.269079 
L 480.745308 280.635708 
L 481.107766 280.635708 
L 481.228585 279.002337 
L 481.349404 279.002337 
L 481.470223 277.368967 
L 481.9535 277.368967 
L 482.074319 275.735596 
L 483.604695 275.735596 
L 483.725514 274.102225 
L 484.289337 274.102225 
L 484.410156 272.468855 
L 485.77944 272.468855 
L 485.900259 270.835484 
L 486.907085 270.835484 
L 487.027904 269.202113 
L 487.551454 269.202113 
L 487.672273 267.568742 
L 488.356915 267.568742 
L 488.518007 264.302001 
L 488.598554 264.302001 
L 488.719373 262.66863 
L 489.283195 262.66863 
L 489.404015 261.035259 
L 490.209476 261.035259 
L 490.370568 257.768518 
L 491.377394 257.768518 
L 491.498213 256.135147 
L 491.619033 256.135147 
L 491.739852 254.501776 
L 492.021763 254.501776 
L 492.142582 252.868406 
L 492.263401 252.868406 
L 492.384221 251.235035 
L 492.746678 251.235035 
L 492.867497 249.601664 
L 493.310501 249.601664 
L 493.43132 247.968293 
L 494.760331 247.968293 
L 494.88115 246.334923 
L 495.082515 246.334923 
L 495.203334 244.701552 
L 495.565792 244.701552 
L 495.686611 243.068181 
L 495.80743 243.068181 
L 495.928249 241.43481 
L 496.33098 241.43481 
L 496.451799 239.80144 
L 496.73371 239.80144 
L 496.894802 236.534698 
L 497.015622 236.534698 
L 497.136441 234.901327 
L 497.216987 234.901327 
L 497.378079 231.634586 
L 497.740537 231.634586 
L 497.861356 230.001215 
L 497.982175 230.001215 
L 498.102994 228.367844 
L 498.18354 228.367844 
L 498.304359 226.734474 
L 498.425179 226.734474 
L 498.545998 225.101103 
L 498.70709 225.101103 
L 498.827909 223.467732 
L 498.948728 223.467732 
L 499.069547 221.834361 
L 499.10982 221.834361 
L 499.270913 218.56762 
L 499.713916 218.56762 
L 499.834735 216.934249 
L 499.995828 216.934249 
L 500.116647 215.300878 
L 500.277739 215.300878 
L 500.398558 213.667508 
L 500.640196 213.667508 
L 500.761016 212.034137 
L 500.801289 212.034137 
L 500.922108 210.400766 
L 501.0832 210.400766 
L 501.204019 208.767395 
L 501.526204 208.767395 
L 501.647023 207.134025 
L 501.848388 207.134025 
L 501.969207 205.500654 
L 502.130299 205.500654 
L 502.251119 203.867283 
L 502.412211 203.867283 
L 502.53303 202.233913 
L 502.653849 202.233913 
L 502.774668 200.600542 
L 502.93576 200.600542 
L 503.05658 198.967171 
L 503.177399 198.967171 
L 503.298218 197.3338 
L 504.063406 197.3338 
L 504.184225 195.70043 
L 504.305044 195.70043 
L 504.425863 194.067059 
L 504.989686 194.067059 
L 505.110505 192.433688 
L 505.553509 192.433688 
L 505.674328 190.800317 
L 505.795147 190.800317 
L 505.915966 189.166947 
L 506.036786 189.166947 
L 506.157605 187.533576 
L 506.520062 187.533576 
L 506.640881 185.900205 
L 507.003339 185.900205 
L 507.124158 184.266834 
L 507.244977 184.266834 
L 507.365796 182.633464 
L 508.050438 182.633464 
L 508.171257 181.000093 
L 508.412896 181.000093 
L 508.573988 177.733351 
L 509.621087 177.733351 
L 509.741906 176.099981 
L 509.822453 176.099981 
L 509.943272 174.46661 
L 510.064091 174.46661 
L 510.18491 172.833239 
L 511.272282 172.833239 
L 511.393102 171.199868 
L 511.513921 171.199868 
L 511.63474 169.566498 
L 511.755559 169.566498 
L 511.876378 167.933127 
L 512.279109 167.933127 
L 512.399928 166.299756 
L 512.440201 166.299756 
L 512.56102 164.666385 
L 513.285935 164.666385 
L 513.406754 163.033015 
L 515.299588 163.033015 
L 515.420407 161.399644 
L 515.46068 161.399644 
L 515.581499 159.766273 
L 515.621772 159.766273 
L 515.742591 158.132902 
L 519.044982 158.132902 
L 519.165801 156.499532 
L 519.528258 156.499532 
L 519.649077 154.866161 
L 520.454539 154.866161 
L 520.575358 153.23279 
L 520.937815 153.23279 
L 521.058634 151.599419 
L 522.025188 151.599419 
L 522.146007 149.966049 
L 522.266826 149.966049 
L 522.387645 148.332678 
L 522.508464 148.332678 
L 522.629283 146.699307 
L 523.354198 146.699307 
L 523.475018 145.065936 
L 523.595837 145.065936 
L 523.716656 143.432566 
L 524.401298 143.432566 
L 524.522117 141.799195 
L 525.045667 141.799195 
L 525.166486 140.165824 
L 525.327578 140.165824 
L 525.448397 138.532453 
L 525.569216 138.532453 
L 525.690035 136.899083 
L 525.810855 136.899083 
L 525.931674 135.265712 
L 526.052493 135.265712 
L 526.173312 133.632341 
L 526.334404 133.632341 
L 526.455223 131.99897 
L 527.784234 131.99897 
L 527.905053 128.732229 
L 528.025873 128.732229 
L 528.146692 127.098858 
L 529.032699 127.098858 
L 529.193791 123.832117 
L 530.24089 123.832117 
L 530.36171 122.198746 
L 530.724167 122.198746 
L 530.844986 120.565375 
L 531.006078 120.565375 
L 531.126898 118.932005 
L 531.247717 118.932005 
L 531.368536 117.298634 
L 531.489355 117.298634 
L 531.650447 112.398522 
L 532.254543 112.398522 
L 532.375362 110.765151 
L 532.979458 110.765151 
L 533.100277 109.13178 
L 533.261369 109.13178 
L 533.382189 107.498409 
L 533.543281 107.498409 
L 533.6641 105.865039 
L 533.825192 105.865039 
L 533.946011 104.231668 
L 534.06683 104.231668 
L 534.18765 102.598297 
L 534.550107 102.598297 
L 534.670926 100.964926 
L 535.073657 100.964926 
L 535.194476 99.331556 
L 535.315295 99.331556 
L 535.476387 96.064814 
L 535.597206 96.064814 
L 535.718026 94.431443 
L 535.838845 94.431443 
L 535.959664 92.798073 
L 536.04021 92.798073 
L 536.161029 91.164702 
L 536.402668 91.164702 
L 536.523487 89.531331 
L 537.208129 89.531331 
L 537.328948 87.89796 
L 537.449767 87.89796 
L 537.570586 86.26459 
L 537.731678 86.26459 
L 537.852497 84.631219 
L 538.01359 84.631219 
L 538.134409 82.997848 
L 538.255228 82.997848 
L 538.376047 81.364477 
L 538.496866 81.364477 
L 538.617685 79.731107 
L 538.778778 79.731107 
L 538.899597 78.097736 
L 539.020416 78.097736 
L 539.141235 76.464365 
L 539.302327 76.464365 
L 539.423147 74.830994 
L 539.543966 74.830994 
L 539.664785 73.197624 
L 540.067515 73.197624 
L 540.188335 71.564253 
L 540.3897 71.564253 
L 540.510519 69.930882 
L 540.631338 69.930882 
L 540.752157 68.297511 
L 540.872976 68.297511 
L 540.993796 66.664141 
L 541.31598 66.664141 
L 541.436799 65.03077 
L 541.557618 65.03077 
L 541.678437 63.397399 
L 542.604718 63.397399 
L 542.725537 61.764028 
L 543.128267 61.764028 
L 543.28936 58.497287 
L 543.369906 58.497287 
L 543.490725 56.863916 
L 543.611544 56.863916 
L 543.732363 55.230546 
L 544.537824 55.230546 
L 544.658643 53.597175 
L 544.779463 53.597175 
L 544.900282 51.963804 
L 545.021101 51.963804 
L 545.14192 50.330433 
L 545.262739 50.330433 
L 545.383558 48.697063 
L 546.430658 48.697063 
L 546.59175 45.430321 
L 546.672296 45.430321 
L 546.793115 43.79695 
L 547.1153 43.79695 
L 547.236119 42.16358 
L 548.001307 42.16358 
L 548.001307 42.16358 
" clip-path="url(#p5d03f895ee)" style="fill: none; stroke-dasharray: 7.4,3.2; stroke-dashoffset: 0; stroke: #ff800e; stroke-width: 2"/>
   </g>
   <g id="patch_3">
    <path d="M 40.603125 458.918125 
L 40.603125 22.318125 
" style="fill: none; stroke: #000000; stroke-width: 0.8; stroke-linejoin: miter; stroke-linecap: square"/>
   </g>
   <g id="patch_4">
    <path d="M 572.163125 458.918125 
L 572.163125 22.318125 
" style="fill: none; stroke: #000000; stroke-width: 0.8; stroke-linejoin: miter; stroke-linecap: square"/>
   </g>
   <g id="patch_5">
    <path d="M 40.603125 458.918125 
L 572.163125 458.918125 
" style="fill: none; stroke: #000000; stroke-width: 0.8; stroke-linejoin: miter; stroke-linecap: square"/>
   </g>
   <g id="patch_6">
    <path d="M 40.603125 22.318125 
L 572.163125 22.318125 
" style="fill: none; stroke: #000000; stroke-width: 0.8; stroke-linejoin: miter; stroke-linecap: square"/>
   </g>
   <g id="text_18">
    <!-- Telomeric Motif Distribution: M_lewisii -->
    <g transform="translate(176.89 16.318125) scale(0.12 -0.12)">
     <defs>
      <path id="DejaVuSans-Bold-54" d="M 31 4666 
L 4331 4666 
L 4331 3756 
L 2784 3756 
L 2784 0 
L 1581 0 
L 1581 3756 
L 31 3756 
L 31 4666 
z
" transform="scale(0.015625)"/>
      <path id="DejaVuSans-Bold-65" d="M 4031 1759 
L 4031 1441 
L 1416 1441 
Q 1456 1047 1700 850 
Q 1944 653 2381 653 
Q 2734 653 3104 758 
Q 3475 863 3866 1075 
L 3866 213 
Q 3469 63 3072 -14 
Q 2675 -91 2278 -91 
Q 1328 -91 801 392 
Q 275 875 275 1747 
Q 275 2603 792 3093 
Q 1309 3584 2216 3584 
Q 3041 3584 3536 3087 
Q 4031 2591 4031 1759 
z
M 2881 2131 
Q 2881 2450 2695 2645 
Q 2509 2841 2209 2841 
Q 1884 2841 1681 2658 
Q 1478 2475 1428 2131 
L 2881 2131 
z
" transform="scale(0.015625)"/>
      <path id="DejaVuSans-Bold-6c" d="M 538 4863 
L 1656 4863 
L 1656 0 
L 538 0 
L 538 4863 
z
" transform="scale(0.015625)"/>
      <path id="DejaVuSans-Bold-6f" d="M 2203 2784 
Q 1831 2784 1636 2517 
Q 1441 2250 1441 1747 
Q 1441 1244 1636 976 
Q 1831 709 2203 709 
Q 2569 709 2762 976 
Q 2956 1244 2956 1747 
Q 2956 2250 2762 2517 
Q 2569 2784 2203 2784 
z
M 2203 3584 
Q 3106 3584 3614 3096 
Q 4122 2609 4122 1747 
Q 4122 884 3614 396 
Q 3106 -91 2203 -91 
Q 1297 -91 786 396 
Q 275 884 275 1747 
Q 275 2609 786 3096 
Q 1297 3584 2203 3584 
z
" transform="scale(0.015625)"/>
      <path id="DejaVuSans-Bold-6d" d="M 3781 2919 
Q 3994 3244 4286 3414 
Q 4578 3584 4928 3584 
Q 5531 3584 5847 3212 
Q 6163 2841 6163 2131 
L 6163 0 
L 5038 0 
L 5038 1825 
Q 5041 1866 5042 1909 
Q 5044 1953 5044 2034 
Q 5044 2406 4934 2573 
Q 4825 2741 4581 2741 
Q 4263 2741 4089 2478 
Q 3916 2216 3909 1719 
L 3909 0 
L 2784 0 
L 2784 1825 
Q 2784 2406 2684 2573 
Q 2584 2741 2328 2741 
Q 2006 2741 1831 2477 
Q 1656 2213 1656 1722 
L 1656 0 
L 531 0 
L 531 3500 
L 1656 3500 
L 1656 2988 
Q 1863 3284 2130 3434 
Q 2397 3584 2719 3584 
Q 3081 3584 3359 3409 
Q 3638 3234 3781 2919 
z
" transform="scale(0.015625)"/>
      <path id="DejaVuSans-Bold-72" d="M 3138 2547 
Q 2991 2616 2845 2648 
Q 2700 2681 2553 2681 
Q 2122 2681 1889 2404 
Q 1656 2128 1656 1613 
L 1656 0 
L 538 0 
L 538 3500 
L 1656 3500 
L 1656 2925 
Q 1872 3269 2151 3426 
Q 2431 3584 2822 3584 
Q 2878 3584 2943 3579 
Q 3009 3575 3134 3559 
L 3138 2547 
z
" transform="scale(0.015625)"/>
      <path id="DejaVuSans-Bold-69" d="M 538 3500 
L 1656 3500 
L 1656 0 
L 538 0 
L 538 3500 
z
M 538 4863 
L 1656 4863 
L 1656 3950 
L 538 3950 
L 538 4863 
z
" transform="scale(0.015625)"/>
      <path id="DejaVuSans-Bold-63" d="M 3366 3391 
L 3366 2478 
Q 3138 2634 2908 2709 
Q 2678 2784 2431 2784 
Q 1963 2784 1702 2511 
Q 1441 2238 1441 1747 
Q 1441 1256 1702 982 
Q 1963 709 2431 709 
Q 2694 709 2930 787 
Q 3166 866 3366 1019 
L 3366 103 
Q 3103 6 2833 -42 
Q 2563 -91 2291 -91 
Q 1344 -91 809 395 
Q 275 881 275 1747 
Q 275 2613 809 3098 
Q 1344 3584 2291 3584 
Q 2566 3584 2833 3536 
Q 3100 3488 3366 3391 
z
" transform="scale(0.015625)"/>
      <path id="DejaVuSans-Bold-20" transform="scale(0.015625)"/>
      <path id="DejaVuSans-Bold-4d" d="M 588 4666 
L 2119 4666 
L 3181 2169 
L 4250 4666 
L 5778 4666 
L 5778 0 
L 4641 0 
L 4641 3413 
L 3566 897 
L 2803 897 
L 1728 3413 
L 1728 0 
L 588 0 
L 588 4666 
z
" transform="scale(0.015625)"/>
      <path id="DejaVuSans-Bold-74" d="M 1759 4494 
L 1759 3500 
L 2913 3500 
L 2913 2700 
L 1759 2700 
L 1759 1216 
Q 1759 972 1856 886 
Q 1953 800 2241 800 
L 2816 800 
L 2816 0 
L 1856 0 
Q 1194 0 917 276 
Q 641 553 641 1216 
L 641 2700 
L 84 2700 
L 84 3500 
L 641 3500 
L 641 4494 
L 1759 4494 
z
" transform="scale(0.015625)"/>
      <path id="DejaVuSans-Bold-66" d="M 2841 4863 
L 2841 4128 
L 2222 4128 
Q 1984 4128 1890 4042 
Q 1797 3956 1797 3744 
L 1797 3500 
L 2753 3500 
L 2753 2700 
L 1797 2700 
L 1797 0 
L 678 0 
L 678 2700 
L 122 2700 
L 122 3500 
L 678 3500 
L 678 3744 
Q 678 4316 997 4589 
Q 1316 4863 1984 4863 
L 2841 4863 
z
" transform="scale(0.015625)"/>
      <path id="DejaVuSans-Bold-44" d="M 1791 3756 
L 1791 909 
L 2222 909 
Q 2959 909 3348 1275 
Q 3738 1641 3738 2338 
Q 3738 3031 3350 3393 
Q 2963 3756 2222 3756 
L 1791 3756 
z
M 588 4666 
L 1856 4666 
Q 2919 4666 3439 4514 
Q 3959 4363 4331 4000 
Q 4659 3684 4818 3271 
Q 4978 2859 4978 2338 
Q 4978 1809 4818 1395 
Q 4659 981 4331 666 
Q 3956 303 3431 151 
Q 2906 0 1856 0 
L 588 0 
L 588 4666 
z
" transform="scale(0.015625)"/>
      <path id="DejaVuSans-Bold-73" d="M 3272 3391 
L 3272 2541 
Q 2913 2691 2578 2766 
Q 2244 2841 1947 2841 
Q 1628 2841 1473 2761 
Q 1319 2681 1319 2516 
Q 1319 2381 1436 2309 
Q 1553 2238 1856 2203 
L 2053 2175 
Q 2913 2066 3209 1816 
Q 3506 1566 3506 1031 
Q 3506 472 3093 190 
Q 2681 -91 1863 -91 
Q 1516 -91 1145 -36 
Q 775 19 384 128 
L 384 978 
Q 719 816 1070 734 
Q 1422 653 1784 653 
Q 2113 653 2278 743 
Q 2444 834 2444 1013 
Q 2444 1163 2330 1236 
Q 2216 1309 1875 1350 
L 1678 1375 
Q 931 1469 631 1722 
Q 331 1975 331 2491 
Q 331 3047 712 3315 
Q 1094 3584 1881 3584 
Q 2191 3584 2531 3537 
Q 2872 3491 3272 3391 
z
" transform="scale(0.015625)"/>
      <path id="DejaVuSans-Bold-62" d="M 2400 722 
Q 2759 722 2948 984 
Q 3138 1247 3138 1747 
Q 3138 2247 2948 2509 
Q 2759 2772 2400 2772 
Q 2041 2772 1848 2508 
Q 1656 2244 1656 1747 
Q 1656 1250 1848 986 
Q 2041 722 2400 722 
z
M 1656 2988 
Q 1888 3294 2169 3439 
Q 2450 3584 2816 3584 
Q 3463 3584 3878 3070 
Q 4294 2556 4294 1747 
Q 4294 938 3878 423 
Q 3463 -91 2816 -91 
Q 2450 -91 2169 54 
Q 1888 200 1656 506 
L 1656 0 
L 538 0 
L 538 4863 
L 1656 4863 
L 1656 2988 
z
" transform="scale(0.015625)"/>
      <path id="DejaVuSans-Bold-75" d="M 500 1363 
L 500 3500 
L 1625 3500 
L 1625 3150 
Q 1625 2866 1622 2436 
Q 1619 2006 1619 1863 
Q 1619 1441 1641 1255 
Q 1663 1069 1716 984 
Q 1784 875 1895 815 
Q 2006 756 2150 756 
Q 2500 756 2700 1025 
Q 2900 1294 2900 1772 
L 2900 3500 
L 4019 3500 
L 4019 0 
L 2900 0 
L 2900 506 
Q 2647 200 2364 54 
Q 2081 -91 1741 -91 
Q 1134 -91 817 281 
Q 500 653 500 1363 
z
" transform="scale(0.015625)"/>
      <path id="DejaVuSans-Bold-6e" d="M 4056 2131 
L 4056 0 
L 2931 0 
L 2931 347 
L 2931 1631 
Q 2931 2084 2911 2256 
Q 2891 2428 2841 2509 
Q 2775 2619 2662 2680 
Q 2550 2741 2406 2741 
Q 2056 2741 1856 2470 
Q 1656 2200 1656 1722 
L 1656 0 
L 538 0 
L 538 3500 
L 1656 3500 
L 1656 2988 
Q 1909 3294 2193 3439 
Q 2478 3584 2822 3584 
Q 3428 3584 3742 3212 
Q 4056 2841 4056 2131 
z
" transform="scale(0.015625)"/>
      <path id="DejaVuSans-Bold-3a" d="M 716 3500 
L 1844 3500 
L 1844 2291 
L 716 2291 
L 716 3500 
z
M 716 1209 
L 1844 1209 
L 1844 0 
L 716 0 
L 716 1209 
z
" transform="scale(0.015625)"/>
      <path id="DejaVuSans-Bold-5f" d="M 3200 -916 
L 3200 -1509 
L 0 -1509 
L 0 -916 
L 3200 -916 
z
" transform="scale(0.015625)"/>
      <path id="DejaVuSans-Bold-77" d="M 225 3500 
L 1313 3500 
L 1900 1088 
L 2491 3500 
L 3425 3500 
L 4013 1113 
L 4603 3500 
L 5691 3500 
L 4769 0 
L 3547 0 
L 2956 2406 
L 2369 0 
L 1147 0 
L 225 3500 
z
" transform="scale(0.015625)"/>
     </defs>
     <use xlink:href="#DejaVuSans-Bold-54"/>
     <use xlink:href="#DejaVuSans-Bold-65" transform="translate(54.962891 0)"/>
     <use xlink:href="#DejaVuSans-Bold-6c" transform="translate(122.785156 0)"/>
     <use xlink:href="#DejaVuSans-Bold-6f" transform="translate(157.0625 0)"/>
     <use xlink:href="#DejaVuSans-Bold-6d" transform="translate(225.763672 0)"/>
     <use xlink:href="#DejaVuSans-Bold-65" transform="translate(329.962891 0)"/>
     <use xlink:href="#DejaVuSans-Bold-72" transform="translate(397.785156 0)"/>
     <use xlink:href="#DejaVuSans-Bold-69" transform="translate(447.101562 0)"/>
     <use xlink:href="#DejaVuSans-Bold-63" transform="translate(481.378906 0)"/>
     <use xlink:href="#DejaVuSans-Bold-20" transform="translate(540.65625 0)"/>
     <use xlink:href="#DejaVuSans-Bold-4d" transform="translate(575.470703 0)"/>
     <use xlink:href="#DejaVuSans-Bold-6f" transform="translate(674.982422 0)"/>
     <use xlink:href="#DejaVuSans-Bold-74" transform="translate(743.683594 0)"/>
     <use xlink:href="#DejaVuSans-Bold-69" transform="translate(791.486328 0)"/>
     <use xlink:href="#DejaVuSans-Bold-66" transform="translate(825.763672 0)"/>
     <use xlink:href="#DejaVuSans-Bold-20" transform="translate(869.269531 0)"/>
     <use xlink:href="#DejaVuSans-Bold-44" transform="translate(904.083984 0)"/>
     <use xlink:href="#DejaVuSans-Bold-69" transform="translate(987.091797 0)"/>
     <use xlink:href="#DejaVuSans-Bold-73" transform="translate(1021.369141 0)"/>
     <use xlink:href="#DejaVuSans-Bold-74" transform="translate(1080.890625 0)"/>
     <use xlink:href="#DejaVuSans-Bold-72" transform="translate(1128.693359 0)"/>
     <use xlink:href="#DejaVuSans-Bold-69" transform="translate(1178.009766 0)"/>
     <use xlink:href="#DejaVuSans-Bold-62" transform="translate(1212.287109 0)"/>
     <use xlink:href="#DejaVuSans-Bold-75" transform="translate(1283.869141 0)"/>
     <use xlink:href="#DejaVuSans-Bold-74" transform="translate(1355.060547 0)"/>
     <use xlink:href="#DejaVuSans-Bold-69" transform="translate(1402.863281 0)"/>
     <use xlink:href="#DejaVuSans-Bold-6f" transform="translate(1437.140625 0)"/>
     <use xlink:href="#DejaVuSans-Bold-6e" transform="translate(1505.841797 0)"/>
     <use xlink:href="#DejaVuSans-Bold-3a" transform="translate(1577.033203 0)"/>
     <use xlink:href="#DejaVuSans-Bold-20" transform="translate(1617.023438 0)"/>
     <use xlink:href="#DejaVuSans-Bold-4d" transform="translate(1651.837891 0)"/>
     <use xlink:href="#DejaVuSans-Bold-5f" transform="translate(1751.349609 0)"/>
     <use xlink:href="#DejaVuSans-Bold-6c" transform="translate(1801.349609 0)"/>
     <use xlink:href="#DejaVuSans-Bold-65" transform="translate(1835.626953 0)"/>
     <use xlink:href="#DejaVuSans-Bold-77" transform="translate(1903.449219 0)"/>
     <use xlink:href="#DejaVuSans-Bold-69" transform="translate(1995.832031 0)"/>
     <use xlink:href="#DejaVuSans-Bold-73" transform="translate(2030.109375 0)"/>
     <use xlink:href="#DejaVuSans-Bold-69" transform="translate(2089.630859 0)"/>
     <use xlink:href="#DejaVuSans-Bold-69" transform="translate(2123.908203 0)"/>
    </g>
   </g>
   <g id="legend_1">
    <g id="patch_7">
     <path d="M 579.163125 103.70875 
L 703.04125 103.70875 
Q 705.04125 103.70875 705.04125 101.70875 
L 705.04125 29.318125 
Q 705.04125 27.318125 703.04125 27.318125 
L 579.163125 27.318125 
Q 577.163125 27.318125 577.163125 29.318125 
L 577.163125 101.70875 
Q 577.163125 103.70875 579.163125 103.70875 
z
" style="fill: #ffffff; opacity: 0.8; stroke: #cccccc; stroke-linejoin: miter"/>
    </g>
    <g id="text_19">
     <!-- Motifs &amp; Orientation -->
     <g transform="translate(590.71 38.916562) scale(0.1 -0.1)">
      <defs>
       <path id="DejaVuSans-4d" d="M 628 4666 
L 1569 4666 
L 2759 1491 
L 3956 4666 
L 4897 4666 
L 4897 0 
L 4281 0 
L 4281 4097 
L 3078 897 
L 2444 897 
L 1241 4097 
L 1241 0 
L 628 0 
L 628 4666 
z
" transform="scale(0.015625)"/>
       <path id="DejaVuSans-26" d="M 1556 2509 
Q 1272 2256 1139 2004 
Q 1006 1753 1006 1478 
Q 1006 1022 1337 719 
Q 1669 416 2169 416 
Q 2466 416 2725 514 
Q 2984 613 3213 813 
L 1556 2509 
z
M 1997 2859 
L 3584 1234 
Q 3769 1513 3872 1830 
Q 3975 2147 3994 2503 
L 4575 2503 
Q 4538 2091 4375 1687 
Q 4213 1284 3922 891 
L 4794 0 
L 4006 0 
L 3559 459 
Q 3234 181 2878 45 
Q 2522 -91 2113 -91 
Q 1359 -91 881 339 
Q 403 769 403 1441 
Q 403 1841 612 2192 
Q 822 2544 1241 2853 
Q 1091 3050 1012 3245 
Q 934 3441 934 3628 
Q 934 4134 1281 4442 
Q 1628 4750 2203 4750 
Q 2463 4750 2720 4694 
Q 2978 4638 3244 4525 
L 3244 3956 
Q 2972 4103 2725 4179 
Q 2478 4256 2266 4256 
Q 1938 4256 1733 4082 
Q 1528 3909 1528 3634 
Q 1528 3475 1620 3314 
Q 1713 3153 1997 2859 
z
" transform="scale(0.015625)"/>
       <path id="DejaVuSans-4f" d="M 2522 4238 
Q 1834 4238 1429 3725 
Q 1025 3213 1025 2328 
Q 1025 1447 1429 934 
Q 1834 422 2522 422 
Q 3209 422 3611 934 
Q 4013 1447 4013 2328 
Q 4013 3213 3611 3725 
Q 3209 4238 2522 4238 
z
M 2522 4750 
Q 3503 4750 4090 4092 
Q 4678 3434 4678 2328 
Q 4678 1225 4090 567 
Q 3503 -91 2522 -91 
Q 1538 -91 948 565 
Q 359 1222 359 2328 
Q 359 3434 948 4092 
Q 1538 4750 2522 4750 
z
" transform="scale(0.015625)"/>
      </defs>
      <use xlink:href="#DejaVuSans-4d"/>
      <use xlink:href="#DejaVuSans-6f" transform="translate(86.279297 0)"/>
      <use xlink:href="#DejaVuSans-74" transform="translate(147.460938 0)"/>
      <use xlink:href="#DejaVuSans-69" transform="translate(186.669922 0)"/>
      <use xlink:href="#DejaVuSans-66" transform="translate(214.453125 0)"/>
      <use xlink:href="#DejaVuSans-73" transform="translate(249.658203 0)"/>
      <use xlink:href="#DejaVuSans-20" transform="translate(301.757812 0)"/>
      <use xlink:href="#DejaVuSans-26" transform="translate(333.544922 0)"/>
      <use xlink:href="#DejaVuSans-20" transform="translate(411.523438 0)"/>
      <use xlink:href="#DejaVuSans-4f" transform="translate(443.310547 0)"/>
      <use xlink:href="#DejaVuSans-72" transform="translate(522.021484 0)"/>
      <use xlink:href="#DejaVuSans-69" transform="translate(563.134766 0)"/>
      <use xlink:href="#DejaVuSans-65" transform="translate(590.917969 0)"/>
      <use xlink:href="#DejaVuSans-6e" transform="translate(652.441406 0)"/>
      <use xlink:href="#DejaVuSans-74" transform="translate(715.820312 0)"/>
      <use xlink:href="#DejaVuSans-61" transform="translate(755.029297 0)"/>
      <use xlink:href="#DejaVuSans-74" transform="translate(816.308594 0)"/>
      <use xlink:href="#DejaVuSans-69" transform="translate(855.517578 0)"/>
      <use xlink:href="#DejaVuSans-6f" transform="translate(883.300781 0)"/>
      <use xlink:href="#DejaVuSans-6e" transform="translate(944.482422 0)"/>
     </g>
    </g>
    <g id="line2d_35">
     <path d="M 581.163125 50.094688 
L 591.163125 50.094688 
L 601.163125 50.094688 
" style="fill: none; stroke: #006ba4; stroke-width: 2; stroke-linecap: square"/>
    </g>
    <g id="text_20">
     <!-- CCCGAAA (5' end) -->
     <g transform="translate(609.163125 53.594688) scale(0.1 -0.1)">
      <defs>
       <path id="DejaVuSans-47" d="M 3809 666 
L 3809 1919 
L 2778 1919 
L 2778 2438 
L 4434 2438 
L 4434 434 
Q 4069 175 3628 42 
Q 3188 -91 2688 -91 
Q 1594 -91 976 548 
Q 359 1188 359 2328 
Q 359 3472 976 4111 
Q 1594 4750 2688 4750 
Q 3144 4750 3555 4637 
Q 3966 4525 4313 4306 
L 4313 3634 
Q 3963 3931 3569 4081 
Q 3175 4231 2741 4231 
Q 1884 4231 1454 3753 
Q 1025 3275 1025 2328 
Q 1025 1384 1454 906 
Q 1884 428 2741 428 
Q 3075 428 3337 486 
Q 3600 544 3809 666 
z
" transform="scale(0.015625)"/>
       <path id="DejaVuSans-28" d="M 1984 4856 
Q 1566 4138 1362 3434 
Q 1159 2731 1159 2009 
Q 1159 1288 1364 580 
Q 1569 -128 1984 -844 
L 1484 -844 
Q 1016 -109 783 600 
Q 550 1309 550 2009 
Q 550 2706 781 3412 
Q 1013 4119 1484 4856 
L 1984 4856 
z
" transform="scale(0.015625)"/>
       <path id="DejaVuSans-27" d="M 1147 4666 
L 1147 2931 
L 616 2931 
L 616 4666 
L 1147 4666 
z
" transform="scale(0.015625)"/>
       <path id="DejaVuSans-64" d="M 2906 2969 
L 2906 4863 
L 3481 4863 
L 3481 0 
L 2906 0 
L 2906 525 
Q 2725 213 2448 61 
Q 2172 -91 1784 -91 
Q 1150 -91 751 415 
Q 353 922 353 1747 
Q 353 2572 751 3078 
Q 1150 3584 1784 3584 
Q 2172 3584 2448 3432 
Q 2725 3281 2906 2969 
z
M 947 1747 
Q 947 1113 1208 752 
Q 1469 391 1925 391 
Q 2381 391 2643 752 
Q 2906 1113 2906 1747 
Q 2906 2381 2643 2742 
Q 2381 3103 1925 3103 
Q 1469 3103 1208 2742 
Q 947 2381 947 1747 
z
" transform="scale(0.015625)"/>
       <path id="DejaVuSans-29" d="M 513 4856 
L 1013 4856 
Q 1481 4119 1714 3412 
Q 1947 2706 1947 2009 
Q 1947 1309 1714 600 
Q 1481 -109 1013 -844 
L 513 -844 
Q 928 -128 1133 580 
Q 1338 1288 1338 2009 
Q 1338 2731 1133 3434 
Q 928 4138 513 4856 
z
" transform="scale(0.015625)"/>
      </defs>
      <use xlink:href="#DejaVuSans-43"/>
      <use xlink:href="#DejaVuSans-43" transform="translate(69.824219 0)"/>
      <use xlink:href="#DejaVuSans-43" transform="translate(139.648438 0)"/>
      <use xlink:href="#DejaVuSans-47" transform="translate(209.472656 0)"/>
      <use xlink:href="#DejaVuSans-41" transform="translate(286.962891 0)"/>
      <use xlink:href="#DejaVuSans-41" transform="translate(358.121094 0)"/>
      <use xlink:href="#DejaVuSans-41" transform="translate(429.279297 0)"/>
      <use xlink:href="#DejaVuSans-20" transform="translate(497.6875 0)"/>
      <use xlink:href="#DejaVuSans-28" transform="translate(529.474609 0)"/>
      <use xlink:href="#DejaVuSans-35" transform="translate(568.488281 0)"/>
      <use xlink:href="#DejaVuSans-27" transform="translate(632.111328 0)"/>
      <use xlink:href="#DejaVuSans-20" transform="translate(659.601562 0)"/>
      <use xlink:href="#DejaVuSans-65" transform="translate(691.388672 0)"/>
      <use xlink:href="#DejaVuSans-6e" transform="translate(752.912109 0)"/>
      <use xlink:href="#DejaVuSans-64" transform="translate(816.291016 0)"/>
      <use xlink:href="#DejaVuSans-29" transform="translate(879.767578 0)"/>
     </g>
    </g>
    <g id="line2d_36">
     <path d="M 581.163125 64.772813 
L 591.163125 64.772813 
L 601.163125 64.772813 
" style="fill: none; stroke: #ff800e; stroke-width: 2; stroke-linecap: square"/>
    </g>
    <g id="text_21">
     <!-- CCGAAA (5' end) -->
     <g transform="translate(609.163125 68.272813) scale(0.1 -0.1)">
      <use xlink:href="#DejaVuSans-43"/>
      <use xlink:href="#DejaVuSans-43" transform="translate(69.824219 0)"/>
      <use xlink:href="#DejaVuSans-47" transform="translate(139.648438 0)"/>
      <use xlink:href="#DejaVuSans-41" transform="translate(217.138672 0)"/>
      <use xlink:href="#DejaVuSans-41" transform="translate(288.296875 0)"/>
      <use xlink:href="#DejaVuSans-41" transform="translate(359.455078 0)"/>
      <use xlink:href="#DejaVuSans-20" transform="translate(427.863281 0)"/>
      <use xlink:href="#DejaVuSans-28" transform="translate(459.650391 0)"/>
      <use xlink:href="#DejaVuSans-35" transform="translate(498.664062 0)"/>
      <use xlink:href="#DejaVuSans-27" transform="translate(562.287109 0)"/>
      <use xlink:href="#DejaVuSans-20" transform="translate(589.777344 0)"/>
      <use xlink:href="#DejaVuSans-65" transform="translate(621.564453 0)"/>
      <use xlink:href="#DejaVuSans-6e" transform="translate(683.087891 0)"/>
      <use xlink:href="#DejaVuSans-64" transform="translate(746.466797 0)"/>
      <use xlink:href="#DejaVuSans-29" transform="translate(809.943359 0)"/>
     </g>
    </g>
    <g id="line2d_37">
     <path d="M 581.163125 79.450938 
L 591.163125 79.450938 
L 601.163125 79.450938 
" style="fill: none; stroke-dasharray: 7.4,3.2; stroke-dashoffset: 0; stroke: #006ba4; stroke-width: 2"/>
    </g>
    <g id="text_22">
     <!-- TTTCGGG (3' end) -->
     <g transform="translate(609.163125 82.950938) scale(0.1 -0.1)">
      <use xlink:href="#DejaVuSans-54"/>
      <use xlink:href="#DejaVuSans-54" transform="translate(59.333984 0)"/>
      <use xlink:href="#DejaVuSans-54" transform="translate(118.667969 0)"/>
      <use xlink:href="#DejaVuSans-43" transform="translate(173.876953 0)"/>
      <use xlink:href="#DejaVuSans-47" transform="translate(243.701172 0)"/>
      <use xlink:href="#DejaVuSans-47" transform="translate(321.191406 0)"/>
      <use xlink:href="#DejaVuSans-47" transform="translate(398.681641 0)"/>
      <use xlink:href="#DejaVuSans-20" transform="translate(476.171875 0)"/>
      <use xlink:href="#DejaVuSans-28" transform="translate(507.958984 0)"/>
      <use xlink:href="#DejaVuSans-33" transform="translate(546.972656 0)"/>
      <use xlink:href="#DejaVuSans-27" transform="translate(610.595703 0)"/>
      <use xlink:href="#DejaVuSans-20" transform="translate(638.085938 0)"/>
      <use xlink:href="#DejaVuSans-65" transform="translate(669.873047 0)"/>
      <use xlink:href="#DejaVuSans-6e" transform="translate(731.396484 0)"/>
      <use xlink:href="#DejaVuSans-64" transform="translate(794.775391 0)"/>
      <use xlink:href="#DejaVuSans-29" transform="translate(858.251953 0)"/>
     </g>
    </g>
    <g id="line2d_38">
     <path d="M 581.163125 94.129063 
L 591.163125 94.129063 
L 601.163125 94.129063 
" style="fill: none; stroke-dasharray: 7.4,3.2; stroke-dashoffset: 0; stroke: #ff800e; stroke-width: 2"/>
    </g>
    <g id="text_23">
     <!-- TTTCGG (3' end) -->
     <g transform="translate(609.163125 97.629063) scale(0.1 -0.1)">
      <use xlink:href="#DejaVuSans-54"/>
      <use xlink:href="#DejaVuSans-54" transform="translate(59.333984 0)"/>
      <use xlink:href="#DejaVuSans-54" transform="translate(118.667969 0)"/>
      <use xlink:href="#DejaVuSans-43" transform="translate(173.876953 0)"/>
      <use xlink:href="#DejaVuSans-47" transform="translate(243.701172 0)"/>
      <use xlink:href="#DejaVuSans-47" transform="translate(321.191406 0)"/>
      <use xlink:href="#DejaVuSans-20" transform="translate(398.681641 0)"/>
      <use xlink:href="#DejaVuSans-28" transform="translate(430.46875 0)"/>
      <use xlink:href="#DejaVuSans-33" transform="translate(469.482422 0)"/>
      <use xlink:href="#DejaVuSans-27" transform="translate(533.105469 0)"/>
      <use xlink:href="#DejaVuSans-20" transform="translate(560.595703 0)"/>
      <use xlink:href="#DejaVuSans-65" transform="translate(592.382812 0)"/>
      <use xlink:href="#DejaVuSans-6e" transform="translate(653.90625 0)"/>
      <use xlink:href="#DejaVuSans-64" transform="translate(717.285156 0)"/>
      <use xlink:href="#DejaVuSans-29" transform="translate(780.761719 0)"/>
     </g>
    </g>
   </g>
  </g>
 </g>
 <defs>
  <clipPath id="p5d03f895ee">
   <rect x="40.603125" y="22.318125" width="531.56" height="436.6"/>
  </clipPath>
 </defs>
</svg>
