<?xml version="1.0" encoding="utf-8" standalone="no"?>
<!DOCTYPE svg PUBLIC "-//W3C//DTD SVG 1.1//EN"
  "http://www.w3.org/Graphics/SVG/1.1/DTD/svg11.dtd">
<svg xmlns:xlink="http://www.w3.org/1999/xlink" width="568.21375pt" height="423.99625pt" viewBox="0 0 568.21375 423.99625" xmlns="http://www.w3.org/2000/svg" version="1.1">
 <metadata>
  <rdf:RDF xmlns:dc="http://purl.org/dc/elements/1.1/" xmlns:cc="http://creativecommons.org/ns#" xmlns:rdf="http://www.w3.org/1999/02/22-rdf-syntax-ns#">
   <cc:Work>
    <dc:type rdf:resource="http://purl.org/dc/dcmitype/StillImage"/>
    <dc:date>2026-04-30T15:30:57.013728</dc:date>
    <dc:format>image/svg+xml</dc:format>
    <dc:creator>
     <cc:Agent>
      <dc:title>Matplotlib v3.10.6, https://matplotlib.org/</dc:title>
     </cc:Agent>
    </dc:creator>
   </cc:Work>
  </rdf:RDF>
 </metadata>
 <defs>
  <style type="text/css">*{stroke-linejoin: round; stroke-linecap: butt}</style>
 </defs>
 <g id="figure_1">
  <g id="patch_1">
   <path d="M 0 423.99625 
L 568.21375 423.99625 
L 568.21375 0 
L 0 0 
z
" style="fill: #ffffff"/>
  </g>
  <g id="axes_1">
   <g id="patch_2">
    <path d="M 46.965625 386.44 
L 428.135625 386.44 
L 428.135625 7.2 
L 46.965625 7.2 
z
" style="fill: #ffffff"/>
   </g>
   <g id="matplotlib.axis_1">
    <g id="xtick_1">
     <g id="line2d_1">
      <path d="M 64.291534 386.44 
L 64.291534 7.2 
" clip-path="url(#p7fbd5e9442)" style="fill: none; stroke-dasharray: 2.96,1.28; stroke-dashoffset: 0; stroke: #b0b0b0; stroke-opacity: 0.6; stroke-width: 0.8"/>
     </g>
     <g id="line2d_2">
      <defs>
       <path id="m80e5962a44" d="M 0 0 
L 0 3.5 
" style="stroke: #000000; stroke-width: 0.8"/>
      </defs>
      <g>
       <use xlink:href="#m80e5962a44" x="64.291534" y="386.44" style="stroke: #000000; stroke-width: 0.8"/>
      </g>
     </g>
     <g id="text_1">
      <!-- 0 -->
      <g transform="translate(61.110284 401.038437) scale(0.1 -0.1)">
       <defs>
        <path id="DejaVuSans-30" d="M 2034 4250 
Q 1547 4250 1301 3770 
Q 1056 3291 1056 2328 
Q 1056 1369 1301 889 
Q 1547 409 2034 409 
Q 2525 409 2770 889 
Q 3016 1369 3016 2328 
Q 3016 3291 2770 3770 
Q 2525 4250 2034 4250 
z
M 2034 4750 
Q 2819 4750 3233 4129 
Q 3647 3509 3647 2328 
Q 3647 1150 3233 529 
Q 2819 -91 2034 -91 
Q 1250 -91 836 529 
Q 422 1150 422 2328 
Q 422 3509 836 4129 
Q 1250 4750 2034 4750 
z
" transform="scale(0.015625)"/>
       </defs>
       <use xlink:href="#DejaVuSans-30"/>
      </g>
     </g>
    </g>
    <g id="xtick_2">
     <g id="line2d_3">
      <path d="M 107.611722 386.44 
L 107.611722 7.2 
" clip-path="url(#p7fbd5e9442)" style="fill: none; stroke-dasharray: 2.96,1.28; stroke-dashoffset: 0; stroke: #b0b0b0; stroke-opacity: 0.6; stroke-width: 0.8"/>
     </g>
     <g id="line2d_4">
      <g>
       <use xlink:href="#m80e5962a44" x="107.611722" y="386.44" style="stroke: #000000; stroke-width: 0.8"/>
      </g>
     </g>
     <g id="text_2">
      <!-- 1000 -->
      <g transform="translate(94.886722 401.038437) scale(0.1 -0.1)">
       <defs>
        <path id="DejaVuSans-31" d="M 794 531 
L 1825 531 
L 1825 4091 
L 703 3866 
L 703 4441 
L 1819 4666 
L 2450 4666 
L 2450 531 
L 3481 531 
L 3481 0 
L 794 0 
L 794 531 
z
" transform="scale(0.015625)"/>
       </defs>
       <use xlink:href="#DejaVuSans-31"/>
       <use xlink:href="#DejaVuSans-30" transform="translate(63.623047 0)"/>
       <use xlink:href="#DejaVuSans-30" transform="translate(127.246094 0)"/>
       <use xlink:href="#DejaVuSans-30" transform="translate(190.869141 0)"/>
      </g>
     </g>
    </g>
    <g id="xtick_3">
     <g id="line2d_5">
      <path d="M 150.93191 386.44 
L 150.93191 7.2 
" clip-path="url(#p7fbd5e9442)" style="fill: none; stroke-dasharray: 2.96,1.28; stroke-dashoffset: 0; stroke: #b0b0b0; stroke-opacity: 0.6; stroke-width: 0.8"/>
     </g>
     <g id="line2d_6">
      <g>
       <use xlink:href="#m80e5962a44" x="150.93191" y="386.44" style="stroke: #000000; stroke-width: 0.8"/>
      </g>
     </g>
     <g id="text_3">
      <!-- 2000 -->
      <g transform="translate(138.20691 401.038437) scale(0.1 -0.1)">
       <defs>
        <path id="DejaVuSans-32" d="M 1228 531 
L 3431 531 
L 3431 0 
L 469 0 
L 469 531 
Q 828 903 1448 1529 
Q 2069 2156 2228 2338 
Q 2531 2678 2651 2914 
Q 2772 3150 2772 3378 
Q 2772 3750 2511 3984 
Q 2250 4219 1831 4219 
Q 1534 4219 1204 4116 
Q 875 4013 500 3803 
L 500 4441 
Q 881 4594 1212 4672 
Q 1544 4750 1819 4750 
Q 2544 4750 2975 4387 
Q 3406 4025 3406 3419 
Q 3406 3131 3298 2873 
Q 3191 2616 2906 2266 
Q 2828 2175 2409 1742 
Q 1991 1309 1228 531 
z
" transform="scale(0.015625)"/>
       </defs>
       <use xlink:href="#DejaVuSans-32"/>
       <use xlink:href="#DejaVuSans-30" transform="translate(63.623047 0)"/>
       <use xlink:href="#DejaVuSans-30" transform="translate(127.246094 0)"/>
       <use xlink:href="#DejaVuSans-30" transform="translate(190.869141 0)"/>
      </g>
     </g>
    </g>
    <g id="xtick_4">
     <g id="line2d_7">
      <path d="M 194.252097 386.44 
L 194.252097 7.2 
" clip-path="url(#p7fbd5e9442)" style="fill: none; stroke-dasharray: 2.96,1.28; stroke-dashoffset: 0; stroke: #b0b0b0; stroke-opacity: 0.6; stroke-width: 0.8"/>
     </g>
     <g id="line2d_8">
      <g>
       <use xlink:href="#m80e5962a44" x="194.252097" y="386.44" style="stroke: #000000; stroke-width: 0.8"/>
      </g>
     </g>
     <g id="text_4">
      <!-- 3000 -->
      <g transform="translate(181.527097 401.038437) scale(0.1 -0.1)">
       <defs>
        <path id="DejaVuSans-33" d="M 2597 2516 
Q 3050 2419 3304 2112 
Q 3559 1806 3559 1356 
Q 3559 666 3084 287 
Q 2609 -91 1734 -91 
Q 1441 -91 1130 -33 
Q 819 25 488 141 
L 488 750 
Q 750 597 1062 519 
Q 1375 441 1716 441 
Q 2309 441 2620 675 
Q 2931 909 2931 1356 
Q 2931 1769 2642 2001 
Q 2353 2234 1838 2234 
L 1294 2234 
L 1294 2753 
L 1863 2753 
Q 2328 2753 2575 2939 
Q 2822 3125 2822 3475 
Q 2822 3834 2567 4026 
Q 2313 4219 1838 4219 
Q 1578 4219 1281 4162 
Q 984 4106 628 3988 
L 628 4550 
Q 988 4650 1302 4700 
Q 1616 4750 1894 4750 
Q 2613 4750 3031 4423 
Q 3450 4097 3450 3541 
Q 3450 3153 3228 2886 
Q 3006 2619 2597 2516 
z
" transform="scale(0.015625)"/>
       </defs>
       <use xlink:href="#DejaVuSans-33"/>
       <use xlink:href="#DejaVuSans-30" transform="translate(63.623047 0)"/>
       <use xlink:href="#DejaVuSans-30" transform="translate(127.246094 0)"/>
       <use xlink:href="#DejaVuSans-30" transform="translate(190.869141 0)"/>
      </g>
     </g>
    </g>
    <g id="xtick_5">
     <g id="line2d_9">
      <path d="M 237.572285 386.44 
L 237.572285 7.2 
" clip-path="url(#p7fbd5e9442)" style="fill: none; stroke-dasharray: 2.96,1.28; stroke-dashoffset: 0; stroke: #b0b0b0; stroke-opacity: 0.6; stroke-width: 0.8"/>
     </g>
     <g id="line2d_10">
      <g>
       <use xlink:href="#m80e5962a44" x="237.572285" y="386.44" style="stroke: #000000; stroke-width: 0.8"/>
      </g>
     </g>
     <g id="text_5">
      <!-- 4000 -->
      <g transform="translate(224.847285 401.038437) scale(0.1 -0.1)">
       <defs>
        <path id="DejaVuSans-34" d="M 2419 4116 
L 825 1625 
L 2419 1625 
L 2419 4116 
z
M 2253 4666 
L 3047 4666 
L 3047 1625 
L 3713 1625 
L 3713 1100 
L 3047 1100 
L 3047 0 
L 2419 0 
L 2419 1100 
L 313 1100 
L 313 1709 
L 2253 4666 
z
" transform="scale(0.015625)"/>
       </defs>
       <use xlink:href="#DejaVuSans-34"/>
       <use xlink:href="#DejaVuSans-30" transform="translate(63.623047 0)"/>
       <use xlink:href="#DejaVuSans-30" transform="translate(127.246094 0)"/>
       <use xlink:href="#DejaVuSans-30" transform="translate(190.869141 0)"/>
      </g>
     </g>
    </g>
    <g id="xtick_6">
     <g id="line2d_11">
      <path d="M 280.892473 386.44 
L 280.892473 7.2 
" clip-path="url(#p7fbd5e9442)" style="fill: none; stroke-dasharray: 2.96,1.28; stroke-dashoffset: 0; stroke: #b0b0b0; stroke-opacity: 0.6; stroke-width: 0.8"/>
     </g>
     <g id="line2d_12">
      <g>
       <use xlink:href="#m80e5962a44" x="280.892473" y="386.44" style="stroke: #000000; stroke-width: 0.8"/>
      </g>
     </g>
     <g id="text_6">
      <!-- 5000 -->
      <g transform="translate(268.167473 401.038437) scale(0.1 -0.1)">
       <defs>
        <path id="DejaVuSans-35" d="M 691 4666 
L 3169 4666 
L 3169 4134 
L 1269 4134 
L 1269 2991 
Q 1406 3038 1543 3061 
Q 1681 3084 1819 3084 
Q 2600 3084 3056 2656 
Q 3513 2228 3513 1497 
Q 3513 744 3044 326 
Q 2575 -91 1722 -91 
Q 1428 -91 1123 -41 
Q 819 9 494 109 
L 494 744 
Q 775 591 1075 516 
Q 1375 441 1709 441 
Q 2250 441 2565 725 
Q 2881 1009 2881 1497 
Q 2881 1984 2565 2268 
Q 2250 2553 1709 2553 
Q 1456 2553 1204 2497 
Q 953 2441 691 2322 
L 691 4666 
z
" transform="scale(0.015625)"/>
       </defs>
       <use xlink:href="#DejaVuSans-35"/>
       <use xlink:href="#DejaVuSans-30" transform="translate(63.623047 0)"/>
       <use xlink:href="#DejaVuSans-30" transform="translate(127.246094 0)"/>
       <use xlink:href="#DejaVuSans-30" transform="translate(190.869141 0)"/>
      </g>
     </g>
    </g>
    <g id="xtick_7">
     <g id="line2d_13">
      <path d="M 324.212661 386.44 
L 324.212661 7.2 
" clip-path="url(#p7fbd5e9442)" style="fill: none; stroke-dasharray: 2.96,1.28; stroke-dashoffset: 0; stroke: #b0b0b0; stroke-opacity: 0.6; stroke-width: 0.8"/>
     </g>
     <g id="line2d_14">
      <g>
       <use xlink:href="#m80e5962a44" x="324.212661" y="386.44" style="stroke: #000000; stroke-width: 0.8"/>
      </g>
     </g>
     <g id="text_7">
      <!-- 6000 -->
      <g transform="translate(311.487661 401.038437) scale(0.1 -0.1)">
       <defs>
        <path id="DejaVuSans-36" d="M 2113 2584 
Q 1688 2584 1439 2293 
Q 1191 2003 1191 1497 
Q 1191 994 1439 701 
Q 1688 409 2113 409 
Q 2538 409 2786 701 
Q 3034 994 3034 1497 
Q 3034 2003 2786 2293 
Q 2538 2584 2113 2584 
z
M 3366 4563 
L 3366 3988 
Q 3128 4100 2886 4159 
Q 2644 4219 2406 4219 
Q 1781 4219 1451 3797 
Q 1122 3375 1075 2522 
Q 1259 2794 1537 2939 
Q 1816 3084 2150 3084 
Q 2853 3084 3261 2657 
Q 3669 2231 3669 1497 
Q 3669 778 3244 343 
Q 2819 -91 2113 -91 
Q 1303 -91 875 529 
Q 447 1150 447 2328 
Q 447 3434 972 4092 
Q 1497 4750 2381 4750 
Q 2619 4750 2861 4703 
Q 3103 4656 3366 4563 
z
" transform="scale(0.015625)"/>
       </defs>
       <use xlink:href="#DejaVuSans-36"/>
       <use xlink:href="#DejaVuSans-30" transform="translate(63.623047 0)"/>
       <use xlink:href="#DejaVuSans-30" transform="translate(127.246094 0)"/>
       <use xlink:href="#DejaVuSans-30" transform="translate(190.869141 0)"/>
      </g>
     </g>
    </g>
    <g id="xtick_8">
     <g id="line2d_15">
      <path d="M 367.532848 386.44 
L 367.532848 7.2 
" clip-path="url(#p7fbd5e9442)" style="fill: none; stroke-dasharray: 2.96,1.28; stroke-dashoffset: 0; stroke: #b0b0b0; stroke-opacity: 0.6; stroke-width: 0.8"/>
     </g>
     <g id="line2d_16">
      <g>
       <use xlink:href="#m80e5962a44" x="367.532848" y="386.44" style="stroke: #000000; stroke-width: 0.8"/>
      </g>
     </g>
     <g id="text_8">
      <!-- 7000 -->
      <g transform="translate(354.807848 401.038437) scale(0.1 -0.1)">
       <defs>
        <path id="DejaVuSans-37" d="M 525 4666 
L 3525 4666 
L 3525 4397 
L 1831 0 
L 1172 0 
L 2766 4134 
L 525 4134 
L 525 4666 
z
" transform="scale(0.015625)"/>
       </defs>
       <use xlink:href="#DejaVuSans-37"/>
       <use xlink:href="#DejaVuSans-30" transform="translate(63.623047 0)"/>
       <use xlink:href="#DejaVuSans-30" transform="translate(127.246094 0)"/>
       <use xlink:href="#DejaVuSans-30" transform="translate(190.869141 0)"/>
      </g>
     </g>
    </g>
    <g id="xtick_9">
     <g id="line2d_17">
      <path d="M 410.853036 386.44 
L 410.853036 7.2 
" clip-path="url(#p7fbd5e9442)" style="fill: none; stroke-dasharray: 2.96,1.28; stroke-dashoffset: 0; stroke: #b0b0b0; stroke-opacity: 0.6; stroke-width: 0.8"/>
     </g>
     <g id="line2d_18">
      <g>
       <use xlink:href="#m80e5962a44" x="410.853036" y="386.44" style="stroke: #000000; stroke-width: 0.8"/>
      </g>
     </g>
     <g id="text_9">
      <!-- 8000 -->
      <g transform="translate(398.128036 401.038437) scale(0.1 -0.1)">
       <defs>
        <path id="DejaVuSans-38" d="M 2034 2216 
Q 1584 2216 1326 1975 
Q 1069 1734 1069 1313 
Q 1069 891 1326 650 
Q 1584 409 2034 409 
Q 2484 409 2743 651 
Q 3003 894 3003 1313 
Q 3003 1734 2745 1975 
Q 2488 2216 2034 2216 
z
M 1403 2484 
Q 997 2584 770 2862 
Q 544 3141 544 3541 
Q 544 4100 942 4425 
Q 1341 4750 2034 4750 
Q 2731 4750 3128 4425 
Q 3525 4100 3525 3541 
Q 3525 3141 3298 2862 
Q 3072 2584 2669 2484 
Q 3125 2378 3379 2068 
Q 3634 1759 3634 1313 
Q 3634 634 3220 271 
Q 2806 -91 2034 -91 
Q 1263 -91 848 271 
Q 434 634 434 1313 
Q 434 1759 690 2068 
Q 947 2378 1403 2484 
z
M 1172 3481 
Q 1172 3119 1398 2916 
Q 1625 2713 2034 2713 
Q 2441 2713 2670 2916 
Q 2900 3119 2900 3481 
Q 2900 3844 2670 4047 
Q 2441 4250 2034 4250 
Q 1625 4250 1398 4047 
Q 1172 3844 1172 3481 
z
" transform="scale(0.015625)"/>
       </defs>
       <use xlink:href="#DejaVuSans-38"/>
       <use xlink:href="#DejaVuSans-30" transform="translate(63.623047 0)"/>
       <use xlink:href="#DejaVuSans-30" transform="translate(127.246094 0)"/>
       <use xlink:href="#DejaVuSans-30" transform="translate(190.869141 0)"/>
      </g>
     </g>
    </g>
    <g id="text_10">
     <!-- Distance from terminus [nt] -->
     <g transform="translate(168.051406 414.716562) scale(0.1 -0.1)">
      <defs>
       <path id="DejaVuSans-44" d="M 1259 4147 
L 1259 519 
L 2022 519 
Q 2988 519 3436 956 
Q 3884 1394 3884 2338 
Q 3884 3275 3436 3711 
Q 2988 4147 2022 4147 
L 1259 4147 
z
M 628 4666 
L 1925 4666 
Q 3281 4666 3915 4102 
Q 4550 3538 4550 2338 
Q 4550 1131 3912 565 
Q 3275 0 1925 0 
L 628 0 
L 628 4666 
z
" transform="scale(0.015625)"/>
       <path id="DejaVuSans-69" d="M 603 3500 
L 1178 3500 
L 1178 0 
L 603 0 
L 603 3500 
z
M 603 4863 
L 1178 4863 
L 1178 4134 
L 603 4134 
L 603 4863 
z
" transform="scale(0.015625)"/>
       <path id="DejaVuSans-73" d="M 2834 3397 
L 2834 2853 
Q 2591 2978 2328 3040 
Q 2066 3103 1784 3103 
Q 1356 3103 1142 2972 
Q 928 2841 928 2578 
Q 928 2378 1081 2264 
Q 1234 2150 1697 2047 
L 1894 2003 
Q 2506 1872 2764 1633 
Q 3022 1394 3022 966 
Q 3022 478 2636 193 
Q 2250 -91 1575 -91 
Q 1294 -91 989 -36 
Q 684 19 347 128 
L 347 722 
Q 666 556 975 473 
Q 1284 391 1588 391 
Q 1994 391 2212 530 
Q 2431 669 2431 922 
Q 2431 1156 2273 1281 
Q 2116 1406 1581 1522 
L 1381 1569 
Q 847 1681 609 1914 
Q 372 2147 372 2553 
Q 372 3047 722 3315 
Q 1072 3584 1716 3584 
Q 2034 3584 2315 3537 
Q 2597 3491 2834 3397 
z
" transform="scale(0.015625)"/>
       <path id="DejaVuSans-74" d="M 1172 4494 
L 1172 3500 
L 2356 3500 
L 2356 3053 
L 1172 3053 
L 1172 1153 
Q 1172 725 1289 603 
Q 1406 481 1766 481 
L 2356 481 
L 2356 0 
L 1766 0 
Q 1100 0 847 248 
Q 594 497 594 1153 
L 594 3053 
L 172 3053 
L 172 3500 
L 594 3500 
L 594 4494 
L 1172 4494 
z
" transform="scale(0.015625)"/>
       <path id="DejaVuSans-61" d="M 2194 1759 
Q 1497 1759 1228 1600 
Q 959 1441 959 1056 
Q 959 750 1161 570 
Q 1363 391 1709 391 
Q 2188 391 2477 730 
Q 2766 1069 2766 1631 
L 2766 1759 
L 2194 1759 
z
M 3341 1997 
L 3341 0 
L 2766 0 
L 2766 531 
Q 2569 213 2275 61 
Q 1981 -91 1556 -91 
Q 1019 -91 701 211 
Q 384 513 384 1019 
Q 384 1609 779 1909 
Q 1175 2209 1959 2209 
L 2766 2209 
L 2766 2266 
Q 2766 2663 2505 2880 
Q 2244 3097 1772 3097 
Q 1472 3097 1187 3025 
Q 903 2953 641 2809 
L 641 3341 
Q 956 3463 1253 3523 
Q 1550 3584 1831 3584 
Q 2591 3584 2966 3190 
Q 3341 2797 3341 1997 
z
" transform="scale(0.015625)"/>
       <path id="DejaVuSans-6e" d="M 3513 2113 
L 3513 0 
L 2938 0 
L 2938 2094 
Q 2938 2591 2744 2837 
Q 2550 3084 2163 3084 
Q 1697 3084 1428 2787 
Q 1159 2491 1159 1978 
L 1159 0 
L 581 0 
L 581 3500 
L 1159 3500 
L 1159 2956 
Q 1366 3272 1645 3428 
Q 1925 3584 2291 3584 
Q 2894 3584 3203 3211 
Q 3513 2838 3513 2113 
z
" transform="scale(0.015625)"/>
       <path id="DejaVuSans-63" d="M 3122 3366 
L 3122 2828 
Q 2878 2963 2633 3030 
Q 2388 3097 2138 3097 
Q 1578 3097 1268 2742 
Q 959 2388 959 1747 
Q 959 1106 1268 751 
Q 1578 397 2138 397 
Q 2388 397 2633 464 
Q 2878 531 3122 666 
L 3122 134 
Q 2881 22 2623 -34 
Q 2366 -91 2075 -91 
Q 1284 -91 818 406 
Q 353 903 353 1747 
Q 353 2603 823 3093 
Q 1294 3584 2113 3584 
Q 2378 3584 2631 3529 
Q 2884 3475 3122 3366 
z
" transform="scale(0.015625)"/>
       <path id="DejaVuSans-65" d="M 3597 1894 
L 3597 1613 
L 953 1613 
Q 991 1019 1311 708 
Q 1631 397 2203 397 
Q 2534 397 2845 478 
Q 3156 559 3463 722 
L 3463 178 
Q 3153 47 2828 -22 
Q 2503 -91 2169 -91 
Q 1331 -91 842 396 
Q 353 884 353 1716 
Q 353 2575 817 3079 
Q 1281 3584 2069 3584 
Q 2775 3584 3186 3129 
Q 3597 2675 3597 1894 
z
M 3022 2063 
Q 3016 2534 2758 2815 
Q 2500 3097 2075 3097 
Q 1594 3097 1305 2825 
Q 1016 2553 972 2059 
L 3022 2063 
z
" transform="scale(0.015625)"/>
       <path id="DejaVuSans-20" transform="scale(0.015625)"/>
       <path id="DejaVuSans-66" d="M 2375 4863 
L 2375 4384 
L 1825 4384 
Q 1516 4384 1395 4259 
Q 1275 4134 1275 3809 
L 1275 3500 
L 2222 3500 
L 2222 3053 
L 1275 3053 
L 1275 0 
L 697 0 
L 697 3053 
L 147 3053 
L 147 3500 
L 697 3500 
L 697 3744 
Q 697 4328 969 4595 
Q 1241 4863 1831 4863 
L 2375 4863 
z
" transform="scale(0.015625)"/>
       <path id="DejaVuSans-72" d="M 2631 2963 
Q 2534 3019 2420 3045 
Q 2306 3072 2169 3072 
Q 1681 3072 1420 2755 
Q 1159 2438 1159 1844 
L 1159 0 
L 581 0 
L 581 3500 
L 1159 3500 
L 1159 2956 
Q 1341 3275 1631 3429 
Q 1922 3584 2338 3584 
Q 2397 3584 2469 3576 
Q 2541 3569 2628 3553 
L 2631 2963 
z
" transform="scale(0.015625)"/>
       <path id="DejaVuSans-6f" d="M 1959 3097 
Q 1497 3097 1228 2736 
Q 959 2375 959 1747 
Q 959 1119 1226 758 
Q 1494 397 1959 397 
Q 2419 397 2687 759 
Q 2956 1122 2956 1747 
Q 2956 2369 2687 2733 
Q 2419 3097 1959 3097 
z
M 1959 3584 
Q 2709 3584 3137 3096 
Q 3566 2609 3566 1747 
Q 3566 888 3137 398 
Q 2709 -91 1959 -91 
Q 1206 -91 779 398 
Q 353 888 353 1747 
Q 353 2609 779 3096 
Q 1206 3584 1959 3584 
z
" transform="scale(0.015625)"/>
       <path id="DejaVuSans-6d" d="M 3328 2828 
Q 3544 3216 3844 3400 
Q 4144 3584 4550 3584 
Q 5097 3584 5394 3201 
Q 5691 2819 5691 2113 
L 5691 0 
L 5113 0 
L 5113 2094 
Q 5113 2597 4934 2840 
Q 4756 3084 4391 3084 
Q 3944 3084 3684 2787 
Q 3425 2491 3425 1978 
L 3425 0 
L 2847 0 
L 2847 2094 
Q 2847 2600 2669 2842 
Q 2491 3084 2119 3084 
Q 1678 3084 1418 2786 
Q 1159 2488 1159 1978 
L 1159 0 
L 581 0 
L 581 3500 
L 1159 3500 
L 1159 2956 
Q 1356 3278 1631 3431 
Q 1906 3584 2284 3584 
Q 2666 3584 2933 3390 
Q 3200 3197 3328 2828 
z
" transform="scale(0.015625)"/>
       <path id="DejaVuSans-75" d="M 544 1381 
L 544 3500 
L 1119 3500 
L 1119 1403 
Q 1119 906 1312 657 
Q 1506 409 1894 409 
Q 2359 409 2629 706 
Q 2900 1003 2900 1516 
L 2900 3500 
L 3475 3500 
L 3475 0 
L 2900 0 
L 2900 538 
Q 2691 219 2414 64 
Q 2138 -91 1772 -91 
Q 1169 -91 856 284 
Q 544 659 544 1381 
z
M 1991 3584 
L 1991 3584 
z
" transform="scale(0.015625)"/>
       <path id="DejaVuSans-5b" d="M 550 4863 
L 1875 4863 
L 1875 4416 
L 1125 4416 
L 1125 -397 
L 1875 -397 
L 1875 -844 
L 550 -844 
L 550 4863 
z
" transform="scale(0.015625)"/>
       <path id="DejaVuSans-5d" d="M 1947 4863 
L 1947 -844 
L 622 -844 
L 622 -397 
L 1369 -397 
L 1369 4416 
L 622 4416 
L 622 4863 
L 1947 4863 
z
" transform="scale(0.015625)"/>
      </defs>
      <use xlink:href="#DejaVuSans-44"/>
      <use xlink:href="#DejaVuSans-69" transform="translate(77.001953 0)"/>
      <use xlink:href="#DejaVuSans-73" transform="translate(104.785156 0)"/>
      <use xlink:href="#DejaVuSans-74" transform="translate(156.884766 0)"/>
      <use xlink:href="#DejaVuSans-61" transform="translate(196.09375 0)"/>
      <use xlink:href="#DejaVuSans-6e" transform="translate(257.373047 0)"/>
      <use xlink:href="#DejaVuSans-63" transform="translate(320.751953 0)"/>
      <use xlink:href="#DejaVuSans-65" transform="translate(375.732422 0)"/>
      <use xlink:href="#DejaVuSans-20" transform="translate(437.255859 0)"/>
      <use xlink:href="#DejaVuSans-66" transform="translate(469.042969 0)"/>
      <use xlink:href="#DejaVuSans-72" transform="translate(504.248047 0)"/>
      <use xlink:href="#DejaVuSans-6f" transform="translate(543.111328 0)"/>
      <use xlink:href="#DejaVuSans-6d" transform="translate(604.292969 0)"/>
      <use xlink:href="#DejaVuSans-20" transform="translate(701.705078 0)"/>
      <use xlink:href="#DejaVuSans-74" transform="translate(733.492188 0)"/>
      <use xlink:href="#DejaVuSans-65" transform="translate(772.701172 0)"/>
      <use xlink:href="#DejaVuSans-72" transform="translate(834.224609 0)"/>
      <use xlink:href="#DejaVuSans-6d" transform="translate(873.587891 0)"/>
      <use xlink:href="#DejaVuSans-69" transform="translate(971 0)"/>
      <use xlink:href="#DejaVuSans-6e" transform="translate(998.783203 0)"/>
      <use xlink:href="#DejaVuSans-75" transform="translate(1062.162109 0)"/>
      <use xlink:href="#DejaVuSans-73" transform="translate(1125.541016 0)"/>
      <use xlink:href="#DejaVuSans-20" transform="translate(1177.640625 0)"/>
      <use xlink:href="#DejaVuSans-5b" transform="translate(1209.427734 0)"/>
      <use xlink:href="#DejaVuSans-6e" transform="translate(1248.441406 0)"/>
      <use xlink:href="#DejaVuSans-74" transform="translate(1311.820312 0)"/>
      <use xlink:href="#DejaVuSans-5d" transform="translate(1351.029297 0)"/>
     </g>
    </g>
   </g>
   <g id="matplotlib.axis_2">
    <g id="ytick_1">
     <g id="line2d_19">
      <path d="M 46.965625 369.201818 
L 428.135625 369.201818 
" clip-path="url(#p7fbd5e9442)" style="fill: none; stroke-dasharray: 2.96,1.28; stroke-dashoffset: 0; stroke: #b0b0b0; stroke-opacity: 0.6; stroke-width: 0.8"/>
     </g>
     <g id="line2d_20">
      <defs>
       <path id="me41ad80d89" d="M 0 0 
L -3.5 0 
" style="stroke: #000000; stroke-width: 0.8"/>
      </defs>
      <g>
       <use xlink:href="#me41ad80d89" x="46.965625" y="369.201818" style="stroke: #000000; stroke-width: 0.8"/>
      </g>
     </g>
     <g id="text_11">
      <!-- 0 -->
      <g transform="translate(33.603125 373.001037) scale(0.1 -0.1)">
       <use xlink:href="#DejaVuSans-30"/>
      </g>
     </g>
    </g>
    <g id="ytick_2">
     <g id="line2d_21">
      <path d="M 46.965625 312.528344 
L 428.135625 312.528344 
" clip-path="url(#p7fbd5e9442)" style="fill: none; stroke-dasharray: 2.96,1.28; stroke-dashoffset: 0; stroke: #b0b0b0; stroke-opacity: 0.6; stroke-width: 0.8"/>
     </g>
     <g id="line2d_22">
      <g>
       <use xlink:href="#me41ad80d89" x="46.965625" y="312.528344" style="stroke: #000000; stroke-width: 0.8"/>
      </g>
     </g>
     <g id="text_12">
      <!-- 20 -->
      <g transform="translate(27.240625 316.327562) scale(0.1 -0.1)">
       <use xlink:href="#DejaVuSans-32"/>
       <use xlink:href="#DejaVuSans-30" transform="translate(63.623047 0)"/>
      </g>
     </g>
    </g>
    <g id="ytick_3">
     <g id="line2d_23">
      <path d="M 46.965625 255.854869 
L 428.135625 255.854869 
" clip-path="url(#p7fbd5e9442)" style="fill: none; stroke-dasharray: 2.96,1.28; stroke-dashoffset: 0; stroke: #b0b0b0; stroke-opacity: 0.6; stroke-width: 0.8"/>
     </g>
     <g id="line2d_24">
      <g>
       <use xlink:href="#me41ad80d89" x="46.965625" y="255.854869" style="stroke: #000000; stroke-width: 0.8"/>
      </g>
     </g>
     <g id="text_13">
      <!-- 40 -->
      <g transform="translate(27.240625 259.654088) scale(0.1 -0.1)">
       <use xlink:href="#DejaVuSans-34"/>
       <use xlink:href="#DejaVuSans-30" transform="translate(63.623047 0)"/>
      </g>
     </g>
    </g>
    <g id="ytick_4">
     <g id="line2d_25">
      <path d="M 46.965625 199.181395 
L 428.135625 199.181395 
" clip-path="url(#p7fbd5e9442)" style="fill: none; stroke-dasharray: 2.96,1.28; stroke-dashoffset: 0; stroke: #b0b0b0; stroke-opacity: 0.6; stroke-width: 0.8"/>
     </g>
     <g id="line2d_26">
      <g>
       <use xlink:href="#me41ad80d89" x="46.965625" y="199.181395" style="stroke: #000000; stroke-width: 0.8"/>
      </g>
     </g>
     <g id="text_14">
      <!-- 60 -->
      <g transform="translate(27.240625 202.980614) scale(0.1 -0.1)">
       <use xlink:href="#DejaVuSans-36"/>
       <use xlink:href="#DejaVuSans-30" transform="translate(63.623047 0)"/>
      </g>
     </g>
    </g>
    <g id="ytick_5">
     <g id="line2d_27">
      <path d="M 46.965625 142.50792 
L 428.135625 142.50792 
" clip-path="url(#p7fbd5e9442)" style="fill: none; stroke-dasharray: 2.96,1.28; stroke-dashoffset: 0; stroke: #b0b0b0; stroke-opacity: 0.6; stroke-width: 0.8"/>
     </g>
     <g id="line2d_28">
      <g>
       <use xlink:href="#me41ad80d89" x="46.965625" y="142.50792" style="stroke: #000000; stroke-width: 0.8"/>
      </g>
     </g>
     <g id="text_15">
      <!-- 80 -->
      <g transform="translate(27.240625 146.307139) scale(0.1 -0.1)">
       <use xlink:href="#DejaVuSans-38"/>
       <use xlink:href="#DejaVuSans-30" transform="translate(63.623047 0)"/>
      </g>
     </g>
    </g>
    <g id="ytick_6">
     <g id="line2d_29">
      <path d="M 46.965625 85.834446 
L 428.135625 85.834446 
" clip-path="url(#p7fbd5e9442)" style="fill: none; stroke-dasharray: 2.96,1.28; stroke-dashoffset: 0; stroke: #b0b0b0; stroke-opacity: 0.6; stroke-width: 0.8"/>
     </g>
     <g id="line2d_30">
      <g>
       <use xlink:href="#me41ad80d89" x="46.965625" y="85.834446" style="stroke: #000000; stroke-width: 0.8"/>
      </g>
     </g>
     <g id="text_16">
      <!-- 100 -->
      <g transform="translate(20.878125 89.633665) scale(0.1 -0.1)">
       <use xlink:href="#DejaVuSans-31"/>
       <use xlink:href="#DejaVuSans-30" transform="translate(63.623047 0)"/>
       <use xlink:href="#DejaVuSans-30" transform="translate(127.246094 0)"/>
      </g>
     </g>
    </g>
    <g id="ytick_7">
     <g id="line2d_31">
      <path d="M 46.965625 29.160971 
L 428.135625 29.160971 
" clip-path="url(#p7fbd5e9442)" style="fill: none; stroke-dasharray: 2.96,1.28; stroke-dashoffset: 0; stroke: #b0b0b0; stroke-opacity: 0.6; stroke-width: 0.8"/>
     </g>
     <g id="line2d_32">
      <g>
       <use xlink:href="#me41ad80d89" x="46.965625" y="29.160971" style="stroke: #000000; stroke-width: 0.8"/>
      </g>
     </g>
     <g id="text_17">
      <!-- 120 -->
      <g transform="translate(20.878125 32.96019) scale(0.1 -0.1)">
       <use xlink:href="#DejaVuSans-31"/>
       <use xlink:href="#DejaVuSans-32" transform="translate(63.623047 0)"/>
       <use xlink:href="#DejaVuSans-30" transform="translate(127.246094 0)"/>
      </g>
     </g>
    </g>
    <g id="text_18">
     <!-- Average cumulative count -->
     <g transform="translate(14.798438 262.4325) rotate(-90) scale(0.1 -0.1)">
      <defs>
       <path id="DejaVuSans-41" d="M 2188 4044 
L 1331 1722 
L 3047 1722 
L 2188 4044 
z
M 1831 4666 
L 2547 4666 
L 4325 0 
L 3669 0 
L 3244 1197 
L 1141 1197 
L 716 0 
L 50 0 
L 1831 4666 
z
" transform="scale(0.015625)"/>
       <path id="DejaVuSans-76" d="M 191 3500 
L 800 3500 
L 1894 563 
L 2988 3500 
L 3597 3500 
L 2284 0 
L 1503 0 
L 191 3500 
z
" transform="scale(0.015625)"/>
       <path id="DejaVuSans-67" d="M 2906 1791 
Q 2906 2416 2648 2759 
Q 2391 3103 1925 3103 
Q 1463 3103 1205 2759 
Q 947 2416 947 1791 
Q 947 1169 1205 825 
Q 1463 481 1925 481 
Q 2391 481 2648 825 
Q 2906 1169 2906 1791 
z
M 3481 434 
Q 3481 -459 3084 -895 
Q 2688 -1331 1869 -1331 
Q 1566 -1331 1297 -1286 
Q 1028 -1241 775 -1147 
L 775 -588 
Q 1028 -725 1275 -790 
Q 1522 -856 1778 -856 
Q 2344 -856 2625 -561 
Q 2906 -266 2906 331 
L 2906 616 
Q 2728 306 2450 153 
Q 2172 0 1784 0 
Q 1141 0 747 490 
Q 353 981 353 1791 
Q 353 2603 747 3093 
Q 1141 3584 1784 3584 
Q 2172 3584 2450 3431 
Q 2728 3278 2906 2969 
L 2906 3500 
L 3481 3500 
L 3481 434 
z
" transform="scale(0.015625)"/>
       <path id="DejaVuSans-6c" d="M 603 4863 
L 1178 4863 
L 1178 0 
L 603 0 
L 603 4863 
z
" transform="scale(0.015625)"/>
      </defs>
      <use xlink:href="#DejaVuSans-41"/>
      <use xlink:href="#DejaVuSans-76" transform="translate(62.533203 0)"/>
      <use xlink:href="#DejaVuSans-65" transform="translate(121.712891 0)"/>
      <use xlink:href="#DejaVuSans-72" transform="translate(183.236328 0)"/>
      <use xlink:href="#DejaVuSans-61" transform="translate(224.349609 0)"/>
      <use xlink:href="#DejaVuSans-67" transform="translate(285.628906 0)"/>
      <use xlink:href="#DejaVuSans-65" transform="translate(349.105469 0)"/>
      <use xlink:href="#DejaVuSans-20" transform="translate(410.628906 0)"/>
      <use xlink:href="#DejaVuSans-63" transform="translate(442.416016 0)"/>
      <use xlink:href="#DejaVuSans-75" transform="translate(497.396484 0)"/>
      <use xlink:href="#DejaVuSans-6d" transform="translate(560.775391 0)"/>
      <use xlink:href="#DejaVuSans-75" transform="translate(658.1875 0)"/>
      <use xlink:href="#DejaVuSans-6c" transform="translate(721.566406 0)"/>
      <use xlink:href="#DejaVuSans-61" transform="translate(749.349609 0)"/>
      <use xlink:href="#DejaVuSans-74" transform="translate(810.628906 0)"/>
      <use xlink:href="#DejaVuSans-69" transform="translate(849.837891 0)"/>
      <use xlink:href="#DejaVuSans-76" transform="translate(877.621094 0)"/>
      <use xlink:href="#DejaVuSans-65" transform="translate(936.800781 0)"/>
      <use xlink:href="#DejaVuSans-20" transform="translate(998.324219 0)"/>
      <use xlink:href="#DejaVuSans-63" transform="translate(1030.111328 0)"/>
      <use xlink:href="#DejaVuSans-6f" transform="translate(1085.091797 0)"/>
      <use xlink:href="#DejaVuSans-75" transform="translate(1146.273438 0)"/>
      <use xlink:href="#DejaVuSans-6e" transform="translate(1209.652344 0)"/>
      <use xlink:href="#DejaVuSans-74" transform="translate(1273.03125 0)"/>
     </g>
    </g>
   </g>
   <g id="line2d_33">
    <path d="M 64.291534 369.201818 
L 70.962843 369.201818 
L 71.092804 368.25726 
L 71.309405 368.25726 
L 71.439365 367.312702 
L 71.872567 367.312702 
L 72.002528 366.368144 
L 72.435729 366.368144 
L 72.56569 365.423587 
L 72.738971 365.423587 
L 72.868931 364.479029 
L 73.345453 364.479029 
L 73.475414 363.534471 
L 76.984349 363.534471 
L 77.11431 362.589913 
L 81.056447 362.589913 
L 81.186407 361.645355 
L 81.922851 361.645355 
L 82.052811 360.700797 
L 82.962535 360.700797 
L 83.092496 359.756239 
L 94.788946 359.756239 
L 94.918907 358.811681 
L 95.871951 358.811681 
L 96.001912 357.867123 
L 98.947684 357.867123 
L 99.077645 356.922565 
L 104.319388 356.922565 
L 104.449348 355.978007 
L 104.665949 355.978007 
L 104.79591 355.03345 
L 104.96919 355.03345 
L 105.099151 354.088892 
L 105.272432 354.088892 
L 105.402392 353.144334 
L 105.922235 353.144334 
L 106.052195 352.199776 
L 106.875279 352.199776 
L 107.005239 351.255218 
L 107.308481 351.255218 
L 107.438441 350.31066 
L 107.525081 350.31066 
L 107.698362 348.421544 
L 107.958283 348.421544 
L 108.088244 347.476986 
L 116.752281 347.476986 
L 116.882242 346.532428 
L 120.867699 346.532428 
L 120.99766 345.58787 
L 121.170941 345.58787 
L 121.300901 344.643313 
L 121.777423 344.643313 
L 121.907384 343.698755 
L 127.235767 343.698755 
L 127.365727 342.754197 
L 133.300593 342.754197 
L 133.430554 341.809639 
L 142.311192 341.809639 
L 142.441153 340.865081 
L 142.614434 340.865081 
L 142.744394 339.920523 
L 142.917675 339.920523 
L 143.047635 338.975965 
L 144.303921 338.975965 
L 144.433881 338.031407 
L 148.029457 338.031407 
L 148.159418 337.086849 
L 150.195466 337.086849 
L 150.325427 336.142291 
L 150.542028 336.142291 
L 150.671988 335.197733 
L 152.014914 335.197733 
L 152.144875 334.253176 
L 154.440845 334.253176 
L 154.570805 333.308618 
L 158.946144 333.308618 
L 159.076105 332.36406 
L 159.249386 332.36406 
L 159.379346 331.419502 
L 159.899188 331.419502 
L 160.029149 330.474944 
L 160.20243 330.474944 
L 160.33239 329.530386 
L 160.505671 329.530386 
L 160.635632 328.585828 
L 161.675316 328.585828 
L 161.805277 327.64127 
L 163.581404 327.64127 
L 163.711365 326.696712 
L 163.971286 326.696712 
L 164.101247 325.752154 
L 168.043384 325.752154 
L 168.173344 324.807597 
L 174.671372 324.807597 
L 174.801333 323.863039 
L 180.129716 323.863039 
L 180.259677 322.918481 
L 180.866159 322.918481 
L 180.99612 321.973923 
L 181.645923 321.973923 
L 181.775883 321.029365 
L 184.375095 321.029365 
L 184.505055 320.084807 
L 185.63138 320.084807 
L 185.761341 319.140249 
L 185.977941 319.140249 
L 186.107902 318.195691 
L 186.801025 318.195691 
L 186.930986 317.251133 
L 188.577153 317.251133 
L 188.707113 316.306575 
L 191.912807 316.306575 
L 192.042768 315.362017 
L 199.363879 315.362017 
L 199.49384 314.41746 
L 245.933081 314.41746 
L 246.063042 313.472902 
L 249.442017 313.472902 
L 249.571977 312.528344 
L 410.809716 312.528344 
L 410.809716 312.528344 
" clip-path="url(#p7fbd5e9442)" style="fill: none; stroke: #add8e6; stroke-width: 2; stroke-linecap: square"/>
   </g>
   <g id="line2d_34">
    <path d="M 64.291534 369.201818 
L 64.768056 369.201818 
L 64.898017 368.25726 
L 65.027977 368.25726 
L 65.157938 367.312702 
L 66.154302 367.312702 
L 66.284263 366.368144 
L 66.500864 366.368144 
L 66.630824 365.423587 
L 66.717465 365.423587 
L 66.847425 364.479029 
L 66.977386 364.479029 
L 67.150666 362.589913 
L 67.497228 362.589913 
L 67.670509 360.700797 
L 67.97375 360.700797 
L 68.103711 359.756239 
L 68.493592 359.756239 
L 68.623553 358.811681 
L 69.403316 358.811681 
L 69.533277 357.867123 
L 69.663237 357.867123 
L 69.793198 356.922565 
L 69.923158 356.922565 
L 70.096439 355.03345 
L 70.18308 355.03345 
L 70.35636 353.144334 
L 70.486321 353.144334 
L 70.616282 352.199776 
L 70.659602 352.199776 
L 70.789562 351.255218 
L 70.962843 351.255218 
L 71.136124 349.366102 
L 71.222764 349.366102 
L 71.396045 347.476986 
L 71.915887 347.476986 
L 72.045848 346.532428 
L 72.175808 346.532428 
L 72.305769 345.58787 
L 72.47905 345.58787 
L 72.60901 344.643313 
L 72.782291 344.643313 
L 72.912251 343.698755 
L 73.388774 343.698755 
L 73.518734 342.754197 
L 74.428458 342.754197 
L 74.558419 341.809639 
L 75.468143 341.809639 
L 75.598103 340.865081 
L 75.684743 340.865081 
L 75.814704 339.920523 
L 76.421187 339.920523 
L 76.551147 338.975965 
L 76.724428 338.975965 
L 76.897709 337.086849 
L 77.027669 337.086849 
L 77.20095 335.197733 
L 77.807433 335.197733 
L 77.937393 334.253176 
L 78.067354 334.253176 
L 78.197314 333.308618 
L 78.327275 333.308618 
L 78.457235 332.36406 
L 78.847117 332.36406 
L 78.977078 331.419502 
L 79.107038 331.419502 
L 79.236999 330.474944 
L 79.280319 330.474944 
L 79.49692 327.64127 
L 79.58356 327.64127 
L 79.713521 326.696712 
L 80.579925 326.696712 
L 80.709885 325.752154 
L 81.099767 325.752154 
L 81.229728 324.807597 
L 81.359688 324.807597 
L 81.489649 323.863039 
L 81.966171 323.863039 
L 82.096131 322.918481 
L 82.226092 322.918481 
L 82.356052 321.973923 
L 82.486013 321.973923 
L 82.615974 321.029365 
L 83.005855 321.029365 
L 83.135816 320.084807 
L 83.309097 320.084807 
L 83.439057 319.140249 
L 83.612338 319.140249 
L 83.742298 318.195691 
L 83.785619 318.195691 
L 83.915579 317.251133 
L 84.348781 317.251133 
L 84.478742 315.362017 
L 84.522062 315.362017 
L 84.652022 314.41746 
L 84.868623 314.41746 
L 85.041904 312.528344 
L 85.431786 312.528344 
L 85.561746 311.583786 
L 85.778347 311.583786 
L 85.908308 310.639228 
L 85.994948 310.639228 
L 86.124909 309.69467 
L 86.818032 309.69467 
L 86.991312 307.805554 
L 87.641115 307.805554 
L 87.771076 306.860996 
L 87.901036 306.860996 
L 88.030997 305.916438 
L 88.160958 305.916438 
L 88.290918 304.97188 
L 88.420879 304.97188 
L 88.550839 304.027323 
L 88.63748 304.027323 
L 88.76744 303.082765 
L 89.114002 303.082765 
L 89.243962 302.138207 
L 89.373923 302.138207 
L 89.503883 301.193649 
L 89.633844 301.193649 
L 89.850445 298.359975 
L 89.937085 298.359975 
L 90.067046 297.415417 
L 90.283647 297.415417 
L 90.456927 295.526301 
L 90.673528 295.526301 
L 90.803489 294.581743 
L 90.846809 294.581743 
L 90.97677 293.637186 
L 91.06341 293.637186 
L 91.193371 292.692628 
L 91.366651 292.692628 
L 91.496612 291.74807 
L 91.539932 291.74807 
L 91.669893 290.803512 
L 91.799853 290.803512 
L 91.929814 289.858954 
L 92.059774 289.858954 
L 92.189735 288.914396 
L 92.233055 288.914396 
L 92.406336 287.02528 
L 92.622937 287.02528 
L 92.752897 286.080722 
L 92.882858 286.080722 
L 93.012819 285.136164 
L 93.056139 285.136164 
L 93.22942 283.247049 
L 93.44602 283.247049 
L 93.575981 282.302491 
L 94.269104 282.302491 
L 94.399065 281.357933 
L 94.832266 281.357933 
L 94.962227 279.468817 
L 95.092188 279.468817 
L 95.222148 278.524259 
L 95.352109 278.524259 
L 95.482069 277.579701 
L 95.61203 277.579701 
L 95.785311 275.690585 
L 95.871951 275.690585 
L 96.045232 273.801469 
L 96.435113 273.801469 
L 96.565074 272.856912 
L 96.998276 272.856912 
L 97.128236 271.912354 
L 98.124601 271.912354 
L 98.254561 270.967796 
L 98.991004 270.967796 
L 99.164285 269.07868 
L 99.294246 269.07868 
L 99.424206 268.134122 
L 99.684127 268.134122 
L 99.814088 267.189564 
L 99.857408 267.189564 
L 99.987369 266.245006 
L 100.117329 266.245006 
L 100.29061 264.35589 
L 100.37725 264.35589 
L 100.507211 263.411333 
L 100.637172 263.411333 
L 100.810452 261.522217 
L 100.897093 261.522217 
L 101.027053 260.577659 
L 101.157014 260.577659 
L 101.286974 259.633101 
L 101.590216 259.633101 
L 101.720176 258.688543 
L 101.850137 258.688543 
L 101.980097 257.743985 
L 102.153378 257.743985 
L 102.283339 256.799427 
L 102.413299 256.799427 
L 102.54326 255.854869 
L 103.279703 255.854869 
L 103.409664 254.910311 
L 103.539624 254.910311 
L 103.669585 253.965753 
L 103.799545 253.965753 
L 103.929506 253.021196 
L 104.189427 253.021196 
L 104.319388 252.076638 
L 104.362708 252.076638 
L 104.492668 251.13208 
L 104.579309 251.13208 
L 104.752589 249.242964 
L 105.012511 249.242964 
L 105.142471 248.298406 
L 105.315752 248.298406 
L 105.445712 247.353848 
L 105.965555 247.353848 
L 106.138835 245.464732 
L 106.788638 245.464732 
L 106.961919 243.575616 
L 107.048559 243.575616 
L 107.17852 242.631059 
L 107.351801 242.631059 
L 107.481761 241.686501 
L 107.568402 241.686501 
L 107.741682 239.797385 
L 108.001604 239.797385 
L 108.131564 238.852827 
L 108.261525 238.852827 
L 108.391485 237.908269 
L 108.521446 237.908269 
L 108.651406 236.963711 
L 108.781367 236.963711 
L 108.954648 235.074595 
L 109.301209 235.074595 
L 109.43117 234.130037 
L 109.821051 234.130037 
L 109.951012 232.240922 
L 110.600815 232.240922 
L 110.730775 231.296364 
L 110.860736 231.296364 
L 110.990696 230.351806 
L 111.597179 230.351806 
L 111.72714 229.407248 
L 112.983425 229.407248 
L 113.113386 228.46269 
L 114.06643 228.46269 
L 114.19639 227.518132 
L 114.326351 227.518132 
L 114.456312 226.573574 
L 114.586272 226.573574 
L 114.716233 225.629016 
L 114.846193 225.629016 
L 114.976154 224.684458 
L 115.106114 224.684458 
L 115.236075 223.7399 
L 115.366035 223.7399 
L 115.495996 222.795342 
L 115.625957 222.795342 
L 115.755917 221.850785 
L 115.972518 221.850785 
L 116.102479 220.906227 
L 116.795602 220.906227 
L 116.925562 219.961669 
L 117.791966 219.961669 
L 117.921927 219.017111 
L 119.091572 219.017111 
L 119.221532 218.072553 
L 119.568094 218.072553 
L 119.741374 216.183437 
L 119.871335 216.183437 
L 120.001296 214.294321 
L 120.391177 214.294321 
L 120.521138 213.349763 
L 120.911019 213.349763 
L 121.04098 212.405205 
L 121.214261 212.405205 
L 121.344221 211.460648 
L 121.517502 211.460648 
L 121.647463 210.51609 
L 121.820743 210.51609 
L 121.950704 209.571532 
L 122.123985 209.571532 
L 122.297265 207.682416 
L 122.903748 207.682416 
L 123.033709 206.737858 
L 123.813472 206.737858 
L 123.986753 204.848742 
L 124.073393 204.848742 
L 124.203354 203.904184 
L 124.463275 203.904184 
L 124.636556 202.015068 
L 125.199718 202.015068 
L 125.329679 201.070511 
L 125.459639 201.070511 
L 125.5896 200.125953 
L 125.762881 200.125953 
L 125.892841 199.181395 
L 126.022802 199.181395 
L 126.152762 198.236837 
L 126.802565 198.236837 
L 126.932526 197.292279 
L 127.279087 197.292279 
L 127.409048 196.347721 
L 128.578693 196.347721 
L 128.708653 195.403163 
L 128.838614 195.403163 
L 128.968574 194.458605 
L 129.185175 194.458605 
L 129.315136 193.514047 
L 129.401776 193.514047 
L 129.531737 192.569489 
L 129.964939 192.569489 
L 130.094899 191.624932 
L 130.26818 191.624932 
L 130.441461 189.735816 
L 130.484781 189.735816 
L 130.658062 187.8467 
L 131.091264 187.8467 
L 131.221224 186.902142 
L 131.394505 186.902142 
L 131.524465 185.957584 
L 132.087628 185.957584 
L 132.217588 185.013026 
L 132.52083 185.013026 
L 132.65079 184.068468 
L 132.780751 184.068468 
L 132.910711 183.12391 
L 133.343913 183.12391 
L 133.473874 182.179352 
L 134.77348 182.179352 
L 134.90344 181.234795 
L 135.033401 181.234795 
L 135.163361 180.290237 
L 136.116405 180.290237 
L 136.246366 179.345679 
L 136.636248 179.345679 
L 136.766208 178.401121 
L 136.982809 178.401121 
L 137.11277 177.456563 
L 137.416011 177.456563 
L 137.545972 176.512005 
L 137.805893 176.512005 
L 137.935853 175.567447 
L 138.542336 175.567447 
L 138.672296 174.622889 
L 138.802257 174.622889 
L 138.932218 173.678331 
L 140.448424 173.678331 
L 140.578385 172.733773 
L 140.924946 172.733773 
L 141.054907 171.789215 
L 141.228188 171.789215 
L 141.358148 170.844658 
L 141.488109 170.844658 
L 141.618069 169.9001 
L 141.74803 169.9001 
L 141.87799 168.955542 
L 142.007951 168.955542 
L 142.181232 167.066426 
L 142.354512 167.066426 
L 142.484473 166.121868 
L 142.614434 166.121868 
L 142.787714 164.232752 
L 142.960995 164.232752 
L 143.090956 163.288194 
L 143.740758 163.288194 
L 143.870719 162.343636 
L 144.347241 162.343636 
L 144.477202 161.399078 
L 144.650482 161.399078 
L 144.780443 160.454521 
L 144.910403 160.454521 
L 145.040364 159.509963 
L 145.993408 159.509963 
L 146.123369 158.565405 
L 146.556571 158.565405 
L 146.686531 157.620847 
L 146.816492 157.620847 
L 146.946452 156.676289 
L 148.072777 156.676289 
L 148.202738 155.731731 
L 148.332698 155.731731 
L 148.462659 154.787173 
L 148.63594 154.787173 
L 148.7659 153.842615 
L 149.155782 153.842615 
L 149.329063 151.953499 
L 149.675624 151.953499 
L 149.805585 151.008941 
L 149.935545 151.008941 
L 150.065506 150.064384 
L 150.238787 150.064384 
L 150.368747 149.119826 
L 150.585348 149.119826 
L 150.715309 148.175268 
L 150.845269 148.175268 
L 150.97523 147.23071 
L 151.191831 147.23071 
L 151.321791 146.286152 
L 151.451752 146.286152 
L 151.581712 145.341594 
L 152.014914 145.341594 
L 152.188195 143.452478 
L 153.2712 143.452478 
L 153.40116 142.50792 
L 153.617761 142.50792 
L 153.747722 141.563362 
L 153.877682 141.563362 
L 154.007643 140.618804 
L 154.354204 140.618804 
L 154.570805 137.785131 
L 154.830726 137.785131 
L 154.960687 136.840573 
L 155.263928 136.840573 
L 155.393889 135.896015 
L 155.74045 135.896015 
L 155.870411 134.951457 
L 156.476894 134.951457 
L 156.606854 134.006899 
L 156.996736 134.006899 
L 157.126696 133.062341 
L 157.299977 133.062341 
L 157.429938 132.117783 
L 157.819819 132.117783 
L 157.94978 131.173225 
L 158.079741 131.173225 
L 158.209701 130.228667 
L 158.339662 130.228667 
L 158.469622 129.28411 
L 158.989465 129.28411 
L 159.119425 128.339552 
L 159.292706 128.339552 
L 159.465987 126.450436 
L 159.942509 126.450436 
L 160.072469 124.56132 
L 160.24575 124.56132 
L 160.375711 123.616762 
L 160.548991 123.616762 
L 160.678952 122.672204 
L 160.808912 122.672204 
L 160.938873 121.727646 
L 161.068834 121.727646 
L 161.198794 120.783088 
L 161.588676 120.783088 
L 161.761957 118.893973 
L 161.848597 118.893973 
L 161.978557 117.949415 
L 162.974922 117.949415 
L 163.104882 117.004857 
L 163.624725 117.004857 
L 163.798005 115.115741 
L 164.014606 115.115741 
L 164.144567 114.171183 
L 164.83769 114.171183 
L 164.96765 113.226625 
L 166.223936 113.226625 
L 166.353896 112.282067 
L 167.047019 112.282067 
L 167.17698 111.337509 
L 167.870103 111.337509 
L 168.000064 110.392951 
L 168.086704 110.392951 
L 168.216665 109.448394 
L 168.563226 109.448394 
L 168.693187 108.503836 
L 169.126388 108.503836 
L 169.256349 107.559278 
L 170.425994 107.559278 
L 170.555955 106.61472 
L 170.729235 106.61472 
L 170.859196 105.670162 
L 170.989157 105.670162 
L 171.119117 104.725604 
L 171.249078 104.725604 
L 171.379038 103.781046 
L 171.508999 103.781046 
L 171.638959 102.836488 
L 171.76892 102.836488 
L 171.89888 101.89193 
L 172.072161 101.89193 
L 172.202122 100.947372 
L 173.025205 100.947372 
L 173.155166 100.002814 
L 173.285126 100.002814 
L 173.415087 99.058257 
L 173.545048 99.058257 
L 173.675008 98.113699 
L 173.848289 98.113699 
L 173.978249 97.169141 
L 174.06489 97.169141 
L 174.19485 96.224583 
L 174.714693 96.224583 
L 174.887973 94.335467 
L 175.624417 94.335467 
L 175.754377 93.390909 
L 176.144259 93.390909 
L 176.274219 92.446351 
L 176.40418 92.446351 
L 176.577461 90.557235 
L 177.790426 90.557235 
L 177.920387 89.612677 
L 178.093667 89.612677 
L 178.266948 87.723562 
L 178.353588 87.723562 
L 178.483549 85.834446 
L 178.61351 85.834446 
L 178.74347 84.889888 
L 179.133352 84.889888 
L 179.263312 83.94533 
L 179.609874 83.94533 
L 179.739834 83.000772 
L 179.869795 83.000772 
L 180.043076 81.111656 
L 180.173036 81.111656 
L 180.302997 80.167098 
L 180.432957 80.167098 
L 180.562918 79.22254 
L 180.692879 79.22254 
L 180.866159 77.333425 
L 180.90948 77.333425 
L 181.08276 75.444309 
L 181.299361 75.444309 
L 181.429322 74.499751 
L 181.689243 74.499751 
L 181.819203 73.555193 
L 181.905844 73.555193 
L 182.079125 71.666077 
L 182.295726 71.666077 
L 182.425686 70.721519 
L 183.29209 70.721519 
L 183.42205 69.776961 
L 184.115173 69.776961 
L 184.245134 67.887846 
L 184.418415 67.887846 
L 184.548375 66.943288 
L 184.678336 66.943288 
L 184.808296 65.99873 
L 184.938257 65.99873 
L 185.068218 65.054172 
L 185.241498 65.054172 
L 185.371459 64.109614 
L 185.6747 64.109614 
L 185.804661 63.165056 
L 186.021262 63.165056 
L 186.151222 62.220498 
L 186.844345 62.220498 
L 186.974306 61.27594 
L 187.88403 61.27594 
L 188.01399 60.331382 
L 188.187271 60.331382 
L 188.317232 59.386824 
L 188.620473 59.386824 
L 188.750433 58.442267 
L 188.880394 58.442267 
L 189.010355 57.497709 
L 189.443557 57.497709 
L 189.573517 56.553151 
L 190.526561 56.553151 
L 190.656522 55.608593 
L 191.306325 55.608593 
L 191.436285 54.664035 
L 191.956127 54.664035 
L 192.129408 52.774919 
L 192.389329 52.774919 
L 192.51929 51.830361 
L 192.952492 51.830361 
L 193.082452 50.885803 
L 193.515654 50.885803 
L 193.645615 49.941245 
L 193.818895 49.941245 
L 193.948856 48.996687 
L 194.035496 48.996687 
L 194.165457 48.05213 
L 194.685299 48.05213 
L 194.81526 47.107572 
L 194.94522 47.107572 
L 195.075181 46.163014 
L 195.205141 46.163014 
L 195.335102 45.218456 
L 195.724984 45.218456 
L 195.854944 44.273898 
L 195.984905 44.273898 
L 196.114865 43.32934 
L 196.244826 43.32934 
L 196.374787 42.384782 
L 196.634708 42.384782 
L 196.764668 41.440224 
L 197.717712 41.440224 
L 197.847673 40.495666 
L 197.977633 40.495666 
L 198.107594 38.60655 
L 198.757397 38.60655 
L 198.887357 37.661993 
L 199.4072 37.661993 
L 199.53716 36.717435 
L 199.840402 36.717435 
L 200.013682 34.828319 
L 200.186963 34.828319 
L 200.316924 33.883761 
L 200.750126 33.883761 
L 200.880086 32.939203 
L 201.010047 32.939203 
L 201.140007 31.994645 
L 202.006411 31.994645 
L 202.136372 31.050087 
L 202.916135 31.050087 
L 203.046095 30.105529 
L 203.565938 30.105529 
L 203.695898 29.160971 
L 203.825859 29.160971 
L 203.955819 28.216413 
L 205.125464 28.216413 
L 205.255425 27.271856 
L 245.976402 27.271856 
L 246.106362 26.327298 
L 249.485337 26.327298 
L 249.615297 25.38274 
L 301.686163 25.38274 
L 301.816124 24.438182 
L 410.809716 24.438182 
L 410.809716 24.438182 
" clip-path="url(#p7fbd5e9442)" style="fill: none; stroke: #00008b; stroke-width: 2; stroke-linecap: square"/>
   </g>
   <g id="patch_3">
    <path d="M 46.965625 386.44 
L 46.965625 7.2 
" style="fill: none; stroke: #000000; stroke-width: 0.8; stroke-linejoin: miter; stroke-linecap: square"/>
   </g>
   <g id="patch_4">
    <path d="M 428.135625 386.44 
L 428.135625 7.2 
" style="fill: none; stroke: #000000; stroke-width: 0.8; stroke-linejoin: miter; stroke-linecap: square"/>
   </g>
   <g id="patch_5">
    <path d="M 46.965625 386.44 
L 428.135625 386.44 
" style="fill: none; stroke: #000000; stroke-width: 0.8; stroke-linejoin: miter; stroke-linecap: square"/>
   </g>
   <g id="patch_6">
    <path d="M 46.965625 7.2 
L 428.135625 7.2 
" style="fill: none; stroke: #000000; stroke-width: 0.8; stroke-linejoin: miter; stroke-linecap: square"/>
   </g>
   <g id="legend_1">
    <g id="patch_7">
     <path d="M 435.135625 59.234375 
L 559.01375 59.234375 
Q 561.01375 59.234375 561.01375 57.234375 
L 561.01375 14.2 
Q 561.01375 12.2 559.01375 12.2 
L 435.135625 12.2 
Q 433.135625 12.2 433.135625 14.2 
L 433.135625 57.234375 
Q 433.135625 59.234375 435.135625 59.234375 
z
" style="fill: #ffffff; opacity: 0.8; stroke: #cccccc; stroke-linejoin: miter"/>
    </g>
    <g id="text_19">
     <!-- Motifs &amp; orientation -->
     <g transform="translate(447.559062 23.798437) scale(0.1 -0.1)">
      <defs>
       <path id="DejaVuSans-4d" d="M 628 4666 
L 1569 4666 
L 2759 1491 
L 3956 4666 
L 4897 4666 
L 4897 0 
L 4281 0 
L 4281 4097 
L 3078 897 
L 2444 897 
L 1241 4097 
L 1241 0 
L 628 0 
L 628 4666 
z
" transform="scale(0.015625)"/>
       <path id="DejaVuSans-26" d="M 1556 2509 
Q 1272 2256 1139 2004 
Q 1006 1753 1006 1478 
Q 1006 1022 1337 719 
Q 1669 416 2169 416 
Q 2466 416 2725 514 
Q 2984 613 3213 813 
L 1556 2509 
z
M 1997 2859 
L 3584 1234 
Q 3769 1513 3872 1830 
Q 3975 2147 3994 2503 
L 4575 2503 
Q 4538 2091 4375 1687 
Q 4213 1284 3922 891 
L 4794 0 
L 4006 0 
L 3559 459 
Q 3234 181 2878 45 
Q 2522 -91 2113 -91 
Q 1359 -91 881 339 
Q 403 769 403 1441 
Q 403 1841 612 2192 
Q 822 2544 1241 2853 
Q 1091 3050 1012 3245 
Q 934 3441 934 3628 
Q 934 4134 1281 4442 
Q 1628 4750 2203 4750 
Q 2463 4750 2720 4694 
Q 2978 4638 3244 4525 
L 3244 3956 
Q 2972 4103 2725 4179 
Q 2478 4256 2266 4256 
Q 1938 4256 1733 4082 
Q 1528 3909 1528 3634 
Q 1528 3475 1620 3314 
Q 1713 3153 1997 2859 
z
" transform="scale(0.015625)"/>
      </defs>
      <use xlink:href="#DejaVuSans-4d"/>
      <use xlink:href="#DejaVuSans-6f" transform="translate(86.279297 0)"/>
      <use xlink:href="#DejaVuSans-74" transform="translate(147.460938 0)"/>
      <use xlink:href="#DejaVuSans-69" transform="translate(186.669922 0)"/>
      <use xlink:href="#DejaVuSans-66" transform="translate(214.453125 0)"/>
      <use xlink:href="#DejaVuSans-73" transform="translate(249.658203 0)"/>
      <use xlink:href="#DejaVuSans-20" transform="translate(301.757812 0)"/>
      <use xlink:href="#DejaVuSans-26" transform="translate(333.544922 0)"/>
      <use xlink:href="#DejaVuSans-20" transform="translate(411.523438 0)"/>
      <use xlink:href="#DejaVuSans-6f" transform="translate(443.310547 0)"/>
      <use xlink:href="#DejaVuSans-72" transform="translate(504.492188 0)"/>
      <use xlink:href="#DejaVuSans-69" transform="translate(545.605469 0)"/>
      <use xlink:href="#DejaVuSans-65" transform="translate(573.388672 0)"/>
      <use xlink:href="#DejaVuSans-6e" transform="translate(634.912109 0)"/>
      <use xlink:href="#DejaVuSans-74" transform="translate(698.291016 0)"/>
      <use xlink:href="#DejaVuSans-61" transform="translate(737.5 0)"/>
      <use xlink:href="#DejaVuSans-74" transform="translate(798.779297 0)"/>
      <use xlink:href="#DejaVuSans-69" transform="translate(837.988281 0)"/>
      <use xlink:href="#DejaVuSans-6f" transform="translate(865.771484 0)"/>
      <use xlink:href="#DejaVuSans-6e" transform="translate(926.953125 0)"/>
     </g>
    </g>
    <g id="line2d_35">
     <path d="M 437.135625 34.976562 
L 447.135625 34.976562 
L 457.135625 34.976562 
" style="fill: none; stroke: #add8e6; stroke-width: 2; stroke-linecap: square"/>
    </g>
    <g id="text_20">
     <!-- CCCGAAA (5' end) -->
     <g transform="translate(465.135625 38.476562) scale(0.1 -0.1)">
      <defs>
       <path id="DejaVuSans-43" d="M 4122 4306 
L 4122 3641 
Q 3803 3938 3442 4084 
Q 3081 4231 2675 4231 
Q 1875 4231 1450 3742 
Q 1025 3253 1025 2328 
Q 1025 1406 1450 917 
Q 1875 428 2675 428 
Q 3081 428 3442 575 
Q 3803 722 4122 1019 
L 4122 359 
Q 3791 134 3420 21 
Q 3050 -91 2638 -91 
Q 1578 -91 968 557 
Q 359 1206 359 2328 
Q 359 3453 968 4101 
Q 1578 4750 2638 4750 
Q 3056 4750 3426 4639 
Q 3797 4528 4122 4306 
z
" transform="scale(0.015625)"/>
       <path id="DejaVuSans-47" d="M 3809 666 
L 3809 1919 
L 2778 1919 
L 2778 2438 
L 4434 2438 
L 4434 434 
Q 4069 175 3628 42 
Q 3188 -91 2688 -91 
Q 1594 -91 976 548 
Q 359 1188 359 2328 
Q 359 3472 976 4111 
Q 1594 4750 2688 4750 
Q 3144 4750 3555 4637 
Q 3966 4525 4313 4306 
L 4313 3634 
Q 3963 3931 3569 4081 
Q 3175 4231 2741 4231 
Q 1884 4231 1454 3753 
Q 1025 3275 1025 2328 
Q 1025 1384 1454 906 
Q 1884 428 2741 428 
Q 3075 428 3337 486 
Q 3600 544 3809 666 
z
" transform="scale(0.015625)"/>
       <path id="DejaVuSans-28" d="M 1984 4856 
Q 1566 4138 1362 3434 
Q 1159 2731 1159 2009 
Q 1159 1288 1364 580 
Q 1569 -128 1984 -844 
L 1484 -844 
Q 1016 -109 783 600 
Q 550 1309 550 2009 
Q 550 2706 781 3412 
Q 1013 4119 1484 4856 
L 1984 4856 
z
" transform="scale(0.015625)"/>
       <path id="DejaVuSans-27" d="M 1147 4666 
L 1147 2931 
L 616 2931 
L 616 4666 
L 1147 4666 
z
" transform="scale(0.015625)"/>
       <path id="DejaVuSans-64" d="M 2906 2969 
L 2906 4863 
L 3481 4863 
L 3481 0 
L 2906 0 
L 2906 525 
Q 2725 213 2448 61 
Q 2172 -91 1784 -91 
Q 1150 -91 751 415 
Q 353 922 353 1747 
Q 353 2572 751 3078 
Q 1150 3584 1784 3584 
Q 2172 3584 2448 3432 
Q 2725 3281 2906 2969 
z
M 947 1747 
Q 947 1113 1208 752 
Q 1469 391 1925 391 
Q 2381 391 2643 752 
Q 2906 1113 2906 1747 
Q 2906 2381 2643 2742 
Q 2381 3103 1925 3103 
Q 1469 3103 1208 2742 
Q 947 2381 947 1747 
z
" transform="scale(0.015625)"/>
       <path id="DejaVuSans-29" d="M 513 4856 
L 1013 4856 
Q 1481 4119 1714 3412 
Q 1947 2706 1947 2009 
Q 1947 1309 1714 600 
Q 1481 -109 1013 -844 
L 513 -844 
Q 928 -128 1133 580 
Q 1338 1288 1338 2009 
Q 1338 2731 1133 3434 
Q 928 4138 513 4856 
z
" transform="scale(0.015625)"/>
      </defs>
      <use xlink:href="#DejaVuSans-43"/>
      <use xlink:href="#DejaVuSans-43" transform="translate(69.824219 0)"/>
      <use xlink:href="#DejaVuSans-43" transform="translate(139.648438 0)"/>
      <use xlink:href="#DejaVuSans-47" transform="translate(209.472656 0)"/>
      <use xlink:href="#DejaVuSans-41" transform="translate(286.962891 0)"/>
      <use xlink:href="#DejaVuSans-41" transform="translate(358.121094 0)"/>
      <use xlink:href="#DejaVuSans-41" transform="translate(429.279297 0)"/>
      <use xlink:href="#DejaVuSans-20" transform="translate(497.6875 0)"/>
      <use xlink:href="#DejaVuSans-28" transform="translate(529.474609 0)"/>
      <use xlink:href="#DejaVuSans-35" transform="translate(568.488281 0)"/>
      <use xlink:href="#DejaVuSans-27" transform="translate(632.111328 0)"/>
      <use xlink:href="#DejaVuSans-20" transform="translate(659.601562 0)"/>
      <use xlink:href="#DejaVuSans-65" transform="translate(691.388672 0)"/>
      <use xlink:href="#DejaVuSans-6e" transform="translate(752.912109 0)"/>
      <use xlink:href="#DejaVuSans-64" transform="translate(816.291016 0)"/>
      <use xlink:href="#DejaVuSans-29" transform="translate(879.767578 0)"/>
     </g>
    </g>
    <g id="line2d_36">
     <path d="M 437.135625 49.654687 
L 447.135625 49.654687 
L 457.135625 49.654687 
" style="fill: none; stroke: #00008b; stroke-width: 2; stroke-linecap: square"/>
    </g>
    <g id="text_21">
     <!-- CCGAAA (5' end) -->
     <g transform="translate(465.135625 53.154687) scale(0.1 -0.1)">
      <use xlink:href="#DejaVuSans-43"/>
      <use xlink:href="#DejaVuSans-43" transform="translate(69.824219 0)"/>
      <use xlink:href="#DejaVuSans-47" transform="translate(139.648438 0)"/>
      <use xlink:href="#DejaVuSans-41" transform="translate(217.138672 0)"/>
      <use xlink:href="#DejaVuSans-41" transform="translate(288.296875 0)"/>
      <use xlink:href="#DejaVuSans-41" transform="translate(359.455078 0)"/>
      <use xlink:href="#DejaVuSans-20" transform="translate(427.863281 0)"/>
      <use xlink:href="#DejaVuSans-28" transform="translate(459.650391 0)"/>
      <use xlink:href="#DejaVuSans-35" transform="translate(498.664062 0)"/>
      <use xlink:href="#DejaVuSans-27" transform="translate(562.287109 0)"/>
      <use xlink:href="#DejaVuSans-20" transform="translate(589.777344 0)"/>
      <use xlink:href="#DejaVuSans-65" transform="translate(621.564453 0)"/>
      <use xlink:href="#DejaVuSans-6e" transform="translate(683.087891 0)"/>
      <use xlink:href="#DejaVuSans-64" transform="translate(746.466797 0)"/>
      <use xlink:href="#DejaVuSans-29" transform="translate(809.943359 0)"/>
     </g>
    </g>
   </g>
  </g>
 </g>
 <defs>
  <clipPath id="p7fbd5e9442">
   <rect x="46.965625" y="7.2" width="381.17" height="379.24"/>
  </clipPath>
 </defs>
</svg>
