<?xml version="1.0" encoding="utf-8" standalone="no"?>
<!DOCTYPE svg PUBLIC "-//W3C//DTD SVG 1.1//EN"
  "http://www.w3.org/Graphics/SVG/1.1/DTD/svg11.dtd">
<svg xmlns:xlink="http://www.w3.org/1999/xlink" width="568.21375pt" height="423.99625pt" viewBox="0 0 568.21375 423.99625" xmlns="http://www.w3.org/2000/svg" version="1.1">
 <metadata>
  <rdf:RDF xmlns:dc="http://purl.org/dc/elements/1.1/" xmlns:cc="http://creativecommons.org/ns#" xmlns:rdf="http://www.w3.org/1999/02/22-rdf-syntax-ns#">
   <cc:Work>
    <dc:type rdf:resource="http://purl.org/dc/dcmitype/StillImage"/>
    <dc:date>2026-04-30T15:30:57.605767</dc:date>
    <dc:format>image/svg+xml</dc:format>
    <dc:creator>
     <cc:Agent>
      <dc:title>Matplotlib v3.10.6, https://matplotlib.org/</dc:title>
     </cc:Agent>
    </dc:creator>
   </cc:Work>
  </rdf:RDF>
 </metadata>
 <defs>
  <style type="text/css">*{stroke-linejoin: round; stroke-linecap: butt}</style>
 </defs>
 <g id="figure_1">
  <g id="patch_1">
   <path d="M 0 423.99625 
L 568.21375 423.99625 
L 568.21375 0 
L 0 0 
z
" style="fill: #ffffff"/>
  </g>
  <g id="axes_1">
   <g id="patch_2">
    <path d="M 46.965625 386.44 
L 428.135625 386.44 
L 428.135625 7.2 
L 46.965625 7.2 
z
" style="fill: #ffffff"/>
   </g>
   <g id="matplotlib.axis_1">
    <g id="xtick_1">
     <g id="line2d_1">
      <path d="M 64.291534 386.44 
L 64.291534 7.2 
" clip-path="url(#p90fb2908b7)" style="fill: none; stroke-dasharray: 2.96,1.28; stroke-dashoffset: 0; stroke: #b0b0b0; stroke-opacity: 0.6; stroke-width: 0.8"/>
     </g>
     <g id="line2d_2">
      <defs>
       <path id="mf7f023313d" d="M 0 0 
L 0 3.5 
" style="stroke: #000000; stroke-width: 0.8"/>
      </defs>
      <g>
       <use xlink:href="#mf7f023313d" x="64.291534" y="386.44" style="stroke: #000000; stroke-width: 0.8"/>
      </g>
     </g>
     <g id="text_1">
      <!-- 0 -->
      <g transform="translate(61.110284 401.038437) scale(0.1 -0.1)">
       <defs>
        <path id="DejaVuSans-30" d="M 2034 4250 
Q 1547 4250 1301 3770 
Q 1056 3291 1056 2328 
Q 1056 1369 1301 889 
Q 1547 409 2034 409 
Q 2525 409 2770 889 
Q 3016 1369 3016 2328 
Q 3016 3291 2770 3770 
Q 2525 4250 2034 4250 
z
M 2034 4750 
Q 2819 4750 3233 4129 
Q 3647 3509 3647 2328 
Q 3647 1150 3233 529 
Q 2819 -91 2034 -91 
Q 1250 -91 836 529 
Q 422 1150 422 2328 
Q 422 3509 836 4129 
Q 1250 4750 2034 4750 
z
" transform="scale(0.015625)"/>
       </defs>
       <use xlink:href="#DejaVuSans-30"/>
      </g>
     </g>
    </g>
    <g id="xtick_2">
     <g id="line2d_3">
      <path d="M 107.606307 386.44 
L 107.606307 7.2 
" clip-path="url(#p90fb2908b7)" style="fill: none; stroke-dasharray: 2.96,1.28; stroke-dashoffset: 0; stroke: #b0b0b0; stroke-opacity: 0.6; stroke-width: 0.8"/>
     </g>
     <g id="line2d_4">
      <g>
       <use xlink:href="#mf7f023313d" x="107.606307" y="386.44" style="stroke: #000000; stroke-width: 0.8"/>
      </g>
     </g>
     <g id="text_2">
      <!-- 1000 -->
      <g transform="translate(94.881307 401.038437) scale(0.1 -0.1)">
       <defs>
        <path id="DejaVuSans-31" d="M 794 531 
L 1825 531 
L 1825 4091 
L 703 3866 
L 703 4441 
L 1819 4666 
L 2450 4666 
L 2450 531 
L 3481 531 
L 3481 0 
L 794 0 
L 794 531 
z
" transform="scale(0.015625)"/>
       </defs>
       <use xlink:href="#DejaVuSans-31"/>
       <use xlink:href="#DejaVuSans-30" transform="translate(63.623047 0)"/>
       <use xlink:href="#DejaVuSans-30" transform="translate(127.246094 0)"/>
       <use xlink:href="#DejaVuSans-30" transform="translate(190.869141 0)"/>
      </g>
     </g>
    </g>
    <g id="xtick_3">
     <g id="line2d_5">
      <path d="M 150.92108 386.44 
L 150.92108 7.2 
" clip-path="url(#p90fb2908b7)" style="fill: none; stroke-dasharray: 2.96,1.28; stroke-dashoffset: 0; stroke: #b0b0b0; stroke-opacity: 0.6; stroke-width: 0.8"/>
     </g>
     <g id="line2d_6">
      <g>
       <use xlink:href="#mf7f023313d" x="150.92108" y="386.44" style="stroke: #000000; stroke-width: 0.8"/>
      </g>
     </g>
     <g id="text_3">
      <!-- 2000 -->
      <g transform="translate(138.19608 401.038437) scale(0.1 -0.1)">
       <defs>
        <path id="DejaVuSans-32" d="M 1228 531 
L 3431 531 
L 3431 0 
L 469 0 
L 469 531 
Q 828 903 1448 1529 
Q 2069 2156 2228 2338 
Q 2531 2678 2651 2914 
Q 2772 3150 2772 3378 
Q 2772 3750 2511 3984 
Q 2250 4219 1831 4219 
Q 1534 4219 1204 4116 
Q 875 4013 500 3803 
L 500 4441 
Q 881 4594 1212 4672 
Q 1544 4750 1819 4750 
Q 2544 4750 2975 4387 
Q 3406 4025 3406 3419 
Q 3406 3131 3298 2873 
Q 3191 2616 2906 2266 
Q 2828 2175 2409 1742 
Q 1991 1309 1228 531 
z
" transform="scale(0.015625)"/>
       </defs>
       <use xlink:href="#DejaVuSans-32"/>
       <use xlink:href="#DejaVuSans-30" transform="translate(63.623047 0)"/>
       <use xlink:href="#DejaVuSans-30" transform="translate(127.246094 0)"/>
       <use xlink:href="#DejaVuSans-30" transform="translate(190.869141 0)"/>
      </g>
     </g>
    </g>
    <g id="xtick_4">
     <g id="line2d_7">
      <path d="M 194.235852 386.44 
L 194.235852 7.2 
" clip-path="url(#p90fb2908b7)" style="fill: none; stroke-dasharray: 2.96,1.28; stroke-dashoffset: 0; stroke: #b0b0b0; stroke-opacity: 0.6; stroke-width: 0.8"/>
     </g>
     <g id="line2d_8">
      <g>
       <use xlink:href="#mf7f023313d" x="194.235852" y="386.44" style="stroke: #000000; stroke-width: 0.8"/>
      </g>
     </g>
     <g id="text_4">
      <!-- 3000 -->
      <g transform="translate(181.510852 401.038437) scale(0.1 -0.1)">
       <defs>
        <path id="DejaVuSans-33" d="M 2597 2516 
Q 3050 2419 3304 2112 
Q 3559 1806 3559 1356 
Q 3559 666 3084 287 
Q 2609 -91 1734 -91 
Q 1441 -91 1130 -33 
Q 819 25 488 141 
L 488 750 
Q 750 597 1062 519 
Q 1375 441 1716 441 
Q 2309 441 2620 675 
Q 2931 909 2931 1356 
Q 2931 1769 2642 2001 
Q 2353 2234 1838 2234 
L 1294 2234 
L 1294 2753 
L 1863 2753 
Q 2328 2753 2575 2939 
Q 2822 3125 2822 3475 
Q 2822 3834 2567 4026 
Q 2313 4219 1838 4219 
Q 1578 4219 1281 4162 
Q 984 4106 628 3988 
L 628 4550 
Q 988 4650 1302 4700 
Q 1616 4750 1894 4750 
Q 2613 4750 3031 4423 
Q 3450 4097 3450 3541 
Q 3450 3153 3228 2886 
Q 3006 2619 2597 2516 
z
" transform="scale(0.015625)"/>
       </defs>
       <use xlink:href="#DejaVuSans-33"/>
       <use xlink:href="#DejaVuSans-30" transform="translate(63.623047 0)"/>
       <use xlink:href="#DejaVuSans-30" transform="translate(127.246094 0)"/>
       <use xlink:href="#DejaVuSans-30" transform="translate(190.869141 0)"/>
      </g>
     </g>
    </g>
    <g id="xtick_5">
     <g id="line2d_9">
      <path d="M 237.550625 386.44 
L 237.550625 7.2 
" clip-path="url(#p90fb2908b7)" style="fill: none; stroke-dasharray: 2.96,1.28; stroke-dashoffset: 0; stroke: #b0b0b0; stroke-opacity: 0.6; stroke-width: 0.8"/>
     </g>
     <g id="line2d_10">
      <g>
       <use xlink:href="#mf7f023313d" x="237.550625" y="386.44" style="stroke: #000000; stroke-width: 0.8"/>
      </g>
     </g>
     <g id="text_5">
      <!-- 4000 -->
      <g transform="translate(224.825625 401.038437) scale(0.1 -0.1)">
       <defs>
        <path id="DejaVuSans-34" d="M 2419 4116 
L 825 1625 
L 2419 1625 
L 2419 4116 
z
M 2253 4666 
L 3047 4666 
L 3047 1625 
L 3713 1625 
L 3713 1100 
L 3047 1100 
L 3047 0 
L 2419 0 
L 2419 1100 
L 313 1100 
L 313 1709 
L 2253 4666 
z
" transform="scale(0.015625)"/>
       </defs>
       <use xlink:href="#DejaVuSans-34"/>
       <use xlink:href="#DejaVuSans-30" transform="translate(63.623047 0)"/>
       <use xlink:href="#DejaVuSans-30" transform="translate(127.246094 0)"/>
       <use xlink:href="#DejaVuSans-30" transform="translate(190.869141 0)"/>
      </g>
     </g>
    </g>
    <g id="xtick_6">
     <g id="line2d_11">
      <path d="M 280.865398 386.44 
L 280.865398 7.2 
" clip-path="url(#p90fb2908b7)" style="fill: none; stroke-dasharray: 2.96,1.28; stroke-dashoffset: 0; stroke: #b0b0b0; stroke-opacity: 0.6; stroke-width: 0.8"/>
     </g>
     <g id="line2d_12">
      <g>
       <use xlink:href="#mf7f023313d" x="280.865398" y="386.44" style="stroke: #000000; stroke-width: 0.8"/>
      </g>
     </g>
     <g id="text_6">
      <!-- 5000 -->
      <g transform="translate(268.140398 401.038437) scale(0.1 -0.1)">
       <defs>
        <path id="DejaVuSans-35" d="M 691 4666 
L 3169 4666 
L 3169 4134 
L 1269 4134 
L 1269 2991 
Q 1406 3038 1543 3061 
Q 1681 3084 1819 3084 
Q 2600 3084 3056 2656 
Q 3513 2228 3513 1497 
Q 3513 744 3044 326 
Q 2575 -91 1722 -91 
Q 1428 -91 1123 -41 
Q 819 9 494 109 
L 494 744 
Q 775 591 1075 516 
Q 1375 441 1709 441 
Q 2250 441 2565 725 
Q 2881 1009 2881 1497 
Q 2881 1984 2565 2268 
Q 2250 2553 1709 2553 
Q 1456 2553 1204 2497 
Q 953 2441 691 2322 
L 691 4666 
z
" transform="scale(0.015625)"/>
       </defs>
       <use xlink:href="#DejaVuSans-35"/>
       <use xlink:href="#DejaVuSans-30" transform="translate(63.623047 0)"/>
       <use xlink:href="#DejaVuSans-30" transform="translate(127.246094 0)"/>
       <use xlink:href="#DejaVuSans-30" transform="translate(190.869141 0)"/>
      </g>
     </g>
    </g>
    <g id="xtick_7">
     <g id="line2d_13">
      <path d="M 324.18017 386.44 
L 324.18017 7.2 
" clip-path="url(#p90fb2908b7)" style="fill: none; stroke-dasharray: 2.96,1.28; stroke-dashoffset: 0; stroke: #b0b0b0; stroke-opacity: 0.6; stroke-width: 0.8"/>
     </g>
     <g id="line2d_14">
      <g>
       <use xlink:href="#mf7f023313d" x="324.18017" y="386.44" style="stroke: #000000; stroke-width: 0.8"/>
      </g>
     </g>
     <g id="text_7">
      <!-- 6000 -->
      <g transform="translate(311.45517 401.038437) scale(0.1 -0.1)">
       <defs>
        <path id="DejaVuSans-36" d="M 2113 2584 
Q 1688 2584 1439 2293 
Q 1191 2003 1191 1497 
Q 1191 994 1439 701 
Q 1688 409 2113 409 
Q 2538 409 2786 701 
Q 3034 994 3034 1497 
Q 3034 2003 2786 2293 
Q 2538 2584 2113 2584 
z
M 3366 4563 
L 3366 3988 
Q 3128 4100 2886 4159 
Q 2644 4219 2406 4219 
Q 1781 4219 1451 3797 
Q 1122 3375 1075 2522 
Q 1259 2794 1537 2939 
Q 1816 3084 2150 3084 
Q 2853 3084 3261 2657 
Q 3669 2231 3669 1497 
Q 3669 778 3244 343 
Q 2819 -91 2113 -91 
Q 1303 -91 875 529 
Q 447 1150 447 2328 
Q 447 3434 972 4092 
Q 1497 4750 2381 4750 
Q 2619 4750 2861 4703 
Q 3103 4656 3366 4563 
z
" transform="scale(0.015625)"/>
       </defs>
       <use xlink:href="#DejaVuSans-36"/>
       <use xlink:href="#DejaVuSans-30" transform="translate(63.623047 0)"/>
       <use xlink:href="#DejaVuSans-30" transform="translate(127.246094 0)"/>
       <use xlink:href="#DejaVuSans-30" transform="translate(190.869141 0)"/>
      </g>
     </g>
    </g>
    <g id="xtick_8">
     <g id="line2d_15">
      <path d="M 367.494943 386.44 
L 367.494943 7.2 
" clip-path="url(#p90fb2908b7)" style="fill: none; stroke-dasharray: 2.96,1.28; stroke-dashoffset: 0; stroke: #b0b0b0; stroke-opacity: 0.6; stroke-width: 0.8"/>
     </g>
     <g id="line2d_16">
      <g>
       <use xlink:href="#mf7f023313d" x="367.494943" y="386.44" style="stroke: #000000; stroke-width: 0.8"/>
      </g>
     </g>
     <g id="text_8">
      <!-- 7000 -->
      <g transform="translate(354.769943 401.038437) scale(0.1 -0.1)">
       <defs>
        <path id="DejaVuSans-37" d="M 525 4666 
L 3525 4666 
L 3525 4397 
L 1831 0 
L 1172 0 
L 2766 4134 
L 525 4134 
L 525 4666 
z
" transform="scale(0.015625)"/>
       </defs>
       <use xlink:href="#DejaVuSans-37"/>
       <use xlink:href="#DejaVuSans-30" transform="translate(63.623047 0)"/>
       <use xlink:href="#DejaVuSans-30" transform="translate(127.246094 0)"/>
       <use xlink:href="#DejaVuSans-30" transform="translate(190.869141 0)"/>
      </g>
     </g>
    </g>
    <g id="xtick_9">
     <g id="line2d_17">
      <path d="M 410.809716 386.44 
L 410.809716 7.2 
" clip-path="url(#p90fb2908b7)" style="fill: none; stroke-dasharray: 2.96,1.28; stroke-dashoffset: 0; stroke: #b0b0b0; stroke-opacity: 0.6; stroke-width: 0.8"/>
     </g>
     <g id="line2d_18">
      <g>
       <use xlink:href="#mf7f023313d" x="410.809716" y="386.44" style="stroke: #000000; stroke-width: 0.8"/>
      </g>
     </g>
     <g id="text_9">
      <!-- 8000 -->
      <g transform="translate(398.084716 401.038437) scale(0.1 -0.1)">
       <defs>
        <path id="DejaVuSans-38" d="M 2034 2216 
Q 1584 2216 1326 1975 
Q 1069 1734 1069 1313 
Q 1069 891 1326 650 
Q 1584 409 2034 409 
Q 2484 409 2743 651 
Q 3003 894 3003 1313 
Q 3003 1734 2745 1975 
Q 2488 2216 2034 2216 
z
M 1403 2484 
Q 997 2584 770 2862 
Q 544 3141 544 3541 
Q 544 4100 942 4425 
Q 1341 4750 2034 4750 
Q 2731 4750 3128 4425 
Q 3525 4100 3525 3541 
Q 3525 3141 3298 2862 
Q 3072 2584 2669 2484 
Q 3125 2378 3379 2068 
Q 3634 1759 3634 1313 
Q 3634 634 3220 271 
Q 2806 -91 2034 -91 
Q 1263 -91 848 271 
Q 434 634 434 1313 
Q 434 1759 690 2068 
Q 947 2378 1403 2484 
z
M 1172 3481 
Q 1172 3119 1398 2916 
Q 1625 2713 2034 2713 
Q 2441 2713 2670 2916 
Q 2900 3119 2900 3481 
Q 2900 3844 2670 4047 
Q 2441 4250 2034 4250 
Q 1625 4250 1398 4047 
Q 1172 3844 1172 3481 
z
" transform="scale(0.015625)"/>
       </defs>
       <use xlink:href="#DejaVuSans-38"/>
       <use xlink:href="#DejaVuSans-30" transform="translate(63.623047 0)"/>
       <use xlink:href="#DejaVuSans-30" transform="translate(127.246094 0)"/>
       <use xlink:href="#DejaVuSans-30" transform="translate(190.869141 0)"/>
      </g>
     </g>
    </g>
    <g id="text_10">
     <!-- Distance from terminus [nt] -->
     <g transform="translate(168.051406 414.716562) scale(0.1 -0.1)">
      <defs>
       <path id="DejaVuSans-44" d="M 1259 4147 
L 1259 519 
L 2022 519 
Q 2988 519 3436 956 
Q 3884 1394 3884 2338 
Q 3884 3275 3436 3711 
Q 2988 4147 2022 4147 
L 1259 4147 
z
M 628 4666 
L 1925 4666 
Q 3281 4666 3915 4102 
Q 4550 3538 4550 2338 
Q 4550 1131 3912 565 
Q 3275 0 1925 0 
L 628 0 
L 628 4666 
z
" transform="scale(0.015625)"/>
       <path id="DejaVuSans-69" d="M 603 3500 
L 1178 3500 
L 1178 0 
L 603 0 
L 603 3500 
z
M 603 4863 
L 1178 4863 
L 1178 4134 
L 603 4134 
L 603 4863 
z
" transform="scale(0.015625)"/>
       <path id="DejaVuSans-73" d="M 2834 3397 
L 2834 2853 
Q 2591 2978 2328 3040 
Q 2066 3103 1784 3103 
Q 1356 3103 1142 2972 
Q 928 2841 928 2578 
Q 928 2378 1081 2264 
Q 1234 2150 1697 2047 
L 1894 2003 
Q 2506 1872 2764 1633 
Q 3022 1394 3022 966 
Q 3022 478 2636 193 
Q 2250 -91 1575 -91 
Q 1294 -91 989 -36 
Q 684 19 347 128 
L 347 722 
Q 666 556 975 473 
Q 1284 391 1588 391 
Q 1994 391 2212 530 
Q 2431 669 2431 922 
Q 2431 1156 2273 1281 
Q 2116 1406 1581 1522 
L 1381 1569 
Q 847 1681 609 1914 
Q 372 2147 372 2553 
Q 372 3047 722 3315 
Q 1072 3584 1716 3584 
Q 2034 3584 2315 3537 
Q 2597 3491 2834 3397 
z
" transform="scale(0.015625)"/>
       <path id="DejaVuSans-74" d="M 1172 4494 
L 1172 3500 
L 2356 3500 
L 2356 3053 
L 1172 3053 
L 1172 1153 
Q 1172 725 1289 603 
Q 1406 481 1766 481 
L 2356 481 
L 2356 0 
L 1766 0 
Q 1100 0 847 248 
Q 594 497 594 1153 
L 594 3053 
L 172 3053 
L 172 3500 
L 594 3500 
L 594 4494 
L 1172 4494 
z
" transform="scale(0.015625)"/>
       <path id="DejaVuSans-61" d="M 2194 1759 
Q 1497 1759 1228 1600 
Q 959 1441 959 1056 
Q 959 750 1161 570 
Q 1363 391 1709 391 
Q 2188 391 2477 730 
Q 2766 1069 2766 1631 
L 2766 1759 
L 2194 1759 
z
M 3341 1997 
L 3341 0 
L 2766 0 
L 2766 531 
Q 2569 213 2275 61 
Q 1981 -91 1556 -91 
Q 1019 -91 701 211 
Q 384 513 384 1019 
Q 384 1609 779 1909 
Q 1175 2209 1959 2209 
L 2766 2209 
L 2766 2266 
Q 2766 2663 2505 2880 
Q 2244 3097 1772 3097 
Q 1472 3097 1187 3025 
Q 903 2953 641 2809 
L 641 3341 
Q 956 3463 1253 3523 
Q 1550 3584 1831 3584 
Q 2591 3584 2966 3190 
Q 3341 2797 3341 1997 
z
" transform="scale(0.015625)"/>
       <path id="DejaVuSans-6e" d="M 3513 2113 
L 3513 0 
L 2938 0 
L 2938 2094 
Q 2938 2591 2744 2837 
Q 2550 3084 2163 3084 
Q 1697 3084 1428 2787 
Q 1159 2491 1159 1978 
L 1159 0 
L 581 0 
L 581 3500 
L 1159 3500 
L 1159 2956 
Q 1366 3272 1645 3428 
Q 1925 3584 2291 3584 
Q 2894 3584 3203 3211 
Q 3513 2838 3513 2113 
z
" transform="scale(0.015625)"/>
       <path id="DejaVuSans-63" d="M 3122 3366 
L 3122 2828 
Q 2878 2963 2633 3030 
Q 2388 3097 2138 3097 
Q 1578 3097 1268 2742 
Q 959 2388 959 1747 
Q 959 1106 1268 751 
Q 1578 397 2138 397 
Q 2388 397 2633 464 
Q 2878 531 3122 666 
L 3122 134 
Q 2881 22 2623 -34 
Q 2366 -91 2075 -91 
Q 1284 -91 818 406 
Q 353 903 353 1747 
Q 353 2603 823 3093 
Q 1294 3584 2113 3584 
Q 2378 3584 2631 3529 
Q 2884 3475 3122 3366 
z
" transform="scale(0.015625)"/>
       <path id="DejaVuSans-65" d="M 3597 1894 
L 3597 1613 
L 953 1613 
Q 991 1019 1311 708 
Q 1631 397 2203 397 
Q 2534 397 2845 478 
Q 3156 559 3463 722 
L 3463 178 
Q 3153 47 2828 -22 
Q 2503 -91 2169 -91 
Q 1331 -91 842 396 
Q 353 884 353 1716 
Q 353 2575 817 3079 
Q 1281 3584 2069 3584 
Q 2775 3584 3186 3129 
Q 3597 2675 3597 1894 
z
M 3022 2063 
Q 3016 2534 2758 2815 
Q 2500 3097 2075 3097 
Q 1594 3097 1305 2825 
Q 1016 2553 972 2059 
L 3022 2063 
z
" transform="scale(0.015625)"/>
       <path id="DejaVuSans-20" transform="scale(0.015625)"/>
       <path id="DejaVuSans-66" d="M 2375 4863 
L 2375 4384 
L 1825 4384 
Q 1516 4384 1395 4259 
Q 1275 4134 1275 3809 
L 1275 3500 
L 2222 3500 
L 2222 3053 
L 1275 3053 
L 1275 0 
L 697 0 
L 697 3053 
L 147 3053 
L 147 3500 
L 697 3500 
L 697 3744 
Q 697 4328 969 4595 
Q 1241 4863 1831 4863 
L 2375 4863 
z
" transform="scale(0.015625)"/>
       <path id="DejaVuSans-72" d="M 2631 2963 
Q 2534 3019 2420 3045 
Q 2306 3072 2169 3072 
Q 1681 3072 1420 2755 
Q 1159 2438 1159 1844 
L 1159 0 
L 581 0 
L 581 3500 
L 1159 3500 
L 1159 2956 
Q 1341 3275 1631 3429 
Q 1922 3584 2338 3584 
Q 2397 3584 2469 3576 
Q 2541 3569 2628 3553 
L 2631 2963 
z
" transform="scale(0.015625)"/>
       <path id="DejaVuSans-6f" d="M 1959 3097 
Q 1497 3097 1228 2736 
Q 959 2375 959 1747 
Q 959 1119 1226 758 
Q 1494 397 1959 397 
Q 2419 397 2687 759 
Q 2956 1122 2956 1747 
Q 2956 2369 2687 2733 
Q 2419 3097 1959 3097 
z
M 1959 3584 
Q 2709 3584 3137 3096 
Q 3566 2609 3566 1747 
Q 3566 888 3137 398 
Q 2709 -91 1959 -91 
Q 1206 -91 779 398 
Q 353 888 353 1747 
Q 353 2609 779 3096 
Q 1206 3584 1959 3584 
z
" transform="scale(0.015625)"/>
       <path id="DejaVuSans-6d" d="M 3328 2828 
Q 3544 3216 3844 3400 
Q 4144 3584 4550 3584 
Q 5097 3584 5394 3201 
Q 5691 2819 5691 2113 
L 5691 0 
L 5113 0 
L 5113 2094 
Q 5113 2597 4934 2840 
Q 4756 3084 4391 3084 
Q 3944 3084 3684 2787 
Q 3425 2491 3425 1978 
L 3425 0 
L 2847 0 
L 2847 2094 
Q 2847 2600 2669 2842 
Q 2491 3084 2119 3084 
Q 1678 3084 1418 2786 
Q 1159 2488 1159 1978 
L 1159 0 
L 581 0 
L 581 3500 
L 1159 3500 
L 1159 2956 
Q 1356 3278 1631 3431 
Q 1906 3584 2284 3584 
Q 2666 3584 2933 3390 
Q 3200 3197 3328 2828 
z
" transform="scale(0.015625)"/>
       <path id="DejaVuSans-75" d="M 544 1381 
L 544 3500 
L 1119 3500 
L 1119 1403 
Q 1119 906 1312 657 
Q 1506 409 1894 409 
Q 2359 409 2629 706 
Q 2900 1003 2900 1516 
L 2900 3500 
L 3475 3500 
L 3475 0 
L 2900 0 
L 2900 538 
Q 2691 219 2414 64 
Q 2138 -91 1772 -91 
Q 1169 -91 856 284 
Q 544 659 544 1381 
z
M 1991 3584 
L 1991 3584 
z
" transform="scale(0.015625)"/>
       <path id="DejaVuSans-5b" d="M 550 4863 
L 1875 4863 
L 1875 4416 
L 1125 4416 
L 1125 -397 
L 1875 -397 
L 1875 -844 
L 550 -844 
L 550 4863 
z
" transform="scale(0.015625)"/>
       <path id="DejaVuSans-5d" d="M 1947 4863 
L 1947 -844 
L 622 -844 
L 622 -397 
L 1369 -397 
L 1369 4416 
L 622 4416 
L 622 4863 
L 1947 4863 
z
" transform="scale(0.015625)"/>
      </defs>
      <use xlink:href="#DejaVuSans-44"/>
      <use xlink:href="#DejaVuSans-69" transform="translate(77.001953 0)"/>
      <use xlink:href="#DejaVuSans-73" transform="translate(104.785156 0)"/>
      <use xlink:href="#DejaVuSans-74" transform="translate(156.884766 0)"/>
      <use xlink:href="#DejaVuSans-61" transform="translate(196.09375 0)"/>
      <use xlink:href="#DejaVuSans-6e" transform="translate(257.373047 0)"/>
      <use xlink:href="#DejaVuSans-63" transform="translate(320.751953 0)"/>
      <use xlink:href="#DejaVuSans-65" transform="translate(375.732422 0)"/>
      <use xlink:href="#DejaVuSans-20" transform="translate(437.255859 0)"/>
      <use xlink:href="#DejaVuSans-66" transform="translate(469.042969 0)"/>
      <use xlink:href="#DejaVuSans-72" transform="translate(504.248047 0)"/>
      <use xlink:href="#DejaVuSans-6f" transform="translate(543.111328 0)"/>
      <use xlink:href="#DejaVuSans-6d" transform="translate(604.292969 0)"/>
      <use xlink:href="#DejaVuSans-20" transform="translate(701.705078 0)"/>
      <use xlink:href="#DejaVuSans-74" transform="translate(733.492188 0)"/>
      <use xlink:href="#DejaVuSans-65" transform="translate(772.701172 0)"/>
      <use xlink:href="#DejaVuSans-72" transform="translate(834.224609 0)"/>
      <use xlink:href="#DejaVuSans-6d" transform="translate(873.587891 0)"/>
      <use xlink:href="#DejaVuSans-69" transform="translate(971 0)"/>
      <use xlink:href="#DejaVuSans-6e" transform="translate(998.783203 0)"/>
      <use xlink:href="#DejaVuSans-75" transform="translate(1062.162109 0)"/>
      <use xlink:href="#DejaVuSans-73" transform="translate(1125.541016 0)"/>
      <use xlink:href="#DejaVuSans-20" transform="translate(1177.640625 0)"/>
      <use xlink:href="#DejaVuSans-5b" transform="translate(1209.427734 0)"/>
      <use xlink:href="#DejaVuSans-6e" transform="translate(1248.441406 0)"/>
      <use xlink:href="#DejaVuSans-74" transform="translate(1311.820312 0)"/>
      <use xlink:href="#DejaVuSans-5d" transform="translate(1351.029297 0)"/>
     </g>
    </g>
   </g>
   <g id="matplotlib.axis_2">
    <g id="ytick_1">
     <g id="line2d_19">
      <path d="M 46.965625 369.201818 
L 428.135625 369.201818 
" clip-path="url(#p90fb2908b7)" style="fill: none; stroke-dasharray: 2.96,1.28; stroke-dashoffset: 0; stroke: #b0b0b0; stroke-opacity: 0.6; stroke-width: 0.8"/>
     </g>
     <g id="line2d_20">
      <defs>
       <path id="m0cf195cb23" d="M 0 0 
L -3.5 0 
" style="stroke: #000000; stroke-width: 0.8"/>
      </defs>
      <g>
       <use xlink:href="#m0cf195cb23" x="46.965625" y="369.201818" style="stroke: #000000; stroke-width: 0.8"/>
      </g>
     </g>
     <g id="text_11">
      <!-- 0 -->
      <g transform="translate(33.603125 373.001037) scale(0.1 -0.1)">
       <use xlink:href="#DejaVuSans-30"/>
      </g>
     </g>
    </g>
    <g id="ytick_2">
     <g id="line2d_21">
      <path d="M 46.965625 289.173119 
L 428.135625 289.173119 
" clip-path="url(#p90fb2908b7)" style="fill: none; stroke-dasharray: 2.96,1.28; stroke-dashoffset: 0; stroke: #b0b0b0; stroke-opacity: 0.6; stroke-width: 0.8"/>
     </g>
     <g id="line2d_22">
      <g>
       <use xlink:href="#m0cf195cb23" x="46.965625" y="289.173119" style="stroke: #000000; stroke-width: 0.8"/>
      </g>
     </g>
     <g id="text_12">
      <!-- 50 -->
      <g transform="translate(27.240625 292.972338) scale(0.1 -0.1)">
       <use xlink:href="#DejaVuSans-35"/>
       <use xlink:href="#DejaVuSans-30" transform="translate(63.623047 0)"/>
      </g>
     </g>
    </g>
    <g id="ytick_3">
     <g id="line2d_23">
      <path d="M 46.965625 209.14442 
L 428.135625 209.14442 
" clip-path="url(#p90fb2908b7)" style="fill: none; stroke-dasharray: 2.96,1.28; stroke-dashoffset: 0; stroke: #b0b0b0; stroke-opacity: 0.6; stroke-width: 0.8"/>
     </g>
     <g id="line2d_24">
      <g>
       <use xlink:href="#m0cf195cb23" x="46.965625" y="209.14442" style="stroke: #000000; stroke-width: 0.8"/>
      </g>
     </g>
     <g id="text_13">
      <!-- 100 -->
      <g transform="translate(20.878125 212.943638) scale(0.1 -0.1)">
       <use xlink:href="#DejaVuSans-31"/>
       <use xlink:href="#DejaVuSans-30" transform="translate(63.623047 0)"/>
       <use xlink:href="#DejaVuSans-30" transform="translate(127.246094 0)"/>
      </g>
     </g>
    </g>
    <g id="ytick_4">
     <g id="line2d_25">
      <path d="M 46.965625 129.11572 
L 428.135625 129.11572 
" clip-path="url(#p90fb2908b7)" style="fill: none; stroke-dasharray: 2.96,1.28; stroke-dashoffset: 0; stroke: #b0b0b0; stroke-opacity: 0.6; stroke-width: 0.8"/>
     </g>
     <g id="line2d_26">
      <g>
       <use xlink:href="#m0cf195cb23" x="46.965625" y="129.11572" style="stroke: #000000; stroke-width: 0.8"/>
      </g>
     </g>
     <g id="text_14">
      <!-- 150 -->
      <g transform="translate(20.878125 132.914939) scale(0.1 -0.1)">
       <use xlink:href="#DejaVuSans-31"/>
       <use xlink:href="#DejaVuSans-35" transform="translate(63.623047 0)"/>
       <use xlink:href="#DejaVuSans-30" transform="translate(127.246094 0)"/>
      </g>
     </g>
    </g>
    <g id="ytick_5">
     <g id="line2d_27">
      <path d="M 46.965625 49.087021 
L 428.135625 49.087021 
" clip-path="url(#p90fb2908b7)" style="fill: none; stroke-dasharray: 2.96,1.28; stroke-dashoffset: 0; stroke: #b0b0b0; stroke-opacity: 0.6; stroke-width: 0.8"/>
     </g>
     <g id="line2d_28">
      <g>
       <use xlink:href="#m0cf195cb23" x="46.965625" y="49.087021" style="stroke: #000000; stroke-width: 0.8"/>
      </g>
     </g>
     <g id="text_15">
      <!-- 200 -->
      <g transform="translate(20.878125 52.88624) scale(0.1 -0.1)">
       <use xlink:href="#DejaVuSans-32"/>
       <use xlink:href="#DejaVuSans-30" transform="translate(63.623047 0)"/>
       <use xlink:href="#DejaVuSans-30" transform="translate(127.246094 0)"/>
      </g>
     </g>
    </g>
    <g id="text_16">
     <!-- Average cumulative count -->
     <g transform="translate(14.798438 262.4325) rotate(-90) scale(0.1 -0.1)">
      <defs>
       <path id="DejaVuSans-41" d="M 2188 4044 
L 1331 1722 
L 3047 1722 
L 2188 4044 
z
M 1831 4666 
L 2547 4666 
L 4325 0 
L 3669 0 
L 3244 1197 
L 1141 1197 
L 716 0 
L 50 0 
L 1831 4666 
z
" transform="scale(0.015625)"/>
       <path id="DejaVuSans-76" d="M 191 3500 
L 800 3500 
L 1894 563 
L 2988 3500 
L 3597 3500 
L 2284 0 
L 1503 0 
L 191 3500 
z
" transform="scale(0.015625)"/>
       <path id="DejaVuSans-67" d="M 2906 1791 
Q 2906 2416 2648 2759 
Q 2391 3103 1925 3103 
Q 1463 3103 1205 2759 
Q 947 2416 947 1791 
Q 947 1169 1205 825 
Q 1463 481 1925 481 
Q 2391 481 2648 825 
Q 2906 1169 2906 1791 
z
M 3481 434 
Q 3481 -459 3084 -895 
Q 2688 -1331 1869 -1331 
Q 1566 -1331 1297 -1286 
Q 1028 -1241 775 -1147 
L 775 -588 
Q 1028 -725 1275 -790 
Q 1522 -856 1778 -856 
Q 2344 -856 2625 -561 
Q 2906 -266 2906 331 
L 2906 616 
Q 2728 306 2450 153 
Q 2172 0 1784 0 
Q 1141 0 747 490 
Q 353 981 353 1791 
Q 353 2603 747 3093 
Q 1141 3584 1784 3584 
Q 2172 3584 2450 3431 
Q 2728 3278 2906 2969 
L 2906 3500 
L 3481 3500 
L 3481 434 
z
" transform="scale(0.015625)"/>
       <path id="DejaVuSans-6c" d="M 603 4863 
L 1178 4863 
L 1178 0 
L 603 0 
L 603 4863 
z
" transform="scale(0.015625)"/>
      </defs>
      <use xlink:href="#DejaVuSans-41"/>
      <use xlink:href="#DejaVuSans-76" transform="translate(62.533203 0)"/>
      <use xlink:href="#DejaVuSans-65" transform="translate(121.712891 0)"/>
      <use xlink:href="#DejaVuSans-72" transform="translate(183.236328 0)"/>
      <use xlink:href="#DejaVuSans-61" transform="translate(224.349609 0)"/>
      <use xlink:href="#DejaVuSans-67" transform="translate(285.628906 0)"/>
      <use xlink:href="#DejaVuSans-65" transform="translate(349.105469 0)"/>
      <use xlink:href="#DejaVuSans-20" transform="translate(410.628906 0)"/>
      <use xlink:href="#DejaVuSans-63" transform="translate(442.416016 0)"/>
      <use xlink:href="#DejaVuSans-75" transform="translate(497.396484 0)"/>
      <use xlink:href="#DejaVuSans-6d" transform="translate(560.775391 0)"/>
      <use xlink:href="#DejaVuSans-75" transform="translate(658.1875 0)"/>
      <use xlink:href="#DejaVuSans-6c" transform="translate(721.566406 0)"/>
      <use xlink:href="#DejaVuSans-61" transform="translate(749.349609 0)"/>
      <use xlink:href="#DejaVuSans-74" transform="translate(810.628906 0)"/>
      <use xlink:href="#DejaVuSans-69" transform="translate(849.837891 0)"/>
      <use xlink:href="#DejaVuSans-76" transform="translate(877.621094 0)"/>
      <use xlink:href="#DejaVuSans-65" transform="translate(936.800781 0)"/>
      <use xlink:href="#DejaVuSans-20" transform="translate(998.324219 0)"/>
      <use xlink:href="#DejaVuSans-63" transform="translate(1030.111328 0)"/>
      <use xlink:href="#DejaVuSans-6f" transform="translate(1085.091797 0)"/>
      <use xlink:href="#DejaVuSans-75" transform="translate(1146.273438 0)"/>
      <use xlink:href="#DejaVuSans-6e" transform="translate(1209.652344 0)"/>
      <use xlink:href="#DejaVuSans-74" transform="translate(1273.03125 0)"/>
     </g>
    </g>
   </g>
   <g id="line2d_29">
    <path d="M 64.291534 369.201818 
L 65.15783 369.201818 
L 65.287774 368.881703 
L 65.417718 368.881703 
L 65.547663 368.561589 
L 65.720922 368.561589 
L 65.850866 368.241474 
L 66.457273 368.241474 
L 66.587217 367.921359 
L 68.926215 367.921359 
L 69.056159 367.601244 
L 69.186103 367.601244 
L 69.359363 366.961015 
L 70.355602 366.961015 
L 70.485547 366.6409 
L 72.044878 366.6409 
L 72.174823 366.320785 
L 72.737915 366.320785 
L 72.867859 366.00067 
L 75.59669 366.00067 
L 75.726634 365.680555 
L 76.5063 365.680555 
L 76.636244 365.360441 
L 76.809503 365.360441 
L 76.939448 365.040326 
L 81.704073 365.040326 
L 81.834017 364.720211 
L 82.31048 364.720211 
L 82.440424 364.400096 
L 85.12594 364.400096 
L 85.255884 364.079981 
L 86.555327 364.079981 
L 86.685272 363.759867 
L 86.901845 363.759867 
L 87.03179 363.439752 
L 87.205049 363.439752 
L 87.334993 363.119637 
L 91.83973 363.119637 
L 91.969674 362.799522 
L 93.139173 362.799522 
L 93.269117 362.479407 
L 93.442376 362.479407 
L 93.615635 361.519063 
L 94.828449 361.519063 
L 94.958393 361.198948 
L 95.911318 361.198948 
L 96.041263 360.878833 
L 98.163686 360.878833 
L 98.293631 360.558719 
L 99.3765 360.558719 
L 99.506444 360.238604 
L 99.679703 360.238604 
L 99.809648 359.918489 
L 101.585553 359.918489 
L 101.715498 359.598374 
L 101.888757 359.598374 
L 102.062016 358.958145 
L 106.133605 358.958145 
L 106.263549 358.63803 
L 107.692936 358.63803 
L 107.822881 358.317915 
L 108.256028 358.317915 
L 108.385973 357.9978 
L 108.429288 357.9978 
L 108.559232 357.677685 
L 108.732491 357.677685 
L 108.862435 357.357571 
L 109.165639 357.357571 
L 109.295583 357.037456 
L 111.331377 357.037456 
L 111.461322 356.717341 
L 112.284302 356.717341 
L 112.414247 356.397226 
L 117.178872 356.397226 
L 117.308816 356.077112 
L 120.25422 356.077112 
L 120.384165 355.756997 
L 121.207145 355.756997 
L 121.33709 355.436882 
L 123.372884 355.436882 
L 123.502828 355.116767 
L 126.621492 355.116767 
L 126.751436 354.796652 
L 126.838066 354.796652 
L 126.96801 354.476538 
L 128.570657 354.476538 
L 128.700601 354.156423 
L 129.740156 354.156423 
L 129.8701 353.836308 
L 130.086674 353.836308 
L 130.216618 353.516193 
L 130.433192 353.516193 
L 130.563136 353.196078 
L 130.649766 353.196078 
L 130.77971 352.875964 
L 133.76843 352.875964 
L 133.898374 352.555849 
L 134.374836 352.555849 
L 134.504781 352.235734 
L 134.67804 352.235734 
L 134.807984 351.915619 
L 135.241132 351.915619 
L 135.371076 351.595504 
L 135.717594 351.595504 
L 135.847539 351.27539 
L 137.40687 351.27539 
L 137.536815 350.955275 
L 138.576369 350.955275 
L 138.706314 350.63516 
L 139.442665 350.63516 
L 139.572609 350.315045 
L 140.915367 350.315045 
L 141.045311 349.99493 
L 141.131941 349.99493 
L 141.3052 349.354701 
L 142.561328 349.354701 
L 142.691273 349.034586 
L 142.864532 349.034586 
L 142.994476 348.714471 
L 143.600883 348.714471 
L 143.774142 348.074242 
L 144.337234 348.074242 
L 144.467178 347.754127 
L 144.683752 347.754127 
L 144.900326 346.793782 
L 145.506733 346.793782 
L 145.636677 346.473668 
L 145.809936 346.473668 
L 145.939881 346.153553 
L 146.762861 346.153553 
L 146.892806 345.833438 
L 147.93236 345.833438 
L 148.062305 345.513323 
L 152.177208 345.513323 
L 152.307152 345.193208 
L 152.480411 345.193208 
L 152.610356 344.873094 
L 152.913559 344.873094 
L 153.043503 344.552979 
L 153.216763 344.552979 
L 153.346707 344.232864 
L 153.476651 344.232864 
L 153.606595 343.912749 
L 154.429576 343.912749 
L 154.55952 343.592634 
L 155.988908 343.592634 
L 156.118852 342.952405 
L 156.292111 342.952405 
L 156.422056 342.63229 
L 156.595315 342.63229 
L 156.725259 341.99206 
L 157.288351 341.99206 
L 157.418295 341.671946 
L 157.591555 341.671946 
L 157.721499 341.351831 
L 157.894758 341.351831 
L 158.024702 341.031716 
L 162.746013 341.031716 
L 162.875957 340.711601 
L 167.250749 340.711601 
L 167.380693 340.391486 
L 167.510637 340.391486 
L 167.683897 339.751257 
L 167.813841 339.751257 
L 167.943785 339.431142 
L 168.420248 339.431142 
L 168.550192 339.111027 
L 170.022894 339.111027 
L 170.152839 338.790912 
L 170.282783 338.790912 
L 170.412727 338.470798 
L 170.585986 338.470798 
L 170.715931 338.150683 
L 171.149078 338.150683 
L 171.279023 337.830568 
L 172.275262 337.830568 
L 172.405207 337.510453 
L 173.531391 337.510453 
L 173.661335 337.190338 
L 173.79128 337.190338 
L 173.921224 336.870224 
L 180.115236 336.870224 
L 180.288495 336.229994 
L 181.024847 336.229994 
L 181.154791 335.909879 
L 182.410919 335.909879 
L 182.540864 335.589764 
L 185.442953 335.589764 
L 185.572898 335.26965 
L 185.746157 335.26965 
L 185.876101 334.949535 
L 186.395878 334.949535 
L 186.525823 334.62942 
L 187.695322 334.62942 
L 187.825266 334.309305 
L 188.301728 334.309305 
L 188.431673 333.989191 
L 188.604932 333.989191 
L 188.734876 333.669076 
L 188.908135 333.669076 
L 189.03808 333.348961 
L 189.731116 333.348961 
L 189.86106 333.028846 
L 190.813985 333.028846 
L 190.987244 332.388617 
L 191.203818 332.388617 
L 191.333762 332.068502 
L 191.680281 332.068502 
L 191.85354 331.428272 
L 192.416632 331.428272 
L 192.546576 331.108157 
L 192.719835 331.108157 
L 192.84978 330.788043 
L 193.412872 330.788043 
L 193.542816 330.467928 
L 198.350756 330.467928 
L 198.4807 330.147813 
L 205.411064 330.147813 
L 205.541008 329.827698 
L 205.757582 329.827698 
L 205.887526 329.507583 
L 213.944074 329.507583 
L 214.074018 329.187469 
L 216.54296 329.187469 
L 216.672905 328.867354 
L 219.574994 328.867354 
L 219.704939 328.547239 
L 220.571234 328.547239 
L 220.701178 328.227124 
L 220.874437 328.227124 
L 221.004382 327.586895 
L 221.177641 327.586895 
L 221.307585 327.26678 
L 221.697418 327.26678 
L 221.827362 326.946665 
L 222.34714 326.946665 
L 222.477084 326.62655 
L 222.650343 326.62655 
L 222.780287 326.306435 
L 222.953547 326.306435 
L 223.083491 325.986321 
L 226.462043 325.986321 
L 226.591987 325.666206 
L 227.328339 325.666206 
L 227.458283 325.346091 
L 328.684907 325.346091 
L 328.814851 325.025976 
L 394.609991 325.025976 
L 394.739935 324.705861 
L 410.766401 324.705861 
L 410.766401 324.705861 
" clip-path="url(#p90fb2908b7)" style="fill: none; stroke: #add8e6; stroke-width: 2; stroke-linecap: square"/>
   </g>
   <g id="line2d_30">
    <path d="M 64.291534 369.201818 
L 65.15783 369.201818 
L 65.331089 368.561589 
L 65.461033 368.561589 
L 65.590977 367.921359 
L 65.720922 367.921359 
L 65.894181 367.281129 
L 66.06744 367.281129 
L 66.284014 366.320785 
L 66.500588 366.320785 
L 66.630532 366.00067 
L 66.933735 366.00067 
L 67.06368 365.680555 
L 67.366883 365.680555 
L 67.540142 365.040326 
L 67.713401 365.040326 
L 67.88666 364.400096 
L 67.97329 364.400096 
L 68.189864 363.439752 
L 68.233178 363.439752 
L 68.406438 362.799522 
L 68.623011 362.799522 
L 68.752956 362.159293 
L 68.96953 362.159293 
L 69.142789 361.519063 
L 69.186103 361.519063 
L 69.445992 360.238604 
L 69.489307 360.238604 
L 69.705881 359.278259 
L 69.749195 359.278259 
L 69.965769 358.317915 
L 70.009084 358.317915 
L 70.182343 357.677685 
L 70.398917 357.677685 
L 70.528861 357.357571 
L 70.918694 357.357571 
L 71.048639 357.037456 
L 71.091953 357.037456 
L 71.265213 356.397226 
L 71.351842 356.397226 
L 71.481786 356.077112 
L 71.525101 356.077112 
L 71.741675 355.116767 
L 71.871619 355.116767 
L 72.044878 354.476538 
L 72.088193 354.476538 
L 72.261452 353.836308 
L 72.348082 353.836308 
L 72.521341 353.196078 
L 72.6946 353.196078 
L 72.867859 352.555849 
L 73.257692 352.555849 
L 73.387636 352.235734 
L 73.517581 352.235734 
L 73.647525 351.915619 
L 74.297247 351.915619 
L 74.427191 350.955275 
L 74.557135 350.955275 
L 74.68708 350.63516 
L 74.817024 350.63516 
L 74.946968 350.315045 
L 75.076913 350.315045 
L 75.206857 349.674816 
L 75.380116 349.674816 
L 75.553375 349.034586 
L 75.640005 349.034586 
L 75.813264 348.074242 
L 75.943208 348.074242 
L 76.073152 347.754127 
L 76.203097 347.754127 
L 76.376356 346.793782 
L 76.462985 346.793782 
L 76.636244 346.153553 
L 76.852818 346.153553 
L 76.982763 345.833438 
L 77.026077 345.833438 
L 77.156022 345.513323 
L 77.285966 345.513323 
L 77.41591 345.193208 
L 77.459225 345.193208 
L 77.589169 344.873094 
L 77.805743 344.873094 
L 77.935688 344.552979 
L 78.022317 344.552979 
L 78.195576 343.912749 
L 78.32552 343.912749 
L 78.455465 343.592634 
L 78.49878 343.592634 
L 78.715353 342.63229 
L 78.758668 342.63229 
L 78.975242 341.671946 
L 79.018557 341.671946 
L 79.191816 341.031716 
L 79.32176 341.031716 
L 79.495019 340.391486 
L 79.581649 340.391486 
L 79.711593 340.071372 
L 79.841538 340.071372 
L 79.971482 339.751257 
L 80.014797 339.751257 
L 80.23137 338.790912 
L 80.274685 338.790912 
L 80.447944 338.150683 
L 80.621203 338.150683 
L 80.751148 337.510453 
L 80.837777 337.510453 
L 81.054351 336.550109 
L 81.140981 336.550109 
L 81.31424 335.909879 
L 81.357555 335.909879 
L 81.530814 335.26965 
L 81.704073 335.26965 
L 81.877332 334.62942 
L 82.050591 334.62942 
L 82.180535 334.309305 
L 82.267165 334.309305 
L 82.440424 333.669076 
L 82.700312 333.669076 
L 82.873572 333.028846 
L 83.046831 333.028846 
L 83.176775 332.708731 
L 83.350034 332.708731 
L 83.479978 332.388617 
L 83.609923 332.388617 
L 83.739867 331.748387 
L 83.826497 331.748387 
L 83.956441 331.428272 
L 84.086385 331.428272 
L 84.21633 331.108157 
L 84.346274 331.108157 
L 84.519533 329.827698 
L 84.606163 329.827698 
L 84.736107 329.507583 
L 84.866051 329.507583 
L 84.995995 329.187469 
L 85.082625 329.187469 
L 85.299199 328.227124 
L 85.385828 328.227124 
L 85.559088 327.586895 
L 85.689032 327.586895 
L 85.862291 326.946665 
L 85.992235 326.946665 
L 86.12218 326.62655 
L 86.382068 326.62655 
L 86.555327 325.986321 
L 86.598642 325.986321 
L 86.771901 325.025976 
L 86.901845 325.025976 
L 87.075105 324.385747 
L 87.118419 324.385747 
L 87.291678 323.745517 
L 87.378308 323.745517 
L 87.594882 322.785173 
L 87.638197 322.785173 
L 87.811456 322.144943 
L 87.85477 322.144943 
L 88.02803 321.504713 
L 88.114659 321.504713 
L 88.287918 320.864484 
L 88.591122 320.864484 
L 88.764381 319.904139 
L 88.85101 319.904139 
L 88.980955 318.62368 
L 89.110899 318.62368 
L 89.284158 317.663336 
L 89.370788 317.663336 
L 89.587361 316.702991 
L 89.673991 316.702991 
L 89.84725 316.062762 
L 89.93388 316.062762 
L 90.107139 315.422532 
L 90.193768 315.422532 
L 90.323712 315.102417 
L 90.453657 315.102417 
L 90.583601 314.462188 
L 90.626916 314.462188 
L 90.75686 314.142073 
L 90.930119 314.142073 
L 91.103378 313.501844 
L 91.146693 313.501844 
L 91.276638 313.181729 
L 91.319952 313.181729 
L 91.493211 312.541499 
L 91.83973 312.541499 
L 92.012989 311.90127 
L 92.056303 311.90127 
L 92.272877 310.940925 
L 92.402822 310.940925 
L 92.532766 310.62081 
L 92.66271 310.62081 
L 92.792655 309.980581 
L 92.965914 309.980581 
L 93.095858 309.660466 
L 93.182488 309.660466 
L 93.355747 308.700122 
L 93.485691 308.700122 
L 93.65895 307.739777 
L 94.005468 307.739777 
L 94.178727 307.099548 
L 94.351986 307.099548 
L 94.525245 306.459318 
L 94.56856 306.459318 
L 94.741819 305.819088 
L 94.871764 305.819088 
L 95.001708 305.498974 
L 95.131652 305.498974 
L 95.261597 305.178859 
L 95.391541 305.178859 
L 95.521485 304.858744 
L 95.694744 304.858744 
L 95.824689 304.538629 
L 95.954633 304.538629 
L 96.084577 304.218514 
L 96.171207 304.218514 
L 96.344466 303.578285 
L 96.47441 303.578285 
L 96.647669 302.938055 
L 96.734299 302.938055 
L 96.907558 301.657596 
L 97.080817 301.657596 
L 97.210761 301.337481 
L 97.254076 301.337481 
L 97.513965 300.057022 
L 97.600594 300.057022 
L 97.817168 299.096678 
L 97.947113 299.096678 
L 98.077057 298.776563 
L 98.120372 298.776563 
L 98.336945 297.816218 
L 98.38026 297.816218 
L 98.553519 297.175989 
L 98.943352 297.175989 
L 99.203241 295.89553 
L 99.333185 295.89553 
L 99.549759 294.935185 
L 99.593074 294.935185 
L 99.809648 293.974841 
L 99.982907 293.974841 
L 100.112851 293.654726 
L 100.156166 293.654726 
L 100.329425 293.014496 
L 100.502684 293.014496 
L 100.675943 292.374267 
L 100.762573 292.374267 
L 100.935832 291.734037 
L 100.979147 291.734037 
L 101.152406 291.093808 
L 101.239035 291.093808 
L 101.412294 290.453578 
L 101.498924 290.453578 
L 101.672183 289.813349 
L 101.758813 289.813349 
L 101.888757 289.493234 
L 101.932072 289.493234 
L 102.105331 288.853004 
L 102.19196 288.853004 
L 102.451849 287.572545 
L 102.538478 287.572545 
L 102.755052 286.612201 
L 102.884997 286.612201 
L 103.058256 285.971971 
L 103.491403 285.971971 
L 103.621348 285.331741 
L 103.967866 285.331741 
L 104.18444 284.371397 
L 104.271069 284.371397 
L 104.401014 284.051282 
L 104.530958 284.051282 
L 104.660902 283.411053 
L 104.920791 283.411053 
L 105.137365 282.450708 
L 105.353939 282.450708 
L 105.527198 281.810479 
L 105.613827 281.810479 
L 105.787086 281.170249 
L 105.873716 281.170249 
L 106.00366 280.850134 
L 106.176919 280.850134 
L 106.306864 280.530019 
L 106.436808 280.530019 
L 106.566752 279.88979 
L 106.869956 279.88979 
L 106.9999 279.569675 
L 107.173159 279.569675 
L 107.303103 278.929445 
L 107.433048 278.929445 
L 107.562992 277.969101 
L 107.736251 277.969101 
L 107.952825 277.008757 
L 108.299343 277.008757 
L 108.429288 276.688642 
L 108.472602 276.688642 
L 108.645861 276.048412 
L 108.775806 276.048412 
L 108.949065 275.408183 
L 109.208953 275.408183 
L 109.382213 274.767953 
L 109.468842 274.767953 
L 109.598786 274.447838 
L 109.642101 274.447838 
L 109.772045 274.127723 
L 110.205193 274.127723 
L 110.335138 273.807609 
L 110.421767 273.807609 
L 110.595026 273.167379 
L 110.72497 273.167379 
L 110.854915 272.847264 
L 110.941544 272.847264 
L 111.158118 271.88692 
L 111.374692 271.88692 
L 111.504636 271.566805 
L 111.634581 271.566805 
L 111.764525 271.24669 
L 112.024414 271.24669 
L 112.154358 270.926576 
L 112.327617 270.926576 
L 112.457561 270.286346 
L 112.500876 270.286346 
L 112.63082 269.966231 
L 112.674135 269.966231 
L 112.847394 269.326002 
L 112.934024 269.326002 
L 113.107283 268.685772 
L 113.237227 268.685772 
L 113.453801 267.725428 
L 113.540431 267.725428 
L 113.670375 267.405313 
L 113.843634 267.405313 
L 113.973578 267.085198 
L 114.103523 267.085198 
L 114.233467 266.444968 
L 114.363411 266.444968 
L 114.493356 265.804739 
L 114.53667 265.804739 
L 114.753244 264.844394 
L 114.839874 264.844394 
L 115.056448 263.88405 
L 115.099762 263.88405 
L 115.273022 263.24382 
L 115.359651 263.24382 
L 115.576225 262.283476 
L 115.61954 262.283476 
L 115.792799 261.643246 
L 115.922743 261.643246 
L 116.052687 261.323132 
L 116.182632 261.323132 
L 116.355891 260.682902 
L 116.44252 260.682902 
L 116.572465 260.042672 
L 116.659094 260.042672 
L 116.875668 259.082328 
L 116.962298 259.082328 
L 117.178872 258.121984 
L 117.222186 258.121984 
L 117.395445 256.841524 
L 117.482075 256.841524 
L 117.698649 255.88118 
L 117.785278 255.88118 
L 117.915223 255.561065 
L 118.045167 255.561065 
L 118.175111 254.920836 
L 118.305056 254.920836 
L 118.435 254.600721 
L 118.52163 254.600721 
L 118.694889 253.960491 
L 118.824833 253.960491 
L 119.041407 253.000147 
L 119.387925 253.000147 
L 119.604499 252.039802 
L 119.647814 252.039802 
L 119.777758 251.719688 
L 119.907702 251.719688 
L 120.080961 250.759343 
L 120.167591 250.759343 
L 120.470794 249.158769 
L 120.730683 249.158769 
L 120.903942 248.51854 
L 120.947257 248.51854 
L 121.120516 247.87831 
L 121.25046 247.87831 
L 121.380405 246.597851 
L 121.510349 246.597851 
L 121.640293 245.957621 
L 121.943497 245.957621 
L 122.116756 245.317392 
L 122.16007 245.317392 
L 122.33333 244.677162 
L 122.463274 244.677162 
L 122.636533 244.036933 
L 122.723163 244.036933 
L 122.896422 243.076588 
L 123.112995 243.076588 
L 123.286255 242.436359 
L 123.416199 242.436359 
L 123.589458 241.476014 
L 123.676087 241.476014 
L 123.849347 240.51567 
L 123.892661 240.51567 
L 124.109235 239.555325 
L 124.15255 239.555325 
L 124.325809 238.915096 
L 124.455753 238.915096 
L 124.585698 238.594981 
L 124.715642 238.594981 
L 124.845586 237.954751 
L 125.018845 237.954751 
L 125.14879 237.634637 
L 125.192105 237.634637 
L 125.365364 236.994407 
L 125.538623 236.994407 
L 125.841826 235.393833 
L 125.97177 235.393833 
L 126.101715 235.073718 
L 126.231659 235.073718 
L 126.361603 234.753603 
L 126.448233 234.753603 
L 126.621492 234.113374 
L 126.664807 234.113374 
L 126.924695 232.832915 
L 126.96801 232.832915 
L 127.097955 232.5128 
L 127.271214 232.5128 
L 127.401158 232.192685 
L 127.531102 232.192685 
L 127.704361 231.552455 
L 127.790991 231.552455 
L 127.920935 230.912226 
L 127.96425 230.912226 
L 128.224139 229.631767 
L 128.310768 229.631767 
L 128.440713 229.311652 
L 128.527342 229.311652 
L 128.743916 228.351308 
L 128.917175 228.351308 
L 129.047119 228.031193 
L 129.090434 228.031193 
L 129.263693 227.390963 
L 129.610211 227.390963 
L 129.8701 226.110504 
L 130.129989 226.110504 
L 130.303248 225.15016 
L 130.346563 225.15016 
L 130.563136 223.549586 
L 130.649766 223.549586 
L 130.909655 222.269126 
L 130.996284 222.269126 
L 131.126228 221.949012 
L 131.472747 221.949012 
L 131.602691 221.308782 
L 131.68932 221.308782 
L 131.86258 220.668552 
L 131.992524 220.668552 
L 132.122468 220.028323 
L 132.252412 220.028323 
L 132.382357 219.067978 
L 132.555616 218.427749 
L 132.642245 218.427749 
L 132.815505 217.787519 
L 132.988764 217.787519 
L 133.162023 217.14729 
L 133.508541 217.14729 
L 133.638485 216.827175 
L 133.76843 216.827175 
L 133.941689 216.186945 
L 134.028318 216.186945 
L 134.158262 215.546716 
L 134.201577 215.546716 
L 134.504781 213.946142 
L 134.721355 213.946142 
L 135.067873 212.025453 
L 135.111187 212.025453 
L 135.241132 211.385223 
L 135.284447 211.385223 
L 135.457706 210.744994 
L 135.544335 210.744994 
L 135.847539 209.14442 
L 135.977483 209.14442 
L 136.107427 208.50419 
L 136.237372 208.50419 
L 136.410631 207.543846 
L 136.49726 207.543846 
L 136.627205 207.223731 
L 137.276926 207.223731 
L 137.4935 206.263387 
L 137.58013 206.263387 
L 137.710074 205.623157 
L 138.273166 205.623157 
L 138.446425 204.982927 
L 138.619684 204.982927 
L 138.749628 204.662813 
L 138.879573 204.662813 
L 139.052832 204.022583 
L 139.139461 204.022583 
L 139.31272 203.382353 
L 139.48598 203.382353 
L 139.702553 202.422009 
L 139.789183 202.422009 
L 139.919127 202.101894 
L 140.049072 202.101894 
L 140.222331 201.461665 
L 140.30896 201.461665 
L 140.525534 200.50132 
L 140.568849 200.50132 
L 140.742108 199.540976 
L 140.828737 199.540976 
L 141.045311 198.580631 
L 141.175256 198.580631 
L 141.39183 197.620287 
L 141.478459 197.620287 
L 141.651718 196.980057 
L 141.695033 196.980057 
L 141.868292 195.699598 
L 141.998236 195.699598 
L 142.171495 195.059369 
L 142.258125 195.059369 
L 142.388069 194.739254 
L 142.431384 194.739254 
L 142.561328 194.419139 
L 142.604643 194.419139 
L 142.734587 194.099024 
L 142.864532 194.099024 
L 143.081106 193.13868 
L 143.12442 193.13868 
L 143.29768 192.49845 
L 143.557568 192.49845 
L 143.730827 191.858221 
L 143.774142 191.858221 
L 143.947401 191.217991 
L 144.034031 191.217991 
L 144.20729 190.577761 
L 144.293919 190.577761 
L 144.510493 189.617417 
L 144.727067 189.617417 
L 144.943641 188.657073 
L 144.986956 188.657073 
L 145.20353 187.696728 
L 145.333474 187.696728 
L 145.506733 187.056499 
L 145.550048 187.056499 
L 145.723307 186.416269 
L 145.853251 186.416269 
L 146.243084 184.175466 
L 146.329714 184.175466 
L 146.546288 183.215121 
L 146.676232 183.215121 
L 146.892806 182.254777 
L 146.93612 182.254777 
L 147.196009 180.974318 
L 147.239324 180.974318 
L 147.542527 179.373744 
L 147.629157 179.373744 
L 147.802416 178.733514 
L 147.889045 178.733514 
L 148.148934 177.453055 
L 148.322193 177.453055 
L 148.625397 175.852481 
L 148.668711 175.852481 
L 148.971915 174.251907 
L 149.188489 174.251907 
L 149.361748 173.611677 
L 149.535007 173.611677 
L 149.708266 172.971448 
L 149.794895 172.971448 
L 149.92484 172.331218 
L 150.011469 172.331218 
L 150.184728 171.690988 
L 150.401302 171.690988 
L 150.617876 170.730644 
L 150.791135 170.730644 
L 150.92108 170.090414 
L 151.051024 170.090414 
L 151.180968 169.7703 
L 151.224283 169.7703 
L 151.397542 169.13007 
L 151.484172 169.13007 
L 151.614116 168.48984 
L 151.787375 168.48984 
L 151.917319 168.169726 
L 152.047264 168.169726 
L 152.263837 167.209381 
L 152.523726 167.209381 
L 152.696985 166.569152 
L 152.956874 166.569152 
L 153.173448 165.608807 
L 153.216763 165.608807 
L 153.390022 164.968578 
L 153.519966 164.968578 
L 153.64991 164.648463 
L 153.779855 164.648463 
L 153.953114 164.008233 
L 154.039743 164.008233 
L 154.256317 163.047889 
L 154.299632 163.047889 
L 154.429576 162.727774 
L 154.472891 162.727774 
L 154.64615 161.76743 
L 154.73278 161.76743 
L 154.862724 161.447315 
L 154.949353 161.447315 
L 155.079298 161.1272 
L 155.209242 161.1272 
L 155.425816 160.166856 
L 155.512445 160.166856 
L 155.685705 159.206511 
L 156.032223 159.206511 
L 156.205482 158.246167 
L 156.248797 158.246167 
L 156.552 156.645593 
L 156.63863 156.645593 
L 156.768574 155.685249 
L 157.115092 155.685249 
L 157.245036 155.365134 
L 157.331666 155.365134 
L 157.46161 155.045019 
L 157.634869 155.045019 
L 157.764814 154.724904 
L 157.894758 154.724904 
L 158.111332 153.76456 
L 158.154647 153.76456 
L 158.284591 153.444445 
L 158.37122 153.444445 
L 158.54448 152.804215 
L 158.674424 152.804215 
L 159.064257 150.563412 
L 159.280831 150.563412 
L 159.410775 150.243297 
L 159.540719 150.243297 
L 159.713978 149.603067 
L 159.757293 149.603067 
L 159.930552 148.962838 
L 160.103811 148.962838 
L 160.233756 148.642723 
L 160.320385 148.642723 
L 160.580274 147.362264 
L 160.753533 147.362264 
L 160.883477 147.042149 
L 161.056736 147.042149 
L 161.27331 146.081805 
L 161.35994 146.081805 
L 161.533199 145.441575 
L 161.576514 145.441575 
L 161.749773 144.801345 
L 161.836402 144.801345 
L 162.009661 144.161116 
L 162.139606 144.161116 
L 162.35618 143.200772 
L 162.442809 143.200772 
L 162.616068 142.560542 
L 162.659383 142.560542 
L 162.875957 141.600198 
L 162.962586 141.600198 
L 163.135845 140.959968 
L 163.17916 140.959968 
L 163.395734 139.999624 
L 163.482364 139.999624 
L 163.612308 139.679509 
L 163.655623 139.679509 
L 163.872197 138.719164 
L 163.915511 138.719164 
L 164.1754 137.438705 
L 164.305344 137.438705 
L 164.435289 137.11859 
L 164.565233 137.11859 
L 164.695177 136.798476 
L 164.738492 136.798476 
L 164.868436 136.478361 
L 164.998381 136.478361 
L 165.301584 134.877787 
L 165.474843 134.877787 
L 165.734732 133.597328 
L 166.037935 133.597328 
L 166.254509 132.636983 
L 166.384453 132.636983 
L 166.601027 131.676639 
L 166.687657 131.676639 
L 166.860916 131.036409 
L 166.904231 131.036409 
L 167.120805 130.076065 
L 167.250749 130.076065 
L 167.467323 129.11572 
L 167.553952 129.11572 
L 167.727211 128.475491 
L 167.857156 128.475491 
L 167.9871 128.155376 
L 168.030415 128.155376 
L 168.246989 127.195032 
L 168.290303 127.195032 
L 168.420248 126.874917 
L 168.463562 126.874917 
L 168.593507 126.554802 
L 168.680136 126.554802 
L 168.810081 126.234687 
L 168.89671 126.234687 
L 169.069969 125.594458 
L 169.113284 125.594458 
L 169.329858 124.634113 
L 169.373173 124.634113 
L 169.546432 123.993884 
L 170.066209 123.993884 
L 170.196153 123.673769 
L 170.282783 123.673769 
L 170.456042 123.033539 
L 170.629301 123.033539 
L 170.80256 122.39331 
L 170.88919 122.39331 
L 171.019134 122.073195 
L 171.192393 122.073195 
L 171.365652 121.432965 
L 171.452282 121.432965 
L 171.582226 121.112851 
L 171.842115 121.112851 
L 172.058689 120.152506 
L 172.102003 120.152506 
L 172.231948 119.832391 
L 172.318577 119.832391 
L 172.578466 118.551932 
L 172.621781 118.551932 
L 172.79504 117.911703 
L 173.271502 117.911703 
L 173.401447 117.591588 
L 173.574706 117.591588 
L 173.70465 117.271473 
L 173.834594 117.271473 
L 173.964539 116.631243 
L 174.137798 116.631243 
L 174.267742 116.311129 
L 174.311057 116.311129 
L 174.441001 115.991014 
L 174.70089 115.991014 
L 174.830834 115.350784 
L 174.874149 115.350784 
L 175.004093 115.030669 
L 175.134037 115.030669 
L 175.307297 114.39044 
L 175.393926 114.39044 
L 175.6105 113.430095 
L 175.653815 113.430095 
L 175.783759 113.109981 
L 175.913703 113.109981 
L 176.086962 112.469751 
L 176.260222 112.469751 
L 176.390166 112.149636 
L 176.52011 112.149636 
L 176.736684 111.189292 
L 176.779999 111.189292 
L 176.953258 110.549062 
L 177.126517 110.549062 
L 177.299776 109.908833 
L 177.42972 109.908833 
L 177.60298 109.268603 
L 177.689609 109.268603 
L 177.862868 108.628373 
L 177.949498 108.628373 
L 178.079442 108.308259 
L 178.209386 108.308259 
L 178.382645 107.668029 
L 178.469275 107.668029 
L 178.599219 107.027799 
L 178.772478 107.027799 
L 178.989052 106.067455 
L 179.075682 106.067455 
L 179.248941 105.427225 
L 179.33557 105.427225 
L 179.465515 105.107111 
L 179.638774 105.107111 
L 179.768718 104.786996 
L 179.941977 104.786996 
L 180.071922 104.466881 
L 180.115236 104.466881 
L 180.33181 103.506537 
L 180.375125 103.506537 
L 180.505069 103.186422 
L 180.894902 103.186422 
L 181.111476 102.226077 
L 181.154791 102.226077 
L 181.32805 101.265733 
L 181.371365 101.265733 
L 181.544624 100.625504 
L 181.587939 100.625504 
L 181.804512 99.665159 
L 181.847827 99.665159 
L 181.977772 99.345044 
L 182.107716 99.345044 
L 182.32429 98.3847 
L 182.367605 98.3847 
L 182.584178 97.424356 
L 182.714123 97.424356 
L 182.844067 97.104241 
L 182.887382 97.104241 
L 183.060641 96.464011 
L 183.14727 96.464011 
L 183.277215 96.143896 
L 183.407159 96.143896 
L 183.580418 95.503667 
L 183.753677 95.503667 
L 183.883622 95.183552 
L 183.926936 95.183552 
L 184.100195 94.543322 
L 184.186825 94.543322 
L 184.360084 93.903093 
L 184.490028 93.903093 
L 184.663287 93.262863 
L 185.096435 93.262863 
L 185.22638 92.942748 
L 185.313009 92.942748 
L 185.529583 91.982404 
L 185.572898 91.982404 
L 185.746157 91.342174 
L 185.789472 91.342174 
L 186.006045 90.38183 
L 186.092675 90.38183 
L 186.265934 89.7416 
L 186.352564 89.7416 
L 186.525823 89.101371 
L 186.612452 89.101371 
L 186.785711 88.461141 
L 187.002285 88.461141 
L 187.175544 87.820912 
L 187.262174 87.820912 
L 187.435433 87.180682 
L 187.565377 87.180682 
L 187.781951 86.220338 
L 188.04184 86.220338 
L 188.171784 85.900223 
L 188.345043 85.900223 
L 188.474987 85.580108 
L 188.648247 85.580108 
L 188.778191 84.939878 
L 188.908135 84.939878 
L 189.124709 83.979534 
L 189.168024 83.979534 
L 189.297968 83.659419 
L 189.427912 83.659419 
L 189.601172 83.01919 
L 189.774431 83.01919 
L 189.94769 82.37896 
L 190.164264 82.37896 
L 190.337523 81.418616 
L 190.467467 81.418616 
L 190.684041 80.458271 
L 190.8573 80.458271 
L 191.030559 79.497927 
L 191.247133 79.497927 
L 191.377077 79.177812 
L 191.420392 79.177812 
L 191.550336 78.857697 
L 191.636966 78.857697 
L 191.940169 77.257123 
L 191.983484 77.257123 
L 192.243373 75.976664 
L 192.459947 75.976664 
L 192.589891 75.336435 
L 192.76315 75.336435 
L 192.893094 75.01632 
L 193.456186 75.01632 
L 193.586131 74.37609 
L 193.716075 74.37609 
L 193.846019 74.055975 
L 193.932649 74.055975 
L 194.062593 73.415746 
L 194.452426 73.415746 
L 194.58237 73.095631 
L 194.625685 73.095631 
L 194.798944 72.455401 
L 194.928889 72.455401 
L 195.102148 71.815172 
L 195.362036 71.815172 
L 195.491981 71.495057 
L 195.621925 71.495057 
L 195.751869 71.174942 
L 195.838499 71.174942 
L 196.055073 70.214598 
L 196.141702 70.214598 
L 196.271647 69.894483 
L 196.401591 69.894483 
L 196.531535 69.574368 
L 196.66148 69.574368 
L 196.791424 69.254253 
L 196.834739 69.254253 
L 197.007998 68.614024 
L 197.181257 68.614024 
L 197.311201 68.293909 
L 197.48446 68.293909 
L 197.614405 67.973794 
L 197.657719 67.973794 
L 197.787664 67.653679 
L 198.39407 67.653679 
L 198.524015 67.333565 
L 198.653959 67.333565 
L 198.870533 66.37322 
L 198.957162 66.37322 
L 199.087107 66.053105 
L 199.260366 66.053105 
L 199.39031 65.732991 
L 199.520255 65.732991 
L 199.650199 65.412876 
L 199.866773 65.412876 
L 199.996717 65.092761 
L 200.126661 65.092761 
L 200.256606 64.772646 
L 200.429865 64.772646 
L 200.603124 64.132417 
L 200.863012 64.132417 
L 200.992957 63.812302 
L 201.122901 63.812302 
L 201.29616 63.172072 
L 201.38279 63.172072 
L 201.512734 62.851957 
L 201.642678 62.851957 
L 201.815937 62.211728 
L 202.2924 62.211728 
L 202.422344 61.891613 
L 202.465659 61.891613 
L 202.638918 61.251383 
L 202.725548 61.251383 
L 202.855492 60.931269 
L 202.985436 60.931269 
L 203.115381 60.611154 
L 203.245325 60.611154 
L 203.418584 59.970924 
L 203.548528 59.970924 
L 203.678473 59.650809 
L 203.851732 59.650809 
L 203.981676 59.330695 
L 204.328194 59.330695 
L 204.458139 59.01058 
L 204.847972 59.01058 
L 204.977916 58.690465 
L 205.10786 58.690465 
L 205.237805 58.37035 
L 205.367749 58.37035 
L 205.541008 57.730121 
L 205.800897 57.730121 
L 205.930841 57.410006 
L 206.060785 57.410006 
L 206.19073 57.089891 
L 206.623877 57.089891 
L 206.753822 56.769776 
L 206.927081 56.769776 
L 207.10034 56.129547 
L 207.446858 56.129547 
L 207.576802 55.809432 
L 208.00995 55.809432 
L 208.139894 55.489317 
L 208.226524 55.489317 
L 208.399783 54.849088 
L 208.789616 54.849088 
L 208.91956 54.528973 
L 209.309393 54.528973 
L 209.439337 54.208858 
L 209.569282 54.208858 
L 209.699226 53.888743 
L 209.742541 53.888743 
L 209.9158 53.248514 
L 210.305633 53.248514 
L 210.435577 52.928399 
L 210.608836 52.928399 
L 210.738781 52.608284 
L 210.82541 52.608284 
L 210.998669 51.968054 
L 211.128614 51.968054 
L 211.258558 51.64794 
L 211.345187 51.64794 
L 211.518447 51.00771 
L 212.124853 51.00771 
L 212.254798 50.687595 
L 212.384742 50.687595 
L 212.514686 50.047366 
L 213.467611 50.047366 
L 213.597556 49.727251 
L 213.770815 49.727251 
L 213.900759 49.407136 
L 213.987389 49.407136 
L 214.117333 49.087021 
L 214.593795 49.087021 
L 214.767055 48.446792 
L 215.156887 48.446792 
L 215.286832 48.126677 
L 215.416776 48.126677 
L 215.590035 47.486447 
L 216.196442 47.486447 
L 216.326386 47.166332 
L 216.456331 47.166332 
L 216.62959 46.526103 
L 216.716219 46.526103 
L 216.846164 46.205988 
L 216.976108 46.205988 
L 217.149367 45.565758 
L 217.279311 45.565758 
L 217.409256 45.245644 
L 217.5392 45.245644 
L 217.669144 44.925529 
L 217.842403 44.925529 
L 217.972348 44.605414 
L 218.275551 44.605414 
L 218.405495 44.285299 
L 218.53544 44.285299 
L 218.665384 43.965184 
L 218.795328 43.965184 
L 218.925273 43.64507 
L 219.574994 43.64507 
L 219.748253 43.00484 
L 220.051457 43.00484 
L 220.181401 42.684725 
L 220.614549 42.684725 
L 220.744493 42.36461 
L 220.917752 42.36461 
L 221.047697 41.724381 
L 221.220956 41.724381 
L 221.3509 41.404266 
L 221.740733 41.404266 
L 221.870677 41.084151 
L 222.043936 41.084151 
L 222.173881 40.764036 
L 222.390455 40.764036 
L 222.520399 40.443922 
L 222.693658 40.443922 
L 222.823602 40.123807 
L 222.996861 40.123807 
L 223.126806 39.803692 
L 223.17012 39.803692 
L 223.300065 39.483577 
L 223.430009 39.483577 
L 223.559953 39.163462 
L 223.733212 39.163462 
L 223.863157 38.843348 
L 224.036416 38.843348 
L 224.16636 38.203118 
L 224.296305 38.203118 
L 224.426249 37.883003 
L 224.556193 37.883003 
L 224.686138 37.562888 
L 225.07597 37.562888 
L 225.205915 37.242774 
L 225.335859 37.242774 
L 225.465803 36.922659 
L 225.595748 36.922659 
L 225.725692 36.602544 
L 225.942266 36.602544 
L 226.07221 36.282429 
L 226.505358 36.282429 
L 226.635302 35.962315 
L 227.371653 35.962315 
L 227.501598 35.6422 
L 227.631542 35.6422 
L 227.761486 35.322085 
L 227.934745 35.322085 
L 228.06469 34.681855 
L 228.194634 34.681855 
L 228.324578 34.361741 
L 228.757726 34.361741 
L 228.88767 34.041626 
L 230.620261 34.041626 
L 230.79352 33.401396 
L 231.78976 33.401396 
L 231.919705 33.081281 
L 232.266223 33.081281 
L 232.396167 32.761167 
L 232.569426 32.761167 
L 232.69937 32.441052 
L 232.87263 32.441052 
L 233.002574 32.120937 
L 233.132518 32.120937 
L 233.262462 31.800822 
L 234.648535 31.800822 
L 234.77848 31.480707 
L 235.644775 31.480707 
L 235.774719 31.160593 
L 244.957451 31.160593 
L 245.087395 30.840478 
L 251.8445 30.840478 
L 251.974444 30.520363 
L 253.187258 30.520363 
L 253.317202 30.200248 
L 253.966924 30.200248 
L 254.096868 29.880133 
L 258.428345 29.880133 
L 258.55829 29.560019 
L 258.688234 29.560019 
L 258.818178 29.239904 
L 258.948123 29.239904 
L 259.078067 28.919789 
L 259.814418 28.919789 
L 259.944363 28.599674 
L 260.940602 28.599674 
L 261.070547 28.279559 
L 261.200491 28.279559 
L 261.330435 27.959445 
L 261.676953 27.959445 
L 261.806898 27.63933 
L 262.499934 27.63933 
L 262.629878 27.319215 
L 262.759823 27.319215 
L 262.889767 26.9991 
L 263.019711 26.9991 
L 263.149656 26.678985 
L 263.322915 26.678985 
L 263.452859 26.358871 
L 284.720412 26.358871 
L 284.850357 26.038756 
L 325.522928 26.038756 
L 325.652873 25.718641 
L 328.728222 25.718641 
L 328.858166 25.398526 
L 329.07474 25.398526 
L 329.204684 25.078411 
L 394.653306 25.078411 
L 394.78325 24.758297 
L 395.303027 24.758297 
L 395.432972 24.438182 
L 410.766401 24.438182 
L 410.766401 24.438182 
" clip-path="url(#p90fb2908b7)" style="fill: none; stroke: #00008b; stroke-width: 2; stroke-linecap: square"/>
   </g>
   <g id="line2d_31">
    <path d="M 410.809716 369.201818 
L 177.256461 369.201818 
L 177.126517 367.601244 
L 175.350611 367.601244 
L 175.220667 366.00067 
L 175.047408 366.00067 
L 174.917464 364.400096 
L 160.233756 364.400096 
L 160.103811 362.799522 
L 154.386261 362.799522 
L 154.256317 361.198948 
L 144.293919 361.198948 
L 144.163975 359.598374 
L 143.514253 359.598374 
L 143.384309 357.9978 
L 141.868292 357.9978 
L 141.738348 356.397226 
L 141.565089 356.397226 
L 141.435144 354.796652 
L 141.21857 354.796652 
L 141.088626 353.196078 
L 140.872052 353.196078 
L 140.742108 351.595504 
L 140.525534 351.595504 
L 140.39559 349.99493 
L 104.09781 349.99493 
L 103.967866 348.394356 
L 94.871764 348.394356 
L 94.741819 346.793782 
L 94.56856 346.793782 
L 94.438616 345.193208 
L 93.312432 345.193208 
L 93.182488 343.592634 
L 89.240843 343.592634 
L 89.110899 341.99206 
L 87.984715 341.99206 
L 87.85477 340.391486 
L 64.334849 340.391486 
L 64.334849 340.391486 
" clip-path="url(#p90fb2908b7)" style="fill: none; stroke-dasharray: 7.4,3.2; stroke-dashoffset: 0; stroke: #fa8072; stroke-width: 2"/>
   </g>
   <g id="line2d_32">
    <path d="M 410.809716 369.201818 
L 361.47419 369.201818 
L 361.344245 367.601244 
L 315.127383 367.601244 
L 314.997439 366.00067 
L 182.670808 366.00067 
L 182.540864 364.400096 
L 181.891142 364.400096 
L 181.761198 362.799522 
L 180.808273 362.799522 
L 180.678328 361.198948 
L 180.548384 361.198948 
L 180.41844 359.598374 
L 180.288495 359.598374 
L 180.158551 357.9978 
L 179.768718 357.9978 
L 179.638774 356.397226 
L 179.50883 356.397226 
L 179.378885 354.796652 
L 178.685849 354.796652 
L 178.555905 353.196078 
L 178.42596 353.196078 
L 178.296016 351.595504 
L 178.166072 351.595504 
L 178.036127 349.99493 
L 177.862868 349.99493 
L 177.732924 348.394356 
L 177.559665 348.394356 
L 177.42972 346.793782 
L 177.256461 346.793782 
L 177.126517 345.193208 
L 176.953258 345.193208 
L 176.823314 343.592634 
L 176.693369 343.592634 
L 176.563425 341.99206 
L 176.433481 341.99206 
L 176.303536 340.391486 
L 175.350611 340.391486 
L 175.220667 338.790912 
L 175.047408 338.790912 
L 174.917464 337.190338 
L 174.441001 337.190338 
L 174.311057 335.589764 
L 173.747965 335.589764 
L 173.61802 333.989191 
L 171.062449 333.989191 
L 170.932505 332.388617 
L 170.80256 332.388617 
L 170.672616 330.788043 
L 167.640582 330.788043 
L 167.510637 329.187469 
L 163.17916 329.187469 
L 163.049216 327.586895 
L 161.836402 327.586895 
L 161.706458 325.986321 
L 161.576514 325.986321 
L 161.446569 324.385747 
L 160.233756 324.385747 
L 160.103811 322.785173 
L 159.670664 322.785173 
L 159.540719 321.184599 
L 159.36746 321.184599 
L 159.237516 319.584025 
L 158.587794 319.584025 
L 158.45785 317.983451 
L 158.284591 317.983451 
L 158.154647 316.382877 
L 158.024702 316.382877 
L 157.894758 314.782303 
L 157.764814 314.782303 
L 157.634869 313.181729 
L 157.46161 313.181729 
L 157.331666 311.581155 
L 157.158407 311.581155 
L 157.028462 309.980581 
L 156.595315 309.980581 
L 156.46537 308.380007 
L 156.335426 308.380007 
L 156.205482 306.779433 
L 156.032223 306.779433 
L 155.902278 305.178859 
L 155.729019 305.178859 
L 155.599075 303.578285 
L 155.469131 303.578285 
L 155.339186 301.977711 
L 155.209242 301.977711 
L 155.079298 300.377137 
L 154.949353 300.377137 
L 154.819409 298.776563 
L 154.386261 298.776563 
L 154.256317 297.175989 
L 154.083058 297.175989 
L 153.953114 295.575415 
L 152.65367 295.575415 
L 152.523726 293.974841 
L 151.527486 293.974841 
L 151.397542 292.374267 
L 151.224283 292.374267 
L 151.094339 290.773693 
L 150.661191 290.773693 
L 150.531247 289.173119 
L 150.401302 289.173119 
L 150.271358 287.572545 
L 149.664951 287.572545 
L 149.535007 285.971971 
L 149.405062 285.971971 
L 149.275118 284.371397 
L 149.145174 284.371397 
L 149.01523 282.770823 
L 148.01899 282.770823 
L 147.889045 281.170249 
L 147.239324 281.170249 
L 147.10938 279.569675 
L 146.979435 279.569675 
L 146.849491 277.969101 
L 146.719547 277.969101 
L 146.589602 276.368527 
L 144.293919 276.368527 
L 144.163975 274.767953 
L 143.514253 274.767953 
L 143.384309 273.167379 
L 142.21481 273.167379 
L 142.084866 271.566805 
L 141.868292 271.566805 
L 141.738348 269.966231 
L 141.565089 269.966231 
L 141.435144 268.365657 
L 141.21857 268.365657 
L 141.088626 266.765083 
L 140.872052 266.765083 
L 140.742108 265.164509 
L 140.525534 265.164509 
L 140.39559 263.563935 
L 140.222331 263.563935 
L 140.092386 261.963361 
L 139.182776 261.963361 
L 139.052832 260.362787 
L 138.662999 260.362787 
L 138.533055 258.762213 
L 136.670519 258.762213 
L 136.540575 257.161639 
L 136.367316 257.161639 
L 136.237372 255.561065 
L 134.894614 255.561065 
L 134.764669 253.960491 
L 134.634725 253.960491 
L 134.504781 252.359917 
L 133.76843 252.359917 
L 133.638485 250.759343 
L 133.465226 250.759343 
L 133.335282 249.158769 
L 132.555616 249.158769 
L 132.425672 247.558195 
L 132.165783 247.558195 
L 132.035839 245.957621 
L 131.126228 245.957621 
L 130.996284 244.357047 
L 127.834306 244.357047 
L 127.704361 242.756473 
L 127.05464 242.756473 
L 126.924695 241.155899 
L 125.581937 241.155899 
L 125.451993 239.555325 
L 124.542383 239.555325 
L 124.412439 237.954751 
L 123.502828 237.954751 
L 123.372884 236.354177 
L 123.24294 236.354177 
L 123.112995 234.753603 
L 121.293775 234.753603 
L 121.163831 233.153029 
L 120.817312 233.153029 
L 120.687368 231.552455 
L 120.037647 231.552455 
L 119.907702 229.951881 
L 118.088482 229.951881 
L 117.958538 228.351308 
L 117.092242 228.351308 
L 116.962298 226.750734 
L 116.139317 226.750734 
L 116.009373 225.15016 
L 115.056448 225.15016 
L 114.926503 223.549586 
L 114.320097 223.549586 
L 114.190152 221.949012 
L 112.63082 221.949012 
L 112.500876 220.348438 
L 111.894469 220.348438 
L 111.764525 218.747864 
L 111.071489 218.747864 
L 110.941544 217.14729 
L 110.8116 217.14729 
L 110.681656 215.546716 
L 110.075249 215.546716 
L 109.945305 213.946142 
L 109.81536 213.946142 
L 109.685416 212.345568 
L 109.555472 212.345568 
L 109.425527 210.744994 
L 108.99238 210.744994 
L 108.862435 209.14442 
L 108.429288 209.14442 
L 108.299343 207.543846 
L 108.169399 207.543846 
L 108.039455 205.943272 
L 107.433048 205.943272 
L 107.303103 204.342698 
L 106.436808 204.342698 
L 106.306864 202.742124 
L 105.700457 202.742124 
L 105.570513 201.14155 
L 105.440568 201.14155 
L 105.310624 199.540976 
L 104.920791 199.540976 
L 104.790847 197.940402 
L 104.401014 197.940402 
L 104.271069 196.339828 
L 104.09781 196.339828 
L 103.967866 194.739254 
L 103.448089 194.739254 
L 103.318144 193.13868 
L 102.928311 193.13868 
L 102.798367 191.538106 
L 101.758813 191.538106 
L 101.628868 189.937532 
L 101.498924 189.937532 
L 101.36898 188.336958 
L 100.935832 188.336958 
L 100.805888 186.736384 
L 99.939592 186.736384 
L 99.809648 185.13581 
L 98.683464 185.13581 
L 98.553519 183.535236 
L 98.38026 183.535236 
L 98.250316 181.934662 
L 98.077057 181.934662 
L 97.947113 180.334088 
L 97.817168 180.334088 
L 97.687224 178.733514 
L 96.214522 178.733514 
L 96.084577 177.13294 
L 94.871764 177.13294 
L 94.741819 175.532366 
L 94.56856 175.532366 
L 94.438616 173.931792 
L 94.265357 173.931792 
L 94.135413 172.331218 
L 93.312432 172.331218 
L 93.182488 170.730644 
L 92.489451 170.730644 
L 92.359507 169.13007 
L 91.493211 169.13007 
L 91.363267 167.529496 
L 91.233323 167.529496 
L 91.103378 165.928922 
L 90.237083 165.928922 
L 90.107139 164.328348 
L 89.76062 164.328348 
L 89.630676 162.727774 
L 89.500732 162.727774 
L 89.370788 161.1272 
L 89.240843 161.1272 
L 89.110899 159.526626 
L 88.244603 159.526626 
L 88.114659 157.926052 
L 87.984715 157.926052 
L 87.85477 156.325478 
L 87.205049 156.325478 
L 87.075105 154.724904 
L 86.685272 154.724904 
L 86.555327 153.12433 
L 86.425383 153.12433 
L 86.295439 151.523756 
L 85.905606 151.523756 
L 85.775661 149.923182 
L 83.523293 149.923182 
L 83.393349 148.322608 
L 83.22009 148.322608 
L 83.090145 146.722034 
L 81.834017 146.722034 
L 81.704073 145.12146 
L 80.447944 145.12146 
L 80.318 143.520886 
L 80.188056 143.520886 
L 80.058111 141.920312 
L 79.668278 141.920312 
L 79.538334 140.319738 
L 79.40839 140.319738 
L 79.278445 138.719164 
L 78.41215 138.719164 
L 78.282206 137.11859 
L 78.152261 137.11859 
L 78.022317 135.518016 
L 77.849058 135.518016 
L 77.719114 133.917442 
L 77.069392 133.917442 
L 76.939448 132.316868 
L 75.683319 132.316868 
L 75.553375 130.716294 
L 75.076913 130.716294 
L 74.946968 129.11572 
L 74.817024 129.11572 
L 74.68708 127.515146 
L 74.557135 127.515146 
L 74.427191 125.914572 
L 72.60797 125.914572 
L 72.478026 124.313998 
L 72.304767 124.313998 
L 72.174823 122.713424 
L 72.044878 122.713424 
L 71.914934 121.112851 
L 71.308527 121.112851 
L 71.178583 119.512277 
L 71.005324 119.512277 
L 70.87538 117.911703 
L 70.485547 117.911703 
L 70.355602 116.311129 
L 69.445992 116.311129 
L 69.316048 114.710555 
L 69.186103 114.710555 
L 69.056159 113.109981 
L 68.926215 113.109981 
L 68.79627 111.509407 
L 67.929975 111.509407 
L 67.800031 109.908833 
L 67.670086 109.908833 
L 67.540142 108.308259 
L 66.717161 108.308259 
L 66.587217 106.707685 
L 65.0712 106.707685 
L 64.941256 105.107111 
L 64.334849 105.107111 
L 64.334849 105.107111 
" clip-path="url(#p90fb2908b7)" style="fill: none; stroke-dasharray: 7.4,3.2; stroke-dashoffset: 0; stroke: #8b0000; stroke-width: 2"/>
   </g>
   <g id="patch_3">
    <path d="M 46.965625 386.44 
L 46.965625 7.2 
" style="fill: none; stroke: #000000; stroke-width: 0.8; stroke-linejoin: miter; stroke-linecap: square"/>
   </g>
   <g id="patch_4">
    <path d="M 428.135625 386.44 
L 428.135625 7.2 
" style="fill: none; stroke: #000000; stroke-width: 0.8; stroke-linejoin: miter; stroke-linecap: square"/>
   </g>
   <g id="patch_5">
    <path d="M 46.965625 386.44 
L 428.135625 386.44 
" style="fill: none; stroke: #000000; stroke-width: 0.8; stroke-linejoin: miter; stroke-linecap: square"/>
   </g>
   <g id="patch_6">
    <path d="M 46.965625 7.2 
L 428.135625 7.2 
" style="fill: none; stroke: #000000; stroke-width: 0.8; stroke-linejoin: miter; stroke-linecap: square"/>
   </g>
   <g id="legend_1">
    <g id="patch_7">
     <path d="M 435.135625 88.590625 
L 559.01375 88.590625 
Q 561.01375 88.590625 561.01375 86.590625 
L 561.01375 14.2 
Q 561.01375 12.2 559.01375 12.2 
L 435.135625 12.2 
Q 433.135625 12.2 433.135625 14.2 
L 433.135625 86.590625 
Q 433.135625 88.590625 435.135625 88.590625 
z
" style="fill: #ffffff; opacity: 0.8; stroke: #cccccc; stroke-linejoin: miter"/>
    </g>
    <g id="text_17">
     <!-- Motifs &amp; orientation -->
     <g transform="translate(447.559062 23.798437) scale(0.1 -0.1)">
      <defs>
       <path id="DejaVuSans-4d" d="M 628 4666 
L 1569 4666 
L 2759 1491 
L 3956 4666 
L 4897 4666 
L 4897 0 
L 4281 0 
L 4281 4097 
L 3078 897 
L 2444 897 
L 1241 4097 
L 1241 0 
L 628 0 
L 628 4666 
z
" transform="scale(0.015625)"/>
       <path id="DejaVuSans-26" d="M 1556 2509 
Q 1272 2256 1139 2004 
Q 1006 1753 1006 1478 
Q 1006 1022 1337 719 
Q 1669 416 2169 416 
Q 2466 416 2725 514 
Q 2984 613 3213 813 
L 1556 2509 
z
M 1997 2859 
L 3584 1234 
Q 3769 1513 3872 1830 
Q 3975 2147 3994 2503 
L 4575 2503 
Q 4538 2091 4375 1687 
Q 4213 1284 3922 891 
L 4794 0 
L 4006 0 
L 3559 459 
Q 3234 181 2878 45 
Q 2522 -91 2113 -91 
Q 1359 -91 881 339 
Q 403 769 403 1441 
Q 403 1841 612 2192 
Q 822 2544 1241 2853 
Q 1091 3050 1012 3245 
Q 934 3441 934 3628 
Q 934 4134 1281 4442 
Q 1628 4750 2203 4750 
Q 2463 4750 2720 4694 
Q 2978 4638 3244 4525 
L 3244 3956 
Q 2972 4103 2725 4179 
Q 2478 4256 2266 4256 
Q 1938 4256 1733 4082 
Q 1528 3909 1528 3634 
Q 1528 3475 1620 3314 
Q 1713 3153 1997 2859 
z
" transform="scale(0.015625)"/>
      </defs>
      <use xlink:href="#DejaVuSans-4d"/>
      <use xlink:href="#DejaVuSans-6f" transform="translate(86.279297 0)"/>
      <use xlink:href="#DejaVuSans-74" transform="translate(147.460938 0)"/>
      <use xlink:href="#DejaVuSans-69" transform="translate(186.669922 0)"/>
      <use xlink:href="#DejaVuSans-66" transform="translate(214.453125 0)"/>
      <use xlink:href="#DejaVuSans-73" transform="translate(249.658203 0)"/>
      <use xlink:href="#DejaVuSans-20" transform="translate(301.757812 0)"/>
      <use xlink:href="#DejaVuSans-26" transform="translate(333.544922 0)"/>
      <use xlink:href="#DejaVuSans-20" transform="translate(411.523438 0)"/>
      <use xlink:href="#DejaVuSans-6f" transform="translate(443.310547 0)"/>
      <use xlink:href="#DejaVuSans-72" transform="translate(504.492188 0)"/>
      <use xlink:href="#DejaVuSans-69" transform="translate(545.605469 0)"/>
      <use xlink:href="#DejaVuSans-65" transform="translate(573.388672 0)"/>
      <use xlink:href="#DejaVuSans-6e" transform="translate(634.912109 0)"/>
      <use xlink:href="#DejaVuSans-74" transform="translate(698.291016 0)"/>
      <use xlink:href="#DejaVuSans-61" transform="translate(737.5 0)"/>
      <use xlink:href="#DejaVuSans-74" transform="translate(798.779297 0)"/>
      <use xlink:href="#DejaVuSans-69" transform="translate(837.988281 0)"/>
      <use xlink:href="#DejaVuSans-6f" transform="translate(865.771484 0)"/>
      <use xlink:href="#DejaVuSans-6e" transform="translate(926.953125 0)"/>
     </g>
    </g>
    <g id="line2d_33">
     <path d="M 437.135625 34.976562 
L 447.135625 34.976562 
L 457.135625 34.976562 
" style="fill: none; stroke: #add8e6; stroke-width: 2; stroke-linecap: square"/>
    </g>
    <g id="text_18">
     <!-- CCCGAAA (5' end) -->
     <g transform="translate(465.135625 38.476562) scale(0.1 -0.1)">
      <defs>
       <path id="DejaVuSans-43" d="M 4122 4306 
L 4122 3641 
Q 3803 3938 3442 4084 
Q 3081 4231 2675 4231 
Q 1875 4231 1450 3742 
Q 1025 3253 1025 2328 
Q 1025 1406 1450 917 
Q 1875 428 2675 428 
Q 3081 428 3442 575 
Q 3803 722 4122 1019 
L 4122 359 
Q 3791 134 3420 21 
Q 3050 -91 2638 -91 
Q 1578 -91 968 557 
Q 359 1206 359 2328 
Q 359 3453 968 4101 
Q 1578 4750 2638 4750 
Q 3056 4750 3426 4639 
Q 3797 4528 4122 4306 
z
" transform="scale(0.015625)"/>
       <path id="DejaVuSans-47" d="M 3809 666 
L 3809 1919 
L 2778 1919 
L 2778 2438 
L 4434 2438 
L 4434 434 
Q 4069 175 3628 42 
Q 3188 -91 2688 -91 
Q 1594 -91 976 548 
Q 359 1188 359 2328 
Q 359 3472 976 4111 
Q 1594 4750 2688 4750 
Q 3144 4750 3555 4637 
Q 3966 4525 4313 4306 
L 4313 3634 
Q 3963 3931 3569 4081 
Q 3175 4231 2741 4231 
Q 1884 4231 1454 3753 
Q 1025 3275 1025 2328 
Q 1025 1384 1454 906 
Q 1884 428 2741 428 
Q 3075 428 3337 486 
Q 3600 544 3809 666 
z
" transform="scale(0.015625)"/>
       <path id="DejaVuSans-28" d="M 1984 4856 
Q 1566 4138 1362 3434 
Q 1159 2731 1159 2009 
Q 1159 1288 1364 580 
Q 1569 -128 1984 -844 
L 1484 -844 
Q 1016 -109 783 600 
Q 550 1309 550 2009 
Q 550 2706 781 3412 
Q 1013 4119 1484 4856 
L 1984 4856 
z
" transform="scale(0.015625)"/>
       <path id="DejaVuSans-27" d="M 1147 4666 
L 1147 2931 
L 616 2931 
L 616 4666 
L 1147 4666 
z
" transform="scale(0.015625)"/>
       <path id="DejaVuSans-64" d="M 2906 2969 
L 2906 4863 
L 3481 4863 
L 3481 0 
L 2906 0 
L 2906 525 
Q 2725 213 2448 61 
Q 2172 -91 1784 -91 
Q 1150 -91 751 415 
Q 353 922 353 1747 
Q 353 2572 751 3078 
Q 1150 3584 1784 3584 
Q 2172 3584 2448 3432 
Q 2725 3281 2906 2969 
z
M 947 1747 
Q 947 1113 1208 752 
Q 1469 391 1925 391 
Q 2381 391 2643 752 
Q 2906 1113 2906 1747 
Q 2906 2381 2643 2742 
Q 2381 3103 1925 3103 
Q 1469 3103 1208 2742 
Q 947 2381 947 1747 
z
" transform="scale(0.015625)"/>
       <path id="DejaVuSans-29" d="M 513 4856 
L 1013 4856 
Q 1481 4119 1714 3412 
Q 1947 2706 1947 2009 
Q 1947 1309 1714 600 
Q 1481 -109 1013 -844 
L 513 -844 
Q 928 -128 1133 580 
Q 1338 1288 1338 2009 
Q 1338 2731 1133 3434 
Q 928 4138 513 4856 
z
" transform="scale(0.015625)"/>
      </defs>
      <use xlink:href="#DejaVuSans-43"/>
      <use xlink:href="#DejaVuSans-43" transform="translate(69.824219 0)"/>
      <use xlink:href="#DejaVuSans-43" transform="translate(139.648438 0)"/>
      <use xlink:href="#DejaVuSans-47" transform="translate(209.472656 0)"/>
      <use xlink:href="#DejaVuSans-41" transform="translate(286.962891 0)"/>
      <use xlink:href="#DejaVuSans-41" transform="translate(358.121094 0)"/>
      <use xlink:href="#DejaVuSans-41" transform="translate(429.279297 0)"/>
      <use xlink:href="#DejaVuSans-20" transform="translate(497.6875 0)"/>
      <use xlink:href="#DejaVuSans-28" transform="translate(529.474609 0)"/>
      <use xlink:href="#DejaVuSans-35" transform="translate(568.488281 0)"/>
      <use xlink:href="#DejaVuSans-27" transform="translate(632.111328 0)"/>
      <use xlink:href="#DejaVuSans-20" transform="translate(659.601562 0)"/>
      <use xlink:href="#DejaVuSans-65" transform="translate(691.388672 0)"/>
      <use xlink:href="#DejaVuSans-6e" transform="translate(752.912109 0)"/>
      <use xlink:href="#DejaVuSans-64" transform="translate(816.291016 0)"/>
      <use xlink:href="#DejaVuSans-29" transform="translate(879.767578 0)"/>
     </g>
    </g>
    <g id="line2d_34">
     <path d="M 437.135625 49.654687 
L 447.135625 49.654687 
L 457.135625 49.654687 
" style="fill: none; stroke: #00008b; stroke-width: 2; stroke-linecap: square"/>
    </g>
    <g id="text_19">
     <!-- CCGAAA (5' end) -->
     <g transform="translate(465.135625 53.154687) scale(0.1 -0.1)">
      <use xlink:href="#DejaVuSans-43"/>
      <use xlink:href="#DejaVuSans-43" transform="translate(69.824219 0)"/>
      <use xlink:href="#DejaVuSans-47" transform="translate(139.648438 0)"/>
      <use xlink:href="#DejaVuSans-41" transform="translate(217.138672 0)"/>
      <use xlink:href="#DejaVuSans-41" transform="translate(288.296875 0)"/>
      <use xlink:href="#DejaVuSans-41" transform="translate(359.455078 0)"/>
      <use xlink:href="#DejaVuSans-20" transform="translate(427.863281 0)"/>
      <use xlink:href="#DejaVuSans-28" transform="translate(459.650391 0)"/>
      <use xlink:href="#DejaVuSans-35" transform="translate(498.664062 0)"/>
      <use xlink:href="#DejaVuSans-27" transform="translate(562.287109 0)"/>
      <use xlink:href="#DejaVuSans-20" transform="translate(589.777344 0)"/>
      <use xlink:href="#DejaVuSans-65" transform="translate(621.564453 0)"/>
      <use xlink:href="#DejaVuSans-6e" transform="translate(683.087891 0)"/>
      <use xlink:href="#DejaVuSans-64" transform="translate(746.466797 0)"/>
      <use xlink:href="#DejaVuSans-29" transform="translate(809.943359 0)"/>
     </g>
    </g>
    <g id="line2d_35">
     <path d="M 437.135625 64.332812 
L 447.135625 64.332812 
L 457.135625 64.332812 
" style="fill: none; stroke-dasharray: 7.4,3.2; stroke-dashoffset: 0; stroke: #fa8072; stroke-width: 2"/>
    </g>
    <g id="text_20">
     <!-- TTTCGGG (3' end) -->
     <g transform="translate(465.135625 67.832812) scale(0.1 -0.1)">
      <defs>
       <path id="DejaVuSans-54" d="M -19 4666 
L 3928 4666 
L 3928 4134 
L 2272 4134 
L 2272 0 
L 1638 0 
L 1638 4134 
L -19 4134 
L -19 4666 
z
" transform="scale(0.015625)"/>
      </defs>
      <use xlink:href="#DejaVuSans-54"/>
      <use xlink:href="#DejaVuSans-54" transform="translate(59.333984 0)"/>
      <use xlink:href="#DejaVuSans-54" transform="translate(118.667969 0)"/>
      <use xlink:href="#DejaVuSans-43" transform="translate(173.876953 0)"/>
      <use xlink:href="#DejaVuSans-47" transform="translate(243.701172 0)"/>
      <use xlink:href="#DejaVuSans-47" transform="translate(321.191406 0)"/>
      <use xlink:href="#DejaVuSans-47" transform="translate(398.681641 0)"/>
      <use xlink:href="#DejaVuSans-20" transform="translate(476.171875 0)"/>
      <use xlink:href="#DejaVuSans-28" transform="translate(507.958984 0)"/>
      <use xlink:href="#DejaVuSans-33" transform="translate(546.972656 0)"/>
      <use xlink:href="#DejaVuSans-27" transform="translate(610.595703 0)"/>
      <use xlink:href="#DejaVuSans-20" transform="translate(638.085938 0)"/>
      <use xlink:href="#DejaVuSans-65" transform="translate(669.873047 0)"/>
      <use xlink:href="#DejaVuSans-6e" transform="translate(731.396484 0)"/>
      <use xlink:href="#DejaVuSans-64" transform="translate(794.775391 0)"/>
      <use xlink:href="#DejaVuSans-29" transform="translate(858.251953 0)"/>
     </g>
    </g>
    <g id="line2d_36">
     <path d="M 437.135625 79.010937 
L 447.135625 79.010937 
L 457.135625 79.010937 
" style="fill: none; stroke-dasharray: 7.4,3.2; stroke-dashoffset: 0; stroke: #8b0000; stroke-width: 2"/>
    </g>
    <g id="text_21">
     <!-- TTTCGG (3' end) -->
     <g transform="translate(465.135625 82.510937) scale(0.1 -0.1)">
      <use xlink:href="#DejaVuSans-54"/>
      <use xlink:href="#DejaVuSans-54" transform="translate(59.333984 0)"/>
      <use xlink:href="#DejaVuSans-54" transform="translate(118.667969 0)"/>
      <use xlink:href="#DejaVuSans-43" transform="translate(173.876953 0)"/>
      <use xlink:href="#DejaVuSans-47" transform="translate(243.701172 0)"/>
      <use xlink:href="#DejaVuSans-47" transform="translate(321.191406 0)"/>
      <use xlink:href="#DejaVuSans-20" transform="translate(398.681641 0)"/>
      <use xlink:href="#DejaVuSans-28" transform="translate(430.46875 0)"/>
      <use xlink:href="#DejaVuSans-33" transform="translate(469.482422 0)"/>
      <use xlink:href="#DejaVuSans-27" transform="translate(533.105469 0)"/>
      <use xlink:href="#DejaVuSans-20" transform="translate(560.595703 0)"/>
      <use xlink:href="#DejaVuSans-65" transform="translate(592.382812 0)"/>
      <use xlink:href="#DejaVuSans-6e" transform="translate(653.90625 0)"/>
      <use xlink:href="#DejaVuSans-64" transform="translate(717.285156 0)"/>
      <use xlink:href="#DejaVuSans-29" transform="translate(780.761719 0)"/>
     </g>
    </g>
   </g>
  </g>
 </g>
 <defs>
  <clipPath id="p90fb2908b7">
   <rect x="46.965625" y="7.2" width="381.17" height="379.24"/>
  </clipPath>
 </defs>
</svg>
