<?xml version="1.0" encoding="utf-8" standalone="no"?>
<!DOCTYPE svg PUBLIC "-//W3C//DTD SVG 1.1//EN"
  "http://www.w3.org/Graphics/SVG/1.1/DTD/svg11.dtd">
<svg xmlns:xlink="http://www.w3.org/1999/xlink" width="568.21375pt" height="423.99625pt" viewBox="0 0 568.21375 423.99625" xmlns="http://www.w3.org/2000/svg" version="1.1">
 <metadata>
  <rdf:RDF xmlns:dc="http://purl.org/dc/elements/1.1/" xmlns:cc="http://creativecommons.org/ns#" xmlns:rdf="http://www.w3.org/1999/02/22-rdf-syntax-ns#">
   <cc:Work>
    <dc:type rdf:resource="http://purl.org/dc/dcmitype/StillImage"/>
    <dc:date>2026-04-30T15:30:57.309648</dc:date>
    <dc:format>image/svg+xml</dc:format>
    <dc:creator>
     <cc:Agent>
      <dc:title>Matplotlib v3.10.6, https://matplotlib.org/</dc:title>
     </cc:Agent>
    </dc:creator>
   </cc:Work>
  </rdf:RDF>
 </metadata>
 <defs>
  <style type="text/css">*{stroke-linejoin: round; stroke-linecap: butt}</style>
 </defs>
 <g id="figure_1">
  <g id="patch_1">
   <path d="M 0 423.99625 
L 568.21375 423.99625 
L 568.21375 0 
L 0 0 
z
" style="fill: #ffffff"/>
  </g>
  <g id="axes_1">
   <g id="patch_2">
    <path d="M 46.965625 386.44 
L 428.135625 386.44 
L 428.135625 7.2 
L 46.965625 7.2 
z
" style="fill: #ffffff"/>
   </g>
   <g id="matplotlib.axis_1">
    <g id="xtick_1">
     <g id="line2d_1">
      <path d="M 64.291534 386.44 
L 64.291534 7.2 
" clip-path="url(#pcec71e8a58)" style="fill: none; stroke-dasharray: 2.96,1.28; stroke-dashoffset: 0; stroke: #b0b0b0; stroke-opacity: 0.6; stroke-width: 0.8"/>
     </g>
     <g id="line2d_2">
      <defs>
       <path id="mf88befb106" d="M 0 0 
L 0 3.5 
" style="stroke: #000000; stroke-width: 0.8"/>
      </defs>
      <g>
       <use xlink:href="#mf88befb106" x="64.291534" y="386.44" style="stroke: #000000; stroke-width: 0.8"/>
      </g>
     </g>
     <g id="text_1">
      <!-- 0 -->
      <g transform="translate(61.110284 401.038437) scale(0.1 -0.1)">
       <defs>
        <path id="DejaVuSans-30" d="M 2034 4250 
Q 1547 4250 1301 3770 
Q 1056 3291 1056 2328 
Q 1056 1369 1301 889 
Q 1547 409 2034 409 
Q 2525 409 2770 889 
Q 3016 1369 3016 2328 
Q 3016 3291 2770 3770 
Q 2525 4250 2034 4250 
z
M 2034 4750 
Q 2819 4750 3233 4129 
Q 3647 3509 3647 2328 
Q 3647 1150 3233 529 
Q 2819 -91 2034 -91 
Q 1250 -91 836 529 
Q 422 1150 422 2328 
Q 422 3509 836 4129 
Q 1250 4750 2034 4750 
z
" transform="scale(0.015625)"/>
       </defs>
       <use xlink:href="#DejaVuSans-30"/>
      </g>
     </g>
    </g>
    <g id="xtick_2">
     <g id="line2d_3">
      <path d="M 107.606307 386.44 
L 107.606307 7.2 
" clip-path="url(#pcec71e8a58)" style="fill: none; stroke-dasharray: 2.96,1.28; stroke-dashoffset: 0; stroke: #b0b0b0; stroke-opacity: 0.6; stroke-width: 0.8"/>
     </g>
     <g id="line2d_4">
      <g>
       <use xlink:href="#mf88befb106" x="107.606307" y="386.44" style="stroke: #000000; stroke-width: 0.8"/>
      </g>
     </g>
     <g id="text_2">
      <!-- 1000 -->
      <g transform="translate(94.881307 401.038437) scale(0.1 -0.1)">
       <defs>
        <path id="DejaVuSans-31" d="M 794 531 
L 1825 531 
L 1825 4091 
L 703 3866 
L 703 4441 
L 1819 4666 
L 2450 4666 
L 2450 531 
L 3481 531 
L 3481 0 
L 794 0 
L 794 531 
z
" transform="scale(0.015625)"/>
       </defs>
       <use xlink:href="#DejaVuSans-31"/>
       <use xlink:href="#DejaVuSans-30" transform="translate(63.623047 0)"/>
       <use xlink:href="#DejaVuSans-30" transform="translate(127.246094 0)"/>
       <use xlink:href="#DejaVuSans-30" transform="translate(190.869141 0)"/>
      </g>
     </g>
    </g>
    <g id="xtick_3">
     <g id="line2d_5">
      <path d="M 150.92108 386.44 
L 150.92108 7.2 
" clip-path="url(#pcec71e8a58)" style="fill: none; stroke-dasharray: 2.96,1.28; stroke-dashoffset: 0; stroke: #b0b0b0; stroke-opacity: 0.6; stroke-width: 0.8"/>
     </g>
     <g id="line2d_6">
      <g>
       <use xlink:href="#mf88befb106" x="150.92108" y="386.44" style="stroke: #000000; stroke-width: 0.8"/>
      </g>
     </g>
     <g id="text_3">
      <!-- 2000 -->
      <g transform="translate(138.19608 401.038437) scale(0.1 -0.1)">
       <defs>
        <path id="DejaVuSans-32" d="M 1228 531 
L 3431 531 
L 3431 0 
L 469 0 
L 469 531 
Q 828 903 1448 1529 
Q 2069 2156 2228 2338 
Q 2531 2678 2651 2914 
Q 2772 3150 2772 3378 
Q 2772 3750 2511 3984 
Q 2250 4219 1831 4219 
Q 1534 4219 1204 4116 
Q 875 4013 500 3803 
L 500 4441 
Q 881 4594 1212 4672 
Q 1544 4750 1819 4750 
Q 2544 4750 2975 4387 
Q 3406 4025 3406 3419 
Q 3406 3131 3298 2873 
Q 3191 2616 2906 2266 
Q 2828 2175 2409 1742 
Q 1991 1309 1228 531 
z
" transform="scale(0.015625)"/>
       </defs>
       <use xlink:href="#DejaVuSans-32"/>
       <use xlink:href="#DejaVuSans-30" transform="translate(63.623047 0)"/>
       <use xlink:href="#DejaVuSans-30" transform="translate(127.246094 0)"/>
       <use xlink:href="#DejaVuSans-30" transform="translate(190.869141 0)"/>
      </g>
     </g>
    </g>
    <g id="xtick_4">
     <g id="line2d_7">
      <path d="M 194.235852 386.44 
L 194.235852 7.2 
" clip-path="url(#pcec71e8a58)" style="fill: none; stroke-dasharray: 2.96,1.28; stroke-dashoffset: 0; stroke: #b0b0b0; stroke-opacity: 0.6; stroke-width: 0.8"/>
     </g>
     <g id="line2d_8">
      <g>
       <use xlink:href="#mf88befb106" x="194.235852" y="386.44" style="stroke: #000000; stroke-width: 0.8"/>
      </g>
     </g>
     <g id="text_4">
      <!-- 3000 -->
      <g transform="translate(181.510852 401.038437) scale(0.1 -0.1)">
       <defs>
        <path id="DejaVuSans-33" d="M 2597 2516 
Q 3050 2419 3304 2112 
Q 3559 1806 3559 1356 
Q 3559 666 3084 287 
Q 2609 -91 1734 -91 
Q 1441 -91 1130 -33 
Q 819 25 488 141 
L 488 750 
Q 750 597 1062 519 
Q 1375 441 1716 441 
Q 2309 441 2620 675 
Q 2931 909 2931 1356 
Q 2931 1769 2642 2001 
Q 2353 2234 1838 2234 
L 1294 2234 
L 1294 2753 
L 1863 2753 
Q 2328 2753 2575 2939 
Q 2822 3125 2822 3475 
Q 2822 3834 2567 4026 
Q 2313 4219 1838 4219 
Q 1578 4219 1281 4162 
Q 984 4106 628 3988 
L 628 4550 
Q 988 4650 1302 4700 
Q 1616 4750 1894 4750 
Q 2613 4750 3031 4423 
Q 3450 4097 3450 3541 
Q 3450 3153 3228 2886 
Q 3006 2619 2597 2516 
z
" transform="scale(0.015625)"/>
       </defs>
       <use xlink:href="#DejaVuSans-33"/>
       <use xlink:href="#DejaVuSans-30" transform="translate(63.623047 0)"/>
       <use xlink:href="#DejaVuSans-30" transform="translate(127.246094 0)"/>
       <use xlink:href="#DejaVuSans-30" transform="translate(190.869141 0)"/>
      </g>
     </g>
    </g>
    <g id="xtick_5">
     <g id="line2d_9">
      <path d="M 237.550625 386.44 
L 237.550625 7.2 
" clip-path="url(#pcec71e8a58)" style="fill: none; stroke-dasharray: 2.96,1.28; stroke-dashoffset: 0; stroke: #b0b0b0; stroke-opacity: 0.6; stroke-width: 0.8"/>
     </g>
     <g id="line2d_10">
      <g>
       <use xlink:href="#mf88befb106" x="237.550625" y="386.44" style="stroke: #000000; stroke-width: 0.8"/>
      </g>
     </g>
     <g id="text_5">
      <!-- 4000 -->
      <g transform="translate(224.825625 401.038437) scale(0.1 -0.1)">
       <defs>
        <path id="DejaVuSans-34" d="M 2419 4116 
L 825 1625 
L 2419 1625 
L 2419 4116 
z
M 2253 4666 
L 3047 4666 
L 3047 1625 
L 3713 1625 
L 3713 1100 
L 3047 1100 
L 3047 0 
L 2419 0 
L 2419 1100 
L 313 1100 
L 313 1709 
L 2253 4666 
z
" transform="scale(0.015625)"/>
       </defs>
       <use xlink:href="#DejaVuSans-34"/>
       <use xlink:href="#DejaVuSans-30" transform="translate(63.623047 0)"/>
       <use xlink:href="#DejaVuSans-30" transform="translate(127.246094 0)"/>
       <use xlink:href="#DejaVuSans-30" transform="translate(190.869141 0)"/>
      </g>
     </g>
    </g>
    <g id="xtick_6">
     <g id="line2d_11">
      <path d="M 280.865398 386.44 
L 280.865398 7.2 
" clip-path="url(#pcec71e8a58)" style="fill: none; stroke-dasharray: 2.96,1.28; stroke-dashoffset: 0; stroke: #b0b0b0; stroke-opacity: 0.6; stroke-width: 0.8"/>
     </g>
     <g id="line2d_12">
      <g>
       <use xlink:href="#mf88befb106" x="280.865398" y="386.44" style="stroke: #000000; stroke-width: 0.8"/>
      </g>
     </g>
     <g id="text_6">
      <!-- 5000 -->
      <g transform="translate(268.140398 401.038437) scale(0.1 -0.1)">
       <defs>
        <path id="DejaVuSans-35" d="M 691 4666 
L 3169 4666 
L 3169 4134 
L 1269 4134 
L 1269 2991 
Q 1406 3038 1543 3061 
Q 1681 3084 1819 3084 
Q 2600 3084 3056 2656 
Q 3513 2228 3513 1497 
Q 3513 744 3044 326 
Q 2575 -91 1722 -91 
Q 1428 -91 1123 -41 
Q 819 9 494 109 
L 494 744 
Q 775 591 1075 516 
Q 1375 441 1709 441 
Q 2250 441 2565 725 
Q 2881 1009 2881 1497 
Q 2881 1984 2565 2268 
Q 2250 2553 1709 2553 
Q 1456 2553 1204 2497 
Q 953 2441 691 2322 
L 691 4666 
z
" transform="scale(0.015625)"/>
       </defs>
       <use xlink:href="#DejaVuSans-35"/>
       <use xlink:href="#DejaVuSans-30" transform="translate(63.623047 0)"/>
       <use xlink:href="#DejaVuSans-30" transform="translate(127.246094 0)"/>
       <use xlink:href="#DejaVuSans-30" transform="translate(190.869141 0)"/>
      </g>
     </g>
    </g>
    <g id="xtick_7">
     <g id="line2d_13">
      <path d="M 324.18017 386.44 
L 324.18017 7.2 
" clip-path="url(#pcec71e8a58)" style="fill: none; stroke-dasharray: 2.96,1.28; stroke-dashoffset: 0; stroke: #b0b0b0; stroke-opacity: 0.6; stroke-width: 0.8"/>
     </g>
     <g id="line2d_14">
      <g>
       <use xlink:href="#mf88befb106" x="324.18017" y="386.44" style="stroke: #000000; stroke-width: 0.8"/>
      </g>
     </g>
     <g id="text_7">
      <!-- 6000 -->
      <g transform="translate(311.45517 401.038437) scale(0.1 -0.1)">
       <defs>
        <path id="DejaVuSans-36" d="M 2113 2584 
Q 1688 2584 1439 2293 
Q 1191 2003 1191 1497 
Q 1191 994 1439 701 
Q 1688 409 2113 409 
Q 2538 409 2786 701 
Q 3034 994 3034 1497 
Q 3034 2003 2786 2293 
Q 2538 2584 2113 2584 
z
M 3366 4563 
L 3366 3988 
Q 3128 4100 2886 4159 
Q 2644 4219 2406 4219 
Q 1781 4219 1451 3797 
Q 1122 3375 1075 2522 
Q 1259 2794 1537 2939 
Q 1816 3084 2150 3084 
Q 2853 3084 3261 2657 
Q 3669 2231 3669 1497 
Q 3669 778 3244 343 
Q 2819 -91 2113 -91 
Q 1303 -91 875 529 
Q 447 1150 447 2328 
Q 447 3434 972 4092 
Q 1497 4750 2381 4750 
Q 2619 4750 2861 4703 
Q 3103 4656 3366 4563 
z
" transform="scale(0.015625)"/>
       </defs>
       <use xlink:href="#DejaVuSans-36"/>
       <use xlink:href="#DejaVuSans-30" transform="translate(63.623047 0)"/>
       <use xlink:href="#DejaVuSans-30" transform="translate(127.246094 0)"/>
       <use xlink:href="#DejaVuSans-30" transform="translate(190.869141 0)"/>
      </g>
     </g>
    </g>
    <g id="xtick_8">
     <g id="line2d_15">
      <path d="M 367.494943 386.44 
L 367.494943 7.2 
" clip-path="url(#pcec71e8a58)" style="fill: none; stroke-dasharray: 2.96,1.28; stroke-dashoffset: 0; stroke: #b0b0b0; stroke-opacity: 0.6; stroke-width: 0.8"/>
     </g>
     <g id="line2d_16">
      <g>
       <use xlink:href="#mf88befb106" x="367.494943" y="386.44" style="stroke: #000000; stroke-width: 0.8"/>
      </g>
     </g>
     <g id="text_8">
      <!-- 7000 -->
      <g transform="translate(354.769943 401.038437) scale(0.1 -0.1)">
       <defs>
        <path id="DejaVuSans-37" d="M 525 4666 
L 3525 4666 
L 3525 4397 
L 1831 0 
L 1172 0 
L 2766 4134 
L 525 4134 
L 525 4666 
z
" transform="scale(0.015625)"/>
       </defs>
       <use xlink:href="#DejaVuSans-37"/>
       <use xlink:href="#DejaVuSans-30" transform="translate(63.623047 0)"/>
       <use xlink:href="#DejaVuSans-30" transform="translate(127.246094 0)"/>
       <use xlink:href="#DejaVuSans-30" transform="translate(190.869141 0)"/>
      </g>
     </g>
    </g>
    <g id="xtick_9">
     <g id="line2d_17">
      <path d="M 410.809716 386.44 
L 410.809716 7.2 
" clip-path="url(#pcec71e8a58)" style="fill: none; stroke-dasharray: 2.96,1.28; stroke-dashoffset: 0; stroke: #b0b0b0; stroke-opacity: 0.6; stroke-width: 0.8"/>
     </g>
     <g id="line2d_18">
      <g>
       <use xlink:href="#mf88befb106" x="410.809716" y="386.44" style="stroke: #000000; stroke-width: 0.8"/>
      </g>
     </g>
     <g id="text_9">
      <!-- 8000 -->
      <g transform="translate(398.084716 401.038437) scale(0.1 -0.1)">
       <defs>
        <path id="DejaVuSans-38" d="M 2034 2216 
Q 1584 2216 1326 1975 
Q 1069 1734 1069 1313 
Q 1069 891 1326 650 
Q 1584 409 2034 409 
Q 2484 409 2743 651 
Q 3003 894 3003 1313 
Q 3003 1734 2745 1975 
Q 2488 2216 2034 2216 
z
M 1403 2484 
Q 997 2584 770 2862 
Q 544 3141 544 3541 
Q 544 4100 942 4425 
Q 1341 4750 2034 4750 
Q 2731 4750 3128 4425 
Q 3525 4100 3525 3541 
Q 3525 3141 3298 2862 
Q 3072 2584 2669 2484 
Q 3125 2378 3379 2068 
Q 3634 1759 3634 1313 
Q 3634 634 3220 271 
Q 2806 -91 2034 -91 
Q 1263 -91 848 271 
Q 434 634 434 1313 
Q 434 1759 690 2068 
Q 947 2378 1403 2484 
z
M 1172 3481 
Q 1172 3119 1398 2916 
Q 1625 2713 2034 2713 
Q 2441 2713 2670 2916 
Q 2900 3119 2900 3481 
Q 2900 3844 2670 4047 
Q 2441 4250 2034 4250 
Q 1625 4250 1398 4047 
Q 1172 3844 1172 3481 
z
" transform="scale(0.015625)"/>
       </defs>
       <use xlink:href="#DejaVuSans-38"/>
       <use xlink:href="#DejaVuSans-30" transform="translate(63.623047 0)"/>
       <use xlink:href="#DejaVuSans-30" transform="translate(127.246094 0)"/>
       <use xlink:href="#DejaVuSans-30" transform="translate(190.869141 0)"/>
      </g>
     </g>
    </g>
    <g id="text_10">
     <!-- Distance from terminus [nt] -->
     <g transform="translate(168.051406 414.716562) scale(0.1 -0.1)">
      <defs>
       <path id="DejaVuSans-44" d="M 1259 4147 
L 1259 519 
L 2022 519 
Q 2988 519 3436 956 
Q 3884 1394 3884 2338 
Q 3884 3275 3436 3711 
Q 2988 4147 2022 4147 
L 1259 4147 
z
M 628 4666 
L 1925 4666 
Q 3281 4666 3915 4102 
Q 4550 3538 4550 2338 
Q 4550 1131 3912 565 
Q 3275 0 1925 0 
L 628 0 
L 628 4666 
z
" transform="scale(0.015625)"/>
       <path id="DejaVuSans-69" d="M 603 3500 
L 1178 3500 
L 1178 0 
L 603 0 
L 603 3500 
z
M 603 4863 
L 1178 4863 
L 1178 4134 
L 603 4134 
L 603 4863 
z
" transform="scale(0.015625)"/>
       <path id="DejaVuSans-73" d="M 2834 3397 
L 2834 2853 
Q 2591 2978 2328 3040 
Q 2066 3103 1784 3103 
Q 1356 3103 1142 2972 
Q 928 2841 928 2578 
Q 928 2378 1081 2264 
Q 1234 2150 1697 2047 
L 1894 2003 
Q 2506 1872 2764 1633 
Q 3022 1394 3022 966 
Q 3022 478 2636 193 
Q 2250 -91 1575 -91 
Q 1294 -91 989 -36 
Q 684 19 347 128 
L 347 722 
Q 666 556 975 473 
Q 1284 391 1588 391 
Q 1994 391 2212 530 
Q 2431 669 2431 922 
Q 2431 1156 2273 1281 
Q 2116 1406 1581 1522 
L 1381 1569 
Q 847 1681 609 1914 
Q 372 2147 372 2553 
Q 372 3047 722 3315 
Q 1072 3584 1716 3584 
Q 2034 3584 2315 3537 
Q 2597 3491 2834 3397 
z
" transform="scale(0.015625)"/>
       <path id="DejaVuSans-74" d="M 1172 4494 
L 1172 3500 
L 2356 3500 
L 2356 3053 
L 1172 3053 
L 1172 1153 
Q 1172 725 1289 603 
Q 1406 481 1766 481 
L 2356 481 
L 2356 0 
L 1766 0 
Q 1100 0 847 248 
Q 594 497 594 1153 
L 594 3053 
L 172 3053 
L 172 3500 
L 594 3500 
L 594 4494 
L 1172 4494 
z
" transform="scale(0.015625)"/>
       <path id="DejaVuSans-61" d="M 2194 1759 
Q 1497 1759 1228 1600 
Q 959 1441 959 1056 
Q 959 750 1161 570 
Q 1363 391 1709 391 
Q 2188 391 2477 730 
Q 2766 1069 2766 1631 
L 2766 1759 
L 2194 1759 
z
M 3341 1997 
L 3341 0 
L 2766 0 
L 2766 531 
Q 2569 213 2275 61 
Q 1981 -91 1556 -91 
Q 1019 -91 701 211 
Q 384 513 384 1019 
Q 384 1609 779 1909 
Q 1175 2209 1959 2209 
L 2766 2209 
L 2766 2266 
Q 2766 2663 2505 2880 
Q 2244 3097 1772 3097 
Q 1472 3097 1187 3025 
Q 903 2953 641 2809 
L 641 3341 
Q 956 3463 1253 3523 
Q 1550 3584 1831 3584 
Q 2591 3584 2966 3190 
Q 3341 2797 3341 1997 
z
" transform="scale(0.015625)"/>
       <path id="DejaVuSans-6e" d="M 3513 2113 
L 3513 0 
L 2938 0 
L 2938 2094 
Q 2938 2591 2744 2837 
Q 2550 3084 2163 3084 
Q 1697 3084 1428 2787 
Q 1159 2491 1159 1978 
L 1159 0 
L 581 0 
L 581 3500 
L 1159 3500 
L 1159 2956 
Q 1366 3272 1645 3428 
Q 1925 3584 2291 3584 
Q 2894 3584 3203 3211 
Q 3513 2838 3513 2113 
z
" transform="scale(0.015625)"/>
       <path id="DejaVuSans-63" d="M 3122 3366 
L 3122 2828 
Q 2878 2963 2633 3030 
Q 2388 3097 2138 3097 
Q 1578 3097 1268 2742 
Q 959 2388 959 1747 
Q 959 1106 1268 751 
Q 1578 397 2138 397 
Q 2388 397 2633 464 
Q 2878 531 3122 666 
L 3122 134 
Q 2881 22 2623 -34 
Q 2366 -91 2075 -91 
Q 1284 -91 818 406 
Q 353 903 353 1747 
Q 353 2603 823 3093 
Q 1294 3584 2113 3584 
Q 2378 3584 2631 3529 
Q 2884 3475 3122 3366 
z
" transform="scale(0.015625)"/>
       <path id="DejaVuSans-65" d="M 3597 1894 
L 3597 1613 
L 953 1613 
Q 991 1019 1311 708 
Q 1631 397 2203 397 
Q 2534 397 2845 478 
Q 3156 559 3463 722 
L 3463 178 
Q 3153 47 2828 -22 
Q 2503 -91 2169 -91 
Q 1331 -91 842 396 
Q 353 884 353 1716 
Q 353 2575 817 3079 
Q 1281 3584 2069 3584 
Q 2775 3584 3186 3129 
Q 3597 2675 3597 1894 
z
M 3022 2063 
Q 3016 2534 2758 2815 
Q 2500 3097 2075 3097 
Q 1594 3097 1305 2825 
Q 1016 2553 972 2059 
L 3022 2063 
z
" transform="scale(0.015625)"/>
       <path id="DejaVuSans-20" transform="scale(0.015625)"/>
       <path id="DejaVuSans-66" d="M 2375 4863 
L 2375 4384 
L 1825 4384 
Q 1516 4384 1395 4259 
Q 1275 4134 1275 3809 
L 1275 3500 
L 2222 3500 
L 2222 3053 
L 1275 3053 
L 1275 0 
L 697 0 
L 697 3053 
L 147 3053 
L 147 3500 
L 697 3500 
L 697 3744 
Q 697 4328 969 4595 
Q 1241 4863 1831 4863 
L 2375 4863 
z
" transform="scale(0.015625)"/>
       <path id="DejaVuSans-72" d="M 2631 2963 
Q 2534 3019 2420 3045 
Q 2306 3072 2169 3072 
Q 1681 3072 1420 2755 
Q 1159 2438 1159 1844 
L 1159 0 
L 581 0 
L 581 3500 
L 1159 3500 
L 1159 2956 
Q 1341 3275 1631 3429 
Q 1922 3584 2338 3584 
Q 2397 3584 2469 3576 
Q 2541 3569 2628 3553 
L 2631 2963 
z
" transform="scale(0.015625)"/>
       <path id="DejaVuSans-6f" d="M 1959 3097 
Q 1497 3097 1228 2736 
Q 959 2375 959 1747 
Q 959 1119 1226 758 
Q 1494 397 1959 397 
Q 2419 397 2687 759 
Q 2956 1122 2956 1747 
Q 2956 2369 2687 2733 
Q 2419 3097 1959 3097 
z
M 1959 3584 
Q 2709 3584 3137 3096 
Q 3566 2609 3566 1747 
Q 3566 888 3137 398 
Q 2709 -91 1959 -91 
Q 1206 -91 779 398 
Q 353 888 353 1747 
Q 353 2609 779 3096 
Q 1206 3584 1959 3584 
z
" transform="scale(0.015625)"/>
       <path id="DejaVuSans-6d" d="M 3328 2828 
Q 3544 3216 3844 3400 
Q 4144 3584 4550 3584 
Q 5097 3584 5394 3201 
Q 5691 2819 5691 2113 
L 5691 0 
L 5113 0 
L 5113 2094 
Q 5113 2597 4934 2840 
Q 4756 3084 4391 3084 
Q 3944 3084 3684 2787 
Q 3425 2491 3425 1978 
L 3425 0 
L 2847 0 
L 2847 2094 
Q 2847 2600 2669 2842 
Q 2491 3084 2119 3084 
Q 1678 3084 1418 2786 
Q 1159 2488 1159 1978 
L 1159 0 
L 581 0 
L 581 3500 
L 1159 3500 
L 1159 2956 
Q 1356 3278 1631 3431 
Q 1906 3584 2284 3584 
Q 2666 3584 2933 3390 
Q 3200 3197 3328 2828 
z
" transform="scale(0.015625)"/>
       <path id="DejaVuSans-75" d="M 544 1381 
L 544 3500 
L 1119 3500 
L 1119 1403 
Q 1119 906 1312 657 
Q 1506 409 1894 409 
Q 2359 409 2629 706 
Q 2900 1003 2900 1516 
L 2900 3500 
L 3475 3500 
L 3475 0 
L 2900 0 
L 2900 538 
Q 2691 219 2414 64 
Q 2138 -91 1772 -91 
Q 1169 -91 856 284 
Q 544 659 544 1381 
z
M 1991 3584 
L 1991 3584 
z
" transform="scale(0.015625)"/>
       <path id="DejaVuSans-5b" d="M 550 4863 
L 1875 4863 
L 1875 4416 
L 1125 4416 
L 1125 -397 
L 1875 -397 
L 1875 -844 
L 550 -844 
L 550 4863 
z
" transform="scale(0.015625)"/>
       <path id="DejaVuSans-5d" d="M 1947 4863 
L 1947 -844 
L 622 -844 
L 622 -397 
L 1369 -397 
L 1369 4416 
L 622 4416 
L 622 4863 
L 1947 4863 
z
" transform="scale(0.015625)"/>
      </defs>
      <use xlink:href="#DejaVuSans-44"/>
      <use xlink:href="#DejaVuSans-69" transform="translate(77.001953 0)"/>
      <use xlink:href="#DejaVuSans-73" transform="translate(104.785156 0)"/>
      <use xlink:href="#DejaVuSans-74" transform="translate(156.884766 0)"/>
      <use xlink:href="#DejaVuSans-61" transform="translate(196.09375 0)"/>
      <use xlink:href="#DejaVuSans-6e" transform="translate(257.373047 0)"/>
      <use xlink:href="#DejaVuSans-63" transform="translate(320.751953 0)"/>
      <use xlink:href="#DejaVuSans-65" transform="translate(375.732422 0)"/>
      <use xlink:href="#DejaVuSans-20" transform="translate(437.255859 0)"/>
      <use xlink:href="#DejaVuSans-66" transform="translate(469.042969 0)"/>
      <use xlink:href="#DejaVuSans-72" transform="translate(504.248047 0)"/>
      <use xlink:href="#DejaVuSans-6f" transform="translate(543.111328 0)"/>
      <use xlink:href="#DejaVuSans-6d" transform="translate(604.292969 0)"/>
      <use xlink:href="#DejaVuSans-20" transform="translate(701.705078 0)"/>
      <use xlink:href="#DejaVuSans-74" transform="translate(733.492188 0)"/>
      <use xlink:href="#DejaVuSans-65" transform="translate(772.701172 0)"/>
      <use xlink:href="#DejaVuSans-72" transform="translate(834.224609 0)"/>
      <use xlink:href="#DejaVuSans-6d" transform="translate(873.587891 0)"/>
      <use xlink:href="#DejaVuSans-69" transform="translate(971 0)"/>
      <use xlink:href="#DejaVuSans-6e" transform="translate(998.783203 0)"/>
      <use xlink:href="#DejaVuSans-75" transform="translate(1062.162109 0)"/>
      <use xlink:href="#DejaVuSans-73" transform="translate(1125.541016 0)"/>
      <use xlink:href="#DejaVuSans-20" transform="translate(1177.640625 0)"/>
      <use xlink:href="#DejaVuSans-5b" transform="translate(1209.427734 0)"/>
      <use xlink:href="#DejaVuSans-6e" transform="translate(1248.441406 0)"/>
      <use xlink:href="#DejaVuSans-74" transform="translate(1311.820312 0)"/>
      <use xlink:href="#DejaVuSans-5d" transform="translate(1351.029297 0)"/>
     </g>
    </g>
   </g>
   <g id="matplotlib.axis_2">
    <g id="ytick_1">
     <g id="line2d_19">
      <path d="M 46.965625 369.201818 
L 428.135625 369.201818 
" clip-path="url(#pcec71e8a58)" style="fill: none; stroke-dasharray: 2.96,1.28; stroke-dashoffset: 0; stroke: #b0b0b0; stroke-opacity: 0.6; stroke-width: 0.8"/>
     </g>
     <g id="line2d_20">
      <defs>
       <path id="m9b7ecab7c3" d="M 0 0 
L -3.5 0 
" style="stroke: #000000; stroke-width: 0.8"/>
      </defs>
      <g>
       <use xlink:href="#m9b7ecab7c3" x="46.965625" y="369.201818" style="stroke: #000000; stroke-width: 0.8"/>
      </g>
     </g>
     <g id="text_11">
      <!-- 0 -->
      <g transform="translate(33.603125 373.001037) scale(0.1 -0.1)">
       <use xlink:href="#DejaVuSans-30"/>
      </g>
     </g>
    </g>
    <g id="ytick_2">
     <g id="line2d_21">
      <path d="M 46.965625 303.112942 
L 428.135625 303.112942 
" clip-path="url(#pcec71e8a58)" style="fill: none; stroke-dasharray: 2.96,1.28; stroke-dashoffset: 0; stroke: #b0b0b0; stroke-opacity: 0.6; stroke-width: 0.8"/>
     </g>
     <g id="line2d_22">
      <g>
       <use xlink:href="#m9b7ecab7c3" x="46.965625" y="303.112942" style="stroke: #000000; stroke-width: 0.8"/>
      </g>
     </g>
     <g id="text_12">
      <!-- 20 -->
      <g transform="translate(27.240625 306.912161) scale(0.1 -0.1)">
       <use xlink:href="#DejaVuSans-32"/>
       <use xlink:href="#DejaVuSans-30" transform="translate(63.623047 0)"/>
      </g>
     </g>
    </g>
    <g id="ytick_3">
     <g id="line2d_23">
      <path d="M 46.965625 237.024066 
L 428.135625 237.024066 
" clip-path="url(#pcec71e8a58)" style="fill: none; stroke-dasharray: 2.96,1.28; stroke-dashoffset: 0; stroke: #b0b0b0; stroke-opacity: 0.6; stroke-width: 0.8"/>
     </g>
     <g id="line2d_24">
      <g>
       <use xlink:href="#m9b7ecab7c3" x="46.965625" y="237.024066" style="stroke: #000000; stroke-width: 0.8"/>
      </g>
     </g>
     <g id="text_13">
      <!-- 40 -->
      <g transform="translate(27.240625 240.823285) scale(0.1 -0.1)">
       <use xlink:href="#DejaVuSans-34"/>
       <use xlink:href="#DejaVuSans-30" transform="translate(63.623047 0)"/>
      </g>
     </g>
    </g>
    <g id="ytick_4">
     <g id="line2d_25">
      <path d="M 46.965625 170.93519 
L 428.135625 170.93519 
" clip-path="url(#pcec71e8a58)" style="fill: none; stroke-dasharray: 2.96,1.28; stroke-dashoffset: 0; stroke: #b0b0b0; stroke-opacity: 0.6; stroke-width: 0.8"/>
     </g>
     <g id="line2d_26">
      <g>
       <use xlink:href="#m9b7ecab7c3" x="46.965625" y="170.93519" style="stroke: #000000; stroke-width: 0.8"/>
      </g>
     </g>
     <g id="text_14">
      <!-- 60 -->
      <g transform="translate(27.240625 174.734409) scale(0.1 -0.1)">
       <use xlink:href="#DejaVuSans-36"/>
       <use xlink:href="#DejaVuSans-30" transform="translate(63.623047 0)"/>
      </g>
     </g>
    </g>
    <g id="ytick_5">
     <g id="line2d_27">
      <path d="M 46.965625 104.846314 
L 428.135625 104.846314 
" clip-path="url(#pcec71e8a58)" style="fill: none; stroke-dasharray: 2.96,1.28; stroke-dashoffset: 0; stroke: #b0b0b0; stroke-opacity: 0.6; stroke-width: 0.8"/>
     </g>
     <g id="line2d_28">
      <g>
       <use xlink:href="#m9b7ecab7c3" x="46.965625" y="104.846314" style="stroke: #000000; stroke-width: 0.8"/>
      </g>
     </g>
     <g id="text_15">
      <!-- 80 -->
      <g transform="translate(27.240625 108.645533) scale(0.1 -0.1)">
       <use xlink:href="#DejaVuSans-38"/>
       <use xlink:href="#DejaVuSans-30" transform="translate(63.623047 0)"/>
      </g>
     </g>
    </g>
    <g id="ytick_6">
     <g id="line2d_29">
      <path d="M 46.965625 38.757438 
L 428.135625 38.757438 
" clip-path="url(#pcec71e8a58)" style="fill: none; stroke-dasharray: 2.96,1.28; stroke-dashoffset: 0; stroke: #b0b0b0; stroke-opacity: 0.6; stroke-width: 0.8"/>
     </g>
     <g id="line2d_30">
      <g>
       <use xlink:href="#m9b7ecab7c3" x="46.965625" y="38.757438" style="stroke: #000000; stroke-width: 0.8"/>
      </g>
     </g>
     <g id="text_16">
      <!-- 100 -->
      <g transform="translate(20.878125 42.556657) scale(0.1 -0.1)">
       <use xlink:href="#DejaVuSans-31"/>
       <use xlink:href="#DejaVuSans-30" transform="translate(63.623047 0)"/>
       <use xlink:href="#DejaVuSans-30" transform="translate(127.246094 0)"/>
      </g>
     </g>
    </g>
    <g id="text_17">
     <!-- Average cumulative count -->
     <g transform="translate(14.798438 262.4325) rotate(-90) scale(0.1 -0.1)">
      <defs>
       <path id="DejaVuSans-41" d="M 2188 4044 
L 1331 1722 
L 3047 1722 
L 2188 4044 
z
M 1831 4666 
L 2547 4666 
L 4325 0 
L 3669 0 
L 3244 1197 
L 1141 1197 
L 716 0 
L 50 0 
L 1831 4666 
z
" transform="scale(0.015625)"/>
       <path id="DejaVuSans-76" d="M 191 3500 
L 800 3500 
L 1894 563 
L 2988 3500 
L 3597 3500 
L 2284 0 
L 1503 0 
L 191 3500 
z
" transform="scale(0.015625)"/>
       <path id="DejaVuSans-67" d="M 2906 1791 
Q 2906 2416 2648 2759 
Q 2391 3103 1925 3103 
Q 1463 3103 1205 2759 
Q 947 2416 947 1791 
Q 947 1169 1205 825 
Q 1463 481 1925 481 
Q 2391 481 2648 825 
Q 2906 1169 2906 1791 
z
M 3481 434 
Q 3481 -459 3084 -895 
Q 2688 -1331 1869 -1331 
Q 1566 -1331 1297 -1286 
Q 1028 -1241 775 -1147 
L 775 -588 
Q 1028 -725 1275 -790 
Q 1522 -856 1778 -856 
Q 2344 -856 2625 -561 
Q 2906 -266 2906 331 
L 2906 616 
Q 2728 306 2450 153 
Q 2172 0 1784 0 
Q 1141 0 747 490 
Q 353 981 353 1791 
Q 353 2603 747 3093 
Q 1141 3584 1784 3584 
Q 2172 3584 2450 3431 
Q 2728 3278 2906 2969 
L 2906 3500 
L 3481 3500 
L 3481 434 
z
" transform="scale(0.015625)"/>
       <path id="DejaVuSans-6c" d="M 603 4863 
L 1178 4863 
L 1178 0 
L 603 0 
L 603 4863 
z
" transform="scale(0.015625)"/>
      </defs>
      <use xlink:href="#DejaVuSans-41"/>
      <use xlink:href="#DejaVuSans-76" transform="translate(62.533203 0)"/>
      <use xlink:href="#DejaVuSans-65" transform="translate(121.712891 0)"/>
      <use xlink:href="#DejaVuSans-72" transform="translate(183.236328 0)"/>
      <use xlink:href="#DejaVuSans-61" transform="translate(224.349609 0)"/>
      <use xlink:href="#DejaVuSans-67" transform="translate(285.628906 0)"/>
      <use xlink:href="#DejaVuSans-65" transform="translate(349.105469 0)"/>
      <use xlink:href="#DejaVuSans-20" transform="translate(410.628906 0)"/>
      <use xlink:href="#DejaVuSans-63" transform="translate(442.416016 0)"/>
      <use xlink:href="#DejaVuSans-75" transform="translate(497.396484 0)"/>
      <use xlink:href="#DejaVuSans-6d" transform="translate(560.775391 0)"/>
      <use xlink:href="#DejaVuSans-75" transform="translate(658.1875 0)"/>
      <use xlink:href="#DejaVuSans-6c" transform="translate(721.566406 0)"/>
      <use xlink:href="#DejaVuSans-61" transform="translate(749.349609 0)"/>
      <use xlink:href="#DejaVuSans-74" transform="translate(810.628906 0)"/>
      <use xlink:href="#DejaVuSans-69" transform="translate(849.837891 0)"/>
      <use xlink:href="#DejaVuSans-76" transform="translate(877.621094 0)"/>
      <use xlink:href="#DejaVuSans-65" transform="translate(936.800781 0)"/>
      <use xlink:href="#DejaVuSans-20" transform="translate(998.324219 0)"/>
      <use xlink:href="#DejaVuSans-63" transform="translate(1030.111328 0)"/>
      <use xlink:href="#DejaVuSans-6f" transform="translate(1085.091797 0)"/>
      <use xlink:href="#DejaVuSans-75" transform="translate(1146.273438 0)"/>
      <use xlink:href="#DejaVuSans-6e" transform="translate(1209.652344 0)"/>
      <use xlink:href="#DejaVuSans-74" transform="translate(1273.03125 0)"/>
     </g>
    </g>
   </g>
   <g id="line2d_31">
    <path d="M 64.291534 369.201818 
L 116.139317 369.201818 
L 116.269261 365.897374 
L 136.064112 365.897374 
L 136.194057 362.592931 
L 194.712315 362.592931 
L 194.842259 359.288487 
L 410.766401 359.288487 
L 410.766401 359.288487 
" clip-path="url(#pcec71e8a58)" style="fill: none; stroke: #add8e6; stroke-width: 2; stroke-linecap: square"/>
   </g>
   <g id="line2d_32">
    <path d="M 64.291534 369.201818 
L 66.760476 369.201818 
L 66.89042 365.897374 
L 70.052399 365.897374 
L 70.182343 362.592931 
L 74.383876 362.592931 
L 74.51382 359.288487 
L 74.946968 359.288487 
L 75.076913 355.984043 
L 86.771901 355.984043 
L 86.901845 352.679599 
L 87.638197 352.679599 
L 87.768141 349.375155 
L 88.157974 349.375155 
L 88.287918 346.070712 
L 88.461177 346.070712 
L 88.591122 342.766268 
L 101.109091 342.766268 
L 101.239035 339.461824 
L 110.075249 339.461824 
L 110.205193 336.15738 
L 112.240988 336.15738 
L 112.370932 332.852936 
L 116.182632 332.852936 
L 116.312576 329.548493 
L 120.037647 329.548493 
L 120.167591 326.244049 
L 132.988764 326.244049 
L 133.118708 322.939605 
L 134.634725 322.939605 
L 134.764669 319.635161 
L 136.107427 319.635161 
L 136.237372 316.330717 
L 137.190297 316.330717 
L 137.320241 313.026274 
L 160.190441 313.026274 
L 160.320385 309.72183 
L 160.840162 309.72183 
L 160.970107 306.417386 
L 173.661335 306.417386 
L 173.79128 303.112942 
L 176.043648 303.112942 
L 176.173592 299.808498 
L 176.60674 299.808498 
L 176.736684 296.504055 
L 194.75563 296.504055 
L 194.885574 293.199611 
L 198.307441 293.199611 
L 198.437385 289.895167 
L 410.766401 289.895167 
L 410.766401 289.895167 
" clip-path="url(#pcec71e8a58)" style="fill: none; stroke: #00008b; stroke-width: 2; stroke-linecap: square"/>
   </g>
   <g id="line2d_33">
    <path d="M 410.809716 369.201818 
L 290.308018 369.201818 
L 290.178074 368.100337 
L 273.155368 368.100337 
L 273.025424 366.998856 
L 256.305922 366.998856 
L 256.175977 365.897374 
L 254.573331 365.897374 
L 254.443386 364.795893 
L 252.104389 364.795893 
L 251.974444 363.694412 
L 245.693802 363.694412 
L 245.563858 362.592931 
L 243.22486 362.592931 
L 243.094916 361.491449 
L 241.622214 361.491449 
L 241.492269 360.389968 
L 241.275695 360.389968 
L 241.145751 359.288487 
L 238.633494 359.288487 
L 238.50355 358.187006 
L 232.569426 358.187006 
L 232.439482 357.085524 
L 227.285024 357.085524 
L 227.15508 355.984043 
L 225.898951 355.984043 
L 225.769007 354.882562 
L 225.119285 354.882562 
L 224.989341 353.78108 
L 222.173881 353.78108 
L 222.043936 352.679599 
L 221.26427 352.679599 
L 221.134326 351.578118 
L 220.831123 351.578118 
L 220.657864 349.375155 
L 220.44129 349.375155 
L 220.311345 348.273674 
L 217.365941 348.273674 
L 217.235997 347.172193 
L 209.179449 347.172193 
L 209.049505 346.070712 
L 207.403543 346.070712 
L 207.273599 344.96923 
L 204.371509 344.96923 
L 204.241565 343.867749 
L 202.638918 343.867749 
L 202.508974 342.766268 
L 201.599364 342.766268 
L 201.469419 341.664787 
L 200.906327 341.664787 
L 200.776383 340.563305 
L 194.322482 340.563305 
L 194.192537 339.461824 
L 191.593651 339.461824 
L 191.463707 338.360343 
L 185.313009 338.360343 
L 185.183065 337.258861 
L 183.060641 337.258861 
L 182.930697 336.15738 
L 178.902423 336.15738 
L 178.772478 335.055899 
L 176.736684 335.055899 
L 176.60674 333.954418 
L 174.441001 333.954418 
L 174.311057 332.852936 
L 174.094483 332.852936 
L 173.964539 331.751455 
L 153.563281 331.751455 
L 153.433336 330.649974 
L 152.696985 330.649974 
L 152.567041 329.548493 
L 150.531247 329.548493 
L 150.401302 328.447011 
L 147.845731 328.447011 
L 147.715786 327.34553 
L 139.962442 327.34553 
L 139.832498 326.244049 
L 139.572609 326.244049 
L 139.442665 325.142568 
L 137.4935 325.142568 
L 137.363556 324.041086 
L 136.49726 324.041086 
L 136.367316 322.939605 
L 136.150742 322.939605 
L 136.020798 321.838124 
L 133.032078 321.838124 
L 132.902134 320.736642 
L 113.71369 320.736642 
L 113.583745 319.635161 
L 111.677895 319.635161 
L 111.547951 318.53368 
L 106.306864 318.53368 
L 106.176919 317.432199 
L 104.920791 317.432199 
L 104.790847 316.330717 
L 104.011181 316.330717 
L 103.881236 315.229236 
L 99.419815 315.229236 
L 99.28987 314.127755 
L 95.218282 314.127755 
L 95.088337 313.026274 
L 94.265357 313.026274 
L 94.135413 311.924792 
L 93.918839 311.924792 
L 93.788894 310.823311 
L 92.619395 310.823311 
L 92.489451 309.72183 
L 92.056303 309.72183 
L 91.926359 308.620349 
L 90.150453 308.620349 
L 90.020509 307.518867 
L 87.03179 307.518867 
L 86.901845 306.417386 
L 85.03931 306.417386 
L 84.909366 305.315905 
L 80.967722 305.315905 
L 80.837777 304.214423 
L 80.101426 304.214423 
L 79.971482 303.112942 
L 79.451705 303.112942 
L 79.32176 302.011461 
L 77.892373 302.011461 
L 77.762428 300.90998 
L 66.803791 300.90998 
L 66.673847 299.808498 
L 66.06744 299.808498 
L 65.937495 298.707017 
L 64.334849 298.707017 
L 64.334849 298.707017 
" clip-path="url(#pcec71e8a58)" style="fill: none; stroke-dasharray: 7.4,3.2; stroke-dashoffset: 0; stroke: #fa8072; stroke-width: 2"/>
   </g>
   <g id="line2d_34">
    <path d="M 410.809716 369.201818 
L 296.155512 369.201818 
L 296.025568 368.100337 
L 294.942699 368.100337 
L 294.812755 366.998856 
L 294.119718 366.998856 
L 293.989774 365.897374 
L 291.044369 365.897374 
L 290.914425 364.795893 
L 290.308018 364.795893 
L 290.178074 363.694412 
L 277.919993 363.694412 
L 277.790049 362.592931 
L 277.660105 362.592931 
L 277.53016 361.491449 
L 277.400216 361.491449 
L 277.270272 360.389968 
L 277.140327 360.389968 
L 277.010383 359.288487 
L 276.880439 359.288487 
L 276.750494 358.187006 
L 276.62055 358.187006 
L 276.490606 357.085524 
L 276.144087 357.085524 
L 276.014143 355.984043 
L 275.580995 355.984043 
L 275.451051 354.882562 
L 274.498126 354.882562 
L 274.368182 353.78108 
L 273.458572 353.78108 
L 273.328627 352.679599 
L 273.155368 352.679599 
L 273.025424 351.578118 
L 271.292833 351.578118 
L 271.162889 350.476637 
L 270.469852 350.476637 
L 270.339908 349.375155 
L 270.209964 349.375155 
L 270.080019 348.273674 
L 269.690186 348.273674 
L 269.560242 347.172193 
L 269.127094 347.172193 
L 268.99715 346.070712 
L 263.886007 346.070712 
L 263.756062 344.96923 
L 262.629878 344.96923 
L 262.499934 343.867749 
L 262.36999 343.867749 
L 262.240045 342.766268 
L 262.110101 342.766268 
L 261.980157 341.664787 
L 260.637399 341.664787 
L 260.507455 340.563305 
L 259.857733 340.563305 
L 259.727789 339.461824 
L 257.865253 339.461824 
L 257.735309 338.360343 
L 257.605365 338.360343 
L 257.47542 337.258861 
L 256.305922 337.258861 
L 256.175977 336.15738 
L 255.136423 336.15738 
L 255.006478 335.055899 
L 254.573331 335.055899 
L 254.443386 333.954418 
L 253.317202 333.954418 
L 253.187258 332.852936 
L 252.104389 332.852936 
L 251.974444 331.751455 
L 250.718316 331.751455 
L 250.588372 330.649974 
L 248.509262 330.649974 
L 248.379318 329.548493 
L 247.686282 329.548493 
L 247.556337 328.447011 
L 245.693802 328.447011 
L 245.563858 327.34553 
L 243.22486 327.34553 
L 243.094916 326.244049 
L 241.622214 326.244049 
L 241.492269 325.142568 
L 241.275695 325.142568 
L 241.145751 324.041086 
L 239.456475 324.041086 
L 239.326531 322.939605 
L 238.633494 322.939605 
L 238.50355 321.838124 
L 237.983773 321.838124 
L 237.853828 320.736642 
L 233.912184 320.736642 
L 233.78224 319.635161 
L 232.829315 319.635161 
L 232.69937 318.53368 
L 232.569426 318.53368 
L 232.439482 316.330717 
L 232.309537 316.330717 
L 232.179593 315.229236 
L 231.833075 315.229236 
L 231.703131 314.127755 
L 231.573186 314.127755 
L 231.443242 313.026274 
L 230.706891 313.026274 
L 230.576947 311.924792 
L 230.490317 311.924792 
L 230.317058 309.72183 
L 230.187114 309.72183 
L 230.057169 308.620349 
L 229.927225 308.620349 
L 229.797281 307.518867 
L 229.667336 307.518867 
L 229.537392 306.417386 
L 229.407448 306.417386 
L 229.277503 305.315905 
L 228.930985 305.315905 
L 228.801041 304.214423 
L 228.671097 304.214423 
L 228.541152 303.112942 
L 228.411208 303.112942 
L 228.281264 302.011461 
L 227.285024 302.011461 
L 227.15508 300.90998 
L 226.635302 300.90998 
L 226.505358 299.808498 
L 226.418728 299.808498 
L 226.288784 298.707017 
L 226.202155 298.707017 
L 226.028895 296.504055 
L 225.898951 296.504055 
L 225.769007 295.402573 
L 225.552433 295.402573 
L 225.422489 294.301092 
L 225.292544 294.301092 
L 225.1626 293.199611 
L 225.119285 293.199611 
L 224.946026 290.996648 
L 224.512878 290.996648 
L 224.382934 289.895167 
L 224.25299 289.895167 
L 224.123045 288.793686 
L 223.733212 288.793686 
L 223.603268 287.692204 
L 222.173881 287.692204 
L 222.000622 285.489242 
L 221.740733 285.489242 
L 221.610789 284.387761 
L 221.26427 284.387761 
L 221.134326 283.286279 
L 220.831123 283.286279 
L 220.657864 281.083317 
L 220.44129 281.083317 
L 220.311345 279.981836 
L 217.755774 279.981836 
L 217.62583 278.880354 
L 217.365941 278.880354 
L 217.235997 277.778873 
L 215.373461 277.778873 
L 215.243517 276.677392 
L 214.72374 276.677392 
L 214.550481 274.474429 
L 213.251037 274.474429 
L 213.077778 272.271467 
L 212.341427 272.271467 
L 212.211483 271.169985 
L 212.038224 271.169985 
L 211.90828 270.068504 
L 210.565522 270.068504 
L 210.435577 268.967023 
L 210.392262 268.967023 
L 210.262318 267.865542 
L 209.352708 267.865542 
L 209.222764 266.76406 
L 209.179449 266.76406 
L 209.049505 265.662579 
L 208.702986 265.662579 
L 208.573042 264.561098 
L 208.269839 264.561098 
L 208.139894 263.459617 
L 207.403543 263.459617 
L 207.230284 261.256654 
L 205.411064 261.256654 
L 205.281119 260.155173 
L 204.371509 260.155173 
L 204.241565 259.053692 
L 202.638918 259.053692 
L 202.508974 257.95221 
L 201.599364 257.95221 
L 201.469419 256.850729 
L 200.906327 256.850729 
L 200.776383 255.749248 
L 200.47318 255.749248 
L 200.343235 254.647766 
L 198.524015 254.647766 
L 198.39407 253.546285 
L 198.264126 253.546285 
L 198.134182 252.444804 
L 197.960923 252.444804 
L 197.830978 251.343323 
L 197.441145 251.343323 
L 197.311201 250.241841 
L 196.358276 250.241841 
L 196.228332 249.14036 
L 195.015518 249.14036 
L 194.842259 246.937398 
L 194.322482 246.937398 
L 194.192537 245.835916 
L 192.243373 245.835916 
L 192.113428 244.734435 
L 191.593651 244.734435 
L 191.463707 243.632954 
L 190.164264 243.632954 
L 190.034319 242.531473 
L 189.644486 242.531473 
L 189.514542 241.429991 
L 188.04184 241.429991 
L 187.911895 240.32851 
L 187.478748 240.32851 
L 187.348803 239.227029 
L 186.95897 239.227029 
L 186.829026 238.125547 
L 185.313009 238.125547 
L 185.183065 237.024066 
L 185.096435 237.024066 
L 184.966491 235.922585 
L 184.663287 235.922585 
L 184.533343 234.821104 
L 184.446714 234.821104 
L 184.316769 233.719622 
L 183.060641 233.719622 
L 182.930697 232.618141 
L 182.670808 232.618141 
L 182.540864 231.51666 
L 182.454234 231.51666 
L 182.32429 230.415179 
L 182.151031 230.415179 
L 182.021086 229.313697 
L 181.457994 229.313697 
L 181.32805 228.212216 
L 180.808273 228.212216 
L 180.678328 227.110735 
L 180.505069 227.110735 
L 180.375125 226.009254 
L 178.902423 226.009254 
L 178.772478 224.907772 
L 178.42596 224.907772 
L 178.296016 223.806291 
L 178.166072 223.806291 
L 178.036127 222.70481 
L 176.736684 222.70481 
L 176.60674 221.603328 
L 175.653815 221.603328 
L 175.52387 220.501847 
L 174.441001 220.501847 
L 174.311057 219.400366 
L 174.094483 219.400366 
L 173.964539 218.298885 
L 172.015374 218.298885 
L 171.88543 217.197403 
L 171.062449 217.197403 
L 170.932505 216.095922 
L 170.282783 216.095922 
L 170.152839 214.994441 
L 169.286543 214.994441 
L 169.156599 213.89296 
L 168.98334 213.89296 
L 168.853395 212.791478 
L 168.463562 212.791478 
L 168.290303 210.588516 
L 167.683897 210.588516 
L 167.553952 209.487035 
L 166.947545 209.487035 
L 166.817601 208.385553 
L 165.301584 208.385553 
L 165.17164 207.284072 
L 164.608548 207.284072 
L 164.478603 206.182591 
L 164.132085 206.182591 
L 163.958826 203.979628 
L 162.26955 203.979628 
L 162.139606 202.878147 
L 161.966347 202.878147 
L 161.836402 201.776666 
L 161.706458 201.776666 
L 161.576514 200.675184 
L 161.533199 200.675184 
L 161.403255 199.573703 
L 160.580274 199.573703 
L 160.45033 198.472222 
L 159.713978 198.472222 
L 159.584034 197.370741 
L 159.410775 197.370741 
L 159.280831 196.269259 
L 158.890998 196.269259 
L 158.761053 195.167778 
L 157.808128 195.167778 
L 157.678184 194.066297 
L 156.63863 194.066297 
L 156.508685 192.964816 
L 156.292111 192.964816 
L 156.162167 191.863334 
L 155.685705 191.863334 
L 155.55576 190.761853 
L 154.992668 190.761853 
L 154.862724 189.660372 
L 153.563281 189.660372 
L 153.433336 188.558891 
L 153.390022 188.558891 
L 153.260077 187.457409 
L 152.696985 187.457409 
L 152.567041 186.355928 
L 152.480411 186.355928 
L 152.350467 185.254447 
L 150.83445 185.254447 
L 150.704506 184.152965 
L 150.531247 184.152965 
L 150.357987 181.950003 
L 147.845731 181.950003 
L 147.715786 180.848522 
L 147.02275 180.848522 
L 146.892806 179.74704 
L 146.719547 179.74704 
L 146.589602 178.645559 
L 146.199769 178.645559 
L 146.069825 177.544078 
L 145.463418 177.544078 
L 145.333474 176.442597 
L 144.813697 176.442597 
L 144.683752 175.341115 
L 143.427624 175.341115 
L 143.29768 174.239634 
L 142.907847 174.239634 
L 142.777902 173.138153 
L 142.474699 173.138153 
L 142.344755 170.93519 
L 141.435144 170.93519 
L 141.261885 168.732228 
L 141.001997 168.732228 
L 140.872052 167.630746 
L 140.742108 167.630746 
L 140.612164 166.529265 
L 140.525534 166.529265 
L 140.39559 165.427784 
L 139.962442 165.427784 
L 139.832498 164.326303 
L 139.572609 164.326303 
L 139.442665 163.224821 
L 138.922888 163.224821 
L 138.792943 162.12334 
L 138.316481 162.12334 
L 138.186536 161.021859 
L 137.4935 161.021859 
L 137.363556 159.920378 
L 136.49726 159.920378 
L 136.367316 158.818896 
L 136.150742 158.818896 
L 135.977483 156.615934 
L 134.504781 156.615934 
L 134.374836 155.514453 
L 133.032078 155.514453 
L 132.902134 154.412971 
L 132.77219 154.412971 
L 132.642245 153.31149 
L 132.252412 153.31149 
L 132.122468 152.210009 
L 131.472747 152.210009 
L 131.342802 151.108527 
L 130.346563 151.108527 
L 130.216618 150.007046 
L 129.003805 150.007046 
L 128.830545 147.804084 
L 127.574417 147.804084 
L 127.444473 146.702602 
L 125.322049 146.702602 
L 125.192105 145.601121 
L 124.325809 145.601121 
L 124.195865 144.49964 
L 123.806032 144.49964 
L 123.676087 143.398159 
L 123.546143 143.398159 
L 123.416199 142.296677 
L 117.655334 142.296677 
L 117.52539 141.195196 
L 116.096002 141.195196 
L 115.966058 140.093715 
L 114.146838 140.093715 
L 114.016893 138.992234 
L 113.973578 138.992234 
L 113.843634 137.890752 
L 113.71369 137.890752 
L 113.583745 136.789271 
L 113.063968 136.789271 
L 112.934024 135.68779 
L 112.457561 135.68779 
L 112.327617 134.586308 
L 111.677895 134.586308 
L 111.504636 132.383346 
L 110.854915 132.383346 
L 110.72497 131.281865 
L 110.465082 131.281865 
L 110.335138 130.180383 
L 107.736251 130.180383 
L 107.606307 129.078902 
L 106.306864 129.078902 
L 106.176919 127.977421 
L 104.920791 127.977421 
L 104.790847 126.87594 
L 104.011181 126.87594 
L 103.881236 125.774458 
L 102.538478 125.774458 
L 102.408534 124.672977 
L 102.148645 124.672977 
L 102.018701 123.571496 
L 101.975386 123.571496 
L 101.802127 121.368533 
L 101.672183 121.368533 
L 101.498924 119.165571 
L 101.065776 119.165571 
L 100.935832 118.064089 
L 100.805888 118.064089 
L 100.675943 116.962608 
L 100.242795 116.962608 
L 100.112851 115.861127 
L 99.766333 115.861127 
L 99.593074 113.658164 
L 99.506444 113.658164 
L 99.333185 111.455202 
L 99.246556 111.455202 
L 99.116611 110.353721 
L 96.734299 110.353721 
L 96.604355 109.252239 
L 96.47441 109.252239 
L 96.344466 108.150758 
L 95.997948 108.150758 
L 95.868003 107.049277 
L 95.65143 107.049277 
L 95.521485 105.947796 
L 95.391541 105.947796 
L 95.261597 104.846314 
L 95.218282 104.846314 
L 95.088337 103.744833 
L 94.265357 103.744833 
L 94.135413 102.643352 
L 93.918839 102.643352 
L 93.788894 101.54187 
L 93.74558 101.54187 
L 93.615635 100.440389 
L 92.922599 100.440389 
L 92.792655 99.338908 
L 92.619395 99.338908 
L 92.402822 96.034464 
L 92.272877 96.034464 
L 92.142933 94.932983 
L 92.056303 94.932983 
L 91.926359 93.831502 
L 90.193768 93.831502 
L 90.020509 91.628539 
L 88.980955 91.628539 
L 88.85101 90.527058 
L 87.768141 90.527058 
L 87.638197 89.425577 
L 87.03179 89.425577 
L 86.901845 88.324095 
L 86.685272 88.324095 
L 86.555327 87.222614 
L 86.165494 87.222614 
L 86.03555 86.121133 
L 85.905606 86.121133 
L 85.775661 85.019651 
L 85.732347 85.019651 
L 85.559088 82.816689 
L 85.03931 82.816689 
L 84.909366 81.715208 
L 84.389589 81.715208 
L 84.21633 79.512245 
L 83.999756 79.512245 
L 83.869811 78.410764 
L 83.350034 78.410764 
L 83.22009 77.309283 
L 83.13346 77.309283 
L 83.003516 76.207801 
L 82.916886 76.207801 
L 82.786942 75.10632 
L 82.613683 75.10632 
L 82.440424 72.903358 
L 82.353794 72.903358 
L 82.22385 71.801876 
L 82.093906 71.801876 
L 81.920647 69.598914 
L 81.790702 69.598914 
L 81.660758 68.497432 
L 81.011036 68.497432 
L 80.837777 66.29447 
L 80.707833 66.29447 
L 80.577889 65.192989 
L 80.447944 65.192989 
L 80.318 64.091507 
L 80.101426 64.091507 
L 79.971482 62.990026 
L 79.451705 62.990026 
L 79.32176 61.888545 
L 78.41215 61.888545 
L 78.282206 60.787064 
L 78.108947 60.787064 
L 77.979002 59.685582 
L 77.892373 59.685582 
L 77.719114 57.48262 
L 77.589169 57.48262 
L 77.459225 56.381139 
L 77.285966 56.381139 
L 77.156022 55.279657 
L 77.112707 55.279657 
L 76.982763 54.178176 
L 76.59293 54.178176 
L 76.41967 51.975213 
L 76.333041 51.975213 
L 76.159782 49.772251 
L 75.856578 49.772251 
L 75.726634 48.67077 
L 75.59669 48.67077 
L 75.466745 47.569288 
L 75.336801 47.569288 
L 75.163542 45.366326 
L 74.990283 45.366326 
L 74.860339 44.264845 
L 74.51382 44.264845 
L 74.340561 42.061882 
L 74.210617 42.061882 
L 74.080673 40.960401 
L 73.950728 40.960401 
L 73.820784 39.85892 
L 73.430951 39.85892 
L 73.301007 38.757438 
L 73.214377 38.757438 
L 73.084433 37.655957 
L 72.911174 37.655957 
L 72.737915 35.452994 
L 72.348082 35.452994 
L 72.218137 34.351513 
L 72.001564 34.351513 
L 71.871619 33.250032 
L 70.962009 33.250032 
L 70.832065 32.148551 
L 70.615491 32.148551 
L 70.485547 31.047069 
L 70.398917 31.047069 
L 70.268973 29.945588 
L 70.095714 29.945588 
L 69.922455 27.742626 
L 69.575936 27.742626 
L 69.445992 26.641144 
L 66.803791 26.641144 
L 66.673847 25.539663 
L 66.06744 25.539663 
L 65.937495 24.438182 
L 64.334849 24.438182 
L 64.334849 24.438182 
" clip-path="url(#pcec71e8a58)" style="fill: none; stroke-dasharray: 7.4,3.2; stroke-dashoffset: 0; stroke: #8b0000; stroke-width: 2"/>
   </g>
   <g id="patch_3">
    <path d="M 46.965625 386.44 
L 46.965625 7.2 
" style="fill: none; stroke: #000000; stroke-width: 0.8; stroke-linejoin: miter; stroke-linecap: square"/>
   </g>
   <g id="patch_4">
    <path d="M 428.135625 386.44 
L 428.135625 7.2 
" style="fill: none; stroke: #000000; stroke-width: 0.8; stroke-linejoin: miter; stroke-linecap: square"/>
   </g>
   <g id="patch_5">
    <path d="M 46.965625 386.44 
L 428.135625 386.44 
" style="fill: none; stroke: #000000; stroke-width: 0.8; stroke-linejoin: miter; stroke-linecap: square"/>
   </g>
   <g id="patch_6">
    <path d="M 46.965625 7.2 
L 428.135625 7.2 
" style="fill: none; stroke: #000000; stroke-width: 0.8; stroke-linejoin: miter; stroke-linecap: square"/>
   </g>
   <g id="legend_1">
    <g id="patch_7">
     <path d="M 435.135625 88.590625 
L 559.01375 88.590625 
Q 561.01375 88.590625 561.01375 86.590625 
L 561.01375 14.2 
Q 561.01375 12.2 559.01375 12.2 
L 435.135625 12.2 
Q 433.135625 12.2 433.135625 14.2 
L 433.135625 86.590625 
Q 433.135625 88.590625 435.135625 88.590625 
z
" style="fill: #ffffff; opacity: 0.8; stroke: #cccccc; stroke-linejoin: miter"/>
    </g>
    <g id="text_18">
     <!-- Motifs &amp; orientation -->
     <g transform="translate(447.559062 23.798437) scale(0.1 -0.1)">
      <defs>
       <path id="DejaVuSans-4d" d="M 628 4666 
L 1569 4666 
L 2759 1491 
L 3956 4666 
L 4897 4666 
L 4897 0 
L 4281 0 
L 4281 4097 
L 3078 897 
L 2444 897 
L 1241 4097 
L 1241 0 
L 628 0 
L 628 4666 
z
" transform="scale(0.015625)"/>
       <path id="DejaVuSans-26" d="M 1556 2509 
Q 1272 2256 1139 2004 
Q 1006 1753 1006 1478 
Q 1006 1022 1337 719 
Q 1669 416 2169 416 
Q 2466 416 2725 514 
Q 2984 613 3213 813 
L 1556 2509 
z
M 1997 2859 
L 3584 1234 
Q 3769 1513 3872 1830 
Q 3975 2147 3994 2503 
L 4575 2503 
Q 4538 2091 4375 1687 
Q 4213 1284 3922 891 
L 4794 0 
L 4006 0 
L 3559 459 
Q 3234 181 2878 45 
Q 2522 -91 2113 -91 
Q 1359 -91 881 339 
Q 403 769 403 1441 
Q 403 1841 612 2192 
Q 822 2544 1241 2853 
Q 1091 3050 1012 3245 
Q 934 3441 934 3628 
Q 934 4134 1281 4442 
Q 1628 4750 2203 4750 
Q 2463 4750 2720 4694 
Q 2978 4638 3244 4525 
L 3244 3956 
Q 2972 4103 2725 4179 
Q 2478 4256 2266 4256 
Q 1938 4256 1733 4082 
Q 1528 3909 1528 3634 
Q 1528 3475 1620 3314 
Q 1713 3153 1997 2859 
z
" transform="scale(0.015625)"/>
      </defs>
      <use xlink:href="#DejaVuSans-4d"/>
      <use xlink:href="#DejaVuSans-6f" transform="translate(86.279297 0)"/>
      <use xlink:href="#DejaVuSans-74" transform="translate(147.460938 0)"/>
      <use xlink:href="#DejaVuSans-69" transform="translate(186.669922 0)"/>
      <use xlink:href="#DejaVuSans-66" transform="translate(214.453125 0)"/>
      <use xlink:href="#DejaVuSans-73" transform="translate(249.658203 0)"/>
      <use xlink:href="#DejaVuSans-20" transform="translate(301.757812 0)"/>
      <use xlink:href="#DejaVuSans-26" transform="translate(333.544922 0)"/>
      <use xlink:href="#DejaVuSans-20" transform="translate(411.523438 0)"/>
      <use xlink:href="#DejaVuSans-6f" transform="translate(443.310547 0)"/>
      <use xlink:href="#DejaVuSans-72" transform="translate(504.492188 0)"/>
      <use xlink:href="#DejaVuSans-69" transform="translate(545.605469 0)"/>
      <use xlink:href="#DejaVuSans-65" transform="translate(573.388672 0)"/>
      <use xlink:href="#DejaVuSans-6e" transform="translate(634.912109 0)"/>
      <use xlink:href="#DejaVuSans-74" transform="translate(698.291016 0)"/>
      <use xlink:href="#DejaVuSans-61" transform="translate(737.5 0)"/>
      <use xlink:href="#DejaVuSans-74" transform="translate(798.779297 0)"/>
      <use xlink:href="#DejaVuSans-69" transform="translate(837.988281 0)"/>
      <use xlink:href="#DejaVuSans-6f" transform="translate(865.771484 0)"/>
      <use xlink:href="#DejaVuSans-6e" transform="translate(926.953125 0)"/>
     </g>
    </g>
    <g id="line2d_35">
     <path d="M 437.135625 34.976562 
L 447.135625 34.976562 
L 457.135625 34.976562 
" style="fill: none; stroke: #add8e6; stroke-width: 2; stroke-linecap: square"/>
    </g>
    <g id="text_19">
     <!-- CCCGAAA (5' end) -->
     <g transform="translate(465.135625 38.476562) scale(0.1 -0.1)">
      <defs>
       <path id="DejaVuSans-43" d="M 4122 4306 
L 4122 3641 
Q 3803 3938 3442 4084 
Q 3081 4231 2675 4231 
Q 1875 4231 1450 3742 
Q 1025 3253 1025 2328 
Q 1025 1406 1450 917 
Q 1875 428 2675 428 
Q 3081 428 3442 575 
Q 3803 722 4122 1019 
L 4122 359 
Q 3791 134 3420 21 
Q 3050 -91 2638 -91 
Q 1578 -91 968 557 
Q 359 1206 359 2328 
Q 359 3453 968 4101 
Q 1578 4750 2638 4750 
Q 3056 4750 3426 4639 
Q 3797 4528 4122 4306 
z
" transform="scale(0.015625)"/>
       <path id="DejaVuSans-47" d="M 3809 666 
L 3809 1919 
L 2778 1919 
L 2778 2438 
L 4434 2438 
L 4434 434 
Q 4069 175 3628 42 
Q 3188 -91 2688 -91 
Q 1594 -91 976 548 
Q 359 1188 359 2328 
Q 359 3472 976 4111 
Q 1594 4750 2688 4750 
Q 3144 4750 3555 4637 
Q 3966 4525 4313 4306 
L 4313 3634 
Q 3963 3931 3569 4081 
Q 3175 4231 2741 4231 
Q 1884 4231 1454 3753 
Q 1025 3275 1025 2328 
Q 1025 1384 1454 906 
Q 1884 428 2741 428 
Q 3075 428 3337 486 
Q 3600 544 3809 666 
z
" transform="scale(0.015625)"/>
       <path id="DejaVuSans-28" d="M 1984 4856 
Q 1566 4138 1362 3434 
Q 1159 2731 1159 2009 
Q 1159 1288 1364 580 
Q 1569 -128 1984 -844 
L 1484 -844 
Q 1016 -109 783 600 
Q 550 1309 550 2009 
Q 550 2706 781 3412 
Q 1013 4119 1484 4856 
L 1984 4856 
z
" transform="scale(0.015625)"/>
       <path id="DejaVuSans-27" d="M 1147 4666 
L 1147 2931 
L 616 2931 
L 616 4666 
L 1147 4666 
z
" transform="scale(0.015625)"/>
       <path id="DejaVuSans-64" d="M 2906 2969 
L 2906 4863 
L 3481 4863 
L 3481 0 
L 2906 0 
L 2906 525 
Q 2725 213 2448 61 
Q 2172 -91 1784 -91 
Q 1150 -91 751 415 
Q 353 922 353 1747 
Q 353 2572 751 3078 
Q 1150 3584 1784 3584 
Q 2172 3584 2448 3432 
Q 2725 3281 2906 2969 
z
M 947 1747 
Q 947 1113 1208 752 
Q 1469 391 1925 391 
Q 2381 391 2643 752 
Q 2906 1113 2906 1747 
Q 2906 2381 2643 2742 
Q 2381 3103 1925 3103 
Q 1469 3103 1208 2742 
Q 947 2381 947 1747 
z
" transform="scale(0.015625)"/>
       <path id="DejaVuSans-29" d="M 513 4856 
L 1013 4856 
Q 1481 4119 1714 3412 
Q 1947 2706 1947 2009 
Q 1947 1309 1714 600 
Q 1481 -109 1013 -844 
L 513 -844 
Q 928 -128 1133 580 
Q 1338 1288 1338 2009 
Q 1338 2731 1133 3434 
Q 928 4138 513 4856 
z
" transform="scale(0.015625)"/>
      </defs>
      <use xlink:href="#DejaVuSans-43"/>
      <use xlink:href="#DejaVuSans-43" transform="translate(69.824219 0)"/>
      <use xlink:href="#DejaVuSans-43" transform="translate(139.648438 0)"/>
      <use xlink:href="#DejaVuSans-47" transform="translate(209.472656 0)"/>
      <use xlink:href="#DejaVuSans-41" transform="translate(286.962891 0)"/>
      <use xlink:href="#DejaVuSans-41" transform="translate(358.121094 0)"/>
      <use xlink:href="#DejaVuSans-41" transform="translate(429.279297 0)"/>
      <use xlink:href="#DejaVuSans-20" transform="translate(497.6875 0)"/>
      <use xlink:href="#DejaVuSans-28" transform="translate(529.474609 0)"/>
      <use xlink:href="#DejaVuSans-35" transform="translate(568.488281 0)"/>
      <use xlink:href="#DejaVuSans-27" transform="translate(632.111328 0)"/>
      <use xlink:href="#DejaVuSans-20" transform="translate(659.601562 0)"/>
      <use xlink:href="#DejaVuSans-65" transform="translate(691.388672 0)"/>
      <use xlink:href="#DejaVuSans-6e" transform="translate(752.912109 0)"/>
      <use xlink:href="#DejaVuSans-64" transform="translate(816.291016 0)"/>
      <use xlink:href="#DejaVuSans-29" transform="translate(879.767578 0)"/>
     </g>
    </g>
    <g id="line2d_36">
     <path d="M 437.135625 49.654687 
L 447.135625 49.654687 
L 457.135625 49.654687 
" style="fill: none; stroke: #00008b; stroke-width: 2; stroke-linecap: square"/>
    </g>
    <g id="text_20">
     <!-- CCGAAA (5' end) -->
     <g transform="translate(465.135625 53.154687) scale(0.1 -0.1)">
      <use xlink:href="#DejaVuSans-43"/>
      <use xlink:href="#DejaVuSans-43" transform="translate(69.824219 0)"/>
      <use xlink:href="#DejaVuSans-47" transform="translate(139.648438 0)"/>
      <use xlink:href="#DejaVuSans-41" transform="translate(217.138672 0)"/>
      <use xlink:href="#DejaVuSans-41" transform="translate(288.296875 0)"/>
      <use xlink:href="#DejaVuSans-41" transform="translate(359.455078 0)"/>
      <use xlink:href="#DejaVuSans-20" transform="translate(427.863281 0)"/>
      <use xlink:href="#DejaVuSans-28" transform="translate(459.650391 0)"/>
      <use xlink:href="#DejaVuSans-35" transform="translate(498.664062 0)"/>
      <use xlink:href="#DejaVuSans-27" transform="translate(562.287109 0)"/>
      <use xlink:href="#DejaVuSans-20" transform="translate(589.777344 0)"/>
      <use xlink:href="#DejaVuSans-65" transform="translate(621.564453 0)"/>
      <use xlink:href="#DejaVuSans-6e" transform="translate(683.087891 0)"/>
      <use xlink:href="#DejaVuSans-64" transform="translate(746.466797 0)"/>
      <use xlink:href="#DejaVuSans-29" transform="translate(809.943359 0)"/>
     </g>
    </g>
    <g id="line2d_37">
     <path d="M 437.135625 64.332812 
L 447.135625 64.332812 
L 457.135625 64.332812 
" style="fill: none; stroke-dasharray: 7.4,3.2; stroke-dashoffset: 0; stroke: #fa8072; stroke-width: 2"/>
    </g>
    <g id="text_21">
     <!-- TTTCGGG (3' end) -->
     <g transform="translate(465.135625 67.832812) scale(0.1 -0.1)">
      <defs>
       <path id="DejaVuSans-54" d="M -19 4666 
L 3928 4666 
L 3928 4134 
L 2272 4134 
L 2272 0 
L 1638 0 
L 1638 4134 
L -19 4134 
L -19 4666 
z
" transform="scale(0.015625)"/>
      </defs>
      <use xlink:href="#DejaVuSans-54"/>
      <use xlink:href="#DejaVuSans-54" transform="translate(59.333984 0)"/>
      <use xlink:href="#DejaVuSans-54" transform="translate(118.667969 0)"/>
      <use xlink:href="#DejaVuSans-43" transform="translate(173.876953 0)"/>
      <use xlink:href="#DejaVuSans-47" transform="translate(243.701172 0)"/>
      <use xlink:href="#DejaVuSans-47" transform="translate(321.191406 0)"/>
      <use xlink:href="#DejaVuSans-47" transform="translate(398.681641 0)"/>
      <use xlink:href="#DejaVuSans-20" transform="translate(476.171875 0)"/>
      <use xlink:href="#DejaVuSans-28" transform="translate(507.958984 0)"/>
      <use xlink:href="#DejaVuSans-33" transform="translate(546.972656 0)"/>
      <use xlink:href="#DejaVuSans-27" transform="translate(610.595703 0)"/>
      <use xlink:href="#DejaVuSans-20" transform="translate(638.085938 0)"/>
      <use xlink:href="#DejaVuSans-65" transform="translate(669.873047 0)"/>
      <use xlink:href="#DejaVuSans-6e" transform="translate(731.396484 0)"/>
      <use xlink:href="#DejaVuSans-64" transform="translate(794.775391 0)"/>
      <use xlink:href="#DejaVuSans-29" transform="translate(858.251953 0)"/>
     </g>
    </g>
    <g id="line2d_38">
     <path d="M 437.135625 79.010937 
L 447.135625 79.010937 
L 457.135625 79.010937 
" style="fill: none; stroke-dasharray: 7.4,3.2; stroke-dashoffset: 0; stroke: #8b0000; stroke-width: 2"/>
    </g>
    <g id="text_22">
     <!-- TTTCGG (3' end) -->
     <g transform="translate(465.135625 82.510937) scale(0.1 -0.1)">
      <use xlink:href="#DejaVuSans-54"/>
      <use xlink:href="#DejaVuSans-54" transform="translate(59.333984 0)"/>
      <use xlink:href="#DejaVuSans-54" transform="translate(118.667969 0)"/>
      <use xlink:href="#DejaVuSans-43" transform="translate(173.876953 0)"/>
      <use xlink:href="#DejaVuSans-47" transform="translate(243.701172 0)"/>
      <use xlink:href="#DejaVuSans-47" transform="translate(321.191406 0)"/>
      <use xlink:href="#DejaVuSans-20" transform="translate(398.681641 0)"/>
      <use xlink:href="#DejaVuSans-28" transform="translate(430.46875 0)"/>
      <use xlink:href="#DejaVuSans-33" transform="translate(469.482422 0)"/>
      <use xlink:href="#DejaVuSans-27" transform="translate(533.105469 0)"/>
      <use xlink:href="#DejaVuSans-20" transform="translate(560.595703 0)"/>
      <use xlink:href="#DejaVuSans-65" transform="translate(592.382812 0)"/>
      <use xlink:href="#DejaVuSans-6e" transform="translate(653.90625 0)"/>
      <use xlink:href="#DejaVuSans-64" transform="translate(717.285156 0)"/>
      <use xlink:href="#DejaVuSans-29" transform="translate(780.761719 0)"/>
     </g>
    </g>
   </g>
  </g>
 </g>
 <defs>
  <clipPath id="pcec71e8a58">
   <rect x="46.965625" y="7.2" width="381.17" height="379.24"/>
  </clipPath>
 </defs>
</svg>
