<?xml version="1.0" encoding="utf-8" standalone="no"?>
<!DOCTYPE svg PUBLIC "-//W3C//DTD SVG 1.1//EN"
  "http://www.w3.org/Graphics/SVG/1.1/DTD/svg11.dtd">
<svg xmlns:xlink="http://www.w3.org/1999/xlink" width="568.152812pt" height="423.99625pt" viewBox="0 0 568.152812 423.99625" xmlns="http://www.w3.org/2000/svg" version="1.1">
 <metadata>
  <rdf:RDF xmlns:dc="http://purl.org/dc/elements/1.1/" xmlns:cc="http://creativecommons.org/ns#" xmlns:rdf="http://www.w3.org/1999/02/22-rdf-syntax-ns#">
   <cc:Work>
    <dc:type rdf:resource="http://purl.org/dc/dcmitype/StillImage"/>
    <dc:date>2026-04-30T15:26:56.149189</dc:date>
    <dc:format>image/svg+xml</dc:format>
    <dc:creator>
     <cc:Agent>
      <dc:title>Matplotlib v3.10.6, https://matplotlib.org/</dc:title>
     </cc:Agent>
    </dc:creator>
   </cc:Work>
  </rdf:RDF>
 </metadata>
 <defs>
  <style type="text/css">*{stroke-linejoin: round; stroke-linecap: butt}</style>
 </defs>
 <g id="figure_1">
  <g id="patch_1">
   <path d="M 0 423.99625 
L 568.152812 423.99625 
L 568.152812 0 
L 0 0 
z
" style="fill: #ffffff"/>
  </g>
  <g id="axes_1">
   <g id="patch_2">
    <path d="M 46.965625 386.44 
L 438.935625 386.44 
L 438.935625 7.2 
L 46.965625 7.2 
z
" style="fill: #ffffff"/>
   </g>
   <g id="matplotlib.axis_1">
    <g id="xtick_1">
     <g id="line2d_1">
      <path d="M 64.782443 386.44 
L 64.782443 7.2 
" clip-path="url(#pc51180bc81)" style="fill: none; stroke-dasharray: 2.96,1.28; stroke-dashoffset: 0; stroke: #b0b0b0; stroke-opacity: 0.6; stroke-width: 0.8"/>
     </g>
     <g id="line2d_2">
      <defs>
       <path id="m161dca8049" d="M 0 0 
L 0 3.5 
" style="stroke: #000000; stroke-width: 0.8"/>
      </defs>
      <g>
       <use xlink:href="#m161dca8049" x="64.782443" y="386.44" style="stroke: #000000; stroke-width: 0.8"/>
      </g>
     </g>
     <g id="text_1">
      <!-- 0 -->
      <g transform="translate(61.601193 401.038437) scale(0.1 -0.1)">
       <defs>
        <path id="DejaVuSans-30" d="M 2034 4250 
Q 1547 4250 1301 3770 
Q 1056 3291 1056 2328 
Q 1056 1369 1301 889 
Q 1547 409 2034 409 
Q 2525 409 2770 889 
Q 3016 1369 3016 2328 
Q 3016 3291 2770 3770 
Q 2525 4250 2034 4250 
z
M 2034 4750 
Q 2819 4750 3233 4129 
Q 3647 3509 3647 2328 
Q 3647 1150 3233 529 
Q 2819 -91 2034 -91 
Q 1250 -91 836 529 
Q 422 1150 422 2328 
Q 422 3509 836 4129 
Q 1250 4750 2034 4750 
z
" transform="scale(0.015625)"/>
       </defs>
       <use xlink:href="#DejaVuSans-30"/>
      </g>
     </g>
    </g>
    <g id="xtick_2">
     <g id="line2d_3">
      <path d="M 109.324489 386.44 
L 109.324489 7.2 
" clip-path="url(#pc51180bc81)" style="fill: none; stroke-dasharray: 2.96,1.28; stroke-dashoffset: 0; stroke: #b0b0b0; stroke-opacity: 0.6; stroke-width: 0.8"/>
     </g>
     <g id="line2d_4">
      <g>
       <use xlink:href="#m161dca8049" x="109.324489" y="386.44" style="stroke: #000000; stroke-width: 0.8"/>
      </g>
     </g>
     <g id="text_2">
      <!-- 1000 -->
      <g transform="translate(96.599489 401.038437) scale(0.1 -0.1)">
       <defs>
        <path id="DejaVuSans-31" d="M 794 531 
L 1825 531 
L 1825 4091 
L 703 3866 
L 703 4441 
L 1819 4666 
L 2450 4666 
L 2450 531 
L 3481 531 
L 3481 0 
L 794 0 
L 794 531 
z
" transform="scale(0.015625)"/>
       </defs>
       <use xlink:href="#DejaVuSans-31"/>
       <use xlink:href="#DejaVuSans-30" transform="translate(63.623047 0)"/>
       <use xlink:href="#DejaVuSans-30" transform="translate(127.246094 0)"/>
       <use xlink:href="#DejaVuSans-30" transform="translate(190.869141 0)"/>
      </g>
     </g>
    </g>
    <g id="xtick_3">
     <g id="line2d_5">
      <path d="M 153.866534 386.44 
L 153.866534 7.2 
" clip-path="url(#pc51180bc81)" style="fill: none; stroke-dasharray: 2.96,1.28; stroke-dashoffset: 0; stroke: #b0b0b0; stroke-opacity: 0.6; stroke-width: 0.8"/>
     </g>
     <g id="line2d_6">
      <g>
       <use xlink:href="#m161dca8049" x="153.866534" y="386.44" style="stroke: #000000; stroke-width: 0.8"/>
      </g>
     </g>
     <g id="text_3">
      <!-- 2000 -->
      <g transform="translate(141.141534 401.038437) scale(0.1 -0.1)">
       <defs>
        <path id="DejaVuSans-32" d="M 1228 531 
L 3431 531 
L 3431 0 
L 469 0 
L 469 531 
Q 828 903 1448 1529 
Q 2069 2156 2228 2338 
Q 2531 2678 2651 2914 
Q 2772 3150 2772 3378 
Q 2772 3750 2511 3984 
Q 2250 4219 1831 4219 
Q 1534 4219 1204 4116 
Q 875 4013 500 3803 
L 500 4441 
Q 881 4594 1212 4672 
Q 1544 4750 1819 4750 
Q 2544 4750 2975 4387 
Q 3406 4025 3406 3419 
Q 3406 3131 3298 2873 
Q 3191 2616 2906 2266 
Q 2828 2175 2409 1742 
Q 1991 1309 1228 531 
z
" transform="scale(0.015625)"/>
       </defs>
       <use xlink:href="#DejaVuSans-32"/>
       <use xlink:href="#DejaVuSans-30" transform="translate(63.623047 0)"/>
       <use xlink:href="#DejaVuSans-30" transform="translate(127.246094 0)"/>
       <use xlink:href="#DejaVuSans-30" transform="translate(190.869141 0)"/>
      </g>
     </g>
    </g>
    <g id="xtick_4">
     <g id="line2d_7">
      <path d="M 198.40858 386.44 
L 198.40858 7.2 
" clip-path="url(#pc51180bc81)" style="fill: none; stroke-dasharray: 2.96,1.28; stroke-dashoffset: 0; stroke: #b0b0b0; stroke-opacity: 0.6; stroke-width: 0.8"/>
     </g>
     <g id="line2d_8">
      <g>
       <use xlink:href="#m161dca8049" x="198.40858" y="386.44" style="stroke: #000000; stroke-width: 0.8"/>
      </g>
     </g>
     <g id="text_4">
      <!-- 3000 -->
      <g transform="translate(185.68358 401.038437) scale(0.1 -0.1)">
       <defs>
        <path id="DejaVuSans-33" d="M 2597 2516 
Q 3050 2419 3304 2112 
Q 3559 1806 3559 1356 
Q 3559 666 3084 287 
Q 2609 -91 1734 -91 
Q 1441 -91 1130 -33 
Q 819 25 488 141 
L 488 750 
Q 750 597 1062 519 
Q 1375 441 1716 441 
Q 2309 441 2620 675 
Q 2931 909 2931 1356 
Q 2931 1769 2642 2001 
Q 2353 2234 1838 2234 
L 1294 2234 
L 1294 2753 
L 1863 2753 
Q 2328 2753 2575 2939 
Q 2822 3125 2822 3475 
Q 2822 3834 2567 4026 
Q 2313 4219 1838 4219 
Q 1578 4219 1281 4162 
Q 984 4106 628 3988 
L 628 4550 
Q 988 4650 1302 4700 
Q 1616 4750 1894 4750 
Q 2613 4750 3031 4423 
Q 3450 4097 3450 3541 
Q 3450 3153 3228 2886 
Q 3006 2619 2597 2516 
z
" transform="scale(0.015625)"/>
       </defs>
       <use xlink:href="#DejaVuSans-33"/>
       <use xlink:href="#DejaVuSans-30" transform="translate(63.623047 0)"/>
       <use xlink:href="#DejaVuSans-30" transform="translate(127.246094 0)"/>
       <use xlink:href="#DejaVuSans-30" transform="translate(190.869141 0)"/>
      </g>
     </g>
    </g>
    <g id="xtick_5">
     <g id="line2d_9">
      <path d="M 242.950625 386.44 
L 242.950625 7.2 
" clip-path="url(#pc51180bc81)" style="fill: none; stroke-dasharray: 2.96,1.28; stroke-dashoffset: 0; stroke: #b0b0b0; stroke-opacity: 0.6; stroke-width: 0.8"/>
     </g>
     <g id="line2d_10">
      <g>
       <use xlink:href="#m161dca8049" x="242.950625" y="386.44" style="stroke: #000000; stroke-width: 0.8"/>
      </g>
     </g>
     <g id="text_5">
      <!-- 4000 -->
      <g transform="translate(230.225625 401.038437) scale(0.1 -0.1)">
       <defs>
        <path id="DejaVuSans-34" d="M 2419 4116 
L 825 1625 
L 2419 1625 
L 2419 4116 
z
M 2253 4666 
L 3047 4666 
L 3047 1625 
L 3713 1625 
L 3713 1100 
L 3047 1100 
L 3047 0 
L 2419 0 
L 2419 1100 
L 313 1100 
L 313 1709 
L 2253 4666 
z
" transform="scale(0.015625)"/>
       </defs>
       <use xlink:href="#DejaVuSans-34"/>
       <use xlink:href="#DejaVuSans-30" transform="translate(63.623047 0)"/>
       <use xlink:href="#DejaVuSans-30" transform="translate(127.246094 0)"/>
       <use xlink:href="#DejaVuSans-30" transform="translate(190.869141 0)"/>
      </g>
     </g>
    </g>
    <g id="xtick_6">
     <g id="line2d_11">
      <path d="M 287.49267 386.44 
L 287.49267 7.2 
" clip-path="url(#pc51180bc81)" style="fill: none; stroke-dasharray: 2.96,1.28; stroke-dashoffset: 0; stroke: #b0b0b0; stroke-opacity: 0.6; stroke-width: 0.8"/>
     </g>
     <g id="line2d_12">
      <g>
       <use xlink:href="#m161dca8049" x="287.49267" y="386.44" style="stroke: #000000; stroke-width: 0.8"/>
      </g>
     </g>
     <g id="text_6">
      <!-- 5000 -->
      <g transform="translate(274.76767 401.038437) scale(0.1 -0.1)">
       <defs>
        <path id="DejaVuSans-35" d="M 691 4666 
L 3169 4666 
L 3169 4134 
L 1269 4134 
L 1269 2991 
Q 1406 3038 1543 3061 
Q 1681 3084 1819 3084 
Q 2600 3084 3056 2656 
Q 3513 2228 3513 1497 
Q 3513 744 3044 326 
Q 2575 -91 1722 -91 
Q 1428 -91 1123 -41 
Q 819 9 494 109 
L 494 744 
Q 775 591 1075 516 
Q 1375 441 1709 441 
Q 2250 441 2565 725 
Q 2881 1009 2881 1497 
Q 2881 1984 2565 2268 
Q 2250 2553 1709 2553 
Q 1456 2553 1204 2497 
Q 953 2441 691 2322 
L 691 4666 
z
" transform="scale(0.015625)"/>
       </defs>
       <use xlink:href="#DejaVuSans-35"/>
       <use xlink:href="#DejaVuSans-30" transform="translate(63.623047 0)"/>
       <use xlink:href="#DejaVuSans-30" transform="translate(127.246094 0)"/>
       <use xlink:href="#DejaVuSans-30" transform="translate(190.869141 0)"/>
      </g>
     </g>
    </g>
    <g id="xtick_7">
     <g id="line2d_13">
      <path d="M 332.034716 386.44 
L 332.034716 7.2 
" clip-path="url(#pc51180bc81)" style="fill: none; stroke-dasharray: 2.96,1.28; stroke-dashoffset: 0; stroke: #b0b0b0; stroke-opacity: 0.6; stroke-width: 0.8"/>
     </g>
     <g id="line2d_14">
      <g>
       <use xlink:href="#m161dca8049" x="332.034716" y="386.44" style="stroke: #000000; stroke-width: 0.8"/>
      </g>
     </g>
     <g id="text_7">
      <!-- 6000 -->
      <g transform="translate(319.309716 401.038437) scale(0.1 -0.1)">
       <defs>
        <path id="DejaVuSans-36" d="M 2113 2584 
Q 1688 2584 1439 2293 
Q 1191 2003 1191 1497 
Q 1191 994 1439 701 
Q 1688 409 2113 409 
Q 2538 409 2786 701 
Q 3034 994 3034 1497 
Q 3034 2003 2786 2293 
Q 2538 2584 2113 2584 
z
M 3366 4563 
L 3366 3988 
Q 3128 4100 2886 4159 
Q 2644 4219 2406 4219 
Q 1781 4219 1451 3797 
Q 1122 3375 1075 2522 
Q 1259 2794 1537 2939 
Q 1816 3084 2150 3084 
Q 2853 3084 3261 2657 
Q 3669 2231 3669 1497 
Q 3669 778 3244 343 
Q 2819 -91 2113 -91 
Q 1303 -91 875 529 
Q 447 1150 447 2328 
Q 447 3434 972 4092 
Q 1497 4750 2381 4750 
Q 2619 4750 2861 4703 
Q 3103 4656 3366 4563 
z
" transform="scale(0.015625)"/>
       </defs>
       <use xlink:href="#DejaVuSans-36"/>
       <use xlink:href="#DejaVuSans-30" transform="translate(63.623047 0)"/>
       <use xlink:href="#DejaVuSans-30" transform="translate(127.246094 0)"/>
       <use xlink:href="#DejaVuSans-30" transform="translate(190.869141 0)"/>
      </g>
     </g>
    </g>
    <g id="xtick_8">
     <g id="line2d_15">
      <path d="M 376.576761 386.44 
L 376.576761 7.2 
" clip-path="url(#pc51180bc81)" style="fill: none; stroke-dasharray: 2.96,1.28; stroke-dashoffset: 0; stroke: #b0b0b0; stroke-opacity: 0.6; stroke-width: 0.8"/>
     </g>
     <g id="line2d_16">
      <g>
       <use xlink:href="#m161dca8049" x="376.576761" y="386.44" style="stroke: #000000; stroke-width: 0.8"/>
      </g>
     </g>
     <g id="text_8">
      <!-- 7000 -->
      <g transform="translate(363.851761 401.038437) scale(0.1 -0.1)">
       <defs>
        <path id="DejaVuSans-37" d="M 525 4666 
L 3525 4666 
L 3525 4397 
L 1831 0 
L 1172 0 
L 2766 4134 
L 525 4134 
L 525 4666 
z
" transform="scale(0.015625)"/>
       </defs>
       <use xlink:href="#DejaVuSans-37"/>
       <use xlink:href="#DejaVuSans-30" transform="translate(63.623047 0)"/>
       <use xlink:href="#DejaVuSans-30" transform="translate(127.246094 0)"/>
       <use xlink:href="#DejaVuSans-30" transform="translate(190.869141 0)"/>
      </g>
     </g>
    </g>
    <g id="xtick_9">
     <g id="line2d_17">
      <path d="M 421.118807 386.44 
L 421.118807 7.2 
" clip-path="url(#pc51180bc81)" style="fill: none; stroke-dasharray: 2.96,1.28; stroke-dashoffset: 0; stroke: #b0b0b0; stroke-opacity: 0.6; stroke-width: 0.8"/>
     </g>
     <g id="line2d_18">
      <g>
       <use xlink:href="#m161dca8049" x="421.118807" y="386.44" style="stroke: #000000; stroke-width: 0.8"/>
      </g>
     </g>
     <g id="text_9">
      <!-- 8000 -->
      <g transform="translate(408.393807 401.038437) scale(0.1 -0.1)">
       <defs>
        <path id="DejaVuSans-38" d="M 2034 2216 
Q 1584 2216 1326 1975 
Q 1069 1734 1069 1313 
Q 1069 891 1326 650 
Q 1584 409 2034 409 
Q 2484 409 2743 651 
Q 3003 894 3003 1313 
Q 3003 1734 2745 1975 
Q 2488 2216 2034 2216 
z
M 1403 2484 
Q 997 2584 770 2862 
Q 544 3141 544 3541 
Q 544 4100 942 4425 
Q 1341 4750 2034 4750 
Q 2731 4750 3128 4425 
Q 3525 4100 3525 3541 
Q 3525 3141 3298 2862 
Q 3072 2584 2669 2484 
Q 3125 2378 3379 2068 
Q 3634 1759 3634 1313 
Q 3634 634 3220 271 
Q 2806 -91 2034 -91 
Q 1263 -91 848 271 
Q 434 634 434 1313 
Q 434 1759 690 2068 
Q 947 2378 1403 2484 
z
M 1172 3481 
Q 1172 3119 1398 2916 
Q 1625 2713 2034 2713 
Q 2441 2713 2670 2916 
Q 2900 3119 2900 3481 
Q 2900 3844 2670 4047 
Q 2441 4250 2034 4250 
Q 1625 4250 1398 4047 
Q 1172 3844 1172 3481 
z
" transform="scale(0.015625)"/>
       </defs>
       <use xlink:href="#DejaVuSans-38"/>
       <use xlink:href="#DejaVuSans-30" transform="translate(63.623047 0)"/>
       <use xlink:href="#DejaVuSans-30" transform="translate(127.246094 0)"/>
       <use xlink:href="#DejaVuSans-30" transform="translate(190.869141 0)"/>
      </g>
     </g>
    </g>
    <g id="text_10">
     <!-- Distance from terminus [nt] -->
     <g transform="translate(173.451406 414.716562) scale(0.1 -0.1)">
      <defs>
       <path id="DejaVuSans-44" d="M 1259 4147 
L 1259 519 
L 2022 519 
Q 2988 519 3436 956 
Q 3884 1394 3884 2338 
Q 3884 3275 3436 3711 
Q 2988 4147 2022 4147 
L 1259 4147 
z
M 628 4666 
L 1925 4666 
Q 3281 4666 3915 4102 
Q 4550 3538 4550 2338 
Q 4550 1131 3912 565 
Q 3275 0 1925 0 
L 628 0 
L 628 4666 
z
" transform="scale(0.015625)"/>
       <path id="DejaVuSans-69" d="M 603 3500 
L 1178 3500 
L 1178 0 
L 603 0 
L 603 3500 
z
M 603 4863 
L 1178 4863 
L 1178 4134 
L 603 4134 
L 603 4863 
z
" transform="scale(0.015625)"/>
       <path id="DejaVuSans-73" d="M 2834 3397 
L 2834 2853 
Q 2591 2978 2328 3040 
Q 2066 3103 1784 3103 
Q 1356 3103 1142 2972 
Q 928 2841 928 2578 
Q 928 2378 1081 2264 
Q 1234 2150 1697 2047 
L 1894 2003 
Q 2506 1872 2764 1633 
Q 3022 1394 3022 966 
Q 3022 478 2636 193 
Q 2250 -91 1575 -91 
Q 1294 -91 989 -36 
Q 684 19 347 128 
L 347 722 
Q 666 556 975 473 
Q 1284 391 1588 391 
Q 1994 391 2212 530 
Q 2431 669 2431 922 
Q 2431 1156 2273 1281 
Q 2116 1406 1581 1522 
L 1381 1569 
Q 847 1681 609 1914 
Q 372 2147 372 2553 
Q 372 3047 722 3315 
Q 1072 3584 1716 3584 
Q 2034 3584 2315 3537 
Q 2597 3491 2834 3397 
z
" transform="scale(0.015625)"/>
       <path id="DejaVuSans-74" d="M 1172 4494 
L 1172 3500 
L 2356 3500 
L 2356 3053 
L 1172 3053 
L 1172 1153 
Q 1172 725 1289 603 
Q 1406 481 1766 481 
L 2356 481 
L 2356 0 
L 1766 0 
Q 1100 0 847 248 
Q 594 497 594 1153 
L 594 3053 
L 172 3053 
L 172 3500 
L 594 3500 
L 594 4494 
L 1172 4494 
z
" transform="scale(0.015625)"/>
       <path id="DejaVuSans-61" d="M 2194 1759 
Q 1497 1759 1228 1600 
Q 959 1441 959 1056 
Q 959 750 1161 570 
Q 1363 391 1709 391 
Q 2188 391 2477 730 
Q 2766 1069 2766 1631 
L 2766 1759 
L 2194 1759 
z
M 3341 1997 
L 3341 0 
L 2766 0 
L 2766 531 
Q 2569 213 2275 61 
Q 1981 -91 1556 -91 
Q 1019 -91 701 211 
Q 384 513 384 1019 
Q 384 1609 779 1909 
Q 1175 2209 1959 2209 
L 2766 2209 
L 2766 2266 
Q 2766 2663 2505 2880 
Q 2244 3097 1772 3097 
Q 1472 3097 1187 3025 
Q 903 2953 641 2809 
L 641 3341 
Q 956 3463 1253 3523 
Q 1550 3584 1831 3584 
Q 2591 3584 2966 3190 
Q 3341 2797 3341 1997 
z
" transform="scale(0.015625)"/>
       <path id="DejaVuSans-6e" d="M 3513 2113 
L 3513 0 
L 2938 0 
L 2938 2094 
Q 2938 2591 2744 2837 
Q 2550 3084 2163 3084 
Q 1697 3084 1428 2787 
Q 1159 2491 1159 1978 
L 1159 0 
L 581 0 
L 581 3500 
L 1159 3500 
L 1159 2956 
Q 1366 3272 1645 3428 
Q 1925 3584 2291 3584 
Q 2894 3584 3203 3211 
Q 3513 2838 3513 2113 
z
" transform="scale(0.015625)"/>
       <path id="DejaVuSans-63" d="M 3122 3366 
L 3122 2828 
Q 2878 2963 2633 3030 
Q 2388 3097 2138 3097 
Q 1578 3097 1268 2742 
Q 959 2388 959 1747 
Q 959 1106 1268 751 
Q 1578 397 2138 397 
Q 2388 397 2633 464 
Q 2878 531 3122 666 
L 3122 134 
Q 2881 22 2623 -34 
Q 2366 -91 2075 -91 
Q 1284 -91 818 406 
Q 353 903 353 1747 
Q 353 2603 823 3093 
Q 1294 3584 2113 3584 
Q 2378 3584 2631 3529 
Q 2884 3475 3122 3366 
z
" transform="scale(0.015625)"/>
       <path id="DejaVuSans-65" d="M 3597 1894 
L 3597 1613 
L 953 1613 
Q 991 1019 1311 708 
Q 1631 397 2203 397 
Q 2534 397 2845 478 
Q 3156 559 3463 722 
L 3463 178 
Q 3153 47 2828 -22 
Q 2503 -91 2169 -91 
Q 1331 -91 842 396 
Q 353 884 353 1716 
Q 353 2575 817 3079 
Q 1281 3584 2069 3584 
Q 2775 3584 3186 3129 
Q 3597 2675 3597 1894 
z
M 3022 2063 
Q 3016 2534 2758 2815 
Q 2500 3097 2075 3097 
Q 1594 3097 1305 2825 
Q 1016 2553 972 2059 
L 3022 2063 
z
" transform="scale(0.015625)"/>
       <path id="DejaVuSans-20" transform="scale(0.015625)"/>
       <path id="DejaVuSans-66" d="M 2375 4863 
L 2375 4384 
L 1825 4384 
Q 1516 4384 1395 4259 
Q 1275 4134 1275 3809 
L 1275 3500 
L 2222 3500 
L 2222 3053 
L 1275 3053 
L 1275 0 
L 697 0 
L 697 3053 
L 147 3053 
L 147 3500 
L 697 3500 
L 697 3744 
Q 697 4328 969 4595 
Q 1241 4863 1831 4863 
L 2375 4863 
z
" transform="scale(0.015625)"/>
       <path id="DejaVuSans-72" d="M 2631 2963 
Q 2534 3019 2420 3045 
Q 2306 3072 2169 3072 
Q 1681 3072 1420 2755 
Q 1159 2438 1159 1844 
L 1159 0 
L 581 0 
L 581 3500 
L 1159 3500 
L 1159 2956 
Q 1341 3275 1631 3429 
Q 1922 3584 2338 3584 
Q 2397 3584 2469 3576 
Q 2541 3569 2628 3553 
L 2631 2963 
z
" transform="scale(0.015625)"/>
       <path id="DejaVuSans-6f" d="M 1959 3097 
Q 1497 3097 1228 2736 
Q 959 2375 959 1747 
Q 959 1119 1226 758 
Q 1494 397 1959 397 
Q 2419 397 2687 759 
Q 2956 1122 2956 1747 
Q 2956 2369 2687 2733 
Q 2419 3097 1959 3097 
z
M 1959 3584 
Q 2709 3584 3137 3096 
Q 3566 2609 3566 1747 
Q 3566 888 3137 398 
Q 2709 -91 1959 -91 
Q 1206 -91 779 398 
Q 353 888 353 1747 
Q 353 2609 779 3096 
Q 1206 3584 1959 3584 
z
" transform="scale(0.015625)"/>
       <path id="DejaVuSans-6d" d="M 3328 2828 
Q 3544 3216 3844 3400 
Q 4144 3584 4550 3584 
Q 5097 3584 5394 3201 
Q 5691 2819 5691 2113 
L 5691 0 
L 5113 0 
L 5113 2094 
Q 5113 2597 4934 2840 
Q 4756 3084 4391 3084 
Q 3944 3084 3684 2787 
Q 3425 2491 3425 1978 
L 3425 0 
L 2847 0 
L 2847 2094 
Q 2847 2600 2669 2842 
Q 2491 3084 2119 3084 
Q 1678 3084 1418 2786 
Q 1159 2488 1159 1978 
L 1159 0 
L 581 0 
L 581 3500 
L 1159 3500 
L 1159 2956 
Q 1356 3278 1631 3431 
Q 1906 3584 2284 3584 
Q 2666 3584 2933 3390 
Q 3200 3197 3328 2828 
z
" transform="scale(0.015625)"/>
       <path id="DejaVuSans-75" d="M 544 1381 
L 544 3500 
L 1119 3500 
L 1119 1403 
Q 1119 906 1312 657 
Q 1506 409 1894 409 
Q 2359 409 2629 706 
Q 2900 1003 2900 1516 
L 2900 3500 
L 3475 3500 
L 3475 0 
L 2900 0 
L 2900 538 
Q 2691 219 2414 64 
Q 2138 -91 1772 -91 
Q 1169 -91 856 284 
Q 544 659 544 1381 
z
M 1991 3584 
L 1991 3584 
z
" transform="scale(0.015625)"/>
       <path id="DejaVuSans-5b" d="M 550 4863 
L 1875 4863 
L 1875 4416 
L 1125 4416 
L 1125 -397 
L 1875 -397 
L 1875 -844 
L 550 -844 
L 550 4863 
z
" transform="scale(0.015625)"/>
       <path id="DejaVuSans-5d" d="M 1947 4863 
L 1947 -844 
L 622 -844 
L 622 -397 
L 1369 -397 
L 1369 4416 
L 622 4416 
L 622 4863 
L 1947 4863 
z
" transform="scale(0.015625)"/>
      </defs>
      <use xlink:href="#DejaVuSans-44"/>
      <use xlink:href="#DejaVuSans-69" transform="translate(77.001953 0)"/>
      <use xlink:href="#DejaVuSans-73" transform="translate(104.785156 0)"/>
      <use xlink:href="#DejaVuSans-74" transform="translate(156.884766 0)"/>
      <use xlink:href="#DejaVuSans-61" transform="translate(196.09375 0)"/>
      <use xlink:href="#DejaVuSans-6e" transform="translate(257.373047 0)"/>
      <use xlink:href="#DejaVuSans-63" transform="translate(320.751953 0)"/>
      <use xlink:href="#DejaVuSans-65" transform="translate(375.732422 0)"/>
      <use xlink:href="#DejaVuSans-20" transform="translate(437.255859 0)"/>
      <use xlink:href="#DejaVuSans-66" transform="translate(469.042969 0)"/>
      <use xlink:href="#DejaVuSans-72" transform="translate(504.248047 0)"/>
      <use xlink:href="#DejaVuSans-6f" transform="translate(543.111328 0)"/>
      <use xlink:href="#DejaVuSans-6d" transform="translate(604.292969 0)"/>
      <use xlink:href="#DejaVuSans-20" transform="translate(701.705078 0)"/>
      <use xlink:href="#DejaVuSans-74" transform="translate(733.492188 0)"/>
      <use xlink:href="#DejaVuSans-65" transform="translate(772.701172 0)"/>
      <use xlink:href="#DejaVuSans-72" transform="translate(834.224609 0)"/>
      <use xlink:href="#DejaVuSans-6d" transform="translate(873.587891 0)"/>
      <use xlink:href="#DejaVuSans-69" transform="translate(971 0)"/>
      <use xlink:href="#DejaVuSans-6e" transform="translate(998.783203 0)"/>
      <use xlink:href="#DejaVuSans-75" transform="translate(1062.162109 0)"/>
      <use xlink:href="#DejaVuSans-73" transform="translate(1125.541016 0)"/>
      <use xlink:href="#DejaVuSans-20" transform="translate(1177.640625 0)"/>
      <use xlink:href="#DejaVuSans-5b" transform="translate(1209.427734 0)"/>
      <use xlink:href="#DejaVuSans-6e" transform="translate(1248.441406 0)"/>
      <use xlink:href="#DejaVuSans-74" transform="translate(1311.820312 0)"/>
      <use xlink:href="#DejaVuSans-5d" transform="translate(1351.029297 0)"/>
     </g>
    </g>
   </g>
   <g id="matplotlib.axis_2">
    <g id="ytick_1">
     <g id="line2d_19">
      <path d="M 46.965625 369.201818 
L 438.935625 369.201818 
" clip-path="url(#pc51180bc81)" style="fill: none; stroke-dasharray: 2.96,1.28; stroke-dashoffset: 0; stroke: #b0b0b0; stroke-opacity: 0.6; stroke-width: 0.8"/>
     </g>
     <g id="line2d_20">
      <defs>
       <path id="mf6787e6dc0" d="M 0 0 
L -3.5 0 
" style="stroke: #000000; stroke-width: 0.8"/>
      </defs>
      <g>
       <use xlink:href="#mf6787e6dc0" x="46.965625" y="369.201818" style="stroke: #000000; stroke-width: 0.8"/>
      </g>
     </g>
     <g id="text_11">
      <!-- 0 -->
      <g transform="translate(33.603125 373.001037) scale(0.1 -0.1)">
       <use xlink:href="#DejaVuSans-30"/>
      </g>
     </g>
    </g>
    <g id="ytick_2">
     <g id="line2d_21">
      <path d="M 46.965625 301.187686 
L 438.935625 301.187686 
" clip-path="url(#pc51180bc81)" style="fill: none; stroke-dasharray: 2.96,1.28; stroke-dashoffset: 0; stroke: #b0b0b0; stroke-opacity: 0.6; stroke-width: 0.8"/>
     </g>
     <g id="line2d_22">
      <g>
       <use xlink:href="#mf6787e6dc0" x="46.965625" y="301.187686" style="stroke: #000000; stroke-width: 0.8"/>
      </g>
     </g>
     <g id="text_12">
      <!-- 100 -->
      <g transform="translate(20.878125 304.986905) scale(0.1 -0.1)">
       <use xlink:href="#DejaVuSans-31"/>
       <use xlink:href="#DejaVuSans-30" transform="translate(63.623047 0)"/>
       <use xlink:href="#DejaVuSans-30" transform="translate(127.246094 0)"/>
      </g>
     </g>
    </g>
    <g id="ytick_3">
     <g id="line2d_23">
      <path d="M 46.965625 233.173554 
L 438.935625 233.173554 
" clip-path="url(#pc51180bc81)" style="fill: none; stroke-dasharray: 2.96,1.28; stroke-dashoffset: 0; stroke: #b0b0b0; stroke-opacity: 0.6; stroke-width: 0.8"/>
     </g>
     <g id="line2d_24">
      <g>
       <use xlink:href="#mf6787e6dc0" x="46.965625" y="233.173554" style="stroke: #000000; stroke-width: 0.8"/>
      </g>
     </g>
     <g id="text_13">
      <!-- 200 -->
      <g transform="translate(20.878125 236.972772) scale(0.1 -0.1)">
       <use xlink:href="#DejaVuSans-32"/>
       <use xlink:href="#DejaVuSans-30" transform="translate(63.623047 0)"/>
       <use xlink:href="#DejaVuSans-30" transform="translate(127.246094 0)"/>
      </g>
     </g>
    </g>
    <g id="ytick_4">
     <g id="line2d_25">
      <path d="M 46.965625 165.159421 
L 438.935625 165.159421 
" clip-path="url(#pc51180bc81)" style="fill: none; stroke-dasharray: 2.96,1.28; stroke-dashoffset: 0; stroke: #b0b0b0; stroke-opacity: 0.6; stroke-width: 0.8"/>
     </g>
     <g id="line2d_26">
      <g>
       <use xlink:href="#mf6787e6dc0" x="46.965625" y="165.159421" style="stroke: #000000; stroke-width: 0.8"/>
      </g>
     </g>
     <g id="text_14">
      <!-- 300 -->
      <g transform="translate(20.878125 168.95864) scale(0.1 -0.1)">
       <use xlink:href="#DejaVuSans-33"/>
       <use xlink:href="#DejaVuSans-30" transform="translate(63.623047 0)"/>
       <use xlink:href="#DejaVuSans-30" transform="translate(127.246094 0)"/>
      </g>
     </g>
    </g>
    <g id="ytick_5">
     <g id="line2d_27">
      <path d="M 46.965625 97.145289 
L 438.935625 97.145289 
" clip-path="url(#pc51180bc81)" style="fill: none; stroke-dasharray: 2.96,1.28; stroke-dashoffset: 0; stroke: #b0b0b0; stroke-opacity: 0.6; stroke-width: 0.8"/>
     </g>
     <g id="line2d_28">
      <g>
       <use xlink:href="#mf6787e6dc0" x="46.965625" y="97.145289" style="stroke: #000000; stroke-width: 0.8"/>
      </g>
     </g>
     <g id="text_15">
      <!-- 400 -->
      <g transform="translate(20.878125 100.944508) scale(0.1 -0.1)">
       <use xlink:href="#DejaVuSans-34"/>
       <use xlink:href="#DejaVuSans-30" transform="translate(63.623047 0)"/>
       <use xlink:href="#DejaVuSans-30" transform="translate(127.246094 0)"/>
      </g>
     </g>
    </g>
    <g id="ytick_6">
     <g id="line2d_29">
      <path d="M 46.965625 29.131157 
L 438.935625 29.131157 
" clip-path="url(#pc51180bc81)" style="fill: none; stroke-dasharray: 2.96,1.28; stroke-dashoffset: 0; stroke: #b0b0b0; stroke-opacity: 0.6; stroke-width: 0.8"/>
     </g>
     <g id="line2d_30">
      <g>
       <use xlink:href="#mf6787e6dc0" x="46.965625" y="29.131157" style="stroke: #000000; stroke-width: 0.8"/>
      </g>
     </g>
     <g id="text_16">
      <!-- 500 -->
      <g transform="translate(20.878125 32.930376) scale(0.1 -0.1)">
       <use xlink:href="#DejaVuSans-35"/>
       <use xlink:href="#DejaVuSans-30" transform="translate(63.623047 0)"/>
       <use xlink:href="#DejaVuSans-30" transform="translate(127.246094 0)"/>
      </g>
     </g>
    </g>
    <g id="text_17">
     <!-- Average cumulative count -->
     <g transform="translate(14.798438 262.4325) rotate(-90) scale(0.1 -0.1)">
      <defs>
       <path id="DejaVuSans-41" d="M 2188 4044 
L 1331 1722 
L 3047 1722 
L 2188 4044 
z
M 1831 4666 
L 2547 4666 
L 4325 0 
L 3669 0 
L 3244 1197 
L 1141 1197 
L 716 0 
L 50 0 
L 1831 4666 
z
" transform="scale(0.015625)"/>
       <path id="DejaVuSans-76" d="M 191 3500 
L 800 3500 
L 1894 563 
L 2988 3500 
L 3597 3500 
L 2284 0 
L 1503 0 
L 191 3500 
z
" transform="scale(0.015625)"/>
       <path id="DejaVuSans-67" d="M 2906 1791 
Q 2906 2416 2648 2759 
Q 2391 3103 1925 3103 
Q 1463 3103 1205 2759 
Q 947 2416 947 1791 
Q 947 1169 1205 825 
Q 1463 481 1925 481 
Q 2391 481 2648 825 
Q 2906 1169 2906 1791 
z
M 3481 434 
Q 3481 -459 3084 -895 
Q 2688 -1331 1869 -1331 
Q 1566 -1331 1297 -1286 
Q 1028 -1241 775 -1147 
L 775 -588 
Q 1028 -725 1275 -790 
Q 1522 -856 1778 -856 
Q 2344 -856 2625 -561 
Q 2906 -266 2906 331 
L 2906 616 
Q 2728 306 2450 153 
Q 2172 0 1784 0 
Q 1141 0 747 490 
Q 353 981 353 1791 
Q 353 2603 747 3093 
Q 1141 3584 1784 3584 
Q 2172 3584 2450 3431 
Q 2728 3278 2906 2969 
L 2906 3500 
L 3481 3500 
L 3481 434 
z
" transform="scale(0.015625)"/>
       <path id="DejaVuSans-6c" d="M 603 4863 
L 1178 4863 
L 1178 0 
L 603 0 
L 603 4863 
z
" transform="scale(0.015625)"/>
      </defs>
      <use xlink:href="#DejaVuSans-41"/>
      <use xlink:href="#DejaVuSans-76" transform="translate(62.533203 0)"/>
      <use xlink:href="#DejaVuSans-65" transform="translate(121.712891 0)"/>
      <use xlink:href="#DejaVuSans-72" transform="translate(183.236328 0)"/>
      <use xlink:href="#DejaVuSans-61" transform="translate(224.349609 0)"/>
      <use xlink:href="#DejaVuSans-67" transform="translate(285.628906 0)"/>
      <use xlink:href="#DejaVuSans-65" transform="translate(349.105469 0)"/>
      <use xlink:href="#DejaVuSans-20" transform="translate(410.628906 0)"/>
      <use xlink:href="#DejaVuSans-63" transform="translate(442.416016 0)"/>
      <use xlink:href="#DejaVuSans-75" transform="translate(497.396484 0)"/>
      <use xlink:href="#DejaVuSans-6d" transform="translate(560.775391 0)"/>
      <use xlink:href="#DejaVuSans-75" transform="translate(658.1875 0)"/>
      <use xlink:href="#DejaVuSans-6c" transform="translate(721.566406 0)"/>
      <use xlink:href="#DejaVuSans-61" transform="translate(749.349609 0)"/>
      <use xlink:href="#DejaVuSans-74" transform="translate(810.628906 0)"/>
      <use xlink:href="#DejaVuSans-69" transform="translate(849.837891 0)"/>
      <use xlink:href="#DejaVuSans-76" transform="translate(877.621094 0)"/>
      <use xlink:href="#DejaVuSans-65" transform="translate(936.800781 0)"/>
      <use xlink:href="#DejaVuSans-20" transform="translate(998.324219 0)"/>
      <use xlink:href="#DejaVuSans-63" transform="translate(1030.111328 0)"/>
      <use xlink:href="#DejaVuSans-6f" transform="translate(1085.091797 0)"/>
      <use xlink:href="#DejaVuSans-75" transform="translate(1146.273438 0)"/>
      <use xlink:href="#DejaVuSans-6e" transform="translate(1209.652344 0)"/>
      <use xlink:href="#DejaVuSans-74" transform="translate(1273.03125 0)"/>
     </g>
    </g>
   </g>
   <g id="line2d_31">
    <path d="M 64.782443 369.201818 
L 64.916069 369.201818 
L 65.094238 368.521677 
L 65.13878 368.521677 
L 65.272406 368.181606 
L 65.36149 368.181606 
L 65.539658 367.501465 
L 65.5842 367.501465 
L 65.762368 366.821324 
L 65.80691 366.821324 
L 65.940536 366.481253 
L 66.02962 366.481253 
L 66.163247 366.141182 
L 66.252331 366.141182 
L 66.385957 365.801112 
L 66.475041 365.801112 
L 66.653209 365.12097 
L 66.697751 365.12097 
L 66.875919 364.440829 
L 66.920461 364.440829 
L 67.09863 363.760688 
L 67.143172 363.760688 
L 67.32134 363.080546 
L 67.365882 363.080546 
L 67.54405 362.400405 
L 67.588592 362.400405 
L 67.76676 361.720264 
L 67.811302 361.720264 
L 67.98947 361.040122 
L 68.034013 361.040122 
L 68.167639 360.700052 
L 68.256723 360.700052 
L 68.390349 360.01991 
L 68.479433 360.01991 
L 68.613059 359.339769 
L 68.702143 359.339769 
L 68.835769 358.659628 
L 68.924853 358.659628 
L 69.05848 357.979486 
L 69.147564 357.979486 
L 69.28119 357.299345 
L 69.370274 357.299345 
L 69.5039 356.619204 
L 69.592984 356.619204 
L 69.72661 356.279133 
L 69.815694 356.279133 
L 69.993863 355.598992 
L 70.038405 355.598992 
L 70.216573 354.91885 
L 70.305657 354.91885 
L 70.483825 354.238709 
L 70.528367 354.238709 
L 70.706535 353.558568 
L 70.751077 353.558568 
L 70.929245 352.878426 
L 70.973788 352.878426 
L 71.151956 352.198285 
L 71.196498 352.198285 
L 71.374666 351.518144 
L 71.419208 351.518144 
L 71.597376 350.838002 
L 71.641918 350.838002 
L 71.820086 350.157861 
L 71.864628 350.157861 
L 72.042797 349.47772 
L 72.087339 349.47772 
L 72.220965 349.137649 
L 72.310049 349.137649 
L 72.488217 348.457508 
L 72.532759 348.457508 
L 72.710927 347.777367 
L 72.755469 347.777367 
L 72.933638 347.097225 
L 73.067264 347.097225 
L 73.245432 346.417084 
L 73.289974 346.417084 
L 73.468142 345.736943 
L 73.601768 345.736943 
L 73.779936 345.056801 
L 73.824478 345.056801 
L 74.002647 344.37666 
L 74.047189 344.37666 
L 74.225357 343.696519 
L 74.269899 343.696519 
L 74.448067 343.016377 
L 74.492609 343.016377 
L 74.670777 342.336236 
L 74.715319 342.336236 
L 74.893488 341.656095 
L 74.93803 341.656095 
L 75.116198 340.975953 
L 75.16074 340.975953 
L 75.338908 340.295812 
L 75.38345 340.295812 
L 75.561618 339.615671 
L 75.60616 339.615671 
L 75.784328 338.935529 
L 75.82887 338.935529 
L 76.007039 338.255388 
L 76.051581 338.255388 
L 76.229749 337.575247 
L 76.274291 337.575247 
L 76.452459 336.895105 
L 76.497001 336.895105 
L 76.675169 336.214964 
L 76.719711 336.214964 
L 76.89788 335.534823 
L 76.942422 335.534823 
L 77.12059 334.854681 
L 77.165132 334.854681 
L 77.3433 334.17454 
L 77.387842 334.17454 
L 77.56601 333.494399 
L 77.610552 333.494399 
L 77.78872 332.814257 
L 77.833263 332.814257 
L 78.011431 332.134116 
L 78.055973 332.134116 
L 78.234141 331.453975 
L 78.278683 331.453975 
L 78.456851 330.773833 
L 78.501393 330.773833 
L 78.679561 330.093692 
L 78.724103 330.093692 
L 78.902272 329.413551 
L 78.946814 329.413551 
L 79.124982 328.733409 
L 79.169524 328.733409 
L 79.30315 328.393339 
L 79.392234 328.393339 
L 79.570402 327.713198 
L 79.614944 327.713198 
L 79.793113 327.033056 
L 79.837655 327.033056 
L 80.015823 326.352915 
L 80.060365 326.352915 
L 80.238533 325.672774 
L 80.283075 325.672774 
L 80.461243 324.992632 
L 80.505785 324.992632 
L 80.683953 324.312491 
L 80.728495 324.312491 
L 80.906664 323.63235 
L 80.951206 323.63235 
L 81.084832 323.292279 
L 81.129374 323.292279 
L 81.307542 322.612138 
L 81.352084 322.612138 
L 81.530252 321.931996 
L 81.574794 321.931996 
L 81.752963 321.251855 
L 81.797505 321.251855 
L 81.975673 320.571714 
L 82.020215 320.571714 
L 82.198383 319.891572 
L 82.242925 319.891572 
L 82.421093 319.211431 
L 82.465635 319.211431 
L 82.643803 318.53129 
L 82.688345 318.53129 
L 82.866514 317.851148 
L 82.911056 317.851148 
L 83.089224 317.171007 
L 83.133766 317.171007 
L 83.311934 316.490866 
L 83.356476 316.490866 
L 83.534644 315.810724 
L 83.623728 315.810724 
L 83.757355 315.130583 
L 83.846439 315.130583 
L 83.980065 314.450442 
L 84.069149 314.450442 
L 84.202775 313.7703 
L 84.291859 313.7703 
L 84.425485 313.090159 
L 84.514569 313.090159 
L 84.648195 312.410018 
L 84.73728 312.410018 
L 84.915448 311.729876 
L 84.95999 311.729876 
L 85.138158 311.049735 
L 85.1827 311.049735 
L 85.360868 310.369594 
L 85.40541 310.369594 
L 85.583578 309.689452 
L 85.62812 309.689452 
L 85.761747 309.349382 
L 85.939915 309.349382 
L 86.073541 309.009311 
L 86.162625 309.009311 
L 86.340793 308.32917 
L 86.385335 308.32917 
L 86.563503 307.649028 
L 86.652588 307.649028 
L 86.786214 307.308958 
L 86.875298 307.308958 
L 87.008924 306.628817 
L 87.098008 306.628817 
L 87.231634 305.948675 
L 87.320718 305.948675 
L 87.454344 305.268534 
L 87.543428 305.268534 
L 87.677055 304.588393 
L 87.766139 304.588393 
L 87.899765 304.248322 
L 87.988849 304.248322 
L 88.167017 303.568181 
L 88.211559 303.568181 
L 88.389727 302.888039 
L 88.434269 302.888039 
L 88.612438 302.207898 
L 88.65698 302.207898 
L 88.835148 301.527757 
L 88.87969 301.527757 
L 89.057858 300.847615 
L 89.1024 300.847615 
L 89.280568 300.167474 
L 89.32511 300.167474 
L 89.503278 299.487333 
L 89.54782 299.487333 
L 89.725989 298.807191 
L 89.859615 298.807191 
L 90.037783 298.12705 
L 90.171409 298.12705 
L 90.349577 297.446909 
L 90.394119 297.446909 
L 90.527745 297.106838 
L 90.61683 297.106838 
L 90.750456 296.766767 
L 90.83954 296.766767 
L 90.973166 296.426697 
L 91.06225 296.426697 
L 91.240418 295.746555 
L 91.329502 295.746555 
L 91.50767 295.066414 
L 91.552213 295.066414 
L 91.730381 294.386273 
L 91.774923 294.386273 
L 91.953091 293.706131 
L 91.997633 293.706131 
L 92.175801 293.02599 
L 92.220343 293.02599 
L 92.398511 292.345849 
L 92.443053 292.345849 
L 92.621222 291.665707 
L 92.665764 291.665707 
L 92.843932 290.985566 
L 92.888474 290.985566 
L 93.066642 290.305425 
L 93.24481 290.305425 
L 93.378436 289.625283 
L 93.46752 289.625283 
L 93.601147 288.945142 
L 93.690231 288.945142 
L 93.823857 288.265001 
L 93.912941 288.265001 
L 94.046567 287.584859 
L 94.135651 287.584859 
L 94.269277 286.904718 
L 94.358361 286.904718 
L 94.491988 286.224577 
L 94.581072 286.224577 
L 94.714698 285.544436 
L 94.803782 285.544436 
L 94.937408 284.864294 
L 95.026492 284.864294 
L 95.160118 284.184153 
L 95.249202 284.184153 
L 95.382828 283.504012 
L 95.471913 283.504012 
L 95.605539 282.82387 
L 95.694623 282.82387 
L 95.872791 282.143729 
L 95.917333 282.143729 
L 96.095501 281.463588 
L 96.140043 281.463588 
L 96.318211 280.783446 
L 96.362753 280.783446 
L 96.540922 280.103305 
L 96.585464 280.103305 
L 96.763632 279.423164 
L 96.808174 279.423164 
L 96.986342 278.743022 
L 97.030884 278.743022 
L 97.209052 278.062881 
L 97.253594 278.062881 
L 97.431763 277.38274 
L 97.476305 277.38274 
L 97.654473 276.702598 
L 97.699015 276.702598 
L 97.877183 276.022457 
L 97.921725 276.022457 
L 98.099893 275.342316 
L 98.144435 275.342316 
L 98.322603 274.662174 
L 98.367145 274.662174 
L 98.545314 273.982033 
L 98.589856 273.982033 
L 98.768024 273.301892 
L 98.812566 273.301892 
L 98.990734 272.62175 
L 99.035276 272.62175 
L 99.213444 271.941609 
L 99.257986 271.941609 
L 99.436155 271.261468 
L 99.480697 271.261468 
L 99.658865 270.581326 
L 99.703407 270.581326 
L 99.881575 269.901185 
L 99.926117 269.901185 
L 100.104285 269.221044 
L 100.148827 269.221044 
L 100.326995 268.540902 
L 100.371538 268.540902 
L 100.549706 267.860761 
L 100.594248 267.860761 
L 100.772416 267.18062 
L 100.816958 267.18062 
L 100.995126 266.500478 
L 101.039668 266.500478 
L 101.217836 265.820337 
L 101.262378 265.820337 
L 101.440547 265.140196 
L 101.574173 265.140196 
L 101.707799 264.800125 
L 101.796883 264.800125 
L 101.930509 264.119984 
L 102.019593 264.119984 
L 102.153219 263.439843 
L 102.242303 263.439843 
L 102.37593 262.759701 
L 102.465014 262.759701 
L 102.59864 262.07956 
L 102.687724 262.07956 
L 102.82135 261.399419 
L 102.910434 261.399419 
L 103.04406 260.719277 
L 103.133144 260.719277 
L 103.26677 260.039136 
L 103.355855 260.039136 
L 103.489481 259.699065 
L 103.534023 259.699065 
L 103.712191 259.018924 
L 103.756733 259.018924 
L 103.934901 258.338783 
L 103.979443 258.338783 
L 104.157611 257.658641 
L 104.202153 257.658641 
L 104.380322 256.9785 
L 104.424864 256.9785 
L 104.55849 256.638429 
L 104.647574 256.638429 
L 104.7812 255.958288 
L 104.870284 255.958288 
L 105.00391 255.278147 
L 105.092994 255.278147 
L 105.22662 254.598005 
L 105.315705 254.598005 
L 105.449331 253.917864 
L 105.538415 253.917864 
L 105.672041 253.577793 
L 105.716583 253.577793 
L 105.850209 253.237723 
L 105.939293 253.237723 
L 106.072919 252.557581 
L 106.162003 252.557581 
L 106.29563 251.87744 
L 106.384714 251.87744 
L 106.51834 251.197299 
L 106.607424 251.197299 
L 106.785592 250.517157 
L 106.830134 250.517157 
L 106.96376 250.177087 
L 107.052844 250.177087 
L 107.231013 249.496945 
L 107.275555 249.496945 
L 107.409181 249.156875 
L 107.498265 249.156875 
L 107.631891 248.476733 
L 107.720975 248.476733 
L 107.854601 247.796592 
L 107.943685 247.796592 
L 108.077311 247.116451 
L 108.166395 247.116451 
L 108.300022 246.436309 
L 108.389106 246.436309 
L 108.522732 246.096239 
L 108.567274 246.096239 
L 108.745442 245.416097 
L 108.789984 245.416097 
L 108.92361 245.076027 
L 109.012694 245.076027 
L 109.14632 244.395886 
L 109.235405 244.395886 
L 109.369031 243.715744 
L 109.458115 243.715744 
L 109.591741 243.375674 
L 109.636283 243.375674 
L 109.814451 242.695532 
L 109.858993 242.695532 
L 109.992619 242.355462 
L 110.081703 242.355462 
L 110.21533 241.67532 
L 110.304414 241.67532 
L 110.43804 240.995179 
L 110.527124 240.995179 
L 110.66075 240.655108 
L 110.749834 240.655108 
L 110.88346 240.315038 
L 110.972544 240.315038 
L 111.10617 239.974967 
L 111.195255 239.974967 
L 111.328881 239.634896 
L 111.417965 239.634896 
L 111.551591 239.294826 
L 111.640675 239.294826 
L 111.774301 238.954755 
L 111.863385 238.954755 
L 111.997011 238.614684 
L 112.086095 238.614684 
L 112.219722 238.274614 
L 112.308806 238.274614 
L 112.442432 237.934543 
L 112.531516 237.934543 
L 112.665142 237.594472 
L 112.754226 237.594472 
L 112.887852 237.254402 
L 113.155105 237.254402 
L 113.288731 236.914331 
L 113.377815 236.914331 
L 113.511441 236.57426 
L 113.600525 236.57426 
L 113.734151 236.23419 
L 113.823235 236.23419 
L 114.001403 235.554048 
L 114.045945 235.554048 
L 114.179572 235.213978 
L 114.268656 235.213978 
L 114.402282 234.873907 
L 114.491366 234.873907 
L 114.624992 234.533836 
L 114.714076 234.533836 
L 114.847702 234.193766 
L 114.936786 234.193766 
L 115.070413 233.853695 
L 115.159497 233.853695 
L 115.293123 233.513624 
L 115.382207 233.513624 
L 115.515833 233.173554 
L 115.604917 233.173554 
L 115.738543 232.833483 
L 115.827627 232.833483 
L 115.961253 232.493412 
L 116.050338 232.493412 
L 116.183964 232.153342 
L 116.273048 232.153342 
L 116.406674 231.813271 
L 116.673926 231.813271 
L 116.807552 231.4732 
L 116.896636 231.4732 
L 117.030263 231.13313 
L 117.119347 231.13313 
L 117.252973 230.793059 
L 117.342057 230.793059 
L 117.475683 230.452988 
L 117.564767 230.452988 
L 117.698393 230.112918 
L 117.787477 230.112918 
L 117.921103 229.772847 
L 118.188356 229.772847 
L 118.321982 229.432776 
L 118.411066 229.432776 
L 118.544692 229.092706 
L 118.633776 229.092706 
L 118.767402 228.752635 
L 118.856486 228.752635 
L 118.990113 228.412564 
L 119.079197 228.412564 
L 119.212823 228.072494 
L 119.301907 228.072494 
L 119.435533 227.732423 
L 119.524617 227.732423 
L 119.658243 227.392352 
L 119.747327 227.392352 
L 119.880953 227.052282 
L 119.970038 227.052282 
L 120.103664 226.712211 
L 120.192748 226.712211 
L 120.326374 226.37214 
L 120.415458 226.37214 
L 120.549084 225.691999 
L 120.638168 225.691999 
L 120.771794 225.351928 
L 120.860878 225.351928 
L 120.994505 225.011858 
L 121.083589 225.011858 
L 121.217215 224.671787 
L 121.306299 224.671787 
L 121.439925 224.331716 
L 121.529009 224.331716 
L 121.662635 223.991646 
L 121.751719 223.991646 
L 121.885345 223.651575 
L 121.97443 223.651575 
L 122.108056 223.311505 
L 122.19714 223.311505 
L 122.330766 222.971434 
L 122.41985 222.971434 
L 122.553476 222.631363 
L 122.64256 222.631363 
L 122.776186 222.291293 
L 122.86527 222.291293 
L 122.998897 221.951222 
L 123.087981 221.951222 
L 123.221607 221.611151 
L 123.310691 221.611151 
L 123.444317 221.271081 
L 123.533401 221.271081 
L 123.667027 220.93101 
L 123.756111 220.93101 
L 123.889738 220.590939 
L 123.978822 220.590939 
L 124.15699 219.910798 
L 124.201532 219.910798 
L 124.335158 219.570727 
L 124.424242 219.570727 
L 124.557868 219.230657 
L 124.646952 219.230657 
L 124.780578 218.890586 
L 124.869663 218.890586 
L 125.003289 218.550515 
L 125.092373 218.550515 
L 125.225999 218.210445 
L 125.315083 218.210445 
L 125.448709 217.870374 
L 125.537793 217.870374 
L 125.715961 217.190233 
L 125.760503 217.190233 
L 125.89413 216.850162 
L 125.983214 216.850162 
L 126.11684 216.510091 
L 126.205924 216.510091 
L 126.33955 216.170021 
L 126.428634 216.170021 
L 126.56226 215.82995 
L 126.651344 215.82995 
L 126.78497 215.489879 
L 127.007681 215.489879 
L 127.141307 215.149809 
L 127.230391 215.149809 
L 127.364017 214.809738 
L 127.453101 214.809738 
L 127.586727 214.469667 
L 127.675811 214.469667 
L 127.809438 214.129597 
L 127.898522 214.129597 
L 128.032148 213.789526 
L 128.121232 213.789526 
L 128.254858 213.449455 
L 128.343942 213.449455 
L 128.477568 213.109385 
L 128.566652 213.109385 
L 128.700278 212.769314 
L 128.967531 212.769314 
L 129.101157 212.429243 
L 129.190241 212.429243 
L 129.323867 212.089173 
L 129.412951 212.089173 
L 129.546577 211.749102 
L 129.635661 211.749102 
L 129.769288 211.409031 
L 130.03654 211.409031 
L 130.170166 211.068961 
L 130.25925 211.068961 
L 130.392876 210.72889 
L 130.48196 210.72889 
L 130.660128 210.048749 
L 130.70467 210.048749 
L 130.838297 209.708678 
L 130.927381 209.708678 
L 131.061007 209.368607 
L 131.150091 209.368607 
L 131.283717 209.028537 
L 131.372801 209.028537 
L 131.506427 208.688466 
L 131.595511 208.688466 
L 131.729138 208.348395 
L 131.818222 208.348395 
L 131.951848 208.008325 
L 132.040932 208.008325 
L 132.174558 207.668254 
L 132.263642 207.668254 
L 132.397268 207.328183 
L 132.486352 207.328183 
L 132.619978 206.988113 
L 132.709063 206.988113 
L 132.842689 206.648042 
L 132.931773 206.648042 
L 133.065399 206.307971 
L 133.154483 206.307971 
L 133.288109 205.967901 
L 133.377193 205.967901 
L 133.510819 205.62783 
L 133.644445 205.62783 
L 133.778072 205.287759 
L 133.867156 205.287759 
L 134.000782 204.947689 
L 134.089866 204.947689 
L 134.268034 204.267547 
L 134.312576 204.267547 
L 134.446202 203.927477 
L 134.535286 203.927477 
L 134.668913 203.587406 
L 134.757997 203.587406 
L 134.891623 203.247335 
L 134.980707 203.247335 
L 135.114333 202.907265 
L 135.203417 202.907265 
L 135.337043 202.567194 
L 135.426127 202.567194 
L 135.559753 202.227124 
L 135.648838 202.227124 
L 135.782464 201.887053 
L 135.827006 201.887053 
L 136.005174 201.206912 
L 136.094258 201.206912 
L 136.227884 200.866841 
L 136.450594 200.866841 
L 136.58422 200.52677 
L 136.673305 200.52677 
L 136.806931 200.1867 
L 136.896015 200.1867 
L 137.029641 199.846629 
L 137.163267 199.846629 
L 137.296893 199.506558 
L 137.385977 199.506558 
L 137.519603 199.166488 
L 137.608688 199.166488 
L 137.742314 198.826417 
L 137.831398 198.826417 
L 137.965024 198.486346 
L 138.365902 198.486346 
L 138.499528 198.146276 
L 138.588613 198.146276 
L 138.722239 197.806205 
L 138.811323 197.806205 
L 138.944949 197.466134 
L 139.034033 197.466134 
L 139.167659 197.126064 
L 139.256743 197.126064 
L 139.390369 196.785993 
L 139.479453 196.785993 
L 139.61308 196.445922 
L 139.702164 196.445922 
L 139.83579 196.105852 
L 139.924874 196.105852 
L 140.0585 195.765781 
L 140.147584 195.765781 
L 140.28121 195.42571 
L 140.370294 195.42571 
L 140.50392 195.08564 
L 140.726631 195.08564 
L 140.860257 194.745569 
L 140.949341 194.745569 
L 141.082967 194.405498 
L 141.216593 194.405498 
L 141.350219 194.065428 
L 141.617472 194.065428 
L 141.751098 193.725357 
L 141.840182 193.725357 
L 141.973808 193.385286 
L 144.379078 193.385286 
L 144.512705 193.045216 
L 145.537172 193.045216 
L 145.670798 192.705145 
L 145.982592 192.705145 
L 146.116218 192.365074 
L 147.140685 192.365074 
L 147.274311 192.025004 
L 150.926759 192.025004 
L 151.060385 191.684933 
L 152.084852 191.684933 
L 152.218478 191.344862 
L 154.534665 191.344862 
L 154.668291 191.004792 
L 155.7373 191.004792 
L 155.870926 190.664721 
L 156.138178 190.664721 
L 156.271805 190.32465 
L 157.340814 190.32465 
L 157.47444 189.98458 
L 161.082345 189.98458 
L 161.215972 189.644509 
L 162.284981 189.644509 
L 162.418607 189.304438 
L 164.690251 189.304438 
L 164.823877 188.964368 
L 165.892886 188.964368 
L 166.026513 188.624297 
L 166.293765 188.624297 
L 166.427391 188.284226 
L 167.4964 188.284226 
L 167.630026 187.944156 
L 171.19339 187.944156 
L 171.327016 187.604085 
L 172.396025 187.604085 
L 172.529651 187.264014 
L 174.801295 187.264014 
L 174.934922 186.923944 
L 175.914847 186.923944 
L 176.048473 186.583873 
L 176.404809 186.583873 
L 176.538435 186.243802 
L 177.562902 186.243802 
L 177.696528 185.903732 
L 181.348976 185.903732 
L 181.482602 185.563661 
L 182.462527 185.563661 
L 182.596153 185.22359 
L 185.001424 185.22359 
L 185.13505 184.88352 
L 186.114975 184.88352 
L 186.248601 184.543449 
L 186.604938 184.543449 
L 186.738564 184.203378 
L 187.718489 184.203378 
L 187.852115 183.863308 
L 191.549105 183.863308 
L 191.682731 183.523237 
L 192.662656 183.523237 
L 192.796282 183.183166 
L 195.201552 183.183166 
L 195.335178 182.843096 
L 196.315103 182.843096 
L 196.44873 182.503025 
L 196.760524 182.503025 
L 196.89415 182.162955 
L 197.918617 182.162955 
L 198.052243 181.822884 
L 201.660149 181.822884 
L 201.793775 181.482813 
L 202.818242 181.482813 
L 202.951868 181.142743 
L 205.268055 181.142743 
L 205.401681 180.802672 
L 206.426148 180.802672 
L 206.559774 180.462601 
L 206.871568 180.462601 
L 207.005194 180.122531 
L 207.985119 180.122531 
L 208.118745 179.78246 
L 211.815735 179.78246 
L 211.949361 179.442389 
L 212.884744 179.442389 
L 213.01837 179.102319 
L 215.468183 179.102319 
L 215.601809 178.762248 
L 216.537192 178.762248 
L 216.670818 178.422177 
L 217.071697 178.422177 
L 217.205323 178.082107 
L 218.140706 178.082107 
L 218.274332 177.742036 
L 221.971322 177.742036 
L 222.104948 177.401965 
L 223.084873 177.401965 
L 223.218499 177.061895 
L 225.623769 177.061895 
L 225.757395 176.721824 
L 226.73732 176.721824 
L 226.870947 176.381753 
L 227.227283 176.381753 
L 227.360909 176.041683 
L 228.340834 176.041683 
L 228.47446 175.701612 
L 232.17145 175.701612 
L 232.305076 175.361541 
L 233.285001 175.361541 
L 233.418627 175.021471 
L 235.823898 175.021471 
L 235.957524 174.6814 
L 236.937449 174.6814 
L 237.071075 174.341329 
L 237.427411 174.341329 
L 237.561037 174.001259 
L 238.540963 174.001259 
L 238.674589 173.661188 
L 242.371578 173.661188 
L 242.505205 173.321117 
L 243.48513 173.321117 
L 243.618756 172.981047 
L 246.024026 172.981047 
L 246.157652 172.640976 
L 247.137577 172.640976 
L 247.271203 172.300905 
L 247.62754 172.300905 
L 247.761166 171.960835 
L 248.741091 171.960835 
L 248.874717 171.620764 
L 252.571707 171.620764 
L 252.705333 171.280693 
L 253.640716 171.280693 
L 253.774342 170.940623 
L 256.224155 170.940623 
L 256.357781 170.600552 
L 257.20408 170.600552 
L 257.337706 170.260481 
L 257.827668 170.260481 
L 257.961294 169.920411 
L 258.763051 169.920411 
L 258.896677 169.58034 
L 262.771835 169.58034 
L 262.905461 169.240269 
L 263.707218 169.240269 
L 263.840844 168.900199 
L 266.424283 168.900199 
L 266.557909 168.560128 
L 267.359666 168.560128 
L 267.493292 168.220057 
L 268.027797 168.220057 
L 268.161423 167.879987 
L 268.96318 167.879987 
L 269.096806 167.539916 
L 272.971964 167.539916 
L 273.10559 167.199845 
L 273.907347 167.199845 
L 274.040973 166.859775 
L 276.624411 166.859775 
L 276.758038 166.519704 
L 277.604336 166.519704 
L 277.737962 166.179633 
L 278.227925 166.179633 
L 278.361551 165.839563 
L 279.20785 165.839563 
L 279.341476 165.499492 
L 283.172092 165.499492 
L 283.305718 165.159421 
L 284.196559 165.159421 
L 284.330185 164.819351 
L 286.82454 164.819351 
L 286.958166 164.47928 
L 287.804465 164.47928 
L 287.938091 164.139209 
L 288.428053 164.139209 
L 288.56168 163.799139 
L 289.407978 163.799139 
L 289.541605 163.459068 
L 293.37222 163.459068 
L 293.505847 163.118997 
L 294.352145 163.118997 
L 294.485772 162.778927 
L 297.024668 162.778927 
L 297.158294 162.438856 
L 297.960051 162.438856 
L 298.093677 162.098785 
L 298.628182 162.098785 
L 298.761808 161.758715 
L 299.608107 161.758715 
L 299.741733 161.418644 
L 303.572349 161.418644 
L 303.705975 161.078574 
L 304.552274 161.078574 
L 304.6859 160.738503 
L 307.224797 160.738503 
L 307.358423 160.398432 
L 308.115637 160.398432 
L 308.249264 160.058362 
L 308.82831 160.058362 
L 308.961936 159.718291 
L 309.719151 159.718291 
L 309.852777 159.37822 
L 313.772477 159.37822 
L 313.906103 159.03815 
L 314.618776 159.03815 
L 314.752402 158.698079 
L 317.424925 158.698079 
L 317.558551 158.358008 
L 318.226682 158.358008 
L 318.360308 158.017938 
L 319.028439 158.017938 
L 319.162065 157.677867 
L 319.830195 157.677867 
L 319.963822 157.337796 
L 323.928064 157.337796 
L 324.06169 156.997726 
L 324.818905 156.997726 
L 324.952531 156.657655 
L 327.580511 156.657655 
L 327.714137 156.317584 
L 328.42681 156.317584 
L 328.560436 155.977514 
L 329.184025 155.977514 
L 329.317651 155.637443 
L 330.030324 155.637443 
L 330.16395 155.297372 
L 334.128192 155.297372 
L 334.261818 154.957302 
L 334.929949 154.957302 
L 335.063575 154.617231 
L 337.78064 154.617231 
L 337.914266 154.27716 
L 338.582397 154.27716 
L 338.716023 153.93709 
L 339.384153 153.93709 
L 339.51778 153.597019 
L 340.007742 153.597019 
L 340.141368 153.256948 
L 340.230452 153.256948 
L 340.364078 152.916878 
L 344.372862 152.916878 
L 344.506489 152.576807 
L 345.174619 152.576807 
L 345.308245 152.236736 
L 348.02531 152.236736 
L 348.158936 151.896666 
L 348.827067 151.896666 
L 348.960693 151.556595 
L 349.628824 151.556595 
L 349.76245 151.216524 
L 350.430581 151.216524 
L 350.564207 150.876454 
L 354.528449 150.876454 
L 354.662075 150.536383 
L 355.330206 150.536383 
L 355.463832 150.196312 
L 358.136355 150.196312 
L 358.269981 149.856242 
L 358.982653 149.856242 
L 359.11628 149.516171 
L 359.739868 149.516171 
L 359.873494 149.1761 
L 360.586167 149.1761 
L 360.719793 148.83603 
L 364.684035 148.83603 
L 364.817661 148.495959 
L 365.530334 148.495959 
L 365.66396 148.155888 
L 368.291941 148.155888 
L 368.425567 147.815818 
L 369.227324 147.815818 
L 369.36095 147.475747 
L 369.895455 147.475747 
L 370.029081 147.135676 
L 370.830838 147.135676 
L 370.964464 146.795606 
L 374.839622 146.795606 
L 374.973248 146.455535 
L 375.775005 146.455535 
L 375.908631 146.115464 
L 378.447527 146.115464 
L 378.581153 145.775394 
L 379.427452 145.775394 
L 379.561078 145.435323 
L 380.051041 145.435323 
L 380.184667 145.095252 
L 381.030966 145.095252 
L 381.164592 144.755182 
L 384.995208 144.755182 
L 385.128834 144.415111 
L 386.019675 144.415111 
L 386.153301 144.07504 
L 388.647656 144.07504 
L 388.781282 143.73497 
L 389.672123 143.73497 
L 389.805749 143.394899 
L 390.251169 143.394899 
L 390.384795 143.054828 
L 395.195336 143.054828 
L 395.328962 142.714758 
L 396.219803 142.714758 
L 396.35343 142.374687 
L 398.847784 142.374687 
L 398.98141 142.034616 
L 399.872251 142.034616 
L 400.005877 141.694546 
L 400.451298 141.694546 
L 400.584924 141.354475 
L 401.475765 141.354475 
L 401.609391 141.014404 
L 405.395465 141.014404 
L 405.529091 140.674334 
L 406.419932 140.674334 
L 406.553558 140.334263 
L 409.047912 140.334263 
L 409.181539 139.994193 
L 410.07238 139.994193 
L 410.206006 139.654122 
L 410.651426 139.654122 
L 410.785052 139.314051 
L 411.675893 139.314051 
L 411.809519 138.973981 
L 415.595593 138.973981 
L 415.729219 138.63391 
L 416.62006 138.63391 
L 416.753686 138.293839 
L 419.248041 138.293839 
L 419.381667 137.953769 
L 420.272508 137.953769 
L 420.406134 137.613698 
L 420.851555 137.613698 
L 420.985181 137.273627 
L 421.074265 137.273627 
L 421.074265 137.273627 
" clip-path="url(#pc51180bc81)" style="fill: none; stroke: #add8e6; stroke-width: 2; stroke-linecap: square"/>
   </g>
   <g id="line2d_32">
    <path d="M 64.782443 369.201818 
L 421.074265 369.201818 
L 421.074265 369.201818 
" clip-path="url(#pc51180bc81)" style="fill: none; stroke: #00008b; stroke-width: 2; stroke-linecap: square"/>
   </g>
   <g id="line2d_33">
    <path d="M 421.118807 369.201818 
L 420.495218 369.201818 
L 420.31705 368.997776 
L 419.782545 368.929762 
L 419.648919 368.861748 
L 418.80262 368.793733 
L 418.668994 368.725719 
L 418.3572 368.657705 
L 418.179032 368.521677 
L 417.644527 368.453663 
L 417.510901 368.385649 
L 416.041014 368.317634 
L 415.907388 368.24962 
L 415.239257 368.181606 
L 415.016547 367.977564 
L 413.947537 367.90955 
L 413.813911 367.841536 
L 413.546659 367.773521 
L 413.368491 367.637493 
L 413.056697 367.569479 
L 412.92307 367.501465 
L 412.388566 367.433451 
L 412.25494 367.365437 
L 411.809519 367.297422 
L 411.675893 367.229408 
L 410.29509 367.161394 
L 410.116922 366.957352 
L 409.582417 366.889338 
L 409.448791 366.821324 
L 408.602492 366.753309 
L 408.468866 366.685295 
L 408.157072 366.617281 
L 407.978903 366.481253 
L 407.444399 366.413239 
L 407.310773 366.345225 
L 405.840885 366.27721 
L 405.707259 366.209196 
L 405.039128 366.141182 
L 404.816418 365.93714 
L 403.747409 365.869126 
L 403.613783 365.801112 
L 403.346531 365.733097 
L 403.168362 365.597069 
L 402.856568 365.529055 
L 402.722942 365.461041 
L 402.188437 365.393027 
L 402.054811 365.325013 
L 401.609391 365.256999 
L 401.475765 365.188984 
L 400.094961 365.12097 
L 399.916793 364.916928 
L 399.382289 364.848914 
L 399.248663 364.7809 
L 398.402364 364.712885 
L 398.268738 364.644871 
L 397.956943 364.576857 
L 397.778775 364.440829 
L 397.24427 364.372815 
L 397.110644 364.304801 
L 395.640757 364.236787 
L 395.507131 364.168772 
L 394.839 364.100758 
L 394.61629 363.896716 
L 393.547281 363.828702 
L 393.413655 363.760688 
L 393.10186 363.692673 
L 392.923692 363.556645 
L 392.65644 363.488631 
L 392.522814 363.420617 
L 391.988309 363.352603 
L 391.854683 363.284589 
L 391.409262 363.216575 
L 391.275636 363.14856 
L 389.894833 363.080546 
L 389.716665 362.876504 
L 389.18216 362.80849 
L 389.048534 362.740476 
L 388.202235 362.672461 
L 388.068609 362.604447 
L 387.756815 362.536433 
L 387.578647 362.400405 
L 387.044142 362.332391 
L 386.910516 362.264377 
L 385.440628 362.196363 
L 385.307002 362.128348 
L 384.638872 362.060334 
L 384.416161 361.856292 
L 383.347152 361.788278 
L 383.213526 361.720264 
L 382.946274 361.65225 
L 382.768106 361.516221 
L 382.456311 361.448207 
L 382.322685 361.380193 
L 381.743639 361.312179 
L 381.610013 361.244165 
L 381.209134 361.176151 
L 381.075508 361.108136 
L 379.694705 361.040122 
L 379.516536 360.83608 
L 378.982032 360.768066 
L 378.848406 360.700052 
L 378.002107 360.632038 
L 377.868481 360.564023 
L 377.556686 360.496009 
L 377.42306 360.359981 
L 376.799472 360.291967 
L 376.665845 360.223953 
L 375.195958 360.155939 
L 375.062332 360.087924 
L 374.438743 360.01991 
L 374.216033 359.815868 
L 373.147024 359.747854 
L 373.013398 359.67984 
L 372.790687 359.611826 
L 372.657061 359.543811 
L 372.523435 359.475797 
L 372.389809 359.407783 
L 371.988931 359.339769 
L 371.855305 359.271755 
L 371.231716 359.203741 
L 371.09809 359.135727 
L 370.385417 359.067712 
L 370.251791 358.999698 
L 369.494576 358.999698 
L 369.316408 358.795656 
L 368.870987 358.727642 
L 368.737361 358.659628 
L 367.801978 358.591614 
L 367.668352 358.523599 
L 367.4011 358.455585 
L 367.222932 358.319557 
L 366.599343 358.251543 
L 366.465717 358.183529 
L 364.99583 358.115515 
L 364.862203 358.0475 
L 364.238615 357.979486 
L 364.015905 357.775444 
L 362.946895 357.70743 
L 362.813269 357.639416 
L 362.590559 357.571402 
L 362.456933 357.503387 
L 362.323307 357.435373 
L 362.189681 357.367359 
L 361.788802 357.299345 
L 361.655176 357.231331 
L 361.031588 357.163317 
L 360.897961 357.095303 
L 360.185289 357.027289 
L 360.051663 356.959274 
L 359.294448 356.959274 
L 359.11628 356.755232 
L 358.670859 356.687218 
L 358.537233 356.619204 
L 357.60185 356.55119 
L 357.468224 356.483175 
L 357.15643 356.415161 
L 357.022803 356.279133 
L 356.354673 356.211119 
L 356.221047 356.143105 
L 354.751159 356.075091 
L 354.617533 356.007077 
L 354.038486 355.939062 
L 353.860318 355.73502 
L 352.746767 355.667006 
L 352.613141 355.598992 
L 352.434973 355.598992 
L 352.301347 355.462963 
L 352.123178 355.394949 
L 351.989552 355.326935 
L 351.098711 355.258921 
L 350.965085 355.190907 
L 350.608749 355.122893 
L 350.475123 355.054879 
L 349.094319 354.986865 
L 348.916151 354.782822 
L 348.515273 354.714808 
L 348.381647 354.646794 
L 347.401722 354.57878 
L 347.268095 354.510766 
L 346.956301 354.442751 
L 346.822675 354.306723 
L 346.154544 354.238709 
L 346.020918 354.170695 
L 344.551031 354.102681 
L 344.417405 354.034667 
L 343.838358 353.966653 
L 343.66019 353.76261 
L 342.546639 353.694596 
L 342.413013 353.626582 
L 342.234844 353.626582 
L 342.101218 353.490554 
L 341.967592 353.42254 
L 341.833966 353.354525 
L 341.388545 353.286511 
L 341.254919 353.218497 
L 340.631331 353.150483 
L 340.497705 353.082469 
L 339.785032 353.014455 
L 339.651406 352.946441 
L 338.894191 352.946441 
L 338.716023 352.742398 
L 338.315144 352.674384 
L 338.181518 352.60637 
L 337.201593 352.538356 
L 337.067967 352.470342 
L 336.845257 352.402328 
L 336.667089 352.266299 
L 335.954416 352.198285 
L 335.82079 352.130271 
L 334.350902 352.062257 
L 334.217276 351.994243 
L 333.63823 351.926229 
L 333.460061 351.722186 
L 332.34651 351.654172 
L 332.212884 351.586158 
L 332.034716 351.586158 
L 331.90109 351.45013 
L 331.722922 351.382116 
L 331.544753 351.246087 
L 330.698455 351.178073 
L 330.564828 351.110059 
L 330.208492 351.042045 
L 330.074866 350.974031 
L 328.694062 350.906017 
L 328.515894 350.701974 
L 328.070474 350.63396 
L 327.936848 350.565946 
L 327.001465 350.497932 
L 326.867839 350.429918 
L 326.645128 350.361904 
L 326.46696 350.225875 
L 325.754288 350.157861 
L 325.620661 350.089847 
L 324.150774 350.021833 
L 324.017148 349.953819 
L 323.438101 349.885805 
L 323.259933 349.681762 
L 322.146382 349.613748 
L 322.012756 349.545734 
L 321.834587 349.545734 
L 321.700961 349.409706 
L 321.522793 349.341692 
L 321.344625 349.205663 
L 320.498326 349.137649 
L 320.3647 349.069635 
L 320.008364 349.001621 
L 319.874738 348.933607 
L 318.493934 348.865593 
L 318.271224 348.66155 
L 317.870345 348.593536 
L 317.736719 348.525522 
L 316.801336 348.457508 
L 316.66771 348.389494 
L 316.445 348.32148 
L 316.266832 348.185451 
L 315.554159 348.117437 
L 315.420533 348.049423 
L 313.950645 347.981409 
L 313.817019 347.913395 
L 313.237973 347.845381 
L 313.059805 347.641338 
L 311.901711 347.573324 
L 311.768085 347.50531 
L 311.634459 347.50531 
L 311.500833 347.369282 
L 311.322665 347.301268 
L 311.144497 347.165239 
L 310.253656 347.097225 
L 310.12003 347.029211 
L 309.808235 346.961197 
L 309.674609 346.893183 
L 308.293806 346.825169 
L 308.071095 346.621126 
L 307.714759 346.553112 
L 307.581133 346.485098 
L 306.601208 346.417084 
L 306.467582 346.34907 
L 306.289414 346.281056 
L 306.111245 346.145027 
L 305.309489 346.077013 
L 305.175862 346.008999 
L 303.705975 345.940985 
L 303.572349 345.872971 
L 303.037844 345.804957 
L 302.859676 345.600914 
L 301.701583 345.5329 
L 301.567957 345.464886 
L 301.434331 345.464886 
L 301.300705 345.328858 
L 301.077994 345.260844 
L 300.899826 345.124815 
L 300.053527 345.056801 
L 299.919901 344.988787 
L 299.608107 344.920773 
L 299.474481 344.852759 
L 298.093677 344.784745 
L 297.870967 344.580702 
L 297.425547 344.512688 
L 297.29192 344.444674 
L 296.40108 344.37666 
L 296.267453 344.308646 
L 296.089285 344.240632 
L 295.911117 344.104603 
L 295.10936 344.036589 
L 294.975734 343.968575 
L 293.505847 343.900561 
L 293.37222 343.832547 
L 292.837716 343.764533 
L 292.659548 343.56049 
L 291.501455 343.492476 
L 291.367828 343.424462 
L 291.234202 343.424462 
L 291.100576 343.288434 
L 290.922408 343.22042 
L 290.74424 343.084391 
L 289.853399 343.016377 
L 289.719773 342.948363 
L 289.407978 342.880349 
L 289.274352 342.812335 
L 287.893549 342.744321 
L 287.670839 342.540278 
L 287.26996 342.472264 
L 287.136334 342.40425 
L 286.200951 342.336236 
L 286.067325 342.268222 
L 285.889157 342.200208 
L 285.710989 342.064179 
L 284.909232 341.996165 
L 284.775606 341.928151 
L 283.305718 341.860137 
L 283.172092 341.792123 
L 282.637587 341.724109 
L 282.459419 341.520066 
L 281.301326 341.452052 
L 281.1677 341.384038 
L 281.034074 341.384038 
L 280.900448 341.24801 
L 280.72228 341.179996 
L 280.544111 341.043967 
L 279.608728 340.975953 
L 279.475102 340.907939 
L 279.20785 340.839925 
L 279.074224 340.771911 
L 277.69342 340.703897 
L 277.515252 340.499854 
L 277.069832 340.43184 
L 276.936206 340.363826 
L 276.000823 340.295812 
L 275.867197 340.227798 
L 275.689028 340.159784 
L 275.51086 340.023755 
L 274.620019 339.955741 
L 274.486393 339.887727 
L 273.016506 339.819713 
L 272.88288 339.751699 
L 272.437459 339.683685 
L 272.259291 339.479642 
L 271.14574 339.411628 
L 271.012114 339.343614 
L 270.833945 339.343614 
L 270.700319 339.207586 
L 270.477609 339.139572 
L 270.343983 339.003543 
L 269.364058 338.935529 
L 269.18589 338.799501 
L 268.384133 338.731487 
L 268.250507 338.663473 
L 267.493292 338.595459 
L 267.315124 338.45943 
L 266.825161 338.391416 
L 266.691535 338.323402 
L 265.800694 338.255388 
L 265.667068 338.187374 
L 265.577984 338.187374 
L 265.444358 338.051346 
L 264.731685 337.983331 
L 264.598059 337.915317 
L 263.97447 337.847303 
L 263.840844 337.779289 
L 262.593667 337.711275 
L 262.460041 337.643261 
L 262.237331 337.643261 
L 262.059163 337.439218 
L 260.990153 337.371204 
L 260.856527 337.30319 
L 260.633817 337.30319 
L 260.500191 337.167162 
L 260.322023 337.099148 
L 260.143855 336.963119 
L 259.119388 336.895105 
L 258.941219 336.759077 
L 258.184005 336.691063 
L 258.050378 336.623049 
L 257.293164 336.555035 
L 257.114995 336.419006 
L 256.625033 336.350992 
L 256.491407 336.282978 
L 255.600566 336.214964 
L 255.46694 336.14695 
L 255.377856 336.14695 
L 255.24423 336.010922 
L 254.576099 335.942908 
L 254.442473 335.874893 
L 253.774342 335.806879 
L 253.640716 335.738865 
L 252.393539 335.670851 
L 252.259913 335.602837 
L 252.037202 335.602837 
L 251.859034 335.398794 
L 250.790025 335.33078 
L 250.656399 335.262766 
L 250.433689 335.262766 
L 250.300062 335.126738 
L 250.121894 335.058724 
L 249.943726 334.922696 
L 248.919259 334.854681 
L 248.741091 334.718653 
L 248.028418 334.650639 
L 247.894792 334.582625 
L 247.093035 334.514611 
L 246.914867 334.378582 
L 246.469447 334.310568 
L 246.33582 334.242554 
L 245.400438 334.17454 
L 245.266811 334.106526 
L 245.177727 334.038512 
L 245.044101 333.970498 
L 244.37597 333.902484 
L 244.242344 333.834469 
L 243.618756 333.766455 
L 243.48513 333.698441 
L 242.237952 333.630427 
L 242.104326 333.562413 
L 241.837074 333.494399 
L 241.658906 333.35837 
L 240.634439 333.290356 
L 240.500812 333.222342 
L 240.23356 333.154328 
L 240.099934 333.086314 
L 239.966308 333.0183 
L 239.78814 332.882272 
L 238.674589 332.814257 
L 238.49642 332.678229 
L 237.82829 332.610215 
L 237.694664 332.542201 
L 236.892907 332.474187 
L 236.714739 332.338159 
L 236.31386 332.270144 
L 236.180234 332.20213 
L 235.200309 332.134116 
L 235.022141 331.998088 
L 234.754889 331.930074 
L 234.621263 331.86206 
L 233.774964 331.794045 
L 233.641337 331.726031 
L 232.17145 331.658017 
L 231.993282 331.521989 
L 231.636945 331.453975 
L 231.458777 331.317947 
L 230.43431 331.249932 
L 230.300684 331.181918 
L 230.122516 331.113904 
L 229.98889 331.04589 
L 229.810722 331.04589 
L 229.632553 330.841848 
L 228.608086 330.773833 
L 228.429918 330.637805 
L 227.628161 330.569791 
L 227.494535 330.501777 
L 226.692778 330.433763 
L 226.470068 330.22972 
L 225.089265 330.161706 
L 224.822012 329.88965 
L 224.55476 329.821636 
L 224.376592 329.685607 
L 223.975714 329.617593 
L 223.842087 329.481565 
L 223.574835 329.413551 
L 223.441209 329.345537 
L 223.263041 329.277523 
L 223.084873 329.141494 
L 222.683994 329.07348 
L 222.550368 329.005466 
L 222.060406 328.937452 
L 221.882238 328.801424 
L 221.793153 328.733409 
L 221.659527 328.665395 
L 221.570443 328.597381 
L 221.392275 328.461353 
L 221.169565 328.393339 
L 220.991397 328.257311 
L 220.63506 328.189296 
L 220.501434 328.121282 
L 220.234182 328.053268 
L 220.056014 327.91724 
L 219.96693 327.849226 
L 219.833303 327.781212 
L 219.655135 327.713198 
L 219.387883 327.441141 
L 219.076089 327.373127 
L 218.89792 327.237099 
L 218.630668 327.169084 
L 218.4525 327.033056 
L 217.428033 326.965042 
L 217.294407 326.829014 
L 216.982613 326.761 
L 216.848986 326.692986 
L 216.581734 326.624971 
L 216.225398 326.216887 
L 215.913603 326.148872 
L 215.735435 326.012844 
L 215.423641 325.94483 
L 215.290015 325.876816 
L 214.97822 325.808802 
L 214.710968 325.536745 
L 214.5328 325.468731 
L 214.399174 325.400717 
L 214.31009 325.332703 
L 214.176464 325.264689 
L 213.864669 325.196675 
L 213.686501 325.060646 
L 213.597417 324.992632 
L 213.463791 324.924618 
L 213.196539 324.856604 
L 213.01837 324.720576 
L 212.751118 324.652562 
L 212.617492 324.584547 
L 212.305698 324.516533 
L 212.172072 324.448519 
L 211.993903 324.380505 
L 211.815735 324.244477 
L 211.637567 324.244477 
L 211.503941 324.108449 
L 211.414857 324.040434 
L 211.281231 323.97242 
L 211.192147 323.904406 
L 211.05852 323.768378 
L 210.969436 323.768378 
L 210.83581 323.63235 
L 210.524016 323.564335 
L 210.39039 323.496321 
L 210.078595 323.428307 
L 209.900427 323.292279 
L 209.855885 323.292279 
L 209.722259 323.156251 
L 209.410465 323.088237 
L 209.276839 322.81618 
L 208.965044 322.748166 
L 208.786876 322.612138 
L 208.519624 322.544123 
L 208.385998 322.476109 
L 208.296914 322.408095 
L 208.163287 322.340081 
L 207.851493 322.272067 
L 207.717867 322.136039 
L 207.406073 322.068025 
L 207.227905 321.931996 
L 206.960652 321.863982 
L 206.827026 321.795968 
L 206.515232 321.727954 
L 206.337064 321.591926 
L 206.292522 321.591926 
L 206.114353 321.319869 
L 205.847101 321.251855 
L 205.668933 321.115827 
L 205.401681 321.047813 
L 205.268055 320.979798 
L 204.95626 320.911784 
L 204.822634 320.84377 
L 204.73355 320.84377 
L 204.555382 320.639728 
L 204.466298 320.571714 
L 204.332672 320.503699 
L 204.199045 320.435685 
L 204.020877 320.299657 
L 203.753625 320.231643 
L 203.530915 320.027601 
L 203.130036 319.959586 
L 202.99641 319.891572 
L 202.862784 319.823558 
L 202.729158 319.755544 
L 202.461906 319.68753 
L 202.283738 319.551502 
L 202.016485 319.483488 
L 201.882859 319.415473 
L 201.571065 319.347459 
L 201.392897 319.211431 
L 201.25927 319.143417 
L 200.992018 318.87136 
L 200.769308 318.803346 
L 200.59114 318.667318 
L 200.234803 318.599304 
L 200.101177 318.53129 
L 199.878467 318.463276 
L 199.700299 318.327247 
L 199.566673 318.259233 
L 199.433047 318.191219 
L 199.254878 318.123205 
L 198.987626 317.851148 
L 198.898542 317.783134 
L 198.764916 317.71512 
L 198.675832 317.647106 
L 198.542206 317.579092 
L 198.497664 317.579092 
L 198.364037 317.443064 
L 198.274953 317.443064 
L 198.141327 317.307035 
L 198.052243 317.307035 
L 197.918617 317.171007 
L 197.829533 317.171007 
L 197.695907 316.966965 
L 197.606823 316.966965 
L 197.473197 316.830936 
L 197.384113 316.830936 
L 197.250486 316.694908 
L 197.161402 316.694908 
L 196.983234 316.490866 
L 196.938692 316.490866 
L 196.805066 316.354837 
L 196.537814 316.286823 
L 196.359645 316.150795 
L 196.270561 316.082781 
L 196.003309 315.606682 
L 195.736057 315.334625 
L 195.602431 315.266611 
L 195.246094 314.858527 
L 195.15701 314.790512 
L 194.889758 314.518456 
L 194.71159 314.450442 
L 194.577964 314.382428 
L 194.48888 314.314413 
L 194.266169 313.974343 
L 193.998917 313.702286 
L 193.865291 313.634272 
L 193.731665 313.566258 
L 193.642581 313.566258 
L 193.508955 313.43023 
L 193.41987 313.362216 
L 193.286244 313.226187 
L 193.19716 313.226187 
L 193.063534 313.090159 
L 192.97445 313.090159 
L 192.840824 312.954131 
L 192.75174 312.886117 
L 192.573572 312.682074 
L 192.350861 312.478032 
L 192.306319 312.478032 
L 192.172693 312.342004 
L 192.083609 312.273989 
L 191.949983 312.137961 
L 191.860899 312.069947 
L 191.727273 311.933919 
L 191.638189 311.865905 
L 191.504563 311.797891 
L 191.46002 311.797891 
L 191.281852 311.593848 
L 190.880974 311.117749 
L 190.836432 311.117749 
L 190.658264 310.845693 
L 190.56918 310.777679 
L 190.391011 310.64165 
L 190.257385 310.573636 
L 190.079217 310.369594 
L 190.034675 310.369594 
L 189.856507 310.165551 
L 189.811965 310.165551 
L 189.633797 309.893495 
L 189.589255 309.893495 
L 189.411086 309.621438 
L 189.366544 309.621438 
L 189.188376 309.417396 
L 189.143834 309.417396 
L 188.876582 308.941297 
L 188.742956 308.873283 
L 188.386619 308.465198 
L 188.297535 308.397184 
L 187.941199 307.989099 
L 187.852115 307.921085 
L 187.673947 307.785057 
L 187.629405 307.785057 
L 187.451236 307.581014 
L 187.406694 307.581014 
L 187.228526 307.376972 
L 187.183984 307.376972 
L 187.005816 307.17293 
L 186.961274 307.17293 
L 186.783106 306.900873 
L 186.738564 306.900873 
L 186.560395 306.696831 
L 186.515853 306.696831 
L 186.337685 306.492788 
L 186.293143 306.492788 
L 186.114975 306.288746 
L 186.070433 306.288746 
L 185.803181 305.812647 
L 185.491386 305.472576 
L 185.402302 305.472576 
L 185.224134 305.20052 
L 185.179592 305.20052 
L 185.001424 304.928463 
L 184.956882 304.928463 
L 184.778714 304.724421 
L 184.68963 304.656407 
L 184.377835 304.316336 
L 184.288751 304.316336 
L 184.110583 304.112294 
L 183.709705 303.636195 
L 183.62062 303.636195 
L 183.442452 303.432152 
L 183.39791 303.432152 
L 183.219742 303.160096 
L 183.1752 303.160096 
L 182.997032 302.956053 
L 182.95249 302.956053 
L 182.774322 302.752011 
L 182.72978 302.752011 
L 182.551611 302.547969 
L 182.507069 302.547969 
L 182.328901 302.275912 
L 182.239817 302.207898 
L 181.883481 301.799813 
L 181.794397 301.731799 
L 181.482602 301.391728 
L 181.348976 301.323714 
L 180.99264 300.915629 
L 180.859014 300.847615 
L 180.680845 300.575559 
L 180.636303 300.575559 
L 180.458135 300.235488 
L 180.413593 300.235488 
L 180.235425 299.895417 
L 180.190883 299.895417 
L 180.012715 299.623361 
L 179.968173 299.623361 
L 179.790005 299.351304 
L 179.745463 299.351304 
L 179.567294 299.079248 
L 179.522752 299.079248 
L 179.2555 298.603149 
L 178.542827 297.650951 
L 178.498285 297.650951 
L 178.231033 297.174852 
L 177.919239 296.834781 
L 177.785613 296.834781 
L 177.651986 296.630739 
L 177.384734 296.358683 
L 177.340192 296.358683 
L 177.206566 296.15464 
L 176.493893 295.202442 
L 176.449351 295.202442 
L 176.315725 294.9984 
L 168.609951 283.095927 
L 168.342699 282.619828 
L 166.694643 280.239333 
L 166.605559 280.171319 
L 166.293765 279.559192 
L 164.957503 277.450754 
L 164.779335 277.110683 
L 160.681467 270.717355 
L 160.414215 270.241256 
L 160.325131 270.241256 
L 159.968794 269.425086 
L 159.835168 269.425086 
L 159.657 269.085016 
L 159.612458 269.085016 
L 159.43429 268.744945 
L 159.389748 268.744945 
L 159.21158 268.404874 
L 159.167037 268.404874 
L 158.988869 267.996789 
L 158.944327 267.996789 
L 158.766159 267.656719 
L 158.721617 267.656719 
L 158.543449 267.316648 
L 158.498907 267.316648 
L 158.320739 266.840549 
L 158.276197 266.840549 
L 158.098028 266.432464 
L 158.053486 266.432464 
L 157.875318 265.956365 
L 157.830776 265.956365 
L 157.652608 265.616295 
L 157.608066 265.616295 
L 157.429898 265.20821 
L 157.385356 265.20821 
L 157.207188 264.800125 
L 157.162645 264.800125 
L 156.984477 264.39204 
L 156.939935 264.39204 
L 156.761767 263.983956 
L 156.717225 263.983956 
L 156.539057 263.643885 
L 156.494515 263.643885 
L 156.316347 263.167786 
L 156.271805 263.167786 
L 156.093636 262.759701 
L 156.049094 262.759701 
L 155.870926 262.351616 
L 155.826384 262.351616 
L 155.648216 261.943532 
L 155.603674 261.943532 
L 155.425506 261.467433 
L 155.380964 261.467433 
L 155.202795 260.991334 
L 155.158253 260.991334 
L 154.980085 260.583249 
L 154.935543 260.583249 
L 154.757375 260.175164 
L 154.712833 260.175164 
L 154.534665 259.767079 
L 154.490123 259.767079 
L 154.311955 259.358995 
L 154.267413 259.358995 
L 154.089244 258.95091 
L 154.044702 258.95091 
L 153.866534 258.542825 
L 153.821992 258.542825 
L 153.643824 258.13474 
L 153.510198 257.79467 
L 153.242945 257.250557 
L 153.153861 257.250557 
L 152.975693 256.842472 
L 152.931151 256.842472 
L 152.574815 256.094316 
L 151.906684 255.00609 
L 151.728516 254.666019 
L 151.37218 253.917864 
L 150.614965 252.69361 
L 150.436797 252.217511 
L 150.392255 252.217511 
L 150.214086 251.809426 
L 150.169544 251.809426 
L 149.991376 251.333327 
L 149.946834 251.333327 
L 149.768666 250.925242 
L 149.724124 250.925242 
L 149.545956 250.517157 
L 149.501414 250.517157 
L 149.323245 250.109073 
L 149.278703 250.109073 
L 149.100535 249.769002 
L 149.055993 249.769002 
L 148.877825 249.360917 
L 148.744199 249.088861 
L 148.566031 248.680776 
L 148.521489 248.680776 
L 148.34332 248.272691 
L 148.298778 248.272691 
L 148.12061 247.796592 
L 148.076068 247.796592 
L 147.8979 247.388507 
L 147.853358 247.388507 
L 147.67519 246.912408 
L 147.630648 246.912408 
L 147.45248 246.572338 
L 147.407938 246.572338 
L 147.229769 246.164253 
L 147.185227 246.164253 
L 147.007059 245.756168 
L 146.962517 245.756168 
L 146.695265 245.212055 
L 146.606181 245.144041 
L 146.249844 244.395886 
L 146.16076 244.327871 
L 145.982592 243.919787 
L 145.626256 243.239645 
L 145.359003 242.695532 
L 145.269919 242.627518 
L 144.869041 241.743334 
L 143.488238 239.634896 
L 143.310069 239.158797 
L 143.220985 238.886741 
L 142.953733 238.342628 
L 142.820107 238.274614 
L 142.641939 237.866529 
L 142.597397 237.866529 
L 142.419228 237.39043 
L 142.374686 237.39043 
L 142.196518 236.982345 
L 142.151976 236.982345 
L 141.973808 236.642274 
L 141.929266 236.642274 
L 141.79564 236.370218 
L 141.706556 236.370218 
L 141.528388 235.894119 
L 141.483845 235.894119 
L 141.305677 235.486034 
L 141.261135 235.486034 
L 141.082967 235.077949 
L 140.993883 235.009935 
L 140.682089 234.397808 
L 140.637547 234.397808 
L 140.236668 233.513624 
L 140.192126 233.513624 
L 139.924874 232.969511 
L 139.880332 232.969511 
L 139.568537 232.28937 
L 139.523995 232.28937 
L 139.345827 231.881285 
L 139.301285 231.881285 
L 139.123117 231.541215 
L 139.078575 231.541215 
L 138.900407 231.13313 
L 138.855865 231.13313 
L 138.454986 230.248946 
L 138.410444 230.248946 
L 138.009566 229.364762 
L 137.965024 229.364762 
L 137.608688 228.616607 
L 137.519603 228.548593 
L 137.163267 227.732423 
L 137.074183 227.664409 
L 136.673305 226.780225 
L 136.406052 226.236112 
L 135.827006 224.807815 
L 135.69338 224.467745 
L 135.203417 223.311505 
L 135.025249 222.90342 
L 134.535286 221.679165 
L 134.490744 221.679165 
L 134.312576 221.271081 
L 134.17895 220.93101 
L 133.644445 219.638741 
L 133.599903 219.638741 
L 133.421735 219.094628 
L 133.377193 219.094628 
L 133.065399 218.14243 
L 132.530894 216.850162 
L 132.486352 216.850162 
L 132.263642 216.306049 
L 132.040932 215.82995 
L 131.105549 213.313427 
L 131.016465 213.041371 
L 130.70467 212.429243 
L 130.571044 212.089173 
L 130.392876 211.54506 
L 130.348334 211.477045 
L 130.170166 210.932932 
L 129.947456 210.456834 
L 129.368409 208.960523 
L 129.323867 208.960523 
L 128.254858 205.967901 
L 128.210316 205.967901 
L 127.943064 205.219745 
L 127.185849 203.179321 
L 127.096765 203.111307 
L 126.918597 202.567194 
L 126.874055 202.49918 
L 126.695886 201.955067 
L 126.651344 201.887053 
L 126.473176 201.34294 
L 126.428634 201.34294 
L 126.250466 200.798827 
L 126.205924 200.798827 
L 126.027756 200.254714 
L 125.983214 200.254714 
L 125.805045 199.710601 
L 125.760503 199.710601 
L 125.582335 199.098473 
L 125.537793 199.098473 
L 125.359625 198.486346 
L 125.315083 198.486346 
L 125.136915 197.874219 
L 125.092373 197.874219 
L 124.914205 197.262092 
L 124.869663 197.262092 
L 124.691494 196.649965 
L 124.646952 196.649965 
L 124.468784 196.037837 
L 124.424242 196.037837 
L 124.246074 195.42571 
L 124.201532 195.42571 
L 124.067906 194.949611 
L 123.978822 194.949611 
L 123.800653 194.337484 
L 123.756111 194.337484 
L 123.577943 193.725357 
L 123.533401 193.725357 
L 123.355233 193.045216 
L 123.310691 193.045216 
L 123.132523 192.365074 
L 123.087981 192.365074 
L 122.909813 191.820961 
L 122.86527 191.752947 
L 122.687102 191.208834 
L 122.64256 191.14082 
L 122.464392 190.596707 
L 122.41985 190.596707 
L 122.152598 189.644509 
L 119.168281 180.870686 
L 119.079197 180.598629 
L 115.604917 170.328495 
L 115.560375 170.260481 
L 115.293123 169.308284 
L 115.114955 168.900199 
L 114.936786 168.356086 
L 114.892244 168.356086 
L 114.714076 167.743958 
L 114.669534 167.743958 
L 114.402282 166.791761 
L 114.224114 166.45169 
L 114.045945 165.907577 
L 114.001403 165.839563 
L 113.823235 165.29545 
L 113.778693 165.227436 
L 113.600525 164.615308 
L 113.555983 164.547294 
L 113.377815 163.935167 
L 113.333273 163.867153 
L 113.155105 163.255026 
L 113.110563 163.187012 
L 112.84331 162.234814 
L 111.417965 158.22198 
L 111.328881 157.949923 
L 109.858993 153.801061 
L 109.814451 153.733047 
L 109.547199 152.780849 
L 109.369031 152.440779 
L 109.057236 151.488581 
L 107.18647 146.04745 
L 107.141928 146.04745 
L 106.874676 145.095252 
L 103.623107 135.437246 
L 103.578565 135.437246 
L 103.400397 134.893133 
L 103.355855 134.893133 
L 103.177686 134.281005 
L 103.133144 134.212991 
L 102.954976 133.600864 
L 102.910434 133.53285 
L 102.776808 133.056751 
L 102.687724 132.920723 
L 102.509556 132.308596 
L 102.465014 132.240581 
L 102.286845 131.696468 
L 99.837033 124.554984 
L 99.792491 124.48697 
L 99.614323 124.010871 
L 99.480697 123.670801 
L 99.168902 122.718603 
L 96.763632 115.713147 
L 96.674548 115.509105 
L 96.49638 115.033006 
L 94.714698 109.931946 
L 94.581072 109.591875 
L 94.402903 109.115776 
L 91.730381 101.294151 
L 91.685839 101.226137 
L 91.50767 100.61401 
L 91.463128 100.545996 
L 91.28496 100.001883 
L 91.240418 99.933869 
L 91.106792 99.593798 
L 87.409802 88.643523 
L 87.276176 88.371466 
L 87.008924 87.419268 
L 85.583578 83.406434 
L 85.494494 83.202392 
L 85.138158 82.046152 
L 85.093616 82.046152 
L 84.73728 80.753883 
L 84.648195 80.685869 
L 81.842047 72.456159 
L 81.797505 72.456159 
L 81.530252 71.503961 
L 81.441168 71.231905 
L 79.971281 67.083043 
L 79.837655 66.742972 
L 79.614944 66.198859 
L 77.165132 58.989361 
L 77.12059 58.989361 
L 75.116198 53.140146 
L 75.071656 53.140146 
L 74.759861 52.119934 
L 74.626235 51.847877 
L 74.448067 51.371778 
L 72.265507 45.046464 
L 72.220965 45.046464 
L 69.771152 37.90498 
L 69.72661 37.836966 
L 69.459358 36.884768 
L 67.855844 32.259807 
L 67.811302 32.259807 
L 66.653209 29.063143 
L 66.608667 29.063143 
L 66.341415 28.110945 
L 65.539658 26.002507 
L 65.495116 26.002507 
L 65.316948 25.458394 
L 65.272406 25.458394 
L 65.094238 24.846267 
L 65.049695 24.778252 
L 64.916069 24.438182 
L 64.826985 24.438182 
L 64.826985 24.438182 
" clip-path="url(#pc51180bc81)" style="fill: none; stroke-dasharray: 7.4,3.2; stroke-dashoffset: 0; stroke: #fa8072; stroke-width: 2"/>
   </g>
   <g id="line2d_34">
    <path d="M 421.118807 369.201818 
L 64.826985 369.201818 
L 64.826985 369.201818 
" clip-path="url(#pc51180bc81)" style="fill: none; stroke-dasharray: 7.4,3.2; stroke-dashoffset: 0; stroke: #8b0000; stroke-width: 2"/>
   </g>
   <g id="patch_3">
    <path d="M 46.965625 386.44 
L 46.965625 7.2 
" style="fill: none; stroke: #000000; stroke-width: 0.8; stroke-linejoin: miter; stroke-linecap: square"/>
   </g>
   <g id="patch_4">
    <path d="M 438.935625 386.44 
L 438.935625 7.2 
" style="fill: none; stroke: #000000; stroke-width: 0.8; stroke-linejoin: miter; stroke-linecap: square"/>
   </g>
   <g id="patch_5">
    <path d="M 46.965625 386.44 
L 438.935625 386.44 
" style="fill: none; stroke: #000000; stroke-width: 0.8; stroke-linejoin: miter; stroke-linecap: square"/>
   </g>
   <g id="patch_6">
    <path d="M 46.965625 7.2 
L 438.935625 7.2 
" style="fill: none; stroke: #000000; stroke-width: 0.8; stroke-linejoin: miter; stroke-linecap: square"/>
   </g>
   <g id="legend_1">
    <g id="patch_7">
     <path d="M 445.935625 88.590625 
L 558.952812 88.590625 
Q 560.952812 88.590625 560.952812 86.590625 
L 560.952812 14.2 
Q 560.952812 12.2 558.952812 12.2 
L 445.935625 12.2 
Q 443.935625 12.2 443.935625 14.2 
L 443.935625 86.590625 
Q 443.935625 88.590625 445.935625 88.590625 
z
" style="fill: #ffffff; opacity: 0.8; stroke: #cccccc; stroke-linejoin: miter"/>
    </g>
    <g id="text_18">
     <!-- Motifs &amp; orientation -->
     <g transform="translate(452.928594 23.798437) scale(0.1 -0.1)">
      <defs>
       <path id="DejaVuSans-4d" d="M 628 4666 
L 1569 4666 
L 2759 1491 
L 3956 4666 
L 4897 4666 
L 4897 0 
L 4281 0 
L 4281 4097 
L 3078 897 
L 2444 897 
L 1241 4097 
L 1241 0 
L 628 0 
L 628 4666 
z
" transform="scale(0.015625)"/>
       <path id="DejaVuSans-26" d="M 1556 2509 
Q 1272 2256 1139 2004 
Q 1006 1753 1006 1478 
Q 1006 1022 1337 719 
Q 1669 416 2169 416 
Q 2466 416 2725 514 
Q 2984 613 3213 813 
L 1556 2509 
z
M 1997 2859 
L 3584 1234 
Q 3769 1513 3872 1830 
Q 3975 2147 3994 2503 
L 4575 2503 
Q 4538 2091 4375 1687 
Q 4213 1284 3922 891 
L 4794 0 
L 4006 0 
L 3559 459 
Q 3234 181 2878 45 
Q 2522 -91 2113 -91 
Q 1359 -91 881 339 
Q 403 769 403 1441 
Q 403 1841 612 2192 
Q 822 2544 1241 2853 
Q 1091 3050 1012 3245 
Q 934 3441 934 3628 
Q 934 4134 1281 4442 
Q 1628 4750 2203 4750 
Q 2463 4750 2720 4694 
Q 2978 4638 3244 4525 
L 3244 3956 
Q 2972 4103 2725 4179 
Q 2478 4256 2266 4256 
Q 1938 4256 1733 4082 
Q 1528 3909 1528 3634 
Q 1528 3475 1620 3314 
Q 1713 3153 1997 2859 
z
" transform="scale(0.015625)"/>
      </defs>
      <use xlink:href="#DejaVuSans-4d"/>
      <use xlink:href="#DejaVuSans-6f" transform="translate(86.279297 0)"/>
      <use xlink:href="#DejaVuSans-74" transform="translate(147.460938 0)"/>
      <use xlink:href="#DejaVuSans-69" transform="translate(186.669922 0)"/>
      <use xlink:href="#DejaVuSans-66" transform="translate(214.453125 0)"/>
      <use xlink:href="#DejaVuSans-73" transform="translate(249.658203 0)"/>
      <use xlink:href="#DejaVuSans-20" transform="translate(301.757812 0)"/>
      <use xlink:href="#DejaVuSans-26" transform="translate(333.544922 0)"/>
      <use xlink:href="#DejaVuSans-20" transform="translate(411.523438 0)"/>
      <use xlink:href="#DejaVuSans-6f" transform="translate(443.310547 0)"/>
      <use xlink:href="#DejaVuSans-72" transform="translate(504.492188 0)"/>
      <use xlink:href="#DejaVuSans-69" transform="translate(545.605469 0)"/>
      <use xlink:href="#DejaVuSans-65" transform="translate(573.388672 0)"/>
      <use xlink:href="#DejaVuSans-6e" transform="translate(634.912109 0)"/>
      <use xlink:href="#DejaVuSans-74" transform="translate(698.291016 0)"/>
      <use xlink:href="#DejaVuSans-61" transform="translate(737.5 0)"/>
      <use xlink:href="#DejaVuSans-74" transform="translate(798.779297 0)"/>
      <use xlink:href="#DejaVuSans-69" transform="translate(837.988281 0)"/>
      <use xlink:href="#DejaVuSans-6f" transform="translate(865.771484 0)"/>
      <use xlink:href="#DejaVuSans-6e" transform="translate(926.953125 0)"/>
     </g>
    </g>
    <g id="line2d_35">
     <path d="M 447.935625 34.976562 
L 457.935625 34.976562 
L 467.935625 34.976562 
" style="fill: none; stroke: #add8e6; stroke-width: 2; stroke-linecap: square"/>
    </g>
    <g id="text_19">
     <!-- CCTAA (5' end) -->
     <g transform="translate(475.935625 38.476562) scale(0.1 -0.1)">
      <defs>
       <path id="DejaVuSans-43" d="M 4122 4306 
L 4122 3641 
Q 3803 3938 3442 4084 
Q 3081 4231 2675 4231 
Q 1875 4231 1450 3742 
Q 1025 3253 1025 2328 
Q 1025 1406 1450 917 
Q 1875 428 2675 428 
Q 3081 428 3442 575 
Q 3803 722 4122 1019 
L 4122 359 
Q 3791 134 3420 21 
Q 3050 -91 2638 -91 
Q 1578 -91 968 557 
Q 359 1206 359 2328 
Q 359 3453 968 4101 
Q 1578 4750 2638 4750 
Q 3056 4750 3426 4639 
Q 3797 4528 4122 4306 
z
" transform="scale(0.015625)"/>
       <path id="DejaVuSans-54" d="M -19 4666 
L 3928 4666 
L 3928 4134 
L 2272 4134 
L 2272 0 
L 1638 0 
L 1638 4134 
L -19 4134 
L -19 4666 
z
" transform="scale(0.015625)"/>
       <path id="DejaVuSans-28" d="M 1984 4856 
Q 1566 4138 1362 3434 
Q 1159 2731 1159 2009 
Q 1159 1288 1364 580 
Q 1569 -128 1984 -844 
L 1484 -844 
Q 1016 -109 783 600 
Q 550 1309 550 2009 
Q 550 2706 781 3412 
Q 1013 4119 1484 4856 
L 1984 4856 
z
" transform="scale(0.015625)"/>
       <path id="DejaVuSans-27" d="M 1147 4666 
L 1147 2931 
L 616 2931 
L 616 4666 
L 1147 4666 
z
" transform="scale(0.015625)"/>
       <path id="DejaVuSans-64" d="M 2906 2969 
L 2906 4863 
L 3481 4863 
L 3481 0 
L 2906 0 
L 2906 525 
Q 2725 213 2448 61 
Q 2172 -91 1784 -91 
Q 1150 -91 751 415 
Q 353 922 353 1747 
Q 353 2572 751 3078 
Q 1150 3584 1784 3584 
Q 2172 3584 2448 3432 
Q 2725 3281 2906 2969 
z
M 947 1747 
Q 947 1113 1208 752 
Q 1469 391 1925 391 
Q 2381 391 2643 752 
Q 2906 1113 2906 1747 
Q 2906 2381 2643 2742 
Q 2381 3103 1925 3103 
Q 1469 3103 1208 2742 
Q 947 2381 947 1747 
z
" transform="scale(0.015625)"/>
       <path id="DejaVuSans-29" d="M 513 4856 
L 1013 4856 
Q 1481 4119 1714 3412 
Q 1947 2706 1947 2009 
Q 1947 1309 1714 600 
Q 1481 -109 1013 -844 
L 513 -844 
Q 928 -128 1133 580 
Q 1338 1288 1338 2009 
Q 1338 2731 1133 3434 
Q 928 4138 513 4856 
z
" transform="scale(0.015625)"/>
      </defs>
      <use xlink:href="#DejaVuSans-43"/>
      <use xlink:href="#DejaVuSans-43" transform="translate(69.824219 0)"/>
      <use xlink:href="#DejaVuSans-54" transform="translate(139.648438 0)"/>
      <use xlink:href="#DejaVuSans-41" transform="translate(192.982422 0)"/>
      <use xlink:href="#DejaVuSans-41" transform="translate(264.140625 0)"/>
      <use xlink:href="#DejaVuSans-20" transform="translate(332.548828 0)"/>
      <use xlink:href="#DejaVuSans-28" transform="translate(364.335938 0)"/>
      <use xlink:href="#DejaVuSans-35" transform="translate(403.349609 0)"/>
      <use xlink:href="#DejaVuSans-27" transform="translate(466.972656 0)"/>
      <use xlink:href="#DejaVuSans-20" transform="translate(494.462891 0)"/>
      <use xlink:href="#DejaVuSans-65" transform="translate(526.25 0)"/>
      <use xlink:href="#DejaVuSans-6e" transform="translate(587.773438 0)"/>
      <use xlink:href="#DejaVuSans-64" transform="translate(651.152344 0)"/>
      <use xlink:href="#DejaVuSans-29" transform="translate(714.628906 0)"/>
     </g>
    </g>
    <g id="line2d_36">
     <path d="M 447.935625 49.654687 
L 457.935625 49.654687 
L 467.935625 49.654687 
" style="fill: none; stroke: #00008b; stroke-width: 2; stroke-linecap: square"/>
    </g>
    <g id="text_20">
     <!-- TCTAAA (5' end) -->
     <g transform="translate(475.935625 53.154687) scale(0.1 -0.1)">
      <use xlink:href="#DejaVuSans-54"/>
      <use xlink:href="#DejaVuSans-43" transform="translate(55.208984 0)"/>
      <use xlink:href="#DejaVuSans-54" transform="translate(125.033203 0)"/>
      <use xlink:href="#DejaVuSans-41" transform="translate(178.367188 0)"/>
      <use xlink:href="#DejaVuSans-41" transform="translate(249.525391 0)"/>
      <use xlink:href="#DejaVuSans-41" transform="translate(320.683594 0)"/>
      <use xlink:href="#DejaVuSans-20" transform="translate(389.091797 0)"/>
      <use xlink:href="#DejaVuSans-28" transform="translate(420.878906 0)"/>
      <use xlink:href="#DejaVuSans-35" transform="translate(459.892578 0)"/>
      <use xlink:href="#DejaVuSans-27" transform="translate(523.515625 0)"/>
      <use xlink:href="#DejaVuSans-20" transform="translate(551.005859 0)"/>
      <use xlink:href="#DejaVuSans-65" transform="translate(582.792969 0)"/>
      <use xlink:href="#DejaVuSans-6e" transform="translate(644.316406 0)"/>
      <use xlink:href="#DejaVuSans-64" transform="translate(707.695312 0)"/>
      <use xlink:href="#DejaVuSans-29" transform="translate(771.171875 0)"/>
     </g>
    </g>
    <g id="line2d_37">
     <path d="M 447.935625 64.332812 
L 457.935625 64.332812 
L 467.935625 64.332812 
" style="fill: none; stroke-dasharray: 7.4,3.2; stroke-dashoffset: 0; stroke: #fa8072; stroke-width: 2"/>
    </g>
    <g id="text_21">
     <!-- TTAGG (3' end) -->
     <g transform="translate(475.935625 67.832812) scale(0.1 -0.1)">
      <defs>
       <path id="DejaVuSans-47" d="M 3809 666 
L 3809 1919 
L 2778 1919 
L 2778 2438 
L 4434 2438 
L 4434 434 
Q 4069 175 3628 42 
Q 3188 -91 2688 -91 
Q 1594 -91 976 548 
Q 359 1188 359 2328 
Q 359 3472 976 4111 
Q 1594 4750 2688 4750 
Q 3144 4750 3555 4637 
Q 3966 4525 4313 4306 
L 4313 3634 
Q 3963 3931 3569 4081 
Q 3175 4231 2741 4231 
Q 1884 4231 1454 3753 
Q 1025 3275 1025 2328 
Q 1025 1384 1454 906 
Q 1884 428 2741 428 
Q 3075 428 3337 486 
Q 3600 544 3809 666 
z
" transform="scale(0.015625)"/>
      </defs>
      <use xlink:href="#DejaVuSans-54"/>
      <use xlink:href="#DejaVuSans-54" transform="translate(59.333984 0)"/>
      <use xlink:href="#DejaVuSans-41" transform="translate(112.667969 0)"/>
      <use xlink:href="#DejaVuSans-47" transform="translate(179.326172 0)"/>
      <use xlink:href="#DejaVuSans-47" transform="translate(256.816406 0)"/>
      <use xlink:href="#DejaVuSans-20" transform="translate(334.306641 0)"/>
      <use xlink:href="#DejaVuSans-28" transform="translate(366.09375 0)"/>
      <use xlink:href="#DejaVuSans-33" transform="translate(405.107422 0)"/>
      <use xlink:href="#DejaVuSans-27" transform="translate(468.730469 0)"/>
      <use xlink:href="#DejaVuSans-20" transform="translate(496.220703 0)"/>
      <use xlink:href="#DejaVuSans-65" transform="translate(528.007812 0)"/>
      <use xlink:href="#DejaVuSans-6e" transform="translate(589.53125 0)"/>
      <use xlink:href="#DejaVuSans-64" transform="translate(652.910156 0)"/>
      <use xlink:href="#DejaVuSans-29" transform="translate(716.386719 0)"/>
     </g>
    </g>
    <g id="line2d_38">
     <path d="M 447.935625 79.010937 
L 457.935625 79.010937 
L 467.935625 79.010937 
" style="fill: none; stroke-dasharray: 7.4,3.2; stroke-dashoffset: 0; stroke: #8b0000; stroke-width: 2"/>
    </g>
    <g id="text_22">
     <!-- TTTAGA (3' end) -->
     <g transform="translate(475.935625 82.510937) scale(0.1 -0.1)">
      <use xlink:href="#DejaVuSans-54"/>
      <use xlink:href="#DejaVuSans-54" transform="translate(59.333984 0)"/>
      <use xlink:href="#DejaVuSans-54" transform="translate(118.667969 0)"/>
      <use xlink:href="#DejaVuSans-41" transform="translate(172.001953 0)"/>
      <use xlink:href="#DejaVuSans-47" transform="translate(238.660156 0)"/>
      <use xlink:href="#DejaVuSans-41" transform="translate(316.150391 0)"/>
      <use xlink:href="#DejaVuSans-20" transform="translate(384.558594 0)"/>
      <use xlink:href="#DejaVuSans-28" transform="translate(416.345703 0)"/>
      <use xlink:href="#DejaVuSans-33" transform="translate(455.359375 0)"/>
      <use xlink:href="#DejaVuSans-27" transform="translate(518.982422 0)"/>
      <use xlink:href="#DejaVuSans-20" transform="translate(546.472656 0)"/>
      <use xlink:href="#DejaVuSans-65" transform="translate(578.259766 0)"/>
      <use xlink:href="#DejaVuSans-6e" transform="translate(639.783203 0)"/>
      <use xlink:href="#DejaVuSans-64" transform="translate(703.162109 0)"/>
      <use xlink:href="#DejaVuSans-29" transform="translate(766.638672 0)"/>
     </g>
    </g>
   </g>
  </g>
 </g>
 <defs>
  <clipPath id="pc51180bc81">
   <rect x="46.965625" y="7.2" width="391.97" height="379.24"/>
  </clipPath>
 </defs>
</svg>
