<?xml version="1.0" encoding="utf-8" standalone="no"?>
<!DOCTYPE svg PUBLIC "-//W3C//DTD SVG 1.1//EN"
  "http://www.w3.org/Graphics/SVG/1.1/DTD/svg11.dtd">
<svg xmlns:xlink="http://www.w3.org/1999/xlink" width="567.885625pt" height="423.99625pt" viewBox="0 0 567.885625 423.99625" xmlns="http://www.w3.org/2000/svg" version="1.1">
 <metadata>
  <rdf:RDF xmlns:dc="http://purl.org/dc/elements/1.1/" xmlns:cc="http://creativecommons.org/ns#" xmlns:rdf="http://www.w3.org/1999/02/22-rdf-syntax-ns#">
   <cc:Work>
    <dc:type rdf:resource="http://purl.org/dc/dcmitype/StillImage"/>
    <dc:date>2026-04-30T15:17:44.723405</dc:date>
    <dc:format>image/svg+xml</dc:format>
    <dc:creator>
     <cc:Agent>
      <dc:title>Matplotlib v3.10.6, https://matplotlib.org/</dc:title>
     </cc:Agent>
    </dc:creator>
   </cc:Work>
  </rdf:RDF>
 </metadata>
 <defs>
  <style type="text/css">*{stroke-linejoin: round; stroke-linecap: butt}</style>
 </defs>
 <g id="figure_1">
  <g id="patch_1">
   <path d="M 0 423.99625 
L 567.885625 423.99625 
L 567.885625 0 
L 0 0 
z
" style="fill: #ffffff"/>
  </g>
  <g id="axes_1">
   <g id="patch_2">
    <path d="M 46.965625 386.44 
L 426.335625 386.44 
L 426.335625 7.2 
L 46.965625 7.2 
z
" style="fill: #ffffff"/>
   </g>
   <g id="matplotlib.axis_1">
    <g id="xtick_1">
     <g id="line2d_1">
      <path d="M 64.209716 386.44 
L 64.209716 7.2 
" clip-path="url(#p85a82a8941)" style="fill: none; stroke-dasharray: 2.96,1.28; stroke-dashoffset: 0; stroke: #b0b0b0; stroke-opacity: 0.6; stroke-width: 0.8"/>
     </g>
     <g id="line2d_2">
      <defs>
       <path id="m3926e323ab" d="M 0 0 
L 0 3.5 
" style="stroke: #000000; stroke-width: 0.8"/>
      </defs>
      <g>
       <use xlink:href="#m3926e323ab" x="64.209716" y="386.44" style="stroke: #000000; stroke-width: 0.8"/>
      </g>
     </g>
     <g id="text_1">
      <!-- 0 -->
      <g transform="translate(61.028466 401.038437) scale(0.1 -0.1)">
       <defs>
        <path id="DejaVuSans-30" d="M 2034 4250 
Q 1547 4250 1301 3770 
Q 1056 3291 1056 2328 
Q 1056 1369 1301 889 
Q 1547 409 2034 409 
Q 2525 409 2770 889 
Q 3016 1369 3016 2328 
Q 3016 3291 2770 3770 
Q 2525 4250 2034 4250 
z
M 2034 4750 
Q 2819 4750 3233 4129 
Q 3647 3509 3647 2328 
Q 3647 1150 3233 529 
Q 2819 -91 2034 -91 
Q 1250 -91 836 529 
Q 422 1150 422 2328 
Q 422 3509 836 4129 
Q 1250 4750 2034 4750 
z
" transform="scale(0.015625)"/>
       </defs>
       <use xlink:href="#DejaVuSans-30"/>
      </g>
     </g>
    </g>
    <g id="xtick_2">
     <g id="line2d_3">
      <path d="M 107.325333 386.44 
L 107.325333 7.2 
" clip-path="url(#p85a82a8941)" style="fill: none; stroke-dasharray: 2.96,1.28; stroke-dashoffset: 0; stroke: #b0b0b0; stroke-opacity: 0.6; stroke-width: 0.8"/>
     </g>
     <g id="line2d_4">
      <g>
       <use xlink:href="#m3926e323ab" x="107.325333" y="386.44" style="stroke: #000000; stroke-width: 0.8"/>
      </g>
     </g>
     <g id="text_2">
      <!-- 1000 -->
      <g transform="translate(94.600333 401.038437) scale(0.1 -0.1)">
       <defs>
        <path id="DejaVuSans-31" d="M 794 531 
L 1825 531 
L 1825 4091 
L 703 3866 
L 703 4441 
L 1819 4666 
L 2450 4666 
L 2450 531 
L 3481 531 
L 3481 0 
L 794 0 
L 794 531 
z
" transform="scale(0.015625)"/>
       </defs>
       <use xlink:href="#DejaVuSans-31"/>
       <use xlink:href="#DejaVuSans-30" transform="translate(63.623047 0)"/>
       <use xlink:href="#DejaVuSans-30" transform="translate(127.246094 0)"/>
       <use xlink:href="#DejaVuSans-30" transform="translate(190.869141 0)"/>
      </g>
     </g>
    </g>
    <g id="xtick_3">
     <g id="line2d_5">
      <path d="M 150.440949 386.44 
L 150.440949 7.2 
" clip-path="url(#p85a82a8941)" style="fill: none; stroke-dasharray: 2.96,1.28; stroke-dashoffset: 0; stroke: #b0b0b0; stroke-opacity: 0.6; stroke-width: 0.8"/>
     </g>
     <g id="line2d_6">
      <g>
       <use xlink:href="#m3926e323ab" x="150.440949" y="386.44" style="stroke: #000000; stroke-width: 0.8"/>
      </g>
     </g>
     <g id="text_3">
      <!-- 2000 -->
      <g transform="translate(137.715949 401.038437) scale(0.1 -0.1)">
       <defs>
        <path id="DejaVuSans-32" d="M 1228 531 
L 3431 531 
L 3431 0 
L 469 0 
L 469 531 
Q 828 903 1448 1529 
Q 2069 2156 2228 2338 
Q 2531 2678 2651 2914 
Q 2772 3150 2772 3378 
Q 2772 3750 2511 3984 
Q 2250 4219 1831 4219 
Q 1534 4219 1204 4116 
Q 875 4013 500 3803 
L 500 4441 
Q 881 4594 1212 4672 
Q 1544 4750 1819 4750 
Q 2544 4750 2975 4387 
Q 3406 4025 3406 3419 
Q 3406 3131 3298 2873 
Q 3191 2616 2906 2266 
Q 2828 2175 2409 1742 
Q 1991 1309 1228 531 
z
" transform="scale(0.015625)"/>
       </defs>
       <use xlink:href="#DejaVuSans-32"/>
       <use xlink:href="#DejaVuSans-30" transform="translate(63.623047 0)"/>
       <use xlink:href="#DejaVuSans-30" transform="translate(127.246094 0)"/>
       <use xlink:href="#DejaVuSans-30" transform="translate(190.869141 0)"/>
      </g>
     </g>
    </g>
    <g id="xtick_4">
     <g id="line2d_7">
      <path d="M 193.556566 386.44 
L 193.556566 7.2 
" clip-path="url(#p85a82a8941)" style="fill: none; stroke-dasharray: 2.96,1.28; stroke-dashoffset: 0; stroke: #b0b0b0; stroke-opacity: 0.6; stroke-width: 0.8"/>
     </g>
     <g id="line2d_8">
      <g>
       <use xlink:href="#m3926e323ab" x="193.556566" y="386.44" style="stroke: #000000; stroke-width: 0.8"/>
      </g>
     </g>
     <g id="text_4">
      <!-- 3000 -->
      <g transform="translate(180.831566 401.038437) scale(0.1 -0.1)">
       <defs>
        <path id="DejaVuSans-33" d="M 2597 2516 
Q 3050 2419 3304 2112 
Q 3559 1806 3559 1356 
Q 3559 666 3084 287 
Q 2609 -91 1734 -91 
Q 1441 -91 1130 -33 
Q 819 25 488 141 
L 488 750 
Q 750 597 1062 519 
Q 1375 441 1716 441 
Q 2309 441 2620 675 
Q 2931 909 2931 1356 
Q 2931 1769 2642 2001 
Q 2353 2234 1838 2234 
L 1294 2234 
L 1294 2753 
L 1863 2753 
Q 2328 2753 2575 2939 
Q 2822 3125 2822 3475 
Q 2822 3834 2567 4026 
Q 2313 4219 1838 4219 
Q 1578 4219 1281 4162 
Q 984 4106 628 3988 
L 628 4550 
Q 988 4650 1302 4700 
Q 1616 4750 1894 4750 
Q 2613 4750 3031 4423 
Q 3450 4097 3450 3541 
Q 3450 3153 3228 2886 
Q 3006 2619 2597 2516 
z
" transform="scale(0.015625)"/>
       </defs>
       <use xlink:href="#DejaVuSans-33"/>
       <use xlink:href="#DejaVuSans-30" transform="translate(63.623047 0)"/>
       <use xlink:href="#DejaVuSans-30" transform="translate(127.246094 0)"/>
       <use xlink:href="#DejaVuSans-30" transform="translate(190.869141 0)"/>
      </g>
     </g>
    </g>
    <g id="xtick_5">
     <g id="line2d_9">
      <path d="M 236.672183 386.44 
L 236.672183 7.2 
" clip-path="url(#p85a82a8941)" style="fill: none; stroke-dasharray: 2.96,1.28; stroke-dashoffset: 0; stroke: #b0b0b0; stroke-opacity: 0.6; stroke-width: 0.8"/>
     </g>
     <g id="line2d_10">
      <g>
       <use xlink:href="#m3926e323ab" x="236.672183" y="386.44" style="stroke: #000000; stroke-width: 0.8"/>
      </g>
     </g>
     <g id="text_5">
      <!-- 4000 -->
      <g transform="translate(223.947183 401.038437) scale(0.1 -0.1)">
       <defs>
        <path id="DejaVuSans-34" d="M 2419 4116 
L 825 1625 
L 2419 1625 
L 2419 4116 
z
M 2253 4666 
L 3047 4666 
L 3047 1625 
L 3713 1625 
L 3713 1100 
L 3047 1100 
L 3047 0 
L 2419 0 
L 2419 1100 
L 313 1100 
L 313 1709 
L 2253 4666 
z
" transform="scale(0.015625)"/>
       </defs>
       <use xlink:href="#DejaVuSans-34"/>
       <use xlink:href="#DejaVuSans-30" transform="translate(63.623047 0)"/>
       <use xlink:href="#DejaVuSans-30" transform="translate(127.246094 0)"/>
       <use xlink:href="#DejaVuSans-30" transform="translate(190.869141 0)"/>
      </g>
     </g>
    </g>
    <g id="xtick_6">
     <g id="line2d_11">
      <path d="M 279.7878 386.44 
L 279.7878 7.2 
" clip-path="url(#p85a82a8941)" style="fill: none; stroke-dasharray: 2.96,1.28; stroke-dashoffset: 0; stroke: #b0b0b0; stroke-opacity: 0.6; stroke-width: 0.8"/>
     </g>
     <g id="line2d_12">
      <g>
       <use xlink:href="#m3926e323ab" x="279.7878" y="386.44" style="stroke: #000000; stroke-width: 0.8"/>
      </g>
     </g>
     <g id="text_6">
      <!-- 5000 -->
      <g transform="translate(267.0628 401.038437) scale(0.1 -0.1)">
       <defs>
        <path id="DejaVuSans-35" d="M 691 4666 
L 3169 4666 
L 3169 4134 
L 1269 4134 
L 1269 2991 
Q 1406 3038 1543 3061 
Q 1681 3084 1819 3084 
Q 2600 3084 3056 2656 
Q 3513 2228 3513 1497 
Q 3513 744 3044 326 
Q 2575 -91 1722 -91 
Q 1428 -91 1123 -41 
Q 819 9 494 109 
L 494 744 
Q 775 591 1075 516 
Q 1375 441 1709 441 
Q 2250 441 2565 725 
Q 2881 1009 2881 1497 
Q 2881 1984 2565 2268 
Q 2250 2553 1709 2553 
Q 1456 2553 1204 2497 
Q 953 2441 691 2322 
L 691 4666 
z
" transform="scale(0.015625)"/>
       </defs>
       <use xlink:href="#DejaVuSans-35"/>
       <use xlink:href="#DejaVuSans-30" transform="translate(63.623047 0)"/>
       <use xlink:href="#DejaVuSans-30" transform="translate(127.246094 0)"/>
       <use xlink:href="#DejaVuSans-30" transform="translate(190.869141 0)"/>
      </g>
     </g>
    </g>
    <g id="xtick_7">
     <g id="line2d_13">
      <path d="M 322.903416 386.44 
L 322.903416 7.2 
" clip-path="url(#p85a82a8941)" style="fill: none; stroke-dasharray: 2.96,1.28; stroke-dashoffset: 0; stroke: #b0b0b0; stroke-opacity: 0.6; stroke-width: 0.8"/>
     </g>
     <g id="line2d_14">
      <g>
       <use xlink:href="#m3926e323ab" x="322.903416" y="386.44" style="stroke: #000000; stroke-width: 0.8"/>
      </g>
     </g>
     <g id="text_7">
      <!-- 6000 -->
      <g transform="translate(310.178416 401.038437) scale(0.1 -0.1)">
       <defs>
        <path id="DejaVuSans-36" d="M 2113 2584 
Q 1688 2584 1439 2293 
Q 1191 2003 1191 1497 
Q 1191 994 1439 701 
Q 1688 409 2113 409 
Q 2538 409 2786 701 
Q 3034 994 3034 1497 
Q 3034 2003 2786 2293 
Q 2538 2584 2113 2584 
z
M 3366 4563 
L 3366 3988 
Q 3128 4100 2886 4159 
Q 2644 4219 2406 4219 
Q 1781 4219 1451 3797 
Q 1122 3375 1075 2522 
Q 1259 2794 1537 2939 
Q 1816 3084 2150 3084 
Q 2853 3084 3261 2657 
Q 3669 2231 3669 1497 
Q 3669 778 3244 343 
Q 2819 -91 2113 -91 
Q 1303 -91 875 529 
Q 447 1150 447 2328 
Q 447 3434 972 4092 
Q 1497 4750 2381 4750 
Q 2619 4750 2861 4703 
Q 3103 4656 3366 4563 
z
" transform="scale(0.015625)"/>
       </defs>
       <use xlink:href="#DejaVuSans-36"/>
       <use xlink:href="#DejaVuSans-30" transform="translate(63.623047 0)"/>
       <use xlink:href="#DejaVuSans-30" transform="translate(127.246094 0)"/>
       <use xlink:href="#DejaVuSans-30" transform="translate(190.869141 0)"/>
      </g>
     </g>
    </g>
    <g id="xtick_8">
     <g id="line2d_15">
      <path d="M 366.019033 386.44 
L 366.019033 7.2 
" clip-path="url(#p85a82a8941)" style="fill: none; stroke-dasharray: 2.96,1.28; stroke-dashoffset: 0; stroke: #b0b0b0; stroke-opacity: 0.6; stroke-width: 0.8"/>
     </g>
     <g id="line2d_16">
      <g>
       <use xlink:href="#m3926e323ab" x="366.019033" y="386.44" style="stroke: #000000; stroke-width: 0.8"/>
      </g>
     </g>
     <g id="text_8">
      <!-- 7000 -->
      <g transform="translate(353.294033 401.038437) scale(0.1 -0.1)">
       <defs>
        <path id="DejaVuSans-37" d="M 525 4666 
L 3525 4666 
L 3525 4397 
L 1831 0 
L 1172 0 
L 2766 4134 
L 525 4134 
L 525 4666 
z
" transform="scale(0.015625)"/>
       </defs>
       <use xlink:href="#DejaVuSans-37"/>
       <use xlink:href="#DejaVuSans-30" transform="translate(63.623047 0)"/>
       <use xlink:href="#DejaVuSans-30" transform="translate(127.246094 0)"/>
       <use xlink:href="#DejaVuSans-30" transform="translate(190.869141 0)"/>
      </g>
     </g>
    </g>
    <g id="xtick_9">
     <g id="line2d_17">
      <path d="M 409.13465 386.44 
L 409.13465 7.2 
" clip-path="url(#p85a82a8941)" style="fill: none; stroke-dasharray: 2.96,1.28; stroke-dashoffset: 0; stroke: #b0b0b0; stroke-opacity: 0.6; stroke-width: 0.8"/>
     </g>
     <g id="line2d_18">
      <g>
       <use xlink:href="#m3926e323ab" x="409.13465" y="386.44" style="stroke: #000000; stroke-width: 0.8"/>
      </g>
     </g>
     <g id="text_9">
      <!-- 8000 -->
      <g transform="translate(396.40965 401.038437) scale(0.1 -0.1)">
       <defs>
        <path id="DejaVuSans-38" d="M 2034 2216 
Q 1584 2216 1326 1975 
Q 1069 1734 1069 1313 
Q 1069 891 1326 650 
Q 1584 409 2034 409 
Q 2484 409 2743 651 
Q 3003 894 3003 1313 
Q 3003 1734 2745 1975 
Q 2488 2216 2034 2216 
z
M 1403 2484 
Q 997 2584 770 2862 
Q 544 3141 544 3541 
Q 544 4100 942 4425 
Q 1341 4750 2034 4750 
Q 2731 4750 3128 4425 
Q 3525 4100 3525 3541 
Q 3525 3141 3298 2862 
Q 3072 2584 2669 2484 
Q 3125 2378 3379 2068 
Q 3634 1759 3634 1313 
Q 3634 634 3220 271 
Q 2806 -91 2034 -91 
Q 1263 -91 848 271 
Q 434 634 434 1313 
Q 434 1759 690 2068 
Q 947 2378 1403 2484 
z
M 1172 3481 
Q 1172 3119 1398 2916 
Q 1625 2713 2034 2713 
Q 2441 2713 2670 2916 
Q 2900 3119 2900 3481 
Q 2900 3844 2670 4047 
Q 2441 4250 2034 4250 
Q 1625 4250 1398 4047 
Q 1172 3844 1172 3481 
z
" transform="scale(0.015625)"/>
       </defs>
       <use xlink:href="#DejaVuSans-38"/>
       <use xlink:href="#DejaVuSans-30" transform="translate(63.623047 0)"/>
       <use xlink:href="#DejaVuSans-30" transform="translate(127.246094 0)"/>
       <use xlink:href="#DejaVuSans-30" transform="translate(190.869141 0)"/>
      </g>
     </g>
    </g>
    <g id="text_10">
     <!-- Distance from terminus [nt] -->
     <g transform="translate(167.151406 414.716562) scale(0.1 -0.1)">
      <defs>
       <path id="DejaVuSans-44" d="M 1259 4147 
L 1259 519 
L 2022 519 
Q 2988 519 3436 956 
Q 3884 1394 3884 2338 
Q 3884 3275 3436 3711 
Q 2988 4147 2022 4147 
L 1259 4147 
z
M 628 4666 
L 1925 4666 
Q 3281 4666 3915 4102 
Q 4550 3538 4550 2338 
Q 4550 1131 3912 565 
Q 3275 0 1925 0 
L 628 0 
L 628 4666 
z
" transform="scale(0.015625)"/>
       <path id="DejaVuSans-69" d="M 603 3500 
L 1178 3500 
L 1178 0 
L 603 0 
L 603 3500 
z
M 603 4863 
L 1178 4863 
L 1178 4134 
L 603 4134 
L 603 4863 
z
" transform="scale(0.015625)"/>
       <path id="DejaVuSans-73" d="M 2834 3397 
L 2834 2853 
Q 2591 2978 2328 3040 
Q 2066 3103 1784 3103 
Q 1356 3103 1142 2972 
Q 928 2841 928 2578 
Q 928 2378 1081 2264 
Q 1234 2150 1697 2047 
L 1894 2003 
Q 2506 1872 2764 1633 
Q 3022 1394 3022 966 
Q 3022 478 2636 193 
Q 2250 -91 1575 -91 
Q 1294 -91 989 -36 
Q 684 19 347 128 
L 347 722 
Q 666 556 975 473 
Q 1284 391 1588 391 
Q 1994 391 2212 530 
Q 2431 669 2431 922 
Q 2431 1156 2273 1281 
Q 2116 1406 1581 1522 
L 1381 1569 
Q 847 1681 609 1914 
Q 372 2147 372 2553 
Q 372 3047 722 3315 
Q 1072 3584 1716 3584 
Q 2034 3584 2315 3537 
Q 2597 3491 2834 3397 
z
" transform="scale(0.015625)"/>
       <path id="DejaVuSans-74" d="M 1172 4494 
L 1172 3500 
L 2356 3500 
L 2356 3053 
L 1172 3053 
L 1172 1153 
Q 1172 725 1289 603 
Q 1406 481 1766 481 
L 2356 481 
L 2356 0 
L 1766 0 
Q 1100 0 847 248 
Q 594 497 594 1153 
L 594 3053 
L 172 3053 
L 172 3500 
L 594 3500 
L 594 4494 
L 1172 4494 
z
" transform="scale(0.015625)"/>
       <path id="DejaVuSans-61" d="M 2194 1759 
Q 1497 1759 1228 1600 
Q 959 1441 959 1056 
Q 959 750 1161 570 
Q 1363 391 1709 391 
Q 2188 391 2477 730 
Q 2766 1069 2766 1631 
L 2766 1759 
L 2194 1759 
z
M 3341 1997 
L 3341 0 
L 2766 0 
L 2766 531 
Q 2569 213 2275 61 
Q 1981 -91 1556 -91 
Q 1019 -91 701 211 
Q 384 513 384 1019 
Q 384 1609 779 1909 
Q 1175 2209 1959 2209 
L 2766 2209 
L 2766 2266 
Q 2766 2663 2505 2880 
Q 2244 3097 1772 3097 
Q 1472 3097 1187 3025 
Q 903 2953 641 2809 
L 641 3341 
Q 956 3463 1253 3523 
Q 1550 3584 1831 3584 
Q 2591 3584 2966 3190 
Q 3341 2797 3341 1997 
z
" transform="scale(0.015625)"/>
       <path id="DejaVuSans-6e" d="M 3513 2113 
L 3513 0 
L 2938 0 
L 2938 2094 
Q 2938 2591 2744 2837 
Q 2550 3084 2163 3084 
Q 1697 3084 1428 2787 
Q 1159 2491 1159 1978 
L 1159 0 
L 581 0 
L 581 3500 
L 1159 3500 
L 1159 2956 
Q 1366 3272 1645 3428 
Q 1925 3584 2291 3584 
Q 2894 3584 3203 3211 
Q 3513 2838 3513 2113 
z
" transform="scale(0.015625)"/>
       <path id="DejaVuSans-63" d="M 3122 3366 
L 3122 2828 
Q 2878 2963 2633 3030 
Q 2388 3097 2138 3097 
Q 1578 3097 1268 2742 
Q 959 2388 959 1747 
Q 959 1106 1268 751 
Q 1578 397 2138 397 
Q 2388 397 2633 464 
Q 2878 531 3122 666 
L 3122 134 
Q 2881 22 2623 -34 
Q 2366 -91 2075 -91 
Q 1284 -91 818 406 
Q 353 903 353 1747 
Q 353 2603 823 3093 
Q 1294 3584 2113 3584 
Q 2378 3584 2631 3529 
Q 2884 3475 3122 3366 
z
" transform="scale(0.015625)"/>
       <path id="DejaVuSans-65" d="M 3597 1894 
L 3597 1613 
L 953 1613 
Q 991 1019 1311 708 
Q 1631 397 2203 397 
Q 2534 397 2845 478 
Q 3156 559 3463 722 
L 3463 178 
Q 3153 47 2828 -22 
Q 2503 -91 2169 -91 
Q 1331 -91 842 396 
Q 353 884 353 1716 
Q 353 2575 817 3079 
Q 1281 3584 2069 3584 
Q 2775 3584 3186 3129 
Q 3597 2675 3597 1894 
z
M 3022 2063 
Q 3016 2534 2758 2815 
Q 2500 3097 2075 3097 
Q 1594 3097 1305 2825 
Q 1016 2553 972 2059 
L 3022 2063 
z
" transform="scale(0.015625)"/>
       <path id="DejaVuSans-20" transform="scale(0.015625)"/>
       <path id="DejaVuSans-66" d="M 2375 4863 
L 2375 4384 
L 1825 4384 
Q 1516 4384 1395 4259 
Q 1275 4134 1275 3809 
L 1275 3500 
L 2222 3500 
L 2222 3053 
L 1275 3053 
L 1275 0 
L 697 0 
L 697 3053 
L 147 3053 
L 147 3500 
L 697 3500 
L 697 3744 
Q 697 4328 969 4595 
Q 1241 4863 1831 4863 
L 2375 4863 
z
" transform="scale(0.015625)"/>
       <path id="DejaVuSans-72" d="M 2631 2963 
Q 2534 3019 2420 3045 
Q 2306 3072 2169 3072 
Q 1681 3072 1420 2755 
Q 1159 2438 1159 1844 
L 1159 0 
L 581 0 
L 581 3500 
L 1159 3500 
L 1159 2956 
Q 1341 3275 1631 3429 
Q 1922 3584 2338 3584 
Q 2397 3584 2469 3576 
Q 2541 3569 2628 3553 
L 2631 2963 
z
" transform="scale(0.015625)"/>
       <path id="DejaVuSans-6f" d="M 1959 3097 
Q 1497 3097 1228 2736 
Q 959 2375 959 1747 
Q 959 1119 1226 758 
Q 1494 397 1959 397 
Q 2419 397 2687 759 
Q 2956 1122 2956 1747 
Q 2956 2369 2687 2733 
Q 2419 3097 1959 3097 
z
M 1959 3584 
Q 2709 3584 3137 3096 
Q 3566 2609 3566 1747 
Q 3566 888 3137 398 
Q 2709 -91 1959 -91 
Q 1206 -91 779 398 
Q 353 888 353 1747 
Q 353 2609 779 3096 
Q 1206 3584 1959 3584 
z
" transform="scale(0.015625)"/>
       <path id="DejaVuSans-6d" d="M 3328 2828 
Q 3544 3216 3844 3400 
Q 4144 3584 4550 3584 
Q 5097 3584 5394 3201 
Q 5691 2819 5691 2113 
L 5691 0 
L 5113 0 
L 5113 2094 
Q 5113 2597 4934 2840 
Q 4756 3084 4391 3084 
Q 3944 3084 3684 2787 
Q 3425 2491 3425 1978 
L 3425 0 
L 2847 0 
L 2847 2094 
Q 2847 2600 2669 2842 
Q 2491 3084 2119 3084 
Q 1678 3084 1418 2786 
Q 1159 2488 1159 1978 
L 1159 0 
L 581 0 
L 581 3500 
L 1159 3500 
L 1159 2956 
Q 1356 3278 1631 3431 
Q 1906 3584 2284 3584 
Q 2666 3584 2933 3390 
Q 3200 3197 3328 2828 
z
" transform="scale(0.015625)"/>
       <path id="DejaVuSans-75" d="M 544 1381 
L 544 3500 
L 1119 3500 
L 1119 1403 
Q 1119 906 1312 657 
Q 1506 409 1894 409 
Q 2359 409 2629 706 
Q 2900 1003 2900 1516 
L 2900 3500 
L 3475 3500 
L 3475 0 
L 2900 0 
L 2900 538 
Q 2691 219 2414 64 
Q 2138 -91 1772 -91 
Q 1169 -91 856 284 
Q 544 659 544 1381 
z
M 1991 3584 
L 1991 3584 
z
" transform="scale(0.015625)"/>
       <path id="DejaVuSans-5b" d="M 550 4863 
L 1875 4863 
L 1875 4416 
L 1125 4416 
L 1125 -397 
L 1875 -397 
L 1875 -844 
L 550 -844 
L 550 4863 
z
" transform="scale(0.015625)"/>
       <path id="DejaVuSans-5d" d="M 1947 4863 
L 1947 -844 
L 622 -844 
L 622 -397 
L 1369 -397 
L 1369 4416 
L 622 4416 
L 622 4863 
L 1947 4863 
z
" transform="scale(0.015625)"/>
      </defs>
      <use xlink:href="#DejaVuSans-44"/>
      <use xlink:href="#DejaVuSans-69" transform="translate(77.001953 0)"/>
      <use xlink:href="#DejaVuSans-73" transform="translate(104.785156 0)"/>
      <use xlink:href="#DejaVuSans-74" transform="translate(156.884766 0)"/>
      <use xlink:href="#DejaVuSans-61" transform="translate(196.09375 0)"/>
      <use xlink:href="#DejaVuSans-6e" transform="translate(257.373047 0)"/>
      <use xlink:href="#DejaVuSans-63" transform="translate(320.751953 0)"/>
      <use xlink:href="#DejaVuSans-65" transform="translate(375.732422 0)"/>
      <use xlink:href="#DejaVuSans-20" transform="translate(437.255859 0)"/>
      <use xlink:href="#DejaVuSans-66" transform="translate(469.042969 0)"/>
      <use xlink:href="#DejaVuSans-72" transform="translate(504.248047 0)"/>
      <use xlink:href="#DejaVuSans-6f" transform="translate(543.111328 0)"/>
      <use xlink:href="#DejaVuSans-6d" transform="translate(604.292969 0)"/>
      <use xlink:href="#DejaVuSans-20" transform="translate(701.705078 0)"/>
      <use xlink:href="#DejaVuSans-74" transform="translate(733.492188 0)"/>
      <use xlink:href="#DejaVuSans-65" transform="translate(772.701172 0)"/>
      <use xlink:href="#DejaVuSans-72" transform="translate(834.224609 0)"/>
      <use xlink:href="#DejaVuSans-6d" transform="translate(873.587891 0)"/>
      <use xlink:href="#DejaVuSans-69" transform="translate(971 0)"/>
      <use xlink:href="#DejaVuSans-6e" transform="translate(998.783203 0)"/>
      <use xlink:href="#DejaVuSans-75" transform="translate(1062.162109 0)"/>
      <use xlink:href="#DejaVuSans-73" transform="translate(1125.541016 0)"/>
      <use xlink:href="#DejaVuSans-20" transform="translate(1177.640625 0)"/>
      <use xlink:href="#DejaVuSans-5b" transform="translate(1209.427734 0)"/>
      <use xlink:href="#DejaVuSans-6e" transform="translate(1248.441406 0)"/>
      <use xlink:href="#DejaVuSans-74" transform="translate(1311.820312 0)"/>
      <use xlink:href="#DejaVuSans-5d" transform="translate(1351.029297 0)"/>
     </g>
    </g>
   </g>
   <g id="matplotlib.axis_2">
    <g id="ytick_1">
     <g id="line2d_19">
      <path d="M 46.965625 369.201818 
L 426.335625 369.201818 
" clip-path="url(#p85a82a8941)" style="fill: none; stroke-dasharray: 2.96,1.28; stroke-dashoffset: 0; stroke: #b0b0b0; stroke-opacity: 0.6; stroke-width: 0.8"/>
     </g>
     <g id="line2d_20">
      <defs>
       <path id="maaa966043e" d="M 0 0 
L -3.5 0 
" style="stroke: #000000; stroke-width: 0.8"/>
      </defs>
      <g>
       <use xlink:href="#maaa966043e" x="46.965625" y="369.201818" style="stroke: #000000; stroke-width: 0.8"/>
      </g>
     </g>
     <g id="text_11">
      <!-- 0 -->
      <g transform="translate(33.603125 373.001037) scale(0.1 -0.1)">
       <use xlink:href="#DejaVuSans-30"/>
      </g>
     </g>
    </g>
    <g id="ytick_2">
     <g id="line2d_21">
      <path d="M 46.965625 301.952734 
L 426.335625 301.952734 
" clip-path="url(#p85a82a8941)" style="fill: none; stroke-dasharray: 2.96,1.28; stroke-dashoffset: 0; stroke: #b0b0b0; stroke-opacity: 0.6; stroke-width: 0.8"/>
     </g>
     <g id="line2d_22">
      <g>
       <use xlink:href="#maaa966043e" x="46.965625" y="301.952734" style="stroke: #000000; stroke-width: 0.8"/>
      </g>
     </g>
     <g id="text_12">
      <!-- 20 -->
      <g transform="translate(27.240625 305.751953) scale(0.1 -0.1)">
       <use xlink:href="#DejaVuSans-32"/>
       <use xlink:href="#DejaVuSans-30" transform="translate(63.623047 0)"/>
      </g>
     </g>
    </g>
    <g id="ytick_3">
     <g id="line2d_23">
      <path d="M 46.965625 234.703651 
L 426.335625 234.703651 
" clip-path="url(#p85a82a8941)" style="fill: none; stroke-dasharray: 2.96,1.28; stroke-dashoffset: 0; stroke: #b0b0b0; stroke-opacity: 0.6; stroke-width: 0.8"/>
     </g>
     <g id="line2d_24">
      <g>
       <use xlink:href="#maaa966043e" x="46.965625" y="234.703651" style="stroke: #000000; stroke-width: 0.8"/>
      </g>
     </g>
     <g id="text_13">
      <!-- 40 -->
      <g transform="translate(27.240625 238.502869) scale(0.1 -0.1)">
       <use xlink:href="#DejaVuSans-34"/>
       <use xlink:href="#DejaVuSans-30" transform="translate(63.623047 0)"/>
      </g>
     </g>
    </g>
    <g id="ytick_4">
     <g id="line2d_25">
      <path d="M 46.965625 167.454567 
L 426.335625 167.454567 
" clip-path="url(#p85a82a8941)" style="fill: none; stroke-dasharray: 2.96,1.28; stroke-dashoffset: 0; stroke: #b0b0b0; stroke-opacity: 0.6; stroke-width: 0.8"/>
     </g>
     <g id="line2d_26">
      <g>
       <use xlink:href="#maaa966043e" x="46.965625" y="167.454567" style="stroke: #000000; stroke-width: 0.8"/>
      </g>
     </g>
     <g id="text_14">
      <!-- 60 -->
      <g transform="translate(27.240625 171.253785) scale(0.1 -0.1)">
       <use xlink:href="#DejaVuSans-36"/>
       <use xlink:href="#DejaVuSans-30" transform="translate(63.623047 0)"/>
      </g>
     </g>
    </g>
    <g id="ytick_5">
     <g id="line2d_27">
      <path d="M 46.965625 100.205483 
L 426.335625 100.205483 
" clip-path="url(#p85a82a8941)" style="fill: none; stroke-dasharray: 2.96,1.28; stroke-dashoffset: 0; stroke: #b0b0b0; stroke-opacity: 0.6; stroke-width: 0.8"/>
     </g>
     <g id="line2d_28">
      <g>
       <use xlink:href="#maaa966043e" x="46.965625" y="100.205483" style="stroke: #000000; stroke-width: 0.8"/>
      </g>
     </g>
     <g id="text_15">
      <!-- 80 -->
      <g transform="translate(27.240625 104.004702) scale(0.1 -0.1)">
       <use xlink:href="#DejaVuSans-38"/>
       <use xlink:href="#DejaVuSans-30" transform="translate(63.623047 0)"/>
      </g>
     </g>
    </g>
    <g id="ytick_6">
     <g id="line2d_29">
      <path d="M 46.965625 32.956399 
L 426.335625 32.956399 
" clip-path="url(#p85a82a8941)" style="fill: none; stroke-dasharray: 2.96,1.28; stroke-dashoffset: 0; stroke: #b0b0b0; stroke-opacity: 0.6; stroke-width: 0.8"/>
     </g>
     <g id="line2d_30">
      <g>
       <use xlink:href="#maaa966043e" x="46.965625" y="32.956399" style="stroke: #000000; stroke-width: 0.8"/>
      </g>
     </g>
     <g id="text_16">
      <!-- 100 -->
      <g transform="translate(20.878125 36.755618) scale(0.1 -0.1)">
       <use xlink:href="#DejaVuSans-31"/>
       <use xlink:href="#DejaVuSans-30" transform="translate(63.623047 0)"/>
       <use xlink:href="#DejaVuSans-30" transform="translate(127.246094 0)"/>
      </g>
     </g>
    </g>
    <g id="text_17">
     <!-- Average cumulative count -->
     <g transform="translate(14.798438 262.4325) rotate(-90) scale(0.1 -0.1)">
      <defs>
       <path id="DejaVuSans-41" d="M 2188 4044 
L 1331 1722 
L 3047 1722 
L 2188 4044 
z
M 1831 4666 
L 2547 4666 
L 4325 0 
L 3669 0 
L 3244 1197 
L 1141 1197 
L 716 0 
L 50 0 
L 1831 4666 
z
" transform="scale(0.015625)"/>
       <path id="DejaVuSans-76" d="M 191 3500 
L 800 3500 
L 1894 563 
L 2988 3500 
L 3597 3500 
L 2284 0 
L 1503 0 
L 191 3500 
z
" transform="scale(0.015625)"/>
       <path id="DejaVuSans-67" d="M 2906 1791 
Q 2906 2416 2648 2759 
Q 2391 3103 1925 3103 
Q 1463 3103 1205 2759 
Q 947 2416 947 1791 
Q 947 1169 1205 825 
Q 1463 481 1925 481 
Q 2391 481 2648 825 
Q 2906 1169 2906 1791 
z
M 3481 434 
Q 3481 -459 3084 -895 
Q 2688 -1331 1869 -1331 
Q 1566 -1331 1297 -1286 
Q 1028 -1241 775 -1147 
L 775 -588 
Q 1028 -725 1275 -790 
Q 1522 -856 1778 -856 
Q 2344 -856 2625 -561 
Q 2906 -266 2906 331 
L 2906 616 
Q 2728 306 2450 153 
Q 2172 0 1784 0 
Q 1141 0 747 490 
Q 353 981 353 1791 
Q 353 2603 747 3093 
Q 1141 3584 1784 3584 
Q 2172 3584 2450 3431 
Q 2728 3278 2906 2969 
L 2906 3500 
L 3481 3500 
L 3481 434 
z
" transform="scale(0.015625)"/>
       <path id="DejaVuSans-6c" d="M 603 4863 
L 1178 4863 
L 1178 0 
L 603 0 
L 603 4863 
z
" transform="scale(0.015625)"/>
      </defs>
      <use xlink:href="#DejaVuSans-41"/>
      <use xlink:href="#DejaVuSans-76" transform="translate(62.533203 0)"/>
      <use xlink:href="#DejaVuSans-65" transform="translate(121.712891 0)"/>
      <use xlink:href="#DejaVuSans-72" transform="translate(183.236328 0)"/>
      <use xlink:href="#DejaVuSans-61" transform="translate(224.349609 0)"/>
      <use xlink:href="#DejaVuSans-67" transform="translate(285.628906 0)"/>
      <use xlink:href="#DejaVuSans-65" transform="translate(349.105469 0)"/>
      <use xlink:href="#DejaVuSans-20" transform="translate(410.628906 0)"/>
      <use xlink:href="#DejaVuSans-63" transform="translate(442.416016 0)"/>
      <use xlink:href="#DejaVuSans-75" transform="translate(497.396484 0)"/>
      <use xlink:href="#DejaVuSans-6d" transform="translate(560.775391 0)"/>
      <use xlink:href="#DejaVuSans-75" transform="translate(658.1875 0)"/>
      <use xlink:href="#DejaVuSans-6c" transform="translate(721.566406 0)"/>
      <use xlink:href="#DejaVuSans-61" transform="translate(749.349609 0)"/>
      <use xlink:href="#DejaVuSans-74" transform="translate(810.628906 0)"/>
      <use xlink:href="#DejaVuSans-69" transform="translate(849.837891 0)"/>
      <use xlink:href="#DejaVuSans-76" transform="translate(877.621094 0)"/>
      <use xlink:href="#DejaVuSans-65" transform="translate(936.800781 0)"/>
      <use xlink:href="#DejaVuSans-20" transform="translate(998.324219 0)"/>
      <use xlink:href="#DejaVuSans-63" transform="translate(1030.111328 0)"/>
      <use xlink:href="#DejaVuSans-6f" transform="translate(1085.091797 0)"/>
      <use xlink:href="#DejaVuSans-75" transform="translate(1146.273438 0)"/>
      <use xlink:href="#DejaVuSans-6e" transform="translate(1209.652344 0)"/>
      <use xlink:href="#DejaVuSans-74" transform="translate(1273.03125 0)"/>
     </g>
    </g>
   </g>
   <g id="line2d_31">
    <path d="M 64.209716 367.632673 
L 64.252832 367.632673 
L 64.382178 366.960182 
L 64.554641 364.606464 
L 64.597756 364.494382 
L 64.770219 362.028583 
L 64.813335 361.804419 
L 64.985797 359.114456 
L 65.028913 358.890292 
L 65.201375 356.424492 
L 65.244491 356.200329 
L 65.416953 353.734529 
L 65.460069 353.622447 
L 65.632531 350.70832 
L 65.675647 350.596238 
L 65.848109 347.682111 
L 65.891225 347.457948 
L 66.106803 344.431739 
L 66.365497 340.508876 
L 68.133237 316.187124 
L 68.69374 309.12597 
L 69.814746 295.788235 
L 70.116555 292.649944 
L 70.935752 283.347155 
L 71.625602 275.501428 
L 71.884296 271.91481 
L 72.056758 270.569829 
L 72.315452 267.095293 
L 72.962186 259.249566 
L 73.307111 255.438785 
L 73.393342 254.54213 
L 73.867614 248.825958 
L 74.341886 244.00644 
L 74.471233 242.885622 
L 76.152742 226.297515 
L 76.195857 226.185433 
L 76.454551 223.383388 
L 76.971938 218.56387 
L 77.230632 216.098071 
L 77.273748 216.098071 
L 77.661788 212.399371 
L 77.704904 212.287289 
L 78.006713 209.709408 
L 78.437869 206.12279 
L 78.480985 206.010708 
L 78.739679 203.881154 
L 78.782794 203.881154 
L 79.127719 200.742863 
L 79.817569 194.578364 
L 79.990032 193.233382 
L 80.421188 189.758846 
L 80.766113 187.405128 
L 81.111038 184.827247 
L 81.197269 184.154756 
L 81.455963 181.576874 
L 81.628425 180.343974 
L 81.930234 177.654011 
L 82.059581 176.533193 
L 82.361391 173.84323 
L 82.490737 172.834493 
L 82.792547 170.14453 
L 83.094356 168.127058 
L 83.396165 165.549176 
L 83.956668 162.07464 
L 84.301593 159.60884 
L 84.689634 157.030959 
L 85.163906 154.116832 
L 85.250137 153.668505 
L 86.802299 145.150287 
L 87.060993 143.356978 
L 87.104108 143.356978 
L 87.707727 139.434115 
L 87.750843 139.434115 
L 91.200092 121.949353 
L 91.243208 121.949353 
L 91.286323 121.837272 
L 91.458786 121.052699 
L 91.501901 120.940617 
L 91.674364 120.156044 
L 91.760595 119.707717 
L 92.019289 118.474817 
L 92.10552 118.474817 
L 92.709139 115.896936 
L 92.752254 115.896936 
L 92.79537 115.784854 
L 92.967832 115.000281 
L 93.010948 114.8882 
L 93.18341 114.215709 
L 93.226526 114.103627 
L 93.355873 113.431136 
L 93.442104 113.206972 
L 93.571451 112.534482 
L 93.614567 112.534482 
L 93.657682 112.4224 
L 93.787029 111.637827 
L 93.830145 111.637827 
L 93.87326 111.525745 
L 94.002607 110.741173 
L 94.045723 110.741173 
L 94.088838 110.629091 
L 94.218185 109.844518 
L 94.261301 109.844518 
L 94.304416 109.732436 
L 94.433763 109.059946 
L 94.476879 109.059946 
L 94.519994 108.947864 
L 94.649341 108.387455 
L 94.692457 108.387455 
L 94.735573 108.275373 
L 94.864919 107.602882 
L 94.908035 107.602882 
L 94.951151 107.4908 
L 95.080497 106.706228 
L 95.123613 106.706228 
L 95.166729 106.594146 
L 95.296076 105.697491 
L 95.339191 105.697491 
L 95.382307 105.58541 
L 95.554769 104.912919 
L 95.641001 104.464592 
L 95.899694 103.680019 
L 96.977585 100.65381 
L 97.236278 99.869237 
L 97.279394 99.869237 
L 98.227938 97.179274 
L 98.486631 96.394702 
L 98.615978 96.394702 
L 99.866331 93.368493 
L 99.909447 93.368493 
L 100.513065 92.023511 
L 100.556181 92.023511 
L 100.944221 91.238938 
L 100.987337 91.238938 
L 101.332262 90.566448 
L 101.418493 90.566448 
L 101.763418 89.893957 
L 101.849649 89.893957 
L 102.194574 89.221466 
L 102.23769 89.221466 
L 102.496384 88.773139 
L 102.539499 88.773139 
L 102.711962 88.436893 
L 102.755077 88.436893 
L 102.92754 88.21273 
L 102.970655 88.21273 
L 103.100002 88.100648 
L 103.186233 88.100648 
L 103.358696 87.876484 
L 103.401812 87.876484 
L 103.574274 87.652321 
L 103.61739 87.652321 
L 103.746736 87.540239 
L 103.789852 87.540239 
L 104.091661 86.97983 
L 104.134777 86.97983 
L 104.307239 86.755666 
L 104.350355 86.755666 
L 104.522818 86.531503 
L 104.565933 86.531503 
L 104.738396 86.307339 
L 106.506136 86.307339 
L 106.635483 86.195257 
L 106.721714 86.195257 
L 106.851061 86.083175 
L 106.937292 86.083175 
L 107.066639 85.971094 
L 107.15287 85.971094 
L 107.282217 85.859012 
L 107.368448 85.859012 
L 107.497795 85.74693 
L 107.584026 85.74693 
L 107.713373 85.634848 
L 107.799604 85.634848 
L 107.928951 85.522766 
L 108.187645 85.522766 
L 108.360107 85.298603 
L 108.403223 85.298603 
L 108.53257 85.186521 
L 108.618801 85.186521 
L 108.748148 85.074439 
L 108.834379 85.074439 
L 108.963726 84.962357 
L 109.049957 84.962357 
L 109.179304 84.850275 
L 109.265535 84.850275 
L 109.394882 84.738194 
L 109.481113 84.738194 
L 109.61046 84.626112 
L 109.696692 84.626112 
L 109.869154 84.401948 
L 109.91227 84.401948 
L 110.084732 84.177785 
L 110.127848 84.177785 
L 110.257195 83.953621 
L 110.343426 83.953621 
L 110.472773 83.841539 
L 110.731466 83.841539 
L 110.860813 83.729457 
L 110.947044 83.729457 
L 111.076391 83.617376 
L 111.162623 83.617376 
L 111.291969 83.505294 
L 111.378201 83.505294 
L 111.507547 83.393212 
L 111.593779 83.393212 
L 111.723126 83.28113 
L 111.809357 83.28113 
L 111.938704 83.169048 
L 112.024935 83.169048 
L 112.154282 83.056967 
L 112.240513 83.056967 
L 112.36986 82.944885 
L 112.456091 82.944885 
L 112.585438 82.832803 
L 112.671669 82.832803 
L 112.801016 82.720721 
L 112.887247 82.720721 
L 113.016594 82.608639 
L 113.102825 82.608639 
L 113.232172 82.496558 
L 113.318403 82.496558 
L 113.44775 82.384476 
L 113.533981 82.384476 
L 113.663328 82.272394 
L 113.74956 82.272394 
L 113.878906 82.160312 
L 113.965138 82.160312 
L 114.094484 82.04823 
L 114.180716 82.04823 
L 114.310063 81.936148 
L 114.396294 81.936148 
L 114.525641 81.824067 
L 114.611872 81.824067 
L 114.741219 81.711985 
L 114.82745 81.711985 
L 114.956797 81.599903 
L 115.043028 81.599903 
L 115.172375 81.487821 
L 115.258606 81.487821 
L 115.387953 81.263658 
L 115.732878 81.263658 
L 115.862225 81.151576 
L 115.948456 81.151576 
L 116.077803 81.039494 
L 116.164034 81.039494 
L 116.293381 80.927412 
L 116.379612 80.927412 
L 116.508959 80.81533 
L 116.59519 80.81533 
L 116.724537 80.703249 
L 116.810768 80.703249 
L 116.940115 80.591167 
L 117.026346 80.591167 
L 117.155693 80.479085 
L 117.241924 80.479085 
L 117.371271 80.367003 
L 117.457503 80.367003 
L 117.586849 80.254921 
L 117.673081 80.254921 
L 117.802427 80.14284 
L 117.888659 80.14284 
L 118.018006 80.030758 
L 120.475596 80.030758 
L 120.604943 79.918676 
L 123.623036 79.918676 
L 123.752383 79.806594 
L 124.442232 79.806594 
L 124.571579 79.694512 
L 125.778817 79.694512 
L 125.908163 79.582431 
L 126.641129 79.582431 
L 126.770476 79.470349 
L 128.150176 79.470349 
L 128.279522 79.358267 
L 129.616106 79.358267 
L 129.745453 79.246185 
L 131.038922 79.246185 
L 131.168269 79.134103 
L 132.073697 79.134103 
L 132.203043 79.022022 
L 132.375506 79.022022 
L 132.504853 78.90994 
L 133.668974 78.90994 
L 133.798321 78.797858 
L 136.342143 78.797858 
L 136.47149 78.685776 
L 136.557721 78.685776 
L 136.730183 78.461612 
L 137.851189 78.461612 
L 137.980536 78.349531 
L 138.066767 78.349531 
L 138.196114 78.237449 
L 139.705161 78.237449 
L 139.834508 78.125367 
L 141.602248 78.125367 
L 141.731595 78.013285 
L 143.714913 78.013285 
L 143.84426 77.901203 
L 144.318532 77.901203 
L 144.447879 77.789122 
L 144.835919 77.789122 
L 144.965266 77.67704 
L 145.267075 77.67704 
L 145.396422 77.564958 
L 146.043156 77.564958 
L 146.172503 77.452876 
L 146.862353 77.452876 
L 146.9917 77.340794 
L 148.155822 77.340794 
L 148.328284 77.116631 
L 149.794215 77.116631 
L 149.923562 77.004549 
L 150.225371 77.004549 
L 150.354718 76.892467 
L 152.165574 76.892467 
L 152.338036 76.668304 
L 152.639846 76.668304 
L 152.769193 76.556222 
L 152.812308 76.556222 
L 152.941655 76.44414 
L 153.502158 76.44414 
L 153.631505 76.332058 
L 153.674621 76.332058 
L 153.803967 76.219976 
L 154.235124 76.219976 
L 154.36447 75.995813 
L 157.468795 75.995813 
L 157.598142 75.883731 
L 158.115529 75.883731 
L 158.244876 75.771649 
L 158.374223 75.771649 
L 158.50357 75.659567 
L 158.589801 75.659567 
L 158.719148 75.547486 
L 158.848495 75.547486 
L 158.977841 75.435404 
L 159.279651 75.435404 
L 159.408998 75.323322 
L 160.659351 75.323322 
L 160.788697 75.21124 
L 161.952819 75.21124 
L 162.082166 75.099158 
L 162.772016 75.099158 
L 162.901363 74.987076 
L 164.367294 74.987076 
L 164.49664 74.874995 
L 164.582872 74.874995 
L 164.712218 74.762913 
L 164.841565 74.762913 
L 164.970912 74.650831 
L 165.315837 74.650831 
L 165.445184 74.538749 
L 165.87634 74.538749 
L 166.005687 74.426667 
L 166.048803 74.426667 
L 166.178149 74.314586 
L 166.652421 74.314586 
L 166.781768 74.202504 
L 166.997346 74.202504 
L 167.126693 74.090422 
L 167.730312 74.090422 
L 167.859659 73.97834 
L 167.94589 73.97834 
L 168.161468 73.642095 
L 168.63574 73.642095 
L 168.808202 73.417931 
L 169.282474 73.417931 
L 169.411821 73.305849 
L 169.929208 73.305849 
L 170.058555 73.193768 
L 171.179561 73.193768 
L 171.308908 73.081686 
L 172.47303 73.081686 
L 172.602376 72.857522 
L 173.378457 72.857522 
L 173.507804 72.633359 
L 173.809614 72.633359 
L 173.982076 72.409195 
L 174.370117 72.409195 
L 174.542579 72.185031 
L 175.103082 72.185031 
L 175.232429 72.07295 
L 176.396551 72.07295 
L 176.525897 71.960868 
L 178.638563 71.960868 
L 178.76791 71.848786 
L 180.92369 71.848786 
L 181.096153 71.624622 
L 182.346506 71.624622 
L 182.475853 71.51254 
L 183.769321 71.51254 
L 183.898668 71.400459 
L 183.941784 71.400459 
L 184.07113 71.288377 
L 186.787414 71.288377 
L 186.959877 71.064213 
L 187.951536 71.064213 
L 188.080883 70.952131 
L 188.468923 70.952131 
L 188.59827 70.84005 
L 188.684501 70.84005 
L 188.813848 70.727968 
L 189.201889 70.727968 
L 189.374351 70.503804 
L 189.848623 70.503804 
L 189.97797 70.391722 
L 190.495357 70.391722 
L 190.624704 70.279641 
L 192.651138 70.279641 
L 192.780485 70.167559 
L 192.823601 70.167559 
L 192.952947 70.055477 
L 193.51345 70.055477 
L 193.642797 69.943395 
L 193.858375 69.943395 
L 193.987722 69.831313 
L 194.117069 69.831313 
L 194.246416 69.719232 
L 194.548225 69.719232 
L 194.677572 69.60715 
L 195.238075 69.60715 
L 195.410538 69.382986 
L 196.9627 69.382986 
L 197.092047 69.270904 
L 197.178278 69.270904 
L 197.307625 69.158823 
L 197.738781 69.158823 
L 197.868128 69.046741 
L 198.299284 69.046741 
L 198.428631 68.934659 
L 198.946018 68.934659 
L 199.075365 68.822577 
L 199.808331 68.822577 
L 199.937677 68.710495 
L 200.023909 68.710495 
L 200.153255 68.598414 
L 200.713758 68.598414 
L 200.843105 68.486332 
L 201.231146 68.486332 
L 201.360493 68.37425 
L 201.920996 68.37425 
L 202.050343 68.262168 
L 202.265921 68.262168 
L 202.395268 68.150086 
L 202.56773 68.150086 
L 202.697077 68.038004 
L 203.602505 68.038004 
L 203.731852 67.925923 
L 205.111551 67.925923 
L 205.284014 67.701759 
L 205.887632 67.701759 
L 206.016979 67.589677 
L 208.474569 67.589677 
L 208.603916 67.477595 
L 209.164419 67.477595 
L 209.293766 67.365514 
L 210.414772 67.365514 
L 210.544119 67.253432 
L 212.053166 67.253432 
L 212.182513 67.14135 
L 213.260403 67.14135 
L 213.38975 67.029268 
L 213.734675 67.029268 
L 213.864022 66.917186 
L 214.295178 66.917186 
L 214.424525 66.693023 
L 215.717993 66.693023 
L 215.84734 66.580941 
L 217.873774 66.580941 
L 218.003121 66.468859 
L 218.434277 66.468859 
L 218.563624 66.356777 
L 218.908549 66.356777 
L 219.037896 66.244696 
L 219.512167 66.244696 
L 219.641514 66.132614 
L 220.245133 66.132614 
L 220.37448 66.020532 
L 220.978098 66.020532 
L 221.193676 65.684287 
L 221.624833 65.684287 
L 221.797295 65.460123 
L 222.745839 65.460123 
L 222.875185 65.348041 
L 222.961417 65.348041 
L 223.090764 65.235959 
L 226.324435 65.235959 
L 226.453782 65.011796 
L 226.884938 65.011796 
L 227.014285 64.899714 
L 227.35921 64.899714 
L 227.488556 64.787632 
L 227.617903 64.787632 
L 227.74725 64.67555 
L 227.962828 64.67555 
L 228.092175 64.563468 
L 228.652678 64.563468 
L 228.782025 64.451387 
L 228.997603 64.451387 
L 229.12695 64.339305 
L 229.428759 64.339305 
L 229.601222 64.115141 
L 230.118609 64.115141 
L 230.247956 64.003059 
L 230.679112 64.003059 
L 230.808459 63.890978 
L 231.412078 63.890978 
L 231.541424 63.778896 
L 231.627656 63.778896 
L 231.757003 63.666814 
L 233.524743 63.666814 
L 233.65409 63.554732 
L 234.085246 63.554732 
L 234.214593 63.44265 
L 236.11168 63.44265 
L 236.241027 63.330569 
L 236.930877 63.330569 
L 237.060223 63.218487 
L 237.448264 63.218487 
L 237.577611 63.106405 
L 238.008767 63.106405 
L 238.138114 62.994323 
L 239.94897 62.994323 
L 240.078317 62.882241 
L 241.802941 62.882241 
L 241.932288 62.77016 
L 241.975404 62.77016 
L 242.104751 62.658078 
L 242.190982 62.658078 
L 242.363444 62.209751 
L 242.579022 62.209751 
L 242.708369 62.097669 
L 244.131185 62.097669 
L 244.260531 61.985587 
L 246.761237 61.985587 
L 246.890584 61.873505 
L 246.9337 61.873505 
L 247.063046 61.649342 
L 247.364856 61.649342 
L 247.580434 61.313096 
L 247.709781 61.313096 
L 247.839128 61.201014 
L 247.925359 61.201014 
L 248.054706 61.088932 
L 248.528977 61.088932 
L 248.70144 60.864769 
L 249.175712 60.864769 
L 249.348174 60.640605 
L 250.253602 60.640605 
L 250.382949 60.528523 
L 250.727874 60.528523 
L 250.900336 60.30436 
L 251.460839 60.30436 
L 251.590186 60.192278 
L 252.021342 60.192278 
L 252.193805 59.968114 
L 252.797423 59.968114 
L 252.969886 59.743951 
L 254.910089 59.743951 
L 255.039436 59.631869 
L 255.38436 59.631869 
L 255.513707 59.519787 
L 255.729285 59.519787 
L 255.858632 59.407705 
L 255.944863 59.407705 
L 256.07421 59.295624 
L 256.160442 59.295624 
L 256.289788 59.183542 
L 256.462251 59.183542 
L 256.591598 59.07146 
L 256.979638 59.07146 
L 257.152101 58.847296 
L 257.410794 58.847296 
L 257.540141 58.735215 
L 257.626373 58.735215 
L 257.798835 58.511051 
L 257.841951 58.511051 
L 258.014413 58.286887 
L 258.100644 58.286887 
L 258.229991 58.174806 
L 259.782153 58.174806 
L 259.9115 58.062724 
L 260.558234 58.062724 
L 260.687581 57.950642 
L 262.541553 57.950642 
L 262.714015 57.726478 
L 263.403865 57.726478 
L 263.533212 57.614397 
L 264.179946 57.614397 
L 264.309293 57.502315 
L 266.292611 57.502315 
L 266.421958 57.390233 
L 267.241155 57.390233 
L 267.370502 57.278151 
L 268.232814 57.278151 
L 268.362161 57.166069 
L 268.707086 57.166069 
L 268.836433 57.053987 
L 269.828092 57.053987 
L 269.957439 56.941906 
L 270.431711 56.941906 
L 270.604173 56.717742 
L 271.42337 56.717742 
L 271.552717 56.60566 
L 272.415029 56.60566 
L 272.587492 56.381497 
L 273.234226 56.381497 
L 273.363573 56.269415 
L 274.010307 56.269415 
L 274.139654 56.157333 
L 275.26066 56.157333 
L 275.390007 56.045251 
L 275.734932 56.045251 
L 275.864278 55.933169 
L 275.993625 55.933169 
L 276.122972 55.821088 
L 276.209203 55.821088 
L 276.33855 55.709006 
L 276.554128 55.709006 
L 276.683475 55.484842 
L 277.071516 55.484842 
L 277.287094 55.148597 
L 277.502672 55.148597 
L 277.675134 54.924433 
L 278.278753 54.924433 
L 278.4081 54.812351 
L 278.753025 54.812351 
L 278.882372 54.70027 
L 279.313528 54.70027 
L 279.442875 54.588188 
L 279.529106 54.588188 
L 279.658453 54.476106 
L 279.874031 54.476106 
L 280.003378 54.364024 
L 280.908806 54.364024 
L 281.038152 54.251942 
L 281.167499 54.251942 
L 281.339962 54.027779 
L 282.892124 54.027779 
L 283.021471 53.915697 
L 283.280164 53.915697 
L 283.409511 53.803615 
L 284.142477 53.803615 
L 284.271824 53.691533 
L 284.444286 53.691533 
L 284.659864 53.355288 
L 285.004789 53.355288 
L 285.134136 53.131124 
L 285.522177 53.131124 
L 285.737755 52.794879 
L 285.953333 52.794879 
L 286.168911 52.458633 
L 288.065998 52.458633 
L 288.195345 52.346552 
L 288.755848 52.346552 
L 288.885195 52.23447 
L 289.531929 52.23447 
L 289.661276 52.122388 
L 289.747507 52.122388 
L 289.876854 52.010306 
L 289.919969 52.010306 
L 290.049316 51.898224 
L 291.730825 51.898224 
L 291.860172 51.786143 
L 292.808716 51.786143 
L 292.981178 51.561979 
L 293.886606 51.561979 
L 294.015953 51.449897 
L 294.53334 51.449897 
L 294.662687 51.337815 
L 294.705803 51.337815 
L 294.83515 51.225734 
L 295.22319 51.225734 
L 295.395653 51.00157 
L 296.473543 51.00157 
L 296.60289 50.889488 
L 297.378971 50.889488 
L 297.508318 50.777406 
L 298.499977 50.777406 
L 298.629324 50.665325 
L 298.715555 50.665325 
L 298.844902 50.553243 
L 300.483296 50.553243 
L 300.785105 49.992834 
L 301.259377 49.992834 
L 301.388724 49.880752 
L 302.337267 49.880752 
L 302.466614 49.76867 
L 303.156464 49.76867 
L 303.328926 49.544506 
L 303.716967 49.544506 
L 303.846314 49.432425 
L 304.105007 49.432425 
L 304.234354 49.320343 
L 304.622395 49.320343 
L 304.751742 49.208261 
L 304.837973 49.208261 
L 304.96732 49.096179 
L 305.139782 49.096179 
L 305.269129 48.984097 
L 305.527823 48.984097 
L 305.700285 48.759934 
L 305.829632 48.759934 
L 306.002095 48.423688 
L 306.174557 48.423688 
L 306.303904 48.311607 
L 306.605713 48.311607 
L 306.778176 48.087443 
L 306.950638 48.087443 
L 307.079985 47.975361 
L 307.899182 47.975361 
L 308.028528 47.863279 
L 308.589032 47.863279 
L 308.718378 47.751198 
L 308.933956 47.751198 
L 309.063303 47.639116 
L 309.149535 47.639116 
L 309.321997 47.414952 
L 310.443003 47.414952 
L 310.57235 47.30287 
L 310.701697 47.30287 
L 310.831044 47.190789 
L 311.003506 47.190789 
L 311.219084 46.854543 
L 311.65024 46.854543 
L 311.779587 46.742461 
L 312.512553 46.742461 
L 312.641899 46.630379 
L 313.02994 46.630379 
L 313.159287 46.518298 
L 313.288634 46.518298 
L 313.417981 46.406216 
L 313.590443 46.406216 
L 313.71979 46.294134 
L 313.978484 46.294134 
L 314.150946 46.06997 
L 314.323409 46.06997 
L 314.495871 45.845807 
L 314.668333 45.845807 
L 314.79768 45.733725 
L 315.056374 45.733725 
L 315.228836 45.509561 
L 316.306727 45.509561 
L 316.479189 45.285398 
L 317.039692 45.285398 
L 317.169039 45.173316 
L 318.893664 45.173316 
L 319.023011 45.061234 
L 319.152358 45.061234 
L 319.281704 44.949152 
L 319.454167 44.949152 
L 319.583514 44.837071 
L 321.09256 44.837071 
L 321.265023 44.612907 
L 321.739295 44.612907 
L 321.868641 44.500825 
L 322.817185 44.500825 
L 322.946532 44.388743 
L 323.679497 44.388743 
L 323.808844 44.276662 
L 323.981307 44.276662 
L 324.110654 44.16458 
L 324.757388 44.16458 
L 324.972966 43.828334 
L 326.826937 43.828334 
L 326.956284 43.716253 
L 327.042515 43.716253 
L 327.171862 43.604171 
L 329.025834 43.604171 
L 329.155181 43.492089 
L 329.500106 43.492089 
L 329.672568 43.267925 
L 330.664227 43.267925 
L 330.879805 42.93168 
L 331.569655 42.93168 
L 331.699002 42.819598 
L 332.087043 42.819598 
L 332.259505 42.595434 
L 332.345736 42.595434 
L 332.518199 42.371271 
L 333.251164 42.371271 
L 333.423627 42.147107 
L 333.811667 42.147107 
L 333.941014 42.035025 
L 334.156592 42.035025 
L 334.285939 41.922944 
L 334.544633 41.922944 
L 334.67398 41.810862 
L 334.717095 41.810862 
L 334.846442 41.69878 
L 334.932673 41.69878 
L 335.06202 41.586698 
L 335.277598 41.586698 
L 335.450061 41.362535 
L 335.75187 41.362535 
L 335.881217 41.138371 
L 336.312373 41.138371 
L 336.44172 41.026289 
L 336.872876 41.026289 
L 337.002223 40.914207 
L 337.476495 40.914207 
L 337.605842 40.802126 
L 337.692073 40.802126 
L 337.82142 40.690044 
L 337.993882 40.690044 
L 338.123229 40.577962 
L 338.726848 40.577962 
L 338.856194 40.46588 
L 339.201119 40.46588 
L 339.373582 40.241717 
L 339.546044 40.241717 
L 339.675391 40.129635 
L 340.020316 40.129635 
L 340.149663 40.017553 
L 340.192779 40.017553 
L 340.322125 39.905471 
L 340.537703 39.905471 
L 340.66705 39.793389 
L 342.262328 39.793389 
L 342.391675 39.681307 
L 342.607253 39.681307 
L 342.779716 39.457144 
L 342.995294 39.457144 
L 343.124641 39.23298 
L 343.167756 39.23298 
L 343.297103 39.120898 
L 343.383334 39.120898 
L 343.512681 39.008817 
L 343.857606 39.008817 
L 343.986953 38.896735 
L 344.1163 38.896735 
L 344.288762 38.672571 
L 344.547456 38.672571 
L 344.676803 38.560489 
L 345.323537 38.560489 
L 345.452884 38.448408 
L 347.220624 38.448408 
L 347.349971 38.336326 
L 348.039821 38.336326 
L 348.169168 38.224244 
L 348.298515 38.224244 
L 348.427861 38.112162 
L 348.686555 38.112162 
L 348.815902 38.00008 
L 349.203942 38.00008 
L 349.333289 37.887999 
L 349.505752 37.887999 
L 349.635099 37.775917 
L 351.10103 37.775917 
L 351.230376 37.663835 
L 352.049573 37.663835 
L 352.17892 37.551753 
L 352.911885 37.551753 
L 353.127464 37.215508 
L 353.644851 37.215508 
L 353.774198 37.103426 
L 353.860429 37.103426 
L 353.989776 36.991344 
L 355.024551 36.991344 
L 355.197013 36.767181 
L 356.921638 36.767181 
L 357.050985 36.655099 
L 357.309678 36.655099 
L 357.439025 36.543017 
L 357.697719 36.543017 
L 357.827066 36.430935 
L 358.560031 36.430935 
L 358.689378 36.318853 
L 358.775609 36.318853 
L 358.904956 36.206771 
L 358.991187 36.206771 
L 359.120534 36.09469 
L 359.594806 36.09469 
L 359.724153 35.982608 
L 359.8535 35.982608 
L 359.982847 35.870526 
L 360.155309 35.870526 
L 360.284656 35.758444 
L 360.54335 35.758444 
L 360.672697 35.646362 
L 361.2332 35.646362 
L 361.405662 35.422199 
L 361.535009 35.422199 
L 361.664356 35.310117 
L 362.095512 35.310117 
L 362.224859 35.198035 
L 362.31109 35.198035 
L 362.440437 35.085953 
L 362.483552 35.085953 
L 362.612899 34.973872 
L 363.604558 34.973872 
L 363.777021 34.637626 
L 363.906368 34.525544 
L 363.949483 34.525544 
L 364.07883 34.413463 
L 364.294408 34.413463 
L 364.466871 34.189299 
L 364.682449 34.189299 
L 364.811796 34.077217 
L 365.156721 34.077217 
L 365.286067 33.965135 
L 365.760339 33.965135 
L 365.889686 33.853054 
L 366.320842 33.853054 
L 366.450189 33.740972 
L 367.010692 33.740972 
L 367.140039 33.62889 
L 367.22627 33.62889 
L 367.355617 33.516808 
L 367.52808 33.516808 
L 367.657426 33.404726 
L 367.91612 33.404726 
L 368.088583 33.180563 
L 368.304161 33.180563 
L 368.433508 33.068481 
L 368.60597 33.068481 
L 368.735317 32.844317 
L 370.546173 32.844317 
L 370.718635 32.620154 
L 370.934213 32.620154 
L 371.06356 32.508072 
L 372.055219 32.508072 
L 372.270797 32.171826 
L 372.400144 32.171826 
L 372.529491 32.059745 
L 372.572607 32.059745 
L 372.701954 31.947663 
L 372.874416 31.947663 
L 373.003763 31.835581 
L 373.089994 31.835581 
L 373.219341 31.723499 
L 373.607382 31.723499 
L 373.736728 31.611417 
L 374.771503 31.611417 
L 374.90085 31.499336 
L 376.366781 31.499336 
L 376.496128 31.387254 
L 377.099746 31.387254 
L 377.229093 31.275172 
L 377.487787 31.275172 
L 377.617134 31.16309 
L 379.12618 31.16309 
L 379.255527 31.051008 
L 380.419649 31.051008 
L 380.548996 30.826845 
L 380.850805 30.826845 
L 380.980152 30.714763 
L 381.023268 30.714763 
L 381.152614 30.602681 
L 381.626886 30.602681 
L 381.756233 30.490599 
L 383.049702 30.490599 
L 383.222164 30.266436 
L 384.946789 30.266436 
L 385.076136 30.154354 
L 385.593523 30.154354 
L 385.72287 30.042272 
L 385.895332 30.042272 
L 386.024679 29.93019 
L 386.240257 29.93019 
L 386.369604 29.818109 
L 387.059454 29.818109 
L 387.188801 29.706027 
L 387.619957 29.706027 
L 387.792419 29.369781 
L 388.87031 29.369781 
L 389.042772 29.145618 
L 389.301466 29.145618 
L 389.430813 29.033536 
L 390.077547 29.033536 
L 390.206894 28.921454 
L 390.379356 28.921454 
L 390.508703 28.809372 
L 390.681166 28.809372 
L 390.810513 28.69729 
L 391.629709 28.69729 
L 391.802172 28.473127 
L 392.319559 28.473127 
L 392.492022 28.248963 
L 392.836947 28.248963 
L 393.052525 27.912718 
L 393.138756 27.912718 
L 393.268103 27.800636 
L 393.483681 27.800636 
L 393.613028 27.688554 
L 394.001068 27.688554 
L 394.173531 27.464391 
L 394.690918 27.464391 
L 394.820265 27.352309 
L 395.510115 27.352309 
L 395.682577 27.128145 
L 396.070618 27.128145 
L 396.24308 26.7919 
L 396.889815 26.7919 
L 397.019161 26.679818 
L 397.234739 26.679818 
L 397.364086 26.567736 
L 398.70067 26.567736 
L 398.873133 26.343573 
L 399.174942 26.343573 
L 399.304289 26.231491 
L 400.166601 26.231491 
L 400.295948 26.119409 
L 400.640873 26.119409 
L 400.813336 25.895245 
L 400.899567 25.895245 
L 401.028914 25.783163 
L 401.330723 25.783163 
L 401.503186 25.559 
L 401.589417 25.559 
L 401.718764 25.446918 
L 401.934342 25.446918 
L 402.063689 25.334836 
L 402.451729 25.334836 
L 402.581076 25.222754 
L 405.383591 25.222754 
L 405.512938 25.110673 
L 405.6854 25.110673 
L 405.900978 24.774427 
L 407.151331 24.774427 
L 407.280678 24.662345 
L 407.927412 24.662345 
L 408.056759 24.550264 
L 408.660378 24.550264 
L 408.789725 24.438182 
L 409.091534 24.438182 
L 409.091534 24.438182 
" clip-path="url(#p85a82a8941)" style="fill: none; stroke: #add8e6; stroke-width: 2; stroke-linecap: square"/>
   </g>
   <g id="line2d_32">
    <path d="M 64.209716 369.201818 
L 121.337908 369.201818 
L 121.467255 369.089736 
L 125.865048 369.089736 
L 125.994395 368.977655 
L 127.374094 368.977655 
L 127.503441 368.865573 
L 142.033404 368.865573 
L 142.162751 368.753491 
L 142.981948 368.753491 
L 143.111295 368.641409 
L 149.923562 368.641409 
L 150.052909 368.529327 
L 151.21703 368.529327 
L 151.346377 368.417246 
L 156.994523 368.417246 
L 157.12387 368.305164 
L 163.030709 368.305164 
L 163.160056 368.193082 
L 163.591212 368.193082 
L 163.720559 368.081 
L 163.763675 368.081 
L 163.893022 367.968918 
L 164.367294 367.968918 
L 164.49664 367.856837 
L 165.660762 367.856837 
L 165.790109 367.744755 
L 167.730312 367.744755 
L 167.859659 367.632673 
L 170.187902 367.632673 
L 170.317249 367.408509 
L 171.610717 367.408509 
L 171.740064 367.296427 
L 184.502287 367.296427 
L 184.674749 367.072264 
L 186.226911 367.072264 
L 186.356258 366.960182 
L 186.399374 366.960182 
L 186.528721 366.8481 
L 187.002992 366.8481 
L 187.132339 366.736018 
L 187.563495 366.736018 
L 187.692842 366.623937 
L 188.21023 366.623937 
L 188.339576 366.511855 
L 190.538473 366.511855 
L 190.66782 366.399773 
L 191.228323 366.399773 
L 191.35767 366.287691 
L 191.573248 366.287691 
L 191.702595 366.175609 
L 191.831941 366.175609 
L 191.961288 366.063528 
L 197.738781 366.063528 
L 197.868128 365.951446 
L 201.317377 365.951446 
L 201.446724 365.839364 
L 210.975275 365.839364 
L 211.104622 365.727282 
L 212.01005 365.727282 
L 212.139397 365.6152 
L 215.588646 365.6152 
L 215.717993 365.503119 
L 216.149149 365.503119 
L 216.278496 365.391037 
L 216.623421 365.391037 
L 216.752768 365.278955 
L 217.22704 365.278955 
L 217.356387 365.166873 
L 217.960005 365.166873 
L 218.089352 365.054791 
L 218.865433 365.054791 
L 218.99478 364.94271 
L 219.339705 364.94271 
L 219.469052 364.830628 
L 220.676289 364.830628 
L 220.805636 364.718546 
L 225.332776 364.718546 
L 225.462122 364.606464 
L 226.712475 364.606464 
L 226.841822 364.494382 
L 231.239615 364.494382 
L 231.368962 364.382301 
L 231.800118 364.382301 
L 231.929465 364.270219 
L 239.517814 364.270219 
L 239.64716 364.158137 
L 240.035201 364.158137 
L 240.164548 364.046055 
L 244.648572 364.046055 
L 244.777919 363.933973 
L 245.209075 363.933973 
L 245.338422 363.821891 
L 245.424653 363.821891 
L 245.554 363.70981 
L 245.683347 363.70981 
L 245.812694 363.597728 
L 246.24385 363.597728 
L 246.416312 363.373564 
L 246.890584 363.373564 
L 247.063046 363.149401 
L 249.77933 363.149401 
L 249.908677 363.037319 
L 252.150689 363.037319 
L 252.280036 362.925237 
L 253.444158 362.925237 
L 253.573505 362.813155 
L 255.556823 362.813155 
L 255.68617 362.701073 
L 257.497026 362.701073 
L 257.626373 362.588992 
L 267.542964 362.588992 
L 267.672311 362.47691 
L 268.146583 362.47691 
L 268.27593 362.364828 
L 269.138242 362.364828 
L 269.267589 362.252746 
L 270.173017 362.252746 
L 270.302364 362.140664 
L 273.449804 362.140664 
L 273.579151 362.028583 
L 273.708498 362.028583 
L 273.837844 361.916501 
L 273.924076 361.916501 
L 274.053423 361.804419 
L 274.269001 361.804419 
L 274.398347 361.580255 
L 274.786388 361.580255 
L 275.001966 361.24401 
L 275.217544 361.24401 
L 275.390007 361.019846 
L 278.839256 361.019846 
L 279.011718 360.795683 
L 280.995037 360.795683 
L 281.124384 360.683601 
L 283.797552 360.683601 
L 283.926899 360.571519 
L 285.78087 360.571519 
L 285.910217 360.459437 
L 290.523588 360.459437 
L 290.652935 360.347355 
L 291.601479 360.347355 
L 291.730825 360.235274 
L 292.420675 360.235274 
L 292.550022 360.123192 
L 292.981178 360.123192 
L 293.110525 360.01111 
L 295.093843 360.01111 
L 295.22319 359.899028 
L 296.21485 359.899028 
L 296.344196 359.786946 
L 298.198168 359.786946 
L 298.327515 359.674865 
L 298.413746 359.674865 
L 298.586208 359.450701 
L 300.914452 359.450701 
L 301.043799 359.338619 
L 301.81988 359.338619 
L 301.949227 359.226537 
L 302.337267 359.226537 
L 302.466614 359.114456 
L 302.552845 359.114456 
L 302.682192 359.002374 
L 302.854654 359.002374 
L 302.984001 358.890292 
L 303.242695 358.890292 
L 303.415157 358.666128 
L 303.58762 358.666128 
L 303.716967 358.554047 
L 303.889429 358.554047 
L 304.018776 358.441965 
L 304.320585 358.441965 
L 304.493048 358.217801 
L 306.303904 358.217801 
L 306.433251 358.105719 
L 308.157875 358.105719 
L 308.287222 357.993638 
L 308.416569 357.993638 
L 308.545916 357.881556 
L 308.718378 357.881556 
L 308.847725 357.769474 
L 312.081396 357.769474 
L 312.210743 357.657392 
L 314.021599 357.657392 
L 314.150946 357.54531 
L 318.807433 357.54531 
L 318.93678 357.433229 
L 321.39437 357.433229 
L 321.523717 357.321147 
L 321.696179 357.321147 
L 321.825526 357.209065 
L 322.515376 357.209065 
L 322.687838 356.984901 
L 324.326232 356.984901 
L 324.455578 356.872819 
L 324.54181 356.872819 
L 324.671157 356.760738 
L 326.740706 356.760738 
L 326.870053 356.648656 
L 327.258094 356.648656 
L 327.38744 356.536574 
L 328.465331 356.536574 
L 328.637793 356.31241 
L 329.284528 356.31241 
L 329.413874 356.200329 
L 329.801915 356.200329 
L 329.931262 356.088247 
L 331.52654 356.088247 
L 331.655886 355.976165 
L 331.871465 355.976165 
L 332.000811 355.864083 
L 332.259505 355.864083 
L 332.431968 355.63992 
L 332.647546 355.63992 
L 332.776892 355.527838 
L 333.121817 355.527838 
L 333.251164 355.415756 
L 333.466742 355.415756 
L 333.596089 355.191592 
L 334.587748 355.191592 
L 334.717095 355.079511 
L 336.44172 355.079511 
L 336.571067 354.967429 
L 337.260917 354.967429 
L 337.390263 354.855347 
L 337.864535 354.855347 
L 337.993882 354.743265 
L 340.365241 354.743265 
L 340.494588 354.631183 
L 342.262328 354.631183 
L 342.391675 354.519102 
L 343.038409 354.519102 
L 343.167756 354.40702 
L 346.918815 354.40702 
L 347.048162 354.294938 
L 349.764445 354.294938 
L 349.893792 354.182856 
L 350.626758 354.182856 
L 350.756105 354.070774 
L 350.79922 354.070774 
L 350.928567 353.958693 
L 351.575301 353.958693 
L 351.704648 353.846611 
L 352.86877 353.846611 
L 352.998117 353.734529 
L 355.024551 353.734529 
L 355.153898 353.622447 
L 356.274904 353.622447 
L 356.40425 353.510365 
L 356.490482 353.510365 
L 356.619829 353.398283 
L 357.309678 353.398283 
L 357.439025 353.286202 
L 357.568372 353.286202 
L 357.697719 353.17412 
L 357.870181 353.17412 
L 357.999528 353.062038 
L 359.810384 353.062038 
L 359.939731 352.949956 
L 360.198425 352.949956 
L 360.327772 352.837874 
L 361.319431 352.837874 
L 361.535009 352.501629 
L 361.664356 352.501629 
L 361.793703 352.389547 
L 362.138627 352.389547 
L 362.267974 352.277465 
L 362.397321 352.277465 
L 362.526668 352.165384 
L 362.871593 352.165384 
L 363.00094 352.053302 
L 364.035715 352.053302 
L 364.165061 351.94122 
L 365.674108 351.94122 
L 365.803455 351.829138 
L 366.320842 351.829138 
L 366.450189 351.717056 
L 368.390392 351.717056 
L 368.519739 351.604975 
L 370.287479 351.604975 
L 370.416826 351.492893 
L 375.202659 351.492893 
L 375.332006 351.380811 
L 378.134521 351.380811 
L 378.263868 351.156647 
L 378.565677 351.156647 
L 378.695024 351.044566 
L 379.341759 351.044566 
L 379.471105 350.932484 
L 380.893921 350.932484 
L 381.023268 350.820402 
L 383.308395 350.820402 
L 383.437742 350.70832 
L 383.95513 350.70832 
L 384.084476 350.596238 
L 384.817442 350.596238 
L 384.946789 350.484157 
L 385.334829 350.484157 
L 385.507292 350.147911 
L 385.593523 350.147911 
L 385.72287 350.035829 
L 388.094229 350.035829 
L 388.223576 349.923747 
L 388.396038 349.923747 
L 388.525385 349.811666 
L 389.430813 349.811666 
L 389.56016 349.699584 
L 390.034431 349.699584 
L 390.206894 349.47542 
L 390.63805 349.47542 
L 390.767397 349.251257 
L 390.853628 349.251257 
L 390.982975 349.139175 
L 391.198553 349.139175 
L 391.3279 349.027093 
L 391.672825 349.027093 
L 391.802172 348.915011 
L 394.647802 348.915011 
L 394.777149 348.802929 
L 394.949612 348.802929 
L 395.078959 348.690848 
L 395.725693 348.690848 
L 395.85504 348.578766 
L 396.415543 348.578766 
L 396.54489 348.466684 
L 398.355746 348.466684 
L 398.485092 348.354602 
L 403.443388 348.354602 
L 403.572735 348.24252 
L 405.642285 348.24252 
L 405.771632 348.130439 
L 406.37525 348.130439 
L 406.504597 348.018357 
L 407.582488 348.018357 
L 407.711834 347.906275 
L 408.401684 347.906275 
L 408.531031 347.794193 
L 409.091534 347.794193 
L 409.091534 347.794193 
" clip-path="url(#p85a82a8941)" style="fill: none; stroke: #6495ed; stroke-width: 2; stroke-linecap: square"/>
   </g>
   <g id="line2d_33">
    <path d="M 64.209716 369.201818 
L 82.361391 369.201818 
L 82.490737 369.089736 
L 85.034559 369.089736 
L 85.163906 368.977655 
L 85.853756 368.977655 
L 85.983102 368.865573 
L 88.397577 368.865573 
L 88.526924 368.753491 
L 95.684116 368.753491 
L 95.813463 368.641409 
L 99.392059 368.641409 
L 99.521406 368.529327 
L 102.022112 368.529327 
L 102.151459 368.417246 
L 102.62573 368.417246 
L 102.755077 368.305164 
L 104.134777 368.305164 
L 104.264124 368.193082 
L 104.436586 368.193082 
L 104.565933 368.081 
L 105.730055 368.081 
L 105.859402 367.968918 
L 108.058298 367.968918 
L 108.187645 367.856837 
L 117.802427 367.856837 
L 117.931774 367.744755 
L 120.777405 367.744755 
L 120.906752 367.632673 
L 126.03751 367.632673 
L 126.166857 367.520591 
L 128.020829 367.520591 
L 128.150176 367.408509 
L 131.94435 367.408509 
L 132.073697 367.296427 
L 133.884553 367.296427 
L 134.013899 367.184346 
L 135.910987 367.184346 
L 136.040333 366.960182 
L 139.403351 366.960182 
L 139.532698 366.8481 
L 139.748276 366.8481 
L 139.877623 366.736018 
L 141.77471 366.736018 
L 141.904057 366.623937 
L 145.439538 366.623937 
L 145.568885 366.511855 
L 149.837331 366.511855 
L 149.966678 366.399773 
L 153.027886 366.399773 
L 153.157233 366.287691 
L 158.20176 366.287691 
L 158.331107 366.175609 
L 159.495229 366.175609 
L 159.624576 366.063528 
L 160.400657 366.063528 
L 160.530004 365.951446 
L 164.410409 365.951446 
L 164.539756 365.839364 
L 174.327001 365.839364 
L 174.456348 365.727282 
L 174.499463 365.727282 
L 174.62881 365.6152 
L 176.957054 365.6152 
L 177.0864 365.503119 
L 181.91535 365.503119 
L 182.044696 365.391037 
L 182.777662 365.391037 
L 182.907009 365.278955 
L 183.769321 365.278955 
L 183.898668 365.166873 
L 190.236664 365.166873 
L 190.36601 365.054791 
L 195.151844 365.054791 
L 195.281191 364.94271 
L 195.410538 364.94271 
L 195.539884 364.830628 
L 195.841694 364.830628 
L 195.971041 364.718546 
L 198.514862 364.718546 
L 198.644209 364.606464 
L 199.851446 364.606464 
L 199.980793 364.494382 
L 208.215876 364.494382 
L 208.345223 364.382301 
L 210.371657 364.382301 
L 210.501003 364.270219 
L 212.958594 364.270219 
L 213.08794 364.158137 
L 213.77779 364.158137 
L 213.907137 364.046055 
L 222.055989 364.046055 
L 222.185336 363.933973 
L 225.850163 363.933973 
L 225.97951 363.821891 
L 228.4371 363.821891 
L 228.566447 363.70981 
L 238.051883 363.70981 
L 238.181229 363.597728 
L 245.295306 363.597728 
L 245.424653 363.485646 
L 249.822446 363.485646 
L 249.951793 363.373564 
L 258.661147 363.373564 
L 258.790494 363.261482 
L 260.515119 363.261482 
L 260.644466 363.149401 
L 270.345479 363.149401 
L 270.474826 363.037319 
L 320.316479 363.037319 
L 320.445826 362.925237 
L 409.091534 362.925237 
L 409.091534 362.925237 
" clip-path="url(#p85a82a8941)" style="fill: none; stroke: #00008b; stroke-width: 2; stroke-linecap: square"/>
   </g>
   <g id="line2d_34">
    <path d="M 64.209716 369.201818 
L 409.091534 369.201818 
L 409.091534 369.201818 
" clip-path="url(#p85a82a8941)" style="fill: none; stroke: #2f4f4f; stroke-width: 2; stroke-linecap: square"/>
   </g>
   <g id="patch_3">
    <path d="M 46.965625 386.44 
L 46.965625 7.2 
" style="fill: none; stroke: #000000; stroke-width: 0.8; stroke-linejoin: miter; stroke-linecap: square"/>
   </g>
   <g id="patch_4">
    <path d="M 426.335625 386.44 
L 426.335625 7.2 
" style="fill: none; stroke: #000000; stroke-width: 0.8; stroke-linejoin: miter; stroke-linecap: square"/>
   </g>
   <g id="patch_5">
    <path d="M 46.965625 386.44 
L 426.335625 386.44 
" style="fill: none; stroke: #000000; stroke-width: 0.8; stroke-linejoin: miter; stroke-linecap: square"/>
   </g>
   <g id="patch_6">
    <path d="M 46.965625 7.2 
L 426.335625 7.2 
" style="fill: none; stroke: #000000; stroke-width: 0.8; stroke-linejoin: miter; stroke-linecap: square"/>
   </g>
   <g id="legend_1">
    <g id="patch_7">
     <path d="M 433.335625 88.590625 
L 558.685625 88.590625 
Q 560.685625 88.590625 560.685625 86.590625 
L 560.685625 14.2 
Q 560.685625 12.2 558.685625 12.2 
L 433.335625 12.2 
Q 431.335625 12.2 431.335625 14.2 
L 431.335625 86.590625 
Q 431.335625 88.590625 433.335625 88.590625 
z
" style="fill: #ffffff; opacity: 0.8; stroke: #cccccc; stroke-linejoin: miter"/>
    </g>
    <g id="text_18">
     <!-- Motifs &amp; orientation -->
     <g transform="translate(446.495 23.798437) scale(0.1 -0.1)">
      <defs>
       <path id="DejaVuSans-4d" d="M 628 4666 
L 1569 4666 
L 2759 1491 
L 3956 4666 
L 4897 4666 
L 4897 0 
L 4281 0 
L 4281 4097 
L 3078 897 
L 2444 897 
L 1241 4097 
L 1241 0 
L 628 0 
L 628 4666 
z
" transform="scale(0.015625)"/>
       <path id="DejaVuSans-26" d="M 1556 2509 
Q 1272 2256 1139 2004 
Q 1006 1753 1006 1478 
Q 1006 1022 1337 719 
Q 1669 416 2169 416 
Q 2466 416 2725 514 
Q 2984 613 3213 813 
L 1556 2509 
z
M 1997 2859 
L 3584 1234 
Q 3769 1513 3872 1830 
Q 3975 2147 3994 2503 
L 4575 2503 
Q 4538 2091 4375 1687 
Q 4213 1284 3922 891 
L 4794 0 
L 4006 0 
L 3559 459 
Q 3234 181 2878 45 
Q 2522 -91 2113 -91 
Q 1359 -91 881 339 
Q 403 769 403 1441 
Q 403 1841 612 2192 
Q 822 2544 1241 2853 
Q 1091 3050 1012 3245 
Q 934 3441 934 3628 
Q 934 4134 1281 4442 
Q 1628 4750 2203 4750 
Q 2463 4750 2720 4694 
Q 2978 4638 3244 4525 
L 3244 3956 
Q 2972 4103 2725 4179 
Q 2478 4256 2266 4256 
Q 1938 4256 1733 4082 
Q 1528 3909 1528 3634 
Q 1528 3475 1620 3314 
Q 1713 3153 1997 2859 
z
" transform="scale(0.015625)"/>
      </defs>
      <use xlink:href="#DejaVuSans-4d"/>
      <use xlink:href="#DejaVuSans-6f" transform="translate(86.279297 0)"/>
      <use xlink:href="#DejaVuSans-74" transform="translate(147.460938 0)"/>
      <use xlink:href="#DejaVuSans-69" transform="translate(186.669922 0)"/>
      <use xlink:href="#DejaVuSans-66" transform="translate(214.453125 0)"/>
      <use xlink:href="#DejaVuSans-73" transform="translate(249.658203 0)"/>
      <use xlink:href="#DejaVuSans-20" transform="translate(301.757812 0)"/>
      <use xlink:href="#DejaVuSans-26" transform="translate(333.544922 0)"/>
      <use xlink:href="#DejaVuSans-20" transform="translate(411.523438 0)"/>
      <use xlink:href="#DejaVuSans-6f" transform="translate(443.310547 0)"/>
      <use xlink:href="#DejaVuSans-72" transform="translate(504.492188 0)"/>
      <use xlink:href="#DejaVuSans-69" transform="translate(545.605469 0)"/>
      <use xlink:href="#DejaVuSans-65" transform="translate(573.388672 0)"/>
      <use xlink:href="#DejaVuSans-6e" transform="translate(634.912109 0)"/>
      <use xlink:href="#DejaVuSans-74" transform="translate(698.291016 0)"/>
      <use xlink:href="#DejaVuSans-61" transform="translate(737.5 0)"/>
      <use xlink:href="#DejaVuSans-74" transform="translate(798.779297 0)"/>
      <use xlink:href="#DejaVuSans-69" transform="translate(837.988281 0)"/>
      <use xlink:href="#DejaVuSans-6f" transform="translate(865.771484 0)"/>
      <use xlink:href="#DejaVuSans-6e" transform="translate(926.953125 0)"/>
     </g>
    </g>
    <g id="line2d_35">
     <path d="M 435.335625 34.976562 
L 445.335625 34.976562 
L 455.335625 34.976562 
" style="fill: none; stroke: #add8e6; stroke-width: 2; stroke-linecap: square"/>
    </g>
    <g id="text_19">
     <!-- CCTAA (5' end) -->
     <g transform="translate(463.335625 38.476562) scale(0.1 -0.1)">
      <defs>
       <path id="DejaVuSans-43" d="M 4122 4306 
L 4122 3641 
Q 3803 3938 3442 4084 
Q 3081 4231 2675 4231 
Q 1875 4231 1450 3742 
Q 1025 3253 1025 2328 
Q 1025 1406 1450 917 
Q 1875 428 2675 428 
Q 3081 428 3442 575 
Q 3803 722 4122 1019 
L 4122 359 
Q 3791 134 3420 21 
Q 3050 -91 2638 -91 
Q 1578 -91 968 557 
Q 359 1206 359 2328 
Q 359 3453 968 4101 
Q 1578 4750 2638 4750 
Q 3056 4750 3426 4639 
Q 3797 4528 4122 4306 
z
" transform="scale(0.015625)"/>
       <path id="DejaVuSans-54" d="M -19 4666 
L 3928 4666 
L 3928 4134 
L 2272 4134 
L 2272 0 
L 1638 0 
L 1638 4134 
L -19 4134 
L -19 4666 
z
" transform="scale(0.015625)"/>
       <path id="DejaVuSans-28" d="M 1984 4856 
Q 1566 4138 1362 3434 
Q 1159 2731 1159 2009 
Q 1159 1288 1364 580 
Q 1569 -128 1984 -844 
L 1484 -844 
Q 1016 -109 783 600 
Q 550 1309 550 2009 
Q 550 2706 781 3412 
Q 1013 4119 1484 4856 
L 1984 4856 
z
" transform="scale(0.015625)"/>
       <path id="DejaVuSans-27" d="M 1147 4666 
L 1147 2931 
L 616 2931 
L 616 4666 
L 1147 4666 
z
" transform="scale(0.015625)"/>
       <path id="DejaVuSans-64" d="M 2906 2969 
L 2906 4863 
L 3481 4863 
L 3481 0 
L 2906 0 
L 2906 525 
Q 2725 213 2448 61 
Q 2172 -91 1784 -91 
Q 1150 -91 751 415 
Q 353 922 353 1747 
Q 353 2572 751 3078 
Q 1150 3584 1784 3584 
Q 2172 3584 2448 3432 
Q 2725 3281 2906 2969 
z
M 947 1747 
Q 947 1113 1208 752 
Q 1469 391 1925 391 
Q 2381 391 2643 752 
Q 2906 1113 2906 1747 
Q 2906 2381 2643 2742 
Q 2381 3103 1925 3103 
Q 1469 3103 1208 2742 
Q 947 2381 947 1747 
z
" transform="scale(0.015625)"/>
       <path id="DejaVuSans-29" d="M 513 4856 
L 1013 4856 
Q 1481 4119 1714 3412 
Q 1947 2706 1947 2009 
Q 1947 1309 1714 600 
Q 1481 -109 1013 -844 
L 513 -844 
Q 928 -128 1133 580 
Q 1338 1288 1338 2009 
Q 1338 2731 1133 3434 
Q 928 4138 513 4856 
z
" transform="scale(0.015625)"/>
      </defs>
      <use xlink:href="#DejaVuSans-43"/>
      <use xlink:href="#DejaVuSans-43" transform="translate(69.824219 0)"/>
      <use xlink:href="#DejaVuSans-54" transform="translate(139.648438 0)"/>
      <use xlink:href="#DejaVuSans-41" transform="translate(192.982422 0)"/>
      <use xlink:href="#DejaVuSans-41" transform="translate(264.140625 0)"/>
      <use xlink:href="#DejaVuSans-20" transform="translate(332.548828 0)"/>
      <use xlink:href="#DejaVuSans-28" transform="translate(364.335938 0)"/>
      <use xlink:href="#DejaVuSans-35" transform="translate(403.349609 0)"/>
      <use xlink:href="#DejaVuSans-27" transform="translate(466.972656 0)"/>
      <use xlink:href="#DejaVuSans-20" transform="translate(494.462891 0)"/>
      <use xlink:href="#DejaVuSans-65" transform="translate(526.25 0)"/>
      <use xlink:href="#DejaVuSans-6e" transform="translate(587.773438 0)"/>
      <use xlink:href="#DejaVuSans-64" transform="translate(651.152344 0)"/>
      <use xlink:href="#DejaVuSans-29" transform="translate(714.628906 0)"/>
     </g>
    </g>
    <g id="line2d_36">
     <path d="M 435.335625 49.654687 
L 445.335625 49.654687 
L 455.335625 49.654687 
" style="fill: none; stroke: #6495ed; stroke-width: 2; stroke-linecap: square"/>
    </g>
    <g id="text_20">
     <!-- CAATAA (5' end) -->
     <g transform="translate(463.335625 53.154687) scale(0.1 -0.1)">
      <use xlink:href="#DejaVuSans-43"/>
      <use xlink:href="#DejaVuSans-41" transform="translate(69.824219 0)"/>
      <use xlink:href="#DejaVuSans-41" transform="translate(140.982422 0)"/>
      <use xlink:href="#DejaVuSans-54" transform="translate(201.640625 0)"/>
      <use xlink:href="#DejaVuSans-41" transform="translate(254.974609 0)"/>
      <use xlink:href="#DejaVuSans-41" transform="translate(326.132812 0)"/>
      <use xlink:href="#DejaVuSans-20" transform="translate(394.541016 0)"/>
      <use xlink:href="#DejaVuSans-28" transform="translate(426.328125 0)"/>
      <use xlink:href="#DejaVuSans-35" transform="translate(465.341797 0)"/>
      <use xlink:href="#DejaVuSans-27" transform="translate(528.964844 0)"/>
      <use xlink:href="#DejaVuSans-20" transform="translate(556.455078 0)"/>
      <use xlink:href="#DejaVuSans-65" transform="translate(588.242188 0)"/>
      <use xlink:href="#DejaVuSans-6e" transform="translate(649.765625 0)"/>
      <use xlink:href="#DejaVuSans-64" transform="translate(713.144531 0)"/>
      <use xlink:href="#DejaVuSans-29" transform="translate(776.621094 0)"/>
     </g>
    </g>
    <g id="line2d_37">
     <path d="M 435.335625 64.332812 
L 445.335625 64.332812 
L 455.335625 64.332812 
" style="fill: none; stroke: #00008b; stroke-width: 2; stroke-linecap: square"/>
    </g>
    <g id="text_21">
     <!-- CTGAAA (5' end) -->
     <g transform="translate(463.335625 67.832812) scale(0.1 -0.1)">
      <defs>
       <path id="DejaVuSans-47" d="M 3809 666 
L 3809 1919 
L 2778 1919 
L 2778 2438 
L 4434 2438 
L 4434 434 
Q 4069 175 3628 42 
Q 3188 -91 2688 -91 
Q 1594 -91 976 548 
Q 359 1188 359 2328 
Q 359 3472 976 4111 
Q 1594 4750 2688 4750 
Q 3144 4750 3555 4637 
Q 3966 4525 4313 4306 
L 4313 3634 
Q 3963 3931 3569 4081 
Q 3175 4231 2741 4231 
Q 1884 4231 1454 3753 
Q 1025 3275 1025 2328 
Q 1025 1384 1454 906 
Q 1884 428 2741 428 
Q 3075 428 3337 486 
Q 3600 544 3809 666 
z
" transform="scale(0.015625)"/>
      </defs>
      <use xlink:href="#DejaVuSans-43"/>
      <use xlink:href="#DejaVuSans-54" transform="translate(69.824219 0)"/>
      <use xlink:href="#DejaVuSans-47" transform="translate(130.908203 0)"/>
      <use xlink:href="#DejaVuSans-41" transform="translate(208.398438 0)"/>
      <use xlink:href="#DejaVuSans-41" transform="translate(279.556641 0)"/>
      <use xlink:href="#DejaVuSans-41" transform="translate(350.714844 0)"/>
      <use xlink:href="#DejaVuSans-20" transform="translate(419.123047 0)"/>
      <use xlink:href="#DejaVuSans-28" transform="translate(450.910156 0)"/>
      <use xlink:href="#DejaVuSans-35" transform="translate(489.923828 0)"/>
      <use xlink:href="#DejaVuSans-27" transform="translate(553.546875 0)"/>
      <use xlink:href="#DejaVuSans-20" transform="translate(581.037109 0)"/>
      <use xlink:href="#DejaVuSans-65" transform="translate(612.824219 0)"/>
      <use xlink:href="#DejaVuSans-6e" transform="translate(674.347656 0)"/>
      <use xlink:href="#DejaVuSans-64" transform="translate(737.726562 0)"/>
      <use xlink:href="#DejaVuSans-29" transform="translate(801.203125 0)"/>
     </g>
    </g>
    <g id="line2d_38">
     <path d="M 435.335625 79.010937 
L 445.335625 79.010937 
L 455.335625 79.010937 
" style="fill: none; stroke: #2f4f4f; stroke-width: 2; stroke-linecap: square"/>
    </g>
    <g id="text_22">
     <!-- CTTTTCAA (5' end) -->
     <g transform="translate(463.335625 82.510937) scale(0.1 -0.1)">
      <use xlink:href="#DejaVuSans-43"/>
      <use xlink:href="#DejaVuSans-54" transform="translate(69.824219 0)"/>
      <use xlink:href="#DejaVuSans-54" transform="translate(129.158203 0)"/>
      <use xlink:href="#DejaVuSans-54" transform="translate(188.492188 0)"/>
      <use xlink:href="#DejaVuSans-54" transform="translate(247.826172 0)"/>
      <use xlink:href="#DejaVuSans-43" transform="translate(303.035156 0)"/>
      <use xlink:href="#DejaVuSans-41" transform="translate(372.859375 0)"/>
      <use xlink:href="#DejaVuSans-41" transform="translate(444.017578 0)"/>
      <use xlink:href="#DejaVuSans-20" transform="translate(512.425781 0)"/>
      <use xlink:href="#DejaVuSans-28" transform="translate(544.212891 0)"/>
      <use xlink:href="#DejaVuSans-35" transform="translate(583.226562 0)"/>
      <use xlink:href="#DejaVuSans-27" transform="translate(646.849609 0)"/>
      <use xlink:href="#DejaVuSans-20" transform="translate(674.339844 0)"/>
      <use xlink:href="#DejaVuSans-65" transform="translate(706.126953 0)"/>
      <use xlink:href="#DejaVuSans-6e" transform="translate(767.650391 0)"/>
      <use xlink:href="#DejaVuSans-64" transform="translate(831.029297 0)"/>
      <use xlink:href="#DejaVuSans-29" transform="translate(894.505859 0)"/>
     </g>
    </g>
   </g>
  </g>
 </g>
 <defs>
  <clipPath id="p85a82a8941">
   <rect x="46.965625" y="7.2" width="379.37" height="379.24"/>
  </clipPath>
 </defs>
</svg>
