<?xml version="1.0" encoding="utf-8" standalone="no"?>
<!DOCTYPE svg PUBLIC "-//W3C//DTD SVG 1.1//EN"
  "http://www.w3.org/Graphics/SVG/1.1/DTD/svg11.dtd">
<svg xmlns:xlink="http://www.w3.org/1999/xlink" width="567.885625pt" height="423.99625pt" viewBox="0 0 567.885625 423.99625" xmlns="http://www.w3.org/2000/svg" version="1.1">
 <metadata>
  <rdf:RDF xmlns:dc="http://purl.org/dc/elements/1.1/" xmlns:cc="http://creativecommons.org/ns#" xmlns:rdf="http://www.w3.org/1999/02/22-rdf-syntax-ns#">
   <cc:Work>
    <dc:type rdf:resource="http://purl.org/dc/dcmitype/StillImage"/>
    <dc:date>2026-04-30T15:17:44.288823</dc:date>
    <dc:format>image/svg+xml</dc:format>
    <dc:creator>
     <cc:Agent>
      <dc:title>Matplotlib v3.10.6, https://matplotlib.org/</dc:title>
     </cc:Agent>
    </dc:creator>
   </cc:Work>
  </rdf:RDF>
 </metadata>
 <defs>
  <style type="text/css">*{stroke-linejoin: round; stroke-linecap: butt}</style>
 </defs>
 <g id="figure_1">
  <g id="patch_1">
   <path d="M 0 423.99625 
L 567.885625 423.99625 
L 567.885625 0 
L 0 0 
z
" style="fill: #ffffff"/>
  </g>
  <g id="axes_1">
   <g id="patch_2">
    <path d="M 46.965625 386.44 
L 426.335625 386.44 
L 426.335625 7.2 
L 46.965625 7.2 
z
" style="fill: #ffffff"/>
   </g>
   <g id="matplotlib.axis_1">
    <g id="xtick_1">
     <g id="line2d_1">
      <path d="M 64.209716 386.44 
L 64.209716 7.2 
" clip-path="url(#p8d368c919a)" style="fill: none; stroke-dasharray: 2.96,1.28; stroke-dashoffset: 0; stroke: #b0b0b0; stroke-opacity: 0.6; stroke-width: 0.8"/>
     </g>
     <g id="line2d_2">
      <defs>
       <path id="m395a40e952" d="M 0 0 
L 0 3.5 
" style="stroke: #000000; stroke-width: 0.8"/>
      </defs>
      <g>
       <use xlink:href="#m395a40e952" x="64.209716" y="386.44" style="stroke: #000000; stroke-width: 0.8"/>
      </g>
     </g>
     <g id="text_1">
      <!-- 0 -->
      <g transform="translate(61.028466 401.038437) scale(0.1 -0.1)">
       <defs>
        <path id="DejaVuSans-30" d="M 2034 4250 
Q 1547 4250 1301 3770 
Q 1056 3291 1056 2328 
Q 1056 1369 1301 889 
Q 1547 409 2034 409 
Q 2525 409 2770 889 
Q 3016 1369 3016 2328 
Q 3016 3291 2770 3770 
Q 2525 4250 2034 4250 
z
M 2034 4750 
Q 2819 4750 3233 4129 
Q 3647 3509 3647 2328 
Q 3647 1150 3233 529 
Q 2819 -91 2034 -91 
Q 1250 -91 836 529 
Q 422 1150 422 2328 
Q 422 3509 836 4129 
Q 1250 4750 2034 4750 
z
" transform="scale(0.015625)"/>
       </defs>
       <use xlink:href="#DejaVuSans-30"/>
      </g>
     </g>
    </g>
    <g id="xtick_2">
     <g id="line2d_3">
      <path d="M 107.325333 386.44 
L 107.325333 7.2 
" clip-path="url(#p8d368c919a)" style="fill: none; stroke-dasharray: 2.96,1.28; stroke-dashoffset: 0; stroke: #b0b0b0; stroke-opacity: 0.6; stroke-width: 0.8"/>
     </g>
     <g id="line2d_4">
      <g>
       <use xlink:href="#m395a40e952" x="107.325333" y="386.44" style="stroke: #000000; stroke-width: 0.8"/>
      </g>
     </g>
     <g id="text_2">
      <!-- 1000 -->
      <g transform="translate(94.600333 401.038437) scale(0.1 -0.1)">
       <defs>
        <path id="DejaVuSans-31" d="M 794 531 
L 1825 531 
L 1825 4091 
L 703 3866 
L 703 4441 
L 1819 4666 
L 2450 4666 
L 2450 531 
L 3481 531 
L 3481 0 
L 794 0 
L 794 531 
z
" transform="scale(0.015625)"/>
       </defs>
       <use xlink:href="#DejaVuSans-31"/>
       <use xlink:href="#DejaVuSans-30" transform="translate(63.623047 0)"/>
       <use xlink:href="#DejaVuSans-30" transform="translate(127.246094 0)"/>
       <use xlink:href="#DejaVuSans-30" transform="translate(190.869141 0)"/>
      </g>
     </g>
    </g>
    <g id="xtick_3">
     <g id="line2d_5">
      <path d="M 150.440949 386.44 
L 150.440949 7.2 
" clip-path="url(#p8d368c919a)" style="fill: none; stroke-dasharray: 2.96,1.28; stroke-dashoffset: 0; stroke: #b0b0b0; stroke-opacity: 0.6; stroke-width: 0.8"/>
     </g>
     <g id="line2d_6">
      <g>
       <use xlink:href="#m395a40e952" x="150.440949" y="386.44" style="stroke: #000000; stroke-width: 0.8"/>
      </g>
     </g>
     <g id="text_3">
      <!-- 2000 -->
      <g transform="translate(137.715949 401.038437) scale(0.1 -0.1)">
       <defs>
        <path id="DejaVuSans-32" d="M 1228 531 
L 3431 531 
L 3431 0 
L 469 0 
L 469 531 
Q 828 903 1448 1529 
Q 2069 2156 2228 2338 
Q 2531 2678 2651 2914 
Q 2772 3150 2772 3378 
Q 2772 3750 2511 3984 
Q 2250 4219 1831 4219 
Q 1534 4219 1204 4116 
Q 875 4013 500 3803 
L 500 4441 
Q 881 4594 1212 4672 
Q 1544 4750 1819 4750 
Q 2544 4750 2975 4387 
Q 3406 4025 3406 3419 
Q 3406 3131 3298 2873 
Q 3191 2616 2906 2266 
Q 2828 2175 2409 1742 
Q 1991 1309 1228 531 
z
" transform="scale(0.015625)"/>
       </defs>
       <use xlink:href="#DejaVuSans-32"/>
       <use xlink:href="#DejaVuSans-30" transform="translate(63.623047 0)"/>
       <use xlink:href="#DejaVuSans-30" transform="translate(127.246094 0)"/>
       <use xlink:href="#DejaVuSans-30" transform="translate(190.869141 0)"/>
      </g>
     </g>
    </g>
    <g id="xtick_4">
     <g id="line2d_7">
      <path d="M 193.556566 386.44 
L 193.556566 7.2 
" clip-path="url(#p8d368c919a)" style="fill: none; stroke-dasharray: 2.96,1.28; stroke-dashoffset: 0; stroke: #b0b0b0; stroke-opacity: 0.6; stroke-width: 0.8"/>
     </g>
     <g id="line2d_8">
      <g>
       <use xlink:href="#m395a40e952" x="193.556566" y="386.44" style="stroke: #000000; stroke-width: 0.8"/>
      </g>
     </g>
     <g id="text_4">
      <!-- 3000 -->
      <g transform="translate(180.831566 401.038437) scale(0.1 -0.1)">
       <defs>
        <path id="DejaVuSans-33" d="M 2597 2516 
Q 3050 2419 3304 2112 
Q 3559 1806 3559 1356 
Q 3559 666 3084 287 
Q 2609 -91 1734 -91 
Q 1441 -91 1130 -33 
Q 819 25 488 141 
L 488 750 
Q 750 597 1062 519 
Q 1375 441 1716 441 
Q 2309 441 2620 675 
Q 2931 909 2931 1356 
Q 2931 1769 2642 2001 
Q 2353 2234 1838 2234 
L 1294 2234 
L 1294 2753 
L 1863 2753 
Q 2328 2753 2575 2939 
Q 2822 3125 2822 3475 
Q 2822 3834 2567 4026 
Q 2313 4219 1838 4219 
Q 1578 4219 1281 4162 
Q 984 4106 628 3988 
L 628 4550 
Q 988 4650 1302 4700 
Q 1616 4750 1894 4750 
Q 2613 4750 3031 4423 
Q 3450 4097 3450 3541 
Q 3450 3153 3228 2886 
Q 3006 2619 2597 2516 
z
" transform="scale(0.015625)"/>
       </defs>
       <use xlink:href="#DejaVuSans-33"/>
       <use xlink:href="#DejaVuSans-30" transform="translate(63.623047 0)"/>
       <use xlink:href="#DejaVuSans-30" transform="translate(127.246094 0)"/>
       <use xlink:href="#DejaVuSans-30" transform="translate(190.869141 0)"/>
      </g>
     </g>
    </g>
    <g id="xtick_5">
     <g id="line2d_9">
      <path d="M 236.672183 386.44 
L 236.672183 7.2 
" clip-path="url(#p8d368c919a)" style="fill: none; stroke-dasharray: 2.96,1.28; stroke-dashoffset: 0; stroke: #b0b0b0; stroke-opacity: 0.6; stroke-width: 0.8"/>
     </g>
     <g id="line2d_10">
      <g>
       <use xlink:href="#m395a40e952" x="236.672183" y="386.44" style="stroke: #000000; stroke-width: 0.8"/>
      </g>
     </g>
     <g id="text_5">
      <!-- 4000 -->
      <g transform="translate(223.947183 401.038437) scale(0.1 -0.1)">
       <defs>
        <path id="DejaVuSans-34" d="M 2419 4116 
L 825 1625 
L 2419 1625 
L 2419 4116 
z
M 2253 4666 
L 3047 4666 
L 3047 1625 
L 3713 1625 
L 3713 1100 
L 3047 1100 
L 3047 0 
L 2419 0 
L 2419 1100 
L 313 1100 
L 313 1709 
L 2253 4666 
z
" transform="scale(0.015625)"/>
       </defs>
       <use xlink:href="#DejaVuSans-34"/>
       <use xlink:href="#DejaVuSans-30" transform="translate(63.623047 0)"/>
       <use xlink:href="#DejaVuSans-30" transform="translate(127.246094 0)"/>
       <use xlink:href="#DejaVuSans-30" transform="translate(190.869141 0)"/>
      </g>
     </g>
    </g>
    <g id="xtick_6">
     <g id="line2d_11">
      <path d="M 279.7878 386.44 
L 279.7878 7.2 
" clip-path="url(#p8d368c919a)" style="fill: none; stroke-dasharray: 2.96,1.28; stroke-dashoffset: 0; stroke: #b0b0b0; stroke-opacity: 0.6; stroke-width: 0.8"/>
     </g>
     <g id="line2d_12">
      <g>
       <use xlink:href="#m395a40e952" x="279.7878" y="386.44" style="stroke: #000000; stroke-width: 0.8"/>
      </g>
     </g>
     <g id="text_6">
      <!-- 5000 -->
      <g transform="translate(267.0628 401.038437) scale(0.1 -0.1)">
       <defs>
        <path id="DejaVuSans-35" d="M 691 4666 
L 3169 4666 
L 3169 4134 
L 1269 4134 
L 1269 2991 
Q 1406 3038 1543 3061 
Q 1681 3084 1819 3084 
Q 2600 3084 3056 2656 
Q 3513 2228 3513 1497 
Q 3513 744 3044 326 
Q 2575 -91 1722 -91 
Q 1428 -91 1123 -41 
Q 819 9 494 109 
L 494 744 
Q 775 591 1075 516 
Q 1375 441 1709 441 
Q 2250 441 2565 725 
Q 2881 1009 2881 1497 
Q 2881 1984 2565 2268 
Q 2250 2553 1709 2553 
Q 1456 2553 1204 2497 
Q 953 2441 691 2322 
L 691 4666 
z
" transform="scale(0.015625)"/>
       </defs>
       <use xlink:href="#DejaVuSans-35"/>
       <use xlink:href="#DejaVuSans-30" transform="translate(63.623047 0)"/>
       <use xlink:href="#DejaVuSans-30" transform="translate(127.246094 0)"/>
       <use xlink:href="#DejaVuSans-30" transform="translate(190.869141 0)"/>
      </g>
     </g>
    </g>
    <g id="xtick_7">
     <g id="line2d_13">
      <path d="M 322.903416 386.44 
L 322.903416 7.2 
" clip-path="url(#p8d368c919a)" style="fill: none; stroke-dasharray: 2.96,1.28; stroke-dashoffset: 0; stroke: #b0b0b0; stroke-opacity: 0.6; stroke-width: 0.8"/>
     </g>
     <g id="line2d_14">
      <g>
       <use xlink:href="#m395a40e952" x="322.903416" y="386.44" style="stroke: #000000; stroke-width: 0.8"/>
      </g>
     </g>
     <g id="text_7">
      <!-- 6000 -->
      <g transform="translate(310.178416 401.038437) scale(0.1 -0.1)">
       <defs>
        <path id="DejaVuSans-36" d="M 2113 2584 
Q 1688 2584 1439 2293 
Q 1191 2003 1191 1497 
Q 1191 994 1439 701 
Q 1688 409 2113 409 
Q 2538 409 2786 701 
Q 3034 994 3034 1497 
Q 3034 2003 2786 2293 
Q 2538 2584 2113 2584 
z
M 3366 4563 
L 3366 3988 
Q 3128 4100 2886 4159 
Q 2644 4219 2406 4219 
Q 1781 4219 1451 3797 
Q 1122 3375 1075 2522 
Q 1259 2794 1537 2939 
Q 1816 3084 2150 3084 
Q 2853 3084 3261 2657 
Q 3669 2231 3669 1497 
Q 3669 778 3244 343 
Q 2819 -91 2113 -91 
Q 1303 -91 875 529 
Q 447 1150 447 2328 
Q 447 3434 972 4092 
Q 1497 4750 2381 4750 
Q 2619 4750 2861 4703 
Q 3103 4656 3366 4563 
z
" transform="scale(0.015625)"/>
       </defs>
       <use xlink:href="#DejaVuSans-36"/>
       <use xlink:href="#DejaVuSans-30" transform="translate(63.623047 0)"/>
       <use xlink:href="#DejaVuSans-30" transform="translate(127.246094 0)"/>
       <use xlink:href="#DejaVuSans-30" transform="translate(190.869141 0)"/>
      </g>
     </g>
    </g>
    <g id="xtick_8">
     <g id="line2d_15">
      <path d="M 366.019033 386.44 
L 366.019033 7.2 
" clip-path="url(#p8d368c919a)" style="fill: none; stroke-dasharray: 2.96,1.28; stroke-dashoffset: 0; stroke: #b0b0b0; stroke-opacity: 0.6; stroke-width: 0.8"/>
     </g>
     <g id="line2d_16">
      <g>
       <use xlink:href="#m395a40e952" x="366.019033" y="386.44" style="stroke: #000000; stroke-width: 0.8"/>
      </g>
     </g>
     <g id="text_8">
      <!-- 7000 -->
      <g transform="translate(353.294033 401.038437) scale(0.1 -0.1)">
       <defs>
        <path id="DejaVuSans-37" d="M 525 4666 
L 3525 4666 
L 3525 4397 
L 1831 0 
L 1172 0 
L 2766 4134 
L 525 4134 
L 525 4666 
z
" transform="scale(0.015625)"/>
       </defs>
       <use xlink:href="#DejaVuSans-37"/>
       <use xlink:href="#DejaVuSans-30" transform="translate(63.623047 0)"/>
       <use xlink:href="#DejaVuSans-30" transform="translate(127.246094 0)"/>
       <use xlink:href="#DejaVuSans-30" transform="translate(190.869141 0)"/>
      </g>
     </g>
    </g>
    <g id="xtick_9">
     <g id="line2d_17">
      <path d="M 409.13465 386.44 
L 409.13465 7.2 
" clip-path="url(#p8d368c919a)" style="fill: none; stroke-dasharray: 2.96,1.28; stroke-dashoffset: 0; stroke: #b0b0b0; stroke-opacity: 0.6; stroke-width: 0.8"/>
     </g>
     <g id="line2d_18">
      <g>
       <use xlink:href="#m395a40e952" x="409.13465" y="386.44" style="stroke: #000000; stroke-width: 0.8"/>
      </g>
     </g>
     <g id="text_9">
      <!-- 8000 -->
      <g transform="translate(396.40965 401.038437) scale(0.1 -0.1)">
       <defs>
        <path id="DejaVuSans-38" d="M 2034 2216 
Q 1584 2216 1326 1975 
Q 1069 1734 1069 1313 
Q 1069 891 1326 650 
Q 1584 409 2034 409 
Q 2484 409 2743 651 
Q 3003 894 3003 1313 
Q 3003 1734 2745 1975 
Q 2488 2216 2034 2216 
z
M 1403 2484 
Q 997 2584 770 2862 
Q 544 3141 544 3541 
Q 544 4100 942 4425 
Q 1341 4750 2034 4750 
Q 2731 4750 3128 4425 
Q 3525 4100 3525 3541 
Q 3525 3141 3298 2862 
Q 3072 2584 2669 2484 
Q 3125 2378 3379 2068 
Q 3634 1759 3634 1313 
Q 3634 634 3220 271 
Q 2806 -91 2034 -91 
Q 1263 -91 848 271 
Q 434 634 434 1313 
Q 434 1759 690 2068 
Q 947 2378 1403 2484 
z
M 1172 3481 
Q 1172 3119 1398 2916 
Q 1625 2713 2034 2713 
Q 2441 2713 2670 2916 
Q 2900 3119 2900 3481 
Q 2900 3844 2670 4047 
Q 2441 4250 2034 4250 
Q 1625 4250 1398 4047 
Q 1172 3844 1172 3481 
z
" transform="scale(0.015625)"/>
       </defs>
       <use xlink:href="#DejaVuSans-38"/>
       <use xlink:href="#DejaVuSans-30" transform="translate(63.623047 0)"/>
       <use xlink:href="#DejaVuSans-30" transform="translate(127.246094 0)"/>
       <use xlink:href="#DejaVuSans-30" transform="translate(190.869141 0)"/>
      </g>
     </g>
    </g>
    <g id="text_10">
     <!-- Distance from terminus [nt] -->
     <g transform="translate(167.151406 414.716562) scale(0.1 -0.1)">
      <defs>
       <path id="DejaVuSans-44" d="M 1259 4147 
L 1259 519 
L 2022 519 
Q 2988 519 3436 956 
Q 3884 1394 3884 2338 
Q 3884 3275 3436 3711 
Q 2988 4147 2022 4147 
L 1259 4147 
z
M 628 4666 
L 1925 4666 
Q 3281 4666 3915 4102 
Q 4550 3538 4550 2338 
Q 4550 1131 3912 565 
Q 3275 0 1925 0 
L 628 0 
L 628 4666 
z
" transform="scale(0.015625)"/>
       <path id="DejaVuSans-69" d="M 603 3500 
L 1178 3500 
L 1178 0 
L 603 0 
L 603 3500 
z
M 603 4863 
L 1178 4863 
L 1178 4134 
L 603 4134 
L 603 4863 
z
" transform="scale(0.015625)"/>
       <path id="DejaVuSans-73" d="M 2834 3397 
L 2834 2853 
Q 2591 2978 2328 3040 
Q 2066 3103 1784 3103 
Q 1356 3103 1142 2972 
Q 928 2841 928 2578 
Q 928 2378 1081 2264 
Q 1234 2150 1697 2047 
L 1894 2003 
Q 2506 1872 2764 1633 
Q 3022 1394 3022 966 
Q 3022 478 2636 193 
Q 2250 -91 1575 -91 
Q 1294 -91 989 -36 
Q 684 19 347 128 
L 347 722 
Q 666 556 975 473 
Q 1284 391 1588 391 
Q 1994 391 2212 530 
Q 2431 669 2431 922 
Q 2431 1156 2273 1281 
Q 2116 1406 1581 1522 
L 1381 1569 
Q 847 1681 609 1914 
Q 372 2147 372 2553 
Q 372 3047 722 3315 
Q 1072 3584 1716 3584 
Q 2034 3584 2315 3537 
Q 2597 3491 2834 3397 
z
" transform="scale(0.015625)"/>
       <path id="DejaVuSans-74" d="M 1172 4494 
L 1172 3500 
L 2356 3500 
L 2356 3053 
L 1172 3053 
L 1172 1153 
Q 1172 725 1289 603 
Q 1406 481 1766 481 
L 2356 481 
L 2356 0 
L 1766 0 
Q 1100 0 847 248 
Q 594 497 594 1153 
L 594 3053 
L 172 3053 
L 172 3500 
L 594 3500 
L 594 4494 
L 1172 4494 
z
" transform="scale(0.015625)"/>
       <path id="DejaVuSans-61" d="M 2194 1759 
Q 1497 1759 1228 1600 
Q 959 1441 959 1056 
Q 959 750 1161 570 
Q 1363 391 1709 391 
Q 2188 391 2477 730 
Q 2766 1069 2766 1631 
L 2766 1759 
L 2194 1759 
z
M 3341 1997 
L 3341 0 
L 2766 0 
L 2766 531 
Q 2569 213 2275 61 
Q 1981 -91 1556 -91 
Q 1019 -91 701 211 
Q 384 513 384 1019 
Q 384 1609 779 1909 
Q 1175 2209 1959 2209 
L 2766 2209 
L 2766 2266 
Q 2766 2663 2505 2880 
Q 2244 3097 1772 3097 
Q 1472 3097 1187 3025 
Q 903 2953 641 2809 
L 641 3341 
Q 956 3463 1253 3523 
Q 1550 3584 1831 3584 
Q 2591 3584 2966 3190 
Q 3341 2797 3341 1997 
z
" transform="scale(0.015625)"/>
       <path id="DejaVuSans-6e" d="M 3513 2113 
L 3513 0 
L 2938 0 
L 2938 2094 
Q 2938 2591 2744 2837 
Q 2550 3084 2163 3084 
Q 1697 3084 1428 2787 
Q 1159 2491 1159 1978 
L 1159 0 
L 581 0 
L 581 3500 
L 1159 3500 
L 1159 2956 
Q 1366 3272 1645 3428 
Q 1925 3584 2291 3584 
Q 2894 3584 3203 3211 
Q 3513 2838 3513 2113 
z
" transform="scale(0.015625)"/>
       <path id="DejaVuSans-63" d="M 3122 3366 
L 3122 2828 
Q 2878 2963 2633 3030 
Q 2388 3097 2138 3097 
Q 1578 3097 1268 2742 
Q 959 2388 959 1747 
Q 959 1106 1268 751 
Q 1578 397 2138 397 
Q 2388 397 2633 464 
Q 2878 531 3122 666 
L 3122 134 
Q 2881 22 2623 -34 
Q 2366 -91 2075 -91 
Q 1284 -91 818 406 
Q 353 903 353 1747 
Q 353 2603 823 3093 
Q 1294 3584 2113 3584 
Q 2378 3584 2631 3529 
Q 2884 3475 3122 3366 
z
" transform="scale(0.015625)"/>
       <path id="DejaVuSans-65" d="M 3597 1894 
L 3597 1613 
L 953 1613 
Q 991 1019 1311 708 
Q 1631 397 2203 397 
Q 2534 397 2845 478 
Q 3156 559 3463 722 
L 3463 178 
Q 3153 47 2828 -22 
Q 2503 -91 2169 -91 
Q 1331 -91 842 396 
Q 353 884 353 1716 
Q 353 2575 817 3079 
Q 1281 3584 2069 3584 
Q 2775 3584 3186 3129 
Q 3597 2675 3597 1894 
z
M 3022 2063 
Q 3016 2534 2758 2815 
Q 2500 3097 2075 3097 
Q 1594 3097 1305 2825 
Q 1016 2553 972 2059 
L 3022 2063 
z
" transform="scale(0.015625)"/>
       <path id="DejaVuSans-20" transform="scale(0.015625)"/>
       <path id="DejaVuSans-66" d="M 2375 4863 
L 2375 4384 
L 1825 4384 
Q 1516 4384 1395 4259 
Q 1275 4134 1275 3809 
L 1275 3500 
L 2222 3500 
L 2222 3053 
L 1275 3053 
L 1275 0 
L 697 0 
L 697 3053 
L 147 3053 
L 147 3500 
L 697 3500 
L 697 3744 
Q 697 4328 969 4595 
Q 1241 4863 1831 4863 
L 2375 4863 
z
" transform="scale(0.015625)"/>
       <path id="DejaVuSans-72" d="M 2631 2963 
Q 2534 3019 2420 3045 
Q 2306 3072 2169 3072 
Q 1681 3072 1420 2755 
Q 1159 2438 1159 1844 
L 1159 0 
L 581 0 
L 581 3500 
L 1159 3500 
L 1159 2956 
Q 1341 3275 1631 3429 
Q 1922 3584 2338 3584 
Q 2397 3584 2469 3576 
Q 2541 3569 2628 3553 
L 2631 2963 
z
" transform="scale(0.015625)"/>
       <path id="DejaVuSans-6f" d="M 1959 3097 
Q 1497 3097 1228 2736 
Q 959 2375 959 1747 
Q 959 1119 1226 758 
Q 1494 397 1959 397 
Q 2419 397 2687 759 
Q 2956 1122 2956 1747 
Q 2956 2369 2687 2733 
Q 2419 3097 1959 3097 
z
M 1959 3584 
Q 2709 3584 3137 3096 
Q 3566 2609 3566 1747 
Q 3566 888 3137 398 
Q 2709 -91 1959 -91 
Q 1206 -91 779 398 
Q 353 888 353 1747 
Q 353 2609 779 3096 
Q 1206 3584 1959 3584 
z
" transform="scale(0.015625)"/>
       <path id="DejaVuSans-6d" d="M 3328 2828 
Q 3544 3216 3844 3400 
Q 4144 3584 4550 3584 
Q 5097 3584 5394 3201 
Q 5691 2819 5691 2113 
L 5691 0 
L 5113 0 
L 5113 2094 
Q 5113 2597 4934 2840 
Q 4756 3084 4391 3084 
Q 3944 3084 3684 2787 
Q 3425 2491 3425 1978 
L 3425 0 
L 2847 0 
L 2847 2094 
Q 2847 2600 2669 2842 
Q 2491 3084 2119 3084 
Q 1678 3084 1418 2786 
Q 1159 2488 1159 1978 
L 1159 0 
L 581 0 
L 581 3500 
L 1159 3500 
L 1159 2956 
Q 1356 3278 1631 3431 
Q 1906 3584 2284 3584 
Q 2666 3584 2933 3390 
Q 3200 3197 3328 2828 
z
" transform="scale(0.015625)"/>
       <path id="DejaVuSans-75" d="M 544 1381 
L 544 3500 
L 1119 3500 
L 1119 1403 
Q 1119 906 1312 657 
Q 1506 409 1894 409 
Q 2359 409 2629 706 
Q 2900 1003 2900 1516 
L 2900 3500 
L 3475 3500 
L 3475 0 
L 2900 0 
L 2900 538 
Q 2691 219 2414 64 
Q 2138 -91 1772 -91 
Q 1169 -91 856 284 
Q 544 659 544 1381 
z
M 1991 3584 
L 1991 3584 
z
" transform="scale(0.015625)"/>
       <path id="DejaVuSans-5b" d="M 550 4863 
L 1875 4863 
L 1875 4416 
L 1125 4416 
L 1125 -397 
L 1875 -397 
L 1875 -844 
L 550 -844 
L 550 4863 
z
" transform="scale(0.015625)"/>
       <path id="DejaVuSans-5d" d="M 1947 4863 
L 1947 -844 
L 622 -844 
L 622 -397 
L 1369 -397 
L 1369 4416 
L 622 4416 
L 622 4863 
L 1947 4863 
z
" transform="scale(0.015625)"/>
      </defs>
      <use xlink:href="#DejaVuSans-44"/>
      <use xlink:href="#DejaVuSans-69" transform="translate(77.001953 0)"/>
      <use xlink:href="#DejaVuSans-73" transform="translate(104.785156 0)"/>
      <use xlink:href="#DejaVuSans-74" transform="translate(156.884766 0)"/>
      <use xlink:href="#DejaVuSans-61" transform="translate(196.09375 0)"/>
      <use xlink:href="#DejaVuSans-6e" transform="translate(257.373047 0)"/>
      <use xlink:href="#DejaVuSans-63" transform="translate(320.751953 0)"/>
      <use xlink:href="#DejaVuSans-65" transform="translate(375.732422 0)"/>
      <use xlink:href="#DejaVuSans-20" transform="translate(437.255859 0)"/>
      <use xlink:href="#DejaVuSans-66" transform="translate(469.042969 0)"/>
      <use xlink:href="#DejaVuSans-72" transform="translate(504.248047 0)"/>
      <use xlink:href="#DejaVuSans-6f" transform="translate(543.111328 0)"/>
      <use xlink:href="#DejaVuSans-6d" transform="translate(604.292969 0)"/>
      <use xlink:href="#DejaVuSans-20" transform="translate(701.705078 0)"/>
      <use xlink:href="#DejaVuSans-74" transform="translate(733.492188 0)"/>
      <use xlink:href="#DejaVuSans-65" transform="translate(772.701172 0)"/>
      <use xlink:href="#DejaVuSans-72" transform="translate(834.224609 0)"/>
      <use xlink:href="#DejaVuSans-6d" transform="translate(873.587891 0)"/>
      <use xlink:href="#DejaVuSans-69" transform="translate(971 0)"/>
      <use xlink:href="#DejaVuSans-6e" transform="translate(998.783203 0)"/>
      <use xlink:href="#DejaVuSans-75" transform="translate(1062.162109 0)"/>
      <use xlink:href="#DejaVuSans-73" transform="translate(1125.541016 0)"/>
      <use xlink:href="#DejaVuSans-20" transform="translate(1177.640625 0)"/>
      <use xlink:href="#DejaVuSans-5b" transform="translate(1209.427734 0)"/>
      <use xlink:href="#DejaVuSans-6e" transform="translate(1248.441406 0)"/>
      <use xlink:href="#DejaVuSans-74" transform="translate(1311.820312 0)"/>
      <use xlink:href="#DejaVuSans-5d" transform="translate(1351.029297 0)"/>
     </g>
    </g>
   </g>
   <g id="matplotlib.axis_2">
    <g id="ytick_1">
     <g id="line2d_19">
      <path d="M 46.965625 369.201818 
L 426.335625 369.201818 
" clip-path="url(#p8d368c919a)" style="fill: none; stroke-dasharray: 2.96,1.28; stroke-dashoffset: 0; stroke: #b0b0b0; stroke-opacity: 0.6; stroke-width: 0.8"/>
     </g>
     <g id="line2d_20">
      <defs>
       <path id="mf9bba0e217" d="M 0 0 
L -3.5 0 
" style="stroke: #000000; stroke-width: 0.8"/>
      </defs>
      <g>
       <use xlink:href="#mf9bba0e217" x="46.965625" y="369.201818" style="stroke: #000000; stroke-width: 0.8"/>
      </g>
     </g>
     <g id="text_11">
      <!-- 0 -->
      <g transform="translate(33.603125 373.001037) scale(0.1 -0.1)">
       <use xlink:href="#DejaVuSans-30"/>
      </g>
     </g>
    </g>
    <g id="ytick_2">
     <g id="line2d_21">
      <path d="M 46.965625 303.323416 
L 426.335625 303.323416 
" clip-path="url(#p8d368c919a)" style="fill: none; stroke-dasharray: 2.96,1.28; stroke-dashoffset: 0; stroke: #b0b0b0; stroke-opacity: 0.6; stroke-width: 0.8"/>
     </g>
     <g id="line2d_22">
      <g>
       <use xlink:href="#mf9bba0e217" x="46.965625" y="303.323416" style="stroke: #000000; stroke-width: 0.8"/>
      </g>
     </g>
     <g id="text_12">
      <!-- 20 -->
      <g transform="translate(27.240625 307.122635) scale(0.1 -0.1)">
       <use xlink:href="#DejaVuSans-32"/>
       <use xlink:href="#DejaVuSans-30" transform="translate(63.623047 0)"/>
      </g>
     </g>
    </g>
    <g id="ytick_3">
     <g id="line2d_23">
      <path d="M 46.965625 237.445014 
L 426.335625 237.445014 
" clip-path="url(#p8d368c919a)" style="fill: none; stroke-dasharray: 2.96,1.28; stroke-dashoffset: 0; stroke: #b0b0b0; stroke-opacity: 0.6; stroke-width: 0.8"/>
     </g>
     <g id="line2d_24">
      <g>
       <use xlink:href="#mf9bba0e217" x="46.965625" y="237.445014" style="stroke: #000000; stroke-width: 0.8"/>
      </g>
     </g>
     <g id="text_13">
      <!-- 40 -->
      <g transform="translate(27.240625 241.244233) scale(0.1 -0.1)">
       <use xlink:href="#DejaVuSans-34"/>
       <use xlink:href="#DejaVuSans-30" transform="translate(63.623047 0)"/>
      </g>
     </g>
    </g>
    <g id="ytick_4">
     <g id="line2d_25">
      <path d="M 46.965625 171.566613 
L 426.335625 171.566613 
" clip-path="url(#p8d368c919a)" style="fill: none; stroke-dasharray: 2.96,1.28; stroke-dashoffset: 0; stroke: #b0b0b0; stroke-opacity: 0.6; stroke-width: 0.8"/>
     </g>
     <g id="line2d_26">
      <g>
       <use xlink:href="#mf9bba0e217" x="46.965625" y="171.566613" style="stroke: #000000; stroke-width: 0.8"/>
      </g>
     </g>
     <g id="text_14">
      <!-- 60 -->
      <g transform="translate(27.240625 175.365831) scale(0.1 -0.1)">
       <use xlink:href="#DejaVuSans-36"/>
       <use xlink:href="#DejaVuSans-30" transform="translate(63.623047 0)"/>
      </g>
     </g>
    </g>
    <g id="ytick_5">
     <g id="line2d_27">
      <path d="M 46.965625 105.688211 
L 426.335625 105.688211 
" clip-path="url(#p8d368c919a)" style="fill: none; stroke-dasharray: 2.96,1.28; stroke-dashoffset: 0; stroke: #b0b0b0; stroke-opacity: 0.6; stroke-width: 0.8"/>
     </g>
     <g id="line2d_28">
      <g>
       <use xlink:href="#mf9bba0e217" x="46.965625" y="105.688211" style="stroke: #000000; stroke-width: 0.8"/>
      </g>
     </g>
     <g id="text_15">
      <!-- 80 -->
      <g transform="translate(27.240625 109.48743) scale(0.1 -0.1)">
       <use xlink:href="#DejaVuSans-38"/>
       <use xlink:href="#DejaVuSans-30" transform="translate(63.623047 0)"/>
      </g>
     </g>
    </g>
    <g id="ytick_6">
     <g id="line2d_29">
      <path d="M 46.965625 39.809809 
L 426.335625 39.809809 
" clip-path="url(#p8d368c919a)" style="fill: none; stroke-dasharray: 2.96,1.28; stroke-dashoffset: 0; stroke: #b0b0b0; stroke-opacity: 0.6; stroke-width: 0.8"/>
     </g>
     <g id="line2d_30">
      <g>
       <use xlink:href="#mf9bba0e217" x="46.965625" y="39.809809" style="stroke: #000000; stroke-width: 0.8"/>
      </g>
     </g>
     <g id="text_16">
      <!-- 100 -->
      <g transform="translate(20.878125 43.609028) scale(0.1 -0.1)">
       <use xlink:href="#DejaVuSans-31"/>
       <use xlink:href="#DejaVuSans-30" transform="translate(63.623047 0)"/>
       <use xlink:href="#DejaVuSans-30" transform="translate(127.246094 0)"/>
      </g>
     </g>
    </g>
    <g id="text_17">
     <!-- Average cumulative count -->
     <g transform="translate(14.798438 262.4325) rotate(-90) scale(0.1 -0.1)">
      <defs>
       <path id="DejaVuSans-41" d="M 2188 4044 
L 1331 1722 
L 3047 1722 
L 2188 4044 
z
M 1831 4666 
L 2547 4666 
L 4325 0 
L 3669 0 
L 3244 1197 
L 1141 1197 
L 716 0 
L 50 0 
L 1831 4666 
z
" transform="scale(0.015625)"/>
       <path id="DejaVuSans-76" d="M 191 3500 
L 800 3500 
L 1894 563 
L 2988 3500 
L 3597 3500 
L 2284 0 
L 1503 0 
L 191 3500 
z
" transform="scale(0.015625)"/>
       <path id="DejaVuSans-67" d="M 2906 1791 
Q 2906 2416 2648 2759 
Q 2391 3103 1925 3103 
Q 1463 3103 1205 2759 
Q 947 2416 947 1791 
Q 947 1169 1205 825 
Q 1463 481 1925 481 
Q 2391 481 2648 825 
Q 2906 1169 2906 1791 
z
M 3481 434 
Q 3481 -459 3084 -895 
Q 2688 -1331 1869 -1331 
Q 1566 -1331 1297 -1286 
Q 1028 -1241 775 -1147 
L 775 -588 
Q 1028 -725 1275 -790 
Q 1522 -856 1778 -856 
Q 2344 -856 2625 -561 
Q 2906 -266 2906 331 
L 2906 616 
Q 2728 306 2450 153 
Q 2172 0 1784 0 
Q 1141 0 747 490 
Q 353 981 353 1791 
Q 353 2603 747 3093 
Q 1141 3584 1784 3584 
Q 2172 3584 2450 3431 
Q 2728 3278 2906 2969 
L 2906 3500 
L 3481 3500 
L 3481 434 
z
" transform="scale(0.015625)"/>
       <path id="DejaVuSans-6c" d="M 603 4863 
L 1178 4863 
L 1178 0 
L 603 0 
L 603 4863 
z
" transform="scale(0.015625)"/>
      </defs>
      <use xlink:href="#DejaVuSans-41"/>
      <use xlink:href="#DejaVuSans-76" transform="translate(62.533203 0)"/>
      <use xlink:href="#DejaVuSans-65" transform="translate(121.712891 0)"/>
      <use xlink:href="#DejaVuSans-72" transform="translate(183.236328 0)"/>
      <use xlink:href="#DejaVuSans-61" transform="translate(224.349609 0)"/>
      <use xlink:href="#DejaVuSans-67" transform="translate(285.628906 0)"/>
      <use xlink:href="#DejaVuSans-65" transform="translate(349.105469 0)"/>
      <use xlink:href="#DejaVuSans-20" transform="translate(410.628906 0)"/>
      <use xlink:href="#DejaVuSans-63" transform="translate(442.416016 0)"/>
      <use xlink:href="#DejaVuSans-75" transform="translate(497.396484 0)"/>
      <use xlink:href="#DejaVuSans-6d" transform="translate(560.775391 0)"/>
      <use xlink:href="#DejaVuSans-75" transform="translate(658.1875 0)"/>
      <use xlink:href="#DejaVuSans-6c" transform="translate(721.566406 0)"/>
      <use xlink:href="#DejaVuSans-61" transform="translate(749.349609 0)"/>
      <use xlink:href="#DejaVuSans-74" transform="translate(810.628906 0)"/>
      <use xlink:href="#DejaVuSans-69" transform="translate(849.837891 0)"/>
      <use xlink:href="#DejaVuSans-76" transform="translate(877.621094 0)"/>
      <use xlink:href="#DejaVuSans-65" transform="translate(936.800781 0)"/>
      <use xlink:href="#DejaVuSans-20" transform="translate(998.324219 0)"/>
      <use xlink:href="#DejaVuSans-63" transform="translate(1030.111328 0)"/>
      <use xlink:href="#DejaVuSans-6f" transform="translate(1085.091797 0)"/>
      <use xlink:href="#DejaVuSans-75" transform="translate(1146.273438 0)"/>
      <use xlink:href="#DejaVuSans-6e" transform="translate(1209.652344 0)"/>
      <use xlink:href="#DejaVuSans-74" transform="translate(1273.03125 0)"/>
     </g>
    </g>
   </g>
   <g id="line2d_31">
    <path d="M 64.209716 367.005871 
L 64.339063 367.005871 
L 64.683988 360.418031 
L 64.770219 360.418031 
L 65.072028 354.928164 
L 65.115144 354.928164 
L 65.373838 350.536271 
L 65.416953 350.536271 
L 65.718762 345.046404 
L 65.761878 345.046404 
L 66.020572 340.654511 
L 66.063687 340.654511 
L 66.365497 335.164644 
L 66.408612 335.164644 
L 66.667306 330.77275 
L 66.710422 330.77275 
L 66.882884 328.576804 
L 66.926 328.576804 
L 67.098462 326.380857 
L 67.141578 326.380857 
L 67.400272 321.988964 
L 67.486503 321.988964 
L 67.831428 315.401123 
L 67.917659 315.401123 
L 68.262584 308.813283 
L 68.348815 308.813283 
L 68.650624 303.323416 
L 68.779971 303.323416 
L 68.952434 301.12747 
L 68.995549 301.12747 
L 69.297359 295.637603 
L 69.38359 295.637603 
L 69.728515 289.049763 
L 69.814746 289.049763 
L 70.116555 283.559896 
L 70.159671 283.559896 
L 70.418365 279.168002 
L 70.46148 279.168002 
L 70.76329 273.678135 
L 70.892637 273.678135 
L 71.237561 267.090295 
L 71.323793 267.090295 
L 71.668718 260.502455 
L 71.754949 260.502455 
L 72.099874 253.914615 
L 72.186105 253.914615 
L 72.53103 247.326775 
L 72.617261 247.326775 
L 72.789724 245.130828 
L 72.832839 245.130828 
L 73.177764 238.542988 
L 73.263995 238.542988 
L 73.436458 236.347041 
L 73.479574 236.347041 
L 73.824498 229.759201 
L 73.91073 229.759201 
L 74.255655 223.171361 
L 74.341886 223.171361 
L 74.514348 220.975414 
L 74.557464 220.975414 
L 74.729926 217.681494 
L 74.773042 217.681494 
L 74.945504 214.387574 
L 74.98862 214.387574 
L 75.161083 211.093654 
L 75.204198 211.093654 
L 75.376661 207.799734 
L 75.419776 207.799734 
L 75.592239 204.505814 
L 75.635354 204.505814 
L 75.807817 201.211893 
L 75.850932 201.211893 
L 76.023395 197.917973 
L 76.066511 197.917973 
L 76.238973 194.624053 
L 76.282089 194.624053 
L 76.411435 193.52608 
L 76.497667 193.52608 
L 76.627014 192.428107 
L 76.713245 192.428107 
L 76.842592 190.23216 
L 76.928823 190.23216 
L 77.101285 186.93824 
L 77.144401 186.93824 
L 77.273748 184.742293 
L 77.359979 184.742293 
L 77.489326 182.546346 
L 77.575557 182.546346 
L 77.704904 181.448373 
L 77.834251 181.448373 
L 77.963598 180.3504 
L 81.412847 180.3504 
L 81.542194 179.252426 
L 81.628425 179.252426 
L 81.757772 178.154453 
L 81.844003 178.154453 
L 81.97335 177.056479 
L 82.059581 177.056479 
L 82.188928 175.958506 
L 82.275159 175.958506 
L 82.404506 174.860533 
L 82.490737 174.860533 
L 82.620084 173.762559 
L 82.706315 173.762559 
L 82.835662 172.664586 
L 82.921894 172.664586 
L 83.05124 171.566613 
L 83.137472 171.566613 
L 83.266819 170.468639 
L 83.35305 170.468639 
L 83.482397 169.370666 
L 83.568628 169.370666 
L 83.697975 168.272693 
L 83.784206 168.272693 
L 83.913553 167.174719 
L 83.999784 167.174719 
L 84.129131 166.076746 
L 84.215362 166.076746 
L 84.344709 164.978772 
L 84.43094 164.978772 
L 84.560287 163.880799 
L 84.862096 163.880799 
L 84.991443 162.782826 
L 85.077674 162.782826 
L 85.207021 161.684852 
L 85.293252 161.684852 
L 85.422599 160.586879 
L 85.508831 160.586879 
L 85.638177 159.488906 
L 85.724409 159.488906 
L 85.853756 158.390932 
L 85.939987 158.390932 
L 86.069334 157.292959 
L 86.155565 157.292959 
L 86.284912 156.194986 
L 86.371143 156.194986 
L 86.50049 155.097012 
L 86.586721 155.097012 
L 86.716068 153.999039 
L 86.802299 153.999039 
L 86.931646 152.901065 
L 87.017877 152.901065 
L 87.147224 151.803092 
L 87.233455 151.803092 
L 87.362802 150.705119 
L 87.449033 150.705119 
L 87.57838 149.607145 
L 87.664611 149.607145 
L 87.793958 148.509172 
L 87.880189 148.509172 
L 88.009536 147.411199 
L 88.095768 147.411199 
L 88.225114 146.313225 
L 88.311346 146.313225 
L 88.440693 145.215252 
L 88.526924 145.215252 
L 88.656271 144.117279 
L 88.742502 144.117279 
L 88.871849 143.019305 
L 88.95808 143.019305 
L 89.087427 141.921332 
L 89.173658 141.921332 
L 89.303005 140.823358 
L 89.389236 140.823358 
L 89.518583 139.725385 
L 89.604814 139.725385 
L 89.734161 138.627412 
L 89.820392 138.627412 
L 89.949739 137.529438 
L 90.03597 137.529438 
L 90.165317 136.431465 
L 90.251548 136.431465 
L 90.380895 135.333492 
L 90.467126 135.333492 
L 90.596473 134.235518 
L 90.682705 134.235518 
L 90.812051 133.137545 
L 90.898283 133.137545 
L 91.02763 132.039572 
L 91.113861 132.039572 
L 91.243208 130.941598 
L 91.329439 130.941598 
L 91.458786 129.843625 
L 91.545017 129.843625 
L 91.674364 128.745651 
L 91.760595 128.745651 
L 91.889942 127.647678 
L 91.976173 127.647678 
L 92.10552 126.549705 
L 92.191751 126.549705 
L 92.321098 125.451731 
L 92.407329 125.451731 
L 92.536676 124.353758 
L 92.622907 124.353758 
L 92.752254 123.255785 
L 92.838485 123.255785 
L 92.967832 122.157811 
L 93.054063 122.157811 
L 93.18341 121.059838 
L 93.269642 121.059838 
L 93.398988 119.961865 
L 93.48522 119.961865 
L 93.614567 118.863891 
L 93.700798 118.863891 
L 93.830145 117.765918 
L 93.916376 117.765918 
L 94.045723 116.667944 
L 94.131954 116.667944 
L 94.261301 115.569971 
L 94.347532 115.569971 
L 94.476879 114.471998 
L 94.56311 114.471998 
L 94.692457 113.374024 
L 94.778688 113.374024 
L 94.908035 112.276051 
L 94.994266 112.276051 
L 95.123613 111.178078 
L 95.209844 111.178078 
L 95.339191 110.080104 
L 95.425422 110.080104 
L 95.554769 108.982131 
L 95.641001 108.982131 
L 95.770347 107.884157 
L 95.856579 107.884157 
L 95.985925 106.786184 
L 96.072157 106.786184 
L 96.201504 105.688211 
L 96.287735 105.688211 
L 96.417082 104.590237 
L 96.503313 104.590237 
L 96.63266 103.492264 
L 96.718891 103.492264 
L 96.848238 102.394291 
L 96.934469 102.394291 
L 97.063816 101.296317 
L 97.150047 101.296317 
L 97.279394 100.198344 
L 97.365625 100.198344 
L 97.494972 99.100371 
L 97.581203 99.100371 
L 97.71055 98.002397 
L 97.796781 98.002397 
L 97.926128 96.904424 
L 98.012359 96.904424 
L 98.141706 95.80645 
L 98.227938 95.80645 
L 98.357284 94.708477 
L 98.443516 94.708477 
L 98.572862 93.610504 
L 98.659094 93.610504 
L 98.788441 92.51253 
L 98.874672 92.51253 
L 99.004019 91.414557 
L 99.09025 91.414557 
L 99.219597 90.316584 
L 99.305828 90.316584 
L 99.435175 89.21861 
L 99.521406 89.21861 
L 99.650753 88.120637 
L 99.736984 88.120637 
L 99.866331 87.022664 
L 99.952562 87.022664 
L 100.081909 85.92469 
L 100.16814 85.92469 
L 100.297487 84.826717 
L 100.383718 84.826717 
L 100.513065 83.728743 
L 100.599296 83.728743 
L 100.728643 82.63077 
L 221.883526 82.63077 
L 222.012873 81.532797 
L 232.66243 81.532797 
L 232.791777 80.434823 
L 254.99632 80.434823 
L 255.125667 79.33685 
L 311.736472 79.33685 
L 311.865818 78.238877 
L 311.995165 78.238877 
L 312.124512 77.140903 
L 312.253859 77.140903 
L 312.383206 76.04293 
L 312.512553 76.04293 
L 312.641899 74.944957 
L 312.771246 74.944957 
L 312.900593 73.846983 
L 313.02994 73.846983 
L 313.159287 72.74901 
L 313.288634 72.74901 
L 313.417981 71.651036 
L 313.590443 71.651036 
L 313.71979 70.553063 
L 313.849137 70.553063 
L 313.978484 69.45509 
L 314.10783 69.45509 
L 314.237177 68.357116 
L 314.366524 68.357116 
L 314.495871 67.259143 
L 314.625218 67.259143 
L 314.754565 66.16117 
L 314.883912 66.16117 
L 315.013258 65.063196 
L 315.142605 65.063196 
L 315.271952 63.965223 
L 315.401299 63.965223 
L 315.530646 62.86725 
L 315.659993 62.86725 
L 315.789339 61.769276 
L 322.601607 61.769276 
L 322.730954 60.671303 
L 322.860301 60.671303 
L 322.989647 59.573329 
L 323.118994 59.573329 
L 323.248341 58.475356 
L 323.377688 58.475356 
L 323.507035 57.377383 
L 323.636382 57.377383 
L 323.765729 56.279409 
L 323.895075 56.279409 
L 324.024422 55.181436 
L 324.153769 55.181436 
L 324.283116 54.083463 
L 324.412463 54.083463 
L 324.54181 52.985489 
L 324.671157 52.985489 
L 324.800503 51.887516 
L 324.92985 51.887516 
L 325.059197 50.789543 
L 325.188544 50.789543 
L 325.317891 49.691569 
L 325.447238 49.691569 
L 325.576584 48.593596 
L 325.705931 48.593596 
L 325.835278 47.495622 
L 325.964625 47.495622 
L 326.093972 46.397649 
L 326.223319 46.397649 
L 326.352666 45.299676 
L 326.482012 45.299676 
L 326.611359 44.201702 
L 344.935496 44.201702 
L 345.064843 43.103729 
L 345.19419 43.103729 
L 345.323537 42.005756 
L 345.452884 42.005756 
L 345.582231 40.907782 
L 345.711578 40.907782 
L 345.840924 39.809809 
L 345.970271 39.809809 
L 346.099618 38.711836 
L 346.228965 38.711836 
L 346.358312 37.613862 
L 346.487659 37.613862 
L 346.617005 36.515889 
L 346.746352 36.515889 
L 346.875699 35.417915 
L 347.005046 35.417915 
L 347.134393 34.319942 
L 347.26374 34.319942 
L 347.393087 33.221969 
L 347.522433 33.221969 
L 347.65178 32.123995 
L 347.781127 32.123995 
L 347.910474 31.026022 
L 348.039821 31.026022 
L 348.169168 29.928049 
L 348.298515 29.928049 
L 348.427861 28.830075 
L 348.557208 28.830075 
L 348.686555 27.732102 
L 348.815902 27.732102 
L 348.945249 26.634129 
L 377.617134 26.634129 
L 377.746481 25.536155 
L 388.352922 25.536155 
L 388.482269 24.438182 
L 409.091534 24.438182 
L 409.091534 24.438182 
" clip-path="url(#p8d368c919a)" style="fill: none; stroke: #add8e6; stroke-width: 2; stroke-linecap: square"/>
   </g>
   <g id="line2d_32">
    <path d="M 64.209716 369.201818 
L 334.285939 369.201818 
L 334.415286 368.103845 
L 345.064843 368.103845 
L 345.19419 367.005871 
L 360.069078 367.005871 
L 360.198425 365.907898 
L 367.398733 365.907898 
L 367.52808 364.809925 
L 370.847982 364.809925 
L 370.977329 363.711951 
L 386.498951 363.711951 
L 386.628298 362.613978 
L 393.181872 362.613978 
L 393.311218 361.516005 
L 397.277855 361.516005 
L 397.407202 360.418031 
L 409.091534 360.418031 
L 409.091534 360.418031 
" clip-path="url(#p8d368c919a)" style="fill: none; stroke: #6495ed; stroke-width: 2; stroke-linecap: square"/>
   </g>
   <g id="line2d_33">
    <path d="M 64.209716 369.201818 
L 289.359466 369.201818 
L 289.488813 368.103845 
L 300.138371 368.103845 
L 300.267717 367.005871 
L 322.47226 367.005871 
L 322.601607 365.907898 
L 363.777021 365.907898 
L 363.906368 364.809925 
L 374.555925 364.809925 
L 374.685272 363.711951 
L 396.889815 363.711951 
L 397.019161 362.613978 
L 409.091534 362.613978 
L 409.091534 362.613978 
" clip-path="url(#p8d368c919a)" style="fill: none; stroke: #00008b; stroke-width: 2; stroke-linecap: square"/>
   </g>
   <g id="line2d_34">
    <path d="M 64.209716 369.201818 
L 409.091534 369.201818 
L 409.091534 369.201818 
" clip-path="url(#p8d368c919a)" style="fill: none; stroke: #2f4f4f; stroke-width: 2; stroke-linecap: square"/>
   </g>
   <g id="patch_3">
    <path d="M 46.965625 386.44 
L 46.965625 7.2 
" style="fill: none; stroke: #000000; stroke-width: 0.8; stroke-linejoin: miter; stroke-linecap: square"/>
   </g>
   <g id="patch_4">
    <path d="M 426.335625 386.44 
L 426.335625 7.2 
" style="fill: none; stroke: #000000; stroke-width: 0.8; stroke-linejoin: miter; stroke-linecap: square"/>
   </g>
   <g id="patch_5">
    <path d="M 46.965625 386.44 
L 426.335625 386.44 
" style="fill: none; stroke: #000000; stroke-width: 0.8; stroke-linejoin: miter; stroke-linecap: square"/>
   </g>
   <g id="patch_6">
    <path d="M 46.965625 7.2 
L 426.335625 7.2 
" style="fill: none; stroke: #000000; stroke-width: 0.8; stroke-linejoin: miter; stroke-linecap: square"/>
   </g>
   <g id="legend_1">
    <g id="patch_7">
     <path d="M 433.335625 88.590625 
L 558.685625 88.590625 
Q 560.685625 88.590625 560.685625 86.590625 
L 560.685625 14.2 
Q 560.685625 12.2 558.685625 12.2 
L 433.335625 12.2 
Q 431.335625 12.2 431.335625 14.2 
L 431.335625 86.590625 
Q 431.335625 88.590625 433.335625 88.590625 
z
" style="fill: #ffffff; opacity: 0.8; stroke: #cccccc; stroke-linejoin: miter"/>
    </g>
    <g id="text_18">
     <!-- Motifs &amp; orientation -->
     <g transform="translate(446.495 23.798437) scale(0.1 -0.1)">
      <defs>
       <path id="DejaVuSans-4d" d="M 628 4666 
L 1569 4666 
L 2759 1491 
L 3956 4666 
L 4897 4666 
L 4897 0 
L 4281 0 
L 4281 4097 
L 3078 897 
L 2444 897 
L 1241 4097 
L 1241 0 
L 628 0 
L 628 4666 
z
" transform="scale(0.015625)"/>
       <path id="DejaVuSans-26" d="M 1556 2509 
Q 1272 2256 1139 2004 
Q 1006 1753 1006 1478 
Q 1006 1022 1337 719 
Q 1669 416 2169 416 
Q 2466 416 2725 514 
Q 2984 613 3213 813 
L 1556 2509 
z
M 1997 2859 
L 3584 1234 
Q 3769 1513 3872 1830 
Q 3975 2147 3994 2503 
L 4575 2503 
Q 4538 2091 4375 1687 
Q 4213 1284 3922 891 
L 4794 0 
L 4006 0 
L 3559 459 
Q 3234 181 2878 45 
Q 2522 -91 2113 -91 
Q 1359 -91 881 339 
Q 403 769 403 1441 
Q 403 1841 612 2192 
Q 822 2544 1241 2853 
Q 1091 3050 1012 3245 
Q 934 3441 934 3628 
Q 934 4134 1281 4442 
Q 1628 4750 2203 4750 
Q 2463 4750 2720 4694 
Q 2978 4638 3244 4525 
L 3244 3956 
Q 2972 4103 2725 4179 
Q 2478 4256 2266 4256 
Q 1938 4256 1733 4082 
Q 1528 3909 1528 3634 
Q 1528 3475 1620 3314 
Q 1713 3153 1997 2859 
z
" transform="scale(0.015625)"/>
      </defs>
      <use xlink:href="#DejaVuSans-4d"/>
      <use xlink:href="#DejaVuSans-6f" transform="translate(86.279297 0)"/>
      <use xlink:href="#DejaVuSans-74" transform="translate(147.460938 0)"/>
      <use xlink:href="#DejaVuSans-69" transform="translate(186.669922 0)"/>
      <use xlink:href="#DejaVuSans-66" transform="translate(214.453125 0)"/>
      <use xlink:href="#DejaVuSans-73" transform="translate(249.658203 0)"/>
      <use xlink:href="#DejaVuSans-20" transform="translate(301.757812 0)"/>
      <use xlink:href="#DejaVuSans-26" transform="translate(333.544922 0)"/>
      <use xlink:href="#DejaVuSans-20" transform="translate(411.523438 0)"/>
      <use xlink:href="#DejaVuSans-6f" transform="translate(443.310547 0)"/>
      <use xlink:href="#DejaVuSans-72" transform="translate(504.492188 0)"/>
      <use xlink:href="#DejaVuSans-69" transform="translate(545.605469 0)"/>
      <use xlink:href="#DejaVuSans-65" transform="translate(573.388672 0)"/>
      <use xlink:href="#DejaVuSans-6e" transform="translate(634.912109 0)"/>
      <use xlink:href="#DejaVuSans-74" transform="translate(698.291016 0)"/>
      <use xlink:href="#DejaVuSans-61" transform="translate(737.5 0)"/>
      <use xlink:href="#DejaVuSans-74" transform="translate(798.779297 0)"/>
      <use xlink:href="#DejaVuSans-69" transform="translate(837.988281 0)"/>
      <use xlink:href="#DejaVuSans-6f" transform="translate(865.771484 0)"/>
      <use xlink:href="#DejaVuSans-6e" transform="translate(926.953125 0)"/>
     </g>
    </g>
    <g id="line2d_35">
     <path d="M 435.335625 34.976562 
L 445.335625 34.976562 
L 455.335625 34.976562 
" style="fill: none; stroke: #add8e6; stroke-width: 2; stroke-linecap: square"/>
    </g>
    <g id="text_19">
     <!-- CCTAA (5' end) -->
     <g transform="translate(463.335625 38.476562) scale(0.1 -0.1)">
      <defs>
       <path id="DejaVuSans-43" d="M 4122 4306 
L 4122 3641 
Q 3803 3938 3442 4084 
Q 3081 4231 2675 4231 
Q 1875 4231 1450 3742 
Q 1025 3253 1025 2328 
Q 1025 1406 1450 917 
Q 1875 428 2675 428 
Q 3081 428 3442 575 
Q 3803 722 4122 1019 
L 4122 359 
Q 3791 134 3420 21 
Q 3050 -91 2638 -91 
Q 1578 -91 968 557 
Q 359 1206 359 2328 
Q 359 3453 968 4101 
Q 1578 4750 2638 4750 
Q 3056 4750 3426 4639 
Q 3797 4528 4122 4306 
z
" transform="scale(0.015625)"/>
       <path id="DejaVuSans-54" d="M -19 4666 
L 3928 4666 
L 3928 4134 
L 2272 4134 
L 2272 0 
L 1638 0 
L 1638 4134 
L -19 4134 
L -19 4666 
z
" transform="scale(0.015625)"/>
       <path id="DejaVuSans-28" d="M 1984 4856 
Q 1566 4138 1362 3434 
Q 1159 2731 1159 2009 
Q 1159 1288 1364 580 
Q 1569 -128 1984 -844 
L 1484 -844 
Q 1016 -109 783 600 
Q 550 1309 550 2009 
Q 550 2706 781 3412 
Q 1013 4119 1484 4856 
L 1984 4856 
z
" transform="scale(0.015625)"/>
       <path id="DejaVuSans-27" d="M 1147 4666 
L 1147 2931 
L 616 2931 
L 616 4666 
L 1147 4666 
z
" transform="scale(0.015625)"/>
       <path id="DejaVuSans-64" d="M 2906 2969 
L 2906 4863 
L 3481 4863 
L 3481 0 
L 2906 0 
L 2906 525 
Q 2725 213 2448 61 
Q 2172 -91 1784 -91 
Q 1150 -91 751 415 
Q 353 922 353 1747 
Q 353 2572 751 3078 
Q 1150 3584 1784 3584 
Q 2172 3584 2448 3432 
Q 2725 3281 2906 2969 
z
M 947 1747 
Q 947 1113 1208 752 
Q 1469 391 1925 391 
Q 2381 391 2643 752 
Q 2906 1113 2906 1747 
Q 2906 2381 2643 2742 
Q 2381 3103 1925 3103 
Q 1469 3103 1208 2742 
Q 947 2381 947 1747 
z
" transform="scale(0.015625)"/>
       <path id="DejaVuSans-29" d="M 513 4856 
L 1013 4856 
Q 1481 4119 1714 3412 
Q 1947 2706 1947 2009 
Q 1947 1309 1714 600 
Q 1481 -109 1013 -844 
L 513 -844 
Q 928 -128 1133 580 
Q 1338 1288 1338 2009 
Q 1338 2731 1133 3434 
Q 928 4138 513 4856 
z
" transform="scale(0.015625)"/>
      </defs>
      <use xlink:href="#DejaVuSans-43"/>
      <use xlink:href="#DejaVuSans-43" transform="translate(69.824219 0)"/>
      <use xlink:href="#DejaVuSans-54" transform="translate(139.648438 0)"/>
      <use xlink:href="#DejaVuSans-41" transform="translate(192.982422 0)"/>
      <use xlink:href="#DejaVuSans-41" transform="translate(264.140625 0)"/>
      <use xlink:href="#DejaVuSans-20" transform="translate(332.548828 0)"/>
      <use xlink:href="#DejaVuSans-28" transform="translate(364.335938 0)"/>
      <use xlink:href="#DejaVuSans-35" transform="translate(403.349609 0)"/>
      <use xlink:href="#DejaVuSans-27" transform="translate(466.972656 0)"/>
      <use xlink:href="#DejaVuSans-20" transform="translate(494.462891 0)"/>
      <use xlink:href="#DejaVuSans-65" transform="translate(526.25 0)"/>
      <use xlink:href="#DejaVuSans-6e" transform="translate(587.773438 0)"/>
      <use xlink:href="#DejaVuSans-64" transform="translate(651.152344 0)"/>
      <use xlink:href="#DejaVuSans-29" transform="translate(714.628906 0)"/>
     </g>
    </g>
    <g id="line2d_36">
     <path d="M 435.335625 49.654687 
L 445.335625 49.654687 
L 455.335625 49.654687 
" style="fill: none; stroke: #6495ed; stroke-width: 2; stroke-linecap: square"/>
    </g>
    <g id="text_20">
     <!-- CAATAA (5' end) -->
     <g transform="translate(463.335625 53.154687) scale(0.1 -0.1)">
      <use xlink:href="#DejaVuSans-43"/>
      <use xlink:href="#DejaVuSans-41" transform="translate(69.824219 0)"/>
      <use xlink:href="#DejaVuSans-41" transform="translate(140.982422 0)"/>
      <use xlink:href="#DejaVuSans-54" transform="translate(201.640625 0)"/>
      <use xlink:href="#DejaVuSans-41" transform="translate(254.974609 0)"/>
      <use xlink:href="#DejaVuSans-41" transform="translate(326.132812 0)"/>
      <use xlink:href="#DejaVuSans-20" transform="translate(394.541016 0)"/>
      <use xlink:href="#DejaVuSans-28" transform="translate(426.328125 0)"/>
      <use xlink:href="#DejaVuSans-35" transform="translate(465.341797 0)"/>
      <use xlink:href="#DejaVuSans-27" transform="translate(528.964844 0)"/>
      <use xlink:href="#DejaVuSans-20" transform="translate(556.455078 0)"/>
      <use xlink:href="#DejaVuSans-65" transform="translate(588.242188 0)"/>
      <use xlink:href="#DejaVuSans-6e" transform="translate(649.765625 0)"/>
      <use xlink:href="#DejaVuSans-64" transform="translate(713.144531 0)"/>
      <use xlink:href="#DejaVuSans-29" transform="translate(776.621094 0)"/>
     </g>
    </g>
    <g id="line2d_37">
     <path d="M 435.335625 64.332812 
L 445.335625 64.332812 
L 455.335625 64.332812 
" style="fill: none; stroke: #00008b; stroke-width: 2; stroke-linecap: square"/>
    </g>
    <g id="text_21">
     <!-- CTGAAA (5' end) -->
     <g transform="translate(463.335625 67.832812) scale(0.1 -0.1)">
      <defs>
       <path id="DejaVuSans-47" d="M 3809 666 
L 3809 1919 
L 2778 1919 
L 2778 2438 
L 4434 2438 
L 4434 434 
Q 4069 175 3628 42 
Q 3188 -91 2688 -91 
Q 1594 -91 976 548 
Q 359 1188 359 2328 
Q 359 3472 976 4111 
Q 1594 4750 2688 4750 
Q 3144 4750 3555 4637 
Q 3966 4525 4313 4306 
L 4313 3634 
Q 3963 3931 3569 4081 
Q 3175 4231 2741 4231 
Q 1884 4231 1454 3753 
Q 1025 3275 1025 2328 
Q 1025 1384 1454 906 
Q 1884 428 2741 428 
Q 3075 428 3337 486 
Q 3600 544 3809 666 
z
" transform="scale(0.015625)"/>
      </defs>
      <use xlink:href="#DejaVuSans-43"/>
      <use xlink:href="#DejaVuSans-54" transform="translate(69.824219 0)"/>
      <use xlink:href="#DejaVuSans-47" transform="translate(130.908203 0)"/>
      <use xlink:href="#DejaVuSans-41" transform="translate(208.398438 0)"/>
      <use xlink:href="#DejaVuSans-41" transform="translate(279.556641 0)"/>
      <use xlink:href="#DejaVuSans-41" transform="translate(350.714844 0)"/>
      <use xlink:href="#DejaVuSans-20" transform="translate(419.123047 0)"/>
      <use xlink:href="#DejaVuSans-28" transform="translate(450.910156 0)"/>
      <use xlink:href="#DejaVuSans-35" transform="translate(489.923828 0)"/>
      <use xlink:href="#DejaVuSans-27" transform="translate(553.546875 0)"/>
      <use xlink:href="#DejaVuSans-20" transform="translate(581.037109 0)"/>
      <use xlink:href="#DejaVuSans-65" transform="translate(612.824219 0)"/>
      <use xlink:href="#DejaVuSans-6e" transform="translate(674.347656 0)"/>
      <use xlink:href="#DejaVuSans-64" transform="translate(737.726562 0)"/>
      <use xlink:href="#DejaVuSans-29" transform="translate(801.203125 0)"/>
     </g>
    </g>
    <g id="line2d_38">
     <path d="M 435.335625 79.010937 
L 445.335625 79.010937 
L 455.335625 79.010937 
" style="fill: none; stroke: #2f4f4f; stroke-width: 2; stroke-linecap: square"/>
    </g>
    <g id="text_22">
     <!-- CTTTTCAA (5' end) -->
     <g transform="translate(463.335625 82.510937) scale(0.1 -0.1)">
      <use xlink:href="#DejaVuSans-43"/>
      <use xlink:href="#DejaVuSans-54" transform="translate(69.824219 0)"/>
      <use xlink:href="#DejaVuSans-54" transform="translate(129.158203 0)"/>
      <use xlink:href="#DejaVuSans-54" transform="translate(188.492188 0)"/>
      <use xlink:href="#DejaVuSans-54" transform="translate(247.826172 0)"/>
      <use xlink:href="#DejaVuSans-43" transform="translate(303.035156 0)"/>
      <use xlink:href="#DejaVuSans-41" transform="translate(372.859375 0)"/>
      <use xlink:href="#DejaVuSans-41" transform="translate(444.017578 0)"/>
      <use xlink:href="#DejaVuSans-20" transform="translate(512.425781 0)"/>
      <use xlink:href="#DejaVuSans-28" transform="translate(544.212891 0)"/>
      <use xlink:href="#DejaVuSans-35" transform="translate(583.226562 0)"/>
      <use xlink:href="#DejaVuSans-27" transform="translate(646.849609 0)"/>
      <use xlink:href="#DejaVuSans-20" transform="translate(674.339844 0)"/>
      <use xlink:href="#DejaVuSans-65" transform="translate(706.126953 0)"/>
      <use xlink:href="#DejaVuSans-6e" transform="translate(767.650391 0)"/>
      <use xlink:href="#DejaVuSans-64" transform="translate(831.029297 0)"/>
      <use xlink:href="#DejaVuSans-29" transform="translate(894.505859 0)"/>
     </g>
    </g>
   </g>
  </g>
 </g>
 <defs>
  <clipPath id="p8d368c919a">
   <rect x="46.965625" y="7.2" width="379.37" height="379.24"/>
  </clipPath>
 </defs>
</svg>
