<?xml version="1.0" encoding="utf-8" standalone="no"?>
<!DOCTYPE svg PUBLIC "-//W3C//DTD SVG 1.1//EN"
  "http://www.w3.org/Graphics/SVG/1.1/DTD/svg11.dtd">
<svg xmlns:xlink="http://www.w3.org/1999/xlink" width="712.1725pt" height="496.474375pt" viewBox="0 0 712.1725 496.474375" xmlns="http://www.w3.org/2000/svg" version="1.1">
 <metadata>
  <rdf:RDF xmlns:dc="http://purl.org/dc/elements/1.1/" xmlns:cc="http://creativecommons.org/ns#" xmlns:rdf="http://www.w3.org/1999/02/22-rdf-syntax-ns#">
   <cc:Work>
    <dc:type rdf:resource="http://purl.org/dc/dcmitype/StillImage"/>
    <dc:date>2026-03-20T12:45:35.337218</dc:date>
    <dc:format>image/svg+xml</dc:format>
    <dc:creator>
     <cc:Agent>
      <dc:title>Matplotlib v3.10.6, https://matplotlib.org/</dc:title>
     </cc:Agent>
    </dc:creator>
   </cc:Work>
  </rdf:RDF>
 </metadata>
 <defs>
  <style type="text/css">*{stroke-linejoin: round; stroke-linecap: butt}</style>
 </defs>
 <g id="figure_1">
  <g id="patch_1">
   <path d="M 0 496.474375 
L 712.1725 496.474375 
L 712.1725 0 
L 0 0 
z
" style="fill: #ffffff"/>
  </g>
  <g id="axes_1">
   <g id="patch_2">
    <path d="M 40.603125 458.918125 
L 566.313125 458.918125 
L 566.313125 22.318125 
L 40.603125 22.318125 
z
" style="fill: #ffffff"/>
   </g>
   <g id="matplotlib.axis_1">
    <g id="xtick_1">
     <g id="line2d_1">
      <path d="M 64.499034 458.918125 
L 64.499034 22.318125 
" clip-path="url(#p6a3bdefcd3)" style="fill: none; stroke-dasharray: 2.96,1.28; stroke-dashoffset: 0; stroke: #b0b0b0; stroke-opacity: 0.6; stroke-width: 0.8"/>
     </g>
     <g id="line2d_2">
      <defs>
       <path id="m930a038085" d="M 0 0 
L 0 3.5 
" style="stroke: #000000; stroke-width: 0.8"/>
      </defs>
      <g>
       <use xlink:href="#m930a038085" x="64.499034" y="458.918125" style="stroke: #000000; stroke-width: 0.8"/>
      </g>
     </g>
     <g id="text_1">
      <!-- 0 -->
      <g transform="translate(61.317784 473.516563) scale(0.1 -0.1)">
       <defs>
        <path id="DejaVuSans-30" d="M 2034 4250 
Q 1547 4250 1301 3770 
Q 1056 3291 1056 2328 
Q 1056 1369 1301 889 
Q 1547 409 2034 409 
Q 2525 409 2770 889 
Q 3016 1369 3016 2328 
Q 3016 3291 2770 3770 
Q 2525 4250 2034 4250 
z
M 2034 4750 
Q 2819 4750 3233 4129 
Q 3647 3509 3647 2328 
Q 3647 1150 3233 529 
Q 2819 -91 2034 -91 
Q 1250 -91 836 529 
Q 422 1150 422 2328 
Q 422 3509 836 4129 
Q 1250 4750 2034 4750 
z
" transform="scale(0.015625)"/>
       </defs>
       <use xlink:href="#DejaVuSans-30"/>
      </g>
     </g>
    </g>
    <g id="xtick_2">
     <g id="line2d_3">
      <path d="M 144.158703 458.918125 
L 144.158703 22.318125 
" clip-path="url(#p6a3bdefcd3)" style="fill: none; stroke-dasharray: 2.96,1.28; stroke-dashoffset: 0; stroke: #b0b0b0; stroke-opacity: 0.6; stroke-width: 0.8"/>
     </g>
     <g id="line2d_4">
      <g>
       <use xlink:href="#m930a038085" x="144.158703" y="458.918125" style="stroke: #000000; stroke-width: 0.8"/>
      </g>
     </g>
     <g id="text_2">
      <!-- 2000 -->
      <g transform="translate(131.433703 473.516563) scale(0.1 -0.1)">
       <defs>
        <path id="DejaVuSans-32" d="M 1228 531 
L 3431 531 
L 3431 0 
L 469 0 
L 469 531 
Q 828 903 1448 1529 
Q 2069 2156 2228 2338 
Q 2531 2678 2651 2914 
Q 2772 3150 2772 3378 
Q 2772 3750 2511 3984 
Q 2250 4219 1831 4219 
Q 1534 4219 1204 4116 
Q 875 4013 500 3803 
L 500 4441 
Q 881 4594 1212 4672 
Q 1544 4750 1819 4750 
Q 2544 4750 2975 4387 
Q 3406 4025 3406 3419 
Q 3406 3131 3298 2873 
Q 3191 2616 2906 2266 
Q 2828 2175 2409 1742 
Q 1991 1309 1228 531 
z
" transform="scale(0.015625)"/>
       </defs>
       <use xlink:href="#DejaVuSans-32"/>
       <use xlink:href="#DejaVuSans-30" transform="translate(63.623047 0)"/>
       <use xlink:href="#DejaVuSans-30" transform="translate(127.246094 0)"/>
       <use xlink:href="#DejaVuSans-30" transform="translate(190.869141 0)"/>
      </g>
     </g>
    </g>
    <g id="xtick_3">
     <g id="line2d_5">
      <path d="M 223.818371 458.918125 
L 223.818371 22.318125 
" clip-path="url(#p6a3bdefcd3)" style="fill: none; stroke-dasharray: 2.96,1.28; stroke-dashoffset: 0; stroke: #b0b0b0; stroke-opacity: 0.6; stroke-width: 0.8"/>
     </g>
     <g id="line2d_6">
      <g>
       <use xlink:href="#m930a038085" x="223.818371" y="458.918125" style="stroke: #000000; stroke-width: 0.8"/>
      </g>
     </g>
     <g id="text_3">
      <!-- 4000 -->
      <g transform="translate(211.093371 473.516563) scale(0.1 -0.1)">
       <defs>
        <path id="DejaVuSans-34" d="M 2419 4116 
L 825 1625 
L 2419 1625 
L 2419 4116 
z
M 2253 4666 
L 3047 4666 
L 3047 1625 
L 3713 1625 
L 3713 1100 
L 3047 1100 
L 3047 0 
L 2419 0 
L 2419 1100 
L 313 1100 
L 313 1709 
L 2253 4666 
z
" transform="scale(0.015625)"/>
       </defs>
       <use xlink:href="#DejaVuSans-34"/>
       <use xlink:href="#DejaVuSans-30" transform="translate(63.623047 0)"/>
       <use xlink:href="#DejaVuSans-30" transform="translate(127.246094 0)"/>
       <use xlink:href="#DejaVuSans-30" transform="translate(190.869141 0)"/>
      </g>
     </g>
    </g>
    <g id="xtick_4">
     <g id="line2d_7">
      <path d="M 303.47804 458.918125 
L 303.47804 22.318125 
" clip-path="url(#p6a3bdefcd3)" style="fill: none; stroke-dasharray: 2.96,1.28; stroke-dashoffset: 0; stroke: #b0b0b0; stroke-opacity: 0.6; stroke-width: 0.8"/>
     </g>
     <g id="line2d_8">
      <g>
       <use xlink:href="#m930a038085" x="303.47804" y="458.918125" style="stroke: #000000; stroke-width: 0.8"/>
      </g>
     </g>
     <g id="text_4">
      <!-- 6000 -->
      <g transform="translate(290.75304 473.516563) scale(0.1 -0.1)">
       <defs>
        <path id="DejaVuSans-36" d="M 2113 2584 
Q 1688 2584 1439 2293 
Q 1191 2003 1191 1497 
Q 1191 994 1439 701 
Q 1688 409 2113 409 
Q 2538 409 2786 701 
Q 3034 994 3034 1497 
Q 3034 2003 2786 2293 
Q 2538 2584 2113 2584 
z
M 3366 4563 
L 3366 3988 
Q 3128 4100 2886 4159 
Q 2644 4219 2406 4219 
Q 1781 4219 1451 3797 
Q 1122 3375 1075 2522 
Q 1259 2794 1537 2939 
Q 1816 3084 2150 3084 
Q 2853 3084 3261 2657 
Q 3669 2231 3669 1497 
Q 3669 778 3244 343 
Q 2819 -91 2113 -91 
Q 1303 -91 875 529 
Q 447 1150 447 2328 
Q 447 3434 972 4092 
Q 1497 4750 2381 4750 
Q 2619 4750 2861 4703 
Q 3103 4656 3366 4563 
z
" transform="scale(0.015625)"/>
       </defs>
       <use xlink:href="#DejaVuSans-36"/>
       <use xlink:href="#DejaVuSans-30" transform="translate(63.623047 0)"/>
       <use xlink:href="#DejaVuSans-30" transform="translate(127.246094 0)"/>
       <use xlink:href="#DejaVuSans-30" transform="translate(190.869141 0)"/>
      </g>
     </g>
    </g>
    <g id="xtick_5">
     <g id="line2d_9">
      <path d="M 383.137709 458.918125 
L 383.137709 22.318125 
" clip-path="url(#p6a3bdefcd3)" style="fill: none; stroke-dasharray: 2.96,1.28; stroke-dashoffset: 0; stroke: #b0b0b0; stroke-opacity: 0.6; stroke-width: 0.8"/>
     </g>
     <g id="line2d_10">
      <g>
       <use xlink:href="#m930a038085" x="383.137709" y="458.918125" style="stroke: #000000; stroke-width: 0.8"/>
      </g>
     </g>
     <g id="text_5">
      <!-- 8000 -->
      <g transform="translate(370.412709 473.516563) scale(0.1 -0.1)">
       <defs>
        <path id="DejaVuSans-38" d="M 2034 2216 
Q 1584 2216 1326 1975 
Q 1069 1734 1069 1313 
Q 1069 891 1326 650 
Q 1584 409 2034 409 
Q 2484 409 2743 651 
Q 3003 894 3003 1313 
Q 3003 1734 2745 1975 
Q 2488 2216 2034 2216 
z
M 1403 2484 
Q 997 2584 770 2862 
Q 544 3141 544 3541 
Q 544 4100 942 4425 
Q 1341 4750 2034 4750 
Q 2731 4750 3128 4425 
Q 3525 4100 3525 3541 
Q 3525 3141 3298 2862 
Q 3072 2584 2669 2484 
Q 3125 2378 3379 2068 
Q 3634 1759 3634 1313 
Q 3634 634 3220 271 
Q 2806 -91 2034 -91 
Q 1263 -91 848 271 
Q 434 634 434 1313 
Q 434 1759 690 2068 
Q 947 2378 1403 2484 
z
M 1172 3481 
Q 1172 3119 1398 2916 
Q 1625 2713 2034 2713 
Q 2441 2713 2670 2916 
Q 2900 3119 2900 3481 
Q 2900 3844 2670 4047 
Q 2441 4250 2034 4250 
Q 1625 4250 1398 4047 
Q 1172 3844 1172 3481 
z
" transform="scale(0.015625)"/>
       </defs>
       <use xlink:href="#DejaVuSans-38"/>
       <use xlink:href="#DejaVuSans-30" transform="translate(63.623047 0)"/>
       <use xlink:href="#DejaVuSans-30" transform="translate(127.246094 0)"/>
       <use xlink:href="#DejaVuSans-30" transform="translate(190.869141 0)"/>
      </g>
     </g>
    </g>
    <g id="xtick_6">
     <g id="line2d_11">
      <path d="M 462.797377 458.918125 
L 462.797377 22.318125 
" clip-path="url(#p6a3bdefcd3)" style="fill: none; stroke-dasharray: 2.96,1.28; stroke-dashoffset: 0; stroke: #b0b0b0; stroke-opacity: 0.6; stroke-width: 0.8"/>
     </g>
     <g id="line2d_12">
      <g>
       <use xlink:href="#m930a038085" x="462.797377" y="458.918125" style="stroke: #000000; stroke-width: 0.8"/>
      </g>
     </g>
     <g id="text_6">
      <!-- 10000 -->
      <g transform="translate(446.891127 473.516563) scale(0.1 -0.1)">
       <defs>
        <path id="DejaVuSans-31" d="M 794 531 
L 1825 531 
L 1825 4091 
L 703 3866 
L 703 4441 
L 1819 4666 
L 2450 4666 
L 2450 531 
L 3481 531 
L 3481 0 
L 794 0 
L 794 531 
z
" transform="scale(0.015625)"/>
       </defs>
       <use xlink:href="#DejaVuSans-31"/>
       <use xlink:href="#DejaVuSans-30" transform="translate(63.623047 0)"/>
       <use xlink:href="#DejaVuSans-30" transform="translate(127.246094 0)"/>
       <use xlink:href="#DejaVuSans-30" transform="translate(190.869141 0)"/>
       <use xlink:href="#DejaVuSans-30" transform="translate(254.492188 0)"/>
      </g>
     </g>
    </g>
    <g id="xtick_7">
     <g id="line2d_13">
      <path d="M 542.457046 458.918125 
L 542.457046 22.318125 
" clip-path="url(#p6a3bdefcd3)" style="fill: none; stroke-dasharray: 2.96,1.28; stroke-dashoffset: 0; stroke: #b0b0b0; stroke-opacity: 0.6; stroke-width: 0.8"/>
     </g>
     <g id="line2d_14">
      <g>
       <use xlink:href="#m930a038085" x="542.457046" y="458.918125" style="stroke: #000000; stroke-width: 0.8"/>
      </g>
     </g>
     <g id="text_7">
      <!-- 12000 -->
      <g transform="translate(526.550796 473.516563) scale(0.1 -0.1)">
       <use xlink:href="#DejaVuSans-31"/>
       <use xlink:href="#DejaVuSans-32" transform="translate(63.623047 0)"/>
       <use xlink:href="#DejaVuSans-30" transform="translate(127.246094 0)"/>
       <use xlink:href="#DejaVuSans-30" transform="translate(190.869141 0)"/>
       <use xlink:href="#DejaVuSans-30" transform="translate(254.492188 0)"/>
      </g>
     </g>
    </g>
    <g id="text_8">
     <!-- Distance from Terminus [nt] -->
     <g transform="translate(233.715156 487.194687) scale(0.1 -0.1)">
      <defs>
       <path id="DejaVuSans-44" d="M 1259 4147 
L 1259 519 
L 2022 519 
Q 2988 519 3436 956 
Q 3884 1394 3884 2338 
Q 3884 3275 3436 3711 
Q 2988 4147 2022 4147 
L 1259 4147 
z
M 628 4666 
L 1925 4666 
Q 3281 4666 3915 4102 
Q 4550 3538 4550 2338 
Q 4550 1131 3912 565 
Q 3275 0 1925 0 
L 628 0 
L 628 4666 
z
" transform="scale(0.015625)"/>
       <path id="DejaVuSans-69" d="M 603 3500 
L 1178 3500 
L 1178 0 
L 603 0 
L 603 3500 
z
M 603 4863 
L 1178 4863 
L 1178 4134 
L 603 4134 
L 603 4863 
z
" transform="scale(0.015625)"/>
       <path id="DejaVuSans-73" d="M 2834 3397 
L 2834 2853 
Q 2591 2978 2328 3040 
Q 2066 3103 1784 3103 
Q 1356 3103 1142 2972 
Q 928 2841 928 2578 
Q 928 2378 1081 2264 
Q 1234 2150 1697 2047 
L 1894 2003 
Q 2506 1872 2764 1633 
Q 3022 1394 3022 966 
Q 3022 478 2636 193 
Q 2250 -91 1575 -91 
Q 1294 -91 989 -36 
Q 684 19 347 128 
L 347 722 
Q 666 556 975 473 
Q 1284 391 1588 391 
Q 1994 391 2212 530 
Q 2431 669 2431 922 
Q 2431 1156 2273 1281 
Q 2116 1406 1581 1522 
L 1381 1569 
Q 847 1681 609 1914 
Q 372 2147 372 2553 
Q 372 3047 722 3315 
Q 1072 3584 1716 3584 
Q 2034 3584 2315 3537 
Q 2597 3491 2834 3397 
z
" transform="scale(0.015625)"/>
       <path id="DejaVuSans-74" d="M 1172 4494 
L 1172 3500 
L 2356 3500 
L 2356 3053 
L 1172 3053 
L 1172 1153 
Q 1172 725 1289 603 
Q 1406 481 1766 481 
L 2356 481 
L 2356 0 
L 1766 0 
Q 1100 0 847 248 
Q 594 497 594 1153 
L 594 3053 
L 172 3053 
L 172 3500 
L 594 3500 
L 594 4494 
L 1172 4494 
z
" transform="scale(0.015625)"/>
       <path id="DejaVuSans-61" d="M 2194 1759 
Q 1497 1759 1228 1600 
Q 959 1441 959 1056 
Q 959 750 1161 570 
Q 1363 391 1709 391 
Q 2188 391 2477 730 
Q 2766 1069 2766 1631 
L 2766 1759 
L 2194 1759 
z
M 3341 1997 
L 3341 0 
L 2766 0 
L 2766 531 
Q 2569 213 2275 61 
Q 1981 -91 1556 -91 
Q 1019 -91 701 211 
Q 384 513 384 1019 
Q 384 1609 779 1909 
Q 1175 2209 1959 2209 
L 2766 2209 
L 2766 2266 
Q 2766 2663 2505 2880 
Q 2244 3097 1772 3097 
Q 1472 3097 1187 3025 
Q 903 2953 641 2809 
L 641 3341 
Q 956 3463 1253 3523 
Q 1550 3584 1831 3584 
Q 2591 3584 2966 3190 
Q 3341 2797 3341 1997 
z
" transform="scale(0.015625)"/>
       <path id="DejaVuSans-6e" d="M 3513 2113 
L 3513 0 
L 2938 0 
L 2938 2094 
Q 2938 2591 2744 2837 
Q 2550 3084 2163 3084 
Q 1697 3084 1428 2787 
Q 1159 2491 1159 1978 
L 1159 0 
L 581 0 
L 581 3500 
L 1159 3500 
L 1159 2956 
Q 1366 3272 1645 3428 
Q 1925 3584 2291 3584 
Q 2894 3584 3203 3211 
Q 3513 2838 3513 2113 
z
" transform="scale(0.015625)"/>
       <path id="DejaVuSans-63" d="M 3122 3366 
L 3122 2828 
Q 2878 2963 2633 3030 
Q 2388 3097 2138 3097 
Q 1578 3097 1268 2742 
Q 959 2388 959 1747 
Q 959 1106 1268 751 
Q 1578 397 2138 397 
Q 2388 397 2633 464 
Q 2878 531 3122 666 
L 3122 134 
Q 2881 22 2623 -34 
Q 2366 -91 2075 -91 
Q 1284 -91 818 406 
Q 353 903 353 1747 
Q 353 2603 823 3093 
Q 1294 3584 2113 3584 
Q 2378 3584 2631 3529 
Q 2884 3475 3122 3366 
z
" transform="scale(0.015625)"/>
       <path id="DejaVuSans-65" d="M 3597 1894 
L 3597 1613 
L 953 1613 
Q 991 1019 1311 708 
Q 1631 397 2203 397 
Q 2534 397 2845 478 
Q 3156 559 3463 722 
L 3463 178 
Q 3153 47 2828 -22 
Q 2503 -91 2169 -91 
Q 1331 -91 842 396 
Q 353 884 353 1716 
Q 353 2575 817 3079 
Q 1281 3584 2069 3584 
Q 2775 3584 3186 3129 
Q 3597 2675 3597 1894 
z
M 3022 2063 
Q 3016 2534 2758 2815 
Q 2500 3097 2075 3097 
Q 1594 3097 1305 2825 
Q 1016 2553 972 2059 
L 3022 2063 
z
" transform="scale(0.015625)"/>
       <path id="DejaVuSans-20" transform="scale(0.015625)"/>
       <path id="DejaVuSans-66" d="M 2375 4863 
L 2375 4384 
L 1825 4384 
Q 1516 4384 1395 4259 
Q 1275 4134 1275 3809 
L 1275 3500 
L 2222 3500 
L 2222 3053 
L 1275 3053 
L 1275 0 
L 697 0 
L 697 3053 
L 147 3053 
L 147 3500 
L 697 3500 
L 697 3744 
Q 697 4328 969 4595 
Q 1241 4863 1831 4863 
L 2375 4863 
z
" transform="scale(0.015625)"/>
       <path id="DejaVuSans-72" d="M 2631 2963 
Q 2534 3019 2420 3045 
Q 2306 3072 2169 3072 
Q 1681 3072 1420 2755 
Q 1159 2438 1159 1844 
L 1159 0 
L 581 0 
L 581 3500 
L 1159 3500 
L 1159 2956 
Q 1341 3275 1631 3429 
Q 1922 3584 2338 3584 
Q 2397 3584 2469 3576 
Q 2541 3569 2628 3553 
L 2631 2963 
z
" transform="scale(0.015625)"/>
       <path id="DejaVuSans-6f" d="M 1959 3097 
Q 1497 3097 1228 2736 
Q 959 2375 959 1747 
Q 959 1119 1226 758 
Q 1494 397 1959 397 
Q 2419 397 2687 759 
Q 2956 1122 2956 1747 
Q 2956 2369 2687 2733 
Q 2419 3097 1959 3097 
z
M 1959 3584 
Q 2709 3584 3137 3096 
Q 3566 2609 3566 1747 
Q 3566 888 3137 398 
Q 2709 -91 1959 -91 
Q 1206 -91 779 398 
Q 353 888 353 1747 
Q 353 2609 779 3096 
Q 1206 3584 1959 3584 
z
" transform="scale(0.015625)"/>
       <path id="DejaVuSans-6d" d="M 3328 2828 
Q 3544 3216 3844 3400 
Q 4144 3584 4550 3584 
Q 5097 3584 5394 3201 
Q 5691 2819 5691 2113 
L 5691 0 
L 5113 0 
L 5113 2094 
Q 5113 2597 4934 2840 
Q 4756 3084 4391 3084 
Q 3944 3084 3684 2787 
Q 3425 2491 3425 1978 
L 3425 0 
L 2847 0 
L 2847 2094 
Q 2847 2600 2669 2842 
Q 2491 3084 2119 3084 
Q 1678 3084 1418 2786 
Q 1159 2488 1159 1978 
L 1159 0 
L 581 0 
L 581 3500 
L 1159 3500 
L 1159 2956 
Q 1356 3278 1631 3431 
Q 1906 3584 2284 3584 
Q 2666 3584 2933 3390 
Q 3200 3197 3328 2828 
z
" transform="scale(0.015625)"/>
       <path id="DejaVuSans-54" d="M -19 4666 
L 3928 4666 
L 3928 4134 
L 2272 4134 
L 2272 0 
L 1638 0 
L 1638 4134 
L -19 4134 
L -19 4666 
z
" transform="scale(0.015625)"/>
       <path id="DejaVuSans-75" d="M 544 1381 
L 544 3500 
L 1119 3500 
L 1119 1403 
Q 1119 906 1312 657 
Q 1506 409 1894 409 
Q 2359 409 2629 706 
Q 2900 1003 2900 1516 
L 2900 3500 
L 3475 3500 
L 3475 0 
L 2900 0 
L 2900 538 
Q 2691 219 2414 64 
Q 2138 -91 1772 -91 
Q 1169 -91 856 284 
Q 544 659 544 1381 
z
M 1991 3584 
L 1991 3584 
z
" transform="scale(0.015625)"/>
       <path id="DejaVuSans-5b" d="M 550 4863 
L 1875 4863 
L 1875 4416 
L 1125 4416 
L 1125 -397 
L 1875 -397 
L 1875 -844 
L 550 -844 
L 550 4863 
z
" transform="scale(0.015625)"/>
       <path id="DejaVuSans-5d" d="M 1947 4863 
L 1947 -844 
L 622 -844 
L 622 -397 
L 1369 -397 
L 1369 4416 
L 622 4416 
L 622 4863 
L 1947 4863 
z
" transform="scale(0.015625)"/>
      </defs>
      <use xlink:href="#DejaVuSans-44"/>
      <use xlink:href="#DejaVuSans-69" transform="translate(77.001953 0)"/>
      <use xlink:href="#DejaVuSans-73" transform="translate(104.785156 0)"/>
      <use xlink:href="#DejaVuSans-74" transform="translate(156.884766 0)"/>
      <use xlink:href="#DejaVuSans-61" transform="translate(196.09375 0)"/>
      <use xlink:href="#DejaVuSans-6e" transform="translate(257.373047 0)"/>
      <use xlink:href="#DejaVuSans-63" transform="translate(320.751953 0)"/>
      <use xlink:href="#DejaVuSans-65" transform="translate(375.732422 0)"/>
      <use xlink:href="#DejaVuSans-20" transform="translate(437.255859 0)"/>
      <use xlink:href="#DejaVuSans-66" transform="translate(469.042969 0)"/>
      <use xlink:href="#DejaVuSans-72" transform="translate(504.248047 0)"/>
      <use xlink:href="#DejaVuSans-6f" transform="translate(543.111328 0)"/>
      <use xlink:href="#DejaVuSans-6d" transform="translate(604.292969 0)"/>
      <use xlink:href="#DejaVuSans-20" transform="translate(701.705078 0)"/>
      <use xlink:href="#DejaVuSans-54" transform="translate(733.492188 0)"/>
      <use xlink:href="#DejaVuSans-65" transform="translate(777.576172 0)"/>
      <use xlink:href="#DejaVuSans-72" transform="translate(839.099609 0)"/>
      <use xlink:href="#DejaVuSans-6d" transform="translate(878.462891 0)"/>
      <use xlink:href="#DejaVuSans-69" transform="translate(975.875 0)"/>
      <use xlink:href="#DejaVuSans-6e" transform="translate(1003.658203 0)"/>
      <use xlink:href="#DejaVuSans-75" transform="translate(1067.037109 0)"/>
      <use xlink:href="#DejaVuSans-73" transform="translate(1130.416016 0)"/>
      <use xlink:href="#DejaVuSans-20" transform="translate(1182.515625 0)"/>
      <use xlink:href="#DejaVuSans-5b" transform="translate(1214.302734 0)"/>
      <use xlink:href="#DejaVuSans-6e" transform="translate(1253.316406 0)"/>
      <use xlink:href="#DejaVuSans-74" transform="translate(1316.695312 0)"/>
      <use xlink:href="#DejaVuSans-5d" transform="translate(1355.904297 0)"/>
     </g>
    </g>
   </g>
   <g id="matplotlib.axis_2">
    <g id="ytick_1">
     <g id="line2d_15">
      <path d="M 40.603125 439.07267 
L 566.313125 439.07267 
" clip-path="url(#p6a3bdefcd3)" style="fill: none; stroke-dasharray: 2.96,1.28; stroke-dashoffset: 0; stroke: #b0b0b0; stroke-opacity: 0.6; stroke-width: 0.8"/>
     </g>
     <g id="line2d_16">
      <defs>
       <path id="m43c9fc9bb3" d="M 0 0 
L -3.5 0 
" style="stroke: #000000; stroke-width: 0.8"/>
      </defs>
      <g>
       <use xlink:href="#m43c9fc9bb3" x="40.603125" y="439.07267" style="stroke: #000000; stroke-width: 0.8"/>
      </g>
     </g>
     <g id="text_9">
      <!-- 0 -->
      <g transform="translate(27.240625 442.871889) scale(0.1 -0.1)">
       <use xlink:href="#DejaVuSans-30"/>
      </g>
     </g>
    </g>
    <g id="ytick_2">
     <g id="line2d_17">
      <path d="M 40.603125 350.212426 
L 566.313125 350.212426 
" clip-path="url(#p6a3bdefcd3)" style="fill: none; stroke-dasharray: 2.96,1.28; stroke-dashoffset: 0; stroke: #b0b0b0; stroke-opacity: 0.6; stroke-width: 0.8"/>
     </g>
     <g id="line2d_18">
      <g>
       <use xlink:href="#m43c9fc9bb3" x="40.603125" y="350.212426" style="stroke: #000000; stroke-width: 0.8"/>
      </g>
     </g>
     <g id="text_10">
      <!-- 10 -->
      <g transform="translate(20.878125 354.011645) scale(0.1 -0.1)">
       <use xlink:href="#DejaVuSans-31"/>
       <use xlink:href="#DejaVuSans-30" transform="translate(63.623047 0)"/>
      </g>
     </g>
    </g>
    <g id="ytick_3">
     <g id="line2d_19">
      <path d="M 40.603125 261.352182 
L 566.313125 261.352182 
" clip-path="url(#p6a3bdefcd3)" style="fill: none; stroke-dasharray: 2.96,1.28; stroke-dashoffset: 0; stroke: #b0b0b0; stroke-opacity: 0.6; stroke-width: 0.8"/>
     </g>
     <g id="line2d_20">
      <g>
       <use xlink:href="#m43c9fc9bb3" x="40.603125" y="261.352182" style="stroke: #000000; stroke-width: 0.8"/>
      </g>
     </g>
     <g id="text_11">
      <!-- 20 -->
      <g transform="translate(20.878125 265.151401) scale(0.1 -0.1)">
       <use xlink:href="#DejaVuSans-32"/>
       <use xlink:href="#DejaVuSans-30" transform="translate(63.623047 0)"/>
      </g>
     </g>
    </g>
    <g id="ytick_4">
     <g id="line2d_21">
      <path d="M 40.603125 172.491938 
L 566.313125 172.491938 
" clip-path="url(#p6a3bdefcd3)" style="fill: none; stroke-dasharray: 2.96,1.28; stroke-dashoffset: 0; stroke: #b0b0b0; stroke-opacity: 0.6; stroke-width: 0.8"/>
     </g>
     <g id="line2d_22">
      <g>
       <use xlink:href="#m43c9fc9bb3" x="40.603125" y="172.491938" style="stroke: #000000; stroke-width: 0.8"/>
      </g>
     </g>
     <g id="text_12">
      <!-- 30 -->
      <g transform="translate(20.878125 176.291157) scale(0.1 -0.1)">
       <defs>
        <path id="DejaVuSans-33" d="M 2597 2516 
Q 3050 2419 3304 2112 
Q 3559 1806 3559 1356 
Q 3559 666 3084 287 
Q 2609 -91 1734 -91 
Q 1441 -91 1130 -33 
Q 819 25 488 141 
L 488 750 
Q 750 597 1062 519 
Q 1375 441 1716 441 
Q 2309 441 2620 675 
Q 2931 909 2931 1356 
Q 2931 1769 2642 2001 
Q 2353 2234 1838 2234 
L 1294 2234 
L 1294 2753 
L 1863 2753 
Q 2328 2753 2575 2939 
Q 2822 3125 2822 3475 
Q 2822 3834 2567 4026 
Q 2313 4219 1838 4219 
Q 1578 4219 1281 4162 
Q 984 4106 628 3988 
L 628 4550 
Q 988 4650 1302 4700 
Q 1616 4750 1894 4750 
Q 2613 4750 3031 4423 
Q 3450 4097 3450 3541 
Q 3450 3153 3228 2886 
Q 3006 2619 2597 2516 
z
" transform="scale(0.015625)"/>
       </defs>
       <use xlink:href="#DejaVuSans-33"/>
       <use xlink:href="#DejaVuSans-30" transform="translate(63.623047 0)"/>
      </g>
     </g>
    </g>
    <g id="ytick_5">
     <g id="line2d_23">
      <path d="M 40.603125 83.631694 
L 566.313125 83.631694 
" clip-path="url(#p6a3bdefcd3)" style="fill: none; stroke-dasharray: 2.96,1.28; stroke-dashoffset: 0; stroke: #b0b0b0; stroke-opacity: 0.6; stroke-width: 0.8"/>
     </g>
     <g id="line2d_24">
      <g>
       <use xlink:href="#m43c9fc9bb3" x="40.603125" y="83.631694" style="stroke: #000000; stroke-width: 0.8"/>
      </g>
     </g>
     <g id="text_13">
      <!-- 40 -->
      <g transform="translate(20.878125 87.430912) scale(0.1 -0.1)">
       <use xlink:href="#DejaVuSans-34"/>
       <use xlink:href="#DejaVuSans-30" transform="translate(63.623047 0)"/>
      </g>
     </g>
    </g>
    <g id="text_14">
     <!-- Average Cumulative Count -->
     <g transform="translate(14.798438 307.715) rotate(-90) scale(0.1 -0.1)">
      <defs>
       <path id="DejaVuSans-41" d="M 2188 4044 
L 1331 1722 
L 3047 1722 
L 2188 4044 
z
M 1831 4666 
L 2547 4666 
L 4325 0 
L 3669 0 
L 3244 1197 
L 1141 1197 
L 716 0 
L 50 0 
L 1831 4666 
z
" transform="scale(0.015625)"/>
       <path id="DejaVuSans-76" d="M 191 3500 
L 800 3500 
L 1894 563 
L 2988 3500 
L 3597 3500 
L 2284 0 
L 1503 0 
L 191 3500 
z
" transform="scale(0.015625)"/>
       <path id="DejaVuSans-67" d="M 2906 1791 
Q 2906 2416 2648 2759 
Q 2391 3103 1925 3103 
Q 1463 3103 1205 2759 
Q 947 2416 947 1791 
Q 947 1169 1205 825 
Q 1463 481 1925 481 
Q 2391 481 2648 825 
Q 2906 1169 2906 1791 
z
M 3481 434 
Q 3481 -459 3084 -895 
Q 2688 -1331 1869 -1331 
Q 1566 -1331 1297 -1286 
Q 1028 -1241 775 -1147 
L 775 -588 
Q 1028 -725 1275 -790 
Q 1522 -856 1778 -856 
Q 2344 -856 2625 -561 
Q 2906 -266 2906 331 
L 2906 616 
Q 2728 306 2450 153 
Q 2172 0 1784 0 
Q 1141 0 747 490 
Q 353 981 353 1791 
Q 353 2603 747 3093 
Q 1141 3584 1784 3584 
Q 2172 3584 2450 3431 
Q 2728 3278 2906 2969 
L 2906 3500 
L 3481 3500 
L 3481 434 
z
" transform="scale(0.015625)"/>
       <path id="DejaVuSans-43" d="M 4122 4306 
L 4122 3641 
Q 3803 3938 3442 4084 
Q 3081 4231 2675 4231 
Q 1875 4231 1450 3742 
Q 1025 3253 1025 2328 
Q 1025 1406 1450 917 
Q 1875 428 2675 428 
Q 3081 428 3442 575 
Q 3803 722 4122 1019 
L 4122 359 
Q 3791 134 3420 21 
Q 3050 -91 2638 -91 
Q 1578 -91 968 557 
Q 359 1206 359 2328 
Q 359 3453 968 4101 
Q 1578 4750 2638 4750 
Q 3056 4750 3426 4639 
Q 3797 4528 4122 4306 
z
" transform="scale(0.015625)"/>
       <path id="DejaVuSans-6c" d="M 603 4863 
L 1178 4863 
L 1178 0 
L 603 0 
L 603 4863 
z
" transform="scale(0.015625)"/>
      </defs>
      <use xlink:href="#DejaVuSans-41"/>
      <use xlink:href="#DejaVuSans-76" transform="translate(62.533203 0)"/>
      <use xlink:href="#DejaVuSans-65" transform="translate(121.712891 0)"/>
      <use xlink:href="#DejaVuSans-72" transform="translate(183.236328 0)"/>
      <use xlink:href="#DejaVuSans-61" transform="translate(224.349609 0)"/>
      <use xlink:href="#DejaVuSans-67" transform="translate(285.628906 0)"/>
      <use xlink:href="#DejaVuSans-65" transform="translate(349.105469 0)"/>
      <use xlink:href="#DejaVuSans-20" transform="translate(410.628906 0)"/>
      <use xlink:href="#DejaVuSans-43" transform="translate(442.416016 0)"/>
      <use xlink:href="#DejaVuSans-75" transform="translate(512.240234 0)"/>
      <use xlink:href="#DejaVuSans-6d" transform="translate(575.619141 0)"/>
      <use xlink:href="#DejaVuSans-75" transform="translate(673.03125 0)"/>
      <use xlink:href="#DejaVuSans-6c" transform="translate(736.410156 0)"/>
      <use xlink:href="#DejaVuSans-61" transform="translate(764.193359 0)"/>
      <use xlink:href="#DejaVuSans-74" transform="translate(825.472656 0)"/>
      <use xlink:href="#DejaVuSans-69" transform="translate(864.681641 0)"/>
      <use xlink:href="#DejaVuSans-76" transform="translate(892.464844 0)"/>
      <use xlink:href="#DejaVuSans-65" transform="translate(951.644531 0)"/>
      <use xlink:href="#DejaVuSans-20" transform="translate(1013.167969 0)"/>
      <use xlink:href="#DejaVuSans-43" transform="translate(1044.955078 0)"/>
      <use xlink:href="#DejaVuSans-6f" transform="translate(1114.779297 0)"/>
      <use xlink:href="#DejaVuSans-75" transform="translate(1175.960938 0)"/>
      <use xlink:href="#DejaVuSans-6e" transform="translate(1239.339844 0)"/>
      <use xlink:href="#DejaVuSans-74" transform="translate(1302.71875 0)"/>
     </g>
    </g>
   </g>
   <g id="line2d_25">
    <path d="M 64.499034 437.591666 
L 64.618524 437.591666 
L 64.738013 431.66765 
L 64.817673 431.66765 
L 64.937162 424.26263 
L 65.016822 424.26263 
L 65.136311 416.857609 
L 65.215971 416.857609 
L 65.37529 409.452589 
L 65.41512 409.452589 
L 65.57444 403.528573 
L 65.614269 403.528573 
L 65.733759 397.604556 
L 65.813419 397.604556 
L 65.972738 391.68054 
L 66.012568 391.68054 
L 66.171887 385.756524 
L 66.211717 385.756524 
L 66.371036 378.351504 
L 66.410866 378.351504 
L 66.570185 370.946483 
L 66.610015 370.946483 
L 66.769335 366.503471 
L 66.809164 366.503471 
L 67.127803 357.617447 
L 67.167633 357.617447 
L 67.80491 336.88339 
L 67.84474 336.88339 
L 68.322698 322.073349 
L 68.362528 322.073349 
L 68.999805 301.339292 
L 69.039635 301.339292 
L 69.278614 290.972263 
L 69.318444 290.972263 
L 70.1947 261.352182 
L 70.23453 261.352182 
L 70.39385 253.947162 
L 70.433679 253.947162 
L 70.592999 246.542141 
L 70.632829 246.542141 
L 70.792148 239.137121 
L 70.831978 239.137121 
L 70.991297 233.213105 
L 71.031127 233.213105 
L 71.190446 227.289088 
L 71.230276 227.289088 
L 71.429425 219.884068 
L 71.708234 212.479048 
L 71.748064 212.479048 
L 71.987043 206.555031 
L 72.026873 206.555031 
L 72.305682 199.150011 
L 72.345511 199.150011 
L 72.58449 193.225995 
L 72.62432 193.225995 
L 72.903129 185.820974 
L 72.942959 185.820974 
L 73.181938 179.896958 
L 73.221768 179.896958 
L 73.381087 176.93495 
L 73.420917 176.93495 
L 73.580236 173.972942 
L 73.620066 173.972942 
L 73.779385 171.010934 
L 73.819215 171.010934 
L 73.978535 168.048926 
L 74.018364 168.048926 
L 74.177684 165.086917 
L 74.217514 165.086917 
L 74.376833 162.124909 
L 74.575982 162.124909 
L 74.695472 160.643905 
L 74.934451 160.643905 
L 75.05394 159.162901 
L 75.1336 159.162901 
L 75.253089 157.681897 
L 75.332749 157.681897 
L 75.452239 156.200893 
L 75.531898 156.200893 
L 75.651388 154.719889 
L 75.731047 154.719889 
L 75.890367 151.757881 
L 76.009856 151.757881 
L 76.129346 150.276877 
L 76.209005 150.276877 
L 76.328495 148.795873 
L 76.408155 148.795873 
L 76.527644 147.314869 
L 76.607304 147.314869 
L 76.726793 145.833864 
L 76.806453 145.833864 
L 76.925942 144.35286 
L 77.005602 144.35286 
L 77.125092 142.871856 
L 77.204751 142.871856 
L 77.324241 141.390852 
L 77.364071 141.390852 
L 77.52339 138.428844 
L 77.56322 138.428844 
L 77.722539 135.466836 
L 77.762369 135.466836 
L 77.921688 132.504828 
L 77.961518 132.504828 
L 78.081008 131.023824 
L 78.160667 131.023824 
L 78.280157 129.54282 
L 78.359816 129.54282 
L 78.479306 128.061816 
L 78.558966 128.061816 
L 78.678455 126.580812 
L 78.758115 126.580812 
L 78.877604 125.099807 
L 78.957264 125.099807 
L 79.076753 123.618803 
L 79.156413 123.618803 
L 79.275903 122.137799 
L 80.789436 122.137799 
L 80.908926 120.656795 
L 80.988585 120.656795 
L 81.108075 119.175791 
L 81.187735 119.175791 
L 81.307224 117.694787 
L 81.546203 117.694787 
L 81.665693 116.213783 
L 81.745352 116.213783 
L 81.864842 114.732779 
L 81.944502 114.732779 
L 82.063991 113.251775 
L 82.183481 113.251775 
L 82.30297 111.770771 
L 82.38263 111.770771 
L 82.502119 110.289767 
L 82.581779 110.289767 
L 82.701268 108.808763 
L 82.780928 108.808763 
L 82.900418 107.327759 
L 82.980077 107.327759 
L 83.099567 105.846755 
L 83.179226 105.846755 
L 83.298716 104.365751 
L 83.378376 104.365751 
L 83.497865 102.884746 
L 83.577525 102.884746 
L 83.697014 101.403742 
L 83.776674 101.403742 
L 83.896163 99.922738 
L 83.975823 99.922738 
L 84.095313 98.441734 
L 84.174972 98.441734 
L 84.294462 96.96073 
L 84.374121 96.96073 
L 84.493611 95.479726 
L 84.573271 95.479726 
L 84.69276 93.998722 
L 84.77242 93.998722 
L 84.891909 92.517718 
L 84.971569 92.517718 
L 85.091058 91.036714 
L 85.170718 91.036714 
L 85.290208 89.55571 
L 85.369867 89.55571 
L 85.489357 88.074706 
L 85.569016 88.074706 
L 85.688506 86.593702 
L 85.768166 86.593702 
L 85.887655 85.112698 
L 85.967315 85.112698 
L 86.086804 83.631694 
L 86.166464 83.631694 
L 86.285953 82.150689 
L 86.365613 82.150689 
L 86.485103 80.669685 
L 86.564762 80.669685 
L 86.684252 79.188681 
L 88.157956 79.188681 
L 88.277445 77.707677 
L 88.357105 77.707677 
L 88.476594 76.226673 
L 88.556254 76.226673 
L 88.675744 74.745669 
L 88.755403 74.745669 
L 88.874893 73.264665 
L 88.954552 73.264665 
L 89.074042 71.783661 
L 91.264683 71.783661 
L 91.384172 70.302657 
L 91.463832 70.302657 
L 91.583321 68.821653 
L 91.662981 68.821653 
L 91.782471 67.340649 
L 91.86213 67.340649 
L 91.98162 65.859645 
L 92.061279 65.859645 
L 92.180769 64.378641 
L 92.260429 64.378641 
L 92.379918 62.897637 
L 92.459578 62.897637 
L 92.579067 61.416632 
L 92.658727 61.416632 
L 92.778216 59.935628 
L 92.857876 59.935628 
L 92.977366 58.454624 
L 93.057025 58.454624 
L 93.176515 56.97362 
L 93.415494 56.97362 
L 93.534983 55.492616 
L 93.614643 55.492616 
L 93.734132 54.011612 
L 93.813792 54.011612 
L 93.933282 52.530608 
L 468.413384 52.530608 
L 468.532873 51.049604 
L 478.251353 51.049604 
L 478.370842 49.5686 
L 484.305488 49.5686 
L 484.424977 48.087596 
L 488.925748 48.087596 
L 489.045238 46.606592 
L 489.085068 46.606592 
L 489.204557 45.125588 
L 499.839123 45.125588 
L 499.958613 43.644584 
L 529.51235 43.644584 
L 529.631839 42.16358 
L 542.417216 42.16358 
L 542.417216 42.16358 
" clip-path="url(#p6a3bdefcd3)" style="fill: none; stroke: #006ba4; stroke-width: 2; stroke-linecap: square"/>
   </g>
   <g id="line2d_26">
    <path d="M 64.499034 439.07267 
L 78.359816 439.07267 
L 78.479306 437.591666 
L 410.859273 437.591666 
L 410.978763 436.110662 
L 521.825192 436.110662 
L 521.944681 434.629658 
L 537.677466 434.629658 
L 537.796955 433.148654 
L 542.417216 433.148654 
L 542.417216 433.148654 
" clip-path="url(#p6a3bdefcd3)" style="fill: none; stroke: #ff800e; stroke-width: 2; stroke-linecap: square"/>
   </g>
   <g id="line2d_27">
    <path d="M 64.499034 439.07267 
L 64.897332 439.07267 
L 65.016822 437.591666 
L 65.41512 437.591666 
L 65.53461 436.110662 
L 65.693929 436.110662 
L 65.813419 434.629658 
L 78.877604 434.629658 
L 78.997094 433.148654 
L 542.417216 433.148654 
L 542.417216 433.148654 
" clip-path="url(#p6a3bdefcd3)" style="fill: none; stroke: #ababab; stroke-width: 2; stroke-linecap: square"/>
   </g>
   <g id="line2d_28">
    <path d="M 64.499034 439.07267 
L 542.417216 439.07267 
L 542.417216 439.07267 
" clip-path="url(#p6a3bdefcd3)" style="fill: none; stroke: #595959; stroke-width: 2; stroke-linecap: square"/>
   </g>
   <g id="line2d_29">
    <path d="M 64.499034 439.07267 
L 66.171887 439.07267 
L 66.291377 437.591666 
L 71.987043 437.591666 
L 72.106532 436.110662 
L 79.236073 436.110662 
L 79.355562 434.629658 
L 103.572102 434.629658 
L 103.691591 433.148654 
L 105.643253 433.148654 
L 105.762742 431.66765 
L 119.583695 431.66765 
L 119.703184 430.186646 
L 129.780133 430.186646 
L 129.899622 428.705642 
L 131.731794 428.705642 
L 131.851284 427.224638 
L 137.785929 427.224638 
L 137.905419 425.743634 
L 143.561255 425.743634 
L 143.680745 424.26263 
L 157.939825 424.26263 
L 158.059315 422.781626 
L 163.99396 422.781626 
L 164.11345 421.300622 
L 171.720948 421.300622 
L 171.840438 419.819618 
L 176.14206 419.819618 
L 176.261549 418.338613 
L 177.814913 418.338613 
L 177.934402 416.857609 
L 193.029909 416.857609 
L 193.149399 415.376605 
L 246.720526 415.376605 
L 246.840016 413.895601 
L 270.419277 413.895601 
L 270.538767 412.414597 
L 298.57897 412.414597 
L 298.69846 410.933593 
L 304.593275 410.933593 
L 304.712765 409.452589 
L 427.747123 409.452589 
L 427.866612 407.971585 
L 445.19259 407.971585 
L 445.31208 406.490581 
L 467.815936 406.490581 
L 467.935426 405.009577 
L 485.261404 405.009577 
L 485.380893 403.528573 
L 492.112135 403.528573 
L 492.231625 402.047569 
L 499.162016 402.047569 
L 499.281505 400.566565 
L 509.318624 400.566565 
L 509.438113 399.085561 
L 522.661618 399.085561 
L 522.781108 397.604556 
L 539.270659 397.604556 
L 539.390149 396.123552 
L 542.417216 396.123552 
L 542.417216 396.123552 
" clip-path="url(#p6a3bdefcd3)" style="fill: none; stroke-dasharray: 7.4,3.2; stroke-dashoffset: 0; stroke: #006ba4; stroke-width: 2"/>
   </g>
   <g id="line2d_30">
    <path d="M 64.499034 439.07267 
L 113.60922 439.07267 
L 113.728709 437.591666 
L 119.424376 437.591666 
L 119.543865 436.110662 
L 144.278192 436.110662 
L 144.397682 434.629658 
L 161.126212 434.629658 
L 161.245702 433.148654 
L 167.100687 433.148654 
L 167.220177 431.66765 
L 190.998588 431.66765 
L 191.118077 430.186646 
L 214.697339 430.186646 
L 214.816829 428.705642 
L 219.158281 428.705642 
L 219.27777 427.224638 
L 225.212416 427.224638 
L 225.331905 425.743634 
L 238.51558 425.743634 
L 238.63507 424.26263 
L 266.675273 424.26263 
L 266.794763 422.781626 
L 272.689578 422.781626 
L 272.809068 421.300622 
L 418.506601 421.300622 
L 418.626091 419.819618 
L 435.952069 419.819618 
L 436.071558 418.338613 
L 489.921494 418.338613 
L 490.040984 416.857609 
L 513.421097 416.857609 
L 513.540586 415.376605 
L 541.54096 415.376605 
L 541.660449 413.895601 
L 542.417216 413.895601 
L 542.417216 413.895601 
" clip-path="url(#p6a3bdefcd3)" style="fill: none; stroke-dasharray: 7.4,3.2; stroke-dashoffset: 0; stroke: #ff800e; stroke-width: 2"/>
   </g>
   <g id="line2d_31">
    <path d="M 64.499034 439.07267 
L 66.132057 439.07267 
L 66.251547 437.591666 
L 68.203209 437.591666 
L 68.322698 436.110662 
L 89.113872 436.110662 
L 89.233361 434.629658 
L 92.539237 434.629658 
L 92.658727 433.148654 
L 94.929027 433.148654 
L 95.048517 431.66765 
L 103.85091 431.66765 
L 103.9704 430.186646 
L 106.997467 430.186646 
L 107.116957 428.705642 
L 112.812623 428.705642 
L 112.932113 427.224638 
L 113.688879 427.224638 
L 113.808369 425.743634 
L 120.69893 425.743634 
L 120.81842 424.26263 
L 126.753065 424.26263 
L 126.872555 422.781626 
L 127.98779 422.781626 
L 128.107279 421.300622 
L 135.0775 421.300622 
L 135.19699 419.819618 
L 137.70627 419.819618 
L 137.825759 418.338613 
L 142.605339 418.338613 
L 142.724829 416.857609 
L 144.039213 416.857609 
L 144.158703 415.376605 
L 151.96535 415.376605 
L 152.08484 413.895601 
L 156.147483 413.895601 
L 156.266972 412.414597 
L 160.488935 412.414597 
L 160.608424 410.933593 
L 160.887233 410.933593 
L 161.006723 409.452589 
L 162.201618 409.452589 
L 162.321107 407.971585 
L 165.865962 407.971585 
L 165.985452 406.490581 
L 166.50324 406.490581 
L 166.622729 405.009577 
L 171.920097 405.009577 
L 172.039587 403.528573 
L 184.386835 403.528573 
L 184.506325 402.047569 
L 194.662933 402.047569 
L 194.782422 400.566565 
L 200.717067 400.566565 
L 200.836557 399.085561 
L 205.496648 399.085561 
L 205.616137 397.604556 
L 212.546528 397.604556 
L 212.666018 396.123552 
L 214.45836 396.123552 
L 214.57785 394.642548 
L 218.600663 394.642548 
L 218.720153 393.161544 
L 229.354718 393.161544 
L 229.474208 391.68054 
L 238.276601 391.68054 
L 238.396091 390.199536 
L 257.514411 390.199536 
L 257.633901 388.718532 
L 257.75339 388.718532 
L 257.87288 387.237528 
L 263.528716 387.237528 
L 263.648206 385.756524 
L 266.436294 385.756524 
L 266.555784 384.27552 
L 272.450599 384.27552 
L 272.570088 382.794516 
L 274.60141 382.794516 
L 274.7209 381.313512 
L 328.371686 381.313512 
L 328.491176 379.832508 
L 349.282349 379.832508 
L 349.401839 378.351504 
L 351.990778 378.351504 
L 352.110268 376.870499 
L 377.95983 376.870499 
L 378.07932 375.389495 
L 380.150471 375.389495 
L 380.26996 373.908491 
L 386.164776 373.908491 
L 386.284265 372.427487 
L 413.647362 372.427487 
L 413.766851 370.946483 
L 431.052999 370.946483 
L 431.172489 369.465479 
L 431.969085 369.465479 
L 432.088575 367.984475 
L 455.428858 367.984475 
L 455.548347 366.503471 
L 483.548721 366.503471 
L 483.66821 365.022467 
L 485.022425 365.022467 
L 485.141914 363.541463 
L 489.563026 363.541463 
L 489.682515 362.060459 
L 502.786531 362.060459 
L 502.90602 360.579455 
L 508.522027 360.579455 
L 508.641516 359.098451 
L 519.993019 359.098451 
L 520.112509 357.617447 
L 536.64189 357.617447 
L 536.761379 356.136443 
L 542.417216 356.136443 
L 542.417216 356.136443 
" clip-path="url(#p6a3bdefcd3)" style="fill: none; stroke-dasharray: 7.4,3.2; stroke-dashoffset: 0; stroke: #ababab; stroke-width: 2"/>
   </g>
   <g id="line2d_32">
    <path d="M 64.499034 439.07267 
L 64.658353 439.07267 
L 64.777843 437.591666 
L 92.818046 437.591666 
L 92.937536 436.110662 
L 98.872181 436.110662 
L 98.991671 434.629658 
L 418.626091 434.629658 
L 418.74558 433.148654 
L 436.071558 433.148654 
L 436.191048 431.66765 
L 490.040984 431.66765 
L 490.160473 430.186646 
L 513.540586 430.186646 
L 513.660076 428.705642 
L 541.660449 428.705642 
L 541.779939 427.224638 
L 542.417216 427.224638 
L 542.417216 427.224638 
" clip-path="url(#p6a3bdefcd3)" style="fill: none; stroke-dasharray: 7.4,3.2; stroke-dashoffset: 0; stroke: #595959; stroke-width: 2"/>
   </g>
   <g id="patch_3">
    <path d="M 40.603125 458.918125 
L 40.603125 22.318125 
" style="fill: none; stroke: #000000; stroke-width: 0.8; stroke-linejoin: miter; stroke-linecap: square"/>
   </g>
   <g id="patch_4">
    <path d="M 566.313125 458.918125 
L 566.313125 22.318125 
" style="fill: none; stroke: #000000; stroke-width: 0.8; stroke-linejoin: miter; stroke-linecap: square"/>
   </g>
   <g id="patch_5">
    <path d="M 40.603125 458.918125 
L 566.313125 458.918125 
" style="fill: none; stroke: #000000; stroke-width: 0.8; stroke-linejoin: miter; stroke-linecap: square"/>
   </g>
   <g id="patch_6">
    <path d="M 40.603125 22.318125 
L 566.313125 22.318125 
" style="fill: none; stroke: #000000; stroke-width: 0.8; stroke-linejoin: miter; stroke-linecap: square"/>
   </g>
   <g id="text_15">
    <!-- Telomeric Motif Distribution: A_bicolor -->
    <g transform="translate(173.535625 16.318125) scale(0.12 -0.12)">
     <defs>
      <path id="DejaVuSans-Bold-54" d="M 31 4666 
L 4331 4666 
L 4331 3756 
L 2784 3756 
L 2784 0 
L 1581 0 
L 1581 3756 
L 31 3756 
L 31 4666 
z
" transform="scale(0.015625)"/>
      <path id="DejaVuSans-Bold-65" d="M 4031 1759 
L 4031 1441 
L 1416 1441 
Q 1456 1047 1700 850 
Q 1944 653 2381 653 
Q 2734 653 3104 758 
Q 3475 863 3866 1075 
L 3866 213 
Q 3469 63 3072 -14 
Q 2675 -91 2278 -91 
Q 1328 -91 801 392 
Q 275 875 275 1747 
Q 275 2603 792 3093 
Q 1309 3584 2216 3584 
Q 3041 3584 3536 3087 
Q 4031 2591 4031 1759 
z
M 2881 2131 
Q 2881 2450 2695 2645 
Q 2509 2841 2209 2841 
Q 1884 2841 1681 2658 
Q 1478 2475 1428 2131 
L 2881 2131 
z
" transform="scale(0.015625)"/>
      <path id="DejaVuSans-Bold-6c" d="M 538 4863 
L 1656 4863 
L 1656 0 
L 538 0 
L 538 4863 
z
" transform="scale(0.015625)"/>
      <path id="DejaVuSans-Bold-6f" d="M 2203 2784 
Q 1831 2784 1636 2517 
Q 1441 2250 1441 1747 
Q 1441 1244 1636 976 
Q 1831 709 2203 709 
Q 2569 709 2762 976 
Q 2956 1244 2956 1747 
Q 2956 2250 2762 2517 
Q 2569 2784 2203 2784 
z
M 2203 3584 
Q 3106 3584 3614 3096 
Q 4122 2609 4122 1747 
Q 4122 884 3614 396 
Q 3106 -91 2203 -91 
Q 1297 -91 786 396 
Q 275 884 275 1747 
Q 275 2609 786 3096 
Q 1297 3584 2203 3584 
z
" transform="scale(0.015625)"/>
      <path id="DejaVuSans-Bold-6d" d="M 3781 2919 
Q 3994 3244 4286 3414 
Q 4578 3584 4928 3584 
Q 5531 3584 5847 3212 
Q 6163 2841 6163 2131 
L 6163 0 
L 5038 0 
L 5038 1825 
Q 5041 1866 5042 1909 
Q 5044 1953 5044 2034 
Q 5044 2406 4934 2573 
Q 4825 2741 4581 2741 
Q 4263 2741 4089 2478 
Q 3916 2216 3909 1719 
L 3909 0 
L 2784 0 
L 2784 1825 
Q 2784 2406 2684 2573 
Q 2584 2741 2328 2741 
Q 2006 2741 1831 2477 
Q 1656 2213 1656 1722 
L 1656 0 
L 531 0 
L 531 3500 
L 1656 3500 
L 1656 2988 
Q 1863 3284 2130 3434 
Q 2397 3584 2719 3584 
Q 3081 3584 3359 3409 
Q 3638 3234 3781 2919 
z
" transform="scale(0.015625)"/>
      <path id="DejaVuSans-Bold-72" d="M 3138 2547 
Q 2991 2616 2845 2648 
Q 2700 2681 2553 2681 
Q 2122 2681 1889 2404 
Q 1656 2128 1656 1613 
L 1656 0 
L 538 0 
L 538 3500 
L 1656 3500 
L 1656 2925 
Q 1872 3269 2151 3426 
Q 2431 3584 2822 3584 
Q 2878 3584 2943 3579 
Q 3009 3575 3134 3559 
L 3138 2547 
z
" transform="scale(0.015625)"/>
      <path id="DejaVuSans-Bold-69" d="M 538 3500 
L 1656 3500 
L 1656 0 
L 538 0 
L 538 3500 
z
M 538 4863 
L 1656 4863 
L 1656 3950 
L 538 3950 
L 538 4863 
z
" transform="scale(0.015625)"/>
      <path id="DejaVuSans-Bold-63" d="M 3366 3391 
L 3366 2478 
Q 3138 2634 2908 2709 
Q 2678 2784 2431 2784 
Q 1963 2784 1702 2511 
Q 1441 2238 1441 1747 
Q 1441 1256 1702 982 
Q 1963 709 2431 709 
Q 2694 709 2930 787 
Q 3166 866 3366 1019 
L 3366 103 
Q 3103 6 2833 -42 
Q 2563 -91 2291 -91 
Q 1344 -91 809 395 
Q 275 881 275 1747 
Q 275 2613 809 3098 
Q 1344 3584 2291 3584 
Q 2566 3584 2833 3536 
Q 3100 3488 3366 3391 
z
" transform="scale(0.015625)"/>
      <path id="DejaVuSans-Bold-20" transform="scale(0.015625)"/>
      <path id="DejaVuSans-Bold-4d" d="M 588 4666 
L 2119 4666 
L 3181 2169 
L 4250 4666 
L 5778 4666 
L 5778 0 
L 4641 0 
L 4641 3413 
L 3566 897 
L 2803 897 
L 1728 3413 
L 1728 0 
L 588 0 
L 588 4666 
z
" transform="scale(0.015625)"/>
      <path id="DejaVuSans-Bold-74" d="M 1759 4494 
L 1759 3500 
L 2913 3500 
L 2913 2700 
L 1759 2700 
L 1759 1216 
Q 1759 972 1856 886 
Q 1953 800 2241 800 
L 2816 800 
L 2816 0 
L 1856 0 
Q 1194 0 917 276 
Q 641 553 641 1216 
L 641 2700 
L 84 2700 
L 84 3500 
L 641 3500 
L 641 4494 
L 1759 4494 
z
" transform="scale(0.015625)"/>
      <path id="DejaVuSans-Bold-66" d="M 2841 4863 
L 2841 4128 
L 2222 4128 
Q 1984 4128 1890 4042 
Q 1797 3956 1797 3744 
L 1797 3500 
L 2753 3500 
L 2753 2700 
L 1797 2700 
L 1797 0 
L 678 0 
L 678 2700 
L 122 2700 
L 122 3500 
L 678 3500 
L 678 3744 
Q 678 4316 997 4589 
Q 1316 4863 1984 4863 
L 2841 4863 
z
" transform="scale(0.015625)"/>
      <path id="DejaVuSans-Bold-44" d="M 1791 3756 
L 1791 909 
L 2222 909 
Q 2959 909 3348 1275 
Q 3738 1641 3738 2338 
Q 3738 3031 3350 3393 
Q 2963 3756 2222 3756 
L 1791 3756 
z
M 588 4666 
L 1856 4666 
Q 2919 4666 3439 4514 
Q 3959 4363 4331 4000 
Q 4659 3684 4818 3271 
Q 4978 2859 4978 2338 
Q 4978 1809 4818 1395 
Q 4659 981 4331 666 
Q 3956 303 3431 151 
Q 2906 0 1856 0 
L 588 0 
L 588 4666 
z
" transform="scale(0.015625)"/>
      <path id="DejaVuSans-Bold-73" d="M 3272 3391 
L 3272 2541 
Q 2913 2691 2578 2766 
Q 2244 2841 1947 2841 
Q 1628 2841 1473 2761 
Q 1319 2681 1319 2516 
Q 1319 2381 1436 2309 
Q 1553 2238 1856 2203 
L 2053 2175 
Q 2913 2066 3209 1816 
Q 3506 1566 3506 1031 
Q 3506 472 3093 190 
Q 2681 -91 1863 -91 
Q 1516 -91 1145 -36 
Q 775 19 384 128 
L 384 978 
Q 719 816 1070 734 
Q 1422 653 1784 653 
Q 2113 653 2278 743 
Q 2444 834 2444 1013 
Q 2444 1163 2330 1236 
Q 2216 1309 1875 1350 
L 1678 1375 
Q 931 1469 631 1722 
Q 331 1975 331 2491 
Q 331 3047 712 3315 
Q 1094 3584 1881 3584 
Q 2191 3584 2531 3537 
Q 2872 3491 3272 3391 
z
" transform="scale(0.015625)"/>
      <path id="DejaVuSans-Bold-62" d="M 2400 722 
Q 2759 722 2948 984 
Q 3138 1247 3138 1747 
Q 3138 2247 2948 2509 
Q 2759 2772 2400 2772 
Q 2041 2772 1848 2508 
Q 1656 2244 1656 1747 
Q 1656 1250 1848 986 
Q 2041 722 2400 722 
z
M 1656 2988 
Q 1888 3294 2169 3439 
Q 2450 3584 2816 3584 
Q 3463 3584 3878 3070 
Q 4294 2556 4294 1747 
Q 4294 938 3878 423 
Q 3463 -91 2816 -91 
Q 2450 -91 2169 54 
Q 1888 200 1656 506 
L 1656 0 
L 538 0 
L 538 4863 
L 1656 4863 
L 1656 2988 
z
" transform="scale(0.015625)"/>
      <path id="DejaVuSans-Bold-75" d="M 500 1363 
L 500 3500 
L 1625 3500 
L 1625 3150 
Q 1625 2866 1622 2436 
Q 1619 2006 1619 1863 
Q 1619 1441 1641 1255 
Q 1663 1069 1716 984 
Q 1784 875 1895 815 
Q 2006 756 2150 756 
Q 2500 756 2700 1025 
Q 2900 1294 2900 1772 
L 2900 3500 
L 4019 3500 
L 4019 0 
L 2900 0 
L 2900 506 
Q 2647 200 2364 54 
Q 2081 -91 1741 -91 
Q 1134 -91 817 281 
Q 500 653 500 1363 
z
" transform="scale(0.015625)"/>
      <path id="DejaVuSans-Bold-6e" d="M 4056 2131 
L 4056 0 
L 2931 0 
L 2931 347 
L 2931 1631 
Q 2931 2084 2911 2256 
Q 2891 2428 2841 2509 
Q 2775 2619 2662 2680 
Q 2550 2741 2406 2741 
Q 2056 2741 1856 2470 
Q 1656 2200 1656 1722 
L 1656 0 
L 538 0 
L 538 3500 
L 1656 3500 
L 1656 2988 
Q 1909 3294 2193 3439 
Q 2478 3584 2822 3584 
Q 3428 3584 3742 3212 
Q 4056 2841 4056 2131 
z
" transform="scale(0.015625)"/>
      <path id="DejaVuSans-Bold-3a" d="M 716 3500 
L 1844 3500 
L 1844 2291 
L 716 2291 
L 716 3500 
z
M 716 1209 
L 1844 1209 
L 1844 0 
L 716 0 
L 716 1209 
z
" transform="scale(0.015625)"/>
      <path id="DejaVuSans-Bold-41" d="M 3419 850 
L 1538 850 
L 1241 0 
L 31 0 
L 1759 4666 
L 3194 4666 
L 4922 0 
L 3713 0 
L 3419 850 
z
M 1838 1716 
L 3116 1716 
L 2478 3572 
L 1838 1716 
z
" transform="scale(0.015625)"/>
      <path id="DejaVuSans-Bold-5f" d="M 3200 -916 
L 3200 -1509 
L 0 -1509 
L 0 -916 
L 3200 -916 
z
" transform="scale(0.015625)"/>
     </defs>
     <use xlink:href="#DejaVuSans-Bold-54"/>
     <use xlink:href="#DejaVuSans-Bold-65" transform="translate(54.962891 0)"/>
     <use xlink:href="#DejaVuSans-Bold-6c" transform="translate(122.785156 0)"/>
     <use xlink:href="#DejaVuSans-Bold-6f" transform="translate(157.0625 0)"/>
     <use xlink:href="#DejaVuSans-Bold-6d" transform="translate(225.763672 0)"/>
     <use xlink:href="#DejaVuSans-Bold-65" transform="translate(329.962891 0)"/>
     <use xlink:href="#DejaVuSans-Bold-72" transform="translate(397.785156 0)"/>
     <use xlink:href="#DejaVuSans-Bold-69" transform="translate(447.101562 0)"/>
     <use xlink:href="#DejaVuSans-Bold-63" transform="translate(481.378906 0)"/>
     <use xlink:href="#DejaVuSans-Bold-20" transform="translate(540.65625 0)"/>
     <use xlink:href="#DejaVuSans-Bold-4d" transform="translate(575.470703 0)"/>
     <use xlink:href="#DejaVuSans-Bold-6f" transform="translate(674.982422 0)"/>
     <use xlink:href="#DejaVuSans-Bold-74" transform="translate(743.683594 0)"/>
     <use xlink:href="#DejaVuSans-Bold-69" transform="translate(791.486328 0)"/>
     <use xlink:href="#DejaVuSans-Bold-66" transform="translate(825.763672 0)"/>
     <use xlink:href="#DejaVuSans-Bold-20" transform="translate(869.269531 0)"/>
     <use xlink:href="#DejaVuSans-Bold-44" transform="translate(904.083984 0)"/>
     <use xlink:href="#DejaVuSans-Bold-69" transform="translate(987.091797 0)"/>
     <use xlink:href="#DejaVuSans-Bold-73" transform="translate(1021.369141 0)"/>
     <use xlink:href="#DejaVuSans-Bold-74" transform="translate(1080.890625 0)"/>
     <use xlink:href="#DejaVuSans-Bold-72" transform="translate(1128.693359 0)"/>
     <use xlink:href="#DejaVuSans-Bold-69" transform="translate(1178.009766 0)"/>
     <use xlink:href="#DejaVuSans-Bold-62" transform="translate(1212.287109 0)"/>
     <use xlink:href="#DejaVuSans-Bold-75" transform="translate(1283.869141 0)"/>
     <use xlink:href="#DejaVuSans-Bold-74" transform="translate(1355.060547 0)"/>
     <use xlink:href="#DejaVuSans-Bold-69" transform="translate(1402.863281 0)"/>
     <use xlink:href="#DejaVuSans-Bold-6f" transform="translate(1437.140625 0)"/>
     <use xlink:href="#DejaVuSans-Bold-6e" transform="translate(1505.841797 0)"/>
     <use xlink:href="#DejaVuSans-Bold-3a" transform="translate(1577.033203 0)"/>
     <use xlink:href="#DejaVuSans-Bold-20" transform="translate(1617.023438 0)"/>
     <use xlink:href="#DejaVuSans-Bold-41" transform="translate(1651.837891 0)"/>
     <use xlink:href="#DejaVuSans-Bold-5f" transform="translate(1729.230469 0)"/>
     <use xlink:href="#DejaVuSans-Bold-62" transform="translate(1779.230469 0)"/>
     <use xlink:href="#DejaVuSans-Bold-69" transform="translate(1850.8125 0)"/>
     <use xlink:href="#DejaVuSans-Bold-63" transform="translate(1885.089844 0)"/>
     <use xlink:href="#DejaVuSans-Bold-6f" transform="translate(1944.367188 0)"/>
     <use xlink:href="#DejaVuSans-Bold-6c" transform="translate(2013.068359 0)"/>
     <use xlink:href="#DejaVuSans-Bold-6f" transform="translate(2047.345703 0)"/>
     <use xlink:href="#DejaVuSans-Bold-72" transform="translate(2116.046875 0)"/>
    </g>
   </g>
   <g id="legend_1">
    <g id="patch_7">
     <path d="M 573.313125 162.42125 
L 702.9725 162.42125 
Q 704.9725 162.42125 704.9725 160.42125 
L 704.9725 29.318125 
Q 704.9725 27.318125 702.9725 27.318125 
L 573.313125 27.318125 
Q 571.313125 27.318125 571.313125 29.318125 
L 571.313125 160.42125 
Q 571.313125 162.42125 573.313125 162.42125 
z
" style="fill: #ffffff; opacity: 0.8; stroke: #cccccc; stroke-linejoin: miter"/>
    </g>
    <g id="text_16">
     <!-- Motifs &amp; Orientation -->
     <g transform="translate(587.750625 38.916562) scale(0.1 -0.1)">
      <defs>
       <path id="DejaVuSans-4d" d="M 628 4666 
L 1569 4666 
L 2759 1491 
L 3956 4666 
L 4897 4666 
L 4897 0 
L 4281 0 
L 4281 4097 
L 3078 897 
L 2444 897 
L 1241 4097 
L 1241 0 
L 628 0 
L 628 4666 
z
" transform="scale(0.015625)"/>
       <path id="DejaVuSans-26" d="M 1556 2509 
Q 1272 2256 1139 2004 
Q 1006 1753 1006 1478 
Q 1006 1022 1337 719 
Q 1669 416 2169 416 
Q 2466 416 2725 514 
Q 2984 613 3213 813 
L 1556 2509 
z
M 1997 2859 
L 3584 1234 
Q 3769 1513 3872 1830 
Q 3975 2147 3994 2503 
L 4575 2503 
Q 4538 2091 4375 1687 
Q 4213 1284 3922 891 
L 4794 0 
L 4006 0 
L 3559 459 
Q 3234 181 2878 45 
Q 2522 -91 2113 -91 
Q 1359 -91 881 339 
Q 403 769 403 1441 
Q 403 1841 612 2192 
Q 822 2544 1241 2853 
Q 1091 3050 1012 3245 
Q 934 3441 934 3628 
Q 934 4134 1281 4442 
Q 1628 4750 2203 4750 
Q 2463 4750 2720 4694 
Q 2978 4638 3244 4525 
L 3244 3956 
Q 2972 4103 2725 4179 
Q 2478 4256 2266 4256 
Q 1938 4256 1733 4082 
Q 1528 3909 1528 3634 
Q 1528 3475 1620 3314 
Q 1713 3153 1997 2859 
z
" transform="scale(0.015625)"/>
       <path id="DejaVuSans-4f" d="M 2522 4238 
Q 1834 4238 1429 3725 
Q 1025 3213 1025 2328 
Q 1025 1447 1429 934 
Q 1834 422 2522 422 
Q 3209 422 3611 934 
Q 4013 1447 4013 2328 
Q 4013 3213 3611 3725 
Q 3209 4238 2522 4238 
z
M 2522 4750 
Q 3503 4750 4090 4092 
Q 4678 3434 4678 2328 
Q 4678 1225 4090 567 
Q 3503 -91 2522 -91 
Q 1538 -91 948 565 
Q 359 1222 359 2328 
Q 359 3434 948 4092 
Q 1538 4750 2522 4750 
z
" transform="scale(0.015625)"/>
      </defs>
      <use xlink:href="#DejaVuSans-4d"/>
      <use xlink:href="#DejaVuSans-6f" transform="translate(86.279297 0)"/>
      <use xlink:href="#DejaVuSans-74" transform="translate(147.460938 0)"/>
      <use xlink:href="#DejaVuSans-69" transform="translate(186.669922 0)"/>
      <use xlink:href="#DejaVuSans-66" transform="translate(214.453125 0)"/>
      <use xlink:href="#DejaVuSans-73" transform="translate(249.658203 0)"/>
      <use xlink:href="#DejaVuSans-20" transform="translate(301.757812 0)"/>
      <use xlink:href="#DejaVuSans-26" transform="translate(333.544922 0)"/>
      <use xlink:href="#DejaVuSans-20" transform="translate(411.523438 0)"/>
      <use xlink:href="#DejaVuSans-4f" transform="translate(443.310547 0)"/>
      <use xlink:href="#DejaVuSans-72" transform="translate(522.021484 0)"/>
      <use xlink:href="#DejaVuSans-69" transform="translate(563.134766 0)"/>
      <use xlink:href="#DejaVuSans-65" transform="translate(590.917969 0)"/>
      <use xlink:href="#DejaVuSans-6e" transform="translate(652.441406 0)"/>
      <use xlink:href="#DejaVuSans-74" transform="translate(715.820312 0)"/>
      <use xlink:href="#DejaVuSans-61" transform="translate(755.029297 0)"/>
      <use xlink:href="#DejaVuSans-74" transform="translate(816.308594 0)"/>
      <use xlink:href="#DejaVuSans-69" transform="translate(855.517578 0)"/>
      <use xlink:href="#DejaVuSans-6f" transform="translate(883.300781 0)"/>
      <use xlink:href="#DejaVuSans-6e" transform="translate(944.482422 0)"/>
     </g>
    </g>
    <g id="line2d_33">
     <path d="M 575.313125 50.094688 
L 585.313125 50.094688 
L 595.313125 50.094688 
" style="fill: none; stroke: #006ba4; stroke-width: 2; stroke-linecap: square"/>
    </g>
    <g id="text_17">
     <!-- CCTAA (5' end) -->
     <g transform="translate(603.313125 53.594688) scale(0.1 -0.1)">
      <defs>
       <path id="DejaVuSans-28" d="M 1984 4856 
Q 1566 4138 1362 3434 
Q 1159 2731 1159 2009 
Q 1159 1288 1364 580 
Q 1569 -128 1984 -844 
L 1484 -844 
Q 1016 -109 783 600 
Q 550 1309 550 2009 
Q 550 2706 781 3412 
Q 1013 4119 1484 4856 
L 1984 4856 
z
" transform="scale(0.015625)"/>
       <path id="DejaVuSans-35" d="M 691 4666 
L 3169 4666 
L 3169 4134 
L 1269 4134 
L 1269 2991 
Q 1406 3038 1543 3061 
Q 1681 3084 1819 3084 
Q 2600 3084 3056 2656 
Q 3513 2228 3513 1497 
Q 3513 744 3044 326 
Q 2575 -91 1722 -91 
Q 1428 -91 1123 -41 
Q 819 9 494 109 
L 494 744 
Q 775 591 1075 516 
Q 1375 441 1709 441 
Q 2250 441 2565 725 
Q 2881 1009 2881 1497 
Q 2881 1984 2565 2268 
Q 2250 2553 1709 2553 
Q 1456 2553 1204 2497 
Q 953 2441 691 2322 
L 691 4666 
z
" transform="scale(0.015625)"/>
       <path id="DejaVuSans-27" d="M 1147 4666 
L 1147 2931 
L 616 2931 
L 616 4666 
L 1147 4666 
z
" transform="scale(0.015625)"/>
       <path id="DejaVuSans-64" d="M 2906 2969 
L 2906 4863 
L 3481 4863 
L 3481 0 
L 2906 0 
L 2906 525 
Q 2725 213 2448 61 
Q 2172 -91 1784 -91 
Q 1150 -91 751 415 
Q 353 922 353 1747 
Q 353 2572 751 3078 
Q 1150 3584 1784 3584 
Q 2172 3584 2448 3432 
Q 2725 3281 2906 2969 
z
M 947 1747 
Q 947 1113 1208 752 
Q 1469 391 1925 391 
Q 2381 391 2643 752 
Q 2906 1113 2906 1747 
Q 2906 2381 2643 2742 
Q 2381 3103 1925 3103 
Q 1469 3103 1208 2742 
Q 947 2381 947 1747 
z
" transform="scale(0.015625)"/>
       <path id="DejaVuSans-29" d="M 513 4856 
L 1013 4856 
Q 1481 4119 1714 3412 
Q 1947 2706 1947 2009 
Q 1947 1309 1714 600 
Q 1481 -109 1013 -844 
L 513 -844 
Q 928 -128 1133 580 
Q 1338 1288 1338 2009 
Q 1338 2731 1133 3434 
Q 928 4138 513 4856 
z
" transform="scale(0.015625)"/>
      </defs>
      <use xlink:href="#DejaVuSans-43"/>
      <use xlink:href="#DejaVuSans-43" transform="translate(69.824219 0)"/>
      <use xlink:href="#DejaVuSans-54" transform="translate(139.648438 0)"/>
      <use xlink:href="#DejaVuSans-41" transform="translate(192.982422 0)"/>
      <use xlink:href="#DejaVuSans-41" transform="translate(264.140625 0)"/>
      <use xlink:href="#DejaVuSans-20" transform="translate(332.548828 0)"/>
      <use xlink:href="#DejaVuSans-28" transform="translate(364.335938 0)"/>
      <use xlink:href="#DejaVuSans-35" transform="translate(403.349609 0)"/>
      <use xlink:href="#DejaVuSans-27" transform="translate(466.972656 0)"/>
      <use xlink:href="#DejaVuSans-20" transform="translate(494.462891 0)"/>
      <use xlink:href="#DejaVuSans-65" transform="translate(526.25 0)"/>
      <use xlink:href="#DejaVuSans-6e" transform="translate(587.773438 0)"/>
      <use xlink:href="#DejaVuSans-64" transform="translate(651.152344 0)"/>
      <use xlink:href="#DejaVuSans-29" transform="translate(714.628906 0)"/>
     </g>
    </g>
    <g id="line2d_34">
     <path d="M 575.313125 64.772813 
L 585.313125 64.772813 
L 595.313125 64.772813 
" style="fill: none; stroke: #ff800e; stroke-width: 2; stroke-linecap: square"/>
    </g>
    <g id="text_18">
     <!-- CAATAA (5' end) -->
     <g transform="translate(603.313125 68.272813) scale(0.1 -0.1)">
      <use xlink:href="#DejaVuSans-43"/>
      <use xlink:href="#DejaVuSans-41" transform="translate(69.824219 0)"/>
      <use xlink:href="#DejaVuSans-41" transform="translate(140.982422 0)"/>
      <use xlink:href="#DejaVuSans-54" transform="translate(201.640625 0)"/>
      <use xlink:href="#DejaVuSans-41" transform="translate(254.974609 0)"/>
      <use xlink:href="#DejaVuSans-41" transform="translate(326.132812 0)"/>
      <use xlink:href="#DejaVuSans-20" transform="translate(394.541016 0)"/>
      <use xlink:href="#DejaVuSans-28" transform="translate(426.328125 0)"/>
      <use xlink:href="#DejaVuSans-35" transform="translate(465.341797 0)"/>
      <use xlink:href="#DejaVuSans-27" transform="translate(528.964844 0)"/>
      <use xlink:href="#DejaVuSans-20" transform="translate(556.455078 0)"/>
      <use xlink:href="#DejaVuSans-65" transform="translate(588.242188 0)"/>
      <use xlink:href="#DejaVuSans-6e" transform="translate(649.765625 0)"/>
      <use xlink:href="#DejaVuSans-64" transform="translate(713.144531 0)"/>
      <use xlink:href="#DejaVuSans-29" transform="translate(776.621094 0)"/>
     </g>
    </g>
    <g id="line2d_35">
     <path d="M 575.313125 79.450938 
L 585.313125 79.450938 
L 595.313125 79.450938 
" style="fill: none; stroke: #ababab; stroke-width: 2; stroke-linecap: square"/>
    </g>
    <g id="text_19">
     <!-- CTGAAA (5' end) -->
     <g transform="translate(603.313125 82.950938) scale(0.1 -0.1)">
      <defs>
       <path id="DejaVuSans-47" d="M 3809 666 
L 3809 1919 
L 2778 1919 
L 2778 2438 
L 4434 2438 
L 4434 434 
Q 4069 175 3628 42 
Q 3188 -91 2688 -91 
Q 1594 -91 976 548 
Q 359 1188 359 2328 
Q 359 3472 976 4111 
Q 1594 4750 2688 4750 
Q 3144 4750 3555 4637 
Q 3966 4525 4313 4306 
L 4313 3634 
Q 3963 3931 3569 4081 
Q 3175 4231 2741 4231 
Q 1884 4231 1454 3753 
Q 1025 3275 1025 2328 
Q 1025 1384 1454 906 
Q 1884 428 2741 428 
Q 3075 428 3337 486 
Q 3600 544 3809 666 
z
" transform="scale(0.015625)"/>
      </defs>
      <use xlink:href="#DejaVuSans-43"/>
      <use xlink:href="#DejaVuSans-54" transform="translate(69.824219 0)"/>
      <use xlink:href="#DejaVuSans-47" transform="translate(130.908203 0)"/>
      <use xlink:href="#DejaVuSans-41" transform="translate(208.398438 0)"/>
      <use xlink:href="#DejaVuSans-41" transform="translate(279.556641 0)"/>
      <use xlink:href="#DejaVuSans-41" transform="translate(350.714844 0)"/>
      <use xlink:href="#DejaVuSans-20" transform="translate(419.123047 0)"/>
      <use xlink:href="#DejaVuSans-28" transform="translate(450.910156 0)"/>
      <use xlink:href="#DejaVuSans-35" transform="translate(489.923828 0)"/>
      <use xlink:href="#DejaVuSans-27" transform="translate(553.546875 0)"/>
      <use xlink:href="#DejaVuSans-20" transform="translate(581.037109 0)"/>
      <use xlink:href="#DejaVuSans-65" transform="translate(612.824219 0)"/>
      <use xlink:href="#DejaVuSans-6e" transform="translate(674.347656 0)"/>
      <use xlink:href="#DejaVuSans-64" transform="translate(737.726562 0)"/>
      <use xlink:href="#DejaVuSans-29" transform="translate(801.203125 0)"/>
     </g>
    </g>
    <g id="line2d_36">
     <path d="M 575.313125 94.129063 
L 585.313125 94.129063 
L 595.313125 94.129063 
" style="fill: none; stroke: #595959; stroke-width: 2; stroke-linecap: square"/>
    </g>
    <g id="text_20">
     <!-- CTTTTCAA (5' end) -->
     <g transform="translate(603.313125 97.629063) scale(0.1 -0.1)">
      <use xlink:href="#DejaVuSans-43"/>
      <use xlink:href="#DejaVuSans-54" transform="translate(69.824219 0)"/>
      <use xlink:href="#DejaVuSans-54" transform="translate(129.158203 0)"/>
      <use xlink:href="#DejaVuSans-54" transform="translate(188.492188 0)"/>
      <use xlink:href="#DejaVuSans-54" transform="translate(247.826172 0)"/>
      <use xlink:href="#DejaVuSans-43" transform="translate(303.035156 0)"/>
      <use xlink:href="#DejaVuSans-41" transform="translate(372.859375 0)"/>
      <use xlink:href="#DejaVuSans-41" transform="translate(444.017578 0)"/>
      <use xlink:href="#DejaVuSans-20" transform="translate(512.425781 0)"/>
      <use xlink:href="#DejaVuSans-28" transform="translate(544.212891 0)"/>
      <use xlink:href="#DejaVuSans-35" transform="translate(583.226562 0)"/>
      <use xlink:href="#DejaVuSans-27" transform="translate(646.849609 0)"/>
      <use xlink:href="#DejaVuSans-20" transform="translate(674.339844 0)"/>
      <use xlink:href="#DejaVuSans-65" transform="translate(706.126953 0)"/>
      <use xlink:href="#DejaVuSans-6e" transform="translate(767.650391 0)"/>
      <use xlink:href="#DejaVuSans-64" transform="translate(831.029297 0)"/>
      <use xlink:href="#DejaVuSans-29" transform="translate(894.505859 0)"/>
     </g>
    </g>
    <g id="line2d_37">
     <path d="M 575.313125 108.807188 
L 585.313125 108.807188 
L 595.313125 108.807188 
" style="fill: none; stroke-dasharray: 7.4,3.2; stroke-dashoffset: 0; stroke: #006ba4; stroke-width: 2"/>
    </g>
    <g id="text_21">
     <!-- TTAGG (3' end) -->
     <g transform="translate(603.313125 112.307188) scale(0.1 -0.1)">
      <use xlink:href="#DejaVuSans-54"/>
      <use xlink:href="#DejaVuSans-54" transform="translate(59.333984 0)"/>
      <use xlink:href="#DejaVuSans-41" transform="translate(112.667969 0)"/>
      <use xlink:href="#DejaVuSans-47" transform="translate(179.326172 0)"/>
      <use xlink:href="#DejaVuSans-47" transform="translate(256.816406 0)"/>
      <use xlink:href="#DejaVuSans-20" transform="translate(334.306641 0)"/>
      <use xlink:href="#DejaVuSans-28" transform="translate(366.09375 0)"/>
      <use xlink:href="#DejaVuSans-33" transform="translate(405.107422 0)"/>
      <use xlink:href="#DejaVuSans-27" transform="translate(468.730469 0)"/>
      <use xlink:href="#DejaVuSans-20" transform="translate(496.220703 0)"/>
      <use xlink:href="#DejaVuSans-65" transform="translate(528.007812 0)"/>
      <use xlink:href="#DejaVuSans-6e" transform="translate(589.53125 0)"/>
      <use xlink:href="#DejaVuSans-64" transform="translate(652.910156 0)"/>
      <use xlink:href="#DejaVuSans-29" transform="translate(716.386719 0)"/>
     </g>
    </g>
    <g id="line2d_38">
     <path d="M 575.313125 123.485313 
L 585.313125 123.485313 
L 595.313125 123.485313 
" style="fill: none; stroke-dasharray: 7.4,3.2; stroke-dashoffset: 0; stroke: #ff800e; stroke-width: 2"/>
    </g>
    <g id="text_22">
     <!-- TTATTG (3' end) -->
     <g transform="translate(603.313125 126.985313) scale(0.1 -0.1)">
      <use xlink:href="#DejaVuSans-54"/>
      <use xlink:href="#DejaVuSans-54" transform="translate(59.333984 0)"/>
      <use xlink:href="#DejaVuSans-41" transform="translate(112.667969 0)"/>
      <use xlink:href="#DejaVuSans-54" transform="translate(173.326172 0)"/>
      <use xlink:href="#DejaVuSans-54" transform="translate(232.660156 0)"/>
      <use xlink:href="#DejaVuSans-47" transform="translate(293.744141 0)"/>
      <use xlink:href="#DejaVuSans-20" transform="translate(371.234375 0)"/>
      <use xlink:href="#DejaVuSans-28" transform="translate(403.021484 0)"/>
      <use xlink:href="#DejaVuSans-33" transform="translate(442.035156 0)"/>
      <use xlink:href="#DejaVuSans-27" transform="translate(505.658203 0)"/>
      <use xlink:href="#DejaVuSans-20" transform="translate(533.148438 0)"/>
      <use xlink:href="#DejaVuSans-65" transform="translate(564.935547 0)"/>
      <use xlink:href="#DejaVuSans-6e" transform="translate(626.458984 0)"/>
      <use xlink:href="#DejaVuSans-64" transform="translate(689.837891 0)"/>
      <use xlink:href="#DejaVuSans-29" transform="translate(753.314453 0)"/>
     </g>
    </g>
    <g id="line2d_39">
     <path d="M 575.313125 138.163437 
L 585.313125 138.163437 
L 595.313125 138.163437 
" style="fill: none; stroke-dasharray: 7.4,3.2; stroke-dashoffset: 0; stroke: #ababab; stroke-width: 2"/>
    </g>
    <g id="text_23">
     <!-- TTTCAG (3' end) -->
     <g transform="translate(603.313125 141.663437) scale(0.1 -0.1)">
      <use xlink:href="#DejaVuSans-54"/>
      <use xlink:href="#DejaVuSans-54" transform="translate(59.333984 0)"/>
      <use xlink:href="#DejaVuSans-54" transform="translate(118.667969 0)"/>
      <use xlink:href="#DejaVuSans-43" transform="translate(173.876953 0)"/>
      <use xlink:href="#DejaVuSans-41" transform="translate(243.701172 0)"/>
      <use xlink:href="#DejaVuSans-47" transform="translate(310.359375 0)"/>
      <use xlink:href="#DejaVuSans-20" transform="translate(387.849609 0)"/>
      <use xlink:href="#DejaVuSans-28" transform="translate(419.636719 0)"/>
      <use xlink:href="#DejaVuSans-33" transform="translate(458.650391 0)"/>
      <use xlink:href="#DejaVuSans-27" transform="translate(522.273438 0)"/>
      <use xlink:href="#DejaVuSans-20" transform="translate(549.763672 0)"/>
      <use xlink:href="#DejaVuSans-65" transform="translate(581.550781 0)"/>
      <use xlink:href="#DejaVuSans-6e" transform="translate(643.074219 0)"/>
      <use xlink:href="#DejaVuSans-64" transform="translate(706.453125 0)"/>
      <use xlink:href="#DejaVuSans-29" transform="translate(769.929688 0)"/>
     </g>
    </g>
    <g id="line2d_40">
     <path d="M 575.313125 152.841563 
L 585.313125 152.841563 
L 595.313125 152.841563 
" style="fill: none; stroke-dasharray: 7.4,3.2; stroke-dashoffset: 0; stroke: #595959; stroke-width: 2"/>
    </g>
    <g id="text_24">
     <!-- TTGAAAAG (3' end) -->
     <g transform="translate(603.313125 156.341563) scale(0.1 -0.1)">
      <use xlink:href="#DejaVuSans-54"/>
      <use xlink:href="#DejaVuSans-54" transform="translate(59.333984 0)"/>
      <use xlink:href="#DejaVuSans-47" transform="translate(120.417969 0)"/>
      <use xlink:href="#DejaVuSans-41" transform="translate(197.908203 0)"/>
      <use xlink:href="#DejaVuSans-41" transform="translate(269.066406 0)"/>
      <use xlink:href="#DejaVuSans-41" transform="translate(340.224609 0)"/>
      <use xlink:href="#DejaVuSans-41" transform="translate(411.382812 0)"/>
      <use xlink:href="#DejaVuSans-47" transform="translate(478.041016 0)"/>
      <use xlink:href="#DejaVuSans-20" transform="translate(555.53125 0)"/>
      <use xlink:href="#DejaVuSans-28" transform="translate(587.318359 0)"/>
      <use xlink:href="#DejaVuSans-33" transform="translate(626.332031 0)"/>
      <use xlink:href="#DejaVuSans-27" transform="translate(689.955078 0)"/>
      <use xlink:href="#DejaVuSans-20" transform="translate(717.445312 0)"/>
      <use xlink:href="#DejaVuSans-65" transform="translate(749.232422 0)"/>
      <use xlink:href="#DejaVuSans-6e" transform="translate(810.755859 0)"/>
      <use xlink:href="#DejaVuSans-64" transform="translate(874.134766 0)"/>
      <use xlink:href="#DejaVuSans-29" transform="translate(937.611328 0)"/>
     </g>
    </g>
   </g>
  </g>
 </g>
 <defs>
  <clipPath id="p6a3bdefcd3">
   <rect x="40.603125" y="22.318125" width="525.71" height="436.6"/>
  </clipPath>
 </defs>
</svg>
