<?xml version="1.0" encoding="utf-8" standalone="no"?>
<!DOCTYPE svg PUBLIC "-//W3C//DTD SVG 1.1//EN"
  "http://www.w3.org/Graphics/SVG/1.1/DTD/svg11.dtd">
<svg xmlns:xlink="http://www.w3.org/1999/xlink" width="567.885625pt" height="423.459613pt" viewBox="0 0 567.885625 423.459613" xmlns="http://www.w3.org/2000/svg" version="1.1">
 <metadata>
  <rdf:RDF xmlns:dc="http://purl.org/dc/elements/1.1/" xmlns:cc="http://creativecommons.org/ns#" xmlns:rdf="http://www.w3.org/1999/02/22-rdf-syntax-ns#">
   <cc:Work>
    <dc:type rdf:resource="http://purl.org/dc/dcmitype/StillImage"/>
    <dc:date>2026-04-30T15:17:43.828052</dc:date>
    <dc:format>image/svg+xml</dc:format>
    <dc:creator>
     <cc:Agent>
      <dc:title>Matplotlib v3.10.6, https://matplotlib.org/</dc:title>
     </cc:Agent>
    </dc:creator>
   </cc:Work>
  </rdf:RDF>
 </metadata>
 <defs>
  <style type="text/css">*{stroke-linejoin: round; stroke-linecap: butt}</style>
 </defs>
 <g id="figure_1">
  <g id="patch_1">
   <path d="M 0 423.459613 
L 567.885625 423.459613 
L 567.885625 0 
L 0 0 
z
" style="fill: #ffffff"/>
  </g>
  <g id="axes_1">
   <g id="patch_2">
    <path d="M 46.965625 385.903363 
L 426.335625 385.903363 
L 426.335625 7.869162 
L 46.965625 7.869162 
z
" style="fill: #ffffff"/>
   </g>
   <g id="matplotlib.axis_1">
    <g id="xtick_1">
     <g id="line2d_1">
      <path d="M 64.209716 385.903363 
L 64.209716 7.869162 
" clip-path="url(#p408d5a298a)" style="fill: none; stroke-dasharray: 2.96,1.28; stroke-dashoffset: 0; stroke: #b0b0b0; stroke-opacity: 0.6; stroke-width: 0.8"/>
     </g>
     <g id="line2d_2">
      <defs>
       <path id="mc45e4f170f" d="M 0 0 
L 0 3.5 
" style="stroke: #000000; stroke-width: 0.8"/>
      </defs>
      <g>
       <use xlink:href="#mc45e4f170f" x="64.209716" y="385.903363" style="stroke: #000000; stroke-width: 0.8"/>
      </g>
     </g>
     <g id="text_1">
      <!-- 0 -->
      <g transform="translate(61.028466 400.5018) scale(0.1 -0.1)">
       <defs>
        <path id="DejaVuSans-30" d="M 2034 4250 
Q 1547 4250 1301 3770 
Q 1056 3291 1056 2328 
Q 1056 1369 1301 889 
Q 1547 409 2034 409 
Q 2525 409 2770 889 
Q 3016 1369 3016 2328 
Q 3016 3291 2770 3770 
Q 2525 4250 2034 4250 
z
M 2034 4750 
Q 2819 4750 3233 4129 
Q 3647 3509 3647 2328 
Q 3647 1150 3233 529 
Q 2819 -91 2034 -91 
Q 1250 -91 836 529 
Q 422 1150 422 2328 
Q 422 3509 836 4129 
Q 1250 4750 2034 4750 
z
" transform="scale(0.015625)"/>
       </defs>
       <use xlink:href="#DejaVuSans-30"/>
      </g>
     </g>
    </g>
    <g id="xtick_2">
     <g id="line2d_3">
      <path d="M 107.325333 385.903363 
L 107.325333 7.869162 
" clip-path="url(#p408d5a298a)" style="fill: none; stroke-dasharray: 2.96,1.28; stroke-dashoffset: 0; stroke: #b0b0b0; stroke-opacity: 0.6; stroke-width: 0.8"/>
     </g>
     <g id="line2d_4">
      <g>
       <use xlink:href="#mc45e4f170f" x="107.325333" y="385.903363" style="stroke: #000000; stroke-width: 0.8"/>
      </g>
     </g>
     <g id="text_2">
      <!-- 1000 -->
      <g transform="translate(94.600333 400.5018) scale(0.1 -0.1)">
       <defs>
        <path id="DejaVuSans-31" d="M 794 531 
L 1825 531 
L 1825 4091 
L 703 3866 
L 703 4441 
L 1819 4666 
L 2450 4666 
L 2450 531 
L 3481 531 
L 3481 0 
L 794 0 
L 794 531 
z
" transform="scale(0.015625)"/>
       </defs>
       <use xlink:href="#DejaVuSans-31"/>
       <use xlink:href="#DejaVuSans-30" transform="translate(63.623047 0)"/>
       <use xlink:href="#DejaVuSans-30" transform="translate(127.246094 0)"/>
       <use xlink:href="#DejaVuSans-30" transform="translate(190.869141 0)"/>
      </g>
     </g>
    </g>
    <g id="xtick_3">
     <g id="line2d_5">
      <path d="M 150.440949 385.903363 
L 150.440949 7.869162 
" clip-path="url(#p408d5a298a)" style="fill: none; stroke-dasharray: 2.96,1.28; stroke-dashoffset: 0; stroke: #b0b0b0; stroke-opacity: 0.6; stroke-width: 0.8"/>
     </g>
     <g id="line2d_6">
      <g>
       <use xlink:href="#mc45e4f170f" x="150.440949" y="385.903363" style="stroke: #000000; stroke-width: 0.8"/>
      </g>
     </g>
     <g id="text_3">
      <!-- 2000 -->
      <g transform="translate(137.715949 400.5018) scale(0.1 -0.1)">
       <defs>
        <path id="DejaVuSans-32" d="M 1228 531 
L 3431 531 
L 3431 0 
L 469 0 
L 469 531 
Q 828 903 1448 1529 
Q 2069 2156 2228 2338 
Q 2531 2678 2651 2914 
Q 2772 3150 2772 3378 
Q 2772 3750 2511 3984 
Q 2250 4219 1831 4219 
Q 1534 4219 1204 4116 
Q 875 4013 500 3803 
L 500 4441 
Q 881 4594 1212 4672 
Q 1544 4750 1819 4750 
Q 2544 4750 2975 4387 
Q 3406 4025 3406 3419 
Q 3406 3131 3298 2873 
Q 3191 2616 2906 2266 
Q 2828 2175 2409 1742 
Q 1991 1309 1228 531 
z
" transform="scale(0.015625)"/>
       </defs>
       <use xlink:href="#DejaVuSans-32"/>
       <use xlink:href="#DejaVuSans-30" transform="translate(63.623047 0)"/>
       <use xlink:href="#DejaVuSans-30" transform="translate(127.246094 0)"/>
       <use xlink:href="#DejaVuSans-30" transform="translate(190.869141 0)"/>
      </g>
     </g>
    </g>
    <g id="xtick_4">
     <g id="line2d_7">
      <path d="M 193.556566 385.903363 
L 193.556566 7.869162 
" clip-path="url(#p408d5a298a)" style="fill: none; stroke-dasharray: 2.96,1.28; stroke-dashoffset: 0; stroke: #b0b0b0; stroke-opacity: 0.6; stroke-width: 0.8"/>
     </g>
     <g id="line2d_8">
      <g>
       <use xlink:href="#mc45e4f170f" x="193.556566" y="385.903363" style="stroke: #000000; stroke-width: 0.8"/>
      </g>
     </g>
     <g id="text_4">
      <!-- 3000 -->
      <g transform="translate(180.831566 400.5018) scale(0.1 -0.1)">
       <defs>
        <path id="DejaVuSans-33" d="M 2597 2516 
Q 3050 2419 3304 2112 
Q 3559 1806 3559 1356 
Q 3559 666 3084 287 
Q 2609 -91 1734 -91 
Q 1441 -91 1130 -33 
Q 819 25 488 141 
L 488 750 
Q 750 597 1062 519 
Q 1375 441 1716 441 
Q 2309 441 2620 675 
Q 2931 909 2931 1356 
Q 2931 1769 2642 2001 
Q 2353 2234 1838 2234 
L 1294 2234 
L 1294 2753 
L 1863 2753 
Q 2328 2753 2575 2939 
Q 2822 3125 2822 3475 
Q 2822 3834 2567 4026 
Q 2313 4219 1838 4219 
Q 1578 4219 1281 4162 
Q 984 4106 628 3988 
L 628 4550 
Q 988 4650 1302 4700 
Q 1616 4750 1894 4750 
Q 2613 4750 3031 4423 
Q 3450 4097 3450 3541 
Q 3450 3153 3228 2886 
Q 3006 2619 2597 2516 
z
" transform="scale(0.015625)"/>
       </defs>
       <use xlink:href="#DejaVuSans-33"/>
       <use xlink:href="#DejaVuSans-30" transform="translate(63.623047 0)"/>
       <use xlink:href="#DejaVuSans-30" transform="translate(127.246094 0)"/>
       <use xlink:href="#DejaVuSans-30" transform="translate(190.869141 0)"/>
      </g>
     </g>
    </g>
    <g id="xtick_5">
     <g id="line2d_9">
      <path d="M 236.672183 385.903363 
L 236.672183 7.869162 
" clip-path="url(#p408d5a298a)" style="fill: none; stroke-dasharray: 2.96,1.28; stroke-dashoffset: 0; stroke: #b0b0b0; stroke-opacity: 0.6; stroke-width: 0.8"/>
     </g>
     <g id="line2d_10">
      <g>
       <use xlink:href="#mc45e4f170f" x="236.672183" y="385.903363" style="stroke: #000000; stroke-width: 0.8"/>
      </g>
     </g>
     <g id="text_5">
      <!-- 4000 -->
      <g transform="translate(223.947183 400.5018) scale(0.1 -0.1)">
       <defs>
        <path id="DejaVuSans-34" d="M 2419 4116 
L 825 1625 
L 2419 1625 
L 2419 4116 
z
M 2253 4666 
L 3047 4666 
L 3047 1625 
L 3713 1625 
L 3713 1100 
L 3047 1100 
L 3047 0 
L 2419 0 
L 2419 1100 
L 313 1100 
L 313 1709 
L 2253 4666 
z
" transform="scale(0.015625)"/>
       </defs>
       <use xlink:href="#DejaVuSans-34"/>
       <use xlink:href="#DejaVuSans-30" transform="translate(63.623047 0)"/>
       <use xlink:href="#DejaVuSans-30" transform="translate(127.246094 0)"/>
       <use xlink:href="#DejaVuSans-30" transform="translate(190.869141 0)"/>
      </g>
     </g>
    </g>
    <g id="xtick_6">
     <g id="line2d_11">
      <path d="M 279.7878 385.903363 
L 279.7878 7.869162 
" clip-path="url(#p408d5a298a)" style="fill: none; stroke-dasharray: 2.96,1.28; stroke-dashoffset: 0; stroke: #b0b0b0; stroke-opacity: 0.6; stroke-width: 0.8"/>
     </g>
     <g id="line2d_12">
      <g>
       <use xlink:href="#mc45e4f170f" x="279.7878" y="385.903363" style="stroke: #000000; stroke-width: 0.8"/>
      </g>
     </g>
     <g id="text_6">
      <!-- 5000 -->
      <g transform="translate(267.0628 400.5018) scale(0.1 -0.1)">
       <defs>
        <path id="DejaVuSans-35" d="M 691 4666 
L 3169 4666 
L 3169 4134 
L 1269 4134 
L 1269 2991 
Q 1406 3038 1543 3061 
Q 1681 3084 1819 3084 
Q 2600 3084 3056 2656 
Q 3513 2228 3513 1497 
Q 3513 744 3044 326 
Q 2575 -91 1722 -91 
Q 1428 -91 1123 -41 
Q 819 9 494 109 
L 494 744 
Q 775 591 1075 516 
Q 1375 441 1709 441 
Q 2250 441 2565 725 
Q 2881 1009 2881 1497 
Q 2881 1984 2565 2268 
Q 2250 2553 1709 2553 
Q 1456 2553 1204 2497 
Q 953 2441 691 2322 
L 691 4666 
z
" transform="scale(0.015625)"/>
       </defs>
       <use xlink:href="#DejaVuSans-35"/>
       <use xlink:href="#DejaVuSans-30" transform="translate(63.623047 0)"/>
       <use xlink:href="#DejaVuSans-30" transform="translate(127.246094 0)"/>
       <use xlink:href="#DejaVuSans-30" transform="translate(190.869141 0)"/>
      </g>
     </g>
    </g>
    <g id="xtick_7">
     <g id="line2d_13">
      <path d="M 322.903416 385.903363 
L 322.903416 7.869162 
" clip-path="url(#p408d5a298a)" style="fill: none; stroke-dasharray: 2.96,1.28; stroke-dashoffset: 0; stroke: #b0b0b0; stroke-opacity: 0.6; stroke-width: 0.8"/>
     </g>
     <g id="line2d_14">
      <g>
       <use xlink:href="#mc45e4f170f" x="322.903416" y="385.903363" style="stroke: #000000; stroke-width: 0.8"/>
      </g>
     </g>
     <g id="text_7">
      <!-- 6000 -->
      <g transform="translate(310.178416 400.5018) scale(0.1 -0.1)">
       <defs>
        <path id="DejaVuSans-36" d="M 2113 2584 
Q 1688 2584 1439 2293 
Q 1191 2003 1191 1497 
Q 1191 994 1439 701 
Q 1688 409 2113 409 
Q 2538 409 2786 701 
Q 3034 994 3034 1497 
Q 3034 2003 2786 2293 
Q 2538 2584 2113 2584 
z
M 3366 4563 
L 3366 3988 
Q 3128 4100 2886 4159 
Q 2644 4219 2406 4219 
Q 1781 4219 1451 3797 
Q 1122 3375 1075 2522 
Q 1259 2794 1537 2939 
Q 1816 3084 2150 3084 
Q 2853 3084 3261 2657 
Q 3669 2231 3669 1497 
Q 3669 778 3244 343 
Q 2819 -91 2113 -91 
Q 1303 -91 875 529 
Q 447 1150 447 2328 
Q 447 3434 972 4092 
Q 1497 4750 2381 4750 
Q 2619 4750 2861 4703 
Q 3103 4656 3366 4563 
z
" transform="scale(0.015625)"/>
       </defs>
       <use xlink:href="#DejaVuSans-36"/>
       <use xlink:href="#DejaVuSans-30" transform="translate(63.623047 0)"/>
       <use xlink:href="#DejaVuSans-30" transform="translate(127.246094 0)"/>
       <use xlink:href="#DejaVuSans-30" transform="translate(190.869141 0)"/>
      </g>
     </g>
    </g>
    <g id="xtick_8">
     <g id="line2d_15">
      <path d="M 366.019033 385.903363 
L 366.019033 7.869162 
" clip-path="url(#p408d5a298a)" style="fill: none; stroke-dasharray: 2.96,1.28; stroke-dashoffset: 0; stroke: #b0b0b0; stroke-opacity: 0.6; stroke-width: 0.8"/>
     </g>
     <g id="line2d_16">
      <g>
       <use xlink:href="#mc45e4f170f" x="366.019033" y="385.903363" style="stroke: #000000; stroke-width: 0.8"/>
      </g>
     </g>
     <g id="text_8">
      <!-- 7000 -->
      <g transform="translate(353.294033 400.5018) scale(0.1 -0.1)">
       <defs>
        <path id="DejaVuSans-37" d="M 525 4666 
L 3525 4666 
L 3525 4397 
L 1831 0 
L 1172 0 
L 2766 4134 
L 525 4134 
L 525 4666 
z
" transform="scale(0.015625)"/>
       </defs>
       <use xlink:href="#DejaVuSans-37"/>
       <use xlink:href="#DejaVuSans-30" transform="translate(63.623047 0)"/>
       <use xlink:href="#DejaVuSans-30" transform="translate(127.246094 0)"/>
       <use xlink:href="#DejaVuSans-30" transform="translate(190.869141 0)"/>
      </g>
     </g>
    </g>
    <g id="xtick_9">
     <g id="line2d_17">
      <path d="M 409.13465 385.903363 
L 409.13465 7.869162 
" clip-path="url(#p408d5a298a)" style="fill: none; stroke-dasharray: 2.96,1.28; stroke-dashoffset: 0; stroke: #b0b0b0; stroke-opacity: 0.6; stroke-width: 0.8"/>
     </g>
     <g id="line2d_18">
      <g>
       <use xlink:href="#mc45e4f170f" x="409.13465" y="385.903363" style="stroke: #000000; stroke-width: 0.8"/>
      </g>
     </g>
     <g id="text_9">
      <!-- 8000 -->
      <g transform="translate(396.40965 400.5018) scale(0.1 -0.1)">
       <defs>
        <path id="DejaVuSans-38" d="M 2034 2216 
Q 1584 2216 1326 1975 
Q 1069 1734 1069 1313 
Q 1069 891 1326 650 
Q 1584 409 2034 409 
Q 2484 409 2743 651 
Q 3003 894 3003 1313 
Q 3003 1734 2745 1975 
Q 2488 2216 2034 2216 
z
M 1403 2484 
Q 997 2584 770 2862 
Q 544 3141 544 3541 
Q 544 4100 942 4425 
Q 1341 4750 2034 4750 
Q 2731 4750 3128 4425 
Q 3525 4100 3525 3541 
Q 3525 3141 3298 2862 
Q 3072 2584 2669 2484 
Q 3125 2378 3379 2068 
Q 3634 1759 3634 1313 
Q 3634 634 3220 271 
Q 2806 -91 2034 -91 
Q 1263 -91 848 271 
Q 434 634 434 1313 
Q 434 1759 690 2068 
Q 947 2378 1403 2484 
z
M 1172 3481 
Q 1172 3119 1398 2916 
Q 1625 2713 2034 2713 
Q 2441 2713 2670 2916 
Q 2900 3119 2900 3481 
Q 2900 3844 2670 4047 
Q 2441 4250 2034 4250 
Q 1625 4250 1398 4047 
Q 1172 3844 1172 3481 
z
" transform="scale(0.015625)"/>
       </defs>
       <use xlink:href="#DejaVuSans-38"/>
       <use xlink:href="#DejaVuSans-30" transform="translate(63.623047 0)"/>
       <use xlink:href="#DejaVuSans-30" transform="translate(127.246094 0)"/>
       <use xlink:href="#DejaVuSans-30" transform="translate(190.869141 0)"/>
      </g>
     </g>
    </g>
    <g id="text_10">
     <!-- Distance from terminus [nt] -->
     <g transform="translate(167.151406 414.179925) scale(0.1 -0.1)">
      <defs>
       <path id="DejaVuSans-44" d="M 1259 4147 
L 1259 519 
L 2022 519 
Q 2988 519 3436 956 
Q 3884 1394 3884 2338 
Q 3884 3275 3436 3711 
Q 2988 4147 2022 4147 
L 1259 4147 
z
M 628 4666 
L 1925 4666 
Q 3281 4666 3915 4102 
Q 4550 3538 4550 2338 
Q 4550 1131 3912 565 
Q 3275 0 1925 0 
L 628 0 
L 628 4666 
z
" transform="scale(0.015625)"/>
       <path id="DejaVuSans-69" d="M 603 3500 
L 1178 3500 
L 1178 0 
L 603 0 
L 603 3500 
z
M 603 4863 
L 1178 4863 
L 1178 4134 
L 603 4134 
L 603 4863 
z
" transform="scale(0.015625)"/>
       <path id="DejaVuSans-73" d="M 2834 3397 
L 2834 2853 
Q 2591 2978 2328 3040 
Q 2066 3103 1784 3103 
Q 1356 3103 1142 2972 
Q 928 2841 928 2578 
Q 928 2378 1081 2264 
Q 1234 2150 1697 2047 
L 1894 2003 
Q 2506 1872 2764 1633 
Q 3022 1394 3022 966 
Q 3022 478 2636 193 
Q 2250 -91 1575 -91 
Q 1294 -91 989 -36 
Q 684 19 347 128 
L 347 722 
Q 666 556 975 473 
Q 1284 391 1588 391 
Q 1994 391 2212 530 
Q 2431 669 2431 922 
Q 2431 1156 2273 1281 
Q 2116 1406 1581 1522 
L 1381 1569 
Q 847 1681 609 1914 
Q 372 2147 372 2553 
Q 372 3047 722 3315 
Q 1072 3584 1716 3584 
Q 2034 3584 2315 3537 
Q 2597 3491 2834 3397 
z
" transform="scale(0.015625)"/>
       <path id="DejaVuSans-74" d="M 1172 4494 
L 1172 3500 
L 2356 3500 
L 2356 3053 
L 1172 3053 
L 1172 1153 
Q 1172 725 1289 603 
Q 1406 481 1766 481 
L 2356 481 
L 2356 0 
L 1766 0 
Q 1100 0 847 248 
Q 594 497 594 1153 
L 594 3053 
L 172 3053 
L 172 3500 
L 594 3500 
L 594 4494 
L 1172 4494 
z
" transform="scale(0.015625)"/>
       <path id="DejaVuSans-61" d="M 2194 1759 
Q 1497 1759 1228 1600 
Q 959 1441 959 1056 
Q 959 750 1161 570 
Q 1363 391 1709 391 
Q 2188 391 2477 730 
Q 2766 1069 2766 1631 
L 2766 1759 
L 2194 1759 
z
M 3341 1997 
L 3341 0 
L 2766 0 
L 2766 531 
Q 2569 213 2275 61 
Q 1981 -91 1556 -91 
Q 1019 -91 701 211 
Q 384 513 384 1019 
Q 384 1609 779 1909 
Q 1175 2209 1959 2209 
L 2766 2209 
L 2766 2266 
Q 2766 2663 2505 2880 
Q 2244 3097 1772 3097 
Q 1472 3097 1187 3025 
Q 903 2953 641 2809 
L 641 3341 
Q 956 3463 1253 3523 
Q 1550 3584 1831 3584 
Q 2591 3584 2966 3190 
Q 3341 2797 3341 1997 
z
" transform="scale(0.015625)"/>
       <path id="DejaVuSans-6e" d="M 3513 2113 
L 3513 0 
L 2938 0 
L 2938 2094 
Q 2938 2591 2744 2837 
Q 2550 3084 2163 3084 
Q 1697 3084 1428 2787 
Q 1159 2491 1159 1978 
L 1159 0 
L 581 0 
L 581 3500 
L 1159 3500 
L 1159 2956 
Q 1366 3272 1645 3428 
Q 1925 3584 2291 3584 
Q 2894 3584 3203 3211 
Q 3513 2838 3513 2113 
z
" transform="scale(0.015625)"/>
       <path id="DejaVuSans-63" d="M 3122 3366 
L 3122 2828 
Q 2878 2963 2633 3030 
Q 2388 3097 2138 3097 
Q 1578 3097 1268 2742 
Q 959 2388 959 1747 
Q 959 1106 1268 751 
Q 1578 397 2138 397 
Q 2388 397 2633 464 
Q 2878 531 3122 666 
L 3122 134 
Q 2881 22 2623 -34 
Q 2366 -91 2075 -91 
Q 1284 -91 818 406 
Q 353 903 353 1747 
Q 353 2603 823 3093 
Q 1294 3584 2113 3584 
Q 2378 3584 2631 3529 
Q 2884 3475 3122 3366 
z
" transform="scale(0.015625)"/>
       <path id="DejaVuSans-65" d="M 3597 1894 
L 3597 1613 
L 953 1613 
Q 991 1019 1311 708 
Q 1631 397 2203 397 
Q 2534 397 2845 478 
Q 3156 559 3463 722 
L 3463 178 
Q 3153 47 2828 -22 
Q 2503 -91 2169 -91 
Q 1331 -91 842 396 
Q 353 884 353 1716 
Q 353 2575 817 3079 
Q 1281 3584 2069 3584 
Q 2775 3584 3186 3129 
Q 3597 2675 3597 1894 
z
M 3022 2063 
Q 3016 2534 2758 2815 
Q 2500 3097 2075 3097 
Q 1594 3097 1305 2825 
Q 1016 2553 972 2059 
L 3022 2063 
z
" transform="scale(0.015625)"/>
       <path id="DejaVuSans-20" transform="scale(0.015625)"/>
       <path id="DejaVuSans-66" d="M 2375 4863 
L 2375 4384 
L 1825 4384 
Q 1516 4384 1395 4259 
Q 1275 4134 1275 3809 
L 1275 3500 
L 2222 3500 
L 2222 3053 
L 1275 3053 
L 1275 0 
L 697 0 
L 697 3053 
L 147 3053 
L 147 3500 
L 697 3500 
L 697 3744 
Q 697 4328 969 4595 
Q 1241 4863 1831 4863 
L 2375 4863 
z
" transform="scale(0.015625)"/>
       <path id="DejaVuSans-72" d="M 2631 2963 
Q 2534 3019 2420 3045 
Q 2306 3072 2169 3072 
Q 1681 3072 1420 2755 
Q 1159 2438 1159 1844 
L 1159 0 
L 581 0 
L 581 3500 
L 1159 3500 
L 1159 2956 
Q 1341 3275 1631 3429 
Q 1922 3584 2338 3584 
Q 2397 3584 2469 3576 
Q 2541 3569 2628 3553 
L 2631 2963 
z
" transform="scale(0.015625)"/>
       <path id="DejaVuSans-6f" d="M 1959 3097 
Q 1497 3097 1228 2736 
Q 959 2375 959 1747 
Q 959 1119 1226 758 
Q 1494 397 1959 397 
Q 2419 397 2687 759 
Q 2956 1122 2956 1747 
Q 2956 2369 2687 2733 
Q 2419 3097 1959 3097 
z
M 1959 3584 
Q 2709 3584 3137 3096 
Q 3566 2609 3566 1747 
Q 3566 888 3137 398 
Q 2709 -91 1959 -91 
Q 1206 -91 779 398 
Q 353 888 353 1747 
Q 353 2609 779 3096 
Q 1206 3584 1959 3584 
z
" transform="scale(0.015625)"/>
       <path id="DejaVuSans-6d" d="M 3328 2828 
Q 3544 3216 3844 3400 
Q 4144 3584 4550 3584 
Q 5097 3584 5394 3201 
Q 5691 2819 5691 2113 
L 5691 0 
L 5113 0 
L 5113 2094 
Q 5113 2597 4934 2840 
Q 4756 3084 4391 3084 
Q 3944 3084 3684 2787 
Q 3425 2491 3425 1978 
L 3425 0 
L 2847 0 
L 2847 2094 
Q 2847 2600 2669 2842 
Q 2491 3084 2119 3084 
Q 1678 3084 1418 2786 
Q 1159 2488 1159 1978 
L 1159 0 
L 581 0 
L 581 3500 
L 1159 3500 
L 1159 2956 
Q 1356 3278 1631 3431 
Q 1906 3584 2284 3584 
Q 2666 3584 2933 3390 
Q 3200 3197 3328 2828 
z
" transform="scale(0.015625)"/>
       <path id="DejaVuSans-75" d="M 544 1381 
L 544 3500 
L 1119 3500 
L 1119 1403 
Q 1119 906 1312 657 
Q 1506 409 1894 409 
Q 2359 409 2629 706 
Q 2900 1003 2900 1516 
L 2900 3500 
L 3475 3500 
L 3475 0 
L 2900 0 
L 2900 538 
Q 2691 219 2414 64 
Q 2138 -91 1772 -91 
Q 1169 -91 856 284 
Q 544 659 544 1381 
z
M 1991 3584 
L 1991 3584 
z
" transform="scale(0.015625)"/>
       <path id="DejaVuSans-5b" d="M 550 4863 
L 1875 4863 
L 1875 4416 
L 1125 4416 
L 1125 -397 
L 1875 -397 
L 1875 -844 
L 550 -844 
L 550 4863 
z
" transform="scale(0.015625)"/>
       <path id="DejaVuSans-5d" d="M 1947 4863 
L 1947 -844 
L 622 -844 
L 622 -397 
L 1369 -397 
L 1369 4416 
L 622 4416 
L 622 4863 
L 1947 4863 
z
" transform="scale(0.015625)"/>
      </defs>
      <use xlink:href="#DejaVuSans-44"/>
      <use xlink:href="#DejaVuSans-69" transform="translate(77.001953 0)"/>
      <use xlink:href="#DejaVuSans-73" transform="translate(104.785156 0)"/>
      <use xlink:href="#DejaVuSans-74" transform="translate(156.884766 0)"/>
      <use xlink:href="#DejaVuSans-61" transform="translate(196.09375 0)"/>
      <use xlink:href="#DejaVuSans-6e" transform="translate(257.373047 0)"/>
      <use xlink:href="#DejaVuSans-63" transform="translate(320.751953 0)"/>
      <use xlink:href="#DejaVuSans-65" transform="translate(375.732422 0)"/>
      <use xlink:href="#DejaVuSans-20" transform="translate(437.255859 0)"/>
      <use xlink:href="#DejaVuSans-66" transform="translate(469.042969 0)"/>
      <use xlink:href="#DejaVuSans-72" transform="translate(504.248047 0)"/>
      <use xlink:href="#DejaVuSans-6f" transform="translate(543.111328 0)"/>
      <use xlink:href="#DejaVuSans-6d" transform="translate(604.292969 0)"/>
      <use xlink:href="#DejaVuSans-20" transform="translate(701.705078 0)"/>
      <use xlink:href="#DejaVuSans-74" transform="translate(733.492188 0)"/>
      <use xlink:href="#DejaVuSans-65" transform="translate(772.701172 0)"/>
      <use xlink:href="#DejaVuSans-72" transform="translate(834.224609 0)"/>
      <use xlink:href="#DejaVuSans-6d" transform="translate(873.587891 0)"/>
      <use xlink:href="#DejaVuSans-69" transform="translate(971 0)"/>
      <use xlink:href="#DejaVuSans-6e" transform="translate(998.783203 0)"/>
      <use xlink:href="#DejaVuSans-75" transform="translate(1062.162109 0)"/>
      <use xlink:href="#DejaVuSans-73" transform="translate(1125.541016 0)"/>
      <use xlink:href="#DejaVuSans-20" transform="translate(1177.640625 0)"/>
      <use xlink:href="#DejaVuSans-5b" transform="translate(1209.427734 0)"/>
      <use xlink:href="#DejaVuSans-6e" transform="translate(1248.441406 0)"/>
      <use xlink:href="#DejaVuSans-74" transform="translate(1311.820312 0)"/>
      <use xlink:href="#DejaVuSans-5d" transform="translate(1351.029297 0)"/>
     </g>
    </g>
   </g>
   <g id="matplotlib.axis_2">
    <g id="ytick_1">
     <g id="line2d_19">
      <path d="M 46.965625 368.71999 
L 426.335625 368.71999 
" clip-path="url(#p408d5a298a)" style="fill: none; stroke-dasharray: 2.96,1.28; stroke-dashoffset: 0; stroke: #b0b0b0; stroke-opacity: 0.6; stroke-width: 0.8"/>
     </g>
     <g id="line2d_20">
      <defs>
       <path id="ma777292167" d="M 0 0 
L -3.5 0 
" style="stroke: #000000; stroke-width: 0.8"/>
      </defs>
      <g>
       <use xlink:href="#ma777292167" x="46.965625" y="368.71999" style="stroke: #000000; stroke-width: 0.8"/>
      </g>
     </g>
     <g id="text_11">
      <!-- 0 -->
      <g transform="translate(33.603125 372.519209) scale(0.1 -0.1)">
       <use xlink:href="#DejaVuSans-30"/>
      </g>
     </g>
    </g>
    <g id="ytick_2">
     <g id="line2d_21">
      <path d="M 46.965625 309.099861 
L 426.335625 309.099861 
" clip-path="url(#p408d5a298a)" style="fill: none; stroke-dasharray: 2.96,1.28; stroke-dashoffset: 0; stroke: #b0b0b0; stroke-opacity: 0.6; stroke-width: 0.8"/>
     </g>
     <g id="line2d_22">
      <g>
       <use xlink:href="#ma777292167" x="46.965625" y="309.099861" style="stroke: #000000; stroke-width: 0.8"/>
      </g>
     </g>
     <g id="text_12">
      <!-- 20 -->
      <g transform="translate(27.240625 312.89908) scale(0.1 -0.1)">
       <use xlink:href="#DejaVuSans-32"/>
       <use xlink:href="#DejaVuSans-30" transform="translate(63.623047 0)"/>
      </g>
     </g>
    </g>
    <g id="ytick_3">
     <g id="line2d_23">
      <path d="M 46.965625 249.479733 
L 426.335625 249.479733 
" clip-path="url(#p408d5a298a)" style="fill: none; stroke-dasharray: 2.96,1.28; stroke-dashoffset: 0; stroke: #b0b0b0; stroke-opacity: 0.6; stroke-width: 0.8"/>
     </g>
     <g id="line2d_24">
      <g>
       <use xlink:href="#ma777292167" x="46.965625" y="249.479733" style="stroke: #000000; stroke-width: 0.8"/>
      </g>
     </g>
     <g id="text_13">
      <!-- 40 -->
      <g transform="translate(27.240625 253.278952) scale(0.1 -0.1)">
       <use xlink:href="#DejaVuSans-34"/>
       <use xlink:href="#DejaVuSans-30" transform="translate(63.623047 0)"/>
      </g>
     </g>
    </g>
    <g id="ytick_4">
     <g id="line2d_25">
      <path d="M 46.965625 189.859604 
L 426.335625 189.859604 
" clip-path="url(#p408d5a298a)" style="fill: none; stroke-dasharray: 2.96,1.28; stroke-dashoffset: 0; stroke: #b0b0b0; stroke-opacity: 0.6; stroke-width: 0.8"/>
     </g>
     <g id="line2d_26">
      <g>
       <use xlink:href="#ma777292167" x="46.965625" y="189.859604" style="stroke: #000000; stroke-width: 0.8"/>
      </g>
     </g>
     <g id="text_14">
      <!-- 60 -->
      <g transform="translate(27.240625 193.658823) scale(0.1 -0.1)">
       <use xlink:href="#DejaVuSans-36"/>
       <use xlink:href="#DejaVuSans-30" transform="translate(63.623047 0)"/>
      </g>
     </g>
    </g>
    <g id="ytick_5">
     <g id="line2d_27">
      <path d="M 46.965625 130.239476 
L 426.335625 130.239476 
" clip-path="url(#p408d5a298a)" style="fill: none; stroke-dasharray: 2.96,1.28; stroke-dashoffset: 0; stroke: #b0b0b0; stroke-opacity: 0.6; stroke-width: 0.8"/>
     </g>
     <g id="line2d_28">
      <g>
       <use xlink:href="#ma777292167" x="46.965625" y="130.239476" style="stroke: #000000; stroke-width: 0.8"/>
      </g>
     </g>
     <g id="text_15">
      <!-- 80 -->
      <g transform="translate(27.240625 134.038695) scale(0.1 -0.1)">
       <use xlink:href="#DejaVuSans-38"/>
       <use xlink:href="#DejaVuSans-30" transform="translate(63.623047 0)"/>
      </g>
     </g>
    </g>
    <g id="ytick_6">
     <g id="line2d_29">
      <path d="M 46.965625 70.619347 
L 426.335625 70.619347 
" clip-path="url(#p408d5a298a)" style="fill: none; stroke-dasharray: 2.96,1.28; stroke-dashoffset: 0; stroke: #b0b0b0; stroke-opacity: 0.6; stroke-width: 0.8"/>
     </g>
     <g id="line2d_30">
      <g>
       <use xlink:href="#ma777292167" x="46.965625" y="70.619347" style="stroke: #000000; stroke-width: 0.8"/>
      </g>
     </g>
     <g id="text_16">
      <!-- 100 -->
      <g transform="translate(20.878125 74.418566) scale(0.1 -0.1)">
       <use xlink:href="#DejaVuSans-31"/>
       <use xlink:href="#DejaVuSans-30" transform="translate(63.623047 0)"/>
       <use xlink:href="#DejaVuSans-30" transform="translate(127.246094 0)"/>
      </g>
     </g>
    </g>
    <g id="ytick_7">
     <g id="line2d_31">
      <path d="M 46.965625 10.999219 
L 426.335625 10.999219 
" clip-path="url(#p408d5a298a)" style="fill: none; stroke-dasharray: 2.96,1.28; stroke-dashoffset: 0; stroke: #b0b0b0; stroke-opacity: 0.6; stroke-width: 0.8"/>
     </g>
     <g id="line2d_32">
      <g>
       <use xlink:href="#ma777292167" x="46.965625" y="10.999219" style="stroke: #000000; stroke-width: 0.8"/>
      </g>
     </g>
     <g id="text_17">
      <!-- 120 -->
      <g transform="translate(20.878125 14.798437) scale(0.1 -0.1)">
       <use xlink:href="#DejaVuSans-31"/>
       <use xlink:href="#DejaVuSans-32" transform="translate(63.623047 0)"/>
       <use xlink:href="#DejaVuSans-30" transform="translate(127.246094 0)"/>
      </g>
     </g>
    </g>
    <g id="text_18">
     <!-- Average cumulative count -->
     <g transform="translate(14.798438 262.498762) rotate(-90) scale(0.1 -0.1)">
      <defs>
       <path id="DejaVuSans-41" d="M 2188 4044 
L 1331 1722 
L 3047 1722 
L 2188 4044 
z
M 1831 4666 
L 2547 4666 
L 4325 0 
L 3669 0 
L 3244 1197 
L 1141 1197 
L 716 0 
L 50 0 
L 1831 4666 
z
" transform="scale(0.015625)"/>
       <path id="DejaVuSans-76" d="M 191 3500 
L 800 3500 
L 1894 563 
L 2988 3500 
L 3597 3500 
L 2284 0 
L 1503 0 
L 191 3500 
z
" transform="scale(0.015625)"/>
       <path id="DejaVuSans-67" d="M 2906 1791 
Q 2906 2416 2648 2759 
Q 2391 3103 1925 3103 
Q 1463 3103 1205 2759 
Q 947 2416 947 1791 
Q 947 1169 1205 825 
Q 1463 481 1925 481 
Q 2391 481 2648 825 
Q 2906 1169 2906 1791 
z
M 3481 434 
Q 3481 -459 3084 -895 
Q 2688 -1331 1869 -1331 
Q 1566 -1331 1297 -1286 
Q 1028 -1241 775 -1147 
L 775 -588 
Q 1028 -725 1275 -790 
Q 1522 -856 1778 -856 
Q 2344 -856 2625 -561 
Q 2906 -266 2906 331 
L 2906 616 
Q 2728 306 2450 153 
Q 2172 0 1784 0 
Q 1141 0 747 490 
Q 353 981 353 1791 
Q 353 2603 747 3093 
Q 1141 3584 1784 3584 
Q 2172 3584 2450 3431 
Q 2728 3278 2906 2969 
L 2906 3500 
L 3481 3500 
L 3481 434 
z
" transform="scale(0.015625)"/>
       <path id="DejaVuSans-6c" d="M 603 4863 
L 1178 4863 
L 1178 0 
L 603 0 
L 603 4863 
z
" transform="scale(0.015625)"/>
      </defs>
      <use xlink:href="#DejaVuSans-41"/>
      <use xlink:href="#DejaVuSans-76" transform="translate(62.533203 0)"/>
      <use xlink:href="#DejaVuSans-65" transform="translate(121.712891 0)"/>
      <use xlink:href="#DejaVuSans-72" transform="translate(183.236328 0)"/>
      <use xlink:href="#DejaVuSans-61" transform="translate(224.349609 0)"/>
      <use xlink:href="#DejaVuSans-67" transform="translate(285.628906 0)"/>
      <use xlink:href="#DejaVuSans-65" transform="translate(349.105469 0)"/>
      <use xlink:href="#DejaVuSans-20" transform="translate(410.628906 0)"/>
      <use xlink:href="#DejaVuSans-63" transform="translate(442.416016 0)"/>
      <use xlink:href="#DejaVuSans-75" transform="translate(497.396484 0)"/>
      <use xlink:href="#DejaVuSans-6d" transform="translate(560.775391 0)"/>
      <use xlink:href="#DejaVuSans-75" transform="translate(658.1875 0)"/>
      <use xlink:href="#DejaVuSans-6c" transform="translate(721.566406 0)"/>
      <use xlink:href="#DejaVuSans-61" transform="translate(749.349609 0)"/>
      <use xlink:href="#DejaVuSans-74" transform="translate(810.628906 0)"/>
      <use xlink:href="#DejaVuSans-69" transform="translate(849.837891 0)"/>
      <use xlink:href="#DejaVuSans-76" transform="translate(877.621094 0)"/>
      <use xlink:href="#DejaVuSans-65" transform="translate(936.800781 0)"/>
      <use xlink:href="#DejaVuSans-20" transform="translate(998.324219 0)"/>
      <use xlink:href="#DejaVuSans-63" transform="translate(1030.111328 0)"/>
      <use xlink:href="#DejaVuSans-6f" transform="translate(1085.091797 0)"/>
      <use xlink:href="#DejaVuSans-75" transform="translate(1146.273438 0)"/>
      <use xlink:href="#DejaVuSans-6e" transform="translate(1209.652344 0)"/>
      <use xlink:href="#DejaVuSans-74" transform="translate(1273.03125 0)"/>
     </g>
    </g>
   </g>
   <g id="line2d_33">
    <path d="M 64.209716 367.442416 
L 64.46841 364.035551 
L 64.554641 364.035551 
L 64.727103 361.054545 
L 64.770219 361.054545 
L 64.942681 358.073538 
L 64.985797 358.073538 
L 65.158259 355.092532 
L 65.201375 355.092532 
L 65.373838 352.537384 
L 65.416953 352.537384 
L 65.589416 349.982235 
L 65.718762 347.852945 
L 66.020572 344.020222 
L 66.149919 341.890932 
L 66.451728 338.05821 
L 66.796653 333.799629 
L 66.969115 331.670339 
L 67.227809 328.263474 
L 67.357156 326.560042 
L 67.400272 326.560042 
L 67.443387 326.134184 
L 67.61585 323.579036 
L 67.658965 323.579036 
L 67.788312 320.598029 
L 67.874543 320.598029 
L 68.047006 318.042881 
L 68.176353 315.91359 
L 68.435046 312.506726 
L 68.478162 312.506726 
L 68.866203 306.970571 
L 69.124896 303.563707 
L 69.469821 298.879268 
L 69.77163 295.472403 
L 69.944093 292.917255 
L 69.987209 292.491397 
L 70.159671 289.936249 
L 70.418365 286.529384 
L 70.590827 284.400094 
L 70.978868 278.863939 
L 71.237561 275.457075 
L 71.625602 269.92092 
L 71.884296 266.514055 
L 72.272336 260.977901 
L 72.315452 260.977901 
L 72.444799 258.84861 
L 72.746608 255.015888 
L 73.005302 251.609023 
L 73.350227 246.498726 
L 73.393342 246.498726 
L 73.738267 241.814288 
L 74.126308 237.129849 
L 74.471233 232.44541 
L 74.729926 229.038546 
L 75.031736 225.205823 
L 78.13606 194.118185 
L 78.308523 191.563037 
L 78.351638 191.563037 
L 78.524101 189.007888 
L 78.567216 189.007888 
L 78.739679 186.878598 
L 78.782794 186.878598 
L 78.912141 185.601024 
L 79.343297 182.194159 
L 79.429529 182.194159 
L 79.601991 180.916585 
L 79.645107 180.916585 
L 79.817569 179.639011 
L 79.860685 179.639011 
L 80.033147 178.361437 
L 80.076263 178.361437 
L 80.248725 176.658004 
L 80.291841 176.658004 
L 80.636766 174.102856 
L 80.722997 174.102856 
L 81.067922 171.547708 
L 81.154153 171.547708 
L 81.499078 168.992559 
L 81.585309 168.992559 
L 81.800888 167.714985 
L 81.844003 167.714985 
L 81.97335 166.437411 
L 82.059581 166.437411 
L 82.188928 165.159837 
L 82.275159 165.159837 
L 82.404506 163.882263 
L 82.490737 163.882263 
L 82.620084 163.456405 
L 82.6632 163.456405 
L 82.835662 162.17883 
L 82.878778 162.17883 
L 83.05124 160.901256 
L 83.094356 160.901256 
L 83.266819 159.623682 
L 83.309934 159.623682 
L 83.697975 156.642676 
L 83.74109 156.642676 
L 84.086015 154.087527 
L 84.172246 154.087527 
L 84.517171 151.532379 
L 84.603403 151.532379 
L 84.948328 148.977231 
L 85.034559 148.977231 
L 85.379484 146.422082 
L 85.465715 146.422082 
L 85.81064 143.866934 
L 85.896871 143.866934 
L 86.112449 142.58936 
L 86.155565 142.58936 
L 86.328027 141.311785 
L 86.371143 141.311785 
L 86.543605 140.034211 
L 86.586721 140.034211 
L 86.759183 138.756637 
L 86.802299 138.756637 
L 86.974762 137.479063 
L 87.017877 137.479063 
L 87.19034 136.201489 
L 87.233455 136.201489 
L 87.405918 134.923914 
L 87.449033 134.923914 
L 87.621496 133.64634 
L 87.664611 133.64634 
L 87.837074 132.368766 
L 87.880189 132.368766 
L 88.052652 131.091192 
L 88.095768 131.091192 
L 88.26823 129.813618 
L 88.311346 129.813618 
L 88.483808 128.961902 
L 88.526924 128.961902 
L 88.699386 128.110186 
L 88.742502 128.110186 
L 88.914964 127.258469 
L 88.95808 127.258469 
L 89.130542 126.406753 
L 89.173658 126.406753 
L 89.34612 125.555037 
L 89.389236 125.555037 
L 89.561699 124.703321 
L 89.604814 124.703321 
L 89.777277 123.851605 
L 89.820392 123.851605 
L 90.122202 121.722315 
L 90.251548 121.722315 
L 90.424011 120.44474 
L 90.467126 120.44474 
L 90.639589 119.167166 
L 90.682705 119.167166 
L 90.812051 118.31545 
L 90.898283 118.31545 
L 91.02763 117.463734 
L 91.113861 117.463734 
L 91.243208 116.612018 
L 91.329439 116.612018 
L 91.458786 115.760302 
L 91.545017 115.760302 
L 91.674364 114.908586 
L 91.760595 114.908586 
L 91.889942 114.05687 
L 91.976173 114.05687 
L 92.10552 113.205153 
L 92.191751 113.205153 
L 92.321098 112.353437 
L 92.407329 112.353437 
L 92.536676 111.501721 
L 92.622907 111.501721 
L 92.752254 110.650005 
L 92.838485 110.650005 
L 92.967832 109.798289 
L 93.054063 109.798289 
L 93.226526 108.520715 
L 93.269642 108.520715 
L 93.442104 107.243141 
L 93.48522 107.243141 
L 93.657682 105.965566 
L 93.700798 105.965566 
L 93.87326 104.687992 
L 93.916376 104.687992 
L 94.088838 103.410418 
L 94.131954 103.410418 
L 94.304416 102.132844 
L 94.347532 102.132844 
L 94.519994 100.85527 
L 94.56311 100.85527 
L 94.735573 99.577695 
L 94.778688 99.577695 
L 94.951151 98.300121 
L 94.994266 98.300121 
L 95.166729 97.022547 
L 95.209844 97.022547 
L 95.339191 96.170831 
L 95.425422 96.170831 
L 95.597885 94.893257 
L 95.641001 94.893257 
L 95.813463 93.615683 
L 95.856579 93.615683 
L 96.029041 92.338108 
L 96.072157 92.338108 
L 96.201504 91.486392 
L 96.287735 91.486392 
L 96.417082 90.634676 
L 96.503313 90.634676 
L 96.63266 89.78296 
L 96.718891 89.78296 
L 96.848238 88.931244 
L 96.934469 88.931244 
L 97.106931 88.079528 
L 97.150047 88.079528 
L 97.32251 87.227812 
L 97.365625 87.227812 
L 97.538088 86.376096 
L 97.581203 86.376096 
L 97.753666 85.524379 
L 97.796781 85.524379 
L 97.969244 84.672663 
L 98.012359 84.672663 
L 98.184822 83.820947 
L 98.227938 83.820947 
L 98.4004 82.969231 
L 98.443516 82.969231 
L 98.615978 82.117515 
L 98.659094 82.117515 
L 98.831556 81.265799 
L 98.874672 81.265799 
L 99.047134 80.414083 
L 99.09025 80.414083 
L 99.262712 79.562367 
L 99.305828 79.562367 
L 99.47829 78.71065 
L 99.521406 78.71065 
L 99.693868 77.858934 
L 99.736984 77.858934 
L 99.909447 77.007218 
L 99.952562 77.007218 
L 100.125025 76.155502 
L 100.16814 76.155502 
L 100.340603 75.303786 
L 100.383718 75.303786 
L 100.556181 74.45207 
L 100.599296 74.45207 
L 100.771759 73.600354 
L 100.814875 73.600354 
L 100.987337 72.748638 
L 101.030453 72.748638 
L 101.202915 71.896921 
L 101.246031 71.896921 
L 101.375378 71.471063 
L 101.461609 71.471063 
L 101.634071 70.619347 
L 101.677187 70.619347 
L 101.849649 69.767631 
L 101.892765 69.767631 
L 102.065227 68.915915 
L 102.108343 68.915915 
L 102.280805 68.064199 
L 102.323921 68.064199 
L 102.496384 67.212483 
L 102.539499 67.212483 
L 102.711962 66.360767 
L 102.755077 66.360767 
L 102.92754 65.509051 
L 102.970655 65.509051 
L 103.143118 64.657334 
L 103.186233 64.657334 
L 103.358696 63.805618 
L 103.401812 63.805618 
L 103.574274 62.953902 
L 103.61739 62.953902 
L 103.746736 62.528044 
L 103.832968 62.528044 
L 104.00543 61.676328 
L 104.048546 61.676328 
L 104.221008 60.824612 
L 104.264124 60.824612 
L 104.393471 60.398754 
L 104.479702 60.398754 
L 104.652164 59.547038 
L 104.69528 59.547038 
L 104.867742 58.695322 
L 104.910858 58.695322 
L 105.083321 57.843605 
L 105.212667 57.843605 
L 105.38513 56.991889 
L 105.428245 56.991889 
L 105.600708 56.140173 
L 105.643824 56.140173 
L 105.816286 55.288457 
L 105.859402 55.288457 
L 106.031864 54.436741 
L 106.07498 54.436741 
L 106.247442 53.585025 
L 106.376789 53.585025 
L 106.549252 52.733309 
L 106.592367 52.733309 
L 106.721714 52.307451 
L 106.807945 52.307451 
L 106.937292 51.881593 
L 106.980408 51.881593 
L 107.15287 51.029876 
L 107.195986 51.029876 
L 107.368448 50.17816 
L 107.411564 50.17816 
L 107.584026 49.326444 
L 107.627142 49.326444 
L 107.799604 48.474728 
L 107.84272 48.474728 
L 108.015183 47.623012 
L 108.101414 47.623012 
L 108.273876 46.771296 
L 108.316992 46.771296 
L 108.489454 45.91958 
L 108.53257 45.91958 
L 108.705032 45.067864 
L 108.748148 45.067864 
L 108.92061 44.216148 
L 109.093073 44.216148 
L 109.22242 43.790289 
L 109.481113 43.790289 
L 109.61046 43.364431 
L 109.696692 43.364431 
L 109.826038 42.938573 
L 109.91227 42.938573 
L 110.041616 42.512715 
L 110.127848 42.512715 
L 110.257195 42.086857 
L 110.60212 42.086857 
L 110.731466 41.660999 
L 110.817698 41.660999 
L 110.947044 41.235141 
L 111.205738 41.235141 
L 111.335085 40.809283 
L 111.421316 40.809283 
L 111.550663 40.383425 
L 111.636894 40.383425 
L 111.766241 39.957567 
L 111.852472 39.957567 
L 111.981819 39.531709 
L 112.06805 39.531709 
L 112.197397 39.105851 
L 112.283629 39.105851 
L 112.412975 38.679993 
L 112.499207 38.679993 
L 112.628553 38.254135 
L 112.714785 38.254135 
L 112.844132 37.828277 
L 112.930363 37.828277 
L 113.05971 37.402419 
L 113.318403 37.402419 
L 113.44775 36.97656 
L 113.533981 36.97656 
L 113.663328 36.550702 
L 113.74956 36.550702 
L 113.878906 36.124844 
L 113.965138 36.124844 
L 114.094484 35.698986 
L 114.180716 35.698986 
L 114.310063 35.273128 
L 114.439409 35.273128 
L 114.568756 34.84727 
L 114.654987 34.84727 
L 114.784334 34.421412 
L 114.870566 34.421412 
L 114.999912 33.995554 
L 115.129259 33.995554 
L 115.258606 33.569696 
L 115.344837 33.569696 
L 115.474184 33.143838 
L 115.560415 33.143838 
L 115.689762 32.71798 
L 115.775994 32.71798 
L 115.90534 32.292122 
L 116.164034 32.292122 
L 116.293381 31.866264 
L 116.379612 31.866264 
L 116.508959 31.440406 
L 116.638306 31.440406 
L 116.767653 31.014548 
L 117.198809 31.014548 
L 117.328156 30.58869 
L 117.414387 30.58869 
L 117.543734 30.162831 
L 117.629965 30.162831 
L 117.759312 29.736973 
L 117.845543 29.736973 
L 117.97489 29.311115 
L 118.061121 29.311115 
L 118.190468 28.885257 
L 118.276699 28.885257 
L 118.406046 28.459399 
L 118.492277 28.459399 
L 118.621624 28.033541 
L 118.707855 28.033541 
L 118.837202 27.607683 
L 118.923434 27.607683 
L 119.05278 27.181825 
L 119.139012 27.181825 
L 119.268358 26.755967 
L 119.397705 26.755967 
L 119.527052 26.330109 
L 351.10103 26.330109 
L 351.230376 25.904251 
L 366.407074 25.904251 
L 366.53642 25.478393 
L 387.404379 25.478393 
L 387.533726 25.052535 
L 409.091534 25.052535 
L 409.091534 25.052535 
" clip-path="url(#p408d5a298a)" style="fill: none; stroke: #add8e6; stroke-width: 2; stroke-linecap: square"/>
   </g>
   <g id="line2d_34">
    <path d="M 64.209716 368.71999 
L 325.102313 368.71999 
L 325.23166 368.294132 
L 408.099875 368.294132 
L 408.229222 367.868274 
L 409.091534 367.868274 
L 409.091534 367.868274 
" clip-path="url(#p408d5a298a)" style="fill: none; stroke: #6495ed; stroke-width: 2; stroke-linecap: square"/>
   </g>
   <g id="line2d_35">
    <path d="M 64.209716 368.71999 
L 79.774454 368.71999 
L 79.9038 368.294132 
L 286.858761 368.294132 
L 286.988108 367.868274 
L 409.091534 367.868274 
L 409.091534 367.868274 
" clip-path="url(#p408d5a298a)" style="fill: none; stroke: #00008b; stroke-width: 2; stroke-linecap: square"/>
   </g>
   <g id="line2d_36">
    <path d="M 64.209716 368.71999 
L 409.091534 368.71999 
L 409.091534 368.71999 
" clip-path="url(#p408d5a298a)" style="fill: none; stroke: #2f4f4f; stroke-width: 2; stroke-linecap: square"/>
   </g>
   <g id="patch_3">
    <path d="M 46.965625 385.903363 
L 46.965625 7.869162 
" style="fill: none; stroke: #000000; stroke-width: 0.8; stroke-linejoin: miter; stroke-linecap: square"/>
   </g>
   <g id="patch_4">
    <path d="M 426.335625 385.903363 
L 426.335625 7.869162 
" style="fill: none; stroke: #000000; stroke-width: 0.8; stroke-linejoin: miter; stroke-linecap: square"/>
   </g>
   <g id="patch_5">
    <path d="M 46.965625 385.903363 
L 426.335625 385.903363 
" style="fill: none; stroke: #000000; stroke-width: 0.8; stroke-linejoin: miter; stroke-linecap: square"/>
   </g>
   <g id="patch_6">
    <path d="M 46.965625 7.869162 
L 426.335625 7.869162 
" style="fill: none; stroke: #000000; stroke-width: 0.8; stroke-linejoin: miter; stroke-linecap: square"/>
   </g>
   <g id="legend_1">
    <g id="patch_7">
     <path d="M 433.335625 89.259787 
L 558.685625 89.259787 
Q 560.685625 89.259787 560.685625 87.259787 
L 560.685625 14.869162 
Q 560.685625 12.869162 558.685625 12.869162 
L 433.335625 12.869162 
Q 431.335625 12.869162 431.335625 14.869162 
L 431.335625 87.259787 
Q 431.335625 89.259787 433.335625 89.259787 
z
" style="fill: #ffffff; opacity: 0.8; stroke: #cccccc; stroke-linejoin: miter"/>
    </g>
    <g id="text_19">
     <!-- Motifs &amp; orientation -->
     <g transform="translate(446.495 24.4676) scale(0.1 -0.1)">
      <defs>
       <path id="DejaVuSans-4d" d="M 628 4666 
L 1569 4666 
L 2759 1491 
L 3956 4666 
L 4897 4666 
L 4897 0 
L 4281 0 
L 4281 4097 
L 3078 897 
L 2444 897 
L 1241 4097 
L 1241 0 
L 628 0 
L 628 4666 
z
" transform="scale(0.015625)"/>
       <path id="DejaVuSans-26" d="M 1556 2509 
Q 1272 2256 1139 2004 
Q 1006 1753 1006 1478 
Q 1006 1022 1337 719 
Q 1669 416 2169 416 
Q 2466 416 2725 514 
Q 2984 613 3213 813 
L 1556 2509 
z
M 1997 2859 
L 3584 1234 
Q 3769 1513 3872 1830 
Q 3975 2147 3994 2503 
L 4575 2503 
Q 4538 2091 4375 1687 
Q 4213 1284 3922 891 
L 4794 0 
L 4006 0 
L 3559 459 
Q 3234 181 2878 45 
Q 2522 -91 2113 -91 
Q 1359 -91 881 339 
Q 403 769 403 1441 
Q 403 1841 612 2192 
Q 822 2544 1241 2853 
Q 1091 3050 1012 3245 
Q 934 3441 934 3628 
Q 934 4134 1281 4442 
Q 1628 4750 2203 4750 
Q 2463 4750 2720 4694 
Q 2978 4638 3244 4525 
L 3244 3956 
Q 2972 4103 2725 4179 
Q 2478 4256 2266 4256 
Q 1938 4256 1733 4082 
Q 1528 3909 1528 3634 
Q 1528 3475 1620 3314 
Q 1713 3153 1997 2859 
z
" transform="scale(0.015625)"/>
      </defs>
      <use xlink:href="#DejaVuSans-4d"/>
      <use xlink:href="#DejaVuSans-6f" transform="translate(86.279297 0)"/>
      <use xlink:href="#DejaVuSans-74" transform="translate(147.460938 0)"/>
      <use xlink:href="#DejaVuSans-69" transform="translate(186.669922 0)"/>
      <use xlink:href="#DejaVuSans-66" transform="translate(214.453125 0)"/>
      <use xlink:href="#DejaVuSans-73" transform="translate(249.658203 0)"/>
      <use xlink:href="#DejaVuSans-20" transform="translate(301.757812 0)"/>
      <use xlink:href="#DejaVuSans-26" transform="translate(333.544922 0)"/>
      <use xlink:href="#DejaVuSans-20" transform="translate(411.523438 0)"/>
      <use xlink:href="#DejaVuSans-6f" transform="translate(443.310547 0)"/>
      <use xlink:href="#DejaVuSans-72" transform="translate(504.492188 0)"/>
      <use xlink:href="#DejaVuSans-69" transform="translate(545.605469 0)"/>
      <use xlink:href="#DejaVuSans-65" transform="translate(573.388672 0)"/>
      <use xlink:href="#DejaVuSans-6e" transform="translate(634.912109 0)"/>
      <use xlink:href="#DejaVuSans-74" transform="translate(698.291016 0)"/>
      <use xlink:href="#DejaVuSans-61" transform="translate(737.5 0)"/>
      <use xlink:href="#DejaVuSans-74" transform="translate(798.779297 0)"/>
      <use xlink:href="#DejaVuSans-69" transform="translate(837.988281 0)"/>
      <use xlink:href="#DejaVuSans-6f" transform="translate(865.771484 0)"/>
      <use xlink:href="#DejaVuSans-6e" transform="translate(926.953125 0)"/>
     </g>
    </g>
    <g id="line2d_37">
     <path d="M 435.335625 35.645725 
L 445.335625 35.645725 
L 455.335625 35.645725 
" style="fill: none; stroke: #add8e6; stroke-width: 2; stroke-linecap: square"/>
    </g>
    <g id="text_20">
     <!-- CCTAA (5' end) -->
     <g transform="translate(463.335625 39.145725) scale(0.1 -0.1)">
      <defs>
       <path id="DejaVuSans-43" d="M 4122 4306 
L 4122 3641 
Q 3803 3938 3442 4084 
Q 3081 4231 2675 4231 
Q 1875 4231 1450 3742 
Q 1025 3253 1025 2328 
Q 1025 1406 1450 917 
Q 1875 428 2675 428 
Q 3081 428 3442 575 
Q 3803 722 4122 1019 
L 4122 359 
Q 3791 134 3420 21 
Q 3050 -91 2638 -91 
Q 1578 -91 968 557 
Q 359 1206 359 2328 
Q 359 3453 968 4101 
Q 1578 4750 2638 4750 
Q 3056 4750 3426 4639 
Q 3797 4528 4122 4306 
z
" transform="scale(0.015625)"/>
       <path id="DejaVuSans-54" d="M -19 4666 
L 3928 4666 
L 3928 4134 
L 2272 4134 
L 2272 0 
L 1638 0 
L 1638 4134 
L -19 4134 
L -19 4666 
z
" transform="scale(0.015625)"/>
       <path id="DejaVuSans-28" d="M 1984 4856 
Q 1566 4138 1362 3434 
Q 1159 2731 1159 2009 
Q 1159 1288 1364 580 
Q 1569 -128 1984 -844 
L 1484 -844 
Q 1016 -109 783 600 
Q 550 1309 550 2009 
Q 550 2706 781 3412 
Q 1013 4119 1484 4856 
L 1984 4856 
z
" transform="scale(0.015625)"/>
       <path id="DejaVuSans-27" d="M 1147 4666 
L 1147 2931 
L 616 2931 
L 616 4666 
L 1147 4666 
z
" transform="scale(0.015625)"/>
       <path id="DejaVuSans-64" d="M 2906 2969 
L 2906 4863 
L 3481 4863 
L 3481 0 
L 2906 0 
L 2906 525 
Q 2725 213 2448 61 
Q 2172 -91 1784 -91 
Q 1150 -91 751 415 
Q 353 922 353 1747 
Q 353 2572 751 3078 
Q 1150 3584 1784 3584 
Q 2172 3584 2448 3432 
Q 2725 3281 2906 2969 
z
M 947 1747 
Q 947 1113 1208 752 
Q 1469 391 1925 391 
Q 2381 391 2643 752 
Q 2906 1113 2906 1747 
Q 2906 2381 2643 2742 
Q 2381 3103 1925 3103 
Q 1469 3103 1208 2742 
Q 947 2381 947 1747 
z
" transform="scale(0.015625)"/>
       <path id="DejaVuSans-29" d="M 513 4856 
L 1013 4856 
Q 1481 4119 1714 3412 
Q 1947 2706 1947 2009 
Q 1947 1309 1714 600 
Q 1481 -109 1013 -844 
L 513 -844 
Q 928 -128 1133 580 
Q 1338 1288 1338 2009 
Q 1338 2731 1133 3434 
Q 928 4138 513 4856 
z
" transform="scale(0.015625)"/>
      </defs>
      <use xlink:href="#DejaVuSans-43"/>
      <use xlink:href="#DejaVuSans-43" transform="translate(69.824219 0)"/>
      <use xlink:href="#DejaVuSans-54" transform="translate(139.648438 0)"/>
      <use xlink:href="#DejaVuSans-41" transform="translate(192.982422 0)"/>
      <use xlink:href="#DejaVuSans-41" transform="translate(264.140625 0)"/>
      <use xlink:href="#DejaVuSans-20" transform="translate(332.548828 0)"/>
      <use xlink:href="#DejaVuSans-28" transform="translate(364.335938 0)"/>
      <use xlink:href="#DejaVuSans-35" transform="translate(403.349609 0)"/>
      <use xlink:href="#DejaVuSans-27" transform="translate(466.972656 0)"/>
      <use xlink:href="#DejaVuSans-20" transform="translate(494.462891 0)"/>
      <use xlink:href="#DejaVuSans-65" transform="translate(526.25 0)"/>
      <use xlink:href="#DejaVuSans-6e" transform="translate(587.773438 0)"/>
      <use xlink:href="#DejaVuSans-64" transform="translate(651.152344 0)"/>
      <use xlink:href="#DejaVuSans-29" transform="translate(714.628906 0)"/>
     </g>
    </g>
    <g id="line2d_38">
     <path d="M 435.335625 50.32385 
L 445.335625 50.32385 
L 455.335625 50.32385 
" style="fill: none; stroke: #6495ed; stroke-width: 2; stroke-linecap: square"/>
    </g>
    <g id="text_21">
     <!-- CAATAA (5' end) -->
     <g transform="translate(463.335625 53.82385) scale(0.1 -0.1)">
      <use xlink:href="#DejaVuSans-43"/>
      <use xlink:href="#DejaVuSans-41" transform="translate(69.824219 0)"/>
      <use xlink:href="#DejaVuSans-41" transform="translate(140.982422 0)"/>
      <use xlink:href="#DejaVuSans-54" transform="translate(201.640625 0)"/>
      <use xlink:href="#DejaVuSans-41" transform="translate(254.974609 0)"/>
      <use xlink:href="#DejaVuSans-41" transform="translate(326.132812 0)"/>
      <use xlink:href="#DejaVuSans-20" transform="translate(394.541016 0)"/>
      <use xlink:href="#DejaVuSans-28" transform="translate(426.328125 0)"/>
      <use xlink:href="#DejaVuSans-35" transform="translate(465.341797 0)"/>
      <use xlink:href="#DejaVuSans-27" transform="translate(528.964844 0)"/>
      <use xlink:href="#DejaVuSans-20" transform="translate(556.455078 0)"/>
      <use xlink:href="#DejaVuSans-65" transform="translate(588.242188 0)"/>
      <use xlink:href="#DejaVuSans-6e" transform="translate(649.765625 0)"/>
      <use xlink:href="#DejaVuSans-64" transform="translate(713.144531 0)"/>
      <use xlink:href="#DejaVuSans-29" transform="translate(776.621094 0)"/>
     </g>
    </g>
    <g id="line2d_39">
     <path d="M 435.335625 65.001975 
L 445.335625 65.001975 
L 455.335625 65.001975 
" style="fill: none; stroke: #00008b; stroke-width: 2; stroke-linecap: square"/>
    </g>
    <g id="text_22">
     <!-- CTGAAA (5' end) -->
     <g transform="translate(463.335625 68.501975) scale(0.1 -0.1)">
      <defs>
       <path id="DejaVuSans-47" d="M 3809 666 
L 3809 1919 
L 2778 1919 
L 2778 2438 
L 4434 2438 
L 4434 434 
Q 4069 175 3628 42 
Q 3188 -91 2688 -91 
Q 1594 -91 976 548 
Q 359 1188 359 2328 
Q 359 3472 976 4111 
Q 1594 4750 2688 4750 
Q 3144 4750 3555 4637 
Q 3966 4525 4313 4306 
L 4313 3634 
Q 3963 3931 3569 4081 
Q 3175 4231 2741 4231 
Q 1884 4231 1454 3753 
Q 1025 3275 1025 2328 
Q 1025 1384 1454 906 
Q 1884 428 2741 428 
Q 3075 428 3337 486 
Q 3600 544 3809 666 
z
" transform="scale(0.015625)"/>
      </defs>
      <use xlink:href="#DejaVuSans-43"/>
      <use xlink:href="#DejaVuSans-54" transform="translate(69.824219 0)"/>
      <use xlink:href="#DejaVuSans-47" transform="translate(130.908203 0)"/>
      <use xlink:href="#DejaVuSans-41" transform="translate(208.398438 0)"/>
      <use xlink:href="#DejaVuSans-41" transform="translate(279.556641 0)"/>
      <use xlink:href="#DejaVuSans-41" transform="translate(350.714844 0)"/>
      <use xlink:href="#DejaVuSans-20" transform="translate(419.123047 0)"/>
      <use xlink:href="#DejaVuSans-28" transform="translate(450.910156 0)"/>
      <use xlink:href="#DejaVuSans-35" transform="translate(489.923828 0)"/>
      <use xlink:href="#DejaVuSans-27" transform="translate(553.546875 0)"/>
      <use xlink:href="#DejaVuSans-20" transform="translate(581.037109 0)"/>
      <use xlink:href="#DejaVuSans-65" transform="translate(612.824219 0)"/>
      <use xlink:href="#DejaVuSans-6e" transform="translate(674.347656 0)"/>
      <use xlink:href="#DejaVuSans-64" transform="translate(737.726562 0)"/>
      <use xlink:href="#DejaVuSans-29" transform="translate(801.203125 0)"/>
     </g>
    </g>
    <g id="line2d_40">
     <path d="M 435.335625 79.6801 
L 445.335625 79.6801 
L 455.335625 79.6801 
" style="fill: none; stroke: #2f4f4f; stroke-width: 2; stroke-linecap: square"/>
    </g>
    <g id="text_23">
     <!-- CTTTTCAA (5' end) -->
     <g transform="translate(463.335625 83.1801) scale(0.1 -0.1)">
      <use xlink:href="#DejaVuSans-43"/>
      <use xlink:href="#DejaVuSans-54" transform="translate(69.824219 0)"/>
      <use xlink:href="#DejaVuSans-54" transform="translate(129.158203 0)"/>
      <use xlink:href="#DejaVuSans-54" transform="translate(188.492188 0)"/>
      <use xlink:href="#DejaVuSans-54" transform="translate(247.826172 0)"/>
      <use xlink:href="#DejaVuSans-43" transform="translate(303.035156 0)"/>
      <use xlink:href="#DejaVuSans-41" transform="translate(372.859375 0)"/>
      <use xlink:href="#DejaVuSans-41" transform="translate(444.017578 0)"/>
      <use xlink:href="#DejaVuSans-20" transform="translate(512.425781 0)"/>
      <use xlink:href="#DejaVuSans-28" transform="translate(544.212891 0)"/>
      <use xlink:href="#DejaVuSans-35" transform="translate(583.226562 0)"/>
      <use xlink:href="#DejaVuSans-27" transform="translate(646.849609 0)"/>
      <use xlink:href="#DejaVuSans-20" transform="translate(674.339844 0)"/>
      <use xlink:href="#DejaVuSans-65" transform="translate(706.126953 0)"/>
      <use xlink:href="#DejaVuSans-6e" transform="translate(767.650391 0)"/>
      <use xlink:href="#DejaVuSans-64" transform="translate(831.029297 0)"/>
      <use xlink:href="#DejaVuSans-29" transform="translate(894.505859 0)"/>
     </g>
    </g>
   </g>
  </g>
 </g>
 <defs>
  <clipPath id="p408d5a298a">
   <rect x="46.965625" y="7.869162" width="379.37" height="378.034201"/>
  </clipPath>
 </defs>
</svg>
