<?xml version="1.0" encoding="utf-8" standalone="no"?>
<!DOCTYPE svg PUBLIC "-//W3C//DTD SVG 1.1//EN"
  "http://www.w3.org/Graphics/SVG/1.1/DTD/svg11.dtd">
<svg xmlns:xlink="http://www.w3.org/1999/xlink" width="568.145pt" height="423.822724pt" viewBox="0 0 568.145 423.822724" xmlns="http://www.w3.org/2000/svg" version="1.1">
 <metadata>
  <rdf:RDF xmlns:dc="http://purl.org/dc/elements/1.1/" xmlns:cc="http://creativecommons.org/ns#" xmlns:rdf="http://www.w3.org/1999/02/22-rdf-syntax-ns#">
   <cc:Work>
    <dc:type rdf:resource="http://purl.org/dc/dcmitype/StillImage"/>
    <dc:date>2026-04-30T15:17:45.062947</dc:date>
    <dc:format>image/svg+xml</dc:format>
    <dc:creator>
     <cc:Agent>
      <dc:title>Matplotlib v3.10.6, https://matplotlib.org/</dc:title>
     </cc:Agent>
    </dc:creator>
   </cc:Work>
  </rdf:RDF>
 </metadata>
 <defs>
  <style type="text/css">*{stroke-linejoin: round; stroke-linecap: butt}</style>
 </defs>
 <g id="figure_1">
  <g id="patch_1">
   <path d="M 0 423.822724 
L 568.145 423.822724 
L 568.145 0 
L 0 0 
z
" style="fill: #ffffff"/>
  </g>
  <g id="axes_1">
   <g id="patch_2">
    <path d="M 46.965625 386.266474 
L 422.285625 386.266474 
L 422.285625 10.88728 
L 46.965625 10.88728 
z
" style="fill: #ffffff"/>
   </g>
   <g id="matplotlib.axis_1">
    <g id="xtick_1">
     <g id="line2d_1">
      <path d="M 63.98297 386.266474 
L 63.98297 10.88728 
" clip-path="url(#p4c8b8acb6d)" style="fill: none; stroke-dasharray: 2.96,1.28; stroke-dashoffset: 0; stroke: #b0b0b0; stroke-opacity: 0.6; stroke-width: 0.8"/>
     </g>
     <g id="line2d_2">
      <defs>
       <path id="mf6eb87c4b3" d="M 0 0 
L 0 3.5 
" style="stroke: #000000; stroke-width: 0.8"/>
      </defs>
      <g>
       <use xlink:href="#mf6eb87c4b3" x="63.98297" y="386.266474" style="stroke: #000000; stroke-width: 0.8"/>
      </g>
     </g>
     <g id="text_1">
      <!-- 0 -->
      <g transform="translate(60.80172 400.864911) scale(0.1 -0.1)">
       <defs>
        <path id="DejaVuSans-30" d="M 2034 4250 
Q 1547 4250 1301 3770 
Q 1056 3291 1056 2328 
Q 1056 1369 1301 889 
Q 1547 409 2034 409 
Q 2525 409 2770 889 
Q 3016 1369 3016 2328 
Q 3016 3291 2770 3770 
Q 2525 4250 2034 4250 
z
M 2034 4750 
Q 2819 4750 3233 4129 
Q 3647 3509 3647 2328 
Q 3647 1150 3233 529 
Q 2819 -91 2034 -91 
Q 1250 -91 836 529 
Q 422 1150 422 2328 
Q 422 3509 836 4129 
Q 1250 4750 2034 4750 
z
" transform="scale(0.015625)"/>
       </defs>
       <use xlink:href="#DejaVuSans-30"/>
      </g>
     </g>
    </g>
    <g id="xtick_2">
     <g id="line2d_3">
      <path d="M 106.638302 386.266474 
L 106.638302 10.88728 
" clip-path="url(#p4c8b8acb6d)" style="fill: none; stroke-dasharray: 2.96,1.28; stroke-dashoffset: 0; stroke: #b0b0b0; stroke-opacity: 0.6; stroke-width: 0.8"/>
     </g>
     <g id="line2d_4">
      <g>
       <use xlink:href="#mf6eb87c4b3" x="106.638302" y="386.266474" style="stroke: #000000; stroke-width: 0.8"/>
      </g>
     </g>
     <g id="text_2">
      <!-- 1000 -->
      <g transform="translate(93.913302 400.864911) scale(0.1 -0.1)">
       <defs>
        <path id="DejaVuSans-31" d="M 794 531 
L 1825 531 
L 1825 4091 
L 703 3866 
L 703 4441 
L 1819 4666 
L 2450 4666 
L 2450 531 
L 3481 531 
L 3481 0 
L 794 0 
L 794 531 
z
" transform="scale(0.015625)"/>
       </defs>
       <use xlink:href="#DejaVuSans-31"/>
       <use xlink:href="#DejaVuSans-30" transform="translate(63.623047 0)"/>
       <use xlink:href="#DejaVuSans-30" transform="translate(127.246094 0)"/>
       <use xlink:href="#DejaVuSans-30" transform="translate(190.869141 0)"/>
      </g>
     </g>
    </g>
    <g id="xtick_3">
     <g id="line2d_5">
      <path d="M 149.293634 386.266474 
L 149.293634 10.88728 
" clip-path="url(#p4c8b8acb6d)" style="fill: none; stroke-dasharray: 2.96,1.28; stroke-dashoffset: 0; stroke: #b0b0b0; stroke-opacity: 0.6; stroke-width: 0.8"/>
     </g>
     <g id="line2d_6">
      <g>
       <use xlink:href="#mf6eb87c4b3" x="149.293634" y="386.266474" style="stroke: #000000; stroke-width: 0.8"/>
      </g>
     </g>
     <g id="text_3">
      <!-- 2000 -->
      <g transform="translate(136.568634 400.864911) scale(0.1 -0.1)">
       <defs>
        <path id="DejaVuSans-32" d="M 1228 531 
L 3431 531 
L 3431 0 
L 469 0 
L 469 531 
Q 828 903 1448 1529 
Q 2069 2156 2228 2338 
Q 2531 2678 2651 2914 
Q 2772 3150 2772 3378 
Q 2772 3750 2511 3984 
Q 2250 4219 1831 4219 
Q 1534 4219 1204 4116 
Q 875 4013 500 3803 
L 500 4441 
Q 881 4594 1212 4672 
Q 1544 4750 1819 4750 
Q 2544 4750 2975 4387 
Q 3406 4025 3406 3419 
Q 3406 3131 3298 2873 
Q 3191 2616 2906 2266 
Q 2828 2175 2409 1742 
Q 1991 1309 1228 531 
z
" transform="scale(0.015625)"/>
       </defs>
       <use xlink:href="#DejaVuSans-32"/>
       <use xlink:href="#DejaVuSans-30" transform="translate(63.623047 0)"/>
       <use xlink:href="#DejaVuSans-30" transform="translate(127.246094 0)"/>
       <use xlink:href="#DejaVuSans-30" transform="translate(190.869141 0)"/>
      </g>
     </g>
    </g>
    <g id="xtick_4">
     <g id="line2d_7">
      <path d="M 191.948965 386.266474 
L 191.948965 10.88728 
" clip-path="url(#p4c8b8acb6d)" style="fill: none; stroke-dasharray: 2.96,1.28; stroke-dashoffset: 0; stroke: #b0b0b0; stroke-opacity: 0.6; stroke-width: 0.8"/>
     </g>
     <g id="line2d_8">
      <g>
       <use xlink:href="#mf6eb87c4b3" x="191.948965" y="386.266474" style="stroke: #000000; stroke-width: 0.8"/>
      </g>
     </g>
     <g id="text_4">
      <!-- 3000 -->
      <g transform="translate(179.223965 400.864911) scale(0.1 -0.1)">
       <defs>
        <path id="DejaVuSans-33" d="M 2597 2516 
Q 3050 2419 3304 2112 
Q 3559 1806 3559 1356 
Q 3559 666 3084 287 
Q 2609 -91 1734 -91 
Q 1441 -91 1130 -33 
Q 819 25 488 141 
L 488 750 
Q 750 597 1062 519 
Q 1375 441 1716 441 
Q 2309 441 2620 675 
Q 2931 909 2931 1356 
Q 2931 1769 2642 2001 
Q 2353 2234 1838 2234 
L 1294 2234 
L 1294 2753 
L 1863 2753 
Q 2328 2753 2575 2939 
Q 2822 3125 2822 3475 
Q 2822 3834 2567 4026 
Q 2313 4219 1838 4219 
Q 1578 4219 1281 4162 
Q 984 4106 628 3988 
L 628 4550 
Q 988 4650 1302 4700 
Q 1616 4750 1894 4750 
Q 2613 4750 3031 4423 
Q 3450 4097 3450 3541 
Q 3450 3153 3228 2886 
Q 3006 2619 2597 2516 
z
" transform="scale(0.015625)"/>
       </defs>
       <use xlink:href="#DejaVuSans-33"/>
       <use xlink:href="#DejaVuSans-30" transform="translate(63.623047 0)"/>
       <use xlink:href="#DejaVuSans-30" transform="translate(127.246094 0)"/>
       <use xlink:href="#DejaVuSans-30" transform="translate(190.869141 0)"/>
      </g>
     </g>
    </g>
    <g id="xtick_5">
     <g id="line2d_9">
      <path d="M 234.604297 386.266474 
L 234.604297 10.88728 
" clip-path="url(#p4c8b8acb6d)" style="fill: none; stroke-dasharray: 2.96,1.28; stroke-dashoffset: 0; stroke: #b0b0b0; stroke-opacity: 0.6; stroke-width: 0.8"/>
     </g>
     <g id="line2d_10">
      <g>
       <use xlink:href="#mf6eb87c4b3" x="234.604297" y="386.266474" style="stroke: #000000; stroke-width: 0.8"/>
      </g>
     </g>
     <g id="text_5">
      <!-- 4000 -->
      <g transform="translate(221.879297 400.864911) scale(0.1 -0.1)">
       <defs>
        <path id="DejaVuSans-34" d="M 2419 4116 
L 825 1625 
L 2419 1625 
L 2419 4116 
z
M 2253 4666 
L 3047 4666 
L 3047 1625 
L 3713 1625 
L 3713 1100 
L 3047 1100 
L 3047 0 
L 2419 0 
L 2419 1100 
L 313 1100 
L 313 1709 
L 2253 4666 
z
" transform="scale(0.015625)"/>
       </defs>
       <use xlink:href="#DejaVuSans-34"/>
       <use xlink:href="#DejaVuSans-30" transform="translate(63.623047 0)"/>
       <use xlink:href="#DejaVuSans-30" transform="translate(127.246094 0)"/>
       <use xlink:href="#DejaVuSans-30" transform="translate(190.869141 0)"/>
      </g>
     </g>
    </g>
    <g id="xtick_6">
     <g id="line2d_11">
      <path d="M 277.259629 386.266474 
L 277.259629 10.88728 
" clip-path="url(#p4c8b8acb6d)" style="fill: none; stroke-dasharray: 2.96,1.28; stroke-dashoffset: 0; stroke: #b0b0b0; stroke-opacity: 0.6; stroke-width: 0.8"/>
     </g>
     <g id="line2d_12">
      <g>
       <use xlink:href="#mf6eb87c4b3" x="277.259629" y="386.266474" style="stroke: #000000; stroke-width: 0.8"/>
      </g>
     </g>
     <g id="text_6">
      <!-- 5000 -->
      <g transform="translate(264.534629 400.864911) scale(0.1 -0.1)">
       <defs>
        <path id="DejaVuSans-35" d="M 691 4666 
L 3169 4666 
L 3169 4134 
L 1269 4134 
L 1269 2991 
Q 1406 3038 1543 3061 
Q 1681 3084 1819 3084 
Q 2600 3084 3056 2656 
Q 3513 2228 3513 1497 
Q 3513 744 3044 326 
Q 2575 -91 1722 -91 
Q 1428 -91 1123 -41 
Q 819 9 494 109 
L 494 744 
Q 775 591 1075 516 
Q 1375 441 1709 441 
Q 2250 441 2565 725 
Q 2881 1009 2881 1497 
Q 2881 1984 2565 2268 
Q 2250 2553 1709 2553 
Q 1456 2553 1204 2497 
Q 953 2441 691 2322 
L 691 4666 
z
" transform="scale(0.015625)"/>
       </defs>
       <use xlink:href="#DejaVuSans-35"/>
       <use xlink:href="#DejaVuSans-30" transform="translate(63.623047 0)"/>
       <use xlink:href="#DejaVuSans-30" transform="translate(127.246094 0)"/>
       <use xlink:href="#DejaVuSans-30" transform="translate(190.869141 0)"/>
      </g>
     </g>
    </g>
    <g id="xtick_7">
     <g id="line2d_13">
      <path d="M 319.914961 386.266474 
L 319.914961 10.88728 
" clip-path="url(#p4c8b8acb6d)" style="fill: none; stroke-dasharray: 2.96,1.28; stroke-dashoffset: 0; stroke: #b0b0b0; stroke-opacity: 0.6; stroke-width: 0.8"/>
     </g>
     <g id="line2d_14">
      <g>
       <use xlink:href="#mf6eb87c4b3" x="319.914961" y="386.266474" style="stroke: #000000; stroke-width: 0.8"/>
      </g>
     </g>
     <g id="text_7">
      <!-- 6000 -->
      <g transform="translate(307.189961 400.864911) scale(0.1 -0.1)">
       <defs>
        <path id="DejaVuSans-36" d="M 2113 2584 
Q 1688 2584 1439 2293 
Q 1191 2003 1191 1497 
Q 1191 994 1439 701 
Q 1688 409 2113 409 
Q 2538 409 2786 701 
Q 3034 994 3034 1497 
Q 3034 2003 2786 2293 
Q 2538 2584 2113 2584 
z
M 3366 4563 
L 3366 3988 
Q 3128 4100 2886 4159 
Q 2644 4219 2406 4219 
Q 1781 4219 1451 3797 
Q 1122 3375 1075 2522 
Q 1259 2794 1537 2939 
Q 1816 3084 2150 3084 
Q 2853 3084 3261 2657 
Q 3669 2231 3669 1497 
Q 3669 778 3244 343 
Q 2819 -91 2113 -91 
Q 1303 -91 875 529 
Q 447 1150 447 2328 
Q 447 3434 972 4092 
Q 1497 4750 2381 4750 
Q 2619 4750 2861 4703 
Q 3103 4656 3366 4563 
z
" transform="scale(0.015625)"/>
       </defs>
       <use xlink:href="#DejaVuSans-36"/>
       <use xlink:href="#DejaVuSans-30" transform="translate(63.623047 0)"/>
       <use xlink:href="#DejaVuSans-30" transform="translate(127.246094 0)"/>
       <use xlink:href="#DejaVuSans-30" transform="translate(190.869141 0)"/>
      </g>
     </g>
    </g>
    <g id="xtick_8">
     <g id="line2d_15">
      <path d="M 362.570293 386.266474 
L 362.570293 10.88728 
" clip-path="url(#p4c8b8acb6d)" style="fill: none; stroke-dasharray: 2.96,1.28; stroke-dashoffset: 0; stroke: #b0b0b0; stroke-opacity: 0.6; stroke-width: 0.8"/>
     </g>
     <g id="line2d_16">
      <g>
       <use xlink:href="#mf6eb87c4b3" x="362.570293" y="386.266474" style="stroke: #000000; stroke-width: 0.8"/>
      </g>
     </g>
     <g id="text_8">
      <!-- 7000 -->
      <g transform="translate(349.845293 400.864911) scale(0.1 -0.1)">
       <defs>
        <path id="DejaVuSans-37" d="M 525 4666 
L 3525 4666 
L 3525 4397 
L 1831 0 
L 1172 0 
L 2766 4134 
L 525 4134 
L 525 4666 
z
" transform="scale(0.015625)"/>
       </defs>
       <use xlink:href="#DejaVuSans-37"/>
       <use xlink:href="#DejaVuSans-30" transform="translate(63.623047 0)"/>
       <use xlink:href="#DejaVuSans-30" transform="translate(127.246094 0)"/>
       <use xlink:href="#DejaVuSans-30" transform="translate(190.869141 0)"/>
      </g>
     </g>
    </g>
    <g id="xtick_9">
     <g id="line2d_17">
      <path d="M 405.225625 386.266474 
L 405.225625 10.88728 
" clip-path="url(#p4c8b8acb6d)" style="fill: none; stroke-dasharray: 2.96,1.28; stroke-dashoffset: 0; stroke: #b0b0b0; stroke-opacity: 0.6; stroke-width: 0.8"/>
     </g>
     <g id="line2d_18">
      <g>
       <use xlink:href="#mf6eb87c4b3" x="405.225625" y="386.266474" style="stroke: #000000; stroke-width: 0.8"/>
      </g>
     </g>
     <g id="text_9">
      <!-- 8000 -->
      <g transform="translate(392.500625 400.864911) scale(0.1 -0.1)">
       <defs>
        <path id="DejaVuSans-38" d="M 2034 2216 
Q 1584 2216 1326 1975 
Q 1069 1734 1069 1313 
Q 1069 891 1326 650 
Q 1584 409 2034 409 
Q 2484 409 2743 651 
Q 3003 894 3003 1313 
Q 3003 1734 2745 1975 
Q 2488 2216 2034 2216 
z
M 1403 2484 
Q 997 2584 770 2862 
Q 544 3141 544 3541 
Q 544 4100 942 4425 
Q 1341 4750 2034 4750 
Q 2731 4750 3128 4425 
Q 3525 4100 3525 3541 
Q 3525 3141 3298 2862 
Q 3072 2584 2669 2484 
Q 3125 2378 3379 2068 
Q 3634 1759 3634 1313 
Q 3634 634 3220 271 
Q 2806 -91 2034 -91 
Q 1263 -91 848 271 
Q 434 634 434 1313 
Q 434 1759 690 2068 
Q 947 2378 1403 2484 
z
M 1172 3481 
Q 1172 3119 1398 2916 
Q 1625 2713 2034 2713 
Q 2441 2713 2670 2916 
Q 2900 3119 2900 3481 
Q 2900 3844 2670 4047 
Q 2441 4250 2034 4250 
Q 1625 4250 1398 4047 
Q 1172 3844 1172 3481 
z
" transform="scale(0.015625)"/>
       </defs>
       <use xlink:href="#DejaVuSans-38"/>
       <use xlink:href="#DejaVuSans-30" transform="translate(63.623047 0)"/>
       <use xlink:href="#DejaVuSans-30" transform="translate(127.246094 0)"/>
       <use xlink:href="#DejaVuSans-30" transform="translate(190.869141 0)"/>
      </g>
     </g>
    </g>
    <g id="text_10">
     <!-- Distance from terminus [nt] -->
     <g transform="translate(165.126406 414.543036) scale(0.1 -0.1)">
      <defs>
       <path id="DejaVuSans-44" d="M 1259 4147 
L 1259 519 
L 2022 519 
Q 2988 519 3436 956 
Q 3884 1394 3884 2338 
Q 3884 3275 3436 3711 
Q 2988 4147 2022 4147 
L 1259 4147 
z
M 628 4666 
L 1925 4666 
Q 3281 4666 3915 4102 
Q 4550 3538 4550 2338 
Q 4550 1131 3912 565 
Q 3275 0 1925 0 
L 628 0 
L 628 4666 
z
" transform="scale(0.015625)"/>
       <path id="DejaVuSans-69" d="M 603 3500 
L 1178 3500 
L 1178 0 
L 603 0 
L 603 3500 
z
M 603 4863 
L 1178 4863 
L 1178 4134 
L 603 4134 
L 603 4863 
z
" transform="scale(0.015625)"/>
       <path id="DejaVuSans-73" d="M 2834 3397 
L 2834 2853 
Q 2591 2978 2328 3040 
Q 2066 3103 1784 3103 
Q 1356 3103 1142 2972 
Q 928 2841 928 2578 
Q 928 2378 1081 2264 
Q 1234 2150 1697 2047 
L 1894 2003 
Q 2506 1872 2764 1633 
Q 3022 1394 3022 966 
Q 3022 478 2636 193 
Q 2250 -91 1575 -91 
Q 1294 -91 989 -36 
Q 684 19 347 128 
L 347 722 
Q 666 556 975 473 
Q 1284 391 1588 391 
Q 1994 391 2212 530 
Q 2431 669 2431 922 
Q 2431 1156 2273 1281 
Q 2116 1406 1581 1522 
L 1381 1569 
Q 847 1681 609 1914 
Q 372 2147 372 2553 
Q 372 3047 722 3315 
Q 1072 3584 1716 3584 
Q 2034 3584 2315 3537 
Q 2597 3491 2834 3397 
z
" transform="scale(0.015625)"/>
       <path id="DejaVuSans-74" d="M 1172 4494 
L 1172 3500 
L 2356 3500 
L 2356 3053 
L 1172 3053 
L 1172 1153 
Q 1172 725 1289 603 
Q 1406 481 1766 481 
L 2356 481 
L 2356 0 
L 1766 0 
Q 1100 0 847 248 
Q 594 497 594 1153 
L 594 3053 
L 172 3053 
L 172 3500 
L 594 3500 
L 594 4494 
L 1172 4494 
z
" transform="scale(0.015625)"/>
       <path id="DejaVuSans-61" d="M 2194 1759 
Q 1497 1759 1228 1600 
Q 959 1441 959 1056 
Q 959 750 1161 570 
Q 1363 391 1709 391 
Q 2188 391 2477 730 
Q 2766 1069 2766 1631 
L 2766 1759 
L 2194 1759 
z
M 3341 1997 
L 3341 0 
L 2766 0 
L 2766 531 
Q 2569 213 2275 61 
Q 1981 -91 1556 -91 
Q 1019 -91 701 211 
Q 384 513 384 1019 
Q 384 1609 779 1909 
Q 1175 2209 1959 2209 
L 2766 2209 
L 2766 2266 
Q 2766 2663 2505 2880 
Q 2244 3097 1772 3097 
Q 1472 3097 1187 3025 
Q 903 2953 641 2809 
L 641 3341 
Q 956 3463 1253 3523 
Q 1550 3584 1831 3584 
Q 2591 3584 2966 3190 
Q 3341 2797 3341 1997 
z
" transform="scale(0.015625)"/>
       <path id="DejaVuSans-6e" d="M 3513 2113 
L 3513 0 
L 2938 0 
L 2938 2094 
Q 2938 2591 2744 2837 
Q 2550 3084 2163 3084 
Q 1697 3084 1428 2787 
Q 1159 2491 1159 1978 
L 1159 0 
L 581 0 
L 581 3500 
L 1159 3500 
L 1159 2956 
Q 1366 3272 1645 3428 
Q 1925 3584 2291 3584 
Q 2894 3584 3203 3211 
Q 3513 2838 3513 2113 
z
" transform="scale(0.015625)"/>
       <path id="DejaVuSans-63" d="M 3122 3366 
L 3122 2828 
Q 2878 2963 2633 3030 
Q 2388 3097 2138 3097 
Q 1578 3097 1268 2742 
Q 959 2388 959 1747 
Q 959 1106 1268 751 
Q 1578 397 2138 397 
Q 2388 397 2633 464 
Q 2878 531 3122 666 
L 3122 134 
Q 2881 22 2623 -34 
Q 2366 -91 2075 -91 
Q 1284 -91 818 406 
Q 353 903 353 1747 
Q 353 2603 823 3093 
Q 1294 3584 2113 3584 
Q 2378 3584 2631 3529 
Q 2884 3475 3122 3366 
z
" transform="scale(0.015625)"/>
       <path id="DejaVuSans-65" d="M 3597 1894 
L 3597 1613 
L 953 1613 
Q 991 1019 1311 708 
Q 1631 397 2203 397 
Q 2534 397 2845 478 
Q 3156 559 3463 722 
L 3463 178 
Q 3153 47 2828 -22 
Q 2503 -91 2169 -91 
Q 1331 -91 842 396 
Q 353 884 353 1716 
Q 353 2575 817 3079 
Q 1281 3584 2069 3584 
Q 2775 3584 3186 3129 
Q 3597 2675 3597 1894 
z
M 3022 2063 
Q 3016 2534 2758 2815 
Q 2500 3097 2075 3097 
Q 1594 3097 1305 2825 
Q 1016 2553 972 2059 
L 3022 2063 
z
" transform="scale(0.015625)"/>
       <path id="DejaVuSans-20" transform="scale(0.015625)"/>
       <path id="DejaVuSans-66" d="M 2375 4863 
L 2375 4384 
L 1825 4384 
Q 1516 4384 1395 4259 
Q 1275 4134 1275 3809 
L 1275 3500 
L 2222 3500 
L 2222 3053 
L 1275 3053 
L 1275 0 
L 697 0 
L 697 3053 
L 147 3053 
L 147 3500 
L 697 3500 
L 697 3744 
Q 697 4328 969 4595 
Q 1241 4863 1831 4863 
L 2375 4863 
z
" transform="scale(0.015625)"/>
       <path id="DejaVuSans-72" d="M 2631 2963 
Q 2534 3019 2420 3045 
Q 2306 3072 2169 3072 
Q 1681 3072 1420 2755 
Q 1159 2438 1159 1844 
L 1159 0 
L 581 0 
L 581 3500 
L 1159 3500 
L 1159 2956 
Q 1341 3275 1631 3429 
Q 1922 3584 2338 3584 
Q 2397 3584 2469 3576 
Q 2541 3569 2628 3553 
L 2631 2963 
z
" transform="scale(0.015625)"/>
       <path id="DejaVuSans-6f" d="M 1959 3097 
Q 1497 3097 1228 2736 
Q 959 2375 959 1747 
Q 959 1119 1226 758 
Q 1494 397 1959 397 
Q 2419 397 2687 759 
Q 2956 1122 2956 1747 
Q 2956 2369 2687 2733 
Q 2419 3097 1959 3097 
z
M 1959 3584 
Q 2709 3584 3137 3096 
Q 3566 2609 3566 1747 
Q 3566 888 3137 398 
Q 2709 -91 1959 -91 
Q 1206 -91 779 398 
Q 353 888 353 1747 
Q 353 2609 779 3096 
Q 1206 3584 1959 3584 
z
" transform="scale(0.015625)"/>
       <path id="DejaVuSans-6d" d="M 3328 2828 
Q 3544 3216 3844 3400 
Q 4144 3584 4550 3584 
Q 5097 3584 5394 3201 
Q 5691 2819 5691 2113 
L 5691 0 
L 5113 0 
L 5113 2094 
Q 5113 2597 4934 2840 
Q 4756 3084 4391 3084 
Q 3944 3084 3684 2787 
Q 3425 2491 3425 1978 
L 3425 0 
L 2847 0 
L 2847 2094 
Q 2847 2600 2669 2842 
Q 2491 3084 2119 3084 
Q 1678 3084 1418 2786 
Q 1159 2488 1159 1978 
L 1159 0 
L 581 0 
L 581 3500 
L 1159 3500 
L 1159 2956 
Q 1356 3278 1631 3431 
Q 1906 3584 2284 3584 
Q 2666 3584 2933 3390 
Q 3200 3197 3328 2828 
z
" transform="scale(0.015625)"/>
       <path id="DejaVuSans-75" d="M 544 1381 
L 544 3500 
L 1119 3500 
L 1119 1403 
Q 1119 906 1312 657 
Q 1506 409 1894 409 
Q 2359 409 2629 706 
Q 2900 1003 2900 1516 
L 2900 3500 
L 3475 3500 
L 3475 0 
L 2900 0 
L 2900 538 
Q 2691 219 2414 64 
Q 2138 -91 1772 -91 
Q 1169 -91 856 284 
Q 544 659 544 1381 
z
M 1991 3584 
L 1991 3584 
z
" transform="scale(0.015625)"/>
       <path id="DejaVuSans-5b" d="M 550 4863 
L 1875 4863 
L 1875 4416 
L 1125 4416 
L 1125 -397 
L 1875 -397 
L 1875 -844 
L 550 -844 
L 550 4863 
z
" transform="scale(0.015625)"/>
       <path id="DejaVuSans-5d" d="M 1947 4863 
L 1947 -844 
L 622 -844 
L 622 -397 
L 1369 -397 
L 1369 4416 
L 622 4416 
L 622 4863 
L 1947 4863 
z
" transform="scale(0.015625)"/>
      </defs>
      <use xlink:href="#DejaVuSans-44"/>
      <use xlink:href="#DejaVuSans-69" transform="translate(77.001953 0)"/>
      <use xlink:href="#DejaVuSans-73" transform="translate(104.785156 0)"/>
      <use xlink:href="#DejaVuSans-74" transform="translate(156.884766 0)"/>
      <use xlink:href="#DejaVuSans-61" transform="translate(196.09375 0)"/>
      <use xlink:href="#DejaVuSans-6e" transform="translate(257.373047 0)"/>
      <use xlink:href="#DejaVuSans-63" transform="translate(320.751953 0)"/>
      <use xlink:href="#DejaVuSans-65" transform="translate(375.732422 0)"/>
      <use xlink:href="#DejaVuSans-20" transform="translate(437.255859 0)"/>
      <use xlink:href="#DejaVuSans-66" transform="translate(469.042969 0)"/>
      <use xlink:href="#DejaVuSans-72" transform="translate(504.248047 0)"/>
      <use xlink:href="#DejaVuSans-6f" transform="translate(543.111328 0)"/>
      <use xlink:href="#DejaVuSans-6d" transform="translate(604.292969 0)"/>
      <use xlink:href="#DejaVuSans-20" transform="translate(701.705078 0)"/>
      <use xlink:href="#DejaVuSans-74" transform="translate(733.492188 0)"/>
      <use xlink:href="#DejaVuSans-65" transform="translate(772.701172 0)"/>
      <use xlink:href="#DejaVuSans-72" transform="translate(834.224609 0)"/>
      <use xlink:href="#DejaVuSans-6d" transform="translate(873.587891 0)"/>
      <use xlink:href="#DejaVuSans-69" transform="translate(971 0)"/>
      <use xlink:href="#DejaVuSans-6e" transform="translate(998.783203 0)"/>
      <use xlink:href="#DejaVuSans-75" transform="translate(1062.162109 0)"/>
      <use xlink:href="#DejaVuSans-73" transform="translate(1125.541016 0)"/>
      <use xlink:href="#DejaVuSans-20" transform="translate(1177.640625 0)"/>
      <use xlink:href="#DejaVuSans-5b" transform="translate(1209.427734 0)"/>
      <use xlink:href="#DejaVuSans-6e" transform="translate(1248.441406 0)"/>
      <use xlink:href="#DejaVuSans-74" transform="translate(1311.820312 0)"/>
      <use xlink:href="#DejaVuSans-5d" transform="translate(1351.029297 0)"/>
     </g>
    </g>
   </g>
   <g id="matplotlib.axis_2">
    <g id="ytick_1">
     <g id="line2d_19">
      <path d="M 46.965625 369.203783 
L 422.285625 369.203783 
" clip-path="url(#p4c8b8acb6d)" style="fill: none; stroke-dasharray: 2.96,1.28; stroke-dashoffset: 0; stroke: #b0b0b0; stroke-opacity: 0.6; stroke-width: 0.8"/>
     </g>
     <g id="line2d_20">
      <defs>
       <path id="mbadd96d141" d="M 0 0 
L -3.5 0 
" style="stroke: #000000; stroke-width: 0.8"/>
      </defs>
      <g>
       <use xlink:href="#mbadd96d141" x="46.965625" y="369.203783" style="stroke: #000000; stroke-width: 0.8"/>
      </g>
     </g>
     <g id="text_11">
      <!-- 0 -->
      <g transform="translate(33.603125 373.003002) scale(0.1 -0.1)">
       <use xlink:href="#DejaVuSans-30"/>
      </g>
     </g>
    </g>
    <g id="ytick_2">
     <g id="line2d_21">
      <path d="M 46.965625 324.428213 
L 422.285625 324.428213 
" clip-path="url(#p4c8b8acb6d)" style="fill: none; stroke-dasharray: 2.96,1.28; stroke-dashoffset: 0; stroke: #b0b0b0; stroke-opacity: 0.6; stroke-width: 0.8"/>
     </g>
     <g id="line2d_22">
      <g>
       <use xlink:href="#mbadd96d141" x="46.965625" y="324.428213" style="stroke: #000000; stroke-width: 0.8"/>
      </g>
     </g>
     <g id="text_12">
      <!-- 20 -->
      <g transform="translate(27.240625 328.227431) scale(0.1 -0.1)">
       <use xlink:href="#DejaVuSans-32"/>
       <use xlink:href="#DejaVuSans-30" transform="translate(63.623047 0)"/>
      </g>
     </g>
    </g>
    <g id="ytick_3">
     <g id="line2d_23">
      <path d="M 46.965625 279.652642 
L 422.285625 279.652642 
" clip-path="url(#p4c8b8acb6d)" style="fill: none; stroke-dasharray: 2.96,1.28; stroke-dashoffset: 0; stroke: #b0b0b0; stroke-opacity: 0.6; stroke-width: 0.8"/>
     </g>
     <g id="line2d_24">
      <g>
       <use xlink:href="#mbadd96d141" x="46.965625" y="279.652642" style="stroke: #000000; stroke-width: 0.8"/>
      </g>
     </g>
     <g id="text_13">
      <!-- 40 -->
      <g transform="translate(27.240625 283.451861) scale(0.1 -0.1)">
       <use xlink:href="#DejaVuSans-34"/>
       <use xlink:href="#DejaVuSans-30" transform="translate(63.623047 0)"/>
      </g>
     </g>
    </g>
    <g id="ytick_4">
     <g id="line2d_25">
      <path d="M 46.965625 234.877072 
L 422.285625 234.877072 
" clip-path="url(#p4c8b8acb6d)" style="fill: none; stroke-dasharray: 2.96,1.28; stroke-dashoffset: 0; stroke: #b0b0b0; stroke-opacity: 0.6; stroke-width: 0.8"/>
     </g>
     <g id="line2d_26">
      <g>
       <use xlink:href="#mbadd96d141" x="46.965625" y="234.877072" style="stroke: #000000; stroke-width: 0.8"/>
      </g>
     </g>
     <g id="text_14">
      <!-- 60 -->
      <g transform="translate(27.240625 238.67629) scale(0.1 -0.1)">
       <use xlink:href="#DejaVuSans-36"/>
       <use xlink:href="#DejaVuSans-30" transform="translate(63.623047 0)"/>
      </g>
     </g>
    </g>
    <g id="ytick_5">
     <g id="line2d_27">
      <path d="M 46.965625 190.101501 
L 422.285625 190.101501 
" clip-path="url(#p4c8b8acb6d)" style="fill: none; stroke-dasharray: 2.96,1.28; stroke-dashoffset: 0; stroke: #b0b0b0; stroke-opacity: 0.6; stroke-width: 0.8"/>
     </g>
     <g id="line2d_28">
      <g>
       <use xlink:href="#mbadd96d141" x="46.965625" y="190.101501" style="stroke: #000000; stroke-width: 0.8"/>
      </g>
     </g>
     <g id="text_15">
      <!-- 80 -->
      <g transform="translate(27.240625 193.90072) scale(0.1 -0.1)">
       <use xlink:href="#DejaVuSans-38"/>
       <use xlink:href="#DejaVuSans-30" transform="translate(63.623047 0)"/>
      </g>
     </g>
    </g>
    <g id="ytick_6">
     <g id="line2d_29">
      <path d="M 46.965625 145.32593 
L 422.285625 145.32593 
" clip-path="url(#p4c8b8acb6d)" style="fill: none; stroke-dasharray: 2.96,1.28; stroke-dashoffset: 0; stroke: #b0b0b0; stroke-opacity: 0.6; stroke-width: 0.8"/>
     </g>
     <g id="line2d_30">
      <g>
       <use xlink:href="#mbadd96d141" x="46.965625" y="145.32593" style="stroke: #000000; stroke-width: 0.8"/>
      </g>
     </g>
     <g id="text_16">
      <!-- 100 -->
      <g transform="translate(20.878125 149.125149) scale(0.1 -0.1)">
       <use xlink:href="#DejaVuSans-31"/>
       <use xlink:href="#DejaVuSans-30" transform="translate(63.623047 0)"/>
       <use xlink:href="#DejaVuSans-30" transform="translate(127.246094 0)"/>
      </g>
     </g>
    </g>
    <g id="ytick_7">
     <g id="line2d_31">
      <path d="M 46.965625 100.55036 
L 422.285625 100.55036 
" clip-path="url(#p4c8b8acb6d)" style="fill: none; stroke-dasharray: 2.96,1.28; stroke-dashoffset: 0; stroke: #b0b0b0; stroke-opacity: 0.6; stroke-width: 0.8"/>
     </g>
     <g id="line2d_32">
      <g>
       <use xlink:href="#mbadd96d141" x="46.965625" y="100.55036" style="stroke: #000000; stroke-width: 0.8"/>
      </g>
     </g>
     <g id="text_17">
      <!-- 120 -->
      <g transform="translate(20.878125 104.349579) scale(0.1 -0.1)">
       <use xlink:href="#DejaVuSans-31"/>
       <use xlink:href="#DejaVuSans-32" transform="translate(63.623047 0)"/>
       <use xlink:href="#DejaVuSans-30" transform="translate(127.246094 0)"/>
      </g>
     </g>
    </g>
    <g id="ytick_8">
     <g id="line2d_33">
      <path d="M 46.965625 55.774789 
L 422.285625 55.774789 
" clip-path="url(#p4c8b8acb6d)" style="fill: none; stroke-dasharray: 2.96,1.28; stroke-dashoffset: 0; stroke: #b0b0b0; stroke-opacity: 0.6; stroke-width: 0.8"/>
     </g>
     <g id="line2d_34">
      <g>
       <use xlink:href="#mbadd96d141" x="46.965625" y="55.774789" style="stroke: #000000; stroke-width: 0.8"/>
      </g>
     </g>
     <g id="text_18">
      <!-- 140 -->
      <g transform="translate(20.878125 59.574008) scale(0.1 -0.1)">
       <use xlink:href="#DejaVuSans-31"/>
       <use xlink:href="#DejaVuSans-34" transform="translate(63.623047 0)"/>
       <use xlink:href="#DejaVuSans-30" transform="translate(127.246094 0)"/>
      </g>
     </g>
    </g>
    <g id="ytick_9">
     <g id="line2d_35">
      <path d="M 46.965625 10.999219 
L 422.285625 10.999219 
" clip-path="url(#p4c8b8acb6d)" style="fill: none; stroke-dasharray: 2.96,1.28; stroke-dashoffset: 0; stroke: #b0b0b0; stroke-opacity: 0.6; stroke-width: 0.8"/>
     </g>
     <g id="line2d_36">
      <g>
       <use xlink:href="#mbadd96d141" x="46.965625" y="10.999219" style="stroke: #000000; stroke-width: 0.8"/>
      </g>
     </g>
     <g id="text_19">
      <!-- 160 -->
      <g transform="translate(20.878125 14.798437) scale(0.1 -0.1)">
       <use xlink:href="#DejaVuSans-31"/>
       <use xlink:href="#DejaVuSans-36" transform="translate(63.623047 0)"/>
       <use xlink:href="#DejaVuSans-30" transform="translate(127.246094 0)"/>
      </g>
     </g>
    </g>
    <g id="text_20">
     <!-- Average cumulative count -->
     <g transform="translate(14.798438 264.189377) rotate(-90) scale(0.1 -0.1)">
      <defs>
       <path id="DejaVuSans-41" d="M 2188 4044 
L 1331 1722 
L 3047 1722 
L 2188 4044 
z
M 1831 4666 
L 2547 4666 
L 4325 0 
L 3669 0 
L 3244 1197 
L 1141 1197 
L 716 0 
L 50 0 
L 1831 4666 
z
" transform="scale(0.015625)"/>
       <path id="DejaVuSans-76" d="M 191 3500 
L 800 3500 
L 1894 563 
L 2988 3500 
L 3597 3500 
L 2284 0 
L 1503 0 
L 191 3500 
z
" transform="scale(0.015625)"/>
       <path id="DejaVuSans-67" d="M 2906 1791 
Q 2906 2416 2648 2759 
Q 2391 3103 1925 3103 
Q 1463 3103 1205 2759 
Q 947 2416 947 1791 
Q 947 1169 1205 825 
Q 1463 481 1925 481 
Q 2391 481 2648 825 
Q 2906 1169 2906 1791 
z
M 3481 434 
Q 3481 -459 3084 -895 
Q 2688 -1331 1869 -1331 
Q 1566 -1331 1297 -1286 
Q 1028 -1241 775 -1147 
L 775 -588 
Q 1028 -725 1275 -790 
Q 1522 -856 1778 -856 
Q 2344 -856 2625 -561 
Q 2906 -266 2906 331 
L 2906 616 
Q 2728 306 2450 153 
Q 2172 0 1784 0 
Q 1141 0 747 490 
Q 353 981 353 1791 
Q 353 2603 747 3093 
Q 1141 3584 1784 3584 
Q 2172 3584 2450 3431 
Q 2728 3278 2906 2969 
L 2906 3500 
L 3481 3500 
L 3481 434 
z
" transform="scale(0.015625)"/>
       <path id="DejaVuSans-6c" d="M 603 4863 
L 1178 4863 
L 1178 0 
L 603 0 
L 603 4863 
z
" transform="scale(0.015625)"/>
      </defs>
      <use xlink:href="#DejaVuSans-41"/>
      <use xlink:href="#DejaVuSans-76" transform="translate(62.533203 0)"/>
      <use xlink:href="#DejaVuSans-65" transform="translate(121.712891 0)"/>
      <use xlink:href="#DejaVuSans-72" transform="translate(183.236328 0)"/>
      <use xlink:href="#DejaVuSans-61" transform="translate(224.349609 0)"/>
      <use xlink:href="#DejaVuSans-67" transform="translate(285.628906 0)"/>
      <use xlink:href="#DejaVuSans-65" transform="translate(349.105469 0)"/>
      <use xlink:href="#DejaVuSans-20" transform="translate(410.628906 0)"/>
      <use xlink:href="#DejaVuSans-63" transform="translate(442.416016 0)"/>
      <use xlink:href="#DejaVuSans-75" transform="translate(497.396484 0)"/>
      <use xlink:href="#DejaVuSans-6d" transform="translate(560.775391 0)"/>
      <use xlink:href="#DejaVuSans-75" transform="translate(658.1875 0)"/>
      <use xlink:href="#DejaVuSans-6c" transform="translate(721.566406 0)"/>
      <use xlink:href="#DejaVuSans-61" transform="translate(749.349609 0)"/>
      <use xlink:href="#DejaVuSans-74" transform="translate(810.628906 0)"/>
      <use xlink:href="#DejaVuSans-69" transform="translate(849.837891 0)"/>
      <use xlink:href="#DejaVuSans-76" transform="translate(877.621094 0)"/>
      <use xlink:href="#DejaVuSans-65" transform="translate(936.800781 0)"/>
      <use xlink:href="#DejaVuSans-20" transform="translate(998.324219 0)"/>
      <use xlink:href="#DejaVuSans-63" transform="translate(1030.111328 0)"/>
      <use xlink:href="#DejaVuSans-6f" transform="translate(1085.091797 0)"/>
      <use xlink:href="#DejaVuSans-75" transform="translate(1146.273438 0)"/>
      <use xlink:href="#DejaVuSans-6e" transform="translate(1209.652344 0)"/>
      <use xlink:href="#DejaVuSans-74" transform="translate(1273.03125 0)"/>
     </g>
    </g>
   </g>
   <g id="line2d_37">
    <path d="M 405.225625 369.203783 
L 401.642577 369.203783 
L 401.514611 368.883958 
L 396.395971 368.883958 
L 396.268005 368.564132 
L 391.149365 368.564132 
L 391.021399 368.244307 
L 385.860104 368.244307 
L 385.732138 367.924481 
L 385.34824 367.924481 
L 385.220274 367.604656 
L 380.613498 367.604656 
L 380.485532 367.28483 
L 380.101635 367.28483 
L 379.973669 366.965005 
L 378.736664 366.965005 
L 378.608698 366.645179 
L 375.366893 366.645179 
L 375.238927 366.325354 
L 374.855029 366.325354 
L 374.727063 366.005528 
L 373.532713 366.005528 
L 373.404747 365.685703 
L 372.551641 365.685703 
L 372.423675 365.365877 
L 370.120287 365.365877 
L 369.992321 365.046052 
L 369.608423 365.046052 
L 369.480457 364.726226 
L 368.371418 364.726226 
L 368.243452 364.406401 
L 367.305035 364.406401 
L 367.177069 364.086575 
L 364.873681 364.086575 
L 364.745715 363.76675 
L 364.361817 363.76675 
L 364.233851 363.446924 
L 363.124812 363.446924 
L 362.996846 363.127099 
L 362.058429 363.127099 
L 361.930463 362.807273 
L 359.627075 362.807273 
L 359.499109 362.487448 
L 359.115211 362.487448 
L 358.987245 362.167622 
L 357.878207 362.167622 
L 357.750241 361.847797 
L 356.811823 361.847797 
L 356.683857 361.527971 
L 356.555891 361.527971 
L 356.427925 361.208146 
L 354.380469 361.208146 
L 354.252503 360.88832 
L 353.868605 360.88832 
L 353.740639 360.568495 
L 352.631601 360.568495 
L 352.503635 360.248669 
L 351.565217 360.248669 
L 351.437251 359.928844 
L 349.091208 359.928844 
L 348.963242 359.609018 
L 348.622 359.609018 
L 348.494034 359.289193 
L 347.384995 359.289193 
L 347.257029 358.969367 
L 346.318612 358.969367 
L 346.190646 358.649542 
L 343.844602 358.649542 
L 343.716636 358.329716 
L 343.375394 358.329716 
L 343.247428 358.009891 
L 342.138389 358.009891 
L 342.010423 357.690065 
L 341.072006 357.690065 
L 340.94404 357.37024 
L 338.597997 357.37024 
L 338.470031 357.050414 
L 338.171443 357.050414 
L 338.043477 356.730589 
L 336.891783 356.730589 
L 336.763817 356.410763 
L 335.782745 356.410763 
L 335.654779 356.090938 
L 333.351391 356.090938 
L 333.223425 355.771112 
L 332.924837 355.771112 
L 332.796871 355.451287 
L 331.645177 355.451287 
L 331.517211 355.131461 
L 330.536139 355.131461 
L 330.408173 354.811636 
L 328.104785 354.811636 
L 327.976819 354.49181 
L 327.678232 354.49181 
L 327.550266 354.171985 
L 326.398572 354.171985 
L 326.270606 353.852159 
L 325.289533 353.852159 
L 325.161567 353.532333 
L 322.858179 353.532333 
L 322.730213 353.212508 
L 322.431626 353.212508 
L 322.30366 352.892682 
L 321.10931 352.892682 
L 320.981344 352.572857 
L 320.042927 352.572857 
L 319.914961 352.253031 
L 317.611573 352.253031 
L 317.483607 351.933206 
L 317.142365 351.933206 
L 317.014399 351.61338 
L 315.862705 351.61338 
L 315.734739 351.293555 
L 314.796321 351.293555 
L 314.668355 350.973729 
L 312.364967 350.973729 
L 312.237001 350.653904 
L 311.895759 350.653904 
L 311.767793 350.334078 
L 310.658754 350.334078 
L 310.530788 350.014253 
L 309.549716 350.014253 
L 309.42175 349.694427 
L 307.118362 349.694427 
L 306.990396 349.374602 
L 306.649153 349.374602 
L 306.521187 349.054776 
L 305.412148 349.054776 
L 305.284182 348.734951 
L 304.30311 348.734951 
L 304.175144 348.415125 
L 301.871756 348.415125 
L 301.74379 348.0953 
L 301.402547 348.0953 
L 301.274581 347.775474 
L 300.122887 347.775474 
L 299.994921 347.455649 
L 299.056504 347.455649 
L 298.928538 347.135823 
L 296.62515 347.135823 
L 296.497184 346.815998 
L 296.155941 346.815998 
L 296.027975 346.496172 
L 294.876281 346.496172 
L 294.748315 346.176347 
L 293.809898 346.176347 
L 293.681932 345.856521 
L 291.378544 345.856521 
L 291.250578 345.536696 
L 290.909335 345.536696 
L 290.781369 345.21687 
L 289.629676 345.21687 
L 289.50171 344.897045 
L 288.563292 344.897045 
L 288.435326 344.577219 
L 286.131938 344.577219 
L 286.003972 344.257394 
L 285.66273 344.257394 
L 285.534764 343.937568 
L 284.38307 343.937568 
L 284.255104 343.617743 
L 283.316686 343.617743 
L 283.18872 343.297917 
L 280.885332 343.297917 
L 280.757366 342.978092 
L 280.416124 342.978092 
L 280.288158 342.658266 
L 279.136464 342.658266 
L 279.008498 342.338441 
L 278.070081 342.338441 
L 277.942115 342.018615 
L 275.638727 342.018615 
L 275.510761 341.69879 
L 275.169518 341.69879 
L 275.041552 341.378964 
L 273.932513 341.378964 
L 273.804547 341.059139 
L 272.823475 341.059139 
L 272.695509 340.739313 
L 270.392121 340.739313 
L 270.264155 340.419488 
L 269.922912 340.419488 
L 269.794946 340.099662 
L 268.685908 340.099662 
L 268.557942 339.779837 
L 267.576869 339.779837 
L 267.448903 339.460011 
L 265.145515 339.460011 
L 265.017549 339.140186 
L 264.676306 339.140186 
L 264.54834 338.82036 
L 263.439302 338.82036 
L 263.311336 338.500535 
L 262.330263 338.500535 
L 262.202297 338.180709 
L 259.898909 338.180709 
L 259.770943 337.860884 
L 259.429701 337.860884 
L 259.301735 337.541058 
L 258.150041 337.541058 
L 258.022075 337.221233 
L 257.041002 337.221233 
L 256.913036 336.901407 
L 254.652303 336.901407 
L 254.524337 336.581582 
L 254.183095 336.581582 
L 254.055129 336.261756 
L 252.903435 336.261756 
L 252.775469 335.941931 
L 251.794396 335.941931 
L 251.66643 335.622105 
L 249.405698 335.622105 
L 249.277732 335.30228 
L 248.893834 335.30228 
L 248.765868 334.982454 
L 247.699484 334.982454 
L 247.571518 334.662629 
L 246.54779 334.662629 
L 246.419824 334.342803 
L 244.159092 334.342803 
L 244.031126 334.022978 
L 243.647228 334.022978 
L 243.519262 333.703152 
L 242.452878 333.703152 
L 242.324912 333.383327 
L 241.301184 333.383327 
L 241.173218 333.063501 
L 238.912486 333.063501 
L 238.78452 332.743676 
L 238.400622 332.743676 
L 238.272656 332.42385 
L 237.120962 332.42385 
L 236.992996 332.104025 
L 236.054579 332.104025 
L 235.926613 331.784199 
L 233.623225 331.784199 
L 233.495259 331.464374 
L 233.154016 331.464374 
L 233.02605 331.144548 
L 231.917011 331.144548 
L 231.789045 330.824723 
L 230.850628 330.824723 
L 230.722662 330.504897 
L 228.376619 330.504897 
L 228.248653 330.185072 
L 227.90741 330.185072 
L 227.779444 329.865246 
L 226.670406 329.865246 
L 226.54244 329.545421 
L 225.646678 329.545421 
L 225.476056 328.90577 
L 223.130013 328.90577 
L 223.002047 328.585944 
L 222.660804 328.585944 
L 222.532838 328.266119 
L 221.4238 328.266119 
L 221.295834 327.946293 
L 220.22945 327.946293 
L 220.101484 327.626468 
L 217.883407 327.626468 
L 217.755441 327.306642 
L 217.414199 327.306642 
L 217.286233 326.986817 
L 216.177194 326.986817 
L 216.049228 326.666991 
L 214.982845 326.666991 
L 214.854879 326.347166 
L 212.636801 326.347166 
L 212.508835 326.02734 
L 212.167593 326.02734 
L 212.039627 325.707515 
L 210.973243 325.707515 
L 210.845277 325.387689 
L 209.736239 325.387689 
L 209.608273 325.067864 
L 207.390196 325.067864 
L 207.26223 324.748038 
L 206.920987 324.748038 
L 206.793021 324.428213 
L 205.726638 324.428213 
L 205.598672 324.108387 
L 204.489633 324.108387 
L 204.361667 323.788562 
L 202.14359 323.788562 
L 202.015624 323.468736 
L 201.674381 323.468736 
L 201.546415 323.148911 
L 200.480032 323.148911 
L 200.352066 322.829085 
L 199.243027 322.829085 
L 199.115061 322.50926 
L 196.896984 322.50926 
L 196.769018 322.189434 
L 196.427775 322.189434 
L 196.299809 321.869609 
L 195.233426 321.869609 
L 195.10546 321.549783 
L 193.996421 321.549783 
L 193.868455 321.229958 
L 192.972693 321.229958 
L 192.844727 320.910132 
L 191.650378 320.910132 
L 191.522412 320.590307 
L 191.181169 320.590307 
L 191.053203 320.270481 
L 189.98682 320.270481 
L 189.858854 319.950656 
L 188.749816 319.950656 
L 188.62185 319.63083 
L 186.403772 319.63083 
L 186.275806 319.311005 
L 185.934564 319.311005 
L 185.806598 318.991179 
L 184.740214 318.991179 
L 184.612248 318.671354 
L 183.50321 318.671354 
L 183.375244 318.351528 
L 181.157166 318.351528 
L 181.0292 318.031703 
L 180.687958 318.031703 
L 180.559992 317.711877 
L 179.493608 317.711877 
L 179.365643 317.392052 
L 178.256604 317.392052 
L 178.128638 317.072226 
L 175.910561 317.072226 
L 175.782595 316.752401 
L 175.441352 316.752401 
L 175.313386 316.432575 
L 174.247003 316.432575 
L 174.119037 316.11275 
L 173.009998 316.11275 
L 172.882032 315.792924 
L 170.663955 315.792924 
L 170.535989 315.473099 
L 170.194746 315.473099 
L 170.06678 315.153273 
L 168.957742 315.153273 
L 168.829776 314.833448 
L 167.720737 314.833448 
L 167.592771 314.513622 
L 165.417349 314.513622 
L 165.289383 314.193797 
L 164.94814 314.193797 
L 164.820174 313.873971 
L 163.66848 313.873971 
L 163.540514 313.554145 
L 162.474131 313.554145 
L 162.346165 313.23432 
L 160.170743 313.23432 
L 160.042777 312.914494 
L 159.701534 312.914494 
L 159.573568 312.594669 
L 158.379219 312.594669 
L 158.251253 312.274843 
L 157.227525 312.274843 
L 157.099559 311.955018 
L 154.924137 311.955018 
L 154.796171 311.635192 
L 154.454929 311.635192 
L 154.326963 311.315367 
L 154.241652 311.315367 
L 154.113686 310.995541 
L 153.132613 310.995541 
L 153.004647 310.675716 
L 151.980919 310.675716 
L 151.852953 310.35589 
L 149.677531 310.35589 
L 149.549565 310.036065 
L 149.208323 310.036065 
L 149.080357 309.716239 
L 147.971318 309.716239 
L 147.800697 309.076588 
L 147.758042 309.076588 
L 147.630076 308.756763 
L 147.544765 308.756763 
L 147.416799 308.436937 
L 147.331488 308.436937 
L 147.203522 308.117112 
L 147.118212 308.117112 
L 146.990246 307.797286 
L 146.904935 307.797286 
L 146.776969 307.477461 
L 146.734314 307.477461 
L 146.563692 306.83781 
L 146.478382 306.83781 
L 146.350416 306.517984 
L 146.265105 306.517984 
L 146.137139 306.198159 
L 146.051828 306.198159 
L 145.923862 305.878333 
L 145.838552 305.878333 
L 145.710586 305.558508 
L 145.625275 305.558508 
L 145.497309 305.238682 
L 145.411998 305.238682 
L 145.284032 304.918857 
L 145.198722 304.918857 
L 145.070756 304.599031 
L 144.985445 304.599031 
L 144.857479 304.279206 
L 144.772168 304.279206 
L 144.644202 303.95938 
L 144.558892 303.95938 
L 144.38827 303.319729 
L 144.345615 303.319729 
L 144.217649 302.999904 
L 144.132338 302.999904 
L 144.004372 302.680078 
L 143.961717 302.680078 
L 143.791096 302.040427 
L 143.705785 302.040427 
L 143.577819 301.720602 
L 143.492508 301.720602 
L 143.364542 301.400776 
L 143.279232 301.400776 
L 143.151266 301.080951 
L 142.895334 301.080951 
L 142.767368 300.761125 
L 142.682057 300.761125 
L 142.554091 300.121474 
L 142.46878 300.121474 
L 142.340814 299.801649 
L 142.255504 299.801649 
L 142.127538 299.481823 
L 142.042227 299.481823 
L 141.914261 299.161998 
L 141.82895 299.161998 
L 141.700984 298.842172 
L 141.615674 298.842172 
L 141.445052 298.202521 
L 141.402397 298.202521 
L 141.274431 297.882696 
L 141.18912 297.882696 
L 141.061154 297.56287 
L 140.975844 297.56287 
L 140.847878 297.243045 
L 140.762567 297.243045 
L 140.634601 296.923219 
L 140.54929 296.923219 
L 140.421324 296.603394 
L 140.336014 296.603394 
L 140.208048 296.283568 
L 140.122737 296.283568 
L 139.994771 295.963743 
L 139.90946 295.963743 
L 139.781494 295.643917 
L 139.696184 295.643917 
L 139.568218 295.324092 
L 139.482907 295.324092 
L 139.354941 295.004266 
L 139.269631 295.004266 
L 139.099009 294.364615 
L 139.056354 294.364615 
L 138.928388 294.04479 
L 138.843077 294.04479 
L 138.672456 293.405139 
L 138.629801 293.405139 
L 138.501835 293.085313 
L 138.416524 293.085313 
L 138.288558 292.765488 
L 138.203247 292.765488 
L 138.075281 292.445662 
L 137.989971 292.445662 
L 137.862005 292.125837 
L 137.776694 292.125837 
L 137.648728 291.806011 
L 137.563417 291.806011 
L 137.392796 291.16636 
L 137.350141 291.16636 
L 137.222175 290.846535 
L 137.136864 290.846535 
L 137.008898 290.526709 
L 136.923587 290.526709 
L 136.795621 290.206884 
L 136.710311 290.206884 
L 136.582345 289.887058 
L 136.497034 289.887058 
L 136.369068 289.567233 
L 136.283757 289.567233 
L 136.113136 288.927582 
L 136.070481 288.927582 
L 135.942515 288.607756 
L 135.857204 288.607756 
L 135.729238 288.287931 
L 135.643927 288.287931 
L 135.515961 287.968105 
L 135.430651 287.968105 
L 135.302685 287.64828 
L 135.217374 287.64828 
L 135.089408 287.328454 
L 135.004097 287.328454 
L 134.876131 287.008629 
L 134.790821 287.008629 
L 134.662855 286.688803 
L 134.577544 286.688803 
L 134.449578 286.368978 
L 134.364267 286.368978 
L 134.236301 286.049152 
L 134.150991 286.049152 
L 134.023025 285.729327 
L 133.937714 285.729327 
L 133.809748 285.089676 
L 133.724437 285.089676 
L 133.596471 284.76985 
L 133.511161 284.76985 
L 133.340539 284.130199 
L 133.297884 284.130199 
L 133.169918 283.810374 
L 133.084607 283.810374 
L 132.956641 283.490548 
L 132.871331 283.490548 
L 132.743365 283.170723 
L 132.658054 283.170723 
L 132.530088 282.850897 
L 132.444777 282.850897 
L 132.316811 282.531072 
L 132.231501 282.531072 
L 132.060879 281.891421 
L 132.018224 281.891421 
L 131.890258 281.571595 
L 131.804947 281.571595 
L 131.676981 281.25177 
L 131.591671 281.25177 
L 131.463705 280.931944 
L 131.378394 280.931944 
L 131.250428 280.612119 
L 131.165117 280.612119 
L 131.037151 280.292293 
L 130.994496 280.292293 
L 130.823875 279.652642 
L 130.738564 279.652642 
L 130.610598 279.332817 
L 130.525287 279.332817 
L 130.397321 279.012991 
L 130.312011 279.012991 
L 130.184045 278.693166 
L 130.098734 278.693166 
L 129.970768 278.37334 
L 129.885457 278.37334 
L 129.757491 278.053515 
L 129.672181 278.053515 
L 129.544215 277.733689 
L 129.458904 277.733689 
L 129.330938 277.413864 
L 129.245628 277.413864 
L 129.117662 277.094038 
L 129.032351 277.094038 
L 128.904385 276.774213 
L 128.819074 276.774213 
L 128.648453 276.134562 
L 128.605798 276.134562 
L 128.477832 275.814736 
L 128.392521 275.814736 
L 128.264555 275.494911 
L 128.2219 275.494911 
L 128.051278 274.85526 
L 127.965968 274.85526 
L 127.838002 274.535434 
L 127.752691 274.535434 
L 127.624725 274.215609 
L 127.539414 274.215609 
L 127.411448 273.895783 
L 127.326138 273.895783 
L 127.198172 273.575958 
L 127.112861 273.575958 
L 126.94224 272.936306 
L 126.899584 272.936306 
L 126.771618 272.616481 
L 126.686308 272.616481 
L 126.558342 272.296655 
L 126.473031 272.296655 
L 126.345065 271.97683 
L 126.259754 271.97683 
L 126.131788 271.657004 
L 126.046478 271.657004 
L 125.918512 271.337179 
L 125.833201 271.337179 
L 125.66258 270.697528 
L 125.619924 270.697528 
L 125.491958 270.377702 
L 125.406648 270.377702 
L 125.278682 270.057877 
L 125.193371 270.057877 
L 125.065405 269.738051 
L 124.809473 269.738051 
L 124.681507 269.418226 
L 124.596196 269.418226 
L 124.46823 269.0984 
L 124.38292 269.0984 
L 124.254954 268.778575 
L 124.169643 268.778575 
L 124.041677 268.458749 
L 123.956366 268.458749 
L 123.8284 268.138924 
L 123.74309 268.138924 
L 123.615124 267.819098 
L 123.529813 267.819098 
L 123.359192 267.179447 
L 123.316536 267.179447 
L 123.18857 266.859622 
L 123.10326 266.859622 
L 122.932638 266.219971 
L 122.889983 266.219971 
L 122.762017 265.900145 
L 122.676706 265.900145 
L 122.54874 265.58032 
L 122.46343 265.58032 
L 122.335464 265.260494 
L 122.250153 265.260494 
L 122.122187 264.940669 
L 122.036876 264.940669 
L 121.90891 264.620843 
L 121.8236 264.620843 
L 121.652978 263.981192 
L 121.610323 263.981192 
L 121.482357 263.661367 
L 121.397046 263.661367 
L 121.26908 263.341541 
L 121.18377 263.341541 
L 121.055804 263.021716 
L 120.970493 263.021716 
L 120.842527 262.70189 
L 120.757216 262.70189 
L 120.62925 262.382065 
L 120.54394 262.382065 
L 120.373318 261.742414 
L 120.330663 261.742414 
L 120.202697 261.422588 
L 120.117386 261.422588 
L 119.98942 261.102763 
L 119.733488 261.102763 
L 119.605522 260.782937 
L 119.520212 260.782937 
L 119.392246 260.463112 
L 119.306935 260.463112 
L 119.178969 260.143286 
L 119.093659 260.143286 
L 118.965693 259.823461 
L 118.880382 259.823461 
L 118.752416 259.503635 
L 118.667105 259.503635 
L 118.539139 259.18381 
L 118.453829 259.18381 
L 118.325863 258.863984 
L 118.240552 258.863984 
L 118.069931 258.224333 
L 118.027275 258.224333 
L 117.899309 257.904508 
L 117.813999 257.904508 
L 117.643377 257.264857 
L 117.600722 257.264857 
L 117.472756 256.945031 
L 117.387445 256.945031 
L 117.259479 256.625206 
L 117.174169 256.625206 
L 117.046203 256.30538 
L 116.960892 256.30538 
L 116.832926 255.985555 
L 116.747615 255.985555 
L 116.619649 255.665729 
L 116.534339 255.665729 
L 116.363717 255.026078 
L 116.321062 255.026078 
L 116.193096 254.706253 
L 116.107785 254.706253 
L 115.979819 254.386427 
L 115.894509 254.386427 
L 115.766543 254.066602 
L 115.681232 254.066602 
L 115.553266 253.746776 
L 115.467955 253.746776 
L 115.339989 253.426951 
L 115.254679 253.426951 
L 115.126713 252.7873 
L 115.041402 252.7873 
L 114.913436 252.467474 
L 114.828125 252.467474 
L 114.700159 252.147649 
L 114.614849 252.147649 
L 114.486883 251.827823 
L 114.401572 251.827823 
L 114.273606 251.507998 
L 114.188295 251.507998 
L 114.060329 251.188172 
L 113.975019 251.188172 
L 113.847053 250.868347 
L 113.761742 250.868347 
L 113.633776 250.548521 
L 113.548465 250.548521 
L 113.420499 250.228696 
L 113.335189 250.228696 
L 113.207223 249.90887 
L 113.121912 249.90887 
L 112.993946 249.589045 
L 112.951291 249.589045 
L 112.780669 248.949394 
L 112.695359 248.949394 
L 112.567393 248.629568 
L 112.482082 248.629568 
L 112.354116 247.989917 
L 112.268805 247.989917 
L 112.140839 247.670092 
L 111.245077 247.670092 
L 111.117111 247.350266 
L 111.031801 247.350266 
L 110.903835 247.030441 
L 110.818524 247.030441 
L 110.690558 246.710615 
L 110.605247 246.710615 
L 110.477281 246.39079 
L 110.391971 246.39079 
L 110.264005 246.070964 
L 110.178694 246.070964 
L 110.050728 245.751139 
L 110.008073 245.751139 
L 109.837451 245.111488 
L 109.752141 245.111488 
L 109.624175 244.791662 
L 109.538864 244.791662 
L 109.410898 244.471837 
L 109.325587 244.471837 
L 109.197621 244.152011 
L 109.112311 244.152011 
L 108.984345 243.832186 
L 108.899034 243.832186 
L 108.771068 243.51236 
L 108.685758 243.51236 
L 108.557792 243.192535 
L 108.472481 243.192535 
L 108.344515 242.872709 
L 108.259204 242.872709 
L 108.131238 242.552884 
L 108.045928 242.552884 
L 107.917962 242.233058 
L 107.832651 242.233058 
L 107.66203 241.593407 
L 107.619374 241.593407 
L 107.491408 241.273582 
L 107.406098 241.273582 
L 107.278132 240.953756 
L 107.235476 240.953756 
L 107.064855 240.314105 
L 106.979544 240.314105 
L 106.851578 239.99428 
L 106.766268 239.99428 
L 106.638302 239.674454 
L 106.552991 239.674454 
L 106.425025 239.354629 
L 106.339714 239.354629 
L 106.211748 239.034803 
L 106.126438 239.034803 
L 105.998472 238.714978 
L 105.955816 238.714978 
L 105.785195 238.075327 
L 105.699884 238.075327 
L 105.571918 237.755501 
L 105.486608 237.755501 
L 105.358642 237.435676 
L 105.273331 237.435676 
L 105.145365 237.11585 
L 105.060054 237.11585 
L 104.932088 236.796025 
L 104.846778 236.796025 
L 104.676156 236.156374 
L 104.633501 236.156374 
L 104.505535 235.836548 
L 104.420224 235.836548 
L 104.292258 235.516723 
L 104.036326 235.516723 
L 103.90836 235.196897 
L 103.82305 235.196897 
L 103.695084 234.877072 
L 103.609773 234.877072 
L 103.481807 234.557246 
L 103.396496 234.557246 
L 103.26853 234.237421 
L 103.18322 234.237421 
L 103.055254 233.917595 
L 102.969943 233.917595 
L 102.841977 233.59777 
L 102.756666 233.59777 
L 102.6287 233.277944 
L 102.54339 233.277944 
L 102.372768 232.638293 
L 102.330113 232.638293 
L 102.202147 232.318467 
L 102.116836 232.318467 
L 101.946215 231.678816 
L 101.90356 231.678816 
L 101.775594 231.358991 
L 101.690283 231.358991 
L 101.562317 231.039165 
L 101.477006 231.039165 
L 101.34904 230.71934 
L 101.26373 230.71934 
L 101.135764 230.399514 
L 101.050453 230.399514 
L 100.922487 230.079689 
L 100.837176 230.079689 
L 100.70921 229.759863 
L 100.666555 229.759863 
L 100.495934 229.120212 
L 99.514861 229.120212 
L 99.386895 228.800387 
L 98.619099 228.800387 
L 98.491133 228.480561 
L 98.405823 228.480561 
L 98.277857 228.160736 
L 98.192546 228.160736 
L 98.06458 227.84091 
L 97.979269 227.84091 
L 97.851303 227.521085 
L 97.765993 227.521085 
L 97.638027 227.201259 
L 97.552716 227.201259 
L 97.42475 226.881434 
L 97.339439 226.881434 
L 97.168818 226.241783 
L 97.126163 226.241783 
L 96.998197 225.921957 
L 96.912886 225.921957 
L 96.78492 225.602132 
L 96.742265 225.602132 
L 96.571643 224.962481 
L 96.486333 224.962481 
L 96.358367 224.642655 
L 96.273056 224.642655 
L 96.14509 224.32283 
L 96.059779 224.32283 
L 95.931813 224.003004 
L 95.846503 224.003004 
L 95.718537 223.683179 
L 95.633226 223.683179 
L 95.50526 223.363353 
L 95.419949 223.363353 
L 95.291983 222.723702 
L 95.206673 222.723702 
L 95.078707 222.403877 
L 94.993396 222.403877 
L 94.86543 222.084051 
L 94.780119 222.084051 
L 94.652153 221.764226 
L 94.566843 221.764226 
L 94.438877 221.4444 
L 94.353566 221.4444 
L 94.182945 220.804749 
L 94.140289 220.804749 
L 94.012323 220.484924 
L 93.927013 220.484924 
L 93.799047 220.165098 
L 93.713736 220.165098 
L 93.58577 219.845273 
L 93.500459 219.845273 
L 93.372493 219.525447 
L 93.287183 219.525447 
L 93.159217 219.205622 
L 93.073906 219.205622 
L 92.94594 218.885796 
L 92.860629 218.885796 
L 92.732663 218.565971 
L 92.647353 218.565971 
L 92.519387 218.246145 
L 92.434076 218.246145 
L 92.263455 217.606494 
L 92.220799 217.606494 
L 92.050178 216.966843 
L 92.007523 216.966843 
L 91.836901 216.007367 
L 91.794246 216.007367 
L 91.623625 215.04789 
L 91.580969 215.04789 
L 91.410348 213.768588 
L 91.367693 213.768588 
L 91.197071 212.809112 
L 91.154416 212.809112 
L 90.983795 211.849635 
L 90.941139 211.849635 
L 90.770518 210.890159 
L 90.727863 210.890159 
L 90.557241 209.930682 
L 90.514586 209.930682 
L 90.343965 208.971206 
L 90.301309 208.971206 
L 90.002722 207.372078 
L 89.960067 207.372078 
L 89.618824 205.453125 
L 89.533513 205.453125 
L 89.192271 203.534172 
L 89.10696 203.534172 
L 88.765718 201.615219 
L 88.680407 201.615219 
L 88.46713 200.655743 
L 88.424475 200.655743 
L 88.253854 199.696266 
L 88.211198 199.696266 
L 87.912611 198.097139 
L 87.869956 198.097139 
L 87.614024 196.817837 
L 87.571368 196.817837 
L 87.400747 196.178186 
L 87.358092 196.178186 
L 87.059504 194.579058 
L 86.974194 194.579058 
L 86.803572 193.939407 
L 86.760917 193.939407 
L 86.590296 192.979931 
L 86.54764 192.979931 
L 86.377019 192.020454 
L 86.334364 192.020454 
L 86.163742 190.741152 
L 86.121087 190.741152 
L 85.950466 189.781675 
L 85.90781 189.781675 
L 85.737189 188.822199 
L 85.694534 188.822199 
L 85.523912 187.862722 
L 85.481257 187.862722 
L 85.310636 186.903246 
L 85.26798 186.903246 
L 85.097359 185.943769 
L 85.012048 185.943769 
L 84.62815 183.704991 
L 84.585495 183.704991 
L 84.286908 182.105863 
L 84.244252 182.105863 
L 84.073631 181.466212 
L 84.030976 181.466212 
L 83.732388 179.867085 
L 83.689733 179.867085 
L 83.519112 178.587783 
L 83.476456 178.587783 
L 83.305835 177.948132 
L 83.26318 177.948132 
L 83.007248 176.66883 
L 82.964592 176.66883 
L 82.793971 175.709353 
L 82.751316 175.709353 
L 82.580694 174.749877 
L 82.538039 174.749877 
L 82.367418 173.7904 
L 82.324762 173.7904 
L 82.06883 172.511098 
L 81.98352 172.511098 
L 81.642277 170.592145 
L 81.556966 170.592145 
L 81.215724 168.673192 
L 81.130413 168.673192 
L 80.831826 167.074065 
L 80.70386 167.074065 
L 80.533238 166.114588 
L 80.490583 166.114588 
L 80.319962 165.155112 
L 80.277306 165.155112 
L 80.14934 163.87581 
L 80.06403 163.87581 
L 79.936064 162.596508 
L 79.850753 162.596508 
L 79.680132 161.637031 
L 79.082957 157.799125 
L 78.997647 157.799125 
L 78.827025 156.519823 
L 78.78437 156.519823 
L 78.613749 155.240521 
L 78.571093 155.240521 
L 78.315161 153.001743 
L 78.272506 153.001743 
L 78.016574 150.762964 
L 77.931263 150.762964 
L 77.334089 146.925058 
L 77.291433 146.925058 
L 74.006973 121.978669 
L 73.836351 120.059716 
L 73.793696 120.059716 
L 73.623075 118.460588 
L 73.580419 118.460588 
L 73.409798 116.541635 
L 73.367143 116.541635 
L 73.196521 114.622682 
L 73.068555 113.34338 
L 72.897934 111.424427 
L 72.855279 111.424427 
L 72.684657 109.505474 
L 72.642002 109.505474 
L 72.471381 107.586521 
L 72.428725 107.586521 
L 72.258104 105.987393 
L 72.215449 105.987393 
L 72.044827 104.388266 
L 71.788895 102.149487 
L 71.618274 100.230534 
L 71.362342 97.67193 
L 71.191721 95.752977 
L 70.935789 93.194373 
L 70.679857 90.955595 
L 70.637201 90.955595 
L 70.509235 89.996118 
L 70.338614 87.75734 
L 70.295959 87.75734 
L 70.125337 85.518561 
L 70.082682 85.518561 
L 69.912061 83.279783 
L 69.869405 83.279783 
L 69.698784 81.36083 
L 69.656129 81.36083 
L 69.485507 79.441877 
L 69.442852 79.441877 
L 69.058954 75.284145 
L 68.675056 71.766065 
L 68.291158 67.608333 
L 68.035226 65.049729 
L 67.736639 62.171299 
L 67.395396 59.612695 
L 67.26743 58.013568 
L 67.224775 58.013568 
L 66.926188 54.815313 
L 66.883532 54.815313 
L 66.584945 51.936883 
L 66.201047 47.779152 
L 65.90246 44.900722 
L 65.603872 42.022293 
L 65.092008 37.544736 
L 64.964042 36.265434 
L 64.921387 36.265434 
L 64.537489 32.107702 
L 64.494834 32.107702 
L 64.452178 31.787877 
L 64.324212 29.868923 
L 64.238902 29.868923 
L 64.110936 27.94997 
L 64.025625 27.94997 
L 64.025625 27.94997 
" clip-path="url(#p4c8b8acb6d)" style="fill: none; stroke-dasharray: 7.4,3.2; stroke-dashoffset: 0; stroke: #fa8072; stroke-width: 2"/>
   </g>
   <g id="line2d_38">
    <path d="M 405.225625 369.203783 
L 401.258679 369.203783 
L 401.130713 368.883958 
L 375.708135 368.883958 
L 375.580169 368.564132 
L 344.100534 368.564132 
L 343.972568 368.244307 
L 342.991496 368.244307 
L 342.86353 367.924481 
L 330.06693 367.924481 
L 329.938964 367.604656 
L 311.469205 367.604656 
L 311.341239 367.28483 
L 307.843502 367.28483 
L 307.715536 366.965005 
L 297.435601 366.965005 
L 297.307635 366.645179 
L 295.814699 366.645179 
L 295.686733 366.325354 
L 275.212173 366.325354 
L 275.084207 366.005528 
L 264.079132 366.005528 
L 263.951166 365.685703 
L 231.405147 365.685703 
L 231.277181 365.365877 
L 64.025625 365.365877 
L 64.025625 365.365877 
" clip-path="url(#p4c8b8acb6d)" style="fill: none; stroke-dasharray: 7.4,3.2; stroke-dashoffset: 0; stroke: #ff4500; stroke-width: 2"/>
   </g>
   <g id="line2d_39">
    <path d="M 405.225625 369.203783 
L 404.927038 369.203783 
L 404.799072 368.883958 
L 64.025625 368.883958 
L 64.025625 368.883958 
" clip-path="url(#p4c8b8acb6d)" style="fill: none; stroke-dasharray: 7.4,3.2; stroke-dashoffset: 0; stroke: #8b0000; stroke-width: 2"/>
   </g>
   <g id="line2d_40">
    <path d="M 405.225625 369.203783 
L 64.025625 369.203783 
L 64.025625 369.203783 
" clip-path="url(#p4c8b8acb6d)" style="fill: none; stroke-dasharray: 7.4,3.2; stroke-dashoffset: 0; stroke: #8b4513; stroke-width: 2"/>
   </g>
   <g id="patch_3">
    <path d="M 46.965625 386.266474 
L 46.965625 10.88728 
" style="fill: none; stroke: #000000; stroke-width: 0.8; stroke-linejoin: miter; stroke-linecap: square"/>
   </g>
   <g id="patch_4">
    <path d="M 422.285625 386.266474 
L 422.285625 10.88728 
" style="fill: none; stroke: #000000; stroke-width: 0.8; stroke-linejoin: miter; stroke-linecap: square"/>
   </g>
   <g id="patch_5">
    <path d="M 46.965625 386.266474 
L 422.285625 386.266474 
" style="fill: none; stroke: #000000; stroke-width: 0.8; stroke-linejoin: miter; stroke-linecap: square"/>
   </g>
   <g id="patch_6">
    <path d="M 46.965625 10.88728 
L 422.285625 10.88728 
" style="fill: none; stroke: #000000; stroke-width: 0.8; stroke-linejoin: miter; stroke-linecap: square"/>
   </g>
   <g id="legend_1">
    <g id="patch_7">
     <path d="M 429.285625 92.277905 
L 558.945 92.277905 
Q 560.945 92.277905 560.945 90.277905 
L 560.945 17.88728 
Q 560.945 15.88728 558.945 15.88728 
L 429.285625 15.88728 
Q 427.285625 15.88728 427.285625 17.88728 
L 427.285625 90.277905 
Q 427.285625 92.277905 429.285625 92.277905 
z
" style="fill: #ffffff; opacity: 0.8; stroke: #cccccc; stroke-linejoin: miter"/>
    </g>
    <g id="text_21">
     <!-- Motifs &amp; orientation -->
     <g transform="translate(444.599688 27.485717) scale(0.1 -0.1)">
      <defs>
       <path id="DejaVuSans-4d" d="M 628 4666 
L 1569 4666 
L 2759 1491 
L 3956 4666 
L 4897 4666 
L 4897 0 
L 4281 0 
L 4281 4097 
L 3078 897 
L 2444 897 
L 1241 4097 
L 1241 0 
L 628 0 
L 628 4666 
z
" transform="scale(0.015625)"/>
       <path id="DejaVuSans-26" d="M 1556 2509 
Q 1272 2256 1139 2004 
Q 1006 1753 1006 1478 
Q 1006 1022 1337 719 
Q 1669 416 2169 416 
Q 2466 416 2725 514 
Q 2984 613 3213 813 
L 1556 2509 
z
M 1997 2859 
L 3584 1234 
Q 3769 1513 3872 1830 
Q 3975 2147 3994 2503 
L 4575 2503 
Q 4538 2091 4375 1687 
Q 4213 1284 3922 891 
L 4794 0 
L 4006 0 
L 3559 459 
Q 3234 181 2878 45 
Q 2522 -91 2113 -91 
Q 1359 -91 881 339 
Q 403 769 403 1441 
Q 403 1841 612 2192 
Q 822 2544 1241 2853 
Q 1091 3050 1012 3245 
Q 934 3441 934 3628 
Q 934 4134 1281 4442 
Q 1628 4750 2203 4750 
Q 2463 4750 2720 4694 
Q 2978 4638 3244 4525 
L 3244 3956 
Q 2972 4103 2725 4179 
Q 2478 4256 2266 4256 
Q 1938 4256 1733 4082 
Q 1528 3909 1528 3634 
Q 1528 3475 1620 3314 
Q 1713 3153 1997 2859 
z
" transform="scale(0.015625)"/>
      </defs>
      <use xlink:href="#DejaVuSans-4d"/>
      <use xlink:href="#DejaVuSans-6f" transform="translate(86.279297 0)"/>
      <use xlink:href="#DejaVuSans-74" transform="translate(147.460938 0)"/>
      <use xlink:href="#DejaVuSans-69" transform="translate(186.669922 0)"/>
      <use xlink:href="#DejaVuSans-66" transform="translate(214.453125 0)"/>
      <use xlink:href="#DejaVuSans-73" transform="translate(249.658203 0)"/>
      <use xlink:href="#DejaVuSans-20" transform="translate(301.757812 0)"/>
      <use xlink:href="#DejaVuSans-26" transform="translate(333.544922 0)"/>
      <use xlink:href="#DejaVuSans-20" transform="translate(411.523438 0)"/>
      <use xlink:href="#DejaVuSans-6f" transform="translate(443.310547 0)"/>
      <use xlink:href="#DejaVuSans-72" transform="translate(504.492188 0)"/>
      <use xlink:href="#DejaVuSans-69" transform="translate(545.605469 0)"/>
      <use xlink:href="#DejaVuSans-65" transform="translate(573.388672 0)"/>
      <use xlink:href="#DejaVuSans-6e" transform="translate(634.912109 0)"/>
      <use xlink:href="#DejaVuSans-74" transform="translate(698.291016 0)"/>
      <use xlink:href="#DejaVuSans-61" transform="translate(737.5 0)"/>
      <use xlink:href="#DejaVuSans-74" transform="translate(798.779297 0)"/>
      <use xlink:href="#DejaVuSans-69" transform="translate(837.988281 0)"/>
      <use xlink:href="#DejaVuSans-6f" transform="translate(865.771484 0)"/>
      <use xlink:href="#DejaVuSans-6e" transform="translate(926.953125 0)"/>
     </g>
    </g>
    <g id="line2d_41">
     <path d="M 431.285625 38.663842 
L 441.285625 38.663842 
L 451.285625 38.663842 
" style="fill: none; stroke-dasharray: 7.4,3.2; stroke-dashoffset: 0; stroke: #fa8072; stroke-width: 2"/>
    </g>
    <g id="text_22">
     <!-- TTAGG (3' end) -->
     <g transform="translate(459.285625 42.163842) scale(0.1 -0.1)">
      <defs>
       <path id="DejaVuSans-54" d="M -19 4666 
L 3928 4666 
L 3928 4134 
L 2272 4134 
L 2272 0 
L 1638 0 
L 1638 4134 
L -19 4134 
L -19 4666 
z
" transform="scale(0.015625)"/>
       <path id="DejaVuSans-47" d="M 3809 666 
L 3809 1919 
L 2778 1919 
L 2778 2438 
L 4434 2438 
L 4434 434 
Q 4069 175 3628 42 
Q 3188 -91 2688 -91 
Q 1594 -91 976 548 
Q 359 1188 359 2328 
Q 359 3472 976 4111 
Q 1594 4750 2688 4750 
Q 3144 4750 3555 4637 
Q 3966 4525 4313 4306 
L 4313 3634 
Q 3963 3931 3569 4081 
Q 3175 4231 2741 4231 
Q 1884 4231 1454 3753 
Q 1025 3275 1025 2328 
Q 1025 1384 1454 906 
Q 1884 428 2741 428 
Q 3075 428 3337 486 
Q 3600 544 3809 666 
z
" transform="scale(0.015625)"/>
       <path id="DejaVuSans-28" d="M 1984 4856 
Q 1566 4138 1362 3434 
Q 1159 2731 1159 2009 
Q 1159 1288 1364 580 
Q 1569 -128 1984 -844 
L 1484 -844 
Q 1016 -109 783 600 
Q 550 1309 550 2009 
Q 550 2706 781 3412 
Q 1013 4119 1484 4856 
L 1984 4856 
z
" transform="scale(0.015625)"/>
       <path id="DejaVuSans-27" d="M 1147 4666 
L 1147 2931 
L 616 2931 
L 616 4666 
L 1147 4666 
z
" transform="scale(0.015625)"/>
       <path id="DejaVuSans-64" d="M 2906 2969 
L 2906 4863 
L 3481 4863 
L 3481 0 
L 2906 0 
L 2906 525 
Q 2725 213 2448 61 
Q 2172 -91 1784 -91 
Q 1150 -91 751 415 
Q 353 922 353 1747 
Q 353 2572 751 3078 
Q 1150 3584 1784 3584 
Q 2172 3584 2448 3432 
Q 2725 3281 2906 2969 
z
M 947 1747 
Q 947 1113 1208 752 
Q 1469 391 1925 391 
Q 2381 391 2643 752 
Q 2906 1113 2906 1747 
Q 2906 2381 2643 2742 
Q 2381 3103 1925 3103 
Q 1469 3103 1208 2742 
Q 947 2381 947 1747 
z
" transform="scale(0.015625)"/>
       <path id="DejaVuSans-29" d="M 513 4856 
L 1013 4856 
Q 1481 4119 1714 3412 
Q 1947 2706 1947 2009 
Q 1947 1309 1714 600 
Q 1481 -109 1013 -844 
L 513 -844 
Q 928 -128 1133 580 
Q 1338 1288 1338 2009 
Q 1338 2731 1133 3434 
Q 928 4138 513 4856 
z
" transform="scale(0.015625)"/>
      </defs>
      <use xlink:href="#DejaVuSans-54"/>
      <use xlink:href="#DejaVuSans-54" transform="translate(59.333984 0)"/>
      <use xlink:href="#DejaVuSans-41" transform="translate(112.667969 0)"/>
      <use xlink:href="#DejaVuSans-47" transform="translate(179.326172 0)"/>
      <use xlink:href="#DejaVuSans-47" transform="translate(256.816406 0)"/>
      <use xlink:href="#DejaVuSans-20" transform="translate(334.306641 0)"/>
      <use xlink:href="#DejaVuSans-28" transform="translate(366.09375 0)"/>
      <use xlink:href="#DejaVuSans-33" transform="translate(405.107422 0)"/>
      <use xlink:href="#DejaVuSans-27" transform="translate(468.730469 0)"/>
      <use xlink:href="#DejaVuSans-20" transform="translate(496.220703 0)"/>
      <use xlink:href="#DejaVuSans-65" transform="translate(528.007812 0)"/>
      <use xlink:href="#DejaVuSans-6e" transform="translate(589.53125 0)"/>
      <use xlink:href="#DejaVuSans-64" transform="translate(652.910156 0)"/>
      <use xlink:href="#DejaVuSans-29" transform="translate(716.386719 0)"/>
     </g>
    </g>
    <g id="line2d_42">
     <path d="M 431.285625 53.341967 
L 441.285625 53.341967 
L 451.285625 53.341967 
" style="fill: none; stroke-dasharray: 7.4,3.2; stroke-dashoffset: 0; stroke: #ff4500; stroke-width: 2"/>
    </g>
    <g id="text_23">
     <!-- TTATTG (3' end) -->
     <g transform="translate(459.285625 56.841967) scale(0.1 -0.1)">
      <use xlink:href="#DejaVuSans-54"/>
      <use xlink:href="#DejaVuSans-54" transform="translate(59.333984 0)"/>
      <use xlink:href="#DejaVuSans-41" transform="translate(112.667969 0)"/>
      <use xlink:href="#DejaVuSans-54" transform="translate(173.326172 0)"/>
      <use xlink:href="#DejaVuSans-54" transform="translate(232.660156 0)"/>
      <use xlink:href="#DejaVuSans-47" transform="translate(293.744141 0)"/>
      <use xlink:href="#DejaVuSans-20" transform="translate(371.234375 0)"/>
      <use xlink:href="#DejaVuSans-28" transform="translate(403.021484 0)"/>
      <use xlink:href="#DejaVuSans-33" transform="translate(442.035156 0)"/>
      <use xlink:href="#DejaVuSans-27" transform="translate(505.658203 0)"/>
      <use xlink:href="#DejaVuSans-20" transform="translate(533.148438 0)"/>
      <use xlink:href="#DejaVuSans-65" transform="translate(564.935547 0)"/>
      <use xlink:href="#DejaVuSans-6e" transform="translate(626.458984 0)"/>
      <use xlink:href="#DejaVuSans-64" transform="translate(689.837891 0)"/>
      <use xlink:href="#DejaVuSans-29" transform="translate(753.314453 0)"/>
     </g>
    </g>
    <g id="line2d_43">
     <path d="M 431.285625 68.020092 
L 441.285625 68.020092 
L 451.285625 68.020092 
" style="fill: none; stroke-dasharray: 7.4,3.2; stroke-dashoffset: 0; stroke: #8b0000; stroke-width: 2"/>
    </g>
    <g id="text_24">
     <!-- TTTCAG (3' end) -->
     <g transform="translate(459.285625 71.520092) scale(0.1 -0.1)">
      <defs>
       <path id="DejaVuSans-43" d="M 4122 4306 
L 4122 3641 
Q 3803 3938 3442 4084 
Q 3081 4231 2675 4231 
Q 1875 4231 1450 3742 
Q 1025 3253 1025 2328 
Q 1025 1406 1450 917 
Q 1875 428 2675 428 
Q 3081 428 3442 575 
Q 3803 722 4122 1019 
L 4122 359 
Q 3791 134 3420 21 
Q 3050 -91 2638 -91 
Q 1578 -91 968 557 
Q 359 1206 359 2328 
Q 359 3453 968 4101 
Q 1578 4750 2638 4750 
Q 3056 4750 3426 4639 
Q 3797 4528 4122 4306 
z
" transform="scale(0.015625)"/>
      </defs>
      <use xlink:href="#DejaVuSans-54"/>
      <use xlink:href="#DejaVuSans-54" transform="translate(59.333984 0)"/>
      <use xlink:href="#DejaVuSans-54" transform="translate(118.667969 0)"/>
      <use xlink:href="#DejaVuSans-43" transform="translate(173.876953 0)"/>
      <use xlink:href="#DejaVuSans-41" transform="translate(243.701172 0)"/>
      <use xlink:href="#DejaVuSans-47" transform="translate(310.359375 0)"/>
      <use xlink:href="#DejaVuSans-20" transform="translate(387.849609 0)"/>
      <use xlink:href="#DejaVuSans-28" transform="translate(419.636719 0)"/>
      <use xlink:href="#DejaVuSans-33" transform="translate(458.650391 0)"/>
      <use xlink:href="#DejaVuSans-27" transform="translate(522.273438 0)"/>
      <use xlink:href="#DejaVuSans-20" transform="translate(549.763672 0)"/>
      <use xlink:href="#DejaVuSans-65" transform="translate(581.550781 0)"/>
      <use xlink:href="#DejaVuSans-6e" transform="translate(643.074219 0)"/>
      <use xlink:href="#DejaVuSans-64" transform="translate(706.453125 0)"/>
      <use xlink:href="#DejaVuSans-29" transform="translate(769.929688 0)"/>
     </g>
    </g>
    <g id="line2d_44">
     <path d="M 431.285625 82.698217 
L 441.285625 82.698217 
L 451.285625 82.698217 
" style="fill: none; stroke-dasharray: 7.4,3.2; stroke-dashoffset: 0; stroke: #8b4513; stroke-width: 2"/>
    </g>
    <g id="text_25">
     <!-- TTGAAAAG (3' end) -->
     <g transform="translate(459.285625 86.198217) scale(0.1 -0.1)">
      <use xlink:href="#DejaVuSans-54"/>
      <use xlink:href="#DejaVuSans-54" transform="translate(59.333984 0)"/>
      <use xlink:href="#DejaVuSans-47" transform="translate(120.417969 0)"/>
      <use xlink:href="#DejaVuSans-41" transform="translate(197.908203 0)"/>
      <use xlink:href="#DejaVuSans-41" transform="translate(269.066406 0)"/>
      <use xlink:href="#DejaVuSans-41" transform="translate(340.224609 0)"/>
      <use xlink:href="#DejaVuSans-41" transform="translate(411.382812 0)"/>
      <use xlink:href="#DejaVuSans-47" transform="translate(478.041016 0)"/>
      <use xlink:href="#DejaVuSans-20" transform="translate(555.53125 0)"/>
      <use xlink:href="#DejaVuSans-28" transform="translate(587.318359 0)"/>
      <use xlink:href="#DejaVuSans-33" transform="translate(626.332031 0)"/>
      <use xlink:href="#DejaVuSans-27" transform="translate(689.955078 0)"/>
      <use xlink:href="#DejaVuSans-20" transform="translate(717.445312 0)"/>
      <use xlink:href="#DejaVuSans-65" transform="translate(749.232422 0)"/>
      <use xlink:href="#DejaVuSans-6e" transform="translate(810.755859 0)"/>
      <use xlink:href="#DejaVuSans-64" transform="translate(874.134766 0)"/>
      <use xlink:href="#DejaVuSans-29" transform="translate(937.611328 0)"/>
     </g>
    </g>
   </g>
  </g>
 </g>
 <defs>
  <clipPath id="p4c8b8acb6d">
   <rect x="46.965625" y="10.88728" width="375.32" height="375.379194"/>
  </clipPath>
 </defs>
</svg>
