<?xml version="1.0" encoding="utf-8" standalone="no"?>
<!DOCTYPE svg PUBLIC "-//W3C//DTD SVG 1.1//EN"
  "http://www.w3.org/Graphics/SVG/1.1/DTD/svg11.dtd">
<svg xmlns:xlink="http://www.w3.org/1999/xlink" width="567.885625pt" height="423.99625pt" viewBox="0 0 567.885625 423.99625" xmlns="http://www.w3.org/2000/svg" version="1.1">
 <metadata>
  <rdf:RDF xmlns:dc="http://purl.org/dc/elements/1.1/" xmlns:cc="http://creativecommons.org/ns#" xmlns:rdf="http://www.w3.org/1999/02/22-rdf-syntax-ns#">
   <cc:Work>
    <dc:type rdf:resource="http://purl.org/dc/dcmitype/StillImage"/>
    <dc:date>2026-04-30T15:17:45.395425</dc:date>
    <dc:format>image/svg+xml</dc:format>
    <dc:creator>
     <cc:Agent>
      <dc:title>Matplotlib v3.10.6, https://matplotlib.org/</dc:title>
     </cc:Agent>
    </dc:creator>
   </cc:Work>
  </rdf:RDF>
 </metadata>
 <defs>
  <style type="text/css">*{stroke-linejoin: round; stroke-linecap: butt}</style>
 </defs>
 <g id="figure_1">
  <g id="patch_1">
   <path d="M 0 423.99625 
L 567.885625 423.99625 
L 567.885625 0 
L 0 0 
z
" style="fill: #ffffff"/>
  </g>
  <g id="axes_1">
   <g id="patch_2">
    <path d="M 46.965625 386.44 
L 426.335625 386.44 
L 426.335625 7.2 
L 46.965625 7.2 
z
" style="fill: #ffffff"/>
   </g>
   <g id="matplotlib.axis_1">
    <g id="xtick_1">
     <g id="line2d_1">
      <path d="M 64.209716 386.44 
L 64.209716 7.2 
" clip-path="url(#pf1f451321a)" style="fill: none; stroke-dasharray: 2.96,1.28; stroke-dashoffset: 0; stroke: #b0b0b0; stroke-opacity: 0.6; stroke-width: 0.8"/>
     </g>
     <g id="line2d_2">
      <defs>
       <path id="m73a4352310" d="M 0 0 
L 0 3.5 
" style="stroke: #000000; stroke-width: 0.8"/>
      </defs>
      <g>
       <use xlink:href="#m73a4352310" x="64.209716" y="386.44" style="stroke: #000000; stroke-width: 0.8"/>
      </g>
     </g>
     <g id="text_1">
      <!-- 0 -->
      <g transform="translate(61.028466 401.038437) scale(0.1 -0.1)">
       <defs>
        <path id="DejaVuSans-30" d="M 2034 4250 
Q 1547 4250 1301 3770 
Q 1056 3291 1056 2328 
Q 1056 1369 1301 889 
Q 1547 409 2034 409 
Q 2525 409 2770 889 
Q 3016 1369 3016 2328 
Q 3016 3291 2770 3770 
Q 2525 4250 2034 4250 
z
M 2034 4750 
Q 2819 4750 3233 4129 
Q 3647 3509 3647 2328 
Q 3647 1150 3233 529 
Q 2819 -91 2034 -91 
Q 1250 -91 836 529 
Q 422 1150 422 2328 
Q 422 3509 836 4129 
Q 1250 4750 2034 4750 
z
" transform="scale(0.015625)"/>
       </defs>
       <use xlink:href="#DejaVuSans-30"/>
      </g>
     </g>
    </g>
    <g id="xtick_2">
     <g id="line2d_3">
      <path d="M 107.325333 386.44 
L 107.325333 7.2 
" clip-path="url(#pf1f451321a)" style="fill: none; stroke-dasharray: 2.96,1.28; stroke-dashoffset: 0; stroke: #b0b0b0; stroke-opacity: 0.6; stroke-width: 0.8"/>
     </g>
     <g id="line2d_4">
      <g>
       <use xlink:href="#m73a4352310" x="107.325333" y="386.44" style="stroke: #000000; stroke-width: 0.8"/>
      </g>
     </g>
     <g id="text_2">
      <!-- 1000 -->
      <g transform="translate(94.600333 401.038437) scale(0.1 -0.1)">
       <defs>
        <path id="DejaVuSans-31" d="M 794 531 
L 1825 531 
L 1825 4091 
L 703 3866 
L 703 4441 
L 1819 4666 
L 2450 4666 
L 2450 531 
L 3481 531 
L 3481 0 
L 794 0 
L 794 531 
z
" transform="scale(0.015625)"/>
       </defs>
       <use xlink:href="#DejaVuSans-31"/>
       <use xlink:href="#DejaVuSans-30" transform="translate(63.623047 0)"/>
       <use xlink:href="#DejaVuSans-30" transform="translate(127.246094 0)"/>
       <use xlink:href="#DejaVuSans-30" transform="translate(190.869141 0)"/>
      </g>
     </g>
    </g>
    <g id="xtick_3">
     <g id="line2d_5">
      <path d="M 150.440949 386.44 
L 150.440949 7.2 
" clip-path="url(#pf1f451321a)" style="fill: none; stroke-dasharray: 2.96,1.28; stroke-dashoffset: 0; stroke: #b0b0b0; stroke-opacity: 0.6; stroke-width: 0.8"/>
     </g>
     <g id="line2d_6">
      <g>
       <use xlink:href="#m73a4352310" x="150.440949" y="386.44" style="stroke: #000000; stroke-width: 0.8"/>
      </g>
     </g>
     <g id="text_3">
      <!-- 2000 -->
      <g transform="translate(137.715949 401.038437) scale(0.1 -0.1)">
       <defs>
        <path id="DejaVuSans-32" d="M 1228 531 
L 3431 531 
L 3431 0 
L 469 0 
L 469 531 
Q 828 903 1448 1529 
Q 2069 2156 2228 2338 
Q 2531 2678 2651 2914 
Q 2772 3150 2772 3378 
Q 2772 3750 2511 3984 
Q 2250 4219 1831 4219 
Q 1534 4219 1204 4116 
Q 875 4013 500 3803 
L 500 4441 
Q 881 4594 1212 4672 
Q 1544 4750 1819 4750 
Q 2544 4750 2975 4387 
Q 3406 4025 3406 3419 
Q 3406 3131 3298 2873 
Q 3191 2616 2906 2266 
Q 2828 2175 2409 1742 
Q 1991 1309 1228 531 
z
" transform="scale(0.015625)"/>
       </defs>
       <use xlink:href="#DejaVuSans-32"/>
       <use xlink:href="#DejaVuSans-30" transform="translate(63.623047 0)"/>
       <use xlink:href="#DejaVuSans-30" transform="translate(127.246094 0)"/>
       <use xlink:href="#DejaVuSans-30" transform="translate(190.869141 0)"/>
      </g>
     </g>
    </g>
    <g id="xtick_4">
     <g id="line2d_7">
      <path d="M 193.556566 386.44 
L 193.556566 7.2 
" clip-path="url(#pf1f451321a)" style="fill: none; stroke-dasharray: 2.96,1.28; stroke-dashoffset: 0; stroke: #b0b0b0; stroke-opacity: 0.6; stroke-width: 0.8"/>
     </g>
     <g id="line2d_8">
      <g>
       <use xlink:href="#m73a4352310" x="193.556566" y="386.44" style="stroke: #000000; stroke-width: 0.8"/>
      </g>
     </g>
     <g id="text_4">
      <!-- 3000 -->
      <g transform="translate(180.831566 401.038437) scale(0.1 -0.1)">
       <defs>
        <path id="DejaVuSans-33" d="M 2597 2516 
Q 3050 2419 3304 2112 
Q 3559 1806 3559 1356 
Q 3559 666 3084 287 
Q 2609 -91 1734 -91 
Q 1441 -91 1130 -33 
Q 819 25 488 141 
L 488 750 
Q 750 597 1062 519 
Q 1375 441 1716 441 
Q 2309 441 2620 675 
Q 2931 909 2931 1356 
Q 2931 1769 2642 2001 
Q 2353 2234 1838 2234 
L 1294 2234 
L 1294 2753 
L 1863 2753 
Q 2328 2753 2575 2939 
Q 2822 3125 2822 3475 
Q 2822 3834 2567 4026 
Q 2313 4219 1838 4219 
Q 1578 4219 1281 4162 
Q 984 4106 628 3988 
L 628 4550 
Q 988 4650 1302 4700 
Q 1616 4750 1894 4750 
Q 2613 4750 3031 4423 
Q 3450 4097 3450 3541 
Q 3450 3153 3228 2886 
Q 3006 2619 2597 2516 
z
" transform="scale(0.015625)"/>
       </defs>
       <use xlink:href="#DejaVuSans-33"/>
       <use xlink:href="#DejaVuSans-30" transform="translate(63.623047 0)"/>
       <use xlink:href="#DejaVuSans-30" transform="translate(127.246094 0)"/>
       <use xlink:href="#DejaVuSans-30" transform="translate(190.869141 0)"/>
      </g>
     </g>
    </g>
    <g id="xtick_5">
     <g id="line2d_9">
      <path d="M 236.672183 386.44 
L 236.672183 7.2 
" clip-path="url(#pf1f451321a)" style="fill: none; stroke-dasharray: 2.96,1.28; stroke-dashoffset: 0; stroke: #b0b0b0; stroke-opacity: 0.6; stroke-width: 0.8"/>
     </g>
     <g id="line2d_10">
      <g>
       <use xlink:href="#m73a4352310" x="236.672183" y="386.44" style="stroke: #000000; stroke-width: 0.8"/>
      </g>
     </g>
     <g id="text_5">
      <!-- 4000 -->
      <g transform="translate(223.947183 401.038437) scale(0.1 -0.1)">
       <defs>
        <path id="DejaVuSans-34" d="M 2419 4116 
L 825 1625 
L 2419 1625 
L 2419 4116 
z
M 2253 4666 
L 3047 4666 
L 3047 1625 
L 3713 1625 
L 3713 1100 
L 3047 1100 
L 3047 0 
L 2419 0 
L 2419 1100 
L 313 1100 
L 313 1709 
L 2253 4666 
z
" transform="scale(0.015625)"/>
       </defs>
       <use xlink:href="#DejaVuSans-34"/>
       <use xlink:href="#DejaVuSans-30" transform="translate(63.623047 0)"/>
       <use xlink:href="#DejaVuSans-30" transform="translate(127.246094 0)"/>
       <use xlink:href="#DejaVuSans-30" transform="translate(190.869141 0)"/>
      </g>
     </g>
    </g>
    <g id="xtick_6">
     <g id="line2d_11">
      <path d="M 279.7878 386.44 
L 279.7878 7.2 
" clip-path="url(#pf1f451321a)" style="fill: none; stroke-dasharray: 2.96,1.28; stroke-dashoffset: 0; stroke: #b0b0b0; stroke-opacity: 0.6; stroke-width: 0.8"/>
     </g>
     <g id="line2d_12">
      <g>
       <use xlink:href="#m73a4352310" x="279.7878" y="386.44" style="stroke: #000000; stroke-width: 0.8"/>
      </g>
     </g>
     <g id="text_6">
      <!-- 5000 -->
      <g transform="translate(267.0628 401.038437) scale(0.1 -0.1)">
       <defs>
        <path id="DejaVuSans-35" d="M 691 4666 
L 3169 4666 
L 3169 4134 
L 1269 4134 
L 1269 2991 
Q 1406 3038 1543 3061 
Q 1681 3084 1819 3084 
Q 2600 3084 3056 2656 
Q 3513 2228 3513 1497 
Q 3513 744 3044 326 
Q 2575 -91 1722 -91 
Q 1428 -91 1123 -41 
Q 819 9 494 109 
L 494 744 
Q 775 591 1075 516 
Q 1375 441 1709 441 
Q 2250 441 2565 725 
Q 2881 1009 2881 1497 
Q 2881 1984 2565 2268 
Q 2250 2553 1709 2553 
Q 1456 2553 1204 2497 
Q 953 2441 691 2322 
L 691 4666 
z
" transform="scale(0.015625)"/>
       </defs>
       <use xlink:href="#DejaVuSans-35"/>
       <use xlink:href="#DejaVuSans-30" transform="translate(63.623047 0)"/>
       <use xlink:href="#DejaVuSans-30" transform="translate(127.246094 0)"/>
       <use xlink:href="#DejaVuSans-30" transform="translate(190.869141 0)"/>
      </g>
     </g>
    </g>
    <g id="xtick_7">
     <g id="line2d_13">
      <path d="M 322.903416 386.44 
L 322.903416 7.2 
" clip-path="url(#pf1f451321a)" style="fill: none; stroke-dasharray: 2.96,1.28; stroke-dashoffset: 0; stroke: #b0b0b0; stroke-opacity: 0.6; stroke-width: 0.8"/>
     </g>
     <g id="line2d_14">
      <g>
       <use xlink:href="#m73a4352310" x="322.903416" y="386.44" style="stroke: #000000; stroke-width: 0.8"/>
      </g>
     </g>
     <g id="text_7">
      <!-- 6000 -->
      <g transform="translate(310.178416 401.038437) scale(0.1 -0.1)">
       <defs>
        <path id="DejaVuSans-36" d="M 2113 2584 
Q 1688 2584 1439 2293 
Q 1191 2003 1191 1497 
Q 1191 994 1439 701 
Q 1688 409 2113 409 
Q 2538 409 2786 701 
Q 3034 994 3034 1497 
Q 3034 2003 2786 2293 
Q 2538 2584 2113 2584 
z
M 3366 4563 
L 3366 3988 
Q 3128 4100 2886 4159 
Q 2644 4219 2406 4219 
Q 1781 4219 1451 3797 
Q 1122 3375 1075 2522 
Q 1259 2794 1537 2939 
Q 1816 3084 2150 3084 
Q 2853 3084 3261 2657 
Q 3669 2231 3669 1497 
Q 3669 778 3244 343 
Q 2819 -91 2113 -91 
Q 1303 -91 875 529 
Q 447 1150 447 2328 
Q 447 3434 972 4092 
Q 1497 4750 2381 4750 
Q 2619 4750 2861 4703 
Q 3103 4656 3366 4563 
z
" transform="scale(0.015625)"/>
       </defs>
       <use xlink:href="#DejaVuSans-36"/>
       <use xlink:href="#DejaVuSans-30" transform="translate(63.623047 0)"/>
       <use xlink:href="#DejaVuSans-30" transform="translate(127.246094 0)"/>
       <use xlink:href="#DejaVuSans-30" transform="translate(190.869141 0)"/>
      </g>
     </g>
    </g>
    <g id="xtick_8">
     <g id="line2d_15">
      <path d="M 366.019033 386.44 
L 366.019033 7.2 
" clip-path="url(#pf1f451321a)" style="fill: none; stroke-dasharray: 2.96,1.28; stroke-dashoffset: 0; stroke: #b0b0b0; stroke-opacity: 0.6; stroke-width: 0.8"/>
     </g>
     <g id="line2d_16">
      <g>
       <use xlink:href="#m73a4352310" x="366.019033" y="386.44" style="stroke: #000000; stroke-width: 0.8"/>
      </g>
     </g>
     <g id="text_8">
      <!-- 7000 -->
      <g transform="translate(353.294033 401.038437) scale(0.1 -0.1)">
       <defs>
        <path id="DejaVuSans-37" d="M 525 4666 
L 3525 4666 
L 3525 4397 
L 1831 0 
L 1172 0 
L 2766 4134 
L 525 4134 
L 525 4666 
z
" transform="scale(0.015625)"/>
       </defs>
       <use xlink:href="#DejaVuSans-37"/>
       <use xlink:href="#DejaVuSans-30" transform="translate(63.623047 0)"/>
       <use xlink:href="#DejaVuSans-30" transform="translate(127.246094 0)"/>
       <use xlink:href="#DejaVuSans-30" transform="translate(190.869141 0)"/>
      </g>
     </g>
    </g>
    <g id="xtick_9">
     <g id="line2d_17">
      <path d="M 409.13465 386.44 
L 409.13465 7.2 
" clip-path="url(#pf1f451321a)" style="fill: none; stroke-dasharray: 2.96,1.28; stroke-dashoffset: 0; stroke: #b0b0b0; stroke-opacity: 0.6; stroke-width: 0.8"/>
     </g>
     <g id="line2d_18">
      <g>
       <use xlink:href="#m73a4352310" x="409.13465" y="386.44" style="stroke: #000000; stroke-width: 0.8"/>
      </g>
     </g>
     <g id="text_9">
      <!-- 8000 -->
      <g transform="translate(396.40965 401.038437) scale(0.1 -0.1)">
       <defs>
        <path id="DejaVuSans-38" d="M 2034 2216 
Q 1584 2216 1326 1975 
Q 1069 1734 1069 1313 
Q 1069 891 1326 650 
Q 1584 409 2034 409 
Q 2484 409 2743 651 
Q 3003 894 3003 1313 
Q 3003 1734 2745 1975 
Q 2488 2216 2034 2216 
z
M 1403 2484 
Q 997 2584 770 2862 
Q 544 3141 544 3541 
Q 544 4100 942 4425 
Q 1341 4750 2034 4750 
Q 2731 4750 3128 4425 
Q 3525 4100 3525 3541 
Q 3525 3141 3298 2862 
Q 3072 2584 2669 2484 
Q 3125 2378 3379 2068 
Q 3634 1759 3634 1313 
Q 3634 634 3220 271 
Q 2806 -91 2034 -91 
Q 1263 -91 848 271 
Q 434 634 434 1313 
Q 434 1759 690 2068 
Q 947 2378 1403 2484 
z
M 1172 3481 
Q 1172 3119 1398 2916 
Q 1625 2713 2034 2713 
Q 2441 2713 2670 2916 
Q 2900 3119 2900 3481 
Q 2900 3844 2670 4047 
Q 2441 4250 2034 4250 
Q 1625 4250 1398 4047 
Q 1172 3844 1172 3481 
z
" transform="scale(0.015625)"/>
       </defs>
       <use xlink:href="#DejaVuSans-38"/>
       <use xlink:href="#DejaVuSans-30" transform="translate(63.623047 0)"/>
       <use xlink:href="#DejaVuSans-30" transform="translate(127.246094 0)"/>
       <use xlink:href="#DejaVuSans-30" transform="translate(190.869141 0)"/>
      </g>
     </g>
    </g>
    <g id="text_10">
     <!-- Distance from terminus [nt] -->
     <g transform="translate(167.151406 414.716562) scale(0.1 -0.1)">
      <defs>
       <path id="DejaVuSans-44" d="M 1259 4147 
L 1259 519 
L 2022 519 
Q 2988 519 3436 956 
Q 3884 1394 3884 2338 
Q 3884 3275 3436 3711 
Q 2988 4147 2022 4147 
L 1259 4147 
z
M 628 4666 
L 1925 4666 
Q 3281 4666 3915 4102 
Q 4550 3538 4550 2338 
Q 4550 1131 3912 565 
Q 3275 0 1925 0 
L 628 0 
L 628 4666 
z
" transform="scale(0.015625)"/>
       <path id="DejaVuSans-69" d="M 603 3500 
L 1178 3500 
L 1178 0 
L 603 0 
L 603 3500 
z
M 603 4863 
L 1178 4863 
L 1178 4134 
L 603 4134 
L 603 4863 
z
" transform="scale(0.015625)"/>
       <path id="DejaVuSans-73" d="M 2834 3397 
L 2834 2853 
Q 2591 2978 2328 3040 
Q 2066 3103 1784 3103 
Q 1356 3103 1142 2972 
Q 928 2841 928 2578 
Q 928 2378 1081 2264 
Q 1234 2150 1697 2047 
L 1894 2003 
Q 2506 1872 2764 1633 
Q 3022 1394 3022 966 
Q 3022 478 2636 193 
Q 2250 -91 1575 -91 
Q 1294 -91 989 -36 
Q 684 19 347 128 
L 347 722 
Q 666 556 975 473 
Q 1284 391 1588 391 
Q 1994 391 2212 530 
Q 2431 669 2431 922 
Q 2431 1156 2273 1281 
Q 2116 1406 1581 1522 
L 1381 1569 
Q 847 1681 609 1914 
Q 372 2147 372 2553 
Q 372 3047 722 3315 
Q 1072 3584 1716 3584 
Q 2034 3584 2315 3537 
Q 2597 3491 2834 3397 
z
" transform="scale(0.015625)"/>
       <path id="DejaVuSans-74" d="M 1172 4494 
L 1172 3500 
L 2356 3500 
L 2356 3053 
L 1172 3053 
L 1172 1153 
Q 1172 725 1289 603 
Q 1406 481 1766 481 
L 2356 481 
L 2356 0 
L 1766 0 
Q 1100 0 847 248 
Q 594 497 594 1153 
L 594 3053 
L 172 3053 
L 172 3500 
L 594 3500 
L 594 4494 
L 1172 4494 
z
" transform="scale(0.015625)"/>
       <path id="DejaVuSans-61" d="M 2194 1759 
Q 1497 1759 1228 1600 
Q 959 1441 959 1056 
Q 959 750 1161 570 
Q 1363 391 1709 391 
Q 2188 391 2477 730 
Q 2766 1069 2766 1631 
L 2766 1759 
L 2194 1759 
z
M 3341 1997 
L 3341 0 
L 2766 0 
L 2766 531 
Q 2569 213 2275 61 
Q 1981 -91 1556 -91 
Q 1019 -91 701 211 
Q 384 513 384 1019 
Q 384 1609 779 1909 
Q 1175 2209 1959 2209 
L 2766 2209 
L 2766 2266 
Q 2766 2663 2505 2880 
Q 2244 3097 1772 3097 
Q 1472 3097 1187 3025 
Q 903 2953 641 2809 
L 641 3341 
Q 956 3463 1253 3523 
Q 1550 3584 1831 3584 
Q 2591 3584 2966 3190 
Q 3341 2797 3341 1997 
z
" transform="scale(0.015625)"/>
       <path id="DejaVuSans-6e" d="M 3513 2113 
L 3513 0 
L 2938 0 
L 2938 2094 
Q 2938 2591 2744 2837 
Q 2550 3084 2163 3084 
Q 1697 3084 1428 2787 
Q 1159 2491 1159 1978 
L 1159 0 
L 581 0 
L 581 3500 
L 1159 3500 
L 1159 2956 
Q 1366 3272 1645 3428 
Q 1925 3584 2291 3584 
Q 2894 3584 3203 3211 
Q 3513 2838 3513 2113 
z
" transform="scale(0.015625)"/>
       <path id="DejaVuSans-63" d="M 3122 3366 
L 3122 2828 
Q 2878 2963 2633 3030 
Q 2388 3097 2138 3097 
Q 1578 3097 1268 2742 
Q 959 2388 959 1747 
Q 959 1106 1268 751 
Q 1578 397 2138 397 
Q 2388 397 2633 464 
Q 2878 531 3122 666 
L 3122 134 
Q 2881 22 2623 -34 
Q 2366 -91 2075 -91 
Q 1284 -91 818 406 
Q 353 903 353 1747 
Q 353 2603 823 3093 
Q 1294 3584 2113 3584 
Q 2378 3584 2631 3529 
Q 2884 3475 3122 3366 
z
" transform="scale(0.015625)"/>
       <path id="DejaVuSans-65" d="M 3597 1894 
L 3597 1613 
L 953 1613 
Q 991 1019 1311 708 
Q 1631 397 2203 397 
Q 2534 397 2845 478 
Q 3156 559 3463 722 
L 3463 178 
Q 3153 47 2828 -22 
Q 2503 -91 2169 -91 
Q 1331 -91 842 396 
Q 353 884 353 1716 
Q 353 2575 817 3079 
Q 1281 3584 2069 3584 
Q 2775 3584 3186 3129 
Q 3597 2675 3597 1894 
z
M 3022 2063 
Q 3016 2534 2758 2815 
Q 2500 3097 2075 3097 
Q 1594 3097 1305 2825 
Q 1016 2553 972 2059 
L 3022 2063 
z
" transform="scale(0.015625)"/>
       <path id="DejaVuSans-20" transform="scale(0.015625)"/>
       <path id="DejaVuSans-66" d="M 2375 4863 
L 2375 4384 
L 1825 4384 
Q 1516 4384 1395 4259 
Q 1275 4134 1275 3809 
L 1275 3500 
L 2222 3500 
L 2222 3053 
L 1275 3053 
L 1275 0 
L 697 0 
L 697 3053 
L 147 3053 
L 147 3500 
L 697 3500 
L 697 3744 
Q 697 4328 969 4595 
Q 1241 4863 1831 4863 
L 2375 4863 
z
" transform="scale(0.015625)"/>
       <path id="DejaVuSans-72" d="M 2631 2963 
Q 2534 3019 2420 3045 
Q 2306 3072 2169 3072 
Q 1681 3072 1420 2755 
Q 1159 2438 1159 1844 
L 1159 0 
L 581 0 
L 581 3500 
L 1159 3500 
L 1159 2956 
Q 1341 3275 1631 3429 
Q 1922 3584 2338 3584 
Q 2397 3584 2469 3576 
Q 2541 3569 2628 3553 
L 2631 2963 
z
" transform="scale(0.015625)"/>
       <path id="DejaVuSans-6f" d="M 1959 3097 
Q 1497 3097 1228 2736 
Q 959 2375 959 1747 
Q 959 1119 1226 758 
Q 1494 397 1959 397 
Q 2419 397 2687 759 
Q 2956 1122 2956 1747 
Q 2956 2369 2687 2733 
Q 2419 3097 1959 3097 
z
M 1959 3584 
Q 2709 3584 3137 3096 
Q 3566 2609 3566 1747 
Q 3566 888 3137 398 
Q 2709 -91 1959 -91 
Q 1206 -91 779 398 
Q 353 888 353 1747 
Q 353 2609 779 3096 
Q 1206 3584 1959 3584 
z
" transform="scale(0.015625)"/>
       <path id="DejaVuSans-6d" d="M 3328 2828 
Q 3544 3216 3844 3400 
Q 4144 3584 4550 3584 
Q 5097 3584 5394 3201 
Q 5691 2819 5691 2113 
L 5691 0 
L 5113 0 
L 5113 2094 
Q 5113 2597 4934 2840 
Q 4756 3084 4391 3084 
Q 3944 3084 3684 2787 
Q 3425 2491 3425 1978 
L 3425 0 
L 2847 0 
L 2847 2094 
Q 2847 2600 2669 2842 
Q 2491 3084 2119 3084 
Q 1678 3084 1418 2786 
Q 1159 2488 1159 1978 
L 1159 0 
L 581 0 
L 581 3500 
L 1159 3500 
L 1159 2956 
Q 1356 3278 1631 3431 
Q 1906 3584 2284 3584 
Q 2666 3584 2933 3390 
Q 3200 3197 3328 2828 
z
" transform="scale(0.015625)"/>
       <path id="DejaVuSans-75" d="M 544 1381 
L 544 3500 
L 1119 3500 
L 1119 1403 
Q 1119 906 1312 657 
Q 1506 409 1894 409 
Q 2359 409 2629 706 
Q 2900 1003 2900 1516 
L 2900 3500 
L 3475 3500 
L 3475 0 
L 2900 0 
L 2900 538 
Q 2691 219 2414 64 
Q 2138 -91 1772 -91 
Q 1169 -91 856 284 
Q 544 659 544 1381 
z
M 1991 3584 
L 1991 3584 
z
" transform="scale(0.015625)"/>
       <path id="DejaVuSans-5b" d="M 550 4863 
L 1875 4863 
L 1875 4416 
L 1125 4416 
L 1125 -397 
L 1875 -397 
L 1875 -844 
L 550 -844 
L 550 4863 
z
" transform="scale(0.015625)"/>
       <path id="DejaVuSans-5d" d="M 1947 4863 
L 1947 -844 
L 622 -844 
L 622 -397 
L 1369 -397 
L 1369 4416 
L 622 4416 
L 622 4863 
L 1947 4863 
z
" transform="scale(0.015625)"/>
      </defs>
      <use xlink:href="#DejaVuSans-44"/>
      <use xlink:href="#DejaVuSans-69" transform="translate(77.001953 0)"/>
      <use xlink:href="#DejaVuSans-73" transform="translate(104.785156 0)"/>
      <use xlink:href="#DejaVuSans-74" transform="translate(156.884766 0)"/>
      <use xlink:href="#DejaVuSans-61" transform="translate(196.09375 0)"/>
      <use xlink:href="#DejaVuSans-6e" transform="translate(257.373047 0)"/>
      <use xlink:href="#DejaVuSans-63" transform="translate(320.751953 0)"/>
      <use xlink:href="#DejaVuSans-65" transform="translate(375.732422 0)"/>
      <use xlink:href="#DejaVuSans-20" transform="translate(437.255859 0)"/>
      <use xlink:href="#DejaVuSans-66" transform="translate(469.042969 0)"/>
      <use xlink:href="#DejaVuSans-72" transform="translate(504.248047 0)"/>
      <use xlink:href="#DejaVuSans-6f" transform="translate(543.111328 0)"/>
      <use xlink:href="#DejaVuSans-6d" transform="translate(604.292969 0)"/>
      <use xlink:href="#DejaVuSans-20" transform="translate(701.705078 0)"/>
      <use xlink:href="#DejaVuSans-74" transform="translate(733.492188 0)"/>
      <use xlink:href="#DejaVuSans-65" transform="translate(772.701172 0)"/>
      <use xlink:href="#DejaVuSans-72" transform="translate(834.224609 0)"/>
      <use xlink:href="#DejaVuSans-6d" transform="translate(873.587891 0)"/>
      <use xlink:href="#DejaVuSans-69" transform="translate(971 0)"/>
      <use xlink:href="#DejaVuSans-6e" transform="translate(998.783203 0)"/>
      <use xlink:href="#DejaVuSans-75" transform="translate(1062.162109 0)"/>
      <use xlink:href="#DejaVuSans-73" transform="translate(1125.541016 0)"/>
      <use xlink:href="#DejaVuSans-20" transform="translate(1177.640625 0)"/>
      <use xlink:href="#DejaVuSans-5b" transform="translate(1209.427734 0)"/>
      <use xlink:href="#DejaVuSans-6e" transform="translate(1248.441406 0)"/>
      <use xlink:href="#DejaVuSans-74" transform="translate(1311.820312 0)"/>
      <use xlink:href="#DejaVuSans-5d" transform="translate(1351.029297 0)"/>
     </g>
    </g>
   </g>
   <g id="matplotlib.axis_2">
    <g id="ytick_1">
     <g id="line2d_19">
      <path d="M 46.965625 369.201818 
L 426.335625 369.201818 
" clip-path="url(#pf1f451321a)" style="fill: none; stroke-dasharray: 2.96,1.28; stroke-dashoffset: 0; stroke: #b0b0b0; stroke-opacity: 0.6; stroke-width: 0.8"/>
     </g>
     <g id="line2d_20">
      <defs>
       <path id="m8115bc2e7b" d="M 0 0 
L -3.5 0 
" style="stroke: #000000; stroke-width: 0.8"/>
      </defs>
      <g>
       <use xlink:href="#m8115bc2e7b" x="46.965625" y="369.201818" style="stroke: #000000; stroke-width: 0.8"/>
      </g>
     </g>
     <g id="text_11">
      <!-- 0 -->
      <g transform="translate(33.603125 373.001037) scale(0.1 -0.1)">
       <use xlink:href="#DejaVuSans-30"/>
      </g>
     </g>
    </g>
    <g id="ytick_2">
     <g id="line2d_21">
      <path d="M 46.965625 308.034076 
L 426.335625 308.034076 
" clip-path="url(#pf1f451321a)" style="fill: none; stroke-dasharray: 2.96,1.28; stroke-dashoffset: 0; stroke: #b0b0b0; stroke-opacity: 0.6; stroke-width: 0.8"/>
     </g>
     <g id="line2d_22">
      <g>
       <use xlink:href="#m8115bc2e7b" x="46.965625" y="308.034076" style="stroke: #000000; stroke-width: 0.8"/>
      </g>
     </g>
     <g id="text_12">
      <!-- 20 -->
      <g transform="translate(27.240625 311.833295) scale(0.1 -0.1)">
       <use xlink:href="#DejaVuSans-32"/>
       <use xlink:href="#DejaVuSans-30" transform="translate(63.623047 0)"/>
      </g>
     </g>
    </g>
    <g id="ytick_3">
     <g id="line2d_23">
      <path d="M 46.965625 246.866334 
L 426.335625 246.866334 
" clip-path="url(#pf1f451321a)" style="fill: none; stroke-dasharray: 2.96,1.28; stroke-dashoffset: 0; stroke: #b0b0b0; stroke-opacity: 0.6; stroke-width: 0.8"/>
     </g>
     <g id="line2d_24">
      <g>
       <use xlink:href="#m8115bc2e7b" x="46.965625" y="246.866334" style="stroke: #000000; stroke-width: 0.8"/>
      </g>
     </g>
     <g id="text_13">
      <!-- 40 -->
      <g transform="translate(27.240625 250.665553) scale(0.1 -0.1)">
       <use xlink:href="#DejaVuSans-34"/>
       <use xlink:href="#DejaVuSans-30" transform="translate(63.623047 0)"/>
      </g>
     </g>
    </g>
    <g id="ytick_4">
     <g id="line2d_25">
      <path d="M 46.965625 185.698592 
L 426.335625 185.698592 
" clip-path="url(#pf1f451321a)" style="fill: none; stroke-dasharray: 2.96,1.28; stroke-dashoffset: 0; stroke: #b0b0b0; stroke-opacity: 0.6; stroke-width: 0.8"/>
     </g>
     <g id="line2d_26">
      <g>
       <use xlink:href="#m8115bc2e7b" x="46.965625" y="185.698592" style="stroke: #000000; stroke-width: 0.8"/>
      </g>
     </g>
     <g id="text_14">
      <!-- 60 -->
      <g transform="translate(27.240625 189.497811) scale(0.1 -0.1)">
       <use xlink:href="#DejaVuSans-36"/>
       <use xlink:href="#DejaVuSans-30" transform="translate(63.623047 0)"/>
      </g>
     </g>
    </g>
    <g id="ytick_5">
     <g id="line2d_27">
      <path d="M 46.965625 124.53085 
L 426.335625 124.53085 
" clip-path="url(#pf1f451321a)" style="fill: none; stroke-dasharray: 2.96,1.28; stroke-dashoffset: 0; stroke: #b0b0b0; stroke-opacity: 0.6; stroke-width: 0.8"/>
     </g>
     <g id="line2d_28">
      <g>
       <use xlink:href="#m8115bc2e7b" x="46.965625" y="124.53085" style="stroke: #000000; stroke-width: 0.8"/>
      </g>
     </g>
     <g id="text_15">
      <!-- 80 -->
      <g transform="translate(27.240625 128.330069) scale(0.1 -0.1)">
       <use xlink:href="#DejaVuSans-38"/>
       <use xlink:href="#DejaVuSans-30" transform="translate(63.623047 0)"/>
      </g>
     </g>
    </g>
    <g id="ytick_6">
     <g id="line2d_29">
      <path d="M 46.965625 63.363109 
L 426.335625 63.363109 
" clip-path="url(#pf1f451321a)" style="fill: none; stroke-dasharray: 2.96,1.28; stroke-dashoffset: 0; stroke: #b0b0b0; stroke-opacity: 0.6; stroke-width: 0.8"/>
     </g>
     <g id="line2d_30">
      <g>
       <use xlink:href="#m8115bc2e7b" x="46.965625" y="63.363109" style="stroke: #000000; stroke-width: 0.8"/>
      </g>
     </g>
     <g id="text_16">
      <!-- 100 -->
      <g transform="translate(20.878125 67.162327) scale(0.1 -0.1)">
       <use xlink:href="#DejaVuSans-31"/>
       <use xlink:href="#DejaVuSans-30" transform="translate(63.623047 0)"/>
       <use xlink:href="#DejaVuSans-30" transform="translate(127.246094 0)"/>
      </g>
     </g>
    </g>
    <g id="text_17">
     <!-- Average cumulative count -->
     <g transform="translate(14.798438 262.4325) rotate(-90) scale(0.1 -0.1)">
      <defs>
       <path id="DejaVuSans-41" d="M 2188 4044 
L 1331 1722 
L 3047 1722 
L 2188 4044 
z
M 1831 4666 
L 2547 4666 
L 4325 0 
L 3669 0 
L 3244 1197 
L 1141 1197 
L 716 0 
L 50 0 
L 1831 4666 
z
" transform="scale(0.015625)"/>
       <path id="DejaVuSans-76" d="M 191 3500 
L 800 3500 
L 1894 563 
L 2988 3500 
L 3597 3500 
L 2284 0 
L 1503 0 
L 191 3500 
z
" transform="scale(0.015625)"/>
       <path id="DejaVuSans-67" d="M 2906 1791 
Q 2906 2416 2648 2759 
Q 2391 3103 1925 3103 
Q 1463 3103 1205 2759 
Q 947 2416 947 1791 
Q 947 1169 1205 825 
Q 1463 481 1925 481 
Q 2391 481 2648 825 
Q 2906 1169 2906 1791 
z
M 3481 434 
Q 3481 -459 3084 -895 
Q 2688 -1331 1869 -1331 
Q 1566 -1331 1297 -1286 
Q 1028 -1241 775 -1147 
L 775 -588 
Q 1028 -725 1275 -790 
Q 1522 -856 1778 -856 
Q 2344 -856 2625 -561 
Q 2906 -266 2906 331 
L 2906 616 
Q 2728 306 2450 153 
Q 2172 0 1784 0 
Q 1141 0 747 490 
Q 353 981 353 1791 
Q 353 2603 747 3093 
Q 1141 3584 1784 3584 
Q 2172 3584 2450 3431 
Q 2728 3278 2906 2969 
L 2906 3500 
L 3481 3500 
L 3481 434 
z
" transform="scale(0.015625)"/>
       <path id="DejaVuSans-6c" d="M 603 4863 
L 1178 4863 
L 1178 0 
L 603 0 
L 603 4863 
z
" transform="scale(0.015625)"/>
      </defs>
      <use xlink:href="#DejaVuSans-41"/>
      <use xlink:href="#DejaVuSans-76" transform="translate(62.533203 0)"/>
      <use xlink:href="#DejaVuSans-65" transform="translate(121.712891 0)"/>
      <use xlink:href="#DejaVuSans-72" transform="translate(183.236328 0)"/>
      <use xlink:href="#DejaVuSans-61" transform="translate(224.349609 0)"/>
      <use xlink:href="#DejaVuSans-67" transform="translate(285.628906 0)"/>
      <use xlink:href="#DejaVuSans-65" transform="translate(349.105469 0)"/>
      <use xlink:href="#DejaVuSans-20" transform="translate(410.628906 0)"/>
      <use xlink:href="#DejaVuSans-63" transform="translate(442.416016 0)"/>
      <use xlink:href="#DejaVuSans-75" transform="translate(497.396484 0)"/>
      <use xlink:href="#DejaVuSans-6d" transform="translate(560.775391 0)"/>
      <use xlink:href="#DejaVuSans-75" transform="translate(658.1875 0)"/>
      <use xlink:href="#DejaVuSans-6c" transform="translate(721.566406 0)"/>
      <use xlink:href="#DejaVuSans-61" transform="translate(749.349609 0)"/>
      <use xlink:href="#DejaVuSans-74" transform="translate(810.628906 0)"/>
      <use xlink:href="#DejaVuSans-69" transform="translate(849.837891 0)"/>
      <use xlink:href="#DejaVuSans-76" transform="translate(877.621094 0)"/>
      <use xlink:href="#DejaVuSans-65" transform="translate(936.800781 0)"/>
      <use xlink:href="#DejaVuSans-20" transform="translate(998.324219 0)"/>
      <use xlink:href="#DejaVuSans-63" transform="translate(1030.111328 0)"/>
      <use xlink:href="#DejaVuSans-6f" transform="translate(1085.091797 0)"/>
      <use xlink:href="#DejaVuSans-75" transform="translate(1146.273438 0)"/>
      <use xlink:href="#DejaVuSans-6e" transform="translate(1209.652344 0)"/>
      <use xlink:href="#DejaVuSans-74" transform="translate(1273.03125 0)"/>
     </g>
    </g>
   </g>
   <g id="line2d_31">
    <path d="M 64.209716 367.255572 
L 64.339063 367.255572 
L 66.063687 346.402933 
L 66.106803 346.124897 
L 66.279266 343.900616 
L 67.572734 328.60868 
L 67.61585 328.330645 
L 67.788312 325.828328 
L 67.831428 325.550293 
L 68.00389 323.047977 
L 68.047006 322.769941 
L 68.305699 318.877449 
L 68.607509 314.984956 
L 68.69374 314.15085 
L 68.952434 310.258358 
L 69.685399 301.917302 
L 69.728515 301.917302 
L 69.900977 299.414985 
L 69.944093 299.414985 
L 70.116555 296.912669 
L 70.159671 296.912669 
L 70.332133 294.410352 
L 70.375249 294.410352 
L 70.547712 291.908035 
L 70.590827 291.908035 
L 70.892637 288.015543 
L 71.625602 279.952522 
L 71.754949 278.562346 
L 72.013643 275.503959 
L 72.056758 275.503959 
L 72.229221 273.835748 
L 72.962186 265.494692 
L 73.005302 265.494692 
L 73.263995 262.436305 
L 73.350227 261.324164 
L 73.91073 255.485425 
L 73.996961 254.65132 
L 74.212539 252.427038 
L 74.557464 249.368651 
L 74.816158 247.14437 
L 74.945504 245.476158 
L 75.031736 244.920088 
L 75.204198 243.251877 
L 75.247314 242.973842 
L 75.419776 241.30563 
L 75.506007 240.19349 
L 75.850932 237.135103 
L 75.894048 237.135103 
L 76.066511 235.466891 
L 76.109626 235.466891 
L 76.282089 233.520645 
L 76.325204 233.520645 
L 76.497667 231.296364 
L 76.540782 231.296364 
L 76.713245 229.072082 
L 76.75636 229.072082 
L 76.928823 226.847801 
L 76.971938 226.847801 
L 77.144401 224.623519 
L 77.187517 224.623519 
L 77.359979 222.399238 
L 77.403095 222.399238 
L 77.575557 220.174956 
L 77.618673 220.174956 
L 77.791135 218.506745 
L 77.877366 217.394604 
L 78.13606 214.336217 
L 78.222291 214.336217 
L 78.308523 213.224076 
L 78.567216 210.165689 
L 78.653448 210.165689 
L 79.127719 205.439091 
L 79.386413 203.214809 
L 79.9038 197.932141 
L 79.946916 197.932141 
L 80.766113 188.756979 
L 80.809228 188.756979 
L 80.981691 186.810733 
L 81.024806 186.810733 
L 81.197269 184.864487 
L 81.240385 184.864487 
L 81.412847 183.196276 
L 81.671541 180.971994 
L 81.97335 178.469677 
L 82.016466 178.469677 
L 86.112449 152.612405 
L 86.155565 152.612405 
L 86.759183 149.275982 
L 86.802299 149.275982 
L 87.147224 147.607771 
L 87.233455 147.607771 
L 87.57838 145.93956 
L 87.664611 145.93956 
L 87.837074 144.827419 
L 87.880189 144.827419 
L 88.052652 143.715279 
L 88.095768 143.715279 
L 88.26823 142.603138 
L 88.311346 142.603138 
L 88.483808 141.490997 
L 88.526924 141.490997 
L 88.699386 140.656891 
L 88.742502 140.656891 
L 88.871849 139.544751 
L 88.95808 139.544751 
L 89.087427 138.43261 
L 89.173658 138.43261 
L 89.303005 137.320469 
L 89.389236 137.320469 
L 89.518583 136.208328 
L 89.561699 136.208328 
L 89.992855 133.984047 
L 90.03597 133.984047 
L 90.165317 132.871906 
L 90.251548 132.871906 
L 90.380895 131.759765 
L 90.467126 131.759765 
L 90.596473 130.647625 
L 90.639589 130.647625 
L 91.458786 125.921026 
L 91.545017 125.921026 
L 91.674364 124.808886 
L 91.760595 124.808886 
L 91.889942 123.696745 
L 91.976173 123.696745 
L 92.148636 122.862639 
L 92.191751 122.862639 
L 92.364214 122.028534 
L 92.407329 122.028534 
L 92.579792 121.194428 
L 92.622907 121.194428 
L 92.79537 120.360323 
L 92.838485 120.360323 
L 93.010948 119.526217 
L 93.054063 119.526217 
L 93.18341 118.970147 
L 93.269642 118.970147 
L 93.398988 118.136041 
L 93.48522 118.136041 
L 93.614567 117.301935 
L 93.700798 117.301935 
L 93.830145 116.46783 
L 93.916376 116.46783 
L 94.045723 115.633724 
L 94.131954 115.633724 
L 94.304416 114.799619 
L 94.347532 114.799619 
L 94.519994 113.965513 
L 94.56311 113.965513 
L 94.735573 113.131408 
L 94.778688 113.131408 
L 95.123613 111.463196 
L 95.166729 111.463196 
L 95.511654 109.794985 
L 95.597885 109.794985 
L 95.770347 109.238915 
L 95.856579 109.238915 
L 95.985925 108.96088 
L 96.029041 108.96088 
L 96.244619 108.126774 
L 96.287735 108.126774 
L 96.417082 107.848739 
L 96.503313 107.848739 
L 96.63266 107.570704 
L 96.718891 107.570704 
L 96.891353 107.014633 
L 96.934469 107.014633 
L 97.063816 106.736598 
L 97.150047 106.736598 
L 97.279394 106.458563 
L 97.796781 106.458563 
L 97.926128 106.180528 
L 100.16814 106.180528 
L 100.297487 105.902493 
L 101.375378 105.902493 
L 101.504724 105.624457 
L 101.54784 105.624457 
L 101.677187 105.346422 
L 102.108343 105.346422 
L 102.23769 105.068387 
L 102.884424 105.068387 
L 103.013771 104.790352 
L 105.471361 104.790352 
L 105.600708 104.512317 
L 106.678598 104.512317 
L 106.807945 104.234282 
L 106.894176 104.234282 
L 107.023523 103.956246 
L 107.411564 103.956246 
L 107.540911 103.678211 
L 108.273876 103.678211 
L 108.403223 103.400176 
L 110.774582 103.400176 
L 110.903929 103.122141 
L 111.981819 103.122141 
L 112.111166 102.844106 
L 112.197397 102.844106 
L 112.326744 102.56607 
L 112.714785 102.56607 
L 112.844132 102.288035 
L 113.577097 102.288035 
L 113.706444 102.01 
L 116.077803 102.01 
L 116.20715 101.731965 
L 117.28504 101.731965 
L 117.414387 101.45393 
L 117.500618 101.45393 
L 117.629965 101.175894 
L 118.018006 101.175894 
L 118.147352 100.897859 
L 118.923434 100.897859 
L 119.05278 100.619824 
L 121.381024 100.619824 
L 121.510371 100.341789 
L 122.588261 100.341789 
L 122.717608 100.063754 
L 122.803839 100.063754 
L 122.933186 99.785718 
L 123.321226 99.785718 
L 123.450573 99.507683 
L 124.226654 99.507683 
L 124.356001 99.229648 
L 126.684245 99.229648 
L 126.813591 98.951613 
L 127.891482 98.951613 
L 128.020829 98.673578 
L 128.10706 98.673578 
L 128.236407 98.395543 
L 128.624447 98.395543 
L 128.753794 98.117507 
L 129.529875 98.117507 
L 129.659222 97.839472 
L 131.987465 97.839472 
L 132.116812 97.561437 
L 133.194703 97.561437 
L 133.32405 97.283402 
L 133.453396 97.283402 
L 133.582743 97.005367 
L 133.927668 97.005367 
L 134.057015 96.727331 
L 134.833096 96.727331 
L 134.962443 96.449296 
L 137.290686 96.449296 
L 137.420033 96.171261 
L 138.497924 96.171261 
L 138.62727 95.893226 
L 138.756617 95.893226 
L 138.885964 95.615191 
L 139.230889 95.615191 
L 139.360236 95.337155 
L 140.093201 95.337155 
L 140.222548 95.05912 
L 142.593907 95.05912 
L 142.723254 94.781085 
L 143.801144 94.781085 
L 143.930491 94.50305 
L 144.059838 94.50305 
L 144.189185 94.225015 
L 144.53411 94.225015 
L 144.663457 93.946979 
L 145.439538 93.946979 
L 145.568885 93.668944 
L 147.897128 93.668944 
L 148.026475 93.390909 
L 149.104365 93.390909 
L 149.233712 93.112874 
L 149.363059 93.112874 
L 149.492406 92.834839 
L 149.837331 92.834839 
L 149.966678 92.556804 
L 150.742759 92.556804 
L 150.872106 92.278768 
L 153.200349 92.278768 
L 153.329696 92.000733 
L 154.407586 92.000733 
L 154.536933 91.722698 
L 154.709395 91.722698 
L 154.838742 91.444663 
L 155.140552 91.444663 
L 155.269898 91.166628 
L 156.04598 91.166628 
L 156.175326 90.888592 
L 158.50357 90.888592 
L 158.632917 90.610557 
L 159.710807 90.610557 
L 159.840154 90.332522 
L 160.055732 90.332522 
L 160.185079 90.054487 
L 160.400657 90.054487 
L 160.530004 89.776452 
L 161.3492 89.776452 
L 161.478547 89.498416 
L 163.806791 89.498416 
L 163.936137 89.220381 
L 165.014028 89.220381 
L 165.143375 88.942346 
L 165.358953 88.942346 
L 165.4883 88.664311 
L 165.703878 88.664311 
L 165.833225 88.386276 
L 166.652421 88.386276 
L 166.781768 88.10824 
L 169.110011 88.10824 
L 169.239358 87.830205 
L 170.317249 87.830205 
L 170.446596 87.55217 
L 170.662174 87.55217 
L 170.79152 87.274135 
L 171.007099 87.274135 
L 171.136445 86.9961 
L 171.955642 86.9961 
L 172.084989 86.718065 
L 174.413232 86.718065 
L 174.542579 86.440029 
L 175.62047 86.440029 
L 175.749816 86.161994 
L 175.922279 86.161994 
L 176.051626 85.883959 
L 176.310319 85.883959 
L 176.439666 85.605924 
L 177.258863 85.605924 
L 177.38821 85.327889 
L 179.716453 85.327889 
L 179.8458 85.049853 
L 180.92369 85.049853 
L 181.053037 84.771818 
L 181.2255 84.771818 
L 181.354847 84.493783 
L 181.397962 84.493783 
L 181.527309 84.215748 
L 181.61354 84.215748 
L 181.742887 83.937713 
L 182.562084 83.937713 
L 182.691431 83.659677 
L 185.019674 83.659677 
L 185.149021 83.381642 
L 186.226911 83.381642 
L 186.356258 83.103607 
L 186.528721 83.103607 
L 186.658067 82.825572 
L 186.916761 82.825572 
L 187.046108 82.547537 
L 187.865305 82.547537 
L 187.994652 82.269501 
L 190.322895 82.269501 
L 190.452242 81.991466 
L 191.530132 81.991466 
L 191.659479 81.713431 
L 191.831941 81.713431 
L 191.961288 81.435396 
L 192.219982 81.435396 
L 192.349329 81.157361 
L 193.168526 81.157361 
L 193.297872 80.879326 
L 195.626116 80.879326 
L 195.755463 80.60129 
L 196.833353 80.60129 
L 196.9627 80.323255 
L 197.135162 80.323255 
L 197.264509 80.04522 
L 197.480087 80.04522 
L 197.609434 79.767185 
L 198.514862 79.767185 
L 198.644209 79.48915 
L 200.929337 79.48915 
L 201.058683 79.211114 
L 202.136574 79.211114 
L 202.265921 78.933079 
L 202.481499 78.933079 
L 202.610846 78.655044 
L 202.783308 78.655044 
L 202.912655 78.377009 
L 203.818083 78.377009 
L 203.94743 78.098974 
L 206.232557 78.098974 
L 206.361904 77.820938 
L 207.439795 77.820938 
L 207.569142 77.542903 
L 207.78472 77.542903 
L 207.914066 77.264868 
L 208.129645 77.264868 
L 208.258991 76.986833 
L 208.388338 76.986833 
L 208.517685 76.708798 
L 209.121304 76.708798 
L 209.250651 76.430762 
L 211.535778 76.430762 
L 211.665125 76.152727 
L 212.743016 76.152727 
L 212.872362 75.874692 
L 213.08794 75.874692 
L 213.217287 75.596657 
L 213.432865 75.596657 
L 213.562212 75.318622 
L 214.424525 75.318622 
L 214.553871 75.040587 
L 215.416184 75.040587 
L 215.545531 74.762551 
L 216.838999 74.762551 
L 216.968346 74.484516 
L 218.046236 74.484516 
L 218.175583 74.206481 
L 218.391161 74.206481 
L 218.520508 73.928446 
L 218.736086 73.928446 
L 218.865433 73.650411 
L 219.727745 73.650411 
L 219.857092 73.372375 
L 222.14222 73.372375 
L 222.271567 73.09434 
L 223.349457 73.09434 
L 223.478804 72.816305 
L 223.651267 72.816305 
L 223.780613 72.53827 
L 224.039307 72.53827 
L 224.168654 72.260235 
L 225.030966 72.260235 
L 225.160313 71.982199 
L 227.445441 71.982199 
L 227.574788 71.704164 
L 228.652678 71.704164 
L 228.782025 71.426129 
L 228.954487 71.426129 
L 229.083834 71.148094 
L 229.342528 71.148094 
L 229.471875 70.870059 
L 230.334187 70.870059 
L 230.463534 70.592023 
L 232.748662 70.592023 
L 232.878009 70.313988 
L 233.955899 70.313988 
L 234.085246 70.035953 
L 234.257708 70.035953 
L 234.387055 69.757918 
L 234.559518 69.757918 
L 234.688864 69.479883 
L 235.637408 69.479883 
L 235.766755 69.201848 
L 238.051883 69.201848 
L 238.181229 68.923812 
L 239.302235 68.923812 
L 239.431582 68.645777 
L 239.560929 68.645777 
L 239.690276 68.367742 
L 239.862738 68.367742 
L 239.992085 68.089707 
L 240.940629 68.089707 
L 241.069976 67.811672 
L 243.355103 67.811672 
L 243.48445 67.533636 
L 244.605456 67.533636 
L 244.734803 67.255601 
L 244.907266 67.255601 
L 245.036612 66.977566 
L 245.165959 66.977566 
L 245.295306 66.699531 
L 246.24385 66.699531 
L 246.373197 66.421496 
L 248.658324 66.421496 
L 248.787671 66.14346 
L 249.908677 66.14346 
L 250.038024 65.865425 
L 250.210486 65.865425 
L 250.339833 65.58739 
L 250.46918 65.58739 
L 250.598527 65.309355 
L 251.547071 65.309355 
L 251.676417 65.03132 
L 253.961545 65.03132 
L 254.090892 64.753284 
L 255.211898 64.753284 
L 255.341245 64.475249 
L 255.470592 64.475249 
L 255.599939 64.197214 
L 255.772401 64.197214 
L 255.901748 63.919179 
L 256.893407 63.919179 
L 257.022754 63.641144 
L 259.264766 63.641144 
L 259.394113 63.363109 
L 260.515119 63.363109 
L 260.644466 63.085073 
L 260.773813 63.085073 
L 260.903159 62.807038 
L 261.032506 62.807038 
L 261.161853 62.529003 
L 262.196628 62.529003 
L 262.325975 62.250968 
L 264.567987 62.250968 
L 264.697334 61.972933 
L 265.81834 61.972933 
L 265.947687 61.694897 
L 266.120149 61.694897 
L 266.249496 61.416862 
L 266.335727 61.416862 
L 266.465074 61.138827 
L 267.499849 61.138827 
L 267.629196 60.860792 
L 269.871208 60.860792 
L 270.000555 60.582757 
L 271.121561 60.582757 
L 271.250907 60.304721 
L 271.466486 60.304721 
L 271.595832 60.026686 
L 271.682064 60.026686 
L 271.81141 59.748651 
L 272.80307 59.748651 
L 272.932416 59.470616 
L 274.269001 59.470616 
L 274.398347 59.192581 
L 275.174429 59.192581 
L 275.303775 58.914545 
L 276.424781 58.914545 
L 276.554128 58.63651 
L 276.769706 58.63651 
L 276.899053 58.358475 
L 276.985284 58.358475 
L 277.114631 58.08044 
L 278.10629 58.08044 
L 278.235637 57.802405 
L 280.477649 57.802405 
L 280.606996 57.52437 
L 281.728002 57.52437 
L 281.857349 57.246334 
L 282.072927 57.246334 
L 282.202274 56.968299 
L 282.331621 56.968299 
L 282.460968 56.690264 
L 283.409511 56.690264 
L 283.538858 56.412229 
L 285.78087 56.412229 
L 285.910217 56.134194 
L 287.031223 56.134194 
L 287.16057 55.856158 
L 287.376148 55.856158 
L 287.505495 55.578123 
L 287.634842 55.578123 
L 287.764189 55.300088 
L 288.712732 55.300088 
L 288.842079 55.022053 
L 291.084091 55.022053 
L 291.213438 54.744018 
L 292.334444 54.744018 
L 292.463791 54.465982 
L 292.679369 54.465982 
L 292.808716 54.187947 
L 292.938063 54.187947 
L 293.067409 53.909912 
L 294.059069 53.909912 
L 294.188416 53.631877 
L 296.387312 53.631877 
L 296.516659 53.353842 
L 297.637665 53.353842 
L 297.767012 53.075806 
L 297.98259 53.075806 
L 298.111937 52.797771 
L 298.241283 52.797771 
L 298.37063 52.519736 
L 299.36229 52.519736 
L 299.491636 52.241701 
L 301.690533 52.241701 
L 301.81988 51.963666 
L 302.940886 51.963666 
L 303.070233 51.68563 
L 303.285811 51.68563 
L 303.415157 51.407595 
L 303.544504 51.407595 
L 303.673851 51.12956 
L 304.66551 51.12956 
L 304.794857 50.851525 
L 306.993754 50.851525 
L 307.123101 50.57349 
L 308.244107 50.57349 
L 308.373453 50.295455 
L 308.545916 50.295455 
L 308.675263 50.017419 
L 308.847725 50.017419 
L 308.977072 49.739384 
L 310.011847 49.739384 
L 310.141194 49.461349 
L 312.296975 49.461349 
L 312.426321 49.183314 
L 313.547327 49.183314 
L 313.676674 48.905279 
L 313.806021 48.905279 
L 313.935368 48.627243 
L 314.150946 48.627243 
L 314.280293 48.349208 
L 315.315068 48.349208 
L 315.444415 48.071173 
L 317.600195 48.071173 
L 317.729542 47.793138 
L 318.850548 47.793138 
L 318.979895 47.515103 
L 319.109242 47.515103 
L 319.238589 47.237067 
L 319.454167 47.237067 
L 319.583514 46.959032 
L 320.618289 46.959032 
L 320.747635 46.680997 
L 322.903416 46.680997 
L 323.032763 46.402962 
L 324.153769 46.402962 
L 324.283116 46.124927 
L 324.412463 46.124927 
L 324.54181 45.846891 
L 324.757388 45.846891 
L 324.886735 45.568856 
L 325.921509 45.568856 
L 326.050856 45.290821 
L 328.206637 45.290821 
L 328.335984 45.012786 
L 329.45699 45.012786 
L 329.586337 44.734751 
L 329.715684 44.734751 
L 329.845031 44.456716 
L 330.060609 44.456716 
L 330.189955 44.17868 
L 331.22473 44.17868 
L 331.354077 43.900645 
L 333.509858 43.900645 
L 333.639205 43.62261 
L 334.760211 43.62261 
L 334.889558 43.344575 
L 335.018905 43.344575 
L 335.148251 43.06654 
L 335.406945 43.06654 
L 335.536292 42.788504 
L 336.527951 42.788504 
L 336.657298 42.510469 
L 338.813079 42.510469 
L 338.942426 42.232434 
L 340.106547 42.232434 
L 340.235894 41.954399 
L 340.322125 41.954399 
L 340.451472 41.676364 
L 340.710166 41.676364 
L 340.839513 41.398328 
L 341.831172 41.398328 
L 341.960519 41.120293 
L 344.1163 41.120293 
L 344.288762 40.564223 
L 345.409768 40.564223 
L 345.539115 40.286188 
L 345.625346 40.286188 
L 345.754693 40.008152 
L 345.970271 40.008152 
L 346.099618 39.730117 
L 347.134393 39.730117 
L 347.26374 39.452082 
L 349.419521 39.452082 
L 349.548867 39.174047 
L 350.712989 39.174047 
L 350.842336 38.896012 
L 350.971683 38.896012 
L 351.10103 38.617977 
L 351.230376 38.617977 
L 351.359723 38.339941 
L 352.437614 38.339941 
L 352.566961 38.061906 
L 354.722741 38.061906 
L 354.852088 37.783871 
L 356.01621 37.783871 
L 356.145557 37.505836 
L 356.274904 37.505836 
L 356.40425 37.227801 
L 356.576713 37.227801 
L 356.70606 36.949765 
L 357.78395 36.949765 
L 357.913297 36.67173 
L 360.025962 36.67173 
L 360.155309 36.393695 
L 361.319431 36.393695 
L 361.448778 36.11566 
L 361.578124 36.11566 
L 361.707471 35.837625 
L 361.923049 35.837625 
L 362.052396 35.559589 
L 363.087171 35.559589 
L 363.216518 35.281554 
L 365.329183 35.281554 
L 365.45853 35.003519 
L 366.622652 35.003519 
L 366.751998 34.725484 
L 366.83823 34.725484 
L 366.967577 34.447449 
L 367.22627 34.447449 
L 367.355617 34.169413 
L 368.476623 34.169413 
L 368.649086 33.613343 
L 370.632404 33.613343 
L 370.761751 33.335308 
L 371.925872 33.335308 
L 372.055219 33.057273 
L 372.184566 33.057273 
L 372.313913 32.779238 
L 372.529491 32.779238 
L 372.658838 32.501202 
L 373.779844 32.501202 
L 373.909191 32.223167 
L 375.935625 32.223167 
L 376.064972 31.945132 
L 377.229093 31.945132 
L 377.35844 31.667097 
L 377.487787 31.667097 
L 377.617134 31.389062 
L 377.832712 31.389062 
L 377.962059 31.111026 
L 379.083065 31.111026 
L 379.212412 30.832991 
L 379.859146 30.832991 
L 379.988493 30.554956 
L 381.238846 30.554956 
L 381.368193 30.276921 
L 382.791008 30.276921 
L 382.920355 29.998886 
L 383.135933 29.998886 
L 383.26528 29.72085 
L 384.429401 29.72085 
L 384.558748 29.442815 
L 386.542067 29.442815 
L 386.671413 29.16478 
L 388.094229 29.16478 
L 388.223576 28.886745 
L 388.439154 28.886745 
L 388.568501 28.60871 
L 389.732622 28.60871 
L 389.861969 28.330674 
L 391.845287 28.330674 
L 391.974634 28.052639 
L 393.39745 28.052639 
L 393.526796 27.774604 
L 393.742375 27.774604 
L 393.871721 27.496569 
L 395.035843 27.496569 
L 395.16519 27.218534 
L 397.148508 27.218534 
L 397.277855 26.940499 
L 397.967705 26.940499 
L 398.097052 26.662463 
L 398.657555 26.662463 
L 398.786902 26.384428 
L 399.045595 26.384428 
L 399.174942 26.106393 
L 400.339064 26.106393 
L 400.468411 25.828358 
L 402.451729 25.828358 
L 402.581076 25.550323 
L 403.960776 25.550323 
L 404.090123 25.272287 
L 404.348816 25.272287 
L 404.478163 24.994252 
L 405.642285 24.994252 
L 405.771632 24.716217 
L 407.75495 24.716217 
L 407.884297 24.438182 
L 409.091534 24.438182 
L 409.091534 24.438182 
" clip-path="url(#pf1f451321a)" style="fill: none; stroke: #add8e6; stroke-width: 2; stroke-linecap: square"/>
   </g>
   <g id="line2d_32">
    <path d="M 64.209716 369.201818 
L 220.202017 369.201818 
L 220.331364 368.923783 
L 247.192393 368.923783 
L 247.32174 368.645748 
L 254.220239 368.645748 
L 254.349586 368.367713 
L 264.481756 368.367713 
L 264.611102 368.089677 
L 286.944992 368.089677 
L 287.074339 367.811642 
L 291.472132 367.811642 
L 291.601479 367.533607 
L 298.499977 367.533607 
L 298.629324 367.255572 
L 301.13003 367.255572 
L 301.259377 366.977537 
L 313.978484 366.977537 
L 314.10783 366.699501 
L 320.963214 366.699501 
L 321.09256 366.421466 
L 328.120406 366.421466 
L 328.249753 366.143431 
L 332.992471 366.143431 
L 333.121817 365.865396 
L 335.148251 365.865396 
L 335.277598 365.587361 
L 336.527951 365.587361 
L 336.657298 365.309326 
L 360.025962 365.309326 
L 360.155309 365.03129 
L 362.354206 365.03129 
L 362.483552 364.753255 
L 367.010692 364.753255 
L 367.140039 364.47522 
L 388.784079 364.47522 
L 388.913425 364.197185 
L 391.715941 364.197185 
L 391.845287 363.91915 
L 394.992727 363.91915 
L 395.122074 363.641114 
L 409.091534 363.641114 
L 409.091534 363.641114 
" clip-path="url(#pf1f451321a)" style="fill: none; stroke: #6495ed; stroke-width: 2; stroke-linecap: square"/>
   </g>
   <g id="line2d_33">
    <path d="M 64.209716 369.201818 
L 366.062149 369.201818 
L 366.191495 368.923783 
L 395.423884 368.923783 
L 395.55323 368.645748 
L 409.091534 368.645748 
L 409.091534 368.645748 
" clip-path="url(#pf1f451321a)" style="fill: none; stroke: #00008b; stroke-width: 2; stroke-linecap: square"/>
   </g>
   <g id="line2d_34">
    <path d="M 64.209716 369.201818 
L 409.091534 369.201818 
L 409.091534 369.201818 
" clip-path="url(#pf1f451321a)" style="fill: none; stroke: #2f4f4f; stroke-width: 2; stroke-linecap: square"/>
   </g>
   <g id="patch_3">
    <path d="M 46.965625 386.44 
L 46.965625 7.2 
" style="fill: none; stroke: #000000; stroke-width: 0.8; stroke-linejoin: miter; stroke-linecap: square"/>
   </g>
   <g id="patch_4">
    <path d="M 426.335625 386.44 
L 426.335625 7.2 
" style="fill: none; stroke: #000000; stroke-width: 0.8; stroke-linejoin: miter; stroke-linecap: square"/>
   </g>
   <g id="patch_5">
    <path d="M 46.965625 386.44 
L 426.335625 386.44 
" style="fill: none; stroke: #000000; stroke-width: 0.8; stroke-linejoin: miter; stroke-linecap: square"/>
   </g>
   <g id="patch_6">
    <path d="M 46.965625 7.2 
L 426.335625 7.2 
" style="fill: none; stroke: #000000; stroke-width: 0.8; stroke-linejoin: miter; stroke-linecap: square"/>
   </g>
   <g id="legend_1">
    <g id="patch_7">
     <path d="M 433.335625 88.590625 
L 558.685625 88.590625 
Q 560.685625 88.590625 560.685625 86.590625 
L 560.685625 14.2 
Q 560.685625 12.2 558.685625 12.2 
L 433.335625 12.2 
Q 431.335625 12.2 431.335625 14.2 
L 431.335625 86.590625 
Q 431.335625 88.590625 433.335625 88.590625 
z
" style="fill: #ffffff; opacity: 0.8; stroke: #cccccc; stroke-linejoin: miter"/>
    </g>
    <g id="text_18">
     <!-- Motifs &amp; orientation -->
     <g transform="translate(446.495 23.798437) scale(0.1 -0.1)">
      <defs>
       <path id="DejaVuSans-4d" d="M 628 4666 
L 1569 4666 
L 2759 1491 
L 3956 4666 
L 4897 4666 
L 4897 0 
L 4281 0 
L 4281 4097 
L 3078 897 
L 2444 897 
L 1241 4097 
L 1241 0 
L 628 0 
L 628 4666 
z
" transform="scale(0.015625)"/>
       <path id="DejaVuSans-26" d="M 1556 2509 
Q 1272 2256 1139 2004 
Q 1006 1753 1006 1478 
Q 1006 1022 1337 719 
Q 1669 416 2169 416 
Q 2466 416 2725 514 
Q 2984 613 3213 813 
L 1556 2509 
z
M 1997 2859 
L 3584 1234 
Q 3769 1513 3872 1830 
Q 3975 2147 3994 2503 
L 4575 2503 
Q 4538 2091 4375 1687 
Q 4213 1284 3922 891 
L 4794 0 
L 4006 0 
L 3559 459 
Q 3234 181 2878 45 
Q 2522 -91 2113 -91 
Q 1359 -91 881 339 
Q 403 769 403 1441 
Q 403 1841 612 2192 
Q 822 2544 1241 2853 
Q 1091 3050 1012 3245 
Q 934 3441 934 3628 
Q 934 4134 1281 4442 
Q 1628 4750 2203 4750 
Q 2463 4750 2720 4694 
Q 2978 4638 3244 4525 
L 3244 3956 
Q 2972 4103 2725 4179 
Q 2478 4256 2266 4256 
Q 1938 4256 1733 4082 
Q 1528 3909 1528 3634 
Q 1528 3475 1620 3314 
Q 1713 3153 1997 2859 
z
" transform="scale(0.015625)"/>
      </defs>
      <use xlink:href="#DejaVuSans-4d"/>
      <use xlink:href="#DejaVuSans-6f" transform="translate(86.279297 0)"/>
      <use xlink:href="#DejaVuSans-74" transform="translate(147.460938 0)"/>
      <use xlink:href="#DejaVuSans-69" transform="translate(186.669922 0)"/>
      <use xlink:href="#DejaVuSans-66" transform="translate(214.453125 0)"/>
      <use xlink:href="#DejaVuSans-73" transform="translate(249.658203 0)"/>
      <use xlink:href="#DejaVuSans-20" transform="translate(301.757812 0)"/>
      <use xlink:href="#DejaVuSans-26" transform="translate(333.544922 0)"/>
      <use xlink:href="#DejaVuSans-20" transform="translate(411.523438 0)"/>
      <use xlink:href="#DejaVuSans-6f" transform="translate(443.310547 0)"/>
      <use xlink:href="#DejaVuSans-72" transform="translate(504.492188 0)"/>
      <use xlink:href="#DejaVuSans-69" transform="translate(545.605469 0)"/>
      <use xlink:href="#DejaVuSans-65" transform="translate(573.388672 0)"/>
      <use xlink:href="#DejaVuSans-6e" transform="translate(634.912109 0)"/>
      <use xlink:href="#DejaVuSans-74" transform="translate(698.291016 0)"/>
      <use xlink:href="#DejaVuSans-61" transform="translate(737.5 0)"/>
      <use xlink:href="#DejaVuSans-74" transform="translate(798.779297 0)"/>
      <use xlink:href="#DejaVuSans-69" transform="translate(837.988281 0)"/>
      <use xlink:href="#DejaVuSans-6f" transform="translate(865.771484 0)"/>
      <use xlink:href="#DejaVuSans-6e" transform="translate(926.953125 0)"/>
     </g>
    </g>
    <g id="line2d_35">
     <path d="M 435.335625 34.976562 
L 445.335625 34.976562 
L 455.335625 34.976562 
" style="fill: none; stroke: #add8e6; stroke-width: 2; stroke-linecap: square"/>
    </g>
    <g id="text_19">
     <!-- CCTAA (5' end) -->
     <g transform="translate(463.335625 38.476562) scale(0.1 -0.1)">
      <defs>
       <path id="DejaVuSans-43" d="M 4122 4306 
L 4122 3641 
Q 3803 3938 3442 4084 
Q 3081 4231 2675 4231 
Q 1875 4231 1450 3742 
Q 1025 3253 1025 2328 
Q 1025 1406 1450 917 
Q 1875 428 2675 428 
Q 3081 428 3442 575 
Q 3803 722 4122 1019 
L 4122 359 
Q 3791 134 3420 21 
Q 3050 -91 2638 -91 
Q 1578 -91 968 557 
Q 359 1206 359 2328 
Q 359 3453 968 4101 
Q 1578 4750 2638 4750 
Q 3056 4750 3426 4639 
Q 3797 4528 4122 4306 
z
" transform="scale(0.015625)"/>
       <path id="DejaVuSans-54" d="M -19 4666 
L 3928 4666 
L 3928 4134 
L 2272 4134 
L 2272 0 
L 1638 0 
L 1638 4134 
L -19 4134 
L -19 4666 
z
" transform="scale(0.015625)"/>
       <path id="DejaVuSans-28" d="M 1984 4856 
Q 1566 4138 1362 3434 
Q 1159 2731 1159 2009 
Q 1159 1288 1364 580 
Q 1569 -128 1984 -844 
L 1484 -844 
Q 1016 -109 783 600 
Q 550 1309 550 2009 
Q 550 2706 781 3412 
Q 1013 4119 1484 4856 
L 1984 4856 
z
" transform="scale(0.015625)"/>
       <path id="DejaVuSans-27" d="M 1147 4666 
L 1147 2931 
L 616 2931 
L 616 4666 
L 1147 4666 
z
" transform="scale(0.015625)"/>
       <path id="DejaVuSans-64" d="M 2906 2969 
L 2906 4863 
L 3481 4863 
L 3481 0 
L 2906 0 
L 2906 525 
Q 2725 213 2448 61 
Q 2172 -91 1784 -91 
Q 1150 -91 751 415 
Q 353 922 353 1747 
Q 353 2572 751 3078 
Q 1150 3584 1784 3584 
Q 2172 3584 2448 3432 
Q 2725 3281 2906 2969 
z
M 947 1747 
Q 947 1113 1208 752 
Q 1469 391 1925 391 
Q 2381 391 2643 752 
Q 2906 1113 2906 1747 
Q 2906 2381 2643 2742 
Q 2381 3103 1925 3103 
Q 1469 3103 1208 2742 
Q 947 2381 947 1747 
z
" transform="scale(0.015625)"/>
       <path id="DejaVuSans-29" d="M 513 4856 
L 1013 4856 
Q 1481 4119 1714 3412 
Q 1947 2706 1947 2009 
Q 1947 1309 1714 600 
Q 1481 -109 1013 -844 
L 513 -844 
Q 928 -128 1133 580 
Q 1338 1288 1338 2009 
Q 1338 2731 1133 3434 
Q 928 4138 513 4856 
z
" transform="scale(0.015625)"/>
      </defs>
      <use xlink:href="#DejaVuSans-43"/>
      <use xlink:href="#DejaVuSans-43" transform="translate(69.824219 0)"/>
      <use xlink:href="#DejaVuSans-54" transform="translate(139.648438 0)"/>
      <use xlink:href="#DejaVuSans-41" transform="translate(192.982422 0)"/>
      <use xlink:href="#DejaVuSans-41" transform="translate(264.140625 0)"/>
      <use xlink:href="#DejaVuSans-20" transform="translate(332.548828 0)"/>
      <use xlink:href="#DejaVuSans-28" transform="translate(364.335938 0)"/>
      <use xlink:href="#DejaVuSans-35" transform="translate(403.349609 0)"/>
      <use xlink:href="#DejaVuSans-27" transform="translate(466.972656 0)"/>
      <use xlink:href="#DejaVuSans-20" transform="translate(494.462891 0)"/>
      <use xlink:href="#DejaVuSans-65" transform="translate(526.25 0)"/>
      <use xlink:href="#DejaVuSans-6e" transform="translate(587.773438 0)"/>
      <use xlink:href="#DejaVuSans-64" transform="translate(651.152344 0)"/>
      <use xlink:href="#DejaVuSans-29" transform="translate(714.628906 0)"/>
     </g>
    </g>
    <g id="line2d_36">
     <path d="M 435.335625 49.654688 
L 445.335625 49.654688 
L 455.335625 49.654688 
" style="fill: none; stroke: #6495ed; stroke-width: 2; stroke-linecap: square"/>
    </g>
    <g id="text_20">
     <!-- CAATAA (5' end) -->
     <g transform="translate(463.335625 53.154688) scale(0.1 -0.1)">
      <use xlink:href="#DejaVuSans-43"/>
      <use xlink:href="#DejaVuSans-41" transform="translate(69.824219 0)"/>
      <use xlink:href="#DejaVuSans-41" transform="translate(140.982422 0)"/>
      <use xlink:href="#DejaVuSans-54" transform="translate(201.640625 0)"/>
      <use xlink:href="#DejaVuSans-41" transform="translate(254.974609 0)"/>
      <use xlink:href="#DejaVuSans-41" transform="translate(326.132812 0)"/>
      <use xlink:href="#DejaVuSans-20" transform="translate(394.541016 0)"/>
      <use xlink:href="#DejaVuSans-28" transform="translate(426.328125 0)"/>
      <use xlink:href="#DejaVuSans-35" transform="translate(465.341797 0)"/>
      <use xlink:href="#DejaVuSans-27" transform="translate(528.964844 0)"/>
      <use xlink:href="#DejaVuSans-20" transform="translate(556.455078 0)"/>
      <use xlink:href="#DejaVuSans-65" transform="translate(588.242188 0)"/>
      <use xlink:href="#DejaVuSans-6e" transform="translate(649.765625 0)"/>
      <use xlink:href="#DejaVuSans-64" transform="translate(713.144531 0)"/>
      <use xlink:href="#DejaVuSans-29" transform="translate(776.621094 0)"/>
     </g>
    </g>
    <g id="line2d_37">
     <path d="M 435.335625 64.332812 
L 445.335625 64.332812 
L 455.335625 64.332812 
" style="fill: none; stroke: #00008b; stroke-width: 2; stroke-linecap: square"/>
    </g>
    <g id="text_21">
     <!-- CTGAAA (5' end) -->
     <g transform="translate(463.335625 67.832812) scale(0.1 -0.1)">
      <defs>
       <path id="DejaVuSans-47" d="M 3809 666 
L 3809 1919 
L 2778 1919 
L 2778 2438 
L 4434 2438 
L 4434 434 
Q 4069 175 3628 42 
Q 3188 -91 2688 -91 
Q 1594 -91 976 548 
Q 359 1188 359 2328 
Q 359 3472 976 4111 
Q 1594 4750 2688 4750 
Q 3144 4750 3555 4637 
Q 3966 4525 4313 4306 
L 4313 3634 
Q 3963 3931 3569 4081 
Q 3175 4231 2741 4231 
Q 1884 4231 1454 3753 
Q 1025 3275 1025 2328 
Q 1025 1384 1454 906 
Q 1884 428 2741 428 
Q 3075 428 3337 486 
Q 3600 544 3809 666 
z
" transform="scale(0.015625)"/>
      </defs>
      <use xlink:href="#DejaVuSans-43"/>
      <use xlink:href="#DejaVuSans-54" transform="translate(69.824219 0)"/>
      <use xlink:href="#DejaVuSans-47" transform="translate(130.908203 0)"/>
      <use xlink:href="#DejaVuSans-41" transform="translate(208.398438 0)"/>
      <use xlink:href="#DejaVuSans-41" transform="translate(279.556641 0)"/>
      <use xlink:href="#DejaVuSans-41" transform="translate(350.714844 0)"/>
      <use xlink:href="#DejaVuSans-20" transform="translate(419.123047 0)"/>
      <use xlink:href="#DejaVuSans-28" transform="translate(450.910156 0)"/>
      <use xlink:href="#DejaVuSans-35" transform="translate(489.923828 0)"/>
      <use xlink:href="#DejaVuSans-27" transform="translate(553.546875 0)"/>
      <use xlink:href="#DejaVuSans-20" transform="translate(581.037109 0)"/>
      <use xlink:href="#DejaVuSans-65" transform="translate(612.824219 0)"/>
      <use xlink:href="#DejaVuSans-6e" transform="translate(674.347656 0)"/>
      <use xlink:href="#DejaVuSans-64" transform="translate(737.726562 0)"/>
      <use xlink:href="#DejaVuSans-29" transform="translate(801.203125 0)"/>
     </g>
    </g>
    <g id="line2d_38">
     <path d="M 435.335625 79.010938 
L 445.335625 79.010938 
L 455.335625 79.010938 
" style="fill: none; stroke: #2f4f4f; stroke-width: 2; stroke-linecap: square"/>
    </g>
    <g id="text_22">
     <!-- CTTTTCAA (5' end) -->
     <g transform="translate(463.335625 82.510938) scale(0.1 -0.1)">
      <use xlink:href="#DejaVuSans-43"/>
      <use xlink:href="#DejaVuSans-54" transform="translate(69.824219 0)"/>
      <use xlink:href="#DejaVuSans-54" transform="translate(129.158203 0)"/>
      <use xlink:href="#DejaVuSans-54" transform="translate(188.492188 0)"/>
      <use xlink:href="#DejaVuSans-54" transform="translate(247.826172 0)"/>
      <use xlink:href="#DejaVuSans-43" transform="translate(303.035156 0)"/>
      <use xlink:href="#DejaVuSans-41" transform="translate(372.859375 0)"/>
      <use xlink:href="#DejaVuSans-41" transform="translate(444.017578 0)"/>
      <use xlink:href="#DejaVuSans-20" transform="translate(512.425781 0)"/>
      <use xlink:href="#DejaVuSans-28" transform="translate(544.212891 0)"/>
      <use xlink:href="#DejaVuSans-35" transform="translate(583.226562 0)"/>
      <use xlink:href="#DejaVuSans-27" transform="translate(646.849609 0)"/>
      <use xlink:href="#DejaVuSans-20" transform="translate(674.339844 0)"/>
      <use xlink:href="#DejaVuSans-65" transform="translate(706.126953 0)"/>
      <use xlink:href="#DejaVuSans-6e" transform="translate(767.650391 0)"/>
      <use xlink:href="#DejaVuSans-64" transform="translate(831.029297 0)"/>
      <use xlink:href="#DejaVuSans-29" transform="translate(894.505859 0)"/>
     </g>
    </g>
   </g>
  </g>
 </g>
 <defs>
  <clipPath id="pf1f451321a">
   <rect x="46.965625" y="7.2" width="379.37" height="379.24"/>
  </clipPath>
 </defs>
</svg>
