<?xml version="1.0" encoding="utf-8" standalone="no"?>
<!DOCTYPE svg PUBLIC "-//W3C//DTD SVG 1.1//EN"
  "http://www.w3.org/Graphics/SVG/1.1/DTD/svg11.dtd">
<svg xmlns:xlink="http://www.w3.org/1999/xlink" width="712.145pt" height="496.474375pt" viewBox="0 0 712.145 496.474375" xmlns="http://www.w3.org/2000/svg" version="1.1">
 <metadata>
  <rdf:RDF xmlns:dc="http://purl.org/dc/elements/1.1/" xmlns:cc="http://creativecommons.org/ns#" xmlns:rdf="http://www.w3.org/1999/02/22-rdf-syntax-ns#">
   <cc:Work>
    <dc:type rdf:resource="http://purl.org/dc/dcmitype/StillImage"/>
    <dc:date>2026-03-20T12:45:37.442586</dc:date>
    <dc:format>image/svg+xml</dc:format>
    <dc:creator>
     <cc:Agent>
      <dc:title>Matplotlib v3.10.6, https://matplotlib.org/</dc:title>
     </cc:Agent>
    </dc:creator>
   </cc:Work>
  </rdf:RDF>
 </metadata>
 <defs>
  <style type="text/css">*{stroke-linejoin: round; stroke-linecap: butt}</style>
 </defs>
 <g id="figure_1">
  <g id="patch_1">
   <path d="M 0 496.474375 
L 712.145 496.474375 
L 712.145 0 
L 0 0 
z
" style="fill: #ffffff"/>
  </g>
  <g id="axes_1">
   <g id="patch_2">
    <path d="M 46.965625 458.918125 
L 566.285625 458.918125 
L 566.285625 22.318125 
L 46.965625 22.318125 
z
" style="fill: #ffffff"/>
   </g>
   <g id="matplotlib.axis_1">
    <g id="xtick_1">
     <g id="line2d_1">
      <path d="M 70.57108 458.918125 
L 70.57108 22.318125 
" clip-path="url(#pd1e6ed4e3a)" style="fill: none; stroke-dasharray: 2.96,1.28; stroke-dashoffset: 0; stroke: #b0b0b0; stroke-opacity: 0.6; stroke-width: 0.8"/>
     </g>
     <g id="line2d_2">
      <defs>
       <path id="m532c61e04c" d="M 0 0 
L 0 3.5 
" style="stroke: #000000; stroke-width: 0.8"/>
      </defs>
      <g>
       <use xlink:href="#m532c61e04c" x="70.57108" y="458.918125" style="stroke: #000000; stroke-width: 0.8"/>
      </g>
     </g>
     <g id="text_1">
      <!-- 0 -->
      <g transform="translate(67.38983 473.516563) scale(0.1 -0.1)">
       <defs>
        <path id="DejaVuSans-30" d="M 2034 4250 
Q 1547 4250 1301 3770 
Q 1056 3291 1056 2328 
Q 1056 1369 1301 889 
Q 1547 409 2034 409 
Q 2525 409 2770 889 
Q 3016 1369 3016 2328 
Q 3016 3291 2770 3770 
Q 2525 4250 2034 4250 
z
M 2034 4750 
Q 2819 4750 3233 4129 
Q 3647 3509 3647 2328 
Q 3647 1150 3233 529 
Q 2819 -91 2034 -91 
Q 1250 -91 836 529 
Q 422 1150 422 2328 
Q 422 3509 836 4129 
Q 1250 4750 2034 4750 
z
" transform="scale(0.015625)"/>
       </defs>
       <use xlink:href="#DejaVuSans-30"/>
      </g>
     </g>
    </g>
    <g id="xtick_2">
     <g id="line2d_3">
      <path d="M 149.262486 458.918125 
L 149.262486 22.318125 
" clip-path="url(#pd1e6ed4e3a)" style="fill: none; stroke-dasharray: 2.96,1.28; stroke-dashoffset: 0; stroke: #b0b0b0; stroke-opacity: 0.6; stroke-width: 0.8"/>
     </g>
     <g id="line2d_4">
      <g>
       <use xlink:href="#m532c61e04c" x="149.262486" y="458.918125" style="stroke: #000000; stroke-width: 0.8"/>
      </g>
     </g>
     <g id="text_2">
      <!-- 2000 -->
      <g transform="translate(136.537486 473.516563) scale(0.1 -0.1)">
       <defs>
        <path id="DejaVuSans-32" d="M 1228 531 
L 3431 531 
L 3431 0 
L 469 0 
L 469 531 
Q 828 903 1448 1529 
Q 2069 2156 2228 2338 
Q 2531 2678 2651 2914 
Q 2772 3150 2772 3378 
Q 2772 3750 2511 3984 
Q 2250 4219 1831 4219 
Q 1534 4219 1204 4116 
Q 875 4013 500 3803 
L 500 4441 
Q 881 4594 1212 4672 
Q 1544 4750 1819 4750 
Q 2544 4750 2975 4387 
Q 3406 4025 3406 3419 
Q 3406 3131 3298 2873 
Q 3191 2616 2906 2266 
Q 2828 2175 2409 1742 
Q 1991 1309 1228 531 
z
" transform="scale(0.015625)"/>
       </defs>
       <use xlink:href="#DejaVuSans-32"/>
       <use xlink:href="#DejaVuSans-30" transform="translate(63.623047 0)"/>
       <use xlink:href="#DejaVuSans-30" transform="translate(127.246094 0)"/>
       <use xlink:href="#DejaVuSans-30" transform="translate(190.869141 0)"/>
      </g>
     </g>
    </g>
    <g id="xtick_3">
     <g id="line2d_5">
      <path d="M 227.953892 458.918125 
L 227.953892 22.318125 
" clip-path="url(#pd1e6ed4e3a)" style="fill: none; stroke-dasharray: 2.96,1.28; stroke-dashoffset: 0; stroke: #b0b0b0; stroke-opacity: 0.6; stroke-width: 0.8"/>
     </g>
     <g id="line2d_6">
      <g>
       <use xlink:href="#m532c61e04c" x="227.953892" y="458.918125" style="stroke: #000000; stroke-width: 0.8"/>
      </g>
     </g>
     <g id="text_3">
      <!-- 4000 -->
      <g transform="translate(215.228892 473.516563) scale(0.1 -0.1)">
       <defs>
        <path id="DejaVuSans-34" d="M 2419 4116 
L 825 1625 
L 2419 1625 
L 2419 4116 
z
M 2253 4666 
L 3047 4666 
L 3047 1625 
L 3713 1625 
L 3713 1100 
L 3047 1100 
L 3047 0 
L 2419 0 
L 2419 1100 
L 313 1100 
L 313 1709 
L 2253 4666 
z
" transform="scale(0.015625)"/>
       </defs>
       <use xlink:href="#DejaVuSans-34"/>
       <use xlink:href="#DejaVuSans-30" transform="translate(63.623047 0)"/>
       <use xlink:href="#DejaVuSans-30" transform="translate(127.246094 0)"/>
       <use xlink:href="#DejaVuSans-30" transform="translate(190.869141 0)"/>
      </g>
     </g>
    </g>
    <g id="xtick_4">
     <g id="line2d_7">
      <path d="M 306.645298 458.918125 
L 306.645298 22.318125 
" clip-path="url(#pd1e6ed4e3a)" style="fill: none; stroke-dasharray: 2.96,1.28; stroke-dashoffset: 0; stroke: #b0b0b0; stroke-opacity: 0.6; stroke-width: 0.8"/>
     </g>
     <g id="line2d_8">
      <g>
       <use xlink:href="#m532c61e04c" x="306.645298" y="458.918125" style="stroke: #000000; stroke-width: 0.8"/>
      </g>
     </g>
     <g id="text_4">
      <!-- 6000 -->
      <g transform="translate(293.920298 473.516563) scale(0.1 -0.1)">
       <defs>
        <path id="DejaVuSans-36" d="M 2113 2584 
Q 1688 2584 1439 2293 
Q 1191 2003 1191 1497 
Q 1191 994 1439 701 
Q 1688 409 2113 409 
Q 2538 409 2786 701 
Q 3034 994 3034 1497 
Q 3034 2003 2786 2293 
Q 2538 2584 2113 2584 
z
M 3366 4563 
L 3366 3988 
Q 3128 4100 2886 4159 
Q 2644 4219 2406 4219 
Q 1781 4219 1451 3797 
Q 1122 3375 1075 2522 
Q 1259 2794 1537 2939 
Q 1816 3084 2150 3084 
Q 2853 3084 3261 2657 
Q 3669 2231 3669 1497 
Q 3669 778 3244 343 
Q 2819 -91 2113 -91 
Q 1303 -91 875 529 
Q 447 1150 447 2328 
Q 447 3434 972 4092 
Q 1497 4750 2381 4750 
Q 2619 4750 2861 4703 
Q 3103 4656 3366 4563 
z
" transform="scale(0.015625)"/>
       </defs>
       <use xlink:href="#DejaVuSans-36"/>
       <use xlink:href="#DejaVuSans-30" transform="translate(63.623047 0)"/>
       <use xlink:href="#DejaVuSans-30" transform="translate(127.246094 0)"/>
       <use xlink:href="#DejaVuSans-30" transform="translate(190.869141 0)"/>
      </g>
     </g>
    </g>
    <g id="xtick_5">
     <g id="line2d_9">
      <path d="M 385.336704 458.918125 
L 385.336704 22.318125 
" clip-path="url(#pd1e6ed4e3a)" style="fill: none; stroke-dasharray: 2.96,1.28; stroke-dashoffset: 0; stroke: #b0b0b0; stroke-opacity: 0.6; stroke-width: 0.8"/>
     </g>
     <g id="line2d_10">
      <g>
       <use xlink:href="#m532c61e04c" x="385.336704" y="458.918125" style="stroke: #000000; stroke-width: 0.8"/>
      </g>
     </g>
     <g id="text_5">
      <!-- 8000 -->
      <g transform="translate(372.611704 473.516563) scale(0.1 -0.1)">
       <defs>
        <path id="DejaVuSans-38" d="M 2034 2216 
Q 1584 2216 1326 1975 
Q 1069 1734 1069 1313 
Q 1069 891 1326 650 
Q 1584 409 2034 409 
Q 2484 409 2743 651 
Q 3003 894 3003 1313 
Q 3003 1734 2745 1975 
Q 2488 2216 2034 2216 
z
M 1403 2484 
Q 997 2584 770 2862 
Q 544 3141 544 3541 
Q 544 4100 942 4425 
Q 1341 4750 2034 4750 
Q 2731 4750 3128 4425 
Q 3525 4100 3525 3541 
Q 3525 3141 3298 2862 
Q 3072 2584 2669 2484 
Q 3125 2378 3379 2068 
Q 3634 1759 3634 1313 
Q 3634 634 3220 271 
Q 2806 -91 2034 -91 
Q 1263 -91 848 271 
Q 434 634 434 1313 
Q 434 1759 690 2068 
Q 947 2378 1403 2484 
z
M 1172 3481 
Q 1172 3119 1398 2916 
Q 1625 2713 2034 2713 
Q 2441 2713 2670 2916 
Q 2900 3119 2900 3481 
Q 2900 3844 2670 4047 
Q 2441 4250 2034 4250 
Q 1625 4250 1398 4047 
Q 1172 3844 1172 3481 
z
" transform="scale(0.015625)"/>
       </defs>
       <use xlink:href="#DejaVuSans-38"/>
       <use xlink:href="#DejaVuSans-30" transform="translate(63.623047 0)"/>
       <use xlink:href="#DejaVuSans-30" transform="translate(127.246094 0)"/>
       <use xlink:href="#DejaVuSans-30" transform="translate(190.869141 0)"/>
      </g>
     </g>
    </g>
    <g id="xtick_6">
     <g id="line2d_11">
      <path d="M 464.02811 458.918125 
L 464.02811 22.318125 
" clip-path="url(#pd1e6ed4e3a)" style="fill: none; stroke-dasharray: 2.96,1.28; stroke-dashoffset: 0; stroke: #b0b0b0; stroke-opacity: 0.6; stroke-width: 0.8"/>
     </g>
     <g id="line2d_12">
      <g>
       <use xlink:href="#m532c61e04c" x="464.02811" y="458.918125" style="stroke: #000000; stroke-width: 0.8"/>
      </g>
     </g>
     <g id="text_6">
      <!-- 10000 -->
      <g transform="translate(448.12186 473.516563) scale(0.1 -0.1)">
       <defs>
        <path id="DejaVuSans-31" d="M 794 531 
L 1825 531 
L 1825 4091 
L 703 3866 
L 703 4441 
L 1819 4666 
L 2450 4666 
L 2450 531 
L 3481 531 
L 3481 0 
L 794 0 
L 794 531 
z
" transform="scale(0.015625)"/>
       </defs>
       <use xlink:href="#DejaVuSans-31"/>
       <use xlink:href="#DejaVuSans-30" transform="translate(63.623047 0)"/>
       <use xlink:href="#DejaVuSans-30" transform="translate(127.246094 0)"/>
       <use xlink:href="#DejaVuSans-30" transform="translate(190.869141 0)"/>
       <use xlink:href="#DejaVuSans-30" transform="translate(254.492188 0)"/>
      </g>
     </g>
    </g>
    <g id="xtick_7">
     <g id="line2d_13">
      <path d="M 542.719516 458.918125 
L 542.719516 22.318125 
" clip-path="url(#pd1e6ed4e3a)" style="fill: none; stroke-dasharray: 2.96,1.28; stroke-dashoffset: 0; stroke: #b0b0b0; stroke-opacity: 0.6; stroke-width: 0.8"/>
     </g>
     <g id="line2d_14">
      <g>
       <use xlink:href="#m532c61e04c" x="542.719516" y="458.918125" style="stroke: #000000; stroke-width: 0.8"/>
      </g>
     </g>
     <g id="text_7">
      <!-- 12000 -->
      <g transform="translate(526.813266 473.516563) scale(0.1 -0.1)">
       <use xlink:href="#DejaVuSans-31"/>
       <use xlink:href="#DejaVuSans-32" transform="translate(63.623047 0)"/>
       <use xlink:href="#DejaVuSans-30" transform="translate(127.246094 0)"/>
       <use xlink:href="#DejaVuSans-30" transform="translate(190.869141 0)"/>
       <use xlink:href="#DejaVuSans-30" transform="translate(254.492188 0)"/>
      </g>
     </g>
    </g>
    <g id="text_8">
     <!-- Distance from Terminus [nt] -->
     <g transform="translate(236.882656 487.194687) scale(0.1 -0.1)">
      <defs>
       <path id="DejaVuSans-44" d="M 1259 4147 
L 1259 519 
L 2022 519 
Q 2988 519 3436 956 
Q 3884 1394 3884 2338 
Q 3884 3275 3436 3711 
Q 2988 4147 2022 4147 
L 1259 4147 
z
M 628 4666 
L 1925 4666 
Q 3281 4666 3915 4102 
Q 4550 3538 4550 2338 
Q 4550 1131 3912 565 
Q 3275 0 1925 0 
L 628 0 
L 628 4666 
z
" transform="scale(0.015625)"/>
       <path id="DejaVuSans-69" d="M 603 3500 
L 1178 3500 
L 1178 0 
L 603 0 
L 603 3500 
z
M 603 4863 
L 1178 4863 
L 1178 4134 
L 603 4134 
L 603 4863 
z
" transform="scale(0.015625)"/>
       <path id="DejaVuSans-73" d="M 2834 3397 
L 2834 2853 
Q 2591 2978 2328 3040 
Q 2066 3103 1784 3103 
Q 1356 3103 1142 2972 
Q 928 2841 928 2578 
Q 928 2378 1081 2264 
Q 1234 2150 1697 2047 
L 1894 2003 
Q 2506 1872 2764 1633 
Q 3022 1394 3022 966 
Q 3022 478 2636 193 
Q 2250 -91 1575 -91 
Q 1294 -91 989 -36 
Q 684 19 347 128 
L 347 722 
Q 666 556 975 473 
Q 1284 391 1588 391 
Q 1994 391 2212 530 
Q 2431 669 2431 922 
Q 2431 1156 2273 1281 
Q 2116 1406 1581 1522 
L 1381 1569 
Q 847 1681 609 1914 
Q 372 2147 372 2553 
Q 372 3047 722 3315 
Q 1072 3584 1716 3584 
Q 2034 3584 2315 3537 
Q 2597 3491 2834 3397 
z
" transform="scale(0.015625)"/>
       <path id="DejaVuSans-74" d="M 1172 4494 
L 1172 3500 
L 2356 3500 
L 2356 3053 
L 1172 3053 
L 1172 1153 
Q 1172 725 1289 603 
Q 1406 481 1766 481 
L 2356 481 
L 2356 0 
L 1766 0 
Q 1100 0 847 248 
Q 594 497 594 1153 
L 594 3053 
L 172 3053 
L 172 3500 
L 594 3500 
L 594 4494 
L 1172 4494 
z
" transform="scale(0.015625)"/>
       <path id="DejaVuSans-61" d="M 2194 1759 
Q 1497 1759 1228 1600 
Q 959 1441 959 1056 
Q 959 750 1161 570 
Q 1363 391 1709 391 
Q 2188 391 2477 730 
Q 2766 1069 2766 1631 
L 2766 1759 
L 2194 1759 
z
M 3341 1997 
L 3341 0 
L 2766 0 
L 2766 531 
Q 2569 213 2275 61 
Q 1981 -91 1556 -91 
Q 1019 -91 701 211 
Q 384 513 384 1019 
Q 384 1609 779 1909 
Q 1175 2209 1959 2209 
L 2766 2209 
L 2766 2266 
Q 2766 2663 2505 2880 
Q 2244 3097 1772 3097 
Q 1472 3097 1187 3025 
Q 903 2953 641 2809 
L 641 3341 
Q 956 3463 1253 3523 
Q 1550 3584 1831 3584 
Q 2591 3584 2966 3190 
Q 3341 2797 3341 1997 
z
" transform="scale(0.015625)"/>
       <path id="DejaVuSans-6e" d="M 3513 2113 
L 3513 0 
L 2938 0 
L 2938 2094 
Q 2938 2591 2744 2837 
Q 2550 3084 2163 3084 
Q 1697 3084 1428 2787 
Q 1159 2491 1159 1978 
L 1159 0 
L 581 0 
L 581 3500 
L 1159 3500 
L 1159 2956 
Q 1366 3272 1645 3428 
Q 1925 3584 2291 3584 
Q 2894 3584 3203 3211 
Q 3513 2838 3513 2113 
z
" transform="scale(0.015625)"/>
       <path id="DejaVuSans-63" d="M 3122 3366 
L 3122 2828 
Q 2878 2963 2633 3030 
Q 2388 3097 2138 3097 
Q 1578 3097 1268 2742 
Q 959 2388 959 1747 
Q 959 1106 1268 751 
Q 1578 397 2138 397 
Q 2388 397 2633 464 
Q 2878 531 3122 666 
L 3122 134 
Q 2881 22 2623 -34 
Q 2366 -91 2075 -91 
Q 1284 -91 818 406 
Q 353 903 353 1747 
Q 353 2603 823 3093 
Q 1294 3584 2113 3584 
Q 2378 3584 2631 3529 
Q 2884 3475 3122 3366 
z
" transform="scale(0.015625)"/>
       <path id="DejaVuSans-65" d="M 3597 1894 
L 3597 1613 
L 953 1613 
Q 991 1019 1311 708 
Q 1631 397 2203 397 
Q 2534 397 2845 478 
Q 3156 559 3463 722 
L 3463 178 
Q 3153 47 2828 -22 
Q 2503 -91 2169 -91 
Q 1331 -91 842 396 
Q 353 884 353 1716 
Q 353 2575 817 3079 
Q 1281 3584 2069 3584 
Q 2775 3584 3186 3129 
Q 3597 2675 3597 1894 
z
M 3022 2063 
Q 3016 2534 2758 2815 
Q 2500 3097 2075 3097 
Q 1594 3097 1305 2825 
Q 1016 2553 972 2059 
L 3022 2063 
z
" transform="scale(0.015625)"/>
       <path id="DejaVuSans-20" transform="scale(0.015625)"/>
       <path id="DejaVuSans-66" d="M 2375 4863 
L 2375 4384 
L 1825 4384 
Q 1516 4384 1395 4259 
Q 1275 4134 1275 3809 
L 1275 3500 
L 2222 3500 
L 2222 3053 
L 1275 3053 
L 1275 0 
L 697 0 
L 697 3053 
L 147 3053 
L 147 3500 
L 697 3500 
L 697 3744 
Q 697 4328 969 4595 
Q 1241 4863 1831 4863 
L 2375 4863 
z
" transform="scale(0.015625)"/>
       <path id="DejaVuSans-72" d="M 2631 2963 
Q 2534 3019 2420 3045 
Q 2306 3072 2169 3072 
Q 1681 3072 1420 2755 
Q 1159 2438 1159 1844 
L 1159 0 
L 581 0 
L 581 3500 
L 1159 3500 
L 1159 2956 
Q 1341 3275 1631 3429 
Q 1922 3584 2338 3584 
Q 2397 3584 2469 3576 
Q 2541 3569 2628 3553 
L 2631 2963 
z
" transform="scale(0.015625)"/>
       <path id="DejaVuSans-6f" d="M 1959 3097 
Q 1497 3097 1228 2736 
Q 959 2375 959 1747 
Q 959 1119 1226 758 
Q 1494 397 1959 397 
Q 2419 397 2687 759 
Q 2956 1122 2956 1747 
Q 2956 2369 2687 2733 
Q 2419 3097 1959 3097 
z
M 1959 3584 
Q 2709 3584 3137 3096 
Q 3566 2609 3566 1747 
Q 3566 888 3137 398 
Q 2709 -91 1959 -91 
Q 1206 -91 779 398 
Q 353 888 353 1747 
Q 353 2609 779 3096 
Q 1206 3584 1959 3584 
z
" transform="scale(0.015625)"/>
       <path id="DejaVuSans-6d" d="M 3328 2828 
Q 3544 3216 3844 3400 
Q 4144 3584 4550 3584 
Q 5097 3584 5394 3201 
Q 5691 2819 5691 2113 
L 5691 0 
L 5113 0 
L 5113 2094 
Q 5113 2597 4934 2840 
Q 4756 3084 4391 3084 
Q 3944 3084 3684 2787 
Q 3425 2491 3425 1978 
L 3425 0 
L 2847 0 
L 2847 2094 
Q 2847 2600 2669 2842 
Q 2491 3084 2119 3084 
Q 1678 3084 1418 2786 
Q 1159 2488 1159 1978 
L 1159 0 
L 581 0 
L 581 3500 
L 1159 3500 
L 1159 2956 
Q 1356 3278 1631 3431 
Q 1906 3584 2284 3584 
Q 2666 3584 2933 3390 
Q 3200 3197 3328 2828 
z
" transform="scale(0.015625)"/>
       <path id="DejaVuSans-54" d="M -19 4666 
L 3928 4666 
L 3928 4134 
L 2272 4134 
L 2272 0 
L 1638 0 
L 1638 4134 
L -19 4134 
L -19 4666 
z
" transform="scale(0.015625)"/>
       <path id="DejaVuSans-75" d="M 544 1381 
L 544 3500 
L 1119 3500 
L 1119 1403 
Q 1119 906 1312 657 
Q 1506 409 1894 409 
Q 2359 409 2629 706 
Q 2900 1003 2900 1516 
L 2900 3500 
L 3475 3500 
L 3475 0 
L 2900 0 
L 2900 538 
Q 2691 219 2414 64 
Q 2138 -91 1772 -91 
Q 1169 -91 856 284 
Q 544 659 544 1381 
z
M 1991 3584 
L 1991 3584 
z
" transform="scale(0.015625)"/>
       <path id="DejaVuSans-5b" d="M 550 4863 
L 1875 4863 
L 1875 4416 
L 1125 4416 
L 1125 -397 
L 1875 -397 
L 1875 -844 
L 550 -844 
L 550 4863 
z
" transform="scale(0.015625)"/>
       <path id="DejaVuSans-5d" d="M 1947 4863 
L 1947 -844 
L 622 -844 
L 622 -397 
L 1369 -397 
L 1369 4416 
L 622 4416 
L 622 4863 
L 1947 4863 
z
" transform="scale(0.015625)"/>
      </defs>
      <use xlink:href="#DejaVuSans-44"/>
      <use xlink:href="#DejaVuSans-69" transform="translate(77.001953 0)"/>
      <use xlink:href="#DejaVuSans-73" transform="translate(104.785156 0)"/>
      <use xlink:href="#DejaVuSans-74" transform="translate(156.884766 0)"/>
      <use xlink:href="#DejaVuSans-61" transform="translate(196.09375 0)"/>
      <use xlink:href="#DejaVuSans-6e" transform="translate(257.373047 0)"/>
      <use xlink:href="#DejaVuSans-63" transform="translate(320.751953 0)"/>
      <use xlink:href="#DejaVuSans-65" transform="translate(375.732422 0)"/>
      <use xlink:href="#DejaVuSans-20" transform="translate(437.255859 0)"/>
      <use xlink:href="#DejaVuSans-66" transform="translate(469.042969 0)"/>
      <use xlink:href="#DejaVuSans-72" transform="translate(504.248047 0)"/>
      <use xlink:href="#DejaVuSans-6f" transform="translate(543.111328 0)"/>
      <use xlink:href="#DejaVuSans-6d" transform="translate(604.292969 0)"/>
      <use xlink:href="#DejaVuSans-20" transform="translate(701.705078 0)"/>
      <use xlink:href="#DejaVuSans-54" transform="translate(733.492188 0)"/>
      <use xlink:href="#DejaVuSans-65" transform="translate(777.576172 0)"/>
      <use xlink:href="#DejaVuSans-72" transform="translate(839.099609 0)"/>
      <use xlink:href="#DejaVuSans-6d" transform="translate(878.462891 0)"/>
      <use xlink:href="#DejaVuSans-69" transform="translate(975.875 0)"/>
      <use xlink:href="#DejaVuSans-6e" transform="translate(1003.658203 0)"/>
      <use xlink:href="#DejaVuSans-75" transform="translate(1067.037109 0)"/>
      <use xlink:href="#DejaVuSans-73" transform="translate(1130.416016 0)"/>
      <use xlink:href="#DejaVuSans-20" transform="translate(1182.515625 0)"/>
      <use xlink:href="#DejaVuSans-5b" transform="translate(1214.302734 0)"/>
      <use xlink:href="#DejaVuSans-6e" transform="translate(1253.316406 0)"/>
      <use xlink:href="#DejaVuSans-74" transform="translate(1316.695312 0)"/>
      <use xlink:href="#DejaVuSans-5d" transform="translate(1355.904297 0)"/>
     </g>
    </g>
   </g>
   <g id="matplotlib.axis_2">
    <g id="ytick_1">
     <g id="line2d_15">
      <path d="M 46.965625 439.07267 
L 566.285625 439.07267 
" clip-path="url(#pd1e6ed4e3a)" style="fill: none; stroke-dasharray: 2.96,1.28; stroke-dashoffset: 0; stroke: #b0b0b0; stroke-opacity: 0.6; stroke-width: 0.8"/>
     </g>
     <g id="line2d_16">
      <defs>
       <path id="m11dd46203e" d="M 0 0 
L -3.5 0 
" style="stroke: #000000; stroke-width: 0.8"/>
      </defs>
      <g>
       <use xlink:href="#m11dd46203e" x="46.965625" y="439.07267" style="stroke: #000000; stroke-width: 0.8"/>
      </g>
     </g>
     <g id="text_9">
      <!-- 0 -->
      <g transform="translate(33.603125 442.871889) scale(0.1 -0.1)">
       <use xlink:href="#DejaVuSans-30"/>
      </g>
     </g>
    </g>
    <g id="ytick_2">
     <g id="line2d_17">
      <path d="M 46.965625 378.290268 
L 566.285625 378.290268 
" clip-path="url(#pd1e6ed4e3a)" style="fill: none; stroke-dasharray: 2.96,1.28; stroke-dashoffset: 0; stroke: #b0b0b0; stroke-opacity: 0.6; stroke-width: 0.8"/>
     </g>
     <g id="line2d_18">
      <g>
       <use xlink:href="#m11dd46203e" x="46.965625" y="378.290268" style="stroke: #000000; stroke-width: 0.8"/>
      </g>
     </g>
     <g id="text_10">
      <!-- 20 -->
      <g transform="translate(27.240625 382.089486) scale(0.1 -0.1)">
       <use xlink:href="#DejaVuSans-32"/>
       <use xlink:href="#DejaVuSans-30" transform="translate(63.623047 0)"/>
      </g>
     </g>
    </g>
    <g id="ytick_3">
     <g id="line2d_19">
      <path d="M 46.965625 317.507865 
L 566.285625 317.507865 
" clip-path="url(#pd1e6ed4e3a)" style="fill: none; stroke-dasharray: 2.96,1.28; stroke-dashoffset: 0; stroke: #b0b0b0; stroke-opacity: 0.6; stroke-width: 0.8"/>
     </g>
     <g id="line2d_20">
      <g>
       <use xlink:href="#m11dd46203e" x="46.965625" y="317.507865" style="stroke: #000000; stroke-width: 0.8"/>
      </g>
     </g>
     <g id="text_11">
      <!-- 40 -->
      <g transform="translate(27.240625 321.307083) scale(0.1 -0.1)">
       <use xlink:href="#DejaVuSans-34"/>
       <use xlink:href="#DejaVuSans-30" transform="translate(63.623047 0)"/>
      </g>
     </g>
    </g>
    <g id="ytick_4">
     <g id="line2d_21">
      <path d="M 46.965625 256.725462 
L 566.285625 256.725462 
" clip-path="url(#pd1e6ed4e3a)" style="fill: none; stroke-dasharray: 2.96,1.28; stroke-dashoffset: 0; stroke: #b0b0b0; stroke-opacity: 0.6; stroke-width: 0.8"/>
     </g>
     <g id="line2d_22">
      <g>
       <use xlink:href="#m11dd46203e" x="46.965625" y="256.725462" style="stroke: #000000; stroke-width: 0.8"/>
      </g>
     </g>
     <g id="text_12">
      <!-- 60 -->
      <g transform="translate(27.240625 260.524681) scale(0.1 -0.1)">
       <use xlink:href="#DejaVuSans-36"/>
       <use xlink:href="#DejaVuSans-30" transform="translate(63.623047 0)"/>
      </g>
     </g>
    </g>
    <g id="ytick_5">
     <g id="line2d_23">
      <path d="M 46.965625 195.943059 
L 566.285625 195.943059 
" clip-path="url(#pd1e6ed4e3a)" style="fill: none; stroke-dasharray: 2.96,1.28; stroke-dashoffset: 0; stroke: #b0b0b0; stroke-opacity: 0.6; stroke-width: 0.8"/>
     </g>
     <g id="line2d_24">
      <g>
       <use xlink:href="#m11dd46203e" x="46.965625" y="195.943059" style="stroke: #000000; stroke-width: 0.8"/>
      </g>
     </g>
     <g id="text_13">
      <!-- 80 -->
      <g transform="translate(27.240625 199.742278) scale(0.1 -0.1)">
       <use xlink:href="#DejaVuSans-38"/>
       <use xlink:href="#DejaVuSans-30" transform="translate(63.623047 0)"/>
      </g>
     </g>
    </g>
    <g id="ytick_6">
     <g id="line2d_25">
      <path d="M 46.965625 135.160656 
L 566.285625 135.160656 
" clip-path="url(#pd1e6ed4e3a)" style="fill: none; stroke-dasharray: 2.96,1.28; stroke-dashoffset: 0; stroke: #b0b0b0; stroke-opacity: 0.6; stroke-width: 0.8"/>
     </g>
     <g id="line2d_26">
      <g>
       <use xlink:href="#m11dd46203e" x="46.965625" y="135.160656" style="stroke: #000000; stroke-width: 0.8"/>
      </g>
     </g>
     <g id="text_14">
      <!-- 100 -->
      <g transform="translate(20.878125 138.959875) scale(0.1 -0.1)">
       <use xlink:href="#DejaVuSans-31"/>
       <use xlink:href="#DejaVuSans-30" transform="translate(63.623047 0)"/>
       <use xlink:href="#DejaVuSans-30" transform="translate(127.246094 0)"/>
      </g>
     </g>
    </g>
    <g id="ytick_7">
     <g id="line2d_27">
      <path d="M 46.965625 74.378253 
L 566.285625 74.378253 
" clip-path="url(#pd1e6ed4e3a)" style="fill: none; stroke-dasharray: 2.96,1.28; stroke-dashoffset: 0; stroke: #b0b0b0; stroke-opacity: 0.6; stroke-width: 0.8"/>
     </g>
     <g id="line2d_28">
      <g>
       <use xlink:href="#m11dd46203e" x="46.965625" y="74.378253" style="stroke: #000000; stroke-width: 0.8"/>
      </g>
     </g>
     <g id="text_15">
      <!-- 120 -->
      <g transform="translate(20.878125 78.177472) scale(0.1 -0.1)">
       <use xlink:href="#DejaVuSans-31"/>
       <use xlink:href="#DejaVuSans-32" transform="translate(63.623047 0)"/>
       <use xlink:href="#DejaVuSans-30" transform="translate(127.246094 0)"/>
      </g>
     </g>
    </g>
    <g id="text_16">
     <!-- Average Cumulative Count -->
     <g transform="translate(14.798438 307.715) rotate(-90) scale(0.1 -0.1)">
      <defs>
       <path id="DejaVuSans-41" d="M 2188 4044 
L 1331 1722 
L 3047 1722 
L 2188 4044 
z
M 1831 4666 
L 2547 4666 
L 4325 0 
L 3669 0 
L 3244 1197 
L 1141 1197 
L 716 0 
L 50 0 
L 1831 4666 
z
" transform="scale(0.015625)"/>
       <path id="DejaVuSans-76" d="M 191 3500 
L 800 3500 
L 1894 563 
L 2988 3500 
L 3597 3500 
L 2284 0 
L 1503 0 
L 191 3500 
z
" transform="scale(0.015625)"/>
       <path id="DejaVuSans-67" d="M 2906 1791 
Q 2906 2416 2648 2759 
Q 2391 3103 1925 3103 
Q 1463 3103 1205 2759 
Q 947 2416 947 1791 
Q 947 1169 1205 825 
Q 1463 481 1925 481 
Q 2391 481 2648 825 
Q 2906 1169 2906 1791 
z
M 3481 434 
Q 3481 -459 3084 -895 
Q 2688 -1331 1869 -1331 
Q 1566 -1331 1297 -1286 
Q 1028 -1241 775 -1147 
L 775 -588 
Q 1028 -725 1275 -790 
Q 1522 -856 1778 -856 
Q 2344 -856 2625 -561 
Q 2906 -266 2906 331 
L 2906 616 
Q 2728 306 2450 153 
Q 2172 0 1784 0 
Q 1141 0 747 490 
Q 353 981 353 1791 
Q 353 2603 747 3093 
Q 1141 3584 1784 3584 
Q 2172 3584 2450 3431 
Q 2728 3278 2906 2969 
L 2906 3500 
L 3481 3500 
L 3481 434 
z
" transform="scale(0.015625)"/>
       <path id="DejaVuSans-43" d="M 4122 4306 
L 4122 3641 
Q 3803 3938 3442 4084 
Q 3081 4231 2675 4231 
Q 1875 4231 1450 3742 
Q 1025 3253 1025 2328 
Q 1025 1406 1450 917 
Q 1875 428 2675 428 
Q 3081 428 3442 575 
Q 3803 722 4122 1019 
L 4122 359 
Q 3791 134 3420 21 
Q 3050 -91 2638 -91 
Q 1578 -91 968 557 
Q 359 1206 359 2328 
Q 359 3453 968 4101 
Q 1578 4750 2638 4750 
Q 3056 4750 3426 4639 
Q 3797 4528 4122 4306 
z
" transform="scale(0.015625)"/>
       <path id="DejaVuSans-6c" d="M 603 4863 
L 1178 4863 
L 1178 0 
L 603 0 
L 603 4863 
z
" transform="scale(0.015625)"/>
      </defs>
      <use xlink:href="#DejaVuSans-41"/>
      <use xlink:href="#DejaVuSans-76" transform="translate(62.533203 0)"/>
      <use xlink:href="#DejaVuSans-65" transform="translate(121.712891 0)"/>
      <use xlink:href="#DejaVuSans-72" transform="translate(183.236328 0)"/>
      <use xlink:href="#DejaVuSans-61" transform="translate(224.349609 0)"/>
      <use xlink:href="#DejaVuSans-67" transform="translate(285.628906 0)"/>
      <use xlink:href="#DejaVuSans-65" transform="translate(349.105469 0)"/>
      <use xlink:href="#DejaVuSans-20" transform="translate(410.628906 0)"/>
      <use xlink:href="#DejaVuSans-43" transform="translate(442.416016 0)"/>
      <use xlink:href="#DejaVuSans-75" transform="translate(512.240234 0)"/>
      <use xlink:href="#DejaVuSans-6d" transform="translate(575.619141 0)"/>
      <use xlink:href="#DejaVuSans-75" transform="translate(673.03125 0)"/>
      <use xlink:href="#DejaVuSans-6c" transform="translate(736.410156 0)"/>
      <use xlink:href="#DejaVuSans-61" transform="translate(764.193359 0)"/>
      <use xlink:href="#DejaVuSans-74" transform="translate(825.472656 0)"/>
      <use xlink:href="#DejaVuSans-69" transform="translate(864.681641 0)"/>
      <use xlink:href="#DejaVuSans-76" transform="translate(892.464844 0)"/>
      <use xlink:href="#DejaVuSans-65" transform="translate(951.644531 0)"/>
      <use xlink:href="#DejaVuSans-20" transform="translate(1013.167969 0)"/>
      <use xlink:href="#DejaVuSans-43" transform="translate(1044.955078 0)"/>
      <use xlink:href="#DejaVuSans-6f" transform="translate(1114.779297 0)"/>
      <use xlink:href="#DejaVuSans-75" transform="translate(1175.960938 0)"/>
      <use xlink:href="#DejaVuSans-6e" transform="translate(1239.339844 0)"/>
      <use xlink:href="#DejaVuSans-74" transform="translate(1302.71875 0)"/>
     </g>
    </g>
   </g>
   <g id="line2d_29">
    <path d="M 70.57108 437.249198 
L 70.610425 437.249198 
L 71.043228 431.778782 
L 71.082574 431.778782 
L 71.633414 424.484894 
L 71.672759 424.484894 
L 72.341636 415.367533 
L 72.420328 415.367533 
L 73.443316 400.779757 
L 73.482662 400.779757 
L 73.600699 399.564109 
L 73.640044 399.564109 
L 74.190884 392.27022 
L 74.23023 392.27022 
L 74.387613 389.2311 
L 74.426958 389.2311 
L 74.584341 386.19198 
L 74.623687 386.19198 
L 74.78107 383.760684 
L 74.820415 383.760684 
L 74.977798 380.721564 
L 75.017144 380.721564 
L 75.174527 378.898092 
L 75.213873 378.898092 
L 75.371255 376.466795 
L 75.410601 376.466795 
L 75.567984 373.427675 
L 75.60733 373.427675 
L 75.764712 370.388555 
L 75.804058 370.388555 
L 75.961441 367.957259 
L 76.000787 367.957259 
L 76.276206 362.486843 
L 76.512281 360.055547 
L 76.551626 360.055547 
L 77.574615 345.46777 
L 77.61396 345.46777 
L 78.361529 335.134762 
L 78.400874 335.134762 
L 78.558257 332.703465 
L 78.597603 332.703465 
L 78.833677 328.448697 
L 78.873023 328.448697 
L 79.738628 316.292217 
L 79.777974 316.292217 
L 80.09274 312.645272 
L 80.171431 312.645272 
L 80.328814 309.606152 
L 80.36816 309.606152 
L 80.525542 307.174856 
L 80.564888 307.174856 
L 80.800962 304.74356 
L 80.840308 304.74356 
L 81.312456 298.66532 
L 81.430494 298.66532 
L 81.587876 296.234024 
L 81.627222 296.234024 
L 81.784605 293.802728 
L 81.823951 293.802728 
L 81.981333 291.371431 
L 82.020679 291.371431 
L 82.178062 288.940135 
L 82.217408 288.940135 
L 82.37479 286.508839 
L 82.414136 286.508839 
L 82.571519 284.077543 
L 82.610865 284.077543 
L 82.768247 281.646247 
L 82.807593 281.646247 
L 83.122359 277.999303 
L 83.161705 277.999303 
L 83.47647 274.352359 
L 83.555162 274.352359 
L 83.791236 271.921062 
L 83.830581 271.921062 
L 83.987964 270.705414 
L 84.02731 270.705414 
L 84.184693 268.881942 
L 84.224039 268.881942 
L 84.420767 267.05847 
L 84.460113 267.05847 
L 84.617496 265.842822 
L 84.656841 265.842822 
L 84.892915 263.411526 
L 84.932261 263.411526 
L 85.207681 260.372406 
L 85.247027 260.372406 
L 85.561792 256.725462 
L 85.640484 256.725462 
L 85.876558 254.294166 
L 85.915904 254.294166 
L 86.073287 252.470694 
L 86.112632 252.470694 
L 86.230669 251.255046 
L 86.270015 251.255046 
L 86.584781 247.608101 
L 86.663472 247.608101 
L 86.978238 243.961157 
L 87.056929 243.961157 
L 87.332349 240.922037 
L 87.489732 240.922037 
L 87.647115 239.706389 
L 87.68646 239.706389 
L 87.843843 237.882917 
L 87.883189 237.882917 
L 88.040572 236.059445 
L 88.079917 236.059445 
L 88.2373 234.235973 
L 88.276646 234.235973 
L 88.434029 232.412501 
L 88.473374 232.412501 
L 88.630757 230.589029 
L 88.670103 230.589029 
L 88.827486 228.765556 
L 88.866831 228.765556 
L 89.024214 226.942084 
L 89.06356 226.942084 
L 89.220943 225.118612 
L 89.260288 225.118612 
L 89.535708 222.079492 
L 89.6144 222.079492 
L 89.968511 217.824724 
L 90.007857 217.824724 
L 90.16524 216.609076 
L 90.204585 216.609076 
L 90.361968 215.393428 
L 90.401314 215.393428 
L 90.558697 214.17778 
L 90.598042 214.17778 
L 90.755425 212.962132 
L 90.794771 212.962132 
L 90.952154 211.746484 
L 90.991499 211.746484 
L 91.148882 210.530836 
L 91.188228 210.530836 
L 91.345611 209.315188 
L 91.384956 209.315188 
L 91.542339 208.099539 
L 91.581685 208.099539 
L 91.739068 206.883891 
L 91.778413 206.883891 
L 91.935796 205.668243 
L 91.975142 205.668243 
L 92.132525 204.452595 
L 92.171871 204.452595 
L 92.329253 203.236947 
L 92.368599 203.236947 
L 92.525982 202.021299 
L 92.565328 202.021299 
L 92.72271 200.805651 
L 92.762056 200.805651 
L 92.919439 199.590003 
L 92.958785 199.590003 
L 93.116167 198.374355 
L 93.155513 198.374355 
L 93.312896 197.158707 
L 93.352242 197.158707 
L 93.509624 195.943059 
L 93.54897 195.943059 
L 93.706353 194.727411 
L 93.745699 194.727411 
L 93.903081 193.511763 
L 93.942427 193.511763 
L 94.060464 192.903939 
L 94.139156 192.903939 
L 94.296538 191.688291 
L 94.335884 191.688291 
L 94.493267 190.472643 
L 94.532613 190.472643 
L 94.808033 187.433522 
L 94.92607 187.433522 
L 95.083453 186.217874 
L 95.122798 186.217874 
L 95.280181 185.002226 
L 95.319527 185.002226 
L 95.437564 184.394402 
L 95.516255 184.394402 
L 95.634292 183.178754 
L 95.712984 183.178754 
L 95.831021 181.963106 
L 95.909712 181.963106 
L 96.027749 181.355282 
L 96.106441 181.355282 
L 96.224478 180.747458 
L 96.303169 180.747458 
L 96.421206 180.139634 
L 96.499898 180.139634 
L 96.617935 179.53181 
L 96.696626 179.53181 
L 96.814663 178.923986 
L 96.893355 178.923986 
L 97.011392 178.316162 
L 97.090083 178.316162 
L 97.208121 177.708338 
L 97.286812 177.708338 
L 97.404849 177.100514 
L 97.48354 177.100514 
L 97.601578 176.49269 
L 97.680269 176.49269 
L 97.798306 175.884866 
L 97.876997 175.884866 
L 97.995035 175.277042 
L 98.073726 175.277042 
L 98.191763 174.669218 
L 98.270454 174.669218 
L 98.388492 174.061394 
L 98.467183 174.061394 
L 98.58522 173.45357 
L 98.663912 173.45357 
L 98.781949 172.845746 
L 98.86064 172.845746 
L 98.978677 172.237922 
L 99.057369 172.237922 
L 99.175406 171.630098 
L 99.254097 171.630098 
L 99.372134 171.022274 
L 99.450826 171.022274 
L 99.568863 170.41445 
L 99.608208 170.41445 
L 99.765591 169.198802 
L 99.844283 169.198802 
L 99.96232 168.590978 
L 100.041011 168.590978 
L 100.159048 167.983154 
L 100.23774 167.983154 
L 100.395122 166.767505 
L 100.434468 166.767505 
L 100.552505 166.159681 
L 100.631197 166.159681 
L 100.749234 165.551857 
L 101.221382 165.551857 
L 101.339419 164.944033 
L 104.644458 164.944033 
L 104.762495 164.336209 
L 105.155953 164.336209 
L 105.27399 163.728385 
L 105.864175 163.728385 
L 105.982212 163.120561 
L 109.523326 163.120561 
L 109.641363 162.512737 
L 109.995474 162.512737 
L 110.113511 161.904913 
L 110.782388 161.904913 
L 110.900425 161.297089 
L 114.362847 161.297089 
L 114.480884 160.689265 
L 114.834995 160.689265 
L 114.953033 160.081441 
L 115.62191 160.081441 
L 115.739947 159.473617 
L 119.202369 159.473617 
L 119.320406 158.865793 
L 119.674517 158.865793 
L 119.792554 158.257969 
L 120.500777 158.257969 
L 120.618814 157.650145 
L 124.04189 157.650145 
L 124.159927 157.042321 
L 124.514038 157.042321 
L 124.632076 156.434497 
L 125.340298 156.434497 
L 125.458335 155.826673 
L 128.881411 155.826673 
L 128.999449 155.218849 
L 129.35356 155.218849 
L 129.471597 154.611025 
L 130.17982 154.611025 
L 130.297857 154.003201 
L 133.760279 154.003201 
L 133.878316 153.395377 
L 134.193081 153.395377 
L 134.311118 152.787553 
L 135.019341 152.787553 
L 135.137378 152.179729 
L 138.5998 152.179729 
L 138.717837 151.571905 
L 139.032603 151.571905 
L 139.15064 150.964081 
L 139.819517 150.964081 
L 139.937554 150.356257 
L 143.439322 150.356257 
L 143.557359 149.748433 
L 143.872124 149.748433 
L 143.990161 149.140609 
L 144.698384 149.140609 
L 144.816421 148.532785 
L 148.278843 148.532785 
L 148.39688 147.924961 
L 148.711646 147.924961 
L 148.829683 147.317137 
L 149.537906 147.317137 
L 149.655943 146.709313 
L 153.15771 146.709313 
L 153.275747 146.101488 
L 153.551167 146.101488 
L 153.669204 145.493664 
L 154.377427 145.493664 
L 154.495464 144.88584 
L 158.036577 144.88584 
L 158.154615 144.278016 
L 158.351343 144.278016 
L 158.46938 143.670192 
L 159.216949 143.670192 
L 159.334986 143.062368 
L 162.876099 143.062368 
L 162.994136 142.454544 
L 163.190865 142.454544 
L 163.308902 141.84672 
L 164.05647 141.84672 
L 164.174507 141.238896 
L 167.71562 141.238896 
L 167.833657 140.631072 
L 168.030386 140.631072 
L 168.148423 140.023248 
L 168.895991 140.023248 
L 169.014029 139.415424 
L 172.515796 139.415424 
L 172.633833 138.8076 
L 172.869907 138.8076 
L 172.987945 138.199776 
L 173.735513 138.199776 
L 173.85355 137.591952 
L 177.355318 137.591952 
L 177.473355 136.984128 
L 177.709429 136.984128 
L 177.827466 136.376304 
L 178.575034 136.376304 
L 178.693072 135.76848 
L 182.194839 135.76848 
L 182.312876 135.160656 
L 182.54895 135.160656 
L 182.666988 134.552832 
L 183.414556 134.552832 
L 183.532593 133.945008 
L 187.034361 133.945008 
L 187.152398 133.337184 
L 187.388472 133.337184 
L 187.506509 132.72936 
L 188.254077 132.72936 
L 188.372114 132.121536 
L 191.873882 132.121536 
L 191.991919 131.513712 
L 192.188648 131.513712 
L 192.306685 130.905888 
L 193.132945 130.905888 
L 193.250982 130.298064 
L 196.752749 130.298064 
L 196.870786 129.69024 
L 197.028169 129.69024 
L 197.146206 129.082416 
L 197.972466 129.082416 
L 198.090503 128.474592 
L 201.592271 128.474592 
L 201.710308 127.866768 
L 201.907036 127.866768 
L 202.025073 127.258944 
L 202.811987 127.258944 
L 202.930025 126.65112 
L 206.431792 126.65112 
L 206.549829 126.043296 
L 206.746558 126.043296 
L 206.864595 125.435472 
L 207.651509 125.435472 
L 207.769546 124.827647 
L 211.271314 124.827647 
L 211.389351 124.219823 
L 211.586079 124.219823 
L 211.704116 123.611999 
L 212.49103 123.611999 
L 212.609068 123.004175 
L 216.071489 123.004175 
L 216.189527 122.396351 
L 216.425601 122.396351 
L 216.543638 121.788527 
L 217.330552 121.788527 
L 217.448589 121.180703 
L 220.911011 121.180703 
L 221.029048 120.572879 
L 221.265122 120.572879 
L 221.383159 119.965055 
L 222.170073 119.965055 
L 222.288111 119.357231 
L 225.750532 119.357231 
L 225.868569 118.749407 
L 226.025952 118.749407 
L 226.143989 118.141583 
L 227.009595 118.141583 
L 227.127632 117.533759 
L 230.590054 117.533759 
L 230.708091 116.925935 
L 230.865474 116.925935 
L 230.983511 116.318111 
L 231.849116 116.318111 
L 231.967153 115.710287 
L 235.468921 115.710287 
L 235.586958 115.102463 
L 235.704995 115.102463 
L 235.823032 114.494639 
L 236.688638 114.494639 
L 236.806675 113.886815 
L 240.308443 113.886815 
L 240.42648 113.278991 
L 240.544517 113.278991 
L 240.662554 112.671167 
L 241.528159 112.671167 
L 241.646196 112.063343 
L 245.108618 112.063343 
L 245.226655 111.455519 
L 245.384038 111.455519 
L 245.502075 110.847695 
L 246.407026 110.847695 
L 246.525064 110.239871 
L 249.94814 110.239871 
L 250.066177 109.632047 
L 250.184214 109.632047 
L 250.302251 109.024223 
L 251.246548 109.024223 
L 251.364585 108.416399 
L 254.827007 108.416399 
L 254.945044 107.808575 
L 255.023735 107.808575 
L 255.141773 107.200751 
L 256.086069 107.200751 
L 256.204107 106.592927 
L 259.705874 106.592927 
L 259.823911 105.985103 
L 259.902603 105.985103 
L 260.02064 105.377279 
L 260.925591 105.377279 
L 261.043628 104.769455 
L 264.545396 104.769455 
L 264.663433 104.16163 
L 264.742124 104.16163 
L 264.860161 103.553806 
L 265.765112 103.553806 
L 265.883149 102.945982 
L 269.384917 102.945982 
L 269.502954 102.338158 
L 269.620991 102.338158 
L 269.739028 101.730334 
L 270.604634 101.730334 
L 270.722671 101.12251 
L 274.224439 101.12251 
L 274.342476 100.514686 
L 274.460513 100.514686 
L 274.57855 99.906862 
L 275.444155 99.906862 
L 275.562192 99.299038 
L 279.06396 99.299038 
L 279.181997 98.691214 
L 279.300034 98.691214 
L 279.418071 98.08339 
L 280.323023 98.08339 
L 280.44106 97.475566 
L 283.903481 97.475566 
L 284.021519 96.867742 
L 284.139556 96.867742 
L 284.257593 96.259918 
L 285.162544 96.259918 
L 285.280581 95.652094 
L 288.743003 95.652094 
L 288.86104 95.04427 
L 288.979077 95.04427 
L 289.097114 94.436446 
L 290.002065 94.436446 
L 290.120103 93.828622 
L 293.543179 93.828622 
L 293.661216 93.220798 
L 293.818599 93.220798 
L 293.936636 92.612974 
L 294.880933 92.612974 
L 294.99897 92.00515 
L 298.343355 92.00515 
L 298.461392 91.397326 
L 298.65812 91.397326 
L 298.776157 90.789502 
L 299.720454 90.789502 
L 299.838491 90.181678 
L 303.182876 90.181678 
L 303.300913 89.573854 
L 303.497642 89.573854 
L 303.615679 88.96603 
L 304.559976 88.96603 
L 304.678013 88.358206 
L 308.022397 88.358206 
L 308.140435 87.750382 
L 308.337163 87.750382 
L 308.4552 87.142558 
L 309.399497 87.142558 
L 309.517534 86.534734 
L 312.861919 86.534734 
L 312.979956 85.92691 
L 313.176685 85.92691 
L 313.294722 85.319086 
L 314.239019 85.319086 
L 314.357056 84.711262 
L 317.70144 84.711262 
L 317.819478 84.103438 
L 318.055552 84.103438 
L 318.173589 83.495614 
L 319.07854 83.495614 
L 319.196577 82.887789 
L 322.540962 82.887789 
L 322.658999 82.279965 
L 322.895073 82.279965 
L 323.01311 81.672141 
L 323.918061 81.672141 
L 324.036099 81.064317 
L 327.380483 81.064317 
L 327.49852 80.456493 
L 327.695249 80.456493 
L 327.813286 79.848669 
L 328.757583 79.848669 
L 328.87562 79.240845 
L 332.259351 79.240845 
L 332.377388 78.633021 
L 332.495425 78.633021 
L 332.613462 78.025197 
L 333.597104 78.025197 
L 333.715142 77.417373 
L 337.098872 77.417373 
L 337.216909 76.809549 
L 337.374292 76.809549 
L 337.492329 76.201725 
L 338.475972 76.201725 
L 338.594009 75.593901 
L 341.938393 75.593901 
L 342.056431 74.986077 
L 342.253159 74.986077 
L 342.371196 74.378253 
L 343.315493 74.378253 
L 343.43353 73.770429 
L 346.738569 73.770429 
L 346.856606 73.162605 
L 347.092681 73.162605 
L 347.210718 72.554781 
L 348.233706 72.554781 
L 348.351743 71.946957 
L 351.617436 71.946957 
L 351.735474 71.339133 
L 351.932202 71.339133 
L 352.050239 70.731309 
L 353.073227 70.731309 
L 353.191265 70.123485 
L 356.456958 70.123485 
L 356.574995 69.515661 
L 356.771724 69.515661 
L 356.889761 68.907837 
L 357.912749 68.907837 
L 358.030786 68.300013 
L 361.296479 68.300013 
L 361.414516 67.692189 
L 361.611245 67.692189 
L 361.729282 67.084365 
L 362.791616 67.084365 
L 362.909653 66.476541 
L 366.136001 66.476541 
L 366.254038 65.868717 
L 366.450766 65.868717 
L 366.568804 65.260893 
L 367.631138 65.260893 
L 367.749175 64.653069 
L 370.975522 64.653069 
L 371.093559 64.045245 
L 371.290288 64.045245 
L 371.408325 63.437421 
L 372.470659 63.437421 
L 372.588696 62.829597 
L 375.775698 62.829597 
L 375.893735 62.221773 
L 376.129809 62.221773 
L 376.247847 61.613948 
L 377.310181 61.613948 
L 377.428218 61.006124 
L 380.61522 61.006124 
L 380.733257 60.3983 
L 380.969331 60.3983 
L 381.087368 59.790476 
L 382.149702 59.790476 
L 382.267739 59.182652 
L 385.454741 59.182652 
L 385.572778 58.574828 
L 385.808852 58.574828 
L 385.926889 57.967004 
L 386.989223 57.967004 
L 387.107261 57.35918 
L 390.294263 57.35918 
L 390.4123 56.751356 
L 390.727065 56.751356 
L 390.845102 56.143532 
L 391.828745 56.143532 
L 391.946782 55.535708 
L 395.133784 55.535708 
L 395.251821 54.927884 
L 395.645278 54.927884 
L 395.763315 54.32006 
L 396.668266 54.32006 
L 396.786304 53.712236 
L 399.973305 53.712236 
L 400.091343 53.104412 
L 400.4848 53.104412 
L 400.602837 52.496588 
L 401.507788 52.496588 
L 401.625825 51.888764 
L 404.812827 51.888764 
L 404.930864 51.28094 
L 405.324321 51.28094 
L 405.442358 50.673116 
L 406.347309 50.673116 
L 406.465346 50.065292 
L 409.652348 50.065292 
L 409.770386 49.457468 
L 410.203188 49.457468 
L 410.321225 48.849644 
L 411.186831 48.849644 
L 411.304868 48.24182 
L 414.452524 48.24182 
L 414.570561 47.633996 
L 415.121401 47.633996 
L 415.239438 47.026172 
L 416.026352 47.026172 
L 416.144389 46.418348 
L 419.960923 46.418348 
L 420.07896 45.810524 
L 420.865874 45.810524 
L 420.983911 45.2027 
L 424.83979 45.2027 
L 424.957827 44.594876 
L 425.705395 44.594876 
L 425.823432 43.987052 
L 429.639966 43.987052 
L 429.758003 43.379228 
L 430.544917 43.379228 
L 430.662954 42.771404 
L 528.869829 42.771404 
L 528.987866 42.16358 
L 542.68017 42.16358 
L 542.68017 42.16358 
" clip-path="url(#pd1e6ed4e3a)" style="fill: none; stroke: #006ba4; stroke-width: 2; stroke-linecap: square"/>
   </g>
   <g id="line2d_30">
    <path d="M 70.57108 439.07267 
L 465.051098 439.07267 
L 465.169135 438.464846 
L 480.199194 438.464846 
L 480.317231 437.857022 
L 481.143491 437.857022 
L 481.261528 437.249198 
L 507.151001 437.249198 
L 507.269038 436.641374 
L 521.315454 436.641374 
L 521.433491 436.03355 
L 522.338442 436.03355 
L 522.456479 435.425726 
L 523.322085 435.425726 
L 523.440122 434.817902 
L 536.463549 434.817902 
L 536.581586 434.210078 
L 537.486538 434.210078 
L 537.604575 433.602254 
L 542.68017 433.602254 
L 542.68017 433.602254 
" clip-path="url(#pd1e6ed4e3a)" style="fill: none; stroke: #ff800e; stroke-width: 2; stroke-linecap: square"/>
   </g>
   <g id="line2d_31">
    <path d="M 70.57108 439.07267 
L 542.68017 439.07267 
L 542.68017 439.07267 
" clip-path="url(#pd1e6ed4e3a)" style="fill: none; stroke: #ababab; stroke-width: 2; stroke-linecap: square"/>
   </g>
   <g id="line2d_32">
    <path d="M 70.57108 439.07267 
L 542.68017 439.07267 
L 542.68017 439.07267 
" clip-path="url(#pd1e6ed4e3a)" style="fill: none; stroke: #595959; stroke-width: 2; stroke-linecap: square"/>
   </g>
   <g id="line2d_33">
    <path d="M 70.57108 439.07267 
L 89.142251 439.07267 
L 89.260288 438.796387 
L 91.188228 438.796387 
L 91.306265 438.520103 
L 92.604673 438.520103 
L 92.72271 438.24382 
L 101.378765 438.24382 
L 101.496802 437.967536 
L 122.979556 437.967536 
L 123.097593 437.691252 
L 124.277964 437.691252 
L 124.396001 437.414969 
L 180.2669 437.414969 
L 180.384937 437.138685 
L 213.356636 437.138685 
L 213.474673 436.862401 
L 247.508706 436.862401 
L 247.626743 436.586118 
L 249.987485 436.586118 
L 250.105523 436.309834 
L 254.551587 436.309834 
L 254.669624 436.03355 
L 280.598442 436.03355 
L 280.71648 435.757267 
L 283.313296 435.757267 
L 283.431333 435.480983 
L 288.546274 435.480983 
L 288.664312 435.204699 
L 396.904341 435.204699 
L 397.022378 434.928416 
L 445.063481 434.928416 
L 445.181518 434.652132 
L 453.483462 434.652132 
L 453.601499 434.375848 
L 475.47771 434.375848 
L 475.595747 434.099565 
L 542.68017 434.099565 
L 542.68017 434.099565 
" clip-path="url(#pd1e6ed4e3a)" style="fill: none; stroke-dasharray: 7.4,3.2; stroke-dashoffset: 0; stroke: #006ba4; stroke-width: 2"/>
   </g>
   <g id="line2d_34">
    <path d="M 70.57108 439.07267 
L 72.57771 439.07267 
L 72.695748 438.796387 
L 74.584341 438.796387 
L 74.702378 438.520103 
L 78.007417 438.520103 
L 78.125455 438.24382 
L 124.277964 438.24382 
L 124.396001 437.967536 
L 145.131187 437.967536 
L 145.249224 437.691252 
L 146.901743 437.691252 
L 147.019781 437.414969 
L 151.111734 437.414969 
L 151.229771 437.138685 
L 163.741704 437.138685 
L 163.859741 436.862401 
L 198.20854 436.862401 
L 198.326577 436.586118 
L 198.405269 436.586118 
L 198.523306 436.309834 
L 208.792534 436.309834 
L 208.910571 436.03355 
L 228.189966 436.03355 
L 228.308003 435.757267 
L 228.42604 435.757267 
L 228.544077 435.480983 
L 229.094917 435.480983 
L 229.212954 435.204699 
L 229.330991 435.204699 
L 229.449028 434.928416 
L 230.904819 434.928416 
L 231.022857 434.652132 
L 233.383599 434.652132 
L 233.501636 434.375848 
L 237.908355 434.375848 
L 238.026392 434.099565 
L 238.813306 434.099565 
L 238.931343 433.823281 
L 239.718257 433.823281 
L 239.836294 433.546997 
L 246.525064 433.546997 
L 246.643101 433.270714 
L 255.063081 433.270714 
L 255.181118 432.99443 
L 276.467144 432.99443 
L 276.585181 432.718147 
L 276.742564 432.718147 
L 276.860601 432.441863 
L 277.372095 432.441863 
L 277.490132 432.165579 
L 277.804898 432.165579 
L 277.922935 431.889296 
L 284.92647 431.889296 
L 285.044507 431.613012 
L 285.870767 431.613012 
L 285.988804 431.336728 
L 306.723989 431.336728 
L 306.842026 431.060445 
L 307.62894 431.060445 
L 307.746978 430.784161 
L 307.825669 430.784161 
L 307.943706 430.507877 
L 308.73062 430.507877 
L 308.848657 430.231594 
L 366.844224 430.231594 
L 366.962261 429.95531 
L 396.864995 429.95531 
L 396.983032 429.679026 
L 397.769946 429.679026 
L 397.887983 429.402743 
L 434.754907 429.402743 
L 434.872944 429.126459 
L 436.564809 429.126459 
L 436.682846 428.850175 
L 441.246948 428.850175 
L 441.364985 428.573892 
L 442.702739 428.573892 
L 442.820776 428.297608 
L 464.85437 428.297608 
L 464.972407 428.021324 
L 465.759321 428.021324 
L 465.877358 427.745041 
L 466.467544 427.745041 
L 466.585581 427.468757 
L 467.411841 427.468757 
L 467.529878 427.192474 
L 472.762856 427.192474 
L 472.880893 426.91619 
L 473.667807 426.91619 
L 473.785844 426.639906 
L 536.148784 426.639906 
L 536.266821 426.363623 
L 542.68017 426.363623 
L 542.68017 426.363623 
" clip-path="url(#pd1e6ed4e3a)" style="fill: none; stroke-dasharray: 7.4,3.2; stroke-dashoffset: 0; stroke: #ff800e; stroke-width: 2"/>
   </g>
   <g id="line2d_35">
    <path d="M 70.57108 439.07267 
L 110.664351 439.07267 
L 110.782388 438.796387 
L 129.62898 438.796387 
L 129.747017 438.520103 
L 129.825708 438.520103 
L 129.943745 438.24382 
L 140.212974 438.24382 
L 140.331011 437.967536 
L 177.827466 437.967536 
L 177.984849 437.414969 
L 179.834097 437.414969 
L 179.952134 437.138685 
L 183.139136 437.138685 
L 183.257173 436.862401 
L 183.335864 436.862401 
L 183.453902 436.586118 
L 184.004741 436.586118 
L 184.122779 436.309834 
L 186.601558 436.309834 
L 186.719595 436.03355 
L 193.72313 436.03355 
L 193.841167 435.757267 
L 208.202349 435.757267 
L 208.320386 435.480983 
L 209.185991 435.480983 
L 209.304029 435.204699 
L 215.284575 435.204699 
L 215.402612 434.928416 
L 215.52065 434.928416 
L 215.638687 434.652132 
L 225.907915 434.652132 
L 226.025952 434.375848 
L 231.376968 434.375848 
L 231.495005 434.099565 
L 234.445933 434.099565 
L 234.56397 433.823281 
L 234.682007 433.823281 
L 234.800044 433.546997 
L 240.033023 433.546997 
L 240.15106 433.270714 
L 245.069273 433.270714 
L 245.18731 432.99443 
L 261.673159 432.99443 
L 261.791196 432.718147 
L 262.735493 432.718147 
L 262.85353 432.441863 
L 263.561753 432.441863 
L 263.67979 432.165579 
L 272.021079 432.165579 
L 272.139116 431.889296 
L 282.72311 431.889296 
L 282.841148 431.613012 
L 291.261128 431.613012 
L 291.379165 431.336728 
L 293.818599 431.336728 
L 293.936636 431.060445 
L 294.920278 431.060445 
L 295.038315 430.784161 
L 298.343355 430.784161 
L 298.461392 430.507877 
L 312.979956 430.507877 
L 313.097993 430.231594 
L 314.081636 430.231594 
L 314.199673 429.95531 
L 351.774819 429.95531 
L 351.892856 429.679026 
L 365.821235 429.679026 
L 365.939272 429.402743 
L 368.06394 429.402743 
L 368.181977 429.126459 
L 373.92645 429.126459 
L 374.044487 428.850175 
L 383.959604 428.850175 
L 384.077641 428.573892 
L 403.120962 428.573892 
L 403.238999 428.297608 
L 419.646157 428.297608 
L 419.764194 428.021324 
L 421.495405 428.021324 
L 421.613442 427.745041 
L 427.593989 427.745041 
L 427.712026 427.468757 
L 453.562153 427.468757 
L 453.68019 427.192474 
L 459.81812 427.192474 
L 459.936157 426.91619 
L 471.149682 426.91619 
L 471.267719 426.639906 
L 472.762856 426.639906 
L 472.880893 426.363623 
L 479.018823 426.363623 
L 479.13686 426.087339 
L 542.68017 426.087339 
L 542.68017 426.087339 
" clip-path="url(#pd1e6ed4e3a)" style="fill: none; stroke-dasharray: 7.4,3.2; stroke-dashoffset: 0; stroke: #ababab; stroke-width: 2"/>
   </g>
   <g id="line2d_36">
    <path d="M 70.57108 439.07267 
L 233.46229 439.07267 
L 233.580327 438.796387 
L 233.698364 438.796387 
L 233.816402 438.520103 
L 244.08563 438.520103 
L 244.203667 438.24382 
L 281.739468 438.24382 
L 281.857505 437.967536 
L 290.23814 437.967536 
L 290.356177 437.691252 
L 311.996313 437.691252 
L 312.114351 437.414969 
L 313.097993 437.414969 
L 313.21603 437.138685 
L 402.137319 437.138685 
L 402.255356 436.862401 
L 470.16604 436.862401 
L 470.284077 436.586118 
L 471.779214 436.586118 
L 471.897251 436.309834 
L 478.03518 436.309834 
L 478.153217 436.03355 
L 542.68017 436.03355 
L 542.68017 436.03355 
" clip-path="url(#pd1e6ed4e3a)" style="fill: none; stroke-dasharray: 7.4,3.2; stroke-dashoffset: 0; stroke: #595959; stroke-width: 2"/>
   </g>
   <g id="patch_3">
    <path d="M 46.965625 458.918125 
L 46.965625 22.318125 
" style="fill: none; stroke: #000000; stroke-width: 0.8; stroke-linejoin: miter; stroke-linecap: square"/>
   </g>
   <g id="patch_4">
    <path d="M 566.285625 458.918125 
L 566.285625 22.318125 
" style="fill: none; stroke: #000000; stroke-width: 0.8; stroke-linejoin: miter; stroke-linecap: square"/>
   </g>
   <g id="patch_5">
    <path d="M 46.965625 458.918125 
L 566.285625 458.918125 
" style="fill: none; stroke: #000000; stroke-width: 0.8; stroke-linejoin: miter; stroke-linecap: square"/>
   </g>
   <g id="patch_6">
    <path d="M 46.965625 22.318125 
L 566.285625 22.318125 
" style="fill: none; stroke: #000000; stroke-width: 0.8; stroke-linejoin: miter; stroke-linecap: square"/>
   </g>
   <g id="text_17">
    <!-- Telomeric Motif Distribution: A_bicolor -->
    <g transform="translate(176.703125 16.318125) scale(0.12 -0.12)">
     <defs>
      <path id="DejaVuSans-Bold-54" d="M 31 4666 
L 4331 4666 
L 4331 3756 
L 2784 3756 
L 2784 0 
L 1581 0 
L 1581 3756 
L 31 3756 
L 31 4666 
z
" transform="scale(0.015625)"/>
      <path id="DejaVuSans-Bold-65" d="M 4031 1759 
L 4031 1441 
L 1416 1441 
Q 1456 1047 1700 850 
Q 1944 653 2381 653 
Q 2734 653 3104 758 
Q 3475 863 3866 1075 
L 3866 213 
Q 3469 63 3072 -14 
Q 2675 -91 2278 -91 
Q 1328 -91 801 392 
Q 275 875 275 1747 
Q 275 2603 792 3093 
Q 1309 3584 2216 3584 
Q 3041 3584 3536 3087 
Q 4031 2591 4031 1759 
z
M 2881 2131 
Q 2881 2450 2695 2645 
Q 2509 2841 2209 2841 
Q 1884 2841 1681 2658 
Q 1478 2475 1428 2131 
L 2881 2131 
z
" transform="scale(0.015625)"/>
      <path id="DejaVuSans-Bold-6c" d="M 538 4863 
L 1656 4863 
L 1656 0 
L 538 0 
L 538 4863 
z
" transform="scale(0.015625)"/>
      <path id="DejaVuSans-Bold-6f" d="M 2203 2784 
Q 1831 2784 1636 2517 
Q 1441 2250 1441 1747 
Q 1441 1244 1636 976 
Q 1831 709 2203 709 
Q 2569 709 2762 976 
Q 2956 1244 2956 1747 
Q 2956 2250 2762 2517 
Q 2569 2784 2203 2784 
z
M 2203 3584 
Q 3106 3584 3614 3096 
Q 4122 2609 4122 1747 
Q 4122 884 3614 396 
Q 3106 -91 2203 -91 
Q 1297 -91 786 396 
Q 275 884 275 1747 
Q 275 2609 786 3096 
Q 1297 3584 2203 3584 
z
" transform="scale(0.015625)"/>
      <path id="DejaVuSans-Bold-6d" d="M 3781 2919 
Q 3994 3244 4286 3414 
Q 4578 3584 4928 3584 
Q 5531 3584 5847 3212 
Q 6163 2841 6163 2131 
L 6163 0 
L 5038 0 
L 5038 1825 
Q 5041 1866 5042 1909 
Q 5044 1953 5044 2034 
Q 5044 2406 4934 2573 
Q 4825 2741 4581 2741 
Q 4263 2741 4089 2478 
Q 3916 2216 3909 1719 
L 3909 0 
L 2784 0 
L 2784 1825 
Q 2784 2406 2684 2573 
Q 2584 2741 2328 2741 
Q 2006 2741 1831 2477 
Q 1656 2213 1656 1722 
L 1656 0 
L 531 0 
L 531 3500 
L 1656 3500 
L 1656 2988 
Q 1863 3284 2130 3434 
Q 2397 3584 2719 3584 
Q 3081 3584 3359 3409 
Q 3638 3234 3781 2919 
z
" transform="scale(0.015625)"/>
      <path id="DejaVuSans-Bold-72" d="M 3138 2547 
Q 2991 2616 2845 2648 
Q 2700 2681 2553 2681 
Q 2122 2681 1889 2404 
Q 1656 2128 1656 1613 
L 1656 0 
L 538 0 
L 538 3500 
L 1656 3500 
L 1656 2925 
Q 1872 3269 2151 3426 
Q 2431 3584 2822 3584 
Q 2878 3584 2943 3579 
Q 3009 3575 3134 3559 
L 3138 2547 
z
" transform="scale(0.015625)"/>
      <path id="DejaVuSans-Bold-69" d="M 538 3500 
L 1656 3500 
L 1656 0 
L 538 0 
L 538 3500 
z
M 538 4863 
L 1656 4863 
L 1656 3950 
L 538 3950 
L 538 4863 
z
" transform="scale(0.015625)"/>
      <path id="DejaVuSans-Bold-63" d="M 3366 3391 
L 3366 2478 
Q 3138 2634 2908 2709 
Q 2678 2784 2431 2784 
Q 1963 2784 1702 2511 
Q 1441 2238 1441 1747 
Q 1441 1256 1702 982 
Q 1963 709 2431 709 
Q 2694 709 2930 787 
Q 3166 866 3366 1019 
L 3366 103 
Q 3103 6 2833 -42 
Q 2563 -91 2291 -91 
Q 1344 -91 809 395 
Q 275 881 275 1747 
Q 275 2613 809 3098 
Q 1344 3584 2291 3584 
Q 2566 3584 2833 3536 
Q 3100 3488 3366 3391 
z
" transform="scale(0.015625)"/>
      <path id="DejaVuSans-Bold-20" transform="scale(0.015625)"/>
      <path id="DejaVuSans-Bold-4d" d="M 588 4666 
L 2119 4666 
L 3181 2169 
L 4250 4666 
L 5778 4666 
L 5778 0 
L 4641 0 
L 4641 3413 
L 3566 897 
L 2803 897 
L 1728 3413 
L 1728 0 
L 588 0 
L 588 4666 
z
" transform="scale(0.015625)"/>
      <path id="DejaVuSans-Bold-74" d="M 1759 4494 
L 1759 3500 
L 2913 3500 
L 2913 2700 
L 1759 2700 
L 1759 1216 
Q 1759 972 1856 886 
Q 1953 800 2241 800 
L 2816 800 
L 2816 0 
L 1856 0 
Q 1194 0 917 276 
Q 641 553 641 1216 
L 641 2700 
L 84 2700 
L 84 3500 
L 641 3500 
L 641 4494 
L 1759 4494 
z
" transform="scale(0.015625)"/>
      <path id="DejaVuSans-Bold-66" d="M 2841 4863 
L 2841 4128 
L 2222 4128 
Q 1984 4128 1890 4042 
Q 1797 3956 1797 3744 
L 1797 3500 
L 2753 3500 
L 2753 2700 
L 1797 2700 
L 1797 0 
L 678 0 
L 678 2700 
L 122 2700 
L 122 3500 
L 678 3500 
L 678 3744 
Q 678 4316 997 4589 
Q 1316 4863 1984 4863 
L 2841 4863 
z
" transform="scale(0.015625)"/>
      <path id="DejaVuSans-Bold-44" d="M 1791 3756 
L 1791 909 
L 2222 909 
Q 2959 909 3348 1275 
Q 3738 1641 3738 2338 
Q 3738 3031 3350 3393 
Q 2963 3756 2222 3756 
L 1791 3756 
z
M 588 4666 
L 1856 4666 
Q 2919 4666 3439 4514 
Q 3959 4363 4331 4000 
Q 4659 3684 4818 3271 
Q 4978 2859 4978 2338 
Q 4978 1809 4818 1395 
Q 4659 981 4331 666 
Q 3956 303 3431 151 
Q 2906 0 1856 0 
L 588 0 
L 588 4666 
z
" transform="scale(0.015625)"/>
      <path id="DejaVuSans-Bold-73" d="M 3272 3391 
L 3272 2541 
Q 2913 2691 2578 2766 
Q 2244 2841 1947 2841 
Q 1628 2841 1473 2761 
Q 1319 2681 1319 2516 
Q 1319 2381 1436 2309 
Q 1553 2238 1856 2203 
L 2053 2175 
Q 2913 2066 3209 1816 
Q 3506 1566 3506 1031 
Q 3506 472 3093 190 
Q 2681 -91 1863 -91 
Q 1516 -91 1145 -36 
Q 775 19 384 128 
L 384 978 
Q 719 816 1070 734 
Q 1422 653 1784 653 
Q 2113 653 2278 743 
Q 2444 834 2444 1013 
Q 2444 1163 2330 1236 
Q 2216 1309 1875 1350 
L 1678 1375 
Q 931 1469 631 1722 
Q 331 1975 331 2491 
Q 331 3047 712 3315 
Q 1094 3584 1881 3584 
Q 2191 3584 2531 3537 
Q 2872 3491 3272 3391 
z
" transform="scale(0.015625)"/>
      <path id="DejaVuSans-Bold-62" d="M 2400 722 
Q 2759 722 2948 984 
Q 3138 1247 3138 1747 
Q 3138 2247 2948 2509 
Q 2759 2772 2400 2772 
Q 2041 2772 1848 2508 
Q 1656 2244 1656 1747 
Q 1656 1250 1848 986 
Q 2041 722 2400 722 
z
M 1656 2988 
Q 1888 3294 2169 3439 
Q 2450 3584 2816 3584 
Q 3463 3584 3878 3070 
Q 4294 2556 4294 1747 
Q 4294 938 3878 423 
Q 3463 -91 2816 -91 
Q 2450 -91 2169 54 
Q 1888 200 1656 506 
L 1656 0 
L 538 0 
L 538 4863 
L 1656 4863 
L 1656 2988 
z
" transform="scale(0.015625)"/>
      <path id="DejaVuSans-Bold-75" d="M 500 1363 
L 500 3500 
L 1625 3500 
L 1625 3150 
Q 1625 2866 1622 2436 
Q 1619 2006 1619 1863 
Q 1619 1441 1641 1255 
Q 1663 1069 1716 984 
Q 1784 875 1895 815 
Q 2006 756 2150 756 
Q 2500 756 2700 1025 
Q 2900 1294 2900 1772 
L 2900 3500 
L 4019 3500 
L 4019 0 
L 2900 0 
L 2900 506 
Q 2647 200 2364 54 
Q 2081 -91 1741 -91 
Q 1134 -91 817 281 
Q 500 653 500 1363 
z
" transform="scale(0.015625)"/>
      <path id="DejaVuSans-Bold-6e" d="M 4056 2131 
L 4056 0 
L 2931 0 
L 2931 347 
L 2931 1631 
Q 2931 2084 2911 2256 
Q 2891 2428 2841 2509 
Q 2775 2619 2662 2680 
Q 2550 2741 2406 2741 
Q 2056 2741 1856 2470 
Q 1656 2200 1656 1722 
L 1656 0 
L 538 0 
L 538 3500 
L 1656 3500 
L 1656 2988 
Q 1909 3294 2193 3439 
Q 2478 3584 2822 3584 
Q 3428 3584 3742 3212 
Q 4056 2841 4056 2131 
z
" transform="scale(0.015625)"/>
      <path id="DejaVuSans-Bold-3a" d="M 716 3500 
L 1844 3500 
L 1844 2291 
L 716 2291 
L 716 3500 
z
M 716 1209 
L 1844 1209 
L 1844 0 
L 716 0 
L 716 1209 
z
" transform="scale(0.015625)"/>
      <path id="DejaVuSans-Bold-41" d="M 3419 850 
L 1538 850 
L 1241 0 
L 31 0 
L 1759 4666 
L 3194 4666 
L 4922 0 
L 3713 0 
L 3419 850 
z
M 1838 1716 
L 3116 1716 
L 2478 3572 
L 1838 1716 
z
" transform="scale(0.015625)"/>
      <path id="DejaVuSans-Bold-5f" d="M 3200 -916 
L 3200 -1509 
L 0 -1509 
L 0 -916 
L 3200 -916 
z
" transform="scale(0.015625)"/>
     </defs>
     <use xlink:href="#DejaVuSans-Bold-54"/>
     <use xlink:href="#DejaVuSans-Bold-65" transform="translate(54.962891 0)"/>
     <use xlink:href="#DejaVuSans-Bold-6c" transform="translate(122.785156 0)"/>
     <use xlink:href="#DejaVuSans-Bold-6f" transform="translate(157.0625 0)"/>
     <use xlink:href="#DejaVuSans-Bold-6d" transform="translate(225.763672 0)"/>
     <use xlink:href="#DejaVuSans-Bold-65" transform="translate(329.962891 0)"/>
     <use xlink:href="#DejaVuSans-Bold-72" transform="translate(397.785156 0)"/>
     <use xlink:href="#DejaVuSans-Bold-69" transform="translate(447.101562 0)"/>
     <use xlink:href="#DejaVuSans-Bold-63" transform="translate(481.378906 0)"/>
     <use xlink:href="#DejaVuSans-Bold-20" transform="translate(540.65625 0)"/>
     <use xlink:href="#DejaVuSans-Bold-4d" transform="translate(575.470703 0)"/>
     <use xlink:href="#DejaVuSans-Bold-6f" transform="translate(674.982422 0)"/>
     <use xlink:href="#DejaVuSans-Bold-74" transform="translate(743.683594 0)"/>
     <use xlink:href="#DejaVuSans-Bold-69" transform="translate(791.486328 0)"/>
     <use xlink:href="#DejaVuSans-Bold-66" transform="translate(825.763672 0)"/>
     <use xlink:href="#DejaVuSans-Bold-20" transform="translate(869.269531 0)"/>
     <use xlink:href="#DejaVuSans-Bold-44" transform="translate(904.083984 0)"/>
     <use xlink:href="#DejaVuSans-Bold-69" transform="translate(987.091797 0)"/>
     <use xlink:href="#DejaVuSans-Bold-73" transform="translate(1021.369141 0)"/>
     <use xlink:href="#DejaVuSans-Bold-74" transform="translate(1080.890625 0)"/>
     <use xlink:href="#DejaVuSans-Bold-72" transform="translate(1128.693359 0)"/>
     <use xlink:href="#DejaVuSans-Bold-69" transform="translate(1178.009766 0)"/>
     <use xlink:href="#DejaVuSans-Bold-62" transform="translate(1212.287109 0)"/>
     <use xlink:href="#DejaVuSans-Bold-75" transform="translate(1283.869141 0)"/>
     <use xlink:href="#DejaVuSans-Bold-74" transform="translate(1355.060547 0)"/>
     <use xlink:href="#DejaVuSans-Bold-69" transform="translate(1402.863281 0)"/>
     <use xlink:href="#DejaVuSans-Bold-6f" transform="translate(1437.140625 0)"/>
     <use xlink:href="#DejaVuSans-Bold-6e" transform="translate(1505.841797 0)"/>
     <use xlink:href="#DejaVuSans-Bold-3a" transform="translate(1577.033203 0)"/>
     <use xlink:href="#DejaVuSans-Bold-20" transform="translate(1617.023438 0)"/>
     <use xlink:href="#DejaVuSans-Bold-41" transform="translate(1651.837891 0)"/>
     <use xlink:href="#DejaVuSans-Bold-5f" transform="translate(1729.230469 0)"/>
     <use xlink:href="#DejaVuSans-Bold-62" transform="translate(1779.230469 0)"/>
     <use xlink:href="#DejaVuSans-Bold-69" transform="translate(1850.8125 0)"/>
     <use xlink:href="#DejaVuSans-Bold-63" transform="translate(1885.089844 0)"/>
     <use xlink:href="#DejaVuSans-Bold-6f" transform="translate(1944.367188 0)"/>
     <use xlink:href="#DejaVuSans-Bold-6c" transform="translate(2013.068359 0)"/>
     <use xlink:href="#DejaVuSans-Bold-6f" transform="translate(2047.345703 0)"/>
     <use xlink:href="#DejaVuSans-Bold-72" transform="translate(2116.046875 0)"/>
    </g>
   </g>
   <g id="legend_1">
    <g id="patch_7">
     <path d="M 573.285625 162.42125 
L 702.945 162.42125 
Q 704.945 162.42125 704.945 160.42125 
L 704.945 29.318125 
Q 704.945 27.318125 702.945 27.318125 
L 573.285625 27.318125 
Q 571.285625 27.318125 571.285625 29.318125 
L 571.285625 160.42125 
Q 571.285625 162.42125 573.285625 162.42125 
z
" style="fill: #ffffff; opacity: 0.8; stroke: #cccccc; stroke-linejoin: miter"/>
    </g>
    <g id="text_18">
     <!-- Motifs &amp; Orientation -->
     <g transform="translate(587.723125 38.916562) scale(0.1 -0.1)">
      <defs>
       <path id="DejaVuSans-4d" d="M 628 4666 
L 1569 4666 
L 2759 1491 
L 3956 4666 
L 4897 4666 
L 4897 0 
L 4281 0 
L 4281 4097 
L 3078 897 
L 2444 897 
L 1241 4097 
L 1241 0 
L 628 0 
L 628 4666 
z
" transform="scale(0.015625)"/>
       <path id="DejaVuSans-26" d="M 1556 2509 
Q 1272 2256 1139 2004 
Q 1006 1753 1006 1478 
Q 1006 1022 1337 719 
Q 1669 416 2169 416 
Q 2466 416 2725 514 
Q 2984 613 3213 813 
L 1556 2509 
z
M 1997 2859 
L 3584 1234 
Q 3769 1513 3872 1830 
Q 3975 2147 3994 2503 
L 4575 2503 
Q 4538 2091 4375 1687 
Q 4213 1284 3922 891 
L 4794 0 
L 4006 0 
L 3559 459 
Q 3234 181 2878 45 
Q 2522 -91 2113 -91 
Q 1359 -91 881 339 
Q 403 769 403 1441 
Q 403 1841 612 2192 
Q 822 2544 1241 2853 
Q 1091 3050 1012 3245 
Q 934 3441 934 3628 
Q 934 4134 1281 4442 
Q 1628 4750 2203 4750 
Q 2463 4750 2720 4694 
Q 2978 4638 3244 4525 
L 3244 3956 
Q 2972 4103 2725 4179 
Q 2478 4256 2266 4256 
Q 1938 4256 1733 4082 
Q 1528 3909 1528 3634 
Q 1528 3475 1620 3314 
Q 1713 3153 1997 2859 
z
" transform="scale(0.015625)"/>
       <path id="DejaVuSans-4f" d="M 2522 4238 
Q 1834 4238 1429 3725 
Q 1025 3213 1025 2328 
Q 1025 1447 1429 934 
Q 1834 422 2522 422 
Q 3209 422 3611 934 
Q 4013 1447 4013 2328 
Q 4013 3213 3611 3725 
Q 3209 4238 2522 4238 
z
M 2522 4750 
Q 3503 4750 4090 4092 
Q 4678 3434 4678 2328 
Q 4678 1225 4090 567 
Q 3503 -91 2522 -91 
Q 1538 -91 948 565 
Q 359 1222 359 2328 
Q 359 3434 948 4092 
Q 1538 4750 2522 4750 
z
" transform="scale(0.015625)"/>
      </defs>
      <use xlink:href="#DejaVuSans-4d"/>
      <use xlink:href="#DejaVuSans-6f" transform="translate(86.279297 0)"/>
      <use xlink:href="#DejaVuSans-74" transform="translate(147.460938 0)"/>
      <use xlink:href="#DejaVuSans-69" transform="translate(186.669922 0)"/>
      <use xlink:href="#DejaVuSans-66" transform="translate(214.453125 0)"/>
      <use xlink:href="#DejaVuSans-73" transform="translate(249.658203 0)"/>
      <use xlink:href="#DejaVuSans-20" transform="translate(301.757812 0)"/>
      <use xlink:href="#DejaVuSans-26" transform="translate(333.544922 0)"/>
      <use xlink:href="#DejaVuSans-20" transform="translate(411.523438 0)"/>
      <use xlink:href="#DejaVuSans-4f" transform="translate(443.310547 0)"/>
      <use xlink:href="#DejaVuSans-72" transform="translate(522.021484 0)"/>
      <use xlink:href="#DejaVuSans-69" transform="translate(563.134766 0)"/>
      <use xlink:href="#DejaVuSans-65" transform="translate(590.917969 0)"/>
      <use xlink:href="#DejaVuSans-6e" transform="translate(652.441406 0)"/>
      <use xlink:href="#DejaVuSans-74" transform="translate(715.820312 0)"/>
      <use xlink:href="#DejaVuSans-61" transform="translate(755.029297 0)"/>
      <use xlink:href="#DejaVuSans-74" transform="translate(816.308594 0)"/>
      <use xlink:href="#DejaVuSans-69" transform="translate(855.517578 0)"/>
      <use xlink:href="#DejaVuSans-6f" transform="translate(883.300781 0)"/>
      <use xlink:href="#DejaVuSans-6e" transform="translate(944.482422 0)"/>
     </g>
    </g>
    <g id="line2d_37">
     <path d="M 575.285625 50.094688 
L 585.285625 50.094688 
L 595.285625 50.094688 
" style="fill: none; stroke: #006ba4; stroke-width: 2; stroke-linecap: square"/>
    </g>
    <g id="text_19">
     <!-- CCTAA (5' end) -->
     <g transform="translate(603.285625 53.594688) scale(0.1 -0.1)">
      <defs>
       <path id="DejaVuSans-28" d="M 1984 4856 
Q 1566 4138 1362 3434 
Q 1159 2731 1159 2009 
Q 1159 1288 1364 580 
Q 1569 -128 1984 -844 
L 1484 -844 
Q 1016 -109 783 600 
Q 550 1309 550 2009 
Q 550 2706 781 3412 
Q 1013 4119 1484 4856 
L 1984 4856 
z
" transform="scale(0.015625)"/>
       <path id="DejaVuSans-35" d="M 691 4666 
L 3169 4666 
L 3169 4134 
L 1269 4134 
L 1269 2991 
Q 1406 3038 1543 3061 
Q 1681 3084 1819 3084 
Q 2600 3084 3056 2656 
Q 3513 2228 3513 1497 
Q 3513 744 3044 326 
Q 2575 -91 1722 -91 
Q 1428 -91 1123 -41 
Q 819 9 494 109 
L 494 744 
Q 775 591 1075 516 
Q 1375 441 1709 441 
Q 2250 441 2565 725 
Q 2881 1009 2881 1497 
Q 2881 1984 2565 2268 
Q 2250 2553 1709 2553 
Q 1456 2553 1204 2497 
Q 953 2441 691 2322 
L 691 4666 
z
" transform="scale(0.015625)"/>
       <path id="DejaVuSans-27" d="M 1147 4666 
L 1147 2931 
L 616 2931 
L 616 4666 
L 1147 4666 
z
" transform="scale(0.015625)"/>
       <path id="DejaVuSans-64" d="M 2906 2969 
L 2906 4863 
L 3481 4863 
L 3481 0 
L 2906 0 
L 2906 525 
Q 2725 213 2448 61 
Q 2172 -91 1784 -91 
Q 1150 -91 751 415 
Q 353 922 353 1747 
Q 353 2572 751 3078 
Q 1150 3584 1784 3584 
Q 2172 3584 2448 3432 
Q 2725 3281 2906 2969 
z
M 947 1747 
Q 947 1113 1208 752 
Q 1469 391 1925 391 
Q 2381 391 2643 752 
Q 2906 1113 2906 1747 
Q 2906 2381 2643 2742 
Q 2381 3103 1925 3103 
Q 1469 3103 1208 2742 
Q 947 2381 947 1747 
z
" transform="scale(0.015625)"/>
       <path id="DejaVuSans-29" d="M 513 4856 
L 1013 4856 
Q 1481 4119 1714 3412 
Q 1947 2706 1947 2009 
Q 1947 1309 1714 600 
Q 1481 -109 1013 -844 
L 513 -844 
Q 928 -128 1133 580 
Q 1338 1288 1338 2009 
Q 1338 2731 1133 3434 
Q 928 4138 513 4856 
z
" transform="scale(0.015625)"/>
      </defs>
      <use xlink:href="#DejaVuSans-43"/>
      <use xlink:href="#DejaVuSans-43" transform="translate(69.824219 0)"/>
      <use xlink:href="#DejaVuSans-54" transform="translate(139.648438 0)"/>
      <use xlink:href="#DejaVuSans-41" transform="translate(192.982422 0)"/>
      <use xlink:href="#DejaVuSans-41" transform="translate(264.140625 0)"/>
      <use xlink:href="#DejaVuSans-20" transform="translate(332.548828 0)"/>
      <use xlink:href="#DejaVuSans-28" transform="translate(364.335938 0)"/>
      <use xlink:href="#DejaVuSans-35" transform="translate(403.349609 0)"/>
      <use xlink:href="#DejaVuSans-27" transform="translate(466.972656 0)"/>
      <use xlink:href="#DejaVuSans-20" transform="translate(494.462891 0)"/>
      <use xlink:href="#DejaVuSans-65" transform="translate(526.25 0)"/>
      <use xlink:href="#DejaVuSans-6e" transform="translate(587.773438 0)"/>
      <use xlink:href="#DejaVuSans-64" transform="translate(651.152344 0)"/>
      <use xlink:href="#DejaVuSans-29" transform="translate(714.628906 0)"/>
     </g>
    </g>
    <g id="line2d_38">
     <path d="M 575.285625 64.772813 
L 585.285625 64.772813 
L 595.285625 64.772813 
" style="fill: none; stroke: #ff800e; stroke-width: 2; stroke-linecap: square"/>
    </g>
    <g id="text_20">
     <!-- CAATAA (5' end) -->
     <g transform="translate(603.285625 68.272813) scale(0.1 -0.1)">
      <use xlink:href="#DejaVuSans-43"/>
      <use xlink:href="#DejaVuSans-41" transform="translate(69.824219 0)"/>
      <use xlink:href="#DejaVuSans-41" transform="translate(140.982422 0)"/>
      <use xlink:href="#DejaVuSans-54" transform="translate(201.640625 0)"/>
      <use xlink:href="#DejaVuSans-41" transform="translate(254.974609 0)"/>
      <use xlink:href="#DejaVuSans-41" transform="translate(326.132812 0)"/>
      <use xlink:href="#DejaVuSans-20" transform="translate(394.541016 0)"/>
      <use xlink:href="#DejaVuSans-28" transform="translate(426.328125 0)"/>
      <use xlink:href="#DejaVuSans-35" transform="translate(465.341797 0)"/>
      <use xlink:href="#DejaVuSans-27" transform="translate(528.964844 0)"/>
      <use xlink:href="#DejaVuSans-20" transform="translate(556.455078 0)"/>
      <use xlink:href="#DejaVuSans-65" transform="translate(588.242188 0)"/>
      <use xlink:href="#DejaVuSans-6e" transform="translate(649.765625 0)"/>
      <use xlink:href="#DejaVuSans-64" transform="translate(713.144531 0)"/>
      <use xlink:href="#DejaVuSans-29" transform="translate(776.621094 0)"/>
     </g>
    </g>
    <g id="line2d_39">
     <path d="M 575.285625 79.450938 
L 585.285625 79.450938 
L 595.285625 79.450938 
" style="fill: none; stroke: #ababab; stroke-width: 2; stroke-linecap: square"/>
    </g>
    <g id="text_21">
     <!-- CTGAAA (5' end) -->
     <g transform="translate(603.285625 82.950938) scale(0.1 -0.1)">
      <defs>
       <path id="DejaVuSans-47" d="M 3809 666 
L 3809 1919 
L 2778 1919 
L 2778 2438 
L 4434 2438 
L 4434 434 
Q 4069 175 3628 42 
Q 3188 -91 2688 -91 
Q 1594 -91 976 548 
Q 359 1188 359 2328 
Q 359 3472 976 4111 
Q 1594 4750 2688 4750 
Q 3144 4750 3555 4637 
Q 3966 4525 4313 4306 
L 4313 3634 
Q 3963 3931 3569 4081 
Q 3175 4231 2741 4231 
Q 1884 4231 1454 3753 
Q 1025 3275 1025 2328 
Q 1025 1384 1454 906 
Q 1884 428 2741 428 
Q 3075 428 3337 486 
Q 3600 544 3809 666 
z
" transform="scale(0.015625)"/>
      </defs>
      <use xlink:href="#DejaVuSans-43"/>
      <use xlink:href="#DejaVuSans-54" transform="translate(69.824219 0)"/>
      <use xlink:href="#DejaVuSans-47" transform="translate(130.908203 0)"/>
      <use xlink:href="#DejaVuSans-41" transform="translate(208.398438 0)"/>
      <use xlink:href="#DejaVuSans-41" transform="translate(279.556641 0)"/>
      <use xlink:href="#DejaVuSans-41" transform="translate(350.714844 0)"/>
      <use xlink:href="#DejaVuSans-20" transform="translate(419.123047 0)"/>
      <use xlink:href="#DejaVuSans-28" transform="translate(450.910156 0)"/>
      <use xlink:href="#DejaVuSans-35" transform="translate(489.923828 0)"/>
      <use xlink:href="#DejaVuSans-27" transform="translate(553.546875 0)"/>
      <use xlink:href="#DejaVuSans-20" transform="translate(581.037109 0)"/>
      <use xlink:href="#DejaVuSans-65" transform="translate(612.824219 0)"/>
      <use xlink:href="#DejaVuSans-6e" transform="translate(674.347656 0)"/>
      <use xlink:href="#DejaVuSans-64" transform="translate(737.726562 0)"/>
      <use xlink:href="#DejaVuSans-29" transform="translate(801.203125 0)"/>
     </g>
    </g>
    <g id="line2d_40">
     <path d="M 575.285625 94.129063 
L 585.285625 94.129063 
L 595.285625 94.129063 
" style="fill: none; stroke: #595959; stroke-width: 2; stroke-linecap: square"/>
    </g>
    <g id="text_22">
     <!-- CTTTTCAA (5' end) -->
     <g transform="translate(603.285625 97.629063) scale(0.1 -0.1)">
      <use xlink:href="#DejaVuSans-43"/>
      <use xlink:href="#DejaVuSans-54" transform="translate(69.824219 0)"/>
      <use xlink:href="#DejaVuSans-54" transform="translate(129.158203 0)"/>
      <use xlink:href="#DejaVuSans-54" transform="translate(188.492188 0)"/>
      <use xlink:href="#DejaVuSans-54" transform="translate(247.826172 0)"/>
      <use xlink:href="#DejaVuSans-43" transform="translate(303.035156 0)"/>
      <use xlink:href="#DejaVuSans-41" transform="translate(372.859375 0)"/>
      <use xlink:href="#DejaVuSans-41" transform="translate(444.017578 0)"/>
      <use xlink:href="#DejaVuSans-20" transform="translate(512.425781 0)"/>
      <use xlink:href="#DejaVuSans-28" transform="translate(544.212891 0)"/>
      <use xlink:href="#DejaVuSans-35" transform="translate(583.226562 0)"/>
      <use xlink:href="#DejaVuSans-27" transform="translate(646.849609 0)"/>
      <use xlink:href="#DejaVuSans-20" transform="translate(674.339844 0)"/>
      <use xlink:href="#DejaVuSans-65" transform="translate(706.126953 0)"/>
      <use xlink:href="#DejaVuSans-6e" transform="translate(767.650391 0)"/>
      <use xlink:href="#DejaVuSans-64" transform="translate(831.029297 0)"/>
      <use xlink:href="#DejaVuSans-29" transform="translate(894.505859 0)"/>
     </g>
    </g>
    <g id="line2d_41">
     <path d="M 575.285625 108.807188 
L 585.285625 108.807188 
L 595.285625 108.807188 
" style="fill: none; stroke-dasharray: 7.4,3.2; stroke-dashoffset: 0; stroke: #006ba4; stroke-width: 2"/>
    </g>
    <g id="text_23">
     <!-- TTAGG (3' end) -->
     <g transform="translate(603.285625 112.307188) scale(0.1 -0.1)">
      <defs>
       <path id="DejaVuSans-33" d="M 2597 2516 
Q 3050 2419 3304 2112 
Q 3559 1806 3559 1356 
Q 3559 666 3084 287 
Q 2609 -91 1734 -91 
Q 1441 -91 1130 -33 
Q 819 25 488 141 
L 488 750 
Q 750 597 1062 519 
Q 1375 441 1716 441 
Q 2309 441 2620 675 
Q 2931 909 2931 1356 
Q 2931 1769 2642 2001 
Q 2353 2234 1838 2234 
L 1294 2234 
L 1294 2753 
L 1863 2753 
Q 2328 2753 2575 2939 
Q 2822 3125 2822 3475 
Q 2822 3834 2567 4026 
Q 2313 4219 1838 4219 
Q 1578 4219 1281 4162 
Q 984 4106 628 3988 
L 628 4550 
Q 988 4650 1302 4700 
Q 1616 4750 1894 4750 
Q 2613 4750 3031 4423 
Q 3450 4097 3450 3541 
Q 3450 3153 3228 2886 
Q 3006 2619 2597 2516 
z
" transform="scale(0.015625)"/>
      </defs>
      <use xlink:href="#DejaVuSans-54"/>
      <use xlink:href="#DejaVuSans-54" transform="translate(59.333984 0)"/>
      <use xlink:href="#DejaVuSans-41" transform="translate(112.667969 0)"/>
      <use xlink:href="#DejaVuSans-47" transform="translate(179.326172 0)"/>
      <use xlink:href="#DejaVuSans-47" transform="translate(256.816406 0)"/>
      <use xlink:href="#DejaVuSans-20" transform="translate(334.306641 0)"/>
      <use xlink:href="#DejaVuSans-28" transform="translate(366.09375 0)"/>
      <use xlink:href="#DejaVuSans-33" transform="translate(405.107422 0)"/>
      <use xlink:href="#DejaVuSans-27" transform="translate(468.730469 0)"/>
      <use xlink:href="#DejaVuSans-20" transform="translate(496.220703 0)"/>
      <use xlink:href="#DejaVuSans-65" transform="translate(528.007812 0)"/>
      <use xlink:href="#DejaVuSans-6e" transform="translate(589.53125 0)"/>
      <use xlink:href="#DejaVuSans-64" transform="translate(652.910156 0)"/>
      <use xlink:href="#DejaVuSans-29" transform="translate(716.386719 0)"/>
     </g>
    </g>
    <g id="line2d_42">
     <path d="M 575.285625 123.485313 
L 585.285625 123.485313 
L 595.285625 123.485313 
" style="fill: none; stroke-dasharray: 7.4,3.2; stroke-dashoffset: 0; stroke: #ff800e; stroke-width: 2"/>
    </g>
    <g id="text_24">
     <!-- TTATTG (3' end) -->
     <g transform="translate(603.285625 126.985313) scale(0.1 -0.1)">
      <use xlink:href="#DejaVuSans-54"/>
      <use xlink:href="#DejaVuSans-54" transform="translate(59.333984 0)"/>
      <use xlink:href="#DejaVuSans-41" transform="translate(112.667969 0)"/>
      <use xlink:href="#DejaVuSans-54" transform="translate(173.326172 0)"/>
      <use xlink:href="#DejaVuSans-54" transform="translate(232.660156 0)"/>
      <use xlink:href="#DejaVuSans-47" transform="translate(293.744141 0)"/>
      <use xlink:href="#DejaVuSans-20" transform="translate(371.234375 0)"/>
      <use xlink:href="#DejaVuSans-28" transform="translate(403.021484 0)"/>
      <use xlink:href="#DejaVuSans-33" transform="translate(442.035156 0)"/>
      <use xlink:href="#DejaVuSans-27" transform="translate(505.658203 0)"/>
      <use xlink:href="#DejaVuSans-20" transform="translate(533.148438 0)"/>
      <use xlink:href="#DejaVuSans-65" transform="translate(564.935547 0)"/>
      <use xlink:href="#DejaVuSans-6e" transform="translate(626.458984 0)"/>
      <use xlink:href="#DejaVuSans-64" transform="translate(689.837891 0)"/>
      <use xlink:href="#DejaVuSans-29" transform="translate(753.314453 0)"/>
     </g>
    </g>
    <g id="line2d_43">
     <path d="M 575.285625 138.163437 
L 585.285625 138.163437 
L 595.285625 138.163437 
" style="fill: none; stroke-dasharray: 7.4,3.2; stroke-dashoffset: 0; stroke: #ababab; stroke-width: 2"/>
    </g>
    <g id="text_25">
     <!-- TTTCAG (3' end) -->
     <g transform="translate(603.285625 141.663437) scale(0.1 -0.1)">
      <use xlink:href="#DejaVuSans-54"/>
      <use xlink:href="#DejaVuSans-54" transform="translate(59.333984 0)"/>
      <use xlink:href="#DejaVuSans-54" transform="translate(118.667969 0)"/>
      <use xlink:href="#DejaVuSans-43" transform="translate(173.876953 0)"/>
      <use xlink:href="#DejaVuSans-41" transform="translate(243.701172 0)"/>
      <use xlink:href="#DejaVuSans-47" transform="translate(310.359375 0)"/>
      <use xlink:href="#DejaVuSans-20" transform="translate(387.849609 0)"/>
      <use xlink:href="#DejaVuSans-28" transform="translate(419.636719 0)"/>
      <use xlink:href="#DejaVuSans-33" transform="translate(458.650391 0)"/>
      <use xlink:href="#DejaVuSans-27" transform="translate(522.273438 0)"/>
      <use xlink:href="#DejaVuSans-20" transform="translate(549.763672 0)"/>
      <use xlink:href="#DejaVuSans-65" transform="translate(581.550781 0)"/>
      <use xlink:href="#DejaVuSans-6e" transform="translate(643.074219 0)"/>
      <use xlink:href="#DejaVuSans-64" transform="translate(706.453125 0)"/>
      <use xlink:href="#DejaVuSans-29" transform="translate(769.929688 0)"/>
     </g>
    </g>
    <g id="line2d_44">
     <path d="M 575.285625 152.841563 
L 585.285625 152.841563 
L 595.285625 152.841563 
" style="fill: none; stroke-dasharray: 7.4,3.2; stroke-dashoffset: 0; stroke: #595959; stroke-width: 2"/>
    </g>
    <g id="text_26">
     <!-- TTGAAAAG (3' end) -->
     <g transform="translate(603.285625 156.341563) scale(0.1 -0.1)">
      <use xlink:href="#DejaVuSans-54"/>
      <use xlink:href="#DejaVuSans-54" transform="translate(59.333984 0)"/>
      <use xlink:href="#DejaVuSans-47" transform="translate(120.417969 0)"/>
      <use xlink:href="#DejaVuSans-41" transform="translate(197.908203 0)"/>
      <use xlink:href="#DejaVuSans-41" transform="translate(269.066406 0)"/>
      <use xlink:href="#DejaVuSans-41" transform="translate(340.224609 0)"/>
      <use xlink:href="#DejaVuSans-41" transform="translate(411.382812 0)"/>
      <use xlink:href="#DejaVuSans-47" transform="translate(478.041016 0)"/>
      <use xlink:href="#DejaVuSans-20" transform="translate(555.53125 0)"/>
      <use xlink:href="#DejaVuSans-28" transform="translate(587.318359 0)"/>
      <use xlink:href="#DejaVuSans-33" transform="translate(626.332031 0)"/>
      <use xlink:href="#DejaVuSans-27" transform="translate(689.955078 0)"/>
      <use xlink:href="#DejaVuSans-20" transform="translate(717.445312 0)"/>
      <use xlink:href="#DejaVuSans-65" transform="translate(749.232422 0)"/>
      <use xlink:href="#DejaVuSans-6e" transform="translate(810.755859 0)"/>
      <use xlink:href="#DejaVuSans-64" transform="translate(874.134766 0)"/>
      <use xlink:href="#DejaVuSans-29" transform="translate(937.611328 0)"/>
     </g>
    </g>
   </g>
  </g>
 </g>
 <defs>
  <clipPath id="pd1e6ed4e3a">
   <rect x="46.965625" y="22.318125" width="519.32" height="436.6"/>
  </clipPath>
 </defs>
</svg>
