<?xml version="1.0" encoding="utf-8" standalone="no"?>
<!DOCTYPE svg PUBLIC "-//W3C//DTD SVG 1.1//EN"
  "http://www.w3.org/Graphics/SVG/1.1/DTD/svg11.dtd">
<svg xmlns:xlink="http://www.w3.org/1999/xlink" width="568.1825pt" height="423.99625pt" viewBox="0 0 568.1825 423.99625" xmlns="http://www.w3.org/2000/svg" version="1.1">
 <metadata>
  <rdf:RDF xmlns:dc="http://purl.org/dc/elements/1.1/" xmlns:cc="http://creativecommons.org/ns#" xmlns:rdf="http://www.w3.org/1999/02/22-rdf-syntax-ns#">
   <cc:Work>
    <dc:type rdf:resource="http://purl.org/dc/dcmitype/StillImage"/>
    <dc:date>2026-04-30T15:28:48.723812</dc:date>
    <dc:format>image/svg+xml</dc:format>
    <dc:creator>
     <cc:Agent>
      <dc:title>Matplotlib v3.10.6, https://matplotlib.org/</dc:title>
     </cc:Agent>
    </dc:creator>
   </cc:Work>
  </rdf:RDF>
 </metadata>
 <defs>
  <style type="text/css">*{stroke-linejoin: round; stroke-linecap: butt}</style>
 </defs>
 <g id="figure_1">
  <g id="patch_1">
   <path d="M 0 423.99625 
L 568.1825 423.99625 
L 568.1825 0 
L 0 0 
z
" style="fill: #ffffff"/>
  </g>
  <g id="axes_1">
   <g id="patch_2">
    <path d="M 40.603125 386.44 
L 409.623125 386.44 
L 409.623125 7.2 
L 40.603125 7.2 
z
" style="fill: #ffffff"/>
   </g>
   <g id="matplotlib.axis_1">
    <g id="xtick_1">
     <g id="line2d_1">
      <path d="M 57.376761 386.44 
L 57.376761 7.2 
" clip-path="url(#p613914c411)" style="fill: none; stroke-dasharray: 2.96,1.28; stroke-dashoffset: 0; stroke: #b0b0b0; stroke-opacity: 0.6; stroke-width: 0.8"/>
     </g>
     <g id="line2d_2">
      <defs>
       <path id="mcdd56e8f2a" d="M 0 0 
L 0 3.5 
" style="stroke: #000000; stroke-width: 0.8"/>
      </defs>
      <g>
       <use xlink:href="#mcdd56e8f2a" x="57.376761" y="386.44" style="stroke: #000000; stroke-width: 0.8"/>
      </g>
     </g>
     <g id="text_1">
      <!-- 0 -->
      <g transform="translate(54.195511 401.038437) scale(0.1 -0.1)">
       <defs>
        <path id="DejaVuSans-30" d="M 2034 4250 
Q 1547 4250 1301 3770 
Q 1056 3291 1056 2328 
Q 1056 1369 1301 889 
Q 1547 409 2034 409 
Q 2525 409 2770 889 
Q 3016 1369 3016 2328 
Q 3016 3291 2770 3770 
Q 2525 4250 2034 4250 
z
M 2034 4750 
Q 2819 4750 3233 4129 
Q 3647 3509 3647 2328 
Q 3647 1150 3233 529 
Q 2819 -91 2034 -91 
Q 1250 -91 836 529 
Q 422 1150 422 2328 
Q 422 3509 836 4129 
Q 1250 4750 2034 4750 
z
" transform="scale(0.015625)"/>
       </defs>
       <use xlink:href="#DejaVuSans-30"/>
      </g>
     </g>
    </g>
    <g id="xtick_2">
     <g id="line2d_3">
      <path d="M 99.316095 386.44 
L 99.316095 7.2 
" clip-path="url(#p613914c411)" style="fill: none; stroke-dasharray: 2.96,1.28; stroke-dashoffset: 0; stroke: #b0b0b0; stroke-opacity: 0.6; stroke-width: 0.8"/>
     </g>
     <g id="line2d_4">
      <g>
       <use xlink:href="#mcdd56e8f2a" x="99.316095" y="386.44" style="stroke: #000000; stroke-width: 0.8"/>
      </g>
     </g>
     <g id="text_2">
      <!-- 1000 -->
      <g transform="translate(86.591095 401.038437) scale(0.1 -0.1)">
       <defs>
        <path id="DejaVuSans-31" d="M 794 531 
L 1825 531 
L 1825 4091 
L 703 3866 
L 703 4441 
L 1819 4666 
L 2450 4666 
L 2450 531 
L 3481 531 
L 3481 0 
L 794 0 
L 794 531 
z
" transform="scale(0.015625)"/>
       </defs>
       <use xlink:href="#DejaVuSans-31"/>
       <use xlink:href="#DejaVuSans-30" transform="translate(63.623047 0)"/>
       <use xlink:href="#DejaVuSans-30" transform="translate(127.246094 0)"/>
       <use xlink:href="#DejaVuSans-30" transform="translate(190.869141 0)"/>
      </g>
     </g>
    </g>
    <g id="xtick_3">
     <g id="line2d_5">
      <path d="M 141.255428 386.44 
L 141.255428 7.2 
" clip-path="url(#p613914c411)" style="fill: none; stroke-dasharray: 2.96,1.28; stroke-dashoffset: 0; stroke: #b0b0b0; stroke-opacity: 0.6; stroke-width: 0.8"/>
     </g>
     <g id="line2d_6">
      <g>
       <use xlink:href="#mcdd56e8f2a" x="141.255428" y="386.44" style="stroke: #000000; stroke-width: 0.8"/>
      </g>
     </g>
     <g id="text_3">
      <!-- 2000 -->
      <g transform="translate(128.530428 401.038437) scale(0.1 -0.1)">
       <defs>
        <path id="DejaVuSans-32" d="M 1228 531 
L 3431 531 
L 3431 0 
L 469 0 
L 469 531 
Q 828 903 1448 1529 
Q 2069 2156 2228 2338 
Q 2531 2678 2651 2914 
Q 2772 3150 2772 3378 
Q 2772 3750 2511 3984 
Q 2250 4219 1831 4219 
Q 1534 4219 1204 4116 
Q 875 4013 500 3803 
L 500 4441 
Q 881 4594 1212 4672 
Q 1544 4750 1819 4750 
Q 2544 4750 2975 4387 
Q 3406 4025 3406 3419 
Q 3406 3131 3298 2873 
Q 3191 2616 2906 2266 
Q 2828 2175 2409 1742 
Q 1991 1309 1228 531 
z
" transform="scale(0.015625)"/>
       </defs>
       <use xlink:href="#DejaVuSans-32"/>
       <use xlink:href="#DejaVuSans-30" transform="translate(63.623047 0)"/>
       <use xlink:href="#DejaVuSans-30" transform="translate(127.246094 0)"/>
       <use xlink:href="#DejaVuSans-30" transform="translate(190.869141 0)"/>
      </g>
     </g>
    </g>
    <g id="xtick_4">
     <g id="line2d_7">
      <path d="M 183.194761 386.44 
L 183.194761 7.2 
" clip-path="url(#p613914c411)" style="fill: none; stroke-dasharray: 2.96,1.28; stroke-dashoffset: 0; stroke: #b0b0b0; stroke-opacity: 0.6; stroke-width: 0.8"/>
     </g>
     <g id="line2d_8">
      <g>
       <use xlink:href="#mcdd56e8f2a" x="183.194761" y="386.44" style="stroke: #000000; stroke-width: 0.8"/>
      </g>
     </g>
     <g id="text_4">
      <!-- 3000 -->
      <g transform="translate(170.469761 401.038437) scale(0.1 -0.1)">
       <defs>
        <path id="DejaVuSans-33" d="M 2597 2516 
Q 3050 2419 3304 2112 
Q 3559 1806 3559 1356 
Q 3559 666 3084 287 
Q 2609 -91 1734 -91 
Q 1441 -91 1130 -33 
Q 819 25 488 141 
L 488 750 
Q 750 597 1062 519 
Q 1375 441 1716 441 
Q 2309 441 2620 675 
Q 2931 909 2931 1356 
Q 2931 1769 2642 2001 
Q 2353 2234 1838 2234 
L 1294 2234 
L 1294 2753 
L 1863 2753 
Q 2328 2753 2575 2939 
Q 2822 3125 2822 3475 
Q 2822 3834 2567 4026 
Q 2313 4219 1838 4219 
Q 1578 4219 1281 4162 
Q 984 4106 628 3988 
L 628 4550 
Q 988 4650 1302 4700 
Q 1616 4750 1894 4750 
Q 2613 4750 3031 4423 
Q 3450 4097 3450 3541 
Q 3450 3153 3228 2886 
Q 3006 2619 2597 2516 
z
" transform="scale(0.015625)"/>
       </defs>
       <use xlink:href="#DejaVuSans-33"/>
       <use xlink:href="#DejaVuSans-30" transform="translate(63.623047 0)"/>
       <use xlink:href="#DejaVuSans-30" transform="translate(127.246094 0)"/>
       <use xlink:href="#DejaVuSans-30" transform="translate(190.869141 0)"/>
      </g>
     </g>
    </g>
    <g id="xtick_5">
     <g id="line2d_9">
      <path d="M 225.134095 386.44 
L 225.134095 7.2 
" clip-path="url(#p613914c411)" style="fill: none; stroke-dasharray: 2.96,1.28; stroke-dashoffset: 0; stroke: #b0b0b0; stroke-opacity: 0.6; stroke-width: 0.8"/>
     </g>
     <g id="line2d_10">
      <g>
       <use xlink:href="#mcdd56e8f2a" x="225.134095" y="386.44" style="stroke: #000000; stroke-width: 0.8"/>
      </g>
     </g>
     <g id="text_5">
      <!-- 4000 -->
      <g transform="translate(212.409095 401.038437) scale(0.1 -0.1)">
       <defs>
        <path id="DejaVuSans-34" d="M 2419 4116 
L 825 1625 
L 2419 1625 
L 2419 4116 
z
M 2253 4666 
L 3047 4666 
L 3047 1625 
L 3713 1625 
L 3713 1100 
L 3047 1100 
L 3047 0 
L 2419 0 
L 2419 1100 
L 313 1100 
L 313 1709 
L 2253 4666 
z
" transform="scale(0.015625)"/>
       </defs>
       <use xlink:href="#DejaVuSans-34"/>
       <use xlink:href="#DejaVuSans-30" transform="translate(63.623047 0)"/>
       <use xlink:href="#DejaVuSans-30" transform="translate(127.246094 0)"/>
       <use xlink:href="#DejaVuSans-30" transform="translate(190.869141 0)"/>
      </g>
     </g>
    </g>
    <g id="xtick_6">
     <g id="line2d_11">
      <path d="M 267.073428 386.44 
L 267.073428 7.2 
" clip-path="url(#p613914c411)" style="fill: none; stroke-dasharray: 2.96,1.28; stroke-dashoffset: 0; stroke: #b0b0b0; stroke-opacity: 0.6; stroke-width: 0.8"/>
     </g>
     <g id="line2d_12">
      <g>
       <use xlink:href="#mcdd56e8f2a" x="267.073428" y="386.44" style="stroke: #000000; stroke-width: 0.8"/>
      </g>
     </g>
     <g id="text_6">
      <!-- 5000 -->
      <g transform="translate(254.348428 401.038437) scale(0.1 -0.1)">
       <defs>
        <path id="DejaVuSans-35" d="M 691 4666 
L 3169 4666 
L 3169 4134 
L 1269 4134 
L 1269 2991 
Q 1406 3038 1543 3061 
Q 1681 3084 1819 3084 
Q 2600 3084 3056 2656 
Q 3513 2228 3513 1497 
Q 3513 744 3044 326 
Q 2575 -91 1722 -91 
Q 1428 -91 1123 -41 
Q 819 9 494 109 
L 494 744 
Q 775 591 1075 516 
Q 1375 441 1709 441 
Q 2250 441 2565 725 
Q 2881 1009 2881 1497 
Q 2881 1984 2565 2268 
Q 2250 2553 1709 2553 
Q 1456 2553 1204 2497 
Q 953 2441 691 2322 
L 691 4666 
z
" transform="scale(0.015625)"/>
       </defs>
       <use xlink:href="#DejaVuSans-35"/>
       <use xlink:href="#DejaVuSans-30" transform="translate(63.623047 0)"/>
       <use xlink:href="#DejaVuSans-30" transform="translate(127.246094 0)"/>
       <use xlink:href="#DejaVuSans-30" transform="translate(190.869141 0)"/>
      </g>
     </g>
    </g>
    <g id="xtick_7">
     <g id="line2d_13">
      <path d="M 309.012761 386.44 
L 309.012761 7.2 
" clip-path="url(#p613914c411)" style="fill: none; stroke-dasharray: 2.96,1.28; stroke-dashoffset: 0; stroke: #b0b0b0; stroke-opacity: 0.6; stroke-width: 0.8"/>
     </g>
     <g id="line2d_14">
      <g>
       <use xlink:href="#mcdd56e8f2a" x="309.012761" y="386.44" style="stroke: #000000; stroke-width: 0.8"/>
      </g>
     </g>
     <g id="text_7">
      <!-- 6000 -->
      <g transform="translate(296.287761 401.038437) scale(0.1 -0.1)">
       <defs>
        <path id="DejaVuSans-36" d="M 2113 2584 
Q 1688 2584 1439 2293 
Q 1191 2003 1191 1497 
Q 1191 994 1439 701 
Q 1688 409 2113 409 
Q 2538 409 2786 701 
Q 3034 994 3034 1497 
Q 3034 2003 2786 2293 
Q 2538 2584 2113 2584 
z
M 3366 4563 
L 3366 3988 
Q 3128 4100 2886 4159 
Q 2644 4219 2406 4219 
Q 1781 4219 1451 3797 
Q 1122 3375 1075 2522 
Q 1259 2794 1537 2939 
Q 1816 3084 2150 3084 
Q 2853 3084 3261 2657 
Q 3669 2231 3669 1497 
Q 3669 778 3244 343 
Q 2819 -91 2113 -91 
Q 1303 -91 875 529 
Q 447 1150 447 2328 
Q 447 3434 972 4092 
Q 1497 4750 2381 4750 
Q 2619 4750 2861 4703 
Q 3103 4656 3366 4563 
z
" transform="scale(0.015625)"/>
       </defs>
       <use xlink:href="#DejaVuSans-36"/>
       <use xlink:href="#DejaVuSans-30" transform="translate(63.623047 0)"/>
       <use xlink:href="#DejaVuSans-30" transform="translate(127.246094 0)"/>
       <use xlink:href="#DejaVuSans-30" transform="translate(190.869141 0)"/>
      </g>
     </g>
    </g>
    <g id="xtick_8">
     <g id="line2d_15">
      <path d="M 350.952095 386.44 
L 350.952095 7.2 
" clip-path="url(#p613914c411)" style="fill: none; stroke-dasharray: 2.96,1.28; stroke-dashoffset: 0; stroke: #b0b0b0; stroke-opacity: 0.6; stroke-width: 0.8"/>
     </g>
     <g id="line2d_16">
      <g>
       <use xlink:href="#mcdd56e8f2a" x="350.952095" y="386.44" style="stroke: #000000; stroke-width: 0.8"/>
      </g>
     </g>
     <g id="text_8">
      <!-- 7000 -->
      <g transform="translate(338.227095 401.038437) scale(0.1 -0.1)">
       <defs>
        <path id="DejaVuSans-37" d="M 525 4666 
L 3525 4666 
L 3525 4397 
L 1831 0 
L 1172 0 
L 2766 4134 
L 525 4134 
L 525 4666 
z
" transform="scale(0.015625)"/>
       </defs>
       <use xlink:href="#DejaVuSans-37"/>
       <use xlink:href="#DejaVuSans-30" transform="translate(63.623047 0)"/>
       <use xlink:href="#DejaVuSans-30" transform="translate(127.246094 0)"/>
       <use xlink:href="#DejaVuSans-30" transform="translate(190.869141 0)"/>
      </g>
     </g>
    </g>
    <g id="xtick_9">
     <g id="line2d_17">
      <path d="M 392.891428 386.44 
L 392.891428 7.2 
" clip-path="url(#p613914c411)" style="fill: none; stroke-dasharray: 2.96,1.28; stroke-dashoffset: 0; stroke: #b0b0b0; stroke-opacity: 0.6; stroke-width: 0.8"/>
     </g>
     <g id="line2d_18">
      <g>
       <use xlink:href="#mcdd56e8f2a" x="392.891428" y="386.44" style="stroke: #000000; stroke-width: 0.8"/>
      </g>
     </g>
     <g id="text_9">
      <!-- 8000 -->
      <g transform="translate(380.166428 401.038437) scale(0.1 -0.1)">
       <defs>
        <path id="DejaVuSans-38" d="M 2034 2216 
Q 1584 2216 1326 1975 
Q 1069 1734 1069 1313 
Q 1069 891 1326 650 
Q 1584 409 2034 409 
Q 2484 409 2743 651 
Q 3003 894 3003 1313 
Q 3003 1734 2745 1975 
Q 2488 2216 2034 2216 
z
M 1403 2484 
Q 997 2584 770 2862 
Q 544 3141 544 3541 
Q 544 4100 942 4425 
Q 1341 4750 2034 4750 
Q 2731 4750 3128 4425 
Q 3525 4100 3525 3541 
Q 3525 3141 3298 2862 
Q 3072 2584 2669 2484 
Q 3125 2378 3379 2068 
Q 3634 1759 3634 1313 
Q 3634 634 3220 271 
Q 2806 -91 2034 -91 
Q 1263 -91 848 271 
Q 434 634 434 1313 
Q 434 1759 690 2068 
Q 947 2378 1403 2484 
z
M 1172 3481 
Q 1172 3119 1398 2916 
Q 1625 2713 2034 2713 
Q 2441 2713 2670 2916 
Q 2900 3119 2900 3481 
Q 2900 3844 2670 4047 
Q 2441 4250 2034 4250 
Q 1625 4250 1398 4047 
Q 1172 3844 1172 3481 
z
" transform="scale(0.015625)"/>
       </defs>
       <use xlink:href="#DejaVuSans-38"/>
       <use xlink:href="#DejaVuSans-30" transform="translate(63.623047 0)"/>
       <use xlink:href="#DejaVuSans-30" transform="translate(127.246094 0)"/>
       <use xlink:href="#DejaVuSans-30" transform="translate(190.869141 0)"/>
      </g>
     </g>
    </g>
    <g id="text_10">
     <!-- Distance from terminus [nt] -->
     <g transform="translate(155.613906 414.716562) scale(0.1 -0.1)">
      <defs>
       <path id="DejaVuSans-44" d="M 1259 4147 
L 1259 519 
L 2022 519 
Q 2988 519 3436 956 
Q 3884 1394 3884 2338 
Q 3884 3275 3436 3711 
Q 2988 4147 2022 4147 
L 1259 4147 
z
M 628 4666 
L 1925 4666 
Q 3281 4666 3915 4102 
Q 4550 3538 4550 2338 
Q 4550 1131 3912 565 
Q 3275 0 1925 0 
L 628 0 
L 628 4666 
z
" transform="scale(0.015625)"/>
       <path id="DejaVuSans-69" d="M 603 3500 
L 1178 3500 
L 1178 0 
L 603 0 
L 603 3500 
z
M 603 4863 
L 1178 4863 
L 1178 4134 
L 603 4134 
L 603 4863 
z
" transform="scale(0.015625)"/>
       <path id="DejaVuSans-73" d="M 2834 3397 
L 2834 2853 
Q 2591 2978 2328 3040 
Q 2066 3103 1784 3103 
Q 1356 3103 1142 2972 
Q 928 2841 928 2578 
Q 928 2378 1081 2264 
Q 1234 2150 1697 2047 
L 1894 2003 
Q 2506 1872 2764 1633 
Q 3022 1394 3022 966 
Q 3022 478 2636 193 
Q 2250 -91 1575 -91 
Q 1294 -91 989 -36 
Q 684 19 347 128 
L 347 722 
Q 666 556 975 473 
Q 1284 391 1588 391 
Q 1994 391 2212 530 
Q 2431 669 2431 922 
Q 2431 1156 2273 1281 
Q 2116 1406 1581 1522 
L 1381 1569 
Q 847 1681 609 1914 
Q 372 2147 372 2553 
Q 372 3047 722 3315 
Q 1072 3584 1716 3584 
Q 2034 3584 2315 3537 
Q 2597 3491 2834 3397 
z
" transform="scale(0.015625)"/>
       <path id="DejaVuSans-74" d="M 1172 4494 
L 1172 3500 
L 2356 3500 
L 2356 3053 
L 1172 3053 
L 1172 1153 
Q 1172 725 1289 603 
Q 1406 481 1766 481 
L 2356 481 
L 2356 0 
L 1766 0 
Q 1100 0 847 248 
Q 594 497 594 1153 
L 594 3053 
L 172 3053 
L 172 3500 
L 594 3500 
L 594 4494 
L 1172 4494 
z
" transform="scale(0.015625)"/>
       <path id="DejaVuSans-61" d="M 2194 1759 
Q 1497 1759 1228 1600 
Q 959 1441 959 1056 
Q 959 750 1161 570 
Q 1363 391 1709 391 
Q 2188 391 2477 730 
Q 2766 1069 2766 1631 
L 2766 1759 
L 2194 1759 
z
M 3341 1997 
L 3341 0 
L 2766 0 
L 2766 531 
Q 2569 213 2275 61 
Q 1981 -91 1556 -91 
Q 1019 -91 701 211 
Q 384 513 384 1019 
Q 384 1609 779 1909 
Q 1175 2209 1959 2209 
L 2766 2209 
L 2766 2266 
Q 2766 2663 2505 2880 
Q 2244 3097 1772 3097 
Q 1472 3097 1187 3025 
Q 903 2953 641 2809 
L 641 3341 
Q 956 3463 1253 3523 
Q 1550 3584 1831 3584 
Q 2591 3584 2966 3190 
Q 3341 2797 3341 1997 
z
" transform="scale(0.015625)"/>
       <path id="DejaVuSans-6e" d="M 3513 2113 
L 3513 0 
L 2938 0 
L 2938 2094 
Q 2938 2591 2744 2837 
Q 2550 3084 2163 3084 
Q 1697 3084 1428 2787 
Q 1159 2491 1159 1978 
L 1159 0 
L 581 0 
L 581 3500 
L 1159 3500 
L 1159 2956 
Q 1366 3272 1645 3428 
Q 1925 3584 2291 3584 
Q 2894 3584 3203 3211 
Q 3513 2838 3513 2113 
z
" transform="scale(0.015625)"/>
       <path id="DejaVuSans-63" d="M 3122 3366 
L 3122 2828 
Q 2878 2963 2633 3030 
Q 2388 3097 2138 3097 
Q 1578 3097 1268 2742 
Q 959 2388 959 1747 
Q 959 1106 1268 751 
Q 1578 397 2138 397 
Q 2388 397 2633 464 
Q 2878 531 3122 666 
L 3122 134 
Q 2881 22 2623 -34 
Q 2366 -91 2075 -91 
Q 1284 -91 818 406 
Q 353 903 353 1747 
Q 353 2603 823 3093 
Q 1294 3584 2113 3584 
Q 2378 3584 2631 3529 
Q 2884 3475 3122 3366 
z
" transform="scale(0.015625)"/>
       <path id="DejaVuSans-65" d="M 3597 1894 
L 3597 1613 
L 953 1613 
Q 991 1019 1311 708 
Q 1631 397 2203 397 
Q 2534 397 2845 478 
Q 3156 559 3463 722 
L 3463 178 
Q 3153 47 2828 -22 
Q 2503 -91 2169 -91 
Q 1331 -91 842 396 
Q 353 884 353 1716 
Q 353 2575 817 3079 
Q 1281 3584 2069 3584 
Q 2775 3584 3186 3129 
Q 3597 2675 3597 1894 
z
M 3022 2063 
Q 3016 2534 2758 2815 
Q 2500 3097 2075 3097 
Q 1594 3097 1305 2825 
Q 1016 2553 972 2059 
L 3022 2063 
z
" transform="scale(0.015625)"/>
       <path id="DejaVuSans-20" transform="scale(0.015625)"/>
       <path id="DejaVuSans-66" d="M 2375 4863 
L 2375 4384 
L 1825 4384 
Q 1516 4384 1395 4259 
Q 1275 4134 1275 3809 
L 1275 3500 
L 2222 3500 
L 2222 3053 
L 1275 3053 
L 1275 0 
L 697 0 
L 697 3053 
L 147 3053 
L 147 3500 
L 697 3500 
L 697 3744 
Q 697 4328 969 4595 
Q 1241 4863 1831 4863 
L 2375 4863 
z
" transform="scale(0.015625)"/>
       <path id="DejaVuSans-72" d="M 2631 2963 
Q 2534 3019 2420 3045 
Q 2306 3072 2169 3072 
Q 1681 3072 1420 2755 
Q 1159 2438 1159 1844 
L 1159 0 
L 581 0 
L 581 3500 
L 1159 3500 
L 1159 2956 
Q 1341 3275 1631 3429 
Q 1922 3584 2338 3584 
Q 2397 3584 2469 3576 
Q 2541 3569 2628 3553 
L 2631 2963 
z
" transform="scale(0.015625)"/>
       <path id="DejaVuSans-6f" d="M 1959 3097 
Q 1497 3097 1228 2736 
Q 959 2375 959 1747 
Q 959 1119 1226 758 
Q 1494 397 1959 397 
Q 2419 397 2687 759 
Q 2956 1122 2956 1747 
Q 2956 2369 2687 2733 
Q 2419 3097 1959 3097 
z
M 1959 3584 
Q 2709 3584 3137 3096 
Q 3566 2609 3566 1747 
Q 3566 888 3137 398 
Q 2709 -91 1959 -91 
Q 1206 -91 779 398 
Q 353 888 353 1747 
Q 353 2609 779 3096 
Q 1206 3584 1959 3584 
z
" transform="scale(0.015625)"/>
       <path id="DejaVuSans-6d" d="M 3328 2828 
Q 3544 3216 3844 3400 
Q 4144 3584 4550 3584 
Q 5097 3584 5394 3201 
Q 5691 2819 5691 2113 
L 5691 0 
L 5113 0 
L 5113 2094 
Q 5113 2597 4934 2840 
Q 4756 3084 4391 3084 
Q 3944 3084 3684 2787 
Q 3425 2491 3425 1978 
L 3425 0 
L 2847 0 
L 2847 2094 
Q 2847 2600 2669 2842 
Q 2491 3084 2119 3084 
Q 1678 3084 1418 2786 
Q 1159 2488 1159 1978 
L 1159 0 
L 581 0 
L 581 3500 
L 1159 3500 
L 1159 2956 
Q 1356 3278 1631 3431 
Q 1906 3584 2284 3584 
Q 2666 3584 2933 3390 
Q 3200 3197 3328 2828 
z
" transform="scale(0.015625)"/>
       <path id="DejaVuSans-75" d="M 544 1381 
L 544 3500 
L 1119 3500 
L 1119 1403 
Q 1119 906 1312 657 
Q 1506 409 1894 409 
Q 2359 409 2629 706 
Q 2900 1003 2900 1516 
L 2900 3500 
L 3475 3500 
L 3475 0 
L 2900 0 
L 2900 538 
Q 2691 219 2414 64 
Q 2138 -91 1772 -91 
Q 1169 -91 856 284 
Q 544 659 544 1381 
z
M 1991 3584 
L 1991 3584 
z
" transform="scale(0.015625)"/>
       <path id="DejaVuSans-5b" d="M 550 4863 
L 1875 4863 
L 1875 4416 
L 1125 4416 
L 1125 -397 
L 1875 -397 
L 1875 -844 
L 550 -844 
L 550 4863 
z
" transform="scale(0.015625)"/>
       <path id="DejaVuSans-5d" d="M 1947 4863 
L 1947 -844 
L 622 -844 
L 622 -397 
L 1369 -397 
L 1369 4416 
L 622 4416 
L 622 4863 
L 1947 4863 
z
" transform="scale(0.015625)"/>
      </defs>
      <use xlink:href="#DejaVuSans-44"/>
      <use xlink:href="#DejaVuSans-69" transform="translate(77.001953 0)"/>
      <use xlink:href="#DejaVuSans-73" transform="translate(104.785156 0)"/>
      <use xlink:href="#DejaVuSans-74" transform="translate(156.884766 0)"/>
      <use xlink:href="#DejaVuSans-61" transform="translate(196.09375 0)"/>
      <use xlink:href="#DejaVuSans-6e" transform="translate(257.373047 0)"/>
      <use xlink:href="#DejaVuSans-63" transform="translate(320.751953 0)"/>
      <use xlink:href="#DejaVuSans-65" transform="translate(375.732422 0)"/>
      <use xlink:href="#DejaVuSans-20" transform="translate(437.255859 0)"/>
      <use xlink:href="#DejaVuSans-66" transform="translate(469.042969 0)"/>
      <use xlink:href="#DejaVuSans-72" transform="translate(504.248047 0)"/>
      <use xlink:href="#DejaVuSans-6f" transform="translate(543.111328 0)"/>
      <use xlink:href="#DejaVuSans-6d" transform="translate(604.292969 0)"/>
      <use xlink:href="#DejaVuSans-20" transform="translate(701.705078 0)"/>
      <use xlink:href="#DejaVuSans-74" transform="translate(733.492188 0)"/>
      <use xlink:href="#DejaVuSans-65" transform="translate(772.701172 0)"/>
      <use xlink:href="#DejaVuSans-72" transform="translate(834.224609 0)"/>
      <use xlink:href="#DejaVuSans-6d" transform="translate(873.587891 0)"/>
      <use xlink:href="#DejaVuSans-69" transform="translate(971 0)"/>
      <use xlink:href="#DejaVuSans-6e" transform="translate(998.783203 0)"/>
      <use xlink:href="#DejaVuSans-75" transform="translate(1062.162109 0)"/>
      <use xlink:href="#DejaVuSans-73" transform="translate(1125.541016 0)"/>
      <use xlink:href="#DejaVuSans-20" transform="translate(1177.640625 0)"/>
      <use xlink:href="#DejaVuSans-5b" transform="translate(1209.427734 0)"/>
      <use xlink:href="#DejaVuSans-6e" transform="translate(1248.441406 0)"/>
      <use xlink:href="#DejaVuSans-74" transform="translate(1311.820312 0)"/>
      <use xlink:href="#DejaVuSans-5d" transform="translate(1351.029297 0)"/>
     </g>
    </g>
   </g>
   <g id="matplotlib.axis_2">
    <g id="ytick_1">
     <g id="line2d_19">
      <path d="M 40.603125 369.201818 
L 409.623125 369.201818 
" clip-path="url(#p613914c411)" style="fill: none; stroke-dasharray: 2.96,1.28; stroke-dashoffset: 0; stroke: #b0b0b0; stroke-opacity: 0.6; stroke-width: 0.8"/>
     </g>
     <g id="line2d_20">
      <defs>
       <path id="m19c232e4a4" d="M 0 0 
L -3.5 0 
" style="stroke: #000000; stroke-width: 0.8"/>
      </defs>
      <g>
       <use xlink:href="#m19c232e4a4" x="40.603125" y="369.201818" style="stroke: #000000; stroke-width: 0.8"/>
      </g>
     </g>
     <g id="text_11">
      <!-- 0 -->
      <g transform="translate(27.240625 373.001037) scale(0.1 -0.1)">
       <use xlink:href="#DejaVuSans-30"/>
      </g>
     </g>
    </g>
    <g id="ytick_2">
     <g id="line2d_21">
      <path d="M 40.603125 321.202038 
L 409.623125 321.202038 
" clip-path="url(#p613914c411)" style="fill: none; stroke-dasharray: 2.96,1.28; stroke-dashoffset: 0; stroke: #b0b0b0; stroke-opacity: 0.6; stroke-width: 0.8"/>
     </g>
     <g id="line2d_22">
      <g>
       <use xlink:href="#m19c232e4a4" x="40.603125" y="321.202038" style="stroke: #000000; stroke-width: 0.8"/>
      </g>
     </g>
     <g id="text_12">
      <!-- 10 -->
      <g transform="translate(20.878125 325.001257) scale(0.1 -0.1)">
       <use xlink:href="#DejaVuSans-31"/>
       <use xlink:href="#DejaVuSans-30" transform="translate(63.623047 0)"/>
      </g>
     </g>
    </g>
    <g id="ytick_3">
     <g id="line2d_23">
      <path d="M 40.603125 273.202258 
L 409.623125 273.202258 
" clip-path="url(#p613914c411)" style="fill: none; stroke-dasharray: 2.96,1.28; stroke-dashoffset: 0; stroke: #b0b0b0; stroke-opacity: 0.6; stroke-width: 0.8"/>
     </g>
     <g id="line2d_24">
      <g>
       <use xlink:href="#m19c232e4a4" x="40.603125" y="273.202258" style="stroke: #000000; stroke-width: 0.8"/>
      </g>
     </g>
     <g id="text_13">
      <!-- 20 -->
      <g transform="translate(20.878125 277.001477) scale(0.1 -0.1)">
       <use xlink:href="#DejaVuSans-32"/>
       <use xlink:href="#DejaVuSans-30" transform="translate(63.623047 0)"/>
      </g>
     </g>
    </g>
    <g id="ytick_4">
     <g id="line2d_25">
      <path d="M 40.603125 225.202479 
L 409.623125 225.202479 
" clip-path="url(#p613914c411)" style="fill: none; stroke-dasharray: 2.96,1.28; stroke-dashoffset: 0; stroke: #b0b0b0; stroke-opacity: 0.6; stroke-width: 0.8"/>
     </g>
     <g id="line2d_26">
      <g>
       <use xlink:href="#m19c232e4a4" x="40.603125" y="225.202479" style="stroke: #000000; stroke-width: 0.8"/>
      </g>
     </g>
     <g id="text_14">
      <!-- 30 -->
      <g transform="translate(20.878125 229.001697) scale(0.1 -0.1)">
       <use xlink:href="#DejaVuSans-33"/>
       <use xlink:href="#DejaVuSans-30" transform="translate(63.623047 0)"/>
      </g>
     </g>
    </g>
    <g id="ytick_5">
     <g id="line2d_27">
      <path d="M 40.603125 177.202699 
L 409.623125 177.202699 
" clip-path="url(#p613914c411)" style="fill: none; stroke-dasharray: 2.96,1.28; stroke-dashoffset: 0; stroke: #b0b0b0; stroke-opacity: 0.6; stroke-width: 0.8"/>
     </g>
     <g id="line2d_28">
      <g>
       <use xlink:href="#m19c232e4a4" x="40.603125" y="177.202699" style="stroke: #000000; stroke-width: 0.8"/>
      </g>
     </g>
     <g id="text_15">
      <!-- 40 -->
      <g transform="translate(20.878125 181.001917) scale(0.1 -0.1)">
       <use xlink:href="#DejaVuSans-34"/>
       <use xlink:href="#DejaVuSans-30" transform="translate(63.623047 0)"/>
      </g>
     </g>
    </g>
    <g id="ytick_6">
     <g id="line2d_29">
      <path d="M 40.603125 129.202919 
L 409.623125 129.202919 
" clip-path="url(#p613914c411)" style="fill: none; stroke-dasharray: 2.96,1.28; stroke-dashoffset: 0; stroke: #b0b0b0; stroke-opacity: 0.6; stroke-width: 0.8"/>
     </g>
     <g id="line2d_30">
      <g>
       <use xlink:href="#m19c232e4a4" x="40.603125" y="129.202919" style="stroke: #000000; stroke-width: 0.8"/>
      </g>
     </g>
     <g id="text_16">
      <!-- 50 -->
      <g transform="translate(20.878125 133.002138) scale(0.1 -0.1)">
       <use xlink:href="#DejaVuSans-35"/>
       <use xlink:href="#DejaVuSans-30" transform="translate(63.623047 0)"/>
      </g>
     </g>
    </g>
    <g id="ytick_7">
     <g id="line2d_31">
      <path d="M 40.603125 81.203139 
L 409.623125 81.203139 
" clip-path="url(#p613914c411)" style="fill: none; stroke-dasharray: 2.96,1.28; stroke-dashoffset: 0; stroke: #b0b0b0; stroke-opacity: 0.6; stroke-width: 0.8"/>
     </g>
     <g id="line2d_32">
      <g>
       <use xlink:href="#m19c232e4a4" x="40.603125" y="81.203139" style="stroke: #000000; stroke-width: 0.8"/>
      </g>
     </g>
     <g id="text_17">
      <!-- 60 -->
      <g transform="translate(20.878125 85.002358) scale(0.1 -0.1)">
       <use xlink:href="#DejaVuSans-36"/>
       <use xlink:href="#DejaVuSans-30" transform="translate(63.623047 0)"/>
      </g>
     </g>
    </g>
    <g id="ytick_8">
     <g id="line2d_33">
      <path d="M 40.603125 33.203359 
L 409.623125 33.203359 
" clip-path="url(#p613914c411)" style="fill: none; stroke-dasharray: 2.96,1.28; stroke-dashoffset: 0; stroke: #b0b0b0; stroke-opacity: 0.6; stroke-width: 0.8"/>
     </g>
     <g id="line2d_34">
      <g>
       <use xlink:href="#m19c232e4a4" x="40.603125" y="33.203359" style="stroke: #000000; stroke-width: 0.8"/>
      </g>
     </g>
     <g id="text_18">
      <!-- 70 -->
      <g transform="translate(20.878125 37.002578) scale(0.1 -0.1)">
       <use xlink:href="#DejaVuSans-37"/>
       <use xlink:href="#DejaVuSans-30" transform="translate(63.623047 0)"/>
      </g>
     </g>
    </g>
    <g id="text_19">
     <!-- Average cumulative count -->
     <g transform="translate(14.798438 262.4325) rotate(-90) scale(0.1 -0.1)">
      <defs>
       <path id="DejaVuSans-41" d="M 2188 4044 
L 1331 1722 
L 3047 1722 
L 2188 4044 
z
M 1831 4666 
L 2547 4666 
L 4325 0 
L 3669 0 
L 3244 1197 
L 1141 1197 
L 716 0 
L 50 0 
L 1831 4666 
z
" transform="scale(0.015625)"/>
       <path id="DejaVuSans-76" d="M 191 3500 
L 800 3500 
L 1894 563 
L 2988 3500 
L 3597 3500 
L 2284 0 
L 1503 0 
L 191 3500 
z
" transform="scale(0.015625)"/>
       <path id="DejaVuSans-67" d="M 2906 1791 
Q 2906 2416 2648 2759 
Q 2391 3103 1925 3103 
Q 1463 3103 1205 2759 
Q 947 2416 947 1791 
Q 947 1169 1205 825 
Q 1463 481 1925 481 
Q 2391 481 2648 825 
Q 2906 1169 2906 1791 
z
M 3481 434 
Q 3481 -459 3084 -895 
Q 2688 -1331 1869 -1331 
Q 1566 -1331 1297 -1286 
Q 1028 -1241 775 -1147 
L 775 -588 
Q 1028 -725 1275 -790 
Q 1522 -856 1778 -856 
Q 2344 -856 2625 -561 
Q 2906 -266 2906 331 
L 2906 616 
Q 2728 306 2450 153 
Q 2172 0 1784 0 
Q 1141 0 747 490 
Q 353 981 353 1791 
Q 353 2603 747 3093 
Q 1141 3584 1784 3584 
Q 2172 3584 2450 3431 
Q 2728 3278 2906 2969 
L 2906 3500 
L 3481 3500 
L 3481 434 
z
" transform="scale(0.015625)"/>
       <path id="DejaVuSans-6c" d="M 603 4863 
L 1178 4863 
L 1178 0 
L 603 0 
L 603 4863 
z
" transform="scale(0.015625)"/>
      </defs>
      <use xlink:href="#DejaVuSans-41"/>
      <use xlink:href="#DejaVuSans-76" transform="translate(62.533203 0)"/>
      <use xlink:href="#DejaVuSans-65" transform="translate(121.712891 0)"/>
      <use xlink:href="#DejaVuSans-72" transform="translate(183.236328 0)"/>
      <use xlink:href="#DejaVuSans-61" transform="translate(224.349609 0)"/>
      <use xlink:href="#DejaVuSans-67" transform="translate(285.628906 0)"/>
      <use xlink:href="#DejaVuSans-65" transform="translate(349.105469 0)"/>
      <use xlink:href="#DejaVuSans-20" transform="translate(410.628906 0)"/>
      <use xlink:href="#DejaVuSans-63" transform="translate(442.416016 0)"/>
      <use xlink:href="#DejaVuSans-75" transform="translate(497.396484 0)"/>
      <use xlink:href="#DejaVuSans-6d" transform="translate(560.775391 0)"/>
      <use xlink:href="#DejaVuSans-75" transform="translate(658.1875 0)"/>
      <use xlink:href="#DejaVuSans-6c" transform="translate(721.566406 0)"/>
      <use xlink:href="#DejaVuSans-61" transform="translate(749.349609 0)"/>
      <use xlink:href="#DejaVuSans-74" transform="translate(810.628906 0)"/>
      <use xlink:href="#DejaVuSans-69" transform="translate(849.837891 0)"/>
      <use xlink:href="#DejaVuSans-76" transform="translate(877.621094 0)"/>
      <use xlink:href="#DejaVuSans-65" transform="translate(936.800781 0)"/>
      <use xlink:href="#DejaVuSans-20" transform="translate(998.324219 0)"/>
      <use xlink:href="#DejaVuSans-63" transform="translate(1030.111328 0)"/>
      <use xlink:href="#DejaVuSans-6f" transform="translate(1085.091797 0)"/>
      <use xlink:href="#DejaVuSans-75" transform="translate(1146.273438 0)"/>
      <use xlink:href="#DejaVuSans-6e" transform="translate(1209.652344 0)"/>
      <use xlink:href="#DejaVuSans-74" transform="translate(1273.03125 0)"/>
     </g>
    </g>
   </g>
   <g id="line2d_35">
    <path d="M 57.376761 368.575734 
L 57.418701 368.575734 
L 57.544519 367.740955 
L 57.670337 365.027924 
L 57.754215 364.40184 
L 57.921973 363.358367 
L 57.963912 362.940977 
L 58.08973 360.227946 
L 58.173609 359.601862 
L 58.341366 358.558389 
L 58.383305 358.140999 
L 58.509123 355.845358 
L 58.593002 355.219274 
L 58.760759 354.1758 
L 58.802699 353.758411 
L 58.928517 352.088853 
L 59.180153 350.419296 
L 59.473728 346.454096 
L 59.599546 345.828012 
L 59.851182 342.697592 
L 60.480272 335.810667 
L 60.648029 333.932415 
L 61.319059 326.836795 
L 61.486816 324.958543 
L 62.996632 309.097746 
L 63.206329 306.59341 
L 64.254812 295.532591 
L 64.422569 293.445644 
L 64.632266 291.358697 
L 64.967781 287.393498 
L 65.00972 287.393498 
L 65.596871 280.089183 
L 68.448745 251.080621 
L 68.658442 248.36759 
L 68.868139 246.906727 
L 69.077835 244.193696 
L 70.545712 229.167678 
L 70.713469 226.872036 
L 71.090923 222.698142 
L 74.865463 186.176571 
L 74.907403 185.967876 
L 75.117099 183.672234 
L 75.326796 182.420066 
L 75.536493 179.49834 
L 75.746189 178.246172 
L 76.039765 175.115752 
L 76.081704 175.115752 
L 76.165583 174.698362 
L 76.375279 171.567942 
L 76.417219 171.567942 
L 76.668855 169.063606 
L 76.752733 168.646216 
L 76.920491 167.185353 
L 77.004369 166.559269 
L 77.214066 164.054933 
L 77.256005 164.054933 
L 77.465702 162.59407 
L 77.717338 160.089734 
L 77.759277 160.089734 
L 77.843156 159.46365 
L 78.052853 156.333229 
L 78.094792 156.333229 
L 78.975518 148.611525 
L 79.017457 148.611525 
L 79.101336 147.985441 
L 79.311033 145.6898 
L 79.352972 145.6898 
L 79.520729 144.646326 
L 79.730426 141.933295 
L 79.772365 141.933295 
L 80.233698 138.385485 
L 80.359516 137.759401 
L 80.527273 136.298538 
L 80.73697 134.628981 
L 80.820849 133.794202 
L 81.072485 132.333339 
L 81.198303 131.49856 
L 81.407999 129.620308 
L 81.449939 129.620308 
L 81.911271 126.072498 
L 81.953211 126.072498 
L 82.666179 120.020352 
L 82.917815 118.350795 
L 83.211391 116.472542 
L 83.463027 114.802985 
L 83.840481 112.089954 
L 84.134056 110.211702 
L 84.469571 107.707365 
L 84.51151 107.707365 
L 84.888964 104.785639 
L 84.930903 104.785639 
L 85.308357 102.072608 
L 85.350297 102.072608 
L 85.685811 99.776967 
L 86.608477 94.768294 
L 86.776234 93.516126 
L 88.118293 87.255285 
L 88.160232 87.255285 
L 88.369929 85.794422 
L 88.537686 84.959643 
L 88.579625 84.959643 
L 89.208715 81.411834 
L 89.376473 80.577055 
L 89.418412 80.577055 
L 89.628109 79.324887 
L 89.795866 78.072718 
L 90.466895 74.316214 
L 90.634653 73.27274 
L 90.676592 73.27274 
L 91.599257 69.098847 
L 91.641197 69.098847 
L 91.892833 67.637984 
L 92.396105 65.551037 
L 92.479983 65.551037 
L 92.773559 63.672785 
L 92.941316 63.255395 
L 92.983255 63.255395 
L 93.151013 62.629311 
L 93.360709 62.003227 
L 93.402649 62.003227 
L 93.528467 61.168448 
L 93.570406 61.168448 
L 93.780103 60.542364 
L 93.822042 60.542364 
L 93.989799 60.124975 
L 94.031739 60.124975 
L 94.241435 59.498891 
L 94.409193 59.498891 
L 94.744707 58.246722 
L 94.828586 58.246722 
L 95.20604 56.78586 
L 95.247979 56.78586 
L 95.583494 55.533691 
L 95.709312 55.533691 
L 95.960948 54.698913 
L 96.170645 54.698913 
L 96.506159 53.446744 
L 96.590038 53.446744 
L 96.925553 52.194576 
L 97.009431 52.194576 
L 97.135249 51.985882 
L 97.177189 51.985882 
L 97.344946 51.359797 
L 97.428825 51.359797 
L 97.596582 50.942408 
L 97.7224 50.942408 
L 97.932097 50.316324 
L 98.015975 50.316324 
L 98.183733 49.898935 
L 98.225672 49.898935 
L 98.393429 49.481545 
L 98.435369 49.481545 
L 98.603126 49.064156 
L 98.645065 49.064156 
L 98.812823 48.646766 
L 98.854762 48.646766 
L 98.98058 48.438072 
L 99.064459 48.438072 
L 99.274155 47.811988 
L 99.483852 47.811988 
L 99.735488 46.977209 
L 99.903245 46.977209 
L 100.154881 46.14243 
L 100.322639 46.14243 
L 100.574275 45.307651 
L 100.742032 45.307651 
L 100.951729 44.681567 
L 101.161425 44.681567 
L 101.413061 43.846788 
L 101.580819 43.846788 
L 101.790515 43.220704 
L 102.000212 43.220704 
L 102.209909 42.59462 
L 102.419605 42.59462 
L 102.629302 41.968536 
L 102.838999 41.968536 
L 103.048695 41.342452 
L 103.300331 41.342452 
L 103.468089 40.925063 
L 103.719725 40.925063 
L 103.845543 40.716368 
L 104.139118 40.716368 
L 104.264936 40.507673 
L 104.516572 40.507673 
L 104.684329 40.090284 
L 104.894026 40.090284 
L 105.061783 39.672895 
L 105.313419 39.672895 
L 105.481177 39.04681 
L 105.732813 39.04681 
L 105.90057 38.629421 
L 106.152206 38.629421 
L 106.319963 38.212032 
L 106.571599 38.212032 
L 106.739357 37.585948 
L 106.990993 37.585948 
L 107.15875 36.959864 
L 107.410386 36.959864 
L 107.536204 36.542474 
L 107.829779 36.542474 
L 107.955597 36.125085 
L 108.081415 36.125085 
L 108.207233 35.91639 
L 108.249173 35.91639 
L 108.374991 35.499001 
L 108.500809 35.499001 
L 108.626627 35.290306 
L 108.668566 35.290306 
L 108.794384 34.872917 
L 108.920202 34.872917 
L 109.04602 34.664222 
L 109.087959 34.664222 
L 109.213777 34.246832 
L 109.339595 34.246832 
L 109.465413 34.038138 
L 109.507353 34.038138 
L 109.633171 33.829443 
L 109.758989 33.829443 
L 109.884807 33.620748 
L 109.926746 33.620748 
L 110.052564 33.203359 
L 110.178382 33.203359 
L 110.3042 32.994664 
L 110.346139 32.994664 
L 110.471957 32.577275 
L 110.597775 32.577275 
L 110.723593 32.36858 
L 110.765533 32.36858 
L 110.891351 31.951191 
L 111.017169 31.951191 
L 111.142987 31.742496 
L 111.184926 31.742496 
L 111.310744 31.533801 
L 111.604319 31.533801 
L 111.730137 31.325107 
L 111.772077 31.325107 
L 111.897895 31.116412 
L 112.023713 31.116412 
L 112.149531 30.907717 
L 112.19147 30.907717 
L 112.317288 30.699023 
L 112.443106 30.699023 
L 112.568924 30.490328 
L 112.610863 30.490328 
L 112.736681 30.281633 
L 112.862499 30.281633 
L 112.988317 30.072939 
L 113.030257 30.072939 
L 113.156075 29.864244 
L 113.281893 29.864244 
L 113.407711 29.655549 
L 113.44965 29.655549 
L 113.575468 29.446855 
L 113.701286 29.446855 
L 113.827104 29.23816 
L 113.869043 29.23816 
L 113.994861 29.029465 
L 114.120679 29.029465 
L 114.246497 28.82077 
L 114.540073 28.82077 
L 114.665891 28.612076 
L 114.959466 28.612076 
L 115.085284 28.403381 
L 115.378859 28.403381 
L 115.504677 28.194686 
L 115.798253 28.194686 
L 115.924071 27.985992 
L 116.217646 27.985992 
L 116.343464 27.777297 
L 116.637039 27.777297 
L 116.762857 27.568602 
L 117.056433 27.568602 
L 117.182251 27.359908 
L 117.895219 27.359908 
L 118.021037 27.151213 
L 118.314613 27.151213 
L 118.440431 26.942518 
L 118.734006 26.942518 
L 118.859824 26.733823 
L 119.153399 26.733823 
L 119.279217 26.525129 
L 119.572793 26.525129 
L 119.698611 26.316434 
L 119.992186 26.316434 
L 120.118004 26.107739 
L 120.411579 26.107739 
L 120.537397 25.899045 
L 120.830973 25.899045 
L 120.956791 25.69035 
L 121.585881 25.69035 
L 121.711699 25.481655 
L 122.005274 25.481655 
L 122.131092 25.272961 
L 122.424667 25.272961 
L 122.550485 25.064266 
L 122.844061 25.064266 
L 122.969879 24.855571 
L 123.263454 24.855571 
L 123.389272 24.646877 
L 123.682847 24.646877 
L 123.808665 24.438182 
L 392.849489 24.438182 
L 392.849489 24.438182 
" clip-path="url(#p613914c411)" style="fill: none; stroke: #add8e6; stroke-width: 2; stroke-linecap: square"/>
   </g>
   <g id="line2d_36">
    <path d="M 57.376761 369.201818 
L 65.596871 369.201818 
L 65.722689 368.993123 
L 66.016264 368.993123 
L 66.142082 368.784429 
L 66.435657 368.784429 
L 66.561475 368.575734 
L 67.274444 368.575734 
L 67.400262 368.367039 
L 68.448745 368.367039 
L 68.574563 368.158345 
L 69.455289 368.158345 
L 69.581107 367.94965 
L 69.874683 367.94965 
L 70.000501 367.740955 
L 70.294076 367.740955 
L 70.419894 367.532261 
L 70.965105 367.532261 
L 71.090923 367.323566 
L 71.132863 367.323566 
L 71.258681 367.114871 
L 71.384499 367.114871 
L 71.510317 366.906177 
L 71.803892 366.906177 
L 71.92971 366.488787 
L 71.971649 366.488787 
L 72.097467 366.280092 
L 72.391043 366.280092 
L 72.516861 365.862703 
L 72.642679 365.862703 
L 72.768497 365.654008 
L 72.810436 365.654008 
L 72.936254 365.445314 
L 73.649223 365.445314 
L 73.775041 365.236619 
L 73.858919 365.236619 
L 73.984737 365.027924 
L 74.236373 365.027924 
L 74.362191 364.81923 
L 74.529949 364.81923 
L 74.739645 364.193145 
L 74.949342 364.193145 
L 75.117099 363.775756 
L 75.368735 363.775756 
L 75.494553 363.567061 
L 75.746189 363.567061 
L 75.872007 363.149672 
L 75.913947 363.149672 
L 76.039765 362.940977 
L 76.207522 362.940977 
L 76.375279 362.523588 
L 76.752733 362.523588 
L 76.878551 362.106199 
L 77.046309 362.106199 
L 77.256005 361.480114 
L 78.430307 361.480114 
L 78.556125 361.27142 
L 78.8497 361.27142 
L 79.017457 360.85403 
L 79.143275 360.85403 
L 79.311033 360.436641 
L 79.352972 360.436641 
L 79.47879 360.227946 
L 80.065941 360.227946 
L 80.233698 359.810557 
L 80.485334 359.810557 
L 80.653091 359.393168 
L 80.904727 359.393168 
L 81.072485 358.975778 
L 81.36606 358.975778 
L 81.491878 358.767083 
L 81.701575 358.767083 
L 81.869332 358.349694 
L 82.582301 358.349694 
L 82.708119 358.140999 
L 83.001694 358.140999 
L 83.127512 357.932305 
L 83.211391 357.932305 
L 83.421087 357.306221 
L 83.630784 357.306221 
L 83.798541 356.888831 
L 84.050177 356.888831 
L 84.175995 356.680136 
L 84.51151 356.680136 
L 84.637328 356.471442 
L 84.721207 356.471442 
L 84.847025 356.262747 
L 84.930903 356.262747 
L 85.098661 355.845358 
L 85.1406 355.845358 
L 85.266418 355.636663 
L 85.350297 355.636663 
L 85.518054 355.219274 
L 85.559993 355.219274 
L 85.685811 355.010579 
L 85.76969 355.010579 
L 86.021326 354.1758 
L 86.189083 354.1758 
L 86.39878 353.549716 
L 86.650416 353.549716 
L 86.902052 352.714937 
L 87.111749 352.714937 
L 87.321445 352.088853 
L 87.489203 352.088853 
L 87.782778 351.04538 
L 87.908596 351.04538 
L 88.28605 349.584517 
L 88.411868 349.584517 
L 88.579625 349.167127 
L 88.789322 349.167127 
L 88.957079 348.541043 
L 89.082897 348.541043 
L 89.292594 347.914959 
L 89.376473 347.914959 
L 89.502291 347.706265 
L 89.54423 347.706265 
L 89.670048 347.49757 
L 90.131381 347.49757 
L 90.299138 347.08018 
L 90.550774 347.08018 
L 90.718531 346.662791 
L 90.886289 346.662791 
L 91.012107 346.454096 
L 91.263743 346.454096 
L 91.515379 345.619318 
L 91.725075 345.619318 
L 91.892833 345.201928 
L 92.144469 345.201928 
L 92.270287 344.993234 
L 92.563862 344.993234 
L 92.68968 344.784539 
L 92.899377 344.784539 
L 93.067134 344.367149 
L 93.31877 344.367149 
L 93.444588 344.158455 
L 93.738163 344.158455 
L 93.905921 343.741065 
L 93.989799 343.741065 
L 94.157557 343.323676 
L 94.241435 343.323676 
L 94.367253 343.114981 
L 94.493071 343.114981 
L 94.618889 342.906287 
L 95.793191 342.906287 
L 95.919009 342.697592 
L 97.051371 342.697592 
L 97.177189 342.488897 
L 97.512703 342.488897 
L 97.680461 342.071508 
L 97.890157 342.071508 
L 98.057915 341.654118 
L 98.309551 341.654118 
L 98.435369 341.445424 
L 98.728944 341.445424 
L 98.896701 341.028034 
L 98.98058 341.028034 
L 99.106398 340.81934 
L 99.148337 340.81934 
L 99.274155 340.610645 
L 99.399973 340.610645 
L 99.525791 340.40195 
L 100.86785 340.40195 
L 100.993668 340.193256 
L 103.258392 340.193256 
L 103.38421 339.984561 
L 103.677785 339.984561 
L 103.803603 339.775866 
L 104.055239 339.775866 
L 104.222997 339.358477 
L 104.474633 339.358477 
L 104.600451 339.149782 
L 105.732813 339.149782 
L 105.858631 338.941087 
L 106.152206 338.941087 
L 106.278024 338.732393 
L 109.507353 338.732393 
L 109.633171 338.523698 
L 114.288437 338.523698 
L 114.414255 338.315003 
L 114.70783 338.315003 
L 114.833648 338.106309 
L 124.102241 338.106309 
L 124.228059 337.897614 
L 124.521634 337.897614 
L 124.647452 337.688919 
L 392.849489 337.688919 
L 392.849489 337.688919 
" clip-path="url(#p613914c411)" style="fill: none; stroke: #6495ed; stroke-width: 2; stroke-linecap: square"/>
   </g>
   <g id="line2d_37">
    <path d="M 57.376761 369.201818 
L 392.849489 369.201818 
L 392.849489 369.201818 
" clip-path="url(#p613914c411)" style="fill: none; stroke: #00008b; stroke-width: 2; stroke-linecap: square"/>
   </g>
   <g id="patch_3">
    <path d="M 40.603125 386.44 
L 40.603125 7.2 
" style="fill: none; stroke: #000000; stroke-width: 0.8; stroke-linejoin: miter; stroke-linecap: square"/>
   </g>
   <g id="patch_4">
    <path d="M 409.623125 386.44 
L 409.623125 7.2 
" style="fill: none; stroke: #000000; stroke-width: 0.8; stroke-linejoin: miter; stroke-linecap: square"/>
   </g>
   <g id="patch_5">
    <path d="M 40.603125 386.44 
L 409.623125 386.44 
" style="fill: none; stroke: #000000; stroke-width: 0.8; stroke-linejoin: miter; stroke-linecap: square"/>
   </g>
   <g id="patch_6">
    <path d="M 40.603125 7.2 
L 409.623125 7.2 
" style="fill: none; stroke: #000000; stroke-width: 0.8; stroke-linejoin: miter; stroke-linecap: square"/>
   </g>
   <g id="legend_1">
    <g id="patch_7">
     <path d="M 416.623125 73.9125 
L 558.9825 73.9125 
Q 560.9825 73.9125 560.9825 71.9125 
L 560.9825 14.2 
Q 560.9825 12.2 558.9825 12.2 
L 416.623125 12.2 
Q 414.623125 12.2 414.623125 14.2 
L 414.623125 71.9125 
Q 414.623125 73.9125 416.623125 73.9125 
z
" style="fill: #ffffff; opacity: 0.8; stroke: #cccccc; stroke-linejoin: miter"/>
    </g>
    <g id="text_20">
     <!-- Motifs &amp; orientation -->
     <g transform="translate(438.287188 23.798437) scale(0.1 -0.1)">
      <defs>
       <path id="DejaVuSans-4d" d="M 628 4666 
L 1569 4666 
L 2759 1491 
L 3956 4666 
L 4897 4666 
L 4897 0 
L 4281 0 
L 4281 4097 
L 3078 897 
L 2444 897 
L 1241 4097 
L 1241 0 
L 628 0 
L 628 4666 
z
" transform="scale(0.015625)"/>
       <path id="DejaVuSans-26" d="M 1556 2509 
Q 1272 2256 1139 2004 
Q 1006 1753 1006 1478 
Q 1006 1022 1337 719 
Q 1669 416 2169 416 
Q 2466 416 2725 514 
Q 2984 613 3213 813 
L 1556 2509 
z
M 1997 2859 
L 3584 1234 
Q 3769 1513 3872 1830 
Q 3975 2147 3994 2503 
L 4575 2503 
Q 4538 2091 4375 1687 
Q 4213 1284 3922 891 
L 4794 0 
L 4006 0 
L 3559 459 
Q 3234 181 2878 45 
Q 2522 -91 2113 -91 
Q 1359 -91 881 339 
Q 403 769 403 1441 
Q 403 1841 612 2192 
Q 822 2544 1241 2853 
Q 1091 3050 1012 3245 
Q 934 3441 934 3628 
Q 934 4134 1281 4442 
Q 1628 4750 2203 4750 
Q 2463 4750 2720 4694 
Q 2978 4638 3244 4525 
L 3244 3956 
Q 2972 4103 2725 4179 
Q 2478 4256 2266 4256 
Q 1938 4256 1733 4082 
Q 1528 3909 1528 3634 
Q 1528 3475 1620 3314 
Q 1713 3153 1997 2859 
z
" transform="scale(0.015625)"/>
      </defs>
      <use xlink:href="#DejaVuSans-4d"/>
      <use xlink:href="#DejaVuSans-6f" transform="translate(86.279297 0)"/>
      <use xlink:href="#DejaVuSans-74" transform="translate(147.460938 0)"/>
      <use xlink:href="#DejaVuSans-69" transform="translate(186.669922 0)"/>
      <use xlink:href="#DejaVuSans-66" transform="translate(214.453125 0)"/>
      <use xlink:href="#DejaVuSans-73" transform="translate(249.658203 0)"/>
      <use xlink:href="#DejaVuSans-20" transform="translate(301.757812 0)"/>
      <use xlink:href="#DejaVuSans-26" transform="translate(333.544922 0)"/>
      <use xlink:href="#DejaVuSans-20" transform="translate(411.523438 0)"/>
      <use xlink:href="#DejaVuSans-6f" transform="translate(443.310547 0)"/>
      <use xlink:href="#DejaVuSans-72" transform="translate(504.492188 0)"/>
      <use xlink:href="#DejaVuSans-69" transform="translate(545.605469 0)"/>
      <use xlink:href="#DejaVuSans-65" transform="translate(573.388672 0)"/>
      <use xlink:href="#DejaVuSans-6e" transform="translate(634.912109 0)"/>
      <use xlink:href="#DejaVuSans-74" transform="translate(698.291016 0)"/>
      <use xlink:href="#DejaVuSans-61" transform="translate(737.5 0)"/>
      <use xlink:href="#DejaVuSans-74" transform="translate(798.779297 0)"/>
      <use xlink:href="#DejaVuSans-69" transform="translate(837.988281 0)"/>
      <use xlink:href="#DejaVuSans-6f" transform="translate(865.771484 0)"/>
      <use xlink:href="#DejaVuSans-6e" transform="translate(926.953125 0)"/>
     </g>
    </g>
    <g id="line2d_38">
     <path d="M 418.623125 34.976562 
L 428.623125 34.976562 
L 438.623125 34.976562 
" style="fill: none; stroke: #add8e6; stroke-width: 2; stroke-linecap: square"/>
    </g>
    <g id="text_21">
     <!-- CCCACACTAA (5' end) -->
     <g transform="translate(446.623125 38.476562) scale(0.1 -0.1)">
      <defs>
       <path id="DejaVuSans-43" d="M 4122 4306 
L 4122 3641 
Q 3803 3938 3442 4084 
Q 3081 4231 2675 4231 
Q 1875 4231 1450 3742 
Q 1025 3253 1025 2328 
Q 1025 1406 1450 917 
Q 1875 428 2675 428 
Q 3081 428 3442 575 
Q 3803 722 4122 1019 
L 4122 359 
Q 3791 134 3420 21 
Q 3050 -91 2638 -91 
Q 1578 -91 968 557 
Q 359 1206 359 2328 
Q 359 3453 968 4101 
Q 1578 4750 2638 4750 
Q 3056 4750 3426 4639 
Q 3797 4528 4122 4306 
z
" transform="scale(0.015625)"/>
       <path id="DejaVuSans-54" d="M -19 4666 
L 3928 4666 
L 3928 4134 
L 2272 4134 
L 2272 0 
L 1638 0 
L 1638 4134 
L -19 4134 
L -19 4666 
z
" transform="scale(0.015625)"/>
       <path id="DejaVuSans-28" d="M 1984 4856 
Q 1566 4138 1362 3434 
Q 1159 2731 1159 2009 
Q 1159 1288 1364 580 
Q 1569 -128 1984 -844 
L 1484 -844 
Q 1016 -109 783 600 
Q 550 1309 550 2009 
Q 550 2706 781 3412 
Q 1013 4119 1484 4856 
L 1984 4856 
z
" transform="scale(0.015625)"/>
       <path id="DejaVuSans-27" d="M 1147 4666 
L 1147 2931 
L 616 2931 
L 616 4666 
L 1147 4666 
z
" transform="scale(0.015625)"/>
       <path id="DejaVuSans-64" d="M 2906 2969 
L 2906 4863 
L 3481 4863 
L 3481 0 
L 2906 0 
L 2906 525 
Q 2725 213 2448 61 
Q 2172 -91 1784 -91 
Q 1150 -91 751 415 
Q 353 922 353 1747 
Q 353 2572 751 3078 
Q 1150 3584 1784 3584 
Q 2172 3584 2448 3432 
Q 2725 3281 2906 2969 
z
M 947 1747 
Q 947 1113 1208 752 
Q 1469 391 1925 391 
Q 2381 391 2643 752 
Q 2906 1113 2906 1747 
Q 2906 2381 2643 2742 
Q 2381 3103 1925 3103 
Q 1469 3103 1208 2742 
Q 947 2381 947 1747 
z
" transform="scale(0.015625)"/>
       <path id="DejaVuSans-29" d="M 513 4856 
L 1013 4856 
Q 1481 4119 1714 3412 
Q 1947 2706 1947 2009 
Q 1947 1309 1714 600 
Q 1481 -109 1013 -844 
L 513 -844 
Q 928 -128 1133 580 
Q 1338 1288 1338 2009 
Q 1338 2731 1133 3434 
Q 928 4138 513 4856 
z
" transform="scale(0.015625)"/>
      </defs>
      <use xlink:href="#DejaVuSans-43"/>
      <use xlink:href="#DejaVuSans-43" transform="translate(69.824219 0)"/>
      <use xlink:href="#DejaVuSans-43" transform="translate(139.648438 0)"/>
      <use xlink:href="#DejaVuSans-41" transform="translate(209.472656 0)"/>
      <use xlink:href="#DejaVuSans-43" transform="translate(276.130859 0)"/>
      <use xlink:href="#DejaVuSans-41" transform="translate(345.955078 0)"/>
      <use xlink:href="#DejaVuSans-43" transform="translate(412.613281 0)"/>
      <use xlink:href="#DejaVuSans-54" transform="translate(482.4375 0)"/>
      <use xlink:href="#DejaVuSans-41" transform="translate(535.771484 0)"/>
      <use xlink:href="#DejaVuSans-41" transform="translate(606.929688 0)"/>
      <use xlink:href="#DejaVuSans-20" transform="translate(675.337891 0)"/>
      <use xlink:href="#DejaVuSans-28" transform="translate(707.125 0)"/>
      <use xlink:href="#DejaVuSans-35" transform="translate(746.138672 0)"/>
      <use xlink:href="#DejaVuSans-27" transform="translate(809.761719 0)"/>
      <use xlink:href="#DejaVuSans-20" transform="translate(837.251953 0)"/>
      <use xlink:href="#DejaVuSans-65" transform="translate(869.039062 0)"/>
      <use xlink:href="#DejaVuSans-6e" transform="translate(930.5625 0)"/>
      <use xlink:href="#DejaVuSans-64" transform="translate(993.941406 0)"/>
      <use xlink:href="#DejaVuSans-29" transform="translate(1057.417969 0)"/>
     </g>
    </g>
    <g id="line2d_39">
     <path d="M 418.623125 49.654687 
L 428.623125 49.654687 
L 438.623125 49.654687 
" style="fill: none; stroke: #6495ed; stroke-width: 2; stroke-linecap: square"/>
    </g>
    <g id="text_22">
     <!-- CCAAAACTAA (5' end) -->
     <g transform="translate(446.623125 53.154687) scale(0.1 -0.1)">
      <use xlink:href="#DejaVuSans-43"/>
      <use xlink:href="#DejaVuSans-43" transform="translate(69.824219 0)"/>
      <use xlink:href="#DejaVuSans-41" transform="translate(139.648438 0)"/>
      <use xlink:href="#DejaVuSans-41" transform="translate(210.806641 0)"/>
      <use xlink:href="#DejaVuSans-41" transform="translate(281.964844 0)"/>
      <use xlink:href="#DejaVuSans-41" transform="translate(353.123047 0)"/>
      <use xlink:href="#DejaVuSans-43" transform="translate(419.78125 0)"/>
      <use xlink:href="#DejaVuSans-54" transform="translate(489.605469 0)"/>
      <use xlink:href="#DejaVuSans-41" transform="translate(542.939453 0)"/>
      <use xlink:href="#DejaVuSans-41" transform="translate(614.097656 0)"/>
      <use xlink:href="#DejaVuSans-20" transform="translate(682.505859 0)"/>
      <use xlink:href="#DejaVuSans-28" transform="translate(714.292969 0)"/>
      <use xlink:href="#DejaVuSans-35" transform="translate(753.306641 0)"/>
      <use xlink:href="#DejaVuSans-27" transform="translate(816.929688 0)"/>
      <use xlink:href="#DejaVuSans-20" transform="translate(844.419922 0)"/>
      <use xlink:href="#DejaVuSans-65" transform="translate(876.207031 0)"/>
      <use xlink:href="#DejaVuSans-6e" transform="translate(937.730469 0)"/>
      <use xlink:href="#DejaVuSans-64" transform="translate(1001.109375 0)"/>
      <use xlink:href="#DejaVuSans-29" transform="translate(1064.585938 0)"/>
     </g>
    </g>
    <g id="line2d_40">
     <path d="M 418.623125 64.332812 
L 428.623125 64.332812 
L 438.623125 64.332812 
" style="fill: none; stroke: #00008b; stroke-width: 2; stroke-linecap: square"/>
    </g>
    <g id="text_23">
     <!-- CTTCTAAA (5' end) -->
     <g transform="translate(446.623125 67.832812) scale(0.1 -0.1)">
      <use xlink:href="#DejaVuSans-43"/>
      <use xlink:href="#DejaVuSans-54" transform="translate(69.824219 0)"/>
      <use xlink:href="#DejaVuSans-54" transform="translate(129.158203 0)"/>
      <use xlink:href="#DejaVuSans-43" transform="translate(184.367188 0)"/>
      <use xlink:href="#DejaVuSans-54" transform="translate(254.191406 0)"/>
      <use xlink:href="#DejaVuSans-41" transform="translate(307.525391 0)"/>
      <use xlink:href="#DejaVuSans-41" transform="translate(378.683594 0)"/>
      <use xlink:href="#DejaVuSans-41" transform="translate(449.841797 0)"/>
      <use xlink:href="#DejaVuSans-20" transform="translate(518.25 0)"/>
      <use xlink:href="#DejaVuSans-28" transform="translate(550.037109 0)"/>
      <use xlink:href="#DejaVuSans-35" transform="translate(589.050781 0)"/>
      <use xlink:href="#DejaVuSans-27" transform="translate(652.673828 0)"/>
      <use xlink:href="#DejaVuSans-20" transform="translate(680.164062 0)"/>
      <use xlink:href="#DejaVuSans-65" transform="translate(711.951172 0)"/>
      <use xlink:href="#DejaVuSans-6e" transform="translate(773.474609 0)"/>
      <use xlink:href="#DejaVuSans-64" transform="translate(836.853516 0)"/>
      <use xlink:href="#DejaVuSans-29" transform="translate(900.330078 0)"/>
     </g>
    </g>
   </g>
  </g>
 </g>
 <defs>
  <clipPath id="p613914c411">
   <rect x="40.603125" y="7.2" width="369.02" height="379.24"/>
  </clipPath>
 </defs>
</svg>
