<?xml version="1.0" encoding="utf-8" standalone="no"?>
<!DOCTYPE svg PUBLIC "-//W3C//DTD SVG 1.1//EN"
  "http://www.w3.org/Graphics/SVG/1.1/DTD/svg11.dtd">
<svg xmlns:xlink="http://www.w3.org/1999/xlink" width="568.0925pt" height="423.99625pt" viewBox="0 0 568.0925 423.99625" xmlns="http://www.w3.org/2000/svg" version="1.1">
 <metadata>
  <rdf:RDF xmlns:dc="http://purl.org/dc/elements/1.1/" xmlns:cc="http://creativecommons.org/ns#" xmlns:rdf="http://www.w3.org/1999/02/22-rdf-syntax-ns#">
   <cc:Work>
    <dc:type rdf:resource="http://purl.org/dc/dcmitype/StillImage"/>
    <dc:date>2026-04-30T15:28:47.343077</dc:date>
    <dc:format>image/svg+xml</dc:format>
    <dc:creator>
     <cc:Agent>
      <dc:title>Matplotlib v3.10.6, https://matplotlib.org/</dc:title>
     </cc:Agent>
    </dc:creator>
   </cc:Work>
  </rdf:RDF>
 </metadata>
 <defs>
  <style type="text/css">*{stroke-linejoin: round; stroke-linecap: butt}</style>
 </defs>
 <g id="figure_1">
  <g id="patch_1">
   <path d="M 0 423.99625 
L 568.0925 423.99625 
L 568.0925 0 
L 0 0 
z
" style="fill: #ffffff"/>
  </g>
  <g id="axes_1">
   <g id="patch_2">
    <path d="M 40.603125 386.44 
L 409.533125 386.44 
L 409.533125 7.2 
L 40.603125 7.2 
z
" style="fill: #ffffff"/>
   </g>
   <g id="matplotlib.axis_1">
    <g id="xtick_1">
     <g id="line2d_1">
      <path d="M 57.37267 386.44 
L 57.37267 7.2 
" clip-path="url(#p8f20bca34a)" style="fill: none; stroke-dasharray: 2.96,1.28; stroke-dashoffset: 0; stroke: #b0b0b0; stroke-opacity: 0.6; stroke-width: 0.8"/>
     </g>
     <g id="line2d_2">
      <defs>
       <path id="mf52b35e8c6" d="M 0 0 
L 0 3.5 
" style="stroke: #000000; stroke-width: 0.8"/>
      </defs>
      <g>
       <use xlink:href="#mf52b35e8c6" x="57.37267" y="386.44" style="stroke: #000000; stroke-width: 0.8"/>
      </g>
     </g>
     <g id="text_1">
      <!-- 0 -->
      <g transform="translate(54.19142 401.038437) scale(0.1 -0.1)">
       <defs>
        <path id="DejaVuSans-30" d="M 2034 4250 
Q 1547 4250 1301 3770 
Q 1056 3291 1056 2328 
Q 1056 1369 1301 889 
Q 1547 409 2034 409 
Q 2525 409 2770 889 
Q 3016 1369 3016 2328 
Q 3016 3291 2770 3770 
Q 2525 4250 2034 4250 
z
M 2034 4750 
Q 2819 4750 3233 4129 
Q 3647 3509 3647 2328 
Q 3647 1150 3233 529 
Q 2819 -91 2034 -91 
Q 1250 -91 836 529 
Q 422 1150 422 2328 
Q 422 3509 836 4129 
Q 1250 4750 2034 4750 
z
" transform="scale(0.015625)"/>
       </defs>
       <use xlink:href="#DejaVuSans-30"/>
      </g>
     </g>
    </g>
    <g id="xtick_2">
     <g id="line2d_3">
      <path d="M 99.296534 386.44 
L 99.296534 7.2 
" clip-path="url(#p8f20bca34a)" style="fill: none; stroke-dasharray: 2.96,1.28; stroke-dashoffset: 0; stroke: #b0b0b0; stroke-opacity: 0.6; stroke-width: 0.8"/>
     </g>
     <g id="line2d_4">
      <g>
       <use xlink:href="#mf52b35e8c6" x="99.296534" y="386.44" style="stroke: #000000; stroke-width: 0.8"/>
      </g>
     </g>
     <g id="text_2">
      <!-- 1000 -->
      <g transform="translate(86.571534 401.038437) scale(0.1 -0.1)">
       <defs>
        <path id="DejaVuSans-31" d="M 794 531 
L 1825 531 
L 1825 4091 
L 703 3866 
L 703 4441 
L 1819 4666 
L 2450 4666 
L 2450 531 
L 3481 531 
L 3481 0 
L 794 0 
L 794 531 
z
" transform="scale(0.015625)"/>
       </defs>
       <use xlink:href="#DejaVuSans-31"/>
       <use xlink:href="#DejaVuSans-30" transform="translate(63.623047 0)"/>
       <use xlink:href="#DejaVuSans-30" transform="translate(127.246094 0)"/>
       <use xlink:href="#DejaVuSans-30" transform="translate(190.869141 0)"/>
      </g>
     </g>
    </g>
    <g id="xtick_3">
     <g id="line2d_5">
      <path d="M 141.220398 386.44 
L 141.220398 7.2 
" clip-path="url(#p8f20bca34a)" style="fill: none; stroke-dasharray: 2.96,1.28; stroke-dashoffset: 0; stroke: #b0b0b0; stroke-opacity: 0.6; stroke-width: 0.8"/>
     </g>
     <g id="line2d_6">
      <g>
       <use xlink:href="#mf52b35e8c6" x="141.220398" y="386.44" style="stroke: #000000; stroke-width: 0.8"/>
      </g>
     </g>
     <g id="text_3">
      <!-- 2000 -->
      <g transform="translate(128.495398 401.038437) scale(0.1 -0.1)">
       <defs>
        <path id="DejaVuSans-32" d="M 1228 531 
L 3431 531 
L 3431 0 
L 469 0 
L 469 531 
Q 828 903 1448 1529 
Q 2069 2156 2228 2338 
Q 2531 2678 2651 2914 
Q 2772 3150 2772 3378 
Q 2772 3750 2511 3984 
Q 2250 4219 1831 4219 
Q 1534 4219 1204 4116 
Q 875 4013 500 3803 
L 500 4441 
Q 881 4594 1212 4672 
Q 1544 4750 1819 4750 
Q 2544 4750 2975 4387 
Q 3406 4025 3406 3419 
Q 3406 3131 3298 2873 
Q 3191 2616 2906 2266 
Q 2828 2175 2409 1742 
Q 1991 1309 1228 531 
z
" transform="scale(0.015625)"/>
       </defs>
       <use xlink:href="#DejaVuSans-32"/>
       <use xlink:href="#DejaVuSans-30" transform="translate(63.623047 0)"/>
       <use xlink:href="#DejaVuSans-30" transform="translate(127.246094 0)"/>
       <use xlink:href="#DejaVuSans-30" transform="translate(190.869141 0)"/>
      </g>
     </g>
    </g>
    <g id="xtick_4">
     <g id="line2d_7">
      <path d="M 183.144261 386.44 
L 183.144261 7.2 
" clip-path="url(#p8f20bca34a)" style="fill: none; stroke-dasharray: 2.96,1.28; stroke-dashoffset: 0; stroke: #b0b0b0; stroke-opacity: 0.6; stroke-width: 0.8"/>
     </g>
     <g id="line2d_8">
      <g>
       <use xlink:href="#mf52b35e8c6" x="183.144261" y="386.44" style="stroke: #000000; stroke-width: 0.8"/>
      </g>
     </g>
     <g id="text_4">
      <!-- 3000 -->
      <g transform="translate(170.419261 401.038437) scale(0.1 -0.1)">
       <defs>
        <path id="DejaVuSans-33" d="M 2597 2516 
Q 3050 2419 3304 2112 
Q 3559 1806 3559 1356 
Q 3559 666 3084 287 
Q 2609 -91 1734 -91 
Q 1441 -91 1130 -33 
Q 819 25 488 141 
L 488 750 
Q 750 597 1062 519 
Q 1375 441 1716 441 
Q 2309 441 2620 675 
Q 2931 909 2931 1356 
Q 2931 1769 2642 2001 
Q 2353 2234 1838 2234 
L 1294 2234 
L 1294 2753 
L 1863 2753 
Q 2328 2753 2575 2939 
Q 2822 3125 2822 3475 
Q 2822 3834 2567 4026 
Q 2313 4219 1838 4219 
Q 1578 4219 1281 4162 
Q 984 4106 628 3988 
L 628 4550 
Q 988 4650 1302 4700 
Q 1616 4750 1894 4750 
Q 2613 4750 3031 4423 
Q 3450 4097 3450 3541 
Q 3450 3153 3228 2886 
Q 3006 2619 2597 2516 
z
" transform="scale(0.015625)"/>
       </defs>
       <use xlink:href="#DejaVuSans-33"/>
       <use xlink:href="#DejaVuSans-30" transform="translate(63.623047 0)"/>
       <use xlink:href="#DejaVuSans-30" transform="translate(127.246094 0)"/>
       <use xlink:href="#DejaVuSans-30" transform="translate(190.869141 0)"/>
      </g>
     </g>
    </g>
    <g id="xtick_5">
     <g id="line2d_9">
      <path d="M 225.068125 386.44 
L 225.068125 7.2 
" clip-path="url(#p8f20bca34a)" style="fill: none; stroke-dasharray: 2.96,1.28; stroke-dashoffset: 0; stroke: #b0b0b0; stroke-opacity: 0.6; stroke-width: 0.8"/>
     </g>
     <g id="line2d_10">
      <g>
       <use xlink:href="#mf52b35e8c6" x="225.068125" y="386.44" style="stroke: #000000; stroke-width: 0.8"/>
      </g>
     </g>
     <g id="text_5">
      <!-- 4000 -->
      <g transform="translate(212.343125 401.038437) scale(0.1 -0.1)">
       <defs>
        <path id="DejaVuSans-34" d="M 2419 4116 
L 825 1625 
L 2419 1625 
L 2419 4116 
z
M 2253 4666 
L 3047 4666 
L 3047 1625 
L 3713 1625 
L 3713 1100 
L 3047 1100 
L 3047 0 
L 2419 0 
L 2419 1100 
L 313 1100 
L 313 1709 
L 2253 4666 
z
" transform="scale(0.015625)"/>
       </defs>
       <use xlink:href="#DejaVuSans-34"/>
       <use xlink:href="#DejaVuSans-30" transform="translate(63.623047 0)"/>
       <use xlink:href="#DejaVuSans-30" transform="translate(127.246094 0)"/>
       <use xlink:href="#DejaVuSans-30" transform="translate(190.869141 0)"/>
      </g>
     </g>
    </g>
    <g id="xtick_6">
     <g id="line2d_11">
      <path d="M 266.991989 386.44 
L 266.991989 7.2 
" clip-path="url(#p8f20bca34a)" style="fill: none; stroke-dasharray: 2.96,1.28; stroke-dashoffset: 0; stroke: #b0b0b0; stroke-opacity: 0.6; stroke-width: 0.8"/>
     </g>
     <g id="line2d_12">
      <g>
       <use xlink:href="#mf52b35e8c6" x="266.991989" y="386.44" style="stroke: #000000; stroke-width: 0.8"/>
      </g>
     </g>
     <g id="text_6">
      <!-- 5000 -->
      <g transform="translate(254.266989 401.038437) scale(0.1 -0.1)">
       <defs>
        <path id="DejaVuSans-35" d="M 691 4666 
L 3169 4666 
L 3169 4134 
L 1269 4134 
L 1269 2991 
Q 1406 3038 1543 3061 
Q 1681 3084 1819 3084 
Q 2600 3084 3056 2656 
Q 3513 2228 3513 1497 
Q 3513 744 3044 326 
Q 2575 -91 1722 -91 
Q 1428 -91 1123 -41 
Q 819 9 494 109 
L 494 744 
Q 775 591 1075 516 
Q 1375 441 1709 441 
Q 2250 441 2565 725 
Q 2881 1009 2881 1497 
Q 2881 1984 2565 2268 
Q 2250 2553 1709 2553 
Q 1456 2553 1204 2497 
Q 953 2441 691 2322 
L 691 4666 
z
" transform="scale(0.015625)"/>
       </defs>
       <use xlink:href="#DejaVuSans-35"/>
       <use xlink:href="#DejaVuSans-30" transform="translate(63.623047 0)"/>
       <use xlink:href="#DejaVuSans-30" transform="translate(127.246094 0)"/>
       <use xlink:href="#DejaVuSans-30" transform="translate(190.869141 0)"/>
      </g>
     </g>
    </g>
    <g id="xtick_7">
     <g id="line2d_13">
      <path d="M 308.915852 386.44 
L 308.915852 7.2 
" clip-path="url(#p8f20bca34a)" style="fill: none; stroke-dasharray: 2.96,1.28; stroke-dashoffset: 0; stroke: #b0b0b0; stroke-opacity: 0.6; stroke-width: 0.8"/>
     </g>
     <g id="line2d_14">
      <g>
       <use xlink:href="#mf52b35e8c6" x="308.915852" y="386.44" style="stroke: #000000; stroke-width: 0.8"/>
      </g>
     </g>
     <g id="text_7">
      <!-- 6000 -->
      <g transform="translate(296.190852 401.038437) scale(0.1 -0.1)">
       <defs>
        <path id="DejaVuSans-36" d="M 2113 2584 
Q 1688 2584 1439 2293 
Q 1191 2003 1191 1497 
Q 1191 994 1439 701 
Q 1688 409 2113 409 
Q 2538 409 2786 701 
Q 3034 994 3034 1497 
Q 3034 2003 2786 2293 
Q 2538 2584 2113 2584 
z
M 3366 4563 
L 3366 3988 
Q 3128 4100 2886 4159 
Q 2644 4219 2406 4219 
Q 1781 4219 1451 3797 
Q 1122 3375 1075 2522 
Q 1259 2794 1537 2939 
Q 1816 3084 2150 3084 
Q 2853 3084 3261 2657 
Q 3669 2231 3669 1497 
Q 3669 778 3244 343 
Q 2819 -91 2113 -91 
Q 1303 -91 875 529 
Q 447 1150 447 2328 
Q 447 3434 972 4092 
Q 1497 4750 2381 4750 
Q 2619 4750 2861 4703 
Q 3103 4656 3366 4563 
z
" transform="scale(0.015625)"/>
       </defs>
       <use xlink:href="#DejaVuSans-36"/>
       <use xlink:href="#DejaVuSans-30" transform="translate(63.623047 0)"/>
       <use xlink:href="#DejaVuSans-30" transform="translate(127.246094 0)"/>
       <use xlink:href="#DejaVuSans-30" transform="translate(190.869141 0)"/>
      </g>
     </g>
    </g>
    <g id="xtick_8">
     <g id="line2d_15">
      <path d="M 350.839716 386.44 
L 350.839716 7.2 
" clip-path="url(#p8f20bca34a)" style="fill: none; stroke-dasharray: 2.96,1.28; stroke-dashoffset: 0; stroke: #b0b0b0; stroke-opacity: 0.6; stroke-width: 0.8"/>
     </g>
     <g id="line2d_16">
      <g>
       <use xlink:href="#mf52b35e8c6" x="350.839716" y="386.44" style="stroke: #000000; stroke-width: 0.8"/>
      </g>
     </g>
     <g id="text_8">
      <!-- 7000 -->
      <g transform="translate(338.114716 401.038437) scale(0.1 -0.1)">
       <defs>
        <path id="DejaVuSans-37" d="M 525 4666 
L 3525 4666 
L 3525 4397 
L 1831 0 
L 1172 0 
L 2766 4134 
L 525 4134 
L 525 4666 
z
" transform="scale(0.015625)"/>
       </defs>
       <use xlink:href="#DejaVuSans-37"/>
       <use xlink:href="#DejaVuSans-30" transform="translate(63.623047 0)"/>
       <use xlink:href="#DejaVuSans-30" transform="translate(127.246094 0)"/>
       <use xlink:href="#DejaVuSans-30" transform="translate(190.869141 0)"/>
      </g>
     </g>
    </g>
    <g id="xtick_9">
     <g id="line2d_17">
      <path d="M 392.76358 386.44 
L 392.76358 7.2 
" clip-path="url(#p8f20bca34a)" style="fill: none; stroke-dasharray: 2.96,1.28; stroke-dashoffset: 0; stroke: #b0b0b0; stroke-opacity: 0.6; stroke-width: 0.8"/>
     </g>
     <g id="line2d_18">
      <g>
       <use xlink:href="#mf52b35e8c6" x="392.76358" y="386.44" style="stroke: #000000; stroke-width: 0.8"/>
      </g>
     </g>
     <g id="text_9">
      <!-- 8000 -->
      <g transform="translate(380.03858 401.038437) scale(0.1 -0.1)">
       <defs>
        <path id="DejaVuSans-38" d="M 2034 2216 
Q 1584 2216 1326 1975 
Q 1069 1734 1069 1313 
Q 1069 891 1326 650 
Q 1584 409 2034 409 
Q 2484 409 2743 651 
Q 3003 894 3003 1313 
Q 3003 1734 2745 1975 
Q 2488 2216 2034 2216 
z
M 1403 2484 
Q 997 2584 770 2862 
Q 544 3141 544 3541 
Q 544 4100 942 4425 
Q 1341 4750 2034 4750 
Q 2731 4750 3128 4425 
Q 3525 4100 3525 3541 
Q 3525 3141 3298 2862 
Q 3072 2584 2669 2484 
Q 3125 2378 3379 2068 
Q 3634 1759 3634 1313 
Q 3634 634 3220 271 
Q 2806 -91 2034 -91 
Q 1263 -91 848 271 
Q 434 634 434 1313 
Q 434 1759 690 2068 
Q 947 2378 1403 2484 
z
M 1172 3481 
Q 1172 3119 1398 2916 
Q 1625 2713 2034 2713 
Q 2441 2713 2670 2916 
Q 2900 3119 2900 3481 
Q 2900 3844 2670 4047 
Q 2441 4250 2034 4250 
Q 1625 4250 1398 4047 
Q 1172 3844 1172 3481 
z
" transform="scale(0.015625)"/>
       </defs>
       <use xlink:href="#DejaVuSans-38"/>
       <use xlink:href="#DejaVuSans-30" transform="translate(63.623047 0)"/>
       <use xlink:href="#DejaVuSans-30" transform="translate(127.246094 0)"/>
       <use xlink:href="#DejaVuSans-30" transform="translate(190.869141 0)"/>
      </g>
     </g>
    </g>
    <g id="text_10">
     <!-- Distance from terminus [nt] -->
     <g transform="translate(155.568906 414.716562) scale(0.1 -0.1)">
      <defs>
       <path id="DejaVuSans-44" d="M 1259 4147 
L 1259 519 
L 2022 519 
Q 2988 519 3436 956 
Q 3884 1394 3884 2338 
Q 3884 3275 3436 3711 
Q 2988 4147 2022 4147 
L 1259 4147 
z
M 628 4666 
L 1925 4666 
Q 3281 4666 3915 4102 
Q 4550 3538 4550 2338 
Q 4550 1131 3912 565 
Q 3275 0 1925 0 
L 628 0 
L 628 4666 
z
" transform="scale(0.015625)"/>
       <path id="DejaVuSans-69" d="M 603 3500 
L 1178 3500 
L 1178 0 
L 603 0 
L 603 3500 
z
M 603 4863 
L 1178 4863 
L 1178 4134 
L 603 4134 
L 603 4863 
z
" transform="scale(0.015625)"/>
       <path id="DejaVuSans-73" d="M 2834 3397 
L 2834 2853 
Q 2591 2978 2328 3040 
Q 2066 3103 1784 3103 
Q 1356 3103 1142 2972 
Q 928 2841 928 2578 
Q 928 2378 1081 2264 
Q 1234 2150 1697 2047 
L 1894 2003 
Q 2506 1872 2764 1633 
Q 3022 1394 3022 966 
Q 3022 478 2636 193 
Q 2250 -91 1575 -91 
Q 1294 -91 989 -36 
Q 684 19 347 128 
L 347 722 
Q 666 556 975 473 
Q 1284 391 1588 391 
Q 1994 391 2212 530 
Q 2431 669 2431 922 
Q 2431 1156 2273 1281 
Q 2116 1406 1581 1522 
L 1381 1569 
Q 847 1681 609 1914 
Q 372 2147 372 2553 
Q 372 3047 722 3315 
Q 1072 3584 1716 3584 
Q 2034 3584 2315 3537 
Q 2597 3491 2834 3397 
z
" transform="scale(0.015625)"/>
       <path id="DejaVuSans-74" d="M 1172 4494 
L 1172 3500 
L 2356 3500 
L 2356 3053 
L 1172 3053 
L 1172 1153 
Q 1172 725 1289 603 
Q 1406 481 1766 481 
L 2356 481 
L 2356 0 
L 1766 0 
Q 1100 0 847 248 
Q 594 497 594 1153 
L 594 3053 
L 172 3053 
L 172 3500 
L 594 3500 
L 594 4494 
L 1172 4494 
z
" transform="scale(0.015625)"/>
       <path id="DejaVuSans-61" d="M 2194 1759 
Q 1497 1759 1228 1600 
Q 959 1441 959 1056 
Q 959 750 1161 570 
Q 1363 391 1709 391 
Q 2188 391 2477 730 
Q 2766 1069 2766 1631 
L 2766 1759 
L 2194 1759 
z
M 3341 1997 
L 3341 0 
L 2766 0 
L 2766 531 
Q 2569 213 2275 61 
Q 1981 -91 1556 -91 
Q 1019 -91 701 211 
Q 384 513 384 1019 
Q 384 1609 779 1909 
Q 1175 2209 1959 2209 
L 2766 2209 
L 2766 2266 
Q 2766 2663 2505 2880 
Q 2244 3097 1772 3097 
Q 1472 3097 1187 3025 
Q 903 2953 641 2809 
L 641 3341 
Q 956 3463 1253 3523 
Q 1550 3584 1831 3584 
Q 2591 3584 2966 3190 
Q 3341 2797 3341 1997 
z
" transform="scale(0.015625)"/>
       <path id="DejaVuSans-6e" d="M 3513 2113 
L 3513 0 
L 2938 0 
L 2938 2094 
Q 2938 2591 2744 2837 
Q 2550 3084 2163 3084 
Q 1697 3084 1428 2787 
Q 1159 2491 1159 1978 
L 1159 0 
L 581 0 
L 581 3500 
L 1159 3500 
L 1159 2956 
Q 1366 3272 1645 3428 
Q 1925 3584 2291 3584 
Q 2894 3584 3203 3211 
Q 3513 2838 3513 2113 
z
" transform="scale(0.015625)"/>
       <path id="DejaVuSans-63" d="M 3122 3366 
L 3122 2828 
Q 2878 2963 2633 3030 
Q 2388 3097 2138 3097 
Q 1578 3097 1268 2742 
Q 959 2388 959 1747 
Q 959 1106 1268 751 
Q 1578 397 2138 397 
Q 2388 397 2633 464 
Q 2878 531 3122 666 
L 3122 134 
Q 2881 22 2623 -34 
Q 2366 -91 2075 -91 
Q 1284 -91 818 406 
Q 353 903 353 1747 
Q 353 2603 823 3093 
Q 1294 3584 2113 3584 
Q 2378 3584 2631 3529 
Q 2884 3475 3122 3366 
z
" transform="scale(0.015625)"/>
       <path id="DejaVuSans-65" d="M 3597 1894 
L 3597 1613 
L 953 1613 
Q 991 1019 1311 708 
Q 1631 397 2203 397 
Q 2534 397 2845 478 
Q 3156 559 3463 722 
L 3463 178 
Q 3153 47 2828 -22 
Q 2503 -91 2169 -91 
Q 1331 -91 842 396 
Q 353 884 353 1716 
Q 353 2575 817 3079 
Q 1281 3584 2069 3584 
Q 2775 3584 3186 3129 
Q 3597 2675 3597 1894 
z
M 3022 2063 
Q 3016 2534 2758 2815 
Q 2500 3097 2075 3097 
Q 1594 3097 1305 2825 
Q 1016 2553 972 2059 
L 3022 2063 
z
" transform="scale(0.015625)"/>
       <path id="DejaVuSans-20" transform="scale(0.015625)"/>
       <path id="DejaVuSans-66" d="M 2375 4863 
L 2375 4384 
L 1825 4384 
Q 1516 4384 1395 4259 
Q 1275 4134 1275 3809 
L 1275 3500 
L 2222 3500 
L 2222 3053 
L 1275 3053 
L 1275 0 
L 697 0 
L 697 3053 
L 147 3053 
L 147 3500 
L 697 3500 
L 697 3744 
Q 697 4328 969 4595 
Q 1241 4863 1831 4863 
L 2375 4863 
z
" transform="scale(0.015625)"/>
       <path id="DejaVuSans-72" d="M 2631 2963 
Q 2534 3019 2420 3045 
Q 2306 3072 2169 3072 
Q 1681 3072 1420 2755 
Q 1159 2438 1159 1844 
L 1159 0 
L 581 0 
L 581 3500 
L 1159 3500 
L 1159 2956 
Q 1341 3275 1631 3429 
Q 1922 3584 2338 3584 
Q 2397 3584 2469 3576 
Q 2541 3569 2628 3553 
L 2631 2963 
z
" transform="scale(0.015625)"/>
       <path id="DejaVuSans-6f" d="M 1959 3097 
Q 1497 3097 1228 2736 
Q 959 2375 959 1747 
Q 959 1119 1226 758 
Q 1494 397 1959 397 
Q 2419 397 2687 759 
Q 2956 1122 2956 1747 
Q 2956 2369 2687 2733 
Q 2419 3097 1959 3097 
z
M 1959 3584 
Q 2709 3584 3137 3096 
Q 3566 2609 3566 1747 
Q 3566 888 3137 398 
Q 2709 -91 1959 -91 
Q 1206 -91 779 398 
Q 353 888 353 1747 
Q 353 2609 779 3096 
Q 1206 3584 1959 3584 
z
" transform="scale(0.015625)"/>
       <path id="DejaVuSans-6d" d="M 3328 2828 
Q 3544 3216 3844 3400 
Q 4144 3584 4550 3584 
Q 5097 3584 5394 3201 
Q 5691 2819 5691 2113 
L 5691 0 
L 5113 0 
L 5113 2094 
Q 5113 2597 4934 2840 
Q 4756 3084 4391 3084 
Q 3944 3084 3684 2787 
Q 3425 2491 3425 1978 
L 3425 0 
L 2847 0 
L 2847 2094 
Q 2847 2600 2669 2842 
Q 2491 3084 2119 3084 
Q 1678 3084 1418 2786 
Q 1159 2488 1159 1978 
L 1159 0 
L 581 0 
L 581 3500 
L 1159 3500 
L 1159 2956 
Q 1356 3278 1631 3431 
Q 1906 3584 2284 3584 
Q 2666 3584 2933 3390 
Q 3200 3197 3328 2828 
z
" transform="scale(0.015625)"/>
       <path id="DejaVuSans-75" d="M 544 1381 
L 544 3500 
L 1119 3500 
L 1119 1403 
Q 1119 906 1312 657 
Q 1506 409 1894 409 
Q 2359 409 2629 706 
Q 2900 1003 2900 1516 
L 2900 3500 
L 3475 3500 
L 3475 0 
L 2900 0 
L 2900 538 
Q 2691 219 2414 64 
Q 2138 -91 1772 -91 
Q 1169 -91 856 284 
Q 544 659 544 1381 
z
M 1991 3584 
L 1991 3584 
z
" transform="scale(0.015625)"/>
       <path id="DejaVuSans-5b" d="M 550 4863 
L 1875 4863 
L 1875 4416 
L 1125 4416 
L 1125 -397 
L 1875 -397 
L 1875 -844 
L 550 -844 
L 550 4863 
z
" transform="scale(0.015625)"/>
       <path id="DejaVuSans-5d" d="M 1947 4863 
L 1947 -844 
L 622 -844 
L 622 -397 
L 1369 -397 
L 1369 4416 
L 622 4416 
L 622 4863 
L 1947 4863 
z
" transform="scale(0.015625)"/>
      </defs>
      <use xlink:href="#DejaVuSans-44"/>
      <use xlink:href="#DejaVuSans-69" transform="translate(77.001953 0)"/>
      <use xlink:href="#DejaVuSans-73" transform="translate(104.785156 0)"/>
      <use xlink:href="#DejaVuSans-74" transform="translate(156.884766 0)"/>
      <use xlink:href="#DejaVuSans-61" transform="translate(196.09375 0)"/>
      <use xlink:href="#DejaVuSans-6e" transform="translate(257.373047 0)"/>
      <use xlink:href="#DejaVuSans-63" transform="translate(320.751953 0)"/>
      <use xlink:href="#DejaVuSans-65" transform="translate(375.732422 0)"/>
      <use xlink:href="#DejaVuSans-20" transform="translate(437.255859 0)"/>
      <use xlink:href="#DejaVuSans-66" transform="translate(469.042969 0)"/>
      <use xlink:href="#DejaVuSans-72" transform="translate(504.248047 0)"/>
      <use xlink:href="#DejaVuSans-6f" transform="translate(543.111328 0)"/>
      <use xlink:href="#DejaVuSans-6d" transform="translate(604.292969 0)"/>
      <use xlink:href="#DejaVuSans-20" transform="translate(701.705078 0)"/>
      <use xlink:href="#DejaVuSans-74" transform="translate(733.492188 0)"/>
      <use xlink:href="#DejaVuSans-65" transform="translate(772.701172 0)"/>
      <use xlink:href="#DejaVuSans-72" transform="translate(834.224609 0)"/>
      <use xlink:href="#DejaVuSans-6d" transform="translate(873.587891 0)"/>
      <use xlink:href="#DejaVuSans-69" transform="translate(971 0)"/>
      <use xlink:href="#DejaVuSans-6e" transform="translate(998.783203 0)"/>
      <use xlink:href="#DejaVuSans-75" transform="translate(1062.162109 0)"/>
      <use xlink:href="#DejaVuSans-73" transform="translate(1125.541016 0)"/>
      <use xlink:href="#DejaVuSans-20" transform="translate(1177.640625 0)"/>
      <use xlink:href="#DejaVuSans-5b" transform="translate(1209.427734 0)"/>
      <use xlink:href="#DejaVuSans-6e" transform="translate(1248.441406 0)"/>
      <use xlink:href="#DejaVuSans-74" transform="translate(1311.820312 0)"/>
      <use xlink:href="#DejaVuSans-5d" transform="translate(1351.029297 0)"/>
     </g>
    </g>
   </g>
   <g id="matplotlib.axis_2">
    <g id="ytick_1">
     <g id="line2d_19">
      <path d="M 40.603125 369.201818 
L 409.533125 369.201818 
" clip-path="url(#p8f20bca34a)" style="fill: none; stroke-dasharray: 2.96,1.28; stroke-dashoffset: 0; stroke: #b0b0b0; stroke-opacity: 0.6; stroke-width: 0.8"/>
     </g>
     <g id="line2d_20">
      <defs>
       <path id="m598f137c0d" d="M 0 0 
L -3.5 0 
" style="stroke: #000000; stroke-width: 0.8"/>
      </defs>
      <g>
       <use xlink:href="#m598f137c0d" x="40.603125" y="369.201818" style="stroke: #000000; stroke-width: 0.8"/>
      </g>
     </g>
     <g id="text_11">
      <!-- 0 -->
      <g transform="translate(27.240625 373.001037) scale(0.1 -0.1)">
       <use xlink:href="#DejaVuSans-30"/>
      </g>
     </g>
    </g>
    <g id="ytick_2">
     <g id="line2d_21">
      <path d="M 40.603125 286.919327 
L 409.533125 286.919327 
" clip-path="url(#p8f20bca34a)" style="fill: none; stroke-dasharray: 2.96,1.28; stroke-dashoffset: 0; stroke: #b0b0b0; stroke-opacity: 0.6; stroke-width: 0.8"/>
     </g>
     <g id="line2d_22">
      <g>
       <use xlink:href="#m598f137c0d" x="40.603125" y="286.919327" style="stroke: #000000; stroke-width: 0.8"/>
      </g>
     </g>
     <g id="text_12">
      <!-- 20 -->
      <g transform="translate(20.878125 290.718546) scale(0.1 -0.1)">
       <use xlink:href="#DejaVuSans-32"/>
       <use xlink:href="#DejaVuSans-30" transform="translate(63.623047 0)"/>
      </g>
     </g>
    </g>
    <g id="ytick_3">
     <g id="line2d_23">
      <path d="M 40.603125 204.636837 
L 409.533125 204.636837 
" clip-path="url(#p8f20bca34a)" style="fill: none; stroke-dasharray: 2.96,1.28; stroke-dashoffset: 0; stroke: #b0b0b0; stroke-opacity: 0.6; stroke-width: 0.8"/>
     </g>
     <g id="line2d_24">
      <g>
       <use xlink:href="#m598f137c0d" x="40.603125" y="204.636837" style="stroke: #000000; stroke-width: 0.8"/>
      </g>
     </g>
     <g id="text_13">
      <!-- 40 -->
      <g transform="translate(20.878125 208.436055) scale(0.1 -0.1)">
       <use xlink:href="#DejaVuSans-34"/>
       <use xlink:href="#DejaVuSans-30" transform="translate(63.623047 0)"/>
      </g>
     </g>
    </g>
    <g id="ytick_4">
     <g id="line2d_25">
      <path d="M 40.603125 122.354346 
L 409.533125 122.354346 
" clip-path="url(#p8f20bca34a)" style="fill: none; stroke-dasharray: 2.96,1.28; stroke-dashoffset: 0; stroke: #b0b0b0; stroke-opacity: 0.6; stroke-width: 0.8"/>
     </g>
     <g id="line2d_26">
      <g>
       <use xlink:href="#m598f137c0d" x="40.603125" y="122.354346" style="stroke: #000000; stroke-width: 0.8"/>
      </g>
     </g>
     <g id="text_14">
      <!-- 60 -->
      <g transform="translate(20.878125 126.153565) scale(0.1 -0.1)">
       <use xlink:href="#DejaVuSans-36"/>
       <use xlink:href="#DejaVuSans-30" transform="translate(63.623047 0)"/>
      </g>
     </g>
    </g>
    <g id="ytick_5">
     <g id="line2d_27">
      <path d="M 40.603125 40.071855 
L 409.533125 40.071855 
" clip-path="url(#p8f20bca34a)" style="fill: none; stroke-dasharray: 2.96,1.28; stroke-dashoffset: 0; stroke: #b0b0b0; stroke-opacity: 0.6; stroke-width: 0.8"/>
     </g>
     <g id="line2d_28">
      <g>
       <use xlink:href="#m598f137c0d" x="40.603125" y="40.071855" style="stroke: #000000; stroke-width: 0.8"/>
      </g>
     </g>
     <g id="text_15">
      <!-- 80 -->
      <g transform="translate(20.878125 43.871074) scale(0.1 -0.1)">
       <use xlink:href="#DejaVuSans-38"/>
       <use xlink:href="#DejaVuSans-30" transform="translate(63.623047 0)"/>
      </g>
     </g>
    </g>
    <g id="text_16">
     <!-- Average cumulative count -->
     <g transform="translate(14.798438 262.4325) rotate(-90) scale(0.1 -0.1)">
      <defs>
       <path id="DejaVuSans-41" d="M 2188 4044 
L 1331 1722 
L 3047 1722 
L 2188 4044 
z
M 1831 4666 
L 2547 4666 
L 4325 0 
L 3669 0 
L 3244 1197 
L 1141 1197 
L 716 0 
L 50 0 
L 1831 4666 
z
" transform="scale(0.015625)"/>
       <path id="DejaVuSans-76" d="M 191 3500 
L 800 3500 
L 1894 563 
L 2988 3500 
L 3597 3500 
L 2284 0 
L 1503 0 
L 191 3500 
z
" transform="scale(0.015625)"/>
       <path id="DejaVuSans-67" d="M 2906 1791 
Q 2906 2416 2648 2759 
Q 2391 3103 1925 3103 
Q 1463 3103 1205 2759 
Q 947 2416 947 1791 
Q 947 1169 1205 825 
Q 1463 481 1925 481 
Q 2391 481 2648 825 
Q 2906 1169 2906 1791 
z
M 3481 434 
Q 3481 -459 3084 -895 
Q 2688 -1331 1869 -1331 
Q 1566 -1331 1297 -1286 
Q 1028 -1241 775 -1147 
L 775 -588 
Q 1028 -725 1275 -790 
Q 1522 -856 1778 -856 
Q 2344 -856 2625 -561 
Q 2906 -266 2906 331 
L 2906 616 
Q 2728 306 2450 153 
Q 2172 0 1784 0 
Q 1141 0 747 490 
Q 353 981 353 1791 
Q 353 2603 747 3093 
Q 1141 3584 1784 3584 
Q 2172 3584 2450 3431 
Q 2728 3278 2906 2969 
L 2906 3500 
L 3481 3500 
L 3481 434 
z
" transform="scale(0.015625)"/>
       <path id="DejaVuSans-6c" d="M 603 4863 
L 1178 4863 
L 1178 0 
L 603 0 
L 603 4863 
z
" transform="scale(0.015625)"/>
      </defs>
      <use xlink:href="#DejaVuSans-41"/>
      <use xlink:href="#DejaVuSans-76" transform="translate(62.533203 0)"/>
      <use xlink:href="#DejaVuSans-65" transform="translate(121.712891 0)"/>
      <use xlink:href="#DejaVuSans-72" transform="translate(183.236328 0)"/>
      <use xlink:href="#DejaVuSans-61" transform="translate(224.349609 0)"/>
      <use xlink:href="#DejaVuSans-67" transform="translate(285.628906 0)"/>
      <use xlink:href="#DejaVuSans-65" transform="translate(349.105469 0)"/>
      <use xlink:href="#DejaVuSans-20" transform="translate(410.628906 0)"/>
      <use xlink:href="#DejaVuSans-63" transform="translate(442.416016 0)"/>
      <use xlink:href="#DejaVuSans-75" transform="translate(497.396484 0)"/>
      <use xlink:href="#DejaVuSans-6d" transform="translate(560.775391 0)"/>
      <use xlink:href="#DejaVuSans-75" transform="translate(658.1875 0)"/>
      <use xlink:href="#DejaVuSans-6c" transform="translate(721.566406 0)"/>
      <use xlink:href="#DejaVuSans-61" transform="translate(749.349609 0)"/>
      <use xlink:href="#DejaVuSans-74" transform="translate(810.628906 0)"/>
      <use xlink:href="#DejaVuSans-69" transform="translate(849.837891 0)"/>
      <use xlink:href="#DejaVuSans-76" transform="translate(877.621094 0)"/>
      <use xlink:href="#DejaVuSans-65" transform="translate(936.800781 0)"/>
      <use xlink:href="#DejaVuSans-20" transform="translate(998.324219 0)"/>
      <use xlink:href="#DejaVuSans-63" transform="translate(1030.111328 0)"/>
      <use xlink:href="#DejaVuSans-6f" transform="translate(1085.091797 0)"/>
      <use xlink:href="#DejaVuSans-75" transform="translate(1146.273438 0)"/>
      <use xlink:href="#DejaVuSans-6e" transform="translate(1209.652344 0)"/>
      <use xlink:href="#DejaVuSans-74" transform="translate(1273.03125 0)"/>
     </g>
    </g>
   </g>
   <g id="line2d_29">
    <path d="M 57.37267 368.418175 
L 57.498442 368.32022 
L 57.58229 367.046801 
L 57.875757 364.597917 
L 57.917681 364.597917 
L 58.085376 362.63881 
L 59.133473 353.724873 
L 59.21732 353.137141 
L 59.468864 350.00257 
L 59.594635 349.610749 
L 63.367783 315.326378 
L 63.535478 313.465226 
L 63.745098 311.995896 
L 63.828945 311.212253 
L 64.122413 308.175638 
L 64.20626 307.881771 
L 64.541651 304.257424 
L 64.625499 303.963558 
L 64.96089 300.33921 
L 65.044738 300.045344 
L 65.380128 296.420996 
L 65.463976 296.12713 
L 65.841291 292.208916 
L 65.967063 291.131407 
L 68.356723 269.777142 
L 68.524418 268.601678 
L 68.817885 265.956883 
L 71.79448 239.117118 
L 72.297566 234.905039 
L 72.507185 232.750021 
L 72.716805 231.280691 
L 72.926424 228.929762 
L 73.010272 228.635896 
L 73.471434 224.423817 
L 73.722977 221.876978 
L 76.280333 198.759516 
L 76.322257 198.661561 
L 77.915364 184.653946 
L 78.083059 183.380527 
L 78.921536 176.719563 
L 79.215003 174.270679 
L 79.256927 174.172724 
L 80.011557 168.001537 
L 80.179252 166.826073 
L 80.514643 164.181279 
L 81.01773 159.871243 
L 81.269273 157.61827 
L 81.395044 156.932583 
L 81.688511 153.895967 
L 81.814283 153.21028 
L 82.10775 150.173664 
L 82.275445 148.9982 
L 82.568913 146.549316 
L 82.65276 146.25545 
L 82.946227 143.414745 
L 83.113923 142.239281 
L 83.40739 139.888353 
L 83.491238 139.594487 
L 83.742781 137.145603 
L 84.120095 133.815121 
L 84.162019 133.717166 
L 84.623182 130.288729 
L 84.790877 129.015309 
L 85.000497 127.154158 
L 85.503583 123.333899 
L 85.587431 123.040033 
L 85.79705 120.78706 
L 86.090517 119.023864 
L 86.34206 117.456579 
L 86.425908 117.260668 
L 86.677451 115.10565 
L 90.115208 91.792278 
L 90.157132 91.792278 
L 90.534447 89.049528 
L 90.618294 88.657707 
L 90.953685 86.404734 
L 90.995609 86.404734 
L 91.289076 84.445627 
L 91.456772 83.857895 
L 91.87601 81.604922 
L 91.917934 81.506966 
L 92.127553 80.331502 
L 92.253325 79.841726 
L 94.684909 68.087084 
L 94.894528 67.009575 
L 94.936452 67.009575 
L 96.990722 57.801773 
L 97.074569 57.801773 
L 97.284189 56.724264 
L 97.326113 56.626309 
L 97.451884 56.136532 
L 97.493808 56.136532 
L 97.829199 54.569246 
L 97.913047 54.471291 
L 98.499981 52.120363 
L 98.583828 52.022407 
L 98.7096 51.630586 
L 98.877295 51.140809 
L 99.044991 50.357166 
L 99.128839 50.357166 
L 99.506153 48.985792 
L 99.548077 48.985792 
L 99.925392 47.614417 
L 100.00924 47.516461 
L 100.135011 47.026685 
L 100.302707 46.340997 
L 100.596174 45.361444 
L 100.680022 45.361444 
L 101.015413 44.18598 
L 101.09926 44.088024 
L 101.434651 42.91256 
L 101.518499 42.814605 
L 101.85389 41.639141 
L 101.937738 41.541185 
L 102.985834 39.288212 
L 103.15353 39.190257 
L 103.530844 38.50457 
L 103.656616 38.406614 
L 103.950083 37.916837 
L 104.075855 37.818882 
L 104.369322 37.329105 
L 104.578941 37.23115 
L 104.704713 36.937284 
L 104.830484 36.839329 
L 105.207799 36.153641 
L 105.417418 36.055686 
L 105.585114 35.859775 
L 105.710885 35.76182 
L 105.962428 35.369998 
L 106.0882 35.272043 
L 106.297819 34.978177 
L 106.507439 34.880222 
L 106.758982 34.4884 
L 106.968601 34.390445 
L 107.094373 34.29249 
L 107.262068 34.194534 
L 107.429764 33.998624 
L 107.597459 33.900668 
L 107.849002 33.508847 
L 108.016698 33.410892 
L 108.184393 33.214981 
L 108.352089 33.117025 
L 108.47786 33.01907 
L 108.771327 32.921115 
L 108.980947 32.627249 
L 109.442109 32.529293 
L 109.567881 32.431338 
L 109.861348 32.333383 
L 109.987119 32.235427 
L 110.280586 32.137472 
L 110.448282 31.941561 
L 110.699825 31.843606 
L 110.825597 31.745651 
L 111.119064 31.647695 
L 111.244835 31.54974 
L 111.538302 31.451785 
L 111.664074 31.255874 
L 111.957541 31.157919 
L 112.083313 30.962008 
L 112.37678 30.864053 
L 112.502551 30.766097 
L 112.796018 30.668142 
L 112.92179 30.472231 
L 113.215257 30.374276 
L 113.341028 30.178365 
L 113.634495 30.178365 
L 113.760267 29.982454 
L 114.053734 29.884499 
L 114.179506 29.786544 
L 114.472973 29.688588 
L 114.598744 29.590633 
L 115.688765 29.492678 
L 115.814536 29.394722 
L 119.252293 29.296767 
L 119.378065 29.198812 
L 392.721656 29.198812 
L 392.721656 29.198812 
" clip-path="url(#p8f20bca34a)" style="fill: none; stroke: #add8e6; stroke-width: 2; stroke-linecap: square"/>
   </g>
   <g id="line2d_30">
    <path d="M 57.37267 369.201818 
L 61.606981 369.103863 
L 61.732752 369.005907 
L 63.535478 368.907952 
L 63.66125 368.809997 
L 64.373956 368.712041 
L 64.499727 368.614086 
L 68.398647 368.516131 
L 68.524418 368.418175 
L 69.237124 368.32022 
L 69.404819 368.124309 
L 69.782134 368.026354 
L 69.907906 367.928399 
L 70.578688 367.830443 
L 70.704459 367.634533 
L 70.997926 367.536577 
L 71.123698 367.438622 
L 71.962175 367.340667 
L 72.087947 367.242711 
L 73.094119 367.144756 
L 73.219891 366.948845 
L 74.058368 366.85089 
L 74.18414 366.752935 
L 75.190313 366.654979 
L 75.316084 366.557024 
L 77.244582 366.459068 
L 77.370353 366.361113 
L 77.66382 366.263158 
L 77.789592 366.165202 
L 78.083059 366.067247 
L 78.208831 365.969292 
L 78.376526 365.871336 
L 78.586145 365.57747 
L 79.298851 365.479515 
L 79.50847 365.185649 
L 79.71809 365.087694 
L 79.927709 364.793828 
L 80.305024 364.695872 
L 80.430795 364.597917 
L 81.143501 364.499962 
L 81.269273 364.402006 
L 82.65276 364.304051 
L 82.778532 364.10814 
L 83.071999 364.10814 
L 83.19777 363.912229 
L 83.491238 363.912229 
L 83.658933 363.618363 
L 83.910476 363.520408 
L 84.036248 363.422453 
L 84.329715 363.324497 
L 84.49741 362.932676 
L 84.623182 362.834721 
L 85.210116 362.736765 
L 85.335888 362.63881 
L 85.461659 362.63881 
L 85.587431 362.442899 
L 85.838974 362.344944 
L 86.048593 362.051078 
L 86.174365 361.953123 
L 86.425908 361.561301 
L 86.467832 361.561301 
L 86.635527 361.267435 
L 86.88707 361.16948 
L 87.012842 361.071524 
L 87.222461 360.973569 
L 87.390157 360.777658 
L 87.6417 360.679703 
L 87.893243 360.287882 
L 88.102863 360.189926 
L 88.228634 359.994016 
L 88.522101 359.89606 
L 88.647873 359.798105 
L 88.773644 359.70015 
L 88.899416 359.602194 
L 89.402502 359.504239 
L 89.570198 359.308328 
L 89.821741 359.308328 
L 89.947513 359.112418 
L 90.199056 359.014462 
L 90.366751 358.818551 
L 90.78599 358.720596 
L 90.911761 358.622641 
L 90.995609 358.524685 
L 91.163305 358.328775 
L 91.289076 358.230819 
L 91.540619 357.838998 
L 91.750239 357.838998 
L 91.959858 357.251266 
L 92.127553 357.153311 
L 92.504868 356.467623 
L 92.546792 356.467623 
L 92.714488 356.173757 
L 92.840259 356.173757 
L 93.007955 355.879891 
L 93.301422 355.390114 
L 93.385269 355.390114 
L 93.511041 355.194204 
L 93.678736 355.194204 
L 93.846432 354.900338 
L 93.972203 354.802382 
L 94.181823 354.704427 
L 94.47529 354.21465 
L 94.726833 354.116695 
L 94.894528 353.920784 
L 95.439539 353.822829 
L 95.607234 353.626918 
L 95.858777 353.528963 
L 96.11032 353.137141 
L 96.487635 353.039186 
L 96.655331 352.843275 
L 96.781102 352.74532 
L 96.990722 352.451454 
L 97.158417 352.353499 
L 97.284189 352.255543 
L 97.61958 352.157588 
L 97.745351 352.059633 
L 98.290361 351.961677 
L 98.416133 351.863722 
L 98.625752 351.765767 
L 98.751524 351.667811 
L 99.044991 351.569856 
L 99.170763 351.471901 
L 99.46423 351.373945 
L 99.590001 351.27599 
L 99.79962 351.178034 
L 99.925392 351.080079 
L 100.55425 350.982124 
L 100.721945 350.786213 
L 101.225032 350.688258 
L 101.350803 350.590302 
L 101.937738 350.492347 
L 102.105433 350.296436 
L 103.992007 350.198481 
L 104.117778 350.100526 
L 104.495093 350.00257 
L 104.620865 349.904615 
L 106.339743 349.80666 
L 106.465515 349.708704 
L 107.345916 349.610749 
L 107.471688 349.512794 
L 108.603632 349.414838 
L 108.729403 349.316883 
L 114.053734 349.218928 
L 114.179506 349.120972 
L 392.721656 349.120972 
L 392.721656 349.120972 
" clip-path="url(#p8f20bca34a)" style="fill: none; stroke: #6495ed; stroke-width: 2; stroke-linecap: square"/>
   </g>
   <g id="line2d_31">
    <path d="M 57.37267 369.201818 
L 392.721656 369.201818 
L 392.721656 369.201818 
" clip-path="url(#p8f20bca34a)" style="fill: none; stroke: #00008b; stroke-width: 2; stroke-linecap: square"/>
   </g>
   <g id="line2d_32">
    <path d="M 392.76358 369.201818 
L 121.013095 369.201818 
L 120.887324 369.064681 
L 120.30039 369.064681 
L 120.132694 368.790406 
L 120.09077 368.790406 
L 119.964999 368.653268 
L 119.881151 368.653268 
L 119.713456 368.378993 
L 119.336141 368.378993 
L 119.168445 368.104718 
L 118.916902 368.104718 
L 118.707283 367.693306 
L 118.497664 367.693306 
L 118.288044 367.281893 
L 118.078425 367.281893 
L 117.868806 366.870481 
L 117.659186 366.870481 
L 117.449567 366.459068 
L 117.239948 366.459068 
L 117.030328 366.047656 
L 116.820709 366.047656 
L 116.653014 365.773381 
L 116.527242 365.773381 
L 116.359547 365.499106 
L 116.317623 365.499106 
L 116.191851 365.361969 
L 116.108003 365.361969 
L 115.940308 365.087694 
L 115.898384 365.087694 
L 115.772613 364.950556 
L 115.688765 364.950556 
L 115.521069 364.676281 
L 115.479145 364.676281 
L 115.353374 364.539144 
L 115.269526 364.539144 
L 115.101831 364.264869 
L 115.059907 364.264869 
L 114.934135 364.127731 
L 114.850288 364.127731 
L 114.682592 363.853456 
L 114.640668 363.853456 
L 114.514897 363.716319 
L 114.305277 363.716319 
L 114.137582 363.442044 
L 113.886039 363.442044 
L 113.676419 363.030631 
L 113.4668 363.030631 
L 113.257181 362.619219 
L 113.047561 362.619219 
L 112.837942 362.207806 
L 112.628323 362.207806 
L 112.418703 361.796394 
L 112.334856 361.796394 
L 112.16716 361.522119 
L 112.125236 361.522119 
L 111.999465 361.384982 
L 111.915617 361.384982 
L 111.747922 361.110707 
L 111.705998 361.110707 
L 111.580226 360.973569 
L 111.538302 360.973569 
L 111.328683 360.562157 
L 111.286759 360.562157 
L 111.160988 360.425019 
L 111.119064 360.425019 
L 110.909444 360.013607 
L 110.86752 360.013607 
L 110.741749 359.876469 
L 110.699825 359.876469 
L 110.490206 359.465057 
L 110.448282 359.465057 
L 110.32251 359.327919 
L 110.280586 359.327919 
L 110.070967 358.916507 
L 110.029043 358.916507 
L 109.903272 358.779369 
L 109.861348 358.779369 
L 109.651728 358.367957 
L 109.609805 358.367957 
L 109.442109 358.093682 
L 109.400185 358.093682 
L 109.148642 357.545132 
L 109.064794 357.545132 
L 108.897099 357.270857 
L 108.813251 357.270857 
L 108.645556 356.996582 
L 108.561708 356.996582 
L 108.435936 356.859445 
L 108.394013 356.859445 
L 108.226317 356.448032 
L 108.142469 356.448032 
L 107.890926 355.899482 
L 107.723231 355.899482 
L 107.38784 355.076657 
L 107.303992 355.076657 
L 107.010525 354.39097 
L 106.884753 354.39097 
L 106.717058 354.116695 
L 106.63321 354.116695 
L 106.465515 353.84242 
L 106.339743 353.84242 
L 105.962428 352.882458 
L 105.710885 352.882458 
L 105.417418 352.19677 
L 105.375494 352.19677 
L 105.082027 351.511083 
L 104.872408 351.511083 
L 104.620865 350.962533 
L 104.537017 350.962533 
L 104.24355 350.276845 
L 104.033931 350.276845 
L 103.740464 349.591158 
L 103.572768 349.591158 
L 103.446997 349.179745 
L 103.363149 349.179745 
L 103.237377 349.042608 
L 103.15353 349.042608 
L 103.027758 348.631195 
L 102.985834 348.631195 
L 102.608519 347.671233 
L 102.566595 347.671233 
L 102.3989 347.396958 
L 102.315052 347.396958 
L 102.189281 347.122683 
L 102.147357 347.122683 
L 101.937738 346.711271 
L 101.895814 346.711271 
L 101.770042 346.162721 
L 101.728118 346.162721 
L 101.602347 346.025583 
L 101.560423 346.025583 
L 101.266956 345.339896 
L 101.141184 345.339896 
L 100.805793 344.517071 
L 100.721945 344.517071 
L 99.422306 340.540084 
L 99.380382 340.540084 
L 99.170763 339.854396 
L 97.703427 334.917447 
L 97.493808 333.820347 
L 97.368036 333.820347 
L 96.990722 332.03756 
L 96.948798 332.03756 
L 96.571483 330.254773 
L 96.529559 330.254773 
L 96.403788 329.569085 
L 96.194168 328.74626 
L 96.11032 328.74626 
L 95.649158 326.414923 
L 95.56531 325.866373 
L 95.062224 323.260761 
L 94.936452 322.575073 
L 94.47529 320.243736 
L 94.433366 320.243736 
L 93.804508 316.678162 
L 93.762584 316.678162 
L 93.301422 314.209687 
L 93.259498 314.209687 
L 92.798335 311.87835 
L 92.714488 311.3298 
L 92.043706 307.48995 
L 92.001782 307.48995 
L 91.121381 302.415863 
L 90.953685 301.593038 
L 90.78599 300.633076 
L 90.744066 300.633076 
L 90.366751 297.753189 
L 90.324827 297.753189 
L 89.947513 294.873302 
L 89.905589 294.873302 
L 89.528274 292.130552 
L 89.48635 292.130552 
L 89.109035 289.387802 
L 89.067111 289.387802 
L 88.73172 286.919327 
L 88.605949 286.370777 
L 88.354406 284.03944 
L 88.312482 284.03944 
L 88.18671 283.49089 
L 87.893243 281.022416 
L 87.767472 280.473866 
L 87.515928 278.142528 
L 87.474005 278.142528 
L 87.348233 277.593978 
L 87.054766 275.125504 
L 86.928994 274.576954 
L 86.635527 272.519892 
L 86.509756 271.971342 
L 86.174365 269.640004 
L 86.132441 269.640004 
L 85.755126 266.760117 
L 85.713202 266.760117 
L 85.335888 264.017367 
L 85.293964 264.017367 
L 84.916649 261.13748 
L 84.874725 261.13748 
L 84.581258 258.394731 
L 84.539334 258.394731 
L 84.455486 258.120456 
L 84.162019 255.377706 
L 84.120095 255.377706 
L 83.994324 254.829156 
L 83.742781 252.497819 
L 83.700857 252.497819 
L 82.988151 247.423732 
L 82.820456 246.189494 
L 82.778532 246.189494 
L 82.485065 243.446745 
L 82.443141 243.446745 
L 81.730435 238.23552 
L 81.56274 237.001283 
L 81.520816 237.001283 
L 81.227349 234.258533 
L 81.101577 233.847121 
L 80.80811 231.104371 
L 80.682339 230.692959 
L 80.388872 228.087346 
L 79.634242 222.738985 
L 79.466547 221.504747 
L 79.424623 221.504747 
L 78.96346 217.939173 
L 78.711917 215.607835 
L 78.376526 213.002223 
L 78.208831 211.630848 
L 78.166907 211.493711 
L 77.915364 208.613824 
L 77.538049 205.733937 
L 77.370353 204.225424 
L 77.32843 204.225424 
L 77.076886 201.2084 
L 76.825343 199.0142 
L 76.5738 197.094275 
L 76.489952 196.957137 
L 76.238409 194.07725 
L 76.070714 193.391563 
L 75.81917 190.511676 
L 75.441856 187.631789 
L 75.106465 183.929076 
L 75.064541 183.929076 
L 74.812998 182.009152 
L 74.561455 178.992127 
L 74.351835 177.20934 
L 74.100292 174.740865 
L 73.555282 170.62674 
L 73.345663 168.295403 
L 72.758728 163.358454 
L 72.716805 163.358454 
L 72.507185 160.752842 
L 70.28522 139.907944 
L 70.201373 139.359394 
L 70.033677 137.439469 
L 69.782134 135.382407 
L 69.614439 133.462482 
L 67.727865 115.908884 
L 67.644017 114.674647 
L 67.35055 112.206172 
L 67.308626 112.069034 
L 66.931311 108.229185 
L 66.847464 107.680635 
L 66.637844 106.034985 
L 66.176682 101.372311 
L 64.583575 86.6986 
L 64.332032 84.5044 
L 64.164336 82.85875 
L 64.122413 82.721613 
L 63.828945 79.430313 
L 63.451631 76.276151 
L 63.158164 73.533401 
L 63.074316 73.121989 
L 62.90662 71.476339 
L 62.655077 69.282139 
L 62.487382 67.499352 
L 62.445458 67.362215 
L 62.277763 65.579427 
L 62.235839 65.44229 
L 62.026219 63.385227 
L 61.732752 60.093928 
L 61.606981 59.682515 
L 61.313514 56.528353 
L 60.978123 54.059878 
L 60.810427 52.277091 
L 60.768503 52.139954 
L 60.391189 48.437242 
L 60.349265 48.300104 
L 60.055798 45.145942 
L 59.678483 41.99178 
L 59.385016 39.523305 
L 59.343092 39.523305 
L 59.259244 38.289068 
L 58.965777 35.546318 
L 58.923853 35.546318 
L 58.88193 35.272043 
L 58.714234 33.214981 
L 58.67231 33.077843 
L 58.336919 29.237994 
L 58.294995 29.237994 
L 58.253072 29.100856 
L 57.917681 25.261007 
L 57.875757 25.261007 
L 57.833833 25.123869 
L 57.708061 24.438182 
L 57.414594 24.438182 
L 57.414594 24.438182 
" clip-path="url(#p8f20bca34a)" style="fill: none; stroke-dasharray: 7.4,3.2; stroke-dashoffset: 0; stroke: #fa8072; stroke-width: 2"/>
   </g>
   <g id="line2d_33">
    <path d="M 392.76358 369.201818 
L 120.593857 369.201818 
L 120.468085 369.064681 
L 119.671532 369.064681 
L 119.54576 368.927543 
L 108.855175 368.927543 
L 108.729403 368.790406 
L 107.93285 368.790406 
L 107.807078 368.653268 
L 106.717058 368.653268 
L 106.591286 368.516131 
L 105.794733 368.516131 
L 105.668961 368.378993 
L 105.082027 368.378993 
L 104.914332 368.104718 
L 104.117778 368.104718 
L 103.992007 367.967581 
L 103.69854 367.967581 
L 103.572768 367.830443 
L 102.315052 367.830443 
L 102.189281 367.693306 
L 95.187995 367.693306 
L 95.062224 367.556168 
L 93.007955 367.556168 
L 92.882183 367.419031 
L 92.588716 367.419031 
L 92.462944 367.281893 
L 92.253325 367.281893 
L 92.08563 367.007618 
L 89.737893 367.007618 
L 89.612122 366.870481 
L 89.444426 366.870481 
L 89.318655 366.733343 
L 89.025188 366.733343 
L 88.899416 366.596206 
L 88.857492 366.596206 
L 88.73172 366.459068 
L 87.599776 366.459068 
L 87.474005 366.321931 
L 86.928994 366.321931 
L 86.761299 366.047656 
L 86.509756 366.047656 
L 86.383984 365.910519 
L 86.090517 365.910519 
L 85.964745 365.773381 
L 85.671278 365.773381 
L 85.545507 365.636244 
L 84.832801 365.636244 
L 84.70703 365.499106 
L 84.036248 365.499106 
L 83.910476 365.361969 
L 83.617009 365.361969 
L 83.491238 365.224831 
L 82.275445 365.224831 
L 82.149674 365.087694 
L 81.520816 365.087694 
L 81.395044 364.950556 
L 81.101577 364.950556 
L 80.933882 364.676281 
L 80.682339 364.676281 
L 80.514643 364.402006 
L 80.2631 364.402006 
L 80.137328 364.264869 
L 79.843861 364.264869 
L 79.71809 364.127731 
L 79.424623 364.127731 
L 79.256927 363.579181 
L 78.544222 363.579181 
L 78.41845 363.442044 
L 78.124983 363.442044 
L 77.999211 363.304906 
L 77.705744 363.304906 
L 77.579973 363.167769 
L 76.489952 363.167769 
L 76.364181 363.030631 
L 75.986866 363.030631 
L 75.861094 362.893494 
L 75.651475 362.893494 
L 75.525703 362.756356 
L 73.97452 362.756356 
L 73.848749 362.482081 
L 73.555282 362.482081 
L 73.42951 362.344944 
L 73.136043 362.344944 
L 73.010272 362.207806 
L 57.414594 362.207806 
L 57.414594 362.207806 
" clip-path="url(#p8f20bca34a)" style="fill: none; stroke-dasharray: 7.4,3.2; stroke-dashoffset: 0; stroke: #ff4500; stroke-width: 2"/>
   </g>
   <g id="line2d_34">
    <path d="M 392.76358 369.201818 
L 57.414594 369.201818 
L 57.414594 369.201818 
" clip-path="url(#p8f20bca34a)" style="fill: none; stroke-dasharray: 7.4,3.2; stroke-dashoffset: 0; stroke: #8b0000; stroke-width: 2"/>
   </g>
   <g id="patch_3">
    <path d="M 40.603125 386.44 
L 40.603125 7.2 
" style="fill: none; stroke: #000000; stroke-width: 0.8; stroke-linejoin: miter; stroke-linecap: square"/>
   </g>
   <g id="patch_4">
    <path d="M 409.533125 386.44 
L 409.533125 7.2 
" style="fill: none; stroke: #000000; stroke-width: 0.8; stroke-linejoin: miter; stroke-linecap: square"/>
   </g>
   <g id="patch_5">
    <path d="M 40.603125 386.44 
L 409.533125 386.44 
" style="fill: none; stroke: #000000; stroke-width: 0.8; stroke-linejoin: miter; stroke-linecap: square"/>
   </g>
   <g id="patch_6">
    <path d="M 40.603125 7.2 
L 409.533125 7.2 
" style="fill: none; stroke: #000000; stroke-width: 0.8; stroke-linejoin: miter; stroke-linecap: square"/>
   </g>
   <g id="legend_1">
    <g id="patch_7">
     <path d="M 416.533125 117.946875 
L 558.8925 117.946875 
Q 560.8925 117.946875 560.8925 115.946875 
L 560.8925 14.2 
Q 560.8925 12.2 558.8925 12.2 
L 416.533125 12.2 
Q 414.533125 12.2 414.533125 14.2 
L 414.533125 115.946875 
Q 414.533125 117.946875 416.533125 117.946875 
z
" style="fill: #ffffff; opacity: 0.8; stroke: #cccccc; stroke-linejoin: miter"/>
    </g>
    <g id="text_17">
     <!-- Motifs &amp; orientation -->
     <g transform="translate(438.197188 23.798437) scale(0.1 -0.1)">
      <defs>
       <path id="DejaVuSans-4d" d="M 628 4666 
L 1569 4666 
L 2759 1491 
L 3956 4666 
L 4897 4666 
L 4897 0 
L 4281 0 
L 4281 4097 
L 3078 897 
L 2444 897 
L 1241 4097 
L 1241 0 
L 628 0 
L 628 4666 
z
" transform="scale(0.015625)"/>
       <path id="DejaVuSans-26" d="M 1556 2509 
Q 1272 2256 1139 2004 
Q 1006 1753 1006 1478 
Q 1006 1022 1337 719 
Q 1669 416 2169 416 
Q 2466 416 2725 514 
Q 2984 613 3213 813 
L 1556 2509 
z
M 1997 2859 
L 3584 1234 
Q 3769 1513 3872 1830 
Q 3975 2147 3994 2503 
L 4575 2503 
Q 4538 2091 4375 1687 
Q 4213 1284 3922 891 
L 4794 0 
L 4006 0 
L 3559 459 
Q 3234 181 2878 45 
Q 2522 -91 2113 -91 
Q 1359 -91 881 339 
Q 403 769 403 1441 
Q 403 1841 612 2192 
Q 822 2544 1241 2853 
Q 1091 3050 1012 3245 
Q 934 3441 934 3628 
Q 934 4134 1281 4442 
Q 1628 4750 2203 4750 
Q 2463 4750 2720 4694 
Q 2978 4638 3244 4525 
L 3244 3956 
Q 2972 4103 2725 4179 
Q 2478 4256 2266 4256 
Q 1938 4256 1733 4082 
Q 1528 3909 1528 3634 
Q 1528 3475 1620 3314 
Q 1713 3153 1997 2859 
z
" transform="scale(0.015625)"/>
      </defs>
      <use xlink:href="#DejaVuSans-4d"/>
      <use xlink:href="#DejaVuSans-6f" transform="translate(86.279297 0)"/>
      <use xlink:href="#DejaVuSans-74" transform="translate(147.460938 0)"/>
      <use xlink:href="#DejaVuSans-69" transform="translate(186.669922 0)"/>
      <use xlink:href="#DejaVuSans-66" transform="translate(214.453125 0)"/>
      <use xlink:href="#DejaVuSans-73" transform="translate(249.658203 0)"/>
      <use xlink:href="#DejaVuSans-20" transform="translate(301.757812 0)"/>
      <use xlink:href="#DejaVuSans-26" transform="translate(333.544922 0)"/>
      <use xlink:href="#DejaVuSans-20" transform="translate(411.523438 0)"/>
      <use xlink:href="#DejaVuSans-6f" transform="translate(443.310547 0)"/>
      <use xlink:href="#DejaVuSans-72" transform="translate(504.492188 0)"/>
      <use xlink:href="#DejaVuSans-69" transform="translate(545.605469 0)"/>
      <use xlink:href="#DejaVuSans-65" transform="translate(573.388672 0)"/>
      <use xlink:href="#DejaVuSans-6e" transform="translate(634.912109 0)"/>
      <use xlink:href="#DejaVuSans-74" transform="translate(698.291016 0)"/>
      <use xlink:href="#DejaVuSans-61" transform="translate(737.5 0)"/>
      <use xlink:href="#DejaVuSans-74" transform="translate(798.779297 0)"/>
      <use xlink:href="#DejaVuSans-69" transform="translate(837.988281 0)"/>
      <use xlink:href="#DejaVuSans-6f" transform="translate(865.771484 0)"/>
      <use xlink:href="#DejaVuSans-6e" transform="translate(926.953125 0)"/>
     </g>
    </g>
    <g id="line2d_35">
     <path d="M 418.533125 34.976562 
L 428.533125 34.976562 
L 438.533125 34.976562 
" style="fill: none; stroke: #add8e6; stroke-width: 2; stroke-linecap: square"/>
    </g>
    <g id="text_18">
     <!-- CCCACACTAA (5' end) -->
     <g transform="translate(446.533125 38.476562) scale(0.1 -0.1)">
      <defs>
       <path id="DejaVuSans-43" d="M 4122 4306 
L 4122 3641 
Q 3803 3938 3442 4084 
Q 3081 4231 2675 4231 
Q 1875 4231 1450 3742 
Q 1025 3253 1025 2328 
Q 1025 1406 1450 917 
Q 1875 428 2675 428 
Q 3081 428 3442 575 
Q 3803 722 4122 1019 
L 4122 359 
Q 3791 134 3420 21 
Q 3050 -91 2638 -91 
Q 1578 -91 968 557 
Q 359 1206 359 2328 
Q 359 3453 968 4101 
Q 1578 4750 2638 4750 
Q 3056 4750 3426 4639 
Q 3797 4528 4122 4306 
z
" transform="scale(0.015625)"/>
       <path id="DejaVuSans-54" d="M -19 4666 
L 3928 4666 
L 3928 4134 
L 2272 4134 
L 2272 0 
L 1638 0 
L 1638 4134 
L -19 4134 
L -19 4666 
z
" transform="scale(0.015625)"/>
       <path id="DejaVuSans-28" d="M 1984 4856 
Q 1566 4138 1362 3434 
Q 1159 2731 1159 2009 
Q 1159 1288 1364 580 
Q 1569 -128 1984 -844 
L 1484 -844 
Q 1016 -109 783 600 
Q 550 1309 550 2009 
Q 550 2706 781 3412 
Q 1013 4119 1484 4856 
L 1984 4856 
z
" transform="scale(0.015625)"/>
       <path id="DejaVuSans-27" d="M 1147 4666 
L 1147 2931 
L 616 2931 
L 616 4666 
L 1147 4666 
z
" transform="scale(0.015625)"/>
       <path id="DejaVuSans-64" d="M 2906 2969 
L 2906 4863 
L 3481 4863 
L 3481 0 
L 2906 0 
L 2906 525 
Q 2725 213 2448 61 
Q 2172 -91 1784 -91 
Q 1150 -91 751 415 
Q 353 922 353 1747 
Q 353 2572 751 3078 
Q 1150 3584 1784 3584 
Q 2172 3584 2448 3432 
Q 2725 3281 2906 2969 
z
M 947 1747 
Q 947 1113 1208 752 
Q 1469 391 1925 391 
Q 2381 391 2643 752 
Q 2906 1113 2906 1747 
Q 2906 2381 2643 2742 
Q 2381 3103 1925 3103 
Q 1469 3103 1208 2742 
Q 947 2381 947 1747 
z
" transform="scale(0.015625)"/>
       <path id="DejaVuSans-29" d="M 513 4856 
L 1013 4856 
Q 1481 4119 1714 3412 
Q 1947 2706 1947 2009 
Q 1947 1309 1714 600 
Q 1481 -109 1013 -844 
L 513 -844 
Q 928 -128 1133 580 
Q 1338 1288 1338 2009 
Q 1338 2731 1133 3434 
Q 928 4138 513 4856 
z
" transform="scale(0.015625)"/>
      </defs>
      <use xlink:href="#DejaVuSans-43"/>
      <use xlink:href="#DejaVuSans-43" transform="translate(69.824219 0)"/>
      <use xlink:href="#DejaVuSans-43" transform="translate(139.648438 0)"/>
      <use xlink:href="#DejaVuSans-41" transform="translate(209.472656 0)"/>
      <use xlink:href="#DejaVuSans-43" transform="translate(276.130859 0)"/>
      <use xlink:href="#DejaVuSans-41" transform="translate(345.955078 0)"/>
      <use xlink:href="#DejaVuSans-43" transform="translate(412.613281 0)"/>
      <use xlink:href="#DejaVuSans-54" transform="translate(482.4375 0)"/>
      <use xlink:href="#DejaVuSans-41" transform="translate(535.771484 0)"/>
      <use xlink:href="#DejaVuSans-41" transform="translate(606.929688 0)"/>
      <use xlink:href="#DejaVuSans-20" transform="translate(675.337891 0)"/>
      <use xlink:href="#DejaVuSans-28" transform="translate(707.125 0)"/>
      <use xlink:href="#DejaVuSans-35" transform="translate(746.138672 0)"/>
      <use xlink:href="#DejaVuSans-27" transform="translate(809.761719 0)"/>
      <use xlink:href="#DejaVuSans-20" transform="translate(837.251953 0)"/>
      <use xlink:href="#DejaVuSans-65" transform="translate(869.039062 0)"/>
      <use xlink:href="#DejaVuSans-6e" transform="translate(930.5625 0)"/>
      <use xlink:href="#DejaVuSans-64" transform="translate(993.941406 0)"/>
      <use xlink:href="#DejaVuSans-29" transform="translate(1057.417969 0)"/>
     </g>
    </g>
    <g id="line2d_36">
     <path d="M 418.533125 49.654687 
L 428.533125 49.654687 
L 438.533125 49.654687 
" style="fill: none; stroke: #6495ed; stroke-width: 2; stroke-linecap: square"/>
    </g>
    <g id="text_19">
     <!-- CCAAAACTAA (5' end) -->
     <g transform="translate(446.533125 53.154687) scale(0.1 -0.1)">
      <use xlink:href="#DejaVuSans-43"/>
      <use xlink:href="#DejaVuSans-43" transform="translate(69.824219 0)"/>
      <use xlink:href="#DejaVuSans-41" transform="translate(139.648438 0)"/>
      <use xlink:href="#DejaVuSans-41" transform="translate(210.806641 0)"/>
      <use xlink:href="#DejaVuSans-41" transform="translate(281.964844 0)"/>
      <use xlink:href="#DejaVuSans-41" transform="translate(353.123047 0)"/>
      <use xlink:href="#DejaVuSans-43" transform="translate(419.78125 0)"/>
      <use xlink:href="#DejaVuSans-54" transform="translate(489.605469 0)"/>
      <use xlink:href="#DejaVuSans-41" transform="translate(542.939453 0)"/>
      <use xlink:href="#DejaVuSans-41" transform="translate(614.097656 0)"/>
      <use xlink:href="#DejaVuSans-20" transform="translate(682.505859 0)"/>
      <use xlink:href="#DejaVuSans-28" transform="translate(714.292969 0)"/>
      <use xlink:href="#DejaVuSans-35" transform="translate(753.306641 0)"/>
      <use xlink:href="#DejaVuSans-27" transform="translate(816.929688 0)"/>
      <use xlink:href="#DejaVuSans-20" transform="translate(844.419922 0)"/>
      <use xlink:href="#DejaVuSans-65" transform="translate(876.207031 0)"/>
      <use xlink:href="#DejaVuSans-6e" transform="translate(937.730469 0)"/>
      <use xlink:href="#DejaVuSans-64" transform="translate(1001.109375 0)"/>
      <use xlink:href="#DejaVuSans-29" transform="translate(1064.585938 0)"/>
     </g>
    </g>
    <g id="line2d_37">
     <path d="M 418.533125 64.332812 
L 428.533125 64.332812 
L 438.533125 64.332812 
" style="fill: none; stroke: #00008b; stroke-width: 2; stroke-linecap: square"/>
    </g>
    <g id="text_20">
     <!-- CTTCTAAA (5' end) -->
     <g transform="translate(446.533125 67.832812) scale(0.1 -0.1)">
      <use xlink:href="#DejaVuSans-43"/>
      <use xlink:href="#DejaVuSans-54" transform="translate(69.824219 0)"/>
      <use xlink:href="#DejaVuSans-54" transform="translate(129.158203 0)"/>
      <use xlink:href="#DejaVuSans-43" transform="translate(184.367188 0)"/>
      <use xlink:href="#DejaVuSans-54" transform="translate(254.191406 0)"/>
      <use xlink:href="#DejaVuSans-41" transform="translate(307.525391 0)"/>
      <use xlink:href="#DejaVuSans-41" transform="translate(378.683594 0)"/>
      <use xlink:href="#DejaVuSans-41" transform="translate(449.841797 0)"/>
      <use xlink:href="#DejaVuSans-20" transform="translate(518.25 0)"/>
      <use xlink:href="#DejaVuSans-28" transform="translate(550.037109 0)"/>
      <use xlink:href="#DejaVuSans-35" transform="translate(589.050781 0)"/>
      <use xlink:href="#DejaVuSans-27" transform="translate(652.673828 0)"/>
      <use xlink:href="#DejaVuSans-20" transform="translate(680.164062 0)"/>
      <use xlink:href="#DejaVuSans-65" transform="translate(711.951172 0)"/>
      <use xlink:href="#DejaVuSans-6e" transform="translate(773.474609 0)"/>
      <use xlink:href="#DejaVuSans-64" transform="translate(836.853516 0)"/>
      <use xlink:href="#DejaVuSans-29" transform="translate(900.330078 0)"/>
     </g>
    </g>
    <g id="line2d_38">
     <path d="M 418.533125 79.010937 
L 428.533125 79.010937 
L 438.533125 79.010937 
" style="fill: none; stroke-dasharray: 7.4,3.2; stroke-dashoffset: 0; stroke: #fa8072; stroke-width: 2"/>
    </g>
    <g id="text_21">
     <!-- TTAGTGTGGG (3' end) -->
     <g transform="translate(446.533125 82.510937) scale(0.1 -0.1)">
      <defs>
       <path id="DejaVuSans-47" d="M 3809 666 
L 3809 1919 
L 2778 1919 
L 2778 2438 
L 4434 2438 
L 4434 434 
Q 4069 175 3628 42 
Q 3188 -91 2688 -91 
Q 1594 -91 976 548 
Q 359 1188 359 2328 
Q 359 3472 976 4111 
Q 1594 4750 2688 4750 
Q 3144 4750 3555 4637 
Q 3966 4525 4313 4306 
L 4313 3634 
Q 3963 3931 3569 4081 
Q 3175 4231 2741 4231 
Q 1884 4231 1454 3753 
Q 1025 3275 1025 2328 
Q 1025 1384 1454 906 
Q 1884 428 2741 428 
Q 3075 428 3337 486 
Q 3600 544 3809 666 
z
" transform="scale(0.015625)"/>
      </defs>
      <use xlink:href="#DejaVuSans-54"/>
      <use xlink:href="#DejaVuSans-54" transform="translate(59.333984 0)"/>
      <use xlink:href="#DejaVuSans-41" transform="translate(112.667969 0)"/>
      <use xlink:href="#DejaVuSans-47" transform="translate(179.326172 0)"/>
      <use xlink:href="#DejaVuSans-54" transform="translate(253.191406 0)"/>
      <use xlink:href="#DejaVuSans-47" transform="translate(314.275391 0)"/>
      <use xlink:href="#DejaVuSans-54" transform="translate(388.140625 0)"/>
      <use xlink:href="#DejaVuSans-47" transform="translate(449.224609 0)"/>
      <use xlink:href="#DejaVuSans-47" transform="translate(526.714844 0)"/>
      <use xlink:href="#DejaVuSans-47" transform="translate(604.205078 0)"/>
      <use xlink:href="#DejaVuSans-20" transform="translate(681.695312 0)"/>
      <use xlink:href="#DejaVuSans-28" transform="translate(713.482422 0)"/>
      <use xlink:href="#DejaVuSans-33" transform="translate(752.496094 0)"/>
      <use xlink:href="#DejaVuSans-27" transform="translate(816.119141 0)"/>
      <use xlink:href="#DejaVuSans-20" transform="translate(843.609375 0)"/>
      <use xlink:href="#DejaVuSans-65" transform="translate(875.396484 0)"/>
      <use xlink:href="#DejaVuSans-6e" transform="translate(936.919922 0)"/>
      <use xlink:href="#DejaVuSans-64" transform="translate(1000.298828 0)"/>
      <use xlink:href="#DejaVuSans-29" transform="translate(1063.775391 0)"/>
     </g>
    </g>
    <g id="line2d_39">
     <path d="M 418.533125 93.689062 
L 428.533125 93.689062 
L 438.533125 93.689062 
" style="fill: none; stroke-dasharray: 7.4,3.2; stroke-dashoffset: 0; stroke: #ff4500; stroke-width: 2"/>
    </g>
    <g id="text_22">
     <!-- TTAGTTTTGG (3' end) -->
     <g transform="translate(446.533125 97.189062) scale(0.1 -0.1)">
      <use xlink:href="#DejaVuSans-54"/>
      <use xlink:href="#DejaVuSans-54" transform="translate(59.333984 0)"/>
      <use xlink:href="#DejaVuSans-41" transform="translate(112.667969 0)"/>
      <use xlink:href="#DejaVuSans-47" transform="translate(179.326172 0)"/>
      <use xlink:href="#DejaVuSans-54" transform="translate(253.191406 0)"/>
      <use xlink:href="#DejaVuSans-54" transform="translate(312.525391 0)"/>
      <use xlink:href="#DejaVuSans-54" transform="translate(371.859375 0)"/>
      <use xlink:href="#DejaVuSans-54" transform="translate(431.193359 0)"/>
      <use xlink:href="#DejaVuSans-47" transform="translate(492.277344 0)"/>
      <use xlink:href="#DejaVuSans-47" transform="translate(569.767578 0)"/>
      <use xlink:href="#DejaVuSans-20" transform="translate(647.257812 0)"/>
      <use xlink:href="#DejaVuSans-28" transform="translate(679.044922 0)"/>
      <use xlink:href="#DejaVuSans-33" transform="translate(718.058594 0)"/>
      <use xlink:href="#DejaVuSans-27" transform="translate(781.681641 0)"/>
      <use xlink:href="#DejaVuSans-20" transform="translate(809.171875 0)"/>
      <use xlink:href="#DejaVuSans-65" transform="translate(840.958984 0)"/>
      <use xlink:href="#DejaVuSans-6e" transform="translate(902.482422 0)"/>
      <use xlink:href="#DejaVuSans-64" transform="translate(965.861328 0)"/>
      <use xlink:href="#DejaVuSans-29" transform="translate(1029.337891 0)"/>
     </g>
    </g>
    <g id="line2d_40">
     <path d="M 418.533125 108.367187 
L 428.533125 108.367187 
L 438.533125 108.367187 
" style="fill: none; stroke-dasharray: 7.4,3.2; stroke-dashoffset: 0; stroke: #8b0000; stroke-width: 2"/>
    </g>
    <g id="text_23">
     <!-- TTTAGAAG (3' end) -->
     <g transform="translate(446.533125 111.867187) scale(0.1 -0.1)">
      <use xlink:href="#DejaVuSans-54"/>
      <use xlink:href="#DejaVuSans-54" transform="translate(59.333984 0)"/>
      <use xlink:href="#DejaVuSans-54" transform="translate(118.667969 0)"/>
      <use xlink:href="#DejaVuSans-41" transform="translate(172.001953 0)"/>
      <use xlink:href="#DejaVuSans-47" transform="translate(238.660156 0)"/>
      <use xlink:href="#DejaVuSans-41" transform="translate(316.150391 0)"/>
      <use xlink:href="#DejaVuSans-41" transform="translate(387.308594 0)"/>
      <use xlink:href="#DejaVuSans-47" transform="translate(453.966797 0)"/>
      <use xlink:href="#DejaVuSans-20" transform="translate(531.457031 0)"/>
      <use xlink:href="#DejaVuSans-28" transform="translate(563.244141 0)"/>
      <use xlink:href="#DejaVuSans-33" transform="translate(602.257812 0)"/>
      <use xlink:href="#DejaVuSans-27" transform="translate(665.880859 0)"/>
      <use xlink:href="#DejaVuSans-20" transform="translate(693.371094 0)"/>
      <use xlink:href="#DejaVuSans-65" transform="translate(725.158203 0)"/>
      <use xlink:href="#DejaVuSans-6e" transform="translate(786.681641 0)"/>
      <use xlink:href="#DejaVuSans-64" transform="translate(850.060547 0)"/>
      <use xlink:href="#DejaVuSans-29" transform="translate(913.537109 0)"/>
     </g>
    </g>
   </g>
  </g>
 </g>
 <defs>
  <clipPath id="p8f20bca34a">
   <rect x="40.603125" y="7.2" width="368.93" height="379.24"/>
  </clipPath>
 </defs>
</svg>
