<?xml version="1.0" encoding="utf-8" standalone="no"?>
<!DOCTYPE svg PUBLIC "-//W3C//DTD SVG 1.1//EN"
  "http://www.w3.org/Graphics/SVG/1.1/DTD/svg11.dtd">
<svg xmlns:xlink="http://www.w3.org/1999/xlink" width="712.093125pt" height="496.474375pt" viewBox="0 0 712.093125 496.474375" xmlns="http://www.w3.org/2000/svg" version="1.1">
 <metadata>
  <rdf:RDF xmlns:dc="http://purl.org/dc/elements/1.1/" xmlns:cc="http://creativecommons.org/ns#" xmlns:rdf="http://www.w3.org/1999/02/22-rdf-syntax-ns#">
   <cc:Work>
    <dc:type rdf:resource="http://purl.org/dc/dcmitype/StillImage"/>
    <dc:date>2026-03-20T12:46:00.421054</dc:date>
    <dc:format>image/svg+xml</dc:format>
    <dc:creator>
     <cc:Agent>
      <dc:title>Matplotlib v3.10.6, https://matplotlib.org/</dc:title>
     </cc:Agent>
    </dc:creator>
   </cc:Work>
  </rdf:RDF>
 </metadata>
 <defs>
  <style type="text/css">*{stroke-linejoin: round; stroke-linecap: butt}</style>
 </defs>
 <g id="figure_1">
  <g id="patch_1">
   <path d="M 0 496.474375 
L 712.093125 496.474375 
L 712.093125 0 
L 0 0 
z
" style="fill: #ffffff"/>
  </g>
  <g id="axes_1">
   <g id="patch_2">
    <path d="M 50.14375 458.918125 
L 553.53375 458.918125 
L 553.53375 22.318125 
L 50.14375 22.318125 
z
" style="fill: #ffffff"/>
   </g>
   <g id="matplotlib.axis_1">
    <g id="xtick_1">
     <g id="line2d_1">
      <path d="M 73.025114 458.918125 
L 73.025114 22.318125 
" clip-path="url(#pf8e04368ea)" style="fill: none; stroke-dasharray: 2.96,1.28; stroke-dashoffset: 0; stroke: #b0b0b0; stroke-opacity: 0.6; stroke-width: 0.8"/>
     </g>
     <g id="line2d_2">
      <defs>
       <path id="m2f23156ac7" d="M 0 0 
L 0 3.5 
" style="stroke: #000000; stroke-width: 0.8"/>
      </defs>
      <g>
       <use xlink:href="#m2f23156ac7" x="73.025114" y="458.918125" style="stroke: #000000; stroke-width: 0.8"/>
      </g>
     </g>
     <g id="text_1">
      <!-- 0 -->
      <g transform="translate(69.843864 473.516563) scale(0.1 -0.1)">
       <defs>
        <path id="DejaVuSans-30" d="M 2034 4250 
Q 1547 4250 1301 3770 
Q 1056 3291 1056 2328 
Q 1056 1369 1301 889 
Q 1547 409 2034 409 
Q 2525 409 2770 889 
Q 3016 1369 3016 2328 
Q 3016 3291 2770 3770 
Q 2525 4250 2034 4250 
z
M 2034 4750 
Q 2819 4750 3233 4129 
Q 3647 3509 3647 2328 
Q 3647 1150 3233 529 
Q 2819 -91 2034 -91 
Q 1250 -91 836 529 
Q 422 1150 422 2328 
Q 422 3509 836 4129 
Q 1250 4750 2034 4750 
z
" transform="scale(0.015625)"/>
       </defs>
       <use xlink:href="#DejaVuSans-30"/>
      </g>
     </g>
    </g>
    <g id="xtick_2">
     <g id="line2d_3">
      <path d="M 149.302682 458.918125 
L 149.302682 22.318125 
" clip-path="url(#pf8e04368ea)" style="fill: none; stroke-dasharray: 2.96,1.28; stroke-dashoffset: 0; stroke: #b0b0b0; stroke-opacity: 0.6; stroke-width: 0.8"/>
     </g>
     <g id="line2d_4">
      <g>
       <use xlink:href="#m2f23156ac7" x="149.302682" y="458.918125" style="stroke: #000000; stroke-width: 0.8"/>
      </g>
     </g>
     <g id="text_2">
      <!-- 2000 -->
      <g transform="translate(136.577682 473.516563) scale(0.1 -0.1)">
       <defs>
        <path id="DejaVuSans-32" d="M 1228 531 
L 3431 531 
L 3431 0 
L 469 0 
L 469 531 
Q 828 903 1448 1529 
Q 2069 2156 2228 2338 
Q 2531 2678 2651 2914 
Q 2772 3150 2772 3378 
Q 2772 3750 2511 3984 
Q 2250 4219 1831 4219 
Q 1534 4219 1204 4116 
Q 875 4013 500 3803 
L 500 4441 
Q 881 4594 1212 4672 
Q 1544 4750 1819 4750 
Q 2544 4750 2975 4387 
Q 3406 4025 3406 3419 
Q 3406 3131 3298 2873 
Q 3191 2616 2906 2266 
Q 2828 2175 2409 1742 
Q 1991 1309 1228 531 
z
" transform="scale(0.015625)"/>
       </defs>
       <use xlink:href="#DejaVuSans-32"/>
       <use xlink:href="#DejaVuSans-30" transform="translate(63.623047 0)"/>
       <use xlink:href="#DejaVuSans-30" transform="translate(127.246094 0)"/>
       <use xlink:href="#DejaVuSans-30" transform="translate(190.869141 0)"/>
      </g>
     </g>
    </g>
    <g id="xtick_3">
     <g id="line2d_5">
      <path d="M 225.580251 458.918125 
L 225.580251 22.318125 
" clip-path="url(#pf8e04368ea)" style="fill: none; stroke-dasharray: 2.96,1.28; stroke-dashoffset: 0; stroke: #b0b0b0; stroke-opacity: 0.6; stroke-width: 0.8"/>
     </g>
     <g id="line2d_6">
      <g>
       <use xlink:href="#m2f23156ac7" x="225.580251" y="458.918125" style="stroke: #000000; stroke-width: 0.8"/>
      </g>
     </g>
     <g id="text_3">
      <!-- 4000 -->
      <g transform="translate(212.855251 473.516563) scale(0.1 -0.1)">
       <defs>
        <path id="DejaVuSans-34" d="M 2419 4116 
L 825 1625 
L 2419 1625 
L 2419 4116 
z
M 2253 4666 
L 3047 4666 
L 3047 1625 
L 3713 1625 
L 3713 1100 
L 3047 1100 
L 3047 0 
L 2419 0 
L 2419 1100 
L 313 1100 
L 313 1709 
L 2253 4666 
z
" transform="scale(0.015625)"/>
       </defs>
       <use xlink:href="#DejaVuSans-34"/>
       <use xlink:href="#DejaVuSans-30" transform="translate(63.623047 0)"/>
       <use xlink:href="#DejaVuSans-30" transform="translate(127.246094 0)"/>
       <use xlink:href="#DejaVuSans-30" transform="translate(190.869141 0)"/>
      </g>
     </g>
    </g>
    <g id="xtick_4">
     <g id="line2d_7">
      <path d="M 301.857819 458.918125 
L 301.857819 22.318125 
" clip-path="url(#pf8e04368ea)" style="fill: none; stroke-dasharray: 2.96,1.28; stroke-dashoffset: 0; stroke: #b0b0b0; stroke-opacity: 0.6; stroke-width: 0.8"/>
     </g>
     <g id="line2d_8">
      <g>
       <use xlink:href="#m2f23156ac7" x="301.857819" y="458.918125" style="stroke: #000000; stroke-width: 0.8"/>
      </g>
     </g>
     <g id="text_4">
      <!-- 6000 -->
      <g transform="translate(289.132819 473.516563) scale(0.1 -0.1)">
       <defs>
        <path id="DejaVuSans-36" d="M 2113 2584 
Q 1688 2584 1439 2293 
Q 1191 2003 1191 1497 
Q 1191 994 1439 701 
Q 1688 409 2113 409 
Q 2538 409 2786 701 
Q 3034 994 3034 1497 
Q 3034 2003 2786 2293 
Q 2538 2584 2113 2584 
z
M 3366 4563 
L 3366 3988 
Q 3128 4100 2886 4159 
Q 2644 4219 2406 4219 
Q 1781 4219 1451 3797 
Q 1122 3375 1075 2522 
Q 1259 2794 1537 2939 
Q 1816 3084 2150 3084 
Q 2853 3084 3261 2657 
Q 3669 2231 3669 1497 
Q 3669 778 3244 343 
Q 2819 -91 2113 -91 
Q 1303 -91 875 529 
Q 447 1150 447 2328 
Q 447 3434 972 4092 
Q 1497 4750 2381 4750 
Q 2619 4750 2861 4703 
Q 3103 4656 3366 4563 
z
" transform="scale(0.015625)"/>
       </defs>
       <use xlink:href="#DejaVuSans-36"/>
       <use xlink:href="#DejaVuSans-30" transform="translate(63.623047 0)"/>
       <use xlink:href="#DejaVuSans-30" transform="translate(127.246094 0)"/>
       <use xlink:href="#DejaVuSans-30" transform="translate(190.869141 0)"/>
      </g>
     </g>
    </g>
    <g id="xtick_5">
     <g id="line2d_9">
      <path d="M 378.135388 458.918125 
L 378.135388 22.318125 
" clip-path="url(#pf8e04368ea)" style="fill: none; stroke-dasharray: 2.96,1.28; stroke-dashoffset: 0; stroke: #b0b0b0; stroke-opacity: 0.6; stroke-width: 0.8"/>
     </g>
     <g id="line2d_10">
      <g>
       <use xlink:href="#m2f23156ac7" x="378.135388" y="458.918125" style="stroke: #000000; stroke-width: 0.8"/>
      </g>
     </g>
     <g id="text_5">
      <!-- 8000 -->
      <g transform="translate(365.410388 473.516563) scale(0.1 -0.1)">
       <defs>
        <path id="DejaVuSans-38" d="M 2034 2216 
Q 1584 2216 1326 1975 
Q 1069 1734 1069 1313 
Q 1069 891 1326 650 
Q 1584 409 2034 409 
Q 2484 409 2743 651 
Q 3003 894 3003 1313 
Q 3003 1734 2745 1975 
Q 2488 2216 2034 2216 
z
M 1403 2484 
Q 997 2584 770 2862 
Q 544 3141 544 3541 
Q 544 4100 942 4425 
Q 1341 4750 2034 4750 
Q 2731 4750 3128 4425 
Q 3525 4100 3525 3541 
Q 3525 3141 3298 2862 
Q 3072 2584 2669 2484 
Q 3125 2378 3379 2068 
Q 3634 1759 3634 1313 
Q 3634 634 3220 271 
Q 2806 -91 2034 -91 
Q 1263 -91 848 271 
Q 434 634 434 1313 
Q 434 1759 690 2068 
Q 947 2378 1403 2484 
z
M 1172 3481 
Q 1172 3119 1398 2916 
Q 1625 2713 2034 2713 
Q 2441 2713 2670 2916 
Q 2900 3119 2900 3481 
Q 2900 3844 2670 4047 
Q 2441 4250 2034 4250 
Q 1625 4250 1398 4047 
Q 1172 3844 1172 3481 
z
" transform="scale(0.015625)"/>
       </defs>
       <use xlink:href="#DejaVuSans-38"/>
       <use xlink:href="#DejaVuSans-30" transform="translate(63.623047 0)"/>
       <use xlink:href="#DejaVuSans-30" transform="translate(127.246094 0)"/>
       <use xlink:href="#DejaVuSans-30" transform="translate(190.869141 0)"/>
      </g>
     </g>
    </g>
    <g id="xtick_6">
     <g id="line2d_11">
      <path d="M 454.412957 458.918125 
L 454.412957 22.318125 
" clip-path="url(#pf8e04368ea)" style="fill: none; stroke-dasharray: 2.96,1.28; stroke-dashoffset: 0; stroke: #b0b0b0; stroke-opacity: 0.6; stroke-width: 0.8"/>
     </g>
     <g id="line2d_12">
      <g>
       <use xlink:href="#m2f23156ac7" x="454.412957" y="458.918125" style="stroke: #000000; stroke-width: 0.8"/>
      </g>
     </g>
     <g id="text_6">
      <!-- 10000 -->
      <g transform="translate(438.506707 473.516563) scale(0.1 -0.1)">
       <defs>
        <path id="DejaVuSans-31" d="M 794 531 
L 1825 531 
L 1825 4091 
L 703 3866 
L 703 4441 
L 1819 4666 
L 2450 4666 
L 2450 531 
L 3481 531 
L 3481 0 
L 794 0 
L 794 531 
z
" transform="scale(0.015625)"/>
       </defs>
       <use xlink:href="#DejaVuSans-31"/>
       <use xlink:href="#DejaVuSans-30" transform="translate(63.623047 0)"/>
       <use xlink:href="#DejaVuSans-30" transform="translate(127.246094 0)"/>
       <use xlink:href="#DejaVuSans-30" transform="translate(190.869141 0)"/>
       <use xlink:href="#DejaVuSans-30" transform="translate(254.492188 0)"/>
      </g>
     </g>
    </g>
    <g id="xtick_7">
     <g id="line2d_13">
      <path d="M 530.690525 458.918125 
L 530.690525 22.318125 
" clip-path="url(#pf8e04368ea)" style="fill: none; stroke-dasharray: 2.96,1.28; stroke-dashoffset: 0; stroke: #b0b0b0; stroke-opacity: 0.6; stroke-width: 0.8"/>
     </g>
     <g id="line2d_14">
      <g>
       <use xlink:href="#m2f23156ac7" x="530.690525" y="458.918125" style="stroke: #000000; stroke-width: 0.8"/>
      </g>
     </g>
     <g id="text_7">
      <!-- 12000 -->
      <g transform="translate(514.784275 473.516563) scale(0.1 -0.1)">
       <use xlink:href="#DejaVuSans-31"/>
       <use xlink:href="#DejaVuSans-32" transform="translate(63.623047 0)"/>
       <use xlink:href="#DejaVuSans-30" transform="translate(127.246094 0)"/>
       <use xlink:href="#DejaVuSans-30" transform="translate(190.869141 0)"/>
       <use xlink:href="#DejaVuSans-30" transform="translate(254.492188 0)"/>
      </g>
     </g>
    </g>
    <g id="text_8">
     <!-- Distance from Terminus [nt] -->
     <g transform="translate(232.095781 487.194687) scale(0.1 -0.1)">
      <defs>
       <path id="DejaVuSans-44" d="M 1259 4147 
L 1259 519 
L 2022 519 
Q 2988 519 3436 956 
Q 3884 1394 3884 2338 
Q 3884 3275 3436 3711 
Q 2988 4147 2022 4147 
L 1259 4147 
z
M 628 4666 
L 1925 4666 
Q 3281 4666 3915 4102 
Q 4550 3538 4550 2338 
Q 4550 1131 3912 565 
Q 3275 0 1925 0 
L 628 0 
L 628 4666 
z
" transform="scale(0.015625)"/>
       <path id="DejaVuSans-69" d="M 603 3500 
L 1178 3500 
L 1178 0 
L 603 0 
L 603 3500 
z
M 603 4863 
L 1178 4863 
L 1178 4134 
L 603 4134 
L 603 4863 
z
" transform="scale(0.015625)"/>
       <path id="DejaVuSans-73" d="M 2834 3397 
L 2834 2853 
Q 2591 2978 2328 3040 
Q 2066 3103 1784 3103 
Q 1356 3103 1142 2972 
Q 928 2841 928 2578 
Q 928 2378 1081 2264 
Q 1234 2150 1697 2047 
L 1894 2003 
Q 2506 1872 2764 1633 
Q 3022 1394 3022 966 
Q 3022 478 2636 193 
Q 2250 -91 1575 -91 
Q 1294 -91 989 -36 
Q 684 19 347 128 
L 347 722 
Q 666 556 975 473 
Q 1284 391 1588 391 
Q 1994 391 2212 530 
Q 2431 669 2431 922 
Q 2431 1156 2273 1281 
Q 2116 1406 1581 1522 
L 1381 1569 
Q 847 1681 609 1914 
Q 372 2147 372 2553 
Q 372 3047 722 3315 
Q 1072 3584 1716 3584 
Q 2034 3584 2315 3537 
Q 2597 3491 2834 3397 
z
" transform="scale(0.015625)"/>
       <path id="DejaVuSans-74" d="M 1172 4494 
L 1172 3500 
L 2356 3500 
L 2356 3053 
L 1172 3053 
L 1172 1153 
Q 1172 725 1289 603 
Q 1406 481 1766 481 
L 2356 481 
L 2356 0 
L 1766 0 
Q 1100 0 847 248 
Q 594 497 594 1153 
L 594 3053 
L 172 3053 
L 172 3500 
L 594 3500 
L 594 4494 
L 1172 4494 
z
" transform="scale(0.015625)"/>
       <path id="DejaVuSans-61" d="M 2194 1759 
Q 1497 1759 1228 1600 
Q 959 1441 959 1056 
Q 959 750 1161 570 
Q 1363 391 1709 391 
Q 2188 391 2477 730 
Q 2766 1069 2766 1631 
L 2766 1759 
L 2194 1759 
z
M 3341 1997 
L 3341 0 
L 2766 0 
L 2766 531 
Q 2569 213 2275 61 
Q 1981 -91 1556 -91 
Q 1019 -91 701 211 
Q 384 513 384 1019 
Q 384 1609 779 1909 
Q 1175 2209 1959 2209 
L 2766 2209 
L 2766 2266 
Q 2766 2663 2505 2880 
Q 2244 3097 1772 3097 
Q 1472 3097 1187 3025 
Q 903 2953 641 2809 
L 641 3341 
Q 956 3463 1253 3523 
Q 1550 3584 1831 3584 
Q 2591 3584 2966 3190 
Q 3341 2797 3341 1997 
z
" transform="scale(0.015625)"/>
       <path id="DejaVuSans-6e" d="M 3513 2113 
L 3513 0 
L 2938 0 
L 2938 2094 
Q 2938 2591 2744 2837 
Q 2550 3084 2163 3084 
Q 1697 3084 1428 2787 
Q 1159 2491 1159 1978 
L 1159 0 
L 581 0 
L 581 3500 
L 1159 3500 
L 1159 2956 
Q 1366 3272 1645 3428 
Q 1925 3584 2291 3584 
Q 2894 3584 3203 3211 
Q 3513 2838 3513 2113 
z
" transform="scale(0.015625)"/>
       <path id="DejaVuSans-63" d="M 3122 3366 
L 3122 2828 
Q 2878 2963 2633 3030 
Q 2388 3097 2138 3097 
Q 1578 3097 1268 2742 
Q 959 2388 959 1747 
Q 959 1106 1268 751 
Q 1578 397 2138 397 
Q 2388 397 2633 464 
Q 2878 531 3122 666 
L 3122 134 
Q 2881 22 2623 -34 
Q 2366 -91 2075 -91 
Q 1284 -91 818 406 
Q 353 903 353 1747 
Q 353 2603 823 3093 
Q 1294 3584 2113 3584 
Q 2378 3584 2631 3529 
Q 2884 3475 3122 3366 
z
" transform="scale(0.015625)"/>
       <path id="DejaVuSans-65" d="M 3597 1894 
L 3597 1613 
L 953 1613 
Q 991 1019 1311 708 
Q 1631 397 2203 397 
Q 2534 397 2845 478 
Q 3156 559 3463 722 
L 3463 178 
Q 3153 47 2828 -22 
Q 2503 -91 2169 -91 
Q 1331 -91 842 396 
Q 353 884 353 1716 
Q 353 2575 817 3079 
Q 1281 3584 2069 3584 
Q 2775 3584 3186 3129 
Q 3597 2675 3597 1894 
z
M 3022 2063 
Q 3016 2534 2758 2815 
Q 2500 3097 2075 3097 
Q 1594 3097 1305 2825 
Q 1016 2553 972 2059 
L 3022 2063 
z
" transform="scale(0.015625)"/>
       <path id="DejaVuSans-20" transform="scale(0.015625)"/>
       <path id="DejaVuSans-66" d="M 2375 4863 
L 2375 4384 
L 1825 4384 
Q 1516 4384 1395 4259 
Q 1275 4134 1275 3809 
L 1275 3500 
L 2222 3500 
L 2222 3053 
L 1275 3053 
L 1275 0 
L 697 0 
L 697 3053 
L 147 3053 
L 147 3500 
L 697 3500 
L 697 3744 
Q 697 4328 969 4595 
Q 1241 4863 1831 4863 
L 2375 4863 
z
" transform="scale(0.015625)"/>
       <path id="DejaVuSans-72" d="M 2631 2963 
Q 2534 3019 2420 3045 
Q 2306 3072 2169 3072 
Q 1681 3072 1420 2755 
Q 1159 2438 1159 1844 
L 1159 0 
L 581 0 
L 581 3500 
L 1159 3500 
L 1159 2956 
Q 1341 3275 1631 3429 
Q 1922 3584 2338 3584 
Q 2397 3584 2469 3576 
Q 2541 3569 2628 3553 
L 2631 2963 
z
" transform="scale(0.015625)"/>
       <path id="DejaVuSans-6f" d="M 1959 3097 
Q 1497 3097 1228 2736 
Q 959 2375 959 1747 
Q 959 1119 1226 758 
Q 1494 397 1959 397 
Q 2419 397 2687 759 
Q 2956 1122 2956 1747 
Q 2956 2369 2687 2733 
Q 2419 3097 1959 3097 
z
M 1959 3584 
Q 2709 3584 3137 3096 
Q 3566 2609 3566 1747 
Q 3566 888 3137 398 
Q 2709 -91 1959 -91 
Q 1206 -91 779 398 
Q 353 888 353 1747 
Q 353 2609 779 3096 
Q 1206 3584 1959 3584 
z
" transform="scale(0.015625)"/>
       <path id="DejaVuSans-6d" d="M 3328 2828 
Q 3544 3216 3844 3400 
Q 4144 3584 4550 3584 
Q 5097 3584 5394 3201 
Q 5691 2819 5691 2113 
L 5691 0 
L 5113 0 
L 5113 2094 
Q 5113 2597 4934 2840 
Q 4756 3084 4391 3084 
Q 3944 3084 3684 2787 
Q 3425 2491 3425 1978 
L 3425 0 
L 2847 0 
L 2847 2094 
Q 2847 2600 2669 2842 
Q 2491 3084 2119 3084 
Q 1678 3084 1418 2786 
Q 1159 2488 1159 1978 
L 1159 0 
L 581 0 
L 581 3500 
L 1159 3500 
L 1159 2956 
Q 1356 3278 1631 3431 
Q 1906 3584 2284 3584 
Q 2666 3584 2933 3390 
Q 3200 3197 3328 2828 
z
" transform="scale(0.015625)"/>
       <path id="DejaVuSans-54" d="M -19 4666 
L 3928 4666 
L 3928 4134 
L 2272 4134 
L 2272 0 
L 1638 0 
L 1638 4134 
L -19 4134 
L -19 4666 
z
" transform="scale(0.015625)"/>
       <path id="DejaVuSans-75" d="M 544 1381 
L 544 3500 
L 1119 3500 
L 1119 1403 
Q 1119 906 1312 657 
Q 1506 409 1894 409 
Q 2359 409 2629 706 
Q 2900 1003 2900 1516 
L 2900 3500 
L 3475 3500 
L 3475 0 
L 2900 0 
L 2900 538 
Q 2691 219 2414 64 
Q 2138 -91 1772 -91 
Q 1169 -91 856 284 
Q 544 659 544 1381 
z
M 1991 3584 
L 1991 3584 
z
" transform="scale(0.015625)"/>
       <path id="DejaVuSans-5b" d="M 550 4863 
L 1875 4863 
L 1875 4416 
L 1125 4416 
L 1125 -397 
L 1875 -397 
L 1875 -844 
L 550 -844 
L 550 4863 
z
" transform="scale(0.015625)"/>
       <path id="DejaVuSans-5d" d="M 1947 4863 
L 1947 -844 
L 622 -844 
L 622 -397 
L 1369 -397 
L 1369 4416 
L 622 4416 
L 622 4863 
L 1947 4863 
z
" transform="scale(0.015625)"/>
      </defs>
      <use xlink:href="#DejaVuSans-44"/>
      <use xlink:href="#DejaVuSans-69" transform="translate(77.001953 0)"/>
      <use xlink:href="#DejaVuSans-73" transform="translate(104.785156 0)"/>
      <use xlink:href="#DejaVuSans-74" transform="translate(156.884766 0)"/>
      <use xlink:href="#DejaVuSans-61" transform="translate(196.09375 0)"/>
      <use xlink:href="#DejaVuSans-6e" transform="translate(257.373047 0)"/>
      <use xlink:href="#DejaVuSans-63" transform="translate(320.751953 0)"/>
      <use xlink:href="#DejaVuSans-65" transform="translate(375.732422 0)"/>
      <use xlink:href="#DejaVuSans-20" transform="translate(437.255859 0)"/>
      <use xlink:href="#DejaVuSans-66" transform="translate(469.042969 0)"/>
      <use xlink:href="#DejaVuSans-72" transform="translate(504.248047 0)"/>
      <use xlink:href="#DejaVuSans-6f" transform="translate(543.111328 0)"/>
      <use xlink:href="#DejaVuSans-6d" transform="translate(604.292969 0)"/>
      <use xlink:href="#DejaVuSans-20" transform="translate(701.705078 0)"/>
      <use xlink:href="#DejaVuSans-54" transform="translate(733.492188 0)"/>
      <use xlink:href="#DejaVuSans-65" transform="translate(777.576172 0)"/>
      <use xlink:href="#DejaVuSans-72" transform="translate(839.099609 0)"/>
      <use xlink:href="#DejaVuSans-6d" transform="translate(878.462891 0)"/>
      <use xlink:href="#DejaVuSans-69" transform="translate(975.875 0)"/>
      <use xlink:href="#DejaVuSans-6e" transform="translate(1003.658203 0)"/>
      <use xlink:href="#DejaVuSans-75" transform="translate(1067.037109 0)"/>
      <use xlink:href="#DejaVuSans-73" transform="translate(1130.416016 0)"/>
      <use xlink:href="#DejaVuSans-20" transform="translate(1182.515625 0)"/>
      <use xlink:href="#DejaVuSans-5b" transform="translate(1214.302734 0)"/>
      <use xlink:href="#DejaVuSans-6e" transform="translate(1253.316406 0)"/>
      <use xlink:href="#DejaVuSans-74" transform="translate(1316.695312 0)"/>
      <use xlink:href="#DejaVuSans-5d" transform="translate(1355.904297 0)"/>
     </g>
    </g>
   </g>
   <g id="matplotlib.axis_2">
    <g id="ytick_1">
     <g id="line2d_15">
      <path d="M 50.14375 439.07267 
L 553.53375 439.07267 
" clip-path="url(#pf8e04368ea)" style="fill: none; stroke-dasharray: 2.96,1.28; stroke-dashoffset: 0; stroke: #b0b0b0; stroke-opacity: 0.6; stroke-width: 0.8"/>
     </g>
     <g id="line2d_16">
      <defs>
       <path id="m26af96e911" d="M 0 0 
L -3.5 0 
" style="stroke: #000000; stroke-width: 0.8"/>
      </defs>
      <g>
       <use xlink:href="#m26af96e911" x="50.14375" y="439.07267" style="stroke: #000000; stroke-width: 0.8"/>
      </g>
     </g>
     <g id="text_9">
      <!-- 0.0 -->
      <g transform="translate(27.240625 442.871889) scale(0.1 -0.1)">
       <defs>
        <path id="DejaVuSans-2e" d="M 684 794 
L 1344 794 
L 1344 0 
L 684 0 
L 684 794 
z
" transform="scale(0.015625)"/>
       </defs>
       <use xlink:href="#DejaVuSans-30"/>
       <use xlink:href="#DejaVuSans-2e" transform="translate(63.623047 0)"/>
       <use xlink:href="#DejaVuSans-30" transform="translate(95.410156 0)"/>
      </g>
     </g>
    </g>
    <g id="ytick_2">
     <g id="line2d_17">
      <path d="M 50.14375 382.469386 
L 553.53375 382.469386 
" clip-path="url(#pf8e04368ea)" style="fill: none; stroke-dasharray: 2.96,1.28; stroke-dashoffset: 0; stroke: #b0b0b0; stroke-opacity: 0.6; stroke-width: 0.8"/>
     </g>
     <g id="line2d_18">
      <g>
       <use xlink:href="#m26af96e911" x="50.14375" y="382.469386" style="stroke: #000000; stroke-width: 0.8"/>
      </g>
     </g>
     <g id="text_10">
      <!-- 2.5 -->
      <g transform="translate(27.240625 386.268605) scale(0.1 -0.1)">
       <defs>
        <path id="DejaVuSans-35" d="M 691 4666 
L 3169 4666 
L 3169 4134 
L 1269 4134 
L 1269 2991 
Q 1406 3038 1543 3061 
Q 1681 3084 1819 3084 
Q 2600 3084 3056 2656 
Q 3513 2228 3513 1497 
Q 3513 744 3044 326 
Q 2575 -91 1722 -91 
Q 1428 -91 1123 -41 
Q 819 9 494 109 
L 494 744 
Q 775 591 1075 516 
Q 1375 441 1709 441 
Q 2250 441 2565 725 
Q 2881 1009 2881 1497 
Q 2881 1984 2565 2268 
Q 2250 2553 1709 2553 
Q 1456 2553 1204 2497 
Q 953 2441 691 2322 
L 691 4666 
z
" transform="scale(0.015625)"/>
       </defs>
       <use xlink:href="#DejaVuSans-32"/>
       <use xlink:href="#DejaVuSans-2e" transform="translate(63.623047 0)"/>
       <use xlink:href="#DejaVuSans-35" transform="translate(95.410156 0)"/>
      </g>
     </g>
    </g>
    <g id="ytick_3">
     <g id="line2d_19">
      <path d="M 50.14375 325.866102 
L 553.53375 325.866102 
" clip-path="url(#pf8e04368ea)" style="fill: none; stroke-dasharray: 2.96,1.28; stroke-dashoffset: 0; stroke: #b0b0b0; stroke-opacity: 0.6; stroke-width: 0.8"/>
     </g>
     <g id="line2d_20">
      <g>
       <use xlink:href="#m26af96e911" x="50.14375" y="325.866102" style="stroke: #000000; stroke-width: 0.8"/>
      </g>
     </g>
     <g id="text_11">
      <!-- 5.0 -->
      <g transform="translate(27.240625 329.66532) scale(0.1 -0.1)">
       <use xlink:href="#DejaVuSans-35"/>
       <use xlink:href="#DejaVuSans-2e" transform="translate(63.623047 0)"/>
       <use xlink:href="#DejaVuSans-30" transform="translate(95.410156 0)"/>
      </g>
     </g>
    </g>
    <g id="ytick_4">
     <g id="line2d_21">
      <path d="M 50.14375 269.262817 
L 553.53375 269.262817 
" clip-path="url(#pf8e04368ea)" style="fill: none; stroke-dasharray: 2.96,1.28; stroke-dashoffset: 0; stroke: #b0b0b0; stroke-opacity: 0.6; stroke-width: 0.8"/>
     </g>
     <g id="line2d_22">
      <g>
       <use xlink:href="#m26af96e911" x="50.14375" y="269.262817" style="stroke: #000000; stroke-width: 0.8"/>
      </g>
     </g>
     <g id="text_12">
      <!-- 7.5 -->
      <g transform="translate(27.240625 273.062036) scale(0.1 -0.1)">
       <defs>
        <path id="DejaVuSans-37" d="M 525 4666 
L 3525 4666 
L 3525 4397 
L 1831 0 
L 1172 0 
L 2766 4134 
L 525 4134 
L 525 4666 
z
" transform="scale(0.015625)"/>
       </defs>
       <use xlink:href="#DejaVuSans-37"/>
       <use xlink:href="#DejaVuSans-2e" transform="translate(63.623047 0)"/>
       <use xlink:href="#DejaVuSans-35" transform="translate(95.410156 0)"/>
      </g>
     </g>
    </g>
    <g id="ytick_5">
     <g id="line2d_23">
      <path d="M 50.14375 212.659533 
L 553.53375 212.659533 
" clip-path="url(#pf8e04368ea)" style="fill: none; stroke-dasharray: 2.96,1.28; stroke-dashoffset: 0; stroke: #b0b0b0; stroke-opacity: 0.6; stroke-width: 0.8"/>
     </g>
     <g id="line2d_24">
      <g>
       <use xlink:href="#m26af96e911" x="50.14375" y="212.659533" style="stroke: #000000; stroke-width: 0.8"/>
      </g>
     </g>
     <g id="text_13">
      <!-- 10.0 -->
      <g transform="translate(20.878125 216.458752) scale(0.1 -0.1)">
       <use xlink:href="#DejaVuSans-31"/>
       <use xlink:href="#DejaVuSans-30" transform="translate(63.623047 0)"/>
       <use xlink:href="#DejaVuSans-2e" transform="translate(127.246094 0)"/>
       <use xlink:href="#DejaVuSans-30" transform="translate(159.033203 0)"/>
      </g>
     </g>
    </g>
    <g id="ytick_6">
     <g id="line2d_25">
      <path d="M 50.14375 156.056249 
L 553.53375 156.056249 
" clip-path="url(#pf8e04368ea)" style="fill: none; stroke-dasharray: 2.96,1.28; stroke-dashoffset: 0; stroke: #b0b0b0; stroke-opacity: 0.6; stroke-width: 0.8"/>
     </g>
     <g id="line2d_26">
      <g>
       <use xlink:href="#m26af96e911" x="50.14375" y="156.056249" style="stroke: #000000; stroke-width: 0.8"/>
      </g>
     </g>
     <g id="text_14">
      <!-- 12.5 -->
      <g transform="translate(20.878125 159.855467) scale(0.1 -0.1)">
       <use xlink:href="#DejaVuSans-31"/>
       <use xlink:href="#DejaVuSans-32" transform="translate(63.623047 0)"/>
       <use xlink:href="#DejaVuSans-2e" transform="translate(127.246094 0)"/>
       <use xlink:href="#DejaVuSans-35" transform="translate(159.033203 0)"/>
      </g>
     </g>
    </g>
    <g id="ytick_7">
     <g id="line2d_27">
      <path d="M 50.14375 99.452964 
L 553.53375 99.452964 
" clip-path="url(#pf8e04368ea)" style="fill: none; stroke-dasharray: 2.96,1.28; stroke-dashoffset: 0; stroke: #b0b0b0; stroke-opacity: 0.6; stroke-width: 0.8"/>
     </g>
     <g id="line2d_28">
      <g>
       <use xlink:href="#m26af96e911" x="50.14375" y="99.452964" style="stroke: #000000; stroke-width: 0.8"/>
      </g>
     </g>
     <g id="text_15">
      <!-- 15.0 -->
      <g transform="translate(20.878125 103.252183) scale(0.1 -0.1)">
       <use xlink:href="#DejaVuSans-31"/>
       <use xlink:href="#DejaVuSans-35" transform="translate(63.623047 0)"/>
       <use xlink:href="#DejaVuSans-2e" transform="translate(127.246094 0)"/>
       <use xlink:href="#DejaVuSans-30" transform="translate(159.033203 0)"/>
      </g>
     </g>
    </g>
    <g id="ytick_8">
     <g id="line2d_29">
      <path d="M 50.14375 42.84968 
L 553.53375 42.84968 
" clip-path="url(#pf8e04368ea)" style="fill: none; stroke-dasharray: 2.96,1.28; stroke-dashoffset: 0; stroke: #b0b0b0; stroke-opacity: 0.6; stroke-width: 0.8"/>
     </g>
     <g id="line2d_30">
      <g>
       <use xlink:href="#m26af96e911" x="50.14375" y="42.84968" style="stroke: #000000; stroke-width: 0.8"/>
      </g>
     </g>
     <g id="text_16">
      <!-- 17.5 -->
      <g transform="translate(20.878125 46.648899) scale(0.1 -0.1)">
       <use xlink:href="#DejaVuSans-31"/>
       <use xlink:href="#DejaVuSans-37" transform="translate(63.623047 0)"/>
       <use xlink:href="#DejaVuSans-2e" transform="translate(127.246094 0)"/>
       <use xlink:href="#DejaVuSans-35" transform="translate(159.033203 0)"/>
      </g>
     </g>
    </g>
    <g id="text_17">
     <!-- Average Cumulative Count -->
     <g transform="translate(14.798438 307.715) rotate(-90) scale(0.1 -0.1)">
      <defs>
       <path id="DejaVuSans-41" d="M 2188 4044 
L 1331 1722 
L 3047 1722 
L 2188 4044 
z
M 1831 4666 
L 2547 4666 
L 4325 0 
L 3669 0 
L 3244 1197 
L 1141 1197 
L 716 0 
L 50 0 
L 1831 4666 
z
" transform="scale(0.015625)"/>
       <path id="DejaVuSans-76" d="M 191 3500 
L 800 3500 
L 1894 563 
L 2988 3500 
L 3597 3500 
L 2284 0 
L 1503 0 
L 191 3500 
z
" transform="scale(0.015625)"/>
       <path id="DejaVuSans-67" d="M 2906 1791 
Q 2906 2416 2648 2759 
Q 2391 3103 1925 3103 
Q 1463 3103 1205 2759 
Q 947 2416 947 1791 
Q 947 1169 1205 825 
Q 1463 481 1925 481 
Q 2391 481 2648 825 
Q 2906 1169 2906 1791 
z
M 3481 434 
Q 3481 -459 3084 -895 
Q 2688 -1331 1869 -1331 
Q 1566 -1331 1297 -1286 
Q 1028 -1241 775 -1147 
L 775 -588 
Q 1028 -725 1275 -790 
Q 1522 -856 1778 -856 
Q 2344 -856 2625 -561 
Q 2906 -266 2906 331 
L 2906 616 
Q 2728 306 2450 153 
Q 2172 0 1784 0 
Q 1141 0 747 490 
Q 353 981 353 1791 
Q 353 2603 747 3093 
Q 1141 3584 1784 3584 
Q 2172 3584 2450 3431 
Q 2728 3278 2906 2969 
L 2906 3500 
L 3481 3500 
L 3481 434 
z
" transform="scale(0.015625)"/>
       <path id="DejaVuSans-43" d="M 4122 4306 
L 4122 3641 
Q 3803 3938 3442 4084 
Q 3081 4231 2675 4231 
Q 1875 4231 1450 3742 
Q 1025 3253 1025 2328 
Q 1025 1406 1450 917 
Q 1875 428 2675 428 
Q 3081 428 3442 575 
Q 3803 722 4122 1019 
L 4122 359 
Q 3791 134 3420 21 
Q 3050 -91 2638 -91 
Q 1578 -91 968 557 
Q 359 1206 359 2328 
Q 359 3453 968 4101 
Q 1578 4750 2638 4750 
Q 3056 4750 3426 4639 
Q 3797 4528 4122 4306 
z
" transform="scale(0.015625)"/>
       <path id="DejaVuSans-6c" d="M 603 4863 
L 1178 4863 
L 1178 0 
L 603 0 
L 603 4863 
z
" transform="scale(0.015625)"/>
      </defs>
      <use xlink:href="#DejaVuSans-41"/>
      <use xlink:href="#DejaVuSans-76" transform="translate(62.533203 0)"/>
      <use xlink:href="#DejaVuSans-65" transform="translate(121.712891 0)"/>
      <use xlink:href="#DejaVuSans-72" transform="translate(183.236328 0)"/>
      <use xlink:href="#DejaVuSans-61" transform="translate(224.349609 0)"/>
      <use xlink:href="#DejaVuSans-67" transform="translate(285.628906 0)"/>
      <use xlink:href="#DejaVuSans-65" transform="translate(349.105469 0)"/>
      <use xlink:href="#DejaVuSans-20" transform="translate(410.628906 0)"/>
      <use xlink:href="#DejaVuSans-43" transform="translate(442.416016 0)"/>
      <use xlink:href="#DejaVuSans-75" transform="translate(512.240234 0)"/>
      <use xlink:href="#DejaVuSans-6d" transform="translate(575.619141 0)"/>
      <use xlink:href="#DejaVuSans-75" transform="translate(673.03125 0)"/>
      <use xlink:href="#DejaVuSans-6c" transform="translate(736.410156 0)"/>
      <use xlink:href="#DejaVuSans-61" transform="translate(764.193359 0)"/>
      <use xlink:href="#DejaVuSans-74" transform="translate(825.472656 0)"/>
      <use xlink:href="#DejaVuSans-69" transform="translate(864.681641 0)"/>
      <use xlink:href="#DejaVuSans-76" transform="translate(892.464844 0)"/>
      <use xlink:href="#DejaVuSans-65" transform="translate(951.644531 0)"/>
      <use xlink:href="#DejaVuSans-20" transform="translate(1013.167969 0)"/>
      <use xlink:href="#DejaVuSans-43" transform="translate(1044.955078 0)"/>
      <use xlink:href="#DejaVuSans-6f" transform="translate(1114.779297 0)"/>
      <use xlink:href="#DejaVuSans-75" transform="translate(1175.960938 0)"/>
      <use xlink:href="#DejaVuSans-6e" transform="translate(1239.339844 0)"/>
      <use xlink:href="#DejaVuSans-74" transform="translate(1302.71875 0)"/>
     </g>
    </g>
   </g>
   <g id="line2d_31">
    <path d="M 73.025114 438.38657 
L 73.063252 438.38657 
L 73.215808 436.328269 
L 73.406501 434.269968 
L 73.44464 434.269968 
L 73.597195 432.211666 
L 73.787889 430.496415 
L 73.978583 428.095064 
L 74.169277 426.379813 
L 74.359971 423.978461 
L 74.512526 422.60626 
L 74.70322 420.204909 
L 74.970192 417.117457 
L 75.084608 415.402206 
L 75.351579 412.314754 
L 75.504135 410.256453 
L 75.732967 407.855102 
L 76.038078 405.1107 
L 76.228772 402.023248 
L 76.381327 400.307997 
L 76.419465 400.307997 
L 76.648298 396.191394 
L 76.724576 396.191394 
L 76.991547 393.446993 
L 77.144102 392.074792 
L 77.449213 387.958189 
L 77.487351 387.958189 
L 77.639907 386.242938 
L 77.8306 383.498537 
L 78.021294 381.097185 
L 78.364543 376.637533 
L 78.898486 371.148729 
L 79.203597 367.375177 
L 79.470568 364.287725 
L 79.73754 361.200273 
L 79.851956 359.485022 
L 80.195205 355.025369 
L 80.538454 351.251817 
L 80.881703 346.792164 
L 81.148675 343.704713 
L 81.453785 339.93116 
L 81.758895 336.500658 
L 82.178422 330.668805 
L 82.712365 325.180001 
L 82.979336 322.092549 
L 83.246308 319.005098 
L 83.589557 314.545445 
L 83.742112 312.487144 
L 83.970945 310.085792 
L 84.009084 310.085792 
L 84.314194 306.31224 
L 84.619304 302.881738 
L 84.848137 299.451236 
L 85.076969 296.706834 
L 85.420219 291.904131 
L 85.458357 291.904131 
L 85.763468 288.130579 
L 86.373688 281.955675 
L 86.564382 279.211273 
L 86.755076 277.152972 
L 86.94577 274.751621 
L 87.136464 272.693319 
L 87.289019 270.291968 
L 87.89924 264.117064 
L 88.166211 261.029612 
L 88.20435 261.029612 
L 88.318766 259.314361 
L 88.547599 256.56996 
L 88.585738 256.56996 
L 88.776432 254.168608 
L 89.005264 251.767257 
L 89.157819 249.708956 
L 89.310375 247.993704 
L 89.348513 247.993704 
L 89.691762 243.191002 
L 89.729901 243.191002 
L 90.07315 238.731349 
L 90.111289 238.731349 
L 90.454538 233.928646 
L 90.492677 233.928646 
L 90.759648 230.498144 
L 90.797787 230.498144 
L 90.988481 228.782893 
L 91.064759 227.753742 
L 91.255453 225.352391 
L 91.446146 223.294089 
L 91.598702 221.235788 
L 91.827534 219.520537 
L 91.980089 216.776136 
L 92.170783 215.746985 
L 92.208922 215.746985 
L 92.361477 213.345633 
L 92.59031 211.630382 
L 92.742865 208.885981 
L 93.200531 204.083278 
L 93.429363 201.681926 
L 93.467502 201.681926 
L 93.658196 199.623625 
L 93.734474 199.623625 
L 93.925167 196.879223 
L 94.726082 188.989069 
L 94.954915 186.244667 
L 94.993053 186.244667 
L 95.221886 183.843316 
L 95.298164 182.471115 
L 95.565135 179.383663 
L 95.603274 179.383663 
L 95.793968 176.982311 
L 95.984662 175.26706 
L 96.022801 175.26706 
L 96.327911 171.493508 
L 96.36605 171.493508 
L 96.556744 169.092157 
L 96.747437 167.376906 
L 96.823715 166.004705 
L 97.090687 162.917253 
L 97.128825 162.917253 
L 97.205103 161.545052 
L 97.472074 158.4576 
L 97.510213 158.4576 
L 98.082295 152.625747 
L 98.23485 151.253546 
L 98.272989 151.253546 
L 98.463683 148.852194 
L 98.654377 147.136943 
L 98.883209 144.392542 
L 99.035765 143.363391 
L 100.179928 133.757985 
L 100.218067 133.757985 
L 101.858035 119.692927 
L 101.896173 119.692927 
L 102.086867 117.291575 
L 103.002198 109.744471 
L 103.040337 109.744471 
L 103.231031 108.02922 
L 103.26917 108.02922 
L 103.57428 105.970918 
L 103.612419 105.970918 
L 103.917529 103.912617 
L 103.993806 103.912617 
L 104.146362 102.540416 
L 104.1845 102.540416 
L 104.527749 100.139065 
L 104.565888 100.139065 
L 104.718443 98.766864 
L 104.83286 98.766864 
L 105.061692 97.394663 
L 105.099831 97.394663 
L 105.290525 96.365512 
L 105.328664 96.365512 
L 105.671913 93.964161 
L 105.710052 93.964161 
L 106.015162 91.90586 
L 106.09144 91.90586 
L 106.243995 90.876709 
L 106.434689 89.847558 
L 106.472827 89.847558 
L 106.625383 88.818408 
L 106.663521 88.818408 
L 106.816077 88.132307 
L 106.854215 88.132307 
L 107.00677 87.103157 
L 107.044909 87.103157 
L 107.197464 86.074006 
L 107.235603 86.074006 
L 107.388158 85.044856 
L 107.578852 84.015705 
L 107.616991 84.015705 
L 107.807685 82.300454 
L 107.96024 81.614353 
L 107.998379 81.614353 
L 108.150934 80.585203 
L 108.303489 79.899102 
L 108.379767 79.899102 
L 108.532322 78.869952 
L 108.761155 78.869952 
L 108.875571 78.183851 
L 108.91371 78.183851 
L 109.028126 77.840801 
L 109.142542 77.840801 
L 109.256959 76.811651 
L 109.295097 76.811651 
L 109.409514 76.4686 
L 109.52393 76.4686 
L 109.676485 75.43945 
L 109.790902 75.0964 
L 109.905318 75.0964 
L 110.057873 74.410299 
L 110.286706 74.410299 
L 110.401122 74.067249 
L 110.668094 74.067249 
L 110.820649 73.381148 
L 111.011343 73.381148 
L 111.240175 72.008948 
L 111.392731 72.008948 
L 111.583425 70.979797 
L 111.774118 70.979797 
L 112.002951 69.607596 
L 112.155506 69.607596 
L 112.384339 68.235395 
L 112.536894 68.235395 
L 112.765727 66.863195 
L 112.918282 66.863195 
L 113.147115 65.490994 
L 113.29967 65.490994 
L 113.490364 64.461843 
L 113.642919 64.461843 
L 113.871752 63.089642 
L 114.062446 63.089642 
L 114.253139 62.060492 
L 114.481972 62.060492 
L 114.634527 61.374391 
L 114.86336 61.374391 
L 115.015915 60.688291 
L 115.244748 60.688291 
L 115.397303 60.00219 
L 115.587997 60.00219 
L 115.702413 59.65914 
L 115.740552 59.65914 
L 115.854968 59.31609 
L 115.969385 59.31609 
L 116.083801 58.62999 
L 116.12194 58.62999 
L 116.236356 58.286939 
L 116.350773 58.286939 
L 116.465189 57.600839 
L 116.503328 57.600839 
L 116.617744 57.257789 
L 116.73216 57.257789 
L 116.846577 56.914738 
L 117.113548 56.914738 
L 117.227965 56.571688 
L 117.266103 56.571688 
L 117.38052 56.228638 
L 117.647491 56.228638 
L 117.761908 55.885588 
L 117.914463 55.885588 
L 118.067018 55.199487 
L 118.333989 55.199487 
L 118.486545 54.513387 
L 118.6391 54.513387 
L 118.829794 53.484236 
L 119.020487 53.484236 
L 119.211181 52.455086 
L 119.401875 52.455086 
L 119.516292 52.112036 
L 119.55443 52.112036 
L 119.668847 51.768985 
L 119.783263 51.768985 
L 119.973957 50.739835 
L 120.164651 50.739835 
L 120.279067 50.396785 
L 120.622316 50.396785 
L 120.736733 50.053734 
L 121.003704 50.053734 
L 121.118121 49.710684 
L 121.232537 49.710684 
L 121.346953 49.367634 
L 121.385092 49.367634 
L 121.499508 49.024584 
L 121.76648 49.024584 
L 121.880896 48.681534 
L 122.224145 48.681534 
L 122.376701 47.995433 
L 122.605533 47.995433 
L 122.758088 47.309333 
L 122.986921 47.309333 
L 123.139476 46.623232 
L 123.368309 46.623232 
L 123.520864 45.937132 
L 123.749697 45.937132 
L 123.902252 45.251031 
L 124.207362 45.251031 
L 124.321779 44.907981 
L 124.474334 44.907981 
L 124.626889 44.221881 
L 124.855721 44.221881 
L 125.008277 43.53578 
L 125.694775 43.53578 
L 125.809191 43.19273 
L 126.076163 43.19273 
L 126.190579 42.84968 
L 126.45755 42.84968 
L 126.571967 42.50663 
L 129.317959 42.50663 
L 129.432376 42.16358 
L 530.652386 42.16358 
L 530.652386 42.16358 
" clip-path="url(#pf8e04368ea)" style="fill: none; stroke: #006ba4; stroke-width: 2; stroke-linecap: square"/>
   </g>
   <g id="line2d_32">
    <path d="M 73.025114 439.07267 
L 75.9618 439.07267 
L 76.076216 438.72962 
L 76.877131 438.72962 
L 76.991547 438.38657 
L 77.029686 438.38657 
L 77.144102 438.04352 
L 78.631515 438.04352 
L 78.745931 437.70047 
L 79.012903 437.70047 
L 79.127319 437.357419 
L 79.394291 437.357419 
L 79.508707 437.014369 
L 83.932806 437.014369 
L 84.047222 436.671319 
L 84.314194 436.671319 
L 84.42861 436.328269 
L 86.297411 436.328269 
L 86.411827 435.985219 
L 87.327158 435.985219 
L 87.441574 435.642168 
L 87.822962 435.642168 
L 87.937378 435.299118 
L 88.20435 435.299118 
L 88.318766 434.956068 
L 90.568954 434.956068 
L 90.683371 434.613018 
L 91.484285 434.613018 
L 91.598702 434.269968 
L 92.094506 434.269968 
L 92.2852 433.240817 
L 92.971698 433.240817 
L 93.124253 432.554716 
L 93.353086 432.554716 
L 93.505641 431.868616 
L 93.734474 431.868616 
L 93.84889 431.525566 
L 93.887029 431.525566 
L 94.001445 431.182516 
L 94.115861 431.182516 
L 94.230278 430.839465 
L 94.649804 430.839465 
L 94.764221 430.496415 
L 95.984662 430.496415 
L 96.137217 429.810315 
L 96.404188 429.810315 
L 96.518605 429.467265 
L 97.548352 429.467265 
L 97.662768 429.124214 
L 97.700907 429.124214 
L 97.815323 428.781164 
L 99.226458 428.781164 
L 99.340875 428.438114 
L 99.417152 428.438114 
L 99.531569 428.095064 
L 99.607846 428.095064 
L 99.722263 427.752014 
L 100.065512 427.752014 
L 100.218067 427.065913 
L 100.561316 427.065913 
L 100.675732 426.722863 
L 100.942704 426.722863 
L 101.05712 426.379813 
L 101.324092 426.379813 
L 101.438508 426.036763 
L 101.591063 426.036763 
L 101.705479 425.693712 
L 102.811504 425.693712 
L 102.925921 425.350662 
L 103.231031 425.350662 
L 103.345447 425.007612 
L 103.57428 425.007612 
L 103.726835 424.321512 
L 103.955668 424.321512 
L 104.070084 423.978461 
L 104.337056 423.978461 
L 104.451472 423.635411 
L 104.718443 423.635411 
L 104.83286 423.292361 
L 105.023554 423.292361 
L 105.13797 422.949311 
L 105.786329 422.949311 
L 105.900746 422.60626 
L 106.167717 422.60626 
L 106.282134 422.26321 
L 106.549105 422.26321 
L 106.70166 421.57711 
L 106.930493 421.57711 
L 107.083048 420.891009 
L 108.837432 420.891009 
L 108.951848 420.547959 
L 109.21882 420.547959 
L 109.333236 420.204909 
L 110.401122 420.204909 
L 110.515539 419.861859 
L 530.652386 419.861859 
L 530.652386 419.861859 
" clip-path="url(#pf8e04368ea)" style="fill: none; stroke: #ff800e; stroke-width: 2; stroke-linecap: square"/>
   </g>
   <g id="line2d_33">
    <path d="M 73.025114 439.07267 
L 530.652386 439.07267 
L 530.652386 439.07267 
" clip-path="url(#pf8e04368ea)" style="fill: none; stroke: #ababab; stroke-width: 2; stroke-linecap: square"/>
   </g>
   <g id="line2d_34">
    <path d="M 73.025114 439.07267 
L 491.865243 439.07267 
L 491.979659 436.808539 
L 492.246631 436.808539 
L 492.361047 434.544408 
L 493.2001 434.544408 
L 493.314517 432.280276 
L 493.581488 432.280276 
L 493.695904 430.016145 
L 493.962876 430.016145 
L 494.077292 427.752014 
L 494.344264 427.752014 
L 494.45868 425.487882 
L 494.725652 425.487882 
L 494.840068 423.223751 
L 495.297733 423.223751 
L 495.41215 420.959619 
L 495.679121 420.959619 
L 495.793538 418.695488 
L 496.060509 418.695488 
L 496.174925 416.431357 
L 496.441897 416.431357 
L 496.556313 414.167225 
L 496.823285 414.167225 
L 496.937701 411.903094 
L 497.776754 411.903094 
L 497.891171 409.638963 
L 498.158142 409.638963 
L 498.272558 407.374831 
L 498.53953 407.374831 
L 498.653946 405.1107 
L 498.920918 405.1107 
L 499.035334 402.846568 
L 499.302306 402.846568 
L 499.416722 400.582437 
L 499.683694 400.582437 
L 499.79811 398.318306 
L 500.065081 398.318306 
L 500.179498 396.054174 
L 500.446469 396.054174 
L 500.560886 393.790043 
L 500.827857 393.790043 
L 500.942273 391.525912 
L 501.209245 391.525912 
L 501.323661 389.26178 
L 501.590633 389.26178 
L 501.705049 386.997649 
L 501.972021 386.997649 
L 502.086437 384.733517 
L 502.353408 384.733517 
L 502.467825 382.469386 
L 502.734796 382.469386 
L 502.849213 380.205255 
L 503.116184 380.205255 
L 503.2306 377.941123 
L 503.497572 377.941123 
L 503.611988 375.676992 
L 503.87896 375.676992 
L 503.993376 373.412861 
L 504.260348 373.412861 
L 504.374764 371.148729 
L 504.641735 371.148729 
L 504.756152 368.884598 
L 505.023123 368.884598 
L 505.13754 366.620466 
L 505.404511 366.620466 
L 505.518928 364.356335 
L 505.785899 364.356335 
L 505.900315 362.092204 
L 506.167287 362.092204 
L 506.281703 359.828072 
L 506.548675 359.828072 
L 506.663091 357.563941 
L 506.930063 357.563941 
L 507.044479 355.29981 
L 507.31145 355.29981 
L 507.425867 353.035678 
L 507.692838 353.035678 
L 507.807255 350.771547 
L 508.455614 350.771547 
L 508.57003 348.507415 
L 508.837002 348.507415 
L 508.951418 346.243284 
L 509.21839 346.243284 
L 509.332806 343.979153 
L 509.599777 343.979153 
L 509.714194 341.715021 
L 509.981165 341.715021 
L 510.095582 339.45089 
L 510.362553 339.45089 
L 510.476969 337.186759 
L 511.506717 337.186759 
L 511.621133 334.922627 
L 511.888104 334.922627 
L 512.002521 332.658496 
L 512.269492 332.658496 
L 512.383909 330.394364 
L 512.65088 330.394364 
L 512.765297 328.130233 
L 513.032268 328.130233 
L 513.146684 325.866102 
L 513.413656 325.866102 
L 513.528072 323.60197 
L 513.795044 323.60197 
L 513.90946 321.337839 
L 514.176432 321.337839 
L 514.290848 319.073708 
L 514.557819 319.073708 
L 514.672236 316.809576 
L 514.939207 316.809576 
L 515.053624 314.545445 
L 515.320595 314.545445 
L 515.435011 312.281313 
L 515.701983 312.281313 
L 515.816399 310.017182 
L 516.083371 310.017182 
L 516.197787 307.753051 
L 516.464759 307.753051 
L 516.579175 305.488919 
L 516.846146 305.488919 
L 516.960563 303.224788 
L 517.151257 303.224788 
L 517.303812 298.696525 
L 517.532645 298.696525 
L 517.6852 294.168263 
L 517.914032 294.168263 
L 518.066588 289.64 
L 518.29542 289.64 
L 518.409837 287.375868 
L 518.562392 287.375868 
L 518.714947 282.847606 
L 519.058196 282.847606 
L 519.210751 278.319343 
L 519.439584 278.319343 
L 519.592139 273.79108 
L 519.820972 273.79108 
L 520.011666 266.998686 
L 520.202359 266.998686 
L 520.393053 260.206292 
L 520.583747 260.206292 
L 520.774441 253.413898 
L 520.965135 253.413898 
L 521.155829 246.621504 
L 521.346523 246.621504 
L 521.537217 239.82911 
L 521.727911 239.82911 
L 521.918605 233.036715 
L 522.109299 233.036715 
L 522.299993 226.244321 
L 522.490687 226.244321 
L 522.68138 219.451927 
L 522.872074 219.451927 
L 523.062768 212.659533 
L 523.253462 212.659533 
L 523.444156 205.867139 
L 523.63485 205.867139 
L 523.825544 199.074745 
L 524.016238 199.074745 
L 524.206932 192.282351 
L 524.397626 192.282351 
L 524.58832 185.489957 
L 524.779014 185.489957 
L 524.969708 178.697562 
L 525.160401 178.697562 
L 525.351095 171.905168 
L 525.541789 171.905168 
L 525.732483 165.112774 
L 525.923177 165.112774 
L 526.075732 160.584511 
L 526.304565 160.584511 
L 526.495259 153.792117 
L 526.685953 153.792117 
L 526.876647 146.999723 
L 527.067341 146.999723 
L 527.258035 140.207329 
L 527.448728 140.207329 
L 527.639422 133.414935 
L 527.830116 133.414935 
L 528.02081 126.622541 
L 528.211504 126.622541 
L 528.364059 122.094278 
L 528.478476 122.094278 
L 528.631031 117.566015 
L 528.66917 117.566015 
L 528.783586 115.301884 
L 528.859864 115.301884 
L 529.012419 110.773621 
L 529.050557 110.773621 
L 529.164974 108.50949 
L 529.241251 108.50949 
L 529.393806 103.981227 
L 529.431945 103.981227 
L 529.546362 101.717096 
L 529.622639 101.717096 
L 529.775194 97.188833 
L 529.813333 97.188833 
L 529.927749 94.924702 
L 530.004027 94.924702 
L 530.118443 92.66057 
L 530.194721 92.66057 
L 530.309137 90.396439 
L 530.652386 90.396439 
L 530.652386 90.396439 
" clip-path="url(#pf8e04368ea)" style="fill: none; stroke-dasharray: 7.4,3.2; stroke-dashoffset: 0; stroke: #006ba4; stroke-width: 2"/>
   </g>
   <g id="line2d_35">
    <path d="M 73.025114 439.07267 
L 508.074226 439.07267 
L 508.188642 436.808539 
L 510.743941 436.808539 
L 510.858357 434.544408 
L 530.652386 434.544408 
L 530.652386 434.544408 
" clip-path="url(#pf8e04368ea)" style="fill: none; stroke-dasharray: 7.4,3.2; stroke-dashoffset: 0; stroke: #ff800e; stroke-width: 2"/>
   </g>
   <g id="line2d_36">
    <path d="M 73.025114 439.07267 
L 530.652386 439.07267 
L 530.652386 439.07267 
" clip-path="url(#pf8e04368ea)" style="fill: none; stroke-dasharray: 7.4,3.2; stroke-dashoffset: 0; stroke: #ababab; stroke-width: 2"/>
   </g>
   <g id="patch_3">
    <path d="M 50.14375 458.918125 
L 50.14375 22.318125 
" style="fill: none; stroke: #000000; stroke-width: 0.8; stroke-linejoin: miter; stroke-linecap: square"/>
   </g>
   <g id="patch_4">
    <path d="M 553.53375 458.918125 
L 553.53375 22.318125 
" style="fill: none; stroke: #000000; stroke-width: 0.8; stroke-linejoin: miter; stroke-linecap: square"/>
   </g>
   <g id="patch_5">
    <path d="M 50.14375 458.918125 
L 553.53375 458.918125 
" style="fill: none; stroke: #000000; stroke-width: 0.8; stroke-linejoin: miter; stroke-linecap: square"/>
   </g>
   <g id="patch_6">
    <path d="M 50.14375 22.318125 
L 553.53375 22.318125 
" style="fill: none; stroke: #000000; stroke-width: 0.8; stroke-linejoin: miter; stroke-linecap: square"/>
   </g>
   <g id="text_18">
    <!-- Telomeric Motif Distribution: A_trimmerana -->
    <g transform="translate(155.299063 16.318125) scale(0.12 -0.12)">
     <defs>
      <path id="DejaVuSans-Bold-54" d="M 31 4666 
L 4331 4666 
L 4331 3756 
L 2784 3756 
L 2784 0 
L 1581 0 
L 1581 3756 
L 31 3756 
L 31 4666 
z
" transform="scale(0.015625)"/>
      <path id="DejaVuSans-Bold-65" d="M 4031 1759 
L 4031 1441 
L 1416 1441 
Q 1456 1047 1700 850 
Q 1944 653 2381 653 
Q 2734 653 3104 758 
Q 3475 863 3866 1075 
L 3866 213 
Q 3469 63 3072 -14 
Q 2675 -91 2278 -91 
Q 1328 -91 801 392 
Q 275 875 275 1747 
Q 275 2603 792 3093 
Q 1309 3584 2216 3584 
Q 3041 3584 3536 3087 
Q 4031 2591 4031 1759 
z
M 2881 2131 
Q 2881 2450 2695 2645 
Q 2509 2841 2209 2841 
Q 1884 2841 1681 2658 
Q 1478 2475 1428 2131 
L 2881 2131 
z
" transform="scale(0.015625)"/>
      <path id="DejaVuSans-Bold-6c" d="M 538 4863 
L 1656 4863 
L 1656 0 
L 538 0 
L 538 4863 
z
" transform="scale(0.015625)"/>
      <path id="DejaVuSans-Bold-6f" d="M 2203 2784 
Q 1831 2784 1636 2517 
Q 1441 2250 1441 1747 
Q 1441 1244 1636 976 
Q 1831 709 2203 709 
Q 2569 709 2762 976 
Q 2956 1244 2956 1747 
Q 2956 2250 2762 2517 
Q 2569 2784 2203 2784 
z
M 2203 3584 
Q 3106 3584 3614 3096 
Q 4122 2609 4122 1747 
Q 4122 884 3614 396 
Q 3106 -91 2203 -91 
Q 1297 -91 786 396 
Q 275 884 275 1747 
Q 275 2609 786 3096 
Q 1297 3584 2203 3584 
z
" transform="scale(0.015625)"/>
      <path id="DejaVuSans-Bold-6d" d="M 3781 2919 
Q 3994 3244 4286 3414 
Q 4578 3584 4928 3584 
Q 5531 3584 5847 3212 
Q 6163 2841 6163 2131 
L 6163 0 
L 5038 0 
L 5038 1825 
Q 5041 1866 5042 1909 
Q 5044 1953 5044 2034 
Q 5044 2406 4934 2573 
Q 4825 2741 4581 2741 
Q 4263 2741 4089 2478 
Q 3916 2216 3909 1719 
L 3909 0 
L 2784 0 
L 2784 1825 
Q 2784 2406 2684 2573 
Q 2584 2741 2328 2741 
Q 2006 2741 1831 2477 
Q 1656 2213 1656 1722 
L 1656 0 
L 531 0 
L 531 3500 
L 1656 3500 
L 1656 2988 
Q 1863 3284 2130 3434 
Q 2397 3584 2719 3584 
Q 3081 3584 3359 3409 
Q 3638 3234 3781 2919 
z
" transform="scale(0.015625)"/>
      <path id="DejaVuSans-Bold-72" d="M 3138 2547 
Q 2991 2616 2845 2648 
Q 2700 2681 2553 2681 
Q 2122 2681 1889 2404 
Q 1656 2128 1656 1613 
L 1656 0 
L 538 0 
L 538 3500 
L 1656 3500 
L 1656 2925 
Q 1872 3269 2151 3426 
Q 2431 3584 2822 3584 
Q 2878 3584 2943 3579 
Q 3009 3575 3134 3559 
L 3138 2547 
z
" transform="scale(0.015625)"/>
      <path id="DejaVuSans-Bold-69" d="M 538 3500 
L 1656 3500 
L 1656 0 
L 538 0 
L 538 3500 
z
M 538 4863 
L 1656 4863 
L 1656 3950 
L 538 3950 
L 538 4863 
z
" transform="scale(0.015625)"/>
      <path id="DejaVuSans-Bold-63" d="M 3366 3391 
L 3366 2478 
Q 3138 2634 2908 2709 
Q 2678 2784 2431 2784 
Q 1963 2784 1702 2511 
Q 1441 2238 1441 1747 
Q 1441 1256 1702 982 
Q 1963 709 2431 709 
Q 2694 709 2930 787 
Q 3166 866 3366 1019 
L 3366 103 
Q 3103 6 2833 -42 
Q 2563 -91 2291 -91 
Q 1344 -91 809 395 
Q 275 881 275 1747 
Q 275 2613 809 3098 
Q 1344 3584 2291 3584 
Q 2566 3584 2833 3536 
Q 3100 3488 3366 3391 
z
" transform="scale(0.015625)"/>
      <path id="DejaVuSans-Bold-20" transform="scale(0.015625)"/>
      <path id="DejaVuSans-Bold-4d" d="M 588 4666 
L 2119 4666 
L 3181 2169 
L 4250 4666 
L 5778 4666 
L 5778 0 
L 4641 0 
L 4641 3413 
L 3566 897 
L 2803 897 
L 1728 3413 
L 1728 0 
L 588 0 
L 588 4666 
z
" transform="scale(0.015625)"/>
      <path id="DejaVuSans-Bold-74" d="M 1759 4494 
L 1759 3500 
L 2913 3500 
L 2913 2700 
L 1759 2700 
L 1759 1216 
Q 1759 972 1856 886 
Q 1953 800 2241 800 
L 2816 800 
L 2816 0 
L 1856 0 
Q 1194 0 917 276 
Q 641 553 641 1216 
L 641 2700 
L 84 2700 
L 84 3500 
L 641 3500 
L 641 4494 
L 1759 4494 
z
" transform="scale(0.015625)"/>
      <path id="DejaVuSans-Bold-66" d="M 2841 4863 
L 2841 4128 
L 2222 4128 
Q 1984 4128 1890 4042 
Q 1797 3956 1797 3744 
L 1797 3500 
L 2753 3500 
L 2753 2700 
L 1797 2700 
L 1797 0 
L 678 0 
L 678 2700 
L 122 2700 
L 122 3500 
L 678 3500 
L 678 3744 
Q 678 4316 997 4589 
Q 1316 4863 1984 4863 
L 2841 4863 
z
" transform="scale(0.015625)"/>
      <path id="DejaVuSans-Bold-44" d="M 1791 3756 
L 1791 909 
L 2222 909 
Q 2959 909 3348 1275 
Q 3738 1641 3738 2338 
Q 3738 3031 3350 3393 
Q 2963 3756 2222 3756 
L 1791 3756 
z
M 588 4666 
L 1856 4666 
Q 2919 4666 3439 4514 
Q 3959 4363 4331 4000 
Q 4659 3684 4818 3271 
Q 4978 2859 4978 2338 
Q 4978 1809 4818 1395 
Q 4659 981 4331 666 
Q 3956 303 3431 151 
Q 2906 0 1856 0 
L 588 0 
L 588 4666 
z
" transform="scale(0.015625)"/>
      <path id="DejaVuSans-Bold-73" d="M 3272 3391 
L 3272 2541 
Q 2913 2691 2578 2766 
Q 2244 2841 1947 2841 
Q 1628 2841 1473 2761 
Q 1319 2681 1319 2516 
Q 1319 2381 1436 2309 
Q 1553 2238 1856 2203 
L 2053 2175 
Q 2913 2066 3209 1816 
Q 3506 1566 3506 1031 
Q 3506 472 3093 190 
Q 2681 -91 1863 -91 
Q 1516 -91 1145 -36 
Q 775 19 384 128 
L 384 978 
Q 719 816 1070 734 
Q 1422 653 1784 653 
Q 2113 653 2278 743 
Q 2444 834 2444 1013 
Q 2444 1163 2330 1236 
Q 2216 1309 1875 1350 
L 1678 1375 
Q 931 1469 631 1722 
Q 331 1975 331 2491 
Q 331 3047 712 3315 
Q 1094 3584 1881 3584 
Q 2191 3584 2531 3537 
Q 2872 3491 3272 3391 
z
" transform="scale(0.015625)"/>
      <path id="DejaVuSans-Bold-62" d="M 2400 722 
Q 2759 722 2948 984 
Q 3138 1247 3138 1747 
Q 3138 2247 2948 2509 
Q 2759 2772 2400 2772 
Q 2041 2772 1848 2508 
Q 1656 2244 1656 1747 
Q 1656 1250 1848 986 
Q 2041 722 2400 722 
z
M 1656 2988 
Q 1888 3294 2169 3439 
Q 2450 3584 2816 3584 
Q 3463 3584 3878 3070 
Q 4294 2556 4294 1747 
Q 4294 938 3878 423 
Q 3463 -91 2816 -91 
Q 2450 -91 2169 54 
Q 1888 200 1656 506 
L 1656 0 
L 538 0 
L 538 4863 
L 1656 4863 
L 1656 2988 
z
" transform="scale(0.015625)"/>
      <path id="DejaVuSans-Bold-75" d="M 500 1363 
L 500 3500 
L 1625 3500 
L 1625 3150 
Q 1625 2866 1622 2436 
Q 1619 2006 1619 1863 
Q 1619 1441 1641 1255 
Q 1663 1069 1716 984 
Q 1784 875 1895 815 
Q 2006 756 2150 756 
Q 2500 756 2700 1025 
Q 2900 1294 2900 1772 
L 2900 3500 
L 4019 3500 
L 4019 0 
L 2900 0 
L 2900 506 
Q 2647 200 2364 54 
Q 2081 -91 1741 -91 
Q 1134 -91 817 281 
Q 500 653 500 1363 
z
" transform="scale(0.015625)"/>
      <path id="DejaVuSans-Bold-6e" d="M 4056 2131 
L 4056 0 
L 2931 0 
L 2931 347 
L 2931 1631 
Q 2931 2084 2911 2256 
Q 2891 2428 2841 2509 
Q 2775 2619 2662 2680 
Q 2550 2741 2406 2741 
Q 2056 2741 1856 2470 
Q 1656 2200 1656 1722 
L 1656 0 
L 538 0 
L 538 3500 
L 1656 3500 
L 1656 2988 
Q 1909 3294 2193 3439 
Q 2478 3584 2822 3584 
Q 3428 3584 3742 3212 
Q 4056 2841 4056 2131 
z
" transform="scale(0.015625)"/>
      <path id="DejaVuSans-Bold-3a" d="M 716 3500 
L 1844 3500 
L 1844 2291 
L 716 2291 
L 716 3500 
z
M 716 1209 
L 1844 1209 
L 1844 0 
L 716 0 
L 716 1209 
z
" transform="scale(0.015625)"/>
      <path id="DejaVuSans-Bold-41" d="M 3419 850 
L 1538 850 
L 1241 0 
L 31 0 
L 1759 4666 
L 3194 4666 
L 4922 0 
L 3713 0 
L 3419 850 
z
M 1838 1716 
L 3116 1716 
L 2478 3572 
L 1838 1716 
z
" transform="scale(0.015625)"/>
      <path id="DejaVuSans-Bold-5f" d="M 3200 -916 
L 3200 -1509 
L 0 -1509 
L 0 -916 
L 3200 -916 
z
" transform="scale(0.015625)"/>
      <path id="DejaVuSans-Bold-61" d="M 2106 1575 
Q 1756 1575 1579 1456 
Q 1403 1338 1403 1106 
Q 1403 894 1545 773 
Q 1688 653 1941 653 
Q 2256 653 2472 879 
Q 2688 1106 2688 1447 
L 2688 1575 
L 2106 1575 
z
M 3816 1997 
L 3816 0 
L 2688 0 
L 2688 519 
Q 2463 200 2181 54 
Q 1900 -91 1497 -91 
Q 953 -91 614 226 
Q 275 544 275 1050 
Q 275 1666 698 1953 
Q 1122 2241 2028 2241 
L 2688 2241 
L 2688 2328 
Q 2688 2594 2478 2717 
Q 2269 2841 1825 2841 
Q 1466 2841 1156 2769 
Q 847 2697 581 2553 
L 581 3406 
Q 941 3494 1303 3539 
Q 1666 3584 2028 3584 
Q 2975 3584 3395 3211 
Q 3816 2838 3816 1997 
z
" transform="scale(0.015625)"/>
     </defs>
     <use xlink:href="#DejaVuSans-Bold-54"/>
     <use xlink:href="#DejaVuSans-Bold-65" transform="translate(54.962891 0)"/>
     <use xlink:href="#DejaVuSans-Bold-6c" transform="translate(122.785156 0)"/>
     <use xlink:href="#DejaVuSans-Bold-6f" transform="translate(157.0625 0)"/>
     <use xlink:href="#DejaVuSans-Bold-6d" transform="translate(225.763672 0)"/>
     <use xlink:href="#DejaVuSans-Bold-65" transform="translate(329.962891 0)"/>
     <use xlink:href="#DejaVuSans-Bold-72" transform="translate(397.785156 0)"/>
     <use xlink:href="#DejaVuSans-Bold-69" transform="translate(447.101562 0)"/>
     <use xlink:href="#DejaVuSans-Bold-63" transform="translate(481.378906 0)"/>
     <use xlink:href="#DejaVuSans-Bold-20" transform="translate(540.65625 0)"/>
     <use xlink:href="#DejaVuSans-Bold-4d" transform="translate(575.470703 0)"/>
     <use xlink:href="#DejaVuSans-Bold-6f" transform="translate(674.982422 0)"/>
     <use xlink:href="#DejaVuSans-Bold-74" transform="translate(743.683594 0)"/>
     <use xlink:href="#DejaVuSans-Bold-69" transform="translate(791.486328 0)"/>
     <use xlink:href="#DejaVuSans-Bold-66" transform="translate(825.763672 0)"/>
     <use xlink:href="#DejaVuSans-Bold-20" transform="translate(869.269531 0)"/>
     <use xlink:href="#DejaVuSans-Bold-44" transform="translate(904.083984 0)"/>
     <use xlink:href="#DejaVuSans-Bold-69" transform="translate(987.091797 0)"/>
     <use xlink:href="#DejaVuSans-Bold-73" transform="translate(1021.369141 0)"/>
     <use xlink:href="#DejaVuSans-Bold-74" transform="translate(1080.890625 0)"/>
     <use xlink:href="#DejaVuSans-Bold-72" transform="translate(1128.693359 0)"/>
     <use xlink:href="#DejaVuSans-Bold-69" transform="translate(1178.009766 0)"/>
     <use xlink:href="#DejaVuSans-Bold-62" transform="translate(1212.287109 0)"/>
     <use xlink:href="#DejaVuSans-Bold-75" transform="translate(1283.869141 0)"/>
     <use xlink:href="#DejaVuSans-Bold-74" transform="translate(1355.060547 0)"/>
     <use xlink:href="#DejaVuSans-Bold-69" transform="translate(1402.863281 0)"/>
     <use xlink:href="#DejaVuSans-Bold-6f" transform="translate(1437.140625 0)"/>
     <use xlink:href="#DejaVuSans-Bold-6e" transform="translate(1505.841797 0)"/>
     <use xlink:href="#DejaVuSans-Bold-3a" transform="translate(1577.033203 0)"/>
     <use xlink:href="#DejaVuSans-Bold-20" transform="translate(1617.023438 0)"/>
     <use xlink:href="#DejaVuSans-Bold-41" transform="translate(1651.837891 0)"/>
     <use xlink:href="#DejaVuSans-Bold-5f" transform="translate(1729.230469 0)"/>
     <use xlink:href="#DejaVuSans-Bold-74" transform="translate(1779.230469 0)"/>
     <use xlink:href="#DejaVuSans-Bold-72" transform="translate(1827.033203 0)"/>
     <use xlink:href="#DejaVuSans-Bold-69" transform="translate(1876.349609 0)"/>
     <use xlink:href="#DejaVuSans-Bold-6d" transform="translate(1910.626953 0)"/>
     <use xlink:href="#DejaVuSans-Bold-6d" transform="translate(2014.826172 0)"/>
     <use xlink:href="#DejaVuSans-Bold-65" transform="translate(2119.025391 0)"/>
     <use xlink:href="#DejaVuSans-Bold-72" transform="translate(2186.847656 0)"/>
     <use xlink:href="#DejaVuSans-Bold-61" transform="translate(2236.164062 0)"/>
     <use xlink:href="#DejaVuSans-Bold-6e" transform="translate(2303.644531 0)"/>
     <use xlink:href="#DejaVuSans-Bold-61" transform="translate(2374.835938 0)"/>
    </g>
   </g>
   <g id="legend_1">
    <g id="patch_7">
     <path d="M 560.53375 133.065 
L 702.893125 133.065 
Q 704.893125 133.065 704.893125 131.065 
L 704.893125 29.318125 
Q 704.893125 27.318125 702.893125 27.318125 
L 560.53375 27.318125 
Q 558.53375 27.318125 558.53375 29.318125 
L 558.53375 131.065 
Q 558.53375 133.065 560.53375 133.065 
z
" style="fill: #ffffff; opacity: 0.8; stroke: #cccccc; stroke-linejoin: miter"/>
    </g>
    <g id="text_19">
     <!-- Motifs &amp; Orientation -->
     <g transform="translate(581.32125 38.916562) scale(0.1 -0.1)">
      <defs>
       <path id="DejaVuSans-4d" d="M 628 4666 
L 1569 4666 
L 2759 1491 
L 3956 4666 
L 4897 4666 
L 4897 0 
L 4281 0 
L 4281 4097 
L 3078 897 
L 2444 897 
L 1241 4097 
L 1241 0 
L 628 0 
L 628 4666 
z
" transform="scale(0.015625)"/>
       <path id="DejaVuSans-26" d="M 1556 2509 
Q 1272 2256 1139 2004 
Q 1006 1753 1006 1478 
Q 1006 1022 1337 719 
Q 1669 416 2169 416 
Q 2466 416 2725 514 
Q 2984 613 3213 813 
L 1556 2509 
z
M 1997 2859 
L 3584 1234 
Q 3769 1513 3872 1830 
Q 3975 2147 3994 2503 
L 4575 2503 
Q 4538 2091 4375 1687 
Q 4213 1284 3922 891 
L 4794 0 
L 4006 0 
L 3559 459 
Q 3234 181 2878 45 
Q 2522 -91 2113 -91 
Q 1359 -91 881 339 
Q 403 769 403 1441 
Q 403 1841 612 2192 
Q 822 2544 1241 2853 
Q 1091 3050 1012 3245 
Q 934 3441 934 3628 
Q 934 4134 1281 4442 
Q 1628 4750 2203 4750 
Q 2463 4750 2720 4694 
Q 2978 4638 3244 4525 
L 3244 3956 
Q 2972 4103 2725 4179 
Q 2478 4256 2266 4256 
Q 1938 4256 1733 4082 
Q 1528 3909 1528 3634 
Q 1528 3475 1620 3314 
Q 1713 3153 1997 2859 
z
" transform="scale(0.015625)"/>
       <path id="DejaVuSans-4f" d="M 2522 4238 
Q 1834 4238 1429 3725 
Q 1025 3213 1025 2328 
Q 1025 1447 1429 934 
Q 1834 422 2522 422 
Q 3209 422 3611 934 
Q 4013 1447 4013 2328 
Q 4013 3213 3611 3725 
Q 3209 4238 2522 4238 
z
M 2522 4750 
Q 3503 4750 4090 4092 
Q 4678 3434 4678 2328 
Q 4678 1225 4090 567 
Q 3503 -91 2522 -91 
Q 1538 -91 948 565 
Q 359 1222 359 2328 
Q 359 3434 948 4092 
Q 1538 4750 2522 4750 
z
" transform="scale(0.015625)"/>
      </defs>
      <use xlink:href="#DejaVuSans-4d"/>
      <use xlink:href="#DejaVuSans-6f" transform="translate(86.279297 0)"/>
      <use xlink:href="#DejaVuSans-74" transform="translate(147.460938 0)"/>
      <use xlink:href="#DejaVuSans-69" transform="translate(186.669922 0)"/>
      <use xlink:href="#DejaVuSans-66" transform="translate(214.453125 0)"/>
      <use xlink:href="#DejaVuSans-73" transform="translate(249.658203 0)"/>
      <use xlink:href="#DejaVuSans-20" transform="translate(301.757812 0)"/>
      <use xlink:href="#DejaVuSans-26" transform="translate(333.544922 0)"/>
      <use xlink:href="#DejaVuSans-20" transform="translate(411.523438 0)"/>
      <use xlink:href="#DejaVuSans-4f" transform="translate(443.310547 0)"/>
      <use xlink:href="#DejaVuSans-72" transform="translate(522.021484 0)"/>
      <use xlink:href="#DejaVuSans-69" transform="translate(563.134766 0)"/>
      <use xlink:href="#DejaVuSans-65" transform="translate(590.917969 0)"/>
      <use xlink:href="#DejaVuSans-6e" transform="translate(652.441406 0)"/>
      <use xlink:href="#DejaVuSans-74" transform="translate(715.820312 0)"/>
      <use xlink:href="#DejaVuSans-61" transform="translate(755.029297 0)"/>
      <use xlink:href="#DejaVuSans-74" transform="translate(816.308594 0)"/>
      <use xlink:href="#DejaVuSans-69" transform="translate(855.517578 0)"/>
      <use xlink:href="#DejaVuSans-6f" transform="translate(883.300781 0)"/>
      <use xlink:href="#DejaVuSans-6e" transform="translate(944.482422 0)"/>
     </g>
    </g>
    <g id="line2d_37">
     <path d="M 562.53375 50.094688 
L 572.53375 50.094688 
L 582.53375 50.094688 
" style="fill: none; stroke: #006ba4; stroke-width: 2; stroke-linecap: square"/>
    </g>
    <g id="text_20">
     <!-- CCCACACTAA (5' end) -->
     <g transform="translate(590.53375 53.594688) scale(0.1 -0.1)">
      <defs>
       <path id="DejaVuSans-28" d="M 1984 4856 
Q 1566 4138 1362 3434 
Q 1159 2731 1159 2009 
Q 1159 1288 1364 580 
Q 1569 -128 1984 -844 
L 1484 -844 
Q 1016 -109 783 600 
Q 550 1309 550 2009 
Q 550 2706 781 3412 
Q 1013 4119 1484 4856 
L 1984 4856 
z
" transform="scale(0.015625)"/>
       <path id="DejaVuSans-27" d="M 1147 4666 
L 1147 2931 
L 616 2931 
L 616 4666 
L 1147 4666 
z
" transform="scale(0.015625)"/>
       <path id="DejaVuSans-64" d="M 2906 2969 
L 2906 4863 
L 3481 4863 
L 3481 0 
L 2906 0 
L 2906 525 
Q 2725 213 2448 61 
Q 2172 -91 1784 -91 
Q 1150 -91 751 415 
Q 353 922 353 1747 
Q 353 2572 751 3078 
Q 1150 3584 1784 3584 
Q 2172 3584 2448 3432 
Q 2725 3281 2906 2969 
z
M 947 1747 
Q 947 1113 1208 752 
Q 1469 391 1925 391 
Q 2381 391 2643 752 
Q 2906 1113 2906 1747 
Q 2906 2381 2643 2742 
Q 2381 3103 1925 3103 
Q 1469 3103 1208 2742 
Q 947 2381 947 1747 
z
" transform="scale(0.015625)"/>
       <path id="DejaVuSans-29" d="M 513 4856 
L 1013 4856 
Q 1481 4119 1714 3412 
Q 1947 2706 1947 2009 
Q 1947 1309 1714 600 
Q 1481 -109 1013 -844 
L 513 -844 
Q 928 -128 1133 580 
Q 1338 1288 1338 2009 
Q 1338 2731 1133 3434 
Q 928 4138 513 4856 
z
" transform="scale(0.015625)"/>
      </defs>
      <use xlink:href="#DejaVuSans-43"/>
      <use xlink:href="#DejaVuSans-43" transform="translate(69.824219 0)"/>
      <use xlink:href="#DejaVuSans-43" transform="translate(139.648438 0)"/>
      <use xlink:href="#DejaVuSans-41" transform="translate(209.472656 0)"/>
      <use xlink:href="#DejaVuSans-43" transform="translate(276.130859 0)"/>
      <use xlink:href="#DejaVuSans-41" transform="translate(345.955078 0)"/>
      <use xlink:href="#DejaVuSans-43" transform="translate(412.613281 0)"/>
      <use xlink:href="#DejaVuSans-54" transform="translate(482.4375 0)"/>
      <use xlink:href="#DejaVuSans-41" transform="translate(535.771484 0)"/>
      <use xlink:href="#DejaVuSans-41" transform="translate(606.929688 0)"/>
      <use xlink:href="#DejaVuSans-20" transform="translate(675.337891 0)"/>
      <use xlink:href="#DejaVuSans-28" transform="translate(707.125 0)"/>
      <use xlink:href="#DejaVuSans-35" transform="translate(746.138672 0)"/>
      <use xlink:href="#DejaVuSans-27" transform="translate(809.761719 0)"/>
      <use xlink:href="#DejaVuSans-20" transform="translate(837.251953 0)"/>
      <use xlink:href="#DejaVuSans-65" transform="translate(869.039062 0)"/>
      <use xlink:href="#DejaVuSans-6e" transform="translate(930.5625 0)"/>
      <use xlink:href="#DejaVuSans-64" transform="translate(993.941406 0)"/>
      <use xlink:href="#DejaVuSans-29" transform="translate(1057.417969 0)"/>
     </g>
    </g>
    <g id="line2d_38">
     <path d="M 562.53375 64.772813 
L 572.53375 64.772813 
L 582.53375 64.772813 
" style="fill: none; stroke: #ff800e; stroke-width: 2; stroke-linecap: square"/>
    </g>
    <g id="text_21">
     <!-- CCAAAACTAA (5' end) -->
     <g transform="translate(590.53375 68.272813) scale(0.1 -0.1)">
      <use xlink:href="#DejaVuSans-43"/>
      <use xlink:href="#DejaVuSans-43" transform="translate(69.824219 0)"/>
      <use xlink:href="#DejaVuSans-41" transform="translate(139.648438 0)"/>
      <use xlink:href="#DejaVuSans-41" transform="translate(210.806641 0)"/>
      <use xlink:href="#DejaVuSans-41" transform="translate(281.964844 0)"/>
      <use xlink:href="#DejaVuSans-41" transform="translate(353.123047 0)"/>
      <use xlink:href="#DejaVuSans-43" transform="translate(419.78125 0)"/>
      <use xlink:href="#DejaVuSans-54" transform="translate(489.605469 0)"/>
      <use xlink:href="#DejaVuSans-41" transform="translate(542.939453 0)"/>
      <use xlink:href="#DejaVuSans-41" transform="translate(614.097656 0)"/>
      <use xlink:href="#DejaVuSans-20" transform="translate(682.505859 0)"/>
      <use xlink:href="#DejaVuSans-28" transform="translate(714.292969 0)"/>
      <use xlink:href="#DejaVuSans-35" transform="translate(753.306641 0)"/>
      <use xlink:href="#DejaVuSans-27" transform="translate(816.929688 0)"/>
      <use xlink:href="#DejaVuSans-20" transform="translate(844.419922 0)"/>
      <use xlink:href="#DejaVuSans-65" transform="translate(876.207031 0)"/>
      <use xlink:href="#DejaVuSans-6e" transform="translate(937.730469 0)"/>
      <use xlink:href="#DejaVuSans-64" transform="translate(1001.109375 0)"/>
      <use xlink:href="#DejaVuSans-29" transform="translate(1064.585938 0)"/>
     </g>
    </g>
    <g id="line2d_39">
     <path d="M 562.53375 79.450938 
L 572.53375 79.450938 
L 582.53375 79.450938 
" style="fill: none; stroke: #ababab; stroke-width: 2; stroke-linecap: square"/>
    </g>
    <g id="text_22">
     <!-- CTTCTAAA (5' end) -->
     <g transform="translate(590.53375 82.950938) scale(0.1 -0.1)">
      <use xlink:href="#DejaVuSans-43"/>
      <use xlink:href="#DejaVuSans-54" transform="translate(69.824219 0)"/>
      <use xlink:href="#DejaVuSans-54" transform="translate(129.158203 0)"/>
      <use xlink:href="#DejaVuSans-43" transform="translate(184.367188 0)"/>
      <use xlink:href="#DejaVuSans-54" transform="translate(254.191406 0)"/>
      <use xlink:href="#DejaVuSans-41" transform="translate(307.525391 0)"/>
      <use xlink:href="#DejaVuSans-41" transform="translate(378.683594 0)"/>
      <use xlink:href="#DejaVuSans-41" transform="translate(449.841797 0)"/>
      <use xlink:href="#DejaVuSans-20" transform="translate(518.25 0)"/>
      <use xlink:href="#DejaVuSans-28" transform="translate(550.037109 0)"/>
      <use xlink:href="#DejaVuSans-35" transform="translate(589.050781 0)"/>
      <use xlink:href="#DejaVuSans-27" transform="translate(652.673828 0)"/>
      <use xlink:href="#DejaVuSans-20" transform="translate(680.164062 0)"/>
      <use xlink:href="#DejaVuSans-65" transform="translate(711.951172 0)"/>
      <use xlink:href="#DejaVuSans-6e" transform="translate(773.474609 0)"/>
      <use xlink:href="#DejaVuSans-64" transform="translate(836.853516 0)"/>
      <use xlink:href="#DejaVuSans-29" transform="translate(900.330078 0)"/>
     </g>
    </g>
    <g id="line2d_40">
     <path d="M 562.53375 94.129063 
L 572.53375 94.129063 
L 582.53375 94.129063 
" style="fill: none; stroke-dasharray: 7.4,3.2; stroke-dashoffset: 0; stroke: #006ba4; stroke-width: 2"/>
    </g>
    <g id="text_23">
     <!-- TTAGTGTGGG (3' end) -->
     <g transform="translate(590.53375 97.629063) scale(0.1 -0.1)">
      <defs>
       <path id="DejaVuSans-47" d="M 3809 666 
L 3809 1919 
L 2778 1919 
L 2778 2438 
L 4434 2438 
L 4434 434 
Q 4069 175 3628 42 
Q 3188 -91 2688 -91 
Q 1594 -91 976 548 
Q 359 1188 359 2328 
Q 359 3472 976 4111 
Q 1594 4750 2688 4750 
Q 3144 4750 3555 4637 
Q 3966 4525 4313 4306 
L 4313 3634 
Q 3963 3931 3569 4081 
Q 3175 4231 2741 4231 
Q 1884 4231 1454 3753 
Q 1025 3275 1025 2328 
Q 1025 1384 1454 906 
Q 1884 428 2741 428 
Q 3075 428 3337 486 
Q 3600 544 3809 666 
z
" transform="scale(0.015625)"/>
       <path id="DejaVuSans-33" d="M 2597 2516 
Q 3050 2419 3304 2112 
Q 3559 1806 3559 1356 
Q 3559 666 3084 287 
Q 2609 -91 1734 -91 
Q 1441 -91 1130 -33 
Q 819 25 488 141 
L 488 750 
Q 750 597 1062 519 
Q 1375 441 1716 441 
Q 2309 441 2620 675 
Q 2931 909 2931 1356 
Q 2931 1769 2642 2001 
Q 2353 2234 1838 2234 
L 1294 2234 
L 1294 2753 
L 1863 2753 
Q 2328 2753 2575 2939 
Q 2822 3125 2822 3475 
Q 2822 3834 2567 4026 
Q 2313 4219 1838 4219 
Q 1578 4219 1281 4162 
Q 984 4106 628 3988 
L 628 4550 
Q 988 4650 1302 4700 
Q 1616 4750 1894 4750 
Q 2613 4750 3031 4423 
Q 3450 4097 3450 3541 
Q 3450 3153 3228 2886 
Q 3006 2619 2597 2516 
z
" transform="scale(0.015625)"/>
      </defs>
      <use xlink:href="#DejaVuSans-54"/>
      <use xlink:href="#DejaVuSans-54" transform="translate(59.333984 0)"/>
      <use xlink:href="#DejaVuSans-41" transform="translate(112.667969 0)"/>
      <use xlink:href="#DejaVuSans-47" transform="translate(179.326172 0)"/>
      <use xlink:href="#DejaVuSans-54" transform="translate(253.191406 0)"/>
      <use xlink:href="#DejaVuSans-47" transform="translate(314.275391 0)"/>
      <use xlink:href="#DejaVuSans-54" transform="translate(388.140625 0)"/>
      <use xlink:href="#DejaVuSans-47" transform="translate(449.224609 0)"/>
      <use xlink:href="#DejaVuSans-47" transform="translate(526.714844 0)"/>
      <use xlink:href="#DejaVuSans-47" transform="translate(604.205078 0)"/>
      <use xlink:href="#DejaVuSans-20" transform="translate(681.695312 0)"/>
      <use xlink:href="#DejaVuSans-28" transform="translate(713.482422 0)"/>
      <use xlink:href="#DejaVuSans-33" transform="translate(752.496094 0)"/>
      <use xlink:href="#DejaVuSans-27" transform="translate(816.119141 0)"/>
      <use xlink:href="#DejaVuSans-20" transform="translate(843.609375 0)"/>
      <use xlink:href="#DejaVuSans-65" transform="translate(875.396484 0)"/>
      <use xlink:href="#DejaVuSans-6e" transform="translate(936.919922 0)"/>
      <use xlink:href="#DejaVuSans-64" transform="translate(1000.298828 0)"/>
      <use xlink:href="#DejaVuSans-29" transform="translate(1063.775391 0)"/>
     </g>
    </g>
    <g id="line2d_41">
     <path d="M 562.53375 108.807188 
L 572.53375 108.807188 
L 582.53375 108.807188 
" style="fill: none; stroke-dasharray: 7.4,3.2; stroke-dashoffset: 0; stroke: #ff800e; stroke-width: 2"/>
    </g>
    <g id="text_24">
     <!-- TTAGTTTTGG (3' end) -->
     <g transform="translate(590.53375 112.307188) scale(0.1 -0.1)">
      <use xlink:href="#DejaVuSans-54"/>
      <use xlink:href="#DejaVuSans-54" transform="translate(59.333984 0)"/>
      <use xlink:href="#DejaVuSans-41" transform="translate(112.667969 0)"/>
      <use xlink:href="#DejaVuSans-47" transform="translate(179.326172 0)"/>
      <use xlink:href="#DejaVuSans-54" transform="translate(253.191406 0)"/>
      <use xlink:href="#DejaVuSans-54" transform="translate(312.525391 0)"/>
      <use xlink:href="#DejaVuSans-54" transform="translate(371.859375 0)"/>
      <use xlink:href="#DejaVuSans-54" transform="translate(431.193359 0)"/>
      <use xlink:href="#DejaVuSans-47" transform="translate(492.277344 0)"/>
      <use xlink:href="#DejaVuSans-47" transform="translate(569.767578 0)"/>
      <use xlink:href="#DejaVuSans-20" transform="translate(647.257812 0)"/>
      <use xlink:href="#DejaVuSans-28" transform="translate(679.044922 0)"/>
      <use xlink:href="#DejaVuSans-33" transform="translate(718.058594 0)"/>
      <use xlink:href="#DejaVuSans-27" transform="translate(781.681641 0)"/>
      <use xlink:href="#DejaVuSans-20" transform="translate(809.171875 0)"/>
      <use xlink:href="#DejaVuSans-65" transform="translate(840.958984 0)"/>
      <use xlink:href="#DejaVuSans-6e" transform="translate(902.482422 0)"/>
      <use xlink:href="#DejaVuSans-64" transform="translate(965.861328 0)"/>
      <use xlink:href="#DejaVuSans-29" transform="translate(1029.337891 0)"/>
     </g>
    </g>
    <g id="line2d_42">
     <path d="M 562.53375 123.485313 
L 572.53375 123.485313 
L 582.53375 123.485313 
" style="fill: none; stroke-dasharray: 7.4,3.2; stroke-dashoffset: 0; stroke: #ababab; stroke-width: 2"/>
    </g>
    <g id="text_25">
     <!-- TTTAGAAG (3' end) -->
     <g transform="translate(590.53375 126.985313) scale(0.1 -0.1)">
      <use xlink:href="#DejaVuSans-54"/>
      <use xlink:href="#DejaVuSans-54" transform="translate(59.333984 0)"/>
      <use xlink:href="#DejaVuSans-54" transform="translate(118.667969 0)"/>
      <use xlink:href="#DejaVuSans-41" transform="translate(172.001953 0)"/>
      <use xlink:href="#DejaVuSans-47" transform="translate(238.660156 0)"/>
      <use xlink:href="#DejaVuSans-41" transform="translate(316.150391 0)"/>
      <use xlink:href="#DejaVuSans-41" transform="translate(387.308594 0)"/>
      <use xlink:href="#DejaVuSans-47" transform="translate(453.966797 0)"/>
      <use xlink:href="#DejaVuSans-20" transform="translate(531.457031 0)"/>
      <use xlink:href="#DejaVuSans-28" transform="translate(563.244141 0)"/>
      <use xlink:href="#DejaVuSans-33" transform="translate(602.257812 0)"/>
      <use xlink:href="#DejaVuSans-27" transform="translate(665.880859 0)"/>
      <use xlink:href="#DejaVuSans-20" transform="translate(693.371094 0)"/>
      <use xlink:href="#DejaVuSans-65" transform="translate(725.158203 0)"/>
      <use xlink:href="#DejaVuSans-6e" transform="translate(786.681641 0)"/>
      <use xlink:href="#DejaVuSans-64" transform="translate(850.060547 0)"/>
      <use xlink:href="#DejaVuSans-29" transform="translate(913.537109 0)"/>
     </g>
    </g>
   </g>
  </g>
 </g>
 <defs>
  <clipPath id="pf8e04368ea">
   <rect x="50.14375" y="22.318125" width="503.39" height="436.6"/>
  </clipPath>
 </defs>
</svg>
