<?xml version="1.0" encoding="utf-8" standalone="no"?>
<!DOCTYPE svg PUBLIC "-//W3C//DTD SVG 1.1//EN"
  "http://www.w3.org/Graphics/SVG/1.1/DTD/svg11.dtd">
<svg xmlns:xlink="http://www.w3.org/1999/xlink" width="568.110313pt" height="423.99625pt" viewBox="0 0 568.110313 423.99625" xmlns="http://www.w3.org/2000/svg" version="1.1">
 <metadata>
  <rdf:RDF xmlns:dc="http://purl.org/dc/elements/1.1/" xmlns:cc="http://creativecommons.org/ns#" xmlns:rdf="http://www.w3.org/1999/02/22-rdf-syntax-ns#">
   <cc:Work>
    <dc:type rdf:resource="http://purl.org/dc/dcmitype/StillImage"/>
    <dc:date>2026-04-30T15:27:26.354174</dc:date>
    <dc:format>image/svg+xml</dc:format>
    <dc:creator>
     <cc:Agent>
      <dc:title>Matplotlib v3.10.6, https://matplotlib.org/</dc:title>
     </cc:Agent>
    </dc:creator>
   </cc:Work>
  </rdf:RDF>
 </metadata>
 <defs>
  <style type="text/css">*{stroke-linejoin: round; stroke-linecap: butt}</style>
 </defs>
 <g id="figure_1">
  <g id="patch_1">
   <path d="M 0 423.99625 
L 568.110313 423.99625 
L 568.110313 0 
L 0 0 
z
" style="fill: #ffffff"/>
  </g>
  <g id="axes_1">
   <g id="patch_2">
    <path d="M 46.965625 386.44 
L 432.905625 386.44 
L 432.905625 7.2 
L 46.965625 7.2 
z
" style="fill: #ffffff"/>
   </g>
   <g id="matplotlib.axis_1">
    <g id="xtick_1">
     <g id="line2d_1">
      <path d="M 64.508352 386.44 
L 64.508352 7.2 
" clip-path="url(#p0a92df4dcd)" style="fill: none; stroke-dasharray: 2.96,1.28; stroke-dashoffset: 0; stroke: #b0b0b0; stroke-opacity: 0.6; stroke-width: 0.8"/>
     </g>
     <g id="line2d_2">
      <defs>
       <path id="mc45a505ae4" d="M 0 0 
L 0 3.5 
" style="stroke: #000000; stroke-width: 0.8"/>
      </defs>
      <g>
       <use xlink:href="#mc45a505ae4" x="64.508352" y="386.44" style="stroke: #000000; stroke-width: 0.8"/>
      </g>
     </g>
     <g id="text_1">
      <!-- 0 -->
      <g transform="translate(61.327102 401.038437) scale(0.1 -0.1)">
       <defs>
        <path id="DejaVuSans-30" d="M 2034 4250 
Q 1547 4250 1301 3770 
Q 1056 3291 1056 2328 
Q 1056 1369 1301 889 
Q 1547 409 2034 409 
Q 2525 409 2770 889 
Q 3016 1369 3016 2328 
Q 3016 3291 2770 3770 
Q 2525 4250 2034 4250 
z
M 2034 4750 
Q 2819 4750 3233 4129 
Q 3647 3509 3647 2328 
Q 3647 1150 3233 529 
Q 2819 -91 2034 -91 
Q 1250 -91 836 529 
Q 422 1150 422 2328 
Q 422 3509 836 4129 
Q 1250 4750 2034 4750 
z
" transform="scale(0.015625)"/>
       </defs>
       <use xlink:href="#DejaVuSans-30"/>
      </g>
     </g>
    </g>
    <g id="xtick_2">
     <g id="line2d_3">
      <path d="M 108.370653 386.44 
L 108.370653 7.2 
" clip-path="url(#p0a92df4dcd)" style="fill: none; stroke-dasharray: 2.96,1.28; stroke-dashoffset: 0; stroke: #b0b0b0; stroke-opacity: 0.6; stroke-width: 0.8"/>
     </g>
     <g id="line2d_4">
      <g>
       <use xlink:href="#mc45a505ae4" x="108.370653" y="386.44" style="stroke: #000000; stroke-width: 0.8"/>
      </g>
     </g>
     <g id="text_2">
      <!-- 1000 -->
      <g transform="translate(95.645653 401.038437) scale(0.1 -0.1)">
       <defs>
        <path id="DejaVuSans-31" d="M 794 531 
L 1825 531 
L 1825 4091 
L 703 3866 
L 703 4441 
L 1819 4666 
L 2450 4666 
L 2450 531 
L 3481 531 
L 3481 0 
L 794 0 
L 794 531 
z
" transform="scale(0.015625)"/>
       </defs>
       <use xlink:href="#DejaVuSans-31"/>
       <use xlink:href="#DejaVuSans-30" transform="translate(63.623047 0)"/>
       <use xlink:href="#DejaVuSans-30" transform="translate(127.246094 0)"/>
       <use xlink:href="#DejaVuSans-30" transform="translate(190.869141 0)"/>
      </g>
     </g>
    </g>
    <g id="xtick_3">
     <g id="line2d_5">
      <path d="M 152.232954 386.44 
L 152.232954 7.2 
" clip-path="url(#p0a92df4dcd)" style="fill: none; stroke-dasharray: 2.96,1.28; stroke-dashoffset: 0; stroke: #b0b0b0; stroke-opacity: 0.6; stroke-width: 0.8"/>
     </g>
     <g id="line2d_6">
      <g>
       <use xlink:href="#mc45a505ae4" x="152.232954" y="386.44" style="stroke: #000000; stroke-width: 0.8"/>
      </g>
     </g>
     <g id="text_3">
      <!-- 2000 -->
      <g transform="translate(139.507954 401.038437) scale(0.1 -0.1)">
       <defs>
        <path id="DejaVuSans-32" d="M 1228 531 
L 3431 531 
L 3431 0 
L 469 0 
L 469 531 
Q 828 903 1448 1529 
Q 2069 2156 2228 2338 
Q 2531 2678 2651 2914 
Q 2772 3150 2772 3378 
Q 2772 3750 2511 3984 
Q 2250 4219 1831 4219 
Q 1534 4219 1204 4116 
Q 875 4013 500 3803 
L 500 4441 
Q 881 4594 1212 4672 
Q 1544 4750 1819 4750 
Q 2544 4750 2975 4387 
Q 3406 4025 3406 3419 
Q 3406 3131 3298 2873 
Q 3191 2616 2906 2266 
Q 2828 2175 2409 1742 
Q 1991 1309 1228 531 
z
" transform="scale(0.015625)"/>
       </defs>
       <use xlink:href="#DejaVuSans-32"/>
       <use xlink:href="#DejaVuSans-30" transform="translate(63.623047 0)"/>
       <use xlink:href="#DejaVuSans-30" transform="translate(127.246094 0)"/>
       <use xlink:href="#DejaVuSans-30" transform="translate(190.869141 0)"/>
      </g>
     </g>
    </g>
    <g id="xtick_4">
     <g id="line2d_7">
      <path d="M 196.095255 386.44 
L 196.095255 7.2 
" clip-path="url(#p0a92df4dcd)" style="fill: none; stroke-dasharray: 2.96,1.28; stroke-dashoffset: 0; stroke: #b0b0b0; stroke-opacity: 0.6; stroke-width: 0.8"/>
     </g>
     <g id="line2d_8">
      <g>
       <use xlink:href="#mc45a505ae4" x="196.095255" y="386.44" style="stroke: #000000; stroke-width: 0.8"/>
      </g>
     </g>
     <g id="text_4">
      <!-- 3000 -->
      <g transform="translate(183.370255 401.038437) scale(0.1 -0.1)">
       <defs>
        <path id="DejaVuSans-33" d="M 2597 2516 
Q 3050 2419 3304 2112 
Q 3559 1806 3559 1356 
Q 3559 666 3084 287 
Q 2609 -91 1734 -91 
Q 1441 -91 1130 -33 
Q 819 25 488 141 
L 488 750 
Q 750 597 1062 519 
Q 1375 441 1716 441 
Q 2309 441 2620 675 
Q 2931 909 2931 1356 
Q 2931 1769 2642 2001 
Q 2353 2234 1838 2234 
L 1294 2234 
L 1294 2753 
L 1863 2753 
Q 2328 2753 2575 2939 
Q 2822 3125 2822 3475 
Q 2822 3834 2567 4026 
Q 2313 4219 1838 4219 
Q 1578 4219 1281 4162 
Q 984 4106 628 3988 
L 628 4550 
Q 988 4650 1302 4700 
Q 1616 4750 1894 4750 
Q 2613 4750 3031 4423 
Q 3450 4097 3450 3541 
Q 3450 3153 3228 2886 
Q 3006 2619 2597 2516 
z
" transform="scale(0.015625)"/>
       </defs>
       <use xlink:href="#DejaVuSans-33"/>
       <use xlink:href="#DejaVuSans-30" transform="translate(63.623047 0)"/>
       <use xlink:href="#DejaVuSans-30" transform="translate(127.246094 0)"/>
       <use xlink:href="#DejaVuSans-30" transform="translate(190.869141 0)"/>
      </g>
     </g>
    </g>
    <g id="xtick_5">
     <g id="line2d_9">
      <path d="M 239.957556 386.44 
L 239.957556 7.2 
" clip-path="url(#p0a92df4dcd)" style="fill: none; stroke-dasharray: 2.96,1.28; stroke-dashoffset: 0; stroke: #b0b0b0; stroke-opacity: 0.6; stroke-width: 0.8"/>
     </g>
     <g id="line2d_10">
      <g>
       <use xlink:href="#mc45a505ae4" x="239.957556" y="386.44" style="stroke: #000000; stroke-width: 0.8"/>
      </g>
     </g>
     <g id="text_5">
      <!-- 4000 -->
      <g transform="translate(227.232556 401.038437) scale(0.1 -0.1)">
       <defs>
        <path id="DejaVuSans-34" d="M 2419 4116 
L 825 1625 
L 2419 1625 
L 2419 4116 
z
M 2253 4666 
L 3047 4666 
L 3047 1625 
L 3713 1625 
L 3713 1100 
L 3047 1100 
L 3047 0 
L 2419 0 
L 2419 1100 
L 313 1100 
L 313 1709 
L 2253 4666 
z
" transform="scale(0.015625)"/>
       </defs>
       <use xlink:href="#DejaVuSans-34"/>
       <use xlink:href="#DejaVuSans-30" transform="translate(63.623047 0)"/>
       <use xlink:href="#DejaVuSans-30" transform="translate(127.246094 0)"/>
       <use xlink:href="#DejaVuSans-30" transform="translate(190.869141 0)"/>
      </g>
     </g>
    </g>
    <g id="xtick_6">
     <g id="line2d_11">
      <path d="M 283.819857 386.44 
L 283.819857 7.2 
" clip-path="url(#p0a92df4dcd)" style="fill: none; stroke-dasharray: 2.96,1.28; stroke-dashoffset: 0; stroke: #b0b0b0; stroke-opacity: 0.6; stroke-width: 0.8"/>
     </g>
     <g id="line2d_12">
      <g>
       <use xlink:href="#mc45a505ae4" x="283.819857" y="386.44" style="stroke: #000000; stroke-width: 0.8"/>
      </g>
     </g>
     <g id="text_6">
      <!-- 5000 -->
      <g transform="translate(271.094857 401.038437) scale(0.1 -0.1)">
       <defs>
        <path id="DejaVuSans-35" d="M 691 4666 
L 3169 4666 
L 3169 4134 
L 1269 4134 
L 1269 2991 
Q 1406 3038 1543 3061 
Q 1681 3084 1819 3084 
Q 2600 3084 3056 2656 
Q 3513 2228 3513 1497 
Q 3513 744 3044 326 
Q 2575 -91 1722 -91 
Q 1428 -91 1123 -41 
Q 819 9 494 109 
L 494 744 
Q 775 591 1075 516 
Q 1375 441 1709 441 
Q 2250 441 2565 725 
Q 2881 1009 2881 1497 
Q 2881 1984 2565 2268 
Q 2250 2553 1709 2553 
Q 1456 2553 1204 2497 
Q 953 2441 691 2322 
L 691 4666 
z
" transform="scale(0.015625)"/>
       </defs>
       <use xlink:href="#DejaVuSans-35"/>
       <use xlink:href="#DejaVuSans-30" transform="translate(63.623047 0)"/>
       <use xlink:href="#DejaVuSans-30" transform="translate(127.246094 0)"/>
       <use xlink:href="#DejaVuSans-30" transform="translate(190.869141 0)"/>
      </g>
     </g>
    </g>
    <g id="xtick_7">
     <g id="line2d_13">
      <path d="M 327.682158 386.44 
L 327.682158 7.2 
" clip-path="url(#p0a92df4dcd)" style="fill: none; stroke-dasharray: 2.96,1.28; stroke-dashoffset: 0; stroke: #b0b0b0; stroke-opacity: 0.6; stroke-width: 0.8"/>
     </g>
     <g id="line2d_14">
      <g>
       <use xlink:href="#mc45a505ae4" x="327.682158" y="386.44" style="stroke: #000000; stroke-width: 0.8"/>
      </g>
     </g>
     <g id="text_7">
      <!-- 6000 -->
      <g transform="translate(314.957158 401.038437) scale(0.1 -0.1)">
       <defs>
        <path id="DejaVuSans-36" d="M 2113 2584 
Q 1688 2584 1439 2293 
Q 1191 2003 1191 1497 
Q 1191 994 1439 701 
Q 1688 409 2113 409 
Q 2538 409 2786 701 
Q 3034 994 3034 1497 
Q 3034 2003 2786 2293 
Q 2538 2584 2113 2584 
z
M 3366 4563 
L 3366 3988 
Q 3128 4100 2886 4159 
Q 2644 4219 2406 4219 
Q 1781 4219 1451 3797 
Q 1122 3375 1075 2522 
Q 1259 2794 1537 2939 
Q 1816 3084 2150 3084 
Q 2853 3084 3261 2657 
Q 3669 2231 3669 1497 
Q 3669 778 3244 343 
Q 2819 -91 2113 -91 
Q 1303 -91 875 529 
Q 447 1150 447 2328 
Q 447 3434 972 4092 
Q 1497 4750 2381 4750 
Q 2619 4750 2861 4703 
Q 3103 4656 3366 4563 
z
" transform="scale(0.015625)"/>
       </defs>
       <use xlink:href="#DejaVuSans-36"/>
       <use xlink:href="#DejaVuSans-30" transform="translate(63.623047 0)"/>
       <use xlink:href="#DejaVuSans-30" transform="translate(127.246094 0)"/>
       <use xlink:href="#DejaVuSans-30" transform="translate(190.869141 0)"/>
      </g>
     </g>
    </g>
    <g id="xtick_8">
     <g id="line2d_15">
      <path d="M 371.544459 386.44 
L 371.544459 7.2 
" clip-path="url(#p0a92df4dcd)" style="fill: none; stroke-dasharray: 2.96,1.28; stroke-dashoffset: 0; stroke: #b0b0b0; stroke-opacity: 0.6; stroke-width: 0.8"/>
     </g>
     <g id="line2d_16">
      <g>
       <use xlink:href="#mc45a505ae4" x="371.544459" y="386.44" style="stroke: #000000; stroke-width: 0.8"/>
      </g>
     </g>
     <g id="text_8">
      <!-- 7000 -->
      <g transform="translate(358.819459 401.038437) scale(0.1 -0.1)">
       <defs>
        <path id="DejaVuSans-37" d="M 525 4666 
L 3525 4666 
L 3525 4397 
L 1831 0 
L 1172 0 
L 2766 4134 
L 525 4134 
L 525 4666 
z
" transform="scale(0.015625)"/>
       </defs>
       <use xlink:href="#DejaVuSans-37"/>
       <use xlink:href="#DejaVuSans-30" transform="translate(63.623047 0)"/>
       <use xlink:href="#DejaVuSans-30" transform="translate(127.246094 0)"/>
       <use xlink:href="#DejaVuSans-30" transform="translate(190.869141 0)"/>
      </g>
     </g>
    </g>
    <g id="xtick_9">
     <g id="line2d_17">
      <path d="M 415.40676 386.44 
L 415.40676 7.2 
" clip-path="url(#p0a92df4dcd)" style="fill: none; stroke-dasharray: 2.96,1.28; stroke-dashoffset: 0; stroke: #b0b0b0; stroke-opacity: 0.6; stroke-width: 0.8"/>
     </g>
     <g id="line2d_18">
      <g>
       <use xlink:href="#mc45a505ae4" x="415.40676" y="386.44" style="stroke: #000000; stroke-width: 0.8"/>
      </g>
     </g>
     <g id="text_9">
      <!-- 8000 -->
      <g transform="translate(402.68176 401.038437) scale(0.1 -0.1)">
       <defs>
        <path id="DejaVuSans-38" d="M 2034 2216 
Q 1584 2216 1326 1975 
Q 1069 1734 1069 1313 
Q 1069 891 1326 650 
Q 1584 409 2034 409 
Q 2484 409 2743 651 
Q 3003 894 3003 1313 
Q 3003 1734 2745 1975 
Q 2488 2216 2034 2216 
z
M 1403 2484 
Q 997 2584 770 2862 
Q 544 3141 544 3541 
Q 544 4100 942 4425 
Q 1341 4750 2034 4750 
Q 2731 4750 3128 4425 
Q 3525 4100 3525 3541 
Q 3525 3141 3298 2862 
Q 3072 2584 2669 2484 
Q 3125 2378 3379 2068 
Q 3634 1759 3634 1313 
Q 3634 634 3220 271 
Q 2806 -91 2034 -91 
Q 1263 -91 848 271 
Q 434 634 434 1313 
Q 434 1759 690 2068 
Q 947 2378 1403 2484 
z
M 1172 3481 
Q 1172 3119 1398 2916 
Q 1625 2713 2034 2713 
Q 2441 2713 2670 2916 
Q 2900 3119 2900 3481 
Q 2900 3844 2670 4047 
Q 2441 4250 2034 4250 
Q 1625 4250 1398 4047 
Q 1172 3844 1172 3481 
z
" transform="scale(0.015625)"/>
       </defs>
       <use xlink:href="#DejaVuSans-38"/>
       <use xlink:href="#DejaVuSans-30" transform="translate(63.623047 0)"/>
       <use xlink:href="#DejaVuSans-30" transform="translate(127.246094 0)"/>
       <use xlink:href="#DejaVuSans-30" transform="translate(190.869141 0)"/>
      </g>
     </g>
    </g>
    <g id="text_10">
     <!-- Distance from terminus [nt] -->
     <g transform="translate(170.436406 414.716562) scale(0.1 -0.1)">
      <defs>
       <path id="DejaVuSans-44" d="M 1259 4147 
L 1259 519 
L 2022 519 
Q 2988 519 3436 956 
Q 3884 1394 3884 2338 
Q 3884 3275 3436 3711 
Q 2988 4147 2022 4147 
L 1259 4147 
z
M 628 4666 
L 1925 4666 
Q 3281 4666 3915 4102 
Q 4550 3538 4550 2338 
Q 4550 1131 3912 565 
Q 3275 0 1925 0 
L 628 0 
L 628 4666 
z
" transform="scale(0.015625)"/>
       <path id="DejaVuSans-69" d="M 603 3500 
L 1178 3500 
L 1178 0 
L 603 0 
L 603 3500 
z
M 603 4863 
L 1178 4863 
L 1178 4134 
L 603 4134 
L 603 4863 
z
" transform="scale(0.015625)"/>
       <path id="DejaVuSans-73" d="M 2834 3397 
L 2834 2853 
Q 2591 2978 2328 3040 
Q 2066 3103 1784 3103 
Q 1356 3103 1142 2972 
Q 928 2841 928 2578 
Q 928 2378 1081 2264 
Q 1234 2150 1697 2047 
L 1894 2003 
Q 2506 1872 2764 1633 
Q 3022 1394 3022 966 
Q 3022 478 2636 193 
Q 2250 -91 1575 -91 
Q 1294 -91 989 -36 
Q 684 19 347 128 
L 347 722 
Q 666 556 975 473 
Q 1284 391 1588 391 
Q 1994 391 2212 530 
Q 2431 669 2431 922 
Q 2431 1156 2273 1281 
Q 2116 1406 1581 1522 
L 1381 1569 
Q 847 1681 609 1914 
Q 372 2147 372 2553 
Q 372 3047 722 3315 
Q 1072 3584 1716 3584 
Q 2034 3584 2315 3537 
Q 2597 3491 2834 3397 
z
" transform="scale(0.015625)"/>
       <path id="DejaVuSans-74" d="M 1172 4494 
L 1172 3500 
L 2356 3500 
L 2356 3053 
L 1172 3053 
L 1172 1153 
Q 1172 725 1289 603 
Q 1406 481 1766 481 
L 2356 481 
L 2356 0 
L 1766 0 
Q 1100 0 847 248 
Q 594 497 594 1153 
L 594 3053 
L 172 3053 
L 172 3500 
L 594 3500 
L 594 4494 
L 1172 4494 
z
" transform="scale(0.015625)"/>
       <path id="DejaVuSans-61" d="M 2194 1759 
Q 1497 1759 1228 1600 
Q 959 1441 959 1056 
Q 959 750 1161 570 
Q 1363 391 1709 391 
Q 2188 391 2477 730 
Q 2766 1069 2766 1631 
L 2766 1759 
L 2194 1759 
z
M 3341 1997 
L 3341 0 
L 2766 0 
L 2766 531 
Q 2569 213 2275 61 
Q 1981 -91 1556 -91 
Q 1019 -91 701 211 
Q 384 513 384 1019 
Q 384 1609 779 1909 
Q 1175 2209 1959 2209 
L 2766 2209 
L 2766 2266 
Q 2766 2663 2505 2880 
Q 2244 3097 1772 3097 
Q 1472 3097 1187 3025 
Q 903 2953 641 2809 
L 641 3341 
Q 956 3463 1253 3523 
Q 1550 3584 1831 3584 
Q 2591 3584 2966 3190 
Q 3341 2797 3341 1997 
z
" transform="scale(0.015625)"/>
       <path id="DejaVuSans-6e" d="M 3513 2113 
L 3513 0 
L 2938 0 
L 2938 2094 
Q 2938 2591 2744 2837 
Q 2550 3084 2163 3084 
Q 1697 3084 1428 2787 
Q 1159 2491 1159 1978 
L 1159 0 
L 581 0 
L 581 3500 
L 1159 3500 
L 1159 2956 
Q 1366 3272 1645 3428 
Q 1925 3584 2291 3584 
Q 2894 3584 3203 3211 
Q 3513 2838 3513 2113 
z
" transform="scale(0.015625)"/>
       <path id="DejaVuSans-63" d="M 3122 3366 
L 3122 2828 
Q 2878 2963 2633 3030 
Q 2388 3097 2138 3097 
Q 1578 3097 1268 2742 
Q 959 2388 959 1747 
Q 959 1106 1268 751 
Q 1578 397 2138 397 
Q 2388 397 2633 464 
Q 2878 531 3122 666 
L 3122 134 
Q 2881 22 2623 -34 
Q 2366 -91 2075 -91 
Q 1284 -91 818 406 
Q 353 903 353 1747 
Q 353 2603 823 3093 
Q 1294 3584 2113 3584 
Q 2378 3584 2631 3529 
Q 2884 3475 3122 3366 
z
" transform="scale(0.015625)"/>
       <path id="DejaVuSans-65" d="M 3597 1894 
L 3597 1613 
L 953 1613 
Q 991 1019 1311 708 
Q 1631 397 2203 397 
Q 2534 397 2845 478 
Q 3156 559 3463 722 
L 3463 178 
Q 3153 47 2828 -22 
Q 2503 -91 2169 -91 
Q 1331 -91 842 396 
Q 353 884 353 1716 
Q 353 2575 817 3079 
Q 1281 3584 2069 3584 
Q 2775 3584 3186 3129 
Q 3597 2675 3597 1894 
z
M 3022 2063 
Q 3016 2534 2758 2815 
Q 2500 3097 2075 3097 
Q 1594 3097 1305 2825 
Q 1016 2553 972 2059 
L 3022 2063 
z
" transform="scale(0.015625)"/>
       <path id="DejaVuSans-20" transform="scale(0.015625)"/>
       <path id="DejaVuSans-66" d="M 2375 4863 
L 2375 4384 
L 1825 4384 
Q 1516 4384 1395 4259 
Q 1275 4134 1275 3809 
L 1275 3500 
L 2222 3500 
L 2222 3053 
L 1275 3053 
L 1275 0 
L 697 0 
L 697 3053 
L 147 3053 
L 147 3500 
L 697 3500 
L 697 3744 
Q 697 4328 969 4595 
Q 1241 4863 1831 4863 
L 2375 4863 
z
" transform="scale(0.015625)"/>
       <path id="DejaVuSans-72" d="M 2631 2963 
Q 2534 3019 2420 3045 
Q 2306 3072 2169 3072 
Q 1681 3072 1420 2755 
Q 1159 2438 1159 1844 
L 1159 0 
L 581 0 
L 581 3500 
L 1159 3500 
L 1159 2956 
Q 1341 3275 1631 3429 
Q 1922 3584 2338 3584 
Q 2397 3584 2469 3576 
Q 2541 3569 2628 3553 
L 2631 2963 
z
" transform="scale(0.015625)"/>
       <path id="DejaVuSans-6f" d="M 1959 3097 
Q 1497 3097 1228 2736 
Q 959 2375 959 1747 
Q 959 1119 1226 758 
Q 1494 397 1959 397 
Q 2419 397 2687 759 
Q 2956 1122 2956 1747 
Q 2956 2369 2687 2733 
Q 2419 3097 1959 3097 
z
M 1959 3584 
Q 2709 3584 3137 3096 
Q 3566 2609 3566 1747 
Q 3566 888 3137 398 
Q 2709 -91 1959 -91 
Q 1206 -91 779 398 
Q 353 888 353 1747 
Q 353 2609 779 3096 
Q 1206 3584 1959 3584 
z
" transform="scale(0.015625)"/>
       <path id="DejaVuSans-6d" d="M 3328 2828 
Q 3544 3216 3844 3400 
Q 4144 3584 4550 3584 
Q 5097 3584 5394 3201 
Q 5691 2819 5691 2113 
L 5691 0 
L 5113 0 
L 5113 2094 
Q 5113 2597 4934 2840 
Q 4756 3084 4391 3084 
Q 3944 3084 3684 2787 
Q 3425 2491 3425 1978 
L 3425 0 
L 2847 0 
L 2847 2094 
Q 2847 2600 2669 2842 
Q 2491 3084 2119 3084 
Q 1678 3084 1418 2786 
Q 1159 2488 1159 1978 
L 1159 0 
L 581 0 
L 581 3500 
L 1159 3500 
L 1159 2956 
Q 1356 3278 1631 3431 
Q 1906 3584 2284 3584 
Q 2666 3584 2933 3390 
Q 3200 3197 3328 2828 
z
" transform="scale(0.015625)"/>
       <path id="DejaVuSans-75" d="M 544 1381 
L 544 3500 
L 1119 3500 
L 1119 1403 
Q 1119 906 1312 657 
Q 1506 409 1894 409 
Q 2359 409 2629 706 
Q 2900 1003 2900 1516 
L 2900 3500 
L 3475 3500 
L 3475 0 
L 2900 0 
L 2900 538 
Q 2691 219 2414 64 
Q 2138 -91 1772 -91 
Q 1169 -91 856 284 
Q 544 659 544 1381 
z
M 1991 3584 
L 1991 3584 
z
" transform="scale(0.015625)"/>
       <path id="DejaVuSans-5b" d="M 550 4863 
L 1875 4863 
L 1875 4416 
L 1125 4416 
L 1125 -397 
L 1875 -397 
L 1875 -844 
L 550 -844 
L 550 4863 
z
" transform="scale(0.015625)"/>
       <path id="DejaVuSans-5d" d="M 1947 4863 
L 1947 -844 
L 622 -844 
L 622 -397 
L 1369 -397 
L 1369 4416 
L 622 4416 
L 622 4863 
L 1947 4863 
z
" transform="scale(0.015625)"/>
      </defs>
      <use xlink:href="#DejaVuSans-44"/>
      <use xlink:href="#DejaVuSans-69" transform="translate(77.001953 0)"/>
      <use xlink:href="#DejaVuSans-73" transform="translate(104.785156 0)"/>
      <use xlink:href="#DejaVuSans-74" transform="translate(156.884766 0)"/>
      <use xlink:href="#DejaVuSans-61" transform="translate(196.09375 0)"/>
      <use xlink:href="#DejaVuSans-6e" transform="translate(257.373047 0)"/>
      <use xlink:href="#DejaVuSans-63" transform="translate(320.751953 0)"/>
      <use xlink:href="#DejaVuSans-65" transform="translate(375.732422 0)"/>
      <use xlink:href="#DejaVuSans-20" transform="translate(437.255859 0)"/>
      <use xlink:href="#DejaVuSans-66" transform="translate(469.042969 0)"/>
      <use xlink:href="#DejaVuSans-72" transform="translate(504.248047 0)"/>
      <use xlink:href="#DejaVuSans-6f" transform="translate(543.111328 0)"/>
      <use xlink:href="#DejaVuSans-6d" transform="translate(604.292969 0)"/>
      <use xlink:href="#DejaVuSans-20" transform="translate(701.705078 0)"/>
      <use xlink:href="#DejaVuSans-74" transform="translate(733.492188 0)"/>
      <use xlink:href="#DejaVuSans-65" transform="translate(772.701172 0)"/>
      <use xlink:href="#DejaVuSans-72" transform="translate(834.224609 0)"/>
      <use xlink:href="#DejaVuSans-6d" transform="translate(873.587891 0)"/>
      <use xlink:href="#DejaVuSans-69" transform="translate(971 0)"/>
      <use xlink:href="#DejaVuSans-6e" transform="translate(998.783203 0)"/>
      <use xlink:href="#DejaVuSans-75" transform="translate(1062.162109 0)"/>
      <use xlink:href="#DejaVuSans-73" transform="translate(1125.541016 0)"/>
      <use xlink:href="#DejaVuSans-20" transform="translate(1177.640625 0)"/>
      <use xlink:href="#DejaVuSans-5b" transform="translate(1209.427734 0)"/>
      <use xlink:href="#DejaVuSans-6e" transform="translate(1248.441406 0)"/>
      <use xlink:href="#DejaVuSans-74" transform="translate(1311.820312 0)"/>
      <use xlink:href="#DejaVuSans-5d" transform="translate(1351.029297 0)"/>
     </g>
    </g>
   </g>
   <g id="matplotlib.axis_2">
    <g id="ytick_1">
     <g id="line2d_19">
      <path d="M 46.965625 369.201818 
L 432.905625 369.201818 
" clip-path="url(#p0a92df4dcd)" style="fill: none; stroke-dasharray: 2.96,1.28; stroke-dashoffset: 0; stroke: #b0b0b0; stroke-opacity: 0.6; stroke-width: 0.8"/>
     </g>
     <g id="line2d_20">
      <defs>
       <path id="m8a66f8a516" d="M 0 0 
L -3.5 0 
" style="stroke: #000000; stroke-width: 0.8"/>
      </defs>
      <g>
       <use xlink:href="#m8a66f8a516" x="46.965625" y="369.201818" style="stroke: #000000; stroke-width: 0.8"/>
      </g>
     </g>
     <g id="text_11">
      <!-- 0 -->
      <g transform="translate(33.603125 373.001037) scale(0.1 -0.1)">
       <use xlink:href="#DejaVuSans-30"/>
      </g>
     </g>
    </g>
    <g id="ytick_2">
     <g id="line2d_21">
      <path d="M 46.965625 326.106364 
L 432.905625 326.106364 
" clip-path="url(#p0a92df4dcd)" style="fill: none; stroke-dasharray: 2.96,1.28; stroke-dashoffset: 0; stroke: #b0b0b0; stroke-opacity: 0.6; stroke-width: 0.8"/>
     </g>
     <g id="line2d_22">
      <g>
       <use xlink:href="#m8a66f8a516" x="46.965625" y="326.106364" style="stroke: #000000; stroke-width: 0.8"/>
      </g>
     </g>
     <g id="text_12">
      <!-- 20 -->
      <g transform="translate(27.240625 329.905582) scale(0.1 -0.1)">
       <use xlink:href="#DejaVuSans-32"/>
       <use xlink:href="#DejaVuSans-30" transform="translate(63.623047 0)"/>
      </g>
     </g>
    </g>
    <g id="ytick_3">
     <g id="line2d_23">
      <path d="M 46.965625 283.010909 
L 432.905625 283.010909 
" clip-path="url(#p0a92df4dcd)" style="fill: none; stroke-dasharray: 2.96,1.28; stroke-dashoffset: 0; stroke: #b0b0b0; stroke-opacity: 0.6; stroke-width: 0.8"/>
     </g>
     <g id="line2d_24">
      <g>
       <use xlink:href="#m8a66f8a516" x="46.965625" y="283.010909" style="stroke: #000000; stroke-width: 0.8"/>
      </g>
     </g>
     <g id="text_13">
      <!-- 40 -->
      <g transform="translate(27.240625 286.810128) scale(0.1 -0.1)">
       <use xlink:href="#DejaVuSans-34"/>
       <use xlink:href="#DejaVuSans-30" transform="translate(63.623047 0)"/>
      </g>
     </g>
    </g>
    <g id="ytick_4">
     <g id="line2d_25">
      <path d="M 46.965625 239.915455 
L 432.905625 239.915455 
" clip-path="url(#p0a92df4dcd)" style="fill: none; stroke-dasharray: 2.96,1.28; stroke-dashoffset: 0; stroke: #b0b0b0; stroke-opacity: 0.6; stroke-width: 0.8"/>
     </g>
     <g id="line2d_26">
      <g>
       <use xlink:href="#m8a66f8a516" x="46.965625" y="239.915455" style="stroke: #000000; stroke-width: 0.8"/>
      </g>
     </g>
     <g id="text_14">
      <!-- 60 -->
      <g transform="translate(27.240625 243.714673) scale(0.1 -0.1)">
       <use xlink:href="#DejaVuSans-36"/>
       <use xlink:href="#DejaVuSans-30" transform="translate(63.623047 0)"/>
      </g>
     </g>
    </g>
    <g id="ytick_5">
     <g id="line2d_27">
      <path d="M 46.965625 196.82 
L 432.905625 196.82 
" clip-path="url(#p0a92df4dcd)" style="fill: none; stroke-dasharray: 2.96,1.28; stroke-dashoffset: 0; stroke: #b0b0b0; stroke-opacity: 0.6; stroke-width: 0.8"/>
     </g>
     <g id="line2d_28">
      <g>
       <use xlink:href="#m8a66f8a516" x="46.965625" y="196.82" style="stroke: #000000; stroke-width: 0.8"/>
      </g>
     </g>
     <g id="text_15">
      <!-- 80 -->
      <g transform="translate(27.240625 200.619219) scale(0.1 -0.1)">
       <use xlink:href="#DejaVuSans-38"/>
       <use xlink:href="#DejaVuSans-30" transform="translate(63.623047 0)"/>
      </g>
     </g>
    </g>
    <g id="ytick_6">
     <g id="line2d_29">
      <path d="M 46.965625 153.724545 
L 432.905625 153.724545 
" clip-path="url(#p0a92df4dcd)" style="fill: none; stroke-dasharray: 2.96,1.28; stroke-dashoffset: 0; stroke: #b0b0b0; stroke-opacity: 0.6; stroke-width: 0.8"/>
     </g>
     <g id="line2d_30">
      <g>
       <use xlink:href="#m8a66f8a516" x="46.965625" y="153.724545" style="stroke: #000000; stroke-width: 0.8"/>
      </g>
     </g>
     <g id="text_16">
      <!-- 100 -->
      <g transform="translate(20.878125 157.523764) scale(0.1 -0.1)">
       <use xlink:href="#DejaVuSans-31"/>
       <use xlink:href="#DejaVuSans-30" transform="translate(63.623047 0)"/>
       <use xlink:href="#DejaVuSans-30" transform="translate(127.246094 0)"/>
      </g>
     </g>
    </g>
    <g id="ytick_7">
     <g id="line2d_31">
      <path d="M 46.965625 110.629091 
L 432.905625 110.629091 
" clip-path="url(#p0a92df4dcd)" style="fill: none; stroke-dasharray: 2.96,1.28; stroke-dashoffset: 0; stroke: #b0b0b0; stroke-opacity: 0.6; stroke-width: 0.8"/>
     </g>
     <g id="line2d_32">
      <g>
       <use xlink:href="#m8a66f8a516" x="46.965625" y="110.629091" style="stroke: #000000; stroke-width: 0.8"/>
      </g>
     </g>
     <g id="text_17">
      <!-- 120 -->
      <g transform="translate(20.878125 114.42831) scale(0.1 -0.1)">
       <use xlink:href="#DejaVuSans-31"/>
       <use xlink:href="#DejaVuSans-32" transform="translate(63.623047 0)"/>
       <use xlink:href="#DejaVuSans-30" transform="translate(127.246094 0)"/>
      </g>
     </g>
    </g>
    <g id="ytick_8">
     <g id="line2d_33">
      <path d="M 46.965625 67.533636 
L 432.905625 67.533636 
" clip-path="url(#p0a92df4dcd)" style="fill: none; stroke-dasharray: 2.96,1.28; stroke-dashoffset: 0; stroke: #b0b0b0; stroke-opacity: 0.6; stroke-width: 0.8"/>
     </g>
     <g id="line2d_34">
      <g>
       <use xlink:href="#m8a66f8a516" x="46.965625" y="67.533636" style="stroke: #000000; stroke-width: 0.8"/>
      </g>
     </g>
     <g id="text_18">
      <!-- 140 -->
      <g transform="translate(20.878125 71.332855) scale(0.1 -0.1)">
       <use xlink:href="#DejaVuSans-31"/>
       <use xlink:href="#DejaVuSans-34" transform="translate(63.623047 0)"/>
       <use xlink:href="#DejaVuSans-30" transform="translate(127.246094 0)"/>
      </g>
     </g>
    </g>
    <g id="ytick_9">
     <g id="line2d_35">
      <path d="M 46.965625 24.438182 
L 432.905625 24.438182 
" clip-path="url(#p0a92df4dcd)" style="fill: none; stroke-dasharray: 2.96,1.28; stroke-dashoffset: 0; stroke: #b0b0b0; stroke-opacity: 0.6; stroke-width: 0.8"/>
     </g>
     <g id="line2d_36">
      <g>
       <use xlink:href="#m8a66f8a516" x="46.965625" y="24.438182" style="stroke: #000000; stroke-width: 0.8"/>
      </g>
     </g>
     <g id="text_19">
      <!-- 160 -->
      <g transform="translate(20.878125 28.237401) scale(0.1 -0.1)">
       <use xlink:href="#DejaVuSans-31"/>
       <use xlink:href="#DejaVuSans-36" transform="translate(63.623047 0)"/>
       <use xlink:href="#DejaVuSans-30" transform="translate(127.246094 0)"/>
      </g>
     </g>
    </g>
    <g id="text_20">
     <!-- Average cumulative count -->
     <g transform="translate(14.798438 262.4325) rotate(-90) scale(0.1 -0.1)">
      <defs>
       <path id="DejaVuSans-41" d="M 2188 4044 
L 1331 1722 
L 3047 1722 
L 2188 4044 
z
M 1831 4666 
L 2547 4666 
L 4325 0 
L 3669 0 
L 3244 1197 
L 1141 1197 
L 716 0 
L 50 0 
L 1831 4666 
z
" transform="scale(0.015625)"/>
       <path id="DejaVuSans-76" d="M 191 3500 
L 800 3500 
L 1894 563 
L 2988 3500 
L 3597 3500 
L 2284 0 
L 1503 0 
L 191 3500 
z
" transform="scale(0.015625)"/>
       <path id="DejaVuSans-67" d="M 2906 1791 
Q 2906 2416 2648 2759 
Q 2391 3103 1925 3103 
Q 1463 3103 1205 2759 
Q 947 2416 947 1791 
Q 947 1169 1205 825 
Q 1463 481 1925 481 
Q 2391 481 2648 825 
Q 2906 1169 2906 1791 
z
M 3481 434 
Q 3481 -459 3084 -895 
Q 2688 -1331 1869 -1331 
Q 1566 -1331 1297 -1286 
Q 1028 -1241 775 -1147 
L 775 -588 
Q 1028 -725 1275 -790 
Q 1522 -856 1778 -856 
Q 2344 -856 2625 -561 
Q 2906 -266 2906 331 
L 2906 616 
Q 2728 306 2450 153 
Q 2172 0 1784 0 
Q 1141 0 747 490 
Q 353 981 353 1791 
Q 353 2603 747 3093 
Q 1141 3584 1784 3584 
Q 2172 3584 2450 3431 
Q 2728 3278 2906 2969 
L 2906 3500 
L 3481 3500 
L 3481 434 
z
" transform="scale(0.015625)"/>
       <path id="DejaVuSans-6c" d="M 603 4863 
L 1178 4863 
L 1178 0 
L 603 0 
L 603 4863 
z
" transform="scale(0.015625)"/>
      </defs>
      <use xlink:href="#DejaVuSans-41"/>
      <use xlink:href="#DejaVuSans-76" transform="translate(62.533203 0)"/>
      <use xlink:href="#DejaVuSans-65" transform="translate(121.712891 0)"/>
      <use xlink:href="#DejaVuSans-72" transform="translate(183.236328 0)"/>
      <use xlink:href="#DejaVuSans-61" transform="translate(224.349609 0)"/>
      <use xlink:href="#DejaVuSans-67" transform="translate(285.628906 0)"/>
      <use xlink:href="#DejaVuSans-65" transform="translate(349.105469 0)"/>
      <use xlink:href="#DejaVuSans-20" transform="translate(410.628906 0)"/>
      <use xlink:href="#DejaVuSans-63" transform="translate(442.416016 0)"/>
      <use xlink:href="#DejaVuSans-75" transform="translate(497.396484 0)"/>
      <use xlink:href="#DejaVuSans-6d" transform="translate(560.775391 0)"/>
      <use xlink:href="#DejaVuSans-75" transform="translate(658.1875 0)"/>
      <use xlink:href="#DejaVuSans-6c" transform="translate(721.566406 0)"/>
      <use xlink:href="#DejaVuSans-61" transform="translate(749.349609 0)"/>
      <use xlink:href="#DejaVuSans-74" transform="translate(810.628906 0)"/>
      <use xlink:href="#DejaVuSans-69" transform="translate(849.837891 0)"/>
      <use xlink:href="#DejaVuSans-76" transform="translate(877.621094 0)"/>
      <use xlink:href="#DejaVuSans-65" transform="translate(936.800781 0)"/>
      <use xlink:href="#DejaVuSans-20" transform="translate(998.324219 0)"/>
      <use xlink:href="#DejaVuSans-63" transform="translate(1030.111328 0)"/>
      <use xlink:href="#DejaVuSans-6f" transform="translate(1085.091797 0)"/>
      <use xlink:href="#DejaVuSans-75" transform="translate(1146.273438 0)"/>
      <use xlink:href="#DejaVuSans-6e" transform="translate(1209.652344 0)"/>
      <use xlink:href="#DejaVuSans-74" transform="translate(1273.03125 0)"/>
     </g>
    </g>
   </g>
   <g id="line2d_37">
    <path d="M 64.508352 369.201818 
L 64.639939 367.047045 
L 64.771526 367.047045 
L 64.903113 364.892273 
L 65.0347 364.892273 
L 65.166287 362.7375 
L 65.297874 362.7375 
L 65.429461 360.582727 
L 65.561047 360.582727 
L 65.692634 358.427955 
L 65.824221 358.427955 
L 65.955808 356.273182 
L 66.087395 356.273182 
L 66.218982 354.118409 
L 66.350569 354.118409 
L 66.482156 351.963636 
L 66.613743 351.963636 
L 66.74533 349.808864 
L 66.876917 349.808864 
L 67.008503 347.654091 
L 67.14009 347.654091 
L 67.271677 345.499318 
L 67.403264 345.499318 
L 67.534851 343.344545 
L 67.666438 343.344545 
L 67.798025 341.189773 
L 67.929612 341.189773 
L 68.061199 339.035 
L 68.192786 339.035 
L 68.324372 336.880227 
L 68.455959 336.880227 
L 68.587546 334.725455 
L 68.719133 334.725455 
L 68.85072 332.570682 
L 68.982307 332.570682 
L 69.113894 330.415909 
L 69.245481 330.415909 
L 69.377068 328.261136 
L 69.508655 328.261136 
L 69.640241 326.106364 
L 69.771828 326.106364 
L 69.903415 323.951591 
L 70.035002 323.951591 
L 70.166589 321.796818 
L 70.298176 321.796818 
L 70.429763 319.642045 
L 70.56135 319.642045 
L 70.692937 317.487273 
L 70.824524 317.487273 
L 70.956111 315.3325 
L 71.087697 315.3325 
L 71.219284 313.177727 
L 71.350871 313.177727 
L 71.482458 311.022955 
L 71.614045 311.022955 
L 71.745632 308.868182 
L 71.877219 308.868182 
L 72.008806 306.713409 
L 72.140393 306.713409 
L 72.27198 304.558636 
L 72.403566 304.558636 
L 72.535153 302.403864 
L 72.66674 302.403864 
L 72.798327 300.249091 
L 72.929914 300.249091 
L 73.061501 298.094318 
L 73.193088 298.094318 
L 73.324675 295.939545 
L 73.456262 295.939545 
L 73.587849 293.784773 
L 73.719435 293.784773 
L 73.851022 291.63 
L 73.982609 291.63 
L 74.114196 289.475227 
L 74.245783 289.475227 
L 74.37737 287.320455 
L 74.508957 287.320455 
L 74.640544 285.165682 
L 74.772131 285.165682 
L 74.903718 283.010909 
L 75.035305 283.010909 
L 75.166891 280.856136 
L 75.298478 280.856136 
L 75.430065 278.701364 
L 75.561652 278.701364 
L 75.693239 276.546591 
L 75.824826 276.546591 
L 75.956413 274.391818 
L 76.088 274.391818 
L 76.219587 272.237045 
L 76.351174 272.237045 
L 76.48276 270.082273 
L 76.614347 270.082273 
L 76.745934 267.9275 
L 76.877521 267.9275 
L 77.009108 265.772727 
L 77.140695 265.772727 
L 77.272282 263.617955 
L 77.403869 263.617955 
L 77.535456 261.463182 
L 77.667043 261.463182 
L 77.798629 259.308409 
L 77.930216 259.308409 
L 78.061803 257.153636 
L 78.19339 257.153636 
L 78.324977 254.998864 
L 78.456564 254.998864 
L 78.588151 252.844091 
L 78.719738 252.844091 
L 78.851325 250.689318 
L 78.982912 250.689318 
L 79.114498 248.534545 
L 79.246085 248.534545 
L 79.377672 246.379773 
L 79.509259 246.379773 
L 79.640846 244.225 
L 79.772433 244.225 
L 79.90402 242.070227 
L 80.035607 242.070227 
L 80.167194 239.915455 
L 80.298781 239.915455 
L 80.430368 237.760682 
L 80.561954 237.760682 
L 80.693541 235.605909 
L 80.825128 235.605909 
L 80.956715 233.451136 
L 81.088302 233.451136 
L 81.219889 231.296364 
L 81.351476 231.296364 
L 81.483063 229.141591 
L 81.61465 229.141591 
L 81.746237 226.986818 
L 81.877823 226.986818 
L 82.00941 224.832045 
L 82.140997 224.832045 
L 82.272584 222.677273 
L 82.404171 222.677273 
L 82.535758 220.5225 
L 82.667345 220.5225 
L 82.798932 218.367727 
L 83.105968 218.367727 
L 83.237555 216.212955 
L 83.369142 216.212955 
L 83.500729 214.058182 
L 83.632315 214.058182 
L 83.763902 211.903409 
L 83.895489 211.903409 
L 84.027076 209.748636 
L 84.158663 209.748636 
L 84.29025 207.593864 
L 84.421837 207.593864 
L 84.553424 205.439091 
L 84.685011 205.439091 
L 84.816598 203.284318 
L 84.948185 203.284318 
L 85.079771 201.129545 
L 85.211358 201.129545 
L 85.342945 198.974773 
L 85.474532 198.974773 
L 85.606119 196.82 
L 85.737706 196.82 
L 85.869293 194.665227 
L 86.00088 194.665227 
L 86.132467 192.510455 
L 86.264054 192.510455 
L 86.39564 190.355682 
L 86.527227 190.355682 
L 86.658814 188.200909 
L 86.790401 188.200909 
L 86.921988 186.046136 
L 87.053575 186.046136 
L 87.185162 183.891364 
L 87.316749 183.891364 
L 87.448336 181.736591 
L 87.579923 181.736591 
L 87.711509 179.581818 
L 87.843096 179.581818 
L 87.974683 177.427045 
L 88.10627 177.427045 
L 88.237857 175.272273 
L 88.369444 175.272273 
L 88.501031 173.1175 
L 88.632618 173.1175 
L 88.764205 170.962727 
L 88.895792 170.962727 
L 89.027379 168.807955 
L 89.158965 168.807955 
L 89.290552 166.653182 
L 89.422139 166.653182 
L 89.553726 164.498409 
L 89.685313 164.498409 
L 89.8169 162.343636 
L 89.948487 162.343636 
L 90.080074 160.188864 
L 90.211661 160.188864 
L 90.343248 158.034091 
L 90.474834 158.034091 
L 90.606421 155.879318 
L 90.738008 155.879318 
L 90.869595 153.724545 
L 91.001182 153.724545 
L 91.132769 151.569773 
L 91.264356 151.569773 
L 91.395943 149.415 
L 91.52753 149.415 
L 91.659117 147.260227 
L 91.790703 147.260227 
L 91.92229 145.105455 
L 92.053877 145.105455 
L 92.185464 142.950682 
L 92.317051 142.950682 
L 92.448638 140.795909 
L 92.580225 140.795909 
L 92.711812 138.641136 
L 92.843399 138.641136 
L 92.974986 136.486364 
L 93.106573 136.486364 
L 93.238159 134.331591 
L 93.369746 134.331591 
L 93.501333 132.176818 
L 93.63292 132.176818 
L 93.764507 130.022045 
L 93.896094 130.022045 
L 94.027681 127.867273 
L 94.159268 127.867273 
L 94.290855 125.7125 
L 94.641753 125.7125 
L 94.77334 123.557727 
L 94.904927 123.557727 
L 95.036514 121.402955 
L 95.168101 121.402955 
L 95.299688 119.248182 
L 95.650586 119.248182 
L 95.782173 117.093409 
L 95.91376 117.093409 
L 96.045347 114.938636 
L 96.176934 114.938636 
L 96.30852 112.783864 
L 96.440107 112.783864 
L 96.571694 110.629091 
L 96.703281 110.629091 
L 96.834868 108.474318 
L 96.966455 108.474318 
L 97.098042 106.319545 
L 97.229629 106.319545 
L 97.361216 104.164773 
L 97.492803 104.164773 
L 97.62439 102.01 
L 97.755976 102.01 
L 97.887563 99.855227 
L 98.01915 99.855227 
L 98.150737 97.700455 
L 98.282324 97.700455 
L 98.413911 95.545682 
L 98.545498 95.545682 
L 98.677085 93.390909 
L 98.808672 93.390909 
L 98.940259 91.236136 
L 99.071845 91.236136 
L 99.203432 89.081364 
L 99.335019 89.081364 
L 99.466606 86.926591 
L 99.598193 86.926591 
L 99.72978 84.771818 
L 99.861367 84.771818 
L 99.992954 82.617045 
L 100.124541 82.617045 
L 100.256128 80.462273 
L 100.387714 80.462273 
L 100.519301 78.3075 
L 100.650888 78.3075 
L 100.782475 76.152727 
L 100.914062 76.152727 
L 101.045649 73.997955 
L 101.177236 73.997955 
L 101.308823 71.843182 
L 101.44041 71.843182 
L 101.571997 69.688409 
L 101.703583 69.688409 
L 101.83517 67.533636 
L 101.966757 67.533636 
L 102.098344 65.378864 
L 102.229931 65.378864 
L 102.361518 63.224091 
L 102.493105 63.224091 
L 102.624692 61.069318 
L 102.756279 61.069318 
L 102.887866 58.914545 
L 103.019453 58.914545 
L 103.151039 56.759773 
L 103.282626 56.759773 
L 103.414213 54.605 
L 104.642358 54.605 
L 104.773945 52.450227 
L 106.002089 52.450227 
L 106.133676 50.295455 
L 107.36182 50.295455 
L 107.493407 48.140682 
L 108.721552 48.140682 
L 108.853139 45.985909 
L 110.081283 45.985909 
L 110.21287 43.831136 
L 111.441014 43.831136 
L 111.572601 41.676364 
L 143.504356 41.676364 
L 143.635943 39.521591 
L 144.864088 39.521591 
L 144.995675 37.366818 
L 183.331326 37.366818 
L 183.462913 35.212045 
L 184.691057 35.212045 
L 184.822644 33.057273 
L 230.746473 33.057273 
L 230.87806 30.9025 
L 232.106204 30.9025 
L 232.237791 28.747727 
L 289.302645 28.747727 
L 289.434232 26.592955 
L 289.78513 26.592955 
L 289.916717 24.438182 
L 415.362898 24.438182 
L 415.362898 24.438182 
" clip-path="url(#p0a92df4dcd)" style="fill: none; stroke: #add8e6; stroke-width: 2; stroke-linecap: square"/>
   </g>
   <g id="line2d_38">
    <path d="M 64.508352 369.201818 
L 415.362898 369.201818 
L 415.362898 369.201818 
" clip-path="url(#p0a92df4dcd)" style="fill: none; stroke: #00008b; stroke-width: 2; stroke-linecap: square"/>
   </g>
   <g id="patch_3">
    <path d="M 46.965625 386.44 
L 46.965625 7.2 
" style="fill: none; stroke: #000000; stroke-width: 0.8; stroke-linejoin: miter; stroke-linecap: square"/>
   </g>
   <g id="patch_4">
    <path d="M 432.905625 386.44 
L 432.905625 7.2 
" style="fill: none; stroke: #000000; stroke-width: 0.8; stroke-linejoin: miter; stroke-linecap: square"/>
   </g>
   <g id="patch_5">
    <path d="M 46.965625 386.44 
L 432.905625 386.44 
" style="fill: none; stroke: #000000; stroke-width: 0.8; stroke-linejoin: miter; stroke-linecap: square"/>
   </g>
   <g id="patch_6">
    <path d="M 46.965625 7.2 
L 432.905625 7.2 
" style="fill: none; stroke: #000000; stroke-width: 0.8; stroke-linejoin: miter; stroke-linecap: square"/>
   </g>
   <g id="legend_1">
    <g id="patch_7">
     <path d="M 439.905625 59.234375 
L 558.910312 59.234375 
Q 560.910312 59.234375 560.910312 57.234375 
L 560.910312 14.2 
Q 560.910312 12.2 558.910312 12.2 
L 439.905625 12.2 
Q 437.905625 12.2 437.905625 14.2 
L 437.905625 57.234375 
Q 437.905625 59.234375 439.905625 59.234375 
z
" style="fill: #ffffff; opacity: 0.8; stroke: #cccccc; stroke-linejoin: miter"/>
    </g>
    <g id="text_21">
     <!-- Motifs &amp; orientation -->
     <g transform="translate(449.892344 23.798437) scale(0.1 -0.1)">
      <defs>
       <path id="DejaVuSans-4d" d="M 628 4666 
L 1569 4666 
L 2759 1491 
L 3956 4666 
L 4897 4666 
L 4897 0 
L 4281 0 
L 4281 4097 
L 3078 897 
L 2444 897 
L 1241 4097 
L 1241 0 
L 628 0 
L 628 4666 
z
" transform="scale(0.015625)"/>
       <path id="DejaVuSans-26" d="M 1556 2509 
Q 1272 2256 1139 2004 
Q 1006 1753 1006 1478 
Q 1006 1022 1337 719 
Q 1669 416 2169 416 
Q 2466 416 2725 514 
Q 2984 613 3213 813 
L 1556 2509 
z
M 1997 2859 
L 3584 1234 
Q 3769 1513 3872 1830 
Q 3975 2147 3994 2503 
L 4575 2503 
Q 4538 2091 4375 1687 
Q 4213 1284 3922 891 
L 4794 0 
L 4006 0 
L 3559 459 
Q 3234 181 2878 45 
Q 2522 -91 2113 -91 
Q 1359 -91 881 339 
Q 403 769 403 1441 
Q 403 1841 612 2192 
Q 822 2544 1241 2853 
Q 1091 3050 1012 3245 
Q 934 3441 934 3628 
Q 934 4134 1281 4442 
Q 1628 4750 2203 4750 
Q 2463 4750 2720 4694 
Q 2978 4638 3244 4525 
L 3244 3956 
Q 2972 4103 2725 4179 
Q 2478 4256 2266 4256 
Q 1938 4256 1733 4082 
Q 1528 3909 1528 3634 
Q 1528 3475 1620 3314 
Q 1713 3153 1997 2859 
z
" transform="scale(0.015625)"/>
      </defs>
      <use xlink:href="#DejaVuSans-4d"/>
      <use xlink:href="#DejaVuSans-6f" transform="translate(86.279297 0)"/>
      <use xlink:href="#DejaVuSans-74" transform="translate(147.460938 0)"/>
      <use xlink:href="#DejaVuSans-69" transform="translate(186.669922 0)"/>
      <use xlink:href="#DejaVuSans-66" transform="translate(214.453125 0)"/>
      <use xlink:href="#DejaVuSans-73" transform="translate(249.658203 0)"/>
      <use xlink:href="#DejaVuSans-20" transform="translate(301.757812 0)"/>
      <use xlink:href="#DejaVuSans-26" transform="translate(333.544922 0)"/>
      <use xlink:href="#DejaVuSans-20" transform="translate(411.523438 0)"/>
      <use xlink:href="#DejaVuSans-6f" transform="translate(443.310547 0)"/>
      <use xlink:href="#DejaVuSans-72" transform="translate(504.492188 0)"/>
      <use xlink:href="#DejaVuSans-69" transform="translate(545.605469 0)"/>
      <use xlink:href="#DejaVuSans-65" transform="translate(573.388672 0)"/>
      <use xlink:href="#DejaVuSans-6e" transform="translate(634.912109 0)"/>
      <use xlink:href="#DejaVuSans-74" transform="translate(698.291016 0)"/>
      <use xlink:href="#DejaVuSans-61" transform="translate(737.5 0)"/>
      <use xlink:href="#DejaVuSans-74" transform="translate(798.779297 0)"/>
      <use xlink:href="#DejaVuSans-69" transform="translate(837.988281 0)"/>
      <use xlink:href="#DejaVuSans-6f" transform="translate(865.771484 0)"/>
      <use xlink:href="#DejaVuSans-6e" transform="translate(926.953125 0)"/>
     </g>
    </g>
    <g id="line2d_39">
     <path d="M 441.905625 34.976562 
L 451.905625 34.976562 
L 461.905625 34.976562 
" style="fill: none; stroke: #add8e6; stroke-width: 2; stroke-linecap: square"/>
    </g>
    <g id="text_22">
     <!-- CCCTAA (5' end) -->
     <g transform="translate(469.905625 38.476562) scale(0.1 -0.1)">
      <defs>
       <path id="DejaVuSans-43" d="M 4122 4306 
L 4122 3641 
Q 3803 3938 3442 4084 
Q 3081 4231 2675 4231 
Q 1875 4231 1450 3742 
Q 1025 3253 1025 2328 
Q 1025 1406 1450 917 
Q 1875 428 2675 428 
Q 3081 428 3442 575 
Q 3803 722 4122 1019 
L 4122 359 
Q 3791 134 3420 21 
Q 3050 -91 2638 -91 
Q 1578 -91 968 557 
Q 359 1206 359 2328 
Q 359 3453 968 4101 
Q 1578 4750 2638 4750 
Q 3056 4750 3426 4639 
Q 3797 4528 4122 4306 
z
" transform="scale(0.015625)"/>
       <path id="DejaVuSans-54" d="M -19 4666 
L 3928 4666 
L 3928 4134 
L 2272 4134 
L 2272 0 
L 1638 0 
L 1638 4134 
L -19 4134 
L -19 4666 
z
" transform="scale(0.015625)"/>
       <path id="DejaVuSans-28" d="M 1984 4856 
Q 1566 4138 1362 3434 
Q 1159 2731 1159 2009 
Q 1159 1288 1364 580 
Q 1569 -128 1984 -844 
L 1484 -844 
Q 1016 -109 783 600 
Q 550 1309 550 2009 
Q 550 2706 781 3412 
Q 1013 4119 1484 4856 
L 1984 4856 
z
" transform="scale(0.015625)"/>
       <path id="DejaVuSans-27" d="M 1147 4666 
L 1147 2931 
L 616 2931 
L 616 4666 
L 1147 4666 
z
" transform="scale(0.015625)"/>
       <path id="DejaVuSans-64" d="M 2906 2969 
L 2906 4863 
L 3481 4863 
L 3481 0 
L 2906 0 
L 2906 525 
Q 2725 213 2448 61 
Q 2172 -91 1784 -91 
Q 1150 -91 751 415 
Q 353 922 353 1747 
Q 353 2572 751 3078 
Q 1150 3584 1784 3584 
Q 2172 3584 2448 3432 
Q 2725 3281 2906 2969 
z
M 947 1747 
Q 947 1113 1208 752 
Q 1469 391 1925 391 
Q 2381 391 2643 752 
Q 2906 1113 2906 1747 
Q 2906 2381 2643 2742 
Q 2381 3103 1925 3103 
Q 1469 3103 1208 2742 
Q 947 2381 947 1747 
z
" transform="scale(0.015625)"/>
       <path id="DejaVuSans-29" d="M 513 4856 
L 1013 4856 
Q 1481 4119 1714 3412 
Q 1947 2706 1947 2009 
Q 1947 1309 1714 600 
Q 1481 -109 1013 -844 
L 513 -844 
Q 928 -128 1133 580 
Q 1338 1288 1338 2009 
Q 1338 2731 1133 3434 
Q 928 4138 513 4856 
z
" transform="scale(0.015625)"/>
      </defs>
      <use xlink:href="#DejaVuSans-43"/>
      <use xlink:href="#DejaVuSans-43" transform="translate(69.824219 0)"/>
      <use xlink:href="#DejaVuSans-43" transform="translate(139.648438 0)"/>
      <use xlink:href="#DejaVuSans-54" transform="translate(209.472656 0)"/>
      <use xlink:href="#DejaVuSans-41" transform="translate(262.806641 0)"/>
      <use xlink:href="#DejaVuSans-41" transform="translate(333.964844 0)"/>
      <use xlink:href="#DejaVuSans-20" transform="translate(402.373047 0)"/>
      <use xlink:href="#DejaVuSans-28" transform="translate(434.160156 0)"/>
      <use xlink:href="#DejaVuSans-35" transform="translate(473.173828 0)"/>
      <use xlink:href="#DejaVuSans-27" transform="translate(536.796875 0)"/>
      <use xlink:href="#DejaVuSans-20" transform="translate(564.287109 0)"/>
      <use xlink:href="#DejaVuSans-65" transform="translate(596.074219 0)"/>
      <use xlink:href="#DejaVuSans-6e" transform="translate(657.597656 0)"/>
      <use xlink:href="#DejaVuSans-64" transform="translate(720.976562 0)"/>
      <use xlink:href="#DejaVuSans-29" transform="translate(784.453125 0)"/>
     </g>
    </g>
    <g id="line2d_40">
     <path d="M 441.905625 49.654687 
L 451.905625 49.654687 
L 461.905625 49.654687 
" style="fill: none; stroke: #00008b; stroke-width: 2; stroke-linecap: square"/>
    </g>
    <g id="text_23">
     <!-- TCCATCA (5' end) -->
     <g transform="translate(469.905625 53.154687) scale(0.1 -0.1)">
      <use xlink:href="#DejaVuSans-54"/>
      <use xlink:href="#DejaVuSans-43" transform="translate(55.208984 0)"/>
      <use xlink:href="#DejaVuSans-43" transform="translate(125.033203 0)"/>
      <use xlink:href="#DejaVuSans-41" transform="translate(194.857422 0)"/>
      <use xlink:href="#DejaVuSans-54" transform="translate(255.515625 0)"/>
      <use xlink:href="#DejaVuSans-43" transform="translate(310.724609 0)"/>
      <use xlink:href="#DejaVuSans-41" transform="translate(380.548828 0)"/>
      <use xlink:href="#DejaVuSans-20" transform="translate(448.957031 0)"/>
      <use xlink:href="#DejaVuSans-28" transform="translate(480.744141 0)"/>
      <use xlink:href="#DejaVuSans-35" transform="translate(519.757812 0)"/>
      <use xlink:href="#DejaVuSans-27" transform="translate(583.380859 0)"/>
      <use xlink:href="#DejaVuSans-20" transform="translate(610.871094 0)"/>
      <use xlink:href="#DejaVuSans-65" transform="translate(642.658203 0)"/>
      <use xlink:href="#DejaVuSans-6e" transform="translate(704.181641 0)"/>
      <use xlink:href="#DejaVuSans-64" transform="translate(767.560547 0)"/>
      <use xlink:href="#DejaVuSans-29" transform="translate(831.037109 0)"/>
     </g>
    </g>
   </g>
  </g>
 </g>
 <defs>
  <clipPath id="p0a92df4dcd">
   <rect x="46.965625" y="7.2" width="385.94" height="379.24"/>
  </clipPath>
 </defs>
</svg>
