<?xml version="1.0" encoding="utf-8" standalone="no"?>
<!DOCTYPE svg PUBLIC "-//W3C//DTD SVG 1.1//EN"
  "http://www.w3.org/Graphics/SVG/1.1/DTD/svg11.dtd">
<svg xmlns:xlink="http://www.w3.org/1999/xlink" width="568.075pt" height="423.99625pt" viewBox="0 0 568.075 423.99625" xmlns="http://www.w3.org/2000/svg" version="1.1">
 <metadata>
  <rdf:RDF xmlns:dc="http://purl.org/dc/elements/1.1/" xmlns:cc="http://creativecommons.org/ns#" xmlns:rdf="http://www.w3.org/1999/02/22-rdf-syntax-ns#">
   <cc:Work>
    <dc:type rdf:resource="http://purl.org/dc/dcmitype/StillImage"/>
    <dc:date>2026-04-30T15:18:46.124805</dc:date>
    <dc:format>image/svg+xml</dc:format>
    <dc:creator>
     <cc:Agent>
      <dc:title>Matplotlib v3.10.6, https://matplotlib.org/</dc:title>
     </cc:Agent>
    </dc:creator>
   </cc:Work>
  </rdf:RDF>
 </metadata>
 <defs>
  <style type="text/css">*{stroke-linejoin: round; stroke-linecap: butt}</style>
 </defs>
 <g id="figure_1">
  <g id="patch_1">
   <path d="M 0 423.99625 
L 568.075 423.99625 
L 568.075 0 
L 0 0 
z
" style="fill: #ffffff"/>
  </g>
  <g id="axes_1">
   <g id="patch_2">
    <path d="M 46.965625 386.44 
L 403.115625 386.44 
L 403.115625 7.2 
L 46.965625 7.2 
z
" style="fill: #ffffff"/>
   </g>
   <g id="matplotlib.axis_1">
    <g id="xtick_1">
     <g id="line2d_1">
      <path d="M 63.154261 386.44 
L 63.154261 7.2 
" clip-path="url(#p120a3da3a5)" style="fill: none; stroke-dasharray: 2.96,1.28; stroke-dashoffset: 0; stroke: #b0b0b0; stroke-opacity: 0.6; stroke-width: 0.8"/>
     </g>
     <g id="line2d_2">
      <defs>
       <path id="m1289910ced" d="M 0 0 
L 0 3.5 
" style="stroke: #000000; stroke-width: 0.8"/>
      </defs>
      <g>
       <use xlink:href="#m1289910ced" x="63.154261" y="386.44" style="stroke: #000000; stroke-width: 0.8"/>
      </g>
     </g>
     <g id="text_1">
      <!-- 0 -->
      <g transform="translate(59.973011 401.038437) scale(0.1 -0.1)">
       <defs>
        <path id="DejaVuSans-30" d="M 2034 4250 
Q 1547 4250 1301 3770 
Q 1056 3291 1056 2328 
Q 1056 1369 1301 889 
Q 1547 409 2034 409 
Q 2525 409 2770 889 
Q 3016 1369 3016 2328 
Q 3016 3291 2770 3770 
Q 2525 4250 2034 4250 
z
M 2034 4750 
Q 2819 4750 3233 4129 
Q 3647 3509 3647 2328 
Q 3647 1150 3233 529 
Q 2819 -91 2034 -91 
Q 1250 -91 836 529 
Q 422 1150 422 2328 
Q 422 3509 836 4129 
Q 1250 4750 2034 4750 
z
" transform="scale(0.015625)"/>
       </defs>
       <use xlink:href="#DejaVuSans-30"/>
      </g>
     </g>
    </g>
    <g id="xtick_2">
     <g id="line2d_3">
      <path d="M 103.625852 386.44 
L 103.625852 7.2 
" clip-path="url(#p120a3da3a5)" style="fill: none; stroke-dasharray: 2.96,1.28; stroke-dashoffset: 0; stroke: #b0b0b0; stroke-opacity: 0.6; stroke-width: 0.8"/>
     </g>
     <g id="line2d_4">
      <g>
       <use xlink:href="#m1289910ced" x="103.625852" y="386.44" style="stroke: #000000; stroke-width: 0.8"/>
      </g>
     </g>
     <g id="text_2">
      <!-- 1000 -->
      <g transform="translate(90.900852 401.038437) scale(0.1 -0.1)">
       <defs>
        <path id="DejaVuSans-31" d="M 794 531 
L 1825 531 
L 1825 4091 
L 703 3866 
L 703 4441 
L 1819 4666 
L 2450 4666 
L 2450 531 
L 3481 531 
L 3481 0 
L 794 0 
L 794 531 
z
" transform="scale(0.015625)"/>
       </defs>
       <use xlink:href="#DejaVuSans-31"/>
       <use xlink:href="#DejaVuSans-30" transform="translate(63.623047 0)"/>
       <use xlink:href="#DejaVuSans-30" transform="translate(127.246094 0)"/>
       <use xlink:href="#DejaVuSans-30" transform="translate(190.869141 0)"/>
      </g>
     </g>
    </g>
    <g id="xtick_3">
     <g id="line2d_5">
      <path d="M 144.097443 386.44 
L 144.097443 7.2 
" clip-path="url(#p120a3da3a5)" style="fill: none; stroke-dasharray: 2.96,1.28; stroke-dashoffset: 0; stroke: #b0b0b0; stroke-opacity: 0.6; stroke-width: 0.8"/>
     </g>
     <g id="line2d_6">
      <g>
       <use xlink:href="#m1289910ced" x="144.097443" y="386.44" style="stroke: #000000; stroke-width: 0.8"/>
      </g>
     </g>
     <g id="text_3">
      <!-- 2000 -->
      <g transform="translate(131.372443 401.038437) scale(0.1 -0.1)">
       <defs>
        <path id="DejaVuSans-32" d="M 1228 531 
L 3431 531 
L 3431 0 
L 469 0 
L 469 531 
Q 828 903 1448 1529 
Q 2069 2156 2228 2338 
Q 2531 2678 2651 2914 
Q 2772 3150 2772 3378 
Q 2772 3750 2511 3984 
Q 2250 4219 1831 4219 
Q 1534 4219 1204 4116 
Q 875 4013 500 3803 
L 500 4441 
Q 881 4594 1212 4672 
Q 1544 4750 1819 4750 
Q 2544 4750 2975 4387 
Q 3406 4025 3406 3419 
Q 3406 3131 3298 2873 
Q 3191 2616 2906 2266 
Q 2828 2175 2409 1742 
Q 1991 1309 1228 531 
z
" transform="scale(0.015625)"/>
       </defs>
       <use xlink:href="#DejaVuSans-32"/>
       <use xlink:href="#DejaVuSans-30" transform="translate(63.623047 0)"/>
       <use xlink:href="#DejaVuSans-30" transform="translate(127.246094 0)"/>
       <use xlink:href="#DejaVuSans-30" transform="translate(190.869141 0)"/>
      </g>
     </g>
    </g>
    <g id="xtick_4">
     <g id="line2d_7">
      <path d="M 184.569034 386.44 
L 184.569034 7.2 
" clip-path="url(#p120a3da3a5)" style="fill: none; stroke-dasharray: 2.96,1.28; stroke-dashoffset: 0; stroke: #b0b0b0; stroke-opacity: 0.6; stroke-width: 0.8"/>
     </g>
     <g id="line2d_8">
      <g>
       <use xlink:href="#m1289910ced" x="184.569034" y="386.44" style="stroke: #000000; stroke-width: 0.8"/>
      </g>
     </g>
     <g id="text_4">
      <!-- 3000 -->
      <g transform="translate(171.844034 401.038437) scale(0.1 -0.1)">
       <defs>
        <path id="DejaVuSans-33" d="M 2597 2516 
Q 3050 2419 3304 2112 
Q 3559 1806 3559 1356 
Q 3559 666 3084 287 
Q 2609 -91 1734 -91 
Q 1441 -91 1130 -33 
Q 819 25 488 141 
L 488 750 
Q 750 597 1062 519 
Q 1375 441 1716 441 
Q 2309 441 2620 675 
Q 2931 909 2931 1356 
Q 2931 1769 2642 2001 
Q 2353 2234 1838 2234 
L 1294 2234 
L 1294 2753 
L 1863 2753 
Q 2328 2753 2575 2939 
Q 2822 3125 2822 3475 
Q 2822 3834 2567 4026 
Q 2313 4219 1838 4219 
Q 1578 4219 1281 4162 
Q 984 4106 628 3988 
L 628 4550 
Q 988 4650 1302 4700 
Q 1616 4750 1894 4750 
Q 2613 4750 3031 4423 
Q 3450 4097 3450 3541 
Q 3450 3153 3228 2886 
Q 3006 2619 2597 2516 
z
" transform="scale(0.015625)"/>
       </defs>
       <use xlink:href="#DejaVuSans-33"/>
       <use xlink:href="#DejaVuSans-30" transform="translate(63.623047 0)"/>
       <use xlink:href="#DejaVuSans-30" transform="translate(127.246094 0)"/>
       <use xlink:href="#DejaVuSans-30" transform="translate(190.869141 0)"/>
      </g>
     </g>
    </g>
    <g id="xtick_5">
     <g id="line2d_9">
      <path d="M 225.040625 386.44 
L 225.040625 7.2 
" clip-path="url(#p120a3da3a5)" style="fill: none; stroke-dasharray: 2.96,1.28; stroke-dashoffset: 0; stroke: #b0b0b0; stroke-opacity: 0.6; stroke-width: 0.8"/>
     </g>
     <g id="line2d_10">
      <g>
       <use xlink:href="#m1289910ced" x="225.040625" y="386.44" style="stroke: #000000; stroke-width: 0.8"/>
      </g>
     </g>
     <g id="text_5">
      <!-- 4000 -->
      <g transform="translate(212.315625 401.038437) scale(0.1 -0.1)">
       <defs>
        <path id="DejaVuSans-34" d="M 2419 4116 
L 825 1625 
L 2419 1625 
L 2419 4116 
z
M 2253 4666 
L 3047 4666 
L 3047 1625 
L 3713 1625 
L 3713 1100 
L 3047 1100 
L 3047 0 
L 2419 0 
L 2419 1100 
L 313 1100 
L 313 1709 
L 2253 4666 
z
" transform="scale(0.015625)"/>
       </defs>
       <use xlink:href="#DejaVuSans-34"/>
       <use xlink:href="#DejaVuSans-30" transform="translate(63.623047 0)"/>
       <use xlink:href="#DejaVuSans-30" transform="translate(127.246094 0)"/>
       <use xlink:href="#DejaVuSans-30" transform="translate(190.869141 0)"/>
      </g>
     </g>
    </g>
    <g id="xtick_6">
     <g id="line2d_11">
      <path d="M 265.512216 386.44 
L 265.512216 7.2 
" clip-path="url(#p120a3da3a5)" style="fill: none; stroke-dasharray: 2.96,1.28; stroke-dashoffset: 0; stroke: #b0b0b0; stroke-opacity: 0.6; stroke-width: 0.8"/>
     </g>
     <g id="line2d_12">
      <g>
       <use xlink:href="#m1289910ced" x="265.512216" y="386.44" style="stroke: #000000; stroke-width: 0.8"/>
      </g>
     </g>
     <g id="text_6">
      <!-- 5000 -->
      <g transform="translate(252.787216 401.038437) scale(0.1 -0.1)">
       <defs>
        <path id="DejaVuSans-35" d="M 691 4666 
L 3169 4666 
L 3169 4134 
L 1269 4134 
L 1269 2991 
Q 1406 3038 1543 3061 
Q 1681 3084 1819 3084 
Q 2600 3084 3056 2656 
Q 3513 2228 3513 1497 
Q 3513 744 3044 326 
Q 2575 -91 1722 -91 
Q 1428 -91 1123 -41 
Q 819 9 494 109 
L 494 744 
Q 775 591 1075 516 
Q 1375 441 1709 441 
Q 2250 441 2565 725 
Q 2881 1009 2881 1497 
Q 2881 1984 2565 2268 
Q 2250 2553 1709 2553 
Q 1456 2553 1204 2497 
Q 953 2441 691 2322 
L 691 4666 
z
" transform="scale(0.015625)"/>
       </defs>
       <use xlink:href="#DejaVuSans-35"/>
       <use xlink:href="#DejaVuSans-30" transform="translate(63.623047 0)"/>
       <use xlink:href="#DejaVuSans-30" transform="translate(127.246094 0)"/>
       <use xlink:href="#DejaVuSans-30" transform="translate(190.869141 0)"/>
      </g>
     </g>
    </g>
    <g id="xtick_7">
     <g id="line2d_13">
      <path d="M 305.983807 386.44 
L 305.983807 7.2 
" clip-path="url(#p120a3da3a5)" style="fill: none; stroke-dasharray: 2.96,1.28; stroke-dashoffset: 0; stroke: #b0b0b0; stroke-opacity: 0.6; stroke-width: 0.8"/>
     </g>
     <g id="line2d_14">
      <g>
       <use xlink:href="#m1289910ced" x="305.983807" y="386.44" style="stroke: #000000; stroke-width: 0.8"/>
      </g>
     </g>
     <g id="text_7">
      <!-- 6000 -->
      <g transform="translate(293.258807 401.038437) scale(0.1 -0.1)">
       <defs>
        <path id="DejaVuSans-36" d="M 2113 2584 
Q 1688 2584 1439 2293 
Q 1191 2003 1191 1497 
Q 1191 994 1439 701 
Q 1688 409 2113 409 
Q 2538 409 2786 701 
Q 3034 994 3034 1497 
Q 3034 2003 2786 2293 
Q 2538 2584 2113 2584 
z
M 3366 4563 
L 3366 3988 
Q 3128 4100 2886 4159 
Q 2644 4219 2406 4219 
Q 1781 4219 1451 3797 
Q 1122 3375 1075 2522 
Q 1259 2794 1537 2939 
Q 1816 3084 2150 3084 
Q 2853 3084 3261 2657 
Q 3669 2231 3669 1497 
Q 3669 778 3244 343 
Q 2819 -91 2113 -91 
Q 1303 -91 875 529 
Q 447 1150 447 2328 
Q 447 3434 972 4092 
Q 1497 4750 2381 4750 
Q 2619 4750 2861 4703 
Q 3103 4656 3366 4563 
z
" transform="scale(0.015625)"/>
       </defs>
       <use xlink:href="#DejaVuSans-36"/>
       <use xlink:href="#DejaVuSans-30" transform="translate(63.623047 0)"/>
       <use xlink:href="#DejaVuSans-30" transform="translate(127.246094 0)"/>
       <use xlink:href="#DejaVuSans-30" transform="translate(190.869141 0)"/>
      </g>
     </g>
    </g>
    <g id="xtick_8">
     <g id="line2d_15">
      <path d="M 346.455398 386.44 
L 346.455398 7.2 
" clip-path="url(#p120a3da3a5)" style="fill: none; stroke-dasharray: 2.96,1.28; stroke-dashoffset: 0; stroke: #b0b0b0; stroke-opacity: 0.6; stroke-width: 0.8"/>
     </g>
     <g id="line2d_16">
      <g>
       <use xlink:href="#m1289910ced" x="346.455398" y="386.44" style="stroke: #000000; stroke-width: 0.8"/>
      </g>
     </g>
     <g id="text_8">
      <!-- 7000 -->
      <g transform="translate(333.730398 401.038437) scale(0.1 -0.1)">
       <defs>
        <path id="DejaVuSans-37" d="M 525 4666 
L 3525 4666 
L 3525 4397 
L 1831 0 
L 1172 0 
L 2766 4134 
L 525 4134 
L 525 4666 
z
" transform="scale(0.015625)"/>
       </defs>
       <use xlink:href="#DejaVuSans-37"/>
       <use xlink:href="#DejaVuSans-30" transform="translate(63.623047 0)"/>
       <use xlink:href="#DejaVuSans-30" transform="translate(127.246094 0)"/>
       <use xlink:href="#DejaVuSans-30" transform="translate(190.869141 0)"/>
      </g>
     </g>
    </g>
    <g id="xtick_9">
     <g id="line2d_17">
      <path d="M 386.926989 386.44 
L 386.926989 7.2 
" clip-path="url(#p120a3da3a5)" style="fill: none; stroke-dasharray: 2.96,1.28; stroke-dashoffset: 0; stroke: #b0b0b0; stroke-opacity: 0.6; stroke-width: 0.8"/>
     </g>
     <g id="line2d_18">
      <g>
       <use xlink:href="#m1289910ced" x="386.926989" y="386.44" style="stroke: #000000; stroke-width: 0.8"/>
      </g>
     </g>
     <g id="text_9">
      <!-- 8000 -->
      <g transform="translate(374.201989 401.038437) scale(0.1 -0.1)">
       <defs>
        <path id="DejaVuSans-38" d="M 2034 2216 
Q 1584 2216 1326 1975 
Q 1069 1734 1069 1313 
Q 1069 891 1326 650 
Q 1584 409 2034 409 
Q 2484 409 2743 651 
Q 3003 894 3003 1313 
Q 3003 1734 2745 1975 
Q 2488 2216 2034 2216 
z
M 1403 2484 
Q 997 2584 770 2862 
Q 544 3141 544 3541 
Q 544 4100 942 4425 
Q 1341 4750 2034 4750 
Q 2731 4750 3128 4425 
Q 3525 4100 3525 3541 
Q 3525 3141 3298 2862 
Q 3072 2584 2669 2484 
Q 3125 2378 3379 2068 
Q 3634 1759 3634 1313 
Q 3634 634 3220 271 
Q 2806 -91 2034 -91 
Q 1263 -91 848 271 
Q 434 634 434 1313 
Q 434 1759 690 2068 
Q 947 2378 1403 2484 
z
M 1172 3481 
Q 1172 3119 1398 2916 
Q 1625 2713 2034 2713 
Q 2441 2713 2670 2916 
Q 2900 3119 2900 3481 
Q 2900 3844 2670 4047 
Q 2441 4250 2034 4250 
Q 1625 4250 1398 4047 
Q 1172 3844 1172 3481 
z
" transform="scale(0.015625)"/>
       </defs>
       <use xlink:href="#DejaVuSans-38"/>
       <use xlink:href="#DejaVuSans-30" transform="translate(63.623047 0)"/>
       <use xlink:href="#DejaVuSans-30" transform="translate(127.246094 0)"/>
       <use xlink:href="#DejaVuSans-30" transform="translate(190.869141 0)"/>
      </g>
     </g>
    </g>
    <g id="text_10">
     <!-- Distance from terminus [nt] -->
     <g transform="translate(155.541406 414.716562) scale(0.1 -0.1)">
      <defs>
       <path id="DejaVuSans-44" d="M 1259 4147 
L 1259 519 
L 2022 519 
Q 2988 519 3436 956 
Q 3884 1394 3884 2338 
Q 3884 3275 3436 3711 
Q 2988 4147 2022 4147 
L 1259 4147 
z
M 628 4666 
L 1925 4666 
Q 3281 4666 3915 4102 
Q 4550 3538 4550 2338 
Q 4550 1131 3912 565 
Q 3275 0 1925 0 
L 628 0 
L 628 4666 
z
" transform="scale(0.015625)"/>
       <path id="DejaVuSans-69" d="M 603 3500 
L 1178 3500 
L 1178 0 
L 603 0 
L 603 3500 
z
M 603 4863 
L 1178 4863 
L 1178 4134 
L 603 4134 
L 603 4863 
z
" transform="scale(0.015625)"/>
       <path id="DejaVuSans-73" d="M 2834 3397 
L 2834 2853 
Q 2591 2978 2328 3040 
Q 2066 3103 1784 3103 
Q 1356 3103 1142 2972 
Q 928 2841 928 2578 
Q 928 2378 1081 2264 
Q 1234 2150 1697 2047 
L 1894 2003 
Q 2506 1872 2764 1633 
Q 3022 1394 3022 966 
Q 3022 478 2636 193 
Q 2250 -91 1575 -91 
Q 1294 -91 989 -36 
Q 684 19 347 128 
L 347 722 
Q 666 556 975 473 
Q 1284 391 1588 391 
Q 1994 391 2212 530 
Q 2431 669 2431 922 
Q 2431 1156 2273 1281 
Q 2116 1406 1581 1522 
L 1381 1569 
Q 847 1681 609 1914 
Q 372 2147 372 2553 
Q 372 3047 722 3315 
Q 1072 3584 1716 3584 
Q 2034 3584 2315 3537 
Q 2597 3491 2834 3397 
z
" transform="scale(0.015625)"/>
       <path id="DejaVuSans-74" d="M 1172 4494 
L 1172 3500 
L 2356 3500 
L 2356 3053 
L 1172 3053 
L 1172 1153 
Q 1172 725 1289 603 
Q 1406 481 1766 481 
L 2356 481 
L 2356 0 
L 1766 0 
Q 1100 0 847 248 
Q 594 497 594 1153 
L 594 3053 
L 172 3053 
L 172 3500 
L 594 3500 
L 594 4494 
L 1172 4494 
z
" transform="scale(0.015625)"/>
       <path id="DejaVuSans-61" d="M 2194 1759 
Q 1497 1759 1228 1600 
Q 959 1441 959 1056 
Q 959 750 1161 570 
Q 1363 391 1709 391 
Q 2188 391 2477 730 
Q 2766 1069 2766 1631 
L 2766 1759 
L 2194 1759 
z
M 3341 1997 
L 3341 0 
L 2766 0 
L 2766 531 
Q 2569 213 2275 61 
Q 1981 -91 1556 -91 
Q 1019 -91 701 211 
Q 384 513 384 1019 
Q 384 1609 779 1909 
Q 1175 2209 1959 2209 
L 2766 2209 
L 2766 2266 
Q 2766 2663 2505 2880 
Q 2244 3097 1772 3097 
Q 1472 3097 1187 3025 
Q 903 2953 641 2809 
L 641 3341 
Q 956 3463 1253 3523 
Q 1550 3584 1831 3584 
Q 2591 3584 2966 3190 
Q 3341 2797 3341 1997 
z
" transform="scale(0.015625)"/>
       <path id="DejaVuSans-6e" d="M 3513 2113 
L 3513 0 
L 2938 0 
L 2938 2094 
Q 2938 2591 2744 2837 
Q 2550 3084 2163 3084 
Q 1697 3084 1428 2787 
Q 1159 2491 1159 1978 
L 1159 0 
L 581 0 
L 581 3500 
L 1159 3500 
L 1159 2956 
Q 1366 3272 1645 3428 
Q 1925 3584 2291 3584 
Q 2894 3584 3203 3211 
Q 3513 2838 3513 2113 
z
" transform="scale(0.015625)"/>
       <path id="DejaVuSans-63" d="M 3122 3366 
L 3122 2828 
Q 2878 2963 2633 3030 
Q 2388 3097 2138 3097 
Q 1578 3097 1268 2742 
Q 959 2388 959 1747 
Q 959 1106 1268 751 
Q 1578 397 2138 397 
Q 2388 397 2633 464 
Q 2878 531 3122 666 
L 3122 134 
Q 2881 22 2623 -34 
Q 2366 -91 2075 -91 
Q 1284 -91 818 406 
Q 353 903 353 1747 
Q 353 2603 823 3093 
Q 1294 3584 2113 3584 
Q 2378 3584 2631 3529 
Q 2884 3475 3122 3366 
z
" transform="scale(0.015625)"/>
       <path id="DejaVuSans-65" d="M 3597 1894 
L 3597 1613 
L 953 1613 
Q 991 1019 1311 708 
Q 1631 397 2203 397 
Q 2534 397 2845 478 
Q 3156 559 3463 722 
L 3463 178 
Q 3153 47 2828 -22 
Q 2503 -91 2169 -91 
Q 1331 -91 842 396 
Q 353 884 353 1716 
Q 353 2575 817 3079 
Q 1281 3584 2069 3584 
Q 2775 3584 3186 3129 
Q 3597 2675 3597 1894 
z
M 3022 2063 
Q 3016 2534 2758 2815 
Q 2500 3097 2075 3097 
Q 1594 3097 1305 2825 
Q 1016 2553 972 2059 
L 3022 2063 
z
" transform="scale(0.015625)"/>
       <path id="DejaVuSans-20" transform="scale(0.015625)"/>
       <path id="DejaVuSans-66" d="M 2375 4863 
L 2375 4384 
L 1825 4384 
Q 1516 4384 1395 4259 
Q 1275 4134 1275 3809 
L 1275 3500 
L 2222 3500 
L 2222 3053 
L 1275 3053 
L 1275 0 
L 697 0 
L 697 3053 
L 147 3053 
L 147 3500 
L 697 3500 
L 697 3744 
Q 697 4328 969 4595 
Q 1241 4863 1831 4863 
L 2375 4863 
z
" transform="scale(0.015625)"/>
       <path id="DejaVuSans-72" d="M 2631 2963 
Q 2534 3019 2420 3045 
Q 2306 3072 2169 3072 
Q 1681 3072 1420 2755 
Q 1159 2438 1159 1844 
L 1159 0 
L 581 0 
L 581 3500 
L 1159 3500 
L 1159 2956 
Q 1341 3275 1631 3429 
Q 1922 3584 2338 3584 
Q 2397 3584 2469 3576 
Q 2541 3569 2628 3553 
L 2631 2963 
z
" transform="scale(0.015625)"/>
       <path id="DejaVuSans-6f" d="M 1959 3097 
Q 1497 3097 1228 2736 
Q 959 2375 959 1747 
Q 959 1119 1226 758 
Q 1494 397 1959 397 
Q 2419 397 2687 759 
Q 2956 1122 2956 1747 
Q 2956 2369 2687 2733 
Q 2419 3097 1959 3097 
z
M 1959 3584 
Q 2709 3584 3137 3096 
Q 3566 2609 3566 1747 
Q 3566 888 3137 398 
Q 2709 -91 1959 -91 
Q 1206 -91 779 398 
Q 353 888 353 1747 
Q 353 2609 779 3096 
Q 1206 3584 1959 3584 
z
" transform="scale(0.015625)"/>
       <path id="DejaVuSans-6d" d="M 3328 2828 
Q 3544 3216 3844 3400 
Q 4144 3584 4550 3584 
Q 5097 3584 5394 3201 
Q 5691 2819 5691 2113 
L 5691 0 
L 5113 0 
L 5113 2094 
Q 5113 2597 4934 2840 
Q 4756 3084 4391 3084 
Q 3944 3084 3684 2787 
Q 3425 2491 3425 1978 
L 3425 0 
L 2847 0 
L 2847 2094 
Q 2847 2600 2669 2842 
Q 2491 3084 2119 3084 
Q 1678 3084 1418 2786 
Q 1159 2488 1159 1978 
L 1159 0 
L 581 0 
L 581 3500 
L 1159 3500 
L 1159 2956 
Q 1356 3278 1631 3431 
Q 1906 3584 2284 3584 
Q 2666 3584 2933 3390 
Q 3200 3197 3328 2828 
z
" transform="scale(0.015625)"/>
       <path id="DejaVuSans-75" d="M 544 1381 
L 544 3500 
L 1119 3500 
L 1119 1403 
Q 1119 906 1312 657 
Q 1506 409 1894 409 
Q 2359 409 2629 706 
Q 2900 1003 2900 1516 
L 2900 3500 
L 3475 3500 
L 3475 0 
L 2900 0 
L 2900 538 
Q 2691 219 2414 64 
Q 2138 -91 1772 -91 
Q 1169 -91 856 284 
Q 544 659 544 1381 
z
M 1991 3584 
L 1991 3584 
z
" transform="scale(0.015625)"/>
       <path id="DejaVuSans-5b" d="M 550 4863 
L 1875 4863 
L 1875 4416 
L 1125 4416 
L 1125 -397 
L 1875 -397 
L 1875 -844 
L 550 -844 
L 550 4863 
z
" transform="scale(0.015625)"/>
       <path id="DejaVuSans-5d" d="M 1947 4863 
L 1947 -844 
L 622 -844 
L 622 -397 
L 1369 -397 
L 1369 4416 
L 622 4416 
L 622 4863 
L 1947 4863 
z
" transform="scale(0.015625)"/>
      </defs>
      <use xlink:href="#DejaVuSans-44"/>
      <use xlink:href="#DejaVuSans-69" transform="translate(77.001953 0)"/>
      <use xlink:href="#DejaVuSans-73" transform="translate(104.785156 0)"/>
      <use xlink:href="#DejaVuSans-74" transform="translate(156.884766 0)"/>
      <use xlink:href="#DejaVuSans-61" transform="translate(196.09375 0)"/>
      <use xlink:href="#DejaVuSans-6e" transform="translate(257.373047 0)"/>
      <use xlink:href="#DejaVuSans-63" transform="translate(320.751953 0)"/>
      <use xlink:href="#DejaVuSans-65" transform="translate(375.732422 0)"/>
      <use xlink:href="#DejaVuSans-20" transform="translate(437.255859 0)"/>
      <use xlink:href="#DejaVuSans-66" transform="translate(469.042969 0)"/>
      <use xlink:href="#DejaVuSans-72" transform="translate(504.248047 0)"/>
      <use xlink:href="#DejaVuSans-6f" transform="translate(543.111328 0)"/>
      <use xlink:href="#DejaVuSans-6d" transform="translate(604.292969 0)"/>
      <use xlink:href="#DejaVuSans-20" transform="translate(701.705078 0)"/>
      <use xlink:href="#DejaVuSans-74" transform="translate(733.492188 0)"/>
      <use xlink:href="#DejaVuSans-65" transform="translate(772.701172 0)"/>
      <use xlink:href="#DejaVuSans-72" transform="translate(834.224609 0)"/>
      <use xlink:href="#DejaVuSans-6d" transform="translate(873.587891 0)"/>
      <use xlink:href="#DejaVuSans-69" transform="translate(971 0)"/>
      <use xlink:href="#DejaVuSans-6e" transform="translate(998.783203 0)"/>
      <use xlink:href="#DejaVuSans-75" transform="translate(1062.162109 0)"/>
      <use xlink:href="#DejaVuSans-73" transform="translate(1125.541016 0)"/>
      <use xlink:href="#DejaVuSans-20" transform="translate(1177.640625 0)"/>
      <use xlink:href="#DejaVuSans-5b" transform="translate(1209.427734 0)"/>
      <use xlink:href="#DejaVuSans-6e" transform="translate(1248.441406 0)"/>
      <use xlink:href="#DejaVuSans-74" transform="translate(1311.820312 0)"/>
      <use xlink:href="#DejaVuSans-5d" transform="translate(1351.029297 0)"/>
     </g>
    </g>
   </g>
   <g id="matplotlib.axis_2">
    <g id="ytick_1">
     <g id="line2d_19">
      <path d="M 46.965625 369.201818 
L 403.115625 369.201818 
" clip-path="url(#p120a3da3a5)" style="fill: none; stroke-dasharray: 2.96,1.28; stroke-dashoffset: 0; stroke: #b0b0b0; stroke-opacity: 0.6; stroke-width: 0.8"/>
     </g>
     <g id="line2d_20">
      <defs>
       <path id="m69ccad5955" d="M 0 0 
L -3.5 0 
" style="stroke: #000000; stroke-width: 0.8"/>
      </defs>
      <g>
       <use xlink:href="#m69ccad5955" x="46.965625" y="369.201818" style="stroke: #000000; stroke-width: 0.8"/>
      </g>
     </g>
     <g id="text_11">
      <!-- 0 -->
      <g transform="translate(33.603125 373.001037) scale(0.1 -0.1)">
       <use xlink:href="#DejaVuSans-30"/>
      </g>
     </g>
    </g>
    <g id="ytick_2">
     <g id="line2d_21">
      <path d="M 46.965625 302.516395 
L 403.115625 302.516395 
" clip-path="url(#p120a3da3a5)" style="fill: none; stroke-dasharray: 2.96,1.28; stroke-dashoffset: 0; stroke: #b0b0b0; stroke-opacity: 0.6; stroke-width: 0.8"/>
     </g>
     <g id="line2d_22">
      <g>
       <use xlink:href="#m69ccad5955" x="46.965625" y="302.516395" style="stroke: #000000; stroke-width: 0.8"/>
      </g>
     </g>
     <g id="text_12">
      <!-- 100 -->
      <g transform="translate(20.878125 306.315614) scale(0.1 -0.1)">
       <use xlink:href="#DejaVuSans-31"/>
       <use xlink:href="#DejaVuSans-30" transform="translate(63.623047 0)"/>
       <use xlink:href="#DejaVuSans-30" transform="translate(127.246094 0)"/>
      </g>
     </g>
    </g>
    <g id="ytick_3">
     <g id="line2d_23">
      <path d="M 46.965625 235.830972 
L 403.115625 235.830972 
" clip-path="url(#p120a3da3a5)" style="fill: none; stroke-dasharray: 2.96,1.28; stroke-dashoffset: 0; stroke: #b0b0b0; stroke-opacity: 0.6; stroke-width: 0.8"/>
     </g>
     <g id="line2d_24">
      <g>
       <use xlink:href="#m69ccad5955" x="46.965625" y="235.830972" style="stroke: #000000; stroke-width: 0.8"/>
      </g>
     </g>
     <g id="text_13">
      <!-- 200 -->
      <g transform="translate(20.878125 239.630191) scale(0.1 -0.1)">
       <use xlink:href="#DejaVuSans-32"/>
       <use xlink:href="#DejaVuSans-30" transform="translate(63.623047 0)"/>
       <use xlink:href="#DejaVuSans-30" transform="translate(127.246094 0)"/>
      </g>
     </g>
    </g>
    <g id="ytick_4">
     <g id="line2d_25">
      <path d="M 46.965625 169.145549 
L 403.115625 169.145549 
" clip-path="url(#p120a3da3a5)" style="fill: none; stroke-dasharray: 2.96,1.28; stroke-dashoffset: 0; stroke: #b0b0b0; stroke-opacity: 0.6; stroke-width: 0.8"/>
     </g>
     <g id="line2d_26">
      <g>
       <use xlink:href="#m69ccad5955" x="46.965625" y="169.145549" style="stroke: #000000; stroke-width: 0.8"/>
      </g>
     </g>
     <g id="text_14">
      <!-- 300 -->
      <g transform="translate(20.878125 172.944768) scale(0.1 -0.1)">
       <use xlink:href="#DejaVuSans-33"/>
       <use xlink:href="#DejaVuSans-30" transform="translate(63.623047 0)"/>
       <use xlink:href="#DejaVuSans-30" transform="translate(127.246094 0)"/>
      </g>
     </g>
    </g>
    <g id="ytick_5">
     <g id="line2d_27">
      <path d="M 46.965625 102.460127 
L 403.115625 102.460127 
" clip-path="url(#p120a3da3a5)" style="fill: none; stroke-dasharray: 2.96,1.28; stroke-dashoffset: 0; stroke: #b0b0b0; stroke-opacity: 0.6; stroke-width: 0.8"/>
     </g>
     <g id="line2d_28">
      <g>
       <use xlink:href="#m69ccad5955" x="46.965625" y="102.460127" style="stroke: #000000; stroke-width: 0.8"/>
      </g>
     </g>
     <g id="text_15">
      <!-- 400 -->
      <g transform="translate(20.878125 106.259345) scale(0.1 -0.1)">
       <use xlink:href="#DejaVuSans-34"/>
       <use xlink:href="#DejaVuSans-30" transform="translate(63.623047 0)"/>
       <use xlink:href="#DejaVuSans-30" transform="translate(127.246094 0)"/>
      </g>
     </g>
    </g>
    <g id="ytick_6">
     <g id="line2d_29">
      <path d="M 46.965625 35.774704 
L 403.115625 35.774704 
" clip-path="url(#p120a3da3a5)" style="fill: none; stroke-dasharray: 2.96,1.28; stroke-dashoffset: 0; stroke: #b0b0b0; stroke-opacity: 0.6; stroke-width: 0.8"/>
     </g>
     <g id="line2d_30">
      <g>
       <use xlink:href="#m69ccad5955" x="46.965625" y="35.774704" style="stroke: #000000; stroke-width: 0.8"/>
      </g>
     </g>
     <g id="text_16">
      <!-- 500 -->
      <g transform="translate(20.878125 39.573922) scale(0.1 -0.1)">
       <use xlink:href="#DejaVuSans-35"/>
       <use xlink:href="#DejaVuSans-30" transform="translate(63.623047 0)"/>
       <use xlink:href="#DejaVuSans-30" transform="translate(127.246094 0)"/>
      </g>
     </g>
    </g>
    <g id="text_17">
     <!-- Average cumulative count -->
     <g transform="translate(14.798438 262.4325) rotate(-90) scale(0.1 -0.1)">
      <defs>
       <path id="DejaVuSans-41" d="M 2188 4044 
L 1331 1722 
L 3047 1722 
L 2188 4044 
z
M 1831 4666 
L 2547 4666 
L 4325 0 
L 3669 0 
L 3244 1197 
L 1141 1197 
L 716 0 
L 50 0 
L 1831 4666 
z
" transform="scale(0.015625)"/>
       <path id="DejaVuSans-76" d="M 191 3500 
L 800 3500 
L 1894 563 
L 2988 3500 
L 3597 3500 
L 2284 0 
L 1503 0 
L 191 3500 
z
" transform="scale(0.015625)"/>
       <path id="DejaVuSans-67" d="M 2906 1791 
Q 2906 2416 2648 2759 
Q 2391 3103 1925 3103 
Q 1463 3103 1205 2759 
Q 947 2416 947 1791 
Q 947 1169 1205 825 
Q 1463 481 1925 481 
Q 2391 481 2648 825 
Q 2906 1169 2906 1791 
z
M 3481 434 
Q 3481 -459 3084 -895 
Q 2688 -1331 1869 -1331 
Q 1566 -1331 1297 -1286 
Q 1028 -1241 775 -1147 
L 775 -588 
Q 1028 -725 1275 -790 
Q 1522 -856 1778 -856 
Q 2344 -856 2625 -561 
Q 2906 -266 2906 331 
L 2906 616 
Q 2728 306 2450 153 
Q 2172 0 1784 0 
Q 1141 0 747 490 
Q 353 981 353 1791 
Q 353 2603 747 3093 
Q 1141 3584 1784 3584 
Q 2172 3584 2450 3431 
Q 2728 3278 2906 2969 
L 2906 3500 
L 3481 3500 
L 3481 434 
z
" transform="scale(0.015625)"/>
       <path id="DejaVuSans-6c" d="M 603 4863 
L 1178 4863 
L 1178 0 
L 603 0 
L 603 4863 
z
" transform="scale(0.015625)"/>
      </defs>
      <use xlink:href="#DejaVuSans-41"/>
      <use xlink:href="#DejaVuSans-76" transform="translate(62.533203 0)"/>
      <use xlink:href="#DejaVuSans-65" transform="translate(121.712891 0)"/>
      <use xlink:href="#DejaVuSans-72" transform="translate(183.236328 0)"/>
      <use xlink:href="#DejaVuSans-61" transform="translate(224.349609 0)"/>
      <use xlink:href="#DejaVuSans-67" transform="translate(285.628906 0)"/>
      <use xlink:href="#DejaVuSans-65" transform="translate(349.105469 0)"/>
      <use xlink:href="#DejaVuSans-20" transform="translate(410.628906 0)"/>
      <use xlink:href="#DejaVuSans-63" transform="translate(442.416016 0)"/>
      <use xlink:href="#DejaVuSans-75" transform="translate(497.396484 0)"/>
      <use xlink:href="#DejaVuSans-6d" transform="translate(560.775391 0)"/>
      <use xlink:href="#DejaVuSans-75" transform="translate(658.1875 0)"/>
      <use xlink:href="#DejaVuSans-6c" transform="translate(721.566406 0)"/>
      <use xlink:href="#DejaVuSans-61" transform="translate(749.349609 0)"/>
      <use xlink:href="#DejaVuSans-74" transform="translate(810.628906 0)"/>
      <use xlink:href="#DejaVuSans-69" transform="translate(849.837891 0)"/>
      <use xlink:href="#DejaVuSans-76" transform="translate(877.621094 0)"/>
      <use xlink:href="#DejaVuSans-65" transform="translate(936.800781 0)"/>
      <use xlink:href="#DejaVuSans-20" transform="translate(998.324219 0)"/>
      <use xlink:href="#DejaVuSans-63" transform="translate(1030.111328 0)"/>
      <use xlink:href="#DejaVuSans-6f" transform="translate(1085.091797 0)"/>
      <use xlink:href="#DejaVuSans-75" transform="translate(1146.273438 0)"/>
      <use xlink:href="#DejaVuSans-6e" transform="translate(1209.652344 0)"/>
      <use xlink:href="#DejaVuSans-74" transform="translate(1273.03125 0)"/>
     </g>
    </g>
   </g>
   <g id="line2d_31">
    <path d="M 63.154261 369.201818 
L 386.886517 369.201818 
L 386.886517 369.201818 
" clip-path="url(#p120a3da3a5)" style="fill: none; stroke: #add8e6; stroke-width: 2; stroke-linecap: square"/>
   </g>
   <g id="line2d_32">
    <path d="M 63.154261 369.201818 
L 99.578693 369.201818 
L 99.700108 368.534964 
L 386.886517 368.534964 
L 386.886517 368.534964 
" clip-path="url(#p120a3da3a5)" style="fill: none; stroke: #6495ed; stroke-width: 2; stroke-linecap: square"/>
   </g>
   <g id="line2d_33">
    <path d="M 63.154261 369.201818 
L 116.860063 369.201818 
L 116.981477 368.534964 
L 386.886517 368.534964 
L 386.886517 368.534964 
" clip-path="url(#p120a3da3a5)" style="fill: none; stroke: #00008b; stroke-width: 2; stroke-linecap: square"/>
   </g>
   <g id="line2d_34">
    <path d="M 63.154261 369.201818 
L 146.04008 369.201818 
L 146.161494 368.534964 
L 147.132813 368.534964 
L 147.254227 367.86811 
L 147.578 367.86811 
L 147.699415 367.201255 
L 148.023188 367.201255 
L 148.144602 366.534401 
L 148.670733 366.534401 
L 148.792148 365.867547 
L 149.196864 365.867547 
L 149.318278 365.200693 
L 149.642051 365.200693 
L 149.763466 364.533839 
L 150.087239 364.533839 
L 150.208653 363.866984 
L 150.532426 363.866984 
L 150.653841 363.20013 
L 150.977614 363.20013 
L 151.099028 362.533276 
L 151.625159 362.533276 
L 151.746574 361.866422 
L 152.070347 361.866422 
L 152.191761 361.199567 
L 152.515534 361.199567 
L 152.636949 360.532713 
L 153.16308 360.532713 
L 153.284494 359.865859 
L 153.608267 359.865859 
L 153.729682 359.199005 
L 154.45817 359.199005 
L 154.579585 358.532151 
L 154.903358 358.532151 
L 155.024773 357.865296 
L 155.550903 357.865296 
L 155.672318 357.198442 
L 155.996091 357.198442 
L 156.117506 356.531588 
L 156.441278 356.531588 
L 156.562693 355.864734 
L 156.886466 355.864734 
L 157.007881 355.197879 
L 157.331653 355.197879 
L 157.453068 354.531025 
L 157.776841 354.531025 
L 157.898256 353.864171 
L 158.222028 353.864171 
L 158.343443 353.197317 
L 158.667216 353.197317 
L 158.788631 352.530462 
L 159.112403 352.530462 
L 159.233818 351.863608 
L 159.557591 351.863608 
L 159.679006 351.196754 
L 160.002778 351.196754 
L 160.124193 350.5299 
L 160.447966 350.5299 
L 160.569381 349.863046 
L 160.893153 349.863046 
L 161.014568 349.196191 
L 161.338341 349.196191 
L 161.459756 348.529337 
L 161.783528 348.529337 
L 161.904943 347.862483 
L 162.228716 347.862483 
L 162.350131 347.195629 
L 162.673903 347.195629 
L 162.795318 346.528774 
L 163.119091 346.528774 
L 163.240506 345.86192 
L 164.454653 345.86192 
L 164.576068 345.195066 
L 164.940313 345.195066 
L 165.061727 344.528212 
L 165.3855 344.528212 
L 165.506915 343.861357 
L 165.830688 343.861357 
L 165.952102 343.194503 
L 166.275875 343.194503 
L 166.39729 342.527649 
L 166.721063 342.527649 
L 166.842477 341.860795 
L 167.894739 341.860795 
L 168.016153 341.193941 
L 168.339926 341.193941 
L 168.461341 340.527086 
L 168.785114 340.527086 
L 168.906528 339.860232 
L 169.230301 339.860232 
L 169.351716 339.193378 
L 169.675489 339.193378 
L 169.796903 338.526524 
L 170.120676 338.526524 
L 170.242091 337.859669 
L 170.565864 337.859669 
L 170.687278 337.192815 
L 171.011051 337.192815 
L 171.132466 336.525961 
L 171.456239 336.525961 
L 171.577653 335.859107 
L 171.901426 335.859107 
L 172.022841 335.192253 
L 172.346614 335.192253 
L 172.468028 334.525398 
L 172.791801 334.525398 
L 172.913216 333.858544 
L 173.439347 333.858544 
L 173.560761 333.19169 
L 173.884534 333.19169 
L 174.005949 332.524836 
L 174.329722 332.524836 
L 174.451136 331.857981 
L 174.774909 331.857981 
L 174.896324 331.191127 
L 175.220097 331.191127 
L 175.341511 330.524273 
L 175.665284 330.524273 
L 175.786699 329.857419 
L 176.555659 329.857419 
L 176.677074 329.190564 
L 177.000847 329.190564 
L 177.122261 328.52371 
L 177.446034 328.52371 
L 177.567449 327.856856 
L 177.891222 327.856856 
L 178.012636 327.190002 
L 178.336409 327.190002 
L 178.457824 326.523148 
L 178.781597 326.523148 
L 178.903011 325.856293 
L 179.226784 325.856293 
L 179.348199 325.189439 
L 179.671972 325.189439 
L 179.793386 324.522585 
L 180.117159 324.522585 
L 180.238574 323.855731 
L 180.562347 323.855731 
L 180.683761 323.188876 
L 181.007534 323.188876 
L 181.128949 322.522022 
L 181.452722 322.522022 
L 181.574136 321.855168 
L 181.897909 321.855168 
L 182.019324 321.188314 
L 182.343097 321.188314 
L 182.464511 320.521459 
L 182.788284 320.521459 
L 182.909699 319.854605 
L 183.233472 319.854605 
L 183.354886 319.187751 
L 183.678659 319.187751 
L 183.800074 318.520897 
L 184.123847 318.520897 
L 184.245261 317.854043 
L 184.569034 317.854043 
L 184.690449 317.187188 
L 185.014222 317.187188 
L 185.135636 316.520334 
L 185.459409 316.520334 
L 185.580824 315.85348 
L 185.904597 315.85348 
L 186.026011 315.186626 
L 186.349784 315.186626 
L 186.471199 314.519771 
L 186.794972 314.519771 
L 186.916386 313.852917 
L 187.725818 313.852917 
L 187.847233 313.186063 
L 188.171006 313.186063 
L 188.29242 312.519209 
L 189.385153 312.519209 
L 189.506568 311.852354 
L 189.830341 311.852354 
L 189.951756 311.1855 
L 190.275528 311.1855 
L 190.396943 310.518646 
L 190.720716 310.518646 
L 190.842131 309.851792 
L 191.165903 309.851792 
L 191.287318 309.184938 
L 191.611091 309.184938 
L 191.732506 308.518083 
L 192.056278 308.518083 
L 192.177693 307.851229 
L 192.541938 307.851229 
L 192.663352 307.184375 
L 192.987125 307.184375 
L 193.10854 306.517521 
L 193.432313 306.517521 
L 193.553727 305.850666 
L 193.8775 305.850666 
L 193.998915 305.183812 
L 194.322688 305.183812 
L 194.444102 304.516958 
L 194.767875 304.516958 
L 194.88929 303.850104 
L 195.213063 303.850104 
L 195.334477 303.18325 
L 195.65825 303.18325 
L 195.779665 302.516395 
L 196.103438 302.516395 
L 196.224852 301.849541 
L 196.548625 301.849541 
L 196.67004 301.182687 
L 197.19617 301.182687 
L 197.317585 300.515833 
L 197.641358 300.515833 
L 197.762773 299.848978 
L 198.086545 299.848978 
L 198.20796 299.182124 
L 198.531733 299.182124 
L 198.653148 298.51527 
L 198.97692 298.51527 
L 199.098335 297.848416 
L 199.422108 297.848416 
L 199.543523 297.181561 
L 199.867295 297.181561 
L 199.98871 296.514707 
L 200.352955 296.514707 
L 200.474369 295.847853 
L 200.798142 295.847853 
L 200.919557 295.180999 
L 201.24333 295.180999 
L 201.364744 294.514145 
L 201.728989 294.514145 
L 201.850403 293.84729 
L 202.174176 293.84729 
L 202.295591 293.180436 
L 202.619364 293.180436 
L 202.740778 292.513582 
L 203.064551 292.513582 
L 203.185966 291.846728 
L 203.509739 291.846728 
L 203.631153 291.179873 
L 203.954926 291.179873 
L 204.076341 290.513019 
L 204.400114 290.513019 
L 204.521528 289.846165 
L 204.845301 289.846165 
L 204.966716 289.179311 
L 205.978506 289.179311 
L 206.09992 288.512456 
L 206.423693 288.512456 
L 206.545108 287.845602 
L 206.868881 287.845602 
L 206.990295 287.178748 
L 207.314068 287.178748 
L 207.435483 286.511894 
L 207.759256 286.511894 
L 207.88067 285.84504 
L 208.204443 285.84504 
L 208.325858 285.178185 
L 208.851989 285.178185 
L 208.973403 284.511331 
L 209.297176 284.511331 
L 209.418591 283.844477 
L 209.742364 283.844477 
L 209.863778 283.177623 
L 210.187551 283.177623 
L 210.308966 282.510768 
L 210.632739 282.510768 
L 210.754153 281.843914 
L 211.077926 281.843914 
L 211.199341 281.17706 
L 211.523114 281.17706 
L 211.644528 280.510206 
L 211.968301 280.510206 
L 212.089716 279.843352 
L 212.413489 279.843352 
L 212.534903 279.176497 
L 212.858676 279.176497 
L 212.980091 278.509643 
L 213.303864 278.509643 
L 213.425278 277.842789 
L 213.749051 277.842789 
L 213.870466 277.175935 
L 214.396597 277.175935 
L 214.518011 276.50908 
L 214.841784 276.50908 
L 214.963199 275.842226 
L 215.286972 275.842226 
L 215.408386 275.175372 
L 215.732159 275.175372 
L 215.853574 274.508518 
L 216.177347 274.508518 
L 216.298761 273.841663 
L 216.622534 273.841663 
L 216.743949 273.174809 
L 217.067722 273.174809 
L 217.189136 272.507955 
L 217.512909 272.507955 
L 217.634324 271.841101 
L 217.958097 271.841101 
L 218.079511 271.174247 
L 218.403284 271.174247 
L 218.524699 270.507392 
L 218.848472 270.507392 
L 218.969886 269.840538 
L 219.698375 269.840538 
L 219.81979 269.173684 
L 220.83158 269.173684 
L 220.952994 268.50683 
L 221.276767 268.50683 
L 221.398182 267.839975 
L 221.721955 267.839975 
L 221.843369 267.173121 
L 222.167142 267.173121 
L 222.288557 266.506267 
L 222.61233 266.506267 
L 222.733744 265.839413 
L 223.057517 265.839413 
L 223.178932 265.172558 
L 223.502705 265.172558 
L 223.624119 264.505704 
L 223.947892 264.505704 
L 224.069307 263.83885 
L 224.39308 263.83885 
L 224.514494 263.171996 
L 224.838267 263.171996 
L 224.959682 262.505142 
L 225.283455 262.505142 
L 225.404869 261.838287 
L 225.728642 261.838287 
L 225.850057 261.171433 
L 226.17383 261.171433 
L 226.295244 260.504579 
L 226.619017 260.504579 
L 226.740432 259.837725 
L 227.266563 259.837725 
L 227.387977 259.17087 
L 227.71175 259.17087 
L 227.833165 258.504016 
L 228.156938 258.504016 
L 228.278352 257.837162 
L 228.602125 257.837162 
L 228.72354 257.170308 
L 229.047313 257.170308 
L 229.168727 256.503453 
L 229.4925 256.503453 
L 229.613915 255.836599 
L 229.937688 255.836599 
L 230.059102 255.169745 
L 230.382875 255.169745 
L 230.50429 254.502891 
L 231.03042 254.502891 
L 231.151835 253.836037 
L 231.475608 253.836037 
L 231.597023 253.169182 
L 231.920795 253.169182 
L 232.04221 252.502328 
L 232.365983 252.502328 
L 232.487398 251.835474 
L 233.013528 251.835474 
L 233.134943 251.16862 
L 233.458716 251.16862 
L 233.580131 250.501765 
L 233.903903 250.501765 
L 234.025318 249.834911 
L 234.349091 249.834911 
L 234.470506 249.168057 
L 234.794278 249.168057 
L 234.915693 248.501203 
L 235.239466 248.501203 
L 235.360881 247.834349 
L 235.684653 247.834349 
L 235.806068 247.167494 
L 236.129841 247.167494 
L 236.251256 246.50064 
L 236.575028 246.50064 
L 236.696443 245.833786 
L 237.020216 245.833786 
L 237.141631 245.166932 
L 237.465403 245.166932 
L 237.586818 244.500077 
L 237.910591 244.500077 
L 238.032006 243.833223 
L 238.355778 243.833223 
L 238.477193 243.166369 
L 238.800966 243.166369 
L 238.922381 242.499515 
L 239.286625 242.499515 
L 239.40804 241.83266 
L 239.731813 241.83266 
L 239.853227 241.165806 
L 240.177 241.165806 
L 240.298415 240.498952 
L 240.622188 240.498952 
L 240.743602 239.832098 
L 241.067375 239.832098 
L 241.18879 239.165244 
L 241.512563 239.165244 
L 241.633977 238.498389 
L 241.95775 238.498389 
L 242.079165 237.831535 
L 242.402938 237.831535 
L 242.524352 237.164681 
L 243.090955 237.164681 
L 243.212369 236.497827 
L 243.536142 236.497827 
L 243.657557 235.830972 
L 243.98133 235.830972 
L 244.102744 235.164118 
L 244.426517 235.164118 
L 244.547932 234.497264 
L 245.357364 234.497264 
L 245.478778 233.83041 
L 245.843023 233.83041 
L 245.964438 233.163555 
L 246.773869 233.163555 
L 246.895284 232.496701 
L 247.219057 232.496701 
L 247.340472 231.829847 
L 247.664244 231.829847 
L 247.785659 231.162993 
L 248.109432 231.162993 
L 248.230847 230.496139 
L 248.554619 230.496139 
L 248.676034 229.829284 
L 248.999807 229.829284 
L 249.121222 229.16243 
L 249.647352 229.16243 
L 249.768767 228.495576 
L 250.09254 228.495576 
L 250.213955 227.828722 
L 250.942443 227.828722 
L 251.063858 227.161867 
L 251.387631 227.161867 
L 251.509045 226.495013 
L 251.832818 226.495013 
L 251.954233 225.828159 
L 252.278006 225.828159 
L 252.39942 225.161305 
L 252.723193 225.161305 
L 252.844608 224.494451 
L 253.168381 224.494451 
L 253.289795 223.827596 
L 253.613568 223.827596 
L 253.734983 223.160742 
L 254.058756 223.160742 
L 254.18017 222.493888 
L 254.503943 222.493888 
L 254.625358 221.827034 
L 254.949131 221.827034 
L 255.070545 221.160179 
L 255.394318 221.160179 
L 255.515733 220.493325 
L 255.839506 220.493325 
L 255.96092 219.826471 
L 256.284693 219.826471 
L 256.406108 219.159617 
L 256.729881 219.159617 
L 256.851295 218.492762 
L 257.175068 218.492762 
L 257.296483 217.825908 
L 257.620256 217.825908 
L 257.74167 217.159054 
L 258.065443 217.159054 
L 258.186858 216.4922 
L 258.510631 216.4922 
L 258.632045 215.825346 
L 258.955818 215.825346 
L 259.077233 215.158491 
L 259.401006 215.158491 
L 259.52242 214.491637 
L 259.846193 214.491637 
L 259.967608 213.824783 
L 260.493739 213.824783 
L 260.615153 213.157929 
L 260.938926 213.157929 
L 261.060341 212.491074 
L 261.384114 212.491074 
L 261.505528 211.82422 
L 261.829301 211.82422 
L 261.950716 211.157366 
L 262.274489 211.157366 
L 262.395903 210.490512 
L 262.719676 210.490512 
L 262.841091 209.823657 
L 263.771938 209.823657 
L 263.893352 209.156803 
L 264.217125 209.156803 
L 264.33854 208.489949 
L 264.662313 208.489949 
L 264.783727 207.823095 
L 265.1075 207.823095 
L 265.228915 207.156241 
L 265.552688 207.156241 
L 265.674102 206.489386 
L 265.997875 206.489386 
L 266.11929 205.822532 
L 266.483534 205.822532 
L 266.604949 205.155678 
L 266.928722 205.155678 
L 267.050136 204.488824 
L 267.373909 204.488824 
L 267.495324 203.821969 
L 267.819097 203.821969 
L 267.940511 203.155115 
L 268.264284 203.155115 
L 268.385699 202.488261 
L 268.91183 202.488261 
L 269.033244 201.821407 
L 269.357017 201.821407 
L 269.478432 201.154552 
L 269.802205 201.154552 
L 269.923619 200.487698 
L 270.247392 200.487698 
L 270.368807 199.820844 
L 270.69258 199.820844 
L 270.813994 199.15399 
L 271.137767 199.15399 
L 271.259182 198.487136 
L 272.068614 198.487136 
L 272.190028 197.820281 
L 272.513801 197.820281 
L 272.635216 197.153427 
L 273.485119 197.153427 
L 273.606534 196.486573 
L 273.930307 196.486573 
L 274.051722 195.819719 
L 274.375494 195.819719 
L 274.496909 195.152864 
L 274.820682 195.152864 
L 274.942097 194.48601 
L 275.265869 194.48601 
L 275.387284 193.819156 
L 275.711057 193.819156 
L 275.832472 193.152302 
L 276.156244 193.152302 
L 276.277659 192.485448 
L 276.601432 192.485448 
L 276.722847 191.818593 
L 277.046619 191.818593 
L 277.168034 191.151739 
L 277.491807 191.151739 
L 277.613222 190.484885 
L 277.936994 190.484885 
L 278.058409 189.818031 
L 278.382182 189.818031 
L 278.503597 189.151176 
L 278.827369 189.151176 
L 278.948784 188.484322 
L 279.677273 188.484322 
L 279.798688 187.817468 
L 280.12246 187.817468 
L 280.243875 187.150614 
L 280.567648 187.150614 
L 280.689063 186.483759 
L 281.012835 186.483759 
L 281.13425 185.816905 
L 281.619909 185.816905 
L 281.741324 185.150051 
L 282.065097 185.150051 
L 282.186511 184.483197 
L 282.510284 184.483197 
L 282.631699 183.816343 
L 283.15783 183.816343 
L 283.279244 183.149488 
L 283.603017 183.149488 
L 283.724432 182.482634 
L 284.048205 182.482634 
L 284.169619 181.81578 
L 284.533864 181.81578 
L 284.655278 181.148926 
L 284.979051 181.148926 
L 285.100466 180.482071 
L 285.424239 180.482071 
L 285.545653 179.815217 
L 285.869426 179.815217 
L 285.990841 179.148363 
L 286.314614 179.148363 
L 286.436028 178.481509 
L 286.759801 178.481509 
L 286.881216 177.814654 
L 287.204989 177.814654 
L 287.326403 177.1478 
L 287.650176 177.1478 
L 287.771591 176.480946 
L 288.095364 176.480946 
L 288.216778 175.814092 
L 288.540551 175.814092 
L 288.661966 175.147238 
L 288.985739 175.147238 
L 289.107153 174.480383 
L 289.430926 174.480383 
L 289.552341 173.813529 
L 289.876114 173.813529 
L 289.997528 173.146675 
L 290.321301 173.146675 
L 290.442716 172.479821 
L 290.766489 172.479821 
L 290.887903 171.812966 
L 291.211676 171.812966 
L 291.333091 171.146112 
L 291.656864 171.146112 
L 291.778278 170.479258 
L 293.316199 170.479258 
L 293.437614 169.812404 
L 293.761386 169.812404 
L 293.882801 169.145549 
L 294.206574 169.145549 
L 294.327989 168.478695 
L 294.651761 168.478695 
L 294.773176 167.811841 
L 295.096949 167.811841 
L 295.218364 167.144987 
L 295.542136 167.144987 
L 295.663551 166.478133 
L 295.987324 166.478133 
L 296.108739 165.811278 
L 296.432511 165.811278 
L 296.553926 165.144424 
L 296.877699 165.144424 
L 296.999114 164.47757 
L 297.322886 164.47757 
L 297.444301 163.810716 
L 297.768074 163.810716 
L 297.889489 163.143861 
L 298.213261 163.143861 
L 298.334676 162.477007 
L 299.103636 162.477007 
L 299.225051 161.810153 
L 299.548824 161.810153 
L 299.670239 161.143299 
L 299.994011 161.143299 
L 300.115426 160.476445 
L 300.439199 160.476445 
L 300.560614 159.80959 
L 300.884386 159.80959 
L 301.005801 159.142736 
L 301.329574 159.142736 
L 301.450989 158.475882 
L 301.815233 158.475882 
L 301.936648 157.809028 
L 302.26042 157.809028 
L 302.381835 157.142173 
L 302.705608 157.142173 
L 302.827023 156.475319 
L 303.150795 156.475319 
L 303.27221 155.808465 
L 303.595983 155.808465 
L 303.717398 155.141611 
L 304.081642 155.141611 
L 304.203057 154.474756 
L 304.52683 154.474756 
L 304.648244 153.807902 
L 304.972017 153.807902 
L 305.093432 153.141048 
L 305.457676 153.141048 
L 305.579091 152.474194 
L 305.902864 152.474194 
L 306.024278 151.80734 
L 306.348051 151.80734 
L 306.469466 151.140485 
L 306.793239 151.140485 
L 306.914653 150.473631 
L 307.238426 150.473631 
L 307.359841 149.806777 
L 307.683614 149.806777 
L 307.805028 149.139923 
L 308.128801 149.139923 
L 308.250216 148.473068 
L 308.573989 148.473068 
L 308.695403 147.806214 
L 309.707193 147.806214 
L 309.828608 147.13936 
L 310.152381 147.13936 
L 310.273795 146.472506 
L 310.597568 146.472506 
L 310.718983 145.805651 
L 311.042756 145.805651 
L 311.16417 145.138797 
L 311.487943 145.138797 
L 311.609358 144.471943 
L 311.933131 144.471943 
L 312.054545 143.805089 
L 312.580676 143.805089 
L 312.702091 143.138235 
L 313.025864 143.138235 
L 313.147278 142.47138 
L 313.471051 142.47138 
L 313.592466 141.804526 
L 313.916239 141.804526 
L 314.037653 141.137672 
L 314.361426 141.137672 
L 314.482841 140.470818 
L 314.806614 140.470818 
L 314.928028 139.803963 
L 315.939818 139.803963 
L 316.061233 139.137109 
L 316.385006 139.137109 
L 316.50642 138.470255 
L 316.830193 138.470255 
L 316.951608 137.803401 
L 317.275381 137.803401 
L 317.396795 137.136547 
L 317.720568 137.136547 
L 317.841983 136.469692 
L 318.165756 136.469692 
L 318.28717 135.802838 
L 318.610943 135.802838 
L 318.732358 135.135984 
L 319.258489 135.135984 
L 319.379903 134.46913 
L 319.703676 134.46913 
L 319.825091 133.802275 
L 320.148864 133.802275 
L 320.270278 133.135421 
L 320.594051 133.135421 
L 320.715466 132.468567 
L 321.039239 132.468567 
L 321.160653 131.801713 
L 321.484426 131.801713 
L 321.605841 131.134858 
L 321.929614 131.134858 
L 322.051028 130.468004 
L 322.374801 130.468004 
L 322.496216 129.80115 
L 322.819989 129.80115 
L 322.941403 129.134296 
L 323.265176 129.134296 
L 323.386591 128.467442 
L 323.710364 128.467442 
L 323.831778 127.800587 
L 324.155551 127.800587 
L 324.276966 127.133733 
L 324.600739 127.133733 
L 324.722153 126.466879 
L 325.045926 126.466879 
L 325.167341 125.800025 
L 325.491114 125.800025 
L 325.612528 125.13317 
L 325.936301 125.13317 
L 326.057716 124.466316 
L 326.381489 124.466316 
L 326.502903 123.799462 
L 326.826676 123.799462 
L 326.948091 123.132608 
L 327.271864 123.132608 
L 327.393278 122.465753 
L 327.717051 122.465753 
L 327.838466 121.798899 
L 328.162239 121.798899 
L 328.283653 121.132045 
L 328.607426 121.132045 
L 328.728841 120.465191 
L 329.052614 120.465191 
L 329.174028 119.798337 
L 329.497801 119.798337 
L 329.619216 119.131482 
L 329.942989 119.131482 
L 330.064403 118.464628 
L 330.388176 118.464628 
L 330.509591 117.797774 
L 386.886517 117.797774 
L 386.886517 117.797774 
" clip-path="url(#p120a3da3a5)" style="fill: none; stroke: #2f4f4f; stroke-width: 2; stroke-linecap: square"/>
   </g>
   <g id="line2d_35">
    <path d="M 386.926989 369.201818 
L 63.194733 369.201818 
L 63.194733 369.201818 
" clip-path="url(#p120a3da3a5)" style="fill: none; stroke-dasharray: 7.4,3.2; stroke-dashoffset: 0; stroke: #fa8072; stroke-width: 2"/>
   </g>
   <g id="line2d_36">
    <path d="M 386.926989 369.201818 
L 63.194733 369.201818 
L 63.194733 369.201818 
" clip-path="url(#p120a3da3a5)" style="fill: none; stroke-dasharray: 7.4,3.2; stroke-dashoffset: 0; stroke: #ff4500; stroke-width: 2"/>
   </g>
   <g id="line2d_37">
    <path d="M 386.926989 369.201818 
L 376.040131 369.201818 
L 375.918716 368.534964 
L 63.194733 368.534964 
L 63.194733 368.534964 
" clip-path="url(#p120a3da3a5)" style="fill: none; stroke-dasharray: 7.4,3.2; stroke-dashoffset: 0; stroke: #8b0000; stroke-width: 2"/>
   </g>
   <g id="line2d_38">
    <path d="M 386.926989 369.201818 
L 303.474568 369.201818 
L 303.353153 368.534964 
L 303.029381 368.534964 
L 302.907966 367.86811 
L 302.584193 367.86811 
L 302.462778 367.201255 
L 302.139006 367.201255 
L 302.017591 366.534401 
L 301.693818 366.534401 
L 301.572403 365.867547 
L 301.248631 365.867547 
L 301.127216 365.200693 
L 300.803443 365.200693 
L 300.682028 364.533839 
L 300.358256 364.533839 
L 300.236841 363.866984 
L 299.913068 363.866984 
L 299.791653 363.20013 
L 299.022693 363.20013 
L 298.901278 362.533276 
L 298.577506 362.533276 
L 298.456091 361.866422 
L 298.132318 361.866422 
L 298.010903 361.199567 
L 297.687131 361.199567 
L 297.565716 360.532713 
L 297.241943 360.532713 
L 297.120528 359.865859 
L 296.796756 359.865859 
L 296.675341 359.199005 
L 296.351568 359.199005 
L 296.230153 358.532151 
L 295.906381 358.532151 
L 295.784966 357.865296 
L 295.461193 357.865296 
L 295.339778 357.198442 
L 295.016006 357.198442 
L 294.894591 356.531588 
L 294.570818 356.531588 
L 294.449403 355.864734 
L 294.125631 355.864734 
L 294.004216 355.197879 
L 293.680443 355.197879 
L 293.559028 354.531025 
L 293.235256 354.531025 
L 293.113841 353.864171 
L 292.790068 353.864171 
L 292.668653 353.197317 
L 292.344881 353.197317 
L 292.223466 352.530462 
L 291.899693 352.530462 
L 291.778278 351.863608 
L 291.454506 351.863608 
L 291.333091 351.196754 
L 291.009318 351.196754 
L 290.887903 350.5299 
L 290.564131 350.5299 
L 290.442716 349.863046 
L 290.118943 349.863046 
L 289.997528 349.196191 
L 289.673756 349.196191 
L 289.552341 348.529337 
L 289.228568 348.529337 
L 289.107153 347.862483 
L 288.783381 347.862483 
L 288.661966 347.195629 
L 288.338193 347.195629 
L 288.216778 346.528774 
L 287.893006 346.528774 
L 287.771591 345.86192 
L 287.447818 345.86192 
L 287.326403 345.195066 
L 287.002631 345.195066 
L 286.881216 344.528212 
L 286.557443 344.528212 
L 286.436028 343.861357 
L 286.112256 343.861357 
L 285.990841 343.194503 
L 285.667068 343.194503 
L 285.545653 342.527649 
L 285.221881 342.527649 
L 285.100466 341.860795 
L 284.776693 341.860795 
L 284.655278 341.193941 
L 284.331506 341.193941 
L 284.210091 340.527086 
L 283.886318 340.527086 
L 283.764903 339.860232 
L 283.441131 339.860232 
L 283.319716 339.193378 
L 282.995943 339.193378 
L 282.874528 338.526524 
L 282.550756 338.526524 
L 282.429341 337.859669 
L 282.105568 337.859669 
L 281.984153 337.192815 
L 281.660381 337.192815 
L 281.538966 336.525961 
L 281.215193 336.525961 
L 281.093778 335.859107 
L 280.770006 335.859107 
L 280.648591 335.192253 
L 280.324818 335.192253 
L 280.203403 334.525398 
L 279.879631 334.525398 
L 279.758216 333.858544 
L 279.434443 333.858544 
L 279.313028 333.19169 
L 278.989256 333.19169 
L 278.867841 332.524836 
L 278.544068 332.524836 
L 278.422653 331.857981 
L 278.098881 331.857981 
L 277.977466 331.191127 
L 277.653693 331.191127 
L 277.532278 330.524273 
L 277.208506 330.524273 
L 277.087091 329.857419 
L 276.763318 329.857419 
L 276.641903 329.190564 
L 276.318131 329.190564 
L 276.196716 328.52371 
L 275.872943 328.52371 
L 275.751528 327.856856 
L 275.427756 327.856856 
L 275.306341 327.190002 
L 274.982568 327.190002 
L 274.861153 326.523148 
L 274.537381 326.523148 
L 274.415966 325.856293 
L 274.092193 325.856293 
L 273.970778 325.189439 
L 273.647006 325.189439 
L 273.525591 324.522585 
L 273.201818 324.522585 
L 273.080403 323.855731 
L 272.554273 323.855731 
L 272.432858 323.188876 
L 272.109085 323.188876 
L 271.98767 322.522022 
L 271.663898 322.522022 
L 271.542483 321.855168 
L 271.016352 321.855168 
L 270.894938 321.188314 
L 270.571165 321.188314 
L 270.44975 320.521459 
L 270.125977 320.521459 
L 270.004563 319.854605 
L 269.68079 319.854605 
L 269.559375 319.187751 
L 269.235602 319.187751 
L 269.114188 318.520897 
L 268.790415 318.520897 
L 268.669 317.854043 
L 268.345227 317.854043 
L 268.223813 317.187188 
L 267.90004 317.187188 
L 267.778625 316.520334 
L 267.454852 316.520334 
L 267.333438 315.85348 
L 267.009665 315.85348 
L 266.88825 315.186626 
L 266.564477 315.186626 
L 266.443063 314.519771 
L 266.11929 314.519771 
L 265.997875 313.852917 
L 265.674102 313.852917 
L 265.552688 313.186063 
L 265.228915 313.186063 
L 265.1075 312.519209 
L 264.783727 312.519209 
L 264.662313 311.852354 
L 264.33854 311.852354 
L 264.217125 311.1855 
L 263.893352 311.1855 
L 263.771938 310.518646 
L 263.448165 310.518646 
L 263.32675 309.851792 
L 262.800619 309.851792 
L 262.679205 309.184938 
L 261.950716 309.184938 
L 261.829301 308.518083 
L 261.505528 308.518083 
L 261.384114 307.851229 
L 261.060341 307.851229 
L 260.938926 307.184375 
L 260.615153 307.184375 
L 260.493739 306.517521 
L 260.169966 306.517521 
L 260.048551 305.850666 
L 259.724778 305.850666 
L 259.603364 305.183812 
L 259.279591 305.183812 
L 259.158176 304.516958 
L 258.834403 304.516958 
L 258.712989 303.850104 
L 258.389216 303.850104 
L 258.267801 303.18325 
L 257.944028 303.18325 
L 257.822614 302.516395 
L 257.498841 302.516395 
L 257.377426 301.849541 
L 257.053653 301.849541 
L 256.932239 301.182687 
L 256.608466 301.182687 
L 256.487051 300.515833 
L 256.163278 300.515833 
L 256.041864 299.848978 
L 255.718091 299.848978 
L 255.596676 299.182124 
L 255.272903 299.182124 
L 255.151489 298.51527 
L 254.827716 298.51527 
L 254.706301 297.848416 
L 254.382528 297.848416 
L 254.261114 297.181561 
L 253.937341 297.181561 
L 253.815926 296.514707 
L 253.492153 296.514707 
L 253.370739 295.847853 
L 253.046966 295.847853 
L 252.925551 295.180999 
L 252.601778 295.180999 
L 252.480364 294.514145 
L 252.156591 294.514145 
L 252.035176 293.84729 
L 251.711403 293.84729 
L 251.589989 293.180436 
L 251.266216 293.180436 
L 251.144801 292.513582 
L 250.821028 292.513582 
L 250.699614 291.846728 
L 250.375841 291.846728 
L 250.254426 291.179873 
L 249.930653 291.179873 
L 249.809239 290.513019 
L 249.485466 290.513019 
L 249.364051 289.846165 
L 249.040278 289.846165 
L 248.918864 289.179311 
L 248.595091 289.179311 
L 248.473676 288.512456 
L 248.149903 288.512456 
L 248.028489 287.845602 
L 247.704716 287.845602 
L 247.583301 287.178748 
L 247.259528 287.178748 
L 247.138114 286.511894 
L 246.611983 286.511894 
L 246.490568 285.84504 
L 246.166795 285.84504 
L 246.045381 285.178185 
L 245.721608 285.178185 
L 245.600193 284.511331 
L 245.27642 284.511331 
L 245.155006 283.844477 
L 244.831233 283.844477 
L 244.709818 283.177623 
L 244.386045 283.177623 
L 244.264631 282.510768 
L 243.940858 282.510768 
L 243.819443 281.843914 
L 243.49567 281.843914 
L 243.374256 281.17706 
L 242.848125 281.17706 
L 242.72671 280.510206 
L 242.402938 280.510206 
L 242.281523 279.843352 
L 241.95775 279.843352 
L 241.836335 279.176497 
L 241.512563 279.176497 
L 241.391148 278.509643 
L 241.067375 278.509643 
L 240.94596 277.842789 
L 240.622188 277.842789 
L 240.500773 277.175935 
L 240.177 277.175935 
L 240.055585 276.50908 
L 239.731813 276.50908 
L 239.610398 275.842226 
L 239.286625 275.842226 
L 239.16521 275.175372 
L 238.841438 275.175372 
L 238.720023 274.508518 
L 238.193892 274.508518 
L 238.072477 273.841663 
L 237.748705 273.841663 
L 237.62729 273.174809 
L 237.303517 273.174809 
L 237.182102 272.507955 
L 236.85833 272.507955 
L 236.736915 271.841101 
L 236.413142 271.841101 
L 236.291727 271.174247 
L 235.967955 271.174247 
L 235.84654 270.507392 
L 235.522767 270.507392 
L 235.401352 269.840538 
L 235.07758 269.840538 
L 234.956165 269.173684 
L 234.187205 269.173684 
L 234.06579 268.50683 
L 233.742017 268.50683 
L 233.620602 267.839975 
L 233.29683 267.839975 
L 233.175415 267.173121 
L 232.851642 267.173121 
L 232.730227 266.506267 
L 232.406455 266.506267 
L 232.28504 265.839413 
L 231.961267 265.839413 
L 231.839852 265.172558 
L 231.51608 265.172558 
L 231.394665 264.505704 
L 231.070892 264.505704 
L 230.949477 263.83885 
L 230.625705 263.83885 
L 230.50429 263.171996 
L 230.180517 263.171996 
L 230.059102 262.505142 
L 229.73533 262.505142 
L 229.613915 261.838287 
L 229.290142 261.838287 
L 229.168727 261.171433 
L 228.844955 261.171433 
L 228.72354 260.504579 
L 228.399767 260.504579 
L 228.278352 259.837725 
L 227.95458 259.837725 
L 227.833165 259.17087 
L 227.509392 259.17087 
L 227.387977 258.504016 
L 227.064205 258.504016 
L 226.94279 257.837162 
L 226.619017 257.837162 
L 226.497602 257.170308 
L 226.17383 257.170308 
L 226.052415 256.503453 
L 225.323926 256.503453 
L 225.202511 255.836599 
L 224.878739 255.836599 
L 224.757324 255.169745 
L 224.433551 255.169745 
L 224.312136 254.502891 
L 223.988364 254.502891 
L 223.866949 253.836037 
L 223.543176 253.836037 
L 223.421761 253.169182 
L 223.097989 253.169182 
L 222.976574 252.502328 
L 222.652801 252.502328 
L 222.531386 251.835474 
L 222.207614 251.835474 
L 222.086199 251.16862 
L 221.762426 251.16862 
L 221.641011 250.501765 
L 221.317239 250.501765 
L 221.195824 249.834911 
L 220.872051 249.834911 
L 220.750636 249.168057 
L 220.426864 249.168057 
L 220.305449 248.501203 
L 219.981676 248.501203 
L 219.860261 247.834349 
L 219.536489 247.834349 
L 219.415074 247.167494 
L 219.091301 247.167494 
L 218.969886 246.50064 
L 218.646114 246.50064 
L 218.524699 245.833786 
L 218.200926 245.833786 
L 218.079511 245.166932 
L 217.755739 245.166932 
L 217.634324 244.500077 
L 217.310551 244.500077 
L 217.189136 243.833223 
L 216.865364 243.833223 
L 216.743949 243.166369 
L 216.420176 243.166369 
L 216.298761 242.499515 
L 215.974989 242.499515 
L 215.853574 241.83266 
L 215.529801 241.83266 
L 215.408386 241.165806 
L 215.084614 241.165806 
L 214.963199 240.498952 
L 214.639426 240.498952 
L 214.518011 239.832098 
L 214.194239 239.832098 
L 214.072824 239.165244 
L 213.749051 239.165244 
L 213.627636 238.498389 
L 213.303864 238.498389 
L 213.182449 237.831535 
L 212.858676 237.831535 
L 212.737261 237.164681 
L 212.413489 237.164681 
L 212.292074 236.497827 
L 211.968301 236.497827 
L 211.846886 235.830972 
L 211.523114 235.830972 
L 211.401699 235.164118 
L 211.077926 235.164118 
L 210.956511 234.497264 
L 210.632739 234.497264 
L 210.511324 233.83041 
L 209.580477 233.83041 
L 209.459063 233.163555 
L 209.13529 233.163555 
L 209.013875 232.496701 
L 208.690102 232.496701 
L 208.568688 231.829847 
L 208.244915 231.829847 
L 208.1235 231.162993 
L 207.799727 231.162993 
L 207.678313 230.496139 
L 207.35454 230.496139 
L 207.233125 229.829284 
L 206.909352 229.829284 
L 206.787938 229.16243 
L 206.464165 229.16243 
L 206.34275 228.495576 
L 206.018977 228.495576 
L 205.897563 227.828722 
L 205.57379 227.828722 
L 205.452375 227.161867 
L 205.128602 227.161867 
L 205.007188 226.495013 
L 204.683415 226.495013 
L 204.562 225.828159 
L 204.238227 225.828159 
L 204.116813 225.161305 
L 203.79304 225.161305 
L 203.671625 224.494451 
L 203.347852 224.494451 
L 203.226438 223.827596 
L 202.902665 223.827596 
L 202.78125 223.160742 
L 202.457477 223.160742 
L 202.336063 222.493888 
L 202.01229 222.493888 
L 201.890875 221.827034 
L 201.567102 221.827034 
L 201.445688 221.160179 
L 201.121915 221.160179 
L 201.0005 220.493325 
L 200.676727 220.493325 
L 200.555313 219.826471 
L 200.23154 219.826471 
L 200.110125 219.159617 
L 199.583994 219.159617 
L 199.46258 218.492762 
L 199.138807 218.492762 
L 199.017392 217.825908 
L 198.693619 217.825908 
L 198.572205 217.159054 
L 198.248432 217.159054 
L 198.127017 216.4922 
L 197.803244 216.4922 
L 197.68183 215.825346 
L 197.358057 215.825346 
L 197.236642 215.158491 
L 196.912869 215.158491 
L 196.791455 214.491637 
L 196.467682 214.491637 
L 196.346267 213.824783 
L 196.022494 213.824783 
L 195.90108 213.157929 
L 195.577307 213.157929 
L 195.455892 212.491074 
L 195.132119 212.491074 
L 195.010705 211.82422 
L 194.686932 211.82422 
L 194.565517 211.157366 
L 194.241744 211.157366 
L 194.12033 210.490512 
L 193.796557 210.490512 
L 193.675142 209.823657 
L 193.351369 209.823657 
L 193.229955 209.156803 
L 192.906182 209.156803 
L 192.784767 208.489949 
L 192.460994 208.489949 
L 192.33958 207.823095 
L 192.015807 207.823095 
L 191.894392 207.156241 
L 191.570619 207.156241 
L 191.449205 206.489386 
L 191.125432 206.489386 
L 191.004017 205.822532 
L 190.680244 205.822532 
L 190.55883 205.155678 
L 190.235057 205.155678 
L 190.113642 204.488824 
L 189.789869 204.488824 
L 189.668455 203.821969 
L 189.344682 203.821969 
L 189.223267 203.155115 
L 188.899494 203.155115 
L 188.77808 202.488261 
L 188.251949 202.488261 
L 188.130534 201.821407 
L 187.806761 201.821407 
L 187.685347 201.154552 
L 187.361574 201.154552 
L 187.240159 200.487698 
L 186.916386 200.487698 
L 186.794972 199.820844 
L 186.471199 199.820844 
L 186.349784 199.15399 
L 186.026011 199.15399 
L 185.904597 198.487136 
L 185.580824 198.487136 
L 185.459409 197.820281 
L 185.135636 197.820281 
L 185.014222 197.153427 
L 184.690449 197.153427 
L 184.569034 196.486573 
L 184.245261 196.486573 
L 184.123847 195.819719 
L 183.800074 195.819719 
L 183.678659 195.152864 
L 183.354886 195.152864 
L 183.233472 194.48601 
L 182.909699 194.48601 
L 182.788284 193.819156 
L 182.464511 193.819156 
L 182.343097 193.152302 
L 182.019324 193.152302 
L 181.897909 192.485448 
L 181.574136 192.485448 
L 181.452722 191.818593 
L 181.128949 191.818593 
L 181.007534 191.151739 
L 180.683761 191.151739 
L 180.562347 190.484885 
L 180.238574 190.484885 
L 180.117159 189.818031 
L 179.793386 189.818031 
L 179.671972 189.151176 
L 179.348199 189.151176 
L 179.226784 188.484322 
L 178.903011 188.484322 
L 178.781597 187.817468 
L 178.255466 187.817468 
L 178.134051 187.150614 
L 177.810278 187.150614 
L 177.688864 186.483759 
L 177.365091 186.483759 
L 177.243676 185.816905 
L 176.919903 185.816905 
L 176.798489 185.150051 
L 176.474716 185.150051 
L 176.353301 184.483197 
L 176.029528 184.483197 
L 175.908114 183.816343 
L 175.584341 183.816343 
L 175.462926 183.149488 
L 175.139153 183.149488 
L 175.017739 182.482634 
L 174.693966 182.482634 
L 174.572551 181.81578 
L 174.248778 181.81578 
L 174.127364 181.148926 
L 173.803591 181.148926 
L 173.682176 180.482071 
L 173.358403 180.482071 
L 173.236989 179.815217 
L 172.913216 179.815217 
L 172.791801 179.148363 
L 172.468028 179.148363 
L 172.346614 178.481509 
L 172.022841 178.481509 
L 171.901426 177.814654 
L 171.577653 177.814654 
L 171.456239 177.1478 
L 171.132466 177.1478 
L 171.011051 176.480946 
L 170.687278 176.480946 
L 170.565864 175.814092 
L 170.242091 175.814092 
L 170.120676 175.147238 
L 169.796903 175.147238 
L 169.675489 174.480383 
L 169.351716 174.480383 
L 169.230301 173.813529 
L 168.906528 173.813529 
L 168.785114 173.146675 
L 168.461341 173.146675 
L 168.339926 172.479821 
L 168.016153 172.479821 
L 167.894739 171.812966 
L 167.570966 171.812966 
L 167.449551 171.146112 
L 166.721063 171.146112 
L 166.599648 170.479258 
L 166.275875 170.479258 
L 166.15446 169.812404 
L 165.830688 169.812404 
L 165.709273 169.145549 
L 165.3855 169.145549 
L 165.264085 168.478695 
L 164.940313 168.478695 
L 164.818898 167.811841 
L 164.495125 167.811841 
L 164.37371 167.144987 
L 164.049938 167.144987 
L 163.928523 166.478133 
L 163.60475 166.478133 
L 163.483335 165.811278 
L 163.159563 165.811278 
L 163.038148 165.144424 
L 162.714375 165.144424 
L 162.59296 164.47757 
L 162.269188 164.47757 
L 162.147773 163.810716 
L 161.824 163.810716 
L 161.702585 163.143861 
L 161.378813 163.143861 
L 161.257398 162.477007 
L 160.933625 162.477007 
L 160.81221 161.810153 
L 160.488438 161.810153 
L 160.367023 161.143299 
L 160.04325 161.143299 
L 159.921835 160.476445 
L 159.598063 160.476445 
L 159.476648 159.80959 
L 159.152875 159.80959 
L 159.03146 159.142736 
L 158.707688 159.142736 
L 158.586273 158.475882 
L 158.2625 158.475882 
L 158.141085 157.809028 
L 157.817313 157.809028 
L 157.695898 157.142173 
L 157.372125 157.142173 
L 157.25071 156.475319 
L 156.926938 156.475319 
L 156.805523 155.808465 
L 155.793733 155.808465 
L 155.672318 155.141611 
L 155.348545 155.141611 
L 155.227131 154.474756 
L 154.215341 154.474756 
L 154.093926 153.807902 
L 153.770153 153.807902 
L 153.648739 153.141048 
L 153.324966 153.141048 
L 153.203551 152.474194 
L 152.879778 152.474194 
L 152.758364 151.80734 
L 152.434591 151.80734 
L 152.313176 151.140485 
L 151.989403 151.140485 
L 151.867989 150.473631 
L 151.544216 150.473631 
L 151.422801 149.806777 
L 151.099028 149.806777 
L 150.977614 149.139923 
L 150.653841 149.139923 
L 150.532426 148.473068 
L 150.208653 148.473068 
L 150.087239 147.806214 
L 149.763466 147.806214 
L 149.642051 147.13936 
L 149.318278 147.13936 
L 149.196864 146.472506 
L 148.873091 146.472506 
L 148.751676 145.805651 
L 148.427903 145.805651 
L 148.306489 145.138797 
L 147.982716 145.138797 
L 147.861301 144.471943 
L 147.537528 144.471943 
L 147.416114 143.805089 
L 147.092341 143.805089 
L 146.970926 143.138235 
L 146.647153 143.138235 
L 146.525739 142.47138 
L 146.201966 142.47138 
L 146.080551 141.804526 
L 145.756778 141.804526 
L 145.635364 141.137672 
L 145.311591 141.137672 
L 145.190176 140.470818 
L 144.866403 140.470818 
L 144.744989 139.803963 
L 144.421216 139.803963 
L 144.299801 139.137109 
L 143.976028 139.137109 
L 143.854614 138.470255 
L 143.530841 138.470255 
L 143.409426 137.803401 
L 143.085653 137.803401 
L 142.964239 137.136547 
L 142.640466 137.136547 
L 142.519051 136.469692 
L 142.195278 136.469692 
L 142.073864 135.802838 
L 141.750091 135.802838 
L 141.628676 135.135984 
L 141.304903 135.135984 
L 141.183489 134.46913 
L 140.859716 134.46913 
L 140.738301 133.802275 
L 140.21217 133.802275 
L 140.090756 133.135421 
L 139.766983 133.135421 
L 139.645568 132.468567 
L 139.321795 132.468567 
L 139.200381 131.801713 
L 138.876608 131.801713 
L 138.755193 131.134858 
L 138.43142 131.134858 
L 138.310006 130.468004 
L 137.986233 130.468004 
L 137.864818 129.80115 
L 137.541045 129.80115 
L 137.419631 129.134296 
L 137.095858 129.134296 
L 136.974443 128.467442 
L 136.65067 128.467442 
L 136.529256 127.800587 
L 136.205483 127.800587 
L 136.084068 127.133733 
L 135.760295 127.133733 
L 135.638881 126.466879 
L 135.315108 126.466879 
L 135.193693 125.800025 
L 134.86992 125.800025 
L 134.748506 125.13317 
L 134.424733 125.13317 
L 134.303318 124.466316 
L 133.979545 124.466316 
L 133.858131 123.799462 
L 133.534358 123.799462 
L 133.412943 123.132608 
L 133.08917 123.132608 
L 132.967756 122.465753 
L 132.643983 122.465753 
L 132.522568 121.798899 
L 132.198795 121.798899 
L 132.077381 121.132045 
L 131.753608 121.132045 
L 131.632193 120.465191 
L 131.30842 120.465191 
L 131.187006 119.798337 
L 130.863233 119.798337 
L 130.741818 119.131482 
L 130.418045 119.131482 
L 130.296631 118.464628 
L 129.972858 118.464628 
L 129.851443 117.797774 
L 129.52767 117.797774 
L 129.406256 117.13092 
L 129.082483 117.13092 
L 128.961068 116.464065 
L 128.637295 116.464065 
L 128.515881 115.797211 
L 128.192108 115.797211 
L 128.070693 115.130357 
L 127.74692 115.130357 
L 127.625506 114.463503 
L 127.301733 114.463503 
L 127.180318 113.796648 
L 126.856545 113.796648 
L 126.735131 113.129794 
L 126.411358 113.129794 
L 126.289943 112.46294 
L 125.96617 112.46294 
L 125.844756 111.796086 
L 125.520983 111.796086 
L 125.399568 111.129232 
L 125.075795 111.129232 
L 124.954381 110.462377 
L 124.630608 110.462377 
L 124.509193 109.795523 
L 124.18542 109.795523 
L 124.064006 109.128669 
L 123.740233 109.128669 
L 123.618818 108.461815 
L 123.295045 108.461815 
L 123.173631 107.79496 
L 122.849858 107.79496 
L 122.728443 107.128106 
L 122.40467 107.128106 
L 122.283256 106.461252 
L 121.959483 106.461252 
L 121.838068 105.794398 
L 121.514295 105.794398 
L 121.392881 105.127544 
L 121.069108 105.127544 
L 120.947693 104.460689 
L 120.62392 104.460689 
L 120.502506 103.793835 
L 120.178733 103.793835 
L 120.057318 103.126981 
L 119.733545 103.126981 
L 119.612131 102.460127 
L 119.288358 102.460127 
L 119.166943 101.793272 
L 118.84317 101.793272 
L 118.721756 101.126418 
L 118.397983 101.126418 
L 118.276568 100.459564 
L 117.952795 100.459564 
L 117.831381 99.79271 
L 117.507608 99.79271 
L 117.386193 99.125855 
L 117.06242 99.125855 
L 116.941006 98.459001 
L 116.617233 98.459001 
L 116.495818 97.792147 
L 116.172045 97.792147 
L 116.050631 97.125293 
L 115.726858 97.125293 
L 115.605443 96.458439 
L 115.28167 96.458439 
L 115.160256 95.791584 
L 114.836483 95.791584 
L 114.715068 95.12473 
L 114.391295 95.12473 
L 114.269881 94.457876 
L 113.946108 94.457876 
L 113.824693 93.791022 
L 113.50092 93.791022 
L 113.379506 93.124167 
L 113.055733 93.124167 
L 112.934318 92.457313 
L 112.610545 92.457313 
L 112.489131 91.790459 
L 112.165358 91.790459 
L 112.043943 91.123605 
L 111.72017 91.123605 
L 111.598756 90.45675 
L 111.274983 90.45675 
L 111.153568 89.789896 
L 110.829795 89.789896 
L 110.708381 89.123042 
L 110.384608 89.123042 
L 110.263193 88.456188 
L 109.93942 88.456188 
L 109.818006 87.789334 
L 109.494233 87.789334 
L 109.372818 87.122479 
L 109.049045 87.122479 
L 108.927631 86.455625 
L 108.563386 86.455625 
L 108.441972 85.788771 
L 108.118199 85.788771 
L 107.996784 85.121917 
L 107.673011 85.121917 
L 107.551597 84.455062 
L 107.025466 84.455062 
L 106.904051 83.788208 
L 106.580278 83.788208 
L 106.458864 83.121354 
L 106.135091 83.121354 
L 106.013676 82.4545 
L 105.689903 82.4545 
L 105.568489 81.787646 
L 105.244716 81.787646 
L 105.123301 81.120791 
L 104.799528 81.120791 
L 104.678114 80.453937 
L 104.354341 80.453937 
L 104.232926 79.787083 
L 103.909153 79.787083 
L 103.787739 79.120229 
L 103.463966 79.120229 
L 103.342551 78.453374 
L 103.018778 78.453374 
L 102.897364 77.78652 
L 101.885574 77.78652 
L 101.764159 77.119666 
L 101.440386 77.119666 
L 101.318972 76.452812 
L 100.995199 76.452812 
L 100.873784 75.785957 
L 100.550011 75.785957 
L 100.428597 75.119103 
L 100.104824 75.119103 
L 99.983409 74.452249 
L 99.659636 74.452249 
L 99.538222 73.785395 
L 99.214449 73.785395 
L 99.093034 73.118541 
L 98.769261 73.118541 
L 98.647847 72.451686 
L 98.324074 72.451686 
L 98.202659 71.784832 
L 97.878886 71.784832 
L 97.757472 71.117978 
L 97.433699 71.117978 
L 97.312284 70.451124 
L 96.988511 70.451124 
L 96.867097 69.784269 
L 96.543324 69.784269 
L 96.421909 69.117415 
L 96.098136 69.117415 
L 95.976722 68.450561 
L 95.652949 68.450561 
L 95.531534 67.783707 
L 95.207761 67.783707 
L 95.086347 67.116852 
L 94.762574 67.116852 
L 94.641159 66.449998 
L 94.317386 66.449998 
L 94.195972 65.783144 
L 93.872199 65.783144 
L 93.750784 65.11629 
L 93.427011 65.11629 
L 93.305597 64.449436 
L 92.455693 64.449436 
L 92.334278 63.782581 
L 92.010506 63.782581 
L 91.889091 63.115727 
L 91.565318 63.115727 
L 91.443903 62.448873 
L 91.120131 62.448873 
L 90.998716 61.782019 
L 90.674943 61.782019 
L 90.553528 61.115164 
L 90.229756 61.115164 
L 90.108341 60.44831 
L 89.784568 60.44831 
L 89.663153 59.781456 
L 89.339381 59.781456 
L 89.217966 59.114602 
L 88.894193 59.114602 
L 88.772778 58.447747 
L 88.449006 58.447747 
L 88.327591 57.780893 
L 88.003818 57.780893 
L 87.882403 57.114039 
L 87.558631 57.114039 
L 87.437216 56.447185 
L 87.113443 56.447185 
L 86.992028 55.780331 
L 86.668256 55.780331 
L 86.546841 55.113476 
L 86.223068 55.113476 
L 86.101653 54.446622 
L 85.777881 54.446622 
L 85.656466 53.779768 
L 85.332693 53.779768 
L 85.211278 53.112914 
L 84.887506 53.112914 
L 84.766091 52.446059 
L 84.442318 52.446059 
L 84.320903 51.779205 
L 83.997131 51.779205 
L 83.875716 51.112351 
L 83.551943 51.112351 
L 83.430528 50.445497 
L 83.106756 50.445497 
L 82.985341 49.778643 
L 82.661568 49.778643 
L 82.540153 49.111788 
L 82.216381 49.111788 
L 82.094966 48.444934 
L 81.771193 48.444934 
L 81.649778 47.77808 
L 81.326006 47.77808 
L 81.204591 47.111226 
L 80.354688 47.111226 
L 80.233273 46.444371 
L 79.302426 46.444371 
L 79.181011 45.777517 
L 78.857239 45.777517 
L 78.735824 45.110663 
L 78.412051 45.110663 
L 78.290636 44.443809 
L 77.966864 44.443809 
L 77.845449 43.776954 
L 77.521676 43.776954 
L 77.400261 43.1101 
L 77.076489 43.1101 
L 76.955074 42.443246 
L 76.631301 42.443246 
L 76.509886 41.776392 
L 76.186114 41.776392 
L 76.064699 41.109538 
L 75.33621 41.109538 
L 75.214795 40.442683 
L 74.891023 40.442683 
L 74.769608 39.775829 
L 74.445835 39.775829 
L 74.32442 39.108975 
L 74.000648 39.108975 
L 73.879233 38.442121 
L 73.55546 38.442121 
L 73.434045 37.775266 
L 73.110273 37.775266 
L 72.988858 37.108412 
L 72.665085 37.108412 
L 72.54367 36.441558 
L 72.219898 36.441558 
L 72.098483 35.774704 
L 71.77471 35.774704 
L 71.653295 35.107849 
L 71.329523 35.107849 
L 71.208108 34.440995 
L 70.884335 34.440995 
L 70.76292 33.774141 
L 70.034432 33.774141 
L 69.913017 33.107287 
L 69.589244 33.107287 
L 69.46783 32.440433 
L 69.144057 32.440433 
L 69.022642 31.773578 
L 68.698869 31.773578 
L 68.577455 31.106724 
L 68.051324 31.106724 
L 67.929909 30.43987 
L 67.606136 30.43987 
L 67.484722 29.773016 
L 67.160949 29.773016 
L 67.039534 29.106161 
L 66.715761 29.106161 
L 66.594347 28.439307 
L 66.270574 28.439307 
L 66.149159 27.772453 
L 65.825386 27.772453 
L 65.703972 27.105599 
L 65.218313 27.105599 
L 65.096898 26.438745 
L 64.773125 26.438745 
L 64.65171 25.77189 
L 64.327938 25.77189 
L 64.206523 25.105036 
L 63.88275 25.105036 
L 63.761335 24.438182 
L 63.194733 24.438182 
L 63.194733 24.438182 
" clip-path="url(#p120a3da3a5)" style="fill: none; stroke-dasharray: 7.4,3.2; stroke-dashoffset: 0; stroke: #8b4513; stroke-width: 2"/>
   </g>
   <g id="patch_3">
    <path d="M 46.965625 386.44 
L 46.965625 7.2 
" style="fill: none; stroke: #000000; stroke-width: 0.8; stroke-linejoin: miter; stroke-linecap: square"/>
   </g>
   <g id="patch_4">
    <path d="M 403.115625 386.44 
L 403.115625 7.2 
" style="fill: none; stroke: #000000; stroke-width: 0.8; stroke-linejoin: miter; stroke-linecap: square"/>
   </g>
   <g id="patch_5">
    <path d="M 46.965625 386.44 
L 403.115625 386.44 
" style="fill: none; stroke: #000000; stroke-width: 0.8; stroke-linejoin: miter; stroke-linecap: square"/>
   </g>
   <g id="patch_6">
    <path d="M 46.965625 7.2 
L 403.115625 7.2 
" style="fill: none; stroke: #000000; stroke-width: 0.8; stroke-linejoin: miter; stroke-linecap: square"/>
   </g>
   <g id="legend_1">
    <g id="patch_7">
     <path d="M 410.115625 147.303125 
L 558.875 147.303125 
Q 560.875 147.303125 560.875 145.303125 
L 560.875 14.2 
Q 560.875 12.2 558.875 12.2 
L 410.115625 12.2 
Q 408.115625 12.2 408.115625 14.2 
L 408.115625 145.303125 
Q 408.115625 147.303125 410.115625 147.303125 
z
" style="fill: #ffffff; opacity: 0.8; stroke: #cccccc; stroke-linejoin: miter"/>
    </g>
    <g id="text_18">
     <!-- Motifs &amp; orientation -->
     <g transform="translate(434.979688 23.798437) scale(0.1 -0.1)">
      <defs>
       <path id="DejaVuSans-4d" d="M 628 4666 
L 1569 4666 
L 2759 1491 
L 3956 4666 
L 4897 4666 
L 4897 0 
L 4281 0 
L 4281 4097 
L 3078 897 
L 2444 897 
L 1241 4097 
L 1241 0 
L 628 0 
L 628 4666 
z
" transform="scale(0.015625)"/>
       <path id="DejaVuSans-26" d="M 1556 2509 
Q 1272 2256 1139 2004 
Q 1006 1753 1006 1478 
Q 1006 1022 1337 719 
Q 1669 416 2169 416 
Q 2466 416 2725 514 
Q 2984 613 3213 813 
L 1556 2509 
z
M 1997 2859 
L 3584 1234 
Q 3769 1513 3872 1830 
Q 3975 2147 3994 2503 
L 4575 2503 
Q 4538 2091 4375 1687 
Q 4213 1284 3922 891 
L 4794 0 
L 4006 0 
L 3559 459 
Q 3234 181 2878 45 
Q 2522 -91 2113 -91 
Q 1359 -91 881 339 
Q 403 769 403 1441 
Q 403 1841 612 2192 
Q 822 2544 1241 2853 
Q 1091 3050 1012 3245 
Q 934 3441 934 3628 
Q 934 4134 1281 4442 
Q 1628 4750 2203 4750 
Q 2463 4750 2720 4694 
Q 2978 4638 3244 4525 
L 3244 3956 
Q 2972 4103 2725 4179 
Q 2478 4256 2266 4256 
Q 1938 4256 1733 4082 
Q 1528 3909 1528 3634 
Q 1528 3475 1620 3314 
Q 1713 3153 1997 2859 
z
" transform="scale(0.015625)"/>
      </defs>
      <use xlink:href="#DejaVuSans-4d"/>
      <use xlink:href="#DejaVuSans-6f" transform="translate(86.279297 0)"/>
      <use xlink:href="#DejaVuSans-74" transform="translate(147.460938 0)"/>
      <use xlink:href="#DejaVuSans-69" transform="translate(186.669922 0)"/>
      <use xlink:href="#DejaVuSans-66" transform="translate(214.453125 0)"/>
      <use xlink:href="#DejaVuSans-73" transform="translate(249.658203 0)"/>
      <use xlink:href="#DejaVuSans-20" transform="translate(301.757812 0)"/>
      <use xlink:href="#DejaVuSans-26" transform="translate(333.544922 0)"/>
      <use xlink:href="#DejaVuSans-20" transform="translate(411.523438 0)"/>
      <use xlink:href="#DejaVuSans-6f" transform="translate(443.310547 0)"/>
      <use xlink:href="#DejaVuSans-72" transform="translate(504.492188 0)"/>
      <use xlink:href="#DejaVuSans-69" transform="translate(545.605469 0)"/>
      <use xlink:href="#DejaVuSans-65" transform="translate(573.388672 0)"/>
      <use xlink:href="#DejaVuSans-6e" transform="translate(634.912109 0)"/>
      <use xlink:href="#DejaVuSans-74" transform="translate(698.291016 0)"/>
      <use xlink:href="#DejaVuSans-61" transform="translate(737.5 0)"/>
      <use xlink:href="#DejaVuSans-74" transform="translate(798.779297 0)"/>
      <use xlink:href="#DejaVuSans-69" transform="translate(837.988281 0)"/>
      <use xlink:href="#DejaVuSans-6f" transform="translate(865.771484 0)"/>
      <use xlink:href="#DejaVuSans-6e" transform="translate(926.953125 0)"/>
     </g>
    </g>
    <g id="line2d_39">
     <path d="M 412.115625 34.976562 
L 422.115625 34.976562 
L 432.115625 34.976562 
" style="fill: none; stroke: #add8e6; stroke-width: 2; stroke-linecap: square"/>
    </g>
    <g id="text_19">
     <!-- CCTCAAACTAA (5' end) -->
     <g transform="translate(440.115625 38.476562) scale(0.1 -0.1)">
      <defs>
       <path id="DejaVuSans-43" d="M 4122 4306 
L 4122 3641 
Q 3803 3938 3442 4084 
Q 3081 4231 2675 4231 
Q 1875 4231 1450 3742 
Q 1025 3253 1025 2328 
Q 1025 1406 1450 917 
Q 1875 428 2675 428 
Q 3081 428 3442 575 
Q 3803 722 4122 1019 
L 4122 359 
Q 3791 134 3420 21 
Q 3050 -91 2638 -91 
Q 1578 -91 968 557 
Q 359 1206 359 2328 
Q 359 3453 968 4101 
Q 1578 4750 2638 4750 
Q 3056 4750 3426 4639 
Q 3797 4528 4122 4306 
z
" transform="scale(0.015625)"/>
       <path id="DejaVuSans-54" d="M -19 4666 
L 3928 4666 
L 3928 4134 
L 2272 4134 
L 2272 0 
L 1638 0 
L 1638 4134 
L -19 4134 
L -19 4666 
z
" transform="scale(0.015625)"/>
       <path id="DejaVuSans-28" d="M 1984 4856 
Q 1566 4138 1362 3434 
Q 1159 2731 1159 2009 
Q 1159 1288 1364 580 
Q 1569 -128 1984 -844 
L 1484 -844 
Q 1016 -109 783 600 
Q 550 1309 550 2009 
Q 550 2706 781 3412 
Q 1013 4119 1484 4856 
L 1984 4856 
z
" transform="scale(0.015625)"/>
       <path id="DejaVuSans-27" d="M 1147 4666 
L 1147 2931 
L 616 2931 
L 616 4666 
L 1147 4666 
z
" transform="scale(0.015625)"/>
       <path id="DejaVuSans-64" d="M 2906 2969 
L 2906 4863 
L 3481 4863 
L 3481 0 
L 2906 0 
L 2906 525 
Q 2725 213 2448 61 
Q 2172 -91 1784 -91 
Q 1150 -91 751 415 
Q 353 922 353 1747 
Q 353 2572 751 3078 
Q 1150 3584 1784 3584 
Q 2172 3584 2448 3432 
Q 2725 3281 2906 2969 
z
M 947 1747 
Q 947 1113 1208 752 
Q 1469 391 1925 391 
Q 2381 391 2643 752 
Q 2906 1113 2906 1747 
Q 2906 2381 2643 2742 
Q 2381 3103 1925 3103 
Q 1469 3103 1208 2742 
Q 947 2381 947 1747 
z
" transform="scale(0.015625)"/>
       <path id="DejaVuSans-29" d="M 513 4856 
L 1013 4856 
Q 1481 4119 1714 3412 
Q 1947 2706 1947 2009 
Q 1947 1309 1714 600 
Q 1481 -109 1013 -844 
L 513 -844 
Q 928 -128 1133 580 
Q 1338 1288 1338 2009 
Q 1338 2731 1133 3434 
Q 928 4138 513 4856 
z
" transform="scale(0.015625)"/>
      </defs>
      <use xlink:href="#DejaVuSans-43"/>
      <use xlink:href="#DejaVuSans-43" transform="translate(69.824219 0)"/>
      <use xlink:href="#DejaVuSans-54" transform="translate(139.648438 0)"/>
      <use xlink:href="#DejaVuSans-43" transform="translate(194.857422 0)"/>
      <use xlink:href="#DejaVuSans-41" transform="translate(264.681641 0)"/>
      <use xlink:href="#DejaVuSans-41" transform="translate(335.839844 0)"/>
      <use xlink:href="#DejaVuSans-41" transform="translate(406.998047 0)"/>
      <use xlink:href="#DejaVuSans-43" transform="translate(473.65625 0)"/>
      <use xlink:href="#DejaVuSans-54" transform="translate(543.480469 0)"/>
      <use xlink:href="#DejaVuSans-41" transform="translate(596.814453 0)"/>
      <use xlink:href="#DejaVuSans-41" transform="translate(667.972656 0)"/>
      <use xlink:href="#DejaVuSans-20" transform="translate(736.380859 0)"/>
      <use xlink:href="#DejaVuSans-28" transform="translate(768.167969 0)"/>
      <use xlink:href="#DejaVuSans-35" transform="translate(807.181641 0)"/>
      <use xlink:href="#DejaVuSans-27" transform="translate(870.804688 0)"/>
      <use xlink:href="#DejaVuSans-20" transform="translate(898.294922 0)"/>
      <use xlink:href="#DejaVuSans-65" transform="translate(930.082031 0)"/>
      <use xlink:href="#DejaVuSans-6e" transform="translate(991.605469 0)"/>
      <use xlink:href="#DejaVuSans-64" transform="translate(1054.984375 0)"/>
      <use xlink:href="#DejaVuSans-29" transform="translate(1118.460938 0)"/>
     </g>
    </g>
    <g id="line2d_40">
     <path d="M 412.115625 49.654687 
L 422.115625 49.654687 
L 432.115625 49.654687 
" style="fill: none; stroke: #6495ed; stroke-width: 2; stroke-linecap: square"/>
    </g>
    <g id="text_20">
     <!-- GACTAA (5' end) -->
     <g transform="translate(440.115625 53.154687) scale(0.1 -0.1)">
      <defs>
       <path id="DejaVuSans-47" d="M 3809 666 
L 3809 1919 
L 2778 1919 
L 2778 2438 
L 4434 2438 
L 4434 434 
Q 4069 175 3628 42 
Q 3188 -91 2688 -91 
Q 1594 -91 976 548 
Q 359 1188 359 2328 
Q 359 3472 976 4111 
Q 1594 4750 2688 4750 
Q 3144 4750 3555 4637 
Q 3966 4525 4313 4306 
L 4313 3634 
Q 3963 3931 3569 4081 
Q 3175 4231 2741 4231 
Q 1884 4231 1454 3753 
Q 1025 3275 1025 2328 
Q 1025 1384 1454 906 
Q 1884 428 2741 428 
Q 3075 428 3337 486 
Q 3600 544 3809 666 
z
" transform="scale(0.015625)"/>
      </defs>
      <use xlink:href="#DejaVuSans-47"/>
      <use xlink:href="#DejaVuSans-41" transform="translate(77.490234 0)"/>
      <use xlink:href="#DejaVuSans-43" transform="translate(144.148438 0)"/>
      <use xlink:href="#DejaVuSans-54" transform="translate(213.972656 0)"/>
      <use xlink:href="#DejaVuSans-41" transform="translate(267.306641 0)"/>
      <use xlink:href="#DejaVuSans-41" transform="translate(338.464844 0)"/>
      <use xlink:href="#DejaVuSans-20" transform="translate(406.873047 0)"/>
      <use xlink:href="#DejaVuSans-28" transform="translate(438.660156 0)"/>
      <use xlink:href="#DejaVuSans-35" transform="translate(477.673828 0)"/>
      <use xlink:href="#DejaVuSans-27" transform="translate(541.296875 0)"/>
      <use xlink:href="#DejaVuSans-20" transform="translate(568.787109 0)"/>
      <use xlink:href="#DejaVuSans-65" transform="translate(600.574219 0)"/>
      <use xlink:href="#DejaVuSans-6e" transform="translate(662.097656 0)"/>
      <use xlink:href="#DejaVuSans-64" transform="translate(725.476562 0)"/>
      <use xlink:href="#DejaVuSans-29" transform="translate(788.953125 0)"/>
     </g>
    </g>
    <g id="line2d_41">
     <path d="M 412.115625 64.332812 
L 422.115625 64.332812 
L 432.115625 64.332812 
" style="fill: none; stroke: #00008b; stroke-width: 2; stroke-linecap: square"/>
    </g>
    <g id="text_21">
     <!-- CCTAAA (5' end) -->
     <g transform="translate(440.115625 67.832812) scale(0.1 -0.1)">
      <use xlink:href="#DejaVuSans-43"/>
      <use xlink:href="#DejaVuSans-43" transform="translate(69.824219 0)"/>
      <use xlink:href="#DejaVuSans-54" transform="translate(139.648438 0)"/>
      <use xlink:href="#DejaVuSans-41" transform="translate(192.982422 0)"/>
      <use xlink:href="#DejaVuSans-41" transform="translate(264.140625 0)"/>
      <use xlink:href="#DejaVuSans-41" transform="translate(335.298828 0)"/>
      <use xlink:href="#DejaVuSans-20" transform="translate(403.707031 0)"/>
      <use xlink:href="#DejaVuSans-28" transform="translate(435.494141 0)"/>
      <use xlink:href="#DejaVuSans-35" transform="translate(474.507812 0)"/>
      <use xlink:href="#DejaVuSans-27" transform="translate(538.130859 0)"/>
      <use xlink:href="#DejaVuSans-20" transform="translate(565.621094 0)"/>
      <use xlink:href="#DejaVuSans-65" transform="translate(597.408203 0)"/>
      <use xlink:href="#DejaVuSans-6e" transform="translate(658.931641 0)"/>
      <use xlink:href="#DejaVuSans-64" transform="translate(722.310547 0)"/>
      <use xlink:href="#DejaVuSans-29" transform="translate(785.787109 0)"/>
     </g>
    </g>
    <g id="line2d_42">
     <path d="M 412.115625 79.010937 
L 422.115625 79.010937 
L 432.115625 79.010937 
" style="fill: none; stroke: #2f4f4f; stroke-width: 2; stroke-linecap: square"/>
    </g>
    <g id="text_22">
     <!-- CCCAACACTAA (5' end) -->
     <g transform="translate(440.115625 82.510937) scale(0.1 -0.1)">
      <use xlink:href="#DejaVuSans-43"/>
      <use xlink:href="#DejaVuSans-43" transform="translate(69.824219 0)"/>
      <use xlink:href="#DejaVuSans-43" transform="translate(139.648438 0)"/>
      <use xlink:href="#DejaVuSans-41" transform="translate(209.472656 0)"/>
      <use xlink:href="#DejaVuSans-41" transform="translate(280.630859 0)"/>
      <use xlink:href="#DejaVuSans-43" transform="translate(347.289062 0)"/>
      <use xlink:href="#DejaVuSans-41" transform="translate(417.113281 0)"/>
      <use xlink:href="#DejaVuSans-43" transform="translate(483.771484 0)"/>
      <use xlink:href="#DejaVuSans-54" transform="translate(553.595703 0)"/>
      <use xlink:href="#DejaVuSans-41" transform="translate(606.929688 0)"/>
      <use xlink:href="#DejaVuSans-41" transform="translate(678.087891 0)"/>
      <use xlink:href="#DejaVuSans-20" transform="translate(746.496094 0)"/>
      <use xlink:href="#DejaVuSans-28" transform="translate(778.283203 0)"/>
      <use xlink:href="#DejaVuSans-35" transform="translate(817.296875 0)"/>
      <use xlink:href="#DejaVuSans-27" transform="translate(880.919922 0)"/>
      <use xlink:href="#DejaVuSans-20" transform="translate(908.410156 0)"/>
      <use xlink:href="#DejaVuSans-65" transform="translate(940.197266 0)"/>
      <use xlink:href="#DejaVuSans-6e" transform="translate(1001.720703 0)"/>
      <use xlink:href="#DejaVuSans-64" transform="translate(1065.099609 0)"/>
      <use xlink:href="#DejaVuSans-29" transform="translate(1128.576172 0)"/>
     </g>
    </g>
    <g id="line2d_43">
     <path d="M 412.115625 93.689062 
L 422.115625 93.689062 
L 432.115625 93.689062 
" style="fill: none; stroke-dasharray: 7.4,3.2; stroke-dashoffset: 0; stroke: #fa8072; stroke-width: 2"/>
    </g>
    <g id="text_23">
     <!-- TTAGTTTGAGG (3' end) -->
     <g transform="translate(440.115625 97.189062) scale(0.1 -0.1)">
      <use xlink:href="#DejaVuSans-54"/>
      <use xlink:href="#DejaVuSans-54" transform="translate(59.333984 0)"/>
      <use xlink:href="#DejaVuSans-41" transform="translate(112.667969 0)"/>
      <use xlink:href="#DejaVuSans-47" transform="translate(179.326172 0)"/>
      <use xlink:href="#DejaVuSans-54" transform="translate(253.191406 0)"/>
      <use xlink:href="#DejaVuSans-54" transform="translate(312.525391 0)"/>
      <use xlink:href="#DejaVuSans-54" transform="translate(371.859375 0)"/>
      <use xlink:href="#DejaVuSans-47" transform="translate(432.943359 0)"/>
      <use xlink:href="#DejaVuSans-41" transform="translate(510.433594 0)"/>
      <use xlink:href="#DejaVuSans-47" transform="translate(577.091797 0)"/>
      <use xlink:href="#DejaVuSans-47" transform="translate(654.582031 0)"/>
      <use xlink:href="#DejaVuSans-20" transform="translate(732.072266 0)"/>
      <use xlink:href="#DejaVuSans-28" transform="translate(763.859375 0)"/>
      <use xlink:href="#DejaVuSans-33" transform="translate(802.873047 0)"/>
      <use xlink:href="#DejaVuSans-27" transform="translate(866.496094 0)"/>
      <use xlink:href="#DejaVuSans-20" transform="translate(893.986328 0)"/>
      <use xlink:href="#DejaVuSans-65" transform="translate(925.773438 0)"/>
      <use xlink:href="#DejaVuSans-6e" transform="translate(987.296875 0)"/>
      <use xlink:href="#DejaVuSans-64" transform="translate(1050.675781 0)"/>
      <use xlink:href="#DejaVuSans-29" transform="translate(1114.152344 0)"/>
     </g>
    </g>
    <g id="line2d_44">
     <path d="M 412.115625 108.367187 
L 422.115625 108.367187 
L 432.115625 108.367187 
" style="fill: none; stroke-dasharray: 7.4,3.2; stroke-dashoffset: 0; stroke: #ff4500; stroke-width: 2"/>
    </g>
    <g id="text_24">
     <!-- TTAGTC (3' end) -->
     <g transform="translate(440.115625 111.867187) scale(0.1 -0.1)">
      <use xlink:href="#DejaVuSans-54"/>
      <use xlink:href="#DejaVuSans-54" transform="translate(59.333984 0)"/>
      <use xlink:href="#DejaVuSans-41" transform="translate(112.667969 0)"/>
      <use xlink:href="#DejaVuSans-47" transform="translate(179.326172 0)"/>
      <use xlink:href="#DejaVuSans-54" transform="translate(253.191406 0)"/>
      <use xlink:href="#DejaVuSans-43" transform="translate(308.400391 0)"/>
      <use xlink:href="#DejaVuSans-20" transform="translate(378.224609 0)"/>
      <use xlink:href="#DejaVuSans-28" transform="translate(410.011719 0)"/>
      <use xlink:href="#DejaVuSans-33" transform="translate(449.025391 0)"/>
      <use xlink:href="#DejaVuSans-27" transform="translate(512.648438 0)"/>
      <use xlink:href="#DejaVuSans-20" transform="translate(540.138672 0)"/>
      <use xlink:href="#DejaVuSans-65" transform="translate(571.925781 0)"/>
      <use xlink:href="#DejaVuSans-6e" transform="translate(633.449219 0)"/>
      <use xlink:href="#DejaVuSans-64" transform="translate(696.828125 0)"/>
      <use xlink:href="#DejaVuSans-29" transform="translate(760.304688 0)"/>
     </g>
    </g>
    <g id="line2d_45">
     <path d="M 412.115625 123.045312 
L 422.115625 123.045312 
L 432.115625 123.045312 
" style="fill: none; stroke-dasharray: 7.4,3.2; stroke-dashoffset: 0; stroke: #8b0000; stroke-width: 2"/>
    </g>
    <g id="text_25">
     <!-- TTTAGG (3' end) -->
     <g transform="translate(440.115625 126.545312) scale(0.1 -0.1)">
      <use xlink:href="#DejaVuSans-54"/>
      <use xlink:href="#DejaVuSans-54" transform="translate(59.333984 0)"/>
      <use xlink:href="#DejaVuSans-54" transform="translate(118.667969 0)"/>
      <use xlink:href="#DejaVuSans-41" transform="translate(172.001953 0)"/>
      <use xlink:href="#DejaVuSans-47" transform="translate(238.660156 0)"/>
      <use xlink:href="#DejaVuSans-47" transform="translate(316.150391 0)"/>
      <use xlink:href="#DejaVuSans-20" transform="translate(393.640625 0)"/>
      <use xlink:href="#DejaVuSans-28" transform="translate(425.427734 0)"/>
      <use xlink:href="#DejaVuSans-33" transform="translate(464.441406 0)"/>
      <use xlink:href="#DejaVuSans-27" transform="translate(528.064453 0)"/>
      <use xlink:href="#DejaVuSans-20" transform="translate(555.554688 0)"/>
      <use xlink:href="#DejaVuSans-65" transform="translate(587.341797 0)"/>
      <use xlink:href="#DejaVuSans-6e" transform="translate(648.865234 0)"/>
      <use xlink:href="#DejaVuSans-64" transform="translate(712.244141 0)"/>
      <use xlink:href="#DejaVuSans-29" transform="translate(775.720703 0)"/>
     </g>
    </g>
    <g id="line2d_46">
     <path d="M 412.115625 137.723437 
L 422.115625 137.723437 
L 432.115625 137.723437 
" style="fill: none; stroke-dasharray: 7.4,3.2; stroke-dashoffset: 0; stroke: #8b4513; stroke-width: 2"/>
    </g>
    <g id="text_26">
     <!-- TTAGTGTTGGG (3' end) -->
     <g transform="translate(440.115625 141.223437) scale(0.1 -0.1)">
      <use xlink:href="#DejaVuSans-54"/>
      <use xlink:href="#DejaVuSans-54" transform="translate(59.333984 0)"/>
      <use xlink:href="#DejaVuSans-41" transform="translate(112.667969 0)"/>
      <use xlink:href="#DejaVuSans-47" transform="translate(179.326172 0)"/>
      <use xlink:href="#DejaVuSans-54" transform="translate(253.191406 0)"/>
      <use xlink:href="#DejaVuSans-47" transform="translate(314.275391 0)"/>
      <use xlink:href="#DejaVuSans-54" transform="translate(388.140625 0)"/>
      <use xlink:href="#DejaVuSans-54" transform="translate(447.474609 0)"/>
      <use xlink:href="#DejaVuSans-47" transform="translate(508.558594 0)"/>
      <use xlink:href="#DejaVuSans-47" transform="translate(586.048828 0)"/>
      <use xlink:href="#DejaVuSans-47" transform="translate(663.539062 0)"/>
      <use xlink:href="#DejaVuSans-20" transform="translate(741.029297 0)"/>
      <use xlink:href="#DejaVuSans-28" transform="translate(772.816406 0)"/>
      <use xlink:href="#DejaVuSans-33" transform="translate(811.830078 0)"/>
      <use xlink:href="#DejaVuSans-27" transform="translate(875.453125 0)"/>
      <use xlink:href="#DejaVuSans-20" transform="translate(902.943359 0)"/>
      <use xlink:href="#DejaVuSans-65" transform="translate(934.730469 0)"/>
      <use xlink:href="#DejaVuSans-6e" transform="translate(996.253906 0)"/>
      <use xlink:href="#DejaVuSans-64" transform="translate(1059.632812 0)"/>
      <use xlink:href="#DejaVuSans-29" transform="translate(1123.109375 0)"/>
     </g>
    </g>
   </g>
  </g>
 </g>
 <defs>
  <clipPath id="p120a3da3a5">
   <rect x="46.965625" y="7.2" width="356.15" height="379.24"/>
  </clipPath>
 </defs>
</svg>
