<?xml version="1.0" encoding="utf-8" standalone="no"?>
<!DOCTYPE svg PUBLIC "-//W3C//DTD SVG 1.1//EN"
  "http://www.w3.org/Graphics/SVG/1.1/DTD/svg11.dtd">
<svg xmlns:xlink="http://www.w3.org/1999/xlink" width="568.075pt" height="423.99625pt" viewBox="0 0 568.075 423.99625" xmlns="http://www.w3.org/2000/svg" version="1.1">
 <metadata>
  <rdf:RDF xmlns:dc="http://purl.org/dc/elements/1.1/" xmlns:cc="http://creativecommons.org/ns#" xmlns:rdf="http://www.w3.org/1999/02/22-rdf-syntax-ns#">
   <cc:Work>
    <dc:type rdf:resource="http://purl.org/dc/dcmitype/StillImage"/>
    <dc:date>2026-04-30T15:18:45.060034</dc:date>
    <dc:format>image/svg+xml</dc:format>
    <dc:creator>
     <cc:Agent>
      <dc:title>Matplotlib v3.10.6, https://matplotlib.org/</dc:title>
     </cc:Agent>
    </dc:creator>
   </cc:Work>
  </rdf:RDF>
 </metadata>
 <defs>
  <style type="text/css">*{stroke-linejoin: round; stroke-linecap: butt}</style>
 </defs>
 <g id="figure_1">
  <g id="patch_1">
   <path d="M 0 423.99625 
L 568.075 423.99625 
L 568.075 0 
L 0 0 
z
" style="fill: #ffffff"/>
  </g>
  <g id="axes_1">
   <g id="patch_2">
    <path d="M 46.965625 386.44 
L 403.115625 386.44 
L 403.115625 7.2 
L 46.965625 7.2 
z
" style="fill: #ffffff"/>
   </g>
   <g id="matplotlib.axis_1">
    <g id="xtick_1">
     <g id="line2d_1">
      <path d="M 63.154261 386.44 
L 63.154261 7.2 
" clip-path="url(#pe4e3bff4d2)" style="fill: none; stroke-dasharray: 2.96,1.28; stroke-dashoffset: 0; stroke: #b0b0b0; stroke-opacity: 0.6; stroke-width: 0.8"/>
     </g>
     <g id="line2d_2">
      <defs>
       <path id="mcac5951ee5" d="M 0 0 
L 0 3.5 
" style="stroke: #000000; stroke-width: 0.8"/>
      </defs>
      <g>
       <use xlink:href="#mcac5951ee5" x="63.154261" y="386.44" style="stroke: #000000; stroke-width: 0.8"/>
      </g>
     </g>
     <g id="text_1">
      <!-- 0 -->
      <g transform="translate(59.973011 401.038437) scale(0.1 -0.1)">
       <defs>
        <path id="DejaVuSans-30" d="M 2034 4250 
Q 1547 4250 1301 3770 
Q 1056 3291 1056 2328 
Q 1056 1369 1301 889 
Q 1547 409 2034 409 
Q 2525 409 2770 889 
Q 3016 1369 3016 2328 
Q 3016 3291 2770 3770 
Q 2525 4250 2034 4250 
z
M 2034 4750 
Q 2819 4750 3233 4129 
Q 3647 3509 3647 2328 
Q 3647 1150 3233 529 
Q 2819 -91 2034 -91 
Q 1250 -91 836 529 
Q 422 1150 422 2328 
Q 422 3509 836 4129 
Q 1250 4750 2034 4750 
z
" transform="scale(0.015625)"/>
       </defs>
       <use xlink:href="#DejaVuSans-30"/>
      </g>
     </g>
    </g>
    <g id="xtick_2">
     <g id="line2d_3">
      <path d="M 103.625852 386.44 
L 103.625852 7.2 
" clip-path="url(#pe4e3bff4d2)" style="fill: none; stroke-dasharray: 2.96,1.28; stroke-dashoffset: 0; stroke: #b0b0b0; stroke-opacity: 0.6; stroke-width: 0.8"/>
     </g>
     <g id="line2d_4">
      <g>
       <use xlink:href="#mcac5951ee5" x="103.625852" y="386.44" style="stroke: #000000; stroke-width: 0.8"/>
      </g>
     </g>
     <g id="text_2">
      <!-- 1000 -->
      <g transform="translate(90.900852 401.038437) scale(0.1 -0.1)">
       <defs>
        <path id="DejaVuSans-31" d="M 794 531 
L 1825 531 
L 1825 4091 
L 703 3866 
L 703 4441 
L 1819 4666 
L 2450 4666 
L 2450 531 
L 3481 531 
L 3481 0 
L 794 0 
L 794 531 
z
" transform="scale(0.015625)"/>
       </defs>
       <use xlink:href="#DejaVuSans-31"/>
       <use xlink:href="#DejaVuSans-30" transform="translate(63.623047 0)"/>
       <use xlink:href="#DejaVuSans-30" transform="translate(127.246094 0)"/>
       <use xlink:href="#DejaVuSans-30" transform="translate(190.869141 0)"/>
      </g>
     </g>
    </g>
    <g id="xtick_3">
     <g id="line2d_5">
      <path d="M 144.097443 386.44 
L 144.097443 7.2 
" clip-path="url(#pe4e3bff4d2)" style="fill: none; stroke-dasharray: 2.96,1.28; stroke-dashoffset: 0; stroke: #b0b0b0; stroke-opacity: 0.6; stroke-width: 0.8"/>
     </g>
     <g id="line2d_6">
      <g>
       <use xlink:href="#mcac5951ee5" x="144.097443" y="386.44" style="stroke: #000000; stroke-width: 0.8"/>
      </g>
     </g>
     <g id="text_3">
      <!-- 2000 -->
      <g transform="translate(131.372443 401.038437) scale(0.1 -0.1)">
       <defs>
        <path id="DejaVuSans-32" d="M 1228 531 
L 3431 531 
L 3431 0 
L 469 0 
L 469 531 
Q 828 903 1448 1529 
Q 2069 2156 2228 2338 
Q 2531 2678 2651 2914 
Q 2772 3150 2772 3378 
Q 2772 3750 2511 3984 
Q 2250 4219 1831 4219 
Q 1534 4219 1204 4116 
Q 875 4013 500 3803 
L 500 4441 
Q 881 4594 1212 4672 
Q 1544 4750 1819 4750 
Q 2544 4750 2975 4387 
Q 3406 4025 3406 3419 
Q 3406 3131 3298 2873 
Q 3191 2616 2906 2266 
Q 2828 2175 2409 1742 
Q 1991 1309 1228 531 
z
" transform="scale(0.015625)"/>
       </defs>
       <use xlink:href="#DejaVuSans-32"/>
       <use xlink:href="#DejaVuSans-30" transform="translate(63.623047 0)"/>
       <use xlink:href="#DejaVuSans-30" transform="translate(127.246094 0)"/>
       <use xlink:href="#DejaVuSans-30" transform="translate(190.869141 0)"/>
      </g>
     </g>
    </g>
    <g id="xtick_4">
     <g id="line2d_7">
      <path d="M 184.569034 386.44 
L 184.569034 7.2 
" clip-path="url(#pe4e3bff4d2)" style="fill: none; stroke-dasharray: 2.96,1.28; stroke-dashoffset: 0; stroke: #b0b0b0; stroke-opacity: 0.6; stroke-width: 0.8"/>
     </g>
     <g id="line2d_8">
      <g>
       <use xlink:href="#mcac5951ee5" x="184.569034" y="386.44" style="stroke: #000000; stroke-width: 0.8"/>
      </g>
     </g>
     <g id="text_4">
      <!-- 3000 -->
      <g transform="translate(171.844034 401.038437) scale(0.1 -0.1)">
       <defs>
        <path id="DejaVuSans-33" d="M 2597 2516 
Q 3050 2419 3304 2112 
Q 3559 1806 3559 1356 
Q 3559 666 3084 287 
Q 2609 -91 1734 -91 
Q 1441 -91 1130 -33 
Q 819 25 488 141 
L 488 750 
Q 750 597 1062 519 
Q 1375 441 1716 441 
Q 2309 441 2620 675 
Q 2931 909 2931 1356 
Q 2931 1769 2642 2001 
Q 2353 2234 1838 2234 
L 1294 2234 
L 1294 2753 
L 1863 2753 
Q 2328 2753 2575 2939 
Q 2822 3125 2822 3475 
Q 2822 3834 2567 4026 
Q 2313 4219 1838 4219 
Q 1578 4219 1281 4162 
Q 984 4106 628 3988 
L 628 4550 
Q 988 4650 1302 4700 
Q 1616 4750 1894 4750 
Q 2613 4750 3031 4423 
Q 3450 4097 3450 3541 
Q 3450 3153 3228 2886 
Q 3006 2619 2597 2516 
z
" transform="scale(0.015625)"/>
       </defs>
       <use xlink:href="#DejaVuSans-33"/>
       <use xlink:href="#DejaVuSans-30" transform="translate(63.623047 0)"/>
       <use xlink:href="#DejaVuSans-30" transform="translate(127.246094 0)"/>
       <use xlink:href="#DejaVuSans-30" transform="translate(190.869141 0)"/>
      </g>
     </g>
    </g>
    <g id="xtick_5">
     <g id="line2d_9">
      <path d="M 225.040625 386.44 
L 225.040625 7.2 
" clip-path="url(#pe4e3bff4d2)" style="fill: none; stroke-dasharray: 2.96,1.28; stroke-dashoffset: 0; stroke: #b0b0b0; stroke-opacity: 0.6; stroke-width: 0.8"/>
     </g>
     <g id="line2d_10">
      <g>
       <use xlink:href="#mcac5951ee5" x="225.040625" y="386.44" style="stroke: #000000; stroke-width: 0.8"/>
      </g>
     </g>
     <g id="text_5">
      <!-- 4000 -->
      <g transform="translate(212.315625 401.038437) scale(0.1 -0.1)">
       <defs>
        <path id="DejaVuSans-34" d="M 2419 4116 
L 825 1625 
L 2419 1625 
L 2419 4116 
z
M 2253 4666 
L 3047 4666 
L 3047 1625 
L 3713 1625 
L 3713 1100 
L 3047 1100 
L 3047 0 
L 2419 0 
L 2419 1100 
L 313 1100 
L 313 1709 
L 2253 4666 
z
" transform="scale(0.015625)"/>
       </defs>
       <use xlink:href="#DejaVuSans-34"/>
       <use xlink:href="#DejaVuSans-30" transform="translate(63.623047 0)"/>
       <use xlink:href="#DejaVuSans-30" transform="translate(127.246094 0)"/>
       <use xlink:href="#DejaVuSans-30" transform="translate(190.869141 0)"/>
      </g>
     </g>
    </g>
    <g id="xtick_6">
     <g id="line2d_11">
      <path d="M 265.512216 386.44 
L 265.512216 7.2 
" clip-path="url(#pe4e3bff4d2)" style="fill: none; stroke-dasharray: 2.96,1.28; stroke-dashoffset: 0; stroke: #b0b0b0; stroke-opacity: 0.6; stroke-width: 0.8"/>
     </g>
     <g id="line2d_12">
      <g>
       <use xlink:href="#mcac5951ee5" x="265.512216" y="386.44" style="stroke: #000000; stroke-width: 0.8"/>
      </g>
     </g>
     <g id="text_6">
      <!-- 5000 -->
      <g transform="translate(252.787216 401.038437) scale(0.1 -0.1)">
       <defs>
        <path id="DejaVuSans-35" d="M 691 4666 
L 3169 4666 
L 3169 4134 
L 1269 4134 
L 1269 2991 
Q 1406 3038 1543 3061 
Q 1681 3084 1819 3084 
Q 2600 3084 3056 2656 
Q 3513 2228 3513 1497 
Q 3513 744 3044 326 
Q 2575 -91 1722 -91 
Q 1428 -91 1123 -41 
Q 819 9 494 109 
L 494 744 
Q 775 591 1075 516 
Q 1375 441 1709 441 
Q 2250 441 2565 725 
Q 2881 1009 2881 1497 
Q 2881 1984 2565 2268 
Q 2250 2553 1709 2553 
Q 1456 2553 1204 2497 
Q 953 2441 691 2322 
L 691 4666 
z
" transform="scale(0.015625)"/>
       </defs>
       <use xlink:href="#DejaVuSans-35"/>
       <use xlink:href="#DejaVuSans-30" transform="translate(63.623047 0)"/>
       <use xlink:href="#DejaVuSans-30" transform="translate(127.246094 0)"/>
       <use xlink:href="#DejaVuSans-30" transform="translate(190.869141 0)"/>
      </g>
     </g>
    </g>
    <g id="xtick_7">
     <g id="line2d_13">
      <path d="M 305.983807 386.44 
L 305.983807 7.2 
" clip-path="url(#pe4e3bff4d2)" style="fill: none; stroke-dasharray: 2.96,1.28; stroke-dashoffset: 0; stroke: #b0b0b0; stroke-opacity: 0.6; stroke-width: 0.8"/>
     </g>
     <g id="line2d_14">
      <g>
       <use xlink:href="#mcac5951ee5" x="305.983807" y="386.44" style="stroke: #000000; stroke-width: 0.8"/>
      </g>
     </g>
     <g id="text_7">
      <!-- 6000 -->
      <g transform="translate(293.258807 401.038437) scale(0.1 -0.1)">
       <defs>
        <path id="DejaVuSans-36" d="M 2113 2584 
Q 1688 2584 1439 2293 
Q 1191 2003 1191 1497 
Q 1191 994 1439 701 
Q 1688 409 2113 409 
Q 2538 409 2786 701 
Q 3034 994 3034 1497 
Q 3034 2003 2786 2293 
Q 2538 2584 2113 2584 
z
M 3366 4563 
L 3366 3988 
Q 3128 4100 2886 4159 
Q 2644 4219 2406 4219 
Q 1781 4219 1451 3797 
Q 1122 3375 1075 2522 
Q 1259 2794 1537 2939 
Q 1816 3084 2150 3084 
Q 2853 3084 3261 2657 
Q 3669 2231 3669 1497 
Q 3669 778 3244 343 
Q 2819 -91 2113 -91 
Q 1303 -91 875 529 
Q 447 1150 447 2328 
Q 447 3434 972 4092 
Q 1497 4750 2381 4750 
Q 2619 4750 2861 4703 
Q 3103 4656 3366 4563 
z
" transform="scale(0.015625)"/>
       </defs>
       <use xlink:href="#DejaVuSans-36"/>
       <use xlink:href="#DejaVuSans-30" transform="translate(63.623047 0)"/>
       <use xlink:href="#DejaVuSans-30" transform="translate(127.246094 0)"/>
       <use xlink:href="#DejaVuSans-30" transform="translate(190.869141 0)"/>
      </g>
     </g>
    </g>
    <g id="xtick_8">
     <g id="line2d_15">
      <path d="M 346.455398 386.44 
L 346.455398 7.2 
" clip-path="url(#pe4e3bff4d2)" style="fill: none; stroke-dasharray: 2.96,1.28; stroke-dashoffset: 0; stroke: #b0b0b0; stroke-opacity: 0.6; stroke-width: 0.8"/>
     </g>
     <g id="line2d_16">
      <g>
       <use xlink:href="#mcac5951ee5" x="346.455398" y="386.44" style="stroke: #000000; stroke-width: 0.8"/>
      </g>
     </g>
     <g id="text_8">
      <!-- 7000 -->
      <g transform="translate(333.730398 401.038437) scale(0.1 -0.1)">
       <defs>
        <path id="DejaVuSans-37" d="M 525 4666 
L 3525 4666 
L 3525 4397 
L 1831 0 
L 1172 0 
L 2766 4134 
L 525 4134 
L 525 4666 
z
" transform="scale(0.015625)"/>
       </defs>
       <use xlink:href="#DejaVuSans-37"/>
       <use xlink:href="#DejaVuSans-30" transform="translate(63.623047 0)"/>
       <use xlink:href="#DejaVuSans-30" transform="translate(127.246094 0)"/>
       <use xlink:href="#DejaVuSans-30" transform="translate(190.869141 0)"/>
      </g>
     </g>
    </g>
    <g id="xtick_9">
     <g id="line2d_17">
      <path d="M 386.926989 386.44 
L 386.926989 7.2 
" clip-path="url(#pe4e3bff4d2)" style="fill: none; stroke-dasharray: 2.96,1.28; stroke-dashoffset: 0; stroke: #b0b0b0; stroke-opacity: 0.6; stroke-width: 0.8"/>
     </g>
     <g id="line2d_18">
      <g>
       <use xlink:href="#mcac5951ee5" x="386.926989" y="386.44" style="stroke: #000000; stroke-width: 0.8"/>
      </g>
     </g>
     <g id="text_9">
      <!-- 8000 -->
      <g transform="translate(374.201989 401.038437) scale(0.1 -0.1)">
       <defs>
        <path id="DejaVuSans-38" d="M 2034 2216 
Q 1584 2216 1326 1975 
Q 1069 1734 1069 1313 
Q 1069 891 1326 650 
Q 1584 409 2034 409 
Q 2484 409 2743 651 
Q 3003 894 3003 1313 
Q 3003 1734 2745 1975 
Q 2488 2216 2034 2216 
z
M 1403 2484 
Q 997 2584 770 2862 
Q 544 3141 544 3541 
Q 544 4100 942 4425 
Q 1341 4750 2034 4750 
Q 2731 4750 3128 4425 
Q 3525 4100 3525 3541 
Q 3525 3141 3298 2862 
Q 3072 2584 2669 2484 
Q 3125 2378 3379 2068 
Q 3634 1759 3634 1313 
Q 3634 634 3220 271 
Q 2806 -91 2034 -91 
Q 1263 -91 848 271 
Q 434 634 434 1313 
Q 434 1759 690 2068 
Q 947 2378 1403 2484 
z
M 1172 3481 
Q 1172 3119 1398 2916 
Q 1625 2713 2034 2713 
Q 2441 2713 2670 2916 
Q 2900 3119 2900 3481 
Q 2900 3844 2670 4047 
Q 2441 4250 2034 4250 
Q 1625 4250 1398 4047 
Q 1172 3844 1172 3481 
z
" transform="scale(0.015625)"/>
       </defs>
       <use xlink:href="#DejaVuSans-38"/>
       <use xlink:href="#DejaVuSans-30" transform="translate(63.623047 0)"/>
       <use xlink:href="#DejaVuSans-30" transform="translate(127.246094 0)"/>
       <use xlink:href="#DejaVuSans-30" transform="translate(190.869141 0)"/>
      </g>
     </g>
    </g>
    <g id="text_10">
     <!-- Distance from terminus [nt] -->
     <g transform="translate(155.541406 414.716562) scale(0.1 -0.1)">
      <defs>
       <path id="DejaVuSans-44" d="M 1259 4147 
L 1259 519 
L 2022 519 
Q 2988 519 3436 956 
Q 3884 1394 3884 2338 
Q 3884 3275 3436 3711 
Q 2988 4147 2022 4147 
L 1259 4147 
z
M 628 4666 
L 1925 4666 
Q 3281 4666 3915 4102 
Q 4550 3538 4550 2338 
Q 4550 1131 3912 565 
Q 3275 0 1925 0 
L 628 0 
L 628 4666 
z
" transform="scale(0.015625)"/>
       <path id="DejaVuSans-69" d="M 603 3500 
L 1178 3500 
L 1178 0 
L 603 0 
L 603 3500 
z
M 603 4863 
L 1178 4863 
L 1178 4134 
L 603 4134 
L 603 4863 
z
" transform="scale(0.015625)"/>
       <path id="DejaVuSans-73" d="M 2834 3397 
L 2834 2853 
Q 2591 2978 2328 3040 
Q 2066 3103 1784 3103 
Q 1356 3103 1142 2972 
Q 928 2841 928 2578 
Q 928 2378 1081 2264 
Q 1234 2150 1697 2047 
L 1894 2003 
Q 2506 1872 2764 1633 
Q 3022 1394 3022 966 
Q 3022 478 2636 193 
Q 2250 -91 1575 -91 
Q 1294 -91 989 -36 
Q 684 19 347 128 
L 347 722 
Q 666 556 975 473 
Q 1284 391 1588 391 
Q 1994 391 2212 530 
Q 2431 669 2431 922 
Q 2431 1156 2273 1281 
Q 2116 1406 1581 1522 
L 1381 1569 
Q 847 1681 609 1914 
Q 372 2147 372 2553 
Q 372 3047 722 3315 
Q 1072 3584 1716 3584 
Q 2034 3584 2315 3537 
Q 2597 3491 2834 3397 
z
" transform="scale(0.015625)"/>
       <path id="DejaVuSans-74" d="M 1172 4494 
L 1172 3500 
L 2356 3500 
L 2356 3053 
L 1172 3053 
L 1172 1153 
Q 1172 725 1289 603 
Q 1406 481 1766 481 
L 2356 481 
L 2356 0 
L 1766 0 
Q 1100 0 847 248 
Q 594 497 594 1153 
L 594 3053 
L 172 3053 
L 172 3500 
L 594 3500 
L 594 4494 
L 1172 4494 
z
" transform="scale(0.015625)"/>
       <path id="DejaVuSans-61" d="M 2194 1759 
Q 1497 1759 1228 1600 
Q 959 1441 959 1056 
Q 959 750 1161 570 
Q 1363 391 1709 391 
Q 2188 391 2477 730 
Q 2766 1069 2766 1631 
L 2766 1759 
L 2194 1759 
z
M 3341 1997 
L 3341 0 
L 2766 0 
L 2766 531 
Q 2569 213 2275 61 
Q 1981 -91 1556 -91 
Q 1019 -91 701 211 
Q 384 513 384 1019 
Q 384 1609 779 1909 
Q 1175 2209 1959 2209 
L 2766 2209 
L 2766 2266 
Q 2766 2663 2505 2880 
Q 2244 3097 1772 3097 
Q 1472 3097 1187 3025 
Q 903 2953 641 2809 
L 641 3341 
Q 956 3463 1253 3523 
Q 1550 3584 1831 3584 
Q 2591 3584 2966 3190 
Q 3341 2797 3341 1997 
z
" transform="scale(0.015625)"/>
       <path id="DejaVuSans-6e" d="M 3513 2113 
L 3513 0 
L 2938 0 
L 2938 2094 
Q 2938 2591 2744 2837 
Q 2550 3084 2163 3084 
Q 1697 3084 1428 2787 
Q 1159 2491 1159 1978 
L 1159 0 
L 581 0 
L 581 3500 
L 1159 3500 
L 1159 2956 
Q 1366 3272 1645 3428 
Q 1925 3584 2291 3584 
Q 2894 3584 3203 3211 
Q 3513 2838 3513 2113 
z
" transform="scale(0.015625)"/>
       <path id="DejaVuSans-63" d="M 3122 3366 
L 3122 2828 
Q 2878 2963 2633 3030 
Q 2388 3097 2138 3097 
Q 1578 3097 1268 2742 
Q 959 2388 959 1747 
Q 959 1106 1268 751 
Q 1578 397 2138 397 
Q 2388 397 2633 464 
Q 2878 531 3122 666 
L 3122 134 
Q 2881 22 2623 -34 
Q 2366 -91 2075 -91 
Q 1284 -91 818 406 
Q 353 903 353 1747 
Q 353 2603 823 3093 
Q 1294 3584 2113 3584 
Q 2378 3584 2631 3529 
Q 2884 3475 3122 3366 
z
" transform="scale(0.015625)"/>
       <path id="DejaVuSans-65" d="M 3597 1894 
L 3597 1613 
L 953 1613 
Q 991 1019 1311 708 
Q 1631 397 2203 397 
Q 2534 397 2845 478 
Q 3156 559 3463 722 
L 3463 178 
Q 3153 47 2828 -22 
Q 2503 -91 2169 -91 
Q 1331 -91 842 396 
Q 353 884 353 1716 
Q 353 2575 817 3079 
Q 1281 3584 2069 3584 
Q 2775 3584 3186 3129 
Q 3597 2675 3597 1894 
z
M 3022 2063 
Q 3016 2534 2758 2815 
Q 2500 3097 2075 3097 
Q 1594 3097 1305 2825 
Q 1016 2553 972 2059 
L 3022 2063 
z
" transform="scale(0.015625)"/>
       <path id="DejaVuSans-20" transform="scale(0.015625)"/>
       <path id="DejaVuSans-66" d="M 2375 4863 
L 2375 4384 
L 1825 4384 
Q 1516 4384 1395 4259 
Q 1275 4134 1275 3809 
L 1275 3500 
L 2222 3500 
L 2222 3053 
L 1275 3053 
L 1275 0 
L 697 0 
L 697 3053 
L 147 3053 
L 147 3500 
L 697 3500 
L 697 3744 
Q 697 4328 969 4595 
Q 1241 4863 1831 4863 
L 2375 4863 
z
" transform="scale(0.015625)"/>
       <path id="DejaVuSans-72" d="M 2631 2963 
Q 2534 3019 2420 3045 
Q 2306 3072 2169 3072 
Q 1681 3072 1420 2755 
Q 1159 2438 1159 1844 
L 1159 0 
L 581 0 
L 581 3500 
L 1159 3500 
L 1159 2956 
Q 1341 3275 1631 3429 
Q 1922 3584 2338 3584 
Q 2397 3584 2469 3576 
Q 2541 3569 2628 3553 
L 2631 2963 
z
" transform="scale(0.015625)"/>
       <path id="DejaVuSans-6f" d="M 1959 3097 
Q 1497 3097 1228 2736 
Q 959 2375 959 1747 
Q 959 1119 1226 758 
Q 1494 397 1959 397 
Q 2419 397 2687 759 
Q 2956 1122 2956 1747 
Q 2956 2369 2687 2733 
Q 2419 3097 1959 3097 
z
M 1959 3584 
Q 2709 3584 3137 3096 
Q 3566 2609 3566 1747 
Q 3566 888 3137 398 
Q 2709 -91 1959 -91 
Q 1206 -91 779 398 
Q 353 888 353 1747 
Q 353 2609 779 3096 
Q 1206 3584 1959 3584 
z
" transform="scale(0.015625)"/>
       <path id="DejaVuSans-6d" d="M 3328 2828 
Q 3544 3216 3844 3400 
Q 4144 3584 4550 3584 
Q 5097 3584 5394 3201 
Q 5691 2819 5691 2113 
L 5691 0 
L 5113 0 
L 5113 2094 
Q 5113 2597 4934 2840 
Q 4756 3084 4391 3084 
Q 3944 3084 3684 2787 
Q 3425 2491 3425 1978 
L 3425 0 
L 2847 0 
L 2847 2094 
Q 2847 2600 2669 2842 
Q 2491 3084 2119 3084 
Q 1678 3084 1418 2786 
Q 1159 2488 1159 1978 
L 1159 0 
L 581 0 
L 581 3500 
L 1159 3500 
L 1159 2956 
Q 1356 3278 1631 3431 
Q 1906 3584 2284 3584 
Q 2666 3584 2933 3390 
Q 3200 3197 3328 2828 
z
" transform="scale(0.015625)"/>
       <path id="DejaVuSans-75" d="M 544 1381 
L 544 3500 
L 1119 3500 
L 1119 1403 
Q 1119 906 1312 657 
Q 1506 409 1894 409 
Q 2359 409 2629 706 
Q 2900 1003 2900 1516 
L 2900 3500 
L 3475 3500 
L 3475 0 
L 2900 0 
L 2900 538 
Q 2691 219 2414 64 
Q 2138 -91 1772 -91 
Q 1169 -91 856 284 
Q 544 659 544 1381 
z
M 1991 3584 
L 1991 3584 
z
" transform="scale(0.015625)"/>
       <path id="DejaVuSans-5b" d="M 550 4863 
L 1875 4863 
L 1875 4416 
L 1125 4416 
L 1125 -397 
L 1875 -397 
L 1875 -844 
L 550 -844 
L 550 4863 
z
" transform="scale(0.015625)"/>
       <path id="DejaVuSans-5d" d="M 1947 4863 
L 1947 -844 
L 622 -844 
L 622 -397 
L 1369 -397 
L 1369 4416 
L 622 4416 
L 622 4863 
L 1947 4863 
z
" transform="scale(0.015625)"/>
      </defs>
      <use xlink:href="#DejaVuSans-44"/>
      <use xlink:href="#DejaVuSans-69" transform="translate(77.001953 0)"/>
      <use xlink:href="#DejaVuSans-73" transform="translate(104.785156 0)"/>
      <use xlink:href="#DejaVuSans-74" transform="translate(156.884766 0)"/>
      <use xlink:href="#DejaVuSans-61" transform="translate(196.09375 0)"/>
      <use xlink:href="#DejaVuSans-6e" transform="translate(257.373047 0)"/>
      <use xlink:href="#DejaVuSans-63" transform="translate(320.751953 0)"/>
      <use xlink:href="#DejaVuSans-65" transform="translate(375.732422 0)"/>
      <use xlink:href="#DejaVuSans-20" transform="translate(437.255859 0)"/>
      <use xlink:href="#DejaVuSans-66" transform="translate(469.042969 0)"/>
      <use xlink:href="#DejaVuSans-72" transform="translate(504.248047 0)"/>
      <use xlink:href="#DejaVuSans-6f" transform="translate(543.111328 0)"/>
      <use xlink:href="#DejaVuSans-6d" transform="translate(604.292969 0)"/>
      <use xlink:href="#DejaVuSans-20" transform="translate(701.705078 0)"/>
      <use xlink:href="#DejaVuSans-74" transform="translate(733.492188 0)"/>
      <use xlink:href="#DejaVuSans-65" transform="translate(772.701172 0)"/>
      <use xlink:href="#DejaVuSans-72" transform="translate(834.224609 0)"/>
      <use xlink:href="#DejaVuSans-6d" transform="translate(873.587891 0)"/>
      <use xlink:href="#DejaVuSans-69" transform="translate(971 0)"/>
      <use xlink:href="#DejaVuSans-6e" transform="translate(998.783203 0)"/>
      <use xlink:href="#DejaVuSans-75" transform="translate(1062.162109 0)"/>
      <use xlink:href="#DejaVuSans-73" transform="translate(1125.541016 0)"/>
      <use xlink:href="#DejaVuSans-20" transform="translate(1177.640625 0)"/>
      <use xlink:href="#DejaVuSans-5b" transform="translate(1209.427734 0)"/>
      <use xlink:href="#DejaVuSans-6e" transform="translate(1248.441406 0)"/>
      <use xlink:href="#DejaVuSans-74" transform="translate(1311.820312 0)"/>
      <use xlink:href="#DejaVuSans-5d" transform="translate(1351.029297 0)"/>
     </g>
    </g>
   </g>
   <g id="matplotlib.axis_2">
    <g id="ytick_1">
     <g id="line2d_19">
      <path d="M 46.965625 369.201818 
L 403.115625 369.201818 
" clip-path="url(#pe4e3bff4d2)" style="fill: none; stroke-dasharray: 2.96,1.28; stroke-dashoffset: 0; stroke: #b0b0b0; stroke-opacity: 0.6; stroke-width: 0.8"/>
     </g>
     <g id="line2d_20">
      <defs>
       <path id="ma0ca78aa04" d="M 0 0 
L -3.5 0 
" style="stroke: #000000; stroke-width: 0.8"/>
      </defs>
      <g>
       <use xlink:href="#ma0ca78aa04" x="46.965625" y="369.201818" style="stroke: #000000; stroke-width: 0.8"/>
      </g>
     </g>
     <g id="text_11">
      <!-- 0 -->
      <g transform="translate(33.603125 373.001037) scale(0.1 -0.1)">
       <use xlink:href="#DejaVuSans-30"/>
      </g>
     </g>
    </g>
    <g id="ytick_2">
     <g id="line2d_21">
      <path d="M 46.965625 301.066712 
L 403.115625 301.066712 
" clip-path="url(#pe4e3bff4d2)" style="fill: none; stroke-dasharray: 2.96,1.28; stroke-dashoffset: 0; stroke: #b0b0b0; stroke-opacity: 0.6; stroke-width: 0.8"/>
     </g>
     <g id="line2d_22">
      <g>
       <use xlink:href="#ma0ca78aa04" x="46.965625" y="301.066712" style="stroke: #000000; stroke-width: 0.8"/>
      </g>
     </g>
     <g id="text_12">
      <!-- 100 -->
      <g transform="translate(20.878125 304.865931) scale(0.1 -0.1)">
       <use xlink:href="#DejaVuSans-31"/>
       <use xlink:href="#DejaVuSans-30" transform="translate(63.623047 0)"/>
       <use xlink:href="#DejaVuSans-30" transform="translate(127.246094 0)"/>
      </g>
     </g>
    </g>
    <g id="ytick_3">
     <g id="line2d_23">
      <path d="M 46.965625 232.931606 
L 403.115625 232.931606 
" clip-path="url(#pe4e3bff4d2)" style="fill: none; stroke-dasharray: 2.96,1.28; stroke-dashoffset: 0; stroke: #b0b0b0; stroke-opacity: 0.6; stroke-width: 0.8"/>
     </g>
     <g id="line2d_24">
      <g>
       <use xlink:href="#ma0ca78aa04" x="46.965625" y="232.931606" style="stroke: #000000; stroke-width: 0.8"/>
      </g>
     </g>
     <g id="text_13">
      <!-- 200 -->
      <g transform="translate(20.878125 236.730825) scale(0.1 -0.1)">
       <use xlink:href="#DejaVuSans-32"/>
       <use xlink:href="#DejaVuSans-30" transform="translate(63.623047 0)"/>
       <use xlink:href="#DejaVuSans-30" transform="translate(127.246094 0)"/>
      </g>
     </g>
    </g>
    <g id="ytick_4">
     <g id="line2d_25">
      <path d="M 46.965625 164.7965 
L 403.115625 164.7965 
" clip-path="url(#pe4e3bff4d2)" style="fill: none; stroke-dasharray: 2.96,1.28; stroke-dashoffset: 0; stroke: #b0b0b0; stroke-opacity: 0.6; stroke-width: 0.8"/>
     </g>
     <g id="line2d_26">
      <g>
       <use xlink:href="#ma0ca78aa04" x="46.965625" y="164.7965" style="stroke: #000000; stroke-width: 0.8"/>
      </g>
     </g>
     <g id="text_14">
      <!-- 300 -->
      <g transform="translate(20.878125 168.595719) scale(0.1 -0.1)">
       <use xlink:href="#DejaVuSans-33"/>
       <use xlink:href="#DejaVuSans-30" transform="translate(63.623047 0)"/>
       <use xlink:href="#DejaVuSans-30" transform="translate(127.246094 0)"/>
      </g>
     </g>
    </g>
    <g id="ytick_5">
     <g id="line2d_27">
      <path d="M 46.965625 96.661394 
L 403.115625 96.661394 
" clip-path="url(#pe4e3bff4d2)" style="fill: none; stroke-dasharray: 2.96,1.28; stroke-dashoffset: 0; stroke: #b0b0b0; stroke-opacity: 0.6; stroke-width: 0.8"/>
     </g>
     <g id="line2d_28">
      <g>
       <use xlink:href="#ma0ca78aa04" x="46.965625" y="96.661394" style="stroke: #000000; stroke-width: 0.8"/>
      </g>
     </g>
     <g id="text_15">
      <!-- 400 -->
      <g transform="translate(20.878125 100.460613) scale(0.1 -0.1)">
       <use xlink:href="#DejaVuSans-34"/>
       <use xlink:href="#DejaVuSans-30" transform="translate(63.623047 0)"/>
       <use xlink:href="#DejaVuSans-30" transform="translate(127.246094 0)"/>
      </g>
     </g>
    </g>
    <g id="ytick_6">
     <g id="line2d_29">
      <path d="M 46.965625 28.526288 
L 403.115625 28.526288 
" clip-path="url(#pe4e3bff4d2)" style="fill: none; stroke-dasharray: 2.96,1.28; stroke-dashoffset: 0; stroke: #b0b0b0; stroke-opacity: 0.6; stroke-width: 0.8"/>
     </g>
     <g id="line2d_30">
      <g>
       <use xlink:href="#ma0ca78aa04" x="46.965625" y="28.526288" style="stroke: #000000; stroke-width: 0.8"/>
      </g>
     </g>
     <g id="text_16">
      <!-- 500 -->
      <g transform="translate(20.878125 32.325507) scale(0.1 -0.1)">
       <use xlink:href="#DejaVuSans-35"/>
       <use xlink:href="#DejaVuSans-30" transform="translate(63.623047 0)"/>
       <use xlink:href="#DejaVuSans-30" transform="translate(127.246094 0)"/>
      </g>
     </g>
    </g>
    <g id="text_17">
     <!-- Average cumulative count -->
     <g transform="translate(14.798438 262.4325) rotate(-90) scale(0.1 -0.1)">
      <defs>
       <path id="DejaVuSans-41" d="M 2188 4044 
L 1331 1722 
L 3047 1722 
L 2188 4044 
z
M 1831 4666 
L 2547 4666 
L 4325 0 
L 3669 0 
L 3244 1197 
L 1141 1197 
L 716 0 
L 50 0 
L 1831 4666 
z
" transform="scale(0.015625)"/>
       <path id="DejaVuSans-76" d="M 191 3500 
L 800 3500 
L 1894 563 
L 2988 3500 
L 3597 3500 
L 2284 0 
L 1503 0 
L 191 3500 
z
" transform="scale(0.015625)"/>
       <path id="DejaVuSans-67" d="M 2906 1791 
Q 2906 2416 2648 2759 
Q 2391 3103 1925 3103 
Q 1463 3103 1205 2759 
Q 947 2416 947 1791 
Q 947 1169 1205 825 
Q 1463 481 1925 481 
Q 2391 481 2648 825 
Q 2906 1169 2906 1791 
z
M 3481 434 
Q 3481 -459 3084 -895 
Q 2688 -1331 1869 -1331 
Q 1566 -1331 1297 -1286 
Q 1028 -1241 775 -1147 
L 775 -588 
Q 1028 -725 1275 -790 
Q 1522 -856 1778 -856 
Q 2344 -856 2625 -561 
Q 2906 -266 2906 331 
L 2906 616 
Q 2728 306 2450 153 
Q 2172 0 1784 0 
Q 1141 0 747 490 
Q 353 981 353 1791 
Q 353 2603 747 3093 
Q 1141 3584 1784 3584 
Q 2172 3584 2450 3431 
Q 2728 3278 2906 2969 
L 2906 3500 
L 3481 3500 
L 3481 434 
z
" transform="scale(0.015625)"/>
       <path id="DejaVuSans-6c" d="M 603 4863 
L 1178 4863 
L 1178 0 
L 603 0 
L 603 4863 
z
" transform="scale(0.015625)"/>
      </defs>
      <use xlink:href="#DejaVuSans-41"/>
      <use xlink:href="#DejaVuSans-76" transform="translate(62.533203 0)"/>
      <use xlink:href="#DejaVuSans-65" transform="translate(121.712891 0)"/>
      <use xlink:href="#DejaVuSans-72" transform="translate(183.236328 0)"/>
      <use xlink:href="#DejaVuSans-61" transform="translate(224.349609 0)"/>
      <use xlink:href="#DejaVuSans-67" transform="translate(285.628906 0)"/>
      <use xlink:href="#DejaVuSans-65" transform="translate(349.105469 0)"/>
      <use xlink:href="#DejaVuSans-20" transform="translate(410.628906 0)"/>
      <use xlink:href="#DejaVuSans-63" transform="translate(442.416016 0)"/>
      <use xlink:href="#DejaVuSans-75" transform="translate(497.396484 0)"/>
      <use xlink:href="#DejaVuSans-6d" transform="translate(560.775391 0)"/>
      <use xlink:href="#DejaVuSans-75" transform="translate(658.1875 0)"/>
      <use xlink:href="#DejaVuSans-6c" transform="translate(721.566406 0)"/>
      <use xlink:href="#DejaVuSans-61" transform="translate(749.349609 0)"/>
      <use xlink:href="#DejaVuSans-74" transform="translate(810.628906 0)"/>
      <use xlink:href="#DejaVuSans-69" transform="translate(849.837891 0)"/>
      <use xlink:href="#DejaVuSans-76" transform="translate(877.621094 0)"/>
      <use xlink:href="#DejaVuSans-65" transform="translate(936.800781 0)"/>
      <use xlink:href="#DejaVuSans-20" transform="translate(998.324219 0)"/>
      <use xlink:href="#DejaVuSans-63" transform="translate(1030.111328 0)"/>
      <use xlink:href="#DejaVuSans-6f" transform="translate(1085.091797 0)"/>
      <use xlink:href="#DejaVuSans-75" transform="translate(1146.273438 0)"/>
      <use xlink:href="#DejaVuSans-6e" transform="translate(1209.652344 0)"/>
      <use xlink:href="#DejaVuSans-74" transform="translate(1273.03125 0)"/>
     </g>
    </g>
   </g>
   <g id="line2d_31">
    <path d="M 63.154261 369.201818 
L 386.886517 369.201818 
L 386.886517 369.201818 
" clip-path="url(#pe4e3bff4d2)" style="fill: none; stroke: #add8e6; stroke-width: 2; stroke-linecap: square"/>
   </g>
   <g id="line2d_32">
    <path d="M 63.154261 369.201818 
L 386.886517 369.201818 
L 386.886517 369.201818 
" clip-path="url(#pe4e3bff4d2)" style="fill: none; stroke: #6495ed; stroke-width: 2; stroke-linecap: square"/>
   </g>
   <g id="line2d_33">
    <path d="M 63.154261 369.201818 
L 144.744989 369.201818 
L 144.866403 368.520467 
L 386.886517 368.520467 
L 386.886517 368.520467 
" clip-path="url(#pe4e3bff4d2)" style="fill: none; stroke: #00008b; stroke-width: 2; stroke-linecap: square"/>
   </g>
   <g id="line2d_34">
    <path d="M 63.154261 369.201818 
L 63.397091 369.201818 
L 63.518506 368.520467 
L 63.842278 368.520467 
L 63.963693 367.839116 
L 64.287466 367.839116 
L 64.408881 367.157765 
L 64.732653 367.157765 
L 64.854068 366.476414 
L 65.177841 366.476414 
L 65.299256 365.795063 
L 65.623028 365.795063 
L 65.744443 365.113712 
L 66.068216 365.113712 
L 66.189631 364.432361 
L 66.513403 364.432361 
L 66.634818 363.75101 
L 66.958591 363.75101 
L 67.080006 363.069659 
L 67.403778 363.069659 
L 67.525193 362.388308 
L 68.051324 362.388308 
L 68.172739 361.706957 
L 68.496511 361.706957 
L 68.617926 361.025605 
L 68.941699 361.025605 
L 69.063114 360.344254 
L 69.386886 360.344254 
L 69.508301 359.662903 
L 69.832074 359.662903 
L 69.953489 358.981552 
L 70.277261 358.981552 
L 70.398676 358.300201 
L 70.722449 358.300201 
L 70.843864 357.61885 
L 71.167636 357.61885 
L 71.289051 356.937499 
L 71.612824 356.937499 
L 71.734239 356.256148 
L 72.058011 356.256148 
L 72.179426 355.574797 
L 72.503199 355.574797 
L 72.624614 354.893446 
L 327.029034 354.893446 
L 327.150449 354.212095 
L 327.474222 354.212095 
L 327.595636 353.530744 
L 327.919409 353.530744 
L 328.040824 352.849393 
L 328.364597 352.849393 
L 328.486011 352.168042 
L 328.809784 352.168042 
L 328.931199 351.486691 
L 329.254972 351.486691 
L 329.376386 350.80534 
L 329.700159 350.80534 
L 329.821574 350.123989 
L 330.145347 350.123989 
L 330.266761 349.442637 
L 330.590534 349.442637 
L 330.711949 348.761286 
L 331.035722 348.761286 
L 331.157136 348.079935 
L 331.480909 348.079935 
L 331.602324 347.398584 
L 331.926097 347.398584 
L 332.047511 346.717233 
L 332.371284 346.717233 
L 332.492699 346.035882 
L 332.816472 346.035882 
L 332.937886 345.354531 
L 333.261659 345.354531 
L 333.383074 344.67318 
L 333.706847 344.67318 
L 333.828261 343.991829 
L 334.152034 343.991829 
L 334.273449 343.310478 
L 334.597222 343.310478 
L 334.718636 342.629127 
L 335.042409 342.629127 
L 335.163824 341.947776 
L 335.487597 341.947776 
L 335.609011 341.266425 
L 335.932784 341.266425 
L 336.054199 340.585074 
L 336.377972 340.585074 
L 336.499386 339.903723 
L 337.025517 339.903723 
L 337.146932 339.222372 
L 337.470705 339.222372 
L 337.592119 338.54102 
L 337.915892 338.54102 
L 338.037307 337.859669 
L 338.36108 337.859669 
L 338.482494 337.178318 
L 338.806267 337.178318 
L 338.927682 336.496967 
L 339.251455 336.496967 
L 339.372869 335.815616 
L 339.696642 335.815616 
L 339.818057 335.134265 
L 340.14183 335.134265 
L 340.263244 334.452914 
L 340.587017 334.452914 
L 340.708432 333.771563 
L 341.032205 333.771563 
L 341.153619 333.090212 
L 341.477392 333.090212 
L 341.598807 332.408861 
L 341.92258 332.408861 
L 342.043994 331.72751 
L 342.367767 331.72751 
L 342.489182 331.046159 
L 342.812955 331.046159 
L 342.934369 330.364808 
L 343.258142 330.364808 
L 343.379557 329.683457 
L 343.70333 329.683457 
L 343.824744 329.002106 
L 344.148517 329.002106 
L 344.269932 328.320755 
L 344.593705 328.320755 
L 344.715119 327.639404 
L 345.038892 327.639404 
L 345.160307 326.958052 
L 345.929267 326.958052 
L 346.050682 326.276701 
L 386.886517 326.276701 
L 386.886517 326.276701 
" clip-path="url(#pe4e3bff4d2)" style="fill: none; stroke: #2f4f4f; stroke-width: 2; stroke-linecap: square"/>
   </g>
   <g id="line2d_35">
    <path d="M 386.926989 369.201818 
L 63.194733 369.201818 
L 63.194733 369.201818 
" clip-path="url(#pe4e3bff4d2)" style="fill: none; stroke-dasharray: 7.4,3.2; stroke-dashoffset: 0; stroke: #fa8072; stroke-width: 2"/>
   </g>
   <g id="line2d_36">
    <path d="M 386.926989 369.201818 
L 63.194733 369.201818 
L 63.194733 369.201818 
" clip-path="url(#pe4e3bff4d2)" style="fill: none; stroke-dasharray: 7.4,3.2; stroke-dashoffset: 0; stroke: #ff4500; stroke-width: 2"/>
   </g>
   <g id="line2d_37">
    <path d="M 386.926989 369.201818 
L 363.251108 369.201818 
L 363.129693 368.861143 
L 63.194733 368.861143 
L 63.194733 368.861143 
" clip-path="url(#pe4e3bff4d2)" style="fill: none; stroke-dasharray: 7.4,3.2; stroke-dashoffset: 0; stroke: #8b0000; stroke-width: 2"/>
   </g>
   <g id="line2d_38">
    <path d="M 386.926989 369.201818 
L 347.26483 369.201818 
L 347.143415 368.861143 
L 346.819642 368.861143 
L 346.698227 368.520467 
L 346.374455 368.520467 
L 346.25304 368.179792 
L 345.929267 368.179792 
L 345.807852 367.839116 
L 345.48408 367.839116 
L 345.362665 367.498441 
L 345.038892 367.498441 
L 344.917477 367.157765 
L 344.593705 367.157765 
L 344.47229 366.817089 
L 344.148517 366.817089 
L 344.027102 366.476414 
L 343.70333 366.476414 
L 343.581915 366.135738 
L 342.812955 366.135738 
L 342.69154 365.795063 
L 342.367767 365.795063 
L 342.246352 365.454387 
L 341.92258 365.454387 
L 341.801165 365.113712 
L 341.477392 365.113712 
L 341.355977 364.773036 
L 341.032205 364.773036 
L 340.91079 364.432361 
L 340.587017 364.432361 
L 340.465602 364.091685 
L 340.14183 364.091685 
L 340.020415 363.75101 
L 339.696642 363.75101 
L 339.575227 363.410334 
L 339.251455 363.410334 
L 339.13004 363.069659 
L 338.806267 363.069659 
L 338.684852 362.728983 
L 338.36108 362.728983 
L 338.239665 362.388308 
L 337.915892 362.388308 
L 337.794477 362.047632 
L 337.470705 362.047632 
L 337.34929 361.706957 
L 337.025517 361.706957 
L 336.904102 361.366281 
L 336.58033 361.366281 
L 336.458915 361.025605 
L 336.135142 361.025605 
L 336.013727 360.68493 
L 335.689955 360.68493 
L 335.56854 360.344254 
L 335.244767 360.344254 
L 335.123352 360.003579 
L 334.79958 360.003579 
L 334.678165 359.662903 
L 334.354392 359.662903 
L 334.232977 359.322228 
L 333.909205 359.322228 
L 333.78779 358.981552 
L 333.464017 358.981552 
L 333.342602 358.640877 
L 333.01883 358.640877 
L 332.897415 358.300201 
L 332.573642 358.300201 
L 332.452227 357.959526 
L 332.128455 357.959526 
L 332.00704 357.61885 
L 331.683267 357.61885 
L 331.561852 357.278175 
L 331.23808 357.278175 
L 331.116665 356.937499 
L 330.792892 356.937499 
L 330.671477 356.596824 
L 330.347705 356.596824 
L 330.22629 356.256148 
L 329.902517 356.256148 
L 329.781102 355.915473 
L 329.45733 355.915473 
L 329.335915 355.574797 
L 329.012142 355.574797 
L 328.890727 355.234121 
L 328.566955 355.234121 
L 328.44554 354.893446 
L 328.121767 354.893446 
L 328.000352 354.55277 
L 327.67658 354.55277 
L 327.555165 354.212095 
L 327.231392 354.212095 
L 327.109977 353.871419 
L 326.786205 353.871419 
L 326.66479 353.530744 
L 326.341017 353.530744 
L 326.219602 353.190068 
L 325.89583 353.190068 
L 325.774415 352.849393 
L 325.450642 352.849393 
L 325.329227 352.508717 
L 325.005455 352.508717 
L 324.88404 352.168042 
L 324.560267 352.168042 
L 324.438852 351.827366 
L 324.11508 351.827366 
L 323.993665 351.486691 
L 323.669892 351.486691 
L 323.548477 351.146015 
L 323.224705 351.146015 
L 323.10329 350.80534 
L 322.779517 350.80534 
L 322.658102 350.464664 
L 322.33433 350.464664 
L 322.212915 350.123989 
L 321.889142 350.123989 
L 321.767727 349.783313 
L 321.443955 349.783313 
L 321.32254 349.442637 
L 320.998767 349.442637 
L 320.877352 349.101962 
L 320.55358 349.101962 
L 320.432165 348.761286 
L 320.108392 348.761286 
L 319.986977 348.420611 
L 319.663205 348.420611 
L 319.54179 348.079935 
L 319.218017 348.079935 
L 319.096602 347.73926 
L 318.77283 347.73926 
L 318.651415 347.398584 
L 318.327642 347.398584 
L 318.206227 347.057909 
L 317.882455 347.057909 
L 317.76104 346.717233 
L 317.437267 346.717233 
L 317.315852 346.376558 
L 316.99208 346.376558 
L 316.870665 346.035882 
L 316.344534 346.035882 
L 316.223119 345.695207 
L 315.899347 345.695207 
L 315.777932 345.354531 
L 315.454159 345.354531 
L 315.332744 345.013856 
L 314.806614 345.013856 
L 314.685199 344.67318 
L 314.361426 344.67318 
L 314.240011 344.332504 
L 313.916239 344.332504 
L 313.794824 343.991829 
L 313.471051 343.991829 
L 313.349636 343.651153 
L 313.025864 343.651153 
L 312.904449 343.310478 
L 312.580676 343.310478 
L 312.459261 342.969802 
L 312.135489 342.969802 
L 312.014074 342.629127 
L 311.690301 342.629127 
L 311.568886 342.288451 
L 311.245114 342.288451 
L 311.123699 341.947776 
L 310.799926 341.947776 
L 310.678511 341.6071 
L 310.354739 341.6071 
L 310.233324 341.266425 
L 309.909551 341.266425 
L 309.788136 340.925749 
L 309.464364 340.925749 
L 309.342949 340.585074 
L 309.019176 340.585074 
L 308.897761 340.244398 
L 308.573989 340.244398 
L 308.452574 339.903723 
L 308.128801 339.903723 
L 308.007386 339.563047 
L 307.683614 339.563047 
L 307.562199 339.222372 
L 307.238426 339.222372 
L 307.117011 338.881696 
L 306.590881 338.881696 
L 306.469466 338.54102 
L 306.145693 338.54102 
L 306.024278 338.200345 
L 305.700506 338.200345 
L 305.579091 337.859669 
L 305.255318 337.859669 
L 305.133903 337.518994 
L 304.810131 337.518994 
L 304.688716 337.178318 
L 304.364943 337.178318 
L 304.243528 336.837643 
L 303.919756 336.837643 
L 303.798341 336.496967 
L 303.474568 336.496967 
L 303.353153 336.156292 
L 303.029381 336.156292 
L 302.907966 335.815616 
L 302.584193 335.815616 
L 302.462778 335.474941 
L 302.139006 335.474941 
L 302.017591 335.134265 
L 301.693818 335.134265 
L 301.572403 334.79359 
L 301.248631 334.79359 
L 301.127216 334.452914 
L 300.803443 334.452914 
L 300.682028 334.112239 
L 300.358256 334.112239 
L 300.236841 333.771563 
L 299.913068 333.771563 
L 299.791653 333.430888 
L 299.467881 333.430888 
L 299.346466 333.090212 
L 299.022693 333.090212 
L 298.901278 332.749536 
L 298.577506 332.749536 
L 298.456091 332.408861 
L 298.132318 332.408861 
L 298.010903 332.068185 
L 297.687131 332.068185 
L 297.565716 331.72751 
L 297.241943 331.72751 
L 297.120528 331.386834 
L 296.796756 331.386834 
L 296.675341 331.046159 
L 296.351568 331.046159 
L 296.230153 330.705483 
L 295.906381 330.705483 
L 295.784966 330.364808 
L 295.461193 330.364808 
L 295.339778 330.024132 
L 295.016006 330.024132 
L 294.894591 329.683457 
L 294.570818 329.683457 
L 294.449403 329.342781 
L 294.125631 329.342781 
L 294.004216 329.002106 
L 293.680443 329.002106 
L 293.559028 328.66143 
L 293.235256 328.66143 
L 293.113841 328.320755 
L 292.790068 328.320755 
L 292.668653 327.980079 
L 292.344881 327.980079 
L 292.223466 327.639404 
L 291.899693 327.639404 
L 291.778278 327.298728 
L 291.454506 327.298728 
L 291.333091 326.958052 
L 291.009318 326.958052 
L 290.887903 326.617377 
L 290.685545 326.617377 
L 290.564131 326.276701 
L 290.361773 326.276701 
L 290.199886 325.59535 
L 289.916585 325.59535 
L 289.754699 324.913999 
L 289.471398 324.913999 
L 289.309511 324.232648 
L 289.02621 324.232648 
L 288.864324 323.551297 
L 288.581023 323.551297 
L 288.419136 322.869946 
L 288.135835 322.869946 
L 287.973949 322.188595 
L 287.690648 322.188595 
L 287.528761 321.507244 
L 287.24546 321.507244 
L 287.083574 320.825893 
L 286.597915 320.825893 
L 286.4765 320.485217 
L 286.23367 320.485217 
L 286.071784 319.803866 
L 285.788483 319.803866 
L 285.626597 319.122515 
L 285.343295 319.122515 
L 285.181409 318.441164 
L 284.898108 318.441164 
L 284.736222 317.759813 
L 284.45292 317.759813 
L 284.291034 317.078462 
L 284.007733 317.078462 
L 283.845847 316.397111 
L 283.562545 316.397111 
L 283.400659 315.71576 
L 283.117358 315.71576 
L 282.955472 315.034409 
L 282.67217 315.034409 
L 282.510284 314.353058 
L 282.226983 314.353058 
L 282.105568 314.012382 
L 281.943682 314.012382 
L 281.822267 313.671707 
L 281.781795 313.671707 
L 281.660381 313.331031 
L 281.498494 313.331031 
L 281.37708 312.990356 
L 281.336608 312.990356 
L 281.215193 312.64968 
L 281.053307 312.64968 
L 280.931892 312.309005 
L 280.89142 312.309005 
L 280.770006 311.968329 
L 280.608119 311.968329 
L 280.486705 311.627654 
L 280.446233 311.627654 
L 280.324818 311.286978 
L 280.162932 311.286978 
L 280.041517 310.946303 
L 280.001045 310.946303 
L 279.879631 310.605627 
L 279.717744 310.605627 
L 279.59633 310.264951 
L 279.555858 310.264951 
L 279.434443 309.924276 
L 279.272557 309.924276 
L 279.151142 309.5836 
L 279.11067 309.5836 
L 278.989256 309.242925 
L 278.827369 309.242925 
L 278.705955 308.902249 
L 278.665483 308.902249 
L 278.544068 308.561574 
L 278.220295 308.561574 
L 278.098881 308.220898 
L 277.936994 308.220898 
L 277.81558 307.880223 
L 277.775108 307.880223 
L 277.653693 307.539547 
L 277.491807 307.539547 
L 277.370392 307.198872 
L 277.32992 307.198872 
L 277.208506 306.858196 
L 277.046619 306.858196 
L 276.925205 306.517521 
L 276.884733 306.517521 
L 276.763318 306.176845 
L 276.601432 306.176845 
L 276.480017 305.83617 
L 276.439545 305.83617 
L 276.318131 305.495494 
L 276.156244 305.495494 
L 276.03483 305.154819 
L 275.994358 305.154819 
L 275.872943 304.814143 
L 275.711057 304.814143 
L 275.589642 304.473467 
L 275.54917 304.473467 
L 275.427756 304.132792 
L 275.265869 304.132792 
L 275.144455 303.792116 
L 275.103983 303.792116 
L 274.982568 303.451441 
L 274.820682 303.451441 
L 274.699267 303.110765 
L 274.658795 303.110765 
L 274.537381 302.77009 
L 274.375494 302.77009 
L 274.25408 302.429414 
L 274.213608 302.429414 
L 274.092193 302.088739 
L 273.930307 302.088739 
L 273.808892 301.748063 
L 273.76842 301.748063 
L 273.647006 301.407388 
L 273.485119 301.407388 
L 273.363705 301.066712 
L 273.323233 301.066712 
L 273.201818 300.726037 
L 273.039932 300.726037 
L 272.918517 300.385361 
L 272.878045 300.385361 
L 272.756631 300.044686 
L 272.554273 300.044686 
L 272.392386 299.363335 
L 272.109085 299.363335 
L 271.947199 298.681983 
L 271.663898 298.681983 
L 271.502011 298.000632 
L 271.21871 298.000632 
L 271.056824 297.319281 
L 270.773523 297.319281 
L 270.611636 296.63793 
L 270.328335 296.63793 
L 270.166449 295.956579 
L 269.883148 295.956579 
L 269.721261 295.275228 
L 269.43796 295.275228 
L 269.276074 294.593877 
L 268.992773 294.593877 
L 268.830886 293.912526 
L 268.547585 293.912526 
L 268.385699 293.231175 
L 267.980983 293.231175 
L 267.859568 292.890499 
L 267.535795 292.890499 
L 267.414381 292.209148 
L 267.090608 292.209148 
L 266.969193 291.527797 
L 266.64542 291.527797 
L 266.524006 290.846446 
L 266.200233 290.846446 
L 266.078818 290.165095 
L 265.755045 290.165095 
L 265.633631 289.483744 
L 265.309858 289.483744 
L 265.188443 288.802393 
L 264.86467 288.802393 
L 264.743256 288.121042 
L 264.419483 288.121042 
L 264.298068 287.439691 
L 263.974295 287.439691 
L 263.852881 286.75834 
L 263.529108 286.75834 
L 263.407693 286.076989 
L 263.08392 286.076989 
L 262.962506 285.395638 
L 262.638733 285.395638 
L 262.517318 284.714287 
L 262.193545 284.714287 
L 262.072131 284.032936 
L 261.748358 284.032936 
L 261.626943 283.351585 
L 261.30317 283.351585 
L 261.181756 282.670234 
L 260.857983 282.670234 
L 260.736568 281.988883 
L 260.412795 281.988883 
L 260.291381 281.307531 
L 259.967608 281.307531 
L 259.846193 280.966856 
L 259.76525 280.966856 
L 259.643835 280.62618 
L 259.52242 280.62618 
L 259.401006 280.285505 
L 259.320063 280.285505 
L 259.198648 279.944829 
L 259.077233 279.944829 
L 258.955818 279.604154 
L 258.874875 279.604154 
L 258.75346 279.263478 
L 258.632045 279.263478 
L 258.510631 278.922803 
L 258.22733 278.922803 
L 258.065443 278.241452 
L 257.782142 278.241452 
L 257.620256 277.560101 
L 257.336955 277.560101 
L 257.175068 276.87875 
L 256.891767 276.87875 
L 256.729881 276.197398 
L 256.44658 276.197398 
L 256.284693 275.516047 
L 256.001392 275.516047 
L 255.839506 274.834696 
L 255.556205 274.834696 
L 255.394318 274.153345 
L 255.111017 274.153345 
L 254.949131 273.471994 
L 254.66583 273.471994 
L 254.503943 272.790643 
L 254.220642 272.790643 
L 254.058756 272.109292 
L 253.775455 272.109292 
L 253.613568 271.427941 
L 253.330267 271.427941 
L 253.208852 271.087266 
L 253.087438 271.087266 
L 252.966023 270.74659 
L 252.88508 270.74659 
L 252.763665 270.405914 
L 252.64225 270.405914 
L 252.520835 270.065239 
L 252.439892 270.065239 
L 252.318477 269.724563 
L 252.197063 269.724563 
L 252.075648 269.383888 
L 251.994705 269.383888 
L 251.87329 269.043212 
L 251.751875 269.043212 
L 251.63046 268.702537 
L 251.549517 268.702537 
L 251.428102 268.361861 
L 251.306688 268.361861 
L 251.185273 268.021186 
L 251.10433 268.021186 
L 250.982915 267.68051 
L 250.8615 267.68051 
L 250.740085 267.339835 
L 250.659142 267.339835 
L 250.537727 266.999159 
L 250.416313 266.999159 
L 250.294898 266.658484 
L 250.011597 266.658484 
L 249.84971 265.977133 
L 249.566409 265.977133 
L 249.404523 265.295782 
L 249.121222 265.295782 
L 248.959335 264.61443 
L 248.676034 264.61443 
L 248.514148 263.933079 
L 248.230847 263.933079 
L 248.06896 263.251728 
L 247.785659 263.251728 
L 247.623773 262.570377 
L 247.340472 262.570377 
L 247.178585 261.889026 
L 246.895284 261.889026 
L 246.733398 261.207675 
L 246.450097 261.207675 
L 246.28821 260.526324 
L 246.004909 260.526324 
L 245.843023 259.844973 
L 245.559722 259.844973 
L 245.397835 259.163622 
L 245.114534 259.163622 
L 244.952648 258.482271 
L 244.669347 258.482271 
L 244.50746 257.80092 
L 244.224159 257.80092 
L 244.062273 257.119569 
L 243.778972 257.119569 
L 243.617085 256.438218 
L 243.333784 256.438218 
L 243.171898 255.756867 
L 242.888597 255.756867 
L 242.767182 255.416191 
L 242.645767 255.416191 
L 242.524352 255.075516 
L 242.443409 255.075516 
L 242.321994 254.73484 
L 242.20058 254.73484 
L 242.079165 254.394165 
L 241.998222 254.394165 
L 241.876807 254.053489 
L 241.755392 254.053489 
L 241.633977 253.712814 
L 241.553034 253.712814 
L 241.431619 253.372138 
L 241.310205 253.372138 
L 241.18879 253.031462 
L 241.107847 253.031462 
L 240.986432 252.690787 
L 240.865017 252.690787 
L 240.743602 252.350111 
L 240.662659 252.350111 
L 240.541244 252.009436 
L 240.41983 252.009436 
L 240.298415 251.66876 
L 240.217472 251.66876 
L 240.096057 251.328085 
L 239.974642 251.328085 
L 239.853227 250.987409 
L 239.772284 250.987409 
L 239.650869 250.646734 
L 239.529455 250.646734 
L 239.40804 250.306058 
L 239.327097 250.306058 
L 239.205682 249.965383 
L 239.084267 249.965383 
L 238.962852 249.624707 
L 238.881909 249.624707 
L 238.760494 249.284032 
L 238.63908 249.284032 
L 238.517665 248.943356 
L 238.436722 248.943356 
L 238.315307 248.602681 
L 238.193892 248.602681 
L 238.072477 248.262005 
L 237.991534 248.262005 
L 237.870119 247.92133 
L 237.748705 247.92133 
L 237.62729 247.580654 
L 237.546347 247.580654 
L 237.424932 247.239978 
L 237.303517 247.239978 
L 237.182102 246.899303 
L 237.101159 246.899303 
L 236.979744 246.558627 
L 236.655972 246.558627 
L 236.534557 246.217952 
L 236.210784 246.217952 
L 236.089369 245.536601 
L 235.765597 245.536601 
L 235.644182 244.85525 
L 235.320409 244.85525 
L 235.198994 244.173899 
L 234.875222 244.173899 
L 234.753807 243.492548 
L 234.430034 243.492548 
L 234.308619 242.811197 
L 233.984847 242.811197 
L 233.863432 242.470521 
L 233.782489 242.470521 
L 233.661074 242.129845 
L 233.539659 242.129845 
L 233.418244 241.78917 
L 233.337301 241.78917 
L 233.215886 241.448494 
L 233.094472 241.448494 
L 232.973057 241.107819 
L 232.892114 241.107819 
L 232.770699 240.767143 
L 232.649284 240.767143 
L 232.527869 240.426468 
L 232.446926 240.426468 
L 232.325511 240.085792 
L 232.204097 240.085792 
L 232.082682 239.745117 
L 232.001739 239.745117 
L 231.880324 239.404441 
L 231.758909 239.404441 
L 231.637494 239.063766 
L 231.556551 239.063766 
L 231.435136 238.72309 
L 231.111364 238.72309 
L 230.989949 238.041739 
L 230.666176 238.041739 
L 230.544761 237.360388 
L 230.220989 237.360388 
L 230.099574 237.019713 
L 230.018631 237.019713 
L 229.897216 236.679037 
L 229.775801 236.679037 
L 229.654386 236.338361 
L 229.573443 236.338361 
L 229.452028 235.997686 
L 229.330614 235.997686 
L 229.209199 235.65701 
L 229.128256 235.65701 
L 229.006841 235.316335 
L 228.885426 235.316335 
L 228.764011 234.975659 
L 228.683068 234.975659 
L 228.561653 234.634984 
L 228.440239 234.634984 
L 228.318824 234.294308 
L 228.237881 234.294308 
L 228.116466 233.953633 
L 227.995051 233.953633 
L 227.873636 233.612957 
L 227.792693 233.612957 
L 227.671278 233.272282 
L 227.549864 233.272282 
L 227.428449 232.931606 
L 227.347506 232.931606 
L 227.226091 232.590931 
L 227.104676 232.590931 
L 226.983261 232.250255 
L 226.902318 232.250255 
L 226.780903 231.90958 
L 226.659489 231.90958 
L 226.538074 231.568904 
L 226.457131 231.568904 
L 226.335716 231.228229 
L 226.214301 231.228229 
L 226.092886 230.887553 
L 226.011943 230.887553 
L 225.890528 230.546877 
L 225.769114 230.546877 
L 225.647699 230.206202 
L 225.364398 230.206202 
L 225.202511 229.524851 
L 224.91921 229.524851 
L 224.757324 228.8435 
L 224.474023 228.8435 
L 224.312136 228.162149 
L 224.028835 228.162149 
L 223.866949 227.480798 
L 223.583648 227.480798 
L 223.421761 226.799447 
L 223.13846 226.799447 
L 222.976574 226.118096 
L 222.693273 226.118096 
L 222.531386 225.436745 
L 222.248085 225.436745 
L 222.086199 224.755393 
L 221.762426 224.755393 
L 221.641011 224.414718 
L 221.35771 224.414718 
L 221.236295 224.074042 
L 221.114881 224.074042 
L 220.993466 223.733367 
L 220.912523 223.733367 
L 220.791108 223.392691 
L 220.669693 223.392691 
L 220.548278 223.052016 
L 220.467335 223.052016 
L 220.34592 222.71134 
L 220.224506 222.71134 
L 220.103091 222.370665 
L 220.022148 222.370665 
L 219.900733 222.029989 
L 219.779318 222.029989 
L 219.657903 221.689314 
L 219.57696 221.689314 
L 219.455545 221.348638 
L 219.334131 221.348638 
L 219.212716 221.007963 
L 219.131773 221.007963 
L 219.010358 220.667287 
L 218.888943 220.667287 
L 218.767528 220.326612 
L 218.686585 220.326612 
L 218.56517 219.985936 
L 218.443756 219.985936 
L 218.322341 219.645261 
L 218.241398 219.645261 
L 218.119983 219.304585 
L 217.998568 219.304585 
L 217.877153 218.963909 
L 217.79621 218.963909 
L 217.674795 218.623234 
L 217.553381 218.623234 
L 217.431966 218.282558 
L 217.351023 218.282558 
L 217.229608 217.941883 
L 217.108193 217.941883 
L 216.986778 217.601207 
L 216.905835 217.601207 
L 216.78442 217.260532 
L 216.663006 217.260532 
L 216.541591 216.919856 
L 216.460648 216.919856 
L 216.339233 216.579181 
L 216.217818 216.579181 
L 216.096403 216.238505 
L 216.01546 216.238505 
L 215.894045 215.89783 
L 215.772631 215.89783 
L 215.651216 215.557154 
L 215.570273 215.557154 
L 215.448858 215.216479 
L 215.327443 215.216479 
L 215.206028 214.875803 
L 215.125085 214.875803 
L 215.00367 214.535128 
L 214.882256 214.535128 
L 214.760841 214.194452 
L 214.679898 214.194452 
L 214.558483 213.853777 
L 214.437068 213.853777 
L 214.315653 213.513101 
L 214.23471 213.513101 
L 214.113295 213.172425 
L 213.991881 213.172425 
L 213.870466 212.83175 
L 213.789523 212.83175 
L 213.668108 212.491074 
L 213.546693 212.491074 
L 213.425278 212.150399 
L 213.344335 212.150399 
L 213.22292 211.809723 
L 213.101506 211.809723 
L 212.980091 211.469048 
L 212.899148 211.469048 
L 212.777733 211.128372 
L 212.656318 211.128372 
L 212.534903 210.787697 
L 212.45396 210.787697 
L 212.332545 210.447021 
L 212.211131 210.447021 
L 212.089716 210.106346 
L 212.008773 210.106346 
L 211.887358 209.76567 
L 211.765943 209.76567 
L 211.644528 209.424995 
L 211.361227 209.424995 
L 211.199341 208.743644 
L 210.91604 208.743644 
L 210.754153 208.062292 
L 210.470852 208.062292 
L 210.308966 207.380941 
L 210.025665 207.380941 
L 209.863778 206.69959 
L 209.580477 206.69959 
L 209.418591 206.018239 
L 209.13529 206.018239 
L 208.973403 205.336888 
L 208.690102 205.336888 
L 208.528216 204.655537 
L 208.244915 204.655537 
L 208.083028 203.974186 
L 207.799727 203.974186 
L 207.637841 203.292835 
L 207.35454 203.292835 
L 207.192653 202.611484 
L 206.909352 202.611484 
L 206.747466 201.930133 
L 206.464165 201.930133 
L 206.302278 201.248782 
L 206.018977 201.248782 
L 205.857091 200.567431 
L 205.57379 200.567431 
L 205.411903 199.88608 
L 205.128602 199.88608 
L 204.966716 199.204729 
L 204.683415 199.204729 
L 204.562 198.864053 
L 204.238227 198.864053 
L 204.076341 198.182702 
L 203.79304 198.182702 
L 203.631153 197.501351 
L 203.347852 197.501351 
L 203.185966 196.82 
L 202.902665 196.82 
L 202.740778 196.138649 
L 202.457477 196.138649 
L 202.295591 195.457298 
L 202.01229 195.457298 
L 201.850403 194.775947 
L 201.567102 194.775947 
L 201.405216 194.094596 
L 201.121915 194.094596 
L 200.960028 193.413245 
L 200.676727 193.413245 
L 200.514841 192.731894 
L 200.23154 192.731894 
L 200.069653 192.050543 
L 199.786352 192.050543 
L 199.624466 191.369192 
L 199.341165 191.369192 
L 199.21975 191.028516 
L 198.895977 191.028516 
L 198.774563 190.68784 
L 198.612676 190.68784 
L 198.491261 190.347165 
L 198.45079 190.347165 
L 198.329375 190.006489 
L 198.167489 190.006489 
L 198.046074 189.665814 
L 198.005602 189.665814 
L 197.884188 189.325138 
L 197.560415 189.325138 
L 197.439 188.984463 
L 197.034284 188.984463 
L 196.872398 188.303112 
L 196.589097 188.303112 
L 196.42721 187.621761 
L 196.143909 187.621761 
L 195.982023 186.94041 
L 195.698722 186.94041 
L 195.536835 186.259059 
L 195.253534 186.259059 
L 195.091648 185.577708 
L 194.808347 185.577708 
L 194.64646 184.896356 
L 194.363159 184.896356 
L 194.201273 184.215005 
L 193.917972 184.215005 
L 193.756085 183.533654 
L 193.472784 183.533654 
L 193.310898 182.852303 
L 193.027597 182.852303 
L 192.86571 182.170952 
L 192.582409 182.170952 
L 192.420523 181.489601 
L 192.137222 181.489601 
L 191.975335 180.80825 
L 191.692034 180.80825 
L 191.530148 180.126899 
L 191.246847 180.126899 
L 191.08496 179.445548 
L 190.801659 179.445548 
L 190.639773 178.764197 
L 190.356472 178.764197 
L 190.194585 178.082846 
L 189.911284 178.082846 
L 189.749398 177.401495 
L 189.466097 177.401495 
L 189.30421 176.720144 
L 189.020909 176.720144 
L 188.859023 176.038793 
L 188.575722 176.038793 
L 188.413835 175.357442 
L 188.130534 175.357442 
L 187.968648 174.676091 
L 187.685347 174.676091 
L 187.52346 173.994739 
L 187.118744 173.994739 
L 186.99733 173.654064 
L 186.794972 173.654064 
L 186.673557 173.313388 
L 186.471199 173.313388 
L 186.309313 172.632037 
L 186.026011 172.632037 
L 185.864125 171.950686 
L 185.580824 171.950686 
L 185.418938 171.269335 
L 185.135636 171.269335 
L 184.97375 170.587984 
L 184.690449 170.587984 
L 184.528563 169.906633 
L 184.245261 169.906633 
L 184.083375 169.225282 
L 183.800074 169.225282 
L 183.638188 168.543931 
L 183.354886 168.543931 
L 183.233472 168.203255 
L 183.031114 168.203255 
L 182.869227 167.521904 
L 182.585926 167.521904 
L 182.42404 166.840553 
L 182.140739 166.840553 
L 181.978852 166.159202 
L 181.695551 166.159202 
L 181.533665 165.477851 
L 181.250364 165.477851 
L 181.088477 164.7965 
L 180.805176 164.7965 
L 180.64329 164.115149 
L 180.359989 164.115149 
L 180.198102 163.433798 
L 179.914801 163.433798 
L 179.752915 162.752447 
L 179.469614 162.752447 
L 179.307727 162.071096 
L 179.024426 162.071096 
L 178.86254 161.389745 
L 178.579239 161.389745 
L 178.417352 160.708394 
L 178.134051 160.708394 
L 177.972165 160.027043 
L 177.688864 160.027043 
L 177.526977 159.345692 
L 177.243676 159.345692 
L 177.08179 158.664341 
L 176.798489 158.664341 
L 176.636602 157.98299 
L 176.353301 157.98299 
L 176.191415 157.301639 
L 175.908114 157.301639 
L 175.746227 156.620287 
L 175.462926 156.620287 
L 175.341511 156.279612 
L 175.139153 156.279612 
L 174.977267 155.598261 
L 174.693966 155.598261 
L 174.53208 154.91691 
L 174.248778 154.91691 
L 174.086892 154.235559 
L 173.803591 154.235559 
L 173.641705 153.554208 
L 173.358403 153.554208 
L 173.196517 152.872857 
L 172.913216 152.872857 
L 172.75133 152.191506 
L 172.468028 152.191506 
L 172.306142 151.510155 
L 172.022841 151.510155 
L 171.860955 150.828803 
L 171.577653 150.828803 
L 171.415767 150.147452 
L 171.132466 150.147452 
L 170.97058 149.466101 
L 170.687278 149.466101 
L 170.525392 148.78475 
L 170.242091 148.78475 
L 170.080205 148.103399 
L 169.796903 148.103399 
L 169.635017 147.422048 
L 169.351716 147.422048 
L 169.18983 146.740697 
L 168.906528 146.740697 
L 168.744642 146.059346 
L 168.461341 146.059346 
L 168.299455 145.377995 
L 168.016153 145.377995 
L 167.854267 144.696644 
L 167.570966 144.696644 
L 167.40908 144.015293 
L 167.125778 144.015293 
L 166.963892 143.333942 
L 166.680591 143.333942 
L 166.518705 142.652591 
L 166.235403 142.652591 
L 166.073517 141.97124 
L 165.790216 141.97124 
L 165.62833 141.289889 
L 165.223614 141.289889 
L 165.061727 140.608538 
L 164.778426 140.608538 
L 164.61654 139.927186 
L 164.333239 139.927186 
L 164.171352 139.245835 
L 163.888051 139.245835 
L 163.726165 138.564484 
L 163.442864 138.564484 
L 163.321449 138.223809 
L 162.997676 138.223809 
L 162.83579 137.542458 
L 162.552489 137.542458 
L 162.390602 136.861107 
L 162.107301 136.861107 
L 161.945415 136.179756 
L 161.662114 136.179756 
L 161.500227 135.498405 
L 161.216926 135.498405 
L 161.05504 134.817054 
L 160.771739 134.817054 
L 160.609852 134.135702 
L 160.326551 134.135702 
L 160.164665 133.454351 
L 159.881364 133.454351 
L 159.719477 132.773 
L 159.436176 132.773 
L 159.27429 132.091649 
L 158.990989 132.091649 
L 158.829102 131.410298 
L 158.545801 131.410298 
L 158.383915 130.728947 
L 158.100614 130.728947 
L 157.938727 130.047596 
L 157.655426 130.047596 
L 157.49354 129.366245 
L 157.210239 129.366245 
L 157.048352 128.684894 
L 156.765051 128.684894 
L 156.603165 128.003543 
L 156.319864 128.003543 
L 156.157977 127.322192 
L 155.874676 127.322192 
L 155.71279 126.640841 
L 155.429489 126.640841 
L 155.267602 125.95949 
L 154.984301 125.95949 
L 154.822415 125.278139 
L 154.539114 125.278139 
L 154.377227 124.596788 
L 154.093926 124.596788 
L 153.93204 123.915437 
L 153.648739 123.915437 
L 153.486852 123.234086 
L 153.203551 123.234086 
L 153.041665 122.552734 
L 152.758364 122.552734 
L 152.596477 121.871383 
L 152.313176 121.871383 
L 152.15129 121.190032 
L 151.867989 121.190032 
L 151.706102 120.508681 
L 151.341858 120.508681 
L 151.179972 119.82733 
L 150.89667 119.82733 
L 150.734784 119.145979 
L 150.451483 119.145979 
L 150.289597 118.464628 
L 150.006295 118.464628 
L 149.884881 118.123953 
L 149.682523 118.123953 
L 149.520636 117.442602 
L 149.237335 117.442602 
L 149.11592 117.101926 
L 149.034977 117.101926 
L 148.913563 116.76125 
L 148.792148 116.76125 
L 148.670733 116.420575 
L 148.34696 116.420575 
L 148.225545 116.079899 
L 148.144602 116.079899 
L 148.023188 115.739224 
L 147.901773 115.739224 
L 147.780358 115.398548 
L 147.699415 115.398548 
L 147.578 115.057873 
L 147.456585 115.057873 
L 147.33517 114.717197 
L 147.254227 114.717197 
L 147.132813 114.376522 
L 147.011398 114.376522 
L 146.889983 114.035846 
L 146.80904 114.035846 
L 146.687625 113.695171 
L 146.56621 113.695171 
L 146.444795 113.354495 
L 146.363852 113.354495 
L 146.242438 113.01382 
L 146.121023 113.01382 
L 145.999608 112.673144 
L 145.918665 112.673144 
L 145.79725 112.332469 
L 145.675835 112.332469 
L 145.55442 111.991793 
L 145.473477 111.991793 
L 145.352063 111.651117 
L 145.02829 111.651117 
L 144.906875 111.310442 
L 144.583102 111.310442 
L 144.421216 110.629091 
L 144.137915 110.629091 
L 143.976028 109.94774 
L 143.692727 109.94774 
L 143.530841 109.266389 
L 143.207068 109.266389 
L 143.085653 108.925713 
L 142.761881 108.925713 
L 142.640466 108.585038 
L 142.559523 108.585038 
L 142.438108 108.244362 
L 142.316693 108.244362 
L 142.195278 107.903687 
L 142.114335 107.903687 
L 141.99292 107.563011 
L 141.871506 107.563011 
L 141.750091 107.222336 
L 141.426318 107.222336 
L 141.304903 106.88166 
L 140.981131 106.88166 
L 140.859716 106.200309 
L 140.535943 106.200309 
L 140.414528 105.518958 
L 140.090756 105.518958 
L 139.969341 104.837607 
L 139.645568 104.837607 
L 139.524153 104.496931 
L 139.200381 104.496931 
L 139.078966 103.81558 
L 138.755193 103.81558 
L 138.633778 103.134229 
L 138.310006 103.134229 
L 138.188591 102.452878 
L 137.864818 102.452878 
L 137.743403 101.771527 
L 137.419631 101.771527 
L 137.298216 101.090176 
L 136.974443 101.090176 
L 136.853028 100.408825 
L 136.529256 100.408825 
L 136.407841 100.068149 
L 136.12454 100.068149 
L 135.962653 99.386798 
L 135.679352 99.386798 
L 135.517466 98.705447 
L 135.234165 98.705447 
L 135.11275 98.364772 
L 134.991335 98.364772 
L 134.86992 98.024096 
L 134.788977 98.024096 
L 134.667563 97.683421 
L 134.546148 97.683421 
L 134.424733 97.342745 
L 134.34379 97.342745 
L 134.222375 97.00207 
L 134.10096 97.00207 
L 133.979545 96.661394 
L 133.898602 96.661394 
L 133.777188 96.320719 
L 133.655773 96.320719 
L 133.534358 95.980043 
L 133.453415 95.980043 
L 133.332 95.639368 
L 133.210585 95.639368 
L 133.08917 95.298692 
L 133.008227 95.298692 
L 132.886813 94.958017 
L 132.765398 94.958017 
L 132.643983 94.617341 
L 132.56304 94.617341 
L 132.441625 94.276665 
L 132.32021 94.276665 
L 132.198795 93.93599 
L 132.117852 93.93599 
L 131.996438 93.595314 
L 131.875023 93.595314 
L 131.753608 93.254639 
L 131.672665 93.254639 
L 131.55125 92.913963 
L 131.429835 92.913963 
L 131.30842 92.573288 
L 130.984648 92.573288 
L 130.863233 92.232612 
L 130.78229 92.232612 
L 130.660875 91.891937 
L 130.53946 91.891937 
L 130.418045 91.551261 
L 130.337102 91.551261 
L 130.215688 91.210586 
L 130.094273 91.210586 
L 129.972858 90.86991 
L 129.649085 90.86991 
L 129.52767 90.529235 
L 129.203898 90.529235 
L 129.082483 90.188559 
L 129.042011 90.188559 
L 128.920597 89.847884 
L 128.75871 89.847884 
L 128.637295 89.507208 
L 128.596824 89.507208 
L 128.475409 89.166533 
L 128.313523 89.166533 
L 128.192108 88.825857 
L 128.151636 88.825857 
L 128.030222 88.485181 
L 127.868335 88.485181 
L 127.74692 88.144506 
L 127.423148 88.144506 
L 127.261261 87.463155 
L 126.97796 87.463155 
L 126.856545 87.122479 
L 126.654188 87.122479 
L 126.492301 86.441128 
L 126.209 86.441128 
L 126.047114 85.759777 
L 125.763813 85.759777 
L 125.601926 85.078426 
L 125.318625 85.078426 
L 125.156739 84.397075 
L 124.873438 84.397075 
L 124.711551 83.715724 
L 124.42825 83.715724 
L 124.266364 83.034373 
L 123.983063 83.034373 
L 123.821176 82.353022 
L 123.537875 82.353022 
L 123.375989 81.671671 
L 123.092688 81.671671 
L 122.971273 81.330995 
L 122.768915 81.330995 
L 122.607028 80.649644 
L 122.323727 80.649644 
L 122.161841 79.968293 
L 121.757125 79.968293 
L 121.595239 79.286942 
L 121.311938 79.286942 
L 121.150051 78.605591 
L 120.86675 78.605591 
L 120.704864 77.92424 
L 120.421563 77.92424 
L 120.259676 77.242889 
L 119.976375 77.242889 
L 119.814489 76.561538 
L 119.531188 76.561538 
L 119.369301 75.880187 
L 119.086 75.880187 
L 118.924114 75.198836 
L 118.640813 75.198836 
L 118.478926 74.517485 
L 118.195625 74.517485 
L 118.033739 73.836134 
L 117.750438 73.836134 
L 117.588551 73.154783 
L 117.30525 73.154783 
L 117.143364 72.473432 
L 116.860063 72.473432 
L 116.698176 71.79208 
L 116.414875 71.79208 
L 116.252989 71.110729 
L 115.969688 71.110729 
L 115.807801 70.429378 
L 115.443557 70.429378 
L 115.322142 70.088703 
L 115.119784 70.088703 
L 114.957898 69.407352 
L 114.674597 69.407352 
L 114.51271 68.726001 
L 114.229409 68.726001 
L 114.067523 68.04465 
L 113.784222 68.04465 
L 113.622335 67.363299 
L 113.339034 67.363299 
L 113.177148 66.681948 
L 112.893847 66.681948 
L 112.73196 66.000596 
L 112.448659 66.000596 
L 112.286773 65.319245 
L 112.003472 65.319245 
L 111.841585 64.637894 
L 111.558284 64.637894 
L 111.396398 63.956543 
L 111.113097 63.956543 
L 110.95121 63.275192 
L 110.667909 63.275192 
L 110.546494 62.934517 
L 110.344136 62.934517 
L 110.18225 62.253166 
L 109.898949 62.253166 
L 109.737063 61.571815 
L 109.453761 61.571815 
L 109.291875 60.890464 
L 109.008574 60.890464 
L 108.846688 60.209112 
L 108.563386 60.209112 
L 108.4015 59.527761 
L 108.118199 59.527761 
L 107.956313 58.84641 
L 107.673011 58.84641 
L 107.511125 58.165059 
L 107.227824 58.165059 
L 107.065938 57.483708 
L 106.782636 57.483708 
L 106.62075 56.802357 
L 106.337449 56.802357 
L 106.175563 56.121006 
L 105.892261 56.121006 
L 105.730375 55.439655 
L 105.447074 55.439655 
L 105.285188 54.758304 
L 105.001886 54.758304 
L 104.84 54.076953 
L 104.556699 54.076953 
L 104.394813 53.395602 
L 104.111511 53.395602 
L 103.949625 52.714251 
L 103.544909 52.714251 
L 103.423494 52.373575 
L 103.099722 52.373575 
L 102.978307 52.0329 
L 102.654534 52.0329 
L 102.533119 51.692224 
L 102.209347 51.692224 
L 102.087932 51.351549 
L 101.764159 51.351549 
L 101.642744 51.010873 
L 101.318972 51.010873 
L 101.197557 50.670198 
L 100.873784 50.670198 
L 100.752369 50.329522 
L 100.428597 50.329522 
L 100.307182 49.988847 
L 99.983409 49.988847 
L 99.861994 49.648171 
L 99.538222 49.648171 
L 99.416807 49.307496 
L 99.093034 49.307496 
L 98.971619 48.96682 
L 98.647847 48.96682 
L 98.526432 48.626144 
L 98.202659 48.626144 
L 98.081244 48.285469 
L 97.757472 48.285469 
L 97.636057 47.944793 
L 97.312284 47.944793 
L 97.190869 47.604118 
L 96.867097 47.604118 
L 96.745682 47.263442 
L 96.421909 47.263442 
L 96.300494 46.922767 
L 95.976722 46.922767 
L 95.855307 46.582091 
L 95.531534 46.582091 
L 95.410119 46.241416 
L 94.883989 46.241416 
L 94.762574 45.90074 
L 94.438801 45.90074 
L 94.317386 45.560065 
L 93.993614 45.560065 
L 93.872199 45.219389 
L 93.548426 45.219389 
L 93.427011 44.878714 
L 93.103239 44.878714 
L 92.981824 44.538038 
L 92.658051 44.538038 
L 92.536636 44.197363 
L 92.212864 44.197363 
L 92.091449 43.856687 
L 91.767676 43.856687 
L 91.646261 43.516011 
L 91.322489 43.516011 
L 91.201074 43.175336 
L 90.877301 43.175336 
L 90.755886 42.83466 
L 90.432114 42.83466 
L 90.310699 42.493985 
L 89.986926 42.493985 
L 89.865511 42.153309 
L 88.57042 42.153309 
L 88.449006 41.812634 
L 88.125233 41.812634 
L 88.003818 41.471958 
L 87.680045 41.471958 
L 87.558631 41.131283 
L 87.234858 41.131283 
L 87.113443 40.790607 
L 86.78967 40.790607 
L 86.668256 40.449932 
L 86.344483 40.449932 
L 86.223068 40.109256 
L 85.899295 40.109256 
L 85.777881 39.768581 
L 85.454108 39.768581 
L 85.332693 39.427905 
L 85.00892 39.427905 
L 84.887506 39.08723 
L 84.563733 39.08723 
L 84.442318 38.746554 
L 84.118545 38.746554 
L 83.997131 38.405879 
L 83.22817 38.405879 
L 83.106756 38.065203 
L 82.782983 38.065203 
L 82.661568 37.724527 
L 82.337795 37.724527 
L 82.216381 37.383852 
L 81.892608 37.383852 
L 81.771193 37.043176 
L 81.44742 37.043176 
L 81.326006 36.702501 
L 81.002233 36.702501 
L 80.880818 36.361825 
L 80.557045 36.361825 
L 80.435631 36.02115 
L 80.111858 36.02115 
L 79.990443 35.680474 
L 79.626199 35.680474 
L 79.504784 35.339799 
L 78.938182 35.339799 
L 78.816767 34.999123 
L 78.492994 34.999123 
L 78.37158 34.658448 
L 78.047807 34.658448 
L 77.926392 34.317772 
L 77.602619 34.317772 
L 77.481205 33.977097 
L 77.157432 33.977097 
L 77.036017 33.636421 
L 76.712244 33.636421 
L 76.59083 33.295746 
L 76.267057 33.295746 
L 76.145642 32.95507 
L 75.821869 32.95507 
L 75.700455 32.614395 
L 75.376682 32.614395 
L 75.255267 32.273719 
L 74.931494 32.273719 
L 74.81008 31.933043 
L 74.486307 31.933043 
L 74.364892 31.592368 
L 74.041119 31.592368 
L 73.919705 31.251692 
L 73.595932 31.251692 
L 73.474517 30.911017 
L 73.150744 30.911017 
L 73.02933 30.570341 
L 72.705557 30.570341 
L 72.584142 30.229666 
L 72.260369 30.229666 
L 72.138955 29.88899 
L 71.815182 29.88899 
L 71.693767 29.548315 
L 71.369994 29.548315 
L 71.24858 29.207639 
L 70.924807 29.207639 
L 70.803392 28.866964 
L 70.479619 28.866964 
L 70.358205 28.526288 
L 70.034432 28.526288 
L 69.913017 28.185613 
L 69.589244 28.185613 
L 69.46783 27.844937 
L 69.144057 27.844937 
L 69.022642 27.504262 
L 68.698869 27.504262 
L 68.577455 27.163586 
L 68.253682 27.163586 
L 68.132267 26.822911 
L 67.808494 26.822911 
L 67.68708 26.482235 
L 67.322835 26.482235 
L 67.20142 26.141559 
L 66.67529 26.141559 
L 66.553875 25.800884 
L 65.6635 25.800884 
L 65.542085 25.460208 
L 64.773125 25.460208 
L 64.65171 25.119533 
L 64.327938 25.119533 
L 64.206523 24.778857 
L 63.88275 24.778857 
L 63.761335 24.438182 
L 63.194733 24.438182 
L 63.194733 24.438182 
" clip-path="url(#pe4e3bff4d2)" style="fill: none; stroke-dasharray: 7.4,3.2; stroke-dashoffset: 0; stroke: #8b4513; stroke-width: 2"/>
   </g>
   <g id="patch_3">
    <path d="M 46.965625 386.44 
L 46.965625 7.2 
" style="fill: none; stroke: #000000; stroke-width: 0.8; stroke-linejoin: miter; stroke-linecap: square"/>
   </g>
   <g id="patch_4">
    <path d="M 403.115625 386.44 
L 403.115625 7.2 
" style="fill: none; stroke: #000000; stroke-width: 0.8; stroke-linejoin: miter; stroke-linecap: square"/>
   </g>
   <g id="patch_5">
    <path d="M 46.965625 386.44 
L 403.115625 386.44 
" style="fill: none; stroke: #000000; stroke-width: 0.8; stroke-linejoin: miter; stroke-linecap: square"/>
   </g>
   <g id="patch_6">
    <path d="M 46.965625 7.2 
L 403.115625 7.2 
" style="fill: none; stroke: #000000; stroke-width: 0.8; stroke-linejoin: miter; stroke-linecap: square"/>
   </g>
   <g id="legend_1">
    <g id="patch_7">
     <path d="M 410.115625 147.303125 
L 558.875 147.303125 
Q 560.875 147.303125 560.875 145.303125 
L 560.875 14.2 
Q 560.875 12.2 558.875 12.2 
L 410.115625 12.2 
Q 408.115625 12.2 408.115625 14.2 
L 408.115625 145.303125 
Q 408.115625 147.303125 410.115625 147.303125 
z
" style="fill: #ffffff; opacity: 0.8; stroke: #cccccc; stroke-linejoin: miter"/>
    </g>
    <g id="text_18">
     <!-- Motifs &amp; orientation -->
     <g transform="translate(434.979688 23.798437) scale(0.1 -0.1)">
      <defs>
       <path id="DejaVuSans-4d" d="M 628 4666 
L 1569 4666 
L 2759 1491 
L 3956 4666 
L 4897 4666 
L 4897 0 
L 4281 0 
L 4281 4097 
L 3078 897 
L 2444 897 
L 1241 4097 
L 1241 0 
L 628 0 
L 628 4666 
z
" transform="scale(0.015625)"/>
       <path id="DejaVuSans-26" d="M 1556 2509 
Q 1272 2256 1139 2004 
Q 1006 1753 1006 1478 
Q 1006 1022 1337 719 
Q 1669 416 2169 416 
Q 2466 416 2725 514 
Q 2984 613 3213 813 
L 1556 2509 
z
M 1997 2859 
L 3584 1234 
Q 3769 1513 3872 1830 
Q 3975 2147 3994 2503 
L 4575 2503 
Q 4538 2091 4375 1687 
Q 4213 1284 3922 891 
L 4794 0 
L 4006 0 
L 3559 459 
Q 3234 181 2878 45 
Q 2522 -91 2113 -91 
Q 1359 -91 881 339 
Q 403 769 403 1441 
Q 403 1841 612 2192 
Q 822 2544 1241 2853 
Q 1091 3050 1012 3245 
Q 934 3441 934 3628 
Q 934 4134 1281 4442 
Q 1628 4750 2203 4750 
Q 2463 4750 2720 4694 
Q 2978 4638 3244 4525 
L 3244 3956 
Q 2972 4103 2725 4179 
Q 2478 4256 2266 4256 
Q 1938 4256 1733 4082 
Q 1528 3909 1528 3634 
Q 1528 3475 1620 3314 
Q 1713 3153 1997 2859 
z
" transform="scale(0.015625)"/>
      </defs>
      <use xlink:href="#DejaVuSans-4d"/>
      <use xlink:href="#DejaVuSans-6f" transform="translate(86.279297 0)"/>
      <use xlink:href="#DejaVuSans-74" transform="translate(147.460938 0)"/>
      <use xlink:href="#DejaVuSans-69" transform="translate(186.669922 0)"/>
      <use xlink:href="#DejaVuSans-66" transform="translate(214.453125 0)"/>
      <use xlink:href="#DejaVuSans-73" transform="translate(249.658203 0)"/>
      <use xlink:href="#DejaVuSans-20" transform="translate(301.757812 0)"/>
      <use xlink:href="#DejaVuSans-26" transform="translate(333.544922 0)"/>
      <use xlink:href="#DejaVuSans-20" transform="translate(411.523438 0)"/>
      <use xlink:href="#DejaVuSans-6f" transform="translate(443.310547 0)"/>
      <use xlink:href="#DejaVuSans-72" transform="translate(504.492188 0)"/>
      <use xlink:href="#DejaVuSans-69" transform="translate(545.605469 0)"/>
      <use xlink:href="#DejaVuSans-65" transform="translate(573.388672 0)"/>
      <use xlink:href="#DejaVuSans-6e" transform="translate(634.912109 0)"/>
      <use xlink:href="#DejaVuSans-74" transform="translate(698.291016 0)"/>
      <use xlink:href="#DejaVuSans-61" transform="translate(737.5 0)"/>
      <use xlink:href="#DejaVuSans-74" transform="translate(798.779297 0)"/>
      <use xlink:href="#DejaVuSans-69" transform="translate(837.988281 0)"/>
      <use xlink:href="#DejaVuSans-6f" transform="translate(865.771484 0)"/>
      <use xlink:href="#DejaVuSans-6e" transform="translate(926.953125 0)"/>
     </g>
    </g>
    <g id="line2d_39">
     <path d="M 412.115625 34.976562 
L 422.115625 34.976562 
L 432.115625 34.976562 
" style="fill: none; stroke: #add8e6; stroke-width: 2; stroke-linecap: square"/>
    </g>
    <g id="text_19">
     <!-- CCTCAAACTAA (5' end) -->
     <g transform="translate(440.115625 38.476562) scale(0.1 -0.1)">
      <defs>
       <path id="DejaVuSans-43" d="M 4122 4306 
L 4122 3641 
Q 3803 3938 3442 4084 
Q 3081 4231 2675 4231 
Q 1875 4231 1450 3742 
Q 1025 3253 1025 2328 
Q 1025 1406 1450 917 
Q 1875 428 2675 428 
Q 3081 428 3442 575 
Q 3803 722 4122 1019 
L 4122 359 
Q 3791 134 3420 21 
Q 3050 -91 2638 -91 
Q 1578 -91 968 557 
Q 359 1206 359 2328 
Q 359 3453 968 4101 
Q 1578 4750 2638 4750 
Q 3056 4750 3426 4639 
Q 3797 4528 4122 4306 
z
" transform="scale(0.015625)"/>
       <path id="DejaVuSans-54" d="M -19 4666 
L 3928 4666 
L 3928 4134 
L 2272 4134 
L 2272 0 
L 1638 0 
L 1638 4134 
L -19 4134 
L -19 4666 
z
" transform="scale(0.015625)"/>
       <path id="DejaVuSans-28" d="M 1984 4856 
Q 1566 4138 1362 3434 
Q 1159 2731 1159 2009 
Q 1159 1288 1364 580 
Q 1569 -128 1984 -844 
L 1484 -844 
Q 1016 -109 783 600 
Q 550 1309 550 2009 
Q 550 2706 781 3412 
Q 1013 4119 1484 4856 
L 1984 4856 
z
" transform="scale(0.015625)"/>
       <path id="DejaVuSans-27" d="M 1147 4666 
L 1147 2931 
L 616 2931 
L 616 4666 
L 1147 4666 
z
" transform="scale(0.015625)"/>
       <path id="DejaVuSans-64" d="M 2906 2969 
L 2906 4863 
L 3481 4863 
L 3481 0 
L 2906 0 
L 2906 525 
Q 2725 213 2448 61 
Q 2172 -91 1784 -91 
Q 1150 -91 751 415 
Q 353 922 353 1747 
Q 353 2572 751 3078 
Q 1150 3584 1784 3584 
Q 2172 3584 2448 3432 
Q 2725 3281 2906 2969 
z
M 947 1747 
Q 947 1113 1208 752 
Q 1469 391 1925 391 
Q 2381 391 2643 752 
Q 2906 1113 2906 1747 
Q 2906 2381 2643 2742 
Q 2381 3103 1925 3103 
Q 1469 3103 1208 2742 
Q 947 2381 947 1747 
z
" transform="scale(0.015625)"/>
       <path id="DejaVuSans-29" d="M 513 4856 
L 1013 4856 
Q 1481 4119 1714 3412 
Q 1947 2706 1947 2009 
Q 1947 1309 1714 600 
Q 1481 -109 1013 -844 
L 513 -844 
Q 928 -128 1133 580 
Q 1338 1288 1338 2009 
Q 1338 2731 1133 3434 
Q 928 4138 513 4856 
z
" transform="scale(0.015625)"/>
      </defs>
      <use xlink:href="#DejaVuSans-43"/>
      <use xlink:href="#DejaVuSans-43" transform="translate(69.824219 0)"/>
      <use xlink:href="#DejaVuSans-54" transform="translate(139.648438 0)"/>
      <use xlink:href="#DejaVuSans-43" transform="translate(194.857422 0)"/>
      <use xlink:href="#DejaVuSans-41" transform="translate(264.681641 0)"/>
      <use xlink:href="#DejaVuSans-41" transform="translate(335.839844 0)"/>
      <use xlink:href="#DejaVuSans-41" transform="translate(406.998047 0)"/>
      <use xlink:href="#DejaVuSans-43" transform="translate(473.65625 0)"/>
      <use xlink:href="#DejaVuSans-54" transform="translate(543.480469 0)"/>
      <use xlink:href="#DejaVuSans-41" transform="translate(596.814453 0)"/>
      <use xlink:href="#DejaVuSans-41" transform="translate(667.972656 0)"/>
      <use xlink:href="#DejaVuSans-20" transform="translate(736.380859 0)"/>
      <use xlink:href="#DejaVuSans-28" transform="translate(768.167969 0)"/>
      <use xlink:href="#DejaVuSans-35" transform="translate(807.181641 0)"/>
      <use xlink:href="#DejaVuSans-27" transform="translate(870.804688 0)"/>
      <use xlink:href="#DejaVuSans-20" transform="translate(898.294922 0)"/>
      <use xlink:href="#DejaVuSans-65" transform="translate(930.082031 0)"/>
      <use xlink:href="#DejaVuSans-6e" transform="translate(991.605469 0)"/>
      <use xlink:href="#DejaVuSans-64" transform="translate(1054.984375 0)"/>
      <use xlink:href="#DejaVuSans-29" transform="translate(1118.460938 0)"/>
     </g>
    </g>
    <g id="line2d_40">
     <path d="M 412.115625 49.654687 
L 422.115625 49.654687 
L 432.115625 49.654687 
" style="fill: none; stroke: #6495ed; stroke-width: 2; stroke-linecap: square"/>
    </g>
    <g id="text_20">
     <!-- GACTAA (5' end) -->
     <g transform="translate(440.115625 53.154687) scale(0.1 -0.1)">
      <defs>
       <path id="DejaVuSans-47" d="M 3809 666 
L 3809 1919 
L 2778 1919 
L 2778 2438 
L 4434 2438 
L 4434 434 
Q 4069 175 3628 42 
Q 3188 -91 2688 -91 
Q 1594 -91 976 548 
Q 359 1188 359 2328 
Q 359 3472 976 4111 
Q 1594 4750 2688 4750 
Q 3144 4750 3555 4637 
Q 3966 4525 4313 4306 
L 4313 3634 
Q 3963 3931 3569 4081 
Q 3175 4231 2741 4231 
Q 1884 4231 1454 3753 
Q 1025 3275 1025 2328 
Q 1025 1384 1454 906 
Q 1884 428 2741 428 
Q 3075 428 3337 486 
Q 3600 544 3809 666 
z
" transform="scale(0.015625)"/>
      </defs>
      <use xlink:href="#DejaVuSans-47"/>
      <use xlink:href="#DejaVuSans-41" transform="translate(77.490234 0)"/>
      <use xlink:href="#DejaVuSans-43" transform="translate(144.148438 0)"/>
      <use xlink:href="#DejaVuSans-54" transform="translate(213.972656 0)"/>
      <use xlink:href="#DejaVuSans-41" transform="translate(267.306641 0)"/>
      <use xlink:href="#DejaVuSans-41" transform="translate(338.464844 0)"/>
      <use xlink:href="#DejaVuSans-20" transform="translate(406.873047 0)"/>
      <use xlink:href="#DejaVuSans-28" transform="translate(438.660156 0)"/>
      <use xlink:href="#DejaVuSans-35" transform="translate(477.673828 0)"/>
      <use xlink:href="#DejaVuSans-27" transform="translate(541.296875 0)"/>
      <use xlink:href="#DejaVuSans-20" transform="translate(568.787109 0)"/>
      <use xlink:href="#DejaVuSans-65" transform="translate(600.574219 0)"/>
      <use xlink:href="#DejaVuSans-6e" transform="translate(662.097656 0)"/>
      <use xlink:href="#DejaVuSans-64" transform="translate(725.476562 0)"/>
      <use xlink:href="#DejaVuSans-29" transform="translate(788.953125 0)"/>
     </g>
    </g>
    <g id="line2d_41">
     <path d="M 412.115625 64.332812 
L 422.115625 64.332812 
L 432.115625 64.332812 
" style="fill: none; stroke: #00008b; stroke-width: 2; stroke-linecap: square"/>
    </g>
    <g id="text_21">
     <!-- CCTAAA (5' end) -->
     <g transform="translate(440.115625 67.832812) scale(0.1 -0.1)">
      <use xlink:href="#DejaVuSans-43"/>
      <use xlink:href="#DejaVuSans-43" transform="translate(69.824219 0)"/>
      <use xlink:href="#DejaVuSans-54" transform="translate(139.648438 0)"/>
      <use xlink:href="#DejaVuSans-41" transform="translate(192.982422 0)"/>
      <use xlink:href="#DejaVuSans-41" transform="translate(264.140625 0)"/>
      <use xlink:href="#DejaVuSans-41" transform="translate(335.298828 0)"/>
      <use xlink:href="#DejaVuSans-20" transform="translate(403.707031 0)"/>
      <use xlink:href="#DejaVuSans-28" transform="translate(435.494141 0)"/>
      <use xlink:href="#DejaVuSans-35" transform="translate(474.507812 0)"/>
      <use xlink:href="#DejaVuSans-27" transform="translate(538.130859 0)"/>
      <use xlink:href="#DejaVuSans-20" transform="translate(565.621094 0)"/>
      <use xlink:href="#DejaVuSans-65" transform="translate(597.408203 0)"/>
      <use xlink:href="#DejaVuSans-6e" transform="translate(658.931641 0)"/>
      <use xlink:href="#DejaVuSans-64" transform="translate(722.310547 0)"/>
      <use xlink:href="#DejaVuSans-29" transform="translate(785.787109 0)"/>
     </g>
    </g>
    <g id="line2d_42">
     <path d="M 412.115625 79.010937 
L 422.115625 79.010937 
L 432.115625 79.010937 
" style="fill: none; stroke: #2f4f4f; stroke-width: 2; stroke-linecap: square"/>
    </g>
    <g id="text_22">
     <!-- CCCAACACTAA (5' end) -->
     <g transform="translate(440.115625 82.510937) scale(0.1 -0.1)">
      <use xlink:href="#DejaVuSans-43"/>
      <use xlink:href="#DejaVuSans-43" transform="translate(69.824219 0)"/>
      <use xlink:href="#DejaVuSans-43" transform="translate(139.648438 0)"/>
      <use xlink:href="#DejaVuSans-41" transform="translate(209.472656 0)"/>
      <use xlink:href="#DejaVuSans-41" transform="translate(280.630859 0)"/>
      <use xlink:href="#DejaVuSans-43" transform="translate(347.289062 0)"/>
      <use xlink:href="#DejaVuSans-41" transform="translate(417.113281 0)"/>
      <use xlink:href="#DejaVuSans-43" transform="translate(483.771484 0)"/>
      <use xlink:href="#DejaVuSans-54" transform="translate(553.595703 0)"/>
      <use xlink:href="#DejaVuSans-41" transform="translate(606.929688 0)"/>
      <use xlink:href="#DejaVuSans-41" transform="translate(678.087891 0)"/>
      <use xlink:href="#DejaVuSans-20" transform="translate(746.496094 0)"/>
      <use xlink:href="#DejaVuSans-28" transform="translate(778.283203 0)"/>
      <use xlink:href="#DejaVuSans-35" transform="translate(817.296875 0)"/>
      <use xlink:href="#DejaVuSans-27" transform="translate(880.919922 0)"/>
      <use xlink:href="#DejaVuSans-20" transform="translate(908.410156 0)"/>
      <use xlink:href="#DejaVuSans-65" transform="translate(940.197266 0)"/>
      <use xlink:href="#DejaVuSans-6e" transform="translate(1001.720703 0)"/>
      <use xlink:href="#DejaVuSans-64" transform="translate(1065.099609 0)"/>
      <use xlink:href="#DejaVuSans-29" transform="translate(1128.576172 0)"/>
     </g>
    </g>
    <g id="line2d_43">
     <path d="M 412.115625 93.689062 
L 422.115625 93.689062 
L 432.115625 93.689062 
" style="fill: none; stroke-dasharray: 7.4,3.2; stroke-dashoffset: 0; stroke: #fa8072; stroke-width: 2"/>
    </g>
    <g id="text_23">
     <!-- TTAGTTTGAGG (3' end) -->
     <g transform="translate(440.115625 97.189062) scale(0.1 -0.1)">
      <use xlink:href="#DejaVuSans-54"/>
      <use xlink:href="#DejaVuSans-54" transform="translate(59.333984 0)"/>
      <use xlink:href="#DejaVuSans-41" transform="translate(112.667969 0)"/>
      <use xlink:href="#DejaVuSans-47" transform="translate(179.326172 0)"/>
      <use xlink:href="#DejaVuSans-54" transform="translate(253.191406 0)"/>
      <use xlink:href="#DejaVuSans-54" transform="translate(312.525391 0)"/>
      <use xlink:href="#DejaVuSans-54" transform="translate(371.859375 0)"/>
      <use xlink:href="#DejaVuSans-47" transform="translate(432.943359 0)"/>
      <use xlink:href="#DejaVuSans-41" transform="translate(510.433594 0)"/>
      <use xlink:href="#DejaVuSans-47" transform="translate(577.091797 0)"/>
      <use xlink:href="#DejaVuSans-47" transform="translate(654.582031 0)"/>
      <use xlink:href="#DejaVuSans-20" transform="translate(732.072266 0)"/>
      <use xlink:href="#DejaVuSans-28" transform="translate(763.859375 0)"/>
      <use xlink:href="#DejaVuSans-33" transform="translate(802.873047 0)"/>
      <use xlink:href="#DejaVuSans-27" transform="translate(866.496094 0)"/>
      <use xlink:href="#DejaVuSans-20" transform="translate(893.986328 0)"/>
      <use xlink:href="#DejaVuSans-65" transform="translate(925.773438 0)"/>
      <use xlink:href="#DejaVuSans-6e" transform="translate(987.296875 0)"/>
      <use xlink:href="#DejaVuSans-64" transform="translate(1050.675781 0)"/>
      <use xlink:href="#DejaVuSans-29" transform="translate(1114.152344 0)"/>
     </g>
    </g>
    <g id="line2d_44">
     <path d="M 412.115625 108.367187 
L 422.115625 108.367187 
L 432.115625 108.367187 
" style="fill: none; stroke-dasharray: 7.4,3.2; stroke-dashoffset: 0; stroke: #ff4500; stroke-width: 2"/>
    </g>
    <g id="text_24">
     <!-- TTAGTC (3' end) -->
     <g transform="translate(440.115625 111.867187) scale(0.1 -0.1)">
      <use xlink:href="#DejaVuSans-54"/>
      <use xlink:href="#DejaVuSans-54" transform="translate(59.333984 0)"/>
      <use xlink:href="#DejaVuSans-41" transform="translate(112.667969 0)"/>
      <use xlink:href="#DejaVuSans-47" transform="translate(179.326172 0)"/>
      <use xlink:href="#DejaVuSans-54" transform="translate(253.191406 0)"/>
      <use xlink:href="#DejaVuSans-43" transform="translate(308.400391 0)"/>
      <use xlink:href="#DejaVuSans-20" transform="translate(378.224609 0)"/>
      <use xlink:href="#DejaVuSans-28" transform="translate(410.011719 0)"/>
      <use xlink:href="#DejaVuSans-33" transform="translate(449.025391 0)"/>
      <use xlink:href="#DejaVuSans-27" transform="translate(512.648438 0)"/>
      <use xlink:href="#DejaVuSans-20" transform="translate(540.138672 0)"/>
      <use xlink:href="#DejaVuSans-65" transform="translate(571.925781 0)"/>
      <use xlink:href="#DejaVuSans-6e" transform="translate(633.449219 0)"/>
      <use xlink:href="#DejaVuSans-64" transform="translate(696.828125 0)"/>
      <use xlink:href="#DejaVuSans-29" transform="translate(760.304688 0)"/>
     </g>
    </g>
    <g id="line2d_45">
     <path d="M 412.115625 123.045312 
L 422.115625 123.045312 
L 432.115625 123.045312 
" style="fill: none; stroke-dasharray: 7.4,3.2; stroke-dashoffset: 0; stroke: #8b0000; stroke-width: 2"/>
    </g>
    <g id="text_25">
     <!-- TTTAGG (3' end) -->
     <g transform="translate(440.115625 126.545312) scale(0.1 -0.1)">
      <use xlink:href="#DejaVuSans-54"/>
      <use xlink:href="#DejaVuSans-54" transform="translate(59.333984 0)"/>
      <use xlink:href="#DejaVuSans-54" transform="translate(118.667969 0)"/>
      <use xlink:href="#DejaVuSans-41" transform="translate(172.001953 0)"/>
      <use xlink:href="#DejaVuSans-47" transform="translate(238.660156 0)"/>
      <use xlink:href="#DejaVuSans-47" transform="translate(316.150391 0)"/>
      <use xlink:href="#DejaVuSans-20" transform="translate(393.640625 0)"/>
      <use xlink:href="#DejaVuSans-28" transform="translate(425.427734 0)"/>
      <use xlink:href="#DejaVuSans-33" transform="translate(464.441406 0)"/>
      <use xlink:href="#DejaVuSans-27" transform="translate(528.064453 0)"/>
      <use xlink:href="#DejaVuSans-20" transform="translate(555.554688 0)"/>
      <use xlink:href="#DejaVuSans-65" transform="translate(587.341797 0)"/>
      <use xlink:href="#DejaVuSans-6e" transform="translate(648.865234 0)"/>
      <use xlink:href="#DejaVuSans-64" transform="translate(712.244141 0)"/>
      <use xlink:href="#DejaVuSans-29" transform="translate(775.720703 0)"/>
     </g>
    </g>
    <g id="line2d_46">
     <path d="M 412.115625 137.723437 
L 422.115625 137.723437 
L 432.115625 137.723437 
" style="fill: none; stroke-dasharray: 7.4,3.2; stroke-dashoffset: 0; stroke: #8b4513; stroke-width: 2"/>
    </g>
    <g id="text_26">
     <!-- TTAGTGTTGGG (3' end) -->
     <g transform="translate(440.115625 141.223437) scale(0.1 -0.1)">
      <use xlink:href="#DejaVuSans-54"/>
      <use xlink:href="#DejaVuSans-54" transform="translate(59.333984 0)"/>
      <use xlink:href="#DejaVuSans-41" transform="translate(112.667969 0)"/>
      <use xlink:href="#DejaVuSans-47" transform="translate(179.326172 0)"/>
      <use xlink:href="#DejaVuSans-54" transform="translate(253.191406 0)"/>
      <use xlink:href="#DejaVuSans-47" transform="translate(314.275391 0)"/>
      <use xlink:href="#DejaVuSans-54" transform="translate(388.140625 0)"/>
      <use xlink:href="#DejaVuSans-54" transform="translate(447.474609 0)"/>
      <use xlink:href="#DejaVuSans-47" transform="translate(508.558594 0)"/>
      <use xlink:href="#DejaVuSans-47" transform="translate(586.048828 0)"/>
      <use xlink:href="#DejaVuSans-47" transform="translate(663.539062 0)"/>
      <use xlink:href="#DejaVuSans-20" transform="translate(741.029297 0)"/>
      <use xlink:href="#DejaVuSans-28" transform="translate(772.816406 0)"/>
      <use xlink:href="#DejaVuSans-33" transform="translate(811.830078 0)"/>
      <use xlink:href="#DejaVuSans-27" transform="translate(875.453125 0)"/>
      <use xlink:href="#DejaVuSans-20" transform="translate(902.943359 0)"/>
      <use xlink:href="#DejaVuSans-65" transform="translate(934.730469 0)"/>
      <use xlink:href="#DejaVuSans-6e" transform="translate(996.253906 0)"/>
      <use xlink:href="#DejaVuSans-64" transform="translate(1059.632812 0)"/>
      <use xlink:href="#DejaVuSans-29" transform="translate(1123.109375 0)"/>
     </g>
    </g>
   </g>
  </g>
 </g>
 <defs>
  <clipPath id="pe4e3bff4d2">
   <rect x="46.965625" y="7.2" width="356.15" height="379.24"/>
  </clipPath>
 </defs>
</svg>
