<?xml version="1.0" encoding="utf-8" standalone="no"?>
<!DOCTYPE svg PUBLIC "-//W3C//DTD SVG 1.1//EN"
  "http://www.w3.org/Graphics/SVG/1.1/DTD/svg11.dtd">
<svg xmlns:xlink="http://www.w3.org/1999/xlink" width="568.075pt" height="423.830377pt" viewBox="0 0 568.075 423.830377" xmlns="http://www.w3.org/2000/svg" version="1.1">
 <metadata>
  <rdf:RDF xmlns:dc="http://purl.org/dc/elements/1.1/" xmlns:cc="http://creativecommons.org/ns#" xmlns:rdf="http://www.w3.org/1999/02/22-rdf-syntax-ns#">
   <cc:Work>
    <dc:type rdf:resource="http://purl.org/dc/dcmitype/StillImage"/>
    <dc:date>2026-04-30T15:18:45.577684</dc:date>
    <dc:format>image/svg+xml</dc:format>
    <dc:creator>
     <cc:Agent>
      <dc:title>Matplotlib v3.10.6, https://matplotlib.org/</dc:title>
     </cc:Agent>
    </dc:creator>
   </cc:Work>
  </rdf:RDF>
 </metadata>
 <defs>
  <style type="text/css">*{stroke-linejoin: round; stroke-linecap: butt}</style>
 </defs>
 <g id="figure_1">
  <g id="patch_1">
   <path d="M 0 423.830377 
L 568.075 423.830377 
L 568.075 0 
L 0 0 
z
" style="fill: #ffffff"/>
  </g>
  <g id="axes_1">
   <g id="patch_2">
    <path d="M 46.965625 386.274127 
L 403.115625 386.274127 
L 403.115625 10.954442 
L 46.965625 10.954442 
z
" style="fill: #ffffff"/>
   </g>
   <g id="matplotlib.axis_1">
    <g id="xtick_1">
     <g id="line2d_1">
      <path d="M 63.154261 386.274127 
L 63.154261 10.954442 
" clip-path="url(#pfbbebb60fd)" style="fill: none; stroke-dasharray: 2.96,1.28; stroke-dashoffset: 0; stroke: #b0b0b0; stroke-opacity: 0.6; stroke-width: 0.8"/>
     </g>
     <g id="line2d_2">
      <defs>
       <path id="m62b3927e1c" d="M 0 0 
L 0 3.5 
" style="stroke: #000000; stroke-width: 0.8"/>
      </defs>
      <g>
       <use xlink:href="#m62b3927e1c" x="63.154261" y="386.274127" style="stroke: #000000; stroke-width: 0.8"/>
      </g>
     </g>
     <g id="text_1">
      <!-- 0 -->
      <g transform="translate(59.973011 400.872564) scale(0.1 -0.1)">
       <defs>
        <path id="DejaVuSans-30" d="M 2034 4250 
Q 1547 4250 1301 3770 
Q 1056 3291 1056 2328 
Q 1056 1369 1301 889 
Q 1547 409 2034 409 
Q 2525 409 2770 889 
Q 3016 1369 3016 2328 
Q 3016 3291 2770 3770 
Q 2525 4250 2034 4250 
z
M 2034 4750 
Q 2819 4750 3233 4129 
Q 3647 3509 3647 2328 
Q 3647 1150 3233 529 
Q 2819 -91 2034 -91 
Q 1250 -91 836 529 
Q 422 1150 422 2328 
Q 422 3509 836 4129 
Q 1250 4750 2034 4750 
z
" transform="scale(0.015625)"/>
       </defs>
       <use xlink:href="#DejaVuSans-30"/>
      </g>
     </g>
    </g>
    <g id="xtick_2">
     <g id="line2d_3">
      <path d="M 103.630912 386.274127 
L 103.630912 10.954442 
" clip-path="url(#pfbbebb60fd)" style="fill: none; stroke-dasharray: 2.96,1.28; stroke-dashoffset: 0; stroke: #b0b0b0; stroke-opacity: 0.6; stroke-width: 0.8"/>
     </g>
     <g id="line2d_4">
      <g>
       <use xlink:href="#m62b3927e1c" x="103.630912" y="386.274127" style="stroke: #000000; stroke-width: 0.8"/>
      </g>
     </g>
     <g id="text_2">
      <!-- 1000 -->
      <g transform="translate(90.905912 400.872564) scale(0.1 -0.1)">
       <defs>
        <path id="DejaVuSans-31" d="M 794 531 
L 1825 531 
L 1825 4091 
L 703 3866 
L 703 4441 
L 1819 4666 
L 2450 4666 
L 2450 531 
L 3481 531 
L 3481 0 
L 794 0 
L 794 531 
z
" transform="scale(0.015625)"/>
       </defs>
       <use xlink:href="#DejaVuSans-31"/>
       <use xlink:href="#DejaVuSans-30" transform="translate(63.623047 0)"/>
       <use xlink:href="#DejaVuSans-30" transform="translate(127.246094 0)"/>
       <use xlink:href="#DejaVuSans-30" transform="translate(190.869141 0)"/>
      </g>
     </g>
    </g>
    <g id="xtick_3">
     <g id="line2d_5">
      <path d="M 144.107562 386.274127 
L 144.107562 10.954442 
" clip-path="url(#pfbbebb60fd)" style="fill: none; stroke-dasharray: 2.96,1.28; stroke-dashoffset: 0; stroke: #b0b0b0; stroke-opacity: 0.6; stroke-width: 0.8"/>
     </g>
     <g id="line2d_6">
      <g>
       <use xlink:href="#m62b3927e1c" x="144.107562" y="386.274127" style="stroke: #000000; stroke-width: 0.8"/>
      </g>
     </g>
     <g id="text_3">
      <!-- 2000 -->
      <g transform="translate(131.382562 400.872564) scale(0.1 -0.1)">
       <defs>
        <path id="DejaVuSans-32" d="M 1228 531 
L 3431 531 
L 3431 0 
L 469 0 
L 469 531 
Q 828 903 1448 1529 
Q 2069 2156 2228 2338 
Q 2531 2678 2651 2914 
Q 2772 3150 2772 3378 
Q 2772 3750 2511 3984 
Q 2250 4219 1831 4219 
Q 1534 4219 1204 4116 
Q 875 4013 500 3803 
L 500 4441 
Q 881 4594 1212 4672 
Q 1544 4750 1819 4750 
Q 2544 4750 2975 4387 
Q 3406 4025 3406 3419 
Q 3406 3131 3298 2873 
Q 3191 2616 2906 2266 
Q 2828 2175 2409 1742 
Q 1991 1309 1228 531 
z
" transform="scale(0.015625)"/>
       </defs>
       <use xlink:href="#DejaVuSans-32"/>
       <use xlink:href="#DejaVuSans-30" transform="translate(63.623047 0)"/>
       <use xlink:href="#DejaVuSans-30" transform="translate(127.246094 0)"/>
       <use xlink:href="#DejaVuSans-30" transform="translate(190.869141 0)"/>
      </g>
     </g>
    </g>
    <g id="xtick_4">
     <g id="line2d_7">
      <path d="M 184.584213 386.274127 
L 184.584213 10.954442 
" clip-path="url(#pfbbebb60fd)" style="fill: none; stroke-dasharray: 2.96,1.28; stroke-dashoffset: 0; stroke: #b0b0b0; stroke-opacity: 0.6; stroke-width: 0.8"/>
     </g>
     <g id="line2d_8">
      <g>
       <use xlink:href="#m62b3927e1c" x="184.584213" y="386.274127" style="stroke: #000000; stroke-width: 0.8"/>
      </g>
     </g>
     <g id="text_4">
      <!-- 3000 -->
      <g transform="translate(171.859213 400.872564) scale(0.1 -0.1)">
       <defs>
        <path id="DejaVuSans-33" d="M 2597 2516 
Q 3050 2419 3304 2112 
Q 3559 1806 3559 1356 
Q 3559 666 3084 287 
Q 2609 -91 1734 -91 
Q 1441 -91 1130 -33 
Q 819 25 488 141 
L 488 750 
Q 750 597 1062 519 
Q 1375 441 1716 441 
Q 2309 441 2620 675 
Q 2931 909 2931 1356 
Q 2931 1769 2642 2001 
Q 2353 2234 1838 2234 
L 1294 2234 
L 1294 2753 
L 1863 2753 
Q 2328 2753 2575 2939 
Q 2822 3125 2822 3475 
Q 2822 3834 2567 4026 
Q 2313 4219 1838 4219 
Q 1578 4219 1281 4162 
Q 984 4106 628 3988 
L 628 4550 
Q 988 4650 1302 4700 
Q 1616 4750 1894 4750 
Q 2613 4750 3031 4423 
Q 3450 4097 3450 3541 
Q 3450 3153 3228 2886 
Q 3006 2619 2597 2516 
z
" transform="scale(0.015625)"/>
       </defs>
       <use xlink:href="#DejaVuSans-33"/>
       <use xlink:href="#DejaVuSans-30" transform="translate(63.623047 0)"/>
       <use xlink:href="#DejaVuSans-30" transform="translate(127.246094 0)"/>
       <use xlink:href="#DejaVuSans-30" transform="translate(190.869141 0)"/>
      </g>
     </g>
    </g>
    <g id="xtick_5">
     <g id="line2d_9">
      <path d="M 225.060863 386.274127 
L 225.060863 10.954442 
" clip-path="url(#pfbbebb60fd)" style="fill: none; stroke-dasharray: 2.96,1.28; stroke-dashoffset: 0; stroke: #b0b0b0; stroke-opacity: 0.6; stroke-width: 0.8"/>
     </g>
     <g id="line2d_10">
      <g>
       <use xlink:href="#m62b3927e1c" x="225.060863" y="386.274127" style="stroke: #000000; stroke-width: 0.8"/>
      </g>
     </g>
     <g id="text_5">
      <!-- 4000 -->
      <g transform="translate(212.335863 400.872564) scale(0.1 -0.1)">
       <defs>
        <path id="DejaVuSans-34" d="M 2419 4116 
L 825 1625 
L 2419 1625 
L 2419 4116 
z
M 2253 4666 
L 3047 4666 
L 3047 1625 
L 3713 1625 
L 3713 1100 
L 3047 1100 
L 3047 0 
L 2419 0 
L 2419 1100 
L 313 1100 
L 313 1709 
L 2253 4666 
z
" transform="scale(0.015625)"/>
       </defs>
       <use xlink:href="#DejaVuSans-34"/>
       <use xlink:href="#DejaVuSans-30" transform="translate(63.623047 0)"/>
       <use xlink:href="#DejaVuSans-30" transform="translate(127.246094 0)"/>
       <use xlink:href="#DejaVuSans-30" transform="translate(190.869141 0)"/>
      </g>
     </g>
    </g>
    <g id="xtick_6">
     <g id="line2d_11">
      <path d="M 265.537514 386.274127 
L 265.537514 10.954442 
" clip-path="url(#pfbbebb60fd)" style="fill: none; stroke-dasharray: 2.96,1.28; stroke-dashoffset: 0; stroke: #b0b0b0; stroke-opacity: 0.6; stroke-width: 0.8"/>
     </g>
     <g id="line2d_12">
      <g>
       <use xlink:href="#m62b3927e1c" x="265.537514" y="386.274127" style="stroke: #000000; stroke-width: 0.8"/>
      </g>
     </g>
     <g id="text_6">
      <!-- 5000 -->
      <g transform="translate(252.812514 400.872564) scale(0.1 -0.1)">
       <defs>
        <path id="DejaVuSans-35" d="M 691 4666 
L 3169 4666 
L 3169 4134 
L 1269 4134 
L 1269 2991 
Q 1406 3038 1543 3061 
Q 1681 3084 1819 3084 
Q 2600 3084 3056 2656 
Q 3513 2228 3513 1497 
Q 3513 744 3044 326 
Q 2575 -91 1722 -91 
Q 1428 -91 1123 -41 
Q 819 9 494 109 
L 494 744 
Q 775 591 1075 516 
Q 1375 441 1709 441 
Q 2250 441 2565 725 
Q 2881 1009 2881 1497 
Q 2881 1984 2565 2268 
Q 2250 2553 1709 2553 
Q 1456 2553 1204 2497 
Q 953 2441 691 2322 
L 691 4666 
z
" transform="scale(0.015625)"/>
       </defs>
       <use xlink:href="#DejaVuSans-35"/>
       <use xlink:href="#DejaVuSans-30" transform="translate(63.623047 0)"/>
       <use xlink:href="#DejaVuSans-30" transform="translate(127.246094 0)"/>
       <use xlink:href="#DejaVuSans-30" transform="translate(190.869141 0)"/>
      </g>
     </g>
    </g>
    <g id="xtick_7">
     <g id="line2d_13">
      <path d="M 306.014164 386.274127 
L 306.014164 10.954442 
" clip-path="url(#pfbbebb60fd)" style="fill: none; stroke-dasharray: 2.96,1.28; stroke-dashoffset: 0; stroke: #b0b0b0; stroke-opacity: 0.6; stroke-width: 0.8"/>
     </g>
     <g id="line2d_14">
      <g>
       <use xlink:href="#m62b3927e1c" x="306.014164" y="386.274127" style="stroke: #000000; stroke-width: 0.8"/>
      </g>
     </g>
     <g id="text_7">
      <!-- 6000 -->
      <g transform="translate(293.289164 400.872564) scale(0.1 -0.1)">
       <defs>
        <path id="DejaVuSans-36" d="M 2113 2584 
Q 1688 2584 1439 2293 
Q 1191 2003 1191 1497 
Q 1191 994 1439 701 
Q 1688 409 2113 409 
Q 2538 409 2786 701 
Q 3034 994 3034 1497 
Q 3034 2003 2786 2293 
Q 2538 2584 2113 2584 
z
M 3366 4563 
L 3366 3988 
Q 3128 4100 2886 4159 
Q 2644 4219 2406 4219 
Q 1781 4219 1451 3797 
Q 1122 3375 1075 2522 
Q 1259 2794 1537 2939 
Q 1816 3084 2150 3084 
Q 2853 3084 3261 2657 
Q 3669 2231 3669 1497 
Q 3669 778 3244 343 
Q 2819 -91 2113 -91 
Q 1303 -91 875 529 
Q 447 1150 447 2328 
Q 447 3434 972 4092 
Q 1497 4750 2381 4750 
Q 2619 4750 2861 4703 
Q 3103 4656 3366 4563 
z
" transform="scale(0.015625)"/>
       </defs>
       <use xlink:href="#DejaVuSans-36"/>
       <use xlink:href="#DejaVuSans-30" transform="translate(63.623047 0)"/>
       <use xlink:href="#DejaVuSans-30" transform="translate(127.246094 0)"/>
       <use xlink:href="#DejaVuSans-30" transform="translate(190.869141 0)"/>
      </g>
     </g>
    </g>
    <g id="xtick_8">
     <g id="line2d_15">
      <path d="M 346.490815 386.274127 
L 346.490815 10.954442 
" clip-path="url(#pfbbebb60fd)" style="fill: none; stroke-dasharray: 2.96,1.28; stroke-dashoffset: 0; stroke: #b0b0b0; stroke-opacity: 0.6; stroke-width: 0.8"/>
     </g>
     <g id="line2d_16">
      <g>
       <use xlink:href="#m62b3927e1c" x="346.490815" y="386.274127" style="stroke: #000000; stroke-width: 0.8"/>
      </g>
     </g>
     <g id="text_8">
      <!-- 7000 -->
      <g transform="translate(333.765815 400.872564) scale(0.1 -0.1)">
       <defs>
        <path id="DejaVuSans-37" d="M 525 4666 
L 3525 4666 
L 3525 4397 
L 1831 0 
L 1172 0 
L 2766 4134 
L 525 4134 
L 525 4666 
z
" transform="scale(0.015625)"/>
       </defs>
       <use xlink:href="#DejaVuSans-37"/>
       <use xlink:href="#DejaVuSans-30" transform="translate(63.623047 0)"/>
       <use xlink:href="#DejaVuSans-30" transform="translate(127.246094 0)"/>
       <use xlink:href="#DejaVuSans-30" transform="translate(190.869141 0)"/>
      </g>
     </g>
    </g>
    <g id="xtick_9">
     <g id="line2d_17">
      <path d="M 386.967465 386.274127 
L 386.967465 10.954442 
" clip-path="url(#pfbbebb60fd)" style="fill: none; stroke-dasharray: 2.96,1.28; stroke-dashoffset: 0; stroke: #b0b0b0; stroke-opacity: 0.6; stroke-width: 0.8"/>
     </g>
     <g id="line2d_18">
      <g>
       <use xlink:href="#m62b3927e1c" x="386.967465" y="386.274127" style="stroke: #000000; stroke-width: 0.8"/>
      </g>
     </g>
     <g id="text_9">
      <!-- 8000 -->
      <g transform="translate(374.242465 400.872564) scale(0.1 -0.1)">
       <defs>
        <path id="DejaVuSans-38" d="M 2034 2216 
Q 1584 2216 1326 1975 
Q 1069 1734 1069 1313 
Q 1069 891 1326 650 
Q 1584 409 2034 409 
Q 2484 409 2743 651 
Q 3003 894 3003 1313 
Q 3003 1734 2745 1975 
Q 2488 2216 2034 2216 
z
M 1403 2484 
Q 997 2584 770 2862 
Q 544 3141 544 3541 
Q 544 4100 942 4425 
Q 1341 4750 2034 4750 
Q 2731 4750 3128 4425 
Q 3525 4100 3525 3541 
Q 3525 3141 3298 2862 
Q 3072 2584 2669 2484 
Q 3125 2378 3379 2068 
Q 3634 1759 3634 1313 
Q 3634 634 3220 271 
Q 2806 -91 2034 -91 
Q 1263 -91 848 271 
Q 434 634 434 1313 
Q 434 1759 690 2068 
Q 947 2378 1403 2484 
z
M 1172 3481 
Q 1172 3119 1398 2916 
Q 1625 2713 2034 2713 
Q 2441 2713 2670 2916 
Q 2900 3119 2900 3481 
Q 2900 3844 2670 4047 
Q 2441 4250 2034 4250 
Q 1625 4250 1398 4047 
Q 1172 3844 1172 3481 
z
" transform="scale(0.015625)"/>
       </defs>
       <use xlink:href="#DejaVuSans-38"/>
       <use xlink:href="#DejaVuSans-30" transform="translate(63.623047 0)"/>
       <use xlink:href="#DejaVuSans-30" transform="translate(127.246094 0)"/>
       <use xlink:href="#DejaVuSans-30" transform="translate(190.869141 0)"/>
      </g>
     </g>
    </g>
    <g id="text_10">
     <!-- Distance from terminus [nt] -->
     <g transform="translate(155.541406 414.550689) scale(0.1 -0.1)">
      <defs>
       <path id="DejaVuSans-44" d="M 1259 4147 
L 1259 519 
L 2022 519 
Q 2988 519 3436 956 
Q 3884 1394 3884 2338 
Q 3884 3275 3436 3711 
Q 2988 4147 2022 4147 
L 1259 4147 
z
M 628 4666 
L 1925 4666 
Q 3281 4666 3915 4102 
Q 4550 3538 4550 2338 
Q 4550 1131 3912 565 
Q 3275 0 1925 0 
L 628 0 
L 628 4666 
z
" transform="scale(0.015625)"/>
       <path id="DejaVuSans-69" d="M 603 3500 
L 1178 3500 
L 1178 0 
L 603 0 
L 603 3500 
z
M 603 4863 
L 1178 4863 
L 1178 4134 
L 603 4134 
L 603 4863 
z
" transform="scale(0.015625)"/>
       <path id="DejaVuSans-73" d="M 2834 3397 
L 2834 2853 
Q 2591 2978 2328 3040 
Q 2066 3103 1784 3103 
Q 1356 3103 1142 2972 
Q 928 2841 928 2578 
Q 928 2378 1081 2264 
Q 1234 2150 1697 2047 
L 1894 2003 
Q 2506 1872 2764 1633 
Q 3022 1394 3022 966 
Q 3022 478 2636 193 
Q 2250 -91 1575 -91 
Q 1294 -91 989 -36 
Q 684 19 347 128 
L 347 722 
Q 666 556 975 473 
Q 1284 391 1588 391 
Q 1994 391 2212 530 
Q 2431 669 2431 922 
Q 2431 1156 2273 1281 
Q 2116 1406 1581 1522 
L 1381 1569 
Q 847 1681 609 1914 
Q 372 2147 372 2553 
Q 372 3047 722 3315 
Q 1072 3584 1716 3584 
Q 2034 3584 2315 3537 
Q 2597 3491 2834 3397 
z
" transform="scale(0.015625)"/>
       <path id="DejaVuSans-74" d="M 1172 4494 
L 1172 3500 
L 2356 3500 
L 2356 3053 
L 1172 3053 
L 1172 1153 
Q 1172 725 1289 603 
Q 1406 481 1766 481 
L 2356 481 
L 2356 0 
L 1766 0 
Q 1100 0 847 248 
Q 594 497 594 1153 
L 594 3053 
L 172 3053 
L 172 3500 
L 594 3500 
L 594 4494 
L 1172 4494 
z
" transform="scale(0.015625)"/>
       <path id="DejaVuSans-61" d="M 2194 1759 
Q 1497 1759 1228 1600 
Q 959 1441 959 1056 
Q 959 750 1161 570 
Q 1363 391 1709 391 
Q 2188 391 2477 730 
Q 2766 1069 2766 1631 
L 2766 1759 
L 2194 1759 
z
M 3341 1997 
L 3341 0 
L 2766 0 
L 2766 531 
Q 2569 213 2275 61 
Q 1981 -91 1556 -91 
Q 1019 -91 701 211 
Q 384 513 384 1019 
Q 384 1609 779 1909 
Q 1175 2209 1959 2209 
L 2766 2209 
L 2766 2266 
Q 2766 2663 2505 2880 
Q 2244 3097 1772 3097 
Q 1472 3097 1187 3025 
Q 903 2953 641 2809 
L 641 3341 
Q 956 3463 1253 3523 
Q 1550 3584 1831 3584 
Q 2591 3584 2966 3190 
Q 3341 2797 3341 1997 
z
" transform="scale(0.015625)"/>
       <path id="DejaVuSans-6e" d="M 3513 2113 
L 3513 0 
L 2938 0 
L 2938 2094 
Q 2938 2591 2744 2837 
Q 2550 3084 2163 3084 
Q 1697 3084 1428 2787 
Q 1159 2491 1159 1978 
L 1159 0 
L 581 0 
L 581 3500 
L 1159 3500 
L 1159 2956 
Q 1366 3272 1645 3428 
Q 1925 3584 2291 3584 
Q 2894 3584 3203 3211 
Q 3513 2838 3513 2113 
z
" transform="scale(0.015625)"/>
       <path id="DejaVuSans-63" d="M 3122 3366 
L 3122 2828 
Q 2878 2963 2633 3030 
Q 2388 3097 2138 3097 
Q 1578 3097 1268 2742 
Q 959 2388 959 1747 
Q 959 1106 1268 751 
Q 1578 397 2138 397 
Q 2388 397 2633 464 
Q 2878 531 3122 666 
L 3122 134 
Q 2881 22 2623 -34 
Q 2366 -91 2075 -91 
Q 1284 -91 818 406 
Q 353 903 353 1747 
Q 353 2603 823 3093 
Q 1294 3584 2113 3584 
Q 2378 3584 2631 3529 
Q 2884 3475 3122 3366 
z
" transform="scale(0.015625)"/>
       <path id="DejaVuSans-65" d="M 3597 1894 
L 3597 1613 
L 953 1613 
Q 991 1019 1311 708 
Q 1631 397 2203 397 
Q 2534 397 2845 478 
Q 3156 559 3463 722 
L 3463 178 
Q 3153 47 2828 -22 
Q 2503 -91 2169 -91 
Q 1331 -91 842 396 
Q 353 884 353 1716 
Q 353 2575 817 3079 
Q 1281 3584 2069 3584 
Q 2775 3584 3186 3129 
Q 3597 2675 3597 1894 
z
M 3022 2063 
Q 3016 2534 2758 2815 
Q 2500 3097 2075 3097 
Q 1594 3097 1305 2825 
Q 1016 2553 972 2059 
L 3022 2063 
z
" transform="scale(0.015625)"/>
       <path id="DejaVuSans-20" transform="scale(0.015625)"/>
       <path id="DejaVuSans-66" d="M 2375 4863 
L 2375 4384 
L 1825 4384 
Q 1516 4384 1395 4259 
Q 1275 4134 1275 3809 
L 1275 3500 
L 2222 3500 
L 2222 3053 
L 1275 3053 
L 1275 0 
L 697 0 
L 697 3053 
L 147 3053 
L 147 3500 
L 697 3500 
L 697 3744 
Q 697 4328 969 4595 
Q 1241 4863 1831 4863 
L 2375 4863 
z
" transform="scale(0.015625)"/>
       <path id="DejaVuSans-72" d="M 2631 2963 
Q 2534 3019 2420 3045 
Q 2306 3072 2169 3072 
Q 1681 3072 1420 2755 
Q 1159 2438 1159 1844 
L 1159 0 
L 581 0 
L 581 3500 
L 1159 3500 
L 1159 2956 
Q 1341 3275 1631 3429 
Q 1922 3584 2338 3584 
Q 2397 3584 2469 3576 
Q 2541 3569 2628 3553 
L 2631 2963 
z
" transform="scale(0.015625)"/>
       <path id="DejaVuSans-6f" d="M 1959 3097 
Q 1497 3097 1228 2736 
Q 959 2375 959 1747 
Q 959 1119 1226 758 
Q 1494 397 1959 397 
Q 2419 397 2687 759 
Q 2956 1122 2956 1747 
Q 2956 2369 2687 2733 
Q 2419 3097 1959 3097 
z
M 1959 3584 
Q 2709 3584 3137 3096 
Q 3566 2609 3566 1747 
Q 3566 888 3137 398 
Q 2709 -91 1959 -91 
Q 1206 -91 779 398 
Q 353 888 353 1747 
Q 353 2609 779 3096 
Q 1206 3584 1959 3584 
z
" transform="scale(0.015625)"/>
       <path id="DejaVuSans-6d" d="M 3328 2828 
Q 3544 3216 3844 3400 
Q 4144 3584 4550 3584 
Q 5097 3584 5394 3201 
Q 5691 2819 5691 2113 
L 5691 0 
L 5113 0 
L 5113 2094 
Q 5113 2597 4934 2840 
Q 4756 3084 4391 3084 
Q 3944 3084 3684 2787 
Q 3425 2491 3425 1978 
L 3425 0 
L 2847 0 
L 2847 2094 
Q 2847 2600 2669 2842 
Q 2491 3084 2119 3084 
Q 1678 3084 1418 2786 
Q 1159 2488 1159 1978 
L 1159 0 
L 581 0 
L 581 3500 
L 1159 3500 
L 1159 2956 
Q 1356 3278 1631 3431 
Q 1906 3584 2284 3584 
Q 2666 3584 2933 3390 
Q 3200 3197 3328 2828 
z
" transform="scale(0.015625)"/>
       <path id="DejaVuSans-75" d="M 544 1381 
L 544 3500 
L 1119 3500 
L 1119 1403 
Q 1119 906 1312 657 
Q 1506 409 1894 409 
Q 2359 409 2629 706 
Q 2900 1003 2900 1516 
L 2900 3500 
L 3475 3500 
L 3475 0 
L 2900 0 
L 2900 538 
Q 2691 219 2414 64 
Q 2138 -91 1772 -91 
Q 1169 -91 856 284 
Q 544 659 544 1381 
z
M 1991 3584 
L 1991 3584 
z
" transform="scale(0.015625)"/>
       <path id="DejaVuSans-5b" d="M 550 4863 
L 1875 4863 
L 1875 4416 
L 1125 4416 
L 1125 -397 
L 1875 -397 
L 1875 -844 
L 550 -844 
L 550 4863 
z
" transform="scale(0.015625)"/>
       <path id="DejaVuSans-5d" d="M 1947 4863 
L 1947 -844 
L 622 -844 
L 622 -397 
L 1369 -397 
L 1369 4416 
L 622 4416 
L 622 4863 
L 1947 4863 
z
" transform="scale(0.015625)"/>
      </defs>
      <use xlink:href="#DejaVuSans-44"/>
      <use xlink:href="#DejaVuSans-69" transform="translate(77.001953 0)"/>
      <use xlink:href="#DejaVuSans-73" transform="translate(104.785156 0)"/>
      <use xlink:href="#DejaVuSans-74" transform="translate(156.884766 0)"/>
      <use xlink:href="#DejaVuSans-61" transform="translate(196.09375 0)"/>
      <use xlink:href="#DejaVuSans-6e" transform="translate(257.373047 0)"/>
      <use xlink:href="#DejaVuSans-63" transform="translate(320.751953 0)"/>
      <use xlink:href="#DejaVuSans-65" transform="translate(375.732422 0)"/>
      <use xlink:href="#DejaVuSans-20" transform="translate(437.255859 0)"/>
      <use xlink:href="#DejaVuSans-66" transform="translate(469.042969 0)"/>
      <use xlink:href="#DejaVuSans-72" transform="translate(504.248047 0)"/>
      <use xlink:href="#DejaVuSans-6f" transform="translate(543.111328 0)"/>
      <use xlink:href="#DejaVuSans-6d" transform="translate(604.292969 0)"/>
      <use xlink:href="#DejaVuSans-20" transform="translate(701.705078 0)"/>
      <use xlink:href="#DejaVuSans-74" transform="translate(733.492188 0)"/>
      <use xlink:href="#DejaVuSans-65" transform="translate(772.701172 0)"/>
      <use xlink:href="#DejaVuSans-72" transform="translate(834.224609 0)"/>
      <use xlink:href="#DejaVuSans-6d" transform="translate(873.587891 0)"/>
      <use xlink:href="#DejaVuSans-69" transform="translate(971 0)"/>
      <use xlink:href="#DejaVuSans-6e" transform="translate(998.783203 0)"/>
      <use xlink:href="#DejaVuSans-75" transform="translate(1062.162109 0)"/>
      <use xlink:href="#DejaVuSans-73" transform="translate(1125.541016 0)"/>
      <use xlink:href="#DejaVuSans-20" transform="translate(1177.640625 0)"/>
      <use xlink:href="#DejaVuSans-5b" transform="translate(1209.427734 0)"/>
      <use xlink:href="#DejaVuSans-6e" transform="translate(1248.441406 0)"/>
      <use xlink:href="#DejaVuSans-74" transform="translate(1311.820312 0)"/>
      <use xlink:href="#DejaVuSans-5d" transform="translate(1351.029297 0)"/>
     </g>
    </g>
   </g>
   <g id="matplotlib.axis_2">
    <g id="ytick_1">
     <g id="line2d_19">
      <path d="M 46.965625 369.214141 
L 403.115625 369.214141 
" clip-path="url(#pfbbebb60fd)" style="fill: none; stroke-dasharray: 2.96,1.28; stroke-dashoffset: 0; stroke: #b0b0b0; stroke-opacity: 0.6; stroke-width: 0.8"/>
     </g>
     <g id="line2d_20">
      <defs>
       <path id="m58f82086c5" d="M 0 0 
L -3.5 0 
" style="stroke: #000000; stroke-width: 0.8"/>
      </defs>
      <g>
       <use xlink:href="#m58f82086c5" x="46.965625" y="369.214141" style="stroke: #000000; stroke-width: 0.8"/>
      </g>
     </g>
     <g id="text_11">
      <!-- 0 -->
      <g transform="translate(33.603125 373.01336) scale(0.1 -0.1)">
       <use xlink:href="#DejaVuSans-30"/>
      </g>
     </g>
    </g>
    <g id="ytick_2">
     <g id="line2d_21">
      <path d="M 46.965625 324.437276 
L 403.115625 324.437276 
" clip-path="url(#pfbbebb60fd)" style="fill: none; stroke-dasharray: 2.96,1.28; stroke-dashoffset: 0; stroke: #b0b0b0; stroke-opacity: 0.6; stroke-width: 0.8"/>
     </g>
     <g id="line2d_22">
      <g>
       <use xlink:href="#m58f82086c5" x="46.965625" y="324.437276" style="stroke: #000000; stroke-width: 0.8"/>
      </g>
     </g>
     <g id="text_12">
      <!-- 50 -->
      <g transform="translate(27.240625 328.236495) scale(0.1 -0.1)">
       <use xlink:href="#DejaVuSans-35"/>
       <use xlink:href="#DejaVuSans-30" transform="translate(63.623047 0)"/>
      </g>
     </g>
    </g>
    <g id="ytick_3">
     <g id="line2d_23">
      <path d="M 46.965625 279.660411 
L 403.115625 279.660411 
" clip-path="url(#pfbbebb60fd)" style="fill: none; stroke-dasharray: 2.96,1.28; stroke-dashoffset: 0; stroke: #b0b0b0; stroke-opacity: 0.6; stroke-width: 0.8"/>
     </g>
     <g id="line2d_24">
      <g>
       <use xlink:href="#m58f82086c5" x="46.965625" y="279.660411" style="stroke: #000000; stroke-width: 0.8"/>
      </g>
     </g>
     <g id="text_13">
      <!-- 100 -->
      <g transform="translate(20.878125 283.459629) scale(0.1 -0.1)">
       <use xlink:href="#DejaVuSans-31"/>
       <use xlink:href="#DejaVuSans-30" transform="translate(63.623047 0)"/>
       <use xlink:href="#DejaVuSans-30" transform="translate(127.246094 0)"/>
      </g>
     </g>
    </g>
    <g id="ytick_4">
     <g id="line2d_25">
      <path d="M 46.965625 234.883545 
L 403.115625 234.883545 
" clip-path="url(#pfbbebb60fd)" style="fill: none; stroke-dasharray: 2.96,1.28; stroke-dashoffset: 0; stroke: #b0b0b0; stroke-opacity: 0.6; stroke-width: 0.8"/>
     </g>
     <g id="line2d_26">
      <g>
       <use xlink:href="#m58f82086c5" x="46.965625" y="234.883545" style="stroke: #000000; stroke-width: 0.8"/>
      </g>
     </g>
     <g id="text_14">
      <!-- 150 -->
      <g transform="translate(20.878125 238.682764) scale(0.1 -0.1)">
       <use xlink:href="#DejaVuSans-31"/>
       <use xlink:href="#DejaVuSans-35" transform="translate(63.623047 0)"/>
       <use xlink:href="#DejaVuSans-30" transform="translate(127.246094 0)"/>
      </g>
     </g>
    </g>
    <g id="ytick_5">
     <g id="line2d_27">
      <path d="M 46.965625 190.10668 
L 403.115625 190.10668 
" clip-path="url(#pfbbebb60fd)" style="fill: none; stroke-dasharray: 2.96,1.28; stroke-dashoffset: 0; stroke: #b0b0b0; stroke-opacity: 0.6; stroke-width: 0.8"/>
     </g>
     <g id="line2d_28">
      <g>
       <use xlink:href="#m58f82086c5" x="46.965625" y="190.10668" style="stroke: #000000; stroke-width: 0.8"/>
      </g>
     </g>
     <g id="text_15">
      <!-- 200 -->
      <g transform="translate(20.878125 193.905899) scale(0.1 -0.1)">
       <use xlink:href="#DejaVuSans-32"/>
       <use xlink:href="#DejaVuSans-30" transform="translate(63.623047 0)"/>
       <use xlink:href="#DejaVuSans-30" transform="translate(127.246094 0)"/>
      </g>
     </g>
    </g>
    <g id="ytick_6">
     <g id="line2d_29">
      <path d="M 46.965625 145.329815 
L 403.115625 145.329815 
" clip-path="url(#pfbbebb60fd)" style="fill: none; stroke-dasharray: 2.96,1.28; stroke-dashoffset: 0; stroke: #b0b0b0; stroke-opacity: 0.6; stroke-width: 0.8"/>
     </g>
     <g id="line2d_30">
      <g>
       <use xlink:href="#m58f82086c5" x="46.965625" y="145.329815" style="stroke: #000000; stroke-width: 0.8"/>
      </g>
     </g>
     <g id="text_16">
      <!-- 250 -->
      <g transform="translate(20.878125 149.129033) scale(0.1 -0.1)">
       <use xlink:href="#DejaVuSans-32"/>
       <use xlink:href="#DejaVuSans-35" transform="translate(63.623047 0)"/>
       <use xlink:href="#DejaVuSans-30" transform="translate(127.246094 0)"/>
      </g>
     </g>
    </g>
    <g id="ytick_7">
     <g id="line2d_31">
      <path d="M 46.965625 100.552949 
L 403.115625 100.552949 
" clip-path="url(#pfbbebb60fd)" style="fill: none; stroke-dasharray: 2.96,1.28; stroke-dashoffset: 0; stroke: #b0b0b0; stroke-opacity: 0.6; stroke-width: 0.8"/>
     </g>
     <g id="line2d_32">
      <g>
       <use xlink:href="#m58f82086c5" x="46.965625" y="100.552949" style="stroke: #000000; stroke-width: 0.8"/>
      </g>
     </g>
     <g id="text_17">
      <!-- 300 -->
      <g transform="translate(20.878125 104.352168) scale(0.1 -0.1)">
       <use xlink:href="#DejaVuSans-33"/>
       <use xlink:href="#DejaVuSans-30" transform="translate(63.623047 0)"/>
       <use xlink:href="#DejaVuSans-30" transform="translate(127.246094 0)"/>
      </g>
     </g>
    </g>
    <g id="ytick_8">
     <g id="line2d_33">
      <path d="M 46.965625 55.776084 
L 403.115625 55.776084 
" clip-path="url(#pfbbebb60fd)" style="fill: none; stroke-dasharray: 2.96,1.28; stroke-dashoffset: 0; stroke: #b0b0b0; stroke-opacity: 0.6; stroke-width: 0.8"/>
     </g>
     <g id="line2d_34">
      <g>
       <use xlink:href="#m58f82086c5" x="46.965625" y="55.776084" style="stroke: #000000; stroke-width: 0.8"/>
      </g>
     </g>
     <g id="text_18">
      <!-- 350 -->
      <g transform="translate(20.878125 59.575303) scale(0.1 -0.1)">
       <use xlink:href="#DejaVuSans-33"/>
       <use xlink:href="#DejaVuSans-35" transform="translate(63.623047 0)"/>
       <use xlink:href="#DejaVuSans-30" transform="translate(127.246094 0)"/>
      </g>
     </g>
    </g>
    <g id="ytick_9">
     <g id="line2d_35">
      <path d="M 46.965625 10.999219 
L 403.115625 10.999219 
" clip-path="url(#pfbbebb60fd)" style="fill: none; stroke-dasharray: 2.96,1.28; stroke-dashoffset: 0; stroke: #b0b0b0; stroke-opacity: 0.6; stroke-width: 0.8"/>
     </g>
     <g id="line2d_36">
      <g>
       <use xlink:href="#m58f82086c5" x="46.965625" y="10.999219" style="stroke: #000000; stroke-width: 0.8"/>
      </g>
     </g>
     <g id="text_19">
      <!-- 400 -->
      <g transform="translate(20.878125 14.798437) scale(0.1 -0.1)">
       <use xlink:href="#DejaVuSans-34"/>
       <use xlink:href="#DejaVuSans-30" transform="translate(63.623047 0)"/>
       <use xlink:href="#DejaVuSans-30" transform="translate(127.246094 0)"/>
      </g>
     </g>
    </g>
    <g id="text_20">
     <!-- Average cumulative count -->
     <g transform="translate(14.798438 264.226784) rotate(-90) scale(0.1 -0.1)">
      <defs>
       <path id="DejaVuSans-41" d="M 2188 4044 
L 1331 1722 
L 3047 1722 
L 2188 4044 
z
M 1831 4666 
L 2547 4666 
L 4325 0 
L 3669 0 
L 3244 1197 
L 1141 1197 
L 716 0 
L 50 0 
L 1831 4666 
z
" transform="scale(0.015625)"/>
       <path id="DejaVuSans-76" d="M 191 3500 
L 800 3500 
L 1894 563 
L 2988 3500 
L 3597 3500 
L 2284 0 
L 1503 0 
L 191 3500 
z
" transform="scale(0.015625)"/>
       <path id="DejaVuSans-67" d="M 2906 1791 
Q 2906 2416 2648 2759 
Q 2391 3103 1925 3103 
Q 1463 3103 1205 2759 
Q 947 2416 947 1791 
Q 947 1169 1205 825 
Q 1463 481 1925 481 
Q 2391 481 2648 825 
Q 2906 1169 2906 1791 
z
M 3481 434 
Q 3481 -459 3084 -895 
Q 2688 -1331 1869 -1331 
Q 1566 -1331 1297 -1286 
Q 1028 -1241 775 -1147 
L 775 -588 
Q 1028 -725 1275 -790 
Q 1522 -856 1778 -856 
Q 2344 -856 2625 -561 
Q 2906 -266 2906 331 
L 2906 616 
Q 2728 306 2450 153 
Q 2172 0 1784 0 
Q 1141 0 747 490 
Q 353 981 353 1791 
Q 353 2603 747 3093 
Q 1141 3584 1784 3584 
Q 2172 3584 2450 3431 
Q 2728 3278 2906 2969 
L 2906 3500 
L 3481 3500 
L 3481 434 
z
" transform="scale(0.015625)"/>
       <path id="DejaVuSans-6c" d="M 603 4863 
L 1178 4863 
L 1178 0 
L 603 0 
L 603 4863 
z
" transform="scale(0.015625)"/>
      </defs>
      <use xlink:href="#DejaVuSans-41"/>
      <use xlink:href="#DejaVuSans-76" transform="translate(62.533203 0)"/>
      <use xlink:href="#DejaVuSans-65" transform="translate(121.712891 0)"/>
      <use xlink:href="#DejaVuSans-72" transform="translate(183.236328 0)"/>
      <use xlink:href="#DejaVuSans-61" transform="translate(224.349609 0)"/>
      <use xlink:href="#DejaVuSans-67" transform="translate(285.628906 0)"/>
      <use xlink:href="#DejaVuSans-65" transform="translate(349.105469 0)"/>
      <use xlink:href="#DejaVuSans-20" transform="translate(410.628906 0)"/>
      <use xlink:href="#DejaVuSans-63" transform="translate(442.416016 0)"/>
      <use xlink:href="#DejaVuSans-75" transform="translate(497.396484 0)"/>
      <use xlink:href="#DejaVuSans-6d" transform="translate(560.775391 0)"/>
      <use xlink:href="#DejaVuSans-75" transform="translate(658.1875 0)"/>
      <use xlink:href="#DejaVuSans-6c" transform="translate(721.566406 0)"/>
      <use xlink:href="#DejaVuSans-61" transform="translate(749.349609 0)"/>
      <use xlink:href="#DejaVuSans-74" transform="translate(810.628906 0)"/>
      <use xlink:href="#DejaVuSans-69" transform="translate(849.837891 0)"/>
      <use xlink:href="#DejaVuSans-76" transform="translate(877.621094 0)"/>
      <use xlink:href="#DejaVuSans-65" transform="translate(936.800781 0)"/>
      <use xlink:href="#DejaVuSans-20" transform="translate(998.324219 0)"/>
      <use xlink:href="#DejaVuSans-63" transform="translate(1030.111328 0)"/>
      <use xlink:href="#DejaVuSans-6f" transform="translate(1085.091797 0)"/>
      <use xlink:href="#DejaVuSans-75" transform="translate(1146.273438 0)"/>
      <use xlink:href="#DejaVuSans-6e" transform="translate(1209.652344 0)"/>
      <use xlink:href="#DejaVuSans-74" transform="translate(1273.03125 0)"/>
     </g>
    </g>
   </g>
   <g id="line2d_37">
    <path d="M 63.154261 369.214141 
L 386.926989 369.214141 
L 386.926989 369.214141 
" clip-path="url(#pfbbebb60fd)" style="fill: none; stroke: #add8e6; stroke-width: 2; stroke-linecap: square"/>
   </g>
   <g id="line2d_38">
    <path d="M 63.154261 369.214141 
L 386.926989 369.214141 
L 386.926989 369.214141 
" clip-path="url(#pfbbebb60fd)" style="fill: none; stroke: #6495ed; stroke-width: 2; stroke-linecap: square"/>
   </g>
   <g id="line2d_39">
    <path d="M 63.154261 369.214141 
L 243.882506 369.214141 
L 244.003936 368.990257 
L 352.157546 368.990257 
L 352.278976 368.766373 
L 360.414783 368.766373 
L 360.536213 368.542488 
L 378.548322 368.542488 
L 378.669752 368.318604 
L 386.926989 368.318604 
L 386.926989 368.318604 
" clip-path="url(#pfbbebb60fd)" style="fill: none; stroke: #00008b; stroke-width: 2; stroke-linecap: square"/>
   </g>
   <g id="line2d_40">
    <path d="M 63.154261 369.214141 
L 63.397121 369.214141 
L 63.599505 368.542488 
L 63.882841 368.542488 
L 64.044748 367.870835 
L 64.166178 367.646951 
L 64.368561 367.646951 
L 64.570944 366.975298 
L 64.813804 366.975298 
L 64.975711 366.527529 
L 65.137617 366.527529 
L 65.259047 366.303645 
L 65.34 366.303645 
L 65.46143 366.079761 
L 65.58286 366.079761 
L 65.744767 365.631992 
L 66.06858 365.631992 
L 66.31144 364.736455 
L 66.513823 364.736455 
L 66.756683 363.840917 
L 66.959067 363.840917 
L 67.16145 363.169264 
L 67.52574 363.169264 
L 67.64717 362.94538 
L 67.809076 362.94538 
L 67.930506 362.721496 
L 68.254319 362.721496 
L 68.375749 362.497611 
L 68.537656 362.497611 
L 68.659086 362.273727 
L 68.699562 362.273727 
L 68.861469 361.825958 
L 69.144806 361.825958 
L 69.306712 361.37819 
L 69.509095 361.37819 
L 69.671002 360.930421 
L 69.711479 360.930421 
L 69.832909 360.706537 
L 69.954339 360.706537 
L 70.116245 360.258768 
L 70.156722 360.258768 
L 70.278152 360.034884 
L 70.399582 360.034884 
L 70.642442 359.139347 
L 70.925778 359.139347 
L 71.047208 358.915462 
L 71.249591 358.915462 
L 71.451975 358.243809 
L 71.694835 358.243809 
L 71.897218 357.572156 
L 72.140078 357.572156 
L 72.342461 356.900503 
L 72.585321 356.900503 
L 72.787704 356.22885 
L 72.909134 356.22885 
L 73.071041 355.781082 
L 73.192471 355.781082 
L 73.313901 355.557197 
L 73.475807 355.557197 
L 73.597237 355.333313 
L 73.92105 355.333313 
L 74.04248 355.109429 
L 74.082957 355.109429 
L 74.204387 354.885544 
L 74.5282 354.885544 
L 74.690107 354.437776 
L 74.811537 354.437776 
L 74.932967 353.990007 
L 74.973443 353.990007 
L 75.13535 353.542238 
L 75.25678 353.542238 
L 75.37821 353.09447 
L 75.418686 353.09447 
L 75.540116 352.870585 
L 75.702023 352.870585 
L 75.823453 352.422817 
L 76.147266 352.422817 
L 76.309173 351.751164 
L 76.349649 351.751164 
L 76.471079 351.527279 
L 76.592509 351.527279 
L 76.713939 351.079511 
L 76.794893 351.079511 
L 76.916323 350.855626 
L 77.078229 350.855626 
L 77.199659 350.631742 
L 77.523472 350.631742 
L 77.685379 350.183973 
L 77.847285 350.183973 
L 78.049669 349.512321 
L 78.130622 349.512321 
L 78.252052 349.288436 
L 78.292529 349.288436 
L 78.454435 348.840668 
L 78.859202 348.840668 
L 78.980632 348.392899 
L 79.304445 348.392899 
L 79.425875 347.94513 
L 79.506828 347.94513 
L 79.628258 347.721246 
L 79.749688 347.721246 
L 79.911595 347.273477 
L 79.952071 347.273477 
L 80.073501 347.049593 
L 80.113978 347.049593 
L 80.316361 346.37794 
L 80.559221 346.37794 
L 80.761604 345.706287 
L 81.004464 345.706287 
L 81.206847 345.034634 
L 81.449707 345.034634 
L 81.571137 344.81075 
L 81.611614 344.81075 
L 81.733044 344.586865 
L 81.894951 344.586865 
L 82.056857 344.139097 
L 82.178287 344.139097 
L 82.299717 343.915212 
L 82.340194 343.915212 
L 82.5021 343.467444 
L 82.785437 343.467444 
L 82.98782 342.795791 
L 83.23068 342.795791 
L 83.392587 342.348022 
L 83.675923 342.348022 
L 83.878306 341.676369 
L 84.121166 341.676369 
L 84.283073 341.2286 
L 84.404503 341.2286 
L 84.525933 341.004716 
L 84.566409 341.004716 
L 84.687839 340.780832 
L 84.849746 340.780832 
L 84.971176 340.556947 
L 85.011653 340.556947 
L 85.173559 339.885294 
L 85.294989 339.885294 
L 85.416419 339.66141 
L 85.456896 339.66141 
L 85.618802 339.213641 
L 85.902139 339.213641 
L 86.064046 338.765873 
L 86.266429 338.765873 
L 86.468812 338.09422 
L 86.711672 338.09422 
L 86.873579 337.646451 
L 87.156915 337.646451 
L 87.318822 337.198683 
L 87.399775 337.198683 
L 87.521205 336.974798 
L 87.602158 336.974798 
L 87.764065 336.52703 
L 87.966448 336.52703 
L 88.087878 336.303145 
L 88.128355 336.303145 
L 88.249785 336.079261 
L 88.411691 336.079261 
L 88.614075 335.407608 
L 88.856934 335.407608 
L 89.059318 334.735955 
L 89.221224 334.735955 
L 89.423608 334.064302 
L 89.464084 334.064302 
L 89.585514 333.840418 
L 89.747421 333.840418 
L 89.868851 333.616533 
L 89.909327 333.616533 
L 90.030757 333.392649 
L 90.192664 333.392649 
L 90.314094 332.94488 
L 90.35457 332.94488 
L 90.516477 332.497112 
L 90.637907 332.497112 
L 90.759337 332.049343 
L 90.799814 332.049343 
L 90.921244 331.825459 
L 91.08315 331.825459 
L 91.20458 331.601574 
L 91.245057 331.601574 
L 91.366487 331.37769 
L 91.528393 331.37769 
L 91.649823 331.153806 
L 91.6903 331.153806 
L 91.81173 330.929921 
L 91.973637 330.929921 
L 92.17602 330.258268 
L 92.256973 330.258268 
L 92.378403 330.034384 
L 92.54031 330.034384 
L 92.742693 329.362731 
L 92.823646 329.362731 
L 92.945076 329.138847 
L 92.985553 329.138847 
L 93.187936 328.467194 
L 93.471273 328.467194 
L 93.633179 327.795541 
L 93.754609 327.795541 
L 93.876039 327.571657 
L 93.916516 327.571657 
L 94.078422 326.900004 
L 94.199852 326.900004 
L 94.321282 326.676119 
L 94.361759 326.676119 
L 94.523665 326.228351 
L 94.645095 326.228351 
L 94.807002 325.780582 
L 94.928432 325.780582 
L 95.049862 325.556698 
L 95.090339 325.556698 
L 95.252245 325.108929 
L 95.373675 325.108929 
L 95.495105 324.885045 
L 95.535582 324.885045 
L 95.697488 324.437276 
L 95.818918 324.437276 
L 95.940348 324.213392 
L 95.980825 324.213392 
L 96.142732 323.765623 
L 96.264161 323.765623 
L 96.385591 323.541739 
L 96.426068 323.541739 
L 96.587975 323.09397 
L 96.709405 323.09397 
L 96.830835 322.870086 
L 96.871311 322.870086 
L 97.033218 322.198433 
L 97.154648 322.198433 
L 97.276078 321.974548 
L 97.316554 321.974548 
L 97.478461 321.302895 
L 97.599891 321.302895 
L 97.721321 321.079011 
L 97.761798 321.079011 
L 97.923704 320.631242 
L 98.045134 320.631242 
L 98.166564 320.407358 
L 98.207041 320.407358 
L 98.368947 319.959589 
L 98.490377 319.959589 
L 98.611807 319.735705 
L 98.652284 319.735705 
L 98.81419 319.064052 
L 98.93562 319.064052 
L 99.05705 318.840168 
L 99.097527 318.840168 
L 99.259434 318.168515 
L 99.380864 318.168515 
L 99.502294 317.94463 
L 99.54277 317.94463 
L 99.704677 317.272977 
L 99.826107 317.272977 
L 99.947537 317.049093 
L 99.988013 317.049093 
L 100.109443 316.825209 
L 100.27135 316.825209 
L 100.39278 316.601324 
L 100.433256 316.601324 
L 100.595163 316.153556 
L 100.716593 316.153556 
L 100.838023 315.929672 
L 100.8785 315.929672 
L 101.080883 315.258019 
L 101.161836 315.258019 
L 101.283266 315.034134 
L 101.323743 315.034134 
L 101.485649 314.586366 
L 101.607079 314.586366 
L 101.728509 314.362481 
L 101.768986 314.362481 
L 101.930893 313.914713 
L 102.052322 313.914713 
L 102.173752 313.690828 
L 102.214229 313.690828 
L 102.376136 313.24306 
L 102.659472 313.24306 
L 102.780902 312.795291 
L 102.902332 312.795291 
L 103.064239 312.347522 
L 103.104715 312.347522 
L 103.226145 311.899754 
L 103.347575 311.899754 
L 103.509482 311.451985 
L 103.549959 311.451985 
L 103.671389 311.004216 
L 103.792818 311.004216 
L 103.914248 310.780332 
L 103.995202 310.780332 
L 104.157108 310.108679 
L 104.238062 310.108679 
L 104.359492 309.884795 
L 104.440445 309.884795 
L 104.561875 309.66091 
L 104.683305 309.66091 
L 104.804735 309.437026 
L 104.885688 309.437026 
L 105.007118 309.213142 
L 105.128548 309.213142 
L 105.249978 308.989257 
L 105.330931 308.989257 
L 105.452361 308.541489 
L 105.573791 308.541489 
L 105.695221 308.317604 
L 105.776174 308.317604 
L 105.897604 307.869836 
L 106.019034 307.869836 
L 106.140464 307.645951 
L 106.221417 307.645951 
L 106.383324 306.974298 
L 106.504754 306.974298 
L 106.626184 306.750414 
L 106.666661 306.750414 
L 106.828567 306.302645 
L 106.949997 306.302645 
L 107.071427 306.078761 
L 107.111904 306.078761 
L 107.314287 305.407108 
L 107.39524 305.407108 
L 107.51667 305.183224 
L 107.557147 305.183224 
L 107.75953 304.511571 
L 107.840484 304.511571 
L 107.961913 304.287687 
L 108.00239 304.287687 
L 108.204773 303.616034 
L 108.285727 303.616034 
L 108.407157 303.392149 
L 108.48811 303.392149 
L 108.650017 302.944381 
L 108.690493 302.944381 
L 108.8524 302.496612 
L 108.933353 302.496612 
L 109.09526 302.048843 
L 109.135736 302.048843 
L 109.297643 301.601075 
L 109.378596 301.601075 
L 109.540503 301.153306 
L 109.580979 301.153306 
L 109.742886 300.705537 
L 109.823839 300.705537 
L 109.985746 300.257769 
L 110.026223 300.257769 
L 110.188129 299.81 
L 110.309559 299.81 
L 110.430989 299.586116 
L 110.511942 299.586116 
L 110.633372 299.362231 
L 110.754802 299.362231 
L 110.916709 298.914463 
L 110.957186 298.914463 
L 111.078616 298.690578 
L 111.200045 298.690578 
L 111.361952 298.24281 
L 111.402429 298.24281 
L 111.523859 298.018925 
L 111.645289 298.018925 
L 111.807195 297.571157 
L 111.847672 297.571157 
L 111.969102 297.347272 
L 112.090532 297.347272 
L 112.211962 297.123388 
L 112.292915 297.123388 
L 112.414345 296.899504 
L 112.454822 296.899504 
L 112.616728 296.451735 
L 112.738158 296.451735 
L 112.940541 295.780082 
L 112.981018 295.780082 
L 113.102448 295.556198 
L 113.183401 295.556198 
L 113.385785 294.884545 
L 113.426261 294.884545 
L 113.547691 294.66066 
L 113.628645 294.66066 
L 113.750074 294.436776 
L 113.790551 294.436776 
L 113.952458 293.989008 
L 114.073888 293.989008 
L 114.195318 293.765123 
L 114.316748 293.765123 
L 114.438178 293.541239 
L 114.519131 293.541239 
L 114.681037 293.09347 
L 114.761991 293.09347 
L 114.883421 292.869586 
L 114.923897 292.869586 
L 115.126281 292.197933 
L 115.207234 292.197933 
L 115.328664 291.974049 
L 115.36914 291.974049 
L 115.571524 291.302396 
L 115.652477 291.302396 
L 115.773907 291.078511 
L 115.814384 291.078511 
L 115.97629 290.630743 
L 116.09772 290.630743 
L 116.21915 290.406858 
L 116.259627 290.406858 
L 116.46201 289.735205 
L 116.542963 289.735205 
L 116.664393 289.511321 
L 116.70487 289.511321 
L 116.866777 289.063552 
L 116.988207 289.063552 
L 117.109636 288.839668 
L 117.150113 288.839668 
L 117.31202 288.391899 
L 117.392973 288.391899 
L 117.55488 287.944131 
L 117.595356 287.944131 
L 117.757263 287.496362 
L 117.838216 287.496362 
L 118.000123 287.048593 
L 118.040599 287.048593 
L 118.202506 286.600825 
L 118.283459 286.600825 
L 118.445366 286.153056 
L 118.485843 286.153056 
L 118.647749 285.705287 
L 118.728702 285.705287 
L 118.890609 285.257519 
L 118.931086 285.257519 
L 119.092992 284.80975 
L 119.173946 284.80975 
L 119.335852 284.361981 
L 119.376329 284.361981 
L 119.538235 283.914213 
L 119.619189 283.914213 
L 119.740619 283.690328 
L 119.821572 283.690328 
L 120.023955 283.018676 
L 120.064432 283.018676 
L 120.185862 282.794791 
L 120.266815 282.794791 
L 120.428722 282.347023 
L 120.509675 282.347023 
L 120.631105 282.123138 
L 120.712058 282.123138 
L 120.873965 281.451485 
L 121.157302 281.451485 
L 121.278731 281.003717 
L 121.400161 281.003717 
L 121.521591 280.779832 
L 121.602545 280.779832 
L 121.723975 280.332064 
L 121.764451 280.332064 
L 121.926358 279.884295 
L 122.047788 279.884295 
L 122.169218 279.436526 
L 122.209694 279.436526 
L 122.371601 278.988758 
L 122.493031 278.988758 
L 122.614461 278.540989 
L 122.654938 278.540989 
L 122.816844 278.09322 
L 122.938274 278.09322 
L 123.059704 277.645452 
L 123.181134 277.645452 
L 123.302564 277.421567 
L 123.383517 277.421567 
L 123.504947 276.973799 
L 123.545424 276.973799 
L 123.666854 276.749914 
L 123.82876 276.749914 
L 123.95019 276.52603 
L 123.990667 276.52603 
L 124.152574 275.854377 
L 124.274004 275.854377 
L 124.395434 275.630493 
L 124.43591 275.630493 
L 124.597817 274.95884 
L 124.881153 274.95884 
L 125.002583 274.511071 
L 125.16449 274.511071 
L 125.28592 274.287187 
L 125.326397 274.287187 
L 125.447826 274.063302 
L 125.569256 274.063302 
L 125.731163 273.615534 
L 125.77164 273.615534 
L 125.89307 273.391649 
L 126.0145 273.391649 
L 126.13593 273.167765 
L 126.216883 273.167765 
L 126.338313 272.719996 
L 126.459743 272.719996 
L 126.581173 272.496112 
L 126.662126 272.496112 
L 126.783556 272.048344 
L 126.904986 272.048344 
L 127.026416 271.824459 
L 127.107369 271.824459 
L 127.228799 271.376691 
L 127.309752 271.376691 
L 127.471659 270.928922 
L 127.552612 270.928922 
L 127.674042 270.481153 
L 127.754996 270.481153 
L 127.916902 270.033385 
L 127.997855 270.033385 
L 128.119285 269.585616 
L 128.200239 269.585616 
L 128.362145 269.137847 
L 128.443099 269.137847 
L 128.564529 268.690079 
L 128.645482 268.690079 
L 128.807388 268.24231 
L 128.888342 268.24231 
L 129.009772 267.794541 
L 129.090725 267.794541 
L 129.212155 267.570657 
L 129.333585 267.570657 
L 129.455015 267.122888 
L 129.535968 267.122888 
L 129.657398 266.67512 
L 129.778828 266.67512 
L 129.900258 266.227351 
L 129.981211 266.227351 
L 130.102641 265.779582 
L 130.426454 265.779582 
L 130.547884 265.107929 
L 130.871698 265.107929 
L 130.993128 264.436276 
L 131.316941 264.436276 
L 131.438371 263.764623 
L 131.519324 263.764623 
L 131.640754 263.540739 
L 131.762184 263.540739 
L 131.883614 262.869086 
L 131.964567 262.869086 
L 132.085997 262.645202 
L 132.207427 262.645202 
L 132.328857 261.973549 
L 132.65267 261.973549 
L 132.7741 261.301896 
L 132.89553 261.301896 
L 133.01696 261.078012 
L 133.097913 261.078012 
L 133.219343 260.406359 
L 133.340773 260.406359 
L 133.462203 260.182474 
L 133.543157 260.182474 
L 133.664587 259.510821 
L 133.786016 259.510821 
L 133.907446 259.286937 
L 133.9884 259.286937 
L 134.10983 258.615284 
L 134.23126 258.615284 
L 134.35269 258.3914 
L 134.433643 258.3914 
L 134.555073 257.719747 
L 134.878886 257.719747 
L 135.000316 257.048094 
L 135.081269 257.048094 
L 135.202699 256.824209 
L 135.324129 256.824209 
L 135.445559 256.152556 
L 135.566989 256.152556 
L 135.688419 255.928672 
L 135.769372 255.928672 
L 135.890802 255.257019 
L 136.012232 255.257019 
L 136.133662 255.033135 
L 136.214615 255.033135 
L 136.336045 254.585366 
L 136.457475 254.585366 
L 136.578905 254.361482 
L 136.659859 254.361482 
L 136.821765 253.913713 
L 136.902719 253.913713 
L 137.024149 253.689829 
L 137.105102 253.689829 
L 137.267008 253.24206 
L 137.347962 253.24206 
L 137.509868 252.794291 
L 137.590822 252.794291 
L 137.712252 252.570407 
L 137.914635 252.570407 
L 138.076541 252.122638 
L 138.238448 252.122638 
L 138.440831 251.450985 
L 138.481308 251.450985 
L 138.602738 251.227101 
L 138.764644 251.227101 
L 138.967028 250.555448 
L 139.088458 250.555448 
L 139.290841 249.883795 
L 139.533701 249.883795 
L 139.736084 249.212142 
L 139.978944 249.212142 
L 140.221804 248.316605 
L 140.424187 248.316605 
L 140.667047 247.421068 
L 140.86943 247.421068 
L 141.071814 246.749415 
L 141.314673 246.749415 
L 141.557533 245.853877 
L 141.800393 245.853877 
L 142.002777 245.182224 
L 142.164683 245.182224 
L 142.407543 244.286687 
L 142.609926 244.286687 
L 142.852786 243.39115 
L 143.136123 243.39115 
L 143.257553 243.167265 
L 143.338506 243.167265 
L 143.500413 242.719497 
L 143.581366 242.719497 
L 143.702796 242.495612 
L 143.783749 242.495612 
L 143.986132 241.823959 
L 144.026609 241.823959 
L 144.148039 241.600075 
L 144.269469 241.600075 
L 144.431376 241.152306 
L 144.471852 241.152306 
L 144.593282 240.928422 
L 144.633759 240.928422 
L 144.795665 240.480653 
L 145.159955 240.480653 
L 145.321862 240.032885 
L 145.362339 240.032885 
L 145.524245 239.585116 
L 145.605198 239.585116 
L 145.767105 239.137348 
L 145.807582 239.137348 
L 145.929012 238.913463 
L 146.050442 238.913463 
L 146.212348 238.465695 
L 146.252825 238.465695 
L 146.414731 238.017926 
L 146.495685 238.017926 
L 146.657591 237.570157 
L 146.940928 237.570157 
L 147.102834 237.122389 
L 147.143311 237.122389 
L 147.264741 236.67462 
L 147.386171 236.67462 
L 147.548078 236.226851 
L 147.588554 236.226851 
L 147.709984 235.779083 
L 147.831414 235.779083 
L 147.993321 235.331314 
L 148.033797 235.331314 
L 148.155227 234.883545 
L 148.276657 234.883545 
L 148.438564 234.435777 
L 148.479041 234.435777 
L 148.600471 233.988008 
L 148.721901 233.988008 
L 148.883807 233.540239 
L 148.924284 233.540239 
L 149.045714 233.092471 
L 149.167144 233.092471 
L 149.32905 232.644702 
L 149.369527 232.644702 
L 149.490957 232.420818 
L 149.612387 232.420818 
L 149.774293 231.973049 
L 149.81477 231.973049 
L 149.9362 231.749165 
L 150.05763 231.749165 
L 150.260013 231.077512 
L 150.54335 231.077512 
L 150.745733 230.405859 
L 150.988593 230.405859 
L 151.190976 229.734206 
L 151.433836 229.734206 
L 151.676696 228.838668 
L 151.879079 228.838668 
L 152.081462 228.167016 
L 152.324322 228.167016 
L 152.567182 227.271478 
L 152.769566 227.271478 
L 153.012425 226.375941 
L 153.214809 226.375941 
L 153.457669 225.480404 
L 153.660052 225.480404 
L 153.821958 225.032635 
L 154.105295 225.032635 
L 154.348155 224.137098 
L 154.631491 224.137098 
L 154.833875 223.465445 
L 155.076735 223.465445 
L 155.319595 222.569907 
L 155.521978 222.569907 
L 155.724361 221.898254 
L 155.967221 221.898254 
L 156.210081 221.002717 
L 156.452941 221.002717 
L 156.614847 220.331064 
L 156.898184 220.331064 
L 157.060091 219.883295 
L 157.100567 219.883295 
L 157.221997 219.659411 
L 157.343427 219.659411 
L 157.505334 218.987758 
L 157.54581 218.987758 
L 157.66724 218.763874 
L 157.78867 218.763874 
L 157.9101 218.316105 
L 157.991053 218.316105 
L 158.112483 218.092221 
L 158.233913 218.092221 
L 158.39582 217.420568 
L 158.436297 217.420568 
L 158.557727 217.196684 
L 158.679157 217.196684 
L 158.841063 216.748915 
L 158.88154 216.748915 
L 159.00297 216.525031 
L 159.1244 216.525031 
L 159.286306 216.077262 
L 159.326783 216.077262 
L 159.448213 215.629493 
L 159.569643 215.629493 
L 159.731549 215.181725 
L 159.772026 215.181725 
L 159.893456 214.733956 
L 160.014886 214.733956 
L 160.136316 214.510072 
L 160.217269 214.510072 
L 160.338699 214.286187 
L 160.460129 214.286187 
L 160.622036 213.838419 
L 160.662512 213.838419 
L 160.824419 213.39065 
L 160.945849 213.39065 
L 161.067279 213.166766 
L 161.107756 213.166766 
L 161.229186 212.942881 
L 161.310139 212.942881 
L 161.472045 212.495113 
L 161.552999 212.495113 
L 161.714905 212.047344 
L 161.755382 212.047344 
L 161.917289 211.599575 
L 161.998242 211.599575 
L 162.160148 211.151807 
L 162.200625 211.151807 
L 162.362532 210.704038 
L 162.443485 210.704038 
L 162.605392 210.256269 
L 162.645868 210.256269 
L 162.807775 209.808501 
L 162.888728 209.808501 
L 163.050635 209.360732 
L 163.091111 209.360732 
L 163.212541 209.136848 
L 163.333971 209.136848 
L 163.455401 208.912963 
L 163.536355 208.912963 
L 163.657785 208.689079 
L 163.779214 208.689079 
L 163.941121 208.24131 
L 163.981598 208.24131 
L 164.103028 208.017426 
L 164.224458 208.017426 
L 164.386364 207.569657 
L 164.669701 207.569657 
L 164.831607 207.121889 
L 164.993514 207.121889 
L 165.236374 206.226352 
L 165.438757 206.226352 
L 165.64114 205.554699 
L 165.884 205.554699 
L 166.086384 204.883046 
L 166.207814 204.883046 
L 166.36972 204.435277 
L 166.450673 204.435277 
L 166.61258 203.987508 
L 166.653057 203.987508 
L 166.814963 203.53974 
L 166.895917 203.53974 
L 167.057823 203.091971 
L 167.34116 203.091971 
L 167.543543 202.420318 
L 167.82688 202.420318 
L 167.988786 201.972549 
L 168.150693 201.972549 
L 168.312599 201.524781 
L 168.393553 201.524781 
L 168.555459 201.077012 
L 168.595936 201.077012 
L 168.757842 200.629243 
L 168.960226 200.629243 
L 169.081656 200.405359 
L 169.162609 200.405359 
L 169.324516 199.95759 
L 169.405469 199.95759 
L 169.526899 199.733706 
L 169.607852 199.733706 
L 169.769759 199.285937 
L 169.850712 199.285937 
L 169.972142 198.838169 
L 170.053095 198.838169 
L 170.215002 198.3904 
L 170.295955 198.3904 
L 170.417385 197.942631 
L 170.498338 197.942631 
L 170.660245 197.494863 
L 170.741198 197.494863 
L 170.862628 197.270978 
L 170.943582 197.270978 
L 171.105488 196.82321 
L 171.186442 196.82321 
L 171.307871 196.375441 
L 171.388825 196.375441 
L 171.550731 195.927672 
L 171.631685 195.927672 
L 171.753115 195.479904 
L 171.834068 195.479904 
L 171.995975 195.032135 
L 172.076928 195.032135 
L 172.198358 194.584367 
L 172.522171 194.584367 
L 172.643601 194.360482 
L 172.926937 194.360482 
L 173.088844 193.912714 
L 173.169797 193.912714 
L 173.291227 193.688829 
L 173.372181 193.688829 
L 173.534087 193.241061 
L 173.615041 193.241061 
L 173.736471 193.017176 
L 173.817424 193.017176 
L 173.97933 192.569408 
L 174.060284 192.569408 
L 174.181714 192.345523 
L 174.262667 192.345523 
L 174.424574 191.897755 
L 174.505527 191.897755 
L 174.626957 191.67387 
L 174.82934 191.67387 
L 174.991247 191.226102 
L 175.112677 191.226102 
L 175.234107 191.002217 
L 175.274583 191.002217 
L 175.43649 190.554449 
L 175.719826 190.554449 
L 175.881733 190.10668 
L 176.16507 190.10668 
L 176.326976 189.658911 
L 176.610313 189.658911 
L 176.731743 189.435027 
L 177.015079 189.435027 
L 177.217462 188.763374 
L 177.460322 188.763374 
L 177.662706 188.091721 
L 177.905566 188.091721 
L 178.107949 187.420068 
L 178.391285 187.420068 
L 178.553192 186.972299 
L 178.755575 186.972299 
L 178.957958 186.300646 
L 179.200818 186.300646 
L 179.403202 185.628993 
L 179.686538 185.628993 
L 179.888921 184.95734 
L 180.131781 184.95734 
L 180.334165 184.285688 
L 180.577024 184.285688 
L 180.738931 183.837919 
L 181.022268 183.837919 
L 181.184174 183.39015 
L 181.265127 183.39015 
L 181.386557 183.166266 
L 181.467511 183.166266 
L 181.629417 182.718497 
L 181.710371 182.718497 
L 181.831801 182.494613 
L 181.912754 182.494613 
L 182.074661 182.046844 
L 182.155614 182.046844 
L 182.277044 181.82296 
L 182.357997 181.82296 
L 182.519904 181.375191 
L 182.600857 181.375191 
L 182.722287 181.151307 
L 182.80324 181.151307 
L 182.965147 180.703538 
L 183.248483 180.703538 
L 183.41039 180.25577 
L 183.450867 180.25577 
L 183.572297 180.031885 
L 183.693727 180.031885 
L 183.855633 179.584117 
L 183.89611 179.584117 
L 184.01754 179.360232 
L 184.13897 179.360232 
L 184.300876 178.912464 
L 184.341353 178.912464 
L 184.462783 178.688579 
L 184.584213 178.688579 
L 184.746119 178.240811 
L 184.786596 178.240811 
L 184.908026 178.016926 
L 185.029456 178.016926 
L 185.191363 177.569158 
L 185.231839 177.569158 
L 185.353269 177.345273 
L 185.474699 177.345273 
L 185.636606 176.897505 
L 185.677082 176.897505 
L 185.798512 176.67362 
L 185.919942 176.67362 
L 186.041372 176.449736 
L 186.122326 176.449736 
L 186.243756 176.225852 
L 186.405662 176.225852 
L 186.527092 176.001967 
L 186.567569 176.001967 
L 186.688999 175.778083 
L 186.850905 175.778083 
L 187.053289 175.10643 
L 187.296148 175.10643 
L 187.498532 174.434777 
L 187.741392 174.434777 
L 187.903298 173.987008 
L 188.186635 173.987008 
L 188.348541 173.53924 
L 188.631878 173.53924 
L 188.834261 172.867587 
L 189.077121 172.867587 
L 189.279504 172.195934 
L 189.562841 172.195934 
L 189.724747 171.748165 
L 189.927131 171.748165 
L 190.129514 171.076512 
L 190.372374 171.076512 
L 190.574757 170.404859 
L 190.817617 170.404859 
L 190.979524 169.957091 
L 191.14143 169.957091 
L 191.303337 169.509322 
L 191.343813 169.509322 
L 191.465243 169.285438 
L 191.586673 169.285438 
L 191.74858 168.837669 
L 191.789057 168.837669 
L 191.910487 168.613785 
L 192.031917 168.613785 
L 192.153346 168.3899 
L 192.2343 168.3899 
L 192.35573 168.166016 
L 192.47716 168.166016 
L 192.639066 167.718247 
L 192.679543 167.718247 
L 192.800973 167.494363 
L 192.922403 167.494363 
L 193.084309 167.046594 
L 193.124786 167.046594 
L 193.246216 166.82271 
L 193.367646 166.82271 
L 193.529553 166.374941 
L 193.570029 166.374941 
L 193.691459 166.151057 
L 193.812889 166.151057 
L 193.974796 165.703288 
L 194.015272 165.703288 
L 194.136702 165.479404 
L 194.258132 165.479404 
L 194.379562 165.25552 
L 194.460516 165.25552 
L 194.581946 165.031635 
L 194.703375 165.031635 
L 194.824805 164.807751 
L 194.905759 164.807751 
L 195.027189 164.583867 
L 195.148619 164.583867 
L 195.310525 164.136098 
L 195.351002 164.136098 
L 195.472432 163.912214 
L 195.593862 163.912214 
L 195.755768 163.464445 
L 195.796245 163.464445 
L 195.917675 163.240561 
L 196.039105 163.240561 
L 196.201012 162.792792 
L 196.241488 162.792792 
L 196.362918 162.568908 
L 196.484348 162.568908 
L 196.646255 162.121139 
L 196.686731 162.121139 
L 196.808161 161.897255 
L 196.929591 161.897255 
L 197.091498 161.449486 
L 197.131974 161.449486 
L 197.253404 161.225602 
L 197.374834 161.225602 
L 197.536741 160.777833 
L 197.577218 160.777833 
L 197.698648 160.553949 
L 197.820078 160.553949 
L 197.981984 160.10618 
L 198.022461 160.10618 
L 198.143891 159.882296 
L 198.265321 159.882296 
L 198.427227 159.434527 
L 198.467704 159.434527 
L 198.589134 159.210643 
L 198.710564 159.210643 
L 198.87247 158.762874 
L 198.912947 158.762874 
L 199.034377 158.53899 
L 199.155807 158.53899 
L 199.317714 158.091221 
L 199.35819 158.091221 
L 199.47962 157.867337 
L 199.72248 157.867337 
L 199.884387 157.419568 
L 200.005817 157.419568 
L 200.127247 157.195684 
L 200.167723 157.195684 
L 200.32963 156.747915 
L 200.45106 156.747915 
L 200.57249 156.524031 
L 200.612966 156.524031 
L 200.774873 156.076262 
L 200.896303 156.076262 
L 201.017733 155.852378 
L 201.05821 155.852378 
L 201.17964 155.628494 
L 201.341546 155.628494 
L 201.462976 155.180725 
L 201.503453 155.180725 
L 201.624883 154.956841 
L 201.786789 154.956841 
L 201.908219 154.732956 
L 202.191556 154.732956 
L 202.312986 154.509072 
L 202.353462 154.509072 
L 202.515369 154.061303 
L 202.636799 154.061303 
L 202.758229 153.837419 
L 202.798706 153.837419 
L 202.960612 153.38965 
L 203.082042 153.38965 
L 203.203472 153.165766 
L 203.243949 153.165766 
L 203.405855 152.717997 
L 203.527285 152.717997 
L 203.648715 152.494113 
L 203.689192 152.494113 
L 203.851098 152.046344 
L 203.972528 152.046344 
L 204.093958 151.82246 
L 204.134435 151.82246 
L 204.296342 151.374692 
L 204.417772 151.374692 
L 204.539202 151.150807 
L 204.579678 151.150807 
L 204.741585 150.703039 
L 204.863015 150.703039 
L 204.984445 150.479154 
L 205.024921 150.479154 
L 205.186828 150.031386 
L 205.308258 150.031386 
L 205.429688 149.807501 
L 205.510641 149.807501 
L 205.672548 149.359733 
L 205.753501 149.359733 
L 205.874931 149.135848 
L 205.955884 149.135848 
L 206.117791 148.68808 
L 206.198744 148.68808 
L 206.320174 148.464195 
L 206.401127 148.464195 
L 206.563034 148.016427 
L 206.643987 148.016427 
L 206.765417 147.792542 
L 206.846371 147.792542 
L 207.008277 147.344774 
L 207.089231 147.344774 
L 207.21066 147.120889 
L 207.291614 147.120889 
L 207.45352 146.673121 
L 207.534474 146.673121 
L 207.655904 146.449236 
L 207.736857 146.449236 
L 207.898764 146.001468 
L 207.979717 146.001468 
L 208.101147 145.777583 
L 208.1821 145.777583 
L 208.344007 145.329815 
L 208.42496 145.329815 
L 208.54639 145.10593 
L 208.627343 145.10593 
L 208.78925 144.658162 
L 208.870203 144.658162 
L 208.991633 144.434277 
L 209.15354 144.434277 
L 209.27497 144.210393 
L 209.598783 144.210393 
L 209.760689 143.762624 
L 210.044026 143.762624 
L 210.205933 143.090971 
L 210.489269 143.090971 
L 210.651176 142.419318 
L 210.934512 142.419318 
L 211.055942 141.97155 
L 211.379755 141.97155 
L 211.541662 141.299897 
L 211.824999 141.299897 
L 211.986905 140.628244 
L 212.270242 140.628244 
L 212.432148 139.956591 
L 212.715485 139.956591 
L 212.877392 139.508822 
L 213.160728 139.508822 
L 213.363111 138.837169 
L 213.686925 138.837169 
L 213.848831 138.389401 
L 214.010738 138.389401 
L 214.213121 137.717748 
L 214.455981 137.717748 
L 214.658364 137.046095 
L 215.022654 137.046095 
L 215.144084 136.82221 
L 215.265514 136.82221 
L 215.386944 136.598326 
L 215.467897 136.598326 
L 215.589327 136.374442 
L 215.629804 136.374442 
L 215.79171 135.926673 
L 215.91314 135.926673 
L 216.03457 135.702789 
L 216.075047 135.702789 
L 216.236954 135.25502 
L 216.358383 135.25502 
L 216.479813 135.031136 
L 216.52029 135.031136 
L 216.682197 134.583367 
L 216.803627 134.583367 
L 216.925057 134.359483 
L 216.965533 134.359483 
L 217.12744 133.911714 
L 217.24887 133.911714 
L 217.3703 133.68783 
L 217.410776 133.68783 
L 217.572683 133.240061 
L 217.694113 133.240061 
L 217.815543 133.016177 
L 217.85602 133.016177 
L 218.017926 132.568408 
L 218.139356 132.568408 
L 218.260786 132.344524 
L 218.301263 132.344524 
L 218.463169 131.896755 
L 218.584599 131.896755 
L 218.706029 131.672871 
L 218.746506 131.672871 
L 218.867936 131.448986 
L 219.029842 131.448986 
L 219.151272 131.225102 
L 219.272702 131.225102 
L 219.394132 131.001218 
L 219.475086 131.001218 
L 219.596516 130.777333 
L 219.717945 130.777333 
L 219.879852 130.329565 
L 219.920329 130.329565 
L 220.041759 130.10568 
L 220.163189 130.10568 
L 220.325095 129.657912 
L 220.365572 129.657912 
L 220.487002 129.434027 
L 220.608432 129.434027 
L 220.770338 128.986259 
L 221.053675 128.986259 
L 221.175105 128.762375 
L 221.215582 128.762375 
L 221.337011 128.53849 
L 221.498918 128.53849 
L 221.620348 128.090722 
L 221.660825 128.090722 
L 221.782255 127.866837 
L 221.944161 127.866837 
L 222.065591 127.419069 
L 222.106068 127.419069 
L 222.227498 127.195184 
L 222.389404 127.195184 
L 222.510834 126.747416 
L 222.551311 126.747416 
L 222.672741 126.523531 
L 222.834648 126.523531 
L 222.956077 126.299647 
L 222.996554 126.299647 
L 223.158461 125.851878 
L 223.441797 125.851878 
L 223.644181 125.180225 
L 223.927517 125.180225 
L 224.048947 124.732457 
L 224.291807 124.732457 
L 224.49419 124.060804 
L 224.73705 124.060804 
L 224.939433 123.389151 
L 225.182293 123.389151 
L 225.384677 122.717498 
L 225.627536 122.717498 
L 225.82992 122.045845 
L 226.07278 122.045845 
L 226.275163 121.374192 
L 226.518023 121.374192 
L 226.679929 120.926423 
L 226.963266 120.926423 
L 227.125173 120.478654 
L 227.408509 120.478654 
L 227.610892 119.807001 
L 227.853752 119.807001 
L 228.056135 119.135348 
L 228.298995 119.135348 
L 228.501379 118.463695 
L 228.744239 118.463695 
L 228.946622 117.792043 
L 229.310912 117.792043 
L 229.472818 117.344274 
L 229.675201 117.344274 
L 229.877585 116.672621 
L 230.120445 116.672621 
L 230.322828 116.000968 
L 230.565688 116.000968 
L 230.768071 115.329315 
L 231.010931 115.329315 
L 231.172838 114.881546 
L 231.294268 114.881546 
L 231.415697 114.657662 
L 231.456174 114.657662 
L 231.618081 114.209893 
L 231.739511 114.209893 
L 231.860941 113.986009 
L 231.901417 113.986009 
L 232.063324 113.53824 
L 232.184754 113.53824 
L 232.306184 113.314356 
L 232.34666 113.314356 
L 232.508567 112.866587 
L 232.670474 112.866587 
L 232.83238 112.418819 
L 232.913334 112.418819 
L 233.034763 112.194934 
L 233.115717 112.194934 
L 233.277623 111.747166 
L 233.358577 111.747166 
L 233.480007 111.523281 
L 233.56096 111.523281 
L 233.722867 111.075513 
L 233.80382 111.075513 
L 233.92525 110.851628 
L 234.006203 110.851628 
L 234.127633 110.627744 
L 234.249063 110.627744 
L 234.370493 110.40386 
L 234.451446 110.40386 
L 234.613353 109.956091 
L 234.694306 109.956091 
L 234.815736 109.732207 
L 234.896689 109.732207 
L 235.058596 109.284438 
L 235.139549 109.284438 
L 235.260979 109.060554 
L 235.341933 109.060554 
L 235.503839 108.612785 
L 235.584792 108.612785 
L 235.706222 108.388901 
L 235.787176 108.388901 
L 235.949082 107.941132 
L 236.070512 107.941132 
L 236.191942 107.717248 
L 236.232419 107.717248 
L 236.394325 107.269479 
L 236.515755 107.269479 
L 236.637185 107.045595 
L 236.677662 107.045595 
L 236.839569 106.597826 
L 237.122905 106.597826 
L 237.284812 106.150058 
L 237.406242 106.150058 
L 237.527672 105.926173 
L 237.568148 105.926173 
L 237.730055 105.478405 
L 237.851485 105.478405 
L 237.972915 105.25452 
L 238.013391 105.25452 
L 238.175298 104.806752 
L 238.296728 104.806752 
L 238.418158 104.582867 
L 238.458635 104.582867 
L 238.620541 104.135099 
L 238.741971 104.135099 
L 238.863401 103.911214 
L 238.903878 103.911214 
L 239.065784 103.463446 
L 239.187214 103.463446 
L 239.308644 103.239561 
L 239.349121 103.239561 
L 239.470551 103.015677 
L 239.632458 103.015677 
L 239.753887 102.791793 
L 239.794364 102.791793 
L 239.915794 102.567908 
L 239.956271 102.567908 
L 240.118177 102.12014 
L 240.239607 102.12014 
L 240.361037 101.896255 
L 240.401514 101.896255 
L 240.56342 101.448487 
L 240.68485 101.448487 
L 240.80628 101.224602 
L 240.846757 101.224602 
L 240.968187 101.000718 
L 241.130094 101.000718 
L 241.251524 100.552949 
L 241.292 100.552949 
L 241.41343 100.329065 
L 241.575337 100.329065 
L 241.696767 99.881296 
L 241.737243 99.881296 
L 241.858673 99.657412 
L 242.02058 99.657412 
L 242.14201 99.209643 
L 242.182486 99.209643 
L 242.303916 98.985759 
L 242.465823 98.985759 
L 242.587253 98.53799 
L 242.62773 98.53799 
L 242.74916 98.314106 
L 242.911066 98.314106 
L 243.032496 98.090222 
L 243.072973 98.090222 
L 243.194403 97.866337 
L 243.315833 97.866337 
L 243.477739 97.418569 
L 243.518216 97.418569 
L 243.639646 97.194684 
L 243.761076 97.194684 
L 243.922982 96.746916 
L 243.963459 96.746916 
L 244.084889 96.523031 
L 244.206319 96.523031 
L 244.368226 96.075263 
L 244.408702 96.075263 
L 244.530132 95.851379 
L 244.651562 95.851379 
L 244.813469 95.40361 
L 244.853945 95.40361 
L 244.975375 95.179726 
L 245.096805 95.179726 
L 245.258712 94.731957 
L 245.299189 94.731957 
L 245.420619 94.508073 
L 245.582525 94.508073 
L 245.703955 94.284188 
L 245.744432 94.284188 
L 245.865862 93.83642 
L 246.027768 93.83642 
L 246.149198 93.612535 
L 246.189675 93.612535 
L 246.311105 93.164767 
L 246.473011 93.164767 
L 246.594441 92.940882 
L 246.634918 92.940882 
L 246.756348 92.493114 
L 246.918255 92.493114 
L 247.039685 92.269229 
L 247.080161 92.269229 
L 247.201591 91.821461 
L 247.525404 91.821461 
L 247.687311 91.373692 
L 247.727788 91.373692 
L 247.849218 91.149808 
L 247.970648 91.149808 
L 248.132554 90.702039 
L 248.173031 90.702039 
L 248.294461 90.478155 
L 248.415891 90.478155 
L 248.577797 90.030386 
L 248.618274 90.030386 
L 248.739704 89.806502 
L 248.861134 89.806502 
L 249.02304 89.358733 
L 249.2659 89.358733 
L 249.427807 88.910964 
L 249.711143 88.910964 
L 249.87305 88.463196 
L 249.913527 88.463196 
L 250.034957 88.239311 
L 250.156387 88.239311 
L 250.318293 87.791543 
L 250.35877 87.791543 
L 250.4802 87.567658 
L 250.60163 87.567658 
L 250.763536 87.11989 
L 250.804013 87.11989 
L 250.925443 86.896005 
L 251.046873 86.896005 
L 251.20878 86.448237 
L 251.249256 86.448237 
L 251.370686 86.224352 
L 251.492116 86.224352 
L 251.654023 85.776584 
L 251.694499 85.776584 
L 251.815929 85.552699 
L 251.937359 85.552699 
L 252.099266 85.104931 
L 252.139743 85.104931 
L 252.261172 84.881047 
L 252.382602 84.881047 
L 252.544509 84.433278 
L 252.584986 84.433278 
L 252.706416 84.209394 
L 252.827846 84.209394 
L 252.989752 83.761625 
L 253.030229 83.761625 
L 253.151659 83.537741 
L 253.273089 83.537741 
L 253.434995 83.089972 
L 253.475472 83.089972 
L 253.596902 82.866088 
L 253.718332 82.866088 
L 253.880238 82.418319 
L 253.920715 82.418319 
L 254.042145 82.194435 
L 254.163575 82.194435 
L 254.325482 81.746666 
L 254.365958 81.746666 
L 254.487388 81.522782 
L 254.608818 81.522782 
L 254.770725 81.075013 
L 254.811201 81.075013 
L 254.932631 80.851129 
L 255.054061 80.851129 
L 255.215968 80.40336 
L 255.256445 80.40336 
L 255.377875 80.179476 
L 255.499304 80.179476 
L 255.620734 79.955591 
L 255.701688 79.955591 
L 255.863594 79.507823 
L 255.944548 79.507823 
L 256.065978 79.283938 
L 256.146931 79.283938 
L 256.308838 78.83617 
L 256.389791 78.83617 
L 256.511221 78.612285 
L 256.592174 78.612285 
L 256.754081 78.164517 
L 256.835034 78.164517 
L 256.956464 77.940632 
L 257.037417 77.940632 
L 257.158847 77.716748 
L 257.280277 77.716748 
L 257.442184 77.268979 
L 257.48266 77.268979 
L 257.60409 77.045095 
L 257.72552 77.045095 
L 257.887427 76.597326 
L 257.927904 76.597326 
L 258.049333 76.373442 
L 258.170763 76.373442 
L 258.33267 75.925673 
L 258.373147 75.925673 
L 258.494577 75.701789 
L 258.656483 75.701789 
L 258.777913 75.477905 
L 258.81839 75.477905 
L 258.93982 75.25402 
L 259.020773 75.25402 
L 259.18268 74.806252 
L 259.263633 74.806252 
L 259.385063 74.582367 
L 259.466016 74.582367 
L 259.627923 74.134599 
L 259.708876 74.134599 
L 259.830306 73.910715 
L 259.911259 73.910715 
L 260.073166 73.462946 
L 260.154119 73.462946 
L 260.275549 73.239062 
L 260.356503 73.239062 
L 260.518409 72.791293 
L 260.599362 72.791293 
L 260.720792 72.567409 
L 260.801746 72.567409 
L 260.963652 72.11964 
L 261.044606 72.11964 
L 261.166036 71.895756 
L 261.246989 71.895756 
L 261.408895 71.447987 
L 261.489849 71.447987 
L 261.611279 71.224103 
L 261.692232 71.224103 
L 261.854139 70.776334 
L 261.935092 70.776334 
L 262.056522 70.55245 
L 262.137475 70.55245 
L 262.299382 70.104681 
L 262.380335 70.104681 
L 262.501765 69.880797 
L 262.582718 69.880797 
L 262.744625 69.433028 
L 262.825578 69.433028 
L 262.947008 69.209144 
L 263.027961 69.209144 
L 263.189868 68.761375 
L 263.270821 68.761375 
L 263.392251 68.537491 
L 263.473205 68.537491 
L 263.635111 68.089722 
L 263.716065 68.089722 
L 263.837494 67.865838 
L 263.918448 67.865838 
L 264.080354 67.418069 
L 264.161308 67.418069 
L 264.282738 67.194185 
L 264.363691 67.194185 
L 264.525598 66.746416 
L 264.606551 66.746416 
L 264.727981 66.522532 
L 264.808934 66.522532 
L 264.970841 66.074763 
L 265.051794 66.074763 
L 265.173224 65.850879 
L 265.335131 65.850879 
L 265.456561 65.626994 
L 265.658944 65.626994 
L 265.861327 64.955341 
L 266.104187 64.955341 
L 266.30657 64.283688 
L 266.54943 64.283688 
L 266.751813 63.612035 
L 266.994673 63.612035 
L 267.197056 62.940383 
L 267.439916 62.940383 
L 267.6423 62.26873 
L 267.88516 62.26873 
L 268.087543 61.597077 
L 268.330403 61.597077 
L 268.532786 60.925424 
L 268.775646 60.925424 
L 268.978029 60.253771 
L 269.220889 60.253771 
L 269.423272 59.582118 
L 269.666132 59.582118 
L 269.868515 58.910465 
L 270.111375 58.910465 
L 270.313759 58.238812 
L 270.556618 58.238812 
L 270.759002 57.567159 
L 271.001862 57.567159 
L 271.204245 56.895506 
L 271.447105 56.895506 
L 271.649488 56.223853 
L 271.892348 56.223853 
L 272.094731 55.5522 
L 272.337591 55.5522 
L 272.539974 54.880547 
L 272.782834 54.880547 
L 272.985218 54.208894 
L 273.228077 54.208894 
L 273.430461 53.537241 
L 273.673321 53.537241 
L 273.835227 53.089472 
L 273.91618 53.089472 
L 274.03761 52.865588 
L 274.118564 52.865588 
L 274.28047 52.417819 
L 274.361424 52.417819 
L 274.482854 52.193935 
L 274.563807 52.193935 
L 274.685237 51.970051 
L 274.806667 51.970051 
L 274.928097 51.746166 
L 275.00905 51.746166 
L 275.13048 51.522282 
L 275.211433 51.522282 
L 275.332863 51.298398 
L 275.454293 51.298398 
L 275.575723 51.074513 
L 275.656676 51.074513 
L 275.778106 50.850629 
L 275.899536 50.850629 
L 276.020966 50.40286 
L 276.10192 50.40286 
L 276.22335 50.178976 
L 276.344779 50.178976 
L 276.466209 49.731207 
L 276.547163 49.731207 
L 276.668593 49.507323 
L 276.790023 49.507323 
L 276.911453 49.059554 
L 276.992406 49.059554 
L 277.113836 48.83567 
L 277.235266 48.83567 
L 277.356696 48.387901 
L 277.437649 48.387901 
L 277.559079 48.164017 
L 277.680509 48.164017 
L 277.801939 47.716248 
L 277.882892 47.716248 
L 278.004322 47.492364 
L 278.125752 47.492364 
L 278.247182 47.044595 
L 278.328135 47.044595 
L 278.449565 46.820711 
L 278.570995 46.820711 
L 278.692425 46.372942 
L 278.773379 46.372942 
L 278.894808 46.149058 
L 279.016238 46.149058 
L 279.178145 45.701289 
L 279.218622 45.701289 
L 279.340052 45.477405 
L 279.461482 45.477405 
L 279.623388 45.029636 
L 279.663865 45.029636 
L 279.785295 44.805752 
L 279.906725 44.805752 
L 280.028155 44.581868 
L 280.109108 44.581868 
L 280.230538 44.357983 
L 280.351968 44.357983 
L 280.473398 44.134099 
L 280.554351 44.134099 
L 280.675781 43.910215 
L 280.797211 43.910215 
L 280.918641 43.68633 
L 280.999594 43.68633 
L 281.121024 43.462446 
L 281.242454 43.462446 
L 281.363884 43.238562 
L 281.444837 43.238562 
L 281.566267 43.014677 
L 281.687697 43.014677 
L 281.809127 42.790793 
L 281.890081 42.790793 
L 282.011511 42.566909 
L 282.132941 42.566909 
L 282.25437 42.343024 
L 282.335324 42.343024 
L 282.456754 42.11914 
L 282.578184 42.11914 
L 282.699614 41.895256 
L 282.780567 41.895256 
L 282.901997 41.671371 
L 283.023427 41.671371 
L 283.144857 41.447487 
L 283.22581 41.447487 
L 283.34724 41.223603 
L 283.46867 41.223603 
L 283.5901 40.999719 
L 283.913913 40.999719 
L 284.035343 40.775834 
L 284.116296 40.775834 
L 284.237726 40.55195 
L 284.359156 40.55195 
L 284.480586 40.328066 
L 284.56154 40.328066 
L 284.682969 40.104181 
L 284.804399 40.104181 
L 284.925829 39.880297 
L 285.006783 39.880297 
L 285.128213 39.656413 
L 285.249643 39.656413 
L 285.371073 39.432528 
L 285.452026 39.432528 
L 285.573456 39.208644 
L 285.694886 39.208644 
L 285.816316 38.98476 
L 285.897269 38.98476 
L 286.018699 38.760875 
L 286.140129 38.760875 
L 286.261559 38.536991 
L 286.342512 38.536991 
L 286.463942 38.313107 
L 286.585372 38.313107 
L 286.706802 38.089222 
L 286.787755 38.089222 
L 286.909185 37.865338 
L 287.030615 37.865338 
L 287.152045 37.641454 
L 287.232998 37.641454 
L 287.354428 37.417569 
L 287.475858 37.417569 
L 287.597288 37.193685 
L 287.678242 37.193685 
L 287.799672 36.969801 
L 287.921102 36.969801 
L 288.042531 36.745916 
L 288.366345 36.745916 
L 288.487775 36.522032 
L 288.811588 36.522032 
L 288.933018 36.298148 
L 289.256831 36.298148 
L 289.378261 36.074263 
L 289.702074 36.074263 
L 289.823504 35.850379 
L 290.147317 35.850379 
L 290.268747 35.626495 
L 290.59256 35.626495 
L 290.71399 35.40261 
L 291.037804 35.40261 
L 291.159234 35.178726 
L 291.483047 35.178726 
L 291.604477 34.954842 
L 291.92829 34.954842 
L 292.04972 34.730957 
L 292.373533 34.730957 
L 292.494963 34.507073 
L 292.818776 34.507073 
L 292.940206 34.283189 
L 293.264019 34.283189 
L 293.385449 34.059304 
L 293.709263 34.059304 
L 293.830693 33.83542 
L 294.154506 33.83542 
L 294.275936 33.611536 
L 294.599749 33.611536 
L 294.721179 33.387651 
L 295.044992 33.387651 
L 295.166422 33.163767 
L 295.490235 33.163767 
L 295.611665 32.939883 
L 295.935478 32.939883 
L 296.056908 32.715998 
L 296.380721 32.715998 
L 296.502151 32.492114 
L 296.825965 32.492114 
L 296.947395 32.26823 
L 297.271208 32.26823 
L 297.392638 32.044345 
L 297.716451 32.044345 
L 297.837881 31.820461 
L 298.161694 31.820461 
L 298.283124 31.596577 
L 298.606937 31.596577 
L 298.728367 31.372692 
L 299.05218 31.372692 
L 299.17361 31.148808 
L 299.497424 31.148808 
L 299.618854 30.924924 
L 299.942667 30.924924 
L 300.064097 30.701039 
L 300.38791 30.701039 
L 300.50934 30.477155 
L 300.833153 30.477155 
L 300.954583 30.253271 
L 301.278396 30.253271 
L 301.399826 30.029387 
L 302.168883 30.029387 
L 302.290312 29.805502 
L 302.614126 29.805502 
L 302.735556 29.581618 
L 303.059369 29.581618 
L 303.180799 29.357734 
L 303.504612 29.357734 
L 303.626042 29.133849 
L 303.949855 29.133849 
L 304.071285 28.909965 
L 304.395098 28.909965 
L 304.516528 28.686081 
L 304.840341 28.686081 
L 304.961771 28.462196 
L 305.285585 28.462196 
L 305.407015 28.238312 
L 305.730828 28.238312 
L 305.852258 28.014428 
L 386.926989 28.014428 
L 386.926989 28.014428 
" clip-path="url(#pfbbebb60fd)" style="fill: none; stroke: #2f4f4f; stroke-width: 2; stroke-linecap: square"/>
   </g>
   <g id="patch_3">
    <path d="M 46.965625 386.274127 
L 46.965625 10.954442 
" style="fill: none; stroke: #000000; stroke-width: 0.8; stroke-linejoin: miter; stroke-linecap: square"/>
   </g>
   <g id="patch_4">
    <path d="M 403.115625 386.274127 
L 403.115625 10.954442 
" style="fill: none; stroke: #000000; stroke-width: 0.8; stroke-linejoin: miter; stroke-linecap: square"/>
   </g>
   <g id="patch_5">
    <path d="M 46.965625 386.274127 
L 403.115625 386.274127 
" style="fill: none; stroke: #000000; stroke-width: 0.8; stroke-linejoin: miter; stroke-linecap: square"/>
   </g>
   <g id="patch_6">
    <path d="M 46.965625 10.954442 
L 403.115625 10.954442 
" style="fill: none; stroke: #000000; stroke-width: 0.8; stroke-linejoin: miter; stroke-linecap: square"/>
   </g>
   <g id="legend_1">
    <g id="patch_7">
     <path d="M 410.115625 92.345067 
L 558.875 92.345067 
Q 560.875 92.345067 560.875 90.345067 
L 560.875 17.954442 
Q 560.875 15.954442 558.875 15.954442 
L 410.115625 15.954442 
Q 408.115625 15.954442 408.115625 17.954442 
L 408.115625 90.345067 
Q 408.115625 92.345067 410.115625 92.345067 
z
" style="fill: #ffffff; opacity: 0.8; stroke: #cccccc; stroke-linejoin: miter"/>
    </g>
    <g id="text_21">
     <!-- Motifs &amp; orientation -->
     <g transform="translate(434.979688 27.552879) scale(0.1 -0.1)">
      <defs>
       <path id="DejaVuSans-4d" d="M 628 4666 
L 1569 4666 
L 2759 1491 
L 3956 4666 
L 4897 4666 
L 4897 0 
L 4281 0 
L 4281 4097 
L 3078 897 
L 2444 897 
L 1241 4097 
L 1241 0 
L 628 0 
L 628 4666 
z
" transform="scale(0.015625)"/>
       <path id="DejaVuSans-26" d="M 1556 2509 
Q 1272 2256 1139 2004 
Q 1006 1753 1006 1478 
Q 1006 1022 1337 719 
Q 1669 416 2169 416 
Q 2466 416 2725 514 
Q 2984 613 3213 813 
L 1556 2509 
z
M 1997 2859 
L 3584 1234 
Q 3769 1513 3872 1830 
Q 3975 2147 3994 2503 
L 4575 2503 
Q 4538 2091 4375 1687 
Q 4213 1284 3922 891 
L 4794 0 
L 4006 0 
L 3559 459 
Q 3234 181 2878 45 
Q 2522 -91 2113 -91 
Q 1359 -91 881 339 
Q 403 769 403 1441 
Q 403 1841 612 2192 
Q 822 2544 1241 2853 
Q 1091 3050 1012 3245 
Q 934 3441 934 3628 
Q 934 4134 1281 4442 
Q 1628 4750 2203 4750 
Q 2463 4750 2720 4694 
Q 2978 4638 3244 4525 
L 3244 3956 
Q 2972 4103 2725 4179 
Q 2478 4256 2266 4256 
Q 1938 4256 1733 4082 
Q 1528 3909 1528 3634 
Q 1528 3475 1620 3314 
Q 1713 3153 1997 2859 
z
" transform="scale(0.015625)"/>
      </defs>
      <use xlink:href="#DejaVuSans-4d"/>
      <use xlink:href="#DejaVuSans-6f" transform="translate(86.279297 0)"/>
      <use xlink:href="#DejaVuSans-74" transform="translate(147.460938 0)"/>
      <use xlink:href="#DejaVuSans-69" transform="translate(186.669922 0)"/>
      <use xlink:href="#DejaVuSans-66" transform="translate(214.453125 0)"/>
      <use xlink:href="#DejaVuSans-73" transform="translate(249.658203 0)"/>
      <use xlink:href="#DejaVuSans-20" transform="translate(301.757812 0)"/>
      <use xlink:href="#DejaVuSans-26" transform="translate(333.544922 0)"/>
      <use xlink:href="#DejaVuSans-20" transform="translate(411.523438 0)"/>
      <use xlink:href="#DejaVuSans-6f" transform="translate(443.310547 0)"/>
      <use xlink:href="#DejaVuSans-72" transform="translate(504.492188 0)"/>
      <use xlink:href="#DejaVuSans-69" transform="translate(545.605469 0)"/>
      <use xlink:href="#DejaVuSans-65" transform="translate(573.388672 0)"/>
      <use xlink:href="#DejaVuSans-6e" transform="translate(634.912109 0)"/>
      <use xlink:href="#DejaVuSans-74" transform="translate(698.291016 0)"/>
      <use xlink:href="#DejaVuSans-61" transform="translate(737.5 0)"/>
      <use xlink:href="#DejaVuSans-74" transform="translate(798.779297 0)"/>
      <use xlink:href="#DejaVuSans-69" transform="translate(837.988281 0)"/>
      <use xlink:href="#DejaVuSans-6f" transform="translate(865.771484 0)"/>
      <use xlink:href="#DejaVuSans-6e" transform="translate(926.953125 0)"/>
     </g>
    </g>
    <g id="line2d_41">
     <path d="M 412.115625 38.731004 
L 422.115625 38.731004 
L 432.115625 38.731004 
" style="fill: none; stroke: #add8e6; stroke-width: 2; stroke-linecap: square"/>
    </g>
    <g id="text_22">
     <!-- CCTCAAACTAA (5' end) -->
     <g transform="translate(440.115625 42.231004) scale(0.1 -0.1)">
      <defs>
       <path id="DejaVuSans-43" d="M 4122 4306 
L 4122 3641 
Q 3803 3938 3442 4084 
Q 3081 4231 2675 4231 
Q 1875 4231 1450 3742 
Q 1025 3253 1025 2328 
Q 1025 1406 1450 917 
Q 1875 428 2675 428 
Q 3081 428 3442 575 
Q 3803 722 4122 1019 
L 4122 359 
Q 3791 134 3420 21 
Q 3050 -91 2638 -91 
Q 1578 -91 968 557 
Q 359 1206 359 2328 
Q 359 3453 968 4101 
Q 1578 4750 2638 4750 
Q 3056 4750 3426 4639 
Q 3797 4528 4122 4306 
z
" transform="scale(0.015625)"/>
       <path id="DejaVuSans-54" d="M -19 4666 
L 3928 4666 
L 3928 4134 
L 2272 4134 
L 2272 0 
L 1638 0 
L 1638 4134 
L -19 4134 
L -19 4666 
z
" transform="scale(0.015625)"/>
       <path id="DejaVuSans-28" d="M 1984 4856 
Q 1566 4138 1362 3434 
Q 1159 2731 1159 2009 
Q 1159 1288 1364 580 
Q 1569 -128 1984 -844 
L 1484 -844 
Q 1016 -109 783 600 
Q 550 1309 550 2009 
Q 550 2706 781 3412 
Q 1013 4119 1484 4856 
L 1984 4856 
z
" transform="scale(0.015625)"/>
       <path id="DejaVuSans-27" d="M 1147 4666 
L 1147 2931 
L 616 2931 
L 616 4666 
L 1147 4666 
z
" transform="scale(0.015625)"/>
       <path id="DejaVuSans-64" d="M 2906 2969 
L 2906 4863 
L 3481 4863 
L 3481 0 
L 2906 0 
L 2906 525 
Q 2725 213 2448 61 
Q 2172 -91 1784 -91 
Q 1150 -91 751 415 
Q 353 922 353 1747 
Q 353 2572 751 3078 
Q 1150 3584 1784 3584 
Q 2172 3584 2448 3432 
Q 2725 3281 2906 2969 
z
M 947 1747 
Q 947 1113 1208 752 
Q 1469 391 1925 391 
Q 2381 391 2643 752 
Q 2906 1113 2906 1747 
Q 2906 2381 2643 2742 
Q 2381 3103 1925 3103 
Q 1469 3103 1208 2742 
Q 947 2381 947 1747 
z
" transform="scale(0.015625)"/>
       <path id="DejaVuSans-29" d="M 513 4856 
L 1013 4856 
Q 1481 4119 1714 3412 
Q 1947 2706 1947 2009 
Q 1947 1309 1714 600 
Q 1481 -109 1013 -844 
L 513 -844 
Q 928 -128 1133 580 
Q 1338 1288 1338 2009 
Q 1338 2731 1133 3434 
Q 928 4138 513 4856 
z
" transform="scale(0.015625)"/>
      </defs>
      <use xlink:href="#DejaVuSans-43"/>
      <use xlink:href="#DejaVuSans-43" transform="translate(69.824219 0)"/>
      <use xlink:href="#DejaVuSans-54" transform="translate(139.648438 0)"/>
      <use xlink:href="#DejaVuSans-43" transform="translate(194.857422 0)"/>
      <use xlink:href="#DejaVuSans-41" transform="translate(264.681641 0)"/>
      <use xlink:href="#DejaVuSans-41" transform="translate(335.839844 0)"/>
      <use xlink:href="#DejaVuSans-41" transform="translate(406.998047 0)"/>
      <use xlink:href="#DejaVuSans-43" transform="translate(473.65625 0)"/>
      <use xlink:href="#DejaVuSans-54" transform="translate(543.480469 0)"/>
      <use xlink:href="#DejaVuSans-41" transform="translate(596.814453 0)"/>
      <use xlink:href="#DejaVuSans-41" transform="translate(667.972656 0)"/>
      <use xlink:href="#DejaVuSans-20" transform="translate(736.380859 0)"/>
      <use xlink:href="#DejaVuSans-28" transform="translate(768.167969 0)"/>
      <use xlink:href="#DejaVuSans-35" transform="translate(807.181641 0)"/>
      <use xlink:href="#DejaVuSans-27" transform="translate(870.804688 0)"/>
      <use xlink:href="#DejaVuSans-20" transform="translate(898.294922 0)"/>
      <use xlink:href="#DejaVuSans-65" transform="translate(930.082031 0)"/>
      <use xlink:href="#DejaVuSans-6e" transform="translate(991.605469 0)"/>
      <use xlink:href="#DejaVuSans-64" transform="translate(1054.984375 0)"/>
      <use xlink:href="#DejaVuSans-29" transform="translate(1118.460938 0)"/>
     </g>
    </g>
    <g id="line2d_42">
     <path d="M 412.115625 53.409129 
L 422.115625 53.409129 
L 432.115625 53.409129 
" style="fill: none; stroke: #6495ed; stroke-width: 2; stroke-linecap: square"/>
    </g>
    <g id="text_23">
     <!-- GACTAA (5' end) -->
     <g transform="translate(440.115625 56.909129) scale(0.1 -0.1)">
      <defs>
       <path id="DejaVuSans-47" d="M 3809 666 
L 3809 1919 
L 2778 1919 
L 2778 2438 
L 4434 2438 
L 4434 434 
Q 4069 175 3628 42 
Q 3188 -91 2688 -91 
Q 1594 -91 976 548 
Q 359 1188 359 2328 
Q 359 3472 976 4111 
Q 1594 4750 2688 4750 
Q 3144 4750 3555 4637 
Q 3966 4525 4313 4306 
L 4313 3634 
Q 3963 3931 3569 4081 
Q 3175 4231 2741 4231 
Q 1884 4231 1454 3753 
Q 1025 3275 1025 2328 
Q 1025 1384 1454 906 
Q 1884 428 2741 428 
Q 3075 428 3337 486 
Q 3600 544 3809 666 
z
" transform="scale(0.015625)"/>
      </defs>
      <use xlink:href="#DejaVuSans-47"/>
      <use xlink:href="#DejaVuSans-41" transform="translate(77.490234 0)"/>
      <use xlink:href="#DejaVuSans-43" transform="translate(144.148438 0)"/>
      <use xlink:href="#DejaVuSans-54" transform="translate(213.972656 0)"/>
      <use xlink:href="#DejaVuSans-41" transform="translate(267.306641 0)"/>
      <use xlink:href="#DejaVuSans-41" transform="translate(338.464844 0)"/>
      <use xlink:href="#DejaVuSans-20" transform="translate(406.873047 0)"/>
      <use xlink:href="#DejaVuSans-28" transform="translate(438.660156 0)"/>
      <use xlink:href="#DejaVuSans-35" transform="translate(477.673828 0)"/>
      <use xlink:href="#DejaVuSans-27" transform="translate(541.296875 0)"/>
      <use xlink:href="#DejaVuSans-20" transform="translate(568.787109 0)"/>
      <use xlink:href="#DejaVuSans-65" transform="translate(600.574219 0)"/>
      <use xlink:href="#DejaVuSans-6e" transform="translate(662.097656 0)"/>
      <use xlink:href="#DejaVuSans-64" transform="translate(725.476562 0)"/>
      <use xlink:href="#DejaVuSans-29" transform="translate(788.953125 0)"/>
     </g>
    </g>
    <g id="line2d_43">
     <path d="M 412.115625 68.087254 
L 422.115625 68.087254 
L 432.115625 68.087254 
" style="fill: none; stroke: #00008b; stroke-width: 2; stroke-linecap: square"/>
    </g>
    <g id="text_24">
     <!-- CCTAAA (5' end) -->
     <g transform="translate(440.115625 71.587254) scale(0.1 -0.1)">
      <use xlink:href="#DejaVuSans-43"/>
      <use xlink:href="#DejaVuSans-43" transform="translate(69.824219 0)"/>
      <use xlink:href="#DejaVuSans-54" transform="translate(139.648438 0)"/>
      <use xlink:href="#DejaVuSans-41" transform="translate(192.982422 0)"/>
      <use xlink:href="#DejaVuSans-41" transform="translate(264.140625 0)"/>
      <use xlink:href="#DejaVuSans-41" transform="translate(335.298828 0)"/>
      <use xlink:href="#DejaVuSans-20" transform="translate(403.707031 0)"/>
      <use xlink:href="#DejaVuSans-28" transform="translate(435.494141 0)"/>
      <use xlink:href="#DejaVuSans-35" transform="translate(474.507812 0)"/>
      <use xlink:href="#DejaVuSans-27" transform="translate(538.130859 0)"/>
      <use xlink:href="#DejaVuSans-20" transform="translate(565.621094 0)"/>
      <use xlink:href="#DejaVuSans-65" transform="translate(597.408203 0)"/>
      <use xlink:href="#DejaVuSans-6e" transform="translate(658.931641 0)"/>
      <use xlink:href="#DejaVuSans-64" transform="translate(722.310547 0)"/>
      <use xlink:href="#DejaVuSans-29" transform="translate(785.787109 0)"/>
     </g>
    </g>
    <g id="line2d_44">
     <path d="M 412.115625 82.765379 
L 422.115625 82.765379 
L 432.115625 82.765379 
" style="fill: none; stroke: #2f4f4f; stroke-width: 2; stroke-linecap: square"/>
    </g>
    <g id="text_25">
     <!-- CCCAACACTAA (5' end) -->
     <g transform="translate(440.115625 86.265379) scale(0.1 -0.1)">
      <use xlink:href="#DejaVuSans-43"/>
      <use xlink:href="#DejaVuSans-43" transform="translate(69.824219 0)"/>
      <use xlink:href="#DejaVuSans-43" transform="translate(139.648438 0)"/>
      <use xlink:href="#DejaVuSans-41" transform="translate(209.472656 0)"/>
      <use xlink:href="#DejaVuSans-41" transform="translate(280.630859 0)"/>
      <use xlink:href="#DejaVuSans-43" transform="translate(347.289062 0)"/>
      <use xlink:href="#DejaVuSans-41" transform="translate(417.113281 0)"/>
      <use xlink:href="#DejaVuSans-43" transform="translate(483.771484 0)"/>
      <use xlink:href="#DejaVuSans-54" transform="translate(553.595703 0)"/>
      <use xlink:href="#DejaVuSans-41" transform="translate(606.929688 0)"/>
      <use xlink:href="#DejaVuSans-41" transform="translate(678.087891 0)"/>
      <use xlink:href="#DejaVuSans-20" transform="translate(746.496094 0)"/>
      <use xlink:href="#DejaVuSans-28" transform="translate(778.283203 0)"/>
      <use xlink:href="#DejaVuSans-35" transform="translate(817.296875 0)"/>
      <use xlink:href="#DejaVuSans-27" transform="translate(880.919922 0)"/>
      <use xlink:href="#DejaVuSans-20" transform="translate(908.410156 0)"/>
      <use xlink:href="#DejaVuSans-65" transform="translate(940.197266 0)"/>
      <use xlink:href="#DejaVuSans-6e" transform="translate(1001.720703 0)"/>
      <use xlink:href="#DejaVuSans-64" transform="translate(1065.099609 0)"/>
      <use xlink:href="#DejaVuSans-29" transform="translate(1128.576172 0)"/>
     </g>
    </g>
   </g>
  </g>
 </g>
 <defs>
  <clipPath id="pfbbebb60fd">
   <rect x="46.965625" y="10.954442" width="356.15" height="375.319685"/>
  </clipPath>
 </defs>
</svg>
