<?xml version="1.0" encoding="utf-8" standalone="no"?>
<!DOCTYPE svg PUBLIC "-//W3C//DTD SVG 1.1//EN"
  "http://www.w3.org/Graphics/SVG/1.1/DTD/svg11.dtd">
<svg xmlns:xlink="http://www.w3.org/1999/xlink" width="712.075pt" height="496.474375pt" viewBox="0 0 712.075 496.474375" xmlns="http://www.w3.org/2000/svg" version="1.1">
 <metadata>
  <rdf:RDF xmlns:dc="http://purl.org/dc/elements/1.1/" xmlns:cc="http://creativecommons.org/ns#" xmlns:rdf="http://www.w3.org/1999/02/22-rdf-syntax-ns#">
   <cc:Work>
    <dc:type rdf:resource="http://purl.org/dc/dcmitype/StillImage"/>
    <dc:date>2026-03-20T12:45:39.244946</dc:date>
    <dc:format>image/svg+xml</dc:format>
    <dc:creator>
     <cc:Agent>
      <dc:title>Matplotlib v3.10.6, https://matplotlib.org/</dc:title>
     </cc:Agent>
    </dc:creator>
   </cc:Work>
  </rdf:RDF>
 </metadata>
 <defs>
  <style type="text/css">*{stroke-linejoin: round; stroke-linecap: butt}</style>
 </defs>
 <g id="figure_1">
  <g id="patch_1">
   <path d="M 0 496.474375 
L 712.075 496.474375 
L 712.075 0 
L 0 0 
z
" style="fill: #ffffff"/>
  </g>
  <g id="axes_1">
   <g id="patch_2">
    <path d="M 46.965625 458.918125 
L 547.115625 458.918125 
L 547.115625 22.318125 
L 46.965625 22.318125 
z
" style="fill: #ffffff"/>
   </g>
   <g id="matplotlib.axis_1">
    <g id="xtick_1">
     <g id="line2d_1">
      <path d="M 69.699716 458.918125 
L 69.699716 22.318125 
" clip-path="url(#pce732d465b)" style="fill: none; stroke-dasharray: 2.96,1.28; stroke-dashoffset: 0; stroke: #b0b0b0; stroke-opacity: 0.6; stroke-width: 0.8"/>
     </g>
     <g id="line2d_2">
      <defs>
       <path id="m7cd3c04847" d="M 0 0 
L 0 3.5 
" style="stroke: #000000; stroke-width: 0.8"/>
      </defs>
      <g>
       <use xlink:href="#m7cd3c04847" x="69.699716" y="458.918125" style="stroke: #000000; stroke-width: 0.8"/>
      </g>
     </g>
     <g id="text_1">
      <!-- 0 -->
      <g transform="translate(66.518466 473.516563) scale(0.1 -0.1)">
       <defs>
        <path id="DejaVuSans-30" d="M 2034 4250 
Q 1547 4250 1301 3770 
Q 1056 3291 1056 2328 
Q 1056 1369 1301 889 
Q 1547 409 2034 409 
Q 2525 409 2770 889 
Q 3016 1369 3016 2328 
Q 3016 3291 2770 3770 
Q 2525 4250 2034 4250 
z
M 2034 4750 
Q 2819 4750 3233 4129 
Q 3647 3509 3647 2328 
Q 3647 1150 3233 529 
Q 2819 -91 2034 -91 
Q 1250 -91 836 529 
Q 422 1150 422 2328 
Q 422 3509 836 4129 
Q 1250 4750 2034 4750 
z
" transform="scale(0.015625)"/>
       </defs>
       <use xlink:href="#DejaVuSans-30"/>
      </g>
     </g>
    </g>
    <g id="xtick_2">
     <g id="line2d_3">
      <path d="M 145.486334 458.918125 
L 145.486334 22.318125 
" clip-path="url(#pce732d465b)" style="fill: none; stroke-dasharray: 2.96,1.28; stroke-dashoffset: 0; stroke: #b0b0b0; stroke-opacity: 0.6; stroke-width: 0.8"/>
     </g>
     <g id="line2d_4">
      <g>
       <use xlink:href="#m7cd3c04847" x="145.486334" y="458.918125" style="stroke: #000000; stroke-width: 0.8"/>
      </g>
     </g>
     <g id="text_2">
      <!-- 2000 -->
      <g transform="translate(132.761334 473.516563) scale(0.1 -0.1)">
       <defs>
        <path id="DejaVuSans-32" d="M 1228 531 
L 3431 531 
L 3431 0 
L 469 0 
L 469 531 
Q 828 903 1448 1529 
Q 2069 2156 2228 2338 
Q 2531 2678 2651 2914 
Q 2772 3150 2772 3378 
Q 2772 3750 2511 3984 
Q 2250 4219 1831 4219 
Q 1534 4219 1204 4116 
Q 875 4013 500 3803 
L 500 4441 
Q 881 4594 1212 4672 
Q 1544 4750 1819 4750 
Q 2544 4750 2975 4387 
Q 3406 4025 3406 3419 
Q 3406 3131 3298 2873 
Q 3191 2616 2906 2266 
Q 2828 2175 2409 1742 
Q 1991 1309 1228 531 
z
" transform="scale(0.015625)"/>
       </defs>
       <use xlink:href="#DejaVuSans-32"/>
       <use xlink:href="#DejaVuSans-30" transform="translate(63.623047 0)"/>
       <use xlink:href="#DejaVuSans-30" transform="translate(127.246094 0)"/>
       <use xlink:href="#DejaVuSans-30" transform="translate(190.869141 0)"/>
      </g>
     </g>
    </g>
    <g id="xtick_3">
     <g id="line2d_5">
      <path d="M 221.272953 458.918125 
L 221.272953 22.318125 
" clip-path="url(#pce732d465b)" style="fill: none; stroke-dasharray: 2.96,1.28; stroke-dashoffset: 0; stroke: #b0b0b0; stroke-opacity: 0.6; stroke-width: 0.8"/>
     </g>
     <g id="line2d_6">
      <g>
       <use xlink:href="#m7cd3c04847" x="221.272953" y="458.918125" style="stroke: #000000; stroke-width: 0.8"/>
      </g>
     </g>
     <g id="text_3">
      <!-- 4000 -->
      <g transform="translate(208.547953 473.516563) scale(0.1 -0.1)">
       <defs>
        <path id="DejaVuSans-34" d="M 2419 4116 
L 825 1625 
L 2419 1625 
L 2419 4116 
z
M 2253 4666 
L 3047 4666 
L 3047 1625 
L 3713 1625 
L 3713 1100 
L 3047 1100 
L 3047 0 
L 2419 0 
L 2419 1100 
L 313 1100 
L 313 1709 
L 2253 4666 
z
" transform="scale(0.015625)"/>
       </defs>
       <use xlink:href="#DejaVuSans-34"/>
       <use xlink:href="#DejaVuSans-30" transform="translate(63.623047 0)"/>
       <use xlink:href="#DejaVuSans-30" transform="translate(127.246094 0)"/>
       <use xlink:href="#DejaVuSans-30" transform="translate(190.869141 0)"/>
      </g>
     </g>
    </g>
    <g id="xtick_4">
     <g id="line2d_7">
      <path d="M 297.059572 458.918125 
L 297.059572 22.318125 
" clip-path="url(#pce732d465b)" style="fill: none; stroke-dasharray: 2.96,1.28; stroke-dashoffset: 0; stroke: #b0b0b0; stroke-opacity: 0.6; stroke-width: 0.8"/>
     </g>
     <g id="line2d_8">
      <g>
       <use xlink:href="#m7cd3c04847" x="297.059572" y="458.918125" style="stroke: #000000; stroke-width: 0.8"/>
      </g>
     </g>
     <g id="text_4">
      <!-- 6000 -->
      <g transform="translate(284.334572 473.516563) scale(0.1 -0.1)">
       <defs>
        <path id="DejaVuSans-36" d="M 2113 2584 
Q 1688 2584 1439 2293 
Q 1191 2003 1191 1497 
Q 1191 994 1439 701 
Q 1688 409 2113 409 
Q 2538 409 2786 701 
Q 3034 994 3034 1497 
Q 3034 2003 2786 2293 
Q 2538 2584 2113 2584 
z
M 3366 4563 
L 3366 3988 
Q 3128 4100 2886 4159 
Q 2644 4219 2406 4219 
Q 1781 4219 1451 3797 
Q 1122 3375 1075 2522 
Q 1259 2794 1537 2939 
Q 1816 3084 2150 3084 
Q 2853 3084 3261 2657 
Q 3669 2231 3669 1497 
Q 3669 778 3244 343 
Q 2819 -91 2113 -91 
Q 1303 -91 875 529 
Q 447 1150 447 2328 
Q 447 3434 972 4092 
Q 1497 4750 2381 4750 
Q 2619 4750 2861 4703 
Q 3103 4656 3366 4563 
z
" transform="scale(0.015625)"/>
       </defs>
       <use xlink:href="#DejaVuSans-36"/>
       <use xlink:href="#DejaVuSans-30" transform="translate(63.623047 0)"/>
       <use xlink:href="#DejaVuSans-30" transform="translate(127.246094 0)"/>
       <use xlink:href="#DejaVuSans-30" transform="translate(190.869141 0)"/>
      </g>
     </g>
    </g>
    <g id="xtick_5">
     <g id="line2d_9">
      <path d="M 372.84619 458.918125 
L 372.84619 22.318125 
" clip-path="url(#pce732d465b)" style="fill: none; stroke-dasharray: 2.96,1.28; stroke-dashoffset: 0; stroke: #b0b0b0; stroke-opacity: 0.6; stroke-width: 0.8"/>
     </g>
     <g id="line2d_10">
      <g>
       <use xlink:href="#m7cd3c04847" x="372.84619" y="458.918125" style="stroke: #000000; stroke-width: 0.8"/>
      </g>
     </g>
     <g id="text_5">
      <!-- 8000 -->
      <g transform="translate(360.12119 473.516563) scale(0.1 -0.1)">
       <defs>
        <path id="DejaVuSans-38" d="M 2034 2216 
Q 1584 2216 1326 1975 
Q 1069 1734 1069 1313 
Q 1069 891 1326 650 
Q 1584 409 2034 409 
Q 2484 409 2743 651 
Q 3003 894 3003 1313 
Q 3003 1734 2745 1975 
Q 2488 2216 2034 2216 
z
M 1403 2484 
Q 997 2584 770 2862 
Q 544 3141 544 3541 
Q 544 4100 942 4425 
Q 1341 4750 2034 4750 
Q 2731 4750 3128 4425 
Q 3525 4100 3525 3541 
Q 3525 3141 3298 2862 
Q 3072 2584 2669 2484 
Q 3125 2378 3379 2068 
Q 3634 1759 3634 1313 
Q 3634 634 3220 271 
Q 2806 -91 2034 -91 
Q 1263 -91 848 271 
Q 434 634 434 1313 
Q 434 1759 690 2068 
Q 947 2378 1403 2484 
z
M 1172 3481 
Q 1172 3119 1398 2916 
Q 1625 2713 2034 2713 
Q 2441 2713 2670 2916 
Q 2900 3119 2900 3481 
Q 2900 3844 2670 4047 
Q 2441 4250 2034 4250 
Q 1625 4250 1398 4047 
Q 1172 3844 1172 3481 
z
" transform="scale(0.015625)"/>
       </defs>
       <use xlink:href="#DejaVuSans-38"/>
       <use xlink:href="#DejaVuSans-30" transform="translate(63.623047 0)"/>
       <use xlink:href="#DejaVuSans-30" transform="translate(127.246094 0)"/>
       <use xlink:href="#DejaVuSans-30" transform="translate(190.869141 0)"/>
      </g>
     </g>
    </g>
    <g id="xtick_6">
     <g id="line2d_11">
      <path d="M 448.632809 458.918125 
L 448.632809 22.318125 
" clip-path="url(#pce732d465b)" style="fill: none; stroke-dasharray: 2.96,1.28; stroke-dashoffset: 0; stroke: #b0b0b0; stroke-opacity: 0.6; stroke-width: 0.8"/>
     </g>
     <g id="line2d_12">
      <g>
       <use xlink:href="#m7cd3c04847" x="448.632809" y="458.918125" style="stroke: #000000; stroke-width: 0.8"/>
      </g>
     </g>
     <g id="text_6">
      <!-- 10000 -->
      <g transform="translate(432.726559 473.516563) scale(0.1 -0.1)">
       <defs>
        <path id="DejaVuSans-31" d="M 794 531 
L 1825 531 
L 1825 4091 
L 703 3866 
L 703 4441 
L 1819 4666 
L 2450 4666 
L 2450 531 
L 3481 531 
L 3481 0 
L 794 0 
L 794 531 
z
" transform="scale(0.015625)"/>
       </defs>
       <use xlink:href="#DejaVuSans-31"/>
       <use xlink:href="#DejaVuSans-30" transform="translate(63.623047 0)"/>
       <use xlink:href="#DejaVuSans-30" transform="translate(127.246094 0)"/>
       <use xlink:href="#DejaVuSans-30" transform="translate(190.869141 0)"/>
       <use xlink:href="#DejaVuSans-30" transform="translate(254.492188 0)"/>
      </g>
     </g>
    </g>
    <g id="xtick_7">
     <g id="line2d_13">
      <path d="M 524.419427 458.918125 
L 524.419427 22.318125 
" clip-path="url(#pce732d465b)" style="fill: none; stroke-dasharray: 2.96,1.28; stroke-dashoffset: 0; stroke: #b0b0b0; stroke-opacity: 0.6; stroke-width: 0.8"/>
     </g>
     <g id="line2d_14">
      <g>
       <use xlink:href="#m7cd3c04847" x="524.419427" y="458.918125" style="stroke: #000000; stroke-width: 0.8"/>
      </g>
     </g>
     <g id="text_7">
      <!-- 12000 -->
      <g transform="translate(508.513177 473.516563) scale(0.1 -0.1)">
       <use xlink:href="#DejaVuSans-31"/>
       <use xlink:href="#DejaVuSans-32" transform="translate(63.623047 0)"/>
       <use xlink:href="#DejaVuSans-30" transform="translate(127.246094 0)"/>
       <use xlink:href="#DejaVuSans-30" transform="translate(190.869141 0)"/>
       <use xlink:href="#DejaVuSans-30" transform="translate(254.492188 0)"/>
      </g>
     </g>
    </g>
    <g id="text_8">
     <!-- Distance from Terminus [nt] -->
     <g transform="translate(227.297656 487.194687) scale(0.1 -0.1)">
      <defs>
       <path id="DejaVuSans-44" d="M 1259 4147 
L 1259 519 
L 2022 519 
Q 2988 519 3436 956 
Q 3884 1394 3884 2338 
Q 3884 3275 3436 3711 
Q 2988 4147 2022 4147 
L 1259 4147 
z
M 628 4666 
L 1925 4666 
Q 3281 4666 3915 4102 
Q 4550 3538 4550 2338 
Q 4550 1131 3912 565 
Q 3275 0 1925 0 
L 628 0 
L 628 4666 
z
" transform="scale(0.015625)"/>
       <path id="DejaVuSans-69" d="M 603 3500 
L 1178 3500 
L 1178 0 
L 603 0 
L 603 3500 
z
M 603 4863 
L 1178 4863 
L 1178 4134 
L 603 4134 
L 603 4863 
z
" transform="scale(0.015625)"/>
       <path id="DejaVuSans-73" d="M 2834 3397 
L 2834 2853 
Q 2591 2978 2328 3040 
Q 2066 3103 1784 3103 
Q 1356 3103 1142 2972 
Q 928 2841 928 2578 
Q 928 2378 1081 2264 
Q 1234 2150 1697 2047 
L 1894 2003 
Q 2506 1872 2764 1633 
Q 3022 1394 3022 966 
Q 3022 478 2636 193 
Q 2250 -91 1575 -91 
Q 1294 -91 989 -36 
Q 684 19 347 128 
L 347 722 
Q 666 556 975 473 
Q 1284 391 1588 391 
Q 1994 391 2212 530 
Q 2431 669 2431 922 
Q 2431 1156 2273 1281 
Q 2116 1406 1581 1522 
L 1381 1569 
Q 847 1681 609 1914 
Q 372 2147 372 2553 
Q 372 3047 722 3315 
Q 1072 3584 1716 3584 
Q 2034 3584 2315 3537 
Q 2597 3491 2834 3397 
z
" transform="scale(0.015625)"/>
       <path id="DejaVuSans-74" d="M 1172 4494 
L 1172 3500 
L 2356 3500 
L 2356 3053 
L 1172 3053 
L 1172 1153 
Q 1172 725 1289 603 
Q 1406 481 1766 481 
L 2356 481 
L 2356 0 
L 1766 0 
Q 1100 0 847 248 
Q 594 497 594 1153 
L 594 3053 
L 172 3053 
L 172 3500 
L 594 3500 
L 594 4494 
L 1172 4494 
z
" transform="scale(0.015625)"/>
       <path id="DejaVuSans-61" d="M 2194 1759 
Q 1497 1759 1228 1600 
Q 959 1441 959 1056 
Q 959 750 1161 570 
Q 1363 391 1709 391 
Q 2188 391 2477 730 
Q 2766 1069 2766 1631 
L 2766 1759 
L 2194 1759 
z
M 3341 1997 
L 3341 0 
L 2766 0 
L 2766 531 
Q 2569 213 2275 61 
Q 1981 -91 1556 -91 
Q 1019 -91 701 211 
Q 384 513 384 1019 
Q 384 1609 779 1909 
Q 1175 2209 1959 2209 
L 2766 2209 
L 2766 2266 
Q 2766 2663 2505 2880 
Q 2244 3097 1772 3097 
Q 1472 3097 1187 3025 
Q 903 2953 641 2809 
L 641 3341 
Q 956 3463 1253 3523 
Q 1550 3584 1831 3584 
Q 2591 3584 2966 3190 
Q 3341 2797 3341 1997 
z
" transform="scale(0.015625)"/>
       <path id="DejaVuSans-6e" d="M 3513 2113 
L 3513 0 
L 2938 0 
L 2938 2094 
Q 2938 2591 2744 2837 
Q 2550 3084 2163 3084 
Q 1697 3084 1428 2787 
Q 1159 2491 1159 1978 
L 1159 0 
L 581 0 
L 581 3500 
L 1159 3500 
L 1159 2956 
Q 1366 3272 1645 3428 
Q 1925 3584 2291 3584 
Q 2894 3584 3203 3211 
Q 3513 2838 3513 2113 
z
" transform="scale(0.015625)"/>
       <path id="DejaVuSans-63" d="M 3122 3366 
L 3122 2828 
Q 2878 2963 2633 3030 
Q 2388 3097 2138 3097 
Q 1578 3097 1268 2742 
Q 959 2388 959 1747 
Q 959 1106 1268 751 
Q 1578 397 2138 397 
Q 2388 397 2633 464 
Q 2878 531 3122 666 
L 3122 134 
Q 2881 22 2623 -34 
Q 2366 -91 2075 -91 
Q 1284 -91 818 406 
Q 353 903 353 1747 
Q 353 2603 823 3093 
Q 1294 3584 2113 3584 
Q 2378 3584 2631 3529 
Q 2884 3475 3122 3366 
z
" transform="scale(0.015625)"/>
       <path id="DejaVuSans-65" d="M 3597 1894 
L 3597 1613 
L 953 1613 
Q 991 1019 1311 708 
Q 1631 397 2203 397 
Q 2534 397 2845 478 
Q 3156 559 3463 722 
L 3463 178 
Q 3153 47 2828 -22 
Q 2503 -91 2169 -91 
Q 1331 -91 842 396 
Q 353 884 353 1716 
Q 353 2575 817 3079 
Q 1281 3584 2069 3584 
Q 2775 3584 3186 3129 
Q 3597 2675 3597 1894 
z
M 3022 2063 
Q 3016 2534 2758 2815 
Q 2500 3097 2075 3097 
Q 1594 3097 1305 2825 
Q 1016 2553 972 2059 
L 3022 2063 
z
" transform="scale(0.015625)"/>
       <path id="DejaVuSans-20" transform="scale(0.015625)"/>
       <path id="DejaVuSans-66" d="M 2375 4863 
L 2375 4384 
L 1825 4384 
Q 1516 4384 1395 4259 
Q 1275 4134 1275 3809 
L 1275 3500 
L 2222 3500 
L 2222 3053 
L 1275 3053 
L 1275 0 
L 697 0 
L 697 3053 
L 147 3053 
L 147 3500 
L 697 3500 
L 697 3744 
Q 697 4328 969 4595 
Q 1241 4863 1831 4863 
L 2375 4863 
z
" transform="scale(0.015625)"/>
       <path id="DejaVuSans-72" d="M 2631 2963 
Q 2534 3019 2420 3045 
Q 2306 3072 2169 3072 
Q 1681 3072 1420 2755 
Q 1159 2438 1159 1844 
L 1159 0 
L 581 0 
L 581 3500 
L 1159 3500 
L 1159 2956 
Q 1341 3275 1631 3429 
Q 1922 3584 2338 3584 
Q 2397 3584 2469 3576 
Q 2541 3569 2628 3553 
L 2631 2963 
z
" transform="scale(0.015625)"/>
       <path id="DejaVuSans-6f" d="M 1959 3097 
Q 1497 3097 1228 2736 
Q 959 2375 959 1747 
Q 959 1119 1226 758 
Q 1494 397 1959 397 
Q 2419 397 2687 759 
Q 2956 1122 2956 1747 
Q 2956 2369 2687 2733 
Q 2419 3097 1959 3097 
z
M 1959 3584 
Q 2709 3584 3137 3096 
Q 3566 2609 3566 1747 
Q 3566 888 3137 398 
Q 2709 -91 1959 -91 
Q 1206 -91 779 398 
Q 353 888 353 1747 
Q 353 2609 779 3096 
Q 1206 3584 1959 3584 
z
" transform="scale(0.015625)"/>
       <path id="DejaVuSans-6d" d="M 3328 2828 
Q 3544 3216 3844 3400 
Q 4144 3584 4550 3584 
Q 5097 3584 5394 3201 
Q 5691 2819 5691 2113 
L 5691 0 
L 5113 0 
L 5113 2094 
Q 5113 2597 4934 2840 
Q 4756 3084 4391 3084 
Q 3944 3084 3684 2787 
Q 3425 2491 3425 1978 
L 3425 0 
L 2847 0 
L 2847 2094 
Q 2847 2600 2669 2842 
Q 2491 3084 2119 3084 
Q 1678 3084 1418 2786 
Q 1159 2488 1159 1978 
L 1159 0 
L 581 0 
L 581 3500 
L 1159 3500 
L 1159 2956 
Q 1356 3278 1631 3431 
Q 1906 3584 2284 3584 
Q 2666 3584 2933 3390 
Q 3200 3197 3328 2828 
z
" transform="scale(0.015625)"/>
       <path id="DejaVuSans-54" d="M -19 4666 
L 3928 4666 
L 3928 4134 
L 2272 4134 
L 2272 0 
L 1638 0 
L 1638 4134 
L -19 4134 
L -19 4666 
z
" transform="scale(0.015625)"/>
       <path id="DejaVuSans-75" d="M 544 1381 
L 544 3500 
L 1119 3500 
L 1119 1403 
Q 1119 906 1312 657 
Q 1506 409 1894 409 
Q 2359 409 2629 706 
Q 2900 1003 2900 1516 
L 2900 3500 
L 3475 3500 
L 3475 0 
L 2900 0 
L 2900 538 
Q 2691 219 2414 64 
Q 2138 -91 1772 -91 
Q 1169 -91 856 284 
Q 544 659 544 1381 
z
M 1991 3584 
L 1991 3584 
z
" transform="scale(0.015625)"/>
       <path id="DejaVuSans-5b" d="M 550 4863 
L 1875 4863 
L 1875 4416 
L 1125 4416 
L 1125 -397 
L 1875 -397 
L 1875 -844 
L 550 -844 
L 550 4863 
z
" transform="scale(0.015625)"/>
       <path id="DejaVuSans-5d" d="M 1947 4863 
L 1947 -844 
L 622 -844 
L 622 -397 
L 1369 -397 
L 1369 4416 
L 622 4416 
L 622 4863 
L 1947 4863 
z
" transform="scale(0.015625)"/>
      </defs>
      <use xlink:href="#DejaVuSans-44"/>
      <use xlink:href="#DejaVuSans-69" transform="translate(77.001953 0)"/>
      <use xlink:href="#DejaVuSans-73" transform="translate(104.785156 0)"/>
      <use xlink:href="#DejaVuSans-74" transform="translate(156.884766 0)"/>
      <use xlink:href="#DejaVuSans-61" transform="translate(196.09375 0)"/>
      <use xlink:href="#DejaVuSans-6e" transform="translate(257.373047 0)"/>
      <use xlink:href="#DejaVuSans-63" transform="translate(320.751953 0)"/>
      <use xlink:href="#DejaVuSans-65" transform="translate(375.732422 0)"/>
      <use xlink:href="#DejaVuSans-20" transform="translate(437.255859 0)"/>
      <use xlink:href="#DejaVuSans-66" transform="translate(469.042969 0)"/>
      <use xlink:href="#DejaVuSans-72" transform="translate(504.248047 0)"/>
      <use xlink:href="#DejaVuSans-6f" transform="translate(543.111328 0)"/>
      <use xlink:href="#DejaVuSans-6d" transform="translate(604.292969 0)"/>
      <use xlink:href="#DejaVuSans-20" transform="translate(701.705078 0)"/>
      <use xlink:href="#DejaVuSans-54" transform="translate(733.492188 0)"/>
      <use xlink:href="#DejaVuSans-65" transform="translate(777.576172 0)"/>
      <use xlink:href="#DejaVuSans-72" transform="translate(839.099609 0)"/>
      <use xlink:href="#DejaVuSans-6d" transform="translate(878.462891 0)"/>
      <use xlink:href="#DejaVuSans-69" transform="translate(975.875 0)"/>
      <use xlink:href="#DejaVuSans-6e" transform="translate(1003.658203 0)"/>
      <use xlink:href="#DejaVuSans-75" transform="translate(1067.037109 0)"/>
      <use xlink:href="#DejaVuSans-73" transform="translate(1130.416016 0)"/>
      <use xlink:href="#DejaVuSans-20" transform="translate(1182.515625 0)"/>
      <use xlink:href="#DejaVuSans-5b" transform="translate(1214.302734 0)"/>
      <use xlink:href="#DejaVuSans-6e" transform="translate(1253.316406 0)"/>
      <use xlink:href="#DejaVuSans-74" transform="translate(1316.695312 0)"/>
      <use xlink:href="#DejaVuSans-5d" transform="translate(1355.904297 0)"/>
     </g>
    </g>
   </g>
   <g id="matplotlib.axis_2">
    <g id="ytick_1">
     <g id="line2d_15">
      <path d="M 46.965625 439.07267 
L 547.115625 439.07267 
" clip-path="url(#pce732d465b)" style="fill: none; stroke-dasharray: 2.96,1.28; stroke-dashoffset: 0; stroke: #b0b0b0; stroke-opacity: 0.6; stroke-width: 0.8"/>
     </g>
     <g id="line2d_16">
      <defs>
       <path id="mfe05d275f8" d="M 0 0 
L -3.5 0 
" style="stroke: #000000; stroke-width: 0.8"/>
      </defs>
      <g>
       <use xlink:href="#mfe05d275f8" x="46.965625" y="439.07267" style="stroke: #000000; stroke-width: 0.8"/>
      </g>
     </g>
     <g id="text_9">
      <!-- 0 -->
      <g transform="translate(33.603125 442.871889) scale(0.1 -0.1)">
       <use xlink:href="#DejaVuSans-30"/>
      </g>
     </g>
    </g>
    <g id="ytick_2">
     <g id="line2d_17">
      <path d="M 46.965625 347.968824 
L 547.115625 347.968824 
" clip-path="url(#pce732d465b)" style="fill: none; stroke-dasharray: 2.96,1.28; stroke-dashoffset: 0; stroke: #b0b0b0; stroke-opacity: 0.6; stroke-width: 0.8"/>
     </g>
     <g id="line2d_18">
      <g>
       <use xlink:href="#mfe05d275f8" x="46.965625" y="347.968824" style="stroke: #000000; stroke-width: 0.8"/>
      </g>
     </g>
     <g id="text_10">
      <!-- 100 -->
      <g transform="translate(20.878125 351.768043) scale(0.1 -0.1)">
       <use xlink:href="#DejaVuSans-31"/>
       <use xlink:href="#DejaVuSans-30" transform="translate(63.623047 0)"/>
       <use xlink:href="#DejaVuSans-30" transform="translate(127.246094 0)"/>
      </g>
     </g>
    </g>
    <g id="ytick_3">
     <g id="line2d_19">
      <path d="M 46.965625 256.864978 
L 547.115625 256.864978 
" clip-path="url(#pce732d465b)" style="fill: none; stroke-dasharray: 2.96,1.28; stroke-dashoffset: 0; stroke: #b0b0b0; stroke-opacity: 0.6; stroke-width: 0.8"/>
     </g>
     <g id="line2d_20">
      <g>
       <use xlink:href="#mfe05d275f8" x="46.965625" y="256.864978" style="stroke: #000000; stroke-width: 0.8"/>
      </g>
     </g>
     <g id="text_11">
      <!-- 200 -->
      <g transform="translate(20.878125 260.664196) scale(0.1 -0.1)">
       <use xlink:href="#DejaVuSans-32"/>
       <use xlink:href="#DejaVuSans-30" transform="translate(63.623047 0)"/>
       <use xlink:href="#DejaVuSans-30" transform="translate(127.246094 0)"/>
      </g>
     </g>
    </g>
    <g id="ytick_4">
     <g id="line2d_21">
      <path d="M 46.965625 165.761131 
L 547.115625 165.761131 
" clip-path="url(#pce732d465b)" style="fill: none; stroke-dasharray: 2.96,1.28; stroke-dashoffset: 0; stroke: #b0b0b0; stroke-opacity: 0.6; stroke-width: 0.8"/>
     </g>
     <g id="line2d_22">
      <g>
       <use xlink:href="#mfe05d275f8" x="46.965625" y="165.761131" style="stroke: #000000; stroke-width: 0.8"/>
      </g>
     </g>
     <g id="text_12">
      <!-- 300 -->
      <g transform="translate(20.878125 169.56035) scale(0.1 -0.1)">
       <defs>
        <path id="DejaVuSans-33" d="M 2597 2516 
Q 3050 2419 3304 2112 
Q 3559 1806 3559 1356 
Q 3559 666 3084 287 
Q 2609 -91 1734 -91 
Q 1441 -91 1130 -33 
Q 819 25 488 141 
L 488 750 
Q 750 597 1062 519 
Q 1375 441 1716 441 
Q 2309 441 2620 675 
Q 2931 909 2931 1356 
Q 2931 1769 2642 2001 
Q 2353 2234 1838 2234 
L 1294 2234 
L 1294 2753 
L 1863 2753 
Q 2328 2753 2575 2939 
Q 2822 3125 2822 3475 
Q 2822 3834 2567 4026 
Q 2313 4219 1838 4219 
Q 1578 4219 1281 4162 
Q 984 4106 628 3988 
L 628 4550 
Q 988 4650 1302 4700 
Q 1616 4750 1894 4750 
Q 2613 4750 3031 4423 
Q 3450 4097 3450 3541 
Q 3450 3153 3228 2886 
Q 3006 2619 2597 2516 
z
" transform="scale(0.015625)"/>
       </defs>
       <use xlink:href="#DejaVuSans-33"/>
       <use xlink:href="#DejaVuSans-30" transform="translate(63.623047 0)"/>
       <use xlink:href="#DejaVuSans-30" transform="translate(127.246094 0)"/>
      </g>
     </g>
    </g>
    <g id="ytick_5">
     <g id="line2d_23">
      <path d="M 46.965625 74.657285 
L 547.115625 74.657285 
" clip-path="url(#pce732d465b)" style="fill: none; stroke-dasharray: 2.96,1.28; stroke-dashoffset: 0; stroke: #b0b0b0; stroke-opacity: 0.6; stroke-width: 0.8"/>
     </g>
     <g id="line2d_24">
      <g>
       <use xlink:href="#mfe05d275f8" x="46.965625" y="74.657285" style="stroke: #000000; stroke-width: 0.8"/>
      </g>
     </g>
     <g id="text_13">
      <!-- 400 -->
      <g transform="translate(20.878125 78.456504) scale(0.1 -0.1)">
       <use xlink:href="#DejaVuSans-34"/>
       <use xlink:href="#DejaVuSans-30" transform="translate(63.623047 0)"/>
       <use xlink:href="#DejaVuSans-30" transform="translate(127.246094 0)"/>
      </g>
     </g>
    </g>
    <g id="text_14">
     <!-- Average Cumulative Count -->
     <g transform="translate(14.798438 307.715) rotate(-90) scale(0.1 -0.1)">
      <defs>
       <path id="DejaVuSans-41" d="M 2188 4044 
L 1331 1722 
L 3047 1722 
L 2188 4044 
z
M 1831 4666 
L 2547 4666 
L 4325 0 
L 3669 0 
L 3244 1197 
L 1141 1197 
L 716 0 
L 50 0 
L 1831 4666 
z
" transform="scale(0.015625)"/>
       <path id="DejaVuSans-76" d="M 191 3500 
L 800 3500 
L 1894 563 
L 2988 3500 
L 3597 3500 
L 2284 0 
L 1503 0 
L 191 3500 
z
" transform="scale(0.015625)"/>
       <path id="DejaVuSans-67" d="M 2906 1791 
Q 2906 2416 2648 2759 
Q 2391 3103 1925 3103 
Q 1463 3103 1205 2759 
Q 947 2416 947 1791 
Q 947 1169 1205 825 
Q 1463 481 1925 481 
Q 2391 481 2648 825 
Q 2906 1169 2906 1791 
z
M 3481 434 
Q 3481 -459 3084 -895 
Q 2688 -1331 1869 -1331 
Q 1566 -1331 1297 -1286 
Q 1028 -1241 775 -1147 
L 775 -588 
Q 1028 -725 1275 -790 
Q 1522 -856 1778 -856 
Q 2344 -856 2625 -561 
Q 2906 -266 2906 331 
L 2906 616 
Q 2728 306 2450 153 
Q 2172 0 1784 0 
Q 1141 0 747 490 
Q 353 981 353 1791 
Q 353 2603 747 3093 
Q 1141 3584 1784 3584 
Q 2172 3584 2450 3431 
Q 2728 3278 2906 2969 
L 2906 3500 
L 3481 3500 
L 3481 434 
z
" transform="scale(0.015625)"/>
       <path id="DejaVuSans-43" d="M 4122 4306 
L 4122 3641 
Q 3803 3938 3442 4084 
Q 3081 4231 2675 4231 
Q 1875 4231 1450 3742 
Q 1025 3253 1025 2328 
Q 1025 1406 1450 917 
Q 1875 428 2675 428 
Q 3081 428 3442 575 
Q 3803 722 4122 1019 
L 4122 359 
Q 3791 134 3420 21 
Q 3050 -91 2638 -91 
Q 1578 -91 968 557 
Q 359 1206 359 2328 
Q 359 3453 968 4101 
Q 1578 4750 2638 4750 
Q 3056 4750 3426 4639 
Q 3797 4528 4122 4306 
z
" transform="scale(0.015625)"/>
       <path id="DejaVuSans-6c" d="M 603 4863 
L 1178 4863 
L 1178 0 
L 603 0 
L 603 4863 
z
" transform="scale(0.015625)"/>
      </defs>
      <use xlink:href="#DejaVuSans-41"/>
      <use xlink:href="#DejaVuSans-76" transform="translate(62.533203 0)"/>
      <use xlink:href="#DejaVuSans-65" transform="translate(121.712891 0)"/>
      <use xlink:href="#DejaVuSans-72" transform="translate(183.236328 0)"/>
      <use xlink:href="#DejaVuSans-61" transform="translate(224.349609 0)"/>
      <use xlink:href="#DejaVuSans-67" transform="translate(285.628906 0)"/>
      <use xlink:href="#DejaVuSans-65" transform="translate(349.105469 0)"/>
      <use xlink:href="#DejaVuSans-20" transform="translate(410.628906 0)"/>
      <use xlink:href="#DejaVuSans-43" transform="translate(442.416016 0)"/>
      <use xlink:href="#DejaVuSans-75" transform="translate(512.240234 0)"/>
      <use xlink:href="#DejaVuSans-6d" transform="translate(575.619141 0)"/>
      <use xlink:href="#DejaVuSans-75" transform="translate(673.03125 0)"/>
      <use xlink:href="#DejaVuSans-6c" transform="translate(736.410156 0)"/>
      <use xlink:href="#DejaVuSans-61" transform="translate(764.193359 0)"/>
      <use xlink:href="#DejaVuSans-74" transform="translate(825.472656 0)"/>
      <use xlink:href="#DejaVuSans-69" transform="translate(864.681641 0)"/>
      <use xlink:href="#DejaVuSans-76" transform="translate(892.464844 0)"/>
      <use xlink:href="#DejaVuSans-65" transform="translate(951.644531 0)"/>
      <use xlink:href="#DejaVuSans-20" transform="translate(1013.167969 0)"/>
      <use xlink:href="#DejaVuSans-43" transform="translate(1044.955078 0)"/>
      <use xlink:href="#DejaVuSans-6f" transform="translate(1114.779297 0)"/>
      <use xlink:href="#DejaVuSans-75" transform="translate(1175.960938 0)"/>
      <use xlink:href="#DejaVuSans-6e" transform="translate(1239.339844 0)"/>
      <use xlink:href="#DejaVuSans-74" transform="translate(1302.71875 0)"/>
     </g>
    </g>
   </g>
   <g id="line2d_25">
    <path d="M 69.699716 439.07267 
L 524.381534 439.07267 
L 524.381534 439.07267 
" clip-path="url(#pce732d465b)" style="fill: none; stroke: #006ba4; stroke-width: 2; stroke-linecap: square"/>
   </g>
   <g id="line2d_26">
    <path d="M 69.699716 439.07267 
L 524.381534 439.07267 
L 524.381534 439.07267 
" clip-path="url(#pce732d465b)" style="fill: none; stroke: #ff800e; stroke-width: 2; stroke-linecap: square"/>
   </g>
   <g id="line2d_27">
    <path d="M 69.699716 439.07267 
L 340.257944 439.07267 
L 340.371624 438.768991 
L 347.988179 438.768991 
L 348.101859 438.465311 
L 364.964382 438.465311 
L 365.078062 438.161632 
L 524.381534 438.161632 
L 524.381534 438.161632 
" clip-path="url(#pce732d465b)" style="fill: none; stroke: #ababab; stroke-width: 2; stroke-linecap: square"/>
   </g>
   <g id="line2d_28">
    <path d="M 69.699716 439.07267 
L 69.927076 439.07267 
L 70.078649 438.465311 
L 70.381795 438.465311 
L 70.571262 437.554273 
L 70.874408 437.554273 
L 71.025982 436.946914 
L 71.367022 436.946914 
L 71.480701 436.643235 
L 71.556488 436.643235 
L 71.670168 436.339555 
L 71.745955 436.339555 
L 71.859635 436.035876 
L 71.973314 436.035876 
L 72.086994 435.732196 
L 72.428034 435.732196 
L 72.617501 434.821158 
L 72.844861 434.821158 
L 73.034327 433.910119 
L 73.261687 433.910119 
L 73.41326 433.30276 
L 73.792193 433.30276 
L 73.905873 432.999081 
L 74.057446 432.999081 
L 74.171126 432.695401 
L 74.474273 432.695401 
L 74.587953 432.391722 
L 74.891099 432.391722 
L 75.042673 431.784363 
L 75.307926 431.784363 
L 75.459499 431.177004 
L 75.724752 431.177004 
L 75.876325 430.569645 
L 76.141578 430.569645 
L 76.293152 429.962286 
L 76.558405 429.962286 
L 76.709978 429.051247 
L 76.975231 429.051247 
L 77.088911 428.747568 
L 77.392058 428.747568 
L 77.543631 428.140209 
L 77.808884 428.140209 
L 77.960457 427.53285 
L 78.22571 427.53285 
L 78.377284 426.925491 
L 78.642537 426.925491 
L 78.79411 426.318132 
L 78.832003 426.318132 
L 78.945683 426.014452 
L 79.097257 426.014452 
L 79.210937 425.710773 
L 79.930909 425.710773 
L 80.044589 425.407093 
L 80.347736 425.407093 
L 80.499309 424.799735 
L 80.612989 424.799735 
L 80.726669 424.496055 
L 80.764562 424.496055 
L 80.916135 423.888696 
L 81.029815 423.888696 
L 81.143495 423.585017 
L 81.181389 423.585017 
L 81.295069 423.281337 
L 81.446642 423.281337 
L 81.560322 422.977658 
L 81.863468 422.977658 
L 82.015041 422.370299 
L 82.052935 422.370299 
L 82.166615 422.066619 
L 82.280295 422.066619 
L 82.393975 421.76294 
L 82.469761 421.76294 
L 82.583441 421.45926 
L 83.189734 421.45926 
L 83.303414 421.155581 
L 83.454987 421.155581 
L 83.568667 420.851901 
L 83.60656 420.851901 
L 83.758134 420.244542 
L 83.871814 420.244542 
L 83.985494 419.940863 
L 84.40232 419.940863 
L 84.516 419.637183 
L 84.819146 419.637183 
L 84.932826 419.333504 
L 85.008613 419.333504 
L 85.122293 419.029824 
L 85.235973 419.029824 
L 85.387546 418.422465 
L 85.425439 418.422465 
L 85.539119 418.118786 
L 85.652799 418.118786 
L 85.804372 417.511427 
L 86.069626 417.511427 
L 86.221199 416.904068 
L 86.486452 416.904068 
L 86.638025 416.296709 
L 86.979065 416.296709 
L 87.092745 415.993029 
L 87.282211 415.993029 
L 87.395891 415.68935 
L 87.509571 415.68935 
L 87.623251 415.38567 
L 87.699038 415.38567 
L 87.812718 415.081991 
L 88.115864 415.081991 
L 88.267437 414.474632 
L 88.532691 414.474632 
L 88.646371 414.170952 
L 88.949517 414.170952 
L 89.10109 413.563593 
L 89.366343 413.563593 
L 89.480023 413.259914 
L 89.593703 413.259914 
L 89.707383 412.956234 
L 90.01053 412.956234 
L 90.12421 412.652555 
L 90.162103 412.652555 
L 90.313676 412.045196 
L 90.427356 412.045196 
L 90.541036 411.741517 
L 90.654716 411.741517 
L 90.768396 411.437837 
L 91.071542 411.437837 
L 91.185222 411.134158 
L 91.336796 411.134158 
L 91.450475 410.830478 
L 91.488369 410.830478 
L 91.602049 410.526799 
L 91.753622 410.526799 
L 91.867302 410.223119 
L 92.170448 410.223119 
L 92.284128 409.91944 
L 92.397808 409.91944 
L 92.511488 409.61576 
L 92.587275 409.61576 
L 92.700955 409.312081 
L 92.928315 409.312081 
L 93.041994 409.008401 
L 93.345141 409.008401 
L 93.496714 408.401042 
L 93.761967 408.401042 
L 93.913541 407.793683 
L 94.103007 407.793683 
L 94.292474 406.882645 
L 94.59562 406.882645 
L 94.7093 406.578965 
L 95.012447 406.578965 
L 95.126126 405.971606 
L 95.2777 405.971606 
L 95.39138 405.667927 
L 95.429273 405.667927 
L 95.542953 405.060568 
L 95.846099 405.060568 
L 95.959779 404.756888 
L 96.262926 404.756888 
L 96.376606 404.453209 
L 96.679752 404.453209 
L 96.831325 403.84585 
L 96.945005 403.84585 
L 97.058685 403.54217 
L 97.210258 403.54217 
L 97.323938 403.238491 
L 97.361832 403.238491 
L 97.513405 402.631132 
L 97.627085 402.631132 
L 97.740765 402.327452 
L 97.778658 402.327452 
L 97.892338 402.023773 
L 98.081805 402.023773 
L 98.233378 401.416414 
L 98.347058 401.416414 
L 98.460738 401.112734 
L 98.498631 401.112734 
L 98.650204 400.505375 
L 98.763884 400.505375 
L 98.877564 400.201696 
L 98.915457 400.201696 
L 99.067031 399.594337 
L 99.180711 399.594337 
L 99.29439 399.290658 
L 99.445964 399.290658 
L 99.559644 398.986978 
L 99.597537 398.986978 
L 99.711217 398.683299 
L 99.86279 398.683299 
L 99.97647 398.379619 
L 100.014363 398.379619 
L 100.128043 398.07594 
L 100.279617 398.07594 
L 100.393296 397.77226 
L 100.43119 397.77226 
L 100.54487 397.468581 
L 100.696443 397.468581 
L 100.810123 397.164901 
L 100.848016 397.164901 
L 100.961696 396.861222 
L 101.113269 396.861222 
L 101.226949 396.557542 
L 101.264843 396.557542 
L 101.378522 395.950183 
L 101.530096 395.950183 
L 101.643776 395.646504 
L 101.681669 395.646504 
L 101.795349 395.039145 
L 101.946922 395.039145 
L 102.060602 394.735465 
L 102.098495 394.735465 
L 102.212175 394.431786 
L 102.363749 394.431786 
L 102.477428 394.128106 
L 102.515322 394.128106 
L 102.629002 393.824427 
L 102.780575 393.824427 
L 102.894255 393.520747 
L 102.932148 393.520747 
L 103.045828 392.913388 
L 103.197401 392.913388 
L 103.311081 392.609709 
L 103.348975 392.609709 
L 103.462654 392.00235 
L 103.614228 392.00235 
L 103.727908 391.69867 
L 103.765801 391.69867 
L 103.879481 391.091311 
L 104.031054 391.091311 
L 104.144734 390.787632 
L 104.182627 390.787632 
L 104.296307 390.483952 
L 104.447881 390.483952 
L 104.56156 390.180273 
L 104.599454 390.180273 
L 104.713134 389.876593 
L 104.864707 389.876593 
L 104.978387 389.572914 
L 105.01628 389.572914 
L 105.167853 388.965555 
L 105.281533 388.965555 
L 105.395213 388.661875 
L 105.433107 388.661875 
L 105.546786 388.358196 
L 105.69836 388.358196 
L 105.81204 388.054516 
L 105.849933 388.054516 
L 105.963613 387.750837 
L 106.115186 387.750837 
L 106.228866 387.447157 
L 106.266759 387.447157 
L 106.380439 387.143478 
L 106.683586 387.143478 
L 106.797266 386.536119 
L 106.910946 386.536119 
L 107.024626 386.23244 
L 107.100412 386.23244 
L 107.214092 385.625081 
L 107.327772 385.625081 
L 107.441452 385.321401 
L 107.517239 385.321401 
L 107.630919 384.714042 
L 107.744598 384.714042 
L 107.858278 384.410363 
L 107.934065 384.410363 
L 108.047745 383.803004 
L 108.161425 383.803004 
L 108.275105 383.499324 
L 108.350891 383.499324 
L 108.464571 383.195645 
L 108.578251 383.195645 
L 108.691931 382.891965 
L 108.767718 382.891965 
L 108.881398 382.588286 
L 108.995078 382.588286 
L 109.108758 382.284606 
L 109.184544 382.284606 
L 109.298224 381.980927 
L 109.411904 381.980927 
L 109.525584 381.677247 
L 109.601371 381.677247 
L 109.715051 381.373568 
L 109.82873 381.373568 
L 109.94241 381.069888 
L 110.018197 381.069888 
L 110.16977 380.462529 
L 110.28345 380.462529 
L 110.39713 380.15885 
L 110.472917 380.15885 
L 110.586597 379.85517 
L 110.700277 379.85517 
L 110.813956 379.551491 
L 110.889743 379.551491 
L 111.003423 378.944132 
L 111.117103 378.944132 
L 111.230783 378.640452 
L 111.30657 378.640452 
L 111.420249 378.033093 
L 111.533929 378.033093 
L 111.647609 377.729414 
L 111.723396 377.729414 
L 111.874969 377.122055 
L 111.950756 377.122055 
L 112.064436 376.818375 
L 112.140222 376.818375 
L 112.291796 376.211016 
L 112.367582 376.211016 
L 112.481262 375.907337 
L 112.557049 375.907337 
L 112.708622 375.299978 
L 112.784409 375.299978 
L 112.898089 374.996298 
L 112.973875 374.996298 
L 113.125448 374.388939 
L 113.201235 374.388939 
L 113.314915 374.08526 
L 113.390702 374.08526 
L 113.542275 373.477901 
L 113.618061 373.477901 
L 113.731741 373.174222 
L 113.845421 373.174222 
L 113.959101 372.870542 
L 114.034888 372.870542 
L 114.148568 372.566863 
L 114.262248 372.566863 
L 114.375928 372.263183 
L 114.451714 372.263183 
L 114.565394 371.959504 
L 114.679074 371.959504 
L 114.792754 371.655824 
L 114.868541 371.655824 
L 114.982221 371.352145 
L 115.0959 371.352145 
L 115.20958 371.048465 
L 115.285367 371.048465 
L 115.399047 370.744786 
L 115.512727 370.744786 
L 115.626407 370.441106 
L 115.702193 370.441106 
L 115.815873 370.137427 
L 115.929553 370.137427 
L 116.043233 369.833747 
L 116.11902 369.833747 
L 116.270593 369.226388 
L 116.34638 369.226388 
L 116.46006 368.922709 
L 116.535846 368.922709 
L 116.687419 368.31535 
L 116.763206 368.31535 
L 116.876886 368.01167 
L 116.952673 368.01167 
L 117.066353 367.707991 
L 117.180032 367.707991 
L 117.293712 367.404311 
L 117.369499 367.404311 
L 117.483179 367.100632 
L 117.596859 367.100632 
L 117.710539 366.796952 
L 117.786325 366.796952 
L 117.937899 366.189593 
L 118.013685 366.189593 
L 118.127365 365.885914 
L 118.203152 365.885914 
L 118.354725 365.278555 
L 118.430512 365.278555 
L 118.544192 364.974875 
L 118.619978 364.974875 
L 118.771551 364.367516 
L 118.847338 364.367516 
L 118.961018 364.063837 
L 119.036805 364.063837 
L 119.150485 363.760157 
L 119.264164 363.760157 
L 119.377844 363.456478 
L 119.453631 363.456478 
L 119.605204 362.849119 
L 119.680991 362.849119 
L 119.794671 362.545439 
L 119.870457 362.545439 
L 119.984137 362.24176 
L 120.097817 362.24176 
L 120.211497 361.93808 
L 120.287284 361.93808 
L 120.400964 361.634401 
L 120.47675 361.634401 
L 120.628324 361.027042 
L 120.70411 361.027042 
L 120.81779 360.723363 
L 120.893577 360.723363 
L 121.04515 360.116004 
L 121.120937 360.116004 
L 121.234617 359.812324 
L 121.310403 359.812324 
L 121.461976 359.204965 
L 121.537763 359.204965 
L 121.651443 358.901286 
L 121.72723 358.901286 
L 121.878803 358.293927 
L 121.954589 358.293927 
L 122.068269 357.990247 
L 122.144056 357.990247 
L 122.295629 357.382888 
L 122.371416 357.382888 
L 122.485096 357.079209 
L 122.560882 357.079209 
L 122.674562 356.775529 
L 122.788242 356.775529 
L 122.939815 356.16817 
L 122.977709 356.16817 
L 123.091389 355.864491 
L 123.280855 355.864491 
L 123.432428 355.257132 
L 123.584002 355.257132 
L 123.735575 354.649773 
L 124.000828 354.649773 
L 124.114508 354.346093 
L 124.228188 354.346093 
L 124.341868 354.042414 
L 124.417655 354.042414 
L 124.531334 353.738734 
L 124.569228 353.738734 
L 124.720801 353.131375 
L 124.834481 353.131375 
L 124.948161 352.827696 
L 124.986054 352.827696 
L 125.137627 352.220337 
L 125.251307 352.220337 
L 125.364987 351.916657 
L 125.402881 351.916657 
L 125.554454 351.309298 
L 125.668134 351.309298 
L 125.781814 351.005619 
L 125.895494 351.005619 
L 126.009174 350.701939 
L 126.08496 350.701939 
L 126.19864 350.39826 
L 126.236533 350.39826 
L 126.350213 350.09458 
L 126.501787 350.09458 
L 126.615466 349.790901 
L 126.65336 349.790901 
L 126.76704 349.183542 
L 126.918613 349.183542 
L 127.032293 348.879862 
L 127.070186 348.879862 
L 127.183866 348.272504 
L 127.487013 348.272504 
L 127.600693 347.665145 
L 127.752266 347.665145 
L 127.865946 347.361465 
L 127.903839 347.361465 
L 128.017519 347.057786 
L 128.131199 347.057786 
L 128.282772 346.450427 
L 128.320665 346.450427 
L 128.434345 346.146747 
L 128.548025 346.146747 
L 128.661705 345.843068 
L 128.737492 345.843068 
L 128.851172 345.539388 
L 128.964852 345.539388 
L 129.078532 345.235709 
L 129.154318 345.235709 
L 129.267998 344.932029 
L 129.381678 344.932029 
L 129.495358 344.62835 
L 129.571145 344.62835 
L 129.684825 344.32467 
L 129.760611 344.32467 
L 129.912184 343.717311 
L 129.987971 343.717311 
L 130.101651 343.413632 
L 130.177438 343.413632 
L 130.329011 342.806273 
L 130.404797 342.806273 
L 130.518477 342.502593 
L 130.594264 342.502593 
L 130.745837 341.895234 
L 130.821624 341.895234 
L 130.935304 341.591555 
L 131.01109 341.591555 
L 131.162664 340.984196 
L 131.23845 340.984196 
L 131.35213 340.680516 
L 131.427917 340.680516 
L 131.541597 340.376837 
L 131.655277 340.376837 
L 131.768957 340.073157 
L 131.844743 340.073157 
L 131.958423 339.465798 
L 132.072103 339.465798 
L 132.185783 339.162119 
L 132.26157 339.162119 
L 132.375249 338.55476 
L 132.678396 338.55476 
L 132.792076 337.947401 
L 133.095222 337.947401 
L 133.208902 337.340042 
L 133.512049 337.340042 
L 133.625729 336.732683 
L 133.701515 336.732683 
L 133.815195 336.429003 
L 133.928875 336.429003 
L 134.042555 335.821645 
L 134.118342 335.821645 
L 134.232022 335.517965 
L 134.345702 335.517965 
L 134.459381 334.910606 
L 134.762528 334.910606 
L 134.876208 334.303247 
L 134.989888 334.303247 
L 135.103568 333.999568 
L 135.179354 333.999568 
L 135.293034 333.392209 
L 135.406714 333.392209 
L 135.520394 333.088529 
L 135.596181 333.088529 
L 135.709861 332.48117 
L 135.823541 332.48117 
L 135.937221 332.177491 
L 136.013007 332.177491 
L 136.126687 331.570132 
L 136.240367 331.570132 
L 136.354047 331.266452 
L 136.429834 331.266452 
L 136.543513 330.659093 
L 136.84666 330.659093 
L 136.96034 330.051734 
L 137.036127 330.051734 
L 137.149806 329.748055 
L 137.263486 329.748055 
L 137.377166 329.140696 
L 137.490846 329.140696 
L 137.604526 328.837016 
L 137.680313 328.837016 
L 137.793993 328.229657 
L 137.907673 328.229657 
L 138.021353 327.925978 
L 138.097139 327.925978 
L 138.210819 327.622298 
L 138.324499 327.622298 
L 138.438179 327.318619 
L 138.551859 327.318619 
L 138.665539 327.014939 
L 138.741325 327.014939 
L 138.855005 326.71126 
L 138.968685 326.71126 
L 139.082365 326.40758 
L 139.158152 326.40758 
L 139.309725 325.800221 
L 139.385512 325.800221 
L 139.499192 325.496542 
L 139.688658 325.496542 
L 139.840231 324.889183 
L 139.991805 324.889183 
L 140.143378 324.281824 
L 140.219164 324.281824 
L 140.332844 323.978144 
L 140.522311 323.978144 
L 140.673884 323.370785 
L 140.787564 323.370785 
L 140.901244 323.067106 
L 140.939137 323.067106 
L 141.052817 322.763427 
L 141.204391 322.763427 
L 141.31807 322.459747 
L 141.355964 322.459747 
L 141.469644 322.156068 
L 141.621217 322.156068 
L 141.810683 321.245029 
L 142.038043 321.245029 
L 142.22751 320.333991 
L 142.45487 320.333991 
L 142.56855 320.030311 
L 142.606443 320.030311 
L 142.720123 319.726632 
L 142.871696 319.726632 
L 143.061163 318.815593 
L 143.326416 318.815593 
L 143.477989 318.208234 
L 143.667456 318.208234 
L 143.819029 317.600875 
L 143.856922 317.600875 
L 143.970602 317.297196 
L 144.084282 317.297196 
L 144.235855 316.689837 
L 144.273749 316.689837 
L 144.387429 316.386157 
L 144.576895 316.386157 
L 144.690575 316.082478 
L 144.766362 316.082478 
L 144.917935 315.475119 
L 144.993721 315.475119 
L 145.107401 315.171439 
L 145.183188 315.171439 
L 145.334761 314.56408 
L 145.410548 314.56408 
L 145.524228 314.260401 
L 145.713694 314.260401 
L 145.865268 313.653042 
L 145.978948 313.653042 
L 146.092627 313.349362 
L 146.509454 313.349362 
L 146.623134 313.045683 
L 146.661027 313.045683 
L 146.8126 312.438324 
L 146.92628 312.438324 
L 147.03996 312.134644 
L 147.077853 312.134644 
L 147.191533 311.830965 
L 147.343107 311.830965 
L 147.456787 311.527285 
L 147.49468 311.527285 
L 147.646253 310.919926 
L 147.759933 310.919926 
L 147.873613 310.616247 
L 148.176759 310.616247 
L 148.290439 310.312568 
L 148.328333 310.312568 
L 148.442013 309.705209 
L 148.593586 309.705209 
L 148.707266 309.401529 
L 148.745159 309.401529 
L 148.858839 308.79417 
L 149.010412 308.79417 
L 149.124092 308.490491 
L 149.161985 308.490491 
L 149.275665 307.883132 
L 149.427239 307.883132 
L 149.540919 307.579452 
L 149.578812 307.579452 
L 149.692492 306.972093 
L 149.844065 306.972093 
L 149.957745 306.668414 
L 149.995638 306.668414 
L 150.109318 306.061055 
L 150.260891 306.061055 
L 150.374571 305.757375 
L 150.412465 305.757375 
L 150.526145 305.453696 
L 150.677718 305.453696 
L 150.791398 305.150016 
L 150.829291 305.150016 
L 150.942971 304.846337 
L 151.094544 304.846337 
L 151.246118 304.238978 
L 151.511371 304.238978 
L 151.662944 303.631619 
L 151.928197 303.631619 
L 152.07977 303.02426 
L 152.345023 303.02426 
L 152.53449 302.113221 
L 152.76185 302.113221 
L 152.913423 301.505862 
L 153.178676 301.505862 
L 153.368143 300.594824 
L 153.595503 300.594824 
L 153.784969 299.683785 
L 154.012329 299.683785 
L 154.201796 298.772747 
L 154.429155 298.772747 
L 154.580729 298.165388 
L 154.845982 298.165388 
L 155.035448 297.25435 
L 155.376488 297.25435 
L 155.528061 296.646991 
L 155.793315 296.646991 
L 155.944888 295.735952 
L 156.210141 295.735952 
L 156.323821 295.128593 
L 156.626967 295.128593 
L 156.778541 294.217555 
L 157.043794 294.217555 
L 157.195367 293.306516 
L 157.46062 293.306516 
L 157.612193 292.699157 
L 157.877447 292.699157 
L 158.02902 291.788119 
L 158.294273 291.788119 
L 158.407953 291.18076 
L 158.711099 291.18076 
L 158.862673 290.269721 
L 159.127926 290.269721 
L 159.279499 289.662362 
L 159.544752 289.662362 
L 159.696325 289.055003 
L 159.734219 289.055003 
L 159.847899 288.751324 
L 159.961579 288.751324 
L 160.113152 288.143965 
L 160.151045 288.143965 
L 160.264725 287.840285 
L 160.378405 287.840285 
L 160.492085 287.536606 
L 160.795231 287.536606 
L 160.946805 286.929247 
L 161.060485 286.929247 
L 161.174165 286.625567 
L 161.249951 286.625567 
L 161.363631 286.321888 
L 161.590991 286.321888 
L 161.742564 285.714529 
L 161.856244 285.714529 
L 161.969924 285.410849 
L 162.007817 285.410849 
L 162.159391 284.803491 
L 162.273071 284.803491 
L 162.38675 284.499811 
L 162.424644 284.499811 
L 162.576217 283.892452 
L 162.689897 283.892452 
L 162.803577 283.588773 
L 162.84147 283.588773 
L 162.993043 282.981414 
L 163.106723 282.981414 
L 163.220403 282.677734 
L 163.258297 282.677734 
L 163.371976 282.374055 
L 163.675123 282.374055 
L 163.788803 282.070375 
L 163.940376 282.070375 
L 164.054056 281.766696 
L 164.091949 281.766696 
L 164.205629 281.463016 
L 164.357203 281.463016 
L 164.470882 281.159337 
L 164.774029 281.159337 
L 164.887709 280.855657 
L 165.039282 280.855657 
L 165.152962 280.551978 
L 165.190855 280.551978 
L 165.304535 279.944619 
L 165.456108 279.944619 
L 165.569788 279.640939 
L 165.607682 279.640939 
L 165.721362 279.33726 
L 165.872935 279.33726 
L 166.062401 278.426221 
L 166.289761 278.426221 
L 166.479228 277.515183 
L 166.706588 277.515183 
L 166.896054 276.604144 
L 167.237094 276.604144 
L 167.388667 275.996785 
L 167.691814 275.996785 
L 167.805494 275.693106 
L 167.99496 275.693106 
L 168.146533 275.085747 
L 168.336 275.085747 
L 168.487573 274.478388 
L 168.525467 274.478388 
L 168.639146 274.174708 
L 168.752826 274.174708 
L 168.866506 273.871029 
L 168.942293 273.871029 
L 169.055973 273.567349 
L 169.169653 273.567349 
L 169.283333 273.26367 
L 169.359119 273.26367 
L 169.472799 272.95999 
L 169.586479 272.95999 
L 169.700159 272.352632 
L 169.775946 272.352632 
L 169.889626 272.048952 
L 170.003306 272.048952 
L 170.116986 271.441593 
L 170.192772 271.441593 
L 170.306452 271.137914 
L 170.420132 271.137914 
L 170.533812 270.834234 
L 170.609599 270.834234 
L 170.723278 270.530555 
L 170.836958 270.530555 
L 170.950638 269.923196 
L 171.026425 269.923196 
L 171.140105 269.619516 
L 171.253785 269.619516 
L 171.367465 269.012157 
L 171.443251 269.012157 
L 171.556931 268.708478 
L 171.670611 268.708478 
L 171.784291 268.101119 
L 172.087438 268.101119 
L 172.201118 267.797439 
L 172.466371 267.797439 
L 172.617944 267.19008 
L 172.693731 267.19008 
L 172.80741 266.886401 
L 172.883197 266.886401 
L 173.03477 266.279042 
L 173.110557 266.279042 
L 173.224237 265.975362 
L 173.300024 265.975362 
L 173.451597 265.368003 
L 173.527383 265.368003 
L 173.641063 265.064324 
L 173.71685 265.064324 
L 173.868423 264.456965 
L 173.94421 264.456965 
L 174.05789 264.153285 
L 174.247356 264.153285 
L 174.398929 263.545926 
L 174.512609 263.545926 
L 174.626289 263.242247 
L 174.664183 263.242247 
L 174.815756 262.634888 
L 175.081009 262.634888 
L 175.232582 262.027529 
L 175.497835 262.027529 
L 175.649409 261.42017 
L 175.914662 261.42017 
L 176.028342 261.11649 
L 176.293595 261.11649 
L 176.483061 260.205452 
L 176.710421 260.205452 
L 176.899888 259.294414 
L 177.127248 259.294414 
L 177.316714 258.383375 
L 177.581967 258.383375 
L 177.733541 257.776016 
L 177.923007 257.776016 
L 178.112474 256.864978 
L 178.339834 256.864978 
L 178.5293 255.953939 
L 178.794553 255.953939 
L 178.98402 255.042901 
L 179.21138 255.042901 
L 179.400846 254.131862 
L 179.628206 254.131862 
L 179.779779 253.524503 
L 180.045033 253.524503 
L 180.196606 252.917144 
L 180.272392 252.917144 
L 180.386072 252.613465 
L 180.461859 252.613465 
L 180.613432 252.006106 
L 180.689219 252.006106 
L 180.802899 251.702426 
L 180.878685 251.702426 
L 181.030259 251.095067 
L 181.106045 251.095067 
L 181.219725 250.791388 
L 181.295512 250.791388 
L 181.447085 250.184029 
L 181.522872 250.184029 
L 181.636552 249.880349 
L 181.712338 249.880349 
L 181.863911 249.27299 
L 182.129165 249.27299 
L 182.280738 248.665631 
L 182.318631 248.665631 
L 182.432311 248.361952 
L 182.545991 248.361952 
L 182.697564 247.754593 
L 182.735458 247.754593 
L 182.849137 247.450913 
L 182.962817 247.450913 
L 183.114391 246.843555 
L 183.152284 246.843555 
L 183.265964 246.539875 
L 183.379644 246.539875 
L 183.531217 245.932516 
L 183.56911 245.932516 
L 183.68279 245.628837 
L 183.79647 245.628837 
L 183.948043 245.021478 
L 183.985937 245.021478 
L 184.099617 244.717798 
L 184.213297 244.717798 
L 184.36487 244.110439 
L 184.402763 244.110439 
L 184.516443 243.80676 
L 184.630123 243.80676 
L 184.743803 243.50308 
L 184.81959 243.50308 
L 184.933269 243.199401 
L 185.084843 243.199401 
L 185.198523 242.895721 
L 185.236416 242.895721 
L 185.350096 242.592042 
L 185.501669 242.592042 
L 185.691136 241.681003 
L 185.918496 241.681003 
L 186.107962 240.769965 
L 186.335322 240.769965 
L 186.486895 240.162606 
L 186.752148 240.162606 
L 186.903722 239.555247 
L 187.168975 239.555247 
L 187.358441 238.644208 
L 187.585801 238.644208 
L 187.775268 237.73317 
L 188.040521 237.73317 
L 188.192094 237.125811 
L 188.381561 237.125811 
L 188.571027 236.214772 
L 188.798387 236.214772 
L 188.987854 235.303734 
L 189.215213 235.303734 
L 189.366787 234.696375 
L 189.51836 234.696375 
L 189.669933 234.089016 
L 189.707826 234.089016 
L 189.821506 233.785337 
L 189.935186 233.785337 
L 190.08676 233.177978 
L 190.124653 233.177978 
L 190.238333 232.874298 
L 190.352013 232.874298 
L 190.465693 232.570619 
L 190.541479 232.570619 
L 190.655159 232.266939 
L 190.768839 232.266939 
L 190.920412 231.65958 
L 190.958306 231.65958 
L 191.071986 231.355901 
L 191.185665 231.355901 
L 191.337239 230.748542 
L 191.375132 230.748542 
L 191.488812 230.444862 
L 191.602492 230.444862 
L 191.754065 229.837503 
L 191.791958 229.837503 
L 191.905638 229.533824 
L 192.019318 229.533824 
L 192.170892 228.926465 
L 192.208785 228.926465 
L 192.322465 228.622785 
L 192.436145 228.622785 
L 192.549825 228.319106 
L 192.625611 228.319106 
L 192.739291 228.015426 
L 192.852971 228.015426 
L 192.966651 227.711747 
L 193.042438 227.711747 
L 193.156118 227.408067 
L 193.269798 227.408067 
L 193.421371 226.800708 
L 193.459264 226.800708 
L 193.572944 226.497029 
L 193.686624 226.497029 
L 193.838197 225.88967 
L 193.87609 225.88967 
L 193.98977 225.58599 
L 194.10345 225.58599 
L 194.255024 224.978631 
L 194.292917 224.978631 
L 194.406597 224.674952 
L 194.520277 224.674952 
L 194.67185 224.067593 
L 194.709743 224.067593 
L 194.823423 223.763913 
L 194.937103 223.763913 
L 195.088676 223.156554 
L 195.12657 223.156554 
L 195.24025 222.852875 
L 195.35393 222.852875 
L 195.505503 222.245516 
L 195.543396 222.245516 
L 195.657076 221.941836 
L 195.770756 221.941836 
L 195.922329 221.334478 
L 195.960222 221.334478 
L 196.073902 221.030798 
L 196.187582 221.030798 
L 196.339156 220.423439 
L 196.377049 220.423439 
L 196.490729 220.11976 
L 196.604409 220.11976 
L 196.755982 219.512401 
L 196.793875 219.512401 
L 196.907555 219.208721 
L 197.021235 219.208721 
L 197.172808 218.601362 
L 197.210702 218.601362 
L 197.324382 218.297683 
L 197.551741 218.297683 
L 197.703315 217.690324 
L 197.816995 217.690324 
L 197.930675 217.386644 
L 197.968568 217.386644 
L 198.120141 216.779285 
L 198.233821 216.779285 
L 198.347501 216.475606 
L 198.385394 216.475606 
L 198.536967 215.868247 
L 198.650647 215.868247 
L 198.764327 215.564567 
L 198.802221 215.564567 
L 198.915901 215.260888 
L 199.067474 215.260888 
L 199.181154 214.653529 
L 199.219047 214.653529 
L 199.332727 214.349849 
L 199.4843 214.349849 
L 199.59798 214.04617 
L 199.863233 214.04617 
L 199.976913 213.74249 
L 200.014807 213.74249 
L 200.16638 213.135131 
L 200.28006 213.135131 
L 200.39374 212.831452 
L 200.431633 212.831452 
L 200.583206 212.224093 
L 200.696886 212.224093 
L 200.810566 211.920413 
L 200.848459 211.920413 
L 201.000033 211.313054 
L 201.113713 211.313054 
L 201.227392 211.009375 
L 201.265286 211.009375 
L 201.416859 210.402016 
L 201.530539 210.402016 
L 201.644219 210.098336 
L 201.682112 210.098336 
L 201.833685 209.490977 
L 201.947365 209.490977 
L 202.061045 209.187298 
L 202.098939 209.187298 
L 202.250512 208.579939 
L 202.364192 208.579939 
L 202.477872 208.27626 
L 202.515765 208.27626 
L 202.667338 207.668901 
L 202.781018 207.668901 
L 202.894698 207.365221 
L 202.970485 207.365221 
L 203.122058 206.757862 
L 203.197845 206.757862 
L 203.311524 206.454183 
L 203.387311 206.454183 
L 203.538884 205.846824 
L 203.614671 205.846824 
L 203.728351 205.543144 
L 203.804137 205.543144 
L 203.955711 204.935785 
L 204.031497 204.935785 
L 204.145177 204.632106 
L 204.220964 204.632106 
L 204.372537 204.024747 
L 204.448324 204.024747 
L 204.562004 203.721067 
L 204.63779 203.721067 
L 204.789364 203.113708 
L 204.86515 203.113708 
L 204.97883 202.810029 
L 205.054617 202.810029 
L 205.20619 202.20267 
L 205.281977 202.20267 
L 205.395656 201.89899 
L 205.471443 201.89899 
L 205.623016 201.291631 
L 205.698803 201.291631 
L 205.812483 200.987952 
L 205.88827 200.987952 
L 206.039843 200.380593 
L 206.115629 200.380593 
L 206.229309 200.076913 
L 206.380883 200.076913 
L 206.494562 199.773234 
L 206.797709 199.773234 
L 206.949282 199.165875 
L 207.214535 199.165875 
L 207.366109 198.254836 
L 207.631362 198.254836 
L 207.782935 197.343798 
L 208.048188 197.343798 
L 208.161868 196.736439 
L 208.465015 196.736439 
L 208.616588 195.825401 
L 208.881841 195.825401 
L 209.033414 194.914362 
L 209.298667 194.914362 
L 209.450241 194.003324 
L 209.715494 194.003324 
L 209.867067 193.395965 
L 210.13232 193.395965 
L 210.321787 192.484926 
L 210.624933 192.484926 
L 210.776506 191.877567 
L 210.92808 191.877567 
L 211.117546 190.966529 
L 211.344906 190.966529 
L 211.534373 190.05549 
L 211.875412 190.05549 
L 211.989092 189.751811 
L 212.102772 189.751811 
L 212.216452 189.448131 
L 212.292239 189.448131 
L 212.405919 189.144452 
L 212.443812 189.144452 
L 212.595385 188.537093 
L 212.709065 188.537093 
L 212.822745 188.233413 
L 212.860638 188.233413 
L 213.012212 187.626054 
L 213.125892 187.626054 
L 213.239572 187.322375 
L 213.277465 187.322375 
L 213.429038 186.715016 
L 213.542718 186.715016 
L 213.656398 186.411336 
L 213.694291 186.411336 
L 213.845864 185.803977 
L 213.959544 185.803977 
L 214.073224 185.500298 
L 214.111118 185.500298 
L 214.262691 184.892939 
L 214.376371 184.892939 
L 214.490051 184.589259 
L 214.527944 184.589259 
L 214.679517 183.9819 
L 214.793197 183.9819 
L 214.906877 183.678221 
L 214.94477 183.678221 
L 215.096344 183.070862 
L 215.210024 183.070862 
L 215.323704 182.767183 
L 215.361597 182.767183 
L 215.475277 182.463503 
L 215.62685 182.463503 
L 215.74053 182.159824 
L 215.85421 182.159824 
L 215.96789 181.856144 
L 216.043676 181.856144 
L 216.157356 181.552465 
L 216.271036 181.552465 
L 216.422609 180.945106 
L 216.460503 180.945106 
L 216.574183 180.641426 
L 216.687863 180.641426 
L 216.839436 180.034067 
L 216.877329 180.034067 
L 216.991009 179.730388 
L 217.104689 179.730388 
L 217.256262 179.123029 
L 217.521515 179.123029 
L 217.635195 178.819349 
L 217.673089 178.819349 
L 217.786769 178.51567 
L 217.938342 178.51567 
L 218.052022 177.908311 
L 218.089915 177.908311 
L 218.203595 177.604631 
L 218.355168 177.604631 
L 218.468848 176.997272 
L 218.506741 176.997272 
L 218.620421 176.693593 
L 218.771995 176.693593 
L 218.885675 176.086234 
L 218.923568 176.086234 
L 219.037248 175.782554 
L 219.188821 175.782554 
L 219.302501 175.478875 
L 219.340394 175.478875 
L 219.491968 174.871516 
L 219.757221 174.871516 
L 219.946687 173.960477 
L 220.21194 173.960477 
L 220.32562 173.353118 
L 220.55298 173.353118 
L 220.742447 172.44208 
L 220.969807 172.44208 
L 221.159273 171.531041 
L 221.386633 171.531041 
L 221.5761 170.620003 
L 221.803459 170.620003 
L 221.992926 169.708965 
L 222.220286 169.708965 
L 222.409752 168.797926 
L 222.637112 168.797926 
L 222.788685 168.190567 
L 223.053939 168.190567 
L 223.205512 167.583208 
L 223.470765 167.583208 
L 223.660232 166.67217 
L 223.887591 166.67217 
L 224.077058 165.761131 
L 224.304418 165.761131 
L 224.493884 164.850093 
L 224.721244 164.850093 
L 224.910711 163.939054 
L 225.251751 163.939054 
L 225.403324 163.331695 
L 225.59279 163.331695 
L 225.782257 162.420657 
L 226.009617 162.420657 
L 226.199083 161.509618 
L 226.426443 161.509618 
L 226.61591 160.59858 
L 226.84327 160.59858 
L 226.994843 159.991221 
L 227.108523 159.991221 
L 227.222203 159.687541 
L 227.260096 159.687541 
L 227.411669 159.080182 
L 227.525349 159.080182 
L 227.639029 158.776503 
L 227.676922 158.776503 
L 227.828496 158.169144 
L 227.942176 158.169144 
L 228.055855 157.865465 
L 228.093749 157.865465 
L 228.245322 157.258106 
L 228.396895 157.258106 
L 228.548468 156.650747 
L 228.624255 156.650747 
L 228.737935 156.347067 
L 228.813722 156.347067 
L 228.965295 155.739708 
L 229.041081 155.739708 
L 229.154761 155.436029 
L 229.230548 155.436029 
L 229.382121 154.82867 
L 229.457908 154.82867 
L 229.571588 154.52499 
L 229.647374 154.52499 
L 229.761054 154.221311 
L 229.874734 154.221311 
L 229.988414 153.917631 
L 230.064201 153.917631 
L 230.215774 153.310272 
L 230.291561 153.310272 
L 230.405241 153.006593 
L 230.481027 153.006593 
L 230.6326 152.399234 
L 230.708387 152.399234 
L 230.822067 152.095554 
L 230.897854 152.095554 
L 231.049427 151.488195 
L 231.125213 151.488195 
L 231.238893 151.184516 
L 231.31468 151.184516 
L 231.466253 150.577157 
L 231.579933 150.577157 
L 231.693613 150.273477 
L 231.731506 150.273477 
L 231.88308 149.666118 
L 231.99676 149.666118 
L 232.11044 149.362439 
L 232.148333 149.362439 
L 232.299906 148.75508 
L 232.565159 148.75508 
L 232.716732 148.147721 
L 232.830412 148.147721 
L 232.944092 147.844041 
L 232.981986 147.844041 
L 233.133559 147.236682 
L 233.247239 147.236682 
L 233.360919 146.933003 
L 233.398812 146.933003 
L 233.550385 146.325644 
L 233.664065 146.325644 
L 233.777745 146.021964 
L 233.815638 146.021964 
L 233.967212 145.414605 
L 234.080892 145.414605 
L 234.194572 145.110926 
L 234.232465 145.110926 
L 234.384038 144.503567 
L 234.497718 144.503567 
L 234.611398 144.199888 
L 234.649291 144.199888 
L 234.762971 143.896208 
L 234.914544 143.896208 
L 235.028224 143.592529 
L 235.066118 143.592529 
L 235.179798 143.288849 
L 235.217691 143.288849 
L 235.369264 142.68149 
L 235.482944 142.68149 
L 235.596624 142.377811 
L 235.634517 142.377811 
L 235.786091 141.770452 
L 235.89977 141.770452 
L 236.01345 141.466772 
L 236.051344 141.466772 
L 236.165024 141.163093 
L 236.316597 141.163093 
L 236.430277 140.555734 
L 236.46817 140.555734 
L 236.58185 140.252054 
L 236.733423 140.252054 
L 236.847103 139.644695 
L 236.884997 139.644695 
L 236.998676 139.341016 
L 237.15025 139.341016 
L 237.26393 138.733657 
L 237.301823 138.733657 
L 237.415503 138.429977 
L 237.567076 138.429977 
L 237.680756 137.822618 
L 237.718649 137.822618 
L 237.832329 137.518939 
L 237.983902 137.518939 
L 238.097582 137.215259 
L 238.135476 137.215259 
L 238.249156 136.91158 
L 238.362836 136.91158 
L 238.514409 136.304221 
L 238.552302 136.304221 
L 238.665982 136.000541 
L 238.779662 136.000541 
L 238.931235 135.393182 
L 238.969129 135.393182 
L 239.082808 135.089503 
L 239.196488 135.089503 
L 239.348062 134.482144 
L 239.385955 134.482144 
L 239.499635 134.178464 
L 239.613315 134.178464 
L 239.764888 133.571105 
L 239.802781 133.571105 
L 239.916461 133.267426 
L 240.030141 133.267426 
L 240.181714 132.660067 
L 240.219608 132.660067 
L 240.333288 132.356388 
L 240.484861 132.356388 
L 240.598541 132.052708 
L 240.636434 132.052708 
L 240.750114 131.445349 
L 240.901687 131.445349 
L 241.015367 131.14167 
L 241.053261 131.14167 
L 241.16694 130.534311 
L 241.318514 130.534311 
L 241.432194 130.230631 
L 241.470087 130.230631 
L 241.583767 129.623272 
L 241.73534 129.623272 
L 241.84902 129.319593 
L 241.886913 129.319593 
L 242.000593 128.712234 
L 242.30374 128.712234 
L 242.455313 128.104875 
L 242.493206 128.104875 
L 242.606886 127.801195 
L 242.720566 127.801195 
L 242.872139 127.193836 
L 242.910033 127.193836 
L 243.023713 126.890157 
L 243.137393 126.890157 
L 243.288966 126.282798 
L 243.326859 126.282798 
L 243.440539 125.979118 
L 243.554219 125.979118 
L 243.705792 125.371759 
L 243.933152 125.371759 
L 244.084725 124.7644 
L 244.349978 124.7644 
L 244.501552 124.157041 
L 244.539445 124.157041 
L 244.653125 123.853362 
L 244.766805 123.853362 
L 244.918378 123.246003 
L 244.956271 123.246003 
L 245.069951 122.942323 
L 245.183631 122.942323 
L 245.335204 122.334964 
L 245.373098 122.334964 
L 245.486778 122.031285 
L 245.600458 122.031285 
L 245.752031 121.423926 
L 245.789924 121.423926 
L 245.903604 121.120246 
L 246.017284 121.120246 
L 246.168857 120.512887 
L 246.206751 120.512887 
L 246.320431 120.209208 
L 246.43411 120.209208 
L 246.585684 119.601849 
L 246.623577 119.601849 
L 246.737257 119.29817 
L 246.850937 119.29817 
L 247.00251 118.690811 
L 247.040403 118.690811 
L 247.154083 118.387131 
L 247.267763 118.387131 
L 247.419336 117.779772 
L 247.45723 117.779772 
L 247.57091 117.476093 
L 247.68459 117.476093 
L 247.836163 116.868734 
L 247.874056 116.868734 
L 247.987736 116.565054 
L 248.101416 116.565054 
L 248.252989 115.957695 
L 248.290883 115.957695 
L 248.404563 115.654016 
L 248.518242 115.654016 
L 248.669816 115.046657 
L 248.707709 115.046657 
L 248.821389 114.742977 
L 248.935069 114.742977 
L 249.086642 114.135618 
L 249.124535 114.135618 
L 249.238215 113.831939 
L 249.351895 113.831939 
L 249.503468 113.22458 
L 249.541362 113.22458 
L 249.655042 112.9209 
L 249.768722 112.9209 
L 249.882402 112.617221 
L 249.958188 112.617221 
L 250.109761 112.009862 
L 250.185548 112.009862 
L 250.299228 111.706182 
L 250.375015 111.706182 
L 250.526588 111.098823 
L 250.602374 111.098823 
L 250.716054 110.795144 
L 250.791841 110.795144 
L 250.943414 110.187785 
L 251.019201 110.187785 
L 251.132881 109.884105 
L 251.208667 109.884105 
L 251.322347 109.580426 
L 251.436027 109.580426 
L 251.587601 108.973067 
L 251.625494 108.973067 
L 251.739174 108.669387 
L 251.852854 108.669387 
L 252.004427 108.062028 
L 252.04232 108.062028 
L 252.156 107.758349 
L 252.26968 107.758349 
L 252.421253 107.15099 
L 252.459147 107.15099 
L 252.572827 106.847311 
L 252.7244 106.847311 
L 252.83808 106.543631 
L 252.875973 106.543631 
L 252.989653 106.239952 
L 253.06544 106.239952 
L 253.217013 105.632593 
L 253.292799 105.632593 
L 253.406479 105.328913 
L 253.482266 105.328913 
L 253.633839 104.721554 
L 253.709626 104.721554 
L 253.823306 104.417875 
L 253.899092 104.417875 
L 254.050666 103.810516 
L 254.126452 103.810516 
L 254.240132 103.506836 
L 254.315919 103.506836 
L 254.467492 102.899477 
L 254.543279 102.899477 
L 254.656959 102.595798 
L 254.732745 102.595798 
L 254.884318 101.988439 
L 254.960105 101.988439 
L 255.073785 101.684759 
L 255.149572 101.684759 
L 255.301145 101.0774 
L 255.376931 101.0774 
L 255.490611 100.773721 
L 255.566398 100.773721 
L 255.717971 100.166362 
L 255.793758 100.166362 
L 255.907438 99.862682 
L 255.983224 99.862682 
L 256.134798 99.255323 
L 256.210584 99.255323 
L 256.324264 98.951644 
L 256.400051 98.951644 
L 256.551624 98.344285 
L 256.627411 98.344285 
L 256.741091 98.040605 
L 256.816877 98.040605 
L 256.96845 97.433246 
L 257.044237 97.433246 
L 257.157917 97.129567 
L 257.233704 97.129567 
L 257.385277 96.522208 
L 257.461063 96.522208 
L 257.574743 96.218528 
L 257.65053 96.218528 
L 257.802103 95.611169 
L 257.87789 95.611169 
L 257.99157 95.30749 
L 258.067356 95.30749 
L 258.21893 94.700131 
L 258.294716 94.700131 
L 258.408396 94.396451 
L 258.484183 94.396451 
L 258.635756 93.789093 
L 258.711543 93.789093 
L 258.825223 93.485413 
L 258.976796 93.485413 
L 259.090476 93.181734 
L 259.279942 93.181734 
L 259.469409 92.270695 
L 259.696769 92.270695 
L 259.886235 91.359657 
L 260.113595 91.359657 
L 260.303062 90.448618 
L 260.530421 90.448618 
L 260.719888 89.53758 
L 260.947248 89.53758 
L 261.136714 88.626541 
L 261.364074 88.626541 
L 261.553541 87.715503 
L 261.780901 87.715503 
L 261.970367 86.804464 
L 262.197727 86.804464 
L 262.387194 85.893426 
L 262.614554 85.893426 
L 262.80402 84.982387 
L 263.03138 84.982387 
L 263.220846 84.071349 
L 263.448206 84.071349 
L 263.637673 83.16031 
L 263.865033 83.16031 
L 264.054499 82.249272 
L 264.281859 82.249272 
L 264.471326 81.338234 
L 264.698686 81.338234 
L 264.888152 80.427195 
L 265.115512 80.427195 
L 265.304978 79.516157 
L 265.532338 79.516157 
L 265.721805 78.605118 
L 265.949165 78.605118 
L 266.138631 77.69408 
L 266.365991 77.69408 
L 266.555458 76.783041 
L 266.782818 76.783041 
L 266.934391 76.175682 
L 267.010177 76.175682 
L 267.123857 75.872003 
L 267.199644 75.872003 
L 267.351217 75.264644 
L 267.427004 75.264644 
L 267.540684 74.960964 
L 267.61647 74.960964 
L 267.73015 74.657285 
L 267.84383 74.657285 
L 267.95751 74.353605 
L 268.033297 74.353605 
L 268.146977 74.049926 
L 268.222763 74.049926 
L 268.336443 73.746246 
L 268.450123 73.746246 
L 268.563803 73.442567 
L 268.63959 73.442567 
L 268.75327 73.138887 
L 268.86695 73.138887 
L 268.980629 72.531528 
L 269.056416 72.531528 
L 269.170096 72.227849 
L 269.283776 72.227849 
L 269.397456 71.62049 
L 269.473242 71.62049 
L 269.586922 71.31681 
L 269.700602 71.31681 
L 269.814282 70.709451 
L 269.890069 70.709451 
L 270.003749 70.405772 
L 270.117429 70.405772 
L 270.231109 69.798413 
L 270.306895 69.798413 
L 270.420575 69.494733 
L 270.534255 69.494733 
L 270.647935 68.887374 
L 270.723722 68.887374 
L 270.837402 68.583695 
L 270.951082 68.583695 
L 271.064761 67.976336 
L 271.140548 67.976336 
L 271.254228 67.672657 
L 271.367908 67.672657 
L 271.481588 67.065298 
L 271.557375 67.065298 
L 271.671054 66.761618 
L 271.784734 66.761618 
L 271.936308 66.154259 
L 271.974201 66.154259 
L 272.087881 65.85058 
L 272.201561 65.85058 
L 272.353134 65.243221 
L 272.391027 65.243221 
L 272.504707 64.939541 
L 272.618387 64.939541 
L 272.732067 64.635862 
L 272.807854 64.635862 
L 272.921534 64.332182 
L 273.035214 64.332182 
L 273.148893 64.028503 
L 273.22468 64.028503 
L 273.33836 63.724823 
L 273.45204 63.724823 
L 273.56572 63.421144 
L 273.641507 63.421144 
L 273.755186 63.117464 
L 273.868866 63.117464 
L 273.982546 62.813785 
L 274.058333 62.813785 
L 274.172013 62.510105 
L 274.285693 62.510105 
L 274.399373 62.206426 
L 274.475159 62.206426 
L 274.588839 61.902746 
L 274.702519 61.902746 
L 274.816199 61.599067 
L 274.891986 61.599067 
L 275.005666 61.295387 
L 275.119346 61.295387 
L 275.233026 60.991708 
L 275.308812 60.991708 
L 275.422492 60.688028 
L 275.536172 60.688028 
L 275.649852 60.384349 
L 275.725639 60.384349 
L 275.839318 60.080669 
L 275.952998 60.080669 
L 276.066678 59.77699 
L 276.369825 59.77699 
L 276.483505 59.47331 
L 276.559291 59.47331 
L 276.672971 59.169631 
L 276.786651 59.169631 
L 276.900331 58.865951 
L 276.976118 58.865951 
L 277.089798 58.562272 
L 277.203478 58.562272 
L 277.317158 58.258592 
L 277.392944 58.258592 
L 277.506624 57.954913 
L 277.620304 57.954913 
L 277.733984 57.651233 
L 277.809771 57.651233 
L 277.92345 57.347554 
L 278.03713 57.347554 
L 278.15081 57.043874 
L 278.226597 57.043874 
L 278.340277 56.740195 
L 278.453957 56.740195 
L 278.567637 56.436515 
L 278.643423 56.436515 
L 278.757103 56.132836 
L 278.870783 56.132836 
L 278.984463 55.829157 
L 279.06025 55.829157 
L 279.17393 55.525477 
L 279.28761 55.525477 
L 279.40129 55.221798 
L 279.477076 55.221798 
L 279.590756 54.918118 
L 279.704436 54.918118 
L 279.818116 54.614439 
L 279.893903 54.614439 
L 280.007582 54.310759 
L 280.121262 54.310759 
L 280.234942 54.00708 
L 280.538089 54.00708 
L 280.651769 53.7034 
L 280.954915 53.7034 
L 281.068595 53.399721 
L 281.371742 53.399721 
L 281.485422 53.096041 
L 281.788568 53.096041 
L 281.902248 52.792362 
L 282.205394 52.792362 
L 282.319074 52.488682 
L 282.622221 52.488682 
L 282.735901 52.185003 
L 283.039047 52.185003 
L 283.152727 51.881323 
L 283.455874 51.881323 
L 283.569554 51.577644 
L 283.8727 51.577644 
L 283.98638 51.273964 
L 284.289526 51.273964 
L 284.403206 50.970285 
L 284.706353 50.970285 
L 284.820033 50.666605 
L 285.123179 50.666605 
L 285.236859 50.362926 
L 285.540006 50.362926 
L 285.653686 50.059246 
L 285.956832 50.059246 
L 286.070512 49.755567 
L 286.373658 49.755567 
L 286.487338 49.451887 
L 286.790485 49.451887 
L 286.904165 49.148208 
L 287.207311 49.148208 
L 287.320991 48.844528 
L 287.624138 48.844528 
L 287.737818 48.540849 
L 288.040964 48.540849 
L 288.154644 48.237169 
L 288.45779 48.237169 
L 288.57147 47.93349 
L 288.874617 47.93349 
L 288.988297 47.62981 
L 289.291443 47.62981 
L 289.405123 47.326131 
L 289.70827 47.326131 
L 289.82195 47.022451 
L 290.125096 47.022451 
L 290.238776 46.718772 
L 290.541922 46.718772 
L 290.655602 46.415092 
L 290.958749 46.415092 
L 291.072429 46.111413 
L 291.375575 46.111413 
L 291.489255 45.807733 
L 291.792402 45.807733 
L 291.906082 45.504054 
L 292.209228 45.504054 
L 292.322908 45.200374 
L 292.626054 45.200374 
L 292.739734 44.896695 
L 293.459707 44.896695 
L 293.573387 44.593015 
L 293.876534 44.593015 
L 293.990214 44.289336 
L 294.29336 44.289336 
L 294.40704 43.985656 
L 294.710186 43.985656 
L 294.823866 43.681977 
L 295.127013 43.681977 
L 295.240693 43.378297 
L 295.543839 43.378297 
L 295.657519 43.074618 
L 295.960666 43.074618 
L 296.074346 42.770939 
L 296.377492 42.770939 
L 296.491172 42.467259 
L 296.794318 42.467259 
L 296.907998 42.16358 
L 524.381534 42.16358 
L 524.381534 42.16358 
" clip-path="url(#pce732d465b)" style="fill: none; stroke: #595959; stroke-width: 2; stroke-linecap: square"/>
   </g>
   <g id="patch_3">
    <path d="M 46.965625 458.918125 
L 46.965625 22.318125 
" style="fill: none; stroke: #000000; stroke-width: 0.8; stroke-linejoin: miter; stroke-linecap: square"/>
   </g>
   <g id="patch_4">
    <path d="M 547.115625 458.918125 
L 547.115625 22.318125 
" style="fill: none; stroke: #000000; stroke-width: 0.8; stroke-linejoin: miter; stroke-linecap: square"/>
   </g>
   <g id="patch_5">
    <path d="M 46.965625 458.918125 
L 547.115625 458.918125 
" style="fill: none; stroke: #000000; stroke-width: 0.8; stroke-linejoin: miter; stroke-linecap: square"/>
   </g>
   <g id="patch_6">
    <path d="M 46.965625 22.318125 
L 547.115625 22.318125 
" style="fill: none; stroke: #000000; stroke-width: 0.8; stroke-linejoin: miter; stroke-linecap: square"/>
   </g>
   <g id="text_15">
    <!-- Telomeric Motif Distribution: A_bucephala -->
    <g transform="translate(155.373125 16.318125) scale(0.12 -0.12)">
     <defs>
      <path id="DejaVuSans-Bold-54" d="M 31 4666 
L 4331 4666 
L 4331 3756 
L 2784 3756 
L 2784 0 
L 1581 0 
L 1581 3756 
L 31 3756 
L 31 4666 
z
" transform="scale(0.015625)"/>
      <path id="DejaVuSans-Bold-65" d="M 4031 1759 
L 4031 1441 
L 1416 1441 
Q 1456 1047 1700 850 
Q 1944 653 2381 653 
Q 2734 653 3104 758 
Q 3475 863 3866 1075 
L 3866 213 
Q 3469 63 3072 -14 
Q 2675 -91 2278 -91 
Q 1328 -91 801 392 
Q 275 875 275 1747 
Q 275 2603 792 3093 
Q 1309 3584 2216 3584 
Q 3041 3584 3536 3087 
Q 4031 2591 4031 1759 
z
M 2881 2131 
Q 2881 2450 2695 2645 
Q 2509 2841 2209 2841 
Q 1884 2841 1681 2658 
Q 1478 2475 1428 2131 
L 2881 2131 
z
" transform="scale(0.015625)"/>
      <path id="DejaVuSans-Bold-6c" d="M 538 4863 
L 1656 4863 
L 1656 0 
L 538 0 
L 538 4863 
z
" transform="scale(0.015625)"/>
      <path id="DejaVuSans-Bold-6f" d="M 2203 2784 
Q 1831 2784 1636 2517 
Q 1441 2250 1441 1747 
Q 1441 1244 1636 976 
Q 1831 709 2203 709 
Q 2569 709 2762 976 
Q 2956 1244 2956 1747 
Q 2956 2250 2762 2517 
Q 2569 2784 2203 2784 
z
M 2203 3584 
Q 3106 3584 3614 3096 
Q 4122 2609 4122 1747 
Q 4122 884 3614 396 
Q 3106 -91 2203 -91 
Q 1297 -91 786 396 
Q 275 884 275 1747 
Q 275 2609 786 3096 
Q 1297 3584 2203 3584 
z
" transform="scale(0.015625)"/>
      <path id="DejaVuSans-Bold-6d" d="M 3781 2919 
Q 3994 3244 4286 3414 
Q 4578 3584 4928 3584 
Q 5531 3584 5847 3212 
Q 6163 2841 6163 2131 
L 6163 0 
L 5038 0 
L 5038 1825 
Q 5041 1866 5042 1909 
Q 5044 1953 5044 2034 
Q 5044 2406 4934 2573 
Q 4825 2741 4581 2741 
Q 4263 2741 4089 2478 
Q 3916 2216 3909 1719 
L 3909 0 
L 2784 0 
L 2784 1825 
Q 2784 2406 2684 2573 
Q 2584 2741 2328 2741 
Q 2006 2741 1831 2477 
Q 1656 2213 1656 1722 
L 1656 0 
L 531 0 
L 531 3500 
L 1656 3500 
L 1656 2988 
Q 1863 3284 2130 3434 
Q 2397 3584 2719 3584 
Q 3081 3584 3359 3409 
Q 3638 3234 3781 2919 
z
" transform="scale(0.015625)"/>
      <path id="DejaVuSans-Bold-72" d="M 3138 2547 
Q 2991 2616 2845 2648 
Q 2700 2681 2553 2681 
Q 2122 2681 1889 2404 
Q 1656 2128 1656 1613 
L 1656 0 
L 538 0 
L 538 3500 
L 1656 3500 
L 1656 2925 
Q 1872 3269 2151 3426 
Q 2431 3584 2822 3584 
Q 2878 3584 2943 3579 
Q 3009 3575 3134 3559 
L 3138 2547 
z
" transform="scale(0.015625)"/>
      <path id="DejaVuSans-Bold-69" d="M 538 3500 
L 1656 3500 
L 1656 0 
L 538 0 
L 538 3500 
z
M 538 4863 
L 1656 4863 
L 1656 3950 
L 538 3950 
L 538 4863 
z
" transform="scale(0.015625)"/>
      <path id="DejaVuSans-Bold-63" d="M 3366 3391 
L 3366 2478 
Q 3138 2634 2908 2709 
Q 2678 2784 2431 2784 
Q 1963 2784 1702 2511 
Q 1441 2238 1441 1747 
Q 1441 1256 1702 982 
Q 1963 709 2431 709 
Q 2694 709 2930 787 
Q 3166 866 3366 1019 
L 3366 103 
Q 3103 6 2833 -42 
Q 2563 -91 2291 -91 
Q 1344 -91 809 395 
Q 275 881 275 1747 
Q 275 2613 809 3098 
Q 1344 3584 2291 3584 
Q 2566 3584 2833 3536 
Q 3100 3488 3366 3391 
z
" transform="scale(0.015625)"/>
      <path id="DejaVuSans-Bold-20" transform="scale(0.015625)"/>
      <path id="DejaVuSans-Bold-4d" d="M 588 4666 
L 2119 4666 
L 3181 2169 
L 4250 4666 
L 5778 4666 
L 5778 0 
L 4641 0 
L 4641 3413 
L 3566 897 
L 2803 897 
L 1728 3413 
L 1728 0 
L 588 0 
L 588 4666 
z
" transform="scale(0.015625)"/>
      <path id="DejaVuSans-Bold-74" d="M 1759 4494 
L 1759 3500 
L 2913 3500 
L 2913 2700 
L 1759 2700 
L 1759 1216 
Q 1759 972 1856 886 
Q 1953 800 2241 800 
L 2816 800 
L 2816 0 
L 1856 0 
Q 1194 0 917 276 
Q 641 553 641 1216 
L 641 2700 
L 84 2700 
L 84 3500 
L 641 3500 
L 641 4494 
L 1759 4494 
z
" transform="scale(0.015625)"/>
      <path id="DejaVuSans-Bold-66" d="M 2841 4863 
L 2841 4128 
L 2222 4128 
Q 1984 4128 1890 4042 
Q 1797 3956 1797 3744 
L 1797 3500 
L 2753 3500 
L 2753 2700 
L 1797 2700 
L 1797 0 
L 678 0 
L 678 2700 
L 122 2700 
L 122 3500 
L 678 3500 
L 678 3744 
Q 678 4316 997 4589 
Q 1316 4863 1984 4863 
L 2841 4863 
z
" transform="scale(0.015625)"/>
      <path id="DejaVuSans-Bold-44" d="M 1791 3756 
L 1791 909 
L 2222 909 
Q 2959 909 3348 1275 
Q 3738 1641 3738 2338 
Q 3738 3031 3350 3393 
Q 2963 3756 2222 3756 
L 1791 3756 
z
M 588 4666 
L 1856 4666 
Q 2919 4666 3439 4514 
Q 3959 4363 4331 4000 
Q 4659 3684 4818 3271 
Q 4978 2859 4978 2338 
Q 4978 1809 4818 1395 
Q 4659 981 4331 666 
Q 3956 303 3431 151 
Q 2906 0 1856 0 
L 588 0 
L 588 4666 
z
" transform="scale(0.015625)"/>
      <path id="DejaVuSans-Bold-73" d="M 3272 3391 
L 3272 2541 
Q 2913 2691 2578 2766 
Q 2244 2841 1947 2841 
Q 1628 2841 1473 2761 
Q 1319 2681 1319 2516 
Q 1319 2381 1436 2309 
Q 1553 2238 1856 2203 
L 2053 2175 
Q 2913 2066 3209 1816 
Q 3506 1566 3506 1031 
Q 3506 472 3093 190 
Q 2681 -91 1863 -91 
Q 1516 -91 1145 -36 
Q 775 19 384 128 
L 384 978 
Q 719 816 1070 734 
Q 1422 653 1784 653 
Q 2113 653 2278 743 
Q 2444 834 2444 1013 
Q 2444 1163 2330 1236 
Q 2216 1309 1875 1350 
L 1678 1375 
Q 931 1469 631 1722 
Q 331 1975 331 2491 
Q 331 3047 712 3315 
Q 1094 3584 1881 3584 
Q 2191 3584 2531 3537 
Q 2872 3491 3272 3391 
z
" transform="scale(0.015625)"/>
      <path id="DejaVuSans-Bold-62" d="M 2400 722 
Q 2759 722 2948 984 
Q 3138 1247 3138 1747 
Q 3138 2247 2948 2509 
Q 2759 2772 2400 2772 
Q 2041 2772 1848 2508 
Q 1656 2244 1656 1747 
Q 1656 1250 1848 986 
Q 2041 722 2400 722 
z
M 1656 2988 
Q 1888 3294 2169 3439 
Q 2450 3584 2816 3584 
Q 3463 3584 3878 3070 
Q 4294 2556 4294 1747 
Q 4294 938 3878 423 
Q 3463 -91 2816 -91 
Q 2450 -91 2169 54 
Q 1888 200 1656 506 
L 1656 0 
L 538 0 
L 538 4863 
L 1656 4863 
L 1656 2988 
z
" transform="scale(0.015625)"/>
      <path id="DejaVuSans-Bold-75" d="M 500 1363 
L 500 3500 
L 1625 3500 
L 1625 3150 
Q 1625 2866 1622 2436 
Q 1619 2006 1619 1863 
Q 1619 1441 1641 1255 
Q 1663 1069 1716 984 
Q 1784 875 1895 815 
Q 2006 756 2150 756 
Q 2500 756 2700 1025 
Q 2900 1294 2900 1772 
L 2900 3500 
L 4019 3500 
L 4019 0 
L 2900 0 
L 2900 506 
Q 2647 200 2364 54 
Q 2081 -91 1741 -91 
Q 1134 -91 817 281 
Q 500 653 500 1363 
z
" transform="scale(0.015625)"/>
      <path id="DejaVuSans-Bold-6e" d="M 4056 2131 
L 4056 0 
L 2931 0 
L 2931 347 
L 2931 1631 
Q 2931 2084 2911 2256 
Q 2891 2428 2841 2509 
Q 2775 2619 2662 2680 
Q 2550 2741 2406 2741 
Q 2056 2741 1856 2470 
Q 1656 2200 1656 1722 
L 1656 0 
L 538 0 
L 538 3500 
L 1656 3500 
L 1656 2988 
Q 1909 3294 2193 3439 
Q 2478 3584 2822 3584 
Q 3428 3584 3742 3212 
Q 4056 2841 4056 2131 
z
" transform="scale(0.015625)"/>
      <path id="DejaVuSans-Bold-3a" d="M 716 3500 
L 1844 3500 
L 1844 2291 
L 716 2291 
L 716 3500 
z
M 716 1209 
L 1844 1209 
L 1844 0 
L 716 0 
L 716 1209 
z
" transform="scale(0.015625)"/>
      <path id="DejaVuSans-Bold-41" d="M 3419 850 
L 1538 850 
L 1241 0 
L 31 0 
L 1759 4666 
L 3194 4666 
L 4922 0 
L 3713 0 
L 3419 850 
z
M 1838 1716 
L 3116 1716 
L 2478 3572 
L 1838 1716 
z
" transform="scale(0.015625)"/>
      <path id="DejaVuSans-Bold-5f" d="M 3200 -916 
L 3200 -1509 
L 0 -1509 
L 0 -916 
L 3200 -916 
z
" transform="scale(0.015625)"/>
      <path id="DejaVuSans-Bold-70" d="M 1656 506 
L 1656 -1331 
L 538 -1331 
L 538 3500 
L 1656 3500 
L 1656 2988 
Q 1888 3294 2169 3439 
Q 2450 3584 2816 3584 
Q 3463 3584 3878 3070 
Q 4294 2556 4294 1747 
Q 4294 938 3878 423 
Q 3463 -91 2816 -91 
Q 2450 -91 2169 54 
Q 1888 200 1656 506 
z
M 2400 2772 
Q 2041 2772 1848 2508 
Q 1656 2244 1656 1747 
Q 1656 1250 1848 986 
Q 2041 722 2400 722 
Q 2759 722 2948 984 
Q 3138 1247 3138 1747 
Q 3138 2247 2948 2509 
Q 2759 2772 2400 2772 
z
" transform="scale(0.015625)"/>
      <path id="DejaVuSans-Bold-68" d="M 4056 2131 
L 4056 0 
L 2931 0 
L 2931 347 
L 2931 1625 
Q 2931 2084 2911 2256 
Q 2891 2428 2841 2509 
Q 2775 2619 2662 2680 
Q 2550 2741 2406 2741 
Q 2056 2741 1856 2470 
Q 1656 2200 1656 1722 
L 1656 0 
L 538 0 
L 538 4863 
L 1656 4863 
L 1656 2988 
Q 1909 3294 2193 3439 
Q 2478 3584 2822 3584 
Q 3428 3584 3742 3212 
Q 4056 2841 4056 2131 
z
" transform="scale(0.015625)"/>
      <path id="DejaVuSans-Bold-61" d="M 2106 1575 
Q 1756 1575 1579 1456 
Q 1403 1338 1403 1106 
Q 1403 894 1545 773 
Q 1688 653 1941 653 
Q 2256 653 2472 879 
Q 2688 1106 2688 1447 
L 2688 1575 
L 2106 1575 
z
M 3816 1997 
L 3816 0 
L 2688 0 
L 2688 519 
Q 2463 200 2181 54 
Q 1900 -91 1497 -91 
Q 953 -91 614 226 
Q 275 544 275 1050 
Q 275 1666 698 1953 
Q 1122 2241 2028 2241 
L 2688 2241 
L 2688 2328 
Q 2688 2594 2478 2717 
Q 2269 2841 1825 2841 
Q 1466 2841 1156 2769 
Q 847 2697 581 2553 
L 581 3406 
Q 941 3494 1303 3539 
Q 1666 3584 2028 3584 
Q 2975 3584 3395 3211 
Q 3816 2838 3816 1997 
z
" transform="scale(0.015625)"/>
     </defs>
     <use xlink:href="#DejaVuSans-Bold-54"/>
     <use xlink:href="#DejaVuSans-Bold-65" transform="translate(54.962891 0)"/>
     <use xlink:href="#DejaVuSans-Bold-6c" transform="translate(122.785156 0)"/>
     <use xlink:href="#DejaVuSans-Bold-6f" transform="translate(157.0625 0)"/>
     <use xlink:href="#DejaVuSans-Bold-6d" transform="translate(225.763672 0)"/>
     <use xlink:href="#DejaVuSans-Bold-65" transform="translate(329.962891 0)"/>
     <use xlink:href="#DejaVuSans-Bold-72" transform="translate(397.785156 0)"/>
     <use xlink:href="#DejaVuSans-Bold-69" transform="translate(447.101562 0)"/>
     <use xlink:href="#DejaVuSans-Bold-63" transform="translate(481.378906 0)"/>
     <use xlink:href="#DejaVuSans-Bold-20" transform="translate(540.65625 0)"/>
     <use xlink:href="#DejaVuSans-Bold-4d" transform="translate(575.470703 0)"/>
     <use xlink:href="#DejaVuSans-Bold-6f" transform="translate(674.982422 0)"/>
     <use xlink:href="#DejaVuSans-Bold-74" transform="translate(743.683594 0)"/>
     <use xlink:href="#DejaVuSans-Bold-69" transform="translate(791.486328 0)"/>
     <use xlink:href="#DejaVuSans-Bold-66" transform="translate(825.763672 0)"/>
     <use xlink:href="#DejaVuSans-Bold-20" transform="translate(869.269531 0)"/>
     <use xlink:href="#DejaVuSans-Bold-44" transform="translate(904.083984 0)"/>
     <use xlink:href="#DejaVuSans-Bold-69" transform="translate(987.091797 0)"/>
     <use xlink:href="#DejaVuSans-Bold-73" transform="translate(1021.369141 0)"/>
     <use xlink:href="#DejaVuSans-Bold-74" transform="translate(1080.890625 0)"/>
     <use xlink:href="#DejaVuSans-Bold-72" transform="translate(1128.693359 0)"/>
     <use xlink:href="#DejaVuSans-Bold-69" transform="translate(1178.009766 0)"/>
     <use xlink:href="#DejaVuSans-Bold-62" transform="translate(1212.287109 0)"/>
     <use xlink:href="#DejaVuSans-Bold-75" transform="translate(1283.869141 0)"/>
     <use xlink:href="#DejaVuSans-Bold-74" transform="translate(1355.060547 0)"/>
     <use xlink:href="#DejaVuSans-Bold-69" transform="translate(1402.863281 0)"/>
     <use xlink:href="#DejaVuSans-Bold-6f" transform="translate(1437.140625 0)"/>
     <use xlink:href="#DejaVuSans-Bold-6e" transform="translate(1505.841797 0)"/>
     <use xlink:href="#DejaVuSans-Bold-3a" transform="translate(1577.033203 0)"/>
     <use xlink:href="#DejaVuSans-Bold-20" transform="translate(1617.023438 0)"/>
     <use xlink:href="#DejaVuSans-Bold-41" transform="translate(1651.837891 0)"/>
     <use xlink:href="#DejaVuSans-Bold-5f" transform="translate(1729.230469 0)"/>
     <use xlink:href="#DejaVuSans-Bold-62" transform="translate(1779.230469 0)"/>
     <use xlink:href="#DejaVuSans-Bold-75" transform="translate(1850.8125 0)"/>
     <use xlink:href="#DejaVuSans-Bold-63" transform="translate(1922.003906 0)"/>
     <use xlink:href="#DejaVuSans-Bold-65" transform="translate(1981.28125 0)"/>
     <use xlink:href="#DejaVuSans-Bold-70" transform="translate(2049.103516 0)"/>
     <use xlink:href="#DejaVuSans-Bold-68" transform="translate(2120.685547 0)"/>
     <use xlink:href="#DejaVuSans-Bold-61" transform="translate(2191.876953 0)"/>
     <use xlink:href="#DejaVuSans-Bold-6c" transform="translate(2259.357422 0)"/>
     <use xlink:href="#DejaVuSans-Bold-61" transform="translate(2293.634766 0)"/>
    </g>
   </g>
   <g id="legend_1">
    <g id="patch_7">
     <path d="M 554.115625 103.70875 
L 702.875 103.70875 
Q 704.875 103.70875 704.875 101.70875 
L 704.875 29.318125 
Q 704.875 27.318125 702.875 27.318125 
L 554.115625 27.318125 
Q 552.115625 27.318125 552.115625 29.318125 
L 552.115625 101.70875 
Q 552.115625 103.70875 554.115625 103.70875 
z
" style="fill: #ffffff; opacity: 0.8; stroke: #cccccc; stroke-linejoin: miter"/>
    </g>
    <g id="text_16">
     <!-- Motifs &amp; Orientation -->
     <g transform="translate(578.103125 38.916562) scale(0.1 -0.1)">
      <defs>
       <path id="DejaVuSans-4d" d="M 628 4666 
L 1569 4666 
L 2759 1491 
L 3956 4666 
L 4897 4666 
L 4897 0 
L 4281 0 
L 4281 4097 
L 3078 897 
L 2444 897 
L 1241 4097 
L 1241 0 
L 628 0 
L 628 4666 
z
" transform="scale(0.015625)"/>
       <path id="DejaVuSans-26" d="M 1556 2509 
Q 1272 2256 1139 2004 
Q 1006 1753 1006 1478 
Q 1006 1022 1337 719 
Q 1669 416 2169 416 
Q 2466 416 2725 514 
Q 2984 613 3213 813 
L 1556 2509 
z
M 1997 2859 
L 3584 1234 
Q 3769 1513 3872 1830 
Q 3975 2147 3994 2503 
L 4575 2503 
Q 4538 2091 4375 1687 
Q 4213 1284 3922 891 
L 4794 0 
L 4006 0 
L 3559 459 
Q 3234 181 2878 45 
Q 2522 -91 2113 -91 
Q 1359 -91 881 339 
Q 403 769 403 1441 
Q 403 1841 612 2192 
Q 822 2544 1241 2853 
Q 1091 3050 1012 3245 
Q 934 3441 934 3628 
Q 934 4134 1281 4442 
Q 1628 4750 2203 4750 
Q 2463 4750 2720 4694 
Q 2978 4638 3244 4525 
L 3244 3956 
Q 2972 4103 2725 4179 
Q 2478 4256 2266 4256 
Q 1938 4256 1733 4082 
Q 1528 3909 1528 3634 
Q 1528 3475 1620 3314 
Q 1713 3153 1997 2859 
z
" transform="scale(0.015625)"/>
       <path id="DejaVuSans-4f" d="M 2522 4238 
Q 1834 4238 1429 3725 
Q 1025 3213 1025 2328 
Q 1025 1447 1429 934 
Q 1834 422 2522 422 
Q 3209 422 3611 934 
Q 4013 1447 4013 2328 
Q 4013 3213 3611 3725 
Q 3209 4238 2522 4238 
z
M 2522 4750 
Q 3503 4750 4090 4092 
Q 4678 3434 4678 2328 
Q 4678 1225 4090 567 
Q 3503 -91 2522 -91 
Q 1538 -91 948 565 
Q 359 1222 359 2328 
Q 359 3434 948 4092 
Q 1538 4750 2522 4750 
z
" transform="scale(0.015625)"/>
      </defs>
      <use xlink:href="#DejaVuSans-4d"/>
      <use xlink:href="#DejaVuSans-6f" transform="translate(86.279297 0)"/>
      <use xlink:href="#DejaVuSans-74" transform="translate(147.460938 0)"/>
      <use xlink:href="#DejaVuSans-69" transform="translate(186.669922 0)"/>
      <use xlink:href="#DejaVuSans-66" transform="translate(214.453125 0)"/>
      <use xlink:href="#DejaVuSans-73" transform="translate(249.658203 0)"/>
      <use xlink:href="#DejaVuSans-20" transform="translate(301.757812 0)"/>
      <use xlink:href="#DejaVuSans-26" transform="translate(333.544922 0)"/>
      <use xlink:href="#DejaVuSans-20" transform="translate(411.523438 0)"/>
      <use xlink:href="#DejaVuSans-4f" transform="translate(443.310547 0)"/>
      <use xlink:href="#DejaVuSans-72" transform="translate(522.021484 0)"/>
      <use xlink:href="#DejaVuSans-69" transform="translate(563.134766 0)"/>
      <use xlink:href="#DejaVuSans-65" transform="translate(590.917969 0)"/>
      <use xlink:href="#DejaVuSans-6e" transform="translate(652.441406 0)"/>
      <use xlink:href="#DejaVuSans-74" transform="translate(715.820312 0)"/>
      <use xlink:href="#DejaVuSans-61" transform="translate(755.029297 0)"/>
      <use xlink:href="#DejaVuSans-74" transform="translate(816.308594 0)"/>
      <use xlink:href="#DejaVuSans-69" transform="translate(855.517578 0)"/>
      <use xlink:href="#DejaVuSans-6f" transform="translate(883.300781 0)"/>
      <use xlink:href="#DejaVuSans-6e" transform="translate(944.482422 0)"/>
     </g>
    </g>
    <g id="line2d_29">
     <path d="M 556.115625 50.094688 
L 566.115625 50.094688 
L 576.115625 50.094688 
" style="fill: none; stroke: #006ba4; stroke-width: 2; stroke-linecap: square"/>
    </g>
    <g id="text_17">
     <!-- CCTCAAACTAA (5' end) -->
     <g transform="translate(584.115625 53.594688) scale(0.1 -0.1)">
      <defs>
       <path id="DejaVuSans-28" d="M 1984 4856 
Q 1566 4138 1362 3434 
Q 1159 2731 1159 2009 
Q 1159 1288 1364 580 
Q 1569 -128 1984 -844 
L 1484 -844 
Q 1016 -109 783 600 
Q 550 1309 550 2009 
Q 550 2706 781 3412 
Q 1013 4119 1484 4856 
L 1984 4856 
z
" transform="scale(0.015625)"/>
       <path id="DejaVuSans-35" d="M 691 4666 
L 3169 4666 
L 3169 4134 
L 1269 4134 
L 1269 2991 
Q 1406 3038 1543 3061 
Q 1681 3084 1819 3084 
Q 2600 3084 3056 2656 
Q 3513 2228 3513 1497 
Q 3513 744 3044 326 
Q 2575 -91 1722 -91 
Q 1428 -91 1123 -41 
Q 819 9 494 109 
L 494 744 
Q 775 591 1075 516 
Q 1375 441 1709 441 
Q 2250 441 2565 725 
Q 2881 1009 2881 1497 
Q 2881 1984 2565 2268 
Q 2250 2553 1709 2553 
Q 1456 2553 1204 2497 
Q 953 2441 691 2322 
L 691 4666 
z
" transform="scale(0.015625)"/>
       <path id="DejaVuSans-27" d="M 1147 4666 
L 1147 2931 
L 616 2931 
L 616 4666 
L 1147 4666 
z
" transform="scale(0.015625)"/>
       <path id="DejaVuSans-64" d="M 2906 2969 
L 2906 4863 
L 3481 4863 
L 3481 0 
L 2906 0 
L 2906 525 
Q 2725 213 2448 61 
Q 2172 -91 1784 -91 
Q 1150 -91 751 415 
Q 353 922 353 1747 
Q 353 2572 751 3078 
Q 1150 3584 1784 3584 
Q 2172 3584 2448 3432 
Q 2725 3281 2906 2969 
z
M 947 1747 
Q 947 1113 1208 752 
Q 1469 391 1925 391 
Q 2381 391 2643 752 
Q 2906 1113 2906 1747 
Q 2906 2381 2643 2742 
Q 2381 3103 1925 3103 
Q 1469 3103 1208 2742 
Q 947 2381 947 1747 
z
" transform="scale(0.015625)"/>
       <path id="DejaVuSans-29" d="M 513 4856 
L 1013 4856 
Q 1481 4119 1714 3412 
Q 1947 2706 1947 2009 
Q 1947 1309 1714 600 
Q 1481 -109 1013 -844 
L 513 -844 
Q 928 -128 1133 580 
Q 1338 1288 1338 2009 
Q 1338 2731 1133 3434 
Q 928 4138 513 4856 
z
" transform="scale(0.015625)"/>
      </defs>
      <use xlink:href="#DejaVuSans-43"/>
      <use xlink:href="#DejaVuSans-43" transform="translate(69.824219 0)"/>
      <use xlink:href="#DejaVuSans-54" transform="translate(139.648438 0)"/>
      <use xlink:href="#DejaVuSans-43" transform="translate(194.857422 0)"/>
      <use xlink:href="#DejaVuSans-41" transform="translate(264.681641 0)"/>
      <use xlink:href="#DejaVuSans-41" transform="translate(335.839844 0)"/>
      <use xlink:href="#DejaVuSans-41" transform="translate(406.998047 0)"/>
      <use xlink:href="#DejaVuSans-43" transform="translate(473.65625 0)"/>
      <use xlink:href="#DejaVuSans-54" transform="translate(543.480469 0)"/>
      <use xlink:href="#DejaVuSans-41" transform="translate(596.814453 0)"/>
      <use xlink:href="#DejaVuSans-41" transform="translate(667.972656 0)"/>
      <use xlink:href="#DejaVuSans-20" transform="translate(736.380859 0)"/>
      <use xlink:href="#DejaVuSans-28" transform="translate(768.167969 0)"/>
      <use xlink:href="#DejaVuSans-35" transform="translate(807.181641 0)"/>
      <use xlink:href="#DejaVuSans-27" transform="translate(870.804688 0)"/>
      <use xlink:href="#DejaVuSans-20" transform="translate(898.294922 0)"/>
      <use xlink:href="#DejaVuSans-65" transform="translate(930.082031 0)"/>
      <use xlink:href="#DejaVuSans-6e" transform="translate(991.605469 0)"/>
      <use xlink:href="#DejaVuSans-64" transform="translate(1054.984375 0)"/>
      <use xlink:href="#DejaVuSans-29" transform="translate(1118.460938 0)"/>
     </g>
    </g>
    <g id="line2d_30">
     <path d="M 556.115625 64.772813 
L 566.115625 64.772813 
L 576.115625 64.772813 
" style="fill: none; stroke: #ff800e; stroke-width: 2; stroke-linecap: square"/>
    </g>
    <g id="text_18">
     <!-- GACTAA (5' end) -->
     <g transform="translate(584.115625 68.272813) scale(0.1 -0.1)">
      <defs>
       <path id="DejaVuSans-47" d="M 3809 666 
L 3809 1919 
L 2778 1919 
L 2778 2438 
L 4434 2438 
L 4434 434 
Q 4069 175 3628 42 
Q 3188 -91 2688 -91 
Q 1594 -91 976 548 
Q 359 1188 359 2328 
Q 359 3472 976 4111 
Q 1594 4750 2688 4750 
Q 3144 4750 3555 4637 
Q 3966 4525 4313 4306 
L 4313 3634 
Q 3963 3931 3569 4081 
Q 3175 4231 2741 4231 
Q 1884 4231 1454 3753 
Q 1025 3275 1025 2328 
Q 1025 1384 1454 906 
Q 1884 428 2741 428 
Q 3075 428 3337 486 
Q 3600 544 3809 666 
z
" transform="scale(0.015625)"/>
      </defs>
      <use xlink:href="#DejaVuSans-47"/>
      <use xlink:href="#DejaVuSans-41" transform="translate(77.490234 0)"/>
      <use xlink:href="#DejaVuSans-43" transform="translate(144.148438 0)"/>
      <use xlink:href="#DejaVuSans-54" transform="translate(213.972656 0)"/>
      <use xlink:href="#DejaVuSans-41" transform="translate(267.306641 0)"/>
      <use xlink:href="#DejaVuSans-41" transform="translate(338.464844 0)"/>
      <use xlink:href="#DejaVuSans-20" transform="translate(406.873047 0)"/>
      <use xlink:href="#DejaVuSans-28" transform="translate(438.660156 0)"/>
      <use xlink:href="#DejaVuSans-35" transform="translate(477.673828 0)"/>
      <use xlink:href="#DejaVuSans-27" transform="translate(541.296875 0)"/>
      <use xlink:href="#DejaVuSans-20" transform="translate(568.787109 0)"/>
      <use xlink:href="#DejaVuSans-65" transform="translate(600.574219 0)"/>
      <use xlink:href="#DejaVuSans-6e" transform="translate(662.097656 0)"/>
      <use xlink:href="#DejaVuSans-64" transform="translate(725.476562 0)"/>
      <use xlink:href="#DejaVuSans-29" transform="translate(788.953125 0)"/>
     </g>
    </g>
    <g id="line2d_31">
     <path d="M 556.115625 79.450938 
L 566.115625 79.450938 
L 576.115625 79.450938 
" style="fill: none; stroke: #ababab; stroke-width: 2; stroke-linecap: square"/>
    </g>
    <g id="text_19">
     <!-- CCTAAA (5' end) -->
     <g transform="translate(584.115625 82.950938) scale(0.1 -0.1)">
      <use xlink:href="#DejaVuSans-43"/>
      <use xlink:href="#DejaVuSans-43" transform="translate(69.824219 0)"/>
      <use xlink:href="#DejaVuSans-54" transform="translate(139.648438 0)"/>
      <use xlink:href="#DejaVuSans-41" transform="translate(192.982422 0)"/>
      <use xlink:href="#DejaVuSans-41" transform="translate(264.140625 0)"/>
      <use xlink:href="#DejaVuSans-41" transform="translate(335.298828 0)"/>
      <use xlink:href="#DejaVuSans-20" transform="translate(403.707031 0)"/>
      <use xlink:href="#DejaVuSans-28" transform="translate(435.494141 0)"/>
      <use xlink:href="#DejaVuSans-35" transform="translate(474.507812 0)"/>
      <use xlink:href="#DejaVuSans-27" transform="translate(538.130859 0)"/>
      <use xlink:href="#DejaVuSans-20" transform="translate(565.621094 0)"/>
      <use xlink:href="#DejaVuSans-65" transform="translate(597.408203 0)"/>
      <use xlink:href="#DejaVuSans-6e" transform="translate(658.931641 0)"/>
      <use xlink:href="#DejaVuSans-64" transform="translate(722.310547 0)"/>
      <use xlink:href="#DejaVuSans-29" transform="translate(785.787109 0)"/>
     </g>
    </g>
    <g id="line2d_32">
     <path d="M 556.115625 94.129063 
L 566.115625 94.129063 
L 576.115625 94.129063 
" style="fill: none; stroke: #595959; stroke-width: 2; stroke-linecap: square"/>
    </g>
    <g id="text_20">
     <!-- CCCAACACTAA (5' end) -->
     <g transform="translate(584.115625 97.629063) scale(0.1 -0.1)">
      <use xlink:href="#DejaVuSans-43"/>
      <use xlink:href="#DejaVuSans-43" transform="translate(69.824219 0)"/>
      <use xlink:href="#DejaVuSans-43" transform="translate(139.648438 0)"/>
      <use xlink:href="#DejaVuSans-41" transform="translate(209.472656 0)"/>
      <use xlink:href="#DejaVuSans-41" transform="translate(280.630859 0)"/>
      <use xlink:href="#DejaVuSans-43" transform="translate(347.289062 0)"/>
      <use xlink:href="#DejaVuSans-41" transform="translate(417.113281 0)"/>
      <use xlink:href="#DejaVuSans-43" transform="translate(483.771484 0)"/>
      <use xlink:href="#DejaVuSans-54" transform="translate(553.595703 0)"/>
      <use xlink:href="#DejaVuSans-41" transform="translate(606.929688 0)"/>
      <use xlink:href="#DejaVuSans-41" transform="translate(678.087891 0)"/>
      <use xlink:href="#DejaVuSans-20" transform="translate(746.496094 0)"/>
      <use xlink:href="#DejaVuSans-28" transform="translate(778.283203 0)"/>
      <use xlink:href="#DejaVuSans-35" transform="translate(817.296875 0)"/>
      <use xlink:href="#DejaVuSans-27" transform="translate(880.919922 0)"/>
      <use xlink:href="#DejaVuSans-20" transform="translate(908.410156 0)"/>
      <use xlink:href="#DejaVuSans-65" transform="translate(940.197266 0)"/>
      <use xlink:href="#DejaVuSans-6e" transform="translate(1001.720703 0)"/>
      <use xlink:href="#DejaVuSans-64" transform="translate(1065.099609 0)"/>
      <use xlink:href="#DejaVuSans-29" transform="translate(1128.576172 0)"/>
     </g>
    </g>
   </g>
  </g>
 </g>
 <defs>
  <clipPath id="pce732d465b">
   <rect x="46.965625" y="22.318125" width="500.15" height="436.6"/>
  </clipPath>
 </defs>
</svg>
