<?xml version="1.0" encoding="utf-8" standalone="no"?>
<!DOCTYPE svg PUBLIC "-//W3C//DTD SVG 1.1//EN"
  "http://www.w3.org/Graphics/SVG/1.1/DTD/svg11.dtd">
<svg xmlns:xlink="http://www.w3.org/1999/xlink" width="712.123438pt" height="496.474375pt" viewBox="0 0 712.123438 496.474375" xmlns="http://www.w3.org/2000/svg" version="1.1">
 <metadata>
  <rdf:RDF xmlns:dc="http://purl.org/dc/elements/1.1/" xmlns:cc="http://creativecommons.org/ns#" xmlns:rdf="http://www.w3.org/1999/02/22-rdf-syntax-ns#">
   <cc:Work>
    <dc:type rdf:resource="http://purl.org/dc/dcmitype/StillImage"/>
    <dc:date>2026-03-20T12:45:50.508786</dc:date>
    <dc:format>image/svg+xml</dc:format>
    <dc:creator>
     <cc:Agent>
      <dc:title>Matplotlib v3.10.6, https://matplotlib.org/</dc:title>
     </cc:Agent>
    </dc:creator>
   </cc:Work>
  </rdf:RDF>
 </metadata>
 <defs>
  <style type="text/css">*{stroke-linejoin: round; stroke-linecap: butt}</style>
 </defs>
 <g id="figure_1">
  <g id="patch_1">
   <path d="M 0 496.474375 
L 712.123438 496.474375 
L 712.123438 0 
L 0 0 
z
" style="fill: #ffffff"/>
  </g>
  <g id="axes_1">
   <g id="patch_2">
    <path d="M 46.965625 458.918125 
L 545.765625 458.918125 
L 545.765625 22.318125 
L 46.965625 22.318125 
z
" style="fill: #ffffff"/>
   </g>
   <g id="matplotlib.axis_1">
    <g id="xtick_1">
     <g id="line2d_1">
      <path d="M 69.638352 458.918125 
L 69.638352 22.318125 
" clip-path="url(#p9116061ec0)" style="fill: none; stroke-dasharray: 2.96,1.28; stroke-dashoffset: 0; stroke: #b0b0b0; stroke-opacity: 0.6; stroke-width: 0.8"/>
     </g>
     <g id="line2d_2">
      <defs>
       <path id="m4d5a835ddc" d="M 0 0 
L 0 3.5 
" style="stroke: #000000; stroke-width: 0.8"/>
      </defs>
      <g>
       <use xlink:href="#m4d5a835ddc" x="69.638352" y="458.918125" style="stroke: #000000; stroke-width: 0.8"/>
      </g>
     </g>
     <g id="text_1">
      <!-- 0 -->
      <g transform="translate(66.457102 473.516563) scale(0.1 -0.1)">
       <defs>
        <path id="DejaVuSans-30" d="M 2034 4250 
Q 1547 4250 1301 3770 
Q 1056 3291 1056 2328 
Q 1056 1369 1301 889 
Q 1547 409 2034 409 
Q 2525 409 2770 889 
Q 3016 1369 3016 2328 
Q 3016 3291 2770 3770 
Q 2525 4250 2034 4250 
z
M 2034 4750 
Q 2819 4750 3233 4129 
Q 3647 3509 3647 2328 
Q 3647 1150 3233 529 
Q 2819 -91 2034 -91 
Q 1250 -91 836 529 
Q 422 1150 422 2328 
Q 422 3509 836 4129 
Q 1250 4750 2034 4750 
z
" transform="scale(0.015625)"/>
       </defs>
       <use xlink:href="#DejaVuSans-30"/>
      </g>
     </g>
    </g>
    <g id="xtick_2">
     <g id="line2d_3">
      <path d="M 145.220408 458.918125 
L 145.220408 22.318125 
" clip-path="url(#p9116061ec0)" style="fill: none; stroke-dasharray: 2.96,1.28; stroke-dashoffset: 0; stroke: #b0b0b0; stroke-opacity: 0.6; stroke-width: 0.8"/>
     </g>
     <g id="line2d_4">
      <g>
       <use xlink:href="#m4d5a835ddc" x="145.220408" y="458.918125" style="stroke: #000000; stroke-width: 0.8"/>
      </g>
     </g>
     <g id="text_2">
      <!-- 2000 -->
      <g transform="translate(132.495408 473.516563) scale(0.1 -0.1)">
       <defs>
        <path id="DejaVuSans-32" d="M 1228 531 
L 3431 531 
L 3431 0 
L 469 0 
L 469 531 
Q 828 903 1448 1529 
Q 2069 2156 2228 2338 
Q 2531 2678 2651 2914 
Q 2772 3150 2772 3378 
Q 2772 3750 2511 3984 
Q 2250 4219 1831 4219 
Q 1534 4219 1204 4116 
Q 875 4013 500 3803 
L 500 4441 
Q 881 4594 1212 4672 
Q 1544 4750 1819 4750 
Q 2544 4750 2975 4387 
Q 3406 4025 3406 3419 
Q 3406 3131 3298 2873 
Q 3191 2616 2906 2266 
Q 2828 2175 2409 1742 
Q 1991 1309 1228 531 
z
" transform="scale(0.015625)"/>
       </defs>
       <use xlink:href="#DejaVuSans-32"/>
       <use xlink:href="#DejaVuSans-30" transform="translate(63.623047 0)"/>
       <use xlink:href="#DejaVuSans-30" transform="translate(127.246094 0)"/>
       <use xlink:href="#DejaVuSans-30" transform="translate(190.869141 0)"/>
      </g>
     </g>
    </g>
    <g id="xtick_3">
     <g id="line2d_5">
      <path d="M 220.802464 458.918125 
L 220.802464 22.318125 
" clip-path="url(#p9116061ec0)" style="fill: none; stroke-dasharray: 2.96,1.28; stroke-dashoffset: 0; stroke: #b0b0b0; stroke-opacity: 0.6; stroke-width: 0.8"/>
     </g>
     <g id="line2d_6">
      <g>
       <use xlink:href="#m4d5a835ddc" x="220.802464" y="458.918125" style="stroke: #000000; stroke-width: 0.8"/>
      </g>
     </g>
     <g id="text_3">
      <!-- 4000 -->
      <g transform="translate(208.077464 473.516563) scale(0.1 -0.1)">
       <defs>
        <path id="DejaVuSans-34" d="M 2419 4116 
L 825 1625 
L 2419 1625 
L 2419 4116 
z
M 2253 4666 
L 3047 4666 
L 3047 1625 
L 3713 1625 
L 3713 1100 
L 3047 1100 
L 3047 0 
L 2419 0 
L 2419 1100 
L 313 1100 
L 313 1709 
L 2253 4666 
z
" transform="scale(0.015625)"/>
       </defs>
       <use xlink:href="#DejaVuSans-34"/>
       <use xlink:href="#DejaVuSans-30" transform="translate(63.623047 0)"/>
       <use xlink:href="#DejaVuSans-30" transform="translate(127.246094 0)"/>
       <use xlink:href="#DejaVuSans-30" transform="translate(190.869141 0)"/>
      </g>
     </g>
    </g>
    <g id="xtick_4">
     <g id="line2d_7">
      <path d="M 296.384521 458.918125 
L 296.384521 22.318125 
" clip-path="url(#p9116061ec0)" style="fill: none; stroke-dasharray: 2.96,1.28; stroke-dashoffset: 0; stroke: #b0b0b0; stroke-opacity: 0.6; stroke-width: 0.8"/>
     </g>
     <g id="line2d_8">
      <g>
       <use xlink:href="#m4d5a835ddc" x="296.384521" y="458.918125" style="stroke: #000000; stroke-width: 0.8"/>
      </g>
     </g>
     <g id="text_4">
      <!-- 6000 -->
      <g transform="translate(283.659521 473.516563) scale(0.1 -0.1)">
       <defs>
        <path id="DejaVuSans-36" d="M 2113 2584 
Q 1688 2584 1439 2293 
Q 1191 2003 1191 1497 
Q 1191 994 1439 701 
Q 1688 409 2113 409 
Q 2538 409 2786 701 
Q 3034 994 3034 1497 
Q 3034 2003 2786 2293 
Q 2538 2584 2113 2584 
z
M 3366 4563 
L 3366 3988 
Q 3128 4100 2886 4159 
Q 2644 4219 2406 4219 
Q 1781 4219 1451 3797 
Q 1122 3375 1075 2522 
Q 1259 2794 1537 2939 
Q 1816 3084 2150 3084 
Q 2853 3084 3261 2657 
Q 3669 2231 3669 1497 
Q 3669 778 3244 343 
Q 2819 -91 2113 -91 
Q 1303 -91 875 529 
Q 447 1150 447 2328 
Q 447 3434 972 4092 
Q 1497 4750 2381 4750 
Q 2619 4750 2861 4703 
Q 3103 4656 3366 4563 
z
" transform="scale(0.015625)"/>
       </defs>
       <use xlink:href="#DejaVuSans-36"/>
       <use xlink:href="#DejaVuSans-30" transform="translate(63.623047 0)"/>
       <use xlink:href="#DejaVuSans-30" transform="translate(127.246094 0)"/>
       <use xlink:href="#DejaVuSans-30" transform="translate(190.869141 0)"/>
      </g>
     </g>
    </g>
    <g id="xtick_5">
     <g id="line2d_9">
      <path d="M 371.966577 458.918125 
L 371.966577 22.318125 
" clip-path="url(#p9116061ec0)" style="fill: none; stroke-dasharray: 2.96,1.28; stroke-dashoffset: 0; stroke: #b0b0b0; stroke-opacity: 0.6; stroke-width: 0.8"/>
     </g>
     <g id="line2d_10">
      <g>
       <use xlink:href="#m4d5a835ddc" x="371.966577" y="458.918125" style="stroke: #000000; stroke-width: 0.8"/>
      </g>
     </g>
     <g id="text_5">
      <!-- 8000 -->
      <g transform="translate(359.241577 473.516563) scale(0.1 -0.1)">
       <defs>
        <path id="DejaVuSans-38" d="M 2034 2216 
Q 1584 2216 1326 1975 
Q 1069 1734 1069 1313 
Q 1069 891 1326 650 
Q 1584 409 2034 409 
Q 2484 409 2743 651 
Q 3003 894 3003 1313 
Q 3003 1734 2745 1975 
Q 2488 2216 2034 2216 
z
M 1403 2484 
Q 997 2584 770 2862 
Q 544 3141 544 3541 
Q 544 4100 942 4425 
Q 1341 4750 2034 4750 
Q 2731 4750 3128 4425 
Q 3525 4100 3525 3541 
Q 3525 3141 3298 2862 
Q 3072 2584 2669 2484 
Q 3125 2378 3379 2068 
Q 3634 1759 3634 1313 
Q 3634 634 3220 271 
Q 2806 -91 2034 -91 
Q 1263 -91 848 271 
Q 434 634 434 1313 
Q 434 1759 690 2068 
Q 947 2378 1403 2484 
z
M 1172 3481 
Q 1172 3119 1398 2916 
Q 1625 2713 2034 2713 
Q 2441 2713 2670 2916 
Q 2900 3119 2900 3481 
Q 2900 3844 2670 4047 
Q 2441 4250 2034 4250 
Q 1625 4250 1398 4047 
Q 1172 3844 1172 3481 
z
" transform="scale(0.015625)"/>
       </defs>
       <use xlink:href="#DejaVuSans-38"/>
       <use xlink:href="#DejaVuSans-30" transform="translate(63.623047 0)"/>
       <use xlink:href="#DejaVuSans-30" transform="translate(127.246094 0)"/>
       <use xlink:href="#DejaVuSans-30" transform="translate(190.869141 0)"/>
      </g>
     </g>
    </g>
    <g id="xtick_6">
     <g id="line2d_11">
      <path d="M 447.548633 458.918125 
L 447.548633 22.318125 
" clip-path="url(#p9116061ec0)" style="fill: none; stroke-dasharray: 2.96,1.28; stroke-dashoffset: 0; stroke: #b0b0b0; stroke-opacity: 0.6; stroke-width: 0.8"/>
     </g>
     <g id="line2d_12">
      <g>
       <use xlink:href="#m4d5a835ddc" x="447.548633" y="458.918125" style="stroke: #000000; stroke-width: 0.8"/>
      </g>
     </g>
     <g id="text_6">
      <!-- 10000 -->
      <g transform="translate(431.642383 473.516563) scale(0.1 -0.1)">
       <defs>
        <path id="DejaVuSans-31" d="M 794 531 
L 1825 531 
L 1825 4091 
L 703 3866 
L 703 4441 
L 1819 4666 
L 2450 4666 
L 2450 531 
L 3481 531 
L 3481 0 
L 794 0 
L 794 531 
z
" transform="scale(0.015625)"/>
       </defs>
       <use xlink:href="#DejaVuSans-31"/>
       <use xlink:href="#DejaVuSans-30" transform="translate(63.623047 0)"/>
       <use xlink:href="#DejaVuSans-30" transform="translate(127.246094 0)"/>
       <use xlink:href="#DejaVuSans-30" transform="translate(190.869141 0)"/>
       <use xlink:href="#DejaVuSans-30" transform="translate(254.492188 0)"/>
      </g>
     </g>
    </g>
    <g id="xtick_7">
     <g id="line2d_13">
      <path d="M 523.130689 458.918125 
L 523.130689 22.318125 
" clip-path="url(#p9116061ec0)" style="fill: none; stroke-dasharray: 2.96,1.28; stroke-dashoffset: 0; stroke: #b0b0b0; stroke-opacity: 0.6; stroke-width: 0.8"/>
     </g>
     <g id="line2d_14">
      <g>
       <use xlink:href="#m4d5a835ddc" x="523.130689" y="458.918125" style="stroke: #000000; stroke-width: 0.8"/>
      </g>
     </g>
     <g id="text_7">
      <!-- 12000 -->
      <g transform="translate(507.224439 473.516563) scale(0.1 -0.1)">
       <use xlink:href="#DejaVuSans-31"/>
       <use xlink:href="#DejaVuSans-32" transform="translate(63.623047 0)"/>
       <use xlink:href="#DejaVuSans-30" transform="translate(127.246094 0)"/>
       <use xlink:href="#DejaVuSans-30" transform="translate(190.869141 0)"/>
       <use xlink:href="#DejaVuSans-30" transform="translate(254.492188 0)"/>
      </g>
     </g>
    </g>
    <g id="text_8">
     <!-- Distance from Terminus [nt] -->
     <g transform="translate(226.622656 487.194687) scale(0.1 -0.1)">
      <defs>
       <path id="DejaVuSans-44" d="M 1259 4147 
L 1259 519 
L 2022 519 
Q 2988 519 3436 956 
Q 3884 1394 3884 2338 
Q 3884 3275 3436 3711 
Q 2988 4147 2022 4147 
L 1259 4147 
z
M 628 4666 
L 1925 4666 
Q 3281 4666 3915 4102 
Q 4550 3538 4550 2338 
Q 4550 1131 3912 565 
Q 3275 0 1925 0 
L 628 0 
L 628 4666 
z
" transform="scale(0.015625)"/>
       <path id="DejaVuSans-69" d="M 603 3500 
L 1178 3500 
L 1178 0 
L 603 0 
L 603 3500 
z
M 603 4863 
L 1178 4863 
L 1178 4134 
L 603 4134 
L 603 4863 
z
" transform="scale(0.015625)"/>
       <path id="DejaVuSans-73" d="M 2834 3397 
L 2834 2853 
Q 2591 2978 2328 3040 
Q 2066 3103 1784 3103 
Q 1356 3103 1142 2972 
Q 928 2841 928 2578 
Q 928 2378 1081 2264 
Q 1234 2150 1697 2047 
L 1894 2003 
Q 2506 1872 2764 1633 
Q 3022 1394 3022 966 
Q 3022 478 2636 193 
Q 2250 -91 1575 -91 
Q 1294 -91 989 -36 
Q 684 19 347 128 
L 347 722 
Q 666 556 975 473 
Q 1284 391 1588 391 
Q 1994 391 2212 530 
Q 2431 669 2431 922 
Q 2431 1156 2273 1281 
Q 2116 1406 1581 1522 
L 1381 1569 
Q 847 1681 609 1914 
Q 372 2147 372 2553 
Q 372 3047 722 3315 
Q 1072 3584 1716 3584 
Q 2034 3584 2315 3537 
Q 2597 3491 2834 3397 
z
" transform="scale(0.015625)"/>
       <path id="DejaVuSans-74" d="M 1172 4494 
L 1172 3500 
L 2356 3500 
L 2356 3053 
L 1172 3053 
L 1172 1153 
Q 1172 725 1289 603 
Q 1406 481 1766 481 
L 2356 481 
L 2356 0 
L 1766 0 
Q 1100 0 847 248 
Q 594 497 594 1153 
L 594 3053 
L 172 3053 
L 172 3500 
L 594 3500 
L 594 4494 
L 1172 4494 
z
" transform="scale(0.015625)"/>
       <path id="DejaVuSans-61" d="M 2194 1759 
Q 1497 1759 1228 1600 
Q 959 1441 959 1056 
Q 959 750 1161 570 
Q 1363 391 1709 391 
Q 2188 391 2477 730 
Q 2766 1069 2766 1631 
L 2766 1759 
L 2194 1759 
z
M 3341 1997 
L 3341 0 
L 2766 0 
L 2766 531 
Q 2569 213 2275 61 
Q 1981 -91 1556 -91 
Q 1019 -91 701 211 
Q 384 513 384 1019 
Q 384 1609 779 1909 
Q 1175 2209 1959 2209 
L 2766 2209 
L 2766 2266 
Q 2766 2663 2505 2880 
Q 2244 3097 1772 3097 
Q 1472 3097 1187 3025 
Q 903 2953 641 2809 
L 641 3341 
Q 956 3463 1253 3523 
Q 1550 3584 1831 3584 
Q 2591 3584 2966 3190 
Q 3341 2797 3341 1997 
z
" transform="scale(0.015625)"/>
       <path id="DejaVuSans-6e" d="M 3513 2113 
L 3513 0 
L 2938 0 
L 2938 2094 
Q 2938 2591 2744 2837 
Q 2550 3084 2163 3084 
Q 1697 3084 1428 2787 
Q 1159 2491 1159 1978 
L 1159 0 
L 581 0 
L 581 3500 
L 1159 3500 
L 1159 2956 
Q 1366 3272 1645 3428 
Q 1925 3584 2291 3584 
Q 2894 3584 3203 3211 
Q 3513 2838 3513 2113 
z
" transform="scale(0.015625)"/>
       <path id="DejaVuSans-63" d="M 3122 3366 
L 3122 2828 
Q 2878 2963 2633 3030 
Q 2388 3097 2138 3097 
Q 1578 3097 1268 2742 
Q 959 2388 959 1747 
Q 959 1106 1268 751 
Q 1578 397 2138 397 
Q 2388 397 2633 464 
Q 2878 531 3122 666 
L 3122 134 
Q 2881 22 2623 -34 
Q 2366 -91 2075 -91 
Q 1284 -91 818 406 
Q 353 903 353 1747 
Q 353 2603 823 3093 
Q 1294 3584 2113 3584 
Q 2378 3584 2631 3529 
Q 2884 3475 3122 3366 
z
" transform="scale(0.015625)"/>
       <path id="DejaVuSans-65" d="M 3597 1894 
L 3597 1613 
L 953 1613 
Q 991 1019 1311 708 
Q 1631 397 2203 397 
Q 2534 397 2845 478 
Q 3156 559 3463 722 
L 3463 178 
Q 3153 47 2828 -22 
Q 2503 -91 2169 -91 
Q 1331 -91 842 396 
Q 353 884 353 1716 
Q 353 2575 817 3079 
Q 1281 3584 2069 3584 
Q 2775 3584 3186 3129 
Q 3597 2675 3597 1894 
z
M 3022 2063 
Q 3016 2534 2758 2815 
Q 2500 3097 2075 3097 
Q 1594 3097 1305 2825 
Q 1016 2553 972 2059 
L 3022 2063 
z
" transform="scale(0.015625)"/>
       <path id="DejaVuSans-20" transform="scale(0.015625)"/>
       <path id="DejaVuSans-66" d="M 2375 4863 
L 2375 4384 
L 1825 4384 
Q 1516 4384 1395 4259 
Q 1275 4134 1275 3809 
L 1275 3500 
L 2222 3500 
L 2222 3053 
L 1275 3053 
L 1275 0 
L 697 0 
L 697 3053 
L 147 3053 
L 147 3500 
L 697 3500 
L 697 3744 
Q 697 4328 969 4595 
Q 1241 4863 1831 4863 
L 2375 4863 
z
" transform="scale(0.015625)"/>
       <path id="DejaVuSans-72" d="M 2631 2963 
Q 2534 3019 2420 3045 
Q 2306 3072 2169 3072 
Q 1681 3072 1420 2755 
Q 1159 2438 1159 1844 
L 1159 0 
L 581 0 
L 581 3500 
L 1159 3500 
L 1159 2956 
Q 1341 3275 1631 3429 
Q 1922 3584 2338 3584 
Q 2397 3584 2469 3576 
Q 2541 3569 2628 3553 
L 2631 2963 
z
" transform="scale(0.015625)"/>
       <path id="DejaVuSans-6f" d="M 1959 3097 
Q 1497 3097 1228 2736 
Q 959 2375 959 1747 
Q 959 1119 1226 758 
Q 1494 397 1959 397 
Q 2419 397 2687 759 
Q 2956 1122 2956 1747 
Q 2956 2369 2687 2733 
Q 2419 3097 1959 3097 
z
M 1959 3584 
Q 2709 3584 3137 3096 
Q 3566 2609 3566 1747 
Q 3566 888 3137 398 
Q 2709 -91 1959 -91 
Q 1206 -91 779 398 
Q 353 888 353 1747 
Q 353 2609 779 3096 
Q 1206 3584 1959 3584 
z
" transform="scale(0.015625)"/>
       <path id="DejaVuSans-6d" d="M 3328 2828 
Q 3544 3216 3844 3400 
Q 4144 3584 4550 3584 
Q 5097 3584 5394 3201 
Q 5691 2819 5691 2113 
L 5691 0 
L 5113 0 
L 5113 2094 
Q 5113 2597 4934 2840 
Q 4756 3084 4391 3084 
Q 3944 3084 3684 2787 
Q 3425 2491 3425 1978 
L 3425 0 
L 2847 0 
L 2847 2094 
Q 2847 2600 2669 2842 
Q 2491 3084 2119 3084 
Q 1678 3084 1418 2786 
Q 1159 2488 1159 1978 
L 1159 0 
L 581 0 
L 581 3500 
L 1159 3500 
L 1159 2956 
Q 1356 3278 1631 3431 
Q 1906 3584 2284 3584 
Q 2666 3584 2933 3390 
Q 3200 3197 3328 2828 
z
" transform="scale(0.015625)"/>
       <path id="DejaVuSans-54" d="M -19 4666 
L 3928 4666 
L 3928 4134 
L 2272 4134 
L 2272 0 
L 1638 0 
L 1638 4134 
L -19 4134 
L -19 4666 
z
" transform="scale(0.015625)"/>
       <path id="DejaVuSans-75" d="M 544 1381 
L 544 3500 
L 1119 3500 
L 1119 1403 
Q 1119 906 1312 657 
Q 1506 409 1894 409 
Q 2359 409 2629 706 
Q 2900 1003 2900 1516 
L 2900 3500 
L 3475 3500 
L 3475 0 
L 2900 0 
L 2900 538 
Q 2691 219 2414 64 
Q 2138 -91 1772 -91 
Q 1169 -91 856 284 
Q 544 659 544 1381 
z
M 1991 3584 
L 1991 3584 
z
" transform="scale(0.015625)"/>
       <path id="DejaVuSans-5b" d="M 550 4863 
L 1875 4863 
L 1875 4416 
L 1125 4416 
L 1125 -397 
L 1875 -397 
L 1875 -844 
L 550 -844 
L 550 4863 
z
" transform="scale(0.015625)"/>
       <path id="DejaVuSans-5d" d="M 1947 4863 
L 1947 -844 
L 622 -844 
L 622 -397 
L 1369 -397 
L 1369 4416 
L 622 4416 
L 622 4863 
L 1947 4863 
z
" transform="scale(0.015625)"/>
      </defs>
      <use xlink:href="#DejaVuSans-44"/>
      <use xlink:href="#DejaVuSans-69" transform="translate(77.001953 0)"/>
      <use xlink:href="#DejaVuSans-73" transform="translate(104.785156 0)"/>
      <use xlink:href="#DejaVuSans-74" transform="translate(156.884766 0)"/>
      <use xlink:href="#DejaVuSans-61" transform="translate(196.09375 0)"/>
      <use xlink:href="#DejaVuSans-6e" transform="translate(257.373047 0)"/>
      <use xlink:href="#DejaVuSans-63" transform="translate(320.751953 0)"/>
      <use xlink:href="#DejaVuSans-65" transform="translate(375.732422 0)"/>
      <use xlink:href="#DejaVuSans-20" transform="translate(437.255859 0)"/>
      <use xlink:href="#DejaVuSans-66" transform="translate(469.042969 0)"/>
      <use xlink:href="#DejaVuSans-72" transform="translate(504.248047 0)"/>
      <use xlink:href="#DejaVuSans-6f" transform="translate(543.111328 0)"/>
      <use xlink:href="#DejaVuSans-6d" transform="translate(604.292969 0)"/>
      <use xlink:href="#DejaVuSans-20" transform="translate(701.705078 0)"/>
      <use xlink:href="#DejaVuSans-54" transform="translate(733.492188 0)"/>
      <use xlink:href="#DejaVuSans-65" transform="translate(777.576172 0)"/>
      <use xlink:href="#DejaVuSans-72" transform="translate(839.099609 0)"/>
      <use xlink:href="#DejaVuSans-6d" transform="translate(878.462891 0)"/>
      <use xlink:href="#DejaVuSans-69" transform="translate(975.875 0)"/>
      <use xlink:href="#DejaVuSans-6e" transform="translate(1003.658203 0)"/>
      <use xlink:href="#DejaVuSans-75" transform="translate(1067.037109 0)"/>
      <use xlink:href="#DejaVuSans-73" transform="translate(1130.416016 0)"/>
      <use xlink:href="#DejaVuSans-20" transform="translate(1182.515625 0)"/>
      <use xlink:href="#DejaVuSans-5b" transform="translate(1214.302734 0)"/>
      <use xlink:href="#DejaVuSans-6e" transform="translate(1253.316406 0)"/>
      <use xlink:href="#DejaVuSans-74" transform="translate(1316.695312 0)"/>
      <use xlink:href="#DejaVuSans-5d" transform="translate(1355.904297 0)"/>
     </g>
    </g>
   </g>
   <g id="matplotlib.axis_2">
    <g id="ytick_1">
     <g id="line2d_15">
      <path d="M 46.965625 439.07267 
L 545.765625 439.07267 
" clip-path="url(#p9116061ec0)" style="fill: none; stroke-dasharray: 2.96,1.28; stroke-dashoffset: 0; stroke: #b0b0b0; stroke-opacity: 0.6; stroke-width: 0.8"/>
     </g>
     <g id="line2d_16">
      <defs>
       <path id="m72e557fcfc" d="M 0 0 
L -3.5 0 
" style="stroke: #000000; stroke-width: 0.8"/>
      </defs>
      <g>
       <use xlink:href="#m72e557fcfc" x="46.965625" y="439.07267" style="stroke: #000000; stroke-width: 0.8"/>
      </g>
     </g>
     <g id="text_9">
      <!-- 0 -->
      <g transform="translate(33.603125 442.871889) scale(0.1 -0.1)">
       <use xlink:href="#DejaVuSans-30"/>
      </g>
     </g>
    </g>
    <g id="ytick_2">
     <g id="line2d_17">
      <path d="M 46.965625 374.569568 
L 545.765625 374.569568 
" clip-path="url(#p9116061ec0)" style="fill: none; stroke-dasharray: 2.96,1.28; stroke-dashoffset: 0; stroke: #b0b0b0; stroke-opacity: 0.6; stroke-width: 0.8"/>
     </g>
     <g id="line2d_18">
      <g>
       <use xlink:href="#m72e557fcfc" x="46.965625" y="374.569568" style="stroke: #000000; stroke-width: 0.8"/>
      </g>
     </g>
     <g id="text_10">
      <!-- 50 -->
      <g transform="translate(27.240625 378.368787) scale(0.1 -0.1)">
       <defs>
        <path id="DejaVuSans-35" d="M 691 4666 
L 3169 4666 
L 3169 4134 
L 1269 4134 
L 1269 2991 
Q 1406 3038 1543 3061 
Q 1681 3084 1819 3084 
Q 2600 3084 3056 2656 
Q 3513 2228 3513 1497 
Q 3513 744 3044 326 
Q 2575 -91 1722 -91 
Q 1428 -91 1123 -41 
Q 819 9 494 109 
L 494 744 
Q 775 591 1075 516 
Q 1375 441 1709 441 
Q 2250 441 2565 725 
Q 2881 1009 2881 1497 
Q 2881 1984 2565 2268 
Q 2250 2553 1709 2553 
Q 1456 2553 1204 2497 
Q 953 2441 691 2322 
L 691 4666 
z
" transform="scale(0.015625)"/>
       </defs>
       <use xlink:href="#DejaVuSans-35"/>
       <use xlink:href="#DejaVuSans-30" transform="translate(63.623047 0)"/>
      </g>
     </g>
    </g>
    <g id="ytick_3">
     <g id="line2d_19">
      <path d="M 46.965625 310.066465 
L 545.765625 310.066465 
" clip-path="url(#p9116061ec0)" style="fill: none; stroke-dasharray: 2.96,1.28; stroke-dashoffset: 0; stroke: #b0b0b0; stroke-opacity: 0.6; stroke-width: 0.8"/>
     </g>
     <g id="line2d_20">
      <g>
       <use xlink:href="#m72e557fcfc" x="46.965625" y="310.066465" style="stroke: #000000; stroke-width: 0.8"/>
      </g>
     </g>
     <g id="text_11">
      <!-- 100 -->
      <g transform="translate(20.878125 313.865684) scale(0.1 -0.1)">
       <use xlink:href="#DejaVuSans-31"/>
       <use xlink:href="#DejaVuSans-30" transform="translate(63.623047 0)"/>
       <use xlink:href="#DejaVuSans-30" transform="translate(127.246094 0)"/>
      </g>
     </g>
    </g>
    <g id="ytick_4">
     <g id="line2d_21">
      <path d="M 46.965625 245.563363 
L 545.765625 245.563363 
" clip-path="url(#p9116061ec0)" style="fill: none; stroke-dasharray: 2.96,1.28; stroke-dashoffset: 0; stroke: #b0b0b0; stroke-opacity: 0.6; stroke-width: 0.8"/>
     </g>
     <g id="line2d_22">
      <g>
       <use xlink:href="#m72e557fcfc" x="46.965625" y="245.563363" style="stroke: #000000; stroke-width: 0.8"/>
      </g>
     </g>
     <g id="text_12">
      <!-- 150 -->
      <g transform="translate(20.878125 249.362582) scale(0.1 -0.1)">
       <use xlink:href="#DejaVuSans-31"/>
       <use xlink:href="#DejaVuSans-35" transform="translate(63.623047 0)"/>
       <use xlink:href="#DejaVuSans-30" transform="translate(127.246094 0)"/>
      </g>
     </g>
    </g>
    <g id="ytick_5">
     <g id="line2d_23">
      <path d="M 46.965625 181.06026 
L 545.765625 181.06026 
" clip-path="url(#p9116061ec0)" style="fill: none; stroke-dasharray: 2.96,1.28; stroke-dashoffset: 0; stroke: #b0b0b0; stroke-opacity: 0.6; stroke-width: 0.8"/>
     </g>
     <g id="line2d_24">
      <g>
       <use xlink:href="#m72e557fcfc" x="46.965625" y="181.06026" style="stroke: #000000; stroke-width: 0.8"/>
      </g>
     </g>
     <g id="text_13">
      <!-- 200 -->
      <g transform="translate(20.878125 184.859479) scale(0.1 -0.1)">
       <use xlink:href="#DejaVuSans-32"/>
       <use xlink:href="#DejaVuSans-30" transform="translate(63.623047 0)"/>
       <use xlink:href="#DejaVuSans-30" transform="translate(127.246094 0)"/>
      </g>
     </g>
    </g>
    <g id="ytick_6">
     <g id="line2d_25">
      <path d="M 46.965625 116.557158 
L 545.765625 116.557158 
" clip-path="url(#p9116061ec0)" style="fill: none; stroke-dasharray: 2.96,1.28; stroke-dashoffset: 0; stroke: #b0b0b0; stroke-opacity: 0.6; stroke-width: 0.8"/>
     </g>
     <g id="line2d_26">
      <g>
       <use xlink:href="#m72e557fcfc" x="46.965625" y="116.557158" style="stroke: #000000; stroke-width: 0.8"/>
      </g>
     </g>
     <g id="text_14">
      <!-- 250 -->
      <g transform="translate(20.878125 120.356377) scale(0.1 -0.1)">
       <use xlink:href="#DejaVuSans-32"/>
       <use xlink:href="#DejaVuSans-35" transform="translate(63.623047 0)"/>
       <use xlink:href="#DejaVuSans-30" transform="translate(127.246094 0)"/>
      </g>
     </g>
    </g>
    <g id="ytick_7">
     <g id="line2d_27">
      <path d="M 46.965625 52.054055 
L 545.765625 52.054055 
" clip-path="url(#p9116061ec0)" style="fill: none; stroke-dasharray: 2.96,1.28; stroke-dashoffset: 0; stroke: #b0b0b0; stroke-opacity: 0.6; stroke-width: 0.8"/>
     </g>
     <g id="line2d_28">
      <g>
       <use xlink:href="#m72e557fcfc" x="46.965625" y="52.054055" style="stroke: #000000; stroke-width: 0.8"/>
      </g>
     </g>
     <g id="text_15">
      <!-- 300 -->
      <g transform="translate(20.878125 55.853274) scale(0.1 -0.1)">
       <defs>
        <path id="DejaVuSans-33" d="M 2597 2516 
Q 3050 2419 3304 2112 
Q 3559 1806 3559 1356 
Q 3559 666 3084 287 
Q 2609 -91 1734 -91 
Q 1441 -91 1130 -33 
Q 819 25 488 141 
L 488 750 
Q 750 597 1062 519 
Q 1375 441 1716 441 
Q 2309 441 2620 675 
Q 2931 909 2931 1356 
Q 2931 1769 2642 2001 
Q 2353 2234 1838 2234 
L 1294 2234 
L 1294 2753 
L 1863 2753 
Q 2328 2753 2575 2939 
Q 2822 3125 2822 3475 
Q 2822 3834 2567 4026 
Q 2313 4219 1838 4219 
Q 1578 4219 1281 4162 
Q 984 4106 628 3988 
L 628 4550 
Q 988 4650 1302 4700 
Q 1616 4750 1894 4750 
Q 2613 4750 3031 4423 
Q 3450 4097 3450 3541 
Q 3450 3153 3228 2886 
Q 3006 2619 2597 2516 
z
" transform="scale(0.015625)"/>
       </defs>
       <use xlink:href="#DejaVuSans-33"/>
       <use xlink:href="#DejaVuSans-30" transform="translate(63.623047 0)"/>
       <use xlink:href="#DejaVuSans-30" transform="translate(127.246094 0)"/>
      </g>
     </g>
    </g>
    <g id="text_16">
     <!-- Average Cumulative Count -->
     <g transform="translate(14.798438 307.715) rotate(-90) scale(0.1 -0.1)">
      <defs>
       <path id="DejaVuSans-41" d="M 2188 4044 
L 1331 1722 
L 3047 1722 
L 2188 4044 
z
M 1831 4666 
L 2547 4666 
L 4325 0 
L 3669 0 
L 3244 1197 
L 1141 1197 
L 716 0 
L 50 0 
L 1831 4666 
z
" transform="scale(0.015625)"/>
       <path id="DejaVuSans-76" d="M 191 3500 
L 800 3500 
L 1894 563 
L 2988 3500 
L 3597 3500 
L 2284 0 
L 1503 0 
L 191 3500 
z
" transform="scale(0.015625)"/>
       <path id="DejaVuSans-67" d="M 2906 1791 
Q 2906 2416 2648 2759 
Q 2391 3103 1925 3103 
Q 1463 3103 1205 2759 
Q 947 2416 947 1791 
Q 947 1169 1205 825 
Q 1463 481 1925 481 
Q 2391 481 2648 825 
Q 2906 1169 2906 1791 
z
M 3481 434 
Q 3481 -459 3084 -895 
Q 2688 -1331 1869 -1331 
Q 1566 -1331 1297 -1286 
Q 1028 -1241 775 -1147 
L 775 -588 
Q 1028 -725 1275 -790 
Q 1522 -856 1778 -856 
Q 2344 -856 2625 -561 
Q 2906 -266 2906 331 
L 2906 616 
Q 2728 306 2450 153 
Q 2172 0 1784 0 
Q 1141 0 747 490 
Q 353 981 353 1791 
Q 353 2603 747 3093 
Q 1141 3584 1784 3584 
Q 2172 3584 2450 3431 
Q 2728 3278 2906 2969 
L 2906 3500 
L 3481 3500 
L 3481 434 
z
" transform="scale(0.015625)"/>
       <path id="DejaVuSans-43" d="M 4122 4306 
L 4122 3641 
Q 3803 3938 3442 4084 
Q 3081 4231 2675 4231 
Q 1875 4231 1450 3742 
Q 1025 3253 1025 2328 
Q 1025 1406 1450 917 
Q 1875 428 2675 428 
Q 3081 428 3442 575 
Q 3803 722 4122 1019 
L 4122 359 
Q 3791 134 3420 21 
Q 3050 -91 2638 -91 
Q 1578 -91 968 557 
Q 359 1206 359 2328 
Q 359 3453 968 4101 
Q 1578 4750 2638 4750 
Q 3056 4750 3426 4639 
Q 3797 4528 4122 4306 
z
" transform="scale(0.015625)"/>
       <path id="DejaVuSans-6c" d="M 603 4863 
L 1178 4863 
L 1178 0 
L 603 0 
L 603 4863 
z
" transform="scale(0.015625)"/>
      </defs>
      <use xlink:href="#DejaVuSans-41"/>
      <use xlink:href="#DejaVuSans-76" transform="translate(62.533203 0)"/>
      <use xlink:href="#DejaVuSans-65" transform="translate(121.712891 0)"/>
      <use xlink:href="#DejaVuSans-72" transform="translate(183.236328 0)"/>
      <use xlink:href="#DejaVuSans-61" transform="translate(224.349609 0)"/>
      <use xlink:href="#DejaVuSans-67" transform="translate(285.628906 0)"/>
      <use xlink:href="#DejaVuSans-65" transform="translate(349.105469 0)"/>
      <use xlink:href="#DejaVuSans-20" transform="translate(410.628906 0)"/>
      <use xlink:href="#DejaVuSans-43" transform="translate(442.416016 0)"/>
      <use xlink:href="#DejaVuSans-75" transform="translate(512.240234 0)"/>
      <use xlink:href="#DejaVuSans-6d" transform="translate(575.619141 0)"/>
      <use xlink:href="#DejaVuSans-75" transform="translate(673.03125 0)"/>
      <use xlink:href="#DejaVuSans-6c" transform="translate(736.410156 0)"/>
      <use xlink:href="#DejaVuSans-61" transform="translate(764.193359 0)"/>
      <use xlink:href="#DejaVuSans-74" transform="translate(825.472656 0)"/>
      <use xlink:href="#DejaVuSans-69" transform="translate(864.681641 0)"/>
      <use xlink:href="#DejaVuSans-76" transform="translate(892.464844 0)"/>
      <use xlink:href="#DejaVuSans-65" transform="translate(951.644531 0)"/>
      <use xlink:href="#DejaVuSans-20" transform="translate(1013.167969 0)"/>
      <use xlink:href="#DejaVuSans-43" transform="translate(1044.955078 0)"/>
      <use xlink:href="#DejaVuSans-6f" transform="translate(1114.779297 0)"/>
      <use xlink:href="#DejaVuSans-75" transform="translate(1175.960938 0)"/>
      <use xlink:href="#DejaVuSans-6e" transform="translate(1239.339844 0)"/>
      <use xlink:href="#DejaVuSans-74" transform="translate(1302.71875 0)"/>
     </g>
    </g>
   </g>
   <g id="line2d_29">
    <path d="M 69.638352 439.07267 
L 523.092898 439.07267 
L 523.092898 439.07267 
" clip-path="url(#p9116061ec0)" style="fill: none; stroke: #006ba4; stroke-width: 2; stroke-linecap: square"/>
   </g>
   <g id="line2d_30">
    <path d="M 69.638352 439.07267 
L 323.253941 439.07267 
L 323.367315 438.64265 
L 334.288922 438.64265 
L 334.402295 438.212629 
L 409.341903 438.212629 
L 409.455276 437.782608 
L 409.984351 437.782608 
L 410.097724 437.352588 
L 420.376884 437.352588 
L 420.490257 436.922567 
L 456.618479 436.922567 
L 456.731852 436.492546 
L 457.487673 436.492546 
L 457.601046 436.062526 
L 467.65346 436.062526 
L 467.766833 435.632505 
L 523.092898 435.632505 
L 523.092898 435.632505 
" clip-path="url(#p9116061ec0)" style="fill: none; stroke: #ff800e; stroke-width: 2; stroke-linecap: square"/>
   </g>
   <g id="line2d_31">
    <path d="M 69.638352 439.07267 
L 69.751725 438.64265 
L 69.865098 438.64265 
L 69.978472 438.212629 
L 70.054054 438.212629 
L 70.167427 437.782608 
L 70.318591 437.782608 
L 70.431964 437.352588 
L 71.112202 437.352588 
L 71.225575 436.922567 
L 71.263366 436.922567 
L 71.37674 436.492546 
L 71.414531 436.492546 
L 71.565695 435.632505 
L 71.679068 435.632505 
L 71.792441 435.202484 
L 72.397097 435.202484 
L 72.51047 434.772464 
L 72.812799 434.772464 
L 72.926172 434.342443 
L 73.001754 434.342443 
L 73.115127 433.912422 
L 73.2285 433.912422 
L 73.341873 433.482402 
L 73.644201 433.482402 
L 73.757574 433.052381 
L 73.908738 433.052381 
L 74.022112 432.62236 
L 74.059903 432.62236 
L 74.173276 432.19234 
L 74.475604 432.19234 
L 74.626768 431.332298 
L 74.929096 431.332298 
L 75.042469 430.902277 
L 75.344798 430.902277 
L 75.458171 430.042236 
L 75.760499 430.042236 
L 75.873872 429.612215 
L 75.949454 429.612215 
L 76.062827 429.182195 
L 76.1762 429.182195 
L 76.289573 428.752174 
L 76.365155 428.752174 
L 76.478528 428.322153 
L 76.591901 428.322153 
L 76.705275 427.892133 
L 76.780857 427.892133 
L 76.932021 427.032091 
L 77.007603 427.032091 
L 77.120976 426.602071 
L 77.196558 426.602071 
L 77.309931 426.17205 
L 77.423304 426.17205 
L 77.536677 425.742029 
L 77.612259 425.742029 
L 77.725632 425.312009 
L 77.839005 425.312009 
L 77.952378 424.881988 
L 78.02796 424.881988 
L 78.141334 424.451967 
L 78.254707 424.451967 
L 78.36808 424.021947 
L 78.443662 424.021947 
L 78.557035 423.591926 
L 78.670408 423.591926 
L 78.783781 423.161905 
L 78.859363 423.161905 
L 78.972736 422.731884 
L 79.086109 422.731884 
L 79.199482 422.301864 
L 79.275064 422.301864 
L 79.388438 421.871843 
L 79.501811 421.871843 
L 79.615184 421.441822 
L 79.690766 421.441822 
L 79.804139 421.011802 
L 79.917512 421.011802 
L 80.030885 420.581781 
L 80.106467 420.581781 
L 80.21984 420.15176 
L 80.333213 420.15176 
L 80.446586 419.72174 
L 80.522168 419.72174 
L 80.635541 418.861698 
L 80.748915 418.861698 
L 80.862288 418.431678 
L 80.93787 418.431678 
L 81.051243 418.001657 
L 81.164616 418.001657 
L 81.277989 417.571636 
L 81.353571 417.571636 
L 81.504735 416.711595 
L 81.580317 416.711595 
L 81.69369 416.281574 
L 81.769272 416.281574 
L 81.920436 415.421533 
L 81.996018 415.421533 
L 82.109392 414.991512 
L 82.184974 414.991512 
L 82.336138 414.131471 
L 82.41172 414.131471 
L 82.525093 413.70145 
L 82.600675 413.70145 
L 82.751839 412.841409 
L 82.827421 412.841409 
L 82.940794 412.411388 
L 83.016376 412.411388 
L 83.129749 411.981367 
L 83.243122 411.981367 
L 83.356495 411.551347 
L 83.432078 411.551347 
L 83.583242 410.691305 
L 83.658824 410.691305 
L 83.772197 410.261285 
L 83.847779 410.261285 
L 83.961152 409.831264 
L 84.074525 409.831264 
L 84.187898 409.401243 
L 84.26348 409.401243 
L 84.414644 408.541202 
L 84.490226 408.541202 
L 84.603599 408.111181 
L 84.679181 408.111181 
L 84.792555 407.681161 
L 84.905928 407.681161 
L 85.019301 407.25114 
L 85.094883 407.25114 
L 85.246047 406.391099 
L 85.321629 406.391099 
L 85.435002 405.961078 
L 85.510584 405.961078 
L 85.623957 405.531057 
L 85.926285 405.531057 
L 86.077449 404.671016 
L 86.190823 404.671016 
L 86.304196 404.240995 
L 86.341987 404.240995 
L 86.493151 403.380954 
L 86.606524 403.380954 
L 86.719897 402.950933 
L 86.757688 402.950933 
L 86.908852 402.090892 
L 87.022225 402.090892 
L 87.135598 401.660871 
L 87.173389 401.660871 
L 87.324553 400.80083 
L 87.589091 400.80083 
L 87.740255 399.940788 
L 87.891419 399.940788 
L 88.080374 398.650726 
L 88.30712 398.650726 
L 88.496075 397.360664 
L 88.722821 397.360664 
L 88.836195 396.930643 
L 88.873986 396.930643 
L 88.987359 396.500623 
L 89.138523 396.500623 
L 89.251896 396.070602 
L 89.289687 396.070602 
L 89.40306 395.210561 
L 89.554224 395.210561 
L 89.667597 394.78054 
L 89.705388 394.78054 
L 89.818761 393.920499 
L 89.969925 393.920499 
L 90.083298 393.490478 
L 90.121089 393.490478 
L 90.234463 392.630437 
L 90.385627 392.630437 
L 90.499 392.200416 
L 90.536791 392.200416 
L 90.650164 391.340375 
L 90.801328 391.340375 
L 90.914701 390.910354 
L 90.952492 390.910354 
L 91.065865 390.050313 
L 91.217029 390.050313 
L 91.330402 389.620292 
L 91.368193 389.620292 
L 91.481566 388.76025 
L 91.632731 388.76025 
L 91.746104 388.33023 
L 91.783895 388.33023 
L 91.897268 387.900209 
L 92.048432 387.900209 
L 92.237387 386.610147 
L 92.464133 386.610147 
L 92.653088 385.320085 
L 92.879835 385.320085 
L 93.06879 384.030023 
L 93.295536 384.030023 
L 93.4467 383.169982 
L 93.711237 383.169982 
L 93.862401 382.30994 
L 94.126938 382.30994 
L 94.278103 381.449899 
L 94.353685 381.449899 
L 94.467058 381.019878 
L 94.54264 381.019878 
L 94.656013 380.589857 
L 94.769386 380.589857 
L 94.882759 380.159837 
L 94.958341 380.159837 
L 95.109505 379.299795 
L 95.185087 379.299795 
L 95.29846 378.869775 
L 95.374042 378.869775 
L 95.525206 378.009733 
L 95.63858 378.009733 
L 95.751953 377.579713 
L 95.789744 377.579713 
L 95.940908 376.719671 
L 96.054281 376.719671 
L 96.167654 376.289651 
L 96.205445 376.289651 
L 96.318818 375.85963 
L 96.469982 375.85963 
L 96.583355 375.429609 
L 96.621146 375.429609 
L 96.734519 374.999589 
L 96.77231 374.999589 
L 96.923475 374.139547 
L 97.036848 374.139547 
L 97.150221 373.709527 
L 97.301385 373.709527 
L 97.414758 373.279506 
L 97.452549 373.279506 
L 97.565922 372.849485 
L 97.641504 372.849485 
L 97.792668 371.989444 
L 97.86825 371.989444 
L 97.981623 371.559423 
L 98.057205 371.559423 
L 98.208369 370.699382 
L 98.283952 370.699382 
L 98.397325 370.269361 
L 98.472907 370.269361 
L 98.624071 369.40932 
L 98.699653 369.40932 
L 98.813026 368.979299 
L 98.888608 368.979299 
L 99.039772 368.119258 
L 99.115354 368.119258 
L 99.228727 367.689237 
L 99.304309 367.689237 
L 99.455473 366.829196 
L 99.531055 366.829196 
L 99.644429 366.399175 
L 99.720011 366.399175 
L 99.871175 365.539134 
L 99.946757 365.539134 
L 100.06013 365.109113 
L 100.135712 365.109113 
L 100.286876 364.249072 
L 100.362458 364.249072 
L 100.475831 363.819051 
L 100.551413 363.819051 
L 100.702577 362.959009 
L 100.778159 362.959009 
L 100.891532 362.528989 
L 100.967115 362.528989 
L 101.118279 361.668947 
L 101.193861 361.668947 
L 101.307234 361.238927 
L 101.382816 361.238927 
L 101.53398 360.378885 
L 101.609562 360.378885 
L 101.722935 359.948865 
L 101.798517 359.948865 
L 101.949681 359.088823 
L 102.025263 359.088823 
L 102.138636 358.658803 
L 102.214218 358.658803 
L 102.365383 357.798761 
L 102.440965 357.798761 
L 102.554338 357.368741 
L 102.62992 357.368741 
L 102.781084 356.508699 
L 102.856666 356.508699 
L 102.970039 356.078679 
L 103.045621 356.078679 
L 103.196785 355.218637 
L 103.272367 355.218637 
L 103.38574 354.788616 
L 103.461322 354.788616 
L 103.574695 354.358596 
L 103.688069 354.358596 
L 103.801442 353.928575 
L 103.877024 353.928575 
L 103.990397 353.498554 
L 104.028188 353.498554 
L 104.179352 352.638513 
L 104.292725 352.638513 
L 104.406098 352.208492 
L 104.443889 352.208492 
L 104.595053 351.348451 
L 104.708426 351.348451 
L 104.821799 350.91843 
L 104.85959 350.91843 
L 105.010755 350.058389 
L 105.124128 350.058389 
L 105.237501 349.628368 
L 105.275292 349.628368 
L 105.426456 348.768327 
L 105.539829 348.768327 
L 105.653202 348.338306 
L 105.766575 348.338306 
L 105.879948 347.908286 
L 105.95553 347.908286 
L 106.068903 347.478265 
L 106.182276 347.478265 
L 106.295649 346.618223 
L 106.371232 346.618223 
L 106.484605 346.188203 
L 106.597978 346.188203 
L 106.711351 345.328161 
L 106.786933 345.328161 
L 106.900306 344.898141 
L 107.013679 344.898141 
L 107.127052 344.038099 
L 107.202634 344.038099 
L 107.316007 343.608079 
L 107.42938 343.608079 
L 107.542753 342.748037 
L 107.618335 342.748037 
L 107.731709 342.318017 
L 107.845082 342.318017 
L 107.958455 341.457975 
L 108.034037 341.457975 
L 108.14741 341.027955 
L 108.260783 341.027955 
L 108.374156 340.167913 
L 108.449738 340.167913 
L 108.563111 339.737893 
L 108.676484 339.737893 
L 108.789857 338.877851 
L 108.865439 338.877851 
L 108.978812 338.447831 
L 109.092186 338.447831 
L 109.205559 338.01781 
L 109.281141 338.01781 
L 109.394514 337.587789 
L 109.507887 337.587789 
L 109.659051 336.727748 
L 109.923588 336.727748 
L 110.074752 335.867706 
L 110.150334 335.867706 
L 110.263707 335.437686 
L 110.339289 335.437686 
L 110.490454 334.577644 
L 110.566036 334.577644 
L 110.679409 334.147624 
L 110.754991 334.147624 
L 110.906155 333.287582 
L 110.981737 333.287582 
L 111.09511 332.857562 
L 111.170692 332.857562 
L 111.321856 331.99752 
L 111.397438 331.99752 
L 111.510811 331.5675 
L 111.586393 331.5675 
L 111.699766 331.137479 
L 111.81314 331.137479 
L 111.926513 330.707458 
L 112.002095 330.707458 
L 112.153259 329.847417 
L 112.228841 329.847417 
L 112.342214 329.417396 
L 112.417796 329.417396 
L 112.56896 328.557355 
L 112.644542 328.557355 
L 112.757915 328.127334 
L 112.833497 328.127334 
L 112.984661 327.267293 
L 113.060243 327.267293 
L 113.173617 326.837272 
L 113.249199 326.837272 
L 113.400363 325.977231 
L 113.475945 325.977231 
L 113.589318 325.54721 
L 113.6649 325.54721 
L 113.816064 324.687169 
L 113.891646 324.687169 
L 114.005019 324.257148 
L 114.080601 324.257148 
L 114.231765 323.397107 
L 114.307347 323.397107 
L 114.420721 322.967086 
L 114.496303 322.967086 
L 114.647467 322.107045 
L 114.723049 322.107045 
L 114.836422 321.677024 
L 114.987586 321.677024 
L 115.100959 321.247003 
L 115.13875 321.247003 
L 115.252123 320.816982 
L 115.289914 320.816982 
L 115.441078 319.956941 
L 115.554451 319.956941 
L 115.667824 319.52692 
L 115.705615 319.52692 
L 115.85678 318.666879 
L 115.970153 318.666879 
L 116.083526 318.236858 
L 116.121317 318.236858 
L 116.272481 317.376817 
L 116.385854 317.376817 
L 116.499227 316.946796 
L 116.537018 316.946796 
L 116.650391 316.516776 
L 116.801555 316.516776 
L 116.914928 316.086755 
L 117.141675 316.086755 
L 117.292839 315.226714 
L 117.33063 315.226714 
L 117.444003 314.796693 
L 117.557376 314.796693 
L 117.70854 313.936652 
L 117.746331 313.936652 
L 117.859704 313.506631 
L 117.973077 313.506631 
L 118.124241 312.646589 
L 118.162032 312.646589 
L 118.275405 312.216569 
L 118.388778 312.216569 
L 118.539943 311.356527 
L 118.577734 311.356527 
L 118.691107 310.926507 
L 118.80448 310.926507 
L 118.955644 310.066465 
L 118.993435 310.066465 
L 119.106808 309.636445 
L 119.220181 309.636445 
L 119.371345 308.776403 
L 119.409136 308.776403 
L 119.522509 308.346383 
L 119.635882 308.346383 
L 119.787046 307.486341 
L 119.824838 307.486341 
L 119.938211 307.056321 
L 120.051584 307.056321 
L 120.202748 306.196279 
L 120.240539 306.196279 
L 120.353912 305.766259 
L 120.467285 305.766259 
L 120.618449 304.906217 
L 120.65624 304.906217 
L 120.769613 304.476197 
L 120.882986 304.476197 
L 121.03415 303.616155 
L 121.071941 303.616155 
L 121.185315 303.186134 
L 121.298688 303.186134 
L 121.449852 302.326093 
L 121.487643 302.326093 
L 121.601016 301.896072 
L 121.714389 301.896072 
L 121.865553 301.036031 
L 121.903344 301.036031 
L 122.016717 300.60601 
L 122.167881 300.60601 
L 122.281254 300.17599 
L 122.319045 300.17599 
L 122.432418 299.745969 
L 122.583583 299.745969 
L 122.696956 299.315948 
L 122.734747 299.315948 
L 122.84812 298.885928 
L 122.961493 298.885928 
L 123.074866 298.455907 
L 123.150448 298.455907 
L 123.263821 298.025886 
L 123.377194 298.025886 
L 123.528358 297.165845 
L 123.792895 297.165845 
L 123.94406 296.305804 
L 124.208597 296.305804 
L 124.359761 295.015741 
L 124.624298 295.015741 
L 124.775462 293.725679 
L 125.039999 293.725679 
L 125.191163 292.435617 
L 125.455701 292.435617 
L 125.606865 291.145555 
L 125.871402 291.145555 
L 125.984775 290.285514 
L 126.287103 290.285514 
L 126.438267 288.995452 
L 126.702805 288.995452 
L 126.853969 287.70539 
L 127.118506 287.70539 
L 127.26967 286.415328 
L 127.534207 286.415328 
L 127.685371 285.555286 
L 127.912118 285.555286 
L 128.101073 284.265224 
L 128.327819 284.265224 
L 128.478983 283.405183 
L 128.74352 283.405183 
L 128.894684 282.545142 
L 129.159221 282.545142 
L 129.348177 281.25508 
L 129.574923 281.25508 
L 129.763878 279.965018 
L 129.990624 279.965018 
L 130.179579 278.674955 
L 130.406325 278.674955 
L 130.595281 277.384893 
L 130.822027 277.384893 
L 131.010982 276.094831 
L 131.237728 276.094831 
L 131.351101 275.664811 
L 131.388892 275.664811 
L 131.502265 275.23479 
L 131.653429 275.23479 
L 131.842384 273.944728 
L 132.069131 273.944728 
L 132.258086 272.654666 
L 132.484832 272.654666 
L 132.635996 271.794625 
L 132.673787 271.794625 
L 132.78716 271.364604 
L 132.900533 271.364604 
L 133.051697 270.504563 
L 133.089488 270.504563 
L 133.202861 270.074542 
L 133.316235 270.074542 
L 133.467399 269.2145 
L 133.731936 269.2145 
L 133.8831 268.354459 
L 133.996473 268.354459 
L 134.109846 267.924438 
L 134.147637 267.924438 
L 134.298801 267.064397 
L 134.412174 267.064397 
L 134.525547 266.634376 
L 134.563338 266.634376 
L 134.714503 265.774335 
L 134.827876 265.774335 
L 134.941249 265.344314 
L 134.97904 265.344314 
L 135.130204 264.484273 
L 135.243577 264.484273 
L 135.35695 264.054252 
L 135.394741 264.054252 
L 135.545905 263.194211 
L 135.659278 263.194211 
L 135.772651 262.76419 
L 135.810442 262.76419 
L 135.961606 261.904149 
L 136.226144 261.904149 
L 136.377308 261.044107 
L 136.528472 261.044107 
L 136.679636 260.184066 
L 136.717427 260.184066 
L 136.8308 259.754045 
L 136.944173 259.754045 
L 137.095337 258.894004 
L 137.133128 258.894004 
L 137.246501 258.463983 
L 137.359875 258.463983 
L 137.511039 257.603942 
L 137.54883 257.603942 
L 137.662203 257.173921 
L 137.888949 257.173921 
L 138.040113 256.31388 
L 138.229068 256.31388 
L 138.418023 255.023818 
L 138.644769 255.023818 
L 138.833725 253.733756 
L 139.060471 253.733756 
L 139.249426 252.443694 
L 139.476172 252.443694 
L 139.665127 251.153632 
L 139.929664 251.153632 
L 140.080829 250.29359 
L 140.307575 250.29359 
L 140.49653 249.003528 
L 140.723276 249.003528 
L 140.912231 247.713466 
L 141.138977 247.713466 
L 141.327932 246.423404 
L 141.554679 246.423404 
L 141.743634 245.133342 
L 141.97038 245.133342 
L 142.159335 243.84328 
L 142.386081 243.84328 
L 142.575036 242.553218 
L 142.952947 242.553218 
L 143.06632 242.123197 
L 143.217484 242.123197 
L 143.406439 240.833135 
L 143.633185 240.833135 
L 143.82214 239.543073 
L 144.048886 239.543073 
L 144.237842 238.253011 
L 144.464588 238.253011 
L 144.653543 236.962949 
L 144.880289 236.962949 
L 144.993662 236.532929 
L 145.031453 236.532929 
L 145.144826 236.102908 
L 145.29599 236.102908 
L 145.409363 235.672887 
L 145.447155 235.672887 
L 145.560528 235.242866 
L 145.711692 235.242866 
L 145.825065 234.812846 
L 145.862856 234.812846 
L 145.976229 233.952804 
L 146.127393 233.952804 
L 146.240766 233.522784 
L 146.278557 233.522784 
L 146.39193 232.662742 
L 146.543094 232.662742 
L 146.656467 232.232722 
L 146.694258 232.232722 
L 146.807632 231.37268 
L 146.958796 231.37268 
L 147.072169 230.94266 
L 147.10996 230.94266 
L 147.261124 230.082618 
L 147.374497 230.082618 
L 147.48787 229.652598 
L 147.525661 229.652598 
L 147.639034 229.222577 
L 147.941362 229.222577 
L 148.092526 228.362536 
L 148.243691 228.362536 
L 148.394855 227.502494 
L 148.432646 227.502494 
L 148.546019 227.072473 
L 148.659392 227.072473 
L 148.810556 226.212432 
L 148.848347 226.212432 
L 148.96172 225.782411 
L 149.075093 225.782411 
L 149.226257 224.92237 
L 149.264048 224.92237 
L 149.377421 224.492349 
L 149.490795 224.492349 
L 149.641959 223.632308 
L 149.67975 223.632308 
L 149.793123 223.202287 
L 149.906496 223.202287 
L 150.05766 222.342246 
L 150.095451 222.342246 
L 150.208824 221.912225 
L 150.322197 221.912225 
L 150.473361 221.052184 
L 150.511152 221.052184 
L 150.624525 220.622163 
L 150.737898 220.622163 
L 150.889063 219.762122 
L 150.926854 219.762122 
L 151.040227 219.332101 
L 151.1536 219.332101 
L 151.304764 218.47206 
L 151.342555 218.47206 
L 151.455928 218.042039 
L 151.569301 218.042039 
L 151.720465 217.181998 
L 151.758256 217.181998 
L 151.871629 216.751977 
L 152.098375 216.751977 
L 152.24954 215.891936 
L 152.362913 215.891936 
L 152.476286 215.461915 
L 152.514077 215.461915 
L 152.665241 214.601874 
L 152.778614 214.601874 
L 152.891987 214.171853 
L 152.929778 214.171853 
L 153.080942 213.311812 
L 153.194315 213.311812 
L 153.307688 212.881791 
L 153.345479 212.881791 
L 153.496643 212.02175 
L 153.610017 212.02175 
L 153.72339 211.591729 
L 153.761181 211.591729 
L 153.912345 210.731687 
L 154.025718 210.731687 
L 154.139091 210.301667 
L 154.176882 210.301667 
L 154.328046 209.441625 
L 154.441419 209.441625 
L 154.554792 209.011605 
L 154.592583 209.011605 
L 154.743747 208.151563 
L 154.857121 208.151563 
L 154.970494 207.721543 
L 155.008285 207.721543 
L 155.159449 206.861501 
L 155.272822 206.861501 
L 155.386195 206.431481 
L 155.423986 206.431481 
L 155.57515 205.571439 
L 155.688523 205.571439 
L 155.801896 205.141419 
L 155.839687 205.141419 
L 155.990851 204.281377 
L 156.104224 204.281377 
L 156.217598 203.851357 
L 156.255389 203.851357 
L 156.406553 202.991315 
L 156.519926 202.991315 
L 156.633299 202.561295 
L 156.67109 202.561295 
L 156.822254 201.701253 
L 156.935627 201.701253 
L 157.049 201.271232 
L 157.086791 201.271232 
L 157.237955 200.411191 
L 157.351328 200.411191 
L 157.464701 199.98117 
L 157.502492 199.98117 
L 157.653657 199.121129 
L 157.76703 199.121129 
L 157.880403 198.691108 
L 157.918194 198.691108 
L 158.069358 197.831067 
L 158.182731 197.831067 
L 158.296104 197.401046 
L 158.333895 197.401046 
L 158.447268 196.971026 
L 158.485059 196.971026 
L 158.636223 196.110984 
L 158.749596 196.110984 
L 158.862969 195.680964 
L 158.900761 195.680964 
L 159.051925 194.820922 
L 159.165298 194.820922 
L 159.278671 194.390902 
L 159.316462 194.390902 
L 159.467626 193.53086 
L 159.580999 193.53086 
L 159.694372 193.100839 
L 159.732163 193.100839 
L 159.883327 192.240798 
L 159.9967 192.240798 
L 160.110073 191.810777 
L 160.261238 191.810777 
L 160.374611 191.380757 
L 160.412402 191.380757 
L 160.525775 190.950736 
L 160.676939 190.950736 
L 160.790312 190.090695 
L 160.828103 190.090695 
L 160.941476 189.660674 
L 161.09264 189.660674 
L 161.206013 188.800633 
L 161.243804 188.800633 
L 161.357177 188.370612 
L 161.508341 188.370612 
L 161.621715 187.940591 
L 161.659506 187.940591 
L 161.772879 187.510571 
L 161.924043 187.510571 
L 162.037416 187.08055 
L 162.075207 187.08055 
L 162.18858 186.650529 
L 162.339744 186.650529 
L 162.528699 185.360467 
L 162.755445 185.360467 
L 162.944401 184.070405 
L 163.171147 184.070405 
L 163.28452 183.640384 
L 163.322311 183.640384 
L 163.435684 183.210364 
L 163.586848 183.210364 
L 163.700221 182.780343 
L 163.738012 182.780343 
L 163.851385 181.920302 
L 164.002549 181.920302 
L 164.115922 181.490281 
L 164.153713 181.490281 
L 164.267086 180.63024 
L 164.418251 180.63024 
L 164.531624 180.200219 
L 164.569415 180.200219 
L 164.682788 179.340178 
L 164.833952 179.340178 
L 164.947325 178.910157 
L 164.985116 178.910157 
L 165.098489 178.480136 
L 165.249653 178.480136 
L 165.438608 177.190074 
L 165.665355 177.190074 
L 165.85431 175.900012 
L 166.081056 175.900012 
L 166.23222 175.039971 
L 166.496757 175.039971 
L 166.685712 173.749909 
L 166.912458 173.749909 
L 167.101414 172.459847 
L 167.32816 172.459847 
L 167.517115 171.169785 
L 167.743861 171.169785 
L 167.932816 169.879723 
L 168.159562 169.879723 
L 168.272935 169.449702 
L 168.310726 169.449702 
L 168.4241 169.019681 
L 168.575264 169.019681 
L 168.688637 168.589661 
L 168.726428 168.589661 
L 168.839801 167.729619 
L 168.990965 167.729619 
L 169.104338 167.299598 
L 169.142129 167.299598 
L 169.255502 166.439557 
L 169.406666 166.439557 
L 169.520039 166.009536 
L 169.55783 166.009536 
L 169.671203 165.149495 
L 169.822368 165.149495 
L 169.935741 164.719474 
L 169.973532 164.719474 
L 170.086905 163.859433 
L 170.238069 163.859433 
L 170.351442 163.429412 
L 170.389233 163.429412 
L 170.502606 162.999392 
L 170.65377 162.999392 
L 170.767143 162.569371 
L 170.804934 162.569371 
L 170.956098 161.70933 
L 171.069472 161.70933 
L 171.182845 161.279309 
L 171.220636 161.279309 
L 171.3718 160.419268 
L 171.636337 160.419268 
L 171.74971 159.989247 
L 171.863083 159.989247 
L 171.976456 159.559226 
L 172.052038 159.559226 
L 172.203202 158.699185 
L 172.278784 158.699185 
L 172.392158 158.269164 
L 172.46774 158.269164 
L 172.618904 157.409123 
L 172.694486 157.409123 
L 172.807859 156.979102 
L 172.883441 156.979102 
L 173.034605 156.119061 
L 173.110187 156.119061 
L 173.22356 155.68904 
L 173.299142 155.68904 
L 173.450306 154.828999 
L 173.525888 154.828999 
L 173.639261 154.398978 
L 173.714843 154.398978 
L 173.866008 153.538937 
L 173.94159 153.538937 
L 174.054963 153.108916 
L 174.130545 153.108916 
L 174.281709 152.248875 
L 174.357291 152.248875 
L 174.470664 151.818854 
L 174.659619 151.818854 
L 174.810783 150.958812 
L 174.924156 150.958812 
L 175.037529 150.528792 
L 175.075321 150.528792 
L 175.226485 149.66875 
L 175.377649 149.66875 
L 175.491022 149.23873 
L 175.528813 149.23873 
L 175.679977 148.378688 
L 175.79335 148.378688 
L 175.906723 147.948668 
L 175.944514 147.948668 
L 176.095678 147.088626 
L 176.209051 147.088626 
L 176.322424 146.658606 
L 176.360215 146.658606 
L 176.51138 145.798564 
L 176.624753 145.798564 
L 176.738126 145.368544 
L 176.775917 145.368544 
L 176.927081 144.508502 
L 177.040454 144.508502 
L 177.153827 144.078482 
L 177.191618 144.078482 
L 177.342782 143.21844 
L 177.456155 143.21844 
L 177.569528 142.788419 
L 177.682901 142.788419 
L 177.796275 142.358399 
L 177.871857 142.358399 
L 177.98523 141.928378 
L 178.060812 141.928378 
L 178.211976 141.068337 
L 178.287558 141.068337 
L 178.400931 140.638316 
L 178.476513 140.638316 
L 178.627677 139.778275 
L 178.703259 139.778275 
L 178.816632 139.348254 
L 178.892214 139.348254 
L 179.043378 138.488213 
L 179.118961 138.488213 
L 179.232334 138.058192 
L 179.534662 138.058192 
L 179.648035 137.628171 
L 179.761408 137.628171 
L 179.874781 136.76813 
L 179.950363 136.76813 
L 180.063736 136.338109 
L 180.177109 136.338109 
L 180.290482 135.478068 
L 180.366064 135.478068 
L 180.479438 135.048047 
L 180.592811 135.048047 
L 180.706184 134.188006 
L 180.781766 134.188006 
L 180.895139 133.757985 
L 181.008512 133.757985 
L 181.121885 132.897944 
L 181.197467 132.897944 
L 181.31084 132.467923 
L 181.424213 132.467923 
L 181.537586 131.607882 
L 181.613168 131.607882 
L 181.726541 131.177861 
L 181.839915 131.177861 
L 181.953288 130.31782 
L 182.02887 130.31782 
L 182.142243 129.887799 
L 182.255616 129.887799 
L 182.368989 129.027758 
L 182.444571 129.027758 
L 182.557944 128.597737 
L 182.671317 128.597737 
L 182.78469 127.737696 
L 183.087018 127.737696 
L 183.200392 126.877654 
L 183.238183 126.877654 
L 183.351556 126.447634 
L 183.50272 126.447634 
L 183.616093 125.587592 
L 183.653884 125.587592 
L 183.767257 125.157571 
L 183.918421 125.157571 
L 184.031794 124.29753 
L 184.069585 124.29753 
L 184.182958 123.867509 
L 184.334122 123.867509 
L 184.447495 123.007468 
L 184.485286 123.007468 
L 184.59866 122.577447 
L 184.749824 122.577447 
L 184.863197 122.147427 
L 184.900988 122.147427 
L 185.014361 121.717406 
L 185.165525 121.717406 
L 185.35448 120.427344 
L 185.581226 120.427344 
L 185.770181 119.137282 
L 185.996928 119.137282 
L 186.185883 117.84722 
L 186.412629 117.84722 
L 186.601584 116.557158 
L 186.82833 116.557158 
L 187.017285 115.267096 
L 187.244032 115.267096 
L 187.432987 113.977034 
L 187.659733 113.977034 
L 187.848688 112.686972 
L 188.075434 112.686972 
L 188.264389 111.39691 
L 188.491135 111.39691 
L 188.680091 110.106848 
L 188.944628 110.106848 
L 189.095792 109.246806 
L 189.322538 109.246806 
L 189.511493 107.956744 
L 189.738239 107.956744 
L 189.927195 106.666682 
L 190.153941 106.666682 
L 190.342896 105.37662 
L 190.569642 105.37662 
L 190.720806 104.516579 
L 190.985343 104.516579 
L 191.174298 103.226517 
L 191.401045 103.226517 
L 191.59 101.936455 
L 191.816746 101.936455 
L 192.005701 100.646393 
L 192.232447 100.646393 
L 192.421402 99.35633 
L 192.648149 99.35633 
L 192.837104 98.066268 
L 193.06385 98.066268 
L 193.177223 97.636248 
L 193.215014 97.636248 
L 193.328387 97.206227 
L 193.479551 97.206227 
L 193.592924 96.346186 
L 193.630715 96.346186 
L 193.744088 95.916165 
L 193.895252 95.916165 
L 194.008626 95.486144 
L 194.046417 95.486144 
L 194.15979 95.056124 
L 194.310954 95.056124 
L 194.499909 93.766062 
L 194.726655 93.766062 
L 194.91561 92.476 
L 195.142356 92.476 
L 195.255729 92.045979 
L 195.293521 92.045979 
L 195.406894 91.615958 
L 195.558058 91.615958 
L 195.747013 90.325896 
L 195.973759 90.325896 
L 196.162714 89.035834 
L 196.38946 89.035834 
L 196.578415 87.745772 
L 196.805162 87.745772 
L 196.994117 86.45571 
L 197.220863 86.45571 
L 197.409818 85.165648 
L 197.636564 85.165648 
L 197.825519 83.875586 
L 198.052266 83.875586 
L 198.241221 82.585524 
L 198.467967 82.585524 
L 198.656922 81.295462 
L 198.883668 81.295462 
L 199.072623 80.0054 
L 199.299369 80.0054 
L 199.488325 78.715338 
L 199.715071 78.715338 
L 199.904026 77.425276 
L 200.130772 77.425276 
L 200.244145 76.995255 
L 200.281936 76.995255 
L 200.395309 76.565234 
L 200.546473 76.565234 
L 200.735429 75.275172 
L 200.962175 75.275172 
L 201.075548 74.845151 
L 201.113339 74.845151 
L 201.226712 74.415131 
L 201.377876 74.415131 
L 201.566831 73.125069 
L 201.831368 73.125069 
L 201.944741 72.695048 
L 202.171488 72.695048 
L 202.284861 72.265027 
L 202.322652 72.265027 
L 202.436025 71.835007 
L 202.587189 71.835007 
L 202.738353 70.974965 
L 203.00289 70.974965 
L 203.191845 69.684903 
L 203.418592 69.684903 
L 203.607547 68.394841 
L 203.834293 68.394841 
L 204.023248 67.104779 
L 204.249994 67.104779 
L 204.438949 65.814717 
L 204.665695 65.814717 
L 204.854651 64.524655 
L 205.081397 64.524655 
L 205.270352 63.234593 
L 205.497098 63.234593 
L 205.686053 61.944531 
L 205.912799 61.944531 
L 206.063963 61.08449 
L 206.328501 61.08449 
L 206.479665 60.224448 
L 206.517456 60.224448 
L 206.630829 59.794428 
L 206.744202 59.794428 
L 206.895366 58.934386 
L 207.159903 58.934386 
L 207.311067 58.074345 
L 207.575605 58.074345 
L 207.726769 57.214303 
L 207.991306 57.214303 
L 208.14247 56.354262 
L 208.407007 56.354262 
L 208.558171 55.494221 
L 208.822709 55.494221 
L 208.936082 55.0642 
L 209.23841 55.0642 
L 209.351783 54.634179 
L 209.654111 54.634179 
L 209.767484 54.204159 
L 210.069812 54.204159 
L 210.183186 53.774138 
L 210.485514 53.774138 
L 210.598887 53.344117 
L 210.901215 53.344117 
L 211.014588 52.914097 
L 211.316916 52.914097 
L 211.430289 52.484076 
L 211.732618 52.484076 
L 211.845991 52.054055 
L 212.148319 52.054055 
L 212.261692 51.624035 
L 212.56402 51.624035 
L 212.677393 51.194014 
L 213.357632 51.194014 
L 213.471005 50.763993 
L 214.151243 50.763993 
L 214.264617 50.333973 
L 214.566945 50.333973 
L 214.680318 49.903952 
L 214.982646 49.903952 
L 215.096019 49.473931 
L 215.398347 49.473931 
L 215.511721 49.04391 
L 215.814049 49.04391 
L 215.927422 48.61389 
L 216.22975 48.61389 
L 216.343123 48.183869 
L 216.645451 48.183869 
L 216.758824 47.753848 
L 217.061153 47.753848 
L 217.174526 47.323828 
L 217.476854 47.323828 
L 217.590227 46.893807 
L 217.892555 46.893807 
L 218.005928 46.463786 
L 218.308257 46.463786 
L 218.42163 46.033766 
L 218.723958 46.033766 
L 218.837331 45.603745 
L 219.139659 45.603745 
L 219.253032 45.173724 
L 219.555361 45.173724 
L 219.668734 44.743704 
L 220.197808 44.743704 
L 220.311181 44.313683 
L 221.596076 44.313683 
L 221.709449 43.883662 
L 232.631056 43.883662 
L 232.744429 43.453642 
L 247.445139 43.453642 
L 247.558512 43.023621 
L 248.57887 43.023621 
L 248.692243 42.5936 
L 259.61385 42.5936 
L 259.727223 42.16358 
L 523.092898 42.16358 
L 523.092898 42.16358 
" clip-path="url(#p9116061ec0)" style="fill: none; stroke: #ababab; stroke-width: 2; stroke-linecap: square"/>
   </g>
   <g id="patch_3">
    <path d="M 46.965625 458.918125 
L 46.965625 22.318125 
" style="fill: none; stroke: #000000; stroke-width: 0.8; stroke-linejoin: miter; stroke-linecap: square"/>
   </g>
   <g id="patch_4">
    <path d="M 545.765625 458.918125 
L 545.765625 22.318125 
" style="fill: none; stroke: #000000; stroke-width: 0.8; stroke-linejoin: miter; stroke-linecap: square"/>
   </g>
   <g id="patch_5">
    <path d="M 46.965625 458.918125 
L 545.765625 458.918125 
" style="fill: none; stroke: #000000; stroke-width: 0.8; stroke-linejoin: miter; stroke-linecap: square"/>
   </g>
   <g id="patch_6">
    <path d="M 46.965625 22.318125 
L 545.765625 22.318125 
" style="fill: none; stroke: #000000; stroke-width: 0.8; stroke-linejoin: miter; stroke-linecap: square"/>
   </g>
   <g id="text_17">
    <!-- Telomeric Motif Distribution: A_hattorfiana -->
    <g transform="translate(151.438438 16.318125) scale(0.12 -0.12)">
     <defs>
      <path id="DejaVuSans-Bold-54" d="M 31 4666 
L 4331 4666 
L 4331 3756 
L 2784 3756 
L 2784 0 
L 1581 0 
L 1581 3756 
L 31 3756 
L 31 4666 
z
" transform="scale(0.015625)"/>
      <path id="DejaVuSans-Bold-65" d="M 4031 1759 
L 4031 1441 
L 1416 1441 
Q 1456 1047 1700 850 
Q 1944 653 2381 653 
Q 2734 653 3104 758 
Q 3475 863 3866 1075 
L 3866 213 
Q 3469 63 3072 -14 
Q 2675 -91 2278 -91 
Q 1328 -91 801 392 
Q 275 875 275 1747 
Q 275 2603 792 3093 
Q 1309 3584 2216 3584 
Q 3041 3584 3536 3087 
Q 4031 2591 4031 1759 
z
M 2881 2131 
Q 2881 2450 2695 2645 
Q 2509 2841 2209 2841 
Q 1884 2841 1681 2658 
Q 1478 2475 1428 2131 
L 2881 2131 
z
" transform="scale(0.015625)"/>
      <path id="DejaVuSans-Bold-6c" d="M 538 4863 
L 1656 4863 
L 1656 0 
L 538 0 
L 538 4863 
z
" transform="scale(0.015625)"/>
      <path id="DejaVuSans-Bold-6f" d="M 2203 2784 
Q 1831 2784 1636 2517 
Q 1441 2250 1441 1747 
Q 1441 1244 1636 976 
Q 1831 709 2203 709 
Q 2569 709 2762 976 
Q 2956 1244 2956 1747 
Q 2956 2250 2762 2517 
Q 2569 2784 2203 2784 
z
M 2203 3584 
Q 3106 3584 3614 3096 
Q 4122 2609 4122 1747 
Q 4122 884 3614 396 
Q 3106 -91 2203 -91 
Q 1297 -91 786 396 
Q 275 884 275 1747 
Q 275 2609 786 3096 
Q 1297 3584 2203 3584 
z
" transform="scale(0.015625)"/>
      <path id="DejaVuSans-Bold-6d" d="M 3781 2919 
Q 3994 3244 4286 3414 
Q 4578 3584 4928 3584 
Q 5531 3584 5847 3212 
Q 6163 2841 6163 2131 
L 6163 0 
L 5038 0 
L 5038 1825 
Q 5041 1866 5042 1909 
Q 5044 1953 5044 2034 
Q 5044 2406 4934 2573 
Q 4825 2741 4581 2741 
Q 4263 2741 4089 2478 
Q 3916 2216 3909 1719 
L 3909 0 
L 2784 0 
L 2784 1825 
Q 2784 2406 2684 2573 
Q 2584 2741 2328 2741 
Q 2006 2741 1831 2477 
Q 1656 2213 1656 1722 
L 1656 0 
L 531 0 
L 531 3500 
L 1656 3500 
L 1656 2988 
Q 1863 3284 2130 3434 
Q 2397 3584 2719 3584 
Q 3081 3584 3359 3409 
Q 3638 3234 3781 2919 
z
" transform="scale(0.015625)"/>
      <path id="DejaVuSans-Bold-72" d="M 3138 2547 
Q 2991 2616 2845 2648 
Q 2700 2681 2553 2681 
Q 2122 2681 1889 2404 
Q 1656 2128 1656 1613 
L 1656 0 
L 538 0 
L 538 3500 
L 1656 3500 
L 1656 2925 
Q 1872 3269 2151 3426 
Q 2431 3584 2822 3584 
Q 2878 3584 2943 3579 
Q 3009 3575 3134 3559 
L 3138 2547 
z
" transform="scale(0.015625)"/>
      <path id="DejaVuSans-Bold-69" d="M 538 3500 
L 1656 3500 
L 1656 0 
L 538 0 
L 538 3500 
z
M 538 4863 
L 1656 4863 
L 1656 3950 
L 538 3950 
L 538 4863 
z
" transform="scale(0.015625)"/>
      <path id="DejaVuSans-Bold-63" d="M 3366 3391 
L 3366 2478 
Q 3138 2634 2908 2709 
Q 2678 2784 2431 2784 
Q 1963 2784 1702 2511 
Q 1441 2238 1441 1747 
Q 1441 1256 1702 982 
Q 1963 709 2431 709 
Q 2694 709 2930 787 
Q 3166 866 3366 1019 
L 3366 103 
Q 3103 6 2833 -42 
Q 2563 -91 2291 -91 
Q 1344 -91 809 395 
Q 275 881 275 1747 
Q 275 2613 809 3098 
Q 1344 3584 2291 3584 
Q 2566 3584 2833 3536 
Q 3100 3488 3366 3391 
z
" transform="scale(0.015625)"/>
      <path id="DejaVuSans-Bold-20" transform="scale(0.015625)"/>
      <path id="DejaVuSans-Bold-4d" d="M 588 4666 
L 2119 4666 
L 3181 2169 
L 4250 4666 
L 5778 4666 
L 5778 0 
L 4641 0 
L 4641 3413 
L 3566 897 
L 2803 897 
L 1728 3413 
L 1728 0 
L 588 0 
L 588 4666 
z
" transform="scale(0.015625)"/>
      <path id="DejaVuSans-Bold-74" d="M 1759 4494 
L 1759 3500 
L 2913 3500 
L 2913 2700 
L 1759 2700 
L 1759 1216 
Q 1759 972 1856 886 
Q 1953 800 2241 800 
L 2816 800 
L 2816 0 
L 1856 0 
Q 1194 0 917 276 
Q 641 553 641 1216 
L 641 2700 
L 84 2700 
L 84 3500 
L 641 3500 
L 641 4494 
L 1759 4494 
z
" transform="scale(0.015625)"/>
      <path id="DejaVuSans-Bold-66" d="M 2841 4863 
L 2841 4128 
L 2222 4128 
Q 1984 4128 1890 4042 
Q 1797 3956 1797 3744 
L 1797 3500 
L 2753 3500 
L 2753 2700 
L 1797 2700 
L 1797 0 
L 678 0 
L 678 2700 
L 122 2700 
L 122 3500 
L 678 3500 
L 678 3744 
Q 678 4316 997 4589 
Q 1316 4863 1984 4863 
L 2841 4863 
z
" transform="scale(0.015625)"/>
      <path id="DejaVuSans-Bold-44" d="M 1791 3756 
L 1791 909 
L 2222 909 
Q 2959 909 3348 1275 
Q 3738 1641 3738 2338 
Q 3738 3031 3350 3393 
Q 2963 3756 2222 3756 
L 1791 3756 
z
M 588 4666 
L 1856 4666 
Q 2919 4666 3439 4514 
Q 3959 4363 4331 4000 
Q 4659 3684 4818 3271 
Q 4978 2859 4978 2338 
Q 4978 1809 4818 1395 
Q 4659 981 4331 666 
Q 3956 303 3431 151 
Q 2906 0 1856 0 
L 588 0 
L 588 4666 
z
" transform="scale(0.015625)"/>
      <path id="DejaVuSans-Bold-73" d="M 3272 3391 
L 3272 2541 
Q 2913 2691 2578 2766 
Q 2244 2841 1947 2841 
Q 1628 2841 1473 2761 
Q 1319 2681 1319 2516 
Q 1319 2381 1436 2309 
Q 1553 2238 1856 2203 
L 2053 2175 
Q 2913 2066 3209 1816 
Q 3506 1566 3506 1031 
Q 3506 472 3093 190 
Q 2681 -91 1863 -91 
Q 1516 -91 1145 -36 
Q 775 19 384 128 
L 384 978 
Q 719 816 1070 734 
Q 1422 653 1784 653 
Q 2113 653 2278 743 
Q 2444 834 2444 1013 
Q 2444 1163 2330 1236 
Q 2216 1309 1875 1350 
L 1678 1375 
Q 931 1469 631 1722 
Q 331 1975 331 2491 
Q 331 3047 712 3315 
Q 1094 3584 1881 3584 
Q 2191 3584 2531 3537 
Q 2872 3491 3272 3391 
z
" transform="scale(0.015625)"/>
      <path id="DejaVuSans-Bold-62" d="M 2400 722 
Q 2759 722 2948 984 
Q 3138 1247 3138 1747 
Q 3138 2247 2948 2509 
Q 2759 2772 2400 2772 
Q 2041 2772 1848 2508 
Q 1656 2244 1656 1747 
Q 1656 1250 1848 986 
Q 2041 722 2400 722 
z
M 1656 2988 
Q 1888 3294 2169 3439 
Q 2450 3584 2816 3584 
Q 3463 3584 3878 3070 
Q 4294 2556 4294 1747 
Q 4294 938 3878 423 
Q 3463 -91 2816 -91 
Q 2450 -91 2169 54 
Q 1888 200 1656 506 
L 1656 0 
L 538 0 
L 538 4863 
L 1656 4863 
L 1656 2988 
z
" transform="scale(0.015625)"/>
      <path id="DejaVuSans-Bold-75" d="M 500 1363 
L 500 3500 
L 1625 3500 
L 1625 3150 
Q 1625 2866 1622 2436 
Q 1619 2006 1619 1863 
Q 1619 1441 1641 1255 
Q 1663 1069 1716 984 
Q 1784 875 1895 815 
Q 2006 756 2150 756 
Q 2500 756 2700 1025 
Q 2900 1294 2900 1772 
L 2900 3500 
L 4019 3500 
L 4019 0 
L 2900 0 
L 2900 506 
Q 2647 200 2364 54 
Q 2081 -91 1741 -91 
Q 1134 -91 817 281 
Q 500 653 500 1363 
z
" transform="scale(0.015625)"/>
      <path id="DejaVuSans-Bold-6e" d="M 4056 2131 
L 4056 0 
L 2931 0 
L 2931 347 
L 2931 1631 
Q 2931 2084 2911 2256 
Q 2891 2428 2841 2509 
Q 2775 2619 2662 2680 
Q 2550 2741 2406 2741 
Q 2056 2741 1856 2470 
Q 1656 2200 1656 1722 
L 1656 0 
L 538 0 
L 538 3500 
L 1656 3500 
L 1656 2988 
Q 1909 3294 2193 3439 
Q 2478 3584 2822 3584 
Q 3428 3584 3742 3212 
Q 4056 2841 4056 2131 
z
" transform="scale(0.015625)"/>
      <path id="DejaVuSans-Bold-3a" d="M 716 3500 
L 1844 3500 
L 1844 2291 
L 716 2291 
L 716 3500 
z
M 716 1209 
L 1844 1209 
L 1844 0 
L 716 0 
L 716 1209 
z
" transform="scale(0.015625)"/>
      <path id="DejaVuSans-Bold-41" d="M 3419 850 
L 1538 850 
L 1241 0 
L 31 0 
L 1759 4666 
L 3194 4666 
L 4922 0 
L 3713 0 
L 3419 850 
z
M 1838 1716 
L 3116 1716 
L 2478 3572 
L 1838 1716 
z
" transform="scale(0.015625)"/>
      <path id="DejaVuSans-Bold-5f" d="M 3200 -916 
L 3200 -1509 
L 0 -1509 
L 0 -916 
L 3200 -916 
z
" transform="scale(0.015625)"/>
      <path id="DejaVuSans-Bold-68" d="M 4056 2131 
L 4056 0 
L 2931 0 
L 2931 347 
L 2931 1625 
Q 2931 2084 2911 2256 
Q 2891 2428 2841 2509 
Q 2775 2619 2662 2680 
Q 2550 2741 2406 2741 
Q 2056 2741 1856 2470 
Q 1656 2200 1656 1722 
L 1656 0 
L 538 0 
L 538 4863 
L 1656 4863 
L 1656 2988 
Q 1909 3294 2193 3439 
Q 2478 3584 2822 3584 
Q 3428 3584 3742 3212 
Q 4056 2841 4056 2131 
z
" transform="scale(0.015625)"/>
      <path id="DejaVuSans-Bold-61" d="M 2106 1575 
Q 1756 1575 1579 1456 
Q 1403 1338 1403 1106 
Q 1403 894 1545 773 
Q 1688 653 1941 653 
Q 2256 653 2472 879 
Q 2688 1106 2688 1447 
L 2688 1575 
L 2106 1575 
z
M 3816 1997 
L 3816 0 
L 2688 0 
L 2688 519 
Q 2463 200 2181 54 
Q 1900 -91 1497 -91 
Q 953 -91 614 226 
Q 275 544 275 1050 
Q 275 1666 698 1953 
Q 1122 2241 2028 2241 
L 2688 2241 
L 2688 2328 
Q 2688 2594 2478 2717 
Q 2269 2841 1825 2841 
Q 1466 2841 1156 2769 
Q 847 2697 581 2553 
L 581 3406 
Q 941 3494 1303 3539 
Q 1666 3584 2028 3584 
Q 2975 3584 3395 3211 
Q 3816 2838 3816 1997 
z
" transform="scale(0.015625)"/>
     </defs>
     <use xlink:href="#DejaVuSans-Bold-54"/>
     <use xlink:href="#DejaVuSans-Bold-65" transform="translate(54.962891 0)"/>
     <use xlink:href="#DejaVuSans-Bold-6c" transform="translate(122.785156 0)"/>
     <use xlink:href="#DejaVuSans-Bold-6f" transform="translate(157.0625 0)"/>
     <use xlink:href="#DejaVuSans-Bold-6d" transform="translate(225.763672 0)"/>
     <use xlink:href="#DejaVuSans-Bold-65" transform="translate(329.962891 0)"/>
     <use xlink:href="#DejaVuSans-Bold-72" transform="translate(397.785156 0)"/>
     <use xlink:href="#DejaVuSans-Bold-69" transform="translate(447.101562 0)"/>
     <use xlink:href="#DejaVuSans-Bold-63" transform="translate(481.378906 0)"/>
     <use xlink:href="#DejaVuSans-Bold-20" transform="translate(540.65625 0)"/>
     <use xlink:href="#DejaVuSans-Bold-4d" transform="translate(575.470703 0)"/>
     <use xlink:href="#DejaVuSans-Bold-6f" transform="translate(674.982422 0)"/>
     <use xlink:href="#DejaVuSans-Bold-74" transform="translate(743.683594 0)"/>
     <use xlink:href="#DejaVuSans-Bold-69" transform="translate(791.486328 0)"/>
     <use xlink:href="#DejaVuSans-Bold-66" transform="translate(825.763672 0)"/>
     <use xlink:href="#DejaVuSans-Bold-20" transform="translate(869.269531 0)"/>
     <use xlink:href="#DejaVuSans-Bold-44" transform="translate(904.083984 0)"/>
     <use xlink:href="#DejaVuSans-Bold-69" transform="translate(987.091797 0)"/>
     <use xlink:href="#DejaVuSans-Bold-73" transform="translate(1021.369141 0)"/>
     <use xlink:href="#DejaVuSans-Bold-74" transform="translate(1080.890625 0)"/>
     <use xlink:href="#DejaVuSans-Bold-72" transform="translate(1128.693359 0)"/>
     <use xlink:href="#DejaVuSans-Bold-69" transform="translate(1178.009766 0)"/>
     <use xlink:href="#DejaVuSans-Bold-62" transform="translate(1212.287109 0)"/>
     <use xlink:href="#DejaVuSans-Bold-75" transform="translate(1283.869141 0)"/>
     <use xlink:href="#DejaVuSans-Bold-74" transform="translate(1355.060547 0)"/>
     <use xlink:href="#DejaVuSans-Bold-69" transform="translate(1402.863281 0)"/>
     <use xlink:href="#DejaVuSans-Bold-6f" transform="translate(1437.140625 0)"/>
     <use xlink:href="#DejaVuSans-Bold-6e" transform="translate(1505.841797 0)"/>
     <use xlink:href="#DejaVuSans-Bold-3a" transform="translate(1577.033203 0)"/>
     <use xlink:href="#DejaVuSans-Bold-20" transform="translate(1617.023438 0)"/>
     <use xlink:href="#DejaVuSans-Bold-41" transform="translate(1651.837891 0)"/>
     <use xlink:href="#DejaVuSans-Bold-5f" transform="translate(1729.230469 0)"/>
     <use xlink:href="#DejaVuSans-Bold-68" transform="translate(1779.230469 0)"/>
     <use xlink:href="#DejaVuSans-Bold-61" transform="translate(1850.421875 0)"/>
     <use xlink:href="#DejaVuSans-Bold-74" transform="translate(1917.902344 0)"/>
     <use xlink:href="#DejaVuSans-Bold-74" transform="translate(1965.705078 0)"/>
     <use xlink:href="#DejaVuSans-Bold-6f" transform="translate(2013.507812 0)"/>
     <use xlink:href="#DejaVuSans-Bold-72" transform="translate(2082.208984 0)"/>
     <use xlink:href="#DejaVuSans-Bold-66" transform="translate(2131.525391 0)"/>
     <use xlink:href="#DejaVuSans-Bold-69" transform="translate(2175.03125 0)"/>
     <use xlink:href="#DejaVuSans-Bold-61" transform="translate(2209.308594 0)"/>
     <use xlink:href="#DejaVuSans-Bold-6e" transform="translate(2276.789062 0)"/>
     <use xlink:href="#DejaVuSans-Bold-61" transform="translate(2347.980469 0)"/>
    </g>
   </g>
   <g id="legend_1">
    <g id="patch_7">
     <path d="M 552.765625 89.030625 
L 702.923438 89.030625 
Q 704.923438 89.030625 704.923438 87.030625 
L 704.923438 29.318125 
Q 704.923438 27.318125 702.923438 27.318125 
L 552.765625 27.318125 
Q 550.765625 27.318125 550.765625 29.318125 
L 550.765625 87.030625 
Q 550.765625 89.030625 552.765625 89.030625 
z
" style="fill: #ffffff; opacity: 0.8; stroke: #cccccc; stroke-linejoin: miter"/>
    </g>
    <g id="text_18">
     <!-- Motifs &amp; Orientation -->
     <g transform="translate(577.452344 38.916562) scale(0.1 -0.1)">
      <defs>
       <path id="DejaVuSans-4d" d="M 628 4666 
L 1569 4666 
L 2759 1491 
L 3956 4666 
L 4897 4666 
L 4897 0 
L 4281 0 
L 4281 4097 
L 3078 897 
L 2444 897 
L 1241 4097 
L 1241 0 
L 628 0 
L 628 4666 
z
" transform="scale(0.015625)"/>
       <path id="DejaVuSans-26" d="M 1556 2509 
Q 1272 2256 1139 2004 
Q 1006 1753 1006 1478 
Q 1006 1022 1337 719 
Q 1669 416 2169 416 
Q 2466 416 2725 514 
Q 2984 613 3213 813 
L 1556 2509 
z
M 1997 2859 
L 3584 1234 
Q 3769 1513 3872 1830 
Q 3975 2147 3994 2503 
L 4575 2503 
Q 4538 2091 4375 1687 
Q 4213 1284 3922 891 
L 4794 0 
L 4006 0 
L 3559 459 
Q 3234 181 2878 45 
Q 2522 -91 2113 -91 
Q 1359 -91 881 339 
Q 403 769 403 1441 
Q 403 1841 612 2192 
Q 822 2544 1241 2853 
Q 1091 3050 1012 3245 
Q 934 3441 934 3628 
Q 934 4134 1281 4442 
Q 1628 4750 2203 4750 
Q 2463 4750 2720 4694 
Q 2978 4638 3244 4525 
L 3244 3956 
Q 2972 4103 2725 4179 
Q 2478 4256 2266 4256 
Q 1938 4256 1733 4082 
Q 1528 3909 1528 3634 
Q 1528 3475 1620 3314 
Q 1713 3153 1997 2859 
z
" transform="scale(0.015625)"/>
       <path id="DejaVuSans-4f" d="M 2522 4238 
Q 1834 4238 1429 3725 
Q 1025 3213 1025 2328 
Q 1025 1447 1429 934 
Q 1834 422 2522 422 
Q 3209 422 3611 934 
Q 4013 1447 4013 2328 
Q 4013 3213 3611 3725 
Q 3209 4238 2522 4238 
z
M 2522 4750 
Q 3503 4750 4090 4092 
Q 4678 3434 4678 2328 
Q 4678 1225 4090 567 
Q 3503 -91 2522 -91 
Q 1538 -91 948 565 
Q 359 1222 359 2328 
Q 359 3434 948 4092 
Q 1538 4750 2522 4750 
z
" transform="scale(0.015625)"/>
      </defs>
      <use xlink:href="#DejaVuSans-4d"/>
      <use xlink:href="#DejaVuSans-6f" transform="translate(86.279297 0)"/>
      <use xlink:href="#DejaVuSans-74" transform="translate(147.460938 0)"/>
      <use xlink:href="#DejaVuSans-69" transform="translate(186.669922 0)"/>
      <use xlink:href="#DejaVuSans-66" transform="translate(214.453125 0)"/>
      <use xlink:href="#DejaVuSans-73" transform="translate(249.658203 0)"/>
      <use xlink:href="#DejaVuSans-20" transform="translate(301.757812 0)"/>
      <use xlink:href="#DejaVuSans-26" transform="translate(333.544922 0)"/>
      <use xlink:href="#DejaVuSans-20" transform="translate(411.523438 0)"/>
      <use xlink:href="#DejaVuSans-4f" transform="translate(443.310547 0)"/>
      <use xlink:href="#DejaVuSans-72" transform="translate(522.021484 0)"/>
      <use xlink:href="#DejaVuSans-69" transform="translate(563.134766 0)"/>
      <use xlink:href="#DejaVuSans-65" transform="translate(590.917969 0)"/>
      <use xlink:href="#DejaVuSans-6e" transform="translate(652.441406 0)"/>
      <use xlink:href="#DejaVuSans-74" transform="translate(715.820312 0)"/>
      <use xlink:href="#DejaVuSans-61" transform="translate(755.029297 0)"/>
      <use xlink:href="#DejaVuSans-74" transform="translate(816.308594 0)"/>
      <use xlink:href="#DejaVuSans-69" transform="translate(855.517578 0)"/>
      <use xlink:href="#DejaVuSans-6f" transform="translate(883.300781 0)"/>
      <use xlink:href="#DejaVuSans-6e" transform="translate(944.482422 0)"/>
     </g>
    </g>
    <g id="line2d_32">
     <path d="M 554.765625 50.094688 
L 564.765625 50.094688 
L 574.765625 50.094688 
" style="fill: none; stroke: #006ba4; stroke-width: 2; stroke-linecap: square"/>
    </g>
    <g id="text_19">
     <!-- CCCGAGACTAA (5' end) -->
     <g transform="translate(582.765625 53.594688) scale(0.1 -0.1)">
      <defs>
       <path id="DejaVuSans-47" d="M 3809 666 
L 3809 1919 
L 2778 1919 
L 2778 2438 
L 4434 2438 
L 4434 434 
Q 4069 175 3628 42 
Q 3188 -91 2688 -91 
Q 1594 -91 976 548 
Q 359 1188 359 2328 
Q 359 3472 976 4111 
Q 1594 4750 2688 4750 
Q 3144 4750 3555 4637 
Q 3966 4525 4313 4306 
L 4313 3634 
Q 3963 3931 3569 4081 
Q 3175 4231 2741 4231 
Q 1884 4231 1454 3753 
Q 1025 3275 1025 2328 
Q 1025 1384 1454 906 
Q 1884 428 2741 428 
Q 3075 428 3337 486 
Q 3600 544 3809 666 
z
" transform="scale(0.015625)"/>
       <path id="DejaVuSans-28" d="M 1984 4856 
Q 1566 4138 1362 3434 
Q 1159 2731 1159 2009 
Q 1159 1288 1364 580 
Q 1569 -128 1984 -844 
L 1484 -844 
Q 1016 -109 783 600 
Q 550 1309 550 2009 
Q 550 2706 781 3412 
Q 1013 4119 1484 4856 
L 1984 4856 
z
" transform="scale(0.015625)"/>
       <path id="DejaVuSans-27" d="M 1147 4666 
L 1147 2931 
L 616 2931 
L 616 4666 
L 1147 4666 
z
" transform="scale(0.015625)"/>
       <path id="DejaVuSans-64" d="M 2906 2969 
L 2906 4863 
L 3481 4863 
L 3481 0 
L 2906 0 
L 2906 525 
Q 2725 213 2448 61 
Q 2172 -91 1784 -91 
Q 1150 -91 751 415 
Q 353 922 353 1747 
Q 353 2572 751 3078 
Q 1150 3584 1784 3584 
Q 2172 3584 2448 3432 
Q 2725 3281 2906 2969 
z
M 947 1747 
Q 947 1113 1208 752 
Q 1469 391 1925 391 
Q 2381 391 2643 752 
Q 2906 1113 2906 1747 
Q 2906 2381 2643 2742 
Q 2381 3103 1925 3103 
Q 1469 3103 1208 2742 
Q 947 2381 947 1747 
z
" transform="scale(0.015625)"/>
       <path id="DejaVuSans-29" d="M 513 4856 
L 1013 4856 
Q 1481 4119 1714 3412 
Q 1947 2706 1947 2009 
Q 1947 1309 1714 600 
Q 1481 -109 1013 -844 
L 513 -844 
Q 928 -128 1133 580 
Q 1338 1288 1338 2009 
Q 1338 2731 1133 3434 
Q 928 4138 513 4856 
z
" transform="scale(0.015625)"/>
      </defs>
      <use xlink:href="#DejaVuSans-43"/>
      <use xlink:href="#DejaVuSans-43" transform="translate(69.824219 0)"/>
      <use xlink:href="#DejaVuSans-43" transform="translate(139.648438 0)"/>
      <use xlink:href="#DejaVuSans-47" transform="translate(209.472656 0)"/>
      <use xlink:href="#DejaVuSans-41" transform="translate(286.962891 0)"/>
      <use xlink:href="#DejaVuSans-47" transform="translate(353.621094 0)"/>
      <use xlink:href="#DejaVuSans-41" transform="translate(431.111328 0)"/>
      <use xlink:href="#DejaVuSans-43" transform="translate(497.769531 0)"/>
      <use xlink:href="#DejaVuSans-54" transform="translate(567.59375 0)"/>
      <use xlink:href="#DejaVuSans-41" transform="translate(620.927734 0)"/>
      <use xlink:href="#DejaVuSans-41" transform="translate(692.085938 0)"/>
      <use xlink:href="#DejaVuSans-20" transform="translate(760.494141 0)"/>
      <use xlink:href="#DejaVuSans-28" transform="translate(792.28125 0)"/>
      <use xlink:href="#DejaVuSans-35" transform="translate(831.294922 0)"/>
      <use xlink:href="#DejaVuSans-27" transform="translate(894.917969 0)"/>
      <use xlink:href="#DejaVuSans-20" transform="translate(922.408203 0)"/>
      <use xlink:href="#DejaVuSans-65" transform="translate(954.195312 0)"/>
      <use xlink:href="#DejaVuSans-6e" transform="translate(1015.71875 0)"/>
      <use xlink:href="#DejaVuSans-64" transform="translate(1079.097656 0)"/>
      <use xlink:href="#DejaVuSans-29" transform="translate(1142.574219 0)"/>
     </g>
    </g>
    <g id="line2d_33">
     <path d="M 554.765625 64.772813 
L 564.765625 64.772813 
L 574.765625 64.772813 
" style="fill: none; stroke: #ff800e; stroke-width: 2; stroke-linecap: square"/>
    </g>
    <g id="text_20">
     <!-- TTCCCAA (5' end) -->
     <g transform="translate(582.765625 68.272813) scale(0.1 -0.1)">
      <use xlink:href="#DejaVuSans-54"/>
      <use xlink:href="#DejaVuSans-54" transform="translate(59.333984 0)"/>
      <use xlink:href="#DejaVuSans-43" transform="translate(114.542969 0)"/>
      <use xlink:href="#DejaVuSans-43" transform="translate(184.367188 0)"/>
      <use xlink:href="#DejaVuSans-43" transform="translate(254.191406 0)"/>
      <use xlink:href="#DejaVuSans-41" transform="translate(324.015625 0)"/>
      <use xlink:href="#DejaVuSans-41" transform="translate(395.173828 0)"/>
      <use xlink:href="#DejaVuSans-20" transform="translate(463.582031 0)"/>
      <use xlink:href="#DejaVuSans-28" transform="translate(495.369141 0)"/>
      <use xlink:href="#DejaVuSans-35" transform="translate(534.382812 0)"/>
      <use xlink:href="#DejaVuSans-27" transform="translate(598.005859 0)"/>
      <use xlink:href="#DejaVuSans-20" transform="translate(625.496094 0)"/>
      <use xlink:href="#DejaVuSans-65" transform="translate(657.283203 0)"/>
      <use xlink:href="#DejaVuSans-6e" transform="translate(718.806641 0)"/>
      <use xlink:href="#DejaVuSans-64" transform="translate(782.185547 0)"/>
      <use xlink:href="#DejaVuSans-29" transform="translate(845.662109 0)"/>
     </g>
    </g>
    <g id="line2d_34">
     <path d="M 554.765625 79.450938 
L 564.765625 79.450938 
L 574.765625 79.450938 
" style="fill: none; stroke: #ababab; stroke-width: 2; stroke-linecap: square"/>
    </g>
    <g id="text_21">
     <!-- CCCAAGACTAA (5' end) -->
     <g transform="translate(582.765625 82.950938) scale(0.1 -0.1)">
      <use xlink:href="#DejaVuSans-43"/>
      <use xlink:href="#DejaVuSans-43" transform="translate(69.824219 0)"/>
      <use xlink:href="#DejaVuSans-43" transform="translate(139.648438 0)"/>
      <use xlink:href="#DejaVuSans-41" transform="translate(209.472656 0)"/>
      <use xlink:href="#DejaVuSans-41" transform="translate(280.630859 0)"/>
      <use xlink:href="#DejaVuSans-47" transform="translate(347.289062 0)"/>
      <use xlink:href="#DejaVuSans-41" transform="translate(424.779297 0)"/>
      <use xlink:href="#DejaVuSans-43" transform="translate(491.4375 0)"/>
      <use xlink:href="#DejaVuSans-54" transform="translate(561.261719 0)"/>
      <use xlink:href="#DejaVuSans-41" transform="translate(614.595703 0)"/>
      <use xlink:href="#DejaVuSans-41" transform="translate(685.753906 0)"/>
      <use xlink:href="#DejaVuSans-20" transform="translate(754.162109 0)"/>
      <use xlink:href="#DejaVuSans-28" transform="translate(785.949219 0)"/>
      <use xlink:href="#DejaVuSans-35" transform="translate(824.962891 0)"/>
      <use xlink:href="#DejaVuSans-27" transform="translate(888.585938 0)"/>
      <use xlink:href="#DejaVuSans-20" transform="translate(916.076172 0)"/>
      <use xlink:href="#DejaVuSans-65" transform="translate(947.863281 0)"/>
      <use xlink:href="#DejaVuSans-6e" transform="translate(1009.386719 0)"/>
      <use xlink:href="#DejaVuSans-64" transform="translate(1072.765625 0)"/>
      <use xlink:href="#DejaVuSans-29" transform="translate(1136.242188 0)"/>
     </g>
    </g>
   </g>
  </g>
 </g>
 <defs>
  <clipPath id="p9116061ec0">
   <rect x="46.965625" y="22.318125" width="498.8" height="436.6"/>
  </clipPath>
 </defs>
</svg>
