<?xml version="1.0" encoding="utf-8" standalone="no"?>
<!DOCTYPE svg PUBLIC "-//W3C//DTD SVG 1.1//EN"
  "http://www.w3.org/Graphics/SVG/1.1/DTD/svg11.dtd">
<svg xmlns:xlink="http://www.w3.org/1999/xlink" width="568.123437pt" height="423.99625pt" viewBox="0 0 568.123437 423.99625" xmlns="http://www.w3.org/2000/svg" version="1.1">
 <metadata>
  <rdf:RDF xmlns:dc="http://purl.org/dc/elements/1.1/" xmlns:cc="http://creativecommons.org/ns#" xmlns:rdf="http://www.w3.org/1999/02/22-rdf-syntax-ns#">
   <cc:Work>
    <dc:type rdf:resource="http://purl.org/dc/dcmitype/StillImage"/>
    <dc:date>2026-04-30T13:16:52.027532</dc:date>
    <dc:format>image/svg+xml</dc:format>
    <dc:creator>
     <cc:Agent>
      <dc:title>Matplotlib v3.10.6, https://matplotlib.org/</dc:title>
     </cc:Agent>
    </dc:creator>
   </cc:Work>
  </rdf:RDF>
 </metadata>
 <defs>
  <style type="text/css">*{stroke-linejoin: round; stroke-linecap: butt}</style>
 </defs>
 <g id="figure_1">
  <g id="patch_1">
   <path d="M 0 423.99625 
L 568.123437 423.99625 
L 568.123437 0 
L 0 0 
z
" style="fill: #ffffff"/>
  </g>
  <g id="axes_1">
   <g id="patch_2">
    <path d="M 46.965625 386.44 
L 401.765625 386.44 
L 401.765625 7.2 
L 46.965625 7.2 
z
" style="fill: #ffffff"/>
   </g>
   <g id="matplotlib.axis_1">
    <g id="xtick_1">
     <g id="line2d_1">
      <path d="M 63.092898 386.44 
L 63.092898 7.2 
" clip-path="url(#p349713a650)" style="fill: none; stroke-dasharray: 2.96,1.28; stroke-dashoffset: 0; stroke: #b0b0b0; stroke-opacity: 0.6; stroke-width: 0.8"/>
     </g>
     <g id="line2d_2">
      <defs>
       <path id="m39d2257036" d="M 0 0 
L 0 3.5 
" style="stroke: #000000; stroke-width: 0.8"/>
      </defs>
      <g>
       <use xlink:href="#m39d2257036" x="63.092898" y="386.44" style="stroke: #000000; stroke-width: 0.8"/>
      </g>
     </g>
     <g id="text_1">
      <!-- 0 -->
      <g transform="translate(59.911648 401.038437) scale(0.1 -0.1)">
       <defs>
        <path id="DejaVuSans-30" d="M 2034 4250 
Q 1547 4250 1301 3770 
Q 1056 3291 1056 2328 
Q 1056 1369 1301 889 
Q 1547 409 2034 409 
Q 2525 409 2770 889 
Q 3016 1369 3016 2328 
Q 3016 3291 2770 3770 
Q 2525 4250 2034 4250 
z
M 2034 4750 
Q 2819 4750 3233 4129 
Q 3647 3509 3647 2328 
Q 3647 1150 3233 529 
Q 2819 -91 2034 -91 
Q 1250 -91 836 529 
Q 422 1150 422 2328 
Q 422 3509 836 4129 
Q 1250 4750 2034 4750 
z
" transform="scale(0.015625)"/>
       </defs>
       <use xlink:href="#DejaVuSans-30"/>
      </g>
     </g>
    </g>
    <g id="xtick_2">
     <g id="line2d_3">
      <path d="M 103.41612 386.44 
L 103.41612 7.2 
" clip-path="url(#p349713a650)" style="fill: none; stroke-dasharray: 2.96,1.28; stroke-dashoffset: 0; stroke: #b0b0b0; stroke-opacity: 0.6; stroke-width: 0.8"/>
     </g>
     <g id="line2d_4">
      <g>
       <use xlink:href="#m39d2257036" x="103.41612" y="386.44" style="stroke: #000000; stroke-width: 0.8"/>
      </g>
     </g>
     <g id="text_2">
      <!-- 1000 -->
      <g transform="translate(90.69112 401.038437) scale(0.1 -0.1)">
       <defs>
        <path id="DejaVuSans-31" d="M 794 531 
L 1825 531 
L 1825 4091 
L 703 3866 
L 703 4441 
L 1819 4666 
L 2450 4666 
L 2450 531 
L 3481 531 
L 3481 0 
L 794 0 
L 794 531 
z
" transform="scale(0.015625)"/>
       </defs>
       <use xlink:href="#DejaVuSans-31"/>
       <use xlink:href="#DejaVuSans-30" transform="translate(63.623047 0)"/>
       <use xlink:href="#DejaVuSans-30" transform="translate(127.246094 0)"/>
       <use xlink:href="#DejaVuSans-30" transform="translate(190.869141 0)"/>
      </g>
     </g>
    </g>
    <g id="xtick_3">
     <g id="line2d_5">
      <path d="M 143.739342 386.44 
L 143.739342 7.2 
" clip-path="url(#p349713a650)" style="fill: none; stroke-dasharray: 2.96,1.28; stroke-dashoffset: 0; stroke: #b0b0b0; stroke-opacity: 0.6; stroke-width: 0.8"/>
     </g>
     <g id="line2d_6">
      <g>
       <use xlink:href="#m39d2257036" x="143.739342" y="386.44" style="stroke: #000000; stroke-width: 0.8"/>
      </g>
     </g>
     <g id="text_3">
      <!-- 2000 -->
      <g transform="translate(131.014342 401.038437) scale(0.1 -0.1)">
       <defs>
        <path id="DejaVuSans-32" d="M 1228 531 
L 3431 531 
L 3431 0 
L 469 0 
L 469 531 
Q 828 903 1448 1529 
Q 2069 2156 2228 2338 
Q 2531 2678 2651 2914 
Q 2772 3150 2772 3378 
Q 2772 3750 2511 3984 
Q 2250 4219 1831 4219 
Q 1534 4219 1204 4116 
Q 875 4013 500 3803 
L 500 4441 
Q 881 4594 1212 4672 
Q 1544 4750 1819 4750 
Q 2544 4750 2975 4387 
Q 3406 4025 3406 3419 
Q 3406 3131 3298 2873 
Q 3191 2616 2906 2266 
Q 2828 2175 2409 1742 
Q 1991 1309 1228 531 
z
" transform="scale(0.015625)"/>
       </defs>
       <use xlink:href="#DejaVuSans-32"/>
       <use xlink:href="#DejaVuSans-30" transform="translate(63.623047 0)"/>
       <use xlink:href="#DejaVuSans-30" transform="translate(127.246094 0)"/>
       <use xlink:href="#DejaVuSans-30" transform="translate(190.869141 0)"/>
      </g>
     </g>
    </g>
    <g id="xtick_4">
     <g id="line2d_7">
      <path d="M 184.062564 386.44 
L 184.062564 7.2 
" clip-path="url(#p349713a650)" style="fill: none; stroke-dasharray: 2.96,1.28; stroke-dashoffset: 0; stroke: #b0b0b0; stroke-opacity: 0.6; stroke-width: 0.8"/>
     </g>
     <g id="line2d_8">
      <g>
       <use xlink:href="#m39d2257036" x="184.062564" y="386.44" style="stroke: #000000; stroke-width: 0.8"/>
      </g>
     </g>
     <g id="text_4">
      <!-- 3000 -->
      <g transform="translate(171.337564 401.038437) scale(0.1 -0.1)">
       <defs>
        <path id="DejaVuSans-33" d="M 2597 2516 
Q 3050 2419 3304 2112 
Q 3559 1806 3559 1356 
Q 3559 666 3084 287 
Q 2609 -91 1734 -91 
Q 1441 -91 1130 -33 
Q 819 25 488 141 
L 488 750 
Q 750 597 1062 519 
Q 1375 441 1716 441 
Q 2309 441 2620 675 
Q 2931 909 2931 1356 
Q 2931 1769 2642 2001 
Q 2353 2234 1838 2234 
L 1294 2234 
L 1294 2753 
L 1863 2753 
Q 2328 2753 2575 2939 
Q 2822 3125 2822 3475 
Q 2822 3834 2567 4026 
Q 2313 4219 1838 4219 
Q 1578 4219 1281 4162 
Q 984 4106 628 3988 
L 628 4550 
Q 988 4650 1302 4700 
Q 1616 4750 1894 4750 
Q 2613 4750 3031 4423 
Q 3450 4097 3450 3541 
Q 3450 3153 3228 2886 
Q 3006 2619 2597 2516 
z
" transform="scale(0.015625)"/>
       </defs>
       <use xlink:href="#DejaVuSans-33"/>
       <use xlink:href="#DejaVuSans-30" transform="translate(63.623047 0)"/>
       <use xlink:href="#DejaVuSans-30" transform="translate(127.246094 0)"/>
       <use xlink:href="#DejaVuSans-30" transform="translate(190.869141 0)"/>
      </g>
     </g>
    </g>
    <g id="xtick_5">
     <g id="line2d_9">
      <path d="M 224.385787 386.44 
L 224.385787 7.2 
" clip-path="url(#p349713a650)" style="fill: none; stroke-dasharray: 2.96,1.28; stroke-dashoffset: 0; stroke: #b0b0b0; stroke-opacity: 0.6; stroke-width: 0.8"/>
     </g>
     <g id="line2d_10">
      <g>
       <use xlink:href="#m39d2257036" x="224.385787" y="386.44" style="stroke: #000000; stroke-width: 0.8"/>
      </g>
     </g>
     <g id="text_5">
      <!-- 4000 -->
      <g transform="translate(211.660787 401.038437) scale(0.1 -0.1)">
       <defs>
        <path id="DejaVuSans-34" d="M 2419 4116 
L 825 1625 
L 2419 1625 
L 2419 4116 
z
M 2253 4666 
L 3047 4666 
L 3047 1625 
L 3713 1625 
L 3713 1100 
L 3047 1100 
L 3047 0 
L 2419 0 
L 2419 1100 
L 313 1100 
L 313 1709 
L 2253 4666 
z
" transform="scale(0.015625)"/>
       </defs>
       <use xlink:href="#DejaVuSans-34"/>
       <use xlink:href="#DejaVuSans-30" transform="translate(63.623047 0)"/>
       <use xlink:href="#DejaVuSans-30" transform="translate(127.246094 0)"/>
       <use xlink:href="#DejaVuSans-30" transform="translate(190.869141 0)"/>
      </g>
     </g>
    </g>
    <g id="xtick_6">
     <g id="line2d_11">
      <path d="M 264.709009 386.44 
L 264.709009 7.2 
" clip-path="url(#p349713a650)" style="fill: none; stroke-dasharray: 2.96,1.28; stroke-dashoffset: 0; stroke: #b0b0b0; stroke-opacity: 0.6; stroke-width: 0.8"/>
     </g>
     <g id="line2d_12">
      <g>
       <use xlink:href="#m39d2257036" x="264.709009" y="386.44" style="stroke: #000000; stroke-width: 0.8"/>
      </g>
     </g>
     <g id="text_6">
      <!-- 5000 -->
      <g transform="translate(251.984009 401.038437) scale(0.1 -0.1)">
       <defs>
        <path id="DejaVuSans-35" d="M 691 4666 
L 3169 4666 
L 3169 4134 
L 1269 4134 
L 1269 2991 
Q 1406 3038 1543 3061 
Q 1681 3084 1819 3084 
Q 2600 3084 3056 2656 
Q 3513 2228 3513 1497 
Q 3513 744 3044 326 
Q 2575 -91 1722 -91 
Q 1428 -91 1123 -41 
Q 819 9 494 109 
L 494 744 
Q 775 591 1075 516 
Q 1375 441 1709 441 
Q 2250 441 2565 725 
Q 2881 1009 2881 1497 
Q 2881 1984 2565 2268 
Q 2250 2553 1709 2553 
Q 1456 2553 1204 2497 
Q 953 2441 691 2322 
L 691 4666 
z
" transform="scale(0.015625)"/>
       </defs>
       <use xlink:href="#DejaVuSans-35"/>
       <use xlink:href="#DejaVuSans-30" transform="translate(63.623047 0)"/>
       <use xlink:href="#DejaVuSans-30" transform="translate(127.246094 0)"/>
       <use xlink:href="#DejaVuSans-30" transform="translate(190.869141 0)"/>
      </g>
     </g>
    </g>
    <g id="xtick_7">
     <g id="line2d_13">
      <path d="M 305.032231 386.44 
L 305.032231 7.2 
" clip-path="url(#p349713a650)" style="fill: none; stroke-dasharray: 2.96,1.28; stroke-dashoffset: 0; stroke: #b0b0b0; stroke-opacity: 0.6; stroke-width: 0.8"/>
     </g>
     <g id="line2d_14">
      <g>
       <use xlink:href="#m39d2257036" x="305.032231" y="386.44" style="stroke: #000000; stroke-width: 0.8"/>
      </g>
     </g>
     <g id="text_7">
      <!-- 6000 -->
      <g transform="translate(292.307231 401.038437) scale(0.1 -0.1)">
       <defs>
        <path id="DejaVuSans-36" d="M 2113 2584 
Q 1688 2584 1439 2293 
Q 1191 2003 1191 1497 
Q 1191 994 1439 701 
Q 1688 409 2113 409 
Q 2538 409 2786 701 
Q 3034 994 3034 1497 
Q 3034 2003 2786 2293 
Q 2538 2584 2113 2584 
z
M 3366 4563 
L 3366 3988 
Q 3128 4100 2886 4159 
Q 2644 4219 2406 4219 
Q 1781 4219 1451 3797 
Q 1122 3375 1075 2522 
Q 1259 2794 1537 2939 
Q 1816 3084 2150 3084 
Q 2853 3084 3261 2657 
Q 3669 2231 3669 1497 
Q 3669 778 3244 343 
Q 2819 -91 2113 -91 
Q 1303 -91 875 529 
Q 447 1150 447 2328 
Q 447 3434 972 4092 
Q 1497 4750 2381 4750 
Q 2619 4750 2861 4703 
Q 3103 4656 3366 4563 
z
" transform="scale(0.015625)"/>
       </defs>
       <use xlink:href="#DejaVuSans-36"/>
       <use xlink:href="#DejaVuSans-30" transform="translate(63.623047 0)"/>
       <use xlink:href="#DejaVuSans-30" transform="translate(127.246094 0)"/>
       <use xlink:href="#DejaVuSans-30" transform="translate(190.869141 0)"/>
      </g>
     </g>
    </g>
    <g id="xtick_8">
     <g id="line2d_15">
      <path d="M 345.355453 386.44 
L 345.355453 7.2 
" clip-path="url(#p349713a650)" style="fill: none; stroke-dasharray: 2.96,1.28; stroke-dashoffset: 0; stroke: #b0b0b0; stroke-opacity: 0.6; stroke-width: 0.8"/>
     </g>
     <g id="line2d_16">
      <g>
       <use xlink:href="#m39d2257036" x="345.355453" y="386.44" style="stroke: #000000; stroke-width: 0.8"/>
      </g>
     </g>
     <g id="text_8">
      <!-- 7000 -->
      <g transform="translate(332.630453 401.038437) scale(0.1 -0.1)">
       <defs>
        <path id="DejaVuSans-37" d="M 525 4666 
L 3525 4666 
L 3525 4397 
L 1831 0 
L 1172 0 
L 2766 4134 
L 525 4134 
L 525 4666 
z
" transform="scale(0.015625)"/>
       </defs>
       <use xlink:href="#DejaVuSans-37"/>
       <use xlink:href="#DejaVuSans-30" transform="translate(63.623047 0)"/>
       <use xlink:href="#DejaVuSans-30" transform="translate(127.246094 0)"/>
       <use xlink:href="#DejaVuSans-30" transform="translate(190.869141 0)"/>
      </g>
     </g>
    </g>
    <g id="xtick_9">
     <g id="line2d_17">
      <path d="M 385.678675 386.44 
L 385.678675 7.2 
" clip-path="url(#p349713a650)" style="fill: none; stroke-dasharray: 2.96,1.28; stroke-dashoffset: 0; stroke: #b0b0b0; stroke-opacity: 0.6; stroke-width: 0.8"/>
     </g>
     <g id="line2d_18">
      <g>
       <use xlink:href="#m39d2257036" x="385.678675" y="386.44" style="stroke: #000000; stroke-width: 0.8"/>
      </g>
     </g>
     <g id="text_9">
      <!-- 8000 -->
      <g transform="translate(372.953675 401.038437) scale(0.1 -0.1)">
       <defs>
        <path id="DejaVuSans-38" d="M 2034 2216 
Q 1584 2216 1326 1975 
Q 1069 1734 1069 1313 
Q 1069 891 1326 650 
Q 1584 409 2034 409 
Q 2484 409 2743 651 
Q 3003 894 3003 1313 
Q 3003 1734 2745 1975 
Q 2488 2216 2034 2216 
z
M 1403 2484 
Q 997 2584 770 2862 
Q 544 3141 544 3541 
Q 544 4100 942 4425 
Q 1341 4750 2034 4750 
Q 2731 4750 3128 4425 
Q 3525 4100 3525 3541 
Q 3525 3141 3298 2862 
Q 3072 2584 2669 2484 
Q 3125 2378 3379 2068 
Q 3634 1759 3634 1313 
Q 3634 634 3220 271 
Q 2806 -91 2034 -91 
Q 1263 -91 848 271 
Q 434 634 434 1313 
Q 434 1759 690 2068 
Q 947 2378 1403 2484 
z
M 1172 3481 
Q 1172 3119 1398 2916 
Q 1625 2713 2034 2713 
Q 2441 2713 2670 2916 
Q 2900 3119 2900 3481 
Q 2900 3844 2670 4047 
Q 2441 4250 2034 4250 
Q 1625 4250 1398 4047 
Q 1172 3844 1172 3481 
z
" transform="scale(0.015625)"/>
       </defs>
       <use xlink:href="#DejaVuSans-38"/>
       <use xlink:href="#DejaVuSans-30" transform="translate(63.623047 0)"/>
       <use xlink:href="#DejaVuSans-30" transform="translate(127.246094 0)"/>
       <use xlink:href="#DejaVuSans-30" transform="translate(190.869141 0)"/>
      </g>
     </g>
    </g>
    <g id="text_10">
     <!-- Distance from terminus [nt] -->
     <g transform="translate(154.866406 414.716562) scale(0.1 -0.1)">
      <defs>
       <path id="DejaVuSans-44" d="M 1259 4147 
L 1259 519 
L 2022 519 
Q 2988 519 3436 956 
Q 3884 1394 3884 2338 
Q 3884 3275 3436 3711 
Q 2988 4147 2022 4147 
L 1259 4147 
z
M 628 4666 
L 1925 4666 
Q 3281 4666 3915 4102 
Q 4550 3538 4550 2338 
Q 4550 1131 3912 565 
Q 3275 0 1925 0 
L 628 0 
L 628 4666 
z
" transform="scale(0.015625)"/>
       <path id="DejaVuSans-69" d="M 603 3500 
L 1178 3500 
L 1178 0 
L 603 0 
L 603 3500 
z
M 603 4863 
L 1178 4863 
L 1178 4134 
L 603 4134 
L 603 4863 
z
" transform="scale(0.015625)"/>
       <path id="DejaVuSans-73" d="M 2834 3397 
L 2834 2853 
Q 2591 2978 2328 3040 
Q 2066 3103 1784 3103 
Q 1356 3103 1142 2972 
Q 928 2841 928 2578 
Q 928 2378 1081 2264 
Q 1234 2150 1697 2047 
L 1894 2003 
Q 2506 1872 2764 1633 
Q 3022 1394 3022 966 
Q 3022 478 2636 193 
Q 2250 -91 1575 -91 
Q 1294 -91 989 -36 
Q 684 19 347 128 
L 347 722 
Q 666 556 975 473 
Q 1284 391 1588 391 
Q 1994 391 2212 530 
Q 2431 669 2431 922 
Q 2431 1156 2273 1281 
Q 2116 1406 1581 1522 
L 1381 1569 
Q 847 1681 609 1914 
Q 372 2147 372 2553 
Q 372 3047 722 3315 
Q 1072 3584 1716 3584 
Q 2034 3584 2315 3537 
Q 2597 3491 2834 3397 
z
" transform="scale(0.015625)"/>
       <path id="DejaVuSans-74" d="M 1172 4494 
L 1172 3500 
L 2356 3500 
L 2356 3053 
L 1172 3053 
L 1172 1153 
Q 1172 725 1289 603 
Q 1406 481 1766 481 
L 2356 481 
L 2356 0 
L 1766 0 
Q 1100 0 847 248 
Q 594 497 594 1153 
L 594 3053 
L 172 3053 
L 172 3500 
L 594 3500 
L 594 4494 
L 1172 4494 
z
" transform="scale(0.015625)"/>
       <path id="DejaVuSans-61" d="M 2194 1759 
Q 1497 1759 1228 1600 
Q 959 1441 959 1056 
Q 959 750 1161 570 
Q 1363 391 1709 391 
Q 2188 391 2477 730 
Q 2766 1069 2766 1631 
L 2766 1759 
L 2194 1759 
z
M 3341 1997 
L 3341 0 
L 2766 0 
L 2766 531 
Q 2569 213 2275 61 
Q 1981 -91 1556 -91 
Q 1019 -91 701 211 
Q 384 513 384 1019 
Q 384 1609 779 1909 
Q 1175 2209 1959 2209 
L 2766 2209 
L 2766 2266 
Q 2766 2663 2505 2880 
Q 2244 3097 1772 3097 
Q 1472 3097 1187 3025 
Q 903 2953 641 2809 
L 641 3341 
Q 956 3463 1253 3523 
Q 1550 3584 1831 3584 
Q 2591 3584 2966 3190 
Q 3341 2797 3341 1997 
z
" transform="scale(0.015625)"/>
       <path id="DejaVuSans-6e" d="M 3513 2113 
L 3513 0 
L 2938 0 
L 2938 2094 
Q 2938 2591 2744 2837 
Q 2550 3084 2163 3084 
Q 1697 3084 1428 2787 
Q 1159 2491 1159 1978 
L 1159 0 
L 581 0 
L 581 3500 
L 1159 3500 
L 1159 2956 
Q 1366 3272 1645 3428 
Q 1925 3584 2291 3584 
Q 2894 3584 3203 3211 
Q 3513 2838 3513 2113 
z
" transform="scale(0.015625)"/>
       <path id="DejaVuSans-63" d="M 3122 3366 
L 3122 2828 
Q 2878 2963 2633 3030 
Q 2388 3097 2138 3097 
Q 1578 3097 1268 2742 
Q 959 2388 959 1747 
Q 959 1106 1268 751 
Q 1578 397 2138 397 
Q 2388 397 2633 464 
Q 2878 531 3122 666 
L 3122 134 
Q 2881 22 2623 -34 
Q 2366 -91 2075 -91 
Q 1284 -91 818 406 
Q 353 903 353 1747 
Q 353 2603 823 3093 
Q 1294 3584 2113 3584 
Q 2378 3584 2631 3529 
Q 2884 3475 3122 3366 
z
" transform="scale(0.015625)"/>
       <path id="DejaVuSans-65" d="M 3597 1894 
L 3597 1613 
L 953 1613 
Q 991 1019 1311 708 
Q 1631 397 2203 397 
Q 2534 397 2845 478 
Q 3156 559 3463 722 
L 3463 178 
Q 3153 47 2828 -22 
Q 2503 -91 2169 -91 
Q 1331 -91 842 396 
Q 353 884 353 1716 
Q 353 2575 817 3079 
Q 1281 3584 2069 3584 
Q 2775 3584 3186 3129 
Q 3597 2675 3597 1894 
z
M 3022 2063 
Q 3016 2534 2758 2815 
Q 2500 3097 2075 3097 
Q 1594 3097 1305 2825 
Q 1016 2553 972 2059 
L 3022 2063 
z
" transform="scale(0.015625)"/>
       <path id="DejaVuSans-20" transform="scale(0.015625)"/>
       <path id="DejaVuSans-66" d="M 2375 4863 
L 2375 4384 
L 1825 4384 
Q 1516 4384 1395 4259 
Q 1275 4134 1275 3809 
L 1275 3500 
L 2222 3500 
L 2222 3053 
L 1275 3053 
L 1275 0 
L 697 0 
L 697 3053 
L 147 3053 
L 147 3500 
L 697 3500 
L 697 3744 
Q 697 4328 969 4595 
Q 1241 4863 1831 4863 
L 2375 4863 
z
" transform="scale(0.015625)"/>
       <path id="DejaVuSans-72" d="M 2631 2963 
Q 2534 3019 2420 3045 
Q 2306 3072 2169 3072 
Q 1681 3072 1420 2755 
Q 1159 2438 1159 1844 
L 1159 0 
L 581 0 
L 581 3500 
L 1159 3500 
L 1159 2956 
Q 1341 3275 1631 3429 
Q 1922 3584 2338 3584 
Q 2397 3584 2469 3576 
Q 2541 3569 2628 3553 
L 2631 2963 
z
" transform="scale(0.015625)"/>
       <path id="DejaVuSans-6f" d="M 1959 3097 
Q 1497 3097 1228 2736 
Q 959 2375 959 1747 
Q 959 1119 1226 758 
Q 1494 397 1959 397 
Q 2419 397 2687 759 
Q 2956 1122 2956 1747 
Q 2956 2369 2687 2733 
Q 2419 3097 1959 3097 
z
M 1959 3584 
Q 2709 3584 3137 3096 
Q 3566 2609 3566 1747 
Q 3566 888 3137 398 
Q 2709 -91 1959 -91 
Q 1206 -91 779 398 
Q 353 888 353 1747 
Q 353 2609 779 3096 
Q 1206 3584 1959 3584 
z
" transform="scale(0.015625)"/>
       <path id="DejaVuSans-6d" d="M 3328 2828 
Q 3544 3216 3844 3400 
Q 4144 3584 4550 3584 
Q 5097 3584 5394 3201 
Q 5691 2819 5691 2113 
L 5691 0 
L 5113 0 
L 5113 2094 
Q 5113 2597 4934 2840 
Q 4756 3084 4391 3084 
Q 3944 3084 3684 2787 
Q 3425 2491 3425 1978 
L 3425 0 
L 2847 0 
L 2847 2094 
Q 2847 2600 2669 2842 
Q 2491 3084 2119 3084 
Q 1678 3084 1418 2786 
Q 1159 2488 1159 1978 
L 1159 0 
L 581 0 
L 581 3500 
L 1159 3500 
L 1159 2956 
Q 1356 3278 1631 3431 
Q 1906 3584 2284 3584 
Q 2666 3584 2933 3390 
Q 3200 3197 3328 2828 
z
" transform="scale(0.015625)"/>
       <path id="DejaVuSans-75" d="M 544 1381 
L 544 3500 
L 1119 3500 
L 1119 1403 
Q 1119 906 1312 657 
Q 1506 409 1894 409 
Q 2359 409 2629 706 
Q 2900 1003 2900 1516 
L 2900 3500 
L 3475 3500 
L 3475 0 
L 2900 0 
L 2900 538 
Q 2691 219 2414 64 
Q 2138 -91 1772 -91 
Q 1169 -91 856 284 
Q 544 659 544 1381 
z
M 1991 3584 
L 1991 3584 
z
" transform="scale(0.015625)"/>
       <path id="DejaVuSans-5b" d="M 550 4863 
L 1875 4863 
L 1875 4416 
L 1125 4416 
L 1125 -397 
L 1875 -397 
L 1875 -844 
L 550 -844 
L 550 4863 
z
" transform="scale(0.015625)"/>
       <path id="DejaVuSans-5d" d="M 1947 4863 
L 1947 -844 
L 622 -844 
L 622 -397 
L 1369 -397 
L 1369 4416 
L 622 4416 
L 622 4863 
L 1947 4863 
z
" transform="scale(0.015625)"/>
      </defs>
      <use xlink:href="#DejaVuSans-44"/>
      <use xlink:href="#DejaVuSans-69" transform="translate(77.001953 0)"/>
      <use xlink:href="#DejaVuSans-73" transform="translate(104.785156 0)"/>
      <use xlink:href="#DejaVuSans-74" transform="translate(156.884766 0)"/>
      <use xlink:href="#DejaVuSans-61" transform="translate(196.09375 0)"/>
      <use xlink:href="#DejaVuSans-6e" transform="translate(257.373047 0)"/>
      <use xlink:href="#DejaVuSans-63" transform="translate(320.751953 0)"/>
      <use xlink:href="#DejaVuSans-65" transform="translate(375.732422 0)"/>
      <use xlink:href="#DejaVuSans-20" transform="translate(437.255859 0)"/>
      <use xlink:href="#DejaVuSans-66" transform="translate(469.042969 0)"/>
      <use xlink:href="#DejaVuSans-72" transform="translate(504.248047 0)"/>
      <use xlink:href="#DejaVuSans-6f" transform="translate(543.111328 0)"/>
      <use xlink:href="#DejaVuSans-6d" transform="translate(604.292969 0)"/>
      <use xlink:href="#DejaVuSans-20" transform="translate(701.705078 0)"/>
      <use xlink:href="#DejaVuSans-74" transform="translate(733.492188 0)"/>
      <use xlink:href="#DejaVuSans-65" transform="translate(772.701172 0)"/>
      <use xlink:href="#DejaVuSans-72" transform="translate(834.224609 0)"/>
      <use xlink:href="#DejaVuSans-6d" transform="translate(873.587891 0)"/>
      <use xlink:href="#DejaVuSans-69" transform="translate(971 0)"/>
      <use xlink:href="#DejaVuSans-6e" transform="translate(998.783203 0)"/>
      <use xlink:href="#DejaVuSans-75" transform="translate(1062.162109 0)"/>
      <use xlink:href="#DejaVuSans-73" transform="translate(1125.541016 0)"/>
      <use xlink:href="#DejaVuSans-20" transform="translate(1177.640625 0)"/>
      <use xlink:href="#DejaVuSans-5b" transform="translate(1209.427734 0)"/>
      <use xlink:href="#DejaVuSans-6e" transform="translate(1248.441406 0)"/>
      <use xlink:href="#DejaVuSans-74" transform="translate(1311.820312 0)"/>
      <use xlink:href="#DejaVuSans-5d" transform="translate(1351.029297 0)"/>
     </g>
    </g>
   </g>
   <g id="matplotlib.axis_2">
    <g id="ytick_1">
     <g id="line2d_19">
      <path d="M 46.965625 369.201818 
L 401.765625 369.201818 
" clip-path="url(#p349713a650)" style="fill: none; stroke-dasharray: 2.96,1.28; stroke-dashoffset: 0; stroke: #b0b0b0; stroke-opacity: 0.6; stroke-width: 0.8"/>
     </g>
     <g id="line2d_20">
      <defs>
       <path id="m680b06d5c5" d="M 0 0 
L -3.5 0 
" style="stroke: #000000; stroke-width: 0.8"/>
      </defs>
      <g>
       <use xlink:href="#m680b06d5c5" x="46.965625" y="369.201818" style="stroke: #000000; stroke-width: 0.8"/>
      </g>
     </g>
     <g id="text_11">
      <!-- 0 -->
      <g transform="translate(33.603125 373.001037) scale(0.1 -0.1)">
       <use xlink:href="#DejaVuSans-30"/>
      </g>
     </g>
    </g>
    <g id="ytick_2">
     <g id="line2d_21">
      <path d="M 46.965625 300.489584 
L 401.765625 300.489584 
" clip-path="url(#p349713a650)" style="fill: none; stroke-dasharray: 2.96,1.28; stroke-dashoffset: 0; stroke: #b0b0b0; stroke-opacity: 0.6; stroke-width: 0.8"/>
     </g>
     <g id="line2d_22">
      <g>
       <use xlink:href="#m680b06d5c5" x="46.965625" y="300.489584" style="stroke: #000000; stroke-width: 0.8"/>
      </g>
     </g>
     <g id="text_12">
      <!-- 50 -->
      <g transform="translate(27.240625 304.288802) scale(0.1 -0.1)">
       <use xlink:href="#DejaVuSans-35"/>
       <use xlink:href="#DejaVuSans-30" transform="translate(63.623047 0)"/>
      </g>
     </g>
    </g>
    <g id="ytick_3">
     <g id="line2d_23">
      <path d="M 46.965625 231.777349 
L 401.765625 231.777349 
" clip-path="url(#p349713a650)" style="fill: none; stroke-dasharray: 2.96,1.28; stroke-dashoffset: 0; stroke: #b0b0b0; stroke-opacity: 0.6; stroke-width: 0.8"/>
     </g>
     <g id="line2d_24">
      <g>
       <use xlink:href="#m680b06d5c5" x="46.965625" y="231.777349" style="stroke: #000000; stroke-width: 0.8"/>
      </g>
     </g>
     <g id="text_13">
      <!-- 100 -->
      <g transform="translate(20.878125 235.576568) scale(0.1 -0.1)">
       <use xlink:href="#DejaVuSans-31"/>
       <use xlink:href="#DejaVuSans-30" transform="translate(63.623047 0)"/>
       <use xlink:href="#DejaVuSans-30" transform="translate(127.246094 0)"/>
      </g>
     </g>
    </g>
    <g id="ytick_4">
     <g id="line2d_25">
      <path d="M 46.965625 163.065115 
L 401.765625 163.065115 
" clip-path="url(#p349713a650)" style="fill: none; stroke-dasharray: 2.96,1.28; stroke-dashoffset: 0; stroke: #b0b0b0; stroke-opacity: 0.6; stroke-width: 0.8"/>
     </g>
     <g id="line2d_26">
      <g>
       <use xlink:href="#m680b06d5c5" x="46.965625" y="163.065115" style="stroke: #000000; stroke-width: 0.8"/>
      </g>
     </g>
     <g id="text_14">
      <!-- 150 -->
      <g transform="translate(20.878125 166.864334) scale(0.1 -0.1)">
       <use xlink:href="#DejaVuSans-31"/>
       <use xlink:href="#DejaVuSans-35" transform="translate(63.623047 0)"/>
       <use xlink:href="#DejaVuSans-30" transform="translate(127.246094 0)"/>
      </g>
     </g>
    </g>
    <g id="ytick_5">
     <g id="line2d_27">
      <path d="M 46.965625 94.35288 
L 401.765625 94.35288 
" clip-path="url(#p349713a650)" style="fill: none; stroke-dasharray: 2.96,1.28; stroke-dashoffset: 0; stroke: #b0b0b0; stroke-opacity: 0.6; stroke-width: 0.8"/>
     </g>
     <g id="line2d_28">
      <g>
       <use xlink:href="#m680b06d5c5" x="46.965625" y="94.35288" style="stroke: #000000; stroke-width: 0.8"/>
      </g>
     </g>
     <g id="text_15">
      <!-- 200 -->
      <g transform="translate(20.878125 98.152099) scale(0.1 -0.1)">
       <use xlink:href="#DejaVuSans-32"/>
       <use xlink:href="#DejaVuSans-30" transform="translate(63.623047 0)"/>
       <use xlink:href="#DejaVuSans-30" transform="translate(127.246094 0)"/>
      </g>
     </g>
    </g>
    <g id="ytick_6">
     <g id="line2d_29">
      <path d="M 46.965625 25.640646 
L 401.765625 25.640646 
" clip-path="url(#p349713a650)" style="fill: none; stroke-dasharray: 2.96,1.28; stroke-dashoffset: 0; stroke: #b0b0b0; stroke-opacity: 0.6; stroke-width: 0.8"/>
     </g>
     <g id="line2d_30">
      <g>
       <use xlink:href="#m680b06d5c5" x="46.965625" y="25.640646" style="stroke: #000000; stroke-width: 0.8"/>
      </g>
     </g>
     <g id="text_16">
      <!-- 250 -->
      <g transform="translate(20.878125 29.439865) scale(0.1 -0.1)">
       <use xlink:href="#DejaVuSans-32"/>
       <use xlink:href="#DejaVuSans-35" transform="translate(63.623047 0)"/>
       <use xlink:href="#DejaVuSans-30" transform="translate(127.246094 0)"/>
      </g>
     </g>
    </g>
    <g id="text_17">
     <!-- Average cumulative count -->
     <g transform="translate(14.798438 262.4325) rotate(-90) scale(0.1 -0.1)">
      <defs>
       <path id="DejaVuSans-41" d="M 2188 4044 
L 1331 1722 
L 3047 1722 
L 2188 4044 
z
M 1831 4666 
L 2547 4666 
L 4325 0 
L 3669 0 
L 3244 1197 
L 1141 1197 
L 716 0 
L 50 0 
L 1831 4666 
z
" transform="scale(0.015625)"/>
       <path id="DejaVuSans-76" d="M 191 3500 
L 800 3500 
L 1894 563 
L 2988 3500 
L 3597 3500 
L 2284 0 
L 1503 0 
L 191 3500 
z
" transform="scale(0.015625)"/>
       <path id="DejaVuSans-67" d="M 2906 1791 
Q 2906 2416 2648 2759 
Q 2391 3103 1925 3103 
Q 1463 3103 1205 2759 
Q 947 2416 947 1791 
Q 947 1169 1205 825 
Q 1463 481 1925 481 
Q 2391 481 2648 825 
Q 2906 1169 2906 1791 
z
M 3481 434 
Q 3481 -459 3084 -895 
Q 2688 -1331 1869 -1331 
Q 1566 -1331 1297 -1286 
Q 1028 -1241 775 -1147 
L 775 -588 
Q 1028 -725 1275 -790 
Q 1522 -856 1778 -856 
Q 2344 -856 2625 -561 
Q 2906 -266 2906 331 
L 2906 616 
Q 2728 306 2450 153 
Q 2172 0 1784 0 
Q 1141 0 747 490 
Q 353 981 353 1791 
Q 353 2603 747 3093 
Q 1141 3584 1784 3584 
Q 2172 3584 2450 3431 
Q 2728 3278 2906 2969 
L 2906 3500 
L 3481 3500 
L 3481 434 
z
" transform="scale(0.015625)"/>
       <path id="DejaVuSans-6c" d="M 603 4863 
L 1178 4863 
L 1178 0 
L 603 0 
L 603 4863 
z
" transform="scale(0.015625)"/>
      </defs>
      <use xlink:href="#DejaVuSans-41"/>
      <use xlink:href="#DejaVuSans-76" transform="translate(62.533203 0)"/>
      <use xlink:href="#DejaVuSans-65" transform="translate(121.712891 0)"/>
      <use xlink:href="#DejaVuSans-72" transform="translate(183.236328 0)"/>
      <use xlink:href="#DejaVuSans-61" transform="translate(224.349609 0)"/>
      <use xlink:href="#DejaVuSans-67" transform="translate(285.628906 0)"/>
      <use xlink:href="#DejaVuSans-65" transform="translate(349.105469 0)"/>
      <use xlink:href="#DejaVuSans-20" transform="translate(410.628906 0)"/>
      <use xlink:href="#DejaVuSans-63" transform="translate(442.416016 0)"/>
      <use xlink:href="#DejaVuSans-75" transform="translate(497.396484 0)"/>
      <use xlink:href="#DejaVuSans-6d" transform="translate(560.775391 0)"/>
      <use xlink:href="#DejaVuSans-75" transform="translate(658.1875 0)"/>
      <use xlink:href="#DejaVuSans-6c" transform="translate(721.566406 0)"/>
      <use xlink:href="#DejaVuSans-61" transform="translate(749.349609 0)"/>
      <use xlink:href="#DejaVuSans-74" transform="translate(810.628906 0)"/>
      <use xlink:href="#DejaVuSans-69" transform="translate(849.837891 0)"/>
      <use xlink:href="#DejaVuSans-76" transform="translate(877.621094 0)"/>
      <use xlink:href="#DejaVuSans-65" transform="translate(936.800781 0)"/>
      <use xlink:href="#DejaVuSans-20" transform="translate(998.324219 0)"/>
      <use xlink:href="#DejaVuSans-63" transform="translate(1030.111328 0)"/>
      <use xlink:href="#DejaVuSans-6f" transform="translate(1085.091797 0)"/>
      <use xlink:href="#DejaVuSans-75" transform="translate(1146.273438 0)"/>
      <use xlink:href="#DejaVuSans-6e" transform="translate(1209.652344 0)"/>
      <use xlink:href="#DejaVuSans-74" transform="translate(1273.03125 0)"/>
     </g>
    </g>
   </g>
   <g id="line2d_31">
    <path d="M 63.092898 369.201818 
L 91.117537 369.201818 
L 91.238507 369.030038 
L 106.641978 369.030038 
L 106.762947 368.858257 
L 130.755265 368.858257 
L 130.876234 368.686476 
L 144.666776 368.686476 
L 144.787746 368.514696 
L 145.513564 368.514696 
L 145.634534 368.342915 
L 154.989521 368.342915 
L 155.110491 368.171135 
L 385.638352 368.171135 
L 385.638352 368.171135 
" clip-path="url(#p349713a650)" style="fill: none; stroke: #add8e6; stroke-width: 2; stroke-linecap: square"/>
   </g>
   <g id="line2d_32">
    <path d="M 63.092898 369.201818 
L 385.638352 369.201818 
L 385.638352 369.201818 
" clip-path="url(#p349713a650)" style="fill: none; stroke: #6495ed; stroke-width: 2; stroke-linecap: square"/>
   </g>
   <g id="line2d_33">
    <path d="M 63.092898 369.030038 
L 63.254191 368.171135 
L 63.536453 368.171135 
L 63.697746 367.655793 
L 63.778393 367.655793 
L 63.899362 367.484012 
L 63.939685 367.484012 
L 64.221948 366.625109 
L 64.302594 366.625109 
L 64.62518 365.594426 
L 64.786473 365.594426 
L 64.907443 365.422645 
L 64.947766 365.422645 
L 65.109059 365.079084 
L 65.270352 365.079084 
L 65.552614 364.220181 
L 65.592938 364.220181 
L 65.75423 363.87662 
L 65.834877 363.87662 
L 65.955847 363.533059 
L 66.157463 363.533059 
L 66.359079 363.017717 
L 66.601018 363.017717 
L 66.802634 362.502375 
L 67.044574 362.502375 
L 67.326836 361.643472 
L 67.488129 361.643472 
L 67.810715 360.612789 
L 67.931684 360.612789 
L 68.213947 359.753886 
L 68.37524 359.753886 
L 68.576856 359.238544 
L 68.617179 359.238544 
L 68.738149 359.066764 
L 68.818795 359.066764 
L 69.101058 358.207861 
L 69.262351 358.207861 
L 69.62526 357.005397 
L 69.705906 357.005397 
L 69.907522 356.490055 
L 69.988169 356.490055 
L 70.109138 356.318274 
L 70.149462 356.318274 
L 70.351078 355.287591 
L 70.431724 355.287591 
L 70.552694 355.11581 
L 70.593017 355.11581 
L 70.834956 354.428688 
L 70.996249 354.428688 
L 71.318835 353.398004 
L 71.439805 353.398004 
L 71.762391 352.367321 
L 71.88336 352.367321 
L 72.205946 351.336637 
L 72.326916 351.336637 
L 72.609178 350.477734 
L 72.770471 350.477734 
L 73.13338 349.27527 
L 73.214027 349.27527 
L 73.576936 348.072806 
L 73.657582 348.072806 
L 73.778552 347.729245 
L 73.818875 347.729245 
L 73.980168 347.042123 
L 74.101137 347.042123 
L 74.222107 346.526781 
L 74.26243 346.526781 
L 74.423723 345.839658 
L 74.544693 345.839658 
L 74.665663 345.324317 
L 74.705986 345.324317 
L 74.907602 344.465414 
L 74.988248 344.465414 
L 75.109218 343.950072 
L 75.149541 343.950072 
L 75.351157 343.091169 
L 75.431804 343.091169 
L 75.552773 342.575827 
L 75.593097 342.575827 
L 75.75439 341.888705 
L 75.875359 341.888705 
L 75.996329 341.373363 
L 76.036652 341.373363 
L 76.197945 340.686241 
L 76.318915 340.686241 
L 76.439884 340.170899 
L 76.480208 340.170899 
L 76.681824 339.311996 
L 76.76247 339.311996 
L 76.88344 338.796654 
L 76.923763 338.796654 
L 77.085056 338.281313 
L 77.125379 338.281313 
L 77.447965 337.250629 
L 77.488288 337.250629 
L 77.689904 336.219946 
L 77.810874 336.219946 
L 77.972167 335.532823 
L 78.01249 335.532823 
L 78.335076 334.50214 
L 78.375399 334.50214 
L 78.577015 333.643237 
L 78.697985 333.643237 
L 78.859278 333.127895 
L 78.899601 333.127895 
L 79.302833 331.75365 
L 79.343156 331.75365 
L 79.746389 330.379406 
L 79.786712 330.379406 
L 80.109298 329.348722 
L 80.149621 329.348722 
L 80.431883 328.489819 
L 80.472207 328.489819 
L 80.633499 327.802697 
L 80.673823 327.802697 
L 80.996408 326.772013 
L 81.036732 326.772013 
L 81.238348 325.74133 
L 81.359317 325.74133 
L 81.52061 325.054208 
L 81.560934 325.054208 
L 81.883519 324.023524 
L 81.923843 324.023524 
L 82.125459 322.992841 
L 82.246428 322.992841 
L 82.407721 322.305718 
L 82.448044 322.305718 
L 82.77063 321.275035 
L 82.810953 321.275035 
L 83.01257 320.244351 
L 83.133539 320.244351 
L 83.294832 319.557229 
L 83.335155 319.557229 
L 83.657741 318.526545 
L 83.698064 318.526545 
L 83.89968 317.495862 
L 84.02065 317.495862 
L 84.181943 316.808739 
L 84.222266 316.808739 
L 84.544852 315.778056 
L 84.585175 315.778056 
L 84.786791 314.747372 
L 84.907761 314.747372 
L 85.069054 314.06025 
L 85.109377 314.06025 
L 85.431963 313.029567 
L 85.472286 313.029567 
L 85.673902 311.998883 
L 85.794872 311.998883 
L 85.956165 311.311761 
L 85.996488 311.311761 
L 86.319074 310.281077 
L 86.359397 310.281077 
L 86.561013 309.250394 
L 86.681983 309.250394 
L 86.843276 308.563271 
L 86.883599 308.563271 
L 87.206185 307.532588 
L 87.246508 307.532588 
L 87.448124 306.501904 
L 87.569094 306.501904 
L 87.730387 305.814782 
L 87.77071 305.814782 
L 87.972326 305.29944 
L 88.012649 305.29944 
L 88.173942 304.612318 
L 88.214265 304.612318 
L 88.375558 303.925195 
L 88.456205 303.925195 
L 88.617497 303.238073 
L 88.657821 303.238073 
L 88.819114 302.550951 
L 88.89976 302.550951 
L 89.061053 301.863828 
L 89.101376 301.863828 
L 89.262669 301.176706 
L 89.343315 301.176706 
L 89.504608 300.489584 
L 89.544932 300.489584 
L 89.706224 299.802461 
L 89.786871 299.802461 
L 89.948164 299.115339 
L 89.988487 299.115339 
L 90.14978 298.428217 
L 90.230426 298.428217 
L 90.391719 297.741094 
L 90.432042 297.741094 
L 90.593335 297.053972 
L 90.673982 297.053972 
L 91.036891 295.851508 
L 91.117537 295.851508 
L 91.480446 294.649044 
L 91.561093 294.649044 
L 91.722386 293.961921 
L 91.762709 293.961921 
L 91.924002 293.274799 
L 92.004648 293.274799 
L 92.165941 292.587677 
L 92.206264 292.587677 
L 92.367557 291.900554 
L 92.448204 291.900554 
L 92.609496 291.213432 
L 92.64982 291.213432 
L 92.811113 290.52631 
L 92.891759 290.52631 
L 93.053052 289.839187 
L 93.093375 289.839187 
L 93.254668 289.152065 
L 93.335314 289.152065 
L 93.496607 288.464943 
L 93.536931 288.464943 
L 93.698223 287.77782 
L 93.77887 287.77782 
L 93.940163 287.090698 
L 93.980486 287.090698 
L 94.141779 286.403576 
L 94.222425 286.403576 
L 94.383718 285.888234 
L 94.625658 285.201112 
L 94.665981 285.201112 
L 94.867597 284.342209 
L 95.069213 283.826867 
L 95.109536 283.826867 
L 95.270829 283.311525 
L 95.633738 282.109061 
L 95.674061 282.109061 
L 96.077294 280.734816 
L 96.117617 280.734816 
L 96.520849 279.360572 
L 96.561172 279.360572 
L 96.964404 277.986327 
L 97.004728 277.986327 
L 97.40796 276.612082 
L 97.448283 276.612082 
L 97.811192 275.409618 
L 97.891839 275.409618 
L 98.295071 274.035373 
L 98.335394 274.035373 
L 98.738626 272.661129 
L 98.778949 272.661129 
L 99.182182 271.286884 
L 99.222505 271.286884 
L 99.585414 270.08442 
L 99.66606 270.08442 
L 100.028969 268.881956 
L 100.109616 268.881956 
L 100.512848 267.507711 
L 100.553171 267.507711 
L 100.956403 266.133467 
L 100.996727 266.133467 
L 101.399959 264.759222 
L 101.480605 264.759222 
L 101.722545 263.556758 
L 101.803191 263.556758 
L 102.206423 262.182513 
L 102.246747 262.182513 
L 102.609656 260.980049 
L 102.690302 260.980049 
L 103.053211 259.777585 
L 103.133857 259.777585 
L 103.53709 258.40334 
L 103.577413 258.40334 
L 103.980645 257.029095 
L 104.020968 257.029095 
L 104.383877 255.826631 
L 104.464524 255.826631 
L 104.867756 254.452387 
L 104.908079 254.452387 
L 105.029049 254.280606 
L 105.069372 254.280606 
L 105.270988 253.421703 
L 105.351635 253.421703 
L 105.472604 253.249923 
L 105.512928 253.249923 
L 105.714544 252.219239 
L 105.79519 252.219239 
L 105.91616 252.047458 
L 105.956483 252.047458 
L 106.198422 250.844994 
L 106.400038 250.844994 
L 106.641978 249.64253 
L 106.843594 249.64253 
L 107.085533 248.440066 
L 107.206503 248.268286 
L 107.287149 248.268286 
L 107.488765 247.237602 
L 107.529089 247.237602 
L 107.650058 246.894041 
L 107.730705 246.894041 
L 107.932321 245.863357 
L 107.972644 245.863357 
L 108.093614 245.519796 
L 108.17426 245.519796 
L 108.214583 245.348016 
L 108.335553 244.660893 
L 108.4162 244.660893 
L 108.537169 244.489113 
L 108.617816 244.489113 
L 108.658139 244.317332 
L 108.779109 243.458429 
L 108.819432 243.458429 
L 108.980725 243.114868 
L 109.061371 243.114868 
L 109.101694 242.943087 
L 109.222664 242.255965 
L 109.262987 242.255965 
L 109.42428 241.912404 
L 109.504927 241.912404 
L 109.746866 240.70994 
L 109.867836 240.538159 
L 109.948482 240.538159 
L 109.988805 240.366379 
L 110.109775 239.679256 
L 110.150098 239.679256 
L 110.311391 239.335695 
L 110.351714 239.335695 
L 110.432361 238.992134 
L 110.55333 238.305012 
L 110.633977 238.305012 
L 110.754946 238.133231 
L 110.79527 238.133231 
L 110.875916 237.78967 
L 111.037209 236.930767 
L 111.077532 236.930767 
L 111.198502 236.758986 
L 111.238825 236.758986 
L 111.319472 236.415425 
L 111.480764 235.556522 
L 111.521088 235.556522 
L 111.642057 235.384742 
L 111.722704 235.384742 
L 112.04529 234.354058 
L 112.085613 234.354058 
L 112.367875 233.495155 
L 112.408199 233.495155 
L 112.569491 233.151594 
L 112.609815 233.151594 
L 112.9324 232.12091 
L 112.972724 232.12091 
L 113.375956 230.746666 
L 113.416279 230.746666 
L 113.819511 229.372421 
L 113.859835 229.372421 
L 114.263067 227.998176 
L 114.384036 227.998176 
L 114.746945 226.795712 
L 114.827592 226.795712 
L 114.867915 226.623932 
L 115.029208 225.765029 
L 115.069531 225.765029 
L 115.230824 225.421468 
L 115.271147 225.421468 
L 115.311471 225.249687 
L 115.472763 224.390784 
L 115.513087 224.390784 
L 115.67438 224.047223 
L 115.714703 224.047223 
L 115.755026 223.875442 
L 115.916319 223.016539 
L 115.956642 223.016539 
L 116.077612 222.844759 
L 116.158258 222.844759 
L 116.198581 222.672978 
L 116.359874 221.814075 
L 116.400198 221.814075 
L 116.56149 221.470514 
L 116.601814 221.470514 
L 117.005046 220.096269 
L 117.045369 220.096269 
L 117.408278 218.893805 
L 117.488925 218.893805 
L 117.892157 217.519561 
L 117.93248 217.519561 
L 118.295389 216.317097 
L 118.376035 216.317097 
L 118.698621 215.286413 
L 118.819591 215.286413 
L 119.222823 213.912168 
L 119.263146 213.912168 
L 119.585732 212.881485 
L 119.706702 212.881485 
L 120.069611 211.679021 
L 120.150257 211.679021 
L 120.513166 210.476557 
L 120.593813 210.476557 
L 120.997045 209.102312 
L 121.037368 209.102312 
L 121.4406 207.728067 
L 121.480924 207.728067 
L 121.843833 206.525603 
L 121.924479 206.525603 
L 122.287388 205.323139 
L 122.368034 205.323139 
L 122.569651 204.292455 
L 122.609974 204.292455 
L 122.730943 204.120675 
L 122.81159 204.120675 
L 123.053529 202.918211 
L 123.174499 202.918211 
L 123.577731 201.543966 
L 123.618054 201.543966 
L 124.021287 200.169721 
L 124.142256 200.169721 
L 124.384196 198.967257 
L 124.585812 198.967257 
L 124.827751 197.764793 
L 124.948721 197.764793 
L 125.351953 196.390549 
L 125.392276 196.390549 
L 125.795508 195.016304 
L 125.835832 195.016304 
L 126.198741 193.81384 
L 126.360033 193.81384 
L 126.601973 192.611376 
L 126.682619 192.611376 
L 127.085851 191.237131 
L 127.126175 191.237131 
L 127.368114 190.550009 
L 127.408437 190.550009 
L 127.56973 190.034667 
L 127.972962 188.660422 
L 128.013286 188.660422 
L 128.416518 187.286177 
L 128.456841 187.286177 
L 128.860073 185.911933 
L 128.900396 185.911933 
L 129.142336 185.22481 
L 129.182659 185.22481 
L 129.343952 184.709469 
L 129.747184 183.335224 
L 129.787507 183.335224 
L 130.150416 182.13276 
L 130.231063 182.13276 
L 130.352032 181.960979 
L 130.392356 181.960979 
L 130.593972 180.930296 
L 130.674618 180.930296 
L 130.795588 180.758515 
L 130.835911 180.758515 
L 131.037527 179.727832 
L 131.118174 179.727832 
L 131.521406 178.353587 
L 131.561729 178.353587 
L 131.924638 177.151123 
L 132.005285 177.151123 
L 132.408517 175.776878 
L 132.44884 175.776878 
L 132.811749 174.574414 
L 132.892395 174.574414 
L 133.295628 173.200169 
L 133.335951 173.200169 
L 133.739183 171.825925 
L 133.779506 171.825925 
L 134.182739 170.45168 
L 134.223062 170.45168 
L 134.626294 169.077435 
L 134.666617 169.077435 
L 135.069849 167.703191 
L 135.110173 167.703191 
L 135.473082 166.500727 
L 135.553728 166.500727 
L 135.95696 165.126482 
L 135.997284 165.126482 
L 136.400516 163.752237 
L 136.440839 163.752237 
L 136.844071 162.377992 
L 136.884394 162.377992 
L 137.287627 161.003748 
L 137.32795 161.003748 
L 137.44892 160.831967 
L 137.489243 160.831967 
L 137.892475 159.457723 
L 137.932798 159.457723 
L 138.174738 158.7706 
L 138.215061 158.7706 
L 138.376354 158.427039 
L 138.416677 158.427039 
L 138.618293 157.568136 
L 138.698939 157.568136 
L 138.860232 157.052794 
L 139.102172 156.365672 
L 139.142495 156.365672 
L 139.505404 155.163208 
L 139.545727 155.163208 
L 139.948959 153.788963 
L 139.989283 153.788963 
L 140.190899 153.273621 
L 140.231222 153.273621 
L 140.392515 152.586499 
L 140.432838 152.586499 
L 140.553808 152.414718 
L 140.594131 152.414718 
L 140.916717 151.384035 
L 140.95704 151.384035 
L 141.360272 150.00979 
L 141.400595 150.00979 
L 141.803828 148.635546 
L 141.844151 148.635546 
L 142.166737 147.604862 
L 142.287706 147.604862 
L 142.650615 146.402398 
L 142.731262 146.402398 
L 143.134494 145.028153 
L 143.21514 145.028153 
L 143.618373 143.653909 
L 143.658696 143.653909 
L 143.981282 142.623225 
L 144.021605 142.623225 
L 144.344191 141.592542 
L 144.384514 141.592542 
L 144.545807 141.24898 
L 144.58613 141.24898 
L 144.787746 140.390077 
L 144.908716 140.390077 
L 145.070009 140.046516 
L 145.110332 140.046516 
L 145.271625 139.187613 
L 145.352271 139.187613 
L 145.513564 138.844052 
L 145.553887 138.844052 
L 145.71518 137.985149 
L 145.795827 137.985149 
L 146.199059 136.610905 
L 146.239382 136.610905 
L 146.602291 135.40844 
L 146.682937 135.40844 
L 147.045846 134.205976 
L 147.126493 134.205976 
L 147.489402 133.003512 
L 147.570048 133.003512 
L 147.892634 131.972829 
L 148.013604 131.972829 
L 148.376513 130.770365 
L 148.457159 130.770365 
L 148.699099 130.083242 
L 148.739422 130.083242 
L 148.860391 129.911462 
L 148.900715 129.911462 
L 149.142654 129.224339 
L 149.182977 129.224339 
L 149.303947 128.880778 
L 149.34427 128.880778 
L 149.666856 127.850095 
L 149.787826 127.850095 
L 150.110411 126.819411 
L 150.231381 126.819411 
L 150.553967 125.788728 
L 150.59429 125.788728 
L 150.755583 125.445166 
L 150.795906 125.445166 
L 150.957199 124.929825 
L 151.037845 124.929825 
L 151.199138 124.586264 
L 151.239462 124.586264 
L 151.400754 123.899141 
L 151.481401 123.899141 
L 151.642694 123.55558 
L 151.683017 123.55558 
L 151.884633 122.696677 
L 151.924956 122.696677 
L 152.086249 122.353116 
L 152.126572 122.353116 
L 152.287865 121.665994 
L 152.368512 121.665994 
L 152.529805 121.322432 
L 152.570128 121.322432 
L 152.771744 120.463529 
L 152.812067 120.463529 
L 152.97336 120.119968 
L 153.013683 120.119968 
L 153.295946 119.261065 
L 153.336269 119.261065 
L 153.658855 118.230382 
L 153.699178 118.230382 
L 154.021764 117.199698 
L 154.142734 117.199698 
L 154.304026 116.856137 
L 154.34435 116.856137 
L 154.545966 115.997234 
L 154.787905 115.997234 
L 154.989521 115.138331 
L 155.231461 115.138331 
L 155.433077 114.279428 
L 155.4734 114.279428 
L 155.59437 114.107648 
L 155.675016 114.107648 
L 155.836309 113.420525 
L 155.916955 113.420525 
L 156.037925 113.248745 
L 156.118571 113.248745 
L 156.320188 112.389842 
L 156.360511 112.389842 
L 156.48148 112.218061 
L 156.562127 112.218061 
L 156.72342 111.530939 
L 156.804066 111.530939 
L 156.925036 111.359158 
L 157.005682 111.359158 
L 157.207298 110.843817 
L 157.247622 110.843817 
L 157.368591 110.672036 
L 157.408915 110.672036 
L 157.7315 109.641353 
L 157.85247 109.641353 
L 158.175056 108.610669 
L 158.296025 108.610669 
L 158.537965 107.923547 
L 158.578288 107.923547 
L 158.699258 107.751766 
L 158.739581 107.751766 
L 158.941197 106.892863 
L 159.021843 106.892863 
L 159.142813 106.721083 
L 159.183136 106.721083 
L 159.384752 106.205741 
L 159.465399 106.205741 
L 159.626692 105.86218 
L 159.667015 105.86218 
L 159.828308 105.346838 
L 159.949278 105.346838 
L 160.23154 104.487935 
L 160.392833 104.487935 
L 160.715419 103.457251 
L 160.836388 103.457251 
L 161.158974 102.426568 
L 161.279944 102.426568 
L 161.60253 101.395884 
L 161.642853 101.395884 
L 161.844469 100.880543 
L 161.884792 100.880543 
L 162.046085 100.365201 
L 162.126732 100.365201 
L 162.288024 100.02164 
L 162.328348 100.02164 
L 162.489641 99.506298 
L 162.570287 99.506298 
L 162.73158 99.162737 
L 162.771903 99.162737 
L 162.933196 98.647395 
L 163.013842 98.647395 
L 163.336428 97.616712 
L 163.497721 97.616712 
L 163.618691 97.444931 
L 163.659014 97.444931 
L 163.9816 96.414247 
L 164.102569 96.414247 
L 164.344509 95.727125 
L 164.384832 95.727125 
L 164.505802 95.555344 
L 164.546125 95.555344 
L 164.868711 94.524661 
L 165.030004 94.524661 
L 165.150973 94.1811 
L 165.191296 94.1811 
L 165.352589 93.665758 
L 165.392913 93.665758 
L 165.594529 93.150416 
L 165.634852 93.150416 
L 165.796145 92.635075 
L 165.836468 92.635075 
L 166.038084 92.119733 
L 166.078407 92.119733 
L 166.2397 91.776172 
L 166.280023 91.776172 
L 166.521963 91.089049 
L 166.602609 91.089049 
L 166.763902 90.745488 
L 166.804225 90.745488 
L 166.965518 90.058366 
L 167.167134 90.058366 
L 167.48972 89.027682 
L 167.61069 89.027682 
L 167.933276 87.996999 
L 168.054245 87.996999 
L 168.376831 86.966315 
L 168.497801 86.966315 
L 168.73974 86.279193 
L 168.941356 86.279193 
L 169.223619 85.42029 
L 169.384912 85.42029 
L 169.707497 84.389606 
L 169.828467 84.389606 
L 170.151053 83.358923 
L 170.272022 83.358923 
L 170.554285 82.50002 
L 170.715578 82.50002 
L 171.038164 81.469336 
L 171.159133 81.469336 
L 171.481719 80.438653 
L 171.602689 80.438653 
L 171.884951 79.57975 
L 172.046244 79.57975 
L 172.328507 78.720847 
L 172.4898 78.720847 
L 172.812385 77.690164 
L 172.933355 77.690164 
L 173.134971 77.174822 
L 173.175294 77.174822 
L 173.296264 77.003041 
L 173.376911 77.003041 
L 173.659173 76.144138 
L 173.820466 76.144138 
L 174.022082 75.628796 
L 174.062405 75.628796 
L 174.183375 75.457016 
L 174.264021 75.457016 
L 174.586607 74.426332 
L 174.707577 74.426332 
L 174.989839 73.567429 
L 175.151132 73.567429 
L 175.473718 72.536746 
L 175.594688 72.536746 
L 175.87695 71.677843 
L 176.038243 71.677843 
L 176.239859 70.81894 
L 176.280183 70.81894 
L 176.401152 70.647159 
L 176.481799 70.647159 
L 176.764061 69.788257 
L 176.925354 69.788257 
L 177.12697 69.272915 
L 177.167293 69.272915 
L 177.288263 69.101134 
L 177.36891 69.101134 
L 177.651172 68.242231 
L 177.812465 68.242231 
L 178.014081 67.72689 
L 178.296344 67.72689 
L 178.457637 67.211548 
L 178.578606 67.039767 
L 178.739899 67.039767 
L 178.901192 66.524425 
L 179.022162 66.352645 
L 179.143131 66.352645 
L 179.425394 65.493742 
L 179.586687 65.493742 
L 179.868949 64.634839 
L 180.070565 64.634839 
L 180.231858 64.119497 
L 180.433474 64.119497 
L 180.715737 63.260594 
L 180.87703 63.260594 
L 181.159292 62.401691 
L 181.401232 62.401691 
L 181.562525 61.714569 
L 181.723818 61.714569 
L 181.925434 61.199227 
L 181.965757 61.199227 
L 182.086727 61.027447 
L 182.167373 61.027447 
L 182.449636 60.168544 
L 182.691575 60.168544 
L 182.893191 59.653202 
L 183.014161 59.653202 
L 183.13513 59.481421 
L 183.175454 59.481421 
L 183.336746 59.13786 
L 183.457716 59.13786 
L 183.578686 58.96608 
L 183.619009 58.96608 
L 183.780302 58.450738 
L 183.860948 58.450738 
L 183.981918 58.278957 
L 184.022241 58.278957 
L 184.264181 57.591835 
L 184.465797 57.591835 
L 184.748059 56.732932 
L 184.909352 56.732932 
L 185.110968 56.21759 
L 185.151291 56.21759 
L 185.272261 56.04581 
L 185.352908 56.04581 
L 185.554524 55.530468 
L 185.594847 55.530468 
L 185.715817 55.358687 
L 185.796463 55.358687 
L 185.998079 54.843346 
L 186.038402 54.843346 
L 186.159372 54.671565 
L 186.240018 54.671565 
L 186.441635 54.156223 
L 186.683574 54.156223 
L 186.88519 53.640881 
L 186.925513 53.640881 
L 187.046483 53.469101 
L 187.127129 53.469101 
L 187.328745 52.953759 
L 187.369069 52.953759 
L 187.490038 52.781979 
L 187.570685 52.781979 
L 187.772301 52.266637 
L 187.812624 52.266637 
L 187.933594 52.094856 
L 188.01424 52.094856 
L 188.215856 51.579514 
L 188.25618 51.579514 
L 188.377149 51.407734 
L 188.457796 51.407734 
L 188.659412 50.892392 
L 188.699735 50.892392 
L 188.820705 50.720611 
L 188.901351 50.720611 
L 189.102967 50.20527 
L 189.14329 50.20527 
L 189.26426 50.033489 
L 189.344907 50.033489 
L 189.465876 49.861709 
L 189.506199 49.861709 
L 189.667492 49.518147 
L 189.788462 49.518147 
L 189.909432 49.346367 
L 189.949755 49.346367 
L 190.111048 49.002806 
L 190.232017 49.002806 
L 190.352987 48.831025 
L 190.39331 48.831025 
L 190.554603 48.487464 
L 190.675573 48.487464 
L 190.796543 48.315683 
L 190.836866 48.315683 
L 190.998159 47.972122 
L 191.119128 47.972122 
L 191.240098 47.800342 
L 191.280421 47.800342 
L 191.401391 47.628561 
L 191.562684 47.628561 
L 191.683653 47.45678 
L 191.723977 47.45678 
L 191.88527 47.113219 
L 191.925593 47.113219 
L 192.086886 46.769658 
L 192.167532 46.769658 
L 192.328825 46.426097 
L 192.449795 46.426097 
L 192.570764 46.254316 
L 192.611088 46.254316 
L 192.77238 45.910755 
L 193.054643 45.910755 
L 193.175613 45.738974 
L 193.296582 45.738974 
L 193.417552 45.567194 
L 193.498198 45.567194 
L 193.619168 45.223633 
L 193.740138 45.223633 
L 193.861107 45.051852 
L 193.941754 45.051852 
L 194.062724 44.708291 
L 194.183693 44.708291 
L 194.304663 44.53651 
L 194.385309 44.53651 
L 194.506279 44.36473 
L 194.627249 44.36473 
L 194.748218 44.192949 
L 194.828865 44.192949 
L 194.949834 44.021169 
L 195.27242 44.021169 
L 195.39339 43.849388 
L 195.474036 43.849388 
L 195.595006 43.677607 
L 195.715976 43.677607 
L 195.836945 43.505827 
L 195.917592 43.505827 
L 196.038561 43.334046 
L 196.159531 43.334046 
L 196.280501 43.162266 
L 196.361147 43.162266 
L 196.482117 42.818705 
L 196.603087 42.818705 
L 196.724056 42.646924 
L 196.804703 42.646924 
L 196.925672 42.475143 
L 197.046642 42.475143 
L 197.167612 42.303363 
L 197.248258 42.303363 
L 197.369228 42.131582 
L 197.490197 42.131582 
L 197.611167 41.959802 
L 197.933753 41.959802 
L 198.054723 41.788021 
L 198.095046 41.788021 
L 198.216015 41.61624 
L 198.377308 41.61624 
L 198.498278 41.44446 
L 198.538601 41.44446 
L 198.659571 41.272679 
L 198.820864 41.272679 
L 198.941833 41.100899 
L 198.982157 41.100899 
L 199.103126 40.929118 
L 199.264419 40.929118 
L 199.385389 40.757338 
L 199.425712 40.757338 
L 199.546682 40.585557 
L 199.707975 40.585557 
L 199.828944 40.413776 
L 199.869268 40.413776 
L 199.990237 40.241996 
L 200.15153 40.241996 
L 200.2725 40.070215 
L 200.312823 40.070215 
L 200.433793 39.898435 
L 200.595086 39.898435 
L 200.716055 39.726654 
L 200.756378 39.726654 
L 200.877348 39.554873 
L 201.038641 39.554873 
L 201.159611 39.383093 
L 201.199934 39.383093 
L 201.320904 39.211312 
L 201.40155 39.211312 
L 201.562843 38.867751 
L 201.925752 38.867751 
L 202.087045 38.52419 
L 202.490277 38.52419 
L 202.611247 38.352409 
L 202.77254 38.352409 
L 202.893509 38.180629 
L 202.933832 38.180629 
L 203.054802 38.008848 
L 203.135449 38.008848 
L 203.296741 37.665287 
L 203.377388 37.665287 
L 203.498358 37.493506 
L 203.699974 37.493506 
L 203.861267 37.149945 
L 204.143529 37.149945 
L 204.304822 36.806384 
L 204.748377 36.806384 
L 204.869347 36.634603 
L 204.990317 36.634603 
L 205.111286 36.462823 
L 205.433872 36.462823 
L 205.554842 36.291042 
L 205.595165 36.291042 
L 205.716135 36.119262 
L 205.877428 36.119262 
L 205.998397 35.947481 
L 206.038721 35.947481 
L 206.15969 35.775701 
L 206.320983 35.775701 
L 206.441953 35.60392 
L 206.482276 35.60392 
L 206.603246 35.432139 
L 206.764539 35.432139 
L 206.885508 35.260359 
L 206.925831 35.260359 
L 207.046801 35.088578 
L 207.369387 35.088578 
L 207.490357 34.916798 
L 207.611326 34.916798 
L 207.732296 34.745017 
L 207.812942 34.745017 
L 207.933912 34.573236 
L 208.054882 34.573236 
L 208.175851 34.401456 
L 208.256498 34.401456 
L 208.377467 34.229675 
L 208.498437 34.229675 
L 208.619407 34.057895 
L 208.700053 34.057895 
L 208.821023 33.886114 
L 208.941993 33.886114 
L 209.062962 33.714333 
L 209.385548 33.714333 
L 209.506518 33.542553 
L 209.829103 33.542553 
L 209.950073 33.370772 
L 210.272659 33.370772 
L 210.393629 33.198992 
L 210.554921 33.198992 
L 210.675891 33.027211 
L 210.716214 33.027211 
L 210.837184 32.855431 
L 210.958154 32.855431 
L 211.079123 32.68365 
L 211.15977 32.68365 
L 211.280739 32.511869 
L 211.603325 32.511869 
L 211.724295 32.340089 
L 212.046881 32.340089 
L 212.16785 32.168308 
L 212.490436 32.168308 
L 212.611406 31.996528 
L 212.933992 31.996528 
L 213.054961 31.824747 
L 213.377547 31.824747 
L 213.498517 31.652966 
L 213.821102 31.652966 
L 213.942072 31.481186 
L 214.264658 31.481186 
L 214.385628 31.309405 
L 214.708213 31.309405 
L 214.829183 31.137625 
L 215.151769 31.137625 
L 215.272738 30.965844 
L 215.595324 30.965844 
L 215.716294 30.794064 
L 216.03888 30.794064 
L 216.200173 30.450502 
L 216.482435 30.450502 
L 216.603405 30.278722 
L 216.925991 30.278722 
L 217.04696 30.106941 
L 217.369546 30.106941 
L 217.490516 29.935161 
L 217.813101 29.935161 
L 217.934071 29.76338 
L 217.974394 29.76338 
L 218.095364 29.591599 
L 218.256657 29.591599 
L 218.41795 29.248038 
L 225.393867 29.248038 
L 225.514837 29.076258 
L 225.716453 29.076258 
L 225.877746 28.732696 
L 232.773017 28.732696 
L 232.893986 28.560916 
L 233.216572 28.560916 
L 233.337542 28.389135 
L 240.19249 28.389135 
L 240.313459 28.217355 
L 241.240893 28.217355 
L 241.361863 28.045574 
L 245.636125 28.045574 
L 245.757094 27.873794 
L 247.611963 27.873794 
L 247.732932 27.702013 
L 248.660366 27.702013 
L 248.781336 27.530232 
L 250.676527 27.530232 
L 250.797497 27.358452 
L 253.055598 27.358452 
L 253.176567 27.186671 
L 255.031435 27.186671 
L 255.152405 27.014891 
L 256.079839 27.014891 
L 256.200809 26.84311 
L 258.136324 26.84311 
L 258.257293 26.671329 
L 260.47507 26.671329 
L 260.59604 26.499549 
L 263.499312 26.499549 
L 263.620282 26.327768 
L 265.35418 26.327768 
L 265.47515 26.155988 
L 265.555796 26.155988 
L 265.676766 25.984207 
L 267.934867 25.984207 
L 268.055836 25.812427 
L 272.773653 25.812427 
L 272.894623 25.640646 
L 272.975269 25.640646 
L 273.096239 25.468865 
L 275.1124 25.468865 
L 275.23337 25.297085 
L 280.193126 25.297085 
L 280.314096 25.125304 
L 282.612519 25.125304 
L 282.733489 24.953524 
L 287.612599 24.953524 
L 287.733569 24.781743 
L 290.072316 24.781743 
L 290.193285 24.609962 
L 297.572435 24.609962 
L 297.693405 24.438182 
L 385.638352 24.438182 
L 385.638352 24.438182 
" clip-path="url(#p349713a650)" style="fill: none; stroke: #00008b; stroke-width: 2; stroke-linecap: square"/>
   </g>
   <g id="patch_3">
    <path d="M 46.965625 386.44 
L 46.965625 7.2 
" style="fill: none; stroke: #000000; stroke-width: 0.8; stroke-linejoin: miter; stroke-linecap: square"/>
   </g>
   <g id="patch_4">
    <path d="M 401.765625 386.44 
L 401.765625 7.2 
" style="fill: none; stroke: #000000; stroke-width: 0.8; stroke-linejoin: miter; stroke-linecap: square"/>
   </g>
   <g id="patch_5">
    <path d="M 46.965625 386.44 
L 401.765625 386.44 
" style="fill: none; stroke: #000000; stroke-width: 0.8; stroke-linejoin: miter; stroke-linecap: square"/>
   </g>
   <g id="patch_6">
    <path d="M 46.965625 7.2 
L 401.765625 7.2 
" style="fill: none; stroke: #000000; stroke-width: 0.8; stroke-linejoin: miter; stroke-linecap: square"/>
   </g>
   <g id="legend_1">
    <g id="patch_7">
     <path d="M 408.765625 73.9125 
L 558.923437 73.9125 
Q 560.923437 73.9125 560.923437 71.9125 
L 560.923437 14.2 
Q 560.923437 12.2 558.923437 12.2 
L 408.765625 12.2 
Q 406.765625 12.2 406.765625 14.2 
L 406.765625 71.9125 
Q 406.765625 73.9125 408.765625 73.9125 
z
" style="fill: #ffffff; opacity: 0.8; stroke: #cccccc; stroke-linejoin: miter"/>
    </g>
    <g id="text_18">
     <!-- Motifs &amp; orientation -->
     <g transform="translate(434.328906 23.798437) scale(0.1 -0.1)">
      <defs>
       <path id="DejaVuSans-4d" d="M 628 4666 
L 1569 4666 
L 2759 1491 
L 3956 4666 
L 4897 4666 
L 4897 0 
L 4281 0 
L 4281 4097 
L 3078 897 
L 2444 897 
L 1241 4097 
L 1241 0 
L 628 0 
L 628 4666 
z
" transform="scale(0.015625)"/>
       <path id="DejaVuSans-26" d="M 1556 2509 
Q 1272 2256 1139 2004 
Q 1006 1753 1006 1478 
Q 1006 1022 1337 719 
Q 1669 416 2169 416 
Q 2466 416 2725 514 
Q 2984 613 3213 813 
L 1556 2509 
z
M 1997 2859 
L 3584 1234 
Q 3769 1513 3872 1830 
Q 3975 2147 3994 2503 
L 4575 2503 
Q 4538 2091 4375 1687 
Q 4213 1284 3922 891 
L 4794 0 
L 4006 0 
L 3559 459 
Q 3234 181 2878 45 
Q 2522 -91 2113 -91 
Q 1359 -91 881 339 
Q 403 769 403 1441 
Q 403 1841 612 2192 
Q 822 2544 1241 2853 
Q 1091 3050 1012 3245 
Q 934 3441 934 3628 
Q 934 4134 1281 4442 
Q 1628 4750 2203 4750 
Q 2463 4750 2720 4694 
Q 2978 4638 3244 4525 
L 3244 3956 
Q 2972 4103 2725 4179 
Q 2478 4256 2266 4256 
Q 1938 4256 1733 4082 
Q 1528 3909 1528 3634 
Q 1528 3475 1620 3314 
Q 1713 3153 1997 2859 
z
" transform="scale(0.015625)"/>
      </defs>
      <use xlink:href="#DejaVuSans-4d"/>
      <use xlink:href="#DejaVuSans-6f" transform="translate(86.279297 0)"/>
      <use xlink:href="#DejaVuSans-74" transform="translate(147.460938 0)"/>
      <use xlink:href="#DejaVuSans-69" transform="translate(186.669922 0)"/>
      <use xlink:href="#DejaVuSans-66" transform="translate(214.453125 0)"/>
      <use xlink:href="#DejaVuSans-73" transform="translate(249.658203 0)"/>
      <use xlink:href="#DejaVuSans-20" transform="translate(301.757812 0)"/>
      <use xlink:href="#DejaVuSans-26" transform="translate(333.544922 0)"/>
      <use xlink:href="#DejaVuSans-20" transform="translate(411.523438 0)"/>
      <use xlink:href="#DejaVuSans-6f" transform="translate(443.310547 0)"/>
      <use xlink:href="#DejaVuSans-72" transform="translate(504.492188 0)"/>
      <use xlink:href="#DejaVuSans-69" transform="translate(545.605469 0)"/>
      <use xlink:href="#DejaVuSans-65" transform="translate(573.388672 0)"/>
      <use xlink:href="#DejaVuSans-6e" transform="translate(634.912109 0)"/>
      <use xlink:href="#DejaVuSans-74" transform="translate(698.291016 0)"/>
      <use xlink:href="#DejaVuSans-61" transform="translate(737.5 0)"/>
      <use xlink:href="#DejaVuSans-74" transform="translate(798.779297 0)"/>
      <use xlink:href="#DejaVuSans-69" transform="translate(837.988281 0)"/>
      <use xlink:href="#DejaVuSans-6f" transform="translate(865.771484 0)"/>
      <use xlink:href="#DejaVuSans-6e" transform="translate(926.953125 0)"/>
     </g>
    </g>
    <g id="line2d_34">
     <path d="M 410.765625 34.976562 
L 420.765625 34.976562 
L 430.765625 34.976562 
" style="fill: none; stroke: #add8e6; stroke-width: 2; stroke-linecap: square"/>
    </g>
    <g id="text_19">
     <!-- CCCGAGACTAA (5' end) -->
     <g transform="translate(438.765625 38.476562) scale(0.1 -0.1)">
      <defs>
       <path id="DejaVuSans-43" d="M 4122 4306 
L 4122 3641 
Q 3803 3938 3442 4084 
Q 3081 4231 2675 4231 
Q 1875 4231 1450 3742 
Q 1025 3253 1025 2328 
Q 1025 1406 1450 917 
Q 1875 428 2675 428 
Q 3081 428 3442 575 
Q 3803 722 4122 1019 
L 4122 359 
Q 3791 134 3420 21 
Q 3050 -91 2638 -91 
Q 1578 -91 968 557 
Q 359 1206 359 2328 
Q 359 3453 968 4101 
Q 1578 4750 2638 4750 
Q 3056 4750 3426 4639 
Q 3797 4528 4122 4306 
z
" transform="scale(0.015625)"/>
       <path id="DejaVuSans-47" d="M 3809 666 
L 3809 1919 
L 2778 1919 
L 2778 2438 
L 4434 2438 
L 4434 434 
Q 4069 175 3628 42 
Q 3188 -91 2688 -91 
Q 1594 -91 976 548 
Q 359 1188 359 2328 
Q 359 3472 976 4111 
Q 1594 4750 2688 4750 
Q 3144 4750 3555 4637 
Q 3966 4525 4313 4306 
L 4313 3634 
Q 3963 3931 3569 4081 
Q 3175 4231 2741 4231 
Q 1884 4231 1454 3753 
Q 1025 3275 1025 2328 
Q 1025 1384 1454 906 
Q 1884 428 2741 428 
Q 3075 428 3337 486 
Q 3600 544 3809 666 
z
" transform="scale(0.015625)"/>
       <path id="DejaVuSans-54" d="M -19 4666 
L 3928 4666 
L 3928 4134 
L 2272 4134 
L 2272 0 
L 1638 0 
L 1638 4134 
L -19 4134 
L -19 4666 
z
" transform="scale(0.015625)"/>
       <path id="DejaVuSans-28" d="M 1984 4856 
Q 1566 4138 1362 3434 
Q 1159 2731 1159 2009 
Q 1159 1288 1364 580 
Q 1569 -128 1984 -844 
L 1484 -844 
Q 1016 -109 783 600 
Q 550 1309 550 2009 
Q 550 2706 781 3412 
Q 1013 4119 1484 4856 
L 1984 4856 
z
" transform="scale(0.015625)"/>
       <path id="DejaVuSans-27" d="M 1147 4666 
L 1147 2931 
L 616 2931 
L 616 4666 
L 1147 4666 
z
" transform="scale(0.015625)"/>
       <path id="DejaVuSans-64" d="M 2906 2969 
L 2906 4863 
L 3481 4863 
L 3481 0 
L 2906 0 
L 2906 525 
Q 2725 213 2448 61 
Q 2172 -91 1784 -91 
Q 1150 -91 751 415 
Q 353 922 353 1747 
Q 353 2572 751 3078 
Q 1150 3584 1784 3584 
Q 2172 3584 2448 3432 
Q 2725 3281 2906 2969 
z
M 947 1747 
Q 947 1113 1208 752 
Q 1469 391 1925 391 
Q 2381 391 2643 752 
Q 2906 1113 2906 1747 
Q 2906 2381 2643 2742 
Q 2381 3103 1925 3103 
Q 1469 3103 1208 2742 
Q 947 2381 947 1747 
z
" transform="scale(0.015625)"/>
       <path id="DejaVuSans-29" d="M 513 4856 
L 1013 4856 
Q 1481 4119 1714 3412 
Q 1947 2706 1947 2009 
Q 1947 1309 1714 600 
Q 1481 -109 1013 -844 
L 513 -844 
Q 928 -128 1133 580 
Q 1338 1288 1338 2009 
Q 1338 2731 1133 3434 
Q 928 4138 513 4856 
z
" transform="scale(0.015625)"/>
      </defs>
      <use xlink:href="#DejaVuSans-43"/>
      <use xlink:href="#DejaVuSans-43" transform="translate(69.824219 0)"/>
      <use xlink:href="#DejaVuSans-43" transform="translate(139.648438 0)"/>
      <use xlink:href="#DejaVuSans-47" transform="translate(209.472656 0)"/>
      <use xlink:href="#DejaVuSans-41" transform="translate(286.962891 0)"/>
      <use xlink:href="#DejaVuSans-47" transform="translate(353.621094 0)"/>
      <use xlink:href="#DejaVuSans-41" transform="translate(431.111328 0)"/>
      <use xlink:href="#DejaVuSans-43" transform="translate(497.769531 0)"/>
      <use xlink:href="#DejaVuSans-54" transform="translate(567.59375 0)"/>
      <use xlink:href="#DejaVuSans-41" transform="translate(620.927734 0)"/>
      <use xlink:href="#DejaVuSans-41" transform="translate(692.085938 0)"/>
      <use xlink:href="#DejaVuSans-20" transform="translate(760.494141 0)"/>
      <use xlink:href="#DejaVuSans-28" transform="translate(792.28125 0)"/>
      <use xlink:href="#DejaVuSans-35" transform="translate(831.294922 0)"/>
      <use xlink:href="#DejaVuSans-27" transform="translate(894.917969 0)"/>
      <use xlink:href="#DejaVuSans-20" transform="translate(922.408203 0)"/>
      <use xlink:href="#DejaVuSans-65" transform="translate(954.195312 0)"/>
      <use xlink:href="#DejaVuSans-6e" transform="translate(1015.71875 0)"/>
      <use xlink:href="#DejaVuSans-64" transform="translate(1079.097656 0)"/>
      <use xlink:href="#DejaVuSans-29" transform="translate(1142.574219 0)"/>
     </g>
    </g>
    <g id="line2d_35">
     <path d="M 410.765625 49.654687 
L 420.765625 49.654687 
L 430.765625 49.654687 
" style="fill: none; stroke: #6495ed; stroke-width: 2; stroke-linecap: square"/>
    </g>
    <g id="text_20">
     <!-- TTCCCAA (5' end) -->
     <g transform="translate(438.765625 53.154687) scale(0.1 -0.1)">
      <use xlink:href="#DejaVuSans-54"/>
      <use xlink:href="#DejaVuSans-54" transform="translate(59.333984 0)"/>
      <use xlink:href="#DejaVuSans-43" transform="translate(114.542969 0)"/>
      <use xlink:href="#DejaVuSans-43" transform="translate(184.367188 0)"/>
      <use xlink:href="#DejaVuSans-43" transform="translate(254.191406 0)"/>
      <use xlink:href="#DejaVuSans-41" transform="translate(324.015625 0)"/>
      <use xlink:href="#DejaVuSans-41" transform="translate(395.173828 0)"/>
      <use xlink:href="#DejaVuSans-20" transform="translate(463.582031 0)"/>
      <use xlink:href="#DejaVuSans-28" transform="translate(495.369141 0)"/>
      <use xlink:href="#DejaVuSans-35" transform="translate(534.382812 0)"/>
      <use xlink:href="#DejaVuSans-27" transform="translate(598.005859 0)"/>
      <use xlink:href="#DejaVuSans-20" transform="translate(625.496094 0)"/>
      <use xlink:href="#DejaVuSans-65" transform="translate(657.283203 0)"/>
      <use xlink:href="#DejaVuSans-6e" transform="translate(718.806641 0)"/>
      <use xlink:href="#DejaVuSans-64" transform="translate(782.185547 0)"/>
      <use xlink:href="#DejaVuSans-29" transform="translate(845.662109 0)"/>
     </g>
    </g>
    <g id="line2d_36">
     <path d="M 410.765625 64.332812 
L 420.765625 64.332812 
L 430.765625 64.332812 
" style="fill: none; stroke: #00008b; stroke-width: 2; stroke-linecap: square"/>
    </g>
    <g id="text_21">
     <!-- CCCAAGACTAA (5' end) -->
     <g transform="translate(438.765625 67.832812) scale(0.1 -0.1)">
      <use xlink:href="#DejaVuSans-43"/>
      <use xlink:href="#DejaVuSans-43" transform="translate(69.824219 0)"/>
      <use xlink:href="#DejaVuSans-43" transform="translate(139.648438 0)"/>
      <use xlink:href="#DejaVuSans-41" transform="translate(209.472656 0)"/>
      <use xlink:href="#DejaVuSans-41" transform="translate(280.630859 0)"/>
      <use xlink:href="#DejaVuSans-47" transform="translate(347.289062 0)"/>
      <use xlink:href="#DejaVuSans-41" transform="translate(424.779297 0)"/>
      <use xlink:href="#DejaVuSans-43" transform="translate(491.4375 0)"/>
      <use xlink:href="#DejaVuSans-54" transform="translate(561.261719 0)"/>
      <use xlink:href="#DejaVuSans-41" transform="translate(614.595703 0)"/>
      <use xlink:href="#DejaVuSans-41" transform="translate(685.753906 0)"/>
      <use xlink:href="#DejaVuSans-20" transform="translate(754.162109 0)"/>
      <use xlink:href="#DejaVuSans-28" transform="translate(785.949219 0)"/>
      <use xlink:href="#DejaVuSans-35" transform="translate(824.962891 0)"/>
      <use xlink:href="#DejaVuSans-27" transform="translate(888.585938 0)"/>
      <use xlink:href="#DejaVuSans-20" transform="translate(916.076172 0)"/>
      <use xlink:href="#DejaVuSans-65" transform="translate(947.863281 0)"/>
      <use xlink:href="#DejaVuSans-6e" transform="translate(1009.386719 0)"/>
      <use xlink:href="#DejaVuSans-64" transform="translate(1072.765625 0)"/>
      <use xlink:href="#DejaVuSans-29" transform="translate(1136.242188 0)"/>
     </g>
    </g>
   </g>
  </g>
 </g>
 <defs>
  <clipPath id="p349713a650">
   <rect x="46.965625" y="7.2" width="354.8" height="379.24"/>
  </clipPath>
 </defs>
</svg>
