<?xml version="1.0" encoding="utf-8" standalone="no"?>
<!DOCTYPE svg PUBLIC "-//W3C//DTD SVG 1.1//EN"
  "http://www.w3.org/Graphics/SVG/1.1/DTD/svg11.dtd">
<svg xmlns:xlink="http://www.w3.org/1999/xlink" width="712.123438pt" height="496.474375pt" viewBox="0 0 712.123438 496.474375" xmlns="http://www.w3.org/2000/svg" version="1.1">
 <metadata>
  <rdf:RDF xmlns:dc="http://purl.org/dc/elements/1.1/" xmlns:cc="http://creativecommons.org/ns#" xmlns:rdf="http://www.w3.org/1999/02/22-rdf-syntax-ns#">
   <cc:Work>
    <dc:type rdf:resource="http://purl.org/dc/dcmitype/StillImage"/>
    <dc:date>2026-03-20T12:45:51.168358</dc:date>
    <dc:format>image/svg+xml</dc:format>
    <dc:creator>
     <cc:Agent>
      <dc:title>Matplotlib v3.10.6, https://matplotlib.org/</dc:title>
     </cc:Agent>
    </dc:creator>
   </cc:Work>
  </rdf:RDF>
 </metadata>
 <defs>
  <style type="text/css">*{stroke-linejoin: round; stroke-linecap: butt}</style>
 </defs>
 <g id="figure_1">
  <g id="patch_1">
   <path d="M 0 496.474375 
L 712.123438 496.474375 
L 712.123438 0 
L 0 0 
z
" style="fill: #ffffff"/>
  </g>
  <g id="axes_1">
   <g id="patch_2">
    <path d="M 46.965625 458.918125 
L 545.765625 458.918125 
L 545.765625 22.318125 
L 46.965625 22.318125 
z
" style="fill: #ffffff"/>
   </g>
   <g id="matplotlib.axis_1">
    <g id="xtick_1">
     <g id="line2d_1">
      <path d="M 69.638352 458.918125 
L 69.638352 22.318125 
" clip-path="url(#p4be5373afb)" style="fill: none; stroke-dasharray: 2.96,1.28; stroke-dashoffset: 0; stroke: #b0b0b0; stroke-opacity: 0.6; stroke-width: 0.8"/>
     </g>
     <g id="line2d_2">
      <defs>
       <path id="m6ff62b1015" d="M 0 0 
L 0 3.5 
" style="stroke: #000000; stroke-width: 0.8"/>
      </defs>
      <g>
       <use xlink:href="#m6ff62b1015" x="69.638352" y="458.918125" style="stroke: #000000; stroke-width: 0.8"/>
      </g>
     </g>
     <g id="text_1">
      <!-- 0 -->
      <g transform="translate(66.457102 473.516563) scale(0.1 -0.1)">
       <defs>
        <path id="DejaVuSans-30" d="M 2034 4250 
Q 1547 4250 1301 3770 
Q 1056 3291 1056 2328 
Q 1056 1369 1301 889 
Q 1547 409 2034 409 
Q 2525 409 2770 889 
Q 3016 1369 3016 2328 
Q 3016 3291 2770 3770 
Q 2525 4250 2034 4250 
z
M 2034 4750 
Q 2819 4750 3233 4129 
Q 3647 3509 3647 2328 
Q 3647 1150 3233 529 
Q 2819 -91 2034 -91 
Q 1250 -91 836 529 
Q 422 1150 422 2328 
Q 422 3509 836 4129 
Q 1250 4750 2034 4750 
z
" transform="scale(0.015625)"/>
       </defs>
       <use xlink:href="#DejaVuSans-30"/>
      </g>
     </g>
    </g>
    <g id="xtick_2">
     <g id="line2d_3">
      <path d="M 145.220408 458.918125 
L 145.220408 22.318125 
" clip-path="url(#p4be5373afb)" style="fill: none; stroke-dasharray: 2.96,1.28; stroke-dashoffset: 0; stroke: #b0b0b0; stroke-opacity: 0.6; stroke-width: 0.8"/>
     </g>
     <g id="line2d_4">
      <g>
       <use xlink:href="#m6ff62b1015" x="145.220408" y="458.918125" style="stroke: #000000; stroke-width: 0.8"/>
      </g>
     </g>
     <g id="text_2">
      <!-- 2000 -->
      <g transform="translate(132.495408 473.516563) scale(0.1 -0.1)">
       <defs>
        <path id="DejaVuSans-32" d="M 1228 531 
L 3431 531 
L 3431 0 
L 469 0 
L 469 531 
Q 828 903 1448 1529 
Q 2069 2156 2228 2338 
Q 2531 2678 2651 2914 
Q 2772 3150 2772 3378 
Q 2772 3750 2511 3984 
Q 2250 4219 1831 4219 
Q 1534 4219 1204 4116 
Q 875 4013 500 3803 
L 500 4441 
Q 881 4594 1212 4672 
Q 1544 4750 1819 4750 
Q 2544 4750 2975 4387 
Q 3406 4025 3406 3419 
Q 3406 3131 3298 2873 
Q 3191 2616 2906 2266 
Q 2828 2175 2409 1742 
Q 1991 1309 1228 531 
z
" transform="scale(0.015625)"/>
       </defs>
       <use xlink:href="#DejaVuSans-32"/>
       <use xlink:href="#DejaVuSans-30" transform="translate(63.623047 0)"/>
       <use xlink:href="#DejaVuSans-30" transform="translate(127.246094 0)"/>
       <use xlink:href="#DejaVuSans-30" transform="translate(190.869141 0)"/>
      </g>
     </g>
    </g>
    <g id="xtick_3">
     <g id="line2d_5">
      <path d="M 220.802464 458.918125 
L 220.802464 22.318125 
" clip-path="url(#p4be5373afb)" style="fill: none; stroke-dasharray: 2.96,1.28; stroke-dashoffset: 0; stroke: #b0b0b0; stroke-opacity: 0.6; stroke-width: 0.8"/>
     </g>
     <g id="line2d_6">
      <g>
       <use xlink:href="#m6ff62b1015" x="220.802464" y="458.918125" style="stroke: #000000; stroke-width: 0.8"/>
      </g>
     </g>
     <g id="text_3">
      <!-- 4000 -->
      <g transform="translate(208.077464 473.516563) scale(0.1 -0.1)">
       <defs>
        <path id="DejaVuSans-34" d="M 2419 4116 
L 825 1625 
L 2419 1625 
L 2419 4116 
z
M 2253 4666 
L 3047 4666 
L 3047 1625 
L 3713 1625 
L 3713 1100 
L 3047 1100 
L 3047 0 
L 2419 0 
L 2419 1100 
L 313 1100 
L 313 1709 
L 2253 4666 
z
" transform="scale(0.015625)"/>
       </defs>
       <use xlink:href="#DejaVuSans-34"/>
       <use xlink:href="#DejaVuSans-30" transform="translate(63.623047 0)"/>
       <use xlink:href="#DejaVuSans-30" transform="translate(127.246094 0)"/>
       <use xlink:href="#DejaVuSans-30" transform="translate(190.869141 0)"/>
      </g>
     </g>
    </g>
    <g id="xtick_4">
     <g id="line2d_7">
      <path d="M 296.384521 458.918125 
L 296.384521 22.318125 
" clip-path="url(#p4be5373afb)" style="fill: none; stroke-dasharray: 2.96,1.28; stroke-dashoffset: 0; stroke: #b0b0b0; stroke-opacity: 0.6; stroke-width: 0.8"/>
     </g>
     <g id="line2d_8">
      <g>
       <use xlink:href="#m6ff62b1015" x="296.384521" y="458.918125" style="stroke: #000000; stroke-width: 0.8"/>
      </g>
     </g>
     <g id="text_4">
      <!-- 6000 -->
      <g transform="translate(283.659521 473.516563) scale(0.1 -0.1)">
       <defs>
        <path id="DejaVuSans-36" d="M 2113 2584 
Q 1688 2584 1439 2293 
Q 1191 2003 1191 1497 
Q 1191 994 1439 701 
Q 1688 409 2113 409 
Q 2538 409 2786 701 
Q 3034 994 3034 1497 
Q 3034 2003 2786 2293 
Q 2538 2584 2113 2584 
z
M 3366 4563 
L 3366 3988 
Q 3128 4100 2886 4159 
Q 2644 4219 2406 4219 
Q 1781 4219 1451 3797 
Q 1122 3375 1075 2522 
Q 1259 2794 1537 2939 
Q 1816 3084 2150 3084 
Q 2853 3084 3261 2657 
Q 3669 2231 3669 1497 
Q 3669 778 3244 343 
Q 2819 -91 2113 -91 
Q 1303 -91 875 529 
Q 447 1150 447 2328 
Q 447 3434 972 4092 
Q 1497 4750 2381 4750 
Q 2619 4750 2861 4703 
Q 3103 4656 3366 4563 
z
" transform="scale(0.015625)"/>
       </defs>
       <use xlink:href="#DejaVuSans-36"/>
       <use xlink:href="#DejaVuSans-30" transform="translate(63.623047 0)"/>
       <use xlink:href="#DejaVuSans-30" transform="translate(127.246094 0)"/>
       <use xlink:href="#DejaVuSans-30" transform="translate(190.869141 0)"/>
      </g>
     </g>
    </g>
    <g id="xtick_5">
     <g id="line2d_9">
      <path d="M 371.966577 458.918125 
L 371.966577 22.318125 
" clip-path="url(#p4be5373afb)" style="fill: none; stroke-dasharray: 2.96,1.28; stroke-dashoffset: 0; stroke: #b0b0b0; stroke-opacity: 0.6; stroke-width: 0.8"/>
     </g>
     <g id="line2d_10">
      <g>
       <use xlink:href="#m6ff62b1015" x="371.966577" y="458.918125" style="stroke: #000000; stroke-width: 0.8"/>
      </g>
     </g>
     <g id="text_5">
      <!-- 8000 -->
      <g transform="translate(359.241577 473.516563) scale(0.1 -0.1)">
       <defs>
        <path id="DejaVuSans-38" d="M 2034 2216 
Q 1584 2216 1326 1975 
Q 1069 1734 1069 1313 
Q 1069 891 1326 650 
Q 1584 409 2034 409 
Q 2484 409 2743 651 
Q 3003 894 3003 1313 
Q 3003 1734 2745 1975 
Q 2488 2216 2034 2216 
z
M 1403 2484 
Q 997 2584 770 2862 
Q 544 3141 544 3541 
Q 544 4100 942 4425 
Q 1341 4750 2034 4750 
Q 2731 4750 3128 4425 
Q 3525 4100 3525 3541 
Q 3525 3141 3298 2862 
Q 3072 2584 2669 2484 
Q 3125 2378 3379 2068 
Q 3634 1759 3634 1313 
Q 3634 634 3220 271 
Q 2806 -91 2034 -91 
Q 1263 -91 848 271 
Q 434 634 434 1313 
Q 434 1759 690 2068 
Q 947 2378 1403 2484 
z
M 1172 3481 
Q 1172 3119 1398 2916 
Q 1625 2713 2034 2713 
Q 2441 2713 2670 2916 
Q 2900 3119 2900 3481 
Q 2900 3844 2670 4047 
Q 2441 4250 2034 4250 
Q 1625 4250 1398 4047 
Q 1172 3844 1172 3481 
z
" transform="scale(0.015625)"/>
       </defs>
       <use xlink:href="#DejaVuSans-38"/>
       <use xlink:href="#DejaVuSans-30" transform="translate(63.623047 0)"/>
       <use xlink:href="#DejaVuSans-30" transform="translate(127.246094 0)"/>
       <use xlink:href="#DejaVuSans-30" transform="translate(190.869141 0)"/>
      </g>
     </g>
    </g>
    <g id="xtick_6">
     <g id="line2d_11">
      <path d="M 447.548633 458.918125 
L 447.548633 22.318125 
" clip-path="url(#p4be5373afb)" style="fill: none; stroke-dasharray: 2.96,1.28; stroke-dashoffset: 0; stroke: #b0b0b0; stroke-opacity: 0.6; stroke-width: 0.8"/>
     </g>
     <g id="line2d_12">
      <g>
       <use xlink:href="#m6ff62b1015" x="447.548633" y="458.918125" style="stroke: #000000; stroke-width: 0.8"/>
      </g>
     </g>
     <g id="text_6">
      <!-- 10000 -->
      <g transform="translate(431.642383 473.516563) scale(0.1 -0.1)">
       <defs>
        <path id="DejaVuSans-31" d="M 794 531 
L 1825 531 
L 1825 4091 
L 703 3866 
L 703 4441 
L 1819 4666 
L 2450 4666 
L 2450 531 
L 3481 531 
L 3481 0 
L 794 0 
L 794 531 
z
" transform="scale(0.015625)"/>
       </defs>
       <use xlink:href="#DejaVuSans-31"/>
       <use xlink:href="#DejaVuSans-30" transform="translate(63.623047 0)"/>
       <use xlink:href="#DejaVuSans-30" transform="translate(127.246094 0)"/>
       <use xlink:href="#DejaVuSans-30" transform="translate(190.869141 0)"/>
       <use xlink:href="#DejaVuSans-30" transform="translate(254.492188 0)"/>
      </g>
     </g>
    </g>
    <g id="xtick_7">
     <g id="line2d_13">
      <path d="M 523.130689 458.918125 
L 523.130689 22.318125 
" clip-path="url(#p4be5373afb)" style="fill: none; stroke-dasharray: 2.96,1.28; stroke-dashoffset: 0; stroke: #b0b0b0; stroke-opacity: 0.6; stroke-width: 0.8"/>
     </g>
     <g id="line2d_14">
      <g>
       <use xlink:href="#m6ff62b1015" x="523.130689" y="458.918125" style="stroke: #000000; stroke-width: 0.8"/>
      </g>
     </g>
     <g id="text_7">
      <!-- 12000 -->
      <g transform="translate(507.224439 473.516563) scale(0.1 -0.1)">
       <use xlink:href="#DejaVuSans-31"/>
       <use xlink:href="#DejaVuSans-32" transform="translate(63.623047 0)"/>
       <use xlink:href="#DejaVuSans-30" transform="translate(127.246094 0)"/>
       <use xlink:href="#DejaVuSans-30" transform="translate(190.869141 0)"/>
       <use xlink:href="#DejaVuSans-30" transform="translate(254.492188 0)"/>
      </g>
     </g>
    </g>
    <g id="text_8">
     <!-- Distance from Terminus [nt] -->
     <g transform="translate(226.622656 487.194687) scale(0.1 -0.1)">
      <defs>
       <path id="DejaVuSans-44" d="M 1259 4147 
L 1259 519 
L 2022 519 
Q 2988 519 3436 956 
Q 3884 1394 3884 2338 
Q 3884 3275 3436 3711 
Q 2988 4147 2022 4147 
L 1259 4147 
z
M 628 4666 
L 1925 4666 
Q 3281 4666 3915 4102 
Q 4550 3538 4550 2338 
Q 4550 1131 3912 565 
Q 3275 0 1925 0 
L 628 0 
L 628 4666 
z
" transform="scale(0.015625)"/>
       <path id="DejaVuSans-69" d="M 603 3500 
L 1178 3500 
L 1178 0 
L 603 0 
L 603 3500 
z
M 603 4863 
L 1178 4863 
L 1178 4134 
L 603 4134 
L 603 4863 
z
" transform="scale(0.015625)"/>
       <path id="DejaVuSans-73" d="M 2834 3397 
L 2834 2853 
Q 2591 2978 2328 3040 
Q 2066 3103 1784 3103 
Q 1356 3103 1142 2972 
Q 928 2841 928 2578 
Q 928 2378 1081 2264 
Q 1234 2150 1697 2047 
L 1894 2003 
Q 2506 1872 2764 1633 
Q 3022 1394 3022 966 
Q 3022 478 2636 193 
Q 2250 -91 1575 -91 
Q 1294 -91 989 -36 
Q 684 19 347 128 
L 347 722 
Q 666 556 975 473 
Q 1284 391 1588 391 
Q 1994 391 2212 530 
Q 2431 669 2431 922 
Q 2431 1156 2273 1281 
Q 2116 1406 1581 1522 
L 1381 1569 
Q 847 1681 609 1914 
Q 372 2147 372 2553 
Q 372 3047 722 3315 
Q 1072 3584 1716 3584 
Q 2034 3584 2315 3537 
Q 2597 3491 2834 3397 
z
" transform="scale(0.015625)"/>
       <path id="DejaVuSans-74" d="M 1172 4494 
L 1172 3500 
L 2356 3500 
L 2356 3053 
L 1172 3053 
L 1172 1153 
Q 1172 725 1289 603 
Q 1406 481 1766 481 
L 2356 481 
L 2356 0 
L 1766 0 
Q 1100 0 847 248 
Q 594 497 594 1153 
L 594 3053 
L 172 3053 
L 172 3500 
L 594 3500 
L 594 4494 
L 1172 4494 
z
" transform="scale(0.015625)"/>
       <path id="DejaVuSans-61" d="M 2194 1759 
Q 1497 1759 1228 1600 
Q 959 1441 959 1056 
Q 959 750 1161 570 
Q 1363 391 1709 391 
Q 2188 391 2477 730 
Q 2766 1069 2766 1631 
L 2766 1759 
L 2194 1759 
z
M 3341 1997 
L 3341 0 
L 2766 0 
L 2766 531 
Q 2569 213 2275 61 
Q 1981 -91 1556 -91 
Q 1019 -91 701 211 
Q 384 513 384 1019 
Q 384 1609 779 1909 
Q 1175 2209 1959 2209 
L 2766 2209 
L 2766 2266 
Q 2766 2663 2505 2880 
Q 2244 3097 1772 3097 
Q 1472 3097 1187 3025 
Q 903 2953 641 2809 
L 641 3341 
Q 956 3463 1253 3523 
Q 1550 3584 1831 3584 
Q 2591 3584 2966 3190 
Q 3341 2797 3341 1997 
z
" transform="scale(0.015625)"/>
       <path id="DejaVuSans-6e" d="M 3513 2113 
L 3513 0 
L 2938 0 
L 2938 2094 
Q 2938 2591 2744 2837 
Q 2550 3084 2163 3084 
Q 1697 3084 1428 2787 
Q 1159 2491 1159 1978 
L 1159 0 
L 581 0 
L 581 3500 
L 1159 3500 
L 1159 2956 
Q 1366 3272 1645 3428 
Q 1925 3584 2291 3584 
Q 2894 3584 3203 3211 
Q 3513 2838 3513 2113 
z
" transform="scale(0.015625)"/>
       <path id="DejaVuSans-63" d="M 3122 3366 
L 3122 2828 
Q 2878 2963 2633 3030 
Q 2388 3097 2138 3097 
Q 1578 3097 1268 2742 
Q 959 2388 959 1747 
Q 959 1106 1268 751 
Q 1578 397 2138 397 
Q 2388 397 2633 464 
Q 2878 531 3122 666 
L 3122 134 
Q 2881 22 2623 -34 
Q 2366 -91 2075 -91 
Q 1284 -91 818 406 
Q 353 903 353 1747 
Q 353 2603 823 3093 
Q 1294 3584 2113 3584 
Q 2378 3584 2631 3529 
Q 2884 3475 3122 3366 
z
" transform="scale(0.015625)"/>
       <path id="DejaVuSans-65" d="M 3597 1894 
L 3597 1613 
L 953 1613 
Q 991 1019 1311 708 
Q 1631 397 2203 397 
Q 2534 397 2845 478 
Q 3156 559 3463 722 
L 3463 178 
Q 3153 47 2828 -22 
Q 2503 -91 2169 -91 
Q 1331 -91 842 396 
Q 353 884 353 1716 
Q 353 2575 817 3079 
Q 1281 3584 2069 3584 
Q 2775 3584 3186 3129 
Q 3597 2675 3597 1894 
z
M 3022 2063 
Q 3016 2534 2758 2815 
Q 2500 3097 2075 3097 
Q 1594 3097 1305 2825 
Q 1016 2553 972 2059 
L 3022 2063 
z
" transform="scale(0.015625)"/>
       <path id="DejaVuSans-20" transform="scale(0.015625)"/>
       <path id="DejaVuSans-66" d="M 2375 4863 
L 2375 4384 
L 1825 4384 
Q 1516 4384 1395 4259 
Q 1275 4134 1275 3809 
L 1275 3500 
L 2222 3500 
L 2222 3053 
L 1275 3053 
L 1275 0 
L 697 0 
L 697 3053 
L 147 3053 
L 147 3500 
L 697 3500 
L 697 3744 
Q 697 4328 969 4595 
Q 1241 4863 1831 4863 
L 2375 4863 
z
" transform="scale(0.015625)"/>
       <path id="DejaVuSans-72" d="M 2631 2963 
Q 2534 3019 2420 3045 
Q 2306 3072 2169 3072 
Q 1681 3072 1420 2755 
Q 1159 2438 1159 1844 
L 1159 0 
L 581 0 
L 581 3500 
L 1159 3500 
L 1159 2956 
Q 1341 3275 1631 3429 
Q 1922 3584 2338 3584 
Q 2397 3584 2469 3576 
Q 2541 3569 2628 3553 
L 2631 2963 
z
" transform="scale(0.015625)"/>
       <path id="DejaVuSans-6f" d="M 1959 3097 
Q 1497 3097 1228 2736 
Q 959 2375 959 1747 
Q 959 1119 1226 758 
Q 1494 397 1959 397 
Q 2419 397 2687 759 
Q 2956 1122 2956 1747 
Q 2956 2369 2687 2733 
Q 2419 3097 1959 3097 
z
M 1959 3584 
Q 2709 3584 3137 3096 
Q 3566 2609 3566 1747 
Q 3566 888 3137 398 
Q 2709 -91 1959 -91 
Q 1206 -91 779 398 
Q 353 888 353 1747 
Q 353 2609 779 3096 
Q 1206 3584 1959 3584 
z
" transform="scale(0.015625)"/>
       <path id="DejaVuSans-6d" d="M 3328 2828 
Q 3544 3216 3844 3400 
Q 4144 3584 4550 3584 
Q 5097 3584 5394 3201 
Q 5691 2819 5691 2113 
L 5691 0 
L 5113 0 
L 5113 2094 
Q 5113 2597 4934 2840 
Q 4756 3084 4391 3084 
Q 3944 3084 3684 2787 
Q 3425 2491 3425 1978 
L 3425 0 
L 2847 0 
L 2847 2094 
Q 2847 2600 2669 2842 
Q 2491 3084 2119 3084 
Q 1678 3084 1418 2786 
Q 1159 2488 1159 1978 
L 1159 0 
L 581 0 
L 581 3500 
L 1159 3500 
L 1159 2956 
Q 1356 3278 1631 3431 
Q 1906 3584 2284 3584 
Q 2666 3584 2933 3390 
Q 3200 3197 3328 2828 
z
" transform="scale(0.015625)"/>
       <path id="DejaVuSans-54" d="M -19 4666 
L 3928 4666 
L 3928 4134 
L 2272 4134 
L 2272 0 
L 1638 0 
L 1638 4134 
L -19 4134 
L -19 4666 
z
" transform="scale(0.015625)"/>
       <path id="DejaVuSans-75" d="M 544 1381 
L 544 3500 
L 1119 3500 
L 1119 1403 
Q 1119 906 1312 657 
Q 1506 409 1894 409 
Q 2359 409 2629 706 
Q 2900 1003 2900 1516 
L 2900 3500 
L 3475 3500 
L 3475 0 
L 2900 0 
L 2900 538 
Q 2691 219 2414 64 
Q 2138 -91 1772 -91 
Q 1169 -91 856 284 
Q 544 659 544 1381 
z
M 1991 3584 
L 1991 3584 
z
" transform="scale(0.015625)"/>
       <path id="DejaVuSans-5b" d="M 550 4863 
L 1875 4863 
L 1875 4416 
L 1125 4416 
L 1125 -397 
L 1875 -397 
L 1875 -844 
L 550 -844 
L 550 4863 
z
" transform="scale(0.015625)"/>
       <path id="DejaVuSans-5d" d="M 1947 4863 
L 1947 -844 
L 622 -844 
L 622 -397 
L 1369 -397 
L 1369 4416 
L 622 4416 
L 622 4863 
L 1947 4863 
z
" transform="scale(0.015625)"/>
      </defs>
      <use xlink:href="#DejaVuSans-44"/>
      <use xlink:href="#DejaVuSans-69" transform="translate(77.001953 0)"/>
      <use xlink:href="#DejaVuSans-73" transform="translate(104.785156 0)"/>
      <use xlink:href="#DejaVuSans-74" transform="translate(156.884766 0)"/>
      <use xlink:href="#DejaVuSans-61" transform="translate(196.09375 0)"/>
      <use xlink:href="#DejaVuSans-6e" transform="translate(257.373047 0)"/>
      <use xlink:href="#DejaVuSans-63" transform="translate(320.751953 0)"/>
      <use xlink:href="#DejaVuSans-65" transform="translate(375.732422 0)"/>
      <use xlink:href="#DejaVuSans-20" transform="translate(437.255859 0)"/>
      <use xlink:href="#DejaVuSans-66" transform="translate(469.042969 0)"/>
      <use xlink:href="#DejaVuSans-72" transform="translate(504.248047 0)"/>
      <use xlink:href="#DejaVuSans-6f" transform="translate(543.111328 0)"/>
      <use xlink:href="#DejaVuSans-6d" transform="translate(604.292969 0)"/>
      <use xlink:href="#DejaVuSans-20" transform="translate(701.705078 0)"/>
      <use xlink:href="#DejaVuSans-54" transform="translate(733.492188 0)"/>
      <use xlink:href="#DejaVuSans-65" transform="translate(777.576172 0)"/>
      <use xlink:href="#DejaVuSans-72" transform="translate(839.099609 0)"/>
      <use xlink:href="#DejaVuSans-6d" transform="translate(878.462891 0)"/>
      <use xlink:href="#DejaVuSans-69" transform="translate(975.875 0)"/>
      <use xlink:href="#DejaVuSans-6e" transform="translate(1003.658203 0)"/>
      <use xlink:href="#DejaVuSans-75" transform="translate(1067.037109 0)"/>
      <use xlink:href="#DejaVuSans-73" transform="translate(1130.416016 0)"/>
      <use xlink:href="#DejaVuSans-20" transform="translate(1182.515625 0)"/>
      <use xlink:href="#DejaVuSans-5b" transform="translate(1214.302734 0)"/>
      <use xlink:href="#DejaVuSans-6e" transform="translate(1253.316406 0)"/>
      <use xlink:href="#DejaVuSans-74" transform="translate(1316.695312 0)"/>
      <use xlink:href="#DejaVuSans-5d" transform="translate(1355.904297 0)"/>
     </g>
    </g>
   </g>
   <g id="matplotlib.axis_2">
    <g id="ytick_1">
     <g id="line2d_15">
      <path d="M 46.965625 439.07267 
L 545.765625 439.07267 
" clip-path="url(#p4be5373afb)" style="fill: none; stroke-dasharray: 2.96,1.28; stroke-dashoffset: 0; stroke: #b0b0b0; stroke-opacity: 0.6; stroke-width: 0.8"/>
     </g>
     <g id="line2d_16">
      <defs>
       <path id="m2413bfc23e" d="M 0 0 
L -3.5 0 
" style="stroke: #000000; stroke-width: 0.8"/>
      </defs>
      <g>
       <use xlink:href="#m2413bfc23e" x="46.965625" y="439.07267" style="stroke: #000000; stroke-width: 0.8"/>
      </g>
     </g>
     <g id="text_9">
      <!-- 0 -->
      <g transform="translate(33.603125 442.871889) scale(0.1 -0.1)">
       <use xlink:href="#DejaVuSans-30"/>
      </g>
     </g>
    </g>
    <g id="ytick_2">
     <g id="line2d_17">
      <path d="M 46.965625 363.374815 
L 545.765625 363.374815 
" clip-path="url(#p4be5373afb)" style="fill: none; stroke-dasharray: 2.96,1.28; stroke-dashoffset: 0; stroke: #b0b0b0; stroke-opacity: 0.6; stroke-width: 0.8"/>
     </g>
     <g id="line2d_18">
      <g>
       <use xlink:href="#m2413bfc23e" x="46.965625" y="363.374815" style="stroke: #000000; stroke-width: 0.8"/>
      </g>
     </g>
     <g id="text_10">
      <!-- 50 -->
      <g transform="translate(27.240625 367.174033) scale(0.1 -0.1)">
       <defs>
        <path id="DejaVuSans-35" d="M 691 4666 
L 3169 4666 
L 3169 4134 
L 1269 4134 
L 1269 2991 
Q 1406 3038 1543 3061 
Q 1681 3084 1819 3084 
Q 2600 3084 3056 2656 
Q 3513 2228 3513 1497 
Q 3513 744 3044 326 
Q 2575 -91 1722 -91 
Q 1428 -91 1123 -41 
Q 819 9 494 109 
L 494 744 
Q 775 591 1075 516 
Q 1375 441 1709 441 
Q 2250 441 2565 725 
Q 2881 1009 2881 1497 
Q 2881 1984 2565 2268 
Q 2250 2553 1709 2553 
Q 1456 2553 1204 2497 
Q 953 2441 691 2322 
L 691 4666 
z
" transform="scale(0.015625)"/>
       </defs>
       <use xlink:href="#DejaVuSans-35"/>
       <use xlink:href="#DejaVuSans-30" transform="translate(63.623047 0)"/>
      </g>
     </g>
    </g>
    <g id="ytick_3">
     <g id="line2d_19">
      <path d="M 46.965625 287.676959 
L 545.765625 287.676959 
" clip-path="url(#p4be5373afb)" style="fill: none; stroke-dasharray: 2.96,1.28; stroke-dashoffset: 0; stroke: #b0b0b0; stroke-opacity: 0.6; stroke-width: 0.8"/>
     </g>
     <g id="line2d_20">
      <g>
       <use xlink:href="#m2413bfc23e" x="46.965625" y="287.676959" style="stroke: #000000; stroke-width: 0.8"/>
      </g>
     </g>
     <g id="text_11">
      <!-- 100 -->
      <g transform="translate(20.878125 291.476177) scale(0.1 -0.1)">
       <use xlink:href="#DejaVuSans-31"/>
       <use xlink:href="#DejaVuSans-30" transform="translate(63.623047 0)"/>
       <use xlink:href="#DejaVuSans-30" transform="translate(127.246094 0)"/>
      </g>
     </g>
    </g>
    <g id="ytick_4">
     <g id="line2d_21">
      <path d="M 46.965625 211.979103 
L 545.765625 211.979103 
" clip-path="url(#p4be5373afb)" style="fill: none; stroke-dasharray: 2.96,1.28; stroke-dashoffset: 0; stroke: #b0b0b0; stroke-opacity: 0.6; stroke-width: 0.8"/>
     </g>
     <g id="line2d_22">
      <g>
       <use xlink:href="#m2413bfc23e" x="46.965625" y="211.979103" style="stroke: #000000; stroke-width: 0.8"/>
      </g>
     </g>
     <g id="text_12">
      <!-- 150 -->
      <g transform="translate(20.878125 215.778322) scale(0.1 -0.1)">
       <use xlink:href="#DejaVuSans-31"/>
       <use xlink:href="#DejaVuSans-35" transform="translate(63.623047 0)"/>
       <use xlink:href="#DejaVuSans-30" transform="translate(127.246094 0)"/>
      </g>
     </g>
    </g>
    <g id="ytick_5">
     <g id="line2d_23">
      <path d="M 46.965625 136.281247 
L 545.765625 136.281247 
" clip-path="url(#p4be5373afb)" style="fill: none; stroke-dasharray: 2.96,1.28; stroke-dashoffset: 0; stroke: #b0b0b0; stroke-opacity: 0.6; stroke-width: 0.8"/>
     </g>
     <g id="line2d_24">
      <g>
       <use xlink:href="#m2413bfc23e" x="46.965625" y="136.281247" style="stroke: #000000; stroke-width: 0.8"/>
      </g>
     </g>
     <g id="text_13">
      <!-- 200 -->
      <g transform="translate(20.878125 140.080466) scale(0.1 -0.1)">
       <use xlink:href="#DejaVuSans-32"/>
       <use xlink:href="#DejaVuSans-30" transform="translate(63.623047 0)"/>
       <use xlink:href="#DejaVuSans-30" transform="translate(127.246094 0)"/>
      </g>
     </g>
    </g>
    <g id="ytick_6">
     <g id="line2d_25">
      <path d="M 46.965625 60.583391 
L 545.765625 60.583391 
" clip-path="url(#p4be5373afb)" style="fill: none; stroke-dasharray: 2.96,1.28; stroke-dashoffset: 0; stroke: #b0b0b0; stroke-opacity: 0.6; stroke-width: 0.8"/>
     </g>
     <g id="line2d_26">
      <g>
       <use xlink:href="#m2413bfc23e" x="46.965625" y="60.583391" style="stroke: #000000; stroke-width: 0.8"/>
      </g>
     </g>
     <g id="text_14">
      <!-- 250 -->
      <g transform="translate(20.878125 64.38261) scale(0.1 -0.1)">
       <use xlink:href="#DejaVuSans-32"/>
       <use xlink:href="#DejaVuSans-35" transform="translate(63.623047 0)"/>
       <use xlink:href="#DejaVuSans-30" transform="translate(127.246094 0)"/>
      </g>
     </g>
    </g>
    <g id="text_15">
     <!-- Average Cumulative Count -->
     <g transform="translate(14.798438 307.715) rotate(-90) scale(0.1 -0.1)">
      <defs>
       <path id="DejaVuSans-41" d="M 2188 4044 
L 1331 1722 
L 3047 1722 
L 2188 4044 
z
M 1831 4666 
L 2547 4666 
L 4325 0 
L 3669 0 
L 3244 1197 
L 1141 1197 
L 716 0 
L 50 0 
L 1831 4666 
z
" transform="scale(0.015625)"/>
       <path id="DejaVuSans-76" d="M 191 3500 
L 800 3500 
L 1894 563 
L 2988 3500 
L 3597 3500 
L 2284 0 
L 1503 0 
L 191 3500 
z
" transform="scale(0.015625)"/>
       <path id="DejaVuSans-67" d="M 2906 1791 
Q 2906 2416 2648 2759 
Q 2391 3103 1925 3103 
Q 1463 3103 1205 2759 
Q 947 2416 947 1791 
Q 947 1169 1205 825 
Q 1463 481 1925 481 
Q 2391 481 2648 825 
Q 2906 1169 2906 1791 
z
M 3481 434 
Q 3481 -459 3084 -895 
Q 2688 -1331 1869 -1331 
Q 1566 -1331 1297 -1286 
Q 1028 -1241 775 -1147 
L 775 -588 
Q 1028 -725 1275 -790 
Q 1522 -856 1778 -856 
Q 2344 -856 2625 -561 
Q 2906 -266 2906 331 
L 2906 616 
Q 2728 306 2450 153 
Q 2172 0 1784 0 
Q 1141 0 747 490 
Q 353 981 353 1791 
Q 353 2603 747 3093 
Q 1141 3584 1784 3584 
Q 2172 3584 2450 3431 
Q 2728 3278 2906 2969 
L 2906 3500 
L 3481 3500 
L 3481 434 
z
" transform="scale(0.015625)"/>
       <path id="DejaVuSans-43" d="M 4122 4306 
L 4122 3641 
Q 3803 3938 3442 4084 
Q 3081 4231 2675 4231 
Q 1875 4231 1450 3742 
Q 1025 3253 1025 2328 
Q 1025 1406 1450 917 
Q 1875 428 2675 428 
Q 3081 428 3442 575 
Q 3803 722 4122 1019 
L 4122 359 
Q 3791 134 3420 21 
Q 3050 -91 2638 -91 
Q 1578 -91 968 557 
Q 359 1206 359 2328 
Q 359 3453 968 4101 
Q 1578 4750 2638 4750 
Q 3056 4750 3426 4639 
Q 3797 4528 4122 4306 
z
" transform="scale(0.015625)"/>
       <path id="DejaVuSans-6c" d="M 603 4863 
L 1178 4863 
L 1178 0 
L 603 0 
L 603 4863 
z
" transform="scale(0.015625)"/>
      </defs>
      <use xlink:href="#DejaVuSans-41"/>
      <use xlink:href="#DejaVuSans-76" transform="translate(62.533203 0)"/>
      <use xlink:href="#DejaVuSans-65" transform="translate(121.712891 0)"/>
      <use xlink:href="#DejaVuSans-72" transform="translate(183.236328 0)"/>
      <use xlink:href="#DejaVuSans-61" transform="translate(224.349609 0)"/>
      <use xlink:href="#DejaVuSans-67" transform="translate(285.628906 0)"/>
      <use xlink:href="#DejaVuSans-65" transform="translate(349.105469 0)"/>
      <use xlink:href="#DejaVuSans-20" transform="translate(410.628906 0)"/>
      <use xlink:href="#DejaVuSans-43" transform="translate(442.416016 0)"/>
      <use xlink:href="#DejaVuSans-75" transform="translate(512.240234 0)"/>
      <use xlink:href="#DejaVuSans-6d" transform="translate(575.619141 0)"/>
      <use xlink:href="#DejaVuSans-75" transform="translate(673.03125 0)"/>
      <use xlink:href="#DejaVuSans-6c" transform="translate(736.410156 0)"/>
      <use xlink:href="#DejaVuSans-61" transform="translate(764.193359 0)"/>
      <use xlink:href="#DejaVuSans-74" transform="translate(825.472656 0)"/>
      <use xlink:href="#DejaVuSans-69" transform="translate(864.681641 0)"/>
      <use xlink:href="#DejaVuSans-76" transform="translate(892.464844 0)"/>
      <use xlink:href="#DejaVuSans-65" transform="translate(951.644531 0)"/>
      <use xlink:href="#DejaVuSans-20" transform="translate(1013.167969 0)"/>
      <use xlink:href="#DejaVuSans-43" transform="translate(1044.955078 0)"/>
      <use xlink:href="#DejaVuSans-6f" transform="translate(1114.779297 0)"/>
      <use xlink:href="#DejaVuSans-75" transform="translate(1175.960938 0)"/>
      <use xlink:href="#DejaVuSans-6e" transform="translate(1239.339844 0)"/>
      <use xlink:href="#DejaVuSans-74" transform="translate(1302.71875 0)"/>
     </g>
    </g>
   </g>
   <g id="line2d_27">
    <path d="M 69.638352 439.07267 
L 95.903117 439.07267 
L 96.01649 438.820344 
L 133.051697 438.820344 
L 133.16507 438.568018 
L 146.089602 438.568018 
L 146.202975 438.315692 
L 146.883214 438.315692 
L 146.996587 438.063366 
L 155.764105 438.063366 
L 155.877478 437.81104 
L 523.092898 437.81104 
L 523.092898 437.81104 
" clip-path="url(#p4be5373afb)" style="fill: none; stroke: #006ba4; stroke-width: 2; stroke-linecap: square"/>
   </g>
   <g id="line2d_28">
    <path d="M 69.638352 439.07267 
L 404.655816 439.07267 
L 404.769189 438.820344 
L 421.888525 438.820344 
L 422.001898 438.568018 
L 426.234493 438.568018 
L 426.347866 438.315692 
L 433.452579 438.315692 
L 433.565952 438.063366 
L 434.850847 438.063366 
L 434.96422 437.81104 
L 437.231682 437.81104 
L 437.345055 437.558713 
L 441.917769 437.558713 
L 442.031143 437.306387 
L 447.737588 437.306387 
L 447.850961 437.054061 
L 450.723079 437.054061 
L 450.836452 436.801735 
L 454.464391 436.801735 
L 454.577764 436.549409 
L 455.106838 436.549409 
L 455.220211 436.297082 
L 455.635913 436.297082 
L 455.749286 436.044756 
L 458.810359 436.044756 
L 458.923732 435.79243 
L 459.150478 435.79243 
L 459.263851 435.540104 
L 463.496447 435.540104 
L 463.60982 435.287778 
L 463.760984 435.287778 
L 463.874357 435.035451 
L 465.726117 435.035451 
L 465.83949 434.783125 
L 467.426713 434.783125 
L 467.540087 434.530799 
L 472.112801 434.530799 
L 472.226174 434.278473 
L 472.868621 434.278473 
L 472.981995 434.026147 
L 476.647724 434.026147 
L 476.761097 433.773821 
L 477.21459 433.773821 
L 477.327963 433.521494 
L 480.313454 433.521494 
L 480.426827 433.269168 
L 483.034408 433.269168 
L 483.147781 433.016842 
L 484.999541 433.016842 
L 485.112915 432.764516 
L 486.473392 432.764516 
L 486.586765 432.51219 
L 487.380376 432.51219 
L 487.493749 432.259863 
L 495.089746 432.259863 
L 495.203119 432.007537 
L 495.996731 432.007537 
L 496.110104 431.755211 
L 498.717685 431.755211 
L 498.831058 431.502885 
L 499.435714 431.502885 
L 499.549087 431.250559 
L 508.921262 431.250559 
L 509.034635 430.998232 
L 512.322455 430.998232 
L 512.435828 430.745906 
L 515.345737 430.745906 
L 515.45911 430.49358 
L 516.668423 430.49358 
L 516.781796 430.241254 
L 519.049258 430.241254 
L 519.162631 429.988928 
L 523.092898 429.988928 
L 523.092898 429.988928 
" clip-path="url(#p4be5373afb)" style="fill: none; stroke: #ff800e; stroke-width: 2; stroke-linecap: square"/>
   </g>
   <g id="line2d_29">
    <path d="M 69.638352 438.820344 
L 69.789516 438.063366 
L 70.054054 438.063366 
L 70.205218 437.558713 
L 70.2808 437.558713 
L 70.394173 437.306387 
L 70.431964 437.306387 
L 70.65871 436.297082 
L 70.772083 436.297082 
L 70.923247 435.79243 
L 70.961038 435.79243 
L 71.112202 435.287778 
L 71.225575 435.287778 
L 71.338949 435.035451 
L 71.37674 435.035451 
L 71.490113 434.783125 
L 71.679068 434.783125 
L 71.868023 434.026147 
L 71.981396 434.026147 
L 72.13256 433.521494 
L 72.208142 433.521494 
L 72.321515 433.269168 
L 72.51047 433.269168 
L 72.623843 433.016842 
L 72.926172 433.016842 
L 73.077336 432.51219 
L 73.341873 432.51219 
L 73.530828 431.755211 
L 73.757574 431.755211 
L 73.98432 430.745906 
L 74.173276 430.745906 
L 74.400022 429.736602 
L 74.588977 429.736602 
L 74.740141 429.231949 
L 75.004678 429.231949 
L 75.231424 428.222644 
L 75.42038 428.222644 
L 75.684917 426.961014 
L 75.836081 426.961014 
L 76.025036 426.204035 
L 76.251782 426.204035 
L 76.440737 424.942404 
L 76.516319 424.942404 
L 76.629692 424.690078 
L 76.667483 424.690078 
L 76.856439 423.933099 
L 77.045394 423.933099 
L 77.27214 422.923795 
L 77.461095 422.923795 
L 77.687841 421.91449 
L 77.876796 421.91449 
L 78.103543 420.905185 
L 78.292498 420.905185 
L 78.481453 420.148206 
L 78.708199 420.148206 
L 78.972736 418.886576 
L 79.1239 418.886576 
L 79.312855 418.129597 
L 79.350646 418.129597 
L 79.46402 417.624945 
L 79.539602 417.624945 
L 79.652975 417.120292 
L 79.690766 417.120292 
L 79.84193 416.61564 
L 79.955303 416.61564 
L 80.068676 415.858661 
L 80.106467 415.858661 
L 80.257631 415.354009 
L 80.371004 415.354009 
L 80.484377 414.59703 
L 80.522168 414.59703 
L 80.711123 413.840052 
L 80.786706 413.840052 
L 80.900079 413.083073 
L 80.93787 413.083073 
L 81.126825 412.326095 
L 81.202407 412.326095 
L 81.31578 411.569116 
L 81.353571 411.569116 
L 81.504735 411.064464 
L 81.618108 411.064464 
L 81.731481 410.307485 
L 81.769272 410.307485 
L 81.958227 409.550507 
L 82.033809 409.550507 
L 82.147183 408.793528 
L 82.184974 408.793528 
L 82.373929 408.03655 
L 82.449511 408.03655 
L 82.562884 407.279571 
L 82.600675 407.279571 
L 82.751839 406.774919 
L 82.865212 406.774919 
L 82.978585 406.01794 
L 83.016376 406.01794 
L 83.205331 405.260962 
L 83.280913 405.260962 
L 83.394286 404.503983 
L 83.432078 404.503983 
L 83.621033 403.747004 
L 83.696615 403.747004 
L 83.809988 402.990026 
L 83.847779 402.990026 
L 84.036734 402.233047 
L 84.112316 402.233047 
L 84.225689 401.728395 
L 84.26348 401.728395 
L 84.414644 401.223743 
L 84.490226 401.223743 
L 84.716972 400.214438 
L 84.754763 400.214438 
L 85.019301 398.952807 
L 85.094883 398.952807 
L 85.283838 398.195828 
L 85.321629 398.195828 
L 85.548375 397.186524 
L 85.623957 397.186524 
L 85.850703 396.177219 
L 85.926285 396.177219 
L 86.11524 395.42024 
L 86.153032 395.42024 
L 86.379778 394.410935 
L 86.45536 394.410935 
L 86.644315 393.149305 
L 86.757688 393.149305 
L 86.946643 392.392326 
L 86.984434 392.392326 
L 87.21118 391.383021 
L 87.286762 391.383021 
L 87.475718 390.12139 
L 87.589091 390.12139 
L 87.778046 389.364412 
L 87.815837 389.364412 
L 88.042583 388.355107 
L 88.118165 388.355107 
L 88.30712 387.093476 
L 88.420493 387.093476 
L 88.609448 386.336498 
L 88.647239 386.336498 
L 88.873986 385.327193 
L 88.949568 385.327193 
L 89.138523 384.065562 
L 89.251896 384.065562 
L 89.440851 383.308583 
L 89.478642 383.308583 
L 89.705388 382.299279 
L 89.78097 382.299279 
L 89.969925 381.037648 
L 90.083298 381.037648 
L 90.272254 380.280669 
L 90.310045 380.280669 
L 90.536791 379.271364 
L 90.612373 379.271364 
L 90.801328 378.009733 
L 90.914701 378.009733 
L 91.103656 377.252755 
L 91.141447 377.252755 
L 91.368193 376.24345 
L 91.443775 376.24345 
L 91.632731 374.981819 
L 91.746104 374.981819 
L 91.935059 374.224841 
L 91.97285 374.224841 
L 92.199596 373.215536 
L 92.275178 373.215536 
L 92.464133 371.953905 
L 92.577506 371.953905 
L 92.766461 371.196926 
L 92.804252 371.196926 
L 92.955417 370.692274 
L 92.993208 370.692274 
L 93.295536 369.178317 
L 93.408909 369.178317 
L 93.635655 368.169012 
L 93.673446 368.169012 
L 93.786819 367.66436 
L 93.82461 367.66436 
L 94.051356 366.655055 
L 94.089147 366.655055 
L 94.20252 366.150403 
L 94.240312 366.150403 
L 94.467058 365.141098 
L 94.504849 365.141098 
L 94.618222 364.636446 
L 94.656013 364.636446 
L 94.882759 363.627141 
L 94.92055 363.627141 
L 95.033923 363.122488 
L 95.071714 363.122488 
L 95.29846 362.113184 
L 95.336251 362.113184 
L 95.449624 361.608531 
L 95.600789 361.608531 
L 95.751953 360.851553 
L 95.903117 360.3469 
L 96.01649 360.3469 
L 96.167654 359.589922 
L 96.356609 358.832943 
L 96.432191 358.832943 
L 96.583355 358.075965 
L 96.77231 357.318986 
L 96.847892 357.318986 
L 96.999057 356.562008 
L 97.188012 355.805029 
L 97.263594 355.805029 
L 97.414758 355.04805 
L 97.603713 354.291072 
L 97.679295 354.291072 
L 97.830459 353.534093 
L 98.019414 352.777115 
L 98.094996 352.777115 
L 98.24616 352.020136 
L 98.435116 351.263158 
L 98.510698 351.263158 
L 98.661862 350.506179 
L 98.850817 349.749201 
L 98.926399 349.749201 
L 99.153145 348.739896 
L 99.228727 348.739896 
L 99.455473 347.730591 
L 99.493264 347.730591 
L 99.68222 346.973612 
L 99.757802 346.973612 
L 100.022339 345.711982 
L 100.06013 345.711982 
L 100.286876 344.702677 
L 100.324667 344.702677 
L 100.513622 343.945698 
L 100.589204 343.945698 
L 100.853741 342.684067 
L 100.891532 342.684067 
L 101.118279 341.674763 
L 101.15607 341.674763 
L 101.345025 340.917784 
L 101.420607 340.917784 
L 101.685144 339.656153 
L 101.722935 339.656153 
L 101.949681 338.646848 
L 101.987472 338.646848 
L 102.138636 338.142196 
L 102.252009 338.142196 
L 102.554338 336.628239 
L 102.667711 336.628239 
L 102.970039 335.114282 
L 103.083412 335.114282 
L 103.38574 333.600325 
L 103.499113 333.600325 
L 103.763651 332.338694 
L 103.914815 332.338694 
L 104.217143 330.824737 
L 104.330516 330.824737 
L 104.632844 329.310779 
L 104.746217 329.310779 
L 105.048546 327.796822 
L 105.161919 327.796822 
L 105.464247 326.282865 
L 105.615411 326.282865 
L 105.766575 325.27356 
L 105.804366 325.27356 
L 105.917739 324.768908 
L 106.031112 324.768908 
L 106.182276 323.759603 
L 106.220067 323.759603 
L 106.33344 323.254951 
L 106.446814 323.254951 
L 106.597978 322.245646 
L 106.635769 322.245646 
L 106.749142 321.99332 
L 106.862515 321.99332 
L 107.127052 320.731689 
L 107.278216 320.731689 
L 107.580544 319.217732 
L 107.693918 319.217732 
L 107.996246 317.703775 
L 108.109619 317.703775 
L 108.374156 316.442144 
L 108.52532 316.442144 
L 108.827648 314.928187 
L 108.978812 314.928187 
L 109.205559 313.918882 
L 109.394514 313.918882 
L 109.659051 312.657251 
L 109.810215 312.657251 
L 110.112543 311.143294 
L 110.225916 311.143294 
L 110.528245 309.629337 
L 110.641618 309.629337 
L 110.943946 308.11538 
L 111.057319 308.11538 
L 111.359647 306.601423 
L 111.47302 306.601423 
L 111.775349 305.087466 
L 111.926513 305.087466 
L 112.039886 304.078161 
L 112.115468 304.078161 
L 112.228841 303.825835 
L 112.342214 303.825835 
L 112.455587 302.564204 
L 112.531169 302.564204 
L 112.644542 302.311878 
L 112.757915 302.311878 
L 112.871288 301.302573 
L 112.94687 301.302573 
L 113.060243 301.050247 
L 113.135826 301.050247 
L 113.173617 300.79792 
L 113.28699 299.788616 
L 113.362572 299.788616 
L 113.475945 299.536289 
L 113.589318 299.536289 
L 113.702691 298.526985 
L 113.778273 298.526985 
L 113.891646 298.274659 
L 113.929437 298.274659 
L 114.231765 296.760701 
L 114.345138 296.760701 
L 114.647467 295.246744 
L 114.76084 295.246744 
L 115.063168 293.732787 
L 115.252123 293.732787 
L 115.365496 292.975809 
L 115.441078 292.975809 
L 115.592242 292.471156 
L 115.667824 292.471156 
L 115.781198 291.966504 
L 115.85678 291.966504 
L 116.007944 291.461852 
L 116.083526 291.461852 
L 116.196899 290.704873 
L 116.272481 290.704873 
L 116.461436 289.947894 
L 116.499227 289.947894 
L 116.6126 289.190916 
L 116.688182 289.190916 
L 116.877137 288.433937 
L 116.914928 288.433937 
L 117.028301 287.676959 
L 117.103883 287.676959 
L 117.292839 286.91998 
L 117.33063 286.91998 
L 117.444003 286.163002 
L 117.519585 286.163002 
L 117.632958 285.910675 
L 117.746331 285.910675 
L 117.859704 285.153697 
L 117.935286 285.153697 
L 118.08645 284.649044 
L 118.162032 284.649044 
L 118.275405 283.63974 
L 118.350987 283.63974 
L 118.502152 283.135087 
L 118.577734 283.135087 
L 118.691107 282.125783 
L 118.766689 282.125783 
L 118.917853 281.62113 
L 118.993435 281.62113 
L 119.106808 280.611826 
L 119.18239 280.611826 
L 119.295763 280.359499 
L 119.409136 280.359499 
L 119.522509 279.350195 
L 119.598091 279.350195 
L 119.749255 278.845542 
L 119.824838 278.845542 
L 119.976002 277.836237 
L 120.013793 277.836237 
L 120.164957 277.331585 
L 120.240539 277.331585 
L 120.391703 276.32228 
L 120.429494 276.32228 
L 120.542867 276.069954 
L 120.65624 276.069954 
L 120.807404 275.060649 
L 120.845195 275.060649 
L 120.958568 274.555997 
L 121.071941 274.555997 
L 121.223106 273.799018 
L 121.260897 273.799018 
L 121.37427 273.294366 
L 121.487643 273.294366 
L 121.638807 272.285061 
L 121.903344 272.285061 
L 122.092299 270.771104 
L 122.319045 270.771104 
L 122.470209 269.7618 
L 122.734747 269.7618 
L 122.923702 268.500169 
L 123.150448 268.500169 
L 123.301612 267.490864 
L 123.339403 267.490864 
L 123.452776 267.238538 
L 123.566149 267.238538 
L 123.755104 265.976907 
L 123.868478 265.724581 
L 123.981851 265.724581 
L 124.170806 264.46295 
L 124.284179 264.210623 
L 124.397552 264.210623 
L 124.662089 262.948992 
L 124.851044 262.948992 
L 125.115581 261.687362 
L 125.191163 261.687362 
L 125.455701 260.425731 
L 125.606865 260.425731 
L 125.871402 259.1641 
L 125.946984 259.1641 
L 126.249312 257.650143 
L 126.362685 257.650143 
L 126.665014 256.136185 
L 126.853969 256.136185 
L 127.118506 254.874555 
L 127.26967 254.874555 
L 127.534207 253.612924 
L 127.609789 253.612924 
L 127.912118 252.098966 
L 128.025491 252.098966 
L 128.327819 250.585009 
L 128.441192 250.585009 
L 128.705729 249.323378 
L 128.932475 249.323378 
L 129.197012 248.061747 
L 129.234803 248.061747 
L 129.385968 247.557095 
L 129.423759 247.557095 
L 129.688296 246.295464 
L 129.763878 246.295464 
L 129.990624 245.286159 
L 130.066206 245.286159 
L 130.21737 244.781507 
L 130.255161 244.781507 
L 130.406325 243.772202 
L 130.481907 243.772202 
L 130.633072 243.26755 
L 130.670863 243.26755 
L 130.822027 242.258245 
L 130.897609 242.258245 
L 131.048773 241.753593 
L 131.086564 241.753593 
L 131.237728 240.744288 
L 131.31331 240.744288 
L 131.464474 240.239636 
L 131.502265 240.239636 
L 131.69122 239.482657 
L 131.729011 239.482657 
L 131.955758 238.473352 
L 131.993549 238.473352 
L 132.182504 237.716374 
L 132.258086 237.716374 
L 132.484832 236.707069 
L 132.560414 236.707069 
L 132.673787 236.454743 
L 132.711578 236.454743 
L 132.938324 235.445438 
L 132.976115 235.445438 
L 133.089488 235.193112 
L 133.127279 235.193112 
L 133.354026 234.183807 
L 133.391817 234.183807 
L 133.656354 232.922176 
L 133.694145 232.922176 
L 133.845309 232.417524 
L 133.8831 232.417524 
L 134.109846 231.408219 
L 134.223219 231.408219 
L 134.487756 230.146588 
L 134.563338 230.146588 
L 134.752294 229.38961 
L 134.790085 229.38961 
L 134.97904 228.632631 
L 135.054622 228.632631 
L 135.319159 227.371 
L 135.35695 227.371 
L 135.508114 226.866348 
L 135.545905 226.866348 
L 135.810442 225.604717 
L 135.886024 225.604717 
L 136.150562 224.343086 
L 136.188353 224.343086 
L 136.339517 223.838434 
L 136.377308 223.838434 
L 136.641845 222.576803 
L 136.717427 222.576803 
L 136.981964 221.315172 
L 137.019755 221.315172 
L 137.170919 220.810519 
L 137.20871 220.810519 
L 137.473248 219.548888 
L 137.54883 219.548888 
L 137.813367 218.287258 
L 137.851158 218.287258 
L 138.002322 217.782605 
L 138.040113 217.782605 
L 138.30465 216.520974 
L 138.380232 216.520974 
L 138.644769 215.259343 
L 138.682561 215.259343 
L 138.833725 214.754691 
L 138.871516 214.754691 
L 139.136053 213.49306 
L 139.211635 213.49306 
L 139.325008 213.240734 
L 139.362799 213.240734 
L 139.589545 212.231429 
L 139.627336 212.231429 
L 139.891873 210.969798 
L 140.043038 210.969798 
L 140.194202 210.465146 
L 140.231993 210.465146 
L 140.420948 209.708167 
L 140.49653 209.708167 
L 140.647694 208.951189 
L 140.685485 208.951189 
L 140.836649 208.446536 
L 140.912231 208.446536 
L 141.063395 207.941884 
L 141.101186 207.941884 
L 141.25235 207.184905 
L 141.290141 207.184905 
L 141.479097 206.427927 
L 141.516888 206.427927 
L 141.668052 205.670948 
L 141.705843 205.670948 
L 141.894798 204.91397 
L 141.932589 204.91397 
L 142.083753 204.156991 
L 142.121544 204.156991 
L 142.234917 203.904665 
L 142.34829 203.904665 
L 142.575036 202.89536 
L 142.612827 202.89536 
L 142.877365 201.633729 
L 142.952947 201.633729 
L 143.141902 200.876751 
L 143.179693 200.876751 
L 143.406439 199.867446 
L 143.44423 199.867446 
L 143.670976 198.858141 
L 143.859931 198.858141 
L 144.086678 197.848836 
L 144.16226 197.848836 
L 144.351215 197.091858 
L 144.426797 197.091858 
L 144.653543 196.082553 
L 144.729125 196.082553 
L 144.91808 195.325575 
L 144.955871 195.325575 
L 145.182617 194.31627 
L 145.258199 194.31627 
L 145.447155 193.559291 
L 145.484946 193.559291 
L 145.63611 193.054639 
L 145.673901 193.054639 
L 145.862856 192.29766 
L 145.900647 192.29766 
L 146.051811 191.793008 
L 146.089602 191.793008 
L 146.240766 191.288356 
L 146.316348 191.288356 
L 146.429721 191.036029 
L 146.505303 191.036029 
L 146.656467 190.026725 
L 146.732049 190.026725 
L 146.845423 189.774398 
L 146.921005 189.774398 
L 147.072169 188.765094 
L 147.147751 188.765094 
L 147.261124 188.512768 
L 147.298915 188.512768 
L 147.601243 186.99881 
L 147.714616 186.99881 
L 147.941362 185.989506 
L 147.979153 185.989506 
L 148.092526 185.737179 
L 148.130318 185.737179 
L 148.319273 184.475549 
L 148.394855 184.475549 
L 148.508228 184.223222 
L 148.546019 184.223222 
L 148.734974 182.961591 
L 148.810556 182.961591 
L 148.923929 182.709265 
L 148.96172 182.709265 
L 149.112884 181.699961 
L 149.226257 181.699961 
L 149.33963 181.447634 
L 149.377421 181.447634 
L 149.566377 180.186003 
L 149.641959 180.186003 
L 149.755332 179.933677 
L 149.793123 179.933677 
L 149.982078 179.176699 
L 150.05766 179.176699 
L 150.246615 178.41972 
L 150.322197 178.41972 
L 150.43557 177.915068 
L 150.473361 177.915068 
L 150.700107 176.905763 
L 150.737898 176.905763 
L 150.851272 176.653437 
L 150.889063 176.653437 
L 151.1536 175.391806 
L 151.304764 175.391806 
L 151.569301 174.130175 
L 151.644883 174.130175 
L 151.796047 173.625523 
L 151.833838 173.625523 
L 151.985002 173.12087 
L 152.060584 173.12087 
L 152.211749 172.616218 
L 152.24954 172.616218 
L 152.438495 171.859239 
L 152.476286 171.859239 
L 152.62745 171.354587 
L 152.665241 171.354587 
L 152.929778 170.092956 
L 152.967569 170.092956 
L 153.118733 169.588304 
L 153.194315 169.588304 
L 153.345479 168.831325 
L 153.38327 168.831325 
L 153.572226 168.074346 
L 153.610017 168.074346 
L 153.761181 167.317368 
L 153.798972 167.317368 
L 153.912345 167.065042 
L 153.950136 167.065042 
L 154.1013 166.308063 
L 154.139091 166.308063 
L 154.290255 165.803411 
L 154.365837 165.803411 
L 154.517001 164.794106 
L 154.554792 164.794106 
L 154.705956 164.289454 
L 154.781538 164.289454 
L 154.932703 163.784801 
L 154.970494 163.784801 
L 155.121658 163.280149 
L 155.159449 163.280149 
L 155.386195 162.270844 
L 155.57515 162.270844 
L 155.801896 161.261539 
L 155.990851 161.261539 
L 156.255389 159.999909 
L 156.406553 159.999909 
L 156.595508 159.24293 
L 156.633299 159.24293 
L 156.746672 158.990604 
L 156.822254 158.990604 
L 157.086791 157.728973 
L 157.237955 157.728973 
L 157.42691 156.971994 
L 157.464701 156.971994 
L 157.578075 156.719668 
L 157.691448 156.719668 
L 157.804821 156.215016 
L 157.880403 156.215016 
L 157.993776 155.96269 
L 158.031567 155.96269 
L 158.258313 154.953385 
L 158.296104 154.953385 
L 158.409477 154.701059 
L 158.447268 154.701059 
L 158.674014 153.691754 
L 158.711805 153.691754 
L 158.825178 153.439428 
L 158.862969 153.439428 
L 159.051925 152.682449 
L 159.127507 152.682449 
L 159.24088 152.430123 
L 159.278671 152.430123 
L 159.429835 151.420818 
L 159.543208 151.420818 
L 159.656581 151.168492 
L 159.694372 151.168492 
L 159.845536 150.66384 
L 159.958909 150.66384 
L 160.110073 150.159187 
L 160.147864 150.159187 
L 160.299029 149.654535 
L 160.412402 149.654535 
L 160.639148 148.64523 
L 160.828103 148.64523 
L 161.09264 147.383599 
L 161.243804 147.383599 
L 161.508341 146.121968 
L 161.659506 146.121968 
L 161.924043 144.860337 
L 161.999625 144.860337 
L 162.18858 144.103359 
L 162.226371 144.103359 
L 162.377535 143.598706 
L 162.453117 143.598706 
L 162.604281 143.094054 
L 162.642072 143.094054 
L 162.793236 142.589402 
L 162.868818 142.589402 
L 163.019983 142.084749 
L 163.057774 142.084749 
L 163.208938 141.580097 
L 163.28452 141.580097 
L 163.549057 140.318466 
L 163.738012 140.318466 
L 163.851385 140.06614 
L 163.926967 140.06614 
L 164.04034 139.561487 
L 164.078131 139.561487 
L 164.267086 138.804509 
L 164.342669 138.804509 
L 164.456042 138.299856 
L 164.493833 138.299856 
L 164.644997 137.795204 
L 164.75837 137.795204 
L 164.871743 137.290552 
L 164.909534 137.290552 
L 165.060698 136.533573 
L 165.174071 136.533573 
L 165.287444 136.028921 
L 165.325235 136.028921 
L 165.476399 135.271942 
L 165.589772 135.271942 
L 165.703146 134.76729 
L 165.740937 134.76729 
L 165.892101 134.010311 
L 166.005474 134.010311 
L 166.118847 133.505659 
L 166.156638 133.505659 
L 166.307802 133.001007 
L 166.421175 133.001007 
L 166.572339 132.244028 
L 166.647921 132.244028 
L 166.761294 131.991702 
L 166.836876 131.991702 
L 166.988041 130.982397 
L 167.252578 130.982397 
L 167.403742 130.225419 
L 167.554906 129.720766 
L 167.668279 129.720766 
L 167.819443 128.963788 
L 167.970607 128.459135 
L 168.08398 128.459135 
L 168.235144 127.702157 
L 168.386309 127.197504 
L 168.499682 127.197504 
L 168.650846 126.440526 
L 168.915383 126.440526 
L 169.066547 125.683547 
L 169.17992 125.431221 
L 169.331084 125.431221 
L 169.520039 124.16959 
L 169.746786 124.16959 
L 169.935741 122.907959 
L 170.162487 122.907959 
L 170.313651 122.150981 
L 170.427024 121.898654 
L 170.578188 121.898654 
L 170.767143 120.637023 
L 170.993889 120.637023 
L 171.182845 119.375393 
L 171.409591 119.375393 
L 171.560755 118.618414 
L 171.674128 118.366088 
L 171.825292 118.366088 
L 171.976456 117.609109 
L 172.089829 117.356783 
L 172.240993 117.356783 
L 172.429949 116.095152 
L 172.656695 116.095152 
L 172.770068 115.5905 
L 172.807859 115.5905 
L 172.921232 115.338174 
L 173.072396 115.338174 
L 173.185769 114.581195 
L 173.22356 114.581195 
L 173.336933 114.328869 
L 173.450306 114.328869 
L 173.60147 113.824216 
L 173.639261 113.824216 
L 173.752635 113.57189 
L 173.866008 113.57189 
L 174.017172 112.562585 
L 174.054963 112.562585 
L 174.168336 112.310259 
L 174.281709 112.310259 
L 174.432873 111.553281 
L 174.470664 111.553281 
L 174.584037 111.300955 
L 174.69741 111.300955 
L 174.848574 110.29165 
L 174.886365 110.29165 
L 174.999738 110.039324 
L 175.113112 110.039324 
L 175.339858 109.030019 
L 175.491022 109.030019 
L 175.755559 107.768388 
L 175.906723 107.768388 
L 176.17126 106.506757 
L 176.322424 106.506757 
L 176.51138 105.749778 
L 176.549171 105.749778 
L 176.662544 105.497452 
L 176.738126 105.497452 
L 177.002663 104.235821 
L 177.153827 104.235821 
L 177.342782 103.478843 
L 177.607319 103.478843 
L 177.758483 102.721864 
L 177.871857 102.469538 
L 178.023021 102.469538 
L 178.174185 101.712559 
L 178.287558 101.460233 
L 178.400931 101.460233 
L 178.665468 100.198602 
L 178.816632 100.198602 
L 179.081169 98.936971 
L 179.270125 98.936971 
L 179.421289 98.179993 
L 179.610244 98.179993 
L 179.874781 96.918362 
L 180.025945 96.918362 
L 180.290482 95.656731 
L 180.517229 95.656731 
L 180.668393 94.647426 
L 180.819557 94.647426 
L 181.008512 93.890448 
L 181.046303 93.890448 
L 181.159676 93.638122 
L 181.235258 93.638122 
L 181.499795 92.376491 
L 181.726541 92.376491 
L 181.915497 91.619512 
L 182.02887 91.619512 
L 182.142243 91.367186 
L 182.180034 91.367186 
L 182.331198 90.862533 
L 182.595735 90.862533 
L 182.746899 90.105555 
L 182.822481 90.105555 
L 182.935854 89.853229 
L 182.973645 89.853229 
L 183.200392 88.843924 
L 183.389347 88.843924 
L 183.653884 87.582293 
L 183.805048 87.582293 
L 183.994003 86.825315 
L 184.031794 86.825315 
L 184.145167 86.572988 
L 184.220749 86.572988 
L 184.409704 85.81601 
L 184.447495 85.81601 
L 184.560869 85.563684 
L 184.636451 85.563684 
L 184.825406 84.806705 
L 184.863197 84.806705 
L 184.97657 84.554379 
L 185.052152 84.554379 
L 185.241107 83.7974 
L 185.467853 83.7974 
L 185.656808 83.040422 
L 185.694599 83.040422 
L 185.807972 82.788096 
L 185.883555 82.788096 
L 186.07251 82.031117 
L 186.110301 82.031117 
L 186.223674 81.778791 
L 186.299256 81.778791 
L 186.488211 81.021812 
L 186.526002 81.021812 
L 186.639375 80.769486 
L 186.714957 80.769486 
L 186.903912 80.012507 
L 186.941703 80.012507 
L 187.055076 79.760181 
L 187.130658 79.760181 
L 187.319614 79.003203 
L 187.357405 79.003203 
L 187.470778 78.750877 
L 187.54636 78.750877 
L 187.735315 77.993898 
L 187.773106 77.993898 
L 187.886479 77.741572 
L 187.962061 77.741572 
L 188.075434 77.489246 
L 188.113225 77.489246 
L 188.264389 76.984593 
L 188.377762 76.984593 
L 188.491135 76.732267 
L 188.528926 76.732267 
L 188.680091 76.227615 
L 188.793464 76.227615 
L 188.906837 75.975288 
L 188.944628 75.975288 
L 189.095792 75.470636 
L 189.209165 75.470636 
L 189.322538 75.21831 
L 189.360329 75.21831 
L 189.511493 74.713658 
L 189.624866 74.713658 
L 189.738239 74.461331 
L 189.77603 74.461331 
L 189.889403 74.209005 
L 190.040568 74.209005 
L 190.153941 73.956679 
L 190.191732 73.956679 
L 190.342896 73.452027 
L 190.380687 73.452027 
L 190.531851 72.947374 
L 190.607433 72.947374 
L 190.758597 72.442722 
L 190.87197 72.442722 
L 190.985343 72.190396 
L 191.023134 72.190396 
L 191.174298 71.685743 
L 191.438836 71.685743 
L 191.552209 71.433417 
L 191.665582 71.433417 
L 191.778955 71.181091 
L 191.854537 71.181091 
L 191.96791 70.676439 
L 192.081283 70.676439 
L 192.194656 70.424112 
L 192.270238 70.424112 
L 192.383611 69.91946 
L 192.496984 69.91946 
L 192.610358 69.667134 
L 192.68594 69.667134 
L 192.799313 69.414808 
L 192.912686 69.414808 
L 193.026059 69.162481 
L 193.101641 69.162481 
L 193.215014 68.910155 
L 193.517342 68.910155 
L 193.630715 68.657829 
L 193.706297 68.657829 
L 193.81967 68.405503 
L 193.933043 68.405503 
L 194.046417 68.153177 
L 194.121999 68.153177 
L 194.235372 67.900851 
L 194.348745 67.900851 
L 194.462118 67.648524 
L 194.5377 67.648524 
L 194.651073 67.143872 
L 194.764446 67.143872 
L 194.877819 66.891546 
L 194.953401 66.891546 
L 195.066774 66.63922 
L 195.180147 66.63922 
L 195.293521 66.386893 
L 195.369103 66.386893 
L 195.482476 66.134567 
L 195.595849 66.134567 
L 195.709222 65.882241 
L 196.01155 65.882241 
L 196.124923 65.629915 
L 196.162714 65.629915 
L 196.276087 65.377589 
L 196.427251 65.377589 
L 196.540624 65.125262 
L 196.578415 65.125262 
L 196.691789 64.872936 
L 196.842953 64.872936 
L 196.956326 64.62061 
L 196.994117 64.62061 
L 197.10749 64.368284 
L 197.258654 64.368284 
L 197.372027 64.115958 
L 197.409818 64.115958 
L 197.523191 63.863632 
L 197.674355 63.863632 
L 197.787728 63.611305 
L 197.825519 63.611305 
L 197.938892 63.358979 
L 198.090057 63.358979 
L 198.20343 63.106653 
L 198.241221 63.106653 
L 198.354594 62.854327 
L 198.505758 62.854327 
L 198.619131 62.602001 
L 198.656922 62.602001 
L 198.770295 62.349674 
L 198.921459 62.349674 
L 199.034832 62.097348 
L 199.072623 62.097348 
L 199.185996 61.845022 
L 199.261578 61.845022 
L 199.412743 61.34037 
L 199.752862 61.34037 
L 199.904026 60.835717 
L 200.281936 60.835717 
L 200.395309 60.583391 
L 200.546473 60.583391 
L 200.659846 60.331065 
L 200.697638 60.331065 
L 200.811011 60.078739 
L 200.999966 60.078739 
L 201.15113 59.574086 
L 201.415667 59.574086 
L 201.566831 59.069434 
L 201.831368 59.069434 
L 201.982532 58.564782 
L 202.398234 58.564782 
L 202.511607 58.312455 
L 202.62498 58.312455 
L 202.738353 58.060129 
L 203.040681 58.060129 
L 203.154054 57.807803 
L 203.191845 57.807803 
L 203.305218 57.555477 
L 203.456383 57.555477 
L 203.569756 57.303151 
L 203.607547 57.303151 
L 203.72092 57.050825 
L 203.872084 57.050825 
L 203.985457 56.798498 
L 204.023248 56.798498 
L 204.136621 56.546172 
L 204.287785 56.546172 
L 204.401158 56.293846 
L 204.438949 56.293846 
L 204.552322 56.04152 
L 204.854651 56.04152 
L 204.968024 55.789194 
L 205.081397 55.789194 
L 205.19477 55.536867 
L 205.270352 55.536867 
L 205.383725 55.284541 
L 205.497098 55.284541 
L 205.610471 55.032215 
L 205.686053 55.032215 
L 205.799426 54.779889 
L 205.912799 54.779889 
L 206.026172 54.527563 
L 206.101755 54.527563 
L 206.215128 54.275236 
L 206.328501 54.275236 
L 206.441874 54.02291 
L 206.744202 54.02291 
L 206.857575 53.770584 
L 207.159903 53.770584 
L 207.273276 53.518258 
L 207.575605 53.518258 
L 207.688978 53.265932 
L 207.991306 53.265932 
L 208.104679 53.013606 
L 208.218052 53.013606 
L 208.331425 52.761279 
L 208.407007 52.761279 
L 208.52038 52.508953 
L 208.822709 52.508953 
L 208.936082 52.256627 
L 209.23841 52.256627 
L 209.351783 52.004301 
L 209.654111 52.004301 
L 209.767484 51.751975 
L 210.069812 51.751975 
L 210.183186 51.499648 
L 210.485514 51.499648 
L 210.598887 51.247322 
L 210.901215 51.247322 
L 211.014588 50.994996 
L 211.316916 50.994996 
L 211.430289 50.74267 
L 211.732618 50.74267 
L 211.845991 50.490344 
L 212.148319 50.490344 
L 212.261692 50.238018 
L 212.56402 50.238018 
L 212.677393 49.985691 
L 212.979722 49.985691 
L 213.130886 49.481039 
L 213.395423 49.481039 
L 213.508796 49.228713 
L 213.811124 49.228713 
L 213.924497 48.976387 
L 214.226826 48.976387 
L 214.340199 48.72406 
L 214.642527 48.72406 
L 214.7559 48.471734 
L 215.058228 48.471734 
L 215.209392 47.967082 
L 222.049568 47.967082 
L 222.200732 47.462429 
L 229.0787 47.462429 
L 229.192073 47.210103 
L 236.599114 47.210103 
L 236.712487 46.957777 
L 240.718336 46.957777 
L 240.831709 46.705451 
L 243.552663 46.705451 
L 243.666036 46.453125 
L 245.442215 46.453125 
L 245.555588 46.200799 
L 247.671885 46.200799 
L 247.785258 45.948472 
L 250.506212 45.948472 
L 250.619586 45.696146 
L 252.433555 45.696146 
L 252.546928 45.44382 
L 254.625435 45.44382 
L 254.738808 45.191494 
L 257.459762 45.191494 
L 257.573135 44.939168 
L 259.198149 44.939168 
L 259.311522 44.686841 
L 259.387104 44.686841 
L 259.500477 44.434515 
L 261.616775 44.434515 
L 261.730148 44.182189 
L 266.151698 44.182189 
L 266.265071 43.929863 
L 266.340653 43.929863 
L 266.454026 43.677537 
L 268.343578 43.677537 
L 268.456951 43.42521 
L 273.105247 43.42521 
L 273.21862 43.172884 
L 275.372709 43.172884 
L 275.486082 42.920558 
L 280.058796 42.920558 
L 280.172169 42.668232 
L 282.364049 42.668232 
L 282.477422 42.415906 
L 289.39318 42.415906 
L 289.506553 42.16358 
L 523.092898 42.16358 
L 523.092898 42.16358 
" clip-path="url(#p4be5373afb)" style="fill: none; stroke: #ababab; stroke-width: 2; stroke-linecap: square"/>
   </g>
   <g id="patch_3">
    <path d="M 46.965625 458.918125 
L 46.965625 22.318125 
" style="fill: none; stroke: #000000; stroke-width: 0.8; stroke-linejoin: miter; stroke-linecap: square"/>
   </g>
   <g id="patch_4">
    <path d="M 545.765625 458.918125 
L 545.765625 22.318125 
" style="fill: none; stroke: #000000; stroke-width: 0.8; stroke-linejoin: miter; stroke-linecap: square"/>
   </g>
   <g id="patch_5">
    <path d="M 46.965625 458.918125 
L 545.765625 458.918125 
" style="fill: none; stroke: #000000; stroke-width: 0.8; stroke-linejoin: miter; stroke-linecap: square"/>
   </g>
   <g id="patch_6">
    <path d="M 46.965625 22.318125 
L 545.765625 22.318125 
" style="fill: none; stroke: #000000; stroke-width: 0.8; stroke-linejoin: miter; stroke-linecap: square"/>
   </g>
   <g id="text_16">
    <!-- Telomeric Motif Distribution: A_hattorfiana -->
    <g transform="translate(151.438438 16.318125) scale(0.12 -0.12)">
     <defs>
      <path id="DejaVuSans-Bold-54" d="M 31 4666 
L 4331 4666 
L 4331 3756 
L 2784 3756 
L 2784 0 
L 1581 0 
L 1581 3756 
L 31 3756 
L 31 4666 
z
" transform="scale(0.015625)"/>
      <path id="DejaVuSans-Bold-65" d="M 4031 1759 
L 4031 1441 
L 1416 1441 
Q 1456 1047 1700 850 
Q 1944 653 2381 653 
Q 2734 653 3104 758 
Q 3475 863 3866 1075 
L 3866 213 
Q 3469 63 3072 -14 
Q 2675 -91 2278 -91 
Q 1328 -91 801 392 
Q 275 875 275 1747 
Q 275 2603 792 3093 
Q 1309 3584 2216 3584 
Q 3041 3584 3536 3087 
Q 4031 2591 4031 1759 
z
M 2881 2131 
Q 2881 2450 2695 2645 
Q 2509 2841 2209 2841 
Q 1884 2841 1681 2658 
Q 1478 2475 1428 2131 
L 2881 2131 
z
" transform="scale(0.015625)"/>
      <path id="DejaVuSans-Bold-6c" d="M 538 4863 
L 1656 4863 
L 1656 0 
L 538 0 
L 538 4863 
z
" transform="scale(0.015625)"/>
      <path id="DejaVuSans-Bold-6f" d="M 2203 2784 
Q 1831 2784 1636 2517 
Q 1441 2250 1441 1747 
Q 1441 1244 1636 976 
Q 1831 709 2203 709 
Q 2569 709 2762 976 
Q 2956 1244 2956 1747 
Q 2956 2250 2762 2517 
Q 2569 2784 2203 2784 
z
M 2203 3584 
Q 3106 3584 3614 3096 
Q 4122 2609 4122 1747 
Q 4122 884 3614 396 
Q 3106 -91 2203 -91 
Q 1297 -91 786 396 
Q 275 884 275 1747 
Q 275 2609 786 3096 
Q 1297 3584 2203 3584 
z
" transform="scale(0.015625)"/>
      <path id="DejaVuSans-Bold-6d" d="M 3781 2919 
Q 3994 3244 4286 3414 
Q 4578 3584 4928 3584 
Q 5531 3584 5847 3212 
Q 6163 2841 6163 2131 
L 6163 0 
L 5038 0 
L 5038 1825 
Q 5041 1866 5042 1909 
Q 5044 1953 5044 2034 
Q 5044 2406 4934 2573 
Q 4825 2741 4581 2741 
Q 4263 2741 4089 2478 
Q 3916 2216 3909 1719 
L 3909 0 
L 2784 0 
L 2784 1825 
Q 2784 2406 2684 2573 
Q 2584 2741 2328 2741 
Q 2006 2741 1831 2477 
Q 1656 2213 1656 1722 
L 1656 0 
L 531 0 
L 531 3500 
L 1656 3500 
L 1656 2988 
Q 1863 3284 2130 3434 
Q 2397 3584 2719 3584 
Q 3081 3584 3359 3409 
Q 3638 3234 3781 2919 
z
" transform="scale(0.015625)"/>
      <path id="DejaVuSans-Bold-72" d="M 3138 2547 
Q 2991 2616 2845 2648 
Q 2700 2681 2553 2681 
Q 2122 2681 1889 2404 
Q 1656 2128 1656 1613 
L 1656 0 
L 538 0 
L 538 3500 
L 1656 3500 
L 1656 2925 
Q 1872 3269 2151 3426 
Q 2431 3584 2822 3584 
Q 2878 3584 2943 3579 
Q 3009 3575 3134 3559 
L 3138 2547 
z
" transform="scale(0.015625)"/>
      <path id="DejaVuSans-Bold-69" d="M 538 3500 
L 1656 3500 
L 1656 0 
L 538 0 
L 538 3500 
z
M 538 4863 
L 1656 4863 
L 1656 3950 
L 538 3950 
L 538 4863 
z
" transform="scale(0.015625)"/>
      <path id="DejaVuSans-Bold-63" d="M 3366 3391 
L 3366 2478 
Q 3138 2634 2908 2709 
Q 2678 2784 2431 2784 
Q 1963 2784 1702 2511 
Q 1441 2238 1441 1747 
Q 1441 1256 1702 982 
Q 1963 709 2431 709 
Q 2694 709 2930 787 
Q 3166 866 3366 1019 
L 3366 103 
Q 3103 6 2833 -42 
Q 2563 -91 2291 -91 
Q 1344 -91 809 395 
Q 275 881 275 1747 
Q 275 2613 809 3098 
Q 1344 3584 2291 3584 
Q 2566 3584 2833 3536 
Q 3100 3488 3366 3391 
z
" transform="scale(0.015625)"/>
      <path id="DejaVuSans-Bold-20" transform="scale(0.015625)"/>
      <path id="DejaVuSans-Bold-4d" d="M 588 4666 
L 2119 4666 
L 3181 2169 
L 4250 4666 
L 5778 4666 
L 5778 0 
L 4641 0 
L 4641 3413 
L 3566 897 
L 2803 897 
L 1728 3413 
L 1728 0 
L 588 0 
L 588 4666 
z
" transform="scale(0.015625)"/>
      <path id="DejaVuSans-Bold-74" d="M 1759 4494 
L 1759 3500 
L 2913 3500 
L 2913 2700 
L 1759 2700 
L 1759 1216 
Q 1759 972 1856 886 
Q 1953 800 2241 800 
L 2816 800 
L 2816 0 
L 1856 0 
Q 1194 0 917 276 
Q 641 553 641 1216 
L 641 2700 
L 84 2700 
L 84 3500 
L 641 3500 
L 641 4494 
L 1759 4494 
z
" transform="scale(0.015625)"/>
      <path id="DejaVuSans-Bold-66" d="M 2841 4863 
L 2841 4128 
L 2222 4128 
Q 1984 4128 1890 4042 
Q 1797 3956 1797 3744 
L 1797 3500 
L 2753 3500 
L 2753 2700 
L 1797 2700 
L 1797 0 
L 678 0 
L 678 2700 
L 122 2700 
L 122 3500 
L 678 3500 
L 678 3744 
Q 678 4316 997 4589 
Q 1316 4863 1984 4863 
L 2841 4863 
z
" transform="scale(0.015625)"/>
      <path id="DejaVuSans-Bold-44" d="M 1791 3756 
L 1791 909 
L 2222 909 
Q 2959 909 3348 1275 
Q 3738 1641 3738 2338 
Q 3738 3031 3350 3393 
Q 2963 3756 2222 3756 
L 1791 3756 
z
M 588 4666 
L 1856 4666 
Q 2919 4666 3439 4514 
Q 3959 4363 4331 4000 
Q 4659 3684 4818 3271 
Q 4978 2859 4978 2338 
Q 4978 1809 4818 1395 
Q 4659 981 4331 666 
Q 3956 303 3431 151 
Q 2906 0 1856 0 
L 588 0 
L 588 4666 
z
" transform="scale(0.015625)"/>
      <path id="DejaVuSans-Bold-73" d="M 3272 3391 
L 3272 2541 
Q 2913 2691 2578 2766 
Q 2244 2841 1947 2841 
Q 1628 2841 1473 2761 
Q 1319 2681 1319 2516 
Q 1319 2381 1436 2309 
Q 1553 2238 1856 2203 
L 2053 2175 
Q 2913 2066 3209 1816 
Q 3506 1566 3506 1031 
Q 3506 472 3093 190 
Q 2681 -91 1863 -91 
Q 1516 -91 1145 -36 
Q 775 19 384 128 
L 384 978 
Q 719 816 1070 734 
Q 1422 653 1784 653 
Q 2113 653 2278 743 
Q 2444 834 2444 1013 
Q 2444 1163 2330 1236 
Q 2216 1309 1875 1350 
L 1678 1375 
Q 931 1469 631 1722 
Q 331 1975 331 2491 
Q 331 3047 712 3315 
Q 1094 3584 1881 3584 
Q 2191 3584 2531 3537 
Q 2872 3491 3272 3391 
z
" transform="scale(0.015625)"/>
      <path id="DejaVuSans-Bold-62" d="M 2400 722 
Q 2759 722 2948 984 
Q 3138 1247 3138 1747 
Q 3138 2247 2948 2509 
Q 2759 2772 2400 2772 
Q 2041 2772 1848 2508 
Q 1656 2244 1656 1747 
Q 1656 1250 1848 986 
Q 2041 722 2400 722 
z
M 1656 2988 
Q 1888 3294 2169 3439 
Q 2450 3584 2816 3584 
Q 3463 3584 3878 3070 
Q 4294 2556 4294 1747 
Q 4294 938 3878 423 
Q 3463 -91 2816 -91 
Q 2450 -91 2169 54 
Q 1888 200 1656 506 
L 1656 0 
L 538 0 
L 538 4863 
L 1656 4863 
L 1656 2988 
z
" transform="scale(0.015625)"/>
      <path id="DejaVuSans-Bold-75" d="M 500 1363 
L 500 3500 
L 1625 3500 
L 1625 3150 
Q 1625 2866 1622 2436 
Q 1619 2006 1619 1863 
Q 1619 1441 1641 1255 
Q 1663 1069 1716 984 
Q 1784 875 1895 815 
Q 2006 756 2150 756 
Q 2500 756 2700 1025 
Q 2900 1294 2900 1772 
L 2900 3500 
L 4019 3500 
L 4019 0 
L 2900 0 
L 2900 506 
Q 2647 200 2364 54 
Q 2081 -91 1741 -91 
Q 1134 -91 817 281 
Q 500 653 500 1363 
z
" transform="scale(0.015625)"/>
      <path id="DejaVuSans-Bold-6e" d="M 4056 2131 
L 4056 0 
L 2931 0 
L 2931 347 
L 2931 1631 
Q 2931 2084 2911 2256 
Q 2891 2428 2841 2509 
Q 2775 2619 2662 2680 
Q 2550 2741 2406 2741 
Q 2056 2741 1856 2470 
Q 1656 2200 1656 1722 
L 1656 0 
L 538 0 
L 538 3500 
L 1656 3500 
L 1656 2988 
Q 1909 3294 2193 3439 
Q 2478 3584 2822 3584 
Q 3428 3584 3742 3212 
Q 4056 2841 4056 2131 
z
" transform="scale(0.015625)"/>
      <path id="DejaVuSans-Bold-3a" d="M 716 3500 
L 1844 3500 
L 1844 2291 
L 716 2291 
L 716 3500 
z
M 716 1209 
L 1844 1209 
L 1844 0 
L 716 0 
L 716 1209 
z
" transform="scale(0.015625)"/>
      <path id="DejaVuSans-Bold-41" d="M 3419 850 
L 1538 850 
L 1241 0 
L 31 0 
L 1759 4666 
L 3194 4666 
L 4922 0 
L 3713 0 
L 3419 850 
z
M 1838 1716 
L 3116 1716 
L 2478 3572 
L 1838 1716 
z
" transform="scale(0.015625)"/>
      <path id="DejaVuSans-Bold-5f" d="M 3200 -916 
L 3200 -1509 
L 0 -1509 
L 0 -916 
L 3200 -916 
z
" transform="scale(0.015625)"/>
      <path id="DejaVuSans-Bold-68" d="M 4056 2131 
L 4056 0 
L 2931 0 
L 2931 347 
L 2931 1625 
Q 2931 2084 2911 2256 
Q 2891 2428 2841 2509 
Q 2775 2619 2662 2680 
Q 2550 2741 2406 2741 
Q 2056 2741 1856 2470 
Q 1656 2200 1656 1722 
L 1656 0 
L 538 0 
L 538 4863 
L 1656 4863 
L 1656 2988 
Q 1909 3294 2193 3439 
Q 2478 3584 2822 3584 
Q 3428 3584 3742 3212 
Q 4056 2841 4056 2131 
z
" transform="scale(0.015625)"/>
      <path id="DejaVuSans-Bold-61" d="M 2106 1575 
Q 1756 1575 1579 1456 
Q 1403 1338 1403 1106 
Q 1403 894 1545 773 
Q 1688 653 1941 653 
Q 2256 653 2472 879 
Q 2688 1106 2688 1447 
L 2688 1575 
L 2106 1575 
z
M 3816 1997 
L 3816 0 
L 2688 0 
L 2688 519 
Q 2463 200 2181 54 
Q 1900 -91 1497 -91 
Q 953 -91 614 226 
Q 275 544 275 1050 
Q 275 1666 698 1953 
Q 1122 2241 2028 2241 
L 2688 2241 
L 2688 2328 
Q 2688 2594 2478 2717 
Q 2269 2841 1825 2841 
Q 1466 2841 1156 2769 
Q 847 2697 581 2553 
L 581 3406 
Q 941 3494 1303 3539 
Q 1666 3584 2028 3584 
Q 2975 3584 3395 3211 
Q 3816 2838 3816 1997 
z
" transform="scale(0.015625)"/>
     </defs>
     <use xlink:href="#DejaVuSans-Bold-54"/>
     <use xlink:href="#DejaVuSans-Bold-65" transform="translate(54.962891 0)"/>
     <use xlink:href="#DejaVuSans-Bold-6c" transform="translate(122.785156 0)"/>
     <use xlink:href="#DejaVuSans-Bold-6f" transform="translate(157.0625 0)"/>
     <use xlink:href="#DejaVuSans-Bold-6d" transform="translate(225.763672 0)"/>
     <use xlink:href="#DejaVuSans-Bold-65" transform="translate(329.962891 0)"/>
     <use xlink:href="#DejaVuSans-Bold-72" transform="translate(397.785156 0)"/>
     <use xlink:href="#DejaVuSans-Bold-69" transform="translate(447.101562 0)"/>
     <use xlink:href="#DejaVuSans-Bold-63" transform="translate(481.378906 0)"/>
     <use xlink:href="#DejaVuSans-Bold-20" transform="translate(540.65625 0)"/>
     <use xlink:href="#DejaVuSans-Bold-4d" transform="translate(575.470703 0)"/>
     <use xlink:href="#DejaVuSans-Bold-6f" transform="translate(674.982422 0)"/>
     <use xlink:href="#DejaVuSans-Bold-74" transform="translate(743.683594 0)"/>
     <use xlink:href="#DejaVuSans-Bold-69" transform="translate(791.486328 0)"/>
     <use xlink:href="#DejaVuSans-Bold-66" transform="translate(825.763672 0)"/>
     <use xlink:href="#DejaVuSans-Bold-20" transform="translate(869.269531 0)"/>
     <use xlink:href="#DejaVuSans-Bold-44" transform="translate(904.083984 0)"/>
     <use xlink:href="#DejaVuSans-Bold-69" transform="translate(987.091797 0)"/>
     <use xlink:href="#DejaVuSans-Bold-73" transform="translate(1021.369141 0)"/>
     <use xlink:href="#DejaVuSans-Bold-74" transform="translate(1080.890625 0)"/>
     <use xlink:href="#DejaVuSans-Bold-72" transform="translate(1128.693359 0)"/>
     <use xlink:href="#DejaVuSans-Bold-69" transform="translate(1178.009766 0)"/>
     <use xlink:href="#DejaVuSans-Bold-62" transform="translate(1212.287109 0)"/>
     <use xlink:href="#DejaVuSans-Bold-75" transform="translate(1283.869141 0)"/>
     <use xlink:href="#DejaVuSans-Bold-74" transform="translate(1355.060547 0)"/>
     <use xlink:href="#DejaVuSans-Bold-69" transform="translate(1402.863281 0)"/>
     <use xlink:href="#DejaVuSans-Bold-6f" transform="translate(1437.140625 0)"/>
     <use xlink:href="#DejaVuSans-Bold-6e" transform="translate(1505.841797 0)"/>
     <use xlink:href="#DejaVuSans-Bold-3a" transform="translate(1577.033203 0)"/>
     <use xlink:href="#DejaVuSans-Bold-20" transform="translate(1617.023438 0)"/>
     <use xlink:href="#DejaVuSans-Bold-41" transform="translate(1651.837891 0)"/>
     <use xlink:href="#DejaVuSans-Bold-5f" transform="translate(1729.230469 0)"/>
     <use xlink:href="#DejaVuSans-Bold-68" transform="translate(1779.230469 0)"/>
     <use xlink:href="#DejaVuSans-Bold-61" transform="translate(1850.421875 0)"/>
     <use xlink:href="#DejaVuSans-Bold-74" transform="translate(1917.902344 0)"/>
     <use xlink:href="#DejaVuSans-Bold-74" transform="translate(1965.705078 0)"/>
     <use xlink:href="#DejaVuSans-Bold-6f" transform="translate(2013.507812 0)"/>
     <use xlink:href="#DejaVuSans-Bold-72" transform="translate(2082.208984 0)"/>
     <use xlink:href="#DejaVuSans-Bold-66" transform="translate(2131.525391 0)"/>
     <use xlink:href="#DejaVuSans-Bold-69" transform="translate(2175.03125 0)"/>
     <use xlink:href="#DejaVuSans-Bold-61" transform="translate(2209.308594 0)"/>
     <use xlink:href="#DejaVuSans-Bold-6e" transform="translate(2276.789062 0)"/>
     <use xlink:href="#DejaVuSans-Bold-61" transform="translate(2347.980469 0)"/>
    </g>
   </g>
   <g id="legend_1">
    <g id="patch_7">
     <path d="M 552.765625 89.030625 
L 702.923438 89.030625 
Q 704.923438 89.030625 704.923438 87.030625 
L 704.923438 29.318125 
Q 704.923438 27.318125 702.923438 27.318125 
L 552.765625 27.318125 
Q 550.765625 27.318125 550.765625 29.318125 
L 550.765625 87.030625 
Q 550.765625 89.030625 552.765625 89.030625 
z
" style="fill: #ffffff; opacity: 0.8; stroke: #cccccc; stroke-linejoin: miter"/>
    </g>
    <g id="text_17">
     <!-- Motifs &amp; Orientation -->
     <g transform="translate(577.452344 38.916562) scale(0.1 -0.1)">
      <defs>
       <path id="DejaVuSans-4d" d="M 628 4666 
L 1569 4666 
L 2759 1491 
L 3956 4666 
L 4897 4666 
L 4897 0 
L 4281 0 
L 4281 4097 
L 3078 897 
L 2444 897 
L 1241 4097 
L 1241 0 
L 628 0 
L 628 4666 
z
" transform="scale(0.015625)"/>
       <path id="DejaVuSans-26" d="M 1556 2509 
Q 1272 2256 1139 2004 
Q 1006 1753 1006 1478 
Q 1006 1022 1337 719 
Q 1669 416 2169 416 
Q 2466 416 2725 514 
Q 2984 613 3213 813 
L 1556 2509 
z
M 1997 2859 
L 3584 1234 
Q 3769 1513 3872 1830 
Q 3975 2147 3994 2503 
L 4575 2503 
Q 4538 2091 4375 1687 
Q 4213 1284 3922 891 
L 4794 0 
L 4006 0 
L 3559 459 
Q 3234 181 2878 45 
Q 2522 -91 2113 -91 
Q 1359 -91 881 339 
Q 403 769 403 1441 
Q 403 1841 612 2192 
Q 822 2544 1241 2853 
Q 1091 3050 1012 3245 
Q 934 3441 934 3628 
Q 934 4134 1281 4442 
Q 1628 4750 2203 4750 
Q 2463 4750 2720 4694 
Q 2978 4638 3244 4525 
L 3244 3956 
Q 2972 4103 2725 4179 
Q 2478 4256 2266 4256 
Q 1938 4256 1733 4082 
Q 1528 3909 1528 3634 
Q 1528 3475 1620 3314 
Q 1713 3153 1997 2859 
z
" transform="scale(0.015625)"/>
       <path id="DejaVuSans-4f" d="M 2522 4238 
Q 1834 4238 1429 3725 
Q 1025 3213 1025 2328 
Q 1025 1447 1429 934 
Q 1834 422 2522 422 
Q 3209 422 3611 934 
Q 4013 1447 4013 2328 
Q 4013 3213 3611 3725 
Q 3209 4238 2522 4238 
z
M 2522 4750 
Q 3503 4750 4090 4092 
Q 4678 3434 4678 2328 
Q 4678 1225 4090 567 
Q 3503 -91 2522 -91 
Q 1538 -91 948 565 
Q 359 1222 359 2328 
Q 359 3434 948 4092 
Q 1538 4750 2522 4750 
z
" transform="scale(0.015625)"/>
      </defs>
      <use xlink:href="#DejaVuSans-4d"/>
      <use xlink:href="#DejaVuSans-6f" transform="translate(86.279297 0)"/>
      <use xlink:href="#DejaVuSans-74" transform="translate(147.460938 0)"/>
      <use xlink:href="#DejaVuSans-69" transform="translate(186.669922 0)"/>
      <use xlink:href="#DejaVuSans-66" transform="translate(214.453125 0)"/>
      <use xlink:href="#DejaVuSans-73" transform="translate(249.658203 0)"/>
      <use xlink:href="#DejaVuSans-20" transform="translate(301.757812 0)"/>
      <use xlink:href="#DejaVuSans-26" transform="translate(333.544922 0)"/>
      <use xlink:href="#DejaVuSans-20" transform="translate(411.523438 0)"/>
      <use xlink:href="#DejaVuSans-4f" transform="translate(443.310547 0)"/>
      <use xlink:href="#DejaVuSans-72" transform="translate(522.021484 0)"/>
      <use xlink:href="#DejaVuSans-69" transform="translate(563.134766 0)"/>
      <use xlink:href="#DejaVuSans-65" transform="translate(590.917969 0)"/>
      <use xlink:href="#DejaVuSans-6e" transform="translate(652.441406 0)"/>
      <use xlink:href="#DejaVuSans-74" transform="translate(715.820312 0)"/>
      <use xlink:href="#DejaVuSans-61" transform="translate(755.029297 0)"/>
      <use xlink:href="#DejaVuSans-74" transform="translate(816.308594 0)"/>
      <use xlink:href="#DejaVuSans-69" transform="translate(855.517578 0)"/>
      <use xlink:href="#DejaVuSans-6f" transform="translate(883.300781 0)"/>
      <use xlink:href="#DejaVuSans-6e" transform="translate(944.482422 0)"/>
     </g>
    </g>
    <g id="line2d_30">
     <path d="M 554.765625 50.094688 
L 564.765625 50.094688 
L 574.765625 50.094688 
" style="fill: none; stroke: #006ba4; stroke-width: 2; stroke-linecap: square"/>
    </g>
    <g id="text_18">
     <!-- CCCGAGACTAA (5' end) -->
     <g transform="translate(582.765625 53.594688) scale(0.1 -0.1)">
      <defs>
       <path id="DejaVuSans-47" d="M 3809 666 
L 3809 1919 
L 2778 1919 
L 2778 2438 
L 4434 2438 
L 4434 434 
Q 4069 175 3628 42 
Q 3188 -91 2688 -91 
Q 1594 -91 976 548 
Q 359 1188 359 2328 
Q 359 3472 976 4111 
Q 1594 4750 2688 4750 
Q 3144 4750 3555 4637 
Q 3966 4525 4313 4306 
L 4313 3634 
Q 3963 3931 3569 4081 
Q 3175 4231 2741 4231 
Q 1884 4231 1454 3753 
Q 1025 3275 1025 2328 
Q 1025 1384 1454 906 
Q 1884 428 2741 428 
Q 3075 428 3337 486 
Q 3600 544 3809 666 
z
" transform="scale(0.015625)"/>
       <path id="DejaVuSans-28" d="M 1984 4856 
Q 1566 4138 1362 3434 
Q 1159 2731 1159 2009 
Q 1159 1288 1364 580 
Q 1569 -128 1984 -844 
L 1484 -844 
Q 1016 -109 783 600 
Q 550 1309 550 2009 
Q 550 2706 781 3412 
Q 1013 4119 1484 4856 
L 1984 4856 
z
" transform="scale(0.015625)"/>
       <path id="DejaVuSans-27" d="M 1147 4666 
L 1147 2931 
L 616 2931 
L 616 4666 
L 1147 4666 
z
" transform="scale(0.015625)"/>
       <path id="DejaVuSans-64" d="M 2906 2969 
L 2906 4863 
L 3481 4863 
L 3481 0 
L 2906 0 
L 2906 525 
Q 2725 213 2448 61 
Q 2172 -91 1784 -91 
Q 1150 -91 751 415 
Q 353 922 353 1747 
Q 353 2572 751 3078 
Q 1150 3584 1784 3584 
Q 2172 3584 2448 3432 
Q 2725 3281 2906 2969 
z
M 947 1747 
Q 947 1113 1208 752 
Q 1469 391 1925 391 
Q 2381 391 2643 752 
Q 2906 1113 2906 1747 
Q 2906 2381 2643 2742 
Q 2381 3103 1925 3103 
Q 1469 3103 1208 2742 
Q 947 2381 947 1747 
z
" transform="scale(0.015625)"/>
       <path id="DejaVuSans-29" d="M 513 4856 
L 1013 4856 
Q 1481 4119 1714 3412 
Q 1947 2706 1947 2009 
Q 1947 1309 1714 600 
Q 1481 -109 1013 -844 
L 513 -844 
Q 928 -128 1133 580 
Q 1338 1288 1338 2009 
Q 1338 2731 1133 3434 
Q 928 4138 513 4856 
z
" transform="scale(0.015625)"/>
      </defs>
      <use xlink:href="#DejaVuSans-43"/>
      <use xlink:href="#DejaVuSans-43" transform="translate(69.824219 0)"/>
      <use xlink:href="#DejaVuSans-43" transform="translate(139.648438 0)"/>
      <use xlink:href="#DejaVuSans-47" transform="translate(209.472656 0)"/>
      <use xlink:href="#DejaVuSans-41" transform="translate(286.962891 0)"/>
      <use xlink:href="#DejaVuSans-47" transform="translate(353.621094 0)"/>
      <use xlink:href="#DejaVuSans-41" transform="translate(431.111328 0)"/>
      <use xlink:href="#DejaVuSans-43" transform="translate(497.769531 0)"/>
      <use xlink:href="#DejaVuSans-54" transform="translate(567.59375 0)"/>
      <use xlink:href="#DejaVuSans-41" transform="translate(620.927734 0)"/>
      <use xlink:href="#DejaVuSans-41" transform="translate(692.085938 0)"/>
      <use xlink:href="#DejaVuSans-20" transform="translate(760.494141 0)"/>
      <use xlink:href="#DejaVuSans-28" transform="translate(792.28125 0)"/>
      <use xlink:href="#DejaVuSans-35" transform="translate(831.294922 0)"/>
      <use xlink:href="#DejaVuSans-27" transform="translate(894.917969 0)"/>
      <use xlink:href="#DejaVuSans-20" transform="translate(922.408203 0)"/>
      <use xlink:href="#DejaVuSans-65" transform="translate(954.195312 0)"/>
      <use xlink:href="#DejaVuSans-6e" transform="translate(1015.71875 0)"/>
      <use xlink:href="#DejaVuSans-64" transform="translate(1079.097656 0)"/>
      <use xlink:href="#DejaVuSans-29" transform="translate(1142.574219 0)"/>
     </g>
    </g>
    <g id="line2d_31">
     <path d="M 554.765625 64.772813 
L 564.765625 64.772813 
L 574.765625 64.772813 
" style="fill: none; stroke: #ff800e; stroke-width: 2; stroke-linecap: square"/>
    </g>
    <g id="text_19">
     <!-- TTCCCAA (5' end) -->
     <g transform="translate(582.765625 68.272813) scale(0.1 -0.1)">
      <use xlink:href="#DejaVuSans-54"/>
      <use xlink:href="#DejaVuSans-54" transform="translate(59.333984 0)"/>
      <use xlink:href="#DejaVuSans-43" transform="translate(114.542969 0)"/>
      <use xlink:href="#DejaVuSans-43" transform="translate(184.367188 0)"/>
      <use xlink:href="#DejaVuSans-43" transform="translate(254.191406 0)"/>
      <use xlink:href="#DejaVuSans-41" transform="translate(324.015625 0)"/>
      <use xlink:href="#DejaVuSans-41" transform="translate(395.173828 0)"/>
      <use xlink:href="#DejaVuSans-20" transform="translate(463.582031 0)"/>
      <use xlink:href="#DejaVuSans-28" transform="translate(495.369141 0)"/>
      <use xlink:href="#DejaVuSans-35" transform="translate(534.382812 0)"/>
      <use xlink:href="#DejaVuSans-27" transform="translate(598.005859 0)"/>
      <use xlink:href="#DejaVuSans-20" transform="translate(625.496094 0)"/>
      <use xlink:href="#DejaVuSans-65" transform="translate(657.283203 0)"/>
      <use xlink:href="#DejaVuSans-6e" transform="translate(718.806641 0)"/>
      <use xlink:href="#DejaVuSans-64" transform="translate(782.185547 0)"/>
      <use xlink:href="#DejaVuSans-29" transform="translate(845.662109 0)"/>
     </g>
    </g>
    <g id="line2d_32">
     <path d="M 554.765625 79.450938 
L 564.765625 79.450938 
L 574.765625 79.450938 
" style="fill: none; stroke: #ababab; stroke-width: 2; stroke-linecap: square"/>
    </g>
    <g id="text_20">
     <!-- CCCAAGACTAA (5' end) -->
     <g transform="translate(582.765625 82.950938) scale(0.1 -0.1)">
      <use xlink:href="#DejaVuSans-43"/>
      <use xlink:href="#DejaVuSans-43" transform="translate(69.824219 0)"/>
      <use xlink:href="#DejaVuSans-43" transform="translate(139.648438 0)"/>
      <use xlink:href="#DejaVuSans-41" transform="translate(209.472656 0)"/>
      <use xlink:href="#DejaVuSans-41" transform="translate(280.630859 0)"/>
      <use xlink:href="#DejaVuSans-47" transform="translate(347.289062 0)"/>
      <use xlink:href="#DejaVuSans-41" transform="translate(424.779297 0)"/>
      <use xlink:href="#DejaVuSans-43" transform="translate(491.4375 0)"/>
      <use xlink:href="#DejaVuSans-54" transform="translate(561.261719 0)"/>
      <use xlink:href="#DejaVuSans-41" transform="translate(614.595703 0)"/>
      <use xlink:href="#DejaVuSans-41" transform="translate(685.753906 0)"/>
      <use xlink:href="#DejaVuSans-20" transform="translate(754.162109 0)"/>
      <use xlink:href="#DejaVuSans-28" transform="translate(785.949219 0)"/>
      <use xlink:href="#DejaVuSans-35" transform="translate(824.962891 0)"/>
      <use xlink:href="#DejaVuSans-27" transform="translate(888.585938 0)"/>
      <use xlink:href="#DejaVuSans-20" transform="translate(916.076172 0)"/>
      <use xlink:href="#DejaVuSans-65" transform="translate(947.863281 0)"/>
      <use xlink:href="#DejaVuSans-6e" transform="translate(1009.386719 0)"/>
      <use xlink:href="#DejaVuSans-64" transform="translate(1072.765625 0)"/>
      <use xlink:href="#DejaVuSans-29" transform="translate(1136.242188 0)"/>
     </g>
    </g>
   </g>
  </g>
 </g>
 <defs>
  <clipPath id="p4be5373afb">
   <rect x="46.965625" y="22.318125" width="498.8" height="436.6"/>
  </clipPath>
 </defs>
</svg>
