<?xml version="1.0" encoding="utf-8" standalone="no"?>
<!DOCTYPE svg PUBLIC "-//W3C//DTD SVG 1.1//EN"
  "http://www.w3.org/Graphics/SVG/1.1/DTD/svg11.dtd">
<svg xmlns:xlink="http://www.w3.org/1999/xlink" width="568.123437pt" height="423.99625pt" viewBox="0 0 568.123437 423.99625" xmlns="http://www.w3.org/2000/svg" version="1.1">
 <metadata>
  <rdf:RDF xmlns:dc="http://purl.org/dc/elements/1.1/" xmlns:cc="http://creativecommons.org/ns#" xmlns:rdf="http://www.w3.org/1999/02/22-rdf-syntax-ns#">
   <cc:Work>
    <dc:type rdf:resource="http://purl.org/dc/dcmitype/StillImage"/>
    <dc:date>2026-04-30T13:16:52.183522</dc:date>
    <dc:format>image/svg+xml</dc:format>
    <dc:creator>
     <cc:Agent>
      <dc:title>Matplotlib v3.10.6, https://matplotlib.org/</dc:title>
     </cc:Agent>
    </dc:creator>
   </cc:Work>
  </rdf:RDF>
 </metadata>
 <defs>
  <style type="text/css">*{stroke-linejoin: round; stroke-linecap: butt}</style>
 </defs>
 <g id="figure_1">
  <g id="patch_1">
   <path d="M 0 423.99625 
L 568.123437 423.99625 
L 568.123437 0 
L 0 0 
z
" style="fill: #ffffff"/>
  </g>
  <g id="axes_1">
   <g id="patch_2">
    <path d="M 46.965625 386.44 
L 401.765625 386.44 
L 401.765625 7.2 
L 46.965625 7.2 
z
" style="fill: #ffffff"/>
   </g>
   <g id="matplotlib.axis_1">
    <g id="xtick_1">
     <g id="line2d_1">
      <path d="M 63.092898 386.44 
L 63.092898 7.2 
" clip-path="url(#p3888effee7)" style="fill: none; stroke-dasharray: 2.96,1.28; stroke-dashoffset: 0; stroke: #b0b0b0; stroke-opacity: 0.6; stroke-width: 0.8"/>
     </g>
     <g id="line2d_2">
      <defs>
       <path id="m6103c18711" d="M 0 0 
L 0 3.5 
" style="stroke: #000000; stroke-width: 0.8"/>
      </defs>
      <g>
       <use xlink:href="#m6103c18711" x="63.092898" y="386.44" style="stroke: #000000; stroke-width: 0.8"/>
      </g>
     </g>
     <g id="text_1">
      <!-- 0 -->
      <g transform="translate(59.911648 401.038437) scale(0.1 -0.1)">
       <defs>
        <path id="DejaVuSans-30" d="M 2034 4250 
Q 1547 4250 1301 3770 
Q 1056 3291 1056 2328 
Q 1056 1369 1301 889 
Q 1547 409 2034 409 
Q 2525 409 2770 889 
Q 3016 1369 3016 2328 
Q 3016 3291 2770 3770 
Q 2525 4250 2034 4250 
z
M 2034 4750 
Q 2819 4750 3233 4129 
Q 3647 3509 3647 2328 
Q 3647 1150 3233 529 
Q 2819 -91 2034 -91 
Q 1250 -91 836 529 
Q 422 1150 422 2328 
Q 422 3509 836 4129 
Q 1250 4750 2034 4750 
z
" transform="scale(0.015625)"/>
       </defs>
       <use xlink:href="#DejaVuSans-30"/>
      </g>
     </g>
    </g>
    <g id="xtick_2">
     <g id="line2d_3">
      <path d="M 103.41108 386.44 
L 103.41108 7.2 
" clip-path="url(#p3888effee7)" style="fill: none; stroke-dasharray: 2.96,1.28; stroke-dashoffset: 0; stroke: #b0b0b0; stroke-opacity: 0.6; stroke-width: 0.8"/>
     </g>
     <g id="line2d_4">
      <g>
       <use xlink:href="#m6103c18711" x="103.41108" y="386.44" style="stroke: #000000; stroke-width: 0.8"/>
      </g>
     </g>
     <g id="text_2">
      <!-- 1000 -->
      <g transform="translate(90.68608 401.038437) scale(0.1 -0.1)">
       <defs>
        <path id="DejaVuSans-31" d="M 794 531 
L 1825 531 
L 1825 4091 
L 703 3866 
L 703 4441 
L 1819 4666 
L 2450 4666 
L 2450 531 
L 3481 531 
L 3481 0 
L 794 0 
L 794 531 
z
" transform="scale(0.015625)"/>
       </defs>
       <use xlink:href="#DejaVuSans-31"/>
       <use xlink:href="#DejaVuSans-30" transform="translate(63.623047 0)"/>
       <use xlink:href="#DejaVuSans-30" transform="translate(127.246094 0)"/>
       <use xlink:href="#DejaVuSans-30" transform="translate(190.869141 0)"/>
      </g>
     </g>
    </g>
    <g id="xtick_3">
     <g id="line2d_5">
      <path d="M 143.729261 386.44 
L 143.729261 7.2 
" clip-path="url(#p3888effee7)" style="fill: none; stroke-dasharray: 2.96,1.28; stroke-dashoffset: 0; stroke: #b0b0b0; stroke-opacity: 0.6; stroke-width: 0.8"/>
     </g>
     <g id="line2d_6">
      <g>
       <use xlink:href="#m6103c18711" x="143.729261" y="386.44" style="stroke: #000000; stroke-width: 0.8"/>
      </g>
     </g>
     <g id="text_3">
      <!-- 2000 -->
      <g transform="translate(131.004261 401.038437) scale(0.1 -0.1)">
       <defs>
        <path id="DejaVuSans-32" d="M 1228 531 
L 3431 531 
L 3431 0 
L 469 0 
L 469 531 
Q 828 903 1448 1529 
Q 2069 2156 2228 2338 
Q 2531 2678 2651 2914 
Q 2772 3150 2772 3378 
Q 2772 3750 2511 3984 
Q 2250 4219 1831 4219 
Q 1534 4219 1204 4116 
Q 875 4013 500 3803 
L 500 4441 
Q 881 4594 1212 4672 
Q 1544 4750 1819 4750 
Q 2544 4750 2975 4387 
Q 3406 4025 3406 3419 
Q 3406 3131 3298 2873 
Q 3191 2616 2906 2266 
Q 2828 2175 2409 1742 
Q 1991 1309 1228 531 
z
" transform="scale(0.015625)"/>
       </defs>
       <use xlink:href="#DejaVuSans-32"/>
       <use xlink:href="#DejaVuSans-30" transform="translate(63.623047 0)"/>
       <use xlink:href="#DejaVuSans-30" transform="translate(127.246094 0)"/>
       <use xlink:href="#DejaVuSans-30" transform="translate(190.869141 0)"/>
      </g>
     </g>
    </g>
    <g id="xtick_4">
     <g id="line2d_7">
      <path d="M 184.047443 386.44 
L 184.047443 7.2 
" clip-path="url(#p3888effee7)" style="fill: none; stroke-dasharray: 2.96,1.28; stroke-dashoffset: 0; stroke: #b0b0b0; stroke-opacity: 0.6; stroke-width: 0.8"/>
     </g>
     <g id="line2d_8">
      <g>
       <use xlink:href="#m6103c18711" x="184.047443" y="386.44" style="stroke: #000000; stroke-width: 0.8"/>
      </g>
     </g>
     <g id="text_4">
      <!-- 3000 -->
      <g transform="translate(171.322443 401.038437) scale(0.1 -0.1)">
       <defs>
        <path id="DejaVuSans-33" d="M 2597 2516 
Q 3050 2419 3304 2112 
Q 3559 1806 3559 1356 
Q 3559 666 3084 287 
Q 2609 -91 1734 -91 
Q 1441 -91 1130 -33 
Q 819 25 488 141 
L 488 750 
Q 750 597 1062 519 
Q 1375 441 1716 441 
Q 2309 441 2620 675 
Q 2931 909 2931 1356 
Q 2931 1769 2642 2001 
Q 2353 2234 1838 2234 
L 1294 2234 
L 1294 2753 
L 1863 2753 
Q 2328 2753 2575 2939 
Q 2822 3125 2822 3475 
Q 2822 3834 2567 4026 
Q 2313 4219 1838 4219 
Q 1578 4219 1281 4162 
Q 984 4106 628 3988 
L 628 4550 
Q 988 4650 1302 4700 
Q 1616 4750 1894 4750 
Q 2613 4750 3031 4423 
Q 3450 4097 3450 3541 
Q 3450 3153 3228 2886 
Q 3006 2619 2597 2516 
z
" transform="scale(0.015625)"/>
       </defs>
       <use xlink:href="#DejaVuSans-33"/>
       <use xlink:href="#DejaVuSans-30" transform="translate(63.623047 0)"/>
       <use xlink:href="#DejaVuSans-30" transform="translate(127.246094 0)"/>
       <use xlink:href="#DejaVuSans-30" transform="translate(190.869141 0)"/>
      </g>
     </g>
    </g>
    <g id="xtick_5">
     <g id="line2d_9">
      <path d="M 224.365625 386.44 
L 224.365625 7.2 
" clip-path="url(#p3888effee7)" style="fill: none; stroke-dasharray: 2.96,1.28; stroke-dashoffset: 0; stroke: #b0b0b0; stroke-opacity: 0.6; stroke-width: 0.8"/>
     </g>
     <g id="line2d_10">
      <g>
       <use xlink:href="#m6103c18711" x="224.365625" y="386.44" style="stroke: #000000; stroke-width: 0.8"/>
      </g>
     </g>
     <g id="text_5">
      <!-- 4000 -->
      <g transform="translate(211.640625 401.038437) scale(0.1 -0.1)">
       <defs>
        <path id="DejaVuSans-34" d="M 2419 4116 
L 825 1625 
L 2419 1625 
L 2419 4116 
z
M 2253 4666 
L 3047 4666 
L 3047 1625 
L 3713 1625 
L 3713 1100 
L 3047 1100 
L 3047 0 
L 2419 0 
L 2419 1100 
L 313 1100 
L 313 1709 
L 2253 4666 
z
" transform="scale(0.015625)"/>
       </defs>
       <use xlink:href="#DejaVuSans-34"/>
       <use xlink:href="#DejaVuSans-30" transform="translate(63.623047 0)"/>
       <use xlink:href="#DejaVuSans-30" transform="translate(127.246094 0)"/>
       <use xlink:href="#DejaVuSans-30" transform="translate(190.869141 0)"/>
      </g>
     </g>
    </g>
    <g id="xtick_6">
     <g id="line2d_11">
      <path d="M 264.683807 386.44 
L 264.683807 7.2 
" clip-path="url(#p3888effee7)" style="fill: none; stroke-dasharray: 2.96,1.28; stroke-dashoffset: 0; stroke: #b0b0b0; stroke-opacity: 0.6; stroke-width: 0.8"/>
     </g>
     <g id="line2d_12">
      <g>
       <use xlink:href="#m6103c18711" x="264.683807" y="386.44" style="stroke: #000000; stroke-width: 0.8"/>
      </g>
     </g>
     <g id="text_6">
      <!-- 5000 -->
      <g transform="translate(251.958807 401.038437) scale(0.1 -0.1)">
       <defs>
        <path id="DejaVuSans-35" d="M 691 4666 
L 3169 4666 
L 3169 4134 
L 1269 4134 
L 1269 2991 
Q 1406 3038 1543 3061 
Q 1681 3084 1819 3084 
Q 2600 3084 3056 2656 
Q 3513 2228 3513 1497 
Q 3513 744 3044 326 
Q 2575 -91 1722 -91 
Q 1428 -91 1123 -41 
Q 819 9 494 109 
L 494 744 
Q 775 591 1075 516 
Q 1375 441 1709 441 
Q 2250 441 2565 725 
Q 2881 1009 2881 1497 
Q 2881 1984 2565 2268 
Q 2250 2553 1709 2553 
Q 1456 2553 1204 2497 
Q 953 2441 691 2322 
L 691 4666 
z
" transform="scale(0.015625)"/>
       </defs>
       <use xlink:href="#DejaVuSans-35"/>
       <use xlink:href="#DejaVuSans-30" transform="translate(63.623047 0)"/>
       <use xlink:href="#DejaVuSans-30" transform="translate(127.246094 0)"/>
       <use xlink:href="#DejaVuSans-30" transform="translate(190.869141 0)"/>
      </g>
     </g>
    </g>
    <g id="xtick_7">
     <g id="line2d_13">
      <path d="M 305.001989 386.44 
L 305.001989 7.2 
" clip-path="url(#p3888effee7)" style="fill: none; stroke-dasharray: 2.96,1.28; stroke-dashoffset: 0; stroke: #b0b0b0; stroke-opacity: 0.6; stroke-width: 0.8"/>
     </g>
     <g id="line2d_14">
      <g>
       <use xlink:href="#m6103c18711" x="305.001989" y="386.44" style="stroke: #000000; stroke-width: 0.8"/>
      </g>
     </g>
     <g id="text_7">
      <!-- 6000 -->
      <g transform="translate(292.276989 401.038437) scale(0.1 -0.1)">
       <defs>
        <path id="DejaVuSans-36" d="M 2113 2584 
Q 1688 2584 1439 2293 
Q 1191 2003 1191 1497 
Q 1191 994 1439 701 
Q 1688 409 2113 409 
Q 2538 409 2786 701 
Q 3034 994 3034 1497 
Q 3034 2003 2786 2293 
Q 2538 2584 2113 2584 
z
M 3366 4563 
L 3366 3988 
Q 3128 4100 2886 4159 
Q 2644 4219 2406 4219 
Q 1781 4219 1451 3797 
Q 1122 3375 1075 2522 
Q 1259 2794 1537 2939 
Q 1816 3084 2150 3084 
Q 2853 3084 3261 2657 
Q 3669 2231 3669 1497 
Q 3669 778 3244 343 
Q 2819 -91 2113 -91 
Q 1303 -91 875 529 
Q 447 1150 447 2328 
Q 447 3434 972 4092 
Q 1497 4750 2381 4750 
Q 2619 4750 2861 4703 
Q 3103 4656 3366 4563 
z
" transform="scale(0.015625)"/>
       </defs>
       <use xlink:href="#DejaVuSans-36"/>
       <use xlink:href="#DejaVuSans-30" transform="translate(63.623047 0)"/>
       <use xlink:href="#DejaVuSans-30" transform="translate(127.246094 0)"/>
       <use xlink:href="#DejaVuSans-30" transform="translate(190.869141 0)"/>
      </g>
     </g>
    </g>
    <g id="xtick_8">
     <g id="line2d_15">
      <path d="M 345.32017 386.44 
L 345.32017 7.2 
" clip-path="url(#p3888effee7)" style="fill: none; stroke-dasharray: 2.96,1.28; stroke-dashoffset: 0; stroke: #b0b0b0; stroke-opacity: 0.6; stroke-width: 0.8"/>
     </g>
     <g id="line2d_16">
      <g>
       <use xlink:href="#m6103c18711" x="345.32017" y="386.44" style="stroke: #000000; stroke-width: 0.8"/>
      </g>
     </g>
     <g id="text_8">
      <!-- 7000 -->
      <g transform="translate(332.59517 401.038437) scale(0.1 -0.1)">
       <defs>
        <path id="DejaVuSans-37" d="M 525 4666 
L 3525 4666 
L 3525 4397 
L 1831 0 
L 1172 0 
L 2766 4134 
L 525 4134 
L 525 4666 
z
" transform="scale(0.015625)"/>
       </defs>
       <use xlink:href="#DejaVuSans-37"/>
       <use xlink:href="#DejaVuSans-30" transform="translate(63.623047 0)"/>
       <use xlink:href="#DejaVuSans-30" transform="translate(127.246094 0)"/>
       <use xlink:href="#DejaVuSans-30" transform="translate(190.869141 0)"/>
      </g>
     </g>
    </g>
    <g id="xtick_9">
     <g id="line2d_17">
      <path d="M 385.638352 386.44 
L 385.638352 7.2 
" clip-path="url(#p3888effee7)" style="fill: none; stroke-dasharray: 2.96,1.28; stroke-dashoffset: 0; stroke: #b0b0b0; stroke-opacity: 0.6; stroke-width: 0.8"/>
     </g>
     <g id="line2d_18">
      <g>
       <use xlink:href="#m6103c18711" x="385.638352" y="386.44" style="stroke: #000000; stroke-width: 0.8"/>
      </g>
     </g>
     <g id="text_9">
      <!-- 8000 -->
      <g transform="translate(372.913352 401.038437) scale(0.1 -0.1)">
       <defs>
        <path id="DejaVuSans-38" d="M 2034 2216 
Q 1584 2216 1326 1975 
Q 1069 1734 1069 1313 
Q 1069 891 1326 650 
Q 1584 409 2034 409 
Q 2484 409 2743 651 
Q 3003 894 3003 1313 
Q 3003 1734 2745 1975 
Q 2488 2216 2034 2216 
z
M 1403 2484 
Q 997 2584 770 2862 
Q 544 3141 544 3541 
Q 544 4100 942 4425 
Q 1341 4750 2034 4750 
Q 2731 4750 3128 4425 
Q 3525 4100 3525 3541 
Q 3525 3141 3298 2862 
Q 3072 2584 2669 2484 
Q 3125 2378 3379 2068 
Q 3634 1759 3634 1313 
Q 3634 634 3220 271 
Q 2806 -91 2034 -91 
Q 1263 -91 848 271 
Q 434 634 434 1313 
Q 434 1759 690 2068 
Q 947 2378 1403 2484 
z
M 1172 3481 
Q 1172 3119 1398 2916 
Q 1625 2713 2034 2713 
Q 2441 2713 2670 2916 
Q 2900 3119 2900 3481 
Q 2900 3844 2670 4047 
Q 2441 4250 2034 4250 
Q 1625 4250 1398 4047 
Q 1172 3844 1172 3481 
z
" transform="scale(0.015625)"/>
       </defs>
       <use xlink:href="#DejaVuSans-38"/>
       <use xlink:href="#DejaVuSans-30" transform="translate(63.623047 0)"/>
       <use xlink:href="#DejaVuSans-30" transform="translate(127.246094 0)"/>
       <use xlink:href="#DejaVuSans-30" transform="translate(190.869141 0)"/>
      </g>
     </g>
    </g>
    <g id="text_10">
     <!-- Distance from terminus [nt] -->
     <g transform="translate(154.866406 414.716562) scale(0.1 -0.1)">
      <defs>
       <path id="DejaVuSans-44" d="M 1259 4147 
L 1259 519 
L 2022 519 
Q 2988 519 3436 956 
Q 3884 1394 3884 2338 
Q 3884 3275 3436 3711 
Q 2988 4147 2022 4147 
L 1259 4147 
z
M 628 4666 
L 1925 4666 
Q 3281 4666 3915 4102 
Q 4550 3538 4550 2338 
Q 4550 1131 3912 565 
Q 3275 0 1925 0 
L 628 0 
L 628 4666 
z
" transform="scale(0.015625)"/>
       <path id="DejaVuSans-69" d="M 603 3500 
L 1178 3500 
L 1178 0 
L 603 0 
L 603 3500 
z
M 603 4863 
L 1178 4863 
L 1178 4134 
L 603 4134 
L 603 4863 
z
" transform="scale(0.015625)"/>
       <path id="DejaVuSans-73" d="M 2834 3397 
L 2834 2853 
Q 2591 2978 2328 3040 
Q 2066 3103 1784 3103 
Q 1356 3103 1142 2972 
Q 928 2841 928 2578 
Q 928 2378 1081 2264 
Q 1234 2150 1697 2047 
L 1894 2003 
Q 2506 1872 2764 1633 
Q 3022 1394 3022 966 
Q 3022 478 2636 193 
Q 2250 -91 1575 -91 
Q 1294 -91 989 -36 
Q 684 19 347 128 
L 347 722 
Q 666 556 975 473 
Q 1284 391 1588 391 
Q 1994 391 2212 530 
Q 2431 669 2431 922 
Q 2431 1156 2273 1281 
Q 2116 1406 1581 1522 
L 1381 1569 
Q 847 1681 609 1914 
Q 372 2147 372 2553 
Q 372 3047 722 3315 
Q 1072 3584 1716 3584 
Q 2034 3584 2315 3537 
Q 2597 3491 2834 3397 
z
" transform="scale(0.015625)"/>
       <path id="DejaVuSans-74" d="M 1172 4494 
L 1172 3500 
L 2356 3500 
L 2356 3053 
L 1172 3053 
L 1172 1153 
Q 1172 725 1289 603 
Q 1406 481 1766 481 
L 2356 481 
L 2356 0 
L 1766 0 
Q 1100 0 847 248 
Q 594 497 594 1153 
L 594 3053 
L 172 3053 
L 172 3500 
L 594 3500 
L 594 4494 
L 1172 4494 
z
" transform="scale(0.015625)"/>
       <path id="DejaVuSans-61" d="M 2194 1759 
Q 1497 1759 1228 1600 
Q 959 1441 959 1056 
Q 959 750 1161 570 
Q 1363 391 1709 391 
Q 2188 391 2477 730 
Q 2766 1069 2766 1631 
L 2766 1759 
L 2194 1759 
z
M 3341 1997 
L 3341 0 
L 2766 0 
L 2766 531 
Q 2569 213 2275 61 
Q 1981 -91 1556 -91 
Q 1019 -91 701 211 
Q 384 513 384 1019 
Q 384 1609 779 1909 
Q 1175 2209 1959 2209 
L 2766 2209 
L 2766 2266 
Q 2766 2663 2505 2880 
Q 2244 3097 1772 3097 
Q 1472 3097 1187 3025 
Q 903 2953 641 2809 
L 641 3341 
Q 956 3463 1253 3523 
Q 1550 3584 1831 3584 
Q 2591 3584 2966 3190 
Q 3341 2797 3341 1997 
z
" transform="scale(0.015625)"/>
       <path id="DejaVuSans-6e" d="M 3513 2113 
L 3513 0 
L 2938 0 
L 2938 2094 
Q 2938 2591 2744 2837 
Q 2550 3084 2163 3084 
Q 1697 3084 1428 2787 
Q 1159 2491 1159 1978 
L 1159 0 
L 581 0 
L 581 3500 
L 1159 3500 
L 1159 2956 
Q 1366 3272 1645 3428 
Q 1925 3584 2291 3584 
Q 2894 3584 3203 3211 
Q 3513 2838 3513 2113 
z
" transform="scale(0.015625)"/>
       <path id="DejaVuSans-63" d="M 3122 3366 
L 3122 2828 
Q 2878 2963 2633 3030 
Q 2388 3097 2138 3097 
Q 1578 3097 1268 2742 
Q 959 2388 959 1747 
Q 959 1106 1268 751 
Q 1578 397 2138 397 
Q 2388 397 2633 464 
Q 2878 531 3122 666 
L 3122 134 
Q 2881 22 2623 -34 
Q 2366 -91 2075 -91 
Q 1284 -91 818 406 
Q 353 903 353 1747 
Q 353 2603 823 3093 
Q 1294 3584 2113 3584 
Q 2378 3584 2631 3529 
Q 2884 3475 3122 3366 
z
" transform="scale(0.015625)"/>
       <path id="DejaVuSans-65" d="M 3597 1894 
L 3597 1613 
L 953 1613 
Q 991 1019 1311 708 
Q 1631 397 2203 397 
Q 2534 397 2845 478 
Q 3156 559 3463 722 
L 3463 178 
Q 3153 47 2828 -22 
Q 2503 -91 2169 -91 
Q 1331 -91 842 396 
Q 353 884 353 1716 
Q 353 2575 817 3079 
Q 1281 3584 2069 3584 
Q 2775 3584 3186 3129 
Q 3597 2675 3597 1894 
z
M 3022 2063 
Q 3016 2534 2758 2815 
Q 2500 3097 2075 3097 
Q 1594 3097 1305 2825 
Q 1016 2553 972 2059 
L 3022 2063 
z
" transform="scale(0.015625)"/>
       <path id="DejaVuSans-20" transform="scale(0.015625)"/>
       <path id="DejaVuSans-66" d="M 2375 4863 
L 2375 4384 
L 1825 4384 
Q 1516 4384 1395 4259 
Q 1275 4134 1275 3809 
L 1275 3500 
L 2222 3500 
L 2222 3053 
L 1275 3053 
L 1275 0 
L 697 0 
L 697 3053 
L 147 3053 
L 147 3500 
L 697 3500 
L 697 3744 
Q 697 4328 969 4595 
Q 1241 4863 1831 4863 
L 2375 4863 
z
" transform="scale(0.015625)"/>
       <path id="DejaVuSans-72" d="M 2631 2963 
Q 2534 3019 2420 3045 
Q 2306 3072 2169 3072 
Q 1681 3072 1420 2755 
Q 1159 2438 1159 1844 
L 1159 0 
L 581 0 
L 581 3500 
L 1159 3500 
L 1159 2956 
Q 1341 3275 1631 3429 
Q 1922 3584 2338 3584 
Q 2397 3584 2469 3576 
Q 2541 3569 2628 3553 
L 2631 2963 
z
" transform="scale(0.015625)"/>
       <path id="DejaVuSans-6f" d="M 1959 3097 
Q 1497 3097 1228 2736 
Q 959 2375 959 1747 
Q 959 1119 1226 758 
Q 1494 397 1959 397 
Q 2419 397 2687 759 
Q 2956 1122 2956 1747 
Q 2956 2369 2687 2733 
Q 2419 3097 1959 3097 
z
M 1959 3584 
Q 2709 3584 3137 3096 
Q 3566 2609 3566 1747 
Q 3566 888 3137 398 
Q 2709 -91 1959 -91 
Q 1206 -91 779 398 
Q 353 888 353 1747 
Q 353 2609 779 3096 
Q 1206 3584 1959 3584 
z
" transform="scale(0.015625)"/>
       <path id="DejaVuSans-6d" d="M 3328 2828 
Q 3544 3216 3844 3400 
Q 4144 3584 4550 3584 
Q 5097 3584 5394 3201 
Q 5691 2819 5691 2113 
L 5691 0 
L 5113 0 
L 5113 2094 
Q 5113 2597 4934 2840 
Q 4756 3084 4391 3084 
Q 3944 3084 3684 2787 
Q 3425 2491 3425 1978 
L 3425 0 
L 2847 0 
L 2847 2094 
Q 2847 2600 2669 2842 
Q 2491 3084 2119 3084 
Q 1678 3084 1418 2786 
Q 1159 2488 1159 1978 
L 1159 0 
L 581 0 
L 581 3500 
L 1159 3500 
L 1159 2956 
Q 1356 3278 1631 3431 
Q 1906 3584 2284 3584 
Q 2666 3584 2933 3390 
Q 3200 3197 3328 2828 
z
" transform="scale(0.015625)"/>
       <path id="DejaVuSans-75" d="M 544 1381 
L 544 3500 
L 1119 3500 
L 1119 1403 
Q 1119 906 1312 657 
Q 1506 409 1894 409 
Q 2359 409 2629 706 
Q 2900 1003 2900 1516 
L 2900 3500 
L 3475 3500 
L 3475 0 
L 2900 0 
L 2900 538 
Q 2691 219 2414 64 
Q 2138 -91 1772 -91 
Q 1169 -91 856 284 
Q 544 659 544 1381 
z
M 1991 3584 
L 1991 3584 
z
" transform="scale(0.015625)"/>
       <path id="DejaVuSans-5b" d="M 550 4863 
L 1875 4863 
L 1875 4416 
L 1125 4416 
L 1125 -397 
L 1875 -397 
L 1875 -844 
L 550 -844 
L 550 4863 
z
" transform="scale(0.015625)"/>
       <path id="DejaVuSans-5d" d="M 1947 4863 
L 1947 -844 
L 622 -844 
L 622 -397 
L 1369 -397 
L 1369 4416 
L 622 4416 
L 622 4863 
L 1947 4863 
z
" transform="scale(0.015625)"/>
      </defs>
      <use xlink:href="#DejaVuSans-44"/>
      <use xlink:href="#DejaVuSans-69" transform="translate(77.001953 0)"/>
      <use xlink:href="#DejaVuSans-73" transform="translate(104.785156 0)"/>
      <use xlink:href="#DejaVuSans-74" transform="translate(156.884766 0)"/>
      <use xlink:href="#DejaVuSans-61" transform="translate(196.09375 0)"/>
      <use xlink:href="#DejaVuSans-6e" transform="translate(257.373047 0)"/>
      <use xlink:href="#DejaVuSans-63" transform="translate(320.751953 0)"/>
      <use xlink:href="#DejaVuSans-65" transform="translate(375.732422 0)"/>
      <use xlink:href="#DejaVuSans-20" transform="translate(437.255859 0)"/>
      <use xlink:href="#DejaVuSans-66" transform="translate(469.042969 0)"/>
      <use xlink:href="#DejaVuSans-72" transform="translate(504.248047 0)"/>
      <use xlink:href="#DejaVuSans-6f" transform="translate(543.111328 0)"/>
      <use xlink:href="#DejaVuSans-6d" transform="translate(604.292969 0)"/>
      <use xlink:href="#DejaVuSans-20" transform="translate(701.705078 0)"/>
      <use xlink:href="#DejaVuSans-74" transform="translate(733.492188 0)"/>
      <use xlink:href="#DejaVuSans-65" transform="translate(772.701172 0)"/>
      <use xlink:href="#DejaVuSans-72" transform="translate(834.224609 0)"/>
      <use xlink:href="#DejaVuSans-6d" transform="translate(873.587891 0)"/>
      <use xlink:href="#DejaVuSans-69" transform="translate(971 0)"/>
      <use xlink:href="#DejaVuSans-6e" transform="translate(998.783203 0)"/>
      <use xlink:href="#DejaVuSans-75" transform="translate(1062.162109 0)"/>
      <use xlink:href="#DejaVuSans-73" transform="translate(1125.541016 0)"/>
      <use xlink:href="#DejaVuSans-20" transform="translate(1177.640625 0)"/>
      <use xlink:href="#DejaVuSans-5b" transform="translate(1209.427734 0)"/>
      <use xlink:href="#DejaVuSans-6e" transform="translate(1248.441406 0)"/>
      <use xlink:href="#DejaVuSans-74" transform="translate(1311.820312 0)"/>
      <use xlink:href="#DejaVuSans-5d" transform="translate(1351.029297 0)"/>
     </g>
    </g>
   </g>
   <g id="matplotlib.axis_2">
    <g id="ytick_1">
     <g id="line2d_19">
      <path d="M 46.965625 369.201818 
L 401.765625 369.201818 
" clip-path="url(#p3888effee7)" style="fill: none; stroke-dasharray: 2.96,1.28; stroke-dashoffset: 0; stroke: #b0b0b0; stroke-opacity: 0.6; stroke-width: 0.8"/>
     </g>
     <g id="line2d_20">
      <defs>
       <path id="m0ccc69c2d5" d="M 0 0 
L -3.5 0 
" style="stroke: #000000; stroke-width: 0.8"/>
      </defs>
      <g>
       <use xlink:href="#m0ccc69c2d5" x="46.965625" y="369.201818" style="stroke: #000000; stroke-width: 0.8"/>
      </g>
     </g>
     <g id="text_11">
      <!-- 0 -->
      <g transform="translate(33.603125 373.001037) scale(0.1 -0.1)">
       <use xlink:href="#DejaVuSans-30"/>
      </g>
     </g>
    </g>
    <g id="ytick_2">
     <g id="line2d_21">
      <path d="M 46.965625 313.270015 
L 401.765625 313.270015 
" clip-path="url(#p3888effee7)" style="fill: none; stroke-dasharray: 2.96,1.28; stroke-dashoffset: 0; stroke: #b0b0b0; stroke-opacity: 0.6; stroke-width: 0.8"/>
     </g>
     <g id="line2d_22">
      <g>
       <use xlink:href="#m0ccc69c2d5" x="46.965625" y="313.270015" style="stroke: #000000; stroke-width: 0.8"/>
      </g>
     </g>
     <g id="text_12">
      <!-- 50 -->
      <g transform="translate(27.240625 317.069233) scale(0.1 -0.1)">
       <use xlink:href="#DejaVuSans-35"/>
       <use xlink:href="#DejaVuSans-30" transform="translate(63.623047 0)"/>
      </g>
     </g>
    </g>
    <g id="ytick_3">
     <g id="line2d_23">
      <path d="M 46.965625 257.338211 
L 401.765625 257.338211 
" clip-path="url(#p3888effee7)" style="fill: none; stroke-dasharray: 2.96,1.28; stroke-dashoffset: 0; stroke: #b0b0b0; stroke-opacity: 0.6; stroke-width: 0.8"/>
     </g>
     <g id="line2d_24">
      <g>
       <use xlink:href="#m0ccc69c2d5" x="46.965625" y="257.338211" style="stroke: #000000; stroke-width: 0.8"/>
      </g>
     </g>
     <g id="text_13">
      <!-- 100 -->
      <g transform="translate(20.878125 261.13743) scale(0.1 -0.1)">
       <use xlink:href="#DejaVuSans-31"/>
       <use xlink:href="#DejaVuSans-30" transform="translate(63.623047 0)"/>
       <use xlink:href="#DejaVuSans-30" transform="translate(127.246094 0)"/>
      </g>
     </g>
    </g>
    <g id="ytick_4">
     <g id="line2d_25">
      <path d="M 46.965625 201.406408 
L 401.765625 201.406408 
" clip-path="url(#p3888effee7)" style="fill: none; stroke-dasharray: 2.96,1.28; stroke-dashoffset: 0; stroke: #b0b0b0; stroke-opacity: 0.6; stroke-width: 0.8"/>
     </g>
     <g id="line2d_26">
      <g>
       <use xlink:href="#m0ccc69c2d5" x="46.965625" y="201.406408" style="stroke: #000000; stroke-width: 0.8"/>
      </g>
     </g>
     <g id="text_14">
      <!-- 150 -->
      <g transform="translate(20.878125 205.205627) scale(0.1 -0.1)">
       <use xlink:href="#DejaVuSans-31"/>
       <use xlink:href="#DejaVuSans-35" transform="translate(63.623047 0)"/>
       <use xlink:href="#DejaVuSans-30" transform="translate(127.246094 0)"/>
      </g>
     </g>
    </g>
    <g id="ytick_5">
     <g id="line2d_27">
      <path d="M 46.965625 145.474604 
L 401.765625 145.474604 
" clip-path="url(#p3888effee7)" style="fill: none; stroke-dasharray: 2.96,1.28; stroke-dashoffset: 0; stroke: #b0b0b0; stroke-opacity: 0.6; stroke-width: 0.8"/>
     </g>
     <g id="line2d_28">
      <g>
       <use xlink:href="#m0ccc69c2d5" x="46.965625" y="145.474604" style="stroke: #000000; stroke-width: 0.8"/>
      </g>
     </g>
     <g id="text_15">
      <!-- 200 -->
      <g transform="translate(20.878125 149.273823) scale(0.1 -0.1)">
       <use xlink:href="#DejaVuSans-32"/>
       <use xlink:href="#DejaVuSans-30" transform="translate(63.623047 0)"/>
       <use xlink:href="#DejaVuSans-30" transform="translate(127.246094 0)"/>
      </g>
     </g>
    </g>
    <g id="ytick_6">
     <g id="line2d_29">
      <path d="M 46.965625 89.542801 
L 401.765625 89.542801 
" clip-path="url(#p3888effee7)" style="fill: none; stroke-dasharray: 2.96,1.28; stroke-dashoffset: 0; stroke: #b0b0b0; stroke-opacity: 0.6; stroke-width: 0.8"/>
     </g>
     <g id="line2d_30">
      <g>
       <use xlink:href="#m0ccc69c2d5" x="46.965625" y="89.542801" style="stroke: #000000; stroke-width: 0.8"/>
      </g>
     </g>
     <g id="text_16">
      <!-- 250 -->
      <g transform="translate(20.878125 93.34202) scale(0.1 -0.1)">
       <use xlink:href="#DejaVuSans-32"/>
       <use xlink:href="#DejaVuSans-35" transform="translate(63.623047 0)"/>
       <use xlink:href="#DejaVuSans-30" transform="translate(127.246094 0)"/>
      </g>
     </g>
    </g>
    <g id="ytick_7">
     <g id="line2d_31">
      <path d="M 46.965625 33.610998 
L 401.765625 33.610998 
" clip-path="url(#p3888effee7)" style="fill: none; stroke-dasharray: 2.96,1.28; stroke-dashoffset: 0; stroke: #b0b0b0; stroke-opacity: 0.6; stroke-width: 0.8"/>
     </g>
     <g id="line2d_32">
      <g>
       <use xlink:href="#m0ccc69c2d5" x="46.965625" y="33.610998" style="stroke: #000000; stroke-width: 0.8"/>
      </g>
     </g>
     <g id="text_17">
      <!-- 300 -->
      <g transform="translate(20.878125 37.410216) scale(0.1 -0.1)">
       <use xlink:href="#DejaVuSans-33"/>
       <use xlink:href="#DejaVuSans-30" transform="translate(63.623047 0)"/>
       <use xlink:href="#DejaVuSans-30" transform="translate(127.246094 0)"/>
      </g>
     </g>
    </g>
    <g id="text_18">
     <!-- Average cumulative count -->
     <g transform="translate(14.798438 262.4325) rotate(-90) scale(0.1 -0.1)">
      <defs>
       <path id="DejaVuSans-41" d="M 2188 4044 
L 1331 1722 
L 3047 1722 
L 2188 4044 
z
M 1831 4666 
L 2547 4666 
L 4325 0 
L 3669 0 
L 3244 1197 
L 1141 1197 
L 716 0 
L 50 0 
L 1831 4666 
z
" transform="scale(0.015625)"/>
       <path id="DejaVuSans-76" d="M 191 3500 
L 800 3500 
L 1894 563 
L 2988 3500 
L 3597 3500 
L 2284 0 
L 1503 0 
L 191 3500 
z
" transform="scale(0.015625)"/>
       <path id="DejaVuSans-67" d="M 2906 1791 
Q 2906 2416 2648 2759 
Q 2391 3103 1925 3103 
Q 1463 3103 1205 2759 
Q 947 2416 947 1791 
Q 947 1169 1205 825 
Q 1463 481 1925 481 
Q 2391 481 2648 825 
Q 2906 1169 2906 1791 
z
M 3481 434 
Q 3481 -459 3084 -895 
Q 2688 -1331 1869 -1331 
Q 1566 -1331 1297 -1286 
Q 1028 -1241 775 -1147 
L 775 -588 
Q 1028 -725 1275 -790 
Q 1522 -856 1778 -856 
Q 2344 -856 2625 -561 
Q 2906 -266 2906 331 
L 2906 616 
Q 2728 306 2450 153 
Q 2172 0 1784 0 
Q 1141 0 747 490 
Q 353 981 353 1791 
Q 353 2603 747 3093 
Q 1141 3584 1784 3584 
Q 2172 3584 2450 3431 
Q 2728 3278 2906 2969 
L 2906 3500 
L 3481 3500 
L 3481 434 
z
" transform="scale(0.015625)"/>
       <path id="DejaVuSans-6c" d="M 603 4863 
L 1178 4863 
L 1178 0 
L 603 0 
L 603 4863 
z
" transform="scale(0.015625)"/>
      </defs>
      <use xlink:href="#DejaVuSans-41"/>
      <use xlink:href="#DejaVuSans-76" transform="translate(62.533203 0)"/>
      <use xlink:href="#DejaVuSans-65" transform="translate(121.712891 0)"/>
      <use xlink:href="#DejaVuSans-72" transform="translate(183.236328 0)"/>
      <use xlink:href="#DejaVuSans-61" transform="translate(224.349609 0)"/>
      <use xlink:href="#DejaVuSans-67" transform="translate(285.628906 0)"/>
      <use xlink:href="#DejaVuSans-65" transform="translate(349.105469 0)"/>
      <use xlink:href="#DejaVuSans-20" transform="translate(410.628906 0)"/>
      <use xlink:href="#DejaVuSans-63" transform="translate(442.416016 0)"/>
      <use xlink:href="#DejaVuSans-75" transform="translate(497.396484 0)"/>
      <use xlink:href="#DejaVuSans-6d" transform="translate(560.775391 0)"/>
      <use xlink:href="#DejaVuSans-75" transform="translate(658.1875 0)"/>
      <use xlink:href="#DejaVuSans-6c" transform="translate(721.566406 0)"/>
      <use xlink:href="#DejaVuSans-61" transform="translate(749.349609 0)"/>
      <use xlink:href="#DejaVuSans-74" transform="translate(810.628906 0)"/>
      <use xlink:href="#DejaVuSans-69" transform="translate(849.837891 0)"/>
      <use xlink:href="#DejaVuSans-76" transform="translate(877.621094 0)"/>
      <use xlink:href="#DejaVuSans-65" transform="translate(936.800781 0)"/>
      <use xlink:href="#DejaVuSans-20" transform="translate(998.324219 0)"/>
      <use xlink:href="#DejaVuSans-63" transform="translate(1030.111328 0)"/>
      <use xlink:href="#DejaVuSans-6f" transform="translate(1085.091797 0)"/>
      <use xlink:href="#DejaVuSans-75" transform="translate(1146.273438 0)"/>
      <use xlink:href="#DejaVuSans-6e" transform="translate(1209.652344 0)"/>
      <use xlink:href="#DejaVuSans-74" transform="translate(1273.03125 0)"/>
     </g>
    </g>
   </g>
   <g id="line2d_33">
    <path d="M 63.092898 369.201818 
L 126.23117 369.201818 
L 126.352125 368.978091 
L 130.504898 368.978091 
L 130.625852 368.754364 
L 130.948398 368.754364 
L 131.069352 368.530637 
L 131.391898 368.530637 
L 131.512852 368.306909 
L 133.085261 368.306909 
L 133.206216 368.083182 
L 136.552625 368.083182 
L 136.67358 367.859455 
L 138.528216 367.859455 
L 138.64917 367.635728 
L 138.971716 367.635728 
L 139.09267 367.412 
L 139.415216 367.412 
L 139.53617 367.188273 
L 141.10858 367.188273 
L 141.229534 366.964546 
L 144.575943 366.964546 
L 144.696898 366.740819 
L 163.444852 366.740819 
L 163.565807 366.517092 
L 183.44267 366.517092 
L 183.563625 366.293364 
L 184.732852 366.293364 
L 184.853807 366.069637 
L 187.595443 366.069637 
L 187.716398 365.84591 
L 193.401261 365.84591 
L 193.522216 365.622183 
L 193.683489 365.622183 
L 193.804443 365.398456 
L 197.715307 365.398456 
L 197.836261 365.174728 
L 203.84367 365.174728 
L 203.964625 364.951001 
L 276.537352 364.951001 
L 276.658307 364.727274 
L 284.721943 364.727274 
L 284.842898 364.503547 
L 287.46358 364.503547 
L 287.584534 364.279819 
L 287.786125 364.279819 
L 287.90708 364.056092 
L 290.003625 364.056092 
L 290.12458 363.832365 
L 295.688489 363.832365 
L 295.809443 363.608638 
L 298.75267 363.608638 
L 298.873625 363.384911 
L 300.97017 363.384911 
L 301.091125 363.161183 
L 385.598034 363.161183 
L 385.598034 363.161183 
" clip-path="url(#p3888effee7)" style="fill: none; stroke: #add8e6; stroke-width: 2; stroke-linecap: square"/>
   </g>
   <g id="line2d_34">
    <path d="M 63.092898 369.201818 
L 305.727716 369.201818 
L 305.84867 368.978091 
L 313.307534 368.978091 
L 313.428489 368.754364 
L 385.598034 368.754364 
L 385.598034 368.754364 
" clip-path="url(#p3888effee7)" style="fill: none; stroke: #6495ed; stroke-width: 2; stroke-linecap: square"/>
   </g>
   <g id="line2d_35">
    <path d="M 63.092898 368.978091 
L 63.213852 368.754364 
L 63.294489 368.754364 
L 63.415443 368.530637 
L 63.49608 368.530637 
L 63.657352 368.083182 
L 63.737989 368.083182 
L 63.858943 367.859455 
L 63.93958 367.859455 
L 64.100852 367.412 
L 64.423398 367.412 
L 64.58467 366.964546 
L 64.866898 366.964546 
L 64.987852 366.517092 
L 65.149125 366.517092 
L 65.391034 365.622183 
L 65.632943 365.622183 
L 65.874852 364.727274 
L 66.15708 364.727274 
L 66.35867 364.056092 
L 66.640898 364.056092 
L 66.761852 363.608638 
L 67.084398 363.608638 
L 67.205352 363.161183 
L 67.366625 363.161183 
L 67.48758 362.937456 
L 67.527898 362.937456 
L 67.68917 362.266275 
L 67.971398 362.266275 
L 68.13267 361.595093 
L 68.414898 361.595093 
L 68.57617 360.923911 
L 68.697125 360.923911 
L 68.81808 360.700184 
L 68.858398 360.700184 
L 69.01967 359.805275 
L 69.301898 359.805275 
L 69.46317 358.910366 
L 69.745398 358.910366 
L 69.90667 358.239185 
L 70.188898 358.239185 
L 70.35017 357.568003 
L 70.632398 357.568003 
L 70.79367 356.673094 
L 70.954943 356.673094 
L 71.196852 355.778185 
L 71.398443 355.778185 
L 71.640352 354.883277 
L 71.841943 354.883277 
L 72.043534 354.212095 
L 72.285443 354.212095 
L 72.527352 353.317186 
L 72.80958 353.317186 
L 73.051489 352.422277 
L 73.25308 352.422277 
L 73.494989 351.527368 
L 73.69658 351.527368 
L 73.938489 350.632459 
L 74.14008 350.632459 
L 74.422307 349.513823 
L 74.58358 349.513823 
L 74.825489 348.618915 
L 75.02708 348.618915 
L 75.309307 347.500278 
L 75.47058 347.500278 
L 75.67217 346.829097 
L 75.91408 346.829097 
L 76.11567 346.157915 
L 76.155989 346.157915 
L 76.276943 345.934188 
L 76.35758 345.934188 
L 76.639807 344.815552 
L 76.80108 344.815552 
L 77.083307 343.696916 
L 77.24458 343.696916 
L 77.44617 343.025734 
L 77.486489 343.025734 
L 77.607443 342.802007 
L 77.68808 342.802007 
L 77.970307 341.683371 
L 78.13158 341.683371 
L 78.33317 341.012189 
L 78.373489 341.012189 
L 78.494443 340.788462 
L 78.57508 340.788462 
L 78.857307 339.669826 
L 79.01858 339.669826 
L 79.300807 338.55119 
L 79.46208 338.55119 
L 79.744307 337.432554 
L 79.90558 337.432554 
L 80.187807 336.313918 
L 80.34908 336.313918 
L 80.631307 335.195282 
L 80.79258 335.195282 
L 81.074807 334.076646 
L 81.23608 334.076646 
L 81.518307 332.95801 
L 81.67958 332.95801 
L 81.961807 331.839373 
L 82.12308 331.839373 
L 82.32467 331.168192 
L 82.364989 331.168192 
L 82.485943 330.944465 
L 82.56658 330.944465 
L 82.848807 329.825829 
L 83.01008 329.825829 
L 83.292307 328.707192 
L 83.45358 328.707192 
L 83.735807 327.588556 
L 83.89708 327.588556 
L 84.179307 326.46992 
L 84.34058 326.46992 
L 84.622807 325.351284 
L 84.78408 325.351284 
L 85.066307 324.232648 
L 85.22758 324.232648 
L 85.509807 323.114012 
L 85.67108 323.114012 
L 85.953307 321.995376 
L 86.11458 321.995376 
L 86.396807 320.87674 
L 86.55808 320.87674 
L 86.840307 319.758104 
L 87.00158 319.758104 
L 87.283807 318.639468 
L 87.44508 318.639468 
L 87.727307 317.520832 
L 87.88858 317.520832 
L 88.170807 316.402196 
L 88.33208 316.402196 
L 88.573989 315.507287 
L 88.77558 315.507287 
L 89.017489 314.612378 
L 89.057807 314.612378 
L 89.178761 314.388651 
L 89.21908 314.388651 
L 89.460989 313.493742 
L 89.501307 313.493742 
L 89.622261 313.270015 
L 89.702898 313.270015 
L 89.86417 312.598833 
L 89.944807 312.598833 
L 90.065761 312.375106 
L 90.146398 312.375106 
L 90.30767 311.480197 
L 90.388307 311.480197 
L 90.509261 311.25647 
L 90.589898 311.25647 
L 90.75117 310.361561 
L 90.872125 310.361561 
L 90.99308 310.137834 
L 91.033398 310.137834 
L 91.154352 309.466652 
L 91.315625 309.466652 
L 91.43658 309.242925 
L 91.476898 309.242925 
L 91.63817 308.348016 
L 91.920398 308.348016 
L 92.08167 307.453107 
L 92.363898 307.453107 
L 92.52517 306.558198 
L 92.807398 306.558198 
L 92.96867 305.663289 
L 93.089625 305.439562 
L 93.250898 305.439562 
L 93.41217 304.544653 
L 93.533125 304.320926 
L 93.694398 304.320926 
L 93.85567 303.426017 
L 93.976625 303.20229 
L 94.137898 303.20229 
L 94.29917 302.307381 
L 94.420125 302.083654 
L 94.581398 302.083654 
L 94.74267 301.412472 
L 94.863625 301.188745 
L 95.024898 301.188745 
L 95.18617 300.517564 
L 95.347443 300.070109 
L 95.468398 300.070109 
L 95.62967 299.398927 
L 95.790943 298.951473 
L 95.911898 298.951473 
L 96.07317 298.280291 
L 96.234443 297.832837 
L 96.355398 297.832837 
L 96.51667 297.161655 
L 96.677943 296.714201 
L 96.798898 296.714201 
L 96.96017 296.043019 
L 97.121443 295.595565 
L 97.242398 295.595565 
L 97.40367 294.924383 
L 97.564943 294.476929 
L 97.685898 294.476929 
L 97.806852 294.029474 
L 97.84717 294.029474 
L 98.008443 293.58202 
L 98.129398 293.58202 
L 98.250352 293.134566 
L 98.29067 293.134566 
L 98.451943 292.687111 
L 98.572898 292.687111 
L 98.73417 292.015929 
L 98.895443 291.568475 
L 99.016398 291.568475 
L 99.17767 290.897293 
L 99.258307 290.897293 
L 99.379261 290.673566 
L 99.459898 290.673566 
L 99.62117 290.002385 
L 99.661489 290.002385 
L 99.822761 289.55493 
L 99.903398 289.55493 
L 100.024352 289.107476 
L 100.104989 289.107476 
L 100.266261 288.660021 
L 100.346898 288.660021 
L 100.50817 287.98884 
L 100.548489 287.98884 
L 100.709761 287.541385 
L 100.790398 287.541385 
L 100.95167 286.870204 
L 100.991989 286.870204 
L 101.153261 286.422749 
L 101.233898 286.422749 
L 101.39517 285.751567 
L 101.475807 285.751567 
L 101.596761 285.52784 
L 101.677398 285.52784 
L 101.83867 284.856659 
L 101.919307 284.856659 
L 102.040261 284.632931 
L 102.120898 284.632931 
L 102.28217 283.738023 
L 102.362807 283.738023 
L 102.483761 283.514295 
L 102.564398 283.514295 
L 102.72567 282.619386 
L 102.806307 282.619386 
L 102.927261 282.395659 
L 103.007898 282.395659 
L 103.16917 281.50075 
L 103.249807 281.50075 
L 103.370761 281.277023 
L 103.451398 281.277023 
L 103.61267 280.382114 
L 103.693307 280.382114 
L 103.814261 280.158387 
L 103.894898 280.158387 
L 104.05617 279.487205 
L 104.136807 279.487205 
L 104.257761 279.263478 
L 104.338398 279.263478 
L 104.49967 278.368569 
L 104.580307 278.368569 
L 104.701261 278.144842 
L 104.781898 278.144842 
L 104.94317 277.249933 
L 105.023807 277.249933 
L 105.144761 277.026206 
L 105.225398 277.026206 
L 105.38667 276.131297 
L 105.467307 276.131297 
L 105.588261 275.90757 
L 105.668898 275.90757 
L 105.83017 275.012661 
L 105.910807 275.012661 
L 106.031761 274.788934 
L 106.112398 274.788934 
L 106.27367 273.894025 
L 106.354307 273.894025 
L 106.475261 273.670298 
L 106.555898 273.670298 
L 106.71717 272.775389 
L 106.797807 272.775389 
L 106.918761 272.551662 
L 106.999398 272.551662 
L 107.16067 271.656753 
L 107.241307 271.656753 
L 107.362261 271.433026 
L 107.442898 271.433026 
L 107.60417 270.538117 
L 107.684807 270.538117 
L 107.805761 270.31439 
L 107.886398 270.31439 
L 108.04767 269.419481 
L 108.128307 269.419481 
L 108.249261 269.195754 
L 108.329898 269.195754 
L 108.49117 268.300845 
L 108.571807 268.300845 
L 108.692761 268.077118 
L 108.773398 268.077118 
L 108.93467 267.182209 
L 109.015307 267.182209 
L 109.136261 266.958482 
L 109.216898 266.958482 
L 109.37817 266.063573 
L 109.458807 266.063573 
L 109.579761 265.839845 
L 109.660398 265.839845 
L 109.82167 265.168664 
L 109.902307 265.168664 
L 110.023261 264.944937 
L 110.103898 264.944937 
L 110.26517 264.497482 
L 110.345807 264.497482 
L 110.466761 264.273755 
L 110.50708 264.273755 
L 110.70867 263.602573 
L 110.789307 263.602573 
L 110.910261 263.155119 
L 110.95058 263.155119 
L 111.111852 262.707664 
L 111.232807 262.707664 
L 111.353761 262.26021 
L 111.39408 262.26021 
L 111.59567 261.589028 
L 111.676307 261.589028 
L 111.797261 261.141574 
L 111.83758 261.141574 
L 112.03917 260.470392 
L 112.119807 260.470392 
L 112.240761 260.246665 
L 112.28108 260.246665 
L 112.48267 259.575483 
L 112.563307 259.575483 
L 112.684261 259.351756 
L 112.764898 259.351756 
L 112.92617 258.904302 
L 113.006807 258.904302 
L 113.248716 258.009393 
L 113.289034 258.009393 
L 113.409989 257.785666 
L 113.490625 257.785666 
L 113.692216 257.114484 
L 113.732534 257.114484 
L 113.893807 256.66703 
L 113.934125 256.66703 
L 114.135716 255.995848 
L 114.176034 255.995848 
L 114.296989 255.772121 
L 114.377625 255.772121 
L 114.579216 255.100939 
L 114.659852 255.100939 
L 114.861443 254.429758 
L 114.901761 254.429758 
L 115.063034 253.982303 
L 115.103352 253.982303 
L 115.304943 253.311121 
L 115.345261 253.311121 
L 115.506534 252.863667 
L 115.546852 252.863667 
L 115.667807 252.63994 
L 115.708125 252.63994 
L 115.909716 251.968758 
L 115.990352 251.968758 
L 116.191943 251.297577 
L 116.232261 251.297577 
L 116.393534 250.850122 
L 116.433852 250.850122 
L 116.635443 250.17894 
L 116.756398 250.17894 
L 116.957989 249.507759 
L 117.038625 249.507759 
L 117.240216 248.836577 
L 117.36117 248.836577 
L 117.522443 248.389123 
L 117.643398 248.389123 
L 117.80467 247.941668 
L 117.925625 247.941668 
L 118.127216 247.270487 
L 118.207852 247.270487 
L 118.328807 246.823032 
L 118.369125 246.823032 
L 118.570716 246.151851 
L 118.651352 246.151851 
L 118.772307 245.704396 
L 118.812625 245.704396 
L 118.93358 245.480669 
L 118.973898 245.480669 
L 119.175489 244.809487 
L 119.256125 244.809487 
L 119.37708 244.362033 
L 119.417398 244.362033 
L 119.618989 243.690851 
L 119.699625 243.690851 
L 119.82058 243.467124 
L 119.860898 243.467124 
L 120.062489 242.795942 
L 120.143125 242.795942 
L 120.26408 242.572215 
L 120.304398 242.572215 
L 120.546307 241.677306 
L 120.747898 241.677306 
L 120.989807 240.782397 
L 121.191398 240.782397 
L 121.433307 239.887489 
L 121.634898 239.887489 
L 121.876807 238.99258 
L 122.078398 238.99258 
L 122.360625 237.873944 
L 122.521898 237.873944 
L 122.804125 236.755308 
L 122.965398 236.755308 
L 123.247625 235.636672 
L 123.408898 235.636672 
L 123.691125 234.518036 
L 123.852398 234.518036 
L 124.134625 233.399399 
L 124.295898 233.399399 
L 124.537807 232.504491 
L 124.739398 232.504491 
L 125.021625 231.385855 
L 125.182898 231.385855 
L 125.465125 230.267218 
L 125.626398 230.267218 
L 125.827989 229.596037 
L 125.908625 229.596037 
L 126.02958 229.37231 
L 126.069898 229.37231 
L 126.271489 228.701128 
L 126.352125 228.701128 
L 126.47308 228.477401 
L 126.513398 228.477401 
L 126.714989 227.806219 
L 126.795625 227.806219 
L 126.91658 227.582492 
L 126.956898 227.582492 
L 127.198807 226.687583 
L 127.239125 226.687583 
L 127.36008 226.463856 
L 127.400398 226.463856 
L 127.601989 225.792674 
L 127.682625 225.792674 
L 127.80358 225.568947 
L 127.843898 225.568947 
L 128.085807 224.674038 
L 128.126125 224.674038 
L 128.24708 224.450311 
L 128.287398 224.450311 
L 128.529307 223.555402 
L 128.569625 223.555402 
L 128.69058 223.331675 
L 128.730898 223.331675 
L 128.932489 222.660493 
L 129.013125 222.660493 
L 129.13408 222.436766 
L 129.174398 222.436766 
L 129.295352 221.989312 
L 129.33567 221.989312 
L 129.496943 221.541857 
L 129.617898 221.541857 
L 129.77917 220.870675 
L 129.900125 220.870675 
L 130.02108 220.646948 
L 130.061398 220.646948 
L 130.22267 219.752039 
L 130.343625 219.752039 
L 130.46458 219.528312 
L 130.504898 219.528312 
L 130.706489 218.857131 
L 130.787125 218.857131 
L 130.90808 218.633403 
L 130.948398 218.633403 
L 131.149989 217.962222 
L 131.391898 217.962222 
L 131.593489 217.29104 
L 131.633807 217.29104 
L 131.754761 217.067313 
L 131.835398 217.067313 
L 132.036989 216.396131 
L 132.117625 216.396131 
L 132.319216 215.72495 
L 132.399852 215.72495 
L 132.520807 215.501222 
L 132.561125 215.501222 
L 132.68208 215.277495 
L 132.722398 215.277495 
L 132.88367 214.606313 
L 133.004625 214.606313 
L 133.12558 214.382586 
L 133.165898 214.382586 
L 133.32717 213.711405 
L 133.448125 213.711405 
L 133.690034 212.816496 
L 133.730352 212.816496 
L 133.851307 212.592769 
L 133.891625 212.592769 
L 134.133534 211.69786 
L 134.173852 211.69786 
L 134.294807 211.474132 
L 134.335125 211.474132 
L 134.577034 210.579224 
L 134.778625 210.579224 
L 134.939898 210.131769 
L 135.020534 210.131769 
L 135.141489 209.908042 
L 135.222125 209.908042 
L 135.423716 209.23686 
L 135.464034 209.23686 
L 135.584989 209.013133 
L 135.665625 209.013133 
L 135.947852 207.894497 
L 136.149443 207.894497 
L 136.391352 206.999588 
L 136.592943 206.999588 
L 136.794534 206.328407 
L 136.996125 206.328407 
L 137.278352 205.209771 
L 137.439625 205.209771 
L 137.721852 204.091134 
L 137.883125 204.091134 
L 138.044398 203.64368 
L 138.084716 203.64368 
L 138.20567 203.419953 
L 138.326625 203.419953 
L 138.568534 202.525044 
L 138.770125 202.525044 
L 138.971716 201.853862 
L 139.213625 201.853862 
L 139.374898 201.406408 
L 139.657125 201.406408 
L 139.818398 200.735226 
L 140.100625 200.735226 
L 140.261898 200.064045 
L 140.382852 199.840317 
L 140.544125 199.840317 
L 140.705398 198.945409 
L 140.987625 198.945409 
L 141.148898 198.0505 
L 141.431125 198.0505 
L 141.592398 197.155591 
L 141.874625 197.155591 
L 142.035898 196.260682 
L 142.277807 196.260682 
L 142.560034 195.142046 
L 142.721307 195.142046 
L 143.003534 194.02341 
L 143.164807 194.02341 
L 143.406716 193.128501 
L 143.608307 193.128501 
L 143.890534 192.009865 
L 144.051807 192.009865 
L 144.253398 191.338683 
L 144.495307 191.338683 
L 144.737216 190.443774 
L 144.938807 190.443774 
L 145.221034 189.325138 
L 145.382307 189.325138 
L 145.664534 188.206502 
L 145.825807 188.206502 
L 146.067716 187.311593 
L 146.269307 187.311593 
L 146.470898 186.192957 
L 146.712807 186.192957 
L 146.914398 185.074321 
L 147.156307 185.074321 
L 147.398216 184.179412 
L 147.559489 184.179412 
L 147.841716 183.060776 
L 148.002989 183.060776 
L 148.285216 181.94214 
L 148.486807 181.94214 
L 148.728716 181.047231 
L 148.84967 181.047231 
L 149.131898 179.928595 
L 149.373807 179.928595 
L 149.615716 179.033687 
L 149.696352 179.033687 
L 149.97858 177.91505 
L 150.260807 177.91505 
L 150.502716 177.020142 
L 150.583352 177.020142 
L 150.86558 175.901506 
L 151.026852 175.901506 
L 151.30908 174.782869 
L 151.470352 174.782869 
L 151.671943 174.111688 
L 151.712261 174.111688 
L 151.833216 173.887961 
L 151.913852 173.887961 
L 152.19608 172.769325 
L 152.478307 172.769325 
L 152.720216 171.874416 
L 152.760534 171.874416 
L 152.881489 171.650688 
L 152.921807 171.650688 
L 153.163716 170.75578 
L 153.204034 170.75578 
L 153.324989 170.532052 
L 153.365307 170.532052 
L 153.607216 169.637144 
L 153.808807 169.637144 
L 154.091034 168.518507 
L 154.252307 168.518507 
L 154.534534 167.399871 
L 154.695807 167.399871 
L 154.978034 166.281235 
L 155.139307 166.281235 
L 155.421534 165.162599 
L 155.582807 165.162599 
L 155.865034 164.043963 
L 156.026307 164.043963 
L 156.308534 162.925327 
L 156.469807 162.925327 
L 156.752034 161.806691 
L 156.913307 161.806691 
L 157.155216 160.911782 
L 157.356807 160.911782 
L 157.639034 159.793146 
L 157.800307 159.793146 
L 158.082534 158.67451 
L 158.243807 158.67451 
L 158.526034 157.555874 
L 158.727625 157.555874 
L 158.888898 156.884692 
L 159.171125 156.884692 
L 159.332398 156.213511 
L 159.453352 155.989783 
L 159.614625 155.989783 
L 159.775898 155.318602 
L 159.896852 155.094875 
L 160.058125 155.094875 
L 160.259716 154.423693 
L 160.420989 154.423693 
L 160.62258 153.752511 
L 160.864489 153.752511 
L 161.06608 153.08133 
L 161.227352 153.08133 
L 161.428943 152.410148 
L 161.469261 152.410148 
L 161.590216 152.186421 
L 161.670852 152.186421 
L 161.791807 151.962694 
L 161.832125 151.962694 
L 161.993398 151.515239 
L 162.15467 151.515239 
L 162.315943 151.067785 
L 162.356261 151.067785 
L 162.477216 150.844058 
L 162.59817 150.844058 
L 162.759443 150.172876 
L 162.799761 150.172876 
L 162.920716 149.949149 
L 163.04167 149.949149 
L 163.202943 149.501694 
L 163.243261 149.501694 
L 163.364216 149.277967 
L 163.48517 149.277967 
L 163.646443 148.830513 
L 163.686761 148.830513 
L 163.807716 148.606785 
L 163.888352 148.606785 
L 164.089943 147.935604 
L 164.130261 147.935604 
L 164.251216 147.711877 
L 164.331852 147.711877 
L 164.533443 147.040695 
L 164.573761 147.040695 
L 164.694716 146.816968 
L 164.775352 146.816968 
L 164.976943 146.145786 
L 165.017261 146.145786 
L 165.138216 145.922059 
L 165.218852 145.922059 
L 165.380125 145.250877 
L 165.541398 144.803423 
L 165.662352 144.803423 
L 165.863943 144.132241 
L 165.904261 144.132241 
L 166.025216 143.908514 
L 166.105852 143.908514 
L 166.226807 143.684787 
L 166.347761 143.684787 
L 166.468716 143.46106 
L 166.549352 143.46106 
L 166.670307 143.237332 
L 166.791261 143.237332 
L 166.912216 142.789878 
L 166.992852 142.789878 
L 167.113807 142.566151 
L 167.234761 142.566151 
L 167.355716 142.118696 
L 167.678261 142.118696 
L 167.799216 141.894969 
L 168.081443 141.894969 
L 168.283034 141.223787 
L 168.524943 141.223787 
L 168.645898 141.00006 
L 168.686216 141.00006 
L 168.80717 140.776333 
L 168.968443 140.776333 
L 169.170034 140.105151 
L 169.411943 140.105151 
L 169.532898 139.881424 
L 169.573216 139.881424 
L 169.69417 139.657697 
L 169.93608 139.657697 
L 170.097352 139.210242 
L 170.258625 139.210242 
L 170.419898 138.762788 
L 170.460216 138.762788 
L 170.58117 138.539061 
L 170.702125 138.539061 
L 170.82308 138.315334 
L 170.903716 138.315334 
L 171.02467 138.091606 
L 171.145625 138.091606 
L 171.306898 137.644152 
L 171.347216 137.644152 
L 171.46817 137.420425 
L 171.71008 137.420425 
L 171.871352 136.97297 
L 171.992307 136.97297 
L 172.113261 136.749243 
L 172.15358 136.749243 
L 172.274534 136.525516 
L 172.435807 136.525516 
L 172.556761 136.301789 
L 172.59708 136.301789 
L 172.838989 135.40688 
L 173.48408 135.40688 
L 173.605034 135.183153 
L 173.766307 135.183153 
L 173.887261 134.959425 
L 173.92758 134.959425 
L 174.048534 134.735698 
L 174.088852 134.735698 
L 174.250125 134.288244 
L 174.37108 134.288244 
L 174.492034 134.064517 
L 174.57267 134.064517 
L 174.733943 133.617062 
L 175.01617 133.617062 
L 175.217761 132.94588 
L 175.45967 132.94588 
L 175.620943 132.498426 
L 175.90317 132.498426 
L 176.104761 131.827244 
L 176.34667 131.827244 
L 176.507943 131.37979 
L 176.79017 131.37979 
L 176.951443 130.932336 
L 177.23367 130.932336 
L 177.394943 130.484881 
L 177.67717 130.484881 
L 177.878761 129.813699 
L 178.12067 129.813699 
L 178.322261 129.142518 
L 178.56417 129.142518 
L 178.765761 128.471336 
L 179.00767 128.471336 
L 179.209261 127.800155 
L 179.45117 127.800155 
L 179.612443 127.3527 
L 179.89467 127.3527 
L 180.13658 126.457791 
L 180.217216 126.457791 
L 180.418807 125.78661 
L 180.821989 125.78661 
L 180.942943 125.339155 
L 181.265489 125.339155 
L 181.386443 124.891701 
L 181.66867 124.891701 
L 181.870261 124.220519 
L 182.11217 124.220519 
L 182.273443 123.773065 
L 182.55567 123.773065 
L 182.716943 123.101883 
L 182.99917 123.101883 
L 183.160443 122.654429 
L 183.402352 122.654429 
L 183.563625 122.206974 
L 183.845852 122.206974 
L 184.047443 121.535793 
L 184.289352 121.535793 
L 184.450625 121.088338 
L 184.853807 121.088338 
L 184.974761 120.864611 
L 185.176352 120.864611 
L 185.297307 120.417157 
L 185.619852 120.417157 
L 185.740807 120.193429 
L 186.023034 120.193429 
L 186.143989 119.969702 
L 186.466534 119.969702 
L 186.587489 119.745975 
L 186.869716 119.745975 
L 186.99067 119.522248 
L 187.313216 119.522248 
L 187.43417 119.29852 
L 187.474489 119.29852 
L 187.595443 119.074793 
L 187.635761 119.074793 
L 187.797034 118.627339 
L 188.038943 118.627339 
L 188.159898 118.403612 
L 188.200216 118.403612 
L 188.32117 118.179884 
L 188.482443 118.179884 
L 188.603398 117.956157 
L 188.643716 117.956157 
L 188.76467 117.73243 
L 189.087216 117.73243 
L 189.20817 117.508703 
L 189.288807 117.508703 
L 189.409761 117.284976 
L 189.933898 117.284976 
L 190.054852 117.061248 
L 190.135489 117.061248 
L 190.256443 116.837521 
L 190.578989 116.837521 
L 190.699943 116.613794 
L 190.78058 116.613794 
L 190.901534 116.390067 
L 191.022489 116.390067 
L 191.143443 116.166339 
L 191.465989 116.166339 
L 191.586943 115.942612 
L 191.627261 115.942612 
L 191.748216 115.718885 
L 191.909489 115.718885 
L 192.030443 115.495158 
L 192.070761 115.495158 
L 192.191716 115.271431 
L 192.272352 115.271431 
L 192.433625 114.823976 
L 192.514261 114.823976 
L 192.635216 114.600249 
L 192.796489 114.600249 
L 192.917443 114.376522 
L 192.957761 114.376522 
L 193.078716 114.152795 
L 193.239989 114.152795 
L 193.360943 113.929067 
L 193.844761 113.929067 
L 193.965716 113.70534 
L 194.288261 113.70534 
L 194.409216 113.481613 
L 194.489852 113.481613 
L 194.610807 113.257886 
L 194.893034 113.257886 
L 195.094625 112.586704 
L 195.134943 112.586704 
L 195.255898 112.362977 
L 195.578443 112.362977 
L 195.699398 112.13925 
L 195.780034 112.13925 
L 195.900989 111.915522 
L 196.425125 111.915522 
L 196.54608 111.691795 
L 196.626716 111.691795 
L 196.74767 111.468068 
L 196.868625 111.468068 
L 196.98958 111.244341 
L 197.473398 111.244341 
L 197.594352 111.020614 
L 198.158807 111.020614 
L 198.279761 110.796886 
L 198.32008 110.796886 
L 198.441034 110.573159 
L 198.602307 110.573159 
L 198.723261 110.349432 
L 198.76358 110.349432 
L 198.884534 110.125705 
L 199.20708 110.125705 
L 199.328034 109.901977 
L 199.448989 109.901977 
L 199.569943 109.67825 
L 200.29567 109.67825 
L 200.456943 109.230796 
L 200.73917 109.230796 
L 200.900443 108.783341 
L 201.18267 108.783341 
L 201.343943 108.335887 
L 201.62617 108.335887 
L 201.787443 107.888433 
L 202.06967 107.888433 
L 202.230943 107.440978 
L 202.31158 107.440978 
L 202.432534 107.217251 
L 202.472852 107.217251 
L 202.674443 106.546069 
L 202.95667 106.546069 
L 203.117943 106.098615 
L 203.40017 106.098615 
L 203.561443 105.65116 
L 203.964625 105.65116 
L 204.08558 105.427433 
L 204.408125 105.427433 
L 204.52908 105.203706 
L 204.690352 105.203706 
L 204.811307 104.979979 
L 204.851625 104.979979 
L 204.97258 104.756252 
L 205.133852 104.756252 
L 205.254807 104.532524 
L 205.295125 104.532524 
L 205.41608 104.308797 
L 205.738625 104.308797 
L 205.85958 104.08507 
L 205.980534 104.08507 
L 206.101489 103.861343 
L 206.182125 103.861343 
L 206.30308 103.637615 
L 206.827216 103.637615 
L 206.94817 103.413888 
L 207.028807 103.413888 
L 207.149761 103.190161 
L 207.270716 103.190161 
L 207.39167 102.966434 
L 207.472307 102.966434 
L 207.593261 102.742707 
L 207.714216 102.742707 
L 207.83517 102.518979 
L 207.915807 102.518979 
L 208.036761 102.295252 
L 208.359307 102.295252 
L 208.480261 102.071525 
L 208.560898 102.071525 
L 208.681852 101.847798 
L 208.802807 101.847798 
L 208.923761 101.624071 
L 209.004398 101.624071 
L 209.125352 101.400343 
L 209.246307 101.400343 
L 209.40758 100.952889 
L 209.447898 100.952889 
L 209.568852 100.729162 
L 209.689807 100.729162 
L 209.810761 100.505434 
L 209.891398 100.505434 
L 210.012352 100.281707 
L 210.536489 100.281707 
L 210.657443 100.05798 
L 210.697761 100.05798 
L 210.818716 99.834253 
L 210.979989 99.834253 
L 211.100943 99.610526 
L 211.141261 99.610526 
L 211.262216 99.386798 
L 211.463807 99.386798 
L 211.62508 98.939344 
L 211.907307 98.939344 
L 212.06858 98.49189 
L 212.350807 98.49189 
L 212.51208 98.044435 
L 212.794307 98.044435 
L 212.95558 97.596981 
L 213.358761 97.596981 
L 213.479716 97.373253 
L 213.802261 97.373253 
L 213.923216 97.149526 
L 214.04417 97.149526 
L 214.165125 96.925799 
L 214.245761 96.925799 
L 214.366716 96.702072 
L 214.48767 96.702072 
L 214.608625 96.478345 
L 214.689261 96.478345 
L 214.810216 96.254617 
L 214.93117 96.254617 
L 215.052125 96.03089 
L 215.132761 96.03089 
L 215.253716 95.807163 
L 215.37467 95.807163 
L 215.495625 95.583436 
L 215.576261 95.583436 
L 215.697216 95.359709 
L 215.81817 95.359709 
L 215.939125 95.135981 
L 216.019761 95.135981 
L 216.140716 94.912254 
L 216.26167 94.912254 
L 216.382625 94.688527 
L 216.463261 94.688527 
L 216.584216 94.4648 
L 216.70517 94.4648 
L 216.826125 94.017345 
L 216.866443 94.017345 
L 217.027716 93.569891 
L 217.14867 93.569891 
L 217.269625 93.346164 
L 217.350261 93.346164 
L 217.471216 93.122436 
L 217.59217 93.122436 
L 217.713125 92.898709 
L 217.793761 92.898709 
L 217.914716 92.674982 
L 218.03567 92.674982 
L 218.156625 92.451255 
L 218.237261 92.451255 
L 218.358216 92.227528 
L 218.47917 92.227528 
L 218.600125 92.0038 
L 218.680761 92.0038 
L 218.801716 91.780073 
L 218.92267 91.780073 
L 219.043625 91.556346 
L 219.124261 91.556346 
L 219.245216 91.332619 
L 219.36617 91.332619 
L 219.487125 91.108892 
L 219.567761 91.108892 
L 219.688716 90.885164 
L 219.80967 90.885164 
L 219.930625 90.661437 
L 220.011261 90.661437 
L 220.132216 90.43771 
L 220.25317 90.43771 
L 220.374125 90.213983 
L 220.454761 90.213983 
L 220.575716 89.990255 
L 220.69667 89.990255 
L 220.817625 89.766528 
L 220.898261 89.766528 
L 221.019216 89.542801 
L 221.14017 89.542801 
L 221.261125 89.319074 
L 221.341761 89.319074 
L 221.462716 89.095347 
L 221.58367 89.095347 
L 221.704625 88.871619 
L 222.02717 88.871619 
L 222.148125 88.647892 
L 222.188443 88.647892 
L 222.309398 88.424165 
L 222.47067 88.424165 
L 222.591625 88.200438 
L 222.631943 88.200438 
L 222.752898 87.976711 
L 222.91417 87.976711 
L 223.035125 87.752983 
L 223.075443 87.752983 
L 223.196398 87.529256 
L 223.35767 87.529256 
L 223.478625 87.305529 
L 223.518943 87.305529 
L 223.639898 87.081802 
L 223.80117 87.081802 
L 223.922125 86.858074 
L 224.24467 86.858074 
L 224.446261 86.186893 
L 224.68817 86.186893 
L 224.849443 85.739438 
L 225.13167 85.739438 
L 225.292943 85.291984 
L 225.57517 85.291984 
L 225.736443 84.84453 
L 226.01867 84.84453 
L 226.179943 84.397075 
L 226.46217 84.397075 
L 226.623443 83.949621 
L 226.90567 83.949621 
L 227.066943 83.502166 
L 227.34917 83.502166 
L 227.510443 83.054712 
L 227.79267 83.054712 
L 227.953943 82.607257 
L 228.357125 82.607257 
L 228.47808 82.38353 
L 228.719989 82.38353 
L 228.881261 81.936076 
L 229.163489 81.936076 
L 229.324761 81.488621 
L 229.606989 81.488621 
L 229.768261 81.041167 
L 230.131125 81.041167 
L 230.25208 80.81744 
L 230.45367 80.81744 
L 230.614943 80.369985 
L 230.89717 80.369985 
L 231.058443 79.922531 
L 231.461625 79.922531 
L 231.58258 79.698804 
L 231.743852 79.698804 
L 231.864807 79.475076 
L 231.905125 79.475076 
L 232.02608 79.251349 
L 232.187352 79.251349 
L 232.308307 79.027622 
L 232.348625 79.027622 
L 232.46958 78.803895 
L 232.630852 78.803895 
L 232.751807 78.580168 
L 232.792125 78.580168 
L 232.91308 78.35644 
L 233.074352 78.35644 
L 233.195307 78.132713 
L 233.235625 78.132713 
L 233.35658 77.908986 
L 233.517852 77.908986 
L 233.638807 77.685259 
L 233.679125 77.685259 
L 233.80008 77.461531 
L 233.961352 77.461531 
L 234.082307 77.237804 
L 234.122625 77.237804 
L 234.24358 77.014077 
L 234.566125 77.014077 
L 234.68708 76.79035 
L 234.928989 76.79035 
L 235.090261 76.342895 
L 235.453125 76.342895 
L 235.57408 76.119168 
L 235.77567 76.119168 
L 235.936943 75.671714 
L 236.21917 75.671714 
L 236.380443 75.224259 
L 236.783625 75.224259 
L 236.90458 75.000532 
L 237.065852 75.000532 
L 237.186807 74.776805 
L 237.227125 74.776805 
L 237.34808 74.553078 
L 237.509352 74.553078 
L 237.630307 74.32935 
L 237.670625 74.32935 
L 237.79158 74.105623 
L 237.952852 74.105623 
L 238.073807 73.881896 
L 238.114125 73.881896 
L 238.23508 73.658169 
L 238.557625 73.658169 
L 238.67858 73.434442 
L 238.799534 73.434442 
L 238.920489 73.210714 
L 239.001125 73.210714 
L 239.12208 72.986987 
L 239.243034 72.986987 
L 239.363989 72.76326 
L 239.444625 72.76326 
L 239.56558 72.539533 
L 239.686534 72.539533 
L 239.807489 72.315806 
L 239.888125 72.315806 
L 240.00908 72.092078 
L 240.130034 72.092078 
L 240.250989 71.868351 
L 240.331625 71.868351 
L 240.45258 71.644624 
L 240.573534 71.644624 
L 240.694489 71.420897 
L 241.017034 71.420897 
L 241.137989 71.197169 
L 241.178307 71.197169 
L 241.299261 70.973442 
L 241.460534 70.973442 
L 241.581489 70.749715 
L 241.621807 70.749715 
L 241.742761 70.525988 
L 241.823398 70.525988 
L 241.944352 70.302261 
L 242.307216 70.302261 
L 242.42817 70.078533 
L 242.468489 70.078533 
L 242.589443 69.854806 
L 242.911989 69.854806 
L 243.032943 69.631079 
L 243.194216 69.631079 
L 243.31517 69.407352 
L 243.355489 69.407352 
L 243.476443 69.183625 
L 243.637716 69.183625 
L 243.75867 68.959897 
L 243.798989 68.959897 
L 243.919943 68.73617 
L 244.081216 68.73617 
L 244.20217 68.512443 
L 244.242489 68.512443 
L 244.363443 68.288716 
L 244.524716 68.288716 
L 244.64567 68.064988 
L 244.685989 68.064988 
L 244.806943 67.841261 
L 245.129489 67.841261 
L 245.250443 67.617534 
L 245.371398 67.617534 
L 245.492352 67.393807 
L 245.814898 67.393807 
L 245.935852 67.17008 
L 245.97617 67.17008 
L 246.097125 66.946352 
L 246.258398 66.946352 
L 246.379352 66.722625 
L 246.701898 66.722625 
L 246.86317 66.275171 
L 247.145398 66.275171 
L 247.30667 65.827716 
L 247.99208 65.827716 
L 248.153352 65.380262 
L 248.43558 65.380262 
L 248.596852 64.932808 
L 248.87908 64.932808 
L 249.040352 64.485353 
L 249.241943 64.485353 
L 249.403216 64.037899 
L 249.76608 64.037899 
L 249.927352 63.590444 
L 250.20958 63.590444 
L 250.370852 63.14299 
L 250.65308 63.14299 
L 250.814352 62.695535 
L 251.177216 62.695535 
L 251.29817 62.471808 
L 251.499761 62.471808 
L 251.661034 62.024354 
L 251.943261 62.024354 
L 252.104534 61.576899 
L 252.386761 61.576899 
L 252.548034 61.129445 
L 252.830261 61.129445 
L 252.951216 60.905718 
L 253.273761 60.905718 
L 253.435034 60.458263 
L 253.717261 60.458263 
L 253.838216 60.234536 
L 254.160761 60.234536 
L 254.322034 59.787082 
L 254.604261 59.787082 
L 254.765534 59.339627 
L 255.047761 59.339627 
L 255.209034 58.892173 
L 255.491261 58.892173 
L 255.652534 58.444718 
L 255.934761 58.444718 
L 256.055716 58.220991 
L 256.378261 58.220991 
L 256.499216 57.773537 
L 256.660489 57.773537 
L 256.781443 57.549809 
L 256.821761 57.549809 
L 256.942716 57.102355 
L 257.265261 57.102355 
L 257.386216 56.878628 
L 257.668443 56.878628 
L 257.829716 56.431173 
L 258.111943 56.431173 
L 258.273216 55.983719 
L 258.958625 55.983719 
L 259.119898 55.536265 
L 259.442443 55.536265 
L 259.563398 55.08881 
L 259.885943 55.08881 
L 260.006898 54.641356 
L 260.329443 54.641356 
L 260.450398 54.193901 
L 260.772943 54.193901 
L 260.893898 53.746447 
L 261.216443 53.746447 
L 261.337398 53.298992 
L 261.659943 53.298992 
L 261.780898 52.851538 
L 262.103443 52.851538 
L 262.224398 52.627811 
L 262.506625 52.627811 
L 262.667898 52.180356 
L 262.950125 52.180356 
L 263.111398 51.732902 
L 263.393625 51.732902 
L 263.554898 51.285447 
L 263.837125 51.285447 
L 263.95808 51.06172 
L 264.119352 51.06172 
L 264.240307 50.837993 
L 264.280625 50.837993 
L 264.40158 50.614266 
L 264.724125 50.614266 
L 264.885398 50.166811 
L 265.167625 50.166811 
L 265.328898 49.719357 
L 265.611125 49.719357 
L 265.73208 49.49563 
L 266.054625 49.49563 
L 266.215898 49.048175 
L 266.498125 49.048175 
L 266.659398 48.600721 
L 266.941625 48.600721 
L 267.102898 48.153266 
L 267.385125 48.153266 
L 267.50608 47.929539 
L 267.788307 47.929539 
L 267.94958 47.482085 
L 268.231807 47.482085 
L 268.352761 47.258358 
L 268.675307 47.258358 
L 268.796261 46.810903 
L 269.118807 46.810903 
L 269.239761 46.587176 
L 269.521989 46.587176 
L 269.642943 46.363449 
L 269.965489 46.363449 
L 270.086443 45.915994 
L 270.408989 45.915994 
L 270.529943 45.46854 
L 270.852489 45.46854 
L 270.973443 45.021085 
L 271.295989 45.021085 
L 271.416943 44.573631 
L 271.739489 44.573631 
L 271.860443 44.126177 
L 272.182989 44.126177 
L 272.303943 43.902449 
L 272.58617 43.902449 
L 272.747443 43.454995 
L 273.02967 43.454995 
L 273.190943 43.007541 
L 273.47317 43.007541 
L 273.634443 42.560086 
L 273.91667 42.560086 
L 274.077943 42.112632 
L 274.36017 42.112632 
L 274.521443 41.665177 
L 274.80367 41.665177 
L 274.964943 41.217723 
L 275.24717 41.217723 
L 275.408443 40.770268 
L 275.730989 40.770268 
L 275.851943 40.546541 
L 276.093852 40.546541 
L 276.255125 40.099087 
L 276.617989 40.099087 
L 276.738943 39.87536 
L 277.061489 39.87536 
L 277.182443 39.651632 
L 277.384034 39.651632 
L 277.545307 39.204178 
L 277.827534 39.204178 
L 277.988807 38.756723 
L 278.674216 38.756723 
L 278.835489 38.309269 
L 279.158034 38.309269 
L 279.278989 38.085542 
L 279.601534 38.085542 
L 279.722489 37.861815 
L 279.92408 37.861815 
L 280.045034 37.638087 
L 280.36758 37.638087 
L 280.528852 37.190633 
L 280.81108 37.190633 
L 280.972352 36.743179 
L 281.25458 36.743179 
L 281.415852 36.295724 
L 281.69808 36.295724 
L 281.859352 35.84827 
L 282.14158 35.84827 
L 282.302852 35.400815 
L 282.58508 35.400815 
L 282.746352 34.953361 
L 283.431761 34.953361 
L 283.593034 34.505906 
L 283.875261 34.505906 
L 284.036534 34.058452 
L 284.399398 34.058452 
L 284.520352 33.834725 
L 284.842898 33.834725 
L 284.963852 33.610998 
L 285.165443 33.610998 
L 285.326716 33.163543 
L 285.729898 33.163543 
L 285.850852 32.939816 
L 286.012125 32.939816 
L 286.13308 32.716089 
L 286.173398 32.716089 
L 286.294352 32.492362 
L 286.455625 32.492362 
L 286.57658 32.268634 
L 286.899125 32.268634 
L 287.060398 31.82118 
L 287.342625 31.82118 
L 287.46358 31.597453 
L 288.229625 31.597453 
L 288.390898 31.149998 
L 288.673125 31.149998 
L 288.834398 30.702544 
L 289.116625 30.702544 
L 289.23758 30.478817 
L 289.560125 30.478817 
L 289.721398 30.031362 
L 290.447125 30.031362 
L 290.56808 29.583908 
L 290.890625 29.583908 
L 291.01158 29.136453 
L 291.334125 29.136453 
L 291.45508 28.688999 
L 291.777625 28.688999 
L 291.89858 28.465272 
L 292.221125 28.465272 
L 292.34208 28.241544 
L 292.664625 28.241544 
L 292.78558 28.017817 
L 293.108125 28.017817 
L 293.22908 27.79409 
L 293.551625 27.79409 
L 293.67258 27.570363 
L 294.398307 27.570363 
L 294.519261 27.346636 
L 294.841807 27.346636 
L 294.962761 27.122908 
L 296.131989 27.122908 
L 296.252943 26.899181 
L 296.97867 26.899181 
L 297.099625 26.675454 
L 297.42217 26.675454 
L 297.543125 26.451727 
L 297.86567 26.451727 
L 297.986625 26.228 
L 298.30917 26.228 
L 298.430125 26.004272 
L 299.19617 26.004272 
L 299.317125 25.780545 
L 299.63967 25.780545 
L 299.760625 25.556818 
L 300.08317 25.556818 
L 300.204125 25.333091 
L 300.52667 25.333091 
L 300.647625 25.109363 
L 301.41367 25.109363 
L 301.534625 24.885636 
L 301.85717 24.885636 
L 301.978125 24.661909 
L 302.30067 24.661909 
L 302.421625 24.438182 
L 385.598034 24.438182 
L 385.598034 24.438182 
" clip-path="url(#p3888effee7)" style="fill: none; stroke: #00008b; stroke-width: 2; stroke-linecap: square"/>
   </g>
   <g id="line2d_36">
    <path d="M 385.638352 369.201818 
L 63.133216 369.201818 
L 63.133216 369.201818 
" clip-path="url(#p3888effee7)" style="fill: none; stroke-dasharray: 7.4,3.2; stroke-dashoffset: 0; stroke: #fa8072; stroke-width: 2"/>
   </g>
   <g id="line2d_37">
    <path d="M 385.638352 369.201818 
L 63.133216 369.201818 
L 63.133216 369.201818 
" clip-path="url(#p3888effee7)" style="fill: none; stroke-dasharray: 7.4,3.2; stroke-dashoffset: 0; stroke: #ff4500; stroke-width: 2"/>
   </g>
   <g id="line2d_38">
    <path d="M 385.638352 369.201818 
L 385.194852 369.201818 
L 385.073898 368.083182 
L 377.776307 368.083182 
L 377.655352 366.964546 
L 370.357761 366.964546 
L 370.236807 365.84591 
L 362.939216 365.84591 
L 362.818261 364.727274 
L 355.52067 364.727274 
L 355.399716 363.608638 
L 348.142443 363.608638 
L 348.021489 362.490002 
L 340.723898 362.490002 
L 340.602943 361.371366 
L 333.305352 361.371366 
L 333.184398 360.25273 
L 325.846489 360.25273 
L 325.725534 359.134094 
L 318.427943 359.134094 
L 318.306989 358.015457 
L 311.452898 358.015457 
L 311.331943 356.896821 
L 304.034352 356.896821 
L 303.913398 355.778185 
L 296.615807 355.778185 
L 296.494852 354.659549 
L 289.197261 354.659549 
L 289.076307 353.540913 
L 281.778716 353.540913 
L 281.657761 352.422277 
L 274.36017 352.422277 
L 274.239216 351.303641 
L 266.941625 351.303641 
L 266.82067 350.185005 
L 259.52308 350.185005 
L 259.402125 349.066369 
L 252.104534 349.066369 
L 251.98358 347.947733 
L 244.685989 347.947733 
L 244.565034 346.829097 
L 237.710943 346.829097 
L 237.589989 345.710461 
L 230.292398 345.710461 
L 230.171443 344.591825 
L 222.873852 344.591825 
L 222.752898 343.473189 
L 215.414989 343.473189 
L 215.294034 342.354553 
L 207.996443 342.354553 
L 207.875489 341.235916 
L 200.577898 341.235916 
L 200.456943 340.11728 
L 193.119034 340.11728 
L 192.99808 338.998644 
L 185.700489 338.998644 
L 185.579534 337.880008 
L 178.281943 337.880008 
L 178.160989 336.761372 
L 177.394943 336.761372 
L 177.273989 335.642736 
L 176.951443 335.642736 
L 176.830489 334.5241 
L 176.507943 334.5241 
L 176.386989 333.405464 
L 176.064443 333.405464 
L 175.943489 332.286828 
L 175.620943 332.286828 
L 175.499989 331.168192 
L 175.177443 331.168192 
L 175.056489 330.049556 
L 174.733943 330.049556 
L 174.612989 328.93092 
L 174.290443 328.93092 
L 174.169489 327.812284 
L 173.846943 327.812284 
L 173.725989 326.693648 
L 173.403443 326.693648 
L 173.282489 325.575012 
L 172.959943 325.575012 
L 172.838989 324.456375 
L 172.516443 324.456375 
L 172.395489 323.337739 
L 172.072943 323.337739 
L 171.951989 322.219103 
L 171.629443 322.219103 
L 171.508489 321.100467 
L 171.185943 321.100467 
L 171.064989 319.981831 
L 170.742443 319.981831 
L 170.621489 318.863195 
L 170.298943 318.863195 
L 170.177989 317.744559 
L 169.855443 317.744559 
L 169.734489 316.625923 
L 169.411943 316.625923 
L 169.290989 315.507287 
L 168.968443 315.507287 
L 168.847489 314.388651 
L 168.524943 314.388651 
L 168.403989 313.270015 
L 168.081443 313.270015 
L 167.960489 312.151379 
L 167.637943 312.151379 
L 167.516989 311.032743 
L 167.194443 311.032743 
L 167.073489 309.914107 
L 166.750943 309.914107 
L 166.629989 308.79547 
L 166.307443 308.79547 
L 166.186489 307.676834 
L 165.863943 307.676834 
L 165.742989 306.558198 
L 165.420443 306.558198 
L 165.299489 305.439562 
L 164.976943 305.439562 
L 164.855989 304.320926 
L 164.533443 304.320926 
L 164.412489 303.20229 
L 164.089943 303.20229 
L 163.968989 302.083654 
L 163.646443 302.083654 
L 163.525489 300.965018 
L 163.202943 300.965018 
L 163.081989 299.846382 
L 162.759443 299.846382 
L 162.638489 298.727746 
L 162.315943 298.727746 
L 162.194989 297.60911 
L 161.872443 297.60911 
L 161.751489 296.490474 
L 161.428943 296.490474 
L 161.307989 295.371838 
L 160.985443 295.371838 
L 160.864489 294.253202 
L 160.541943 294.253202 
L 160.420989 293.134566 
L 160.098443 293.134566 
L 159.977489 292.015929 
L 159.654943 292.015929 
L 159.533989 290.897293 
L 159.211443 290.897293 
L 159.090489 289.778657 
L 158.767943 289.778657 
L 158.646989 288.660021 
L 158.324443 288.660021 
L 158.203489 287.541385 
L 157.880943 287.541385 
L 157.759989 286.422749 
L 157.437443 286.422749 
L 157.316489 285.304113 
L 156.993943 285.304113 
L 156.872989 284.185477 
L 156.550443 284.185477 
L 156.429489 283.066841 
L 156.106943 283.066841 
L 155.985989 281.948205 
L 155.663443 281.948205 
L 155.542489 280.829569 
L 155.219943 280.829569 
L 155.098989 279.710933 
L 154.776443 279.710933 
L 154.655489 278.592297 
L 154.332943 278.592297 
L 154.211989 277.473661 
L 153.889443 277.473661 
L 153.768489 276.355024 
L 153.445943 276.355024 
L 153.324989 275.236388 
L 153.002443 275.236388 
L 152.881489 274.117752 
L 152.558943 274.117752 
L 152.437989 272.999116 
L 152.115443 272.999116 
L 151.994489 271.88048 
L 151.671943 271.88048 
L 151.550989 270.761844 
L 151.228443 270.761844 
L 151.107489 269.643208 
L 150.784943 269.643208 
L 150.663989 268.524572 
L 150.341443 268.524572 
L 150.220489 267.405936 
L 149.897943 267.405936 
L 149.776989 266.2873 
L 149.454443 266.2873 
L 149.333489 265.168664 
L 149.010943 265.168664 
L 148.889989 264.050028 
L 148.567443 264.050028 
L 148.446489 262.931392 
L 148.123943 262.931392 
L 148.002989 261.812756 
L 147.680443 261.812756 
L 147.559489 260.69412 
L 147.236943 260.69412 
L 147.115989 259.575483 
L 146.793443 259.575483 
L 146.672489 258.456847 
L 146.349943 258.456847 
L 146.228989 257.338211 
L 145.906443 257.338211 
L 145.785489 256.219575 
L 145.462943 256.219575 
L 145.341989 255.100939 
L 145.019443 255.100939 
L 144.898489 253.982303 
L 144.575943 253.982303 
L 144.454989 252.863667 
L 144.132443 252.863667 
L 144.011489 251.745031 
L 143.688943 251.745031 
L 143.567989 250.626395 
L 143.245443 250.626395 
L 143.124489 249.507759 
L 142.801943 249.507759 
L 142.680989 248.389123 
L 142.358443 248.389123 
L 142.237489 247.270487 
L 141.511761 247.270487 
L 141.390807 246.151851 
L 141.068261 246.151851 
L 140.947307 245.033215 
L 140.624761 245.033215 
L 140.503807 243.914578 
L 140.181261 243.914578 
L 140.060307 242.795942 
L 139.737761 242.795942 
L 139.616807 241.677306 
L 139.294261 241.677306 
L 139.173307 240.55867 
L 138.850761 240.55867 
L 138.729807 239.440034 
L 138.407261 239.440034 
L 138.286307 238.321398 
L 137.963761 238.321398 
L 137.842807 237.202762 
L 137.520261 237.202762 
L 137.399307 236.084126 
L 137.076761 236.084126 
L 136.955807 234.96549 
L 136.633261 234.96549 
L 136.512307 233.846854 
L 136.189761 233.846854 
L 136.068807 232.728218 
L 135.746261 232.728218 
L 135.625307 231.609582 
L 135.302761 231.609582 
L 135.181807 230.490946 
L 134.859261 230.490946 
L 134.738307 229.37231 
L 134.415761 229.37231 
L 134.294807 228.253674 
L 133.972261 228.253674 
L 133.851307 227.135037 
L 133.528761 227.135037 
L 133.407807 226.016401 
L 133.085261 226.016401 
L 132.964307 224.897765 
L 132.641761 224.897765 
L 132.520807 223.779129 
L 132.198261 223.779129 
L 132.077307 222.660493 
L 131.754761 222.660493 
L 131.633807 221.541857 
L 131.311261 221.541857 
L 131.190307 220.423221 
L 130.867761 220.423221 
L 130.746807 219.304585 
L 130.424261 219.304585 
L 130.303307 218.185949 
L 129.980761 218.185949 
L 129.859807 217.067313 
L 129.537261 217.067313 
L 129.416307 215.948677 
L 129.093761 215.948677 
L 128.972807 214.830041 
L 128.650261 214.830041 
L 128.529307 213.711405 
L 128.206761 213.711405 
L 128.085807 212.592769 
L 127.763261 212.592769 
L 127.642307 211.474132 
L 127.319761 211.474132 
L 127.198807 210.355496 
L 126.876261 210.355496 
L 126.755307 209.23686 
L 126.432761 209.23686 
L 126.311807 208.118224 
L 125.989261 208.118224 
L 125.868307 206.999588 
L 125.545761 206.999588 
L 125.424807 205.880952 
L 125.102261 205.880952 
L 124.981307 204.762316 
L 124.658761 204.762316 
L 124.537807 203.64368 
L 124.215261 203.64368 
L 124.094307 202.525044 
L 123.771761 202.525044 
L 123.650807 201.406408 
L 123.328261 201.406408 
L 123.207307 200.287772 
L 122.884761 200.287772 
L 122.763807 199.169136 
L 122.441261 199.169136 
L 122.320307 198.0505 
L 121.997761 198.0505 
L 121.876807 196.931864 
L 121.554261 196.931864 
L 121.433307 195.813228 
L 121.110761 195.813228 
L 120.989807 194.694591 
L 120.667261 194.694591 
L 120.546307 193.575955 
L 120.223761 193.575955 
L 120.102807 192.457319 
L 119.780261 192.457319 
L 119.659307 191.338683 
L 119.336761 191.338683 
L 119.215807 190.220047 
L 118.893261 190.220047 
L 118.772307 189.101411 
L 118.449761 189.101411 
L 118.328807 187.982775 
L 118.006261 187.982775 
L 117.885307 186.864139 
L 117.562761 186.864139 
L 117.441807 185.745503 
L 117.119261 185.745503 
L 116.998307 184.626867 
L 116.675761 184.626867 
L 116.554807 183.508231 
L 116.232261 183.508231 
L 116.111307 182.389595 
L 115.788761 182.389595 
L 115.667807 181.270959 
L 115.345261 181.270959 
L 115.224307 180.152323 
L 114.901761 180.152323 
L 114.780807 179.033687 
L 114.458261 179.033687 
L 114.337307 177.91505 
L 114.014761 177.91505 
L 113.893807 176.796414 
L 113.571261 176.796414 
L 113.450307 175.677778 
L 113.127761 175.677778 
L 113.006807 174.559142 
L 112.684261 174.559142 
L 112.563307 173.440506 
L 112.240761 173.440506 
L 112.119807 172.32187 
L 111.797261 172.32187 
L 111.676307 171.203234 
L 111.353761 171.203234 
L 111.232807 170.084598 
L 110.910261 170.084598 
L 110.789307 168.965962 
L 110.466761 168.965962 
L 110.345807 167.847326 
L 110.023261 167.847326 
L 109.902307 166.72869 
L 109.579761 166.72869 
L 109.458807 165.610054 
L 109.136261 165.610054 
L 109.015307 164.491418 
L 108.692761 164.491418 
L 108.571807 163.372782 
L 108.249261 163.372782 
L 108.128307 162.254145 
L 107.805761 162.254145 
L 107.684807 161.135509 
L 107.362261 161.135509 
L 107.241307 160.016873 
L 106.918761 160.016873 
L 106.797807 158.898237 
L 106.475261 158.898237 
L 106.354307 157.779601 
L 106.031761 157.779601 
L 105.910807 156.660965 
L 105.588261 156.660965 
L 105.467307 155.542329 
L 105.144761 155.542329 
L 105.023807 154.423693 
L 104.701261 154.423693 
L 104.580307 153.305057 
L 104.257761 153.305057 
L 104.136807 152.186421 
L 103.814261 152.186421 
L 103.693307 151.067785 
L 103.370761 151.067785 
L 103.249807 149.949149 
L 102.927261 149.949149 
L 102.806307 148.830513 
L 102.483761 148.830513 
L 102.362807 147.711877 
L 102.040261 147.711877 
L 101.919307 146.593241 
L 101.596761 146.593241 
L 101.475807 145.474604 
L 101.153261 145.474604 
L 101.032307 144.355968 
L 100.709761 144.355968 
L 100.588807 143.237332 
L 100.266261 143.237332 
L 100.145307 142.118696 
L 99.822761 142.118696 
L 99.701807 141.00006 
L 99.379261 141.00006 
L 99.258307 139.881424 
L 98.935761 139.881424 
L 98.814807 138.762788 
L 98.492261 138.762788 
L 98.371307 137.644152 
L 98.048761 137.644152 
L 97.927807 136.525516 
L 97.605261 136.525516 
L 97.484307 135.40688 
L 97.161761 135.40688 
L 97.040807 134.288244 
L 96.718261 134.288244 
L 96.597307 133.169608 
L 96.274761 133.169608 
L 96.153807 132.050972 
L 95.831261 132.050972 
L 95.710307 130.932336 
L 95.387761 130.932336 
L 95.266807 129.813699 
L 94.54108 129.813699 
L 94.420125 128.695063 
L 94.057261 128.695063 
L 93.936307 127.576427 
L 93.613761 127.576427 
L 93.492807 126.457791 
L 93.170261 126.457791 
L 93.049307 125.339155 
L 92.726761 125.339155 
L 92.605807 124.220519 
L 92.283261 124.220519 
L 92.162307 123.101883 
L 91.43658 123.101883 
L 91.315625 121.983247 
L 90.99308 121.983247 
L 90.872125 120.864611 
L 90.54958 120.864611 
L 90.428625 119.745975 
L 90.10608 119.745975 
L 89.985125 118.627339 
L 89.66258 118.627339 
L 89.541625 117.508703 
L 89.21908 117.508703 
L 89.098125 116.390067 
L 88.009534 116.390067 
L 87.88858 115.271431 
L 87.566034 115.271431 
L 87.44508 114.152795 
L 87.122534 114.152795 
L 87.00158 113.034158 
L 86.275852 113.034158 
L 86.154898 111.915522 
L 85.832352 111.915522 
L 85.711398 110.796886 
L 85.388852 110.796886 
L 85.267898 109.67825 
L 84.945352 109.67825 
L 84.824398 108.559614 
L 84.501852 108.559614 
L 84.380898 107.440978 
L 84.058352 107.440978 
L 83.937398 106.322342 
L 83.614852 106.322342 
L 83.493898 105.203706 
L 83.171352 105.203706 
L 83.050398 104.08507 
L 82.727852 104.08507 
L 82.606898 102.966434 
L 82.244034 102.966434 
L 82.12308 101.847798 
L 81.800534 101.847798 
L 81.67958 100.729162 
L 80.953852 100.729162 
L 80.832898 99.610526 
L 80.510352 99.610526 
L 80.389398 98.49189 
L 80.066852 98.49189 
L 79.945898 97.373253 
L 79.623352 97.373253 
L 79.502398 96.254617 
L 79.179852 96.254617 
L 79.058898 95.135981 
L 78.736352 95.135981 
L 78.615398 94.017345 
L 78.292852 94.017345 
L 78.171898 92.898709 
L 77.849352 92.898709 
L 77.728398 91.780073 
L 77.405852 91.780073 
L 77.284898 90.661437 
L 76.962352 90.661437 
L 76.841398 89.542801 
L 76.518852 89.542801 
L 76.397898 88.424165 
L 76.075352 88.424165 
L 75.954398 87.305529 
L 75.631852 87.305529 
L 75.510898 86.186893 
L 75.188352 86.186893 
L 75.067398 85.068257 
L 74.744852 85.068257 
L 74.623898 83.949621 
L 74.301352 83.949621 
L 74.180398 82.830985 
L 73.857852 82.830985 
L 73.736898 81.712349 
L 73.414352 81.712349 
L 73.293398 80.593712 
L 72.930534 80.593712 
L 72.80958 79.475076 
L 72.487034 79.475076 
L 72.36608 78.35644 
L 72.043534 78.35644 
L 71.92258 77.237804 
L 71.600034 77.237804 
L 71.47908 76.119168 
L 71.156534 76.119168 
L 71.03558 75.000532 
L 70.713034 75.000532 
L 70.59208 73.881896 
L 70.269534 73.881896 
L 70.14858 72.76326 
L 69.826034 72.76326 
L 69.70508 71.644624 
L 69.382534 71.644624 
L 69.26158 70.525988 
L 68.939034 70.525988 
L 68.81808 69.407352 
L 68.495534 69.407352 
L 68.37458 68.288716 
L 68.052034 68.288716 
L 67.93108 67.17008 
L 67.608534 67.17008 
L 67.48758 66.051444 
L 67.165034 66.051444 
L 67.04408 64.932808 
L 66.721534 64.932808 
L 66.60058 63.814171 
L 66.278034 63.814171 
L 66.15708 62.695535 
L 65.834534 62.695535 
L 65.71358 61.576899 
L 64.987852 61.576899 
L 64.866898 60.458263 
L 64.544352 60.458263 
L 64.423398 59.339627 
L 64.100852 59.339627 
L 63.979898 58.220991 
L 63.657352 58.220991 
L 63.536398 57.102355 
L 63.133216 57.102355 
L 63.133216 57.102355 
" clip-path="url(#p3888effee7)" style="fill: none; stroke-dasharray: 7.4,3.2; stroke-dashoffset: 0; stroke: #8b0000; stroke-width: 2"/>
   </g>
   <g id="patch_3">
    <path d="M 46.965625 386.44 
L 46.965625 7.2 
" style="fill: none; stroke: #000000; stroke-width: 0.8; stroke-linejoin: miter; stroke-linecap: square"/>
   </g>
   <g id="patch_4">
    <path d="M 401.765625 386.44 
L 401.765625 7.2 
" style="fill: none; stroke: #000000; stroke-width: 0.8; stroke-linejoin: miter; stroke-linecap: square"/>
   </g>
   <g id="patch_5">
    <path d="M 46.965625 386.44 
L 401.765625 386.44 
" style="fill: none; stroke: #000000; stroke-width: 0.8; stroke-linejoin: miter; stroke-linecap: square"/>
   </g>
   <g id="patch_6">
    <path d="M 46.965625 7.2 
L 401.765625 7.2 
" style="fill: none; stroke: #000000; stroke-width: 0.8; stroke-linejoin: miter; stroke-linecap: square"/>
   </g>
   <g id="legend_1">
    <g id="patch_7">
     <path d="M 408.765625 117.946875 
L 558.923437 117.946875 
Q 560.923437 117.946875 560.923437 115.946875 
L 560.923437 14.2 
Q 560.923437 12.2 558.923437 12.2 
L 408.765625 12.2 
Q 406.765625 12.2 406.765625 14.2 
L 406.765625 115.946875 
Q 406.765625 117.946875 408.765625 117.946875 
z
" style="fill: #ffffff; opacity: 0.8; stroke: #cccccc; stroke-linejoin: miter"/>
    </g>
    <g id="text_19">
     <!-- Motifs &amp; orientation -->
     <g transform="translate(434.328906 23.798437) scale(0.1 -0.1)">
      <defs>
       <path id="DejaVuSans-4d" d="M 628 4666 
L 1569 4666 
L 2759 1491 
L 3956 4666 
L 4897 4666 
L 4897 0 
L 4281 0 
L 4281 4097 
L 3078 897 
L 2444 897 
L 1241 4097 
L 1241 0 
L 628 0 
L 628 4666 
z
" transform="scale(0.015625)"/>
       <path id="DejaVuSans-26" d="M 1556 2509 
Q 1272 2256 1139 2004 
Q 1006 1753 1006 1478 
Q 1006 1022 1337 719 
Q 1669 416 2169 416 
Q 2466 416 2725 514 
Q 2984 613 3213 813 
L 1556 2509 
z
M 1997 2859 
L 3584 1234 
Q 3769 1513 3872 1830 
Q 3975 2147 3994 2503 
L 4575 2503 
Q 4538 2091 4375 1687 
Q 4213 1284 3922 891 
L 4794 0 
L 4006 0 
L 3559 459 
Q 3234 181 2878 45 
Q 2522 -91 2113 -91 
Q 1359 -91 881 339 
Q 403 769 403 1441 
Q 403 1841 612 2192 
Q 822 2544 1241 2853 
Q 1091 3050 1012 3245 
Q 934 3441 934 3628 
Q 934 4134 1281 4442 
Q 1628 4750 2203 4750 
Q 2463 4750 2720 4694 
Q 2978 4638 3244 4525 
L 3244 3956 
Q 2972 4103 2725 4179 
Q 2478 4256 2266 4256 
Q 1938 4256 1733 4082 
Q 1528 3909 1528 3634 
Q 1528 3475 1620 3314 
Q 1713 3153 1997 2859 
z
" transform="scale(0.015625)"/>
      </defs>
      <use xlink:href="#DejaVuSans-4d"/>
      <use xlink:href="#DejaVuSans-6f" transform="translate(86.279297 0)"/>
      <use xlink:href="#DejaVuSans-74" transform="translate(147.460938 0)"/>
      <use xlink:href="#DejaVuSans-69" transform="translate(186.669922 0)"/>
      <use xlink:href="#DejaVuSans-66" transform="translate(214.453125 0)"/>
      <use xlink:href="#DejaVuSans-73" transform="translate(249.658203 0)"/>
      <use xlink:href="#DejaVuSans-20" transform="translate(301.757812 0)"/>
      <use xlink:href="#DejaVuSans-26" transform="translate(333.544922 0)"/>
      <use xlink:href="#DejaVuSans-20" transform="translate(411.523438 0)"/>
      <use xlink:href="#DejaVuSans-6f" transform="translate(443.310547 0)"/>
      <use xlink:href="#DejaVuSans-72" transform="translate(504.492188 0)"/>
      <use xlink:href="#DejaVuSans-69" transform="translate(545.605469 0)"/>
      <use xlink:href="#DejaVuSans-65" transform="translate(573.388672 0)"/>
      <use xlink:href="#DejaVuSans-6e" transform="translate(634.912109 0)"/>
      <use xlink:href="#DejaVuSans-74" transform="translate(698.291016 0)"/>
      <use xlink:href="#DejaVuSans-61" transform="translate(737.5 0)"/>
      <use xlink:href="#DejaVuSans-74" transform="translate(798.779297 0)"/>
      <use xlink:href="#DejaVuSans-69" transform="translate(837.988281 0)"/>
      <use xlink:href="#DejaVuSans-6f" transform="translate(865.771484 0)"/>
      <use xlink:href="#DejaVuSans-6e" transform="translate(926.953125 0)"/>
     </g>
    </g>
    <g id="line2d_39">
     <path d="M 410.765625 34.976562 
L 420.765625 34.976562 
L 430.765625 34.976562 
" style="fill: none; stroke: #add8e6; stroke-width: 2; stroke-linecap: square"/>
    </g>
    <g id="text_20">
     <!-- CCCGAGACTAA (5' end) -->
     <g transform="translate(438.765625 38.476562) scale(0.1 -0.1)">
      <defs>
       <path id="DejaVuSans-43" d="M 4122 4306 
L 4122 3641 
Q 3803 3938 3442 4084 
Q 3081 4231 2675 4231 
Q 1875 4231 1450 3742 
Q 1025 3253 1025 2328 
Q 1025 1406 1450 917 
Q 1875 428 2675 428 
Q 3081 428 3442 575 
Q 3803 722 4122 1019 
L 4122 359 
Q 3791 134 3420 21 
Q 3050 -91 2638 -91 
Q 1578 -91 968 557 
Q 359 1206 359 2328 
Q 359 3453 968 4101 
Q 1578 4750 2638 4750 
Q 3056 4750 3426 4639 
Q 3797 4528 4122 4306 
z
" transform="scale(0.015625)"/>
       <path id="DejaVuSans-47" d="M 3809 666 
L 3809 1919 
L 2778 1919 
L 2778 2438 
L 4434 2438 
L 4434 434 
Q 4069 175 3628 42 
Q 3188 -91 2688 -91 
Q 1594 -91 976 548 
Q 359 1188 359 2328 
Q 359 3472 976 4111 
Q 1594 4750 2688 4750 
Q 3144 4750 3555 4637 
Q 3966 4525 4313 4306 
L 4313 3634 
Q 3963 3931 3569 4081 
Q 3175 4231 2741 4231 
Q 1884 4231 1454 3753 
Q 1025 3275 1025 2328 
Q 1025 1384 1454 906 
Q 1884 428 2741 428 
Q 3075 428 3337 486 
Q 3600 544 3809 666 
z
" transform="scale(0.015625)"/>
       <path id="DejaVuSans-54" d="M -19 4666 
L 3928 4666 
L 3928 4134 
L 2272 4134 
L 2272 0 
L 1638 0 
L 1638 4134 
L -19 4134 
L -19 4666 
z
" transform="scale(0.015625)"/>
       <path id="DejaVuSans-28" d="M 1984 4856 
Q 1566 4138 1362 3434 
Q 1159 2731 1159 2009 
Q 1159 1288 1364 580 
Q 1569 -128 1984 -844 
L 1484 -844 
Q 1016 -109 783 600 
Q 550 1309 550 2009 
Q 550 2706 781 3412 
Q 1013 4119 1484 4856 
L 1984 4856 
z
" transform="scale(0.015625)"/>
       <path id="DejaVuSans-27" d="M 1147 4666 
L 1147 2931 
L 616 2931 
L 616 4666 
L 1147 4666 
z
" transform="scale(0.015625)"/>
       <path id="DejaVuSans-64" d="M 2906 2969 
L 2906 4863 
L 3481 4863 
L 3481 0 
L 2906 0 
L 2906 525 
Q 2725 213 2448 61 
Q 2172 -91 1784 -91 
Q 1150 -91 751 415 
Q 353 922 353 1747 
Q 353 2572 751 3078 
Q 1150 3584 1784 3584 
Q 2172 3584 2448 3432 
Q 2725 3281 2906 2969 
z
M 947 1747 
Q 947 1113 1208 752 
Q 1469 391 1925 391 
Q 2381 391 2643 752 
Q 2906 1113 2906 1747 
Q 2906 2381 2643 2742 
Q 2381 3103 1925 3103 
Q 1469 3103 1208 2742 
Q 947 2381 947 1747 
z
" transform="scale(0.015625)"/>
       <path id="DejaVuSans-29" d="M 513 4856 
L 1013 4856 
Q 1481 4119 1714 3412 
Q 1947 2706 1947 2009 
Q 1947 1309 1714 600 
Q 1481 -109 1013 -844 
L 513 -844 
Q 928 -128 1133 580 
Q 1338 1288 1338 2009 
Q 1338 2731 1133 3434 
Q 928 4138 513 4856 
z
" transform="scale(0.015625)"/>
      </defs>
      <use xlink:href="#DejaVuSans-43"/>
      <use xlink:href="#DejaVuSans-43" transform="translate(69.824219 0)"/>
      <use xlink:href="#DejaVuSans-43" transform="translate(139.648438 0)"/>
      <use xlink:href="#DejaVuSans-47" transform="translate(209.472656 0)"/>
      <use xlink:href="#DejaVuSans-41" transform="translate(286.962891 0)"/>
      <use xlink:href="#DejaVuSans-47" transform="translate(353.621094 0)"/>
      <use xlink:href="#DejaVuSans-41" transform="translate(431.111328 0)"/>
      <use xlink:href="#DejaVuSans-43" transform="translate(497.769531 0)"/>
      <use xlink:href="#DejaVuSans-54" transform="translate(567.59375 0)"/>
      <use xlink:href="#DejaVuSans-41" transform="translate(620.927734 0)"/>
      <use xlink:href="#DejaVuSans-41" transform="translate(692.085938 0)"/>
      <use xlink:href="#DejaVuSans-20" transform="translate(760.494141 0)"/>
      <use xlink:href="#DejaVuSans-28" transform="translate(792.28125 0)"/>
      <use xlink:href="#DejaVuSans-35" transform="translate(831.294922 0)"/>
      <use xlink:href="#DejaVuSans-27" transform="translate(894.917969 0)"/>
      <use xlink:href="#DejaVuSans-20" transform="translate(922.408203 0)"/>
      <use xlink:href="#DejaVuSans-65" transform="translate(954.195312 0)"/>
      <use xlink:href="#DejaVuSans-6e" transform="translate(1015.71875 0)"/>
      <use xlink:href="#DejaVuSans-64" transform="translate(1079.097656 0)"/>
      <use xlink:href="#DejaVuSans-29" transform="translate(1142.574219 0)"/>
     </g>
    </g>
    <g id="line2d_40">
     <path d="M 410.765625 49.654687 
L 420.765625 49.654687 
L 430.765625 49.654687 
" style="fill: none; stroke: #6495ed; stroke-width: 2; stroke-linecap: square"/>
    </g>
    <g id="text_21">
     <!-- TTCCCAA (5' end) -->
     <g transform="translate(438.765625 53.154687) scale(0.1 -0.1)">
      <use xlink:href="#DejaVuSans-54"/>
      <use xlink:href="#DejaVuSans-54" transform="translate(59.333984 0)"/>
      <use xlink:href="#DejaVuSans-43" transform="translate(114.542969 0)"/>
      <use xlink:href="#DejaVuSans-43" transform="translate(184.367188 0)"/>
      <use xlink:href="#DejaVuSans-43" transform="translate(254.191406 0)"/>
      <use xlink:href="#DejaVuSans-41" transform="translate(324.015625 0)"/>
      <use xlink:href="#DejaVuSans-41" transform="translate(395.173828 0)"/>
      <use xlink:href="#DejaVuSans-20" transform="translate(463.582031 0)"/>
      <use xlink:href="#DejaVuSans-28" transform="translate(495.369141 0)"/>
      <use xlink:href="#DejaVuSans-35" transform="translate(534.382812 0)"/>
      <use xlink:href="#DejaVuSans-27" transform="translate(598.005859 0)"/>
      <use xlink:href="#DejaVuSans-20" transform="translate(625.496094 0)"/>
      <use xlink:href="#DejaVuSans-65" transform="translate(657.283203 0)"/>
      <use xlink:href="#DejaVuSans-6e" transform="translate(718.806641 0)"/>
      <use xlink:href="#DejaVuSans-64" transform="translate(782.185547 0)"/>
      <use xlink:href="#DejaVuSans-29" transform="translate(845.662109 0)"/>
     </g>
    </g>
    <g id="line2d_41">
     <path d="M 410.765625 64.332812 
L 420.765625 64.332812 
L 430.765625 64.332812 
" style="fill: none; stroke: #00008b; stroke-width: 2; stroke-linecap: square"/>
    </g>
    <g id="text_22">
     <!-- CCCAAGACTAA (5' end) -->
     <g transform="translate(438.765625 67.832812) scale(0.1 -0.1)">
      <use xlink:href="#DejaVuSans-43"/>
      <use xlink:href="#DejaVuSans-43" transform="translate(69.824219 0)"/>
      <use xlink:href="#DejaVuSans-43" transform="translate(139.648438 0)"/>
      <use xlink:href="#DejaVuSans-41" transform="translate(209.472656 0)"/>
      <use xlink:href="#DejaVuSans-41" transform="translate(280.630859 0)"/>
      <use xlink:href="#DejaVuSans-47" transform="translate(347.289062 0)"/>
      <use xlink:href="#DejaVuSans-41" transform="translate(424.779297 0)"/>
      <use xlink:href="#DejaVuSans-43" transform="translate(491.4375 0)"/>
      <use xlink:href="#DejaVuSans-54" transform="translate(561.261719 0)"/>
      <use xlink:href="#DejaVuSans-41" transform="translate(614.595703 0)"/>
      <use xlink:href="#DejaVuSans-41" transform="translate(685.753906 0)"/>
      <use xlink:href="#DejaVuSans-20" transform="translate(754.162109 0)"/>
      <use xlink:href="#DejaVuSans-28" transform="translate(785.949219 0)"/>
      <use xlink:href="#DejaVuSans-35" transform="translate(824.962891 0)"/>
      <use xlink:href="#DejaVuSans-27" transform="translate(888.585938 0)"/>
      <use xlink:href="#DejaVuSans-20" transform="translate(916.076172 0)"/>
      <use xlink:href="#DejaVuSans-65" transform="translate(947.863281 0)"/>
      <use xlink:href="#DejaVuSans-6e" transform="translate(1009.386719 0)"/>
      <use xlink:href="#DejaVuSans-64" transform="translate(1072.765625 0)"/>
      <use xlink:href="#DejaVuSans-29" transform="translate(1136.242188 0)"/>
     </g>
    </g>
    <g id="line2d_42">
     <path d="M 410.765625 79.010937 
L 420.765625 79.010937 
L 430.765625 79.010937 
" style="fill: none; stroke-dasharray: 7.4,3.2; stroke-dashoffset: 0; stroke: #fa8072; stroke-width: 2"/>
    </g>
    <g id="text_23">
     <!-- TTAGTCTCGGG (3' end) -->
     <g transform="translate(438.765625 82.510937) scale(0.1 -0.1)">
      <use xlink:href="#DejaVuSans-54"/>
      <use xlink:href="#DejaVuSans-54" transform="translate(59.333984 0)"/>
      <use xlink:href="#DejaVuSans-41" transform="translate(112.667969 0)"/>
      <use xlink:href="#DejaVuSans-47" transform="translate(179.326172 0)"/>
      <use xlink:href="#DejaVuSans-54" transform="translate(253.191406 0)"/>
      <use xlink:href="#DejaVuSans-43" transform="translate(308.400391 0)"/>
      <use xlink:href="#DejaVuSans-54" transform="translate(378.224609 0)"/>
      <use xlink:href="#DejaVuSans-43" transform="translate(433.433594 0)"/>
      <use xlink:href="#DejaVuSans-47" transform="translate(503.257812 0)"/>
      <use xlink:href="#DejaVuSans-47" transform="translate(580.748047 0)"/>
      <use xlink:href="#DejaVuSans-47" transform="translate(658.238281 0)"/>
      <use xlink:href="#DejaVuSans-20" transform="translate(735.728516 0)"/>
      <use xlink:href="#DejaVuSans-28" transform="translate(767.515625 0)"/>
      <use xlink:href="#DejaVuSans-33" transform="translate(806.529297 0)"/>
      <use xlink:href="#DejaVuSans-27" transform="translate(870.152344 0)"/>
      <use xlink:href="#DejaVuSans-20" transform="translate(897.642578 0)"/>
      <use xlink:href="#DejaVuSans-65" transform="translate(929.429688 0)"/>
      <use xlink:href="#DejaVuSans-6e" transform="translate(990.953125 0)"/>
      <use xlink:href="#DejaVuSans-64" transform="translate(1054.332031 0)"/>
      <use xlink:href="#DejaVuSans-29" transform="translate(1117.808594 0)"/>
     </g>
    </g>
    <g id="line2d_43">
     <path d="M 410.765625 93.689062 
L 420.765625 93.689062 
L 430.765625 93.689062 
" style="fill: none; stroke-dasharray: 7.4,3.2; stroke-dashoffset: 0; stroke: #ff4500; stroke-width: 2"/>
    </g>
    <g id="text_24">
     <!-- TTGGGAA (3' end) -->
     <g transform="translate(438.765625 97.189062) scale(0.1 -0.1)">
      <use xlink:href="#DejaVuSans-54"/>
      <use xlink:href="#DejaVuSans-54" transform="translate(59.333984 0)"/>
      <use xlink:href="#DejaVuSans-47" transform="translate(120.417969 0)"/>
      <use xlink:href="#DejaVuSans-47" transform="translate(197.908203 0)"/>
      <use xlink:href="#DejaVuSans-47" transform="translate(275.398438 0)"/>
      <use xlink:href="#DejaVuSans-41" transform="translate(352.888672 0)"/>
      <use xlink:href="#DejaVuSans-41" transform="translate(424.046875 0)"/>
      <use xlink:href="#DejaVuSans-20" transform="translate(492.455078 0)"/>
      <use xlink:href="#DejaVuSans-28" transform="translate(524.242188 0)"/>
      <use xlink:href="#DejaVuSans-33" transform="translate(563.255859 0)"/>
      <use xlink:href="#DejaVuSans-27" transform="translate(626.878906 0)"/>
      <use xlink:href="#DejaVuSans-20" transform="translate(654.369141 0)"/>
      <use xlink:href="#DejaVuSans-65" transform="translate(686.15625 0)"/>
      <use xlink:href="#DejaVuSans-6e" transform="translate(747.679688 0)"/>
      <use xlink:href="#DejaVuSans-64" transform="translate(811.058594 0)"/>
      <use xlink:href="#DejaVuSans-29" transform="translate(874.535156 0)"/>
     </g>
    </g>
    <g id="line2d_44">
     <path d="M 410.765625 108.367187 
L 420.765625 108.367187 
L 430.765625 108.367187 
" style="fill: none; stroke-dasharray: 7.4,3.2; stroke-dashoffset: 0; stroke: #8b0000; stroke-width: 2"/>
    </g>
    <g id="text_25">
     <!-- TTAGTCTTGGG (3' end) -->
     <g transform="translate(438.765625 111.867187) scale(0.1 -0.1)">
      <use xlink:href="#DejaVuSans-54"/>
      <use xlink:href="#DejaVuSans-54" transform="translate(59.333984 0)"/>
      <use xlink:href="#DejaVuSans-41" transform="translate(112.667969 0)"/>
      <use xlink:href="#DejaVuSans-47" transform="translate(179.326172 0)"/>
      <use xlink:href="#DejaVuSans-54" transform="translate(253.191406 0)"/>
      <use xlink:href="#DejaVuSans-43" transform="translate(308.400391 0)"/>
      <use xlink:href="#DejaVuSans-54" transform="translate(378.224609 0)"/>
      <use xlink:href="#DejaVuSans-54" transform="translate(437.558594 0)"/>
      <use xlink:href="#DejaVuSans-47" transform="translate(498.642578 0)"/>
      <use xlink:href="#DejaVuSans-47" transform="translate(576.132812 0)"/>
      <use xlink:href="#DejaVuSans-47" transform="translate(653.623047 0)"/>
      <use xlink:href="#DejaVuSans-20" transform="translate(731.113281 0)"/>
      <use xlink:href="#DejaVuSans-28" transform="translate(762.900391 0)"/>
      <use xlink:href="#DejaVuSans-33" transform="translate(801.914062 0)"/>
      <use xlink:href="#DejaVuSans-27" transform="translate(865.537109 0)"/>
      <use xlink:href="#DejaVuSans-20" transform="translate(893.027344 0)"/>
      <use xlink:href="#DejaVuSans-65" transform="translate(924.814453 0)"/>
      <use xlink:href="#DejaVuSans-6e" transform="translate(986.337891 0)"/>
      <use xlink:href="#DejaVuSans-64" transform="translate(1049.716797 0)"/>
      <use xlink:href="#DejaVuSans-29" transform="translate(1113.193359 0)"/>
     </g>
    </g>
   </g>
  </g>
 </g>
 <defs>
  <clipPath id="p3888effee7">
   <rect x="46.965625" y="7.2" width="354.8" height="379.24"/>
  </clipPath>
 </defs>
</svg>
