<?xml version="1.0" encoding="utf-8" standalone="no"?>
<!DOCTYPE svg PUBLIC "-//W3C//DTD SVG 1.1//EN"
  "http://www.w3.org/Graphics/SVG/1.1/DTD/svg11.dtd">
<svg xmlns:xlink="http://www.w3.org/1999/xlink" width="712.123438pt" height="496.474375pt" viewBox="0 0 712.123438 496.474375" xmlns="http://www.w3.org/2000/svg" version="1.1">
 <metadata>
  <rdf:RDF xmlns:dc="http://purl.org/dc/elements/1.1/" xmlns:cc="http://creativecommons.org/ns#" xmlns:rdf="http://www.w3.org/1999/02/22-rdf-syntax-ns#">
   <cc:Work>
    <dc:type rdf:resource="http://purl.org/dc/dcmitype/StillImage"/>
    <dc:date>2026-03-20T12:45:50.836273</dc:date>
    <dc:format>image/svg+xml</dc:format>
    <dc:creator>
     <cc:Agent>
      <dc:title>Matplotlib v3.10.6, https://matplotlib.org/</dc:title>
     </cc:Agent>
    </dc:creator>
   </cc:Work>
  </rdf:RDF>
 </metadata>
 <defs>
  <style type="text/css">*{stroke-linejoin: round; stroke-linecap: butt}</style>
 </defs>
 <g id="figure_1">
  <g id="patch_1">
   <path d="M 0 496.474375 
L 712.123438 496.474375 
L 712.123438 0 
L 0 0 
z
" style="fill: #ffffff"/>
  </g>
  <g id="axes_1">
   <g id="patch_2">
    <path d="M 46.965625 458.918125 
L 545.765625 458.918125 
L 545.765625 22.318125 
L 46.965625 22.318125 
z
" style="fill: #ffffff"/>
   </g>
   <g id="matplotlib.axis_1">
    <g id="xtick_1">
     <g id="line2d_1">
      <path d="M 69.638352 458.918125 
L 69.638352 22.318125 
" clip-path="url(#pbe024f14f9)" style="fill: none; stroke-dasharray: 2.96,1.28; stroke-dashoffset: 0; stroke: #b0b0b0; stroke-opacity: 0.6; stroke-width: 0.8"/>
     </g>
     <g id="line2d_2">
      <defs>
       <path id="ma9efb17f94" d="M 0 0 
L 0 3.5 
" style="stroke: #000000; stroke-width: 0.8"/>
      </defs>
      <g>
       <use xlink:href="#ma9efb17f94" x="69.638352" y="458.918125" style="stroke: #000000; stroke-width: 0.8"/>
      </g>
     </g>
     <g id="text_1">
      <!-- 0 -->
      <g transform="translate(66.457102 473.516563) scale(0.1 -0.1)">
       <defs>
        <path id="DejaVuSans-30" d="M 2034 4250 
Q 1547 4250 1301 3770 
Q 1056 3291 1056 2328 
Q 1056 1369 1301 889 
Q 1547 409 2034 409 
Q 2525 409 2770 889 
Q 3016 1369 3016 2328 
Q 3016 3291 2770 3770 
Q 2525 4250 2034 4250 
z
M 2034 4750 
Q 2819 4750 3233 4129 
Q 3647 3509 3647 2328 
Q 3647 1150 3233 529 
Q 2819 -91 2034 -91 
Q 1250 -91 836 529 
Q 422 1150 422 2328 
Q 422 3509 836 4129 
Q 1250 4750 2034 4750 
z
" transform="scale(0.015625)"/>
       </defs>
       <use xlink:href="#DejaVuSans-30"/>
      </g>
     </g>
    </g>
    <g id="xtick_2">
     <g id="line2d_3">
      <path d="M 145.220408 458.918125 
L 145.220408 22.318125 
" clip-path="url(#pbe024f14f9)" style="fill: none; stroke-dasharray: 2.96,1.28; stroke-dashoffset: 0; stroke: #b0b0b0; stroke-opacity: 0.6; stroke-width: 0.8"/>
     </g>
     <g id="line2d_4">
      <g>
       <use xlink:href="#ma9efb17f94" x="145.220408" y="458.918125" style="stroke: #000000; stroke-width: 0.8"/>
      </g>
     </g>
     <g id="text_2">
      <!-- 2000 -->
      <g transform="translate(132.495408 473.516563) scale(0.1 -0.1)">
       <defs>
        <path id="DejaVuSans-32" d="M 1228 531 
L 3431 531 
L 3431 0 
L 469 0 
L 469 531 
Q 828 903 1448 1529 
Q 2069 2156 2228 2338 
Q 2531 2678 2651 2914 
Q 2772 3150 2772 3378 
Q 2772 3750 2511 3984 
Q 2250 4219 1831 4219 
Q 1534 4219 1204 4116 
Q 875 4013 500 3803 
L 500 4441 
Q 881 4594 1212 4672 
Q 1544 4750 1819 4750 
Q 2544 4750 2975 4387 
Q 3406 4025 3406 3419 
Q 3406 3131 3298 2873 
Q 3191 2616 2906 2266 
Q 2828 2175 2409 1742 
Q 1991 1309 1228 531 
z
" transform="scale(0.015625)"/>
       </defs>
       <use xlink:href="#DejaVuSans-32"/>
       <use xlink:href="#DejaVuSans-30" transform="translate(63.623047 0)"/>
       <use xlink:href="#DejaVuSans-30" transform="translate(127.246094 0)"/>
       <use xlink:href="#DejaVuSans-30" transform="translate(190.869141 0)"/>
      </g>
     </g>
    </g>
    <g id="xtick_3">
     <g id="line2d_5">
      <path d="M 220.802464 458.918125 
L 220.802464 22.318125 
" clip-path="url(#pbe024f14f9)" style="fill: none; stroke-dasharray: 2.96,1.28; stroke-dashoffset: 0; stroke: #b0b0b0; stroke-opacity: 0.6; stroke-width: 0.8"/>
     </g>
     <g id="line2d_6">
      <g>
       <use xlink:href="#ma9efb17f94" x="220.802464" y="458.918125" style="stroke: #000000; stroke-width: 0.8"/>
      </g>
     </g>
     <g id="text_3">
      <!-- 4000 -->
      <g transform="translate(208.077464 473.516563) scale(0.1 -0.1)">
       <defs>
        <path id="DejaVuSans-34" d="M 2419 4116 
L 825 1625 
L 2419 1625 
L 2419 4116 
z
M 2253 4666 
L 3047 4666 
L 3047 1625 
L 3713 1625 
L 3713 1100 
L 3047 1100 
L 3047 0 
L 2419 0 
L 2419 1100 
L 313 1100 
L 313 1709 
L 2253 4666 
z
" transform="scale(0.015625)"/>
       </defs>
       <use xlink:href="#DejaVuSans-34"/>
       <use xlink:href="#DejaVuSans-30" transform="translate(63.623047 0)"/>
       <use xlink:href="#DejaVuSans-30" transform="translate(127.246094 0)"/>
       <use xlink:href="#DejaVuSans-30" transform="translate(190.869141 0)"/>
      </g>
     </g>
    </g>
    <g id="xtick_4">
     <g id="line2d_7">
      <path d="M 296.384521 458.918125 
L 296.384521 22.318125 
" clip-path="url(#pbe024f14f9)" style="fill: none; stroke-dasharray: 2.96,1.28; stroke-dashoffset: 0; stroke: #b0b0b0; stroke-opacity: 0.6; stroke-width: 0.8"/>
     </g>
     <g id="line2d_8">
      <g>
       <use xlink:href="#ma9efb17f94" x="296.384521" y="458.918125" style="stroke: #000000; stroke-width: 0.8"/>
      </g>
     </g>
     <g id="text_4">
      <!-- 6000 -->
      <g transform="translate(283.659521 473.516563) scale(0.1 -0.1)">
       <defs>
        <path id="DejaVuSans-36" d="M 2113 2584 
Q 1688 2584 1439 2293 
Q 1191 2003 1191 1497 
Q 1191 994 1439 701 
Q 1688 409 2113 409 
Q 2538 409 2786 701 
Q 3034 994 3034 1497 
Q 3034 2003 2786 2293 
Q 2538 2584 2113 2584 
z
M 3366 4563 
L 3366 3988 
Q 3128 4100 2886 4159 
Q 2644 4219 2406 4219 
Q 1781 4219 1451 3797 
Q 1122 3375 1075 2522 
Q 1259 2794 1537 2939 
Q 1816 3084 2150 3084 
Q 2853 3084 3261 2657 
Q 3669 2231 3669 1497 
Q 3669 778 3244 343 
Q 2819 -91 2113 -91 
Q 1303 -91 875 529 
Q 447 1150 447 2328 
Q 447 3434 972 4092 
Q 1497 4750 2381 4750 
Q 2619 4750 2861 4703 
Q 3103 4656 3366 4563 
z
" transform="scale(0.015625)"/>
       </defs>
       <use xlink:href="#DejaVuSans-36"/>
       <use xlink:href="#DejaVuSans-30" transform="translate(63.623047 0)"/>
       <use xlink:href="#DejaVuSans-30" transform="translate(127.246094 0)"/>
       <use xlink:href="#DejaVuSans-30" transform="translate(190.869141 0)"/>
      </g>
     </g>
    </g>
    <g id="xtick_5">
     <g id="line2d_9">
      <path d="M 371.966577 458.918125 
L 371.966577 22.318125 
" clip-path="url(#pbe024f14f9)" style="fill: none; stroke-dasharray: 2.96,1.28; stroke-dashoffset: 0; stroke: #b0b0b0; stroke-opacity: 0.6; stroke-width: 0.8"/>
     </g>
     <g id="line2d_10">
      <g>
       <use xlink:href="#ma9efb17f94" x="371.966577" y="458.918125" style="stroke: #000000; stroke-width: 0.8"/>
      </g>
     </g>
     <g id="text_5">
      <!-- 8000 -->
      <g transform="translate(359.241577 473.516563) scale(0.1 -0.1)">
       <defs>
        <path id="DejaVuSans-38" d="M 2034 2216 
Q 1584 2216 1326 1975 
Q 1069 1734 1069 1313 
Q 1069 891 1326 650 
Q 1584 409 2034 409 
Q 2484 409 2743 651 
Q 3003 894 3003 1313 
Q 3003 1734 2745 1975 
Q 2488 2216 2034 2216 
z
M 1403 2484 
Q 997 2584 770 2862 
Q 544 3141 544 3541 
Q 544 4100 942 4425 
Q 1341 4750 2034 4750 
Q 2731 4750 3128 4425 
Q 3525 4100 3525 3541 
Q 3525 3141 3298 2862 
Q 3072 2584 2669 2484 
Q 3125 2378 3379 2068 
Q 3634 1759 3634 1313 
Q 3634 634 3220 271 
Q 2806 -91 2034 -91 
Q 1263 -91 848 271 
Q 434 634 434 1313 
Q 434 1759 690 2068 
Q 947 2378 1403 2484 
z
M 1172 3481 
Q 1172 3119 1398 2916 
Q 1625 2713 2034 2713 
Q 2441 2713 2670 2916 
Q 2900 3119 2900 3481 
Q 2900 3844 2670 4047 
Q 2441 4250 2034 4250 
Q 1625 4250 1398 4047 
Q 1172 3844 1172 3481 
z
" transform="scale(0.015625)"/>
       </defs>
       <use xlink:href="#DejaVuSans-38"/>
       <use xlink:href="#DejaVuSans-30" transform="translate(63.623047 0)"/>
       <use xlink:href="#DejaVuSans-30" transform="translate(127.246094 0)"/>
       <use xlink:href="#DejaVuSans-30" transform="translate(190.869141 0)"/>
      </g>
     </g>
    </g>
    <g id="xtick_6">
     <g id="line2d_11">
      <path d="M 447.548633 458.918125 
L 447.548633 22.318125 
" clip-path="url(#pbe024f14f9)" style="fill: none; stroke-dasharray: 2.96,1.28; stroke-dashoffset: 0; stroke: #b0b0b0; stroke-opacity: 0.6; stroke-width: 0.8"/>
     </g>
     <g id="line2d_12">
      <g>
       <use xlink:href="#ma9efb17f94" x="447.548633" y="458.918125" style="stroke: #000000; stroke-width: 0.8"/>
      </g>
     </g>
     <g id="text_6">
      <!-- 10000 -->
      <g transform="translate(431.642383 473.516563) scale(0.1 -0.1)">
       <defs>
        <path id="DejaVuSans-31" d="M 794 531 
L 1825 531 
L 1825 4091 
L 703 3866 
L 703 4441 
L 1819 4666 
L 2450 4666 
L 2450 531 
L 3481 531 
L 3481 0 
L 794 0 
L 794 531 
z
" transform="scale(0.015625)"/>
       </defs>
       <use xlink:href="#DejaVuSans-31"/>
       <use xlink:href="#DejaVuSans-30" transform="translate(63.623047 0)"/>
       <use xlink:href="#DejaVuSans-30" transform="translate(127.246094 0)"/>
       <use xlink:href="#DejaVuSans-30" transform="translate(190.869141 0)"/>
       <use xlink:href="#DejaVuSans-30" transform="translate(254.492188 0)"/>
      </g>
     </g>
    </g>
    <g id="xtick_7">
     <g id="line2d_13">
      <path d="M 523.130689 458.918125 
L 523.130689 22.318125 
" clip-path="url(#pbe024f14f9)" style="fill: none; stroke-dasharray: 2.96,1.28; stroke-dashoffset: 0; stroke: #b0b0b0; stroke-opacity: 0.6; stroke-width: 0.8"/>
     </g>
     <g id="line2d_14">
      <g>
       <use xlink:href="#ma9efb17f94" x="523.130689" y="458.918125" style="stroke: #000000; stroke-width: 0.8"/>
      </g>
     </g>
     <g id="text_7">
      <!-- 12000 -->
      <g transform="translate(507.224439 473.516563) scale(0.1 -0.1)">
       <use xlink:href="#DejaVuSans-31"/>
       <use xlink:href="#DejaVuSans-32" transform="translate(63.623047 0)"/>
       <use xlink:href="#DejaVuSans-30" transform="translate(127.246094 0)"/>
       <use xlink:href="#DejaVuSans-30" transform="translate(190.869141 0)"/>
       <use xlink:href="#DejaVuSans-30" transform="translate(254.492188 0)"/>
      </g>
     </g>
    </g>
    <g id="text_8">
     <!-- Distance from Terminus [nt] -->
     <g transform="translate(226.622656 487.194687) scale(0.1 -0.1)">
      <defs>
       <path id="DejaVuSans-44" d="M 1259 4147 
L 1259 519 
L 2022 519 
Q 2988 519 3436 956 
Q 3884 1394 3884 2338 
Q 3884 3275 3436 3711 
Q 2988 4147 2022 4147 
L 1259 4147 
z
M 628 4666 
L 1925 4666 
Q 3281 4666 3915 4102 
Q 4550 3538 4550 2338 
Q 4550 1131 3912 565 
Q 3275 0 1925 0 
L 628 0 
L 628 4666 
z
" transform="scale(0.015625)"/>
       <path id="DejaVuSans-69" d="M 603 3500 
L 1178 3500 
L 1178 0 
L 603 0 
L 603 3500 
z
M 603 4863 
L 1178 4863 
L 1178 4134 
L 603 4134 
L 603 4863 
z
" transform="scale(0.015625)"/>
       <path id="DejaVuSans-73" d="M 2834 3397 
L 2834 2853 
Q 2591 2978 2328 3040 
Q 2066 3103 1784 3103 
Q 1356 3103 1142 2972 
Q 928 2841 928 2578 
Q 928 2378 1081 2264 
Q 1234 2150 1697 2047 
L 1894 2003 
Q 2506 1872 2764 1633 
Q 3022 1394 3022 966 
Q 3022 478 2636 193 
Q 2250 -91 1575 -91 
Q 1294 -91 989 -36 
Q 684 19 347 128 
L 347 722 
Q 666 556 975 473 
Q 1284 391 1588 391 
Q 1994 391 2212 530 
Q 2431 669 2431 922 
Q 2431 1156 2273 1281 
Q 2116 1406 1581 1522 
L 1381 1569 
Q 847 1681 609 1914 
Q 372 2147 372 2553 
Q 372 3047 722 3315 
Q 1072 3584 1716 3584 
Q 2034 3584 2315 3537 
Q 2597 3491 2834 3397 
z
" transform="scale(0.015625)"/>
       <path id="DejaVuSans-74" d="M 1172 4494 
L 1172 3500 
L 2356 3500 
L 2356 3053 
L 1172 3053 
L 1172 1153 
Q 1172 725 1289 603 
Q 1406 481 1766 481 
L 2356 481 
L 2356 0 
L 1766 0 
Q 1100 0 847 248 
Q 594 497 594 1153 
L 594 3053 
L 172 3053 
L 172 3500 
L 594 3500 
L 594 4494 
L 1172 4494 
z
" transform="scale(0.015625)"/>
       <path id="DejaVuSans-61" d="M 2194 1759 
Q 1497 1759 1228 1600 
Q 959 1441 959 1056 
Q 959 750 1161 570 
Q 1363 391 1709 391 
Q 2188 391 2477 730 
Q 2766 1069 2766 1631 
L 2766 1759 
L 2194 1759 
z
M 3341 1997 
L 3341 0 
L 2766 0 
L 2766 531 
Q 2569 213 2275 61 
Q 1981 -91 1556 -91 
Q 1019 -91 701 211 
Q 384 513 384 1019 
Q 384 1609 779 1909 
Q 1175 2209 1959 2209 
L 2766 2209 
L 2766 2266 
Q 2766 2663 2505 2880 
Q 2244 3097 1772 3097 
Q 1472 3097 1187 3025 
Q 903 2953 641 2809 
L 641 3341 
Q 956 3463 1253 3523 
Q 1550 3584 1831 3584 
Q 2591 3584 2966 3190 
Q 3341 2797 3341 1997 
z
" transform="scale(0.015625)"/>
       <path id="DejaVuSans-6e" d="M 3513 2113 
L 3513 0 
L 2938 0 
L 2938 2094 
Q 2938 2591 2744 2837 
Q 2550 3084 2163 3084 
Q 1697 3084 1428 2787 
Q 1159 2491 1159 1978 
L 1159 0 
L 581 0 
L 581 3500 
L 1159 3500 
L 1159 2956 
Q 1366 3272 1645 3428 
Q 1925 3584 2291 3584 
Q 2894 3584 3203 3211 
Q 3513 2838 3513 2113 
z
" transform="scale(0.015625)"/>
       <path id="DejaVuSans-63" d="M 3122 3366 
L 3122 2828 
Q 2878 2963 2633 3030 
Q 2388 3097 2138 3097 
Q 1578 3097 1268 2742 
Q 959 2388 959 1747 
Q 959 1106 1268 751 
Q 1578 397 2138 397 
Q 2388 397 2633 464 
Q 2878 531 3122 666 
L 3122 134 
Q 2881 22 2623 -34 
Q 2366 -91 2075 -91 
Q 1284 -91 818 406 
Q 353 903 353 1747 
Q 353 2603 823 3093 
Q 1294 3584 2113 3584 
Q 2378 3584 2631 3529 
Q 2884 3475 3122 3366 
z
" transform="scale(0.015625)"/>
       <path id="DejaVuSans-65" d="M 3597 1894 
L 3597 1613 
L 953 1613 
Q 991 1019 1311 708 
Q 1631 397 2203 397 
Q 2534 397 2845 478 
Q 3156 559 3463 722 
L 3463 178 
Q 3153 47 2828 -22 
Q 2503 -91 2169 -91 
Q 1331 -91 842 396 
Q 353 884 353 1716 
Q 353 2575 817 3079 
Q 1281 3584 2069 3584 
Q 2775 3584 3186 3129 
Q 3597 2675 3597 1894 
z
M 3022 2063 
Q 3016 2534 2758 2815 
Q 2500 3097 2075 3097 
Q 1594 3097 1305 2825 
Q 1016 2553 972 2059 
L 3022 2063 
z
" transform="scale(0.015625)"/>
       <path id="DejaVuSans-20" transform="scale(0.015625)"/>
       <path id="DejaVuSans-66" d="M 2375 4863 
L 2375 4384 
L 1825 4384 
Q 1516 4384 1395 4259 
Q 1275 4134 1275 3809 
L 1275 3500 
L 2222 3500 
L 2222 3053 
L 1275 3053 
L 1275 0 
L 697 0 
L 697 3053 
L 147 3053 
L 147 3500 
L 697 3500 
L 697 3744 
Q 697 4328 969 4595 
Q 1241 4863 1831 4863 
L 2375 4863 
z
" transform="scale(0.015625)"/>
       <path id="DejaVuSans-72" d="M 2631 2963 
Q 2534 3019 2420 3045 
Q 2306 3072 2169 3072 
Q 1681 3072 1420 2755 
Q 1159 2438 1159 1844 
L 1159 0 
L 581 0 
L 581 3500 
L 1159 3500 
L 1159 2956 
Q 1341 3275 1631 3429 
Q 1922 3584 2338 3584 
Q 2397 3584 2469 3576 
Q 2541 3569 2628 3553 
L 2631 2963 
z
" transform="scale(0.015625)"/>
       <path id="DejaVuSans-6f" d="M 1959 3097 
Q 1497 3097 1228 2736 
Q 959 2375 959 1747 
Q 959 1119 1226 758 
Q 1494 397 1959 397 
Q 2419 397 2687 759 
Q 2956 1122 2956 1747 
Q 2956 2369 2687 2733 
Q 2419 3097 1959 3097 
z
M 1959 3584 
Q 2709 3584 3137 3096 
Q 3566 2609 3566 1747 
Q 3566 888 3137 398 
Q 2709 -91 1959 -91 
Q 1206 -91 779 398 
Q 353 888 353 1747 
Q 353 2609 779 3096 
Q 1206 3584 1959 3584 
z
" transform="scale(0.015625)"/>
       <path id="DejaVuSans-6d" d="M 3328 2828 
Q 3544 3216 3844 3400 
Q 4144 3584 4550 3584 
Q 5097 3584 5394 3201 
Q 5691 2819 5691 2113 
L 5691 0 
L 5113 0 
L 5113 2094 
Q 5113 2597 4934 2840 
Q 4756 3084 4391 3084 
Q 3944 3084 3684 2787 
Q 3425 2491 3425 1978 
L 3425 0 
L 2847 0 
L 2847 2094 
Q 2847 2600 2669 2842 
Q 2491 3084 2119 3084 
Q 1678 3084 1418 2786 
Q 1159 2488 1159 1978 
L 1159 0 
L 581 0 
L 581 3500 
L 1159 3500 
L 1159 2956 
Q 1356 3278 1631 3431 
Q 1906 3584 2284 3584 
Q 2666 3584 2933 3390 
Q 3200 3197 3328 2828 
z
" transform="scale(0.015625)"/>
       <path id="DejaVuSans-54" d="M -19 4666 
L 3928 4666 
L 3928 4134 
L 2272 4134 
L 2272 0 
L 1638 0 
L 1638 4134 
L -19 4134 
L -19 4666 
z
" transform="scale(0.015625)"/>
       <path id="DejaVuSans-75" d="M 544 1381 
L 544 3500 
L 1119 3500 
L 1119 1403 
Q 1119 906 1312 657 
Q 1506 409 1894 409 
Q 2359 409 2629 706 
Q 2900 1003 2900 1516 
L 2900 3500 
L 3475 3500 
L 3475 0 
L 2900 0 
L 2900 538 
Q 2691 219 2414 64 
Q 2138 -91 1772 -91 
Q 1169 -91 856 284 
Q 544 659 544 1381 
z
M 1991 3584 
L 1991 3584 
z
" transform="scale(0.015625)"/>
       <path id="DejaVuSans-5b" d="M 550 4863 
L 1875 4863 
L 1875 4416 
L 1125 4416 
L 1125 -397 
L 1875 -397 
L 1875 -844 
L 550 -844 
L 550 4863 
z
" transform="scale(0.015625)"/>
       <path id="DejaVuSans-5d" d="M 1947 4863 
L 1947 -844 
L 622 -844 
L 622 -397 
L 1369 -397 
L 1369 4416 
L 622 4416 
L 622 4863 
L 1947 4863 
z
" transform="scale(0.015625)"/>
      </defs>
      <use xlink:href="#DejaVuSans-44"/>
      <use xlink:href="#DejaVuSans-69" transform="translate(77.001953 0)"/>
      <use xlink:href="#DejaVuSans-73" transform="translate(104.785156 0)"/>
      <use xlink:href="#DejaVuSans-74" transform="translate(156.884766 0)"/>
      <use xlink:href="#DejaVuSans-61" transform="translate(196.09375 0)"/>
      <use xlink:href="#DejaVuSans-6e" transform="translate(257.373047 0)"/>
      <use xlink:href="#DejaVuSans-63" transform="translate(320.751953 0)"/>
      <use xlink:href="#DejaVuSans-65" transform="translate(375.732422 0)"/>
      <use xlink:href="#DejaVuSans-20" transform="translate(437.255859 0)"/>
      <use xlink:href="#DejaVuSans-66" transform="translate(469.042969 0)"/>
      <use xlink:href="#DejaVuSans-72" transform="translate(504.248047 0)"/>
      <use xlink:href="#DejaVuSans-6f" transform="translate(543.111328 0)"/>
      <use xlink:href="#DejaVuSans-6d" transform="translate(604.292969 0)"/>
      <use xlink:href="#DejaVuSans-20" transform="translate(701.705078 0)"/>
      <use xlink:href="#DejaVuSans-54" transform="translate(733.492188 0)"/>
      <use xlink:href="#DejaVuSans-65" transform="translate(777.576172 0)"/>
      <use xlink:href="#DejaVuSans-72" transform="translate(839.099609 0)"/>
      <use xlink:href="#DejaVuSans-6d" transform="translate(878.462891 0)"/>
      <use xlink:href="#DejaVuSans-69" transform="translate(975.875 0)"/>
      <use xlink:href="#DejaVuSans-6e" transform="translate(1003.658203 0)"/>
      <use xlink:href="#DejaVuSans-75" transform="translate(1067.037109 0)"/>
      <use xlink:href="#DejaVuSans-73" transform="translate(1130.416016 0)"/>
      <use xlink:href="#DejaVuSans-20" transform="translate(1182.515625 0)"/>
      <use xlink:href="#DejaVuSans-5b" transform="translate(1214.302734 0)"/>
      <use xlink:href="#DejaVuSans-6e" transform="translate(1253.316406 0)"/>
      <use xlink:href="#DejaVuSans-74" transform="translate(1316.695312 0)"/>
      <use xlink:href="#DejaVuSans-5d" transform="translate(1355.904297 0)"/>
     </g>
    </g>
   </g>
   <g id="matplotlib.axis_2">
    <g id="ytick_1">
     <g id="line2d_15">
      <path d="M 46.965625 439.07267 
L 545.765625 439.07267 
" clip-path="url(#pbe024f14f9)" style="fill: none; stroke-dasharray: 2.96,1.28; stroke-dashoffset: 0; stroke: #b0b0b0; stroke-opacity: 0.6; stroke-width: 0.8"/>
     </g>
     <g id="line2d_16">
      <defs>
       <path id="m2585558736" d="M 0 0 
L -3.5 0 
" style="stroke: #000000; stroke-width: 0.8"/>
      </defs>
      <g>
       <use xlink:href="#m2585558736" x="46.965625" y="439.07267" style="stroke: #000000; stroke-width: 0.8"/>
      </g>
     </g>
     <g id="text_9">
      <!-- 0 -->
      <g transform="translate(33.603125 442.871889) scale(0.1 -0.1)">
       <use xlink:href="#DejaVuSans-30"/>
      </g>
     </g>
    </g>
    <g id="ytick_2">
     <g id="line2d_17">
      <path d="M 46.965625 359.050676 
L 545.765625 359.050676 
" clip-path="url(#pbe024f14f9)" style="fill: none; stroke-dasharray: 2.96,1.28; stroke-dashoffset: 0; stroke: #b0b0b0; stroke-opacity: 0.6; stroke-width: 0.8"/>
     </g>
     <g id="line2d_18">
      <g>
       <use xlink:href="#m2585558736" x="46.965625" y="359.050676" style="stroke: #000000; stroke-width: 0.8"/>
      </g>
     </g>
     <g id="text_10">
      <!-- 50 -->
      <g transform="translate(27.240625 362.849895) scale(0.1 -0.1)">
       <defs>
        <path id="DejaVuSans-35" d="M 691 4666 
L 3169 4666 
L 3169 4134 
L 1269 4134 
L 1269 2991 
Q 1406 3038 1543 3061 
Q 1681 3084 1819 3084 
Q 2600 3084 3056 2656 
Q 3513 2228 3513 1497 
Q 3513 744 3044 326 
Q 2575 -91 1722 -91 
Q 1428 -91 1123 -41 
Q 819 9 494 109 
L 494 744 
Q 775 591 1075 516 
Q 1375 441 1709 441 
Q 2250 441 2565 725 
Q 2881 1009 2881 1497 
Q 2881 1984 2565 2268 
Q 2250 2553 1709 2553 
Q 1456 2553 1204 2497 
Q 953 2441 691 2322 
L 691 4666 
z
" transform="scale(0.015625)"/>
       </defs>
       <use xlink:href="#DejaVuSans-35"/>
       <use xlink:href="#DejaVuSans-30" transform="translate(63.623047 0)"/>
      </g>
     </g>
    </g>
    <g id="ytick_3">
     <g id="line2d_19">
      <path d="M 46.965625 279.028682 
L 545.765625 279.028682 
" clip-path="url(#pbe024f14f9)" style="fill: none; stroke-dasharray: 2.96,1.28; stroke-dashoffset: 0; stroke: #b0b0b0; stroke-opacity: 0.6; stroke-width: 0.8"/>
     </g>
     <g id="line2d_20">
      <g>
       <use xlink:href="#m2585558736" x="46.965625" y="279.028682" style="stroke: #000000; stroke-width: 0.8"/>
      </g>
     </g>
     <g id="text_11">
      <!-- 100 -->
      <g transform="translate(20.878125 282.827901) scale(0.1 -0.1)">
       <use xlink:href="#DejaVuSans-31"/>
       <use xlink:href="#DejaVuSans-30" transform="translate(63.623047 0)"/>
       <use xlink:href="#DejaVuSans-30" transform="translate(127.246094 0)"/>
      </g>
     </g>
    </g>
    <g id="ytick_4">
     <g id="line2d_21">
      <path d="M 46.965625 199.006688 
L 545.765625 199.006688 
" clip-path="url(#pbe024f14f9)" style="fill: none; stroke-dasharray: 2.96,1.28; stroke-dashoffset: 0; stroke: #b0b0b0; stroke-opacity: 0.6; stroke-width: 0.8"/>
     </g>
     <g id="line2d_22">
      <g>
       <use xlink:href="#m2585558736" x="46.965625" y="199.006688" style="stroke: #000000; stroke-width: 0.8"/>
      </g>
     </g>
     <g id="text_12">
      <!-- 150 -->
      <g transform="translate(20.878125 202.805907) scale(0.1 -0.1)">
       <use xlink:href="#DejaVuSans-31"/>
       <use xlink:href="#DejaVuSans-35" transform="translate(63.623047 0)"/>
       <use xlink:href="#DejaVuSans-30" transform="translate(127.246094 0)"/>
      </g>
     </g>
    </g>
    <g id="ytick_5">
     <g id="line2d_23">
      <path d="M 46.965625 118.984694 
L 545.765625 118.984694 
" clip-path="url(#pbe024f14f9)" style="fill: none; stroke-dasharray: 2.96,1.28; stroke-dashoffset: 0; stroke: #b0b0b0; stroke-opacity: 0.6; stroke-width: 0.8"/>
     </g>
     <g id="line2d_24">
      <g>
       <use xlink:href="#m2585558736" x="46.965625" y="118.984694" style="stroke: #000000; stroke-width: 0.8"/>
      </g>
     </g>
     <g id="text_13">
      <!-- 200 -->
      <g transform="translate(20.878125 122.783913) scale(0.1 -0.1)">
       <use xlink:href="#DejaVuSans-32"/>
       <use xlink:href="#DejaVuSans-30" transform="translate(63.623047 0)"/>
       <use xlink:href="#DejaVuSans-30" transform="translate(127.246094 0)"/>
      </g>
     </g>
    </g>
    <g id="ytick_6">
     <g id="line2d_25">
      <path d="M 46.965625 38.9627 
L 545.765625 38.9627 
" clip-path="url(#pbe024f14f9)" style="fill: none; stroke-dasharray: 2.96,1.28; stroke-dashoffset: 0; stroke: #b0b0b0; stroke-opacity: 0.6; stroke-width: 0.8"/>
     </g>
     <g id="line2d_26">
      <g>
       <use xlink:href="#m2585558736" x="46.965625" y="38.9627" style="stroke: #000000; stroke-width: 0.8"/>
      </g>
     </g>
     <g id="text_14">
      <!-- 250 -->
      <g transform="translate(20.878125 42.761919) scale(0.1 -0.1)">
       <use xlink:href="#DejaVuSans-32"/>
       <use xlink:href="#DejaVuSans-35" transform="translate(63.623047 0)"/>
       <use xlink:href="#DejaVuSans-30" transform="translate(127.246094 0)"/>
      </g>
     </g>
    </g>
    <g id="text_15">
     <!-- Average Cumulative Count -->
     <g transform="translate(14.798438 307.715) rotate(-90) scale(0.1 -0.1)">
      <defs>
       <path id="DejaVuSans-41" d="M 2188 4044 
L 1331 1722 
L 3047 1722 
L 2188 4044 
z
M 1831 4666 
L 2547 4666 
L 4325 0 
L 3669 0 
L 3244 1197 
L 1141 1197 
L 716 0 
L 50 0 
L 1831 4666 
z
" transform="scale(0.015625)"/>
       <path id="DejaVuSans-76" d="M 191 3500 
L 800 3500 
L 1894 563 
L 2988 3500 
L 3597 3500 
L 2284 0 
L 1503 0 
L 191 3500 
z
" transform="scale(0.015625)"/>
       <path id="DejaVuSans-67" d="M 2906 1791 
Q 2906 2416 2648 2759 
Q 2391 3103 1925 3103 
Q 1463 3103 1205 2759 
Q 947 2416 947 1791 
Q 947 1169 1205 825 
Q 1463 481 1925 481 
Q 2391 481 2648 825 
Q 2906 1169 2906 1791 
z
M 3481 434 
Q 3481 -459 3084 -895 
Q 2688 -1331 1869 -1331 
Q 1566 -1331 1297 -1286 
Q 1028 -1241 775 -1147 
L 775 -588 
Q 1028 -725 1275 -790 
Q 1522 -856 1778 -856 
Q 2344 -856 2625 -561 
Q 2906 -266 2906 331 
L 2906 616 
Q 2728 306 2450 153 
Q 2172 0 1784 0 
Q 1141 0 747 490 
Q 353 981 353 1791 
Q 353 2603 747 3093 
Q 1141 3584 1784 3584 
Q 2172 3584 2450 3431 
Q 2728 3278 2906 2969 
L 2906 3500 
L 3481 3500 
L 3481 434 
z
" transform="scale(0.015625)"/>
       <path id="DejaVuSans-43" d="M 4122 4306 
L 4122 3641 
Q 3803 3938 3442 4084 
Q 3081 4231 2675 4231 
Q 1875 4231 1450 3742 
Q 1025 3253 1025 2328 
Q 1025 1406 1450 917 
Q 1875 428 2675 428 
Q 3081 428 3442 575 
Q 3803 722 4122 1019 
L 4122 359 
Q 3791 134 3420 21 
Q 3050 -91 2638 -91 
Q 1578 -91 968 557 
Q 359 1206 359 2328 
Q 359 3453 968 4101 
Q 1578 4750 2638 4750 
Q 3056 4750 3426 4639 
Q 3797 4528 4122 4306 
z
" transform="scale(0.015625)"/>
       <path id="DejaVuSans-6c" d="M 603 4863 
L 1178 4863 
L 1178 0 
L 603 0 
L 603 4863 
z
" transform="scale(0.015625)"/>
      </defs>
      <use xlink:href="#DejaVuSans-41"/>
      <use xlink:href="#DejaVuSans-76" transform="translate(62.533203 0)"/>
      <use xlink:href="#DejaVuSans-65" transform="translate(121.712891 0)"/>
      <use xlink:href="#DejaVuSans-72" transform="translate(183.236328 0)"/>
      <use xlink:href="#DejaVuSans-61" transform="translate(224.349609 0)"/>
      <use xlink:href="#DejaVuSans-67" transform="translate(285.628906 0)"/>
      <use xlink:href="#DejaVuSans-65" transform="translate(349.105469 0)"/>
      <use xlink:href="#DejaVuSans-20" transform="translate(410.628906 0)"/>
      <use xlink:href="#DejaVuSans-43" transform="translate(442.416016 0)"/>
      <use xlink:href="#DejaVuSans-75" transform="translate(512.240234 0)"/>
      <use xlink:href="#DejaVuSans-6d" transform="translate(575.619141 0)"/>
      <use xlink:href="#DejaVuSans-75" transform="translate(673.03125 0)"/>
      <use xlink:href="#DejaVuSans-6c" transform="translate(736.410156 0)"/>
      <use xlink:href="#DejaVuSans-61" transform="translate(764.193359 0)"/>
      <use xlink:href="#DejaVuSans-74" transform="translate(825.472656 0)"/>
      <use xlink:href="#DejaVuSans-69" transform="translate(864.681641 0)"/>
      <use xlink:href="#DejaVuSans-76" transform="translate(892.464844 0)"/>
      <use xlink:href="#DejaVuSans-65" transform="translate(951.644531 0)"/>
      <use xlink:href="#DejaVuSans-20" transform="translate(1013.167969 0)"/>
      <use xlink:href="#DejaVuSans-43" transform="translate(1044.955078 0)"/>
      <use xlink:href="#DejaVuSans-6f" transform="translate(1114.779297 0)"/>
      <use xlink:href="#DejaVuSans-75" transform="translate(1175.960938 0)"/>
      <use xlink:href="#DejaVuSans-6e" transform="translate(1239.339844 0)"/>
      <use xlink:href="#DejaVuSans-74" transform="translate(1302.71875 0)"/>
     </g>
    </g>
   </g>
   <g id="line2d_27">
    <path d="M 69.638352 439.07267 
L 523.092898 439.07267 
L 523.092898 439.07267 
" clip-path="url(#pbe024f14f9)" style="fill: none; stroke: #006ba4; stroke-width: 2; stroke-linecap: square"/>
   </g>
   <g id="line2d_28">
    <path d="M 69.638352 439.07267 
L 76.402946 439.07267 
L 76.516319 437.472231 
L 523.092898 437.472231 
L 523.092898 437.472231 
" clip-path="url(#pbe024f14f9)" style="fill: none; stroke: #ff800e; stroke-width: 2; stroke-linecap: square"/>
   </g>
   <g id="line2d_29">
    <path d="M 69.638352 439.07267 
L 72.321515 439.07267 
L 72.434888 437.472231 
L 72.737217 437.472231 
L 72.85059 435.871791 
L 74.097694 435.871791 
L 74.211067 434.271351 
L 75.609335 434.271351 
L 75.722708 432.670911 
L 76.856439 432.670911 
L 76.969812 431.070471 
L 77.27214 431.070471 
L 77.385513 429.470031 
L 77.687841 429.470031 
L 77.801214 427.869591 
L 78.103543 427.869591 
L 78.216916 426.269151 
L 78.519244 426.269151 
L 78.632617 424.668712 
L 78.934945 424.668712 
L 79.048318 423.068272 
L 79.350646 423.068272 
L 79.46402 421.467832 
L 80.182049 421.467832 
L 80.295422 419.867392 
L 80.59775 419.867392 
L 80.711123 418.266952 
L 81.542526 418.266952 
L 81.655899 416.666512 
L 81.958227 416.666512 
L 82.0716 415.066072 
L 82.373929 415.066072 
L 82.487302 413.465632 
L 82.78963 413.465632 
L 82.903003 411.865192 
L 83.205331 411.865192 
L 83.318704 410.264753 
L 83.621033 410.264753 
L 83.734406 408.664313 
L 84.036734 408.664313 
L 84.150107 407.063873 
L 84.452435 407.063873 
L 84.565808 405.463433 
L 84.868137 405.463433 
L 84.98151 403.862993 
L 85.283838 403.862993 
L 85.397211 402.262553 
L 85.699539 402.262553 
L 85.812912 400.662113 
L 86.11524 400.662113 
L 86.228614 399.061673 
L 86.530942 399.061673 
L 86.644315 397.461234 
L 86.946643 397.461234 
L 87.060016 395.860794 
L 87.362344 395.860794 
L 87.475718 394.260354 
L 87.778046 394.260354 
L 87.891419 392.659914 
L 88.193747 392.659914 
L 88.30712 391.059474 
L 88.609448 391.059474 
L 88.722821 389.459034 
L 89.02515 389.459034 
L 89.138523 387.858594 
L 89.440851 387.858594 
L 89.554224 386.258154 
L 89.856552 386.258154 
L 89.969925 384.657714 
L 90.272254 384.657714 
L 90.385627 383.057275 
L 90.687955 383.057275 
L 90.801328 381.456835 
L 91.103656 381.456835 
L 91.217029 379.856395 
L 91.519358 379.856395 
L 91.632731 378.255955 
L 91.935059 378.255955 
L 92.048432 376.655515 
L 92.35076 376.655515 
L 92.464133 375.055075 
L 92.766461 375.055075 
L 92.879835 373.454635 
L 93.182163 373.454635 
L 93.295536 371.854195 
L 93.597864 371.854195 
L 93.711237 370.253755 
L 94.013565 370.253755 
L 94.126938 368.653316 
L 94.429267 368.653316 
L 94.54264 367.052876 
L 94.844968 367.052876 
L 94.958341 365.452436 
L 95.260669 365.452436 
L 95.374042 363.851996 
L 95.676371 363.851996 
L 95.789744 362.251556 
L 96.092072 362.251556 
L 96.205445 360.651116 
L 96.507773 360.651116 
L 96.621146 359.050676 
L 96.923475 359.050676 
L 97.036848 357.450236 
L 97.339176 357.450236 
L 97.452549 355.849797 
L 97.754877 355.849797 
L 97.86825 354.249357 
L 98.170578 354.249357 
L 98.283952 352.648917 
L 98.58628 352.648917 
L 98.699653 351.048477 
L 99.001981 351.048477 
L 99.115354 349.448037 
L 99.417682 349.448037 
L 99.531055 347.847597 
L 99.833384 347.847597 
L 99.946757 346.247157 
L 100.249085 346.247157 
L 100.362458 344.646717 
L 100.702577 344.646717 
L 100.81595 343.046277 
L 101.118279 343.046277 
L 101.231652 341.445838 
L 101.571771 341.445838 
L 101.685144 339.845398 
L 101.987472 339.845398 
L 102.100845 338.244958 
L 102.403174 338.244958 
L 102.516547 336.644518 
L 102.818875 336.644518 
L 102.932248 335.044078 
L 103.234576 335.044078 
L 103.347949 333.443638 
L 103.650278 333.443638 
L 103.763651 331.843198 
L 104.10377 331.843198 
L 104.217143 330.242758 
L 104.519471 330.242758 
L 104.632844 328.642319 
L 104.935172 328.642319 
L 105.048546 327.041879 
L 105.350874 327.041879 
L 105.464247 325.441439 
L 105.766575 325.441439 
L 105.879948 323.840999 
L 106.182276 323.840999 
L 106.295649 322.240559 
L 106.597978 322.240559 
L 106.711351 320.640119 
L 107.013679 320.640119 
L 107.127052 319.039679 
L 107.42938 319.039679 
L 107.542753 317.439239 
L 107.845082 317.439239 
L 107.958455 315.838799 
L 108.260783 315.838799 
L 108.374156 314.23836 
L 108.676484 314.23836 
L 108.789857 312.63792 
L 109.092186 312.63792 
L 109.205559 311.03748 
L 109.507887 311.03748 
L 109.62126 309.43704 
L 109.923588 309.43704 
L 110.036961 307.8366 
L 110.339289 307.8366 
L 110.452663 306.23616 
L 110.754991 306.23616 
L 110.868364 304.63572 
L 111.170692 304.63572 
L 111.284065 303.03528 
L 111.586393 303.03528 
L 111.699766 301.434841 
L 112.002095 301.434841 
L 112.115468 299.834401 
L 112.417796 299.834401 
L 112.531169 298.233961 
L 112.833497 298.233961 
L 112.94687 296.633521 
L 113.249199 296.633521 
L 113.362572 295.033081 
L 113.6649 295.033081 
L 113.778273 293.432641 
L 114.080601 293.432641 
L 114.193974 291.832201 
L 114.496303 291.832201 
L 114.609676 290.231761 
L 114.912004 290.231761 
L 115.025377 288.631321 
L 115.327705 288.631321 
L 115.441078 287.030882 
L 115.743406 287.030882 
L 115.85678 285.430442 
L 116.159108 285.430442 
L 116.272481 283.830002 
L 116.574809 283.830002 
L 116.688182 282.229562 
L 116.99051 282.229562 
L 117.103883 280.629122 
L 117.406212 280.629122 
L 117.519585 279.028682 
L 117.821913 279.028682 
L 117.935286 277.428242 
L 118.237614 277.428242 
L 118.350987 275.827802 
L 118.653316 275.827802 
L 118.766689 274.227363 
L 119.069017 274.227363 
L 119.18239 272.626923 
L 119.484718 272.626923 
L 119.598091 271.026483 
L 119.90042 271.026483 
L 120.013793 269.426043 
L 120.316121 269.426043 
L 120.429494 267.825603 
L 120.731822 267.825603 
L 120.845195 266.225163 
L 121.147523 266.225163 
L 121.260897 264.624723 
L 121.563225 264.624723 
L 121.676598 263.024283 
L 121.978926 263.024283 
L 122.092299 261.423843 
L 122.394627 261.423843 
L 122.508001 259.823404 
L 122.810329 259.823404 
L 122.923702 258.222964 
L 123.22603 258.222964 
L 123.339403 256.622524 
L 123.641731 256.622524 
L 123.755104 255.022084 
L 124.057433 255.022084 
L 124.170806 253.421644 
L 124.473134 253.421644 
L 124.586507 251.821204 
L 124.888835 251.821204 
L 125.002208 250.220764 
L 125.304537 250.220764 
L 125.41791 248.620324 
L 125.720238 248.620324 
L 125.833611 247.019885 
L 126.135939 247.019885 
L 126.249312 245.419445 
L 126.551641 245.419445 
L 126.665014 243.819005 
L 126.967342 243.819005 
L 127.080715 242.218565 
L 127.383043 242.218565 
L 127.496416 240.618125 
L 128.252237 240.618125 
L 128.36561 239.017685 
L 128.667938 239.017685 
L 128.781311 237.417245 
L 129.083639 237.417245 
L 129.197012 235.816805 
L 129.499341 235.816805 
L 129.612714 234.216365 
L 129.915042 234.216365 
L 130.028415 232.615926 
L 130.330743 232.615926 
L 130.444116 231.015486 
L 130.746445 231.015486 
L 130.859818 229.415046 
L 131.162146 229.415046 
L 131.275519 227.814606 
L 131.955758 227.814606 
L 132.069131 226.214166 
L 132.371459 226.214166 
L 132.484832 224.613726 
L 132.78716 224.613726 
L 132.900533 223.013286 
L 133.202861 223.013286 
L 133.316235 221.412846 
L 133.618563 221.412846 
L 133.731936 219.812407 
L 134.034264 219.812407 
L 134.147637 218.211967 
L 134.449965 218.211967 
L 134.563338 216.611527 
L 134.865667 216.611527 
L 134.97904 215.011087 
L 135.281368 215.011087 
L 135.394741 213.410647 
L 135.697069 213.410647 
L 135.810442 211.810207 
L 136.112771 211.810207 
L 136.226144 210.209767 
L 136.528472 210.209767 
L 136.641845 208.609327 
L 136.944173 208.609327 
L 137.057546 207.008887 
L 137.359875 207.008887 
L 137.473248 205.408448 
L 138.153486 205.408448 
L 138.266859 203.808008 
L 138.569187 203.808008 
L 138.682561 202.207568 
L 138.984889 202.207568 
L 139.098262 200.607128 
L 139.40059 200.607128 
L 139.513963 199.006688 
L 139.816291 199.006688 
L 139.929664 197.406248 
L 140.231993 197.406248 
L 140.345366 195.805808 
L 140.647694 195.805808 
L 140.761067 194.205368 
L 141.063395 194.205368 
L 141.176768 192.604929 
L 141.479097 192.604929 
L 141.59247 191.004489 
L 141.894798 191.004489 
L 142.008171 189.404049 
L 142.310499 189.404049 
L 142.423872 187.803609 
L 142.726201 187.803609 
L 142.839574 186.203169 
L 143.141902 186.203169 
L 143.255275 184.602729 
L 143.557603 184.602729 
L 143.670976 183.002289 
L 143.973304 183.002289 
L 144.086678 181.401849 
L 144.389006 181.401849 
L 144.502379 179.801409 
L 144.804707 179.801409 
L 144.91808 178.20097 
L 145.220408 178.20097 
L 145.333781 176.60053 
L 145.63611 176.60053 
L 145.749483 175.00009 
L 146.051811 175.00009 
L 146.165184 173.39965 
L 146.467512 173.39965 
L 146.580885 171.79921 
L 146.883214 171.79921 
L 146.996587 170.19877 
L 147.298915 170.19877 
L 147.412288 168.59833 
L 147.714616 168.59833 
L 147.827989 166.99789 
L 148.130318 166.99789 
L 148.243691 165.397451 
L 148.546019 165.397451 
L 148.659392 163.797011 
L 148.96172 163.797011 
L 149.075093 162.196571 
L 149.377421 162.196571 
L 149.490795 160.596131 
L 149.793123 160.596131 
L 149.906496 158.995691 
L 150.208824 158.995691 
L 150.322197 157.395251 
L 150.662316 157.395251 
L 150.775689 155.794811 
L 151.078018 155.794811 
L 151.191391 154.194371 
L 151.493719 154.194371 
L 151.607092 152.593931 
L 152.287331 152.593931 
L 152.400704 150.993492 
L 152.740823 150.993492 
L 152.854196 149.393052 
L 153.534435 149.393052 
L 153.647808 147.792612 
L 153.950136 147.792612 
L 154.063509 146.192172 
L 154.365837 146.192172 
L 154.47921 144.591732 
L 154.781538 144.591732 
L 154.894912 142.991292 
L 155.19724 142.991292 
L 155.310613 141.390852 
L 155.612941 141.390852 
L 155.726314 139.790412 
L 156.406553 139.790412 
L 156.519926 138.189973 
L 157.275746 138.189973 
L 157.389119 136.589533 
L 157.691448 136.589533 
L 157.804821 134.989093 
L 158.107149 134.989093 
L 158.220522 133.388653 
L 158.52285 133.388653 
L 158.636223 131.788213 
L 158.938552 131.788213 
L 159.051925 130.187773 
L 159.807745 130.187773 
L 159.921118 128.587333 
L 160.223446 128.587333 
L 160.33682 126.986893 
L 160.639148 126.986893 
L 160.752521 125.386453 
L 161.054849 125.386453 
L 161.168222 123.786014 
L 161.47055 123.786014 
L 161.583923 122.185574 
L 161.886252 122.185574 
L 161.999625 120.585134 
L 162.301953 120.585134 
L 162.415326 118.984694 
L 162.717654 118.984694 
L 162.831027 117.384254 
L 188.906837 117.384254 
L 189.02021 115.783814 
L 202.851726 115.783814 
L 202.965099 114.183374 
L 209.805275 114.183374 
L 209.918648 112.582934 
L 216.758824 112.582934 
L 216.872198 110.982495 
L 223.712374 110.982495 
L 223.825747 109.382055 
L 230.703714 109.382055 
L 230.817087 107.781615 
L 237.695054 107.781615 
L 237.808427 106.181175 
L 244.686394 106.181175 
L 244.799767 104.580735 
L 251.639943 104.580735 
L 251.753316 102.980295 
L 258.593492 102.980295 
L 258.706866 101.379855 
L 265.962743 101.379855 
L 266.076116 99.779415 
L 272.954083 99.779415 
L 273.067456 98.178975 
L 279.945423 98.178975 
L 280.058796 96.578536 
L 286.898972 96.578536 
L 287.012346 94.978096 
L 293.852522 94.978096 
L 293.965895 93.377656 
L 300.806071 93.377656 
L 300.919444 91.777216 
L 307.797411 91.777216 
L 307.910784 90.176776 
L 315.166661 90.176776 
L 315.280035 88.576336 
L 322.120211 88.576336 
L 322.233584 86.975896 
L 329.07376 86.975896 
L 329.187133 85.375456 
L 336.0651 85.375456 
L 336.178473 83.775016 
L 343.472141 83.775016 
L 343.585515 82.174577 
L 350.425691 82.174577 
L 350.539064 80.574137 
L 357.417031 80.574137 
L 357.530404 78.973697 
L 364.37058 78.973697 
L 364.483953 77.373257 
L 371.324129 77.373257 
L 371.437502 75.772817 
L 378.69338 75.772817 
L 378.806753 74.172377 
L 385.646929 74.172377 
L 385.760302 72.571937 
L 392.67606 72.571937 
L 392.789433 70.971497 
L 399.629609 70.971497 
L 399.742982 69.371058 
L 406.620949 69.371058 
L 406.734322 67.770618 
L 413.574498 67.770618 
L 413.687872 66.170178 
L 420.565839 66.170178 
L 420.679212 64.569738 
L 427.59497 64.569738 
L 427.708343 62.969298 
L 435.002011 62.969298 
L 435.115384 61.368858 
L 442.031143 61.368858 
L 442.144516 59.768418 
L 448.984692 59.768418 
L 449.098065 58.167978 
L 455.938241 58.167978 
L 456.051614 56.567538 
L 463.307491 56.567538 
L 463.420864 54.967099 
L 470.298832 54.967099 
L 470.412205 53.366659 
L 477.252381 53.366659 
L 477.365754 51.766219 
L 484.20593 51.766219 
L 484.319303 50.165779 
L 491.57518 50.165779 
L 491.688553 48.565339 
L 498.52873 48.565339 
L 498.642103 46.964899 
L 505.89798 46.964899 
L 506.011353 45.364459 
L 512.851529 45.364459 
L 512.964902 43.764019 
L 519.805078 43.764019 
L 519.918451 42.16358 
L 523.092898 42.16358 
L 523.092898 42.16358 
" clip-path="url(#pbe024f14f9)" style="fill: none; stroke: #ababab; stroke-width: 2; stroke-linecap: square"/>
   </g>
   <g id="line2d_30">
    <path d="M 69.638352 439.07267 
L 523.092898 439.07267 
L 523.092898 439.07267 
" clip-path="url(#pbe024f14f9)" style="fill: none; stroke-dasharray: 7.4,3.2; stroke-dashoffset: 0; stroke: #006ba4; stroke-width: 2"/>
   </g>
   <g id="line2d_31">
    <path d="M 69.638352 439.07267 
L 523.092898 439.07267 
L 523.092898 439.07267 
" clip-path="url(#pbe024f14f9)" style="fill: none; stroke-dasharray: 7.4,3.2; stroke-dashoffset: 0; stroke: #ff800e; stroke-width: 2"/>
   </g>
   <g id="line2d_32">
    <path d="M 69.638352 439.07267 
L 523.092898 439.07267 
L 523.092898 439.07267 
" clip-path="url(#pbe024f14f9)" style="fill: none; stroke-dasharray: 7.4,3.2; stroke-dashoffset: 0; stroke: #ababab; stroke-width: 2"/>
   </g>
   <g id="patch_3">
    <path d="M 46.965625 458.918125 
L 46.965625 22.318125 
" style="fill: none; stroke: #000000; stroke-width: 0.8; stroke-linejoin: miter; stroke-linecap: square"/>
   </g>
   <g id="patch_4">
    <path d="M 545.765625 458.918125 
L 545.765625 22.318125 
" style="fill: none; stroke: #000000; stroke-width: 0.8; stroke-linejoin: miter; stroke-linecap: square"/>
   </g>
   <g id="patch_5">
    <path d="M 46.965625 458.918125 
L 545.765625 458.918125 
" style="fill: none; stroke: #000000; stroke-width: 0.8; stroke-linejoin: miter; stroke-linecap: square"/>
   </g>
   <g id="patch_6">
    <path d="M 46.965625 22.318125 
L 545.765625 22.318125 
" style="fill: none; stroke: #000000; stroke-width: 0.8; stroke-linejoin: miter; stroke-linecap: square"/>
   </g>
   <g id="text_16">
    <!-- Telomeric Motif Distribution: A_hattorfiana -->
    <g transform="translate(151.438438 16.318125) scale(0.12 -0.12)">
     <defs>
      <path id="DejaVuSans-Bold-54" d="M 31 4666 
L 4331 4666 
L 4331 3756 
L 2784 3756 
L 2784 0 
L 1581 0 
L 1581 3756 
L 31 3756 
L 31 4666 
z
" transform="scale(0.015625)"/>
      <path id="DejaVuSans-Bold-65" d="M 4031 1759 
L 4031 1441 
L 1416 1441 
Q 1456 1047 1700 850 
Q 1944 653 2381 653 
Q 2734 653 3104 758 
Q 3475 863 3866 1075 
L 3866 213 
Q 3469 63 3072 -14 
Q 2675 -91 2278 -91 
Q 1328 -91 801 392 
Q 275 875 275 1747 
Q 275 2603 792 3093 
Q 1309 3584 2216 3584 
Q 3041 3584 3536 3087 
Q 4031 2591 4031 1759 
z
M 2881 2131 
Q 2881 2450 2695 2645 
Q 2509 2841 2209 2841 
Q 1884 2841 1681 2658 
Q 1478 2475 1428 2131 
L 2881 2131 
z
" transform="scale(0.015625)"/>
      <path id="DejaVuSans-Bold-6c" d="M 538 4863 
L 1656 4863 
L 1656 0 
L 538 0 
L 538 4863 
z
" transform="scale(0.015625)"/>
      <path id="DejaVuSans-Bold-6f" d="M 2203 2784 
Q 1831 2784 1636 2517 
Q 1441 2250 1441 1747 
Q 1441 1244 1636 976 
Q 1831 709 2203 709 
Q 2569 709 2762 976 
Q 2956 1244 2956 1747 
Q 2956 2250 2762 2517 
Q 2569 2784 2203 2784 
z
M 2203 3584 
Q 3106 3584 3614 3096 
Q 4122 2609 4122 1747 
Q 4122 884 3614 396 
Q 3106 -91 2203 -91 
Q 1297 -91 786 396 
Q 275 884 275 1747 
Q 275 2609 786 3096 
Q 1297 3584 2203 3584 
z
" transform="scale(0.015625)"/>
      <path id="DejaVuSans-Bold-6d" d="M 3781 2919 
Q 3994 3244 4286 3414 
Q 4578 3584 4928 3584 
Q 5531 3584 5847 3212 
Q 6163 2841 6163 2131 
L 6163 0 
L 5038 0 
L 5038 1825 
Q 5041 1866 5042 1909 
Q 5044 1953 5044 2034 
Q 5044 2406 4934 2573 
Q 4825 2741 4581 2741 
Q 4263 2741 4089 2478 
Q 3916 2216 3909 1719 
L 3909 0 
L 2784 0 
L 2784 1825 
Q 2784 2406 2684 2573 
Q 2584 2741 2328 2741 
Q 2006 2741 1831 2477 
Q 1656 2213 1656 1722 
L 1656 0 
L 531 0 
L 531 3500 
L 1656 3500 
L 1656 2988 
Q 1863 3284 2130 3434 
Q 2397 3584 2719 3584 
Q 3081 3584 3359 3409 
Q 3638 3234 3781 2919 
z
" transform="scale(0.015625)"/>
      <path id="DejaVuSans-Bold-72" d="M 3138 2547 
Q 2991 2616 2845 2648 
Q 2700 2681 2553 2681 
Q 2122 2681 1889 2404 
Q 1656 2128 1656 1613 
L 1656 0 
L 538 0 
L 538 3500 
L 1656 3500 
L 1656 2925 
Q 1872 3269 2151 3426 
Q 2431 3584 2822 3584 
Q 2878 3584 2943 3579 
Q 3009 3575 3134 3559 
L 3138 2547 
z
" transform="scale(0.015625)"/>
      <path id="DejaVuSans-Bold-69" d="M 538 3500 
L 1656 3500 
L 1656 0 
L 538 0 
L 538 3500 
z
M 538 4863 
L 1656 4863 
L 1656 3950 
L 538 3950 
L 538 4863 
z
" transform="scale(0.015625)"/>
      <path id="DejaVuSans-Bold-63" d="M 3366 3391 
L 3366 2478 
Q 3138 2634 2908 2709 
Q 2678 2784 2431 2784 
Q 1963 2784 1702 2511 
Q 1441 2238 1441 1747 
Q 1441 1256 1702 982 
Q 1963 709 2431 709 
Q 2694 709 2930 787 
Q 3166 866 3366 1019 
L 3366 103 
Q 3103 6 2833 -42 
Q 2563 -91 2291 -91 
Q 1344 -91 809 395 
Q 275 881 275 1747 
Q 275 2613 809 3098 
Q 1344 3584 2291 3584 
Q 2566 3584 2833 3536 
Q 3100 3488 3366 3391 
z
" transform="scale(0.015625)"/>
      <path id="DejaVuSans-Bold-20" transform="scale(0.015625)"/>
      <path id="DejaVuSans-Bold-4d" d="M 588 4666 
L 2119 4666 
L 3181 2169 
L 4250 4666 
L 5778 4666 
L 5778 0 
L 4641 0 
L 4641 3413 
L 3566 897 
L 2803 897 
L 1728 3413 
L 1728 0 
L 588 0 
L 588 4666 
z
" transform="scale(0.015625)"/>
      <path id="DejaVuSans-Bold-74" d="M 1759 4494 
L 1759 3500 
L 2913 3500 
L 2913 2700 
L 1759 2700 
L 1759 1216 
Q 1759 972 1856 886 
Q 1953 800 2241 800 
L 2816 800 
L 2816 0 
L 1856 0 
Q 1194 0 917 276 
Q 641 553 641 1216 
L 641 2700 
L 84 2700 
L 84 3500 
L 641 3500 
L 641 4494 
L 1759 4494 
z
" transform="scale(0.015625)"/>
      <path id="DejaVuSans-Bold-66" d="M 2841 4863 
L 2841 4128 
L 2222 4128 
Q 1984 4128 1890 4042 
Q 1797 3956 1797 3744 
L 1797 3500 
L 2753 3500 
L 2753 2700 
L 1797 2700 
L 1797 0 
L 678 0 
L 678 2700 
L 122 2700 
L 122 3500 
L 678 3500 
L 678 3744 
Q 678 4316 997 4589 
Q 1316 4863 1984 4863 
L 2841 4863 
z
" transform="scale(0.015625)"/>
      <path id="DejaVuSans-Bold-44" d="M 1791 3756 
L 1791 909 
L 2222 909 
Q 2959 909 3348 1275 
Q 3738 1641 3738 2338 
Q 3738 3031 3350 3393 
Q 2963 3756 2222 3756 
L 1791 3756 
z
M 588 4666 
L 1856 4666 
Q 2919 4666 3439 4514 
Q 3959 4363 4331 4000 
Q 4659 3684 4818 3271 
Q 4978 2859 4978 2338 
Q 4978 1809 4818 1395 
Q 4659 981 4331 666 
Q 3956 303 3431 151 
Q 2906 0 1856 0 
L 588 0 
L 588 4666 
z
" transform="scale(0.015625)"/>
      <path id="DejaVuSans-Bold-73" d="M 3272 3391 
L 3272 2541 
Q 2913 2691 2578 2766 
Q 2244 2841 1947 2841 
Q 1628 2841 1473 2761 
Q 1319 2681 1319 2516 
Q 1319 2381 1436 2309 
Q 1553 2238 1856 2203 
L 2053 2175 
Q 2913 2066 3209 1816 
Q 3506 1566 3506 1031 
Q 3506 472 3093 190 
Q 2681 -91 1863 -91 
Q 1516 -91 1145 -36 
Q 775 19 384 128 
L 384 978 
Q 719 816 1070 734 
Q 1422 653 1784 653 
Q 2113 653 2278 743 
Q 2444 834 2444 1013 
Q 2444 1163 2330 1236 
Q 2216 1309 1875 1350 
L 1678 1375 
Q 931 1469 631 1722 
Q 331 1975 331 2491 
Q 331 3047 712 3315 
Q 1094 3584 1881 3584 
Q 2191 3584 2531 3537 
Q 2872 3491 3272 3391 
z
" transform="scale(0.015625)"/>
      <path id="DejaVuSans-Bold-62" d="M 2400 722 
Q 2759 722 2948 984 
Q 3138 1247 3138 1747 
Q 3138 2247 2948 2509 
Q 2759 2772 2400 2772 
Q 2041 2772 1848 2508 
Q 1656 2244 1656 1747 
Q 1656 1250 1848 986 
Q 2041 722 2400 722 
z
M 1656 2988 
Q 1888 3294 2169 3439 
Q 2450 3584 2816 3584 
Q 3463 3584 3878 3070 
Q 4294 2556 4294 1747 
Q 4294 938 3878 423 
Q 3463 -91 2816 -91 
Q 2450 -91 2169 54 
Q 1888 200 1656 506 
L 1656 0 
L 538 0 
L 538 4863 
L 1656 4863 
L 1656 2988 
z
" transform="scale(0.015625)"/>
      <path id="DejaVuSans-Bold-75" d="M 500 1363 
L 500 3500 
L 1625 3500 
L 1625 3150 
Q 1625 2866 1622 2436 
Q 1619 2006 1619 1863 
Q 1619 1441 1641 1255 
Q 1663 1069 1716 984 
Q 1784 875 1895 815 
Q 2006 756 2150 756 
Q 2500 756 2700 1025 
Q 2900 1294 2900 1772 
L 2900 3500 
L 4019 3500 
L 4019 0 
L 2900 0 
L 2900 506 
Q 2647 200 2364 54 
Q 2081 -91 1741 -91 
Q 1134 -91 817 281 
Q 500 653 500 1363 
z
" transform="scale(0.015625)"/>
      <path id="DejaVuSans-Bold-6e" d="M 4056 2131 
L 4056 0 
L 2931 0 
L 2931 347 
L 2931 1631 
Q 2931 2084 2911 2256 
Q 2891 2428 2841 2509 
Q 2775 2619 2662 2680 
Q 2550 2741 2406 2741 
Q 2056 2741 1856 2470 
Q 1656 2200 1656 1722 
L 1656 0 
L 538 0 
L 538 3500 
L 1656 3500 
L 1656 2988 
Q 1909 3294 2193 3439 
Q 2478 3584 2822 3584 
Q 3428 3584 3742 3212 
Q 4056 2841 4056 2131 
z
" transform="scale(0.015625)"/>
      <path id="DejaVuSans-Bold-3a" d="M 716 3500 
L 1844 3500 
L 1844 2291 
L 716 2291 
L 716 3500 
z
M 716 1209 
L 1844 1209 
L 1844 0 
L 716 0 
L 716 1209 
z
" transform="scale(0.015625)"/>
      <path id="DejaVuSans-Bold-41" d="M 3419 850 
L 1538 850 
L 1241 0 
L 31 0 
L 1759 4666 
L 3194 4666 
L 4922 0 
L 3713 0 
L 3419 850 
z
M 1838 1716 
L 3116 1716 
L 2478 3572 
L 1838 1716 
z
" transform="scale(0.015625)"/>
      <path id="DejaVuSans-Bold-5f" d="M 3200 -916 
L 3200 -1509 
L 0 -1509 
L 0 -916 
L 3200 -916 
z
" transform="scale(0.015625)"/>
      <path id="DejaVuSans-Bold-68" d="M 4056 2131 
L 4056 0 
L 2931 0 
L 2931 347 
L 2931 1625 
Q 2931 2084 2911 2256 
Q 2891 2428 2841 2509 
Q 2775 2619 2662 2680 
Q 2550 2741 2406 2741 
Q 2056 2741 1856 2470 
Q 1656 2200 1656 1722 
L 1656 0 
L 538 0 
L 538 4863 
L 1656 4863 
L 1656 2988 
Q 1909 3294 2193 3439 
Q 2478 3584 2822 3584 
Q 3428 3584 3742 3212 
Q 4056 2841 4056 2131 
z
" transform="scale(0.015625)"/>
      <path id="DejaVuSans-Bold-61" d="M 2106 1575 
Q 1756 1575 1579 1456 
Q 1403 1338 1403 1106 
Q 1403 894 1545 773 
Q 1688 653 1941 653 
Q 2256 653 2472 879 
Q 2688 1106 2688 1447 
L 2688 1575 
L 2106 1575 
z
M 3816 1997 
L 3816 0 
L 2688 0 
L 2688 519 
Q 2463 200 2181 54 
Q 1900 -91 1497 -91 
Q 953 -91 614 226 
Q 275 544 275 1050 
Q 275 1666 698 1953 
Q 1122 2241 2028 2241 
L 2688 2241 
L 2688 2328 
Q 2688 2594 2478 2717 
Q 2269 2841 1825 2841 
Q 1466 2841 1156 2769 
Q 847 2697 581 2553 
L 581 3406 
Q 941 3494 1303 3539 
Q 1666 3584 2028 3584 
Q 2975 3584 3395 3211 
Q 3816 2838 3816 1997 
z
" transform="scale(0.015625)"/>
     </defs>
     <use xlink:href="#DejaVuSans-Bold-54"/>
     <use xlink:href="#DejaVuSans-Bold-65" transform="translate(54.962891 0)"/>
     <use xlink:href="#DejaVuSans-Bold-6c" transform="translate(122.785156 0)"/>
     <use xlink:href="#DejaVuSans-Bold-6f" transform="translate(157.0625 0)"/>
     <use xlink:href="#DejaVuSans-Bold-6d" transform="translate(225.763672 0)"/>
     <use xlink:href="#DejaVuSans-Bold-65" transform="translate(329.962891 0)"/>
     <use xlink:href="#DejaVuSans-Bold-72" transform="translate(397.785156 0)"/>
     <use xlink:href="#DejaVuSans-Bold-69" transform="translate(447.101562 0)"/>
     <use xlink:href="#DejaVuSans-Bold-63" transform="translate(481.378906 0)"/>
     <use xlink:href="#DejaVuSans-Bold-20" transform="translate(540.65625 0)"/>
     <use xlink:href="#DejaVuSans-Bold-4d" transform="translate(575.470703 0)"/>
     <use xlink:href="#DejaVuSans-Bold-6f" transform="translate(674.982422 0)"/>
     <use xlink:href="#DejaVuSans-Bold-74" transform="translate(743.683594 0)"/>
     <use xlink:href="#DejaVuSans-Bold-69" transform="translate(791.486328 0)"/>
     <use xlink:href="#DejaVuSans-Bold-66" transform="translate(825.763672 0)"/>
     <use xlink:href="#DejaVuSans-Bold-20" transform="translate(869.269531 0)"/>
     <use xlink:href="#DejaVuSans-Bold-44" transform="translate(904.083984 0)"/>
     <use xlink:href="#DejaVuSans-Bold-69" transform="translate(987.091797 0)"/>
     <use xlink:href="#DejaVuSans-Bold-73" transform="translate(1021.369141 0)"/>
     <use xlink:href="#DejaVuSans-Bold-74" transform="translate(1080.890625 0)"/>
     <use xlink:href="#DejaVuSans-Bold-72" transform="translate(1128.693359 0)"/>
     <use xlink:href="#DejaVuSans-Bold-69" transform="translate(1178.009766 0)"/>
     <use xlink:href="#DejaVuSans-Bold-62" transform="translate(1212.287109 0)"/>
     <use xlink:href="#DejaVuSans-Bold-75" transform="translate(1283.869141 0)"/>
     <use xlink:href="#DejaVuSans-Bold-74" transform="translate(1355.060547 0)"/>
     <use xlink:href="#DejaVuSans-Bold-69" transform="translate(1402.863281 0)"/>
     <use xlink:href="#DejaVuSans-Bold-6f" transform="translate(1437.140625 0)"/>
     <use xlink:href="#DejaVuSans-Bold-6e" transform="translate(1505.841797 0)"/>
     <use xlink:href="#DejaVuSans-Bold-3a" transform="translate(1577.033203 0)"/>
     <use xlink:href="#DejaVuSans-Bold-20" transform="translate(1617.023438 0)"/>
     <use xlink:href="#DejaVuSans-Bold-41" transform="translate(1651.837891 0)"/>
     <use xlink:href="#DejaVuSans-Bold-5f" transform="translate(1729.230469 0)"/>
     <use xlink:href="#DejaVuSans-Bold-68" transform="translate(1779.230469 0)"/>
     <use xlink:href="#DejaVuSans-Bold-61" transform="translate(1850.421875 0)"/>
     <use xlink:href="#DejaVuSans-Bold-74" transform="translate(1917.902344 0)"/>
     <use xlink:href="#DejaVuSans-Bold-74" transform="translate(1965.705078 0)"/>
     <use xlink:href="#DejaVuSans-Bold-6f" transform="translate(2013.507812 0)"/>
     <use xlink:href="#DejaVuSans-Bold-72" transform="translate(2082.208984 0)"/>
     <use xlink:href="#DejaVuSans-Bold-66" transform="translate(2131.525391 0)"/>
     <use xlink:href="#DejaVuSans-Bold-69" transform="translate(2175.03125 0)"/>
     <use xlink:href="#DejaVuSans-Bold-61" transform="translate(2209.308594 0)"/>
     <use xlink:href="#DejaVuSans-Bold-6e" transform="translate(2276.789062 0)"/>
     <use xlink:href="#DejaVuSans-Bold-61" transform="translate(2347.980469 0)"/>
    </g>
   </g>
   <g id="legend_1">
    <g id="patch_7">
     <path d="M 552.765625 133.065 
L 702.923438 133.065 
Q 704.923438 133.065 704.923438 131.065 
L 704.923438 29.318125 
Q 704.923438 27.318125 702.923438 27.318125 
L 552.765625 27.318125 
Q 550.765625 27.318125 550.765625 29.318125 
L 550.765625 131.065 
Q 550.765625 133.065 552.765625 133.065 
z
" style="fill: #ffffff; opacity: 0.8; stroke: #cccccc; stroke-linejoin: miter"/>
    </g>
    <g id="text_17">
     <!-- Motifs &amp; Orientation -->
     <g transform="translate(577.452344 38.916562) scale(0.1 -0.1)">
      <defs>
       <path id="DejaVuSans-4d" d="M 628 4666 
L 1569 4666 
L 2759 1491 
L 3956 4666 
L 4897 4666 
L 4897 0 
L 4281 0 
L 4281 4097 
L 3078 897 
L 2444 897 
L 1241 4097 
L 1241 0 
L 628 0 
L 628 4666 
z
" transform="scale(0.015625)"/>
       <path id="DejaVuSans-26" d="M 1556 2509 
Q 1272 2256 1139 2004 
Q 1006 1753 1006 1478 
Q 1006 1022 1337 719 
Q 1669 416 2169 416 
Q 2466 416 2725 514 
Q 2984 613 3213 813 
L 1556 2509 
z
M 1997 2859 
L 3584 1234 
Q 3769 1513 3872 1830 
Q 3975 2147 3994 2503 
L 4575 2503 
Q 4538 2091 4375 1687 
Q 4213 1284 3922 891 
L 4794 0 
L 4006 0 
L 3559 459 
Q 3234 181 2878 45 
Q 2522 -91 2113 -91 
Q 1359 -91 881 339 
Q 403 769 403 1441 
Q 403 1841 612 2192 
Q 822 2544 1241 2853 
Q 1091 3050 1012 3245 
Q 934 3441 934 3628 
Q 934 4134 1281 4442 
Q 1628 4750 2203 4750 
Q 2463 4750 2720 4694 
Q 2978 4638 3244 4525 
L 3244 3956 
Q 2972 4103 2725 4179 
Q 2478 4256 2266 4256 
Q 1938 4256 1733 4082 
Q 1528 3909 1528 3634 
Q 1528 3475 1620 3314 
Q 1713 3153 1997 2859 
z
" transform="scale(0.015625)"/>
       <path id="DejaVuSans-4f" d="M 2522 4238 
Q 1834 4238 1429 3725 
Q 1025 3213 1025 2328 
Q 1025 1447 1429 934 
Q 1834 422 2522 422 
Q 3209 422 3611 934 
Q 4013 1447 4013 2328 
Q 4013 3213 3611 3725 
Q 3209 4238 2522 4238 
z
M 2522 4750 
Q 3503 4750 4090 4092 
Q 4678 3434 4678 2328 
Q 4678 1225 4090 567 
Q 3503 -91 2522 -91 
Q 1538 -91 948 565 
Q 359 1222 359 2328 
Q 359 3434 948 4092 
Q 1538 4750 2522 4750 
z
" transform="scale(0.015625)"/>
      </defs>
      <use xlink:href="#DejaVuSans-4d"/>
      <use xlink:href="#DejaVuSans-6f" transform="translate(86.279297 0)"/>
      <use xlink:href="#DejaVuSans-74" transform="translate(147.460938 0)"/>
      <use xlink:href="#DejaVuSans-69" transform="translate(186.669922 0)"/>
      <use xlink:href="#DejaVuSans-66" transform="translate(214.453125 0)"/>
      <use xlink:href="#DejaVuSans-73" transform="translate(249.658203 0)"/>
      <use xlink:href="#DejaVuSans-20" transform="translate(301.757812 0)"/>
      <use xlink:href="#DejaVuSans-26" transform="translate(333.544922 0)"/>
      <use xlink:href="#DejaVuSans-20" transform="translate(411.523438 0)"/>
      <use xlink:href="#DejaVuSans-4f" transform="translate(443.310547 0)"/>
      <use xlink:href="#DejaVuSans-72" transform="translate(522.021484 0)"/>
      <use xlink:href="#DejaVuSans-69" transform="translate(563.134766 0)"/>
      <use xlink:href="#DejaVuSans-65" transform="translate(590.917969 0)"/>
      <use xlink:href="#DejaVuSans-6e" transform="translate(652.441406 0)"/>
      <use xlink:href="#DejaVuSans-74" transform="translate(715.820312 0)"/>
      <use xlink:href="#DejaVuSans-61" transform="translate(755.029297 0)"/>
      <use xlink:href="#DejaVuSans-74" transform="translate(816.308594 0)"/>
      <use xlink:href="#DejaVuSans-69" transform="translate(855.517578 0)"/>
      <use xlink:href="#DejaVuSans-6f" transform="translate(883.300781 0)"/>
      <use xlink:href="#DejaVuSans-6e" transform="translate(944.482422 0)"/>
     </g>
    </g>
    <g id="line2d_33">
     <path d="M 554.765625 50.094688 
L 564.765625 50.094688 
L 574.765625 50.094688 
" style="fill: none; stroke: #006ba4; stroke-width: 2; stroke-linecap: square"/>
    </g>
    <g id="text_18">
     <!-- CCCGAGACTAA (5' end) -->
     <g transform="translate(582.765625 53.594688) scale(0.1 -0.1)">
      <defs>
       <path id="DejaVuSans-47" d="M 3809 666 
L 3809 1919 
L 2778 1919 
L 2778 2438 
L 4434 2438 
L 4434 434 
Q 4069 175 3628 42 
Q 3188 -91 2688 -91 
Q 1594 -91 976 548 
Q 359 1188 359 2328 
Q 359 3472 976 4111 
Q 1594 4750 2688 4750 
Q 3144 4750 3555 4637 
Q 3966 4525 4313 4306 
L 4313 3634 
Q 3963 3931 3569 4081 
Q 3175 4231 2741 4231 
Q 1884 4231 1454 3753 
Q 1025 3275 1025 2328 
Q 1025 1384 1454 906 
Q 1884 428 2741 428 
Q 3075 428 3337 486 
Q 3600 544 3809 666 
z
" transform="scale(0.015625)"/>
       <path id="DejaVuSans-28" d="M 1984 4856 
Q 1566 4138 1362 3434 
Q 1159 2731 1159 2009 
Q 1159 1288 1364 580 
Q 1569 -128 1984 -844 
L 1484 -844 
Q 1016 -109 783 600 
Q 550 1309 550 2009 
Q 550 2706 781 3412 
Q 1013 4119 1484 4856 
L 1984 4856 
z
" transform="scale(0.015625)"/>
       <path id="DejaVuSans-27" d="M 1147 4666 
L 1147 2931 
L 616 2931 
L 616 4666 
L 1147 4666 
z
" transform="scale(0.015625)"/>
       <path id="DejaVuSans-64" d="M 2906 2969 
L 2906 4863 
L 3481 4863 
L 3481 0 
L 2906 0 
L 2906 525 
Q 2725 213 2448 61 
Q 2172 -91 1784 -91 
Q 1150 -91 751 415 
Q 353 922 353 1747 
Q 353 2572 751 3078 
Q 1150 3584 1784 3584 
Q 2172 3584 2448 3432 
Q 2725 3281 2906 2969 
z
M 947 1747 
Q 947 1113 1208 752 
Q 1469 391 1925 391 
Q 2381 391 2643 752 
Q 2906 1113 2906 1747 
Q 2906 2381 2643 2742 
Q 2381 3103 1925 3103 
Q 1469 3103 1208 2742 
Q 947 2381 947 1747 
z
" transform="scale(0.015625)"/>
       <path id="DejaVuSans-29" d="M 513 4856 
L 1013 4856 
Q 1481 4119 1714 3412 
Q 1947 2706 1947 2009 
Q 1947 1309 1714 600 
Q 1481 -109 1013 -844 
L 513 -844 
Q 928 -128 1133 580 
Q 1338 1288 1338 2009 
Q 1338 2731 1133 3434 
Q 928 4138 513 4856 
z
" transform="scale(0.015625)"/>
      </defs>
      <use xlink:href="#DejaVuSans-43"/>
      <use xlink:href="#DejaVuSans-43" transform="translate(69.824219 0)"/>
      <use xlink:href="#DejaVuSans-43" transform="translate(139.648438 0)"/>
      <use xlink:href="#DejaVuSans-47" transform="translate(209.472656 0)"/>
      <use xlink:href="#DejaVuSans-41" transform="translate(286.962891 0)"/>
      <use xlink:href="#DejaVuSans-47" transform="translate(353.621094 0)"/>
      <use xlink:href="#DejaVuSans-41" transform="translate(431.111328 0)"/>
      <use xlink:href="#DejaVuSans-43" transform="translate(497.769531 0)"/>
      <use xlink:href="#DejaVuSans-54" transform="translate(567.59375 0)"/>
      <use xlink:href="#DejaVuSans-41" transform="translate(620.927734 0)"/>
      <use xlink:href="#DejaVuSans-41" transform="translate(692.085938 0)"/>
      <use xlink:href="#DejaVuSans-20" transform="translate(760.494141 0)"/>
      <use xlink:href="#DejaVuSans-28" transform="translate(792.28125 0)"/>
      <use xlink:href="#DejaVuSans-35" transform="translate(831.294922 0)"/>
      <use xlink:href="#DejaVuSans-27" transform="translate(894.917969 0)"/>
      <use xlink:href="#DejaVuSans-20" transform="translate(922.408203 0)"/>
      <use xlink:href="#DejaVuSans-65" transform="translate(954.195312 0)"/>
      <use xlink:href="#DejaVuSans-6e" transform="translate(1015.71875 0)"/>
      <use xlink:href="#DejaVuSans-64" transform="translate(1079.097656 0)"/>
      <use xlink:href="#DejaVuSans-29" transform="translate(1142.574219 0)"/>
     </g>
    </g>
    <g id="line2d_34">
     <path d="M 554.765625 64.772813 
L 564.765625 64.772813 
L 574.765625 64.772813 
" style="fill: none; stroke: #ff800e; stroke-width: 2; stroke-linecap: square"/>
    </g>
    <g id="text_19">
     <!-- TTCCCAA (5' end) -->
     <g transform="translate(582.765625 68.272813) scale(0.1 -0.1)">
      <use xlink:href="#DejaVuSans-54"/>
      <use xlink:href="#DejaVuSans-54" transform="translate(59.333984 0)"/>
      <use xlink:href="#DejaVuSans-43" transform="translate(114.542969 0)"/>
      <use xlink:href="#DejaVuSans-43" transform="translate(184.367188 0)"/>
      <use xlink:href="#DejaVuSans-43" transform="translate(254.191406 0)"/>
      <use xlink:href="#DejaVuSans-41" transform="translate(324.015625 0)"/>
      <use xlink:href="#DejaVuSans-41" transform="translate(395.173828 0)"/>
      <use xlink:href="#DejaVuSans-20" transform="translate(463.582031 0)"/>
      <use xlink:href="#DejaVuSans-28" transform="translate(495.369141 0)"/>
      <use xlink:href="#DejaVuSans-35" transform="translate(534.382812 0)"/>
      <use xlink:href="#DejaVuSans-27" transform="translate(598.005859 0)"/>
      <use xlink:href="#DejaVuSans-20" transform="translate(625.496094 0)"/>
      <use xlink:href="#DejaVuSans-65" transform="translate(657.283203 0)"/>
      <use xlink:href="#DejaVuSans-6e" transform="translate(718.806641 0)"/>
      <use xlink:href="#DejaVuSans-64" transform="translate(782.185547 0)"/>
      <use xlink:href="#DejaVuSans-29" transform="translate(845.662109 0)"/>
     </g>
    </g>
    <g id="line2d_35">
     <path d="M 554.765625 79.450938 
L 564.765625 79.450938 
L 574.765625 79.450938 
" style="fill: none; stroke: #ababab; stroke-width: 2; stroke-linecap: square"/>
    </g>
    <g id="text_20">
     <!-- CCCAAGACTAA (5' end) -->
     <g transform="translate(582.765625 82.950938) scale(0.1 -0.1)">
      <use xlink:href="#DejaVuSans-43"/>
      <use xlink:href="#DejaVuSans-43" transform="translate(69.824219 0)"/>
      <use xlink:href="#DejaVuSans-43" transform="translate(139.648438 0)"/>
      <use xlink:href="#DejaVuSans-41" transform="translate(209.472656 0)"/>
      <use xlink:href="#DejaVuSans-41" transform="translate(280.630859 0)"/>
      <use xlink:href="#DejaVuSans-47" transform="translate(347.289062 0)"/>
      <use xlink:href="#DejaVuSans-41" transform="translate(424.779297 0)"/>
      <use xlink:href="#DejaVuSans-43" transform="translate(491.4375 0)"/>
      <use xlink:href="#DejaVuSans-54" transform="translate(561.261719 0)"/>
      <use xlink:href="#DejaVuSans-41" transform="translate(614.595703 0)"/>
      <use xlink:href="#DejaVuSans-41" transform="translate(685.753906 0)"/>
      <use xlink:href="#DejaVuSans-20" transform="translate(754.162109 0)"/>
      <use xlink:href="#DejaVuSans-28" transform="translate(785.949219 0)"/>
      <use xlink:href="#DejaVuSans-35" transform="translate(824.962891 0)"/>
      <use xlink:href="#DejaVuSans-27" transform="translate(888.585938 0)"/>
      <use xlink:href="#DejaVuSans-20" transform="translate(916.076172 0)"/>
      <use xlink:href="#DejaVuSans-65" transform="translate(947.863281 0)"/>
      <use xlink:href="#DejaVuSans-6e" transform="translate(1009.386719 0)"/>
      <use xlink:href="#DejaVuSans-64" transform="translate(1072.765625 0)"/>
      <use xlink:href="#DejaVuSans-29" transform="translate(1136.242188 0)"/>
     </g>
    </g>
    <g id="line2d_36">
     <path d="M 554.765625 94.129063 
L 564.765625 94.129063 
L 574.765625 94.129063 
" style="fill: none; stroke-dasharray: 7.4,3.2; stroke-dashoffset: 0; stroke: #006ba4; stroke-width: 2"/>
    </g>
    <g id="text_21">
     <!-- TTAGTCTCGGG (3' end) -->
     <g transform="translate(582.765625 97.629063) scale(0.1 -0.1)">
      <defs>
       <path id="DejaVuSans-33" d="M 2597 2516 
Q 3050 2419 3304 2112 
Q 3559 1806 3559 1356 
Q 3559 666 3084 287 
Q 2609 -91 1734 -91 
Q 1441 -91 1130 -33 
Q 819 25 488 141 
L 488 750 
Q 750 597 1062 519 
Q 1375 441 1716 441 
Q 2309 441 2620 675 
Q 2931 909 2931 1356 
Q 2931 1769 2642 2001 
Q 2353 2234 1838 2234 
L 1294 2234 
L 1294 2753 
L 1863 2753 
Q 2328 2753 2575 2939 
Q 2822 3125 2822 3475 
Q 2822 3834 2567 4026 
Q 2313 4219 1838 4219 
Q 1578 4219 1281 4162 
Q 984 4106 628 3988 
L 628 4550 
Q 988 4650 1302 4700 
Q 1616 4750 1894 4750 
Q 2613 4750 3031 4423 
Q 3450 4097 3450 3541 
Q 3450 3153 3228 2886 
Q 3006 2619 2597 2516 
z
" transform="scale(0.015625)"/>
      </defs>
      <use xlink:href="#DejaVuSans-54"/>
      <use xlink:href="#DejaVuSans-54" transform="translate(59.333984 0)"/>
      <use xlink:href="#DejaVuSans-41" transform="translate(112.667969 0)"/>
      <use xlink:href="#DejaVuSans-47" transform="translate(179.326172 0)"/>
      <use xlink:href="#DejaVuSans-54" transform="translate(253.191406 0)"/>
      <use xlink:href="#DejaVuSans-43" transform="translate(308.400391 0)"/>
      <use xlink:href="#DejaVuSans-54" transform="translate(378.224609 0)"/>
      <use xlink:href="#DejaVuSans-43" transform="translate(433.433594 0)"/>
      <use xlink:href="#DejaVuSans-47" transform="translate(503.257812 0)"/>
      <use xlink:href="#DejaVuSans-47" transform="translate(580.748047 0)"/>
      <use xlink:href="#DejaVuSans-47" transform="translate(658.238281 0)"/>
      <use xlink:href="#DejaVuSans-20" transform="translate(735.728516 0)"/>
      <use xlink:href="#DejaVuSans-28" transform="translate(767.515625 0)"/>
      <use xlink:href="#DejaVuSans-33" transform="translate(806.529297 0)"/>
      <use xlink:href="#DejaVuSans-27" transform="translate(870.152344 0)"/>
      <use xlink:href="#DejaVuSans-20" transform="translate(897.642578 0)"/>
      <use xlink:href="#DejaVuSans-65" transform="translate(929.429688 0)"/>
      <use xlink:href="#DejaVuSans-6e" transform="translate(990.953125 0)"/>
      <use xlink:href="#DejaVuSans-64" transform="translate(1054.332031 0)"/>
      <use xlink:href="#DejaVuSans-29" transform="translate(1117.808594 0)"/>
     </g>
    </g>
    <g id="line2d_37">
     <path d="M 554.765625 108.807188 
L 564.765625 108.807188 
L 574.765625 108.807188 
" style="fill: none; stroke-dasharray: 7.4,3.2; stroke-dashoffset: 0; stroke: #ff800e; stroke-width: 2"/>
    </g>
    <g id="text_22">
     <!-- TTGGGAA (3' end) -->
     <g transform="translate(582.765625 112.307188) scale(0.1 -0.1)">
      <use xlink:href="#DejaVuSans-54"/>
      <use xlink:href="#DejaVuSans-54" transform="translate(59.333984 0)"/>
      <use xlink:href="#DejaVuSans-47" transform="translate(120.417969 0)"/>
      <use xlink:href="#DejaVuSans-47" transform="translate(197.908203 0)"/>
      <use xlink:href="#DejaVuSans-47" transform="translate(275.398438 0)"/>
      <use xlink:href="#DejaVuSans-41" transform="translate(352.888672 0)"/>
      <use xlink:href="#DejaVuSans-41" transform="translate(424.046875 0)"/>
      <use xlink:href="#DejaVuSans-20" transform="translate(492.455078 0)"/>
      <use xlink:href="#DejaVuSans-28" transform="translate(524.242188 0)"/>
      <use xlink:href="#DejaVuSans-33" transform="translate(563.255859 0)"/>
      <use xlink:href="#DejaVuSans-27" transform="translate(626.878906 0)"/>
      <use xlink:href="#DejaVuSans-20" transform="translate(654.369141 0)"/>
      <use xlink:href="#DejaVuSans-65" transform="translate(686.15625 0)"/>
      <use xlink:href="#DejaVuSans-6e" transform="translate(747.679688 0)"/>
      <use xlink:href="#DejaVuSans-64" transform="translate(811.058594 0)"/>
      <use xlink:href="#DejaVuSans-29" transform="translate(874.535156 0)"/>
     </g>
    </g>
    <g id="line2d_38">
     <path d="M 554.765625 123.485313 
L 564.765625 123.485313 
L 574.765625 123.485313 
" style="fill: none; stroke-dasharray: 7.4,3.2; stroke-dashoffset: 0; stroke: #ababab; stroke-width: 2"/>
    </g>
    <g id="text_23">
     <!-- TTAGTCTTGGG (3' end) -->
     <g transform="translate(582.765625 126.985313) scale(0.1 -0.1)">
      <use xlink:href="#DejaVuSans-54"/>
      <use xlink:href="#DejaVuSans-54" transform="translate(59.333984 0)"/>
      <use xlink:href="#DejaVuSans-41" transform="translate(112.667969 0)"/>
      <use xlink:href="#DejaVuSans-47" transform="translate(179.326172 0)"/>
      <use xlink:href="#DejaVuSans-54" transform="translate(253.191406 0)"/>
      <use xlink:href="#DejaVuSans-43" transform="translate(308.400391 0)"/>
      <use xlink:href="#DejaVuSans-54" transform="translate(378.224609 0)"/>
      <use xlink:href="#DejaVuSans-54" transform="translate(437.558594 0)"/>
      <use xlink:href="#DejaVuSans-47" transform="translate(498.642578 0)"/>
      <use xlink:href="#DejaVuSans-47" transform="translate(576.132812 0)"/>
      <use xlink:href="#DejaVuSans-47" transform="translate(653.623047 0)"/>
      <use xlink:href="#DejaVuSans-20" transform="translate(731.113281 0)"/>
      <use xlink:href="#DejaVuSans-28" transform="translate(762.900391 0)"/>
      <use xlink:href="#DejaVuSans-33" transform="translate(801.914062 0)"/>
      <use xlink:href="#DejaVuSans-27" transform="translate(865.537109 0)"/>
      <use xlink:href="#DejaVuSans-20" transform="translate(893.027344 0)"/>
      <use xlink:href="#DejaVuSans-65" transform="translate(924.814453 0)"/>
      <use xlink:href="#DejaVuSans-6e" transform="translate(986.337891 0)"/>
      <use xlink:href="#DejaVuSans-64" transform="translate(1049.716797 0)"/>
      <use xlink:href="#DejaVuSans-29" transform="translate(1113.193359 0)"/>
     </g>
    </g>
   </g>
  </g>
 </g>
 <defs>
  <clipPath id="pbe024f14f9">
   <rect x="46.965625" y="22.318125" width="498.8" height="436.6"/>
  </clipPath>
 </defs>
</svg>
