<?xml version="1.0" encoding="utf-8" standalone="no"?>
<!DOCTYPE svg PUBLIC "-//W3C//DTD SVG 1.1//EN"
  "http://www.w3.org/Graphics/SVG/1.1/DTD/svg11.dtd">
<svg xmlns:xlink="http://www.w3.org/1999/xlink" width="568.123437pt" height="423.99625pt" viewBox="0 0 568.123437 423.99625" xmlns="http://www.w3.org/2000/svg" version="1.1">
 <metadata>
  <rdf:RDF xmlns:dc="http://purl.org/dc/elements/1.1/" xmlns:cc="http://creativecommons.org/ns#" xmlns:rdf="http://www.w3.org/1999/02/22-rdf-syntax-ns#">
   <cc:Work>
    <dc:type rdf:resource="http://purl.org/dc/dcmitype/StillImage"/>
    <dc:date>2026-04-30T13:16:51.689991</dc:date>
    <dc:format>image/svg+xml</dc:format>
    <dc:creator>
     <cc:Agent>
      <dc:title>Matplotlib v3.10.6, https://matplotlib.org/</dc:title>
     </cc:Agent>
    </dc:creator>
   </cc:Work>
  </rdf:RDF>
 </metadata>
 <defs>
  <style type="text/css">*{stroke-linejoin: round; stroke-linecap: butt}</style>
 </defs>
 <g id="figure_1">
  <g id="patch_1">
   <path d="M 0 423.99625 
L 568.123437 423.99625 
L 568.123437 0 
L 0 0 
z
" style="fill: #ffffff"/>
  </g>
  <g id="axes_1">
   <g id="patch_2">
    <path d="M 46.965625 386.44 
L 401.765625 386.44 
L 401.765625 7.2 
L 46.965625 7.2 
z
" style="fill: #ffffff"/>
   </g>
   <g id="matplotlib.axis_1">
    <g id="xtick_1">
     <g id="line2d_1">
      <path d="M 63.092898 386.44 
L 63.092898 7.2 
" clip-path="url(#p11a10a15a7)" style="fill: none; stroke-dasharray: 2.96,1.28; stroke-dashoffset: 0; stroke: #b0b0b0; stroke-opacity: 0.6; stroke-width: 0.8"/>
     </g>
     <g id="line2d_2">
      <defs>
       <path id="mbe6c073200" d="M 0 0 
L 0 3.5 
" style="stroke: #000000; stroke-width: 0.8"/>
      </defs>
      <g>
       <use xlink:href="#mbe6c073200" x="63.092898" y="386.44" style="stroke: #000000; stroke-width: 0.8"/>
      </g>
     </g>
     <g id="text_1">
      <!-- 0 -->
      <g transform="translate(59.911648 401.038437) scale(0.1 -0.1)">
       <defs>
        <path id="DejaVuSans-30" d="M 2034 4250 
Q 1547 4250 1301 3770 
Q 1056 3291 1056 2328 
Q 1056 1369 1301 889 
Q 1547 409 2034 409 
Q 2525 409 2770 889 
Q 3016 1369 3016 2328 
Q 3016 3291 2770 3770 
Q 2525 4250 2034 4250 
z
M 2034 4750 
Q 2819 4750 3233 4129 
Q 3647 3509 3647 2328 
Q 3647 1150 3233 529 
Q 2819 -91 2034 -91 
Q 1250 -91 836 529 
Q 422 1150 422 2328 
Q 422 3509 836 4129 
Q 1250 4750 2034 4750 
z
" transform="scale(0.015625)"/>
       </defs>
       <use xlink:href="#DejaVuSans-30"/>
      </g>
     </g>
    </g>
    <g id="xtick_2">
     <g id="line2d_3">
      <path d="M 103.41108 386.44 
L 103.41108 7.2 
" clip-path="url(#p11a10a15a7)" style="fill: none; stroke-dasharray: 2.96,1.28; stroke-dashoffset: 0; stroke: #b0b0b0; stroke-opacity: 0.6; stroke-width: 0.8"/>
     </g>
     <g id="line2d_4">
      <g>
       <use xlink:href="#mbe6c073200" x="103.41108" y="386.44" style="stroke: #000000; stroke-width: 0.8"/>
      </g>
     </g>
     <g id="text_2">
      <!-- 1000 -->
      <g transform="translate(90.68608 401.038437) scale(0.1 -0.1)">
       <defs>
        <path id="DejaVuSans-31" d="M 794 531 
L 1825 531 
L 1825 4091 
L 703 3866 
L 703 4441 
L 1819 4666 
L 2450 4666 
L 2450 531 
L 3481 531 
L 3481 0 
L 794 0 
L 794 531 
z
" transform="scale(0.015625)"/>
       </defs>
       <use xlink:href="#DejaVuSans-31"/>
       <use xlink:href="#DejaVuSans-30" transform="translate(63.623047 0)"/>
       <use xlink:href="#DejaVuSans-30" transform="translate(127.246094 0)"/>
       <use xlink:href="#DejaVuSans-30" transform="translate(190.869141 0)"/>
      </g>
     </g>
    </g>
    <g id="xtick_3">
     <g id="line2d_5">
      <path d="M 143.729261 386.44 
L 143.729261 7.2 
" clip-path="url(#p11a10a15a7)" style="fill: none; stroke-dasharray: 2.96,1.28; stroke-dashoffset: 0; stroke: #b0b0b0; stroke-opacity: 0.6; stroke-width: 0.8"/>
     </g>
     <g id="line2d_6">
      <g>
       <use xlink:href="#mbe6c073200" x="143.729261" y="386.44" style="stroke: #000000; stroke-width: 0.8"/>
      </g>
     </g>
     <g id="text_3">
      <!-- 2000 -->
      <g transform="translate(131.004261 401.038437) scale(0.1 -0.1)">
       <defs>
        <path id="DejaVuSans-32" d="M 1228 531 
L 3431 531 
L 3431 0 
L 469 0 
L 469 531 
Q 828 903 1448 1529 
Q 2069 2156 2228 2338 
Q 2531 2678 2651 2914 
Q 2772 3150 2772 3378 
Q 2772 3750 2511 3984 
Q 2250 4219 1831 4219 
Q 1534 4219 1204 4116 
Q 875 4013 500 3803 
L 500 4441 
Q 881 4594 1212 4672 
Q 1544 4750 1819 4750 
Q 2544 4750 2975 4387 
Q 3406 4025 3406 3419 
Q 3406 3131 3298 2873 
Q 3191 2616 2906 2266 
Q 2828 2175 2409 1742 
Q 1991 1309 1228 531 
z
" transform="scale(0.015625)"/>
       </defs>
       <use xlink:href="#DejaVuSans-32"/>
       <use xlink:href="#DejaVuSans-30" transform="translate(63.623047 0)"/>
       <use xlink:href="#DejaVuSans-30" transform="translate(127.246094 0)"/>
       <use xlink:href="#DejaVuSans-30" transform="translate(190.869141 0)"/>
      </g>
     </g>
    </g>
    <g id="xtick_4">
     <g id="line2d_7">
      <path d="M 184.047443 386.44 
L 184.047443 7.2 
" clip-path="url(#p11a10a15a7)" style="fill: none; stroke-dasharray: 2.96,1.28; stroke-dashoffset: 0; stroke: #b0b0b0; stroke-opacity: 0.6; stroke-width: 0.8"/>
     </g>
     <g id="line2d_8">
      <g>
       <use xlink:href="#mbe6c073200" x="184.047443" y="386.44" style="stroke: #000000; stroke-width: 0.8"/>
      </g>
     </g>
     <g id="text_4">
      <!-- 3000 -->
      <g transform="translate(171.322443 401.038437) scale(0.1 -0.1)">
       <defs>
        <path id="DejaVuSans-33" d="M 2597 2516 
Q 3050 2419 3304 2112 
Q 3559 1806 3559 1356 
Q 3559 666 3084 287 
Q 2609 -91 1734 -91 
Q 1441 -91 1130 -33 
Q 819 25 488 141 
L 488 750 
Q 750 597 1062 519 
Q 1375 441 1716 441 
Q 2309 441 2620 675 
Q 2931 909 2931 1356 
Q 2931 1769 2642 2001 
Q 2353 2234 1838 2234 
L 1294 2234 
L 1294 2753 
L 1863 2753 
Q 2328 2753 2575 2939 
Q 2822 3125 2822 3475 
Q 2822 3834 2567 4026 
Q 2313 4219 1838 4219 
Q 1578 4219 1281 4162 
Q 984 4106 628 3988 
L 628 4550 
Q 988 4650 1302 4700 
Q 1616 4750 1894 4750 
Q 2613 4750 3031 4423 
Q 3450 4097 3450 3541 
Q 3450 3153 3228 2886 
Q 3006 2619 2597 2516 
z
" transform="scale(0.015625)"/>
       </defs>
       <use xlink:href="#DejaVuSans-33"/>
       <use xlink:href="#DejaVuSans-30" transform="translate(63.623047 0)"/>
       <use xlink:href="#DejaVuSans-30" transform="translate(127.246094 0)"/>
       <use xlink:href="#DejaVuSans-30" transform="translate(190.869141 0)"/>
      </g>
     </g>
    </g>
    <g id="xtick_5">
     <g id="line2d_9">
      <path d="M 224.365625 386.44 
L 224.365625 7.2 
" clip-path="url(#p11a10a15a7)" style="fill: none; stroke-dasharray: 2.96,1.28; stroke-dashoffset: 0; stroke: #b0b0b0; stroke-opacity: 0.6; stroke-width: 0.8"/>
     </g>
     <g id="line2d_10">
      <g>
       <use xlink:href="#mbe6c073200" x="224.365625" y="386.44" style="stroke: #000000; stroke-width: 0.8"/>
      </g>
     </g>
     <g id="text_5">
      <!-- 4000 -->
      <g transform="translate(211.640625 401.038437) scale(0.1 -0.1)">
       <defs>
        <path id="DejaVuSans-34" d="M 2419 4116 
L 825 1625 
L 2419 1625 
L 2419 4116 
z
M 2253 4666 
L 3047 4666 
L 3047 1625 
L 3713 1625 
L 3713 1100 
L 3047 1100 
L 3047 0 
L 2419 0 
L 2419 1100 
L 313 1100 
L 313 1709 
L 2253 4666 
z
" transform="scale(0.015625)"/>
       </defs>
       <use xlink:href="#DejaVuSans-34"/>
       <use xlink:href="#DejaVuSans-30" transform="translate(63.623047 0)"/>
       <use xlink:href="#DejaVuSans-30" transform="translate(127.246094 0)"/>
       <use xlink:href="#DejaVuSans-30" transform="translate(190.869141 0)"/>
      </g>
     </g>
    </g>
    <g id="xtick_6">
     <g id="line2d_11">
      <path d="M 264.683807 386.44 
L 264.683807 7.2 
" clip-path="url(#p11a10a15a7)" style="fill: none; stroke-dasharray: 2.96,1.28; stroke-dashoffset: 0; stroke: #b0b0b0; stroke-opacity: 0.6; stroke-width: 0.8"/>
     </g>
     <g id="line2d_12">
      <g>
       <use xlink:href="#mbe6c073200" x="264.683807" y="386.44" style="stroke: #000000; stroke-width: 0.8"/>
      </g>
     </g>
     <g id="text_6">
      <!-- 5000 -->
      <g transform="translate(251.958807 401.038437) scale(0.1 -0.1)">
       <defs>
        <path id="DejaVuSans-35" d="M 691 4666 
L 3169 4666 
L 3169 4134 
L 1269 4134 
L 1269 2991 
Q 1406 3038 1543 3061 
Q 1681 3084 1819 3084 
Q 2600 3084 3056 2656 
Q 3513 2228 3513 1497 
Q 3513 744 3044 326 
Q 2575 -91 1722 -91 
Q 1428 -91 1123 -41 
Q 819 9 494 109 
L 494 744 
Q 775 591 1075 516 
Q 1375 441 1709 441 
Q 2250 441 2565 725 
Q 2881 1009 2881 1497 
Q 2881 1984 2565 2268 
Q 2250 2553 1709 2553 
Q 1456 2553 1204 2497 
Q 953 2441 691 2322 
L 691 4666 
z
" transform="scale(0.015625)"/>
       </defs>
       <use xlink:href="#DejaVuSans-35"/>
       <use xlink:href="#DejaVuSans-30" transform="translate(63.623047 0)"/>
       <use xlink:href="#DejaVuSans-30" transform="translate(127.246094 0)"/>
       <use xlink:href="#DejaVuSans-30" transform="translate(190.869141 0)"/>
      </g>
     </g>
    </g>
    <g id="xtick_7">
     <g id="line2d_13">
      <path d="M 305.001989 386.44 
L 305.001989 7.2 
" clip-path="url(#p11a10a15a7)" style="fill: none; stroke-dasharray: 2.96,1.28; stroke-dashoffset: 0; stroke: #b0b0b0; stroke-opacity: 0.6; stroke-width: 0.8"/>
     </g>
     <g id="line2d_14">
      <g>
       <use xlink:href="#mbe6c073200" x="305.001989" y="386.44" style="stroke: #000000; stroke-width: 0.8"/>
      </g>
     </g>
     <g id="text_7">
      <!-- 6000 -->
      <g transform="translate(292.276989 401.038437) scale(0.1 -0.1)">
       <defs>
        <path id="DejaVuSans-36" d="M 2113 2584 
Q 1688 2584 1439 2293 
Q 1191 2003 1191 1497 
Q 1191 994 1439 701 
Q 1688 409 2113 409 
Q 2538 409 2786 701 
Q 3034 994 3034 1497 
Q 3034 2003 2786 2293 
Q 2538 2584 2113 2584 
z
M 3366 4563 
L 3366 3988 
Q 3128 4100 2886 4159 
Q 2644 4219 2406 4219 
Q 1781 4219 1451 3797 
Q 1122 3375 1075 2522 
Q 1259 2794 1537 2939 
Q 1816 3084 2150 3084 
Q 2853 3084 3261 2657 
Q 3669 2231 3669 1497 
Q 3669 778 3244 343 
Q 2819 -91 2113 -91 
Q 1303 -91 875 529 
Q 447 1150 447 2328 
Q 447 3434 972 4092 
Q 1497 4750 2381 4750 
Q 2619 4750 2861 4703 
Q 3103 4656 3366 4563 
z
" transform="scale(0.015625)"/>
       </defs>
       <use xlink:href="#DejaVuSans-36"/>
       <use xlink:href="#DejaVuSans-30" transform="translate(63.623047 0)"/>
       <use xlink:href="#DejaVuSans-30" transform="translate(127.246094 0)"/>
       <use xlink:href="#DejaVuSans-30" transform="translate(190.869141 0)"/>
      </g>
     </g>
    </g>
    <g id="xtick_8">
     <g id="line2d_15">
      <path d="M 345.32017 386.44 
L 345.32017 7.2 
" clip-path="url(#p11a10a15a7)" style="fill: none; stroke-dasharray: 2.96,1.28; stroke-dashoffset: 0; stroke: #b0b0b0; stroke-opacity: 0.6; stroke-width: 0.8"/>
     </g>
     <g id="line2d_16">
      <g>
       <use xlink:href="#mbe6c073200" x="345.32017" y="386.44" style="stroke: #000000; stroke-width: 0.8"/>
      </g>
     </g>
     <g id="text_8">
      <!-- 7000 -->
      <g transform="translate(332.59517 401.038437) scale(0.1 -0.1)">
       <defs>
        <path id="DejaVuSans-37" d="M 525 4666 
L 3525 4666 
L 3525 4397 
L 1831 0 
L 1172 0 
L 2766 4134 
L 525 4134 
L 525 4666 
z
" transform="scale(0.015625)"/>
       </defs>
       <use xlink:href="#DejaVuSans-37"/>
       <use xlink:href="#DejaVuSans-30" transform="translate(63.623047 0)"/>
       <use xlink:href="#DejaVuSans-30" transform="translate(127.246094 0)"/>
       <use xlink:href="#DejaVuSans-30" transform="translate(190.869141 0)"/>
      </g>
     </g>
    </g>
    <g id="xtick_9">
     <g id="line2d_17">
      <path d="M 385.638352 386.44 
L 385.638352 7.2 
" clip-path="url(#p11a10a15a7)" style="fill: none; stroke-dasharray: 2.96,1.28; stroke-dashoffset: 0; stroke: #b0b0b0; stroke-opacity: 0.6; stroke-width: 0.8"/>
     </g>
     <g id="line2d_18">
      <g>
       <use xlink:href="#mbe6c073200" x="385.638352" y="386.44" style="stroke: #000000; stroke-width: 0.8"/>
      </g>
     </g>
     <g id="text_9">
      <!-- 8000 -->
      <g transform="translate(372.913352 401.038437) scale(0.1 -0.1)">
       <defs>
        <path id="DejaVuSans-38" d="M 2034 2216 
Q 1584 2216 1326 1975 
Q 1069 1734 1069 1313 
Q 1069 891 1326 650 
Q 1584 409 2034 409 
Q 2484 409 2743 651 
Q 3003 894 3003 1313 
Q 3003 1734 2745 1975 
Q 2488 2216 2034 2216 
z
M 1403 2484 
Q 997 2584 770 2862 
Q 544 3141 544 3541 
Q 544 4100 942 4425 
Q 1341 4750 2034 4750 
Q 2731 4750 3128 4425 
Q 3525 4100 3525 3541 
Q 3525 3141 3298 2862 
Q 3072 2584 2669 2484 
Q 3125 2378 3379 2068 
Q 3634 1759 3634 1313 
Q 3634 634 3220 271 
Q 2806 -91 2034 -91 
Q 1263 -91 848 271 
Q 434 634 434 1313 
Q 434 1759 690 2068 
Q 947 2378 1403 2484 
z
M 1172 3481 
Q 1172 3119 1398 2916 
Q 1625 2713 2034 2713 
Q 2441 2713 2670 2916 
Q 2900 3119 2900 3481 
Q 2900 3844 2670 4047 
Q 2441 4250 2034 4250 
Q 1625 4250 1398 4047 
Q 1172 3844 1172 3481 
z
" transform="scale(0.015625)"/>
       </defs>
       <use xlink:href="#DejaVuSans-38"/>
       <use xlink:href="#DejaVuSans-30" transform="translate(63.623047 0)"/>
       <use xlink:href="#DejaVuSans-30" transform="translate(127.246094 0)"/>
       <use xlink:href="#DejaVuSans-30" transform="translate(190.869141 0)"/>
      </g>
     </g>
    </g>
    <g id="text_10">
     <!-- Distance from terminus [nt] -->
     <g transform="translate(154.866406 414.716562) scale(0.1 -0.1)">
      <defs>
       <path id="DejaVuSans-44" d="M 1259 4147 
L 1259 519 
L 2022 519 
Q 2988 519 3436 956 
Q 3884 1394 3884 2338 
Q 3884 3275 3436 3711 
Q 2988 4147 2022 4147 
L 1259 4147 
z
M 628 4666 
L 1925 4666 
Q 3281 4666 3915 4102 
Q 4550 3538 4550 2338 
Q 4550 1131 3912 565 
Q 3275 0 1925 0 
L 628 0 
L 628 4666 
z
" transform="scale(0.015625)"/>
       <path id="DejaVuSans-69" d="M 603 3500 
L 1178 3500 
L 1178 0 
L 603 0 
L 603 3500 
z
M 603 4863 
L 1178 4863 
L 1178 4134 
L 603 4134 
L 603 4863 
z
" transform="scale(0.015625)"/>
       <path id="DejaVuSans-73" d="M 2834 3397 
L 2834 2853 
Q 2591 2978 2328 3040 
Q 2066 3103 1784 3103 
Q 1356 3103 1142 2972 
Q 928 2841 928 2578 
Q 928 2378 1081 2264 
Q 1234 2150 1697 2047 
L 1894 2003 
Q 2506 1872 2764 1633 
Q 3022 1394 3022 966 
Q 3022 478 2636 193 
Q 2250 -91 1575 -91 
Q 1294 -91 989 -36 
Q 684 19 347 128 
L 347 722 
Q 666 556 975 473 
Q 1284 391 1588 391 
Q 1994 391 2212 530 
Q 2431 669 2431 922 
Q 2431 1156 2273 1281 
Q 2116 1406 1581 1522 
L 1381 1569 
Q 847 1681 609 1914 
Q 372 2147 372 2553 
Q 372 3047 722 3315 
Q 1072 3584 1716 3584 
Q 2034 3584 2315 3537 
Q 2597 3491 2834 3397 
z
" transform="scale(0.015625)"/>
       <path id="DejaVuSans-74" d="M 1172 4494 
L 1172 3500 
L 2356 3500 
L 2356 3053 
L 1172 3053 
L 1172 1153 
Q 1172 725 1289 603 
Q 1406 481 1766 481 
L 2356 481 
L 2356 0 
L 1766 0 
Q 1100 0 847 248 
Q 594 497 594 1153 
L 594 3053 
L 172 3053 
L 172 3500 
L 594 3500 
L 594 4494 
L 1172 4494 
z
" transform="scale(0.015625)"/>
       <path id="DejaVuSans-61" d="M 2194 1759 
Q 1497 1759 1228 1600 
Q 959 1441 959 1056 
Q 959 750 1161 570 
Q 1363 391 1709 391 
Q 2188 391 2477 730 
Q 2766 1069 2766 1631 
L 2766 1759 
L 2194 1759 
z
M 3341 1997 
L 3341 0 
L 2766 0 
L 2766 531 
Q 2569 213 2275 61 
Q 1981 -91 1556 -91 
Q 1019 -91 701 211 
Q 384 513 384 1019 
Q 384 1609 779 1909 
Q 1175 2209 1959 2209 
L 2766 2209 
L 2766 2266 
Q 2766 2663 2505 2880 
Q 2244 3097 1772 3097 
Q 1472 3097 1187 3025 
Q 903 2953 641 2809 
L 641 3341 
Q 956 3463 1253 3523 
Q 1550 3584 1831 3584 
Q 2591 3584 2966 3190 
Q 3341 2797 3341 1997 
z
" transform="scale(0.015625)"/>
       <path id="DejaVuSans-6e" d="M 3513 2113 
L 3513 0 
L 2938 0 
L 2938 2094 
Q 2938 2591 2744 2837 
Q 2550 3084 2163 3084 
Q 1697 3084 1428 2787 
Q 1159 2491 1159 1978 
L 1159 0 
L 581 0 
L 581 3500 
L 1159 3500 
L 1159 2956 
Q 1366 3272 1645 3428 
Q 1925 3584 2291 3584 
Q 2894 3584 3203 3211 
Q 3513 2838 3513 2113 
z
" transform="scale(0.015625)"/>
       <path id="DejaVuSans-63" d="M 3122 3366 
L 3122 2828 
Q 2878 2963 2633 3030 
Q 2388 3097 2138 3097 
Q 1578 3097 1268 2742 
Q 959 2388 959 1747 
Q 959 1106 1268 751 
Q 1578 397 2138 397 
Q 2388 397 2633 464 
Q 2878 531 3122 666 
L 3122 134 
Q 2881 22 2623 -34 
Q 2366 -91 2075 -91 
Q 1284 -91 818 406 
Q 353 903 353 1747 
Q 353 2603 823 3093 
Q 1294 3584 2113 3584 
Q 2378 3584 2631 3529 
Q 2884 3475 3122 3366 
z
" transform="scale(0.015625)"/>
       <path id="DejaVuSans-65" d="M 3597 1894 
L 3597 1613 
L 953 1613 
Q 991 1019 1311 708 
Q 1631 397 2203 397 
Q 2534 397 2845 478 
Q 3156 559 3463 722 
L 3463 178 
Q 3153 47 2828 -22 
Q 2503 -91 2169 -91 
Q 1331 -91 842 396 
Q 353 884 353 1716 
Q 353 2575 817 3079 
Q 1281 3584 2069 3584 
Q 2775 3584 3186 3129 
Q 3597 2675 3597 1894 
z
M 3022 2063 
Q 3016 2534 2758 2815 
Q 2500 3097 2075 3097 
Q 1594 3097 1305 2825 
Q 1016 2553 972 2059 
L 3022 2063 
z
" transform="scale(0.015625)"/>
       <path id="DejaVuSans-20" transform="scale(0.015625)"/>
       <path id="DejaVuSans-66" d="M 2375 4863 
L 2375 4384 
L 1825 4384 
Q 1516 4384 1395 4259 
Q 1275 4134 1275 3809 
L 1275 3500 
L 2222 3500 
L 2222 3053 
L 1275 3053 
L 1275 0 
L 697 0 
L 697 3053 
L 147 3053 
L 147 3500 
L 697 3500 
L 697 3744 
Q 697 4328 969 4595 
Q 1241 4863 1831 4863 
L 2375 4863 
z
" transform="scale(0.015625)"/>
       <path id="DejaVuSans-72" d="M 2631 2963 
Q 2534 3019 2420 3045 
Q 2306 3072 2169 3072 
Q 1681 3072 1420 2755 
Q 1159 2438 1159 1844 
L 1159 0 
L 581 0 
L 581 3500 
L 1159 3500 
L 1159 2956 
Q 1341 3275 1631 3429 
Q 1922 3584 2338 3584 
Q 2397 3584 2469 3576 
Q 2541 3569 2628 3553 
L 2631 2963 
z
" transform="scale(0.015625)"/>
       <path id="DejaVuSans-6f" d="M 1959 3097 
Q 1497 3097 1228 2736 
Q 959 2375 959 1747 
Q 959 1119 1226 758 
Q 1494 397 1959 397 
Q 2419 397 2687 759 
Q 2956 1122 2956 1747 
Q 2956 2369 2687 2733 
Q 2419 3097 1959 3097 
z
M 1959 3584 
Q 2709 3584 3137 3096 
Q 3566 2609 3566 1747 
Q 3566 888 3137 398 
Q 2709 -91 1959 -91 
Q 1206 -91 779 398 
Q 353 888 353 1747 
Q 353 2609 779 3096 
Q 1206 3584 1959 3584 
z
" transform="scale(0.015625)"/>
       <path id="DejaVuSans-6d" d="M 3328 2828 
Q 3544 3216 3844 3400 
Q 4144 3584 4550 3584 
Q 5097 3584 5394 3201 
Q 5691 2819 5691 2113 
L 5691 0 
L 5113 0 
L 5113 2094 
Q 5113 2597 4934 2840 
Q 4756 3084 4391 3084 
Q 3944 3084 3684 2787 
Q 3425 2491 3425 1978 
L 3425 0 
L 2847 0 
L 2847 2094 
Q 2847 2600 2669 2842 
Q 2491 3084 2119 3084 
Q 1678 3084 1418 2786 
Q 1159 2488 1159 1978 
L 1159 0 
L 581 0 
L 581 3500 
L 1159 3500 
L 1159 2956 
Q 1356 3278 1631 3431 
Q 1906 3584 2284 3584 
Q 2666 3584 2933 3390 
Q 3200 3197 3328 2828 
z
" transform="scale(0.015625)"/>
       <path id="DejaVuSans-75" d="M 544 1381 
L 544 3500 
L 1119 3500 
L 1119 1403 
Q 1119 906 1312 657 
Q 1506 409 1894 409 
Q 2359 409 2629 706 
Q 2900 1003 2900 1516 
L 2900 3500 
L 3475 3500 
L 3475 0 
L 2900 0 
L 2900 538 
Q 2691 219 2414 64 
Q 2138 -91 1772 -91 
Q 1169 -91 856 284 
Q 544 659 544 1381 
z
M 1991 3584 
L 1991 3584 
z
" transform="scale(0.015625)"/>
       <path id="DejaVuSans-5b" d="M 550 4863 
L 1875 4863 
L 1875 4416 
L 1125 4416 
L 1125 -397 
L 1875 -397 
L 1875 -844 
L 550 -844 
L 550 4863 
z
" transform="scale(0.015625)"/>
       <path id="DejaVuSans-5d" d="M 1947 4863 
L 1947 -844 
L 622 -844 
L 622 -397 
L 1369 -397 
L 1369 4416 
L 622 4416 
L 622 4863 
L 1947 4863 
z
" transform="scale(0.015625)"/>
      </defs>
      <use xlink:href="#DejaVuSans-44"/>
      <use xlink:href="#DejaVuSans-69" transform="translate(77.001953 0)"/>
      <use xlink:href="#DejaVuSans-73" transform="translate(104.785156 0)"/>
      <use xlink:href="#DejaVuSans-74" transform="translate(156.884766 0)"/>
      <use xlink:href="#DejaVuSans-61" transform="translate(196.09375 0)"/>
      <use xlink:href="#DejaVuSans-6e" transform="translate(257.373047 0)"/>
      <use xlink:href="#DejaVuSans-63" transform="translate(320.751953 0)"/>
      <use xlink:href="#DejaVuSans-65" transform="translate(375.732422 0)"/>
      <use xlink:href="#DejaVuSans-20" transform="translate(437.255859 0)"/>
      <use xlink:href="#DejaVuSans-66" transform="translate(469.042969 0)"/>
      <use xlink:href="#DejaVuSans-72" transform="translate(504.248047 0)"/>
      <use xlink:href="#DejaVuSans-6f" transform="translate(543.111328 0)"/>
      <use xlink:href="#DejaVuSans-6d" transform="translate(604.292969 0)"/>
      <use xlink:href="#DejaVuSans-20" transform="translate(701.705078 0)"/>
      <use xlink:href="#DejaVuSans-74" transform="translate(733.492188 0)"/>
      <use xlink:href="#DejaVuSans-65" transform="translate(772.701172 0)"/>
      <use xlink:href="#DejaVuSans-72" transform="translate(834.224609 0)"/>
      <use xlink:href="#DejaVuSans-6d" transform="translate(873.587891 0)"/>
      <use xlink:href="#DejaVuSans-69" transform="translate(971 0)"/>
      <use xlink:href="#DejaVuSans-6e" transform="translate(998.783203 0)"/>
      <use xlink:href="#DejaVuSans-75" transform="translate(1062.162109 0)"/>
      <use xlink:href="#DejaVuSans-73" transform="translate(1125.541016 0)"/>
      <use xlink:href="#DejaVuSans-20" transform="translate(1177.640625 0)"/>
      <use xlink:href="#DejaVuSans-5b" transform="translate(1209.427734 0)"/>
      <use xlink:href="#DejaVuSans-6e" transform="translate(1248.441406 0)"/>
      <use xlink:href="#DejaVuSans-74" transform="translate(1311.820312 0)"/>
      <use xlink:href="#DejaVuSans-5d" transform="translate(1351.029297 0)"/>
     </g>
    </g>
   </g>
   <g id="matplotlib.axis_2">
    <g id="ytick_1">
     <g id="line2d_19">
      <path d="M 46.965625 369.201818 
L 401.765625 369.201818 
" clip-path="url(#p11a10a15a7)" style="fill: none; stroke-dasharray: 2.96,1.28; stroke-dashoffset: 0; stroke: #b0b0b0; stroke-opacity: 0.6; stroke-width: 0.8"/>
     </g>
     <g id="line2d_20">
      <defs>
       <path id="m606a78b562" d="M 0 0 
L -3.5 0 
" style="stroke: #000000; stroke-width: 0.8"/>
      </defs>
      <g>
       <use xlink:href="#m606a78b562" x="46.965625" y="369.201818" style="stroke: #000000; stroke-width: 0.8"/>
      </g>
     </g>
     <g id="text_11">
      <!-- 0 -->
      <g transform="translate(33.603125 373.001037) scale(0.1 -0.1)">
       <use xlink:href="#DejaVuSans-30"/>
      </g>
     </g>
    </g>
    <g id="ytick_2">
     <g id="line2d_21">
      <path d="M 46.965625 309.657149 
L 401.765625 309.657149 
" clip-path="url(#p11a10a15a7)" style="fill: none; stroke-dasharray: 2.96,1.28; stroke-dashoffset: 0; stroke: #b0b0b0; stroke-opacity: 0.6; stroke-width: 0.8"/>
     </g>
     <g id="line2d_22">
      <g>
       <use xlink:href="#m606a78b562" x="46.965625" y="309.657149" style="stroke: #000000; stroke-width: 0.8"/>
      </g>
     </g>
     <g id="text_12">
      <!-- 50 -->
      <g transform="translate(27.240625 313.456367) scale(0.1 -0.1)">
       <use xlink:href="#DejaVuSans-35"/>
       <use xlink:href="#DejaVuSans-30" transform="translate(63.623047 0)"/>
      </g>
     </g>
    </g>
    <g id="ytick_3">
     <g id="line2d_23">
      <path d="M 46.965625 250.112479 
L 401.765625 250.112479 
" clip-path="url(#p11a10a15a7)" style="fill: none; stroke-dasharray: 2.96,1.28; stroke-dashoffset: 0; stroke: #b0b0b0; stroke-opacity: 0.6; stroke-width: 0.8"/>
     </g>
     <g id="line2d_24">
      <g>
       <use xlink:href="#m606a78b562" x="46.965625" y="250.112479" style="stroke: #000000; stroke-width: 0.8"/>
      </g>
     </g>
     <g id="text_13">
      <!-- 100 -->
      <g transform="translate(20.878125 253.911698) scale(0.1 -0.1)">
       <use xlink:href="#DejaVuSans-31"/>
       <use xlink:href="#DejaVuSans-30" transform="translate(63.623047 0)"/>
       <use xlink:href="#DejaVuSans-30" transform="translate(127.246094 0)"/>
      </g>
     </g>
    </g>
    <g id="ytick_4">
     <g id="line2d_25">
      <path d="M 46.965625 190.56781 
L 401.765625 190.56781 
" clip-path="url(#p11a10a15a7)" style="fill: none; stroke-dasharray: 2.96,1.28; stroke-dashoffset: 0; stroke: #b0b0b0; stroke-opacity: 0.6; stroke-width: 0.8"/>
     </g>
     <g id="line2d_26">
      <g>
       <use xlink:href="#m606a78b562" x="46.965625" y="190.56781" style="stroke: #000000; stroke-width: 0.8"/>
      </g>
     </g>
     <g id="text_14">
      <!-- 150 -->
      <g transform="translate(20.878125 194.367028) scale(0.1 -0.1)">
       <use xlink:href="#DejaVuSans-31"/>
       <use xlink:href="#DejaVuSans-35" transform="translate(63.623047 0)"/>
       <use xlink:href="#DejaVuSans-30" transform="translate(127.246094 0)"/>
      </g>
     </g>
    </g>
    <g id="ytick_5">
     <g id="line2d_27">
      <path d="M 46.965625 131.02314 
L 401.765625 131.02314 
" clip-path="url(#p11a10a15a7)" style="fill: none; stroke-dasharray: 2.96,1.28; stroke-dashoffset: 0; stroke: #b0b0b0; stroke-opacity: 0.6; stroke-width: 0.8"/>
     </g>
     <g id="line2d_28">
      <g>
       <use xlink:href="#m606a78b562" x="46.965625" y="131.02314" style="stroke: #000000; stroke-width: 0.8"/>
      </g>
     </g>
     <g id="text_15">
      <!-- 200 -->
      <g transform="translate(20.878125 134.822359) scale(0.1 -0.1)">
       <use xlink:href="#DejaVuSans-32"/>
       <use xlink:href="#DejaVuSans-30" transform="translate(63.623047 0)"/>
       <use xlink:href="#DejaVuSans-30" transform="translate(127.246094 0)"/>
      </g>
     </g>
    </g>
    <g id="ytick_6">
     <g id="line2d_29">
      <path d="M 46.965625 71.478471 
L 401.765625 71.478471 
" clip-path="url(#p11a10a15a7)" style="fill: none; stroke-dasharray: 2.96,1.28; stroke-dashoffset: 0; stroke: #b0b0b0; stroke-opacity: 0.6; stroke-width: 0.8"/>
     </g>
     <g id="line2d_30">
      <g>
       <use xlink:href="#m606a78b562" x="46.965625" y="71.478471" style="stroke: #000000; stroke-width: 0.8"/>
      </g>
     </g>
     <g id="text_16">
      <!-- 250 -->
      <g transform="translate(20.878125 75.277689) scale(0.1 -0.1)">
       <use xlink:href="#DejaVuSans-32"/>
       <use xlink:href="#DejaVuSans-35" transform="translate(63.623047 0)"/>
       <use xlink:href="#DejaVuSans-30" transform="translate(127.246094 0)"/>
      </g>
     </g>
    </g>
    <g id="ytick_7">
     <g id="line2d_31">
      <path d="M 46.965625 11.933801 
L 401.765625 11.933801 
" clip-path="url(#p11a10a15a7)" style="fill: none; stroke-dasharray: 2.96,1.28; stroke-dashoffset: 0; stroke: #b0b0b0; stroke-opacity: 0.6; stroke-width: 0.8"/>
     </g>
     <g id="line2d_32">
      <g>
       <use xlink:href="#m606a78b562" x="46.965625" y="11.933801" style="stroke: #000000; stroke-width: 0.8"/>
      </g>
     </g>
     <g id="text_17">
      <!-- 300 -->
      <g transform="translate(20.878125 15.73302) scale(0.1 -0.1)">
       <use xlink:href="#DejaVuSans-33"/>
       <use xlink:href="#DejaVuSans-30" transform="translate(63.623047 0)"/>
       <use xlink:href="#DejaVuSans-30" transform="translate(127.246094 0)"/>
      </g>
     </g>
    </g>
    <g id="text_18">
     <!-- Average cumulative count -->
     <g transform="translate(14.798438 262.4325) rotate(-90) scale(0.1 -0.1)">
      <defs>
       <path id="DejaVuSans-41" d="M 2188 4044 
L 1331 1722 
L 3047 1722 
L 2188 4044 
z
M 1831 4666 
L 2547 4666 
L 4325 0 
L 3669 0 
L 3244 1197 
L 1141 1197 
L 716 0 
L 50 0 
L 1831 4666 
z
" transform="scale(0.015625)"/>
       <path id="DejaVuSans-76" d="M 191 3500 
L 800 3500 
L 1894 563 
L 2988 3500 
L 3597 3500 
L 2284 0 
L 1503 0 
L 191 3500 
z
" transform="scale(0.015625)"/>
       <path id="DejaVuSans-67" d="M 2906 1791 
Q 2906 2416 2648 2759 
Q 2391 3103 1925 3103 
Q 1463 3103 1205 2759 
Q 947 2416 947 1791 
Q 947 1169 1205 825 
Q 1463 481 1925 481 
Q 2391 481 2648 825 
Q 2906 1169 2906 1791 
z
M 3481 434 
Q 3481 -459 3084 -895 
Q 2688 -1331 1869 -1331 
Q 1566 -1331 1297 -1286 
Q 1028 -1241 775 -1147 
L 775 -588 
Q 1028 -725 1275 -790 
Q 1522 -856 1778 -856 
Q 2344 -856 2625 -561 
Q 2906 -266 2906 331 
L 2906 616 
Q 2728 306 2450 153 
Q 2172 0 1784 0 
Q 1141 0 747 490 
Q 353 981 353 1791 
Q 353 2603 747 3093 
Q 1141 3584 1784 3584 
Q 2172 3584 2450 3431 
Q 2728 3278 2906 2969 
L 2906 3500 
L 3481 3500 
L 3481 434 
z
" transform="scale(0.015625)"/>
       <path id="DejaVuSans-6c" d="M 603 4863 
L 1178 4863 
L 1178 0 
L 603 0 
L 603 4863 
z
" transform="scale(0.015625)"/>
      </defs>
      <use xlink:href="#DejaVuSans-41"/>
      <use xlink:href="#DejaVuSans-76" transform="translate(62.533203 0)"/>
      <use xlink:href="#DejaVuSans-65" transform="translate(121.712891 0)"/>
      <use xlink:href="#DejaVuSans-72" transform="translate(183.236328 0)"/>
      <use xlink:href="#DejaVuSans-61" transform="translate(224.349609 0)"/>
      <use xlink:href="#DejaVuSans-67" transform="translate(285.628906 0)"/>
      <use xlink:href="#DejaVuSans-65" transform="translate(349.105469 0)"/>
      <use xlink:href="#DejaVuSans-20" transform="translate(410.628906 0)"/>
      <use xlink:href="#DejaVuSans-63" transform="translate(442.416016 0)"/>
      <use xlink:href="#DejaVuSans-75" transform="translate(497.396484 0)"/>
      <use xlink:href="#DejaVuSans-6d" transform="translate(560.775391 0)"/>
      <use xlink:href="#DejaVuSans-75" transform="translate(658.1875 0)"/>
      <use xlink:href="#DejaVuSans-6c" transform="translate(721.566406 0)"/>
      <use xlink:href="#DejaVuSans-61" transform="translate(749.349609 0)"/>
      <use xlink:href="#DejaVuSans-74" transform="translate(810.628906 0)"/>
      <use xlink:href="#DejaVuSans-69" transform="translate(849.837891 0)"/>
      <use xlink:href="#DejaVuSans-76" transform="translate(877.621094 0)"/>
      <use xlink:href="#DejaVuSans-65" transform="translate(936.800781 0)"/>
      <use xlink:href="#DejaVuSans-20" transform="translate(998.324219 0)"/>
      <use xlink:href="#DejaVuSans-63" transform="translate(1030.111328 0)"/>
      <use xlink:href="#DejaVuSans-6f" transform="translate(1085.091797 0)"/>
      <use xlink:href="#DejaVuSans-75" transform="translate(1146.273438 0)"/>
      <use xlink:href="#DejaVuSans-6e" transform="translate(1209.652344 0)"/>
      <use xlink:href="#DejaVuSans-74" transform="translate(1273.03125 0)"/>
     </g>
    </g>
   </g>
   <g id="line2d_33">
    <path d="M 63.092898 369.201818 
L 385.598034 369.201818 
L 385.598034 369.201818 
" clip-path="url(#p11a10a15a7)" style="fill: none; stroke: #add8e6; stroke-width: 2; stroke-linecap: square"/>
   </g>
   <g id="line2d_34">
    <path d="M 63.092898 369.201818 
L 264.724125 369.201818 
L 264.84508 368.96364 
L 287.181352 368.96364 
L 287.302307 368.725461 
L 333.668216 368.725461 
L 333.78917 368.487282 
L 345.441125 368.487282 
L 345.56208 368.249103 
L 356.568943 368.249103 
L 356.689898 368.010925 
L 376.123261 368.010925 
L 376.244216 367.772746 
L 385.598034 367.772746 
L 385.598034 367.772746 
" clip-path="url(#p11a10a15a7)" style="fill: none; stroke: #6495ed; stroke-width: 2; stroke-linecap: square"/>
   </g>
   <g id="line2d_35">
    <path d="M 63.092898 369.201818 
L 63.213852 368.725461 
L 63.334807 368.725461 
L 63.455761 368.487282 
L 63.536398 368.487282 
L 63.657352 368.010925 
L 63.69767 368.010925 
L 63.858943 367.534567 
L 63.979898 367.534567 
L 64.100852 367.296389 
L 64.423398 367.296389 
L 64.544352 367.05821 
L 64.665307 367.05821 
L 64.786261 366.820031 
L 64.82658 366.820031 
L 65.02817 366.105495 
L 65.108807 366.105495 
L 65.229761 365.867317 
L 65.27008 365.867317 
L 65.431352 365.390959 
L 65.592625 365.390959 
L 65.71358 365.152781 
L 65.753898 365.152781 
L 65.874852 364.914602 
L 66.036125 364.914602 
L 66.15708 364.676423 
L 66.197398 364.676423 
L 66.318352 364.438245 
L 66.479625 364.438245 
L 66.60058 364.200066 
L 66.640898 364.200066 
L 66.80217 363.723709 
L 66.882807 363.723709 
L 67.04408 363.247351 
L 67.084398 363.247351 
L 67.205352 363.009173 
L 67.326307 363.009173 
L 67.48758 362.532815 
L 67.527898 362.532815 
L 67.68917 362.056458 
L 67.810125 362.056458 
L 67.93108 361.818279 
L 67.971398 361.818279 
L 68.092352 361.5801 
L 68.253625 361.5801 
L 68.455216 360.865564 
L 68.535852 360.865564 
L 68.656807 360.627386 
L 68.737443 360.627386 
L 68.898716 360.151028 
L 69.180943 360.151028 
L 69.342216 359.436492 
L 69.624443 359.436492 
L 69.866352 358.483778 
L 70.067943 358.483778 
L 70.229216 358.00742 
L 70.269534 358.00742 
L 70.390489 357.769242 
L 70.511443 357.769242 
L 70.672716 357.292884 
L 70.713034 357.292884 
L 70.874307 356.816527 
L 70.954943 356.816527 
L 71.116216 356.34017 
L 71.156534 356.34017 
L 71.317807 355.863812 
L 71.398443 355.863812 
L 71.559716 355.387455 
L 71.600034 355.387455 
L 71.720989 355.149276 
L 71.841943 355.149276 
L 72.003216 354.672919 
L 72.043534 354.672919 
L 72.164489 354.43474 
L 72.285443 354.43474 
L 72.446716 353.958383 
L 72.487034 353.958383 
L 72.648307 353.482025 
L 72.728943 353.482025 
L 72.890216 353.005668 
L 72.930534 353.005668 
L 73.051489 352.767489 
L 73.172443 352.767489 
L 73.333716 352.291132 
L 73.374034 352.291132 
L 73.494989 352.052953 
L 73.615943 352.052953 
L 73.736898 351.814775 
L 73.817534 351.814775 
L 73.938489 351.576596 
L 74.019125 351.576596 
L 74.180398 351.100239 
L 74.261034 351.100239 
L 74.381989 350.86206 
L 74.422307 350.86206 
L 74.623898 350.147524 
L 74.704534 350.147524 
L 74.825489 349.671167 
L 74.865807 349.671167 
L 75.02708 349.194809 
L 75.148034 349.194809 
L 75.268989 348.956631 
L 75.309307 348.956631 
L 75.47058 348.242095 
L 75.591534 348.242095 
L 75.793125 347.527558 
L 75.833443 347.527558 
L 75.954398 347.28938 
L 76.035034 347.28938 
L 76.317261 346.098486 
L 76.478534 346.098486 
L 76.760761 344.907593 
L 76.922034 344.907593 
L 77.204261 343.7167 
L 77.365534 343.7167 
L 77.486489 343.478521 
L 77.526807 343.478521 
L 77.68808 343.002164 
L 77.809034 343.002164 
L 78.091261 341.81127 
L 78.252534 341.81127 
L 78.454125 341.096734 
L 78.494443 341.096734 
L 78.615398 340.858556 
L 78.696034 340.858556 
L 78.897625 340.144019 
L 78.937943 340.144019 
L 79.058898 339.905841 
L 79.139534 339.905841 
L 79.260489 339.667662 
L 79.300807 339.667662 
L 79.46208 339.191305 
L 79.583034 339.191305 
L 79.744307 338.714947 
L 79.824943 338.714947 
L 79.945898 338.476769 
L 80.026534 338.476769 
L 80.187807 338.000411 
L 80.470034 338.000411 
L 80.671625 337.285875 
L 80.752261 337.285875 
L 80.99417 336.333161 
L 81.034489 336.333161 
L 81.155443 336.094982 
L 81.195761 336.094982 
L 81.43767 335.142267 
L 81.639261 335.142267 
L 81.760216 334.904089 
L 81.800534 334.904089 
L 82.002125 334.189553 
L 82.244034 334.189553 
L 82.445625 333.475016 
L 82.56658 333.475016 
L 82.808489 332.522302 
L 83.01008 332.522302 
L 83.292307 331.331408 
L 83.45358 331.331408 
L 83.695489 330.378694 
L 83.89708 330.378694 
L 84.179307 329.1878 
L 84.34058 329.1878 
L 84.622807 327.996907 
L 84.78408 327.996907 
L 85.066307 326.806014 
L 85.22758 326.806014 
L 85.509807 325.61512 
L 85.67108 325.61512 
L 85.953307 324.424227 
L 86.11458 324.424227 
L 86.396807 323.233333 
L 86.55808 323.233333 
L 86.799989 322.280619 
L 87.00158 322.280619 
L 87.283807 321.089725 
L 87.44508 321.089725 
L 87.727307 319.898832 
L 87.88858 319.898832 
L 88.170807 318.707938 
L 88.33208 318.707938 
L 88.573989 317.755224 
L 88.77558 317.755224 
L 89.017489 316.802509 
L 89.21908 316.802509 
L 89.501307 315.611616 
L 89.66258 315.611616 
L 89.823852 315.135258 
L 89.904489 315.135258 
L 90.025443 314.89708 
L 90.10608 314.89708 
L 90.30767 314.182544 
L 90.347989 314.182544 
L 90.468943 313.944365 
L 90.54958 313.944365 
L 90.791489 312.99165 
L 90.831807 312.99165 
L 90.952761 312.753472 
L 90.99308 312.753472 
L 91.19467 312.038935 
L 91.275307 312.038935 
L 91.396261 311.800757 
L 91.43658 311.800757 
L 91.63817 311.086221 
L 91.718807 311.086221 
L 91.839761 310.848042 
L 91.88008 310.848042 
L 92.121989 309.895327 
L 92.162307 309.895327 
L 92.283261 309.657149 
L 92.32358 309.657149 
L 92.484852 309.180791 
L 92.605807 309.180791 
L 92.726761 308.942613 
L 92.76708 308.942613 
L 92.928352 308.466255 
L 92.96867 308.466255 
L 93.129943 307.989898 
L 93.21058 307.989898 
L 93.452489 307.037183 
L 93.492807 307.037183 
L 93.613761 306.799005 
L 93.65408 306.799005 
L 93.895989 305.84629 
L 93.976625 305.84629 
L 94.137898 305.369932 
L 94.178216 305.369932 
L 94.379807 304.655396 
L 94.420125 304.655396 
L 94.581398 304.179039 
L 94.621716 304.179039 
L 94.823307 303.464503 
L 94.863625 303.464503 
L 95.024898 302.988146 
L 95.105534 302.988146 
L 95.266807 302.511788 
L 95.307125 302.511788 
L 95.508716 301.797252 
L 95.549034 301.797252 
L 95.710307 301.320895 
L 95.750625 301.320895 
L 95.952216 300.606359 
L 95.992534 300.606359 
L 96.153807 300.130002 
L 96.194125 300.130002 
L 96.395716 299.415466 
L 96.436034 299.415466 
L 96.597307 298.939108 
L 96.637625 298.939108 
L 96.839216 298.224572 
L 96.879534 298.224572 
L 97.040807 297.748215 
L 97.081125 297.748215 
L 97.282716 297.033679 
L 97.323034 297.033679 
L 97.484307 296.557321 
L 97.524625 296.557321 
L 97.726216 295.842785 
L 97.766534 295.842785 
L 97.927807 295.366428 
L 97.968125 295.366428 
L 98.169716 294.651892 
L 98.210034 294.651892 
L 98.371307 294.175535 
L 98.411625 294.175535 
L 98.613216 293.460999 
L 98.653534 293.460999 
L 98.814807 292.984641 
L 98.855125 292.984641 
L 99.056716 292.270105 
L 99.097034 292.270105 
L 99.258307 291.793748 
L 99.41958 291.793748 
L 99.661489 290.841033 
L 99.782443 290.841033 
L 100.024352 289.888318 
L 100.06467 289.888318 
L 100.185625 289.65014 
L 100.225943 289.65014 
L 100.467852 288.697425 
L 100.50817 288.697425 
L 100.629125 288.459246 
L 100.669443 288.459246 
L 100.911352 287.506532 
L 100.95167 287.506532 
L 101.072625 287.268353 
L 101.112943 287.268353 
L 101.354852 286.315638 
L 101.39517 286.315638 
L 101.516125 286.07746 
L 101.63708 286.07746 
L 101.878989 285.124745 
L 102.08058 285.124745 
L 102.241852 284.17203 
L 102.28217 284.17203 
L 102.403125 283.933851 
L 102.52408 283.933851 
L 102.685352 282.981137 
L 102.72567 282.981137 
L 102.846625 282.742958 
L 102.96758 282.742958 
L 103.128852 281.790243 
L 103.16917 281.790243 
L 103.290125 281.552065 
L 103.41108 281.552065 
L 103.572352 280.59935 
L 103.61267 280.59935 
L 103.733625 280.361171 
L 103.85458 280.361171 
L 104.015852 279.408457 
L 104.05617 279.408457 
L 104.177125 279.170278 
L 104.29808 279.170278 
L 104.459352 278.455742 
L 104.49967 278.455742 
L 104.620625 278.217563 
L 104.74158 278.217563 
L 104.902852 277.264848 
L 104.94317 277.264848 
L 105.064125 277.02667 
L 105.18508 277.02667 
L 105.346352 276.312134 
L 105.38667 276.312134 
L 105.507625 276.073955 
L 105.62858 276.073955 
L 105.789852 275.12124 
L 106.07208 275.12124 
L 106.233352 274.168526 
L 106.313989 274.168526 
L 106.434943 273.930347 
L 106.51558 273.930347 
L 106.676852 272.977632 
L 106.757489 272.977632 
L 106.878443 272.739454 
L 106.95908 272.739454 
L 107.120352 271.786739 
L 107.200989 271.786739 
L 107.321943 271.54856 
L 107.40258 271.54856 
L 107.563852 270.595846 
L 107.644489 270.595846 
L 107.765443 270.357667 
L 107.84608 270.357667 
L 108.007352 269.643131 
L 108.087989 269.643131 
L 108.208943 269.404952 
L 108.28958 269.404952 
L 108.450852 268.452237 
L 108.531489 268.452237 
L 108.652443 268.214059 
L 108.73308 268.214059 
L 108.894352 267.261344 
L 108.974989 267.261344 
L 109.095943 267.023165 
L 109.17658 267.023165 
L 109.337852 266.070451 
L 109.418489 266.070451 
L 109.539443 265.832272 
L 109.62008 265.832272 
L 109.781352 264.879557 
L 109.861989 264.879557 
L 109.982943 264.641379 
L 110.06358 264.641379 
L 110.224852 263.688664 
L 110.305489 263.688664 
L 110.426443 263.450485 
L 110.50708 263.450485 
L 110.668352 262.49777 
L 110.748989 262.49777 
L 110.869943 262.259592 
L 110.95058 262.259592 
L 111.111852 261.306877 
L 111.192489 261.306877 
L 111.313443 261.068698 
L 111.39408 261.068698 
L 111.59567 260.354162 
L 111.635989 260.354162 
L 111.756943 260.115984 
L 111.797261 260.115984 
L 112.03917 259.163269 
L 112.079489 259.163269 
L 112.200443 258.92509 
L 112.240761 258.92509 
L 112.48267 257.972376 
L 112.522989 257.972376 
L 112.643943 257.734197 
L 112.684261 257.734197 
L 112.92617 256.781482 
L 112.966489 256.781482 
L 113.087443 256.543304 
L 113.127761 256.543304 
L 113.329352 255.828767 
L 113.409989 255.828767 
L 113.530943 255.590589 
L 113.61158 255.590589 
L 113.81317 254.876053 
L 113.853489 254.876053 
L 114.014761 254.399695 
L 114.05508 254.399695 
L 114.25667 253.685159 
L 114.296989 253.685159 
L 114.458261 253.208802 
L 114.619534 253.208802 
L 114.821125 252.494266 
L 114.861443 252.494266 
L 115.022716 252.017909 
L 115.063034 252.017909 
L 115.264625 251.303373 
L 115.304943 251.303373 
L 115.466216 250.827015 
L 115.506534 250.827015 
L 115.708125 250.112479 
L 115.748443 250.112479 
L 115.909716 249.636122 
L 115.950034 249.636122 
L 116.151625 248.921586 
L 116.191943 248.921586 
L 116.353216 248.445228 
L 116.393534 248.445228 
L 116.595125 247.730692 
L 116.635443 247.730692 
L 116.796716 247.254335 
L 116.837034 247.254335 
L 117.038625 246.539799 
L 117.078943 246.539799 
L 117.240216 246.063442 
L 117.280534 246.063442 
L 117.482125 245.348906 
L 117.522443 245.348906 
L 117.683716 244.872548 
L 117.724034 244.872548 
L 117.925625 244.158012 
L 117.965943 244.158012 
L 118.127216 243.681655 
L 118.167534 243.681655 
L 118.369125 242.967119 
L 118.409443 242.967119 
L 118.570716 242.490762 
L 118.611034 242.490762 
L 118.812625 241.776225 
L 118.852943 241.776225 
L 119.014216 241.299868 
L 119.054534 241.299868 
L 119.215807 240.823511 
L 119.296443 240.823511 
L 119.457716 240.347153 
L 119.498034 240.347153 
L 119.659307 239.870796 
L 119.739943 239.870796 
L 119.901216 239.394439 
L 119.941534 239.394439 
L 120.102807 238.918081 
L 120.183443 238.918081 
L 120.344716 238.441724 
L 120.385034 238.441724 
L 120.586625 237.727188 
L 120.667261 237.727188 
L 120.788216 237.489009 
L 120.828534 237.489009 
L 121.030125 236.774473 
L 121.110761 236.774473 
L 121.231716 236.536295 
L 121.272034 236.536295 
L 121.513943 235.58358 
L 121.554261 235.58358 
L 121.675216 235.345401 
L 121.715534 235.345401 
L 121.957443 234.392686 
L 121.997761 234.392686 
L 122.118716 234.154508 
L 122.159034 234.154508 
L 122.400943 233.201793 
L 122.441261 233.201793 
L 122.562216 232.963614 
L 122.602534 232.963614 
L 122.844443 232.0109 
L 122.884761 232.0109 
L 123.005716 231.772721 
L 123.086352 231.772721 
L 123.207307 231.296364 
L 123.449216 231.296364 
L 123.691125 230.343649 
L 123.731443 230.343649 
L 123.852398 230.10547 
L 123.892716 230.10547 
L 124.134625 229.152756 
L 124.174943 229.152756 
L 124.295898 228.914577 
L 124.336216 228.914577 
L 124.578125 227.961862 
L 124.618443 227.961862 
L 124.739398 227.723683 
L 124.779716 227.723683 
L 124.981307 227.009147 
L 125.061943 227.009147 
L 125.182898 226.770969 
L 125.223216 226.770969 
L 125.465125 225.818254 
L 125.505443 225.818254 
L 125.626398 225.580075 
L 125.666716 225.580075 
L 125.868307 224.865539 
L 125.948943 224.865539 
L 126.069898 224.627361 
L 126.110216 224.627361 
L 126.311807 223.912825 
L 126.392443 223.912825 
L 126.513398 223.674646 
L 126.553716 223.674646 
L 126.795625 222.721931 
L 126.835943 222.721931 
L 126.956898 222.483753 
L 126.997216 222.483753 
L 127.239125 221.531038 
L 127.279443 221.531038 
L 127.400398 221.292859 
L 127.440716 221.292859 
L 127.682625 220.340144 
L 127.722943 220.340144 
L 127.843898 220.101966 
L 127.884216 220.101966 
L 128.126125 219.149251 
L 128.166443 219.149251 
L 128.287398 218.911072 
L 128.327716 218.911072 
L 128.569625 217.958358 
L 128.609943 217.958358 
L 128.730898 217.720179 
L 128.771216 217.720179 
L 128.932489 217.243822 
L 128.972807 217.243822 
L 129.13408 216.767464 
L 129.214716 216.767464 
L 129.456625 215.81475 
L 129.496943 215.81475 
L 129.617898 215.576571 
L 129.698534 215.576571 
L 129.859807 214.862035 
L 130.02108 214.385678 
L 130.142034 214.385678 
L 130.303307 213.671141 
L 130.343625 213.671141 
L 130.504898 213.194784 
L 130.585534 213.194784 
L 130.746807 212.480248 
L 130.787125 212.480248 
L 130.948398 212.003891 
L 131.029034 212.003891 
L 131.190307 211.289355 
L 131.270943 211.289355 
L 131.391898 211.051176 
L 131.472534 211.051176 
L 131.633807 210.33664 
L 131.714443 210.33664 
L 131.875716 209.860283 
L 131.916034 209.860283 
L 132.077307 209.145747 
L 132.157943 209.145747 
L 132.319216 208.669389 
L 132.359534 208.669389 
L 132.520807 207.954853 
L 132.601443 207.954853 
L 132.762716 207.478496 
L 132.803034 207.478496 
L 132.964307 206.76396 
L 133.044943 206.76396 
L 133.206216 206.287602 
L 133.246534 206.287602 
L 133.407807 205.573066 
L 133.488443 205.573066 
L 133.649716 205.096709 
L 133.690034 205.096709 
L 133.851307 204.382173 
L 133.931943 204.382173 
L 134.052898 204.143994 
L 134.133534 204.143994 
L 134.294807 203.429458 
L 134.375443 203.429458 
L 134.536716 202.953101 
L 134.577034 202.953101 
L 134.778625 202.238565 
L 134.818943 202.238565 
L 134.980216 201.762208 
L 135.020534 201.762208 
L 135.222125 201.047672 
L 135.34308 201.047672 
L 135.584989 200.094957 
L 135.665625 200.094957 
L 135.78658 199.856778 
L 135.907534 199.856778 
L 136.109125 199.142242 
L 136.270398 199.142242 
L 136.552625 197.951349 
L 136.713898 197.951349 
L 136.996125 196.760455 
L 137.157398 196.760455 
L 137.439625 195.569562 
L 137.600898 195.569562 
L 137.883125 194.378669 
L 138.084716 194.378669 
L 138.326625 193.425954 
L 138.487898 193.425954 
L 138.770125 192.23506 
L 138.931398 192.23506 
L 139.213625 191.044167 
L 139.374898 191.044167 
L 139.657125 189.853274 
L 139.818398 189.853274 
L 140.100625 188.66238 
L 140.261898 188.66238 
L 140.544125 187.471487 
L 140.705398 187.471487 
L 140.987625 186.280593 
L 141.269852 186.280593 
L 141.471443 185.566057 
L 141.592398 185.566057 
L 141.874625 184.375164 
L 142.035898 184.375164 
L 142.318125 183.184271 
L 142.479398 183.184271 
L 142.721307 182.231556 
L 142.922898 182.231556 
L 143.164807 181.278841 
L 143.366398 181.278841 
L 143.567989 180.564305 
L 143.809898 180.564305 
L 144.011489 179.849769 
L 144.253398 179.849769 
L 144.495307 178.897054 
L 144.696898 178.897054 
L 144.938807 177.94434 
L 145.140398 177.94434 
L 145.382307 176.991625 
L 145.583898 176.991625 
L 145.825807 176.03891 
L 146.027398 176.03891 
L 146.228989 175.324374 
L 146.591852 175.324374 
L 146.793443 174.609838 
L 146.954716 174.609838 
L 147.196625 173.657124 
L 147.398216 173.657124 
L 147.640125 172.704409 
L 147.841716 172.704409 
L 148.083625 171.751694 
L 148.285216 171.751694 
L 148.527125 170.798979 
L 148.728716 170.798979 
L 148.970625 169.846265 
L 149.172216 169.846265 
L 149.414125 168.89355 
L 149.615716 168.89355 
L 149.857625 167.940835 
L 150.059216 167.940835 
L 150.301125 166.988121 
L 150.502716 166.988121 
L 150.744625 166.035406 
L 151.026852 166.035406 
L 151.228443 165.32087 
L 151.349398 165.32087 
L 151.550989 164.606334 
L 151.631625 164.606334 
L 151.75258 164.368155 
L 151.792898 164.368155 
L 151.994489 163.653619 
L 152.075125 163.653619 
L 152.19608 163.41544 
L 152.236398 163.41544 
L 152.437989 162.700904 
L 152.518625 162.700904 
L 152.63958 162.462726 
L 152.679898 162.462726 
L 152.881489 161.74819 
L 152.962125 161.74819 
L 153.08308 161.510011 
L 153.123398 161.510011 
L 153.324989 160.795475 
L 153.405625 160.795475 
L 153.52658 160.557296 
L 153.566898 160.557296 
L 153.768489 159.84276 
L 153.849125 159.84276 
L 153.97008 159.604582 
L 154.010398 159.604582 
L 154.211989 158.890046 
L 154.292625 158.890046 
L 154.41358 158.651867 
L 154.453898 158.651867 
L 154.655489 157.937331 
L 154.736125 157.937331 
L 154.85708 157.699152 
L 154.897398 157.699152 
L 155.098989 156.984616 
L 155.179625 156.984616 
L 155.30058 156.746437 
L 155.340898 156.746437 
L 155.542489 156.031901 
L 155.623125 156.031901 
L 155.74408 155.793723 
L 155.784398 155.793723 
L 155.985989 155.079187 
L 156.066625 155.079187 
L 156.18758 154.841008 
L 156.227898 154.841008 
L 156.38917 154.126472 
L 156.550443 153.650115 
L 156.671398 153.650115 
L 156.872989 152.935579 
L 156.953625 152.935579 
L 157.07458 152.6974 
L 157.114898 152.6974 
L 157.316489 151.982864 
L 157.397125 151.982864 
L 157.51808 151.744685 
L 157.558398 151.744685 
L 157.759989 151.030149 
L 157.880943 151.030149 
L 158.042216 150.553792 
L 158.122852 150.553792 
L 158.284125 150.077434 
L 158.324443 150.077434 
L 158.485716 149.601077 
L 158.566352 149.601077 
L 158.727625 149.12472 
L 158.767943 149.12472 
L 158.929216 148.648362 
L 159.05017 148.648362 
L 159.171125 148.410184 
L 159.211443 148.410184 
L 159.372716 147.933826 
L 159.413034 147.933826 
L 159.574307 147.457469 
L 159.775898 147.457469 
L 159.977489 146.742933 
L 160.219398 146.742933 
L 160.38067 146.028397 
L 160.501625 145.790218 
L 160.662898 145.790218 
L 160.82417 145.075682 
L 160.945125 144.837504 
L 161.106398 144.837504 
L 161.307989 144.122967 
L 161.549898 144.122967 
L 161.751489 143.408431 
L 161.993398 143.408431 
L 162.235307 142.455717 
L 162.436898 142.455717 
L 162.678807 141.503002 
L 162.880398 141.503002 
L 163.081989 140.788466 
L 163.323898 140.788466 
L 163.565807 139.835751 
L 163.767398 139.835751 
L 164.009307 138.883037 
L 164.210898 138.883037 
L 164.452807 137.930322 
L 164.654398 137.930322 
L 164.855989 137.215786 
L 165.097898 137.215786 
L 165.339807 136.263071 
L 165.541398 136.263071 
L 165.783307 135.310356 
L 165.984898 135.310356 
L 166.186489 134.59582 
L 166.428398 134.59582 
L 166.670307 133.643106 
L 166.871898 133.643106 
L 167.113807 132.690391 
L 167.315398 132.690391 
L 167.557307 131.737676 
L 167.758898 131.737676 
L 168.000807 130.784962 
L 168.202398 130.784962 
L 168.403989 130.070425 
L 168.645898 130.070425 
L 168.887807 129.117711 
L 169.089398 129.117711 
L 169.331307 128.164996 
L 169.532898 128.164996 
L 169.774807 127.212281 
L 169.976398 127.212281 
L 170.218307 126.259567 
L 170.419898 126.259567 
L 170.621489 125.545031 
L 170.863398 125.545031 
L 171.105307 124.592316 
L 171.306898 124.592316 
L 171.548807 123.639601 
L 171.831034 123.639601 
L 171.992307 123.163244 
L 172.15358 123.163244 
L 172.314852 122.686886 
L 172.35517 122.686886 
L 172.516443 122.210529 
L 172.59708 122.210529 
L 172.758352 121.734172 
L 172.79867 121.734172 
L 172.959943 121.257814 
L 173.04058 121.257814 
L 173.201852 120.781457 
L 173.24217 120.781457 
L 173.403443 120.3051 
L 173.48408 120.3051 
L 173.645352 119.828742 
L 173.68567 119.828742 
L 173.846943 119.352385 
L 173.92758 119.352385 
L 174.088852 118.876028 
L 174.12917 118.876028 
L 174.290443 118.39967 
L 174.37108 118.39967 
L 174.532352 117.923313 
L 174.57267 117.923313 
L 174.733943 117.446956 
L 174.81458 117.446956 
L 174.975852 116.970598 
L 175.137125 116.970598 
L 175.298398 116.494241 
L 175.379034 116.494241 
L 175.540307 116.017883 
L 175.580625 116.017883 
L 175.741898 115.541526 
L 175.822534 115.541526 
L 175.983807 115.065169 
L 176.064443 115.065169 
L 176.225716 114.588811 
L 176.266034 114.588811 
L 176.427307 114.112454 
L 176.507943 114.112454 
L 176.669216 113.636097 
L 176.709534 113.636097 
L 176.870807 113.159739 
L 176.951443 113.159739 
L 177.112716 112.683382 
L 177.153034 112.683382 
L 177.314307 112.207025 
L 177.394943 112.207025 
L 177.556216 111.730667 
L 177.596534 111.730667 
L 177.757807 111.25431 
L 177.838443 111.25431 
L 177.999716 110.777953 
L 178.040034 110.777953 
L 178.201307 110.301595 
L 178.36258 110.301595 
L 178.523852 109.825238 
L 178.56417 109.825238 
L 178.685125 109.587059 
L 178.765761 109.587059 
L 178.967352 108.872523 
L 179.00767 108.872523 
L 179.128625 108.634344 
L 179.209261 108.634344 
L 179.410852 107.919808 
L 179.45117 107.919808 
L 179.572125 107.68163 
L 179.652761 107.68163 
L 179.854352 106.967094 
L 179.89467 106.967094 
L 180.015625 106.728915 
L 180.257534 106.728915 
L 180.418807 106.252558 
L 180.58008 106.252558 
L 180.741352 105.538022 
L 180.78167 105.538022 
L 180.902625 105.299843 
L 181.02358 105.299843 
L 181.184852 104.585307 
L 181.22517 104.585307 
L 181.346125 104.347128 
L 181.46708 104.347128 
L 181.628352 103.632592 
L 181.66867 103.632592 
L 181.789625 103.394414 
L 181.91058 103.394414 
L 182.071852 102.679878 
L 182.11217 102.679878 
L 182.233125 102.441699 
L 182.35408 102.441699 
L 182.515352 101.727163 
L 182.55567 101.727163 
L 182.676625 101.488984 
L 182.79758 101.488984 
L 182.958852 100.774448 
L 182.99917 100.774448 
L 183.120125 100.536269 
L 183.24108 100.536269 
L 183.402352 99.821733 
L 183.44267 99.821733 
L 183.563625 99.583555 
L 183.68458 99.583555 
L 183.845852 98.869019 
L 184.12808 98.869019 
L 184.289352 98.154483 
L 184.410307 97.916304 
L 184.57158 97.916304 
L 184.732852 97.201768 
L 184.853807 96.963589 
L 185.01508 96.963589 
L 185.176352 96.249053 
L 185.297307 96.010875 
L 185.45858 96.010875 
L 185.619852 95.296339 
L 185.740807 95.05816 
L 185.90208 95.05816 
L 186.10367 94.343624 
L 186.34558 94.343624 
L 186.54717 93.629088 
L 186.78908 93.629088 
L 187.030989 92.676373 
L 187.23258 92.676373 
L 187.474489 91.723658 
L 187.67608 91.723658 
L 187.917989 90.770944 
L 188.11958 90.770944 
L 188.361489 89.818229 
L 188.56308 89.818229 
L 188.804989 88.865514 
L 189.00658 88.865514 
L 189.248489 87.912799 
L 189.45008 87.912799 
L 189.691989 86.960085 
L 189.89358 86.960085 
L 190.135489 86.00737 
L 190.377398 86.00737 
L 190.578989 85.292834 
L 190.78058 85.292834 
L 191.022489 84.340119 
L 191.22408 84.340119 
L 191.42567 83.625583 
L 191.66758 83.625583 
L 191.909489 82.672869 
L 192.11108 82.672869 
L 192.31267 81.958333 
L 192.55458 81.958333 
L 192.796489 81.005618 
L 192.99808 81.005618 
L 193.239989 80.052903 
L 193.44158 80.052903 
L 193.683489 79.100188 
L 193.88508 79.100188 
L 194.126989 78.147474 
L 194.32858 78.147474 
L 194.570489 77.194759 
L 194.77208 77.194759 
L 194.893034 76.95658 
L 194.933352 76.95658 
L 195.054307 76.718402 
L 195.21558 76.718402 
L 195.376852 76.003866 
L 195.497807 75.765687 
L 195.65908 75.765687 
L 195.86067 75.051151 
L 196.10258 75.051151 
L 196.344489 74.098436 
L 196.54608 74.098436 
L 196.787989 73.145721 
L 196.98958 73.145721 
L 197.19117 72.431185 
L 197.43308 72.431185 
L 197.674989 71.478471 
L 197.87658 71.478471 
L 198.118489 70.525756 
L 198.32008 70.525756 
L 198.561989 69.573041 
L 198.76358 69.573041 
L 199.005489 68.620327 
L 199.20708 68.620327 
L 199.448989 67.667612 
L 199.65058 67.667612 
L 199.892489 66.714897 
L 200.09408 66.714897 
L 200.335989 65.762182 
L 200.53758 65.762182 
L 200.779489 64.809468 
L 200.98108 64.809468 
L 201.222989 63.856753 
L 201.42458 63.856753 
L 201.666489 62.904038 
L 201.86808 62.904038 
L 202.109989 61.951324 
L 202.31158 61.951324 
L 202.51317 61.236788 
L 202.75508 61.236788 
L 202.996989 60.284073 
L 203.19858 60.284073 
L 203.40017 59.569537 
L 203.64208 59.569537 
L 203.883989 58.616822 
L 204.125898 58.616822 
L 204.28717 58.140465 
L 204.488761 58.140465 
L 204.690352 57.425929 
L 204.932261 57.425929 
L 205.133852 56.711393 
L 205.375761 56.711393 
L 205.61767 55.758678 
L 205.819261 55.758678 
L 206.06117 54.805963 
L 206.262761 54.805963 
L 206.50467 53.853249 
L 206.706261 53.853249 
L 206.94817 52.900534 
L 207.149761 52.900534 
L 207.39167 51.947819 
L 207.593261 51.947819 
L 207.83517 50.995104 
L 208.036761 50.995104 
L 208.27867 50.04239 
L 208.480261 50.04239 
L 208.681852 49.327854 
L 208.923761 49.327854 
L 209.16567 48.375139 
L 209.367261 48.375139 
L 209.568852 47.660603 
L 209.810761 47.660603 
L 210.012352 46.946067 
L 210.254261 46.946067 
L 210.455852 46.231531 
L 210.697761 46.231531 
L 210.899352 45.516995 
L 211.141261 45.516995 
L 211.342852 44.802459 
L 211.584761 44.802459 
L 211.746034 44.326101 
L 212.028261 44.326101 
L 212.189534 43.849744 
L 212.471761 43.849744 
L 212.633034 43.373387 
L 212.915261 43.373387 
L 213.076534 42.897029 
L 213.358761 42.897029 
L 213.520034 42.420672 
L 213.802261 42.420672 
L 213.963534 41.944315 
L 214.245761 41.944315 
L 214.407034 41.467957 
L 214.689261 41.467957 
L 214.850534 40.9916 
L 215.132761 40.9916 
L 215.294034 40.515243 
L 215.576261 40.515243 
L 215.697216 40.277064 
L 216.422943 40.277064 
L 216.543898 40.038885 
L 217.269625 40.038885 
L 217.39058 39.800707 
L 217.713125 39.800707 
L 217.83408 39.562528 
L 218.156625 39.562528 
L 218.27758 39.324349 
L 218.600125 39.324349 
L 218.72108 39.086171 
L 219.043625 39.086171 
L 219.16458 38.847992 
L 219.487125 38.847992 
L 219.60808 38.609813 
L 219.930625 38.609813 
L 220.05158 38.371634 
L 220.374125 38.371634 
L 220.49508 38.133456 
L 220.817625 38.133456 
L 220.93858 37.895277 
L 221.261125 37.895277 
L 221.38208 37.657098 
L 221.704625 37.657098 
L 221.82558 37.41892 
L 222.148125 37.41892 
L 222.26908 37.180741 
L 222.591625 37.180741 
L 222.71258 36.942562 
L 223.035125 36.942562 
L 223.15608 36.704384 
L 223.720534 36.704384 
L 223.841489 36.466205 
L 225.212307 36.466205 
L 225.333261 36.228026 
L 236.178852 36.228026 
L 236.299807 35.989848 
L 236.985216 35.989848 
L 237.10617 35.751669 
L 252.789943 35.751669 
L 252.910898 35.51349 
L 253.999489 35.51349 
L 254.120443 35.275312 
L 265.772398 35.275312 
L 265.893352 35.037133 
L 385.598034 35.037133 
L 385.598034 35.037133 
" clip-path="url(#p11a10a15a7)" style="fill: none; stroke: #00008b; stroke-width: 2; stroke-linecap: square"/>
   </g>
   <g id="line2d_36">
    <path d="M 385.638352 369.201818 
L 202.876034 369.201818 
L 202.75508 368.606371 
L 197.19117 368.606371 
L 197.070216 368.010925 
L 167.073489 368.010925 
L 166.952534 367.415478 
L 161.388625 367.415478 
L 161.26767 366.820031 
L 68.495534 366.820031 
L 68.37458 366.224585 
L 63.133216 366.224585 
L 63.133216 366.224585 
" clip-path="url(#p11a10a15a7)" style="fill: none; stroke-dasharray: 7.4,3.2; stroke-dashoffset: 0; stroke: #fa8072; stroke-width: 2"/>
   </g>
   <g id="line2d_37">
    <path d="M 385.638352 369.201818 
L 63.133216 369.201818 
L 63.133216 369.201818 
" clip-path="url(#p11a10a15a7)" style="fill: none; stroke-dasharray: 7.4,3.2; stroke-dashoffset: 0; stroke: #ff4500; stroke-width: 2"/>
   </g>
   <g id="line2d_38">
    <path d="M 385.638352 369.201818 
L 379.953489 369.201818 
L 379.832534 368.606371 
L 379.46967 368.606371 
L 379.348716 368.010925 
L 372.978443 368.010925 
L 372.857489 367.415478 
L 372.494625 367.415478 
L 372.37367 366.820031 
L 366.003398 366.820031 
L 365.882443 366.224585 
L 365.51958 366.224585 
L 365.398625 365.629138 
L 351.166307 365.629138 
L 351.045352 364.438245 
L 344.191261 364.438245 
L 344.070307 363.842798 
L 343.747761 363.842798 
L 343.626807 363.247351 
L 337.216216 363.247351 
L 337.095261 362.651905 
L 336.772716 362.651905 
L 336.651761 362.056458 
L 329.837989 362.056458 
L 329.676716 360.865564 
L 322.822625 360.865564 
L 322.70167 360.270118 
L 315.40408 360.270118 
L 315.283125 359.674671 
L 308.429034 359.674671 
L 308.30808 359.079224 
L 308.025852 359.079224 
L 307.904898 358.483778 
L 301.453989 358.483778 
L 301.333034 357.888331 
L 300.607307 357.888331 
L 300.486352 357.292884 
L 294.035443 357.292884 
L 293.914489 356.697438 
L 293.188761 356.697438 
L 293.067807 356.101991 
L 285.770216 356.101991 
L 285.649261 355.506544 
L 278.35167 355.506544 
L 278.230716 354.911098 
L 272.223307 354.911098 
L 272.102352 354.315651 
L 270.933125 354.315651 
L 270.81217 353.720204 
L 264.804761 353.720204 
L 264.683807 353.124757 
L 263.51458 353.124757 
L 263.393625 352.529311 
L 257.386216 352.529311 
L 257.265261 351.933864 
L 256.096034 351.933864 
L 255.97508 351.338417 
L 249.96767 351.338417 
L 249.846716 350.742971 
L 248.677489 350.742971 
L 248.556534 350.147524 
L 242.549125 350.147524 
L 242.42817 349.552077 
L 241.258943 349.552077 
L 241.137989 348.956631 
L 235.13058 348.956631 
L 235.009625 348.361184 
L 233.840398 348.361184 
L 233.719443 347.765737 
L 227.712034 347.765737 
L 227.59108 347.17029 
L 226.421852 347.17029 
L 226.300898 346.574844 
L 220.293489 346.574844 
L 220.172534 345.979397 
L 219.003307 345.979397 
L 218.882352 345.38395 
L 212.874943 345.38395 
L 212.753989 344.788504 
L 212.028261 344.788504 
L 211.907307 344.193057 
L 211.584761 344.193057 
L 211.463807 343.59761 
L 211.141261 343.59761 
L 211.020307 343.002164 
L 210.697761 343.002164 
L 210.576807 342.406717 
L 210.254261 342.406717 
L 210.133307 341.81127 
L 209.810761 341.81127 
L 209.689807 341.215824 
L 209.367261 341.215824 
L 209.246307 340.620377 
L 208.923761 340.620377 
L 208.802807 340.02493 
L 208.480261 340.02493 
L 208.359307 339.429483 
L 208.036761 339.429483 
L 207.915807 338.834037 
L 207.19008 338.834037 
L 207.069125 338.23859 
L 206.74658 338.23859 
L 206.625625 337.643143 
L 205.899898 337.643143 
L 205.778943 337.047697 
L 205.456398 337.047697 
L 205.335443 335.856803 
L 204.609716 335.856803 
L 204.488761 335.261357 
L 204.166216 335.261357 
L 204.045261 334.66591 
L 203.722716 334.66591 
L 203.601761 334.070463 
L 202.029352 334.070463 
L 201.908398 333.475016 
L 201.585852 333.475016 
L 201.464898 332.87957 
L 201.142352 332.87957 
L 201.021398 332.284123 
L 200.698852 332.284123 
L 200.577898 331.688676 
L 200.255352 331.688676 
L 200.134398 331.09323 
L 199.811852 331.09323 
L 199.690898 330.497783 
L 199.368352 330.497783 
L 199.247398 329.902336 
L 198.924852 329.902336 
L 198.803898 329.30689 
L 198.481352 329.30689 
L 198.360398 328.711443 
L 198.037852 328.711443 
L 197.916898 327.52055 
L 196.74767 327.52055 
L 196.626716 326.925103 
L 196.30417 326.925103 
L 196.183216 326.329656 
L 195.86067 326.329656 
L 195.739716 325.734209 
L 195.41717 325.734209 
L 195.296216 325.138763 
L 194.97367 325.138763 
L 194.852716 324.543316 
L 194.53017 324.543316 
L 194.409216 323.947869 
L 194.08667 323.947869 
L 193.965716 323.352423 
L 193.64317 323.352423 
L 193.522216 322.756976 
L 193.19967 322.756976 
L 193.078716 322.161529 
L 192.75617 322.161529 
L 192.635216 321.566083 
L 192.31267 321.566083 
L 192.191716 320.970636 
L 191.465989 320.970636 
L 191.345034 320.375189 
L 190.619307 320.375189 
L 190.498352 319.184296 
L 190.175807 319.184296 
L 190.054852 318.588849 
L 189.732307 318.588849 
L 189.611352 317.993402 
L 189.288807 317.993402 
L 189.167852 317.397956 
L 188.845307 317.397956 
L 188.724352 316.802509 
L 188.401807 316.802509 
L 188.280852 316.207062 
L 187.555125 316.207062 
L 187.43417 315.611616 
L 187.111625 315.611616 
L 186.99067 315.016169 
L 186.668125 315.016169 
L 186.54717 314.420722 
L 186.224625 314.420722 
L 186.10367 313.825276 
L 185.781125 313.825276 
L 185.66017 313.229829 
L 185.337625 313.229829 
L 185.21667 312.634382 
L 184.894125 312.634382 
L 184.77317 312.038935 
L 184.450625 312.038935 
L 184.32967 311.443489 
L 184.007125 311.443489 
L 183.88617 310.848042 
L 183.563625 310.848042 
L 183.44267 310.252595 
L 183.200761 310.252595 
L 183.039489 309.061702 
L 182.676625 309.061702 
L 182.55567 308.466255 
L 182.233125 308.466255 
L 182.11217 307.870809 
L 181.789625 307.870809 
L 181.66867 307.275362 
L 180.942943 307.275362 
L 180.821989 306.679915 
L 180.499443 306.679915 
L 180.378489 306.084469 
L 180.055943 306.084469 
L 179.934989 305.489022 
L 179.612443 305.489022 
L 179.491489 304.893575 
L 179.168943 304.893575 
L 179.047989 304.298128 
L 178.725443 304.298128 
L 178.604489 303.702682 
L 178.281943 303.702682 
L 178.160989 303.107235 
L 177.838443 303.107235 
L 177.717489 302.511788 
L 177.394943 302.511788 
L 177.273989 301.916342 
L 176.951443 301.916342 
L 176.830489 301.320895 
L 176.507943 301.320895 
L 176.386989 300.725448 
L 176.225716 300.725448 
L 176.104761 300.130002 
L 176.064443 300.130002 
L 175.943489 299.534555 
L 175.782216 299.534555 
L 175.661261 298.939108 
L 175.620943 298.939108 
L 175.499989 298.343661 
L 175.338716 298.343661 
L 175.217761 297.748215 
L 175.177443 297.748215 
L 175.056489 297.152768 
L 174.895216 297.152768 
L 174.774261 296.557321 
L 174.733943 296.557321 
L 174.612989 295.961875 
L 174.451716 295.961875 
L 174.330761 295.366428 
L 174.290443 295.366428 
L 174.169489 294.770981 
L 174.008216 294.770981 
L 173.887261 294.175535 
L 173.846943 294.175535 
L 173.725989 293.580088 
L 173.564716 293.580088 
L 173.443761 292.984641 
L 173.403443 292.984641 
L 173.282489 292.389195 
L 173.121216 292.389195 
L 173.000261 291.793748 
L 172.959943 291.793748 
L 172.838989 291.198301 
L 172.677716 291.198301 
L 172.556761 290.602854 
L 172.516443 290.602854 
L 172.395489 290.007408 
L 172.234216 290.007408 
L 172.113261 289.411961 
L 172.072943 289.411961 
L 171.951989 288.816514 
L 171.387534 288.816514 
L 171.26658 288.221068 
L 171.226261 288.221068 
L 171.105307 287.625621 
L 170.944034 287.625621 
L 170.82308 287.030174 
L 170.782761 287.030174 
L 170.661807 286.434728 
L 170.339261 286.434728 
L 170.218307 285.839281 
L 170.097352 285.839281 
L 169.976398 285.243834 
L 169.895761 285.243834 
L 169.774807 284.648388 
L 169.653852 284.648388 
L 169.532898 284.052941 
L 169.452261 284.052941 
L 169.331307 283.457494 
L 169.008761 283.457494 
L 168.887807 282.862047 
L 168.80717 282.862047 
L 168.686216 282.266601 
L 168.565261 282.266601 
L 168.444307 281.671154 
L 168.36367 281.671154 
L 168.242716 281.075707 
L 168.121761 281.075707 
L 168.000807 280.480261 
L 167.92017 280.480261 
L 167.799216 279.884814 
L 167.678261 279.884814 
L 167.557307 279.289367 
L 167.234761 279.289367 
L 167.113807 278.693921 
L 166.791261 278.693921 
L 166.670307 278.098474 
L 166.347761 278.098474 
L 166.186489 276.90758 
L 165.904261 276.90758 
L 165.742989 275.716687 
L 165.460761 275.716687 
L 165.299489 274.525794 
L 165.017261 274.525794 
L 164.855989 273.3349 
L 164.452807 273.3349 
L 164.331852 272.739454 
L 164.17058 272.739454 
L 164.049625 272.144007 
L 164.009307 272.144007 
L 163.888352 271.54856 
L 163.72708 271.54856 
L 163.606125 270.953114 
L 163.565807 270.953114 
L 163.444852 270.357667 
L 163.28358 270.357667 
L 163.162625 269.76222 
L 163.122307 269.76222 
L 163.001352 269.166773 
L 162.84008 269.166773 
L 162.719125 268.571327 
L 162.678807 268.571327 
L 162.557852 267.97588 
L 162.39658 267.97588 
L 162.275625 267.380433 
L 162.235307 267.380433 
L 162.114352 266.784987 
L 161.95308 266.784987 
L 161.832125 266.18954 
L 161.50958 266.18954 
L 161.388625 265.594093 
L 161.06608 265.594093 
L 160.904807 264.4032 
L 160.62258 264.4032 
L 160.461307 263.212306 
L 160.17908 263.212306 
L 160.017807 262.021413 
L 159.73558 262.021413 
L 159.574307 260.83052 
L 159.29208 260.83052 
L 159.130807 259.639626 
L 158.84858 259.639626 
L 158.687307 258.448733 
L 158.284125 258.448733 
L 158.16317 257.853286 
L 158.001898 257.853286 
L 157.880943 257.25784 
L 157.840625 257.25784 
L 157.71967 256.662393 
L 157.558398 256.662393 
L 157.437443 256.066946 
L 157.397125 256.066946 
L 157.27617 255.471499 
L 157.114898 255.471499 
L 156.993943 254.876053 
L 156.953625 254.876053 
L 156.83267 254.280606 
L 156.671398 254.280606 
L 156.550443 253.685159 
L 156.510125 253.685159 
L 156.38917 253.089713 
L 156.227898 253.089713 
L 156.106943 252.494266 
L 155.784398 252.494266 
L 155.623125 251.303373 
L 155.340898 251.303373 
L 155.219943 250.707926 
L 154.897398 250.707926 
L 154.736125 249.517033 
L 154.453898 249.517033 
L 154.292625 248.326139 
L 153.929761 248.326139 
L 153.808807 247.730692 
L 153.607216 247.730692 
L 153.445943 246.539799 
L 153.042761 246.539799 
L 152.921807 245.944352 
L 152.760534 245.944352 
L 152.63958 245.348906 
L 152.599261 245.348906 
L 152.478307 244.753459 
L 152.317034 244.753459 
L 152.19608 244.158012 
L 151.873534 244.158012 
L 151.712261 242.967119 
L 151.430034 242.967119 
L 151.268761 241.776225 
L 150.986534 241.776225 
L 150.825261 240.585332 
L 150.543034 240.585332 
L 150.381761 239.394439 
L 150.099534 239.394439 
L 149.938261 238.203545 
L 149.656034 238.203545 
L 149.494761 237.012652 
L 149.212534 237.012652 
L 149.051261 235.821759 
L 148.769034 235.821759 
L 148.607761 234.630865 
L 148.325534 234.630865 
L 148.164261 233.439972 
L 147.882034 233.439972 
L 147.720761 232.249078 
L 147.438534 232.249078 
L 147.277261 231.058185 
L 146.995034 231.058185 
L 146.833761 229.867292 
L 146.43058 229.867292 
L 146.309625 229.271845 
L 146.148352 229.271845 
L 146.027398 228.676398 
L 145.98708 228.676398 
L 145.866125 228.080951 
L 145.704852 228.080951 
L 145.583898 227.485505 
L 145.54358 227.485505 
L 145.422625 226.890058 
L 145.261352 226.890058 
L 145.140398 226.294611 
L 145.10008 226.294611 
L 144.979125 225.699165 
L 144.817852 225.699165 
L 144.696898 225.103718 
L 144.65658 225.103718 
L 144.535625 224.508271 
L 144.374352 224.508271 
L 144.253398 223.912825 
L 144.21308 223.912825 
L 144.092125 223.317378 
L 143.76958 223.317378 
L 143.648625 222.721931 
L 143.52767 222.721931 
L 143.406716 222.126485 
L 143.32608 222.126485 
L 143.205125 221.531038 
L 142.88258 221.531038 
L 142.761625 220.935591 
L 142.43908 220.935591 
L 142.318125 220.340144 
L 142.277807 220.340144 
L 142.156852 219.744698 
L 141.99558 219.744698 
L 141.874625 219.149251 
L 141.834307 219.149251 
L 141.713352 218.553804 
L 141.55208 218.553804 
L 141.431125 217.958358 
L 141.10858 217.958358 
L 140.947307 216.767464 
L 140.66508 216.767464 
L 140.544125 216.172018 
L 140.22158 216.172018 
L 140.060307 214.981124 
L 139.77808 214.981124 
L 139.616807 213.790231 
L 139.33458 213.790231 
L 139.173307 212.599337 
L 138.89108 212.599337 
L 138.729807 211.408444 
L 138.44758 211.408444 
L 138.326625 210.812997 
L 138.00408 210.812997 
L 137.842807 209.622104 
L 137.56058 209.622104 
L 137.399307 208.431211 
L 137.11708 208.431211 
L 136.996125 207.835764 
L 136.67358 207.835764 
L 136.512307 206.64487 
L 136.23008 206.64487 
L 136.068807 205.453977 
L 135.746261 205.453977 
L 135.625307 204.85853 
L 135.383398 204.85853 
L 135.222125 203.667637 
L 134.939898 203.667637 
L 134.778625 202.476744 
L 134.496398 202.476744 
L 134.335125 201.28585 
L 134.052898 201.28585 
L 133.891625 200.094957 
L 133.609398 200.094957 
L 133.448125 198.904063 
L 133.165898 198.904063 
L 133.004625 197.71317 
L 132.722398 197.71317 
L 132.561125 196.522277 
L 132.278898 196.522277 
L 132.117625 195.331383 
L 131.835398 195.331383 
L 131.714443 194.735937 
L 131.391898 194.735937 
L 131.230625 193.545043 
L 130.948398 193.545043 
L 130.787125 192.35415 
L 130.504898 192.35415 
L 130.343625 191.163256 
L 130.061398 191.163256 
L 129.900125 189.972363 
L 129.617898 189.972363 
L 129.456625 188.78147 
L 129.174398 188.78147 
L 129.013125 187.590576 
L 128.69058 187.590576 
L 128.569625 186.99513 
L 128.327716 186.99513 
L 128.166443 185.804236 
L 127.884216 185.804236 
L 127.722943 184.613343 
L 127.440716 184.613343 
L 127.279443 183.422449 
L 126.997216 183.422449 
L 126.835943 182.231556 
L 126.553716 182.231556 
L 126.392443 181.040663 
L 126.110216 181.040663 
L 125.948943 179.849769 
L 125.666716 179.849769 
L 125.545761 179.254322 
L 125.223216 179.254322 
L 125.061943 178.063429 
L 124.779716 178.063429 
L 124.618443 176.872536 
L 124.336216 176.872536 
L 124.174943 175.681642 
L 123.892716 175.681642 
L 123.731443 174.490749 
L 123.449216 174.490749 
L 123.287943 173.299856 
L 123.005716 173.299856 
L 122.844443 172.108962 
L 122.521898 172.108962 
L 122.400943 171.513515 
L 122.159034 171.513515 
L 121.997761 170.322622 
L 121.715534 170.322622 
L 121.554261 169.131729 
L 121.272034 169.131729 
L 121.110761 167.940835 
L 120.828534 167.940835 
L 120.667261 166.749942 
L 120.385034 166.749942 
L 120.223761 165.559049 
L 119.941534 165.559049 
L 119.780261 164.368155 
L 119.498034 164.368155 
L 119.336761 163.177262 
L 119.054534 163.177262 
L 118.893261 161.986368 
L 118.611034 161.986368 
L 118.449761 160.795475 
L 118.086898 160.795475 
L 117.965943 160.200028 
L 117.764352 160.200028 
L 117.60308 159.009135 
L 117.199898 159.009135 
L 117.078943 158.413688 
L 116.91767 158.413688 
L 116.796716 157.818241 
L 116.756398 157.818241 
L 116.635443 157.222795 
L 116.47417 157.222795 
L 116.353216 156.627348 
L 116.312898 156.627348 
L 116.191943 156.031901 
L 116.03067 156.031901 
L 115.909716 155.436455 
L 115.869398 155.436455 
L 115.748443 154.841008 
L 115.58717 154.841008 
L 115.466216 154.245561 
L 115.425898 154.245561 
L 115.304943 153.650115 
L 115.14367 153.650115 
L 115.022716 153.054668 
L 114.982398 153.054668 
L 114.861443 152.459221 
L 114.70017 152.459221 
L 114.579216 151.863775 
L 114.538898 151.863775 
L 114.417943 151.268328 
L 114.25667 151.268328 
L 114.135716 150.672881 
L 114.095398 150.672881 
L 113.974443 150.077434 
L 113.81317 150.077434 
L 113.692216 149.481988 
L 113.651898 149.481988 
L 113.530943 148.886541 
L 113.36967 148.886541 
L 113.248716 148.291094 
L 113.208398 148.291094 
L 113.087443 147.695648 
L 112.92617 147.695648 
L 112.805216 147.100201 
L 112.764898 147.100201 
L 112.643943 146.504754 
L 112.48267 146.504754 
L 112.361716 145.909308 
L 112.321398 145.909308 
L 112.200443 145.313861 
L 112.03917 145.313861 
L 111.918216 144.718414 
L 111.877898 144.718414 
L 111.756943 144.122967 
L 111.59567 144.122967 
L 111.474716 143.527521 
L 111.434398 143.527521 
L 111.313443 142.932074 
L 111.15217 142.932074 
L 111.031216 142.336627 
L 110.587716 142.336627 
L 110.466761 141.741181 
L 110.305489 141.741181 
L 110.184534 141.145734 
L 110.144216 141.145734 
L 110.023261 140.550287 
L 109.861989 140.550287 
L 109.741034 139.954841 
L 109.418489 139.954841 
L 109.257216 138.763947 
L 108.974989 138.763947 
L 108.813716 137.573054 
L 108.531489 137.573054 
L 108.370216 136.38216 
L 107.967034 136.38216 
L 107.84608 135.786714 
L 107.684807 135.786714 
L 107.563852 135.191267 
L 107.523534 135.191267 
L 107.40258 134.59582 
L 107.080034 134.59582 
L 106.95908 134.000374 
L 106.636534 134.000374 
L 106.51558 133.404927 
L 106.434943 133.404927 
L 106.313989 132.80948 
L 106.193034 132.80948 
L 106.07208 132.214034 
L 105.991443 132.214034 
L 105.870489 131.618587 
L 105.749534 131.618587 
L 105.62858 131.02314 
L 105.306034 131.02314 
L 105.18508 130.427694 
L 105.144761 130.427694 
L 105.023807 129.832247 
L 104.862534 129.832247 
L 104.74158 129.2368 
L 104.29808 129.2368 
L 104.177125 128.641353 
L 103.935216 128.641353 
L 103.773943 127.45046 
L 103.491716 127.45046 
L 103.330443 126.259567 
L 103.048216 126.259567 
L 102.886943 125.068673 
L 102.604716 125.068673 
L 102.483761 124.473227 
L 102.161216 124.473227 
L 101.999943 123.282333 
L 101.717716 123.282333 
L 101.556443 122.09144 
L 101.233898 122.09144 
L 101.112943 121.495993 
L 100.830716 121.495993 
L 100.669443 120.3051 
L 100.387216 120.3051 
L 100.225943 119.114206 
L 99.943716 119.114206 
L 99.782443 117.923313 
L 99.500216 117.923313 
L 99.338943 116.73242 
L 99.056716 116.73242 
L 98.895443 115.541526 
L 98.613216 115.541526 
L 98.451943 114.350633 
L 98.169716 114.350633 
L 98.008443 113.159739 
L 97.726216 113.159739 
L 97.564943 111.968846 
L 97.282716 111.968846 
L 97.121443 110.777953 
L 96.839216 110.777953 
L 96.677943 109.587059 
L 96.395716 109.587059 
L 96.234443 108.396166 
L 95.911898 108.396166 
L 95.790943 107.800719 
L 95.549034 107.800719 
L 95.387761 106.609826 
L 95.105534 106.609826 
L 94.944261 105.418932 
L 94.662034 105.418932 
L 94.500761 104.228039 
L 94.218534 104.228039 
L 94.057261 103.037146 
L 93.775034 103.037146 
L 93.613761 101.846252 
L 93.331534 101.846252 
L 93.170261 100.655359 
L 92.888034 100.655359 
L 92.726761 99.464465 
L 92.444534 99.464465 
L 92.283261 98.273572 
L 92.001034 98.273572 
L 91.839761 97.082679 
L 91.557534 97.082679 
L 91.396261 95.891785 
L 91.114034 95.891785 
L 90.952761 94.700892 
L 90.670534 94.700892 
L 90.509261 93.509998 
L 90.227034 93.509998 
L 90.065761 92.319105 
L 89.783534 92.319105 
L 89.622261 91.128212 
L 89.340034 91.128212 
L 89.178761 89.937318 
L 88.896534 89.937318 
L 88.735261 88.746425 
L 88.453034 88.746425 
L 88.291761 87.555531 
L 88.009534 87.555531 
L 87.848261 86.364638 
L 87.566034 86.364638 
L 87.404761 85.173745 
L 87.122534 85.173745 
L 86.961261 83.982851 
L 86.679034 83.982851 
L 86.517761 82.791958 
L 86.235534 82.791958 
L 86.074261 81.601065 
L 85.792034 81.601065 
L 85.630761 80.410171 
L 85.348534 80.410171 
L 85.187261 79.219278 
L 84.905034 79.219278 
L 84.743761 78.028384 
L 84.461534 78.028384 
L 84.300261 76.837491 
L 84.018034 76.837491 
L 83.856761 75.646598 
L 83.574534 75.646598 
L 83.413261 74.455704 
L 83.131034 74.455704 
L 82.969761 73.264811 
L 82.687534 73.264811 
L 82.526261 72.073917 
L 82.244034 72.073917 
L 82.082761 70.883024 
L 81.800534 70.883024 
L 81.639261 69.692131 
L 81.357034 69.692131 
L 81.195761 68.501237 
L 80.913534 68.501237 
L 80.752261 67.310344 
L 80.470034 67.310344 
L 80.308761 66.11945 
L 80.026534 66.11945 
L 79.865261 64.928557 
L 79.583034 64.928557 
L 79.421761 63.737664 
L 79.139534 63.737664 
L 78.978261 62.54677 
L 78.696034 62.54677 
L 78.57508 61.951324 
L 78.252534 61.951324 
L 78.091261 60.76043 
L 77.809034 60.76043 
L 77.647761 59.569537 
L 77.365534 59.569537 
L 77.204261 58.378643 
L 76.922034 58.378643 
L 76.760761 57.18775 
L 76.478534 57.18775 
L 76.317261 55.996857 
L 76.035034 55.996857 
L 75.873761 54.805963 
L 75.591534 54.805963 
L 75.430261 53.61507 
L 75.148034 53.61507 
L 75.02708 53.019623 
L 74.704534 53.019623 
L 74.58358 51.82873 
L 74.261034 51.82873 
L 74.14008 50.637836 
L 73.817534 50.637836 
L 73.69658 49.446943 
L 73.374034 49.446943 
L 73.25308 48.25605 
L 72.930534 48.25605 
L 72.80958 47.065156 
L 72.487034 47.065156 
L 72.36608 45.874263 
L 72.043534 45.874263 
L 71.92258 44.683369 
L 71.600034 44.683369 
L 71.47908 43.492476 
L 71.156534 43.492476 
L 71.03558 42.301583 
L 70.713034 42.301583 
L 70.59208 41.110689 
L 70.269534 41.110689 
L 70.14858 39.919796 
L 69.826034 39.919796 
L 69.70508 38.728902 
L 69.382534 38.728902 
L 69.26158 37.538009 
L 68.939034 37.538009 
L 68.81808 36.347116 
L 68.495534 36.347116 
L 68.37458 35.751669 
L 68.052034 35.751669 
L 67.93108 35.156222 
L 67.648852 35.156222 
L 67.48758 33.965329 
L 67.205352 33.965329 
L 67.04408 32.774436 
L 66.761852 32.774436 
L 66.60058 31.583542 
L 66.318352 31.583542 
L 66.15708 30.392649 
L 65.874852 30.392649 
L 65.71358 29.201755 
L 65.431352 29.201755 
L 65.27008 28.010862 
L 64.987852 28.010862 
L 64.82658 26.819969 
L 64.544352 26.819969 
L 64.38308 25.629075 
L 64.100852 25.629075 
L 63.979898 25.033629 
L 63.617034 25.033629 
L 63.49608 24.438182 
L 63.133216 24.438182 
L 63.133216 24.438182 
" clip-path="url(#p11a10a15a7)" style="fill: none; stroke-dasharray: 7.4,3.2; stroke-dashoffset: 0; stroke: #8b0000; stroke-width: 2"/>
   </g>
   <g id="patch_3">
    <path d="M 46.965625 386.44 
L 46.965625 7.2 
" style="fill: none; stroke: #000000; stroke-width: 0.8; stroke-linejoin: miter; stroke-linecap: square"/>
   </g>
   <g id="patch_4">
    <path d="M 401.765625 386.44 
L 401.765625 7.2 
" style="fill: none; stroke: #000000; stroke-width: 0.8; stroke-linejoin: miter; stroke-linecap: square"/>
   </g>
   <g id="patch_5">
    <path d="M 46.965625 386.44 
L 401.765625 386.44 
" style="fill: none; stroke: #000000; stroke-width: 0.8; stroke-linejoin: miter; stroke-linecap: square"/>
   </g>
   <g id="patch_6">
    <path d="M 46.965625 7.2 
L 401.765625 7.2 
" style="fill: none; stroke: #000000; stroke-width: 0.8; stroke-linejoin: miter; stroke-linecap: square"/>
   </g>
   <g id="legend_1">
    <g id="patch_7">
     <path d="M 408.765625 117.946875 
L 558.923437 117.946875 
Q 560.923437 117.946875 560.923437 115.946875 
L 560.923437 14.2 
Q 560.923437 12.2 558.923437 12.2 
L 408.765625 12.2 
Q 406.765625 12.2 406.765625 14.2 
L 406.765625 115.946875 
Q 406.765625 117.946875 408.765625 117.946875 
z
" style="fill: #ffffff; opacity: 0.8; stroke: #cccccc; stroke-linejoin: miter"/>
    </g>
    <g id="text_19">
     <!-- Motifs &amp; orientation -->
     <g transform="translate(434.328906 23.798437) scale(0.1 -0.1)">
      <defs>
       <path id="DejaVuSans-4d" d="M 628 4666 
L 1569 4666 
L 2759 1491 
L 3956 4666 
L 4897 4666 
L 4897 0 
L 4281 0 
L 4281 4097 
L 3078 897 
L 2444 897 
L 1241 4097 
L 1241 0 
L 628 0 
L 628 4666 
z
" transform="scale(0.015625)"/>
       <path id="DejaVuSans-26" d="M 1556 2509 
Q 1272 2256 1139 2004 
Q 1006 1753 1006 1478 
Q 1006 1022 1337 719 
Q 1669 416 2169 416 
Q 2466 416 2725 514 
Q 2984 613 3213 813 
L 1556 2509 
z
M 1997 2859 
L 3584 1234 
Q 3769 1513 3872 1830 
Q 3975 2147 3994 2503 
L 4575 2503 
Q 4538 2091 4375 1687 
Q 4213 1284 3922 891 
L 4794 0 
L 4006 0 
L 3559 459 
Q 3234 181 2878 45 
Q 2522 -91 2113 -91 
Q 1359 -91 881 339 
Q 403 769 403 1441 
Q 403 1841 612 2192 
Q 822 2544 1241 2853 
Q 1091 3050 1012 3245 
Q 934 3441 934 3628 
Q 934 4134 1281 4442 
Q 1628 4750 2203 4750 
Q 2463 4750 2720 4694 
Q 2978 4638 3244 4525 
L 3244 3956 
Q 2972 4103 2725 4179 
Q 2478 4256 2266 4256 
Q 1938 4256 1733 4082 
Q 1528 3909 1528 3634 
Q 1528 3475 1620 3314 
Q 1713 3153 1997 2859 
z
" transform="scale(0.015625)"/>
      </defs>
      <use xlink:href="#DejaVuSans-4d"/>
      <use xlink:href="#DejaVuSans-6f" transform="translate(86.279297 0)"/>
      <use xlink:href="#DejaVuSans-74" transform="translate(147.460938 0)"/>
      <use xlink:href="#DejaVuSans-69" transform="translate(186.669922 0)"/>
      <use xlink:href="#DejaVuSans-66" transform="translate(214.453125 0)"/>
      <use xlink:href="#DejaVuSans-73" transform="translate(249.658203 0)"/>
      <use xlink:href="#DejaVuSans-20" transform="translate(301.757812 0)"/>
      <use xlink:href="#DejaVuSans-26" transform="translate(333.544922 0)"/>
      <use xlink:href="#DejaVuSans-20" transform="translate(411.523438 0)"/>
      <use xlink:href="#DejaVuSans-6f" transform="translate(443.310547 0)"/>
      <use xlink:href="#DejaVuSans-72" transform="translate(504.492188 0)"/>
      <use xlink:href="#DejaVuSans-69" transform="translate(545.605469 0)"/>
      <use xlink:href="#DejaVuSans-65" transform="translate(573.388672 0)"/>
      <use xlink:href="#DejaVuSans-6e" transform="translate(634.912109 0)"/>
      <use xlink:href="#DejaVuSans-74" transform="translate(698.291016 0)"/>
      <use xlink:href="#DejaVuSans-61" transform="translate(737.5 0)"/>
      <use xlink:href="#DejaVuSans-74" transform="translate(798.779297 0)"/>
      <use xlink:href="#DejaVuSans-69" transform="translate(837.988281 0)"/>
      <use xlink:href="#DejaVuSans-6f" transform="translate(865.771484 0)"/>
      <use xlink:href="#DejaVuSans-6e" transform="translate(926.953125 0)"/>
     </g>
    </g>
    <g id="line2d_39">
     <path d="M 410.765625 34.976562 
L 420.765625 34.976562 
L 430.765625 34.976562 
" style="fill: none; stroke: #add8e6; stroke-width: 2; stroke-linecap: square"/>
    </g>
    <g id="text_20">
     <!-- CCCGAGACTAA (5' end) -->
     <g transform="translate(438.765625 38.476562) scale(0.1 -0.1)">
      <defs>
       <path id="DejaVuSans-43" d="M 4122 4306 
L 4122 3641 
Q 3803 3938 3442 4084 
Q 3081 4231 2675 4231 
Q 1875 4231 1450 3742 
Q 1025 3253 1025 2328 
Q 1025 1406 1450 917 
Q 1875 428 2675 428 
Q 3081 428 3442 575 
Q 3803 722 4122 1019 
L 4122 359 
Q 3791 134 3420 21 
Q 3050 -91 2638 -91 
Q 1578 -91 968 557 
Q 359 1206 359 2328 
Q 359 3453 968 4101 
Q 1578 4750 2638 4750 
Q 3056 4750 3426 4639 
Q 3797 4528 4122 4306 
z
" transform="scale(0.015625)"/>
       <path id="DejaVuSans-47" d="M 3809 666 
L 3809 1919 
L 2778 1919 
L 2778 2438 
L 4434 2438 
L 4434 434 
Q 4069 175 3628 42 
Q 3188 -91 2688 -91 
Q 1594 -91 976 548 
Q 359 1188 359 2328 
Q 359 3472 976 4111 
Q 1594 4750 2688 4750 
Q 3144 4750 3555 4637 
Q 3966 4525 4313 4306 
L 4313 3634 
Q 3963 3931 3569 4081 
Q 3175 4231 2741 4231 
Q 1884 4231 1454 3753 
Q 1025 3275 1025 2328 
Q 1025 1384 1454 906 
Q 1884 428 2741 428 
Q 3075 428 3337 486 
Q 3600 544 3809 666 
z
" transform="scale(0.015625)"/>
       <path id="DejaVuSans-54" d="M -19 4666 
L 3928 4666 
L 3928 4134 
L 2272 4134 
L 2272 0 
L 1638 0 
L 1638 4134 
L -19 4134 
L -19 4666 
z
" transform="scale(0.015625)"/>
       <path id="DejaVuSans-28" d="M 1984 4856 
Q 1566 4138 1362 3434 
Q 1159 2731 1159 2009 
Q 1159 1288 1364 580 
Q 1569 -128 1984 -844 
L 1484 -844 
Q 1016 -109 783 600 
Q 550 1309 550 2009 
Q 550 2706 781 3412 
Q 1013 4119 1484 4856 
L 1984 4856 
z
" transform="scale(0.015625)"/>
       <path id="DejaVuSans-27" d="M 1147 4666 
L 1147 2931 
L 616 2931 
L 616 4666 
L 1147 4666 
z
" transform="scale(0.015625)"/>
       <path id="DejaVuSans-64" d="M 2906 2969 
L 2906 4863 
L 3481 4863 
L 3481 0 
L 2906 0 
L 2906 525 
Q 2725 213 2448 61 
Q 2172 -91 1784 -91 
Q 1150 -91 751 415 
Q 353 922 353 1747 
Q 353 2572 751 3078 
Q 1150 3584 1784 3584 
Q 2172 3584 2448 3432 
Q 2725 3281 2906 2969 
z
M 947 1747 
Q 947 1113 1208 752 
Q 1469 391 1925 391 
Q 2381 391 2643 752 
Q 2906 1113 2906 1747 
Q 2906 2381 2643 2742 
Q 2381 3103 1925 3103 
Q 1469 3103 1208 2742 
Q 947 2381 947 1747 
z
" transform="scale(0.015625)"/>
       <path id="DejaVuSans-29" d="M 513 4856 
L 1013 4856 
Q 1481 4119 1714 3412 
Q 1947 2706 1947 2009 
Q 1947 1309 1714 600 
Q 1481 -109 1013 -844 
L 513 -844 
Q 928 -128 1133 580 
Q 1338 1288 1338 2009 
Q 1338 2731 1133 3434 
Q 928 4138 513 4856 
z
" transform="scale(0.015625)"/>
      </defs>
      <use xlink:href="#DejaVuSans-43"/>
      <use xlink:href="#DejaVuSans-43" transform="translate(69.824219 0)"/>
      <use xlink:href="#DejaVuSans-43" transform="translate(139.648438 0)"/>
      <use xlink:href="#DejaVuSans-47" transform="translate(209.472656 0)"/>
      <use xlink:href="#DejaVuSans-41" transform="translate(286.962891 0)"/>
      <use xlink:href="#DejaVuSans-47" transform="translate(353.621094 0)"/>
      <use xlink:href="#DejaVuSans-41" transform="translate(431.111328 0)"/>
      <use xlink:href="#DejaVuSans-43" transform="translate(497.769531 0)"/>
      <use xlink:href="#DejaVuSans-54" transform="translate(567.59375 0)"/>
      <use xlink:href="#DejaVuSans-41" transform="translate(620.927734 0)"/>
      <use xlink:href="#DejaVuSans-41" transform="translate(692.085938 0)"/>
      <use xlink:href="#DejaVuSans-20" transform="translate(760.494141 0)"/>
      <use xlink:href="#DejaVuSans-28" transform="translate(792.28125 0)"/>
      <use xlink:href="#DejaVuSans-35" transform="translate(831.294922 0)"/>
      <use xlink:href="#DejaVuSans-27" transform="translate(894.917969 0)"/>
      <use xlink:href="#DejaVuSans-20" transform="translate(922.408203 0)"/>
      <use xlink:href="#DejaVuSans-65" transform="translate(954.195312 0)"/>
      <use xlink:href="#DejaVuSans-6e" transform="translate(1015.71875 0)"/>
      <use xlink:href="#DejaVuSans-64" transform="translate(1079.097656 0)"/>
      <use xlink:href="#DejaVuSans-29" transform="translate(1142.574219 0)"/>
     </g>
    </g>
    <g id="line2d_40">
     <path d="M 410.765625 49.654687 
L 420.765625 49.654687 
L 430.765625 49.654687 
" style="fill: none; stroke: #6495ed; stroke-width: 2; stroke-linecap: square"/>
    </g>
    <g id="text_21">
     <!-- TTCCCAA (5' end) -->
     <g transform="translate(438.765625 53.154687) scale(0.1 -0.1)">
      <use xlink:href="#DejaVuSans-54"/>
      <use xlink:href="#DejaVuSans-54" transform="translate(59.333984 0)"/>
      <use xlink:href="#DejaVuSans-43" transform="translate(114.542969 0)"/>
      <use xlink:href="#DejaVuSans-43" transform="translate(184.367188 0)"/>
      <use xlink:href="#DejaVuSans-43" transform="translate(254.191406 0)"/>
      <use xlink:href="#DejaVuSans-41" transform="translate(324.015625 0)"/>
      <use xlink:href="#DejaVuSans-41" transform="translate(395.173828 0)"/>
      <use xlink:href="#DejaVuSans-20" transform="translate(463.582031 0)"/>
      <use xlink:href="#DejaVuSans-28" transform="translate(495.369141 0)"/>
      <use xlink:href="#DejaVuSans-35" transform="translate(534.382812 0)"/>
      <use xlink:href="#DejaVuSans-27" transform="translate(598.005859 0)"/>
      <use xlink:href="#DejaVuSans-20" transform="translate(625.496094 0)"/>
      <use xlink:href="#DejaVuSans-65" transform="translate(657.283203 0)"/>
      <use xlink:href="#DejaVuSans-6e" transform="translate(718.806641 0)"/>
      <use xlink:href="#DejaVuSans-64" transform="translate(782.185547 0)"/>
      <use xlink:href="#DejaVuSans-29" transform="translate(845.662109 0)"/>
     </g>
    </g>
    <g id="line2d_41">
     <path d="M 410.765625 64.332812 
L 420.765625 64.332812 
L 430.765625 64.332812 
" style="fill: none; stroke: #00008b; stroke-width: 2; stroke-linecap: square"/>
    </g>
    <g id="text_22">
     <!-- CCCAAGACTAA (5' end) -->
     <g transform="translate(438.765625 67.832812) scale(0.1 -0.1)">
      <use xlink:href="#DejaVuSans-43"/>
      <use xlink:href="#DejaVuSans-43" transform="translate(69.824219 0)"/>
      <use xlink:href="#DejaVuSans-43" transform="translate(139.648438 0)"/>
      <use xlink:href="#DejaVuSans-41" transform="translate(209.472656 0)"/>
      <use xlink:href="#DejaVuSans-41" transform="translate(280.630859 0)"/>
      <use xlink:href="#DejaVuSans-47" transform="translate(347.289062 0)"/>
      <use xlink:href="#DejaVuSans-41" transform="translate(424.779297 0)"/>
      <use xlink:href="#DejaVuSans-43" transform="translate(491.4375 0)"/>
      <use xlink:href="#DejaVuSans-54" transform="translate(561.261719 0)"/>
      <use xlink:href="#DejaVuSans-41" transform="translate(614.595703 0)"/>
      <use xlink:href="#DejaVuSans-41" transform="translate(685.753906 0)"/>
      <use xlink:href="#DejaVuSans-20" transform="translate(754.162109 0)"/>
      <use xlink:href="#DejaVuSans-28" transform="translate(785.949219 0)"/>
      <use xlink:href="#DejaVuSans-35" transform="translate(824.962891 0)"/>
      <use xlink:href="#DejaVuSans-27" transform="translate(888.585938 0)"/>
      <use xlink:href="#DejaVuSans-20" transform="translate(916.076172 0)"/>
      <use xlink:href="#DejaVuSans-65" transform="translate(947.863281 0)"/>
      <use xlink:href="#DejaVuSans-6e" transform="translate(1009.386719 0)"/>
      <use xlink:href="#DejaVuSans-64" transform="translate(1072.765625 0)"/>
      <use xlink:href="#DejaVuSans-29" transform="translate(1136.242188 0)"/>
     </g>
    </g>
    <g id="line2d_42">
     <path d="M 410.765625 79.010937 
L 420.765625 79.010937 
L 430.765625 79.010937 
" style="fill: none; stroke-dasharray: 7.4,3.2; stroke-dashoffset: 0; stroke: #fa8072; stroke-width: 2"/>
    </g>
    <g id="text_23">
     <!-- TTAGTCTCGGG (3' end) -->
     <g transform="translate(438.765625 82.510937) scale(0.1 -0.1)">
      <use xlink:href="#DejaVuSans-54"/>
      <use xlink:href="#DejaVuSans-54" transform="translate(59.333984 0)"/>
      <use xlink:href="#DejaVuSans-41" transform="translate(112.667969 0)"/>
      <use xlink:href="#DejaVuSans-47" transform="translate(179.326172 0)"/>
      <use xlink:href="#DejaVuSans-54" transform="translate(253.191406 0)"/>
      <use xlink:href="#DejaVuSans-43" transform="translate(308.400391 0)"/>
      <use xlink:href="#DejaVuSans-54" transform="translate(378.224609 0)"/>
      <use xlink:href="#DejaVuSans-43" transform="translate(433.433594 0)"/>
      <use xlink:href="#DejaVuSans-47" transform="translate(503.257812 0)"/>
      <use xlink:href="#DejaVuSans-47" transform="translate(580.748047 0)"/>
      <use xlink:href="#DejaVuSans-47" transform="translate(658.238281 0)"/>
      <use xlink:href="#DejaVuSans-20" transform="translate(735.728516 0)"/>
      <use xlink:href="#DejaVuSans-28" transform="translate(767.515625 0)"/>
      <use xlink:href="#DejaVuSans-33" transform="translate(806.529297 0)"/>
      <use xlink:href="#DejaVuSans-27" transform="translate(870.152344 0)"/>
      <use xlink:href="#DejaVuSans-20" transform="translate(897.642578 0)"/>
      <use xlink:href="#DejaVuSans-65" transform="translate(929.429688 0)"/>
      <use xlink:href="#DejaVuSans-6e" transform="translate(990.953125 0)"/>
      <use xlink:href="#DejaVuSans-64" transform="translate(1054.332031 0)"/>
      <use xlink:href="#DejaVuSans-29" transform="translate(1117.808594 0)"/>
     </g>
    </g>
    <g id="line2d_43">
     <path d="M 410.765625 93.689062 
L 420.765625 93.689062 
L 430.765625 93.689062 
" style="fill: none; stroke-dasharray: 7.4,3.2; stroke-dashoffset: 0; stroke: #ff4500; stroke-width: 2"/>
    </g>
    <g id="text_24">
     <!-- TTGGGAA (3' end) -->
     <g transform="translate(438.765625 97.189062) scale(0.1 -0.1)">
      <use xlink:href="#DejaVuSans-54"/>
      <use xlink:href="#DejaVuSans-54" transform="translate(59.333984 0)"/>
      <use xlink:href="#DejaVuSans-47" transform="translate(120.417969 0)"/>
      <use xlink:href="#DejaVuSans-47" transform="translate(197.908203 0)"/>
      <use xlink:href="#DejaVuSans-47" transform="translate(275.398438 0)"/>
      <use xlink:href="#DejaVuSans-41" transform="translate(352.888672 0)"/>
      <use xlink:href="#DejaVuSans-41" transform="translate(424.046875 0)"/>
      <use xlink:href="#DejaVuSans-20" transform="translate(492.455078 0)"/>
      <use xlink:href="#DejaVuSans-28" transform="translate(524.242188 0)"/>
      <use xlink:href="#DejaVuSans-33" transform="translate(563.255859 0)"/>
      <use xlink:href="#DejaVuSans-27" transform="translate(626.878906 0)"/>
      <use xlink:href="#DejaVuSans-20" transform="translate(654.369141 0)"/>
      <use xlink:href="#DejaVuSans-65" transform="translate(686.15625 0)"/>
      <use xlink:href="#DejaVuSans-6e" transform="translate(747.679688 0)"/>
      <use xlink:href="#DejaVuSans-64" transform="translate(811.058594 0)"/>
      <use xlink:href="#DejaVuSans-29" transform="translate(874.535156 0)"/>
     </g>
    </g>
    <g id="line2d_44">
     <path d="M 410.765625 108.367187 
L 420.765625 108.367187 
L 430.765625 108.367187 
" style="fill: none; stroke-dasharray: 7.4,3.2; stroke-dashoffset: 0; stroke: #8b0000; stroke-width: 2"/>
    </g>
    <g id="text_25">
     <!-- TTAGTCTTGGG (3' end) -->
     <g transform="translate(438.765625 111.867187) scale(0.1 -0.1)">
      <use xlink:href="#DejaVuSans-54"/>
      <use xlink:href="#DejaVuSans-54" transform="translate(59.333984 0)"/>
      <use xlink:href="#DejaVuSans-41" transform="translate(112.667969 0)"/>
      <use xlink:href="#DejaVuSans-47" transform="translate(179.326172 0)"/>
      <use xlink:href="#DejaVuSans-54" transform="translate(253.191406 0)"/>
      <use xlink:href="#DejaVuSans-43" transform="translate(308.400391 0)"/>
      <use xlink:href="#DejaVuSans-54" transform="translate(378.224609 0)"/>
      <use xlink:href="#DejaVuSans-54" transform="translate(437.558594 0)"/>
      <use xlink:href="#DejaVuSans-47" transform="translate(498.642578 0)"/>
      <use xlink:href="#DejaVuSans-47" transform="translate(576.132812 0)"/>
      <use xlink:href="#DejaVuSans-47" transform="translate(653.623047 0)"/>
      <use xlink:href="#DejaVuSans-20" transform="translate(731.113281 0)"/>
      <use xlink:href="#DejaVuSans-28" transform="translate(762.900391 0)"/>
      <use xlink:href="#DejaVuSans-33" transform="translate(801.914062 0)"/>
      <use xlink:href="#DejaVuSans-27" transform="translate(865.537109 0)"/>
      <use xlink:href="#DejaVuSans-20" transform="translate(893.027344 0)"/>
      <use xlink:href="#DejaVuSans-65" transform="translate(924.814453 0)"/>
      <use xlink:href="#DejaVuSans-6e" transform="translate(986.337891 0)"/>
      <use xlink:href="#DejaVuSans-64" transform="translate(1049.716797 0)"/>
      <use xlink:href="#DejaVuSans-29" transform="translate(1113.193359 0)"/>
     </g>
    </g>
   </g>
  </g>
 </g>
 <defs>
  <clipPath id="p11a10a15a7">
   <rect x="46.965625" y="7.2" width="354.8" height="379.24"/>
  </clipPath>
 </defs>
</svg>
