<?xml version="1.0" encoding="utf-8" standalone="no"?>
<!DOCTYPE svg PUBLIC "-//W3C//DTD SVG 1.1//EN"
  "http://www.w3.org/Graphics/SVG/1.1/DTD/svg11.dtd">
<svg xmlns:xlink="http://www.w3.org/1999/xlink" width="568.123437pt" height="423.99625pt" viewBox="0 0 568.123437 423.99625" xmlns="http://www.w3.org/2000/svg" version="1.1">
 <metadata>
  <rdf:RDF xmlns:dc="http://purl.org/dc/elements/1.1/" xmlns:cc="http://creativecommons.org/ns#" xmlns:rdf="http://www.w3.org/1999/02/22-rdf-syntax-ns#">
   <cc:Work>
    <dc:type rdf:resource="http://purl.org/dc/dcmitype/StillImage"/>
    <dc:date>2026-04-30T13:16:51.861953</dc:date>
    <dc:format>image/svg+xml</dc:format>
    <dc:creator>
     <cc:Agent>
      <dc:title>Matplotlib v3.10.6, https://matplotlib.org/</dc:title>
     </cc:Agent>
    </dc:creator>
   </cc:Work>
  </rdf:RDF>
 </metadata>
 <defs>
  <style type="text/css">*{stroke-linejoin: round; stroke-linecap: butt}</style>
 </defs>
 <g id="figure_1">
  <g id="patch_1">
   <path d="M 0 423.99625 
L 568.123437 423.99625 
L 568.123437 0 
L 0 0 
z
" style="fill: #ffffff"/>
  </g>
  <g id="axes_1">
   <g id="patch_2">
    <path d="M 46.965625 386.44 
L 401.765625 386.44 
L 401.765625 7.2 
L 46.965625 7.2 
z
" style="fill: #ffffff"/>
   </g>
   <g id="matplotlib.axis_1">
    <g id="xtick_1">
     <g id="line2d_1">
      <path d="M 63.092898 386.44 
L 63.092898 7.2 
" clip-path="url(#p00790dc482)" style="fill: none; stroke-dasharray: 2.96,1.28; stroke-dashoffset: 0; stroke: #b0b0b0; stroke-opacity: 0.6; stroke-width: 0.8"/>
     </g>
     <g id="line2d_2">
      <defs>
       <path id="mc93a5f2981" d="M 0 0 
L 0 3.5 
" style="stroke: #000000; stroke-width: 0.8"/>
      </defs>
      <g>
       <use xlink:href="#mc93a5f2981" x="63.092898" y="386.44" style="stroke: #000000; stroke-width: 0.8"/>
      </g>
     </g>
     <g id="text_1">
      <!-- 0 -->
      <g transform="translate(59.911648 401.038437) scale(0.1 -0.1)">
       <defs>
        <path id="DejaVuSans-30" d="M 2034 4250 
Q 1547 4250 1301 3770 
Q 1056 3291 1056 2328 
Q 1056 1369 1301 889 
Q 1547 409 2034 409 
Q 2525 409 2770 889 
Q 3016 1369 3016 2328 
Q 3016 3291 2770 3770 
Q 2525 4250 2034 4250 
z
M 2034 4750 
Q 2819 4750 3233 4129 
Q 3647 3509 3647 2328 
Q 3647 1150 3233 529 
Q 2819 -91 2034 -91 
Q 1250 -91 836 529 
Q 422 1150 422 2328 
Q 422 3509 836 4129 
Q 1250 4750 2034 4750 
z
" transform="scale(0.015625)"/>
       </defs>
       <use xlink:href="#DejaVuSans-30"/>
      </g>
     </g>
    </g>
    <g id="xtick_2">
     <g id="line2d_3">
      <path d="M 103.41108 386.44 
L 103.41108 7.2 
" clip-path="url(#p00790dc482)" style="fill: none; stroke-dasharray: 2.96,1.28; stroke-dashoffset: 0; stroke: #b0b0b0; stroke-opacity: 0.6; stroke-width: 0.8"/>
     </g>
     <g id="line2d_4">
      <g>
       <use xlink:href="#mc93a5f2981" x="103.41108" y="386.44" style="stroke: #000000; stroke-width: 0.8"/>
      </g>
     </g>
     <g id="text_2">
      <!-- 1000 -->
      <g transform="translate(90.68608 401.038437) scale(0.1 -0.1)">
       <defs>
        <path id="DejaVuSans-31" d="M 794 531 
L 1825 531 
L 1825 4091 
L 703 3866 
L 703 4441 
L 1819 4666 
L 2450 4666 
L 2450 531 
L 3481 531 
L 3481 0 
L 794 0 
L 794 531 
z
" transform="scale(0.015625)"/>
       </defs>
       <use xlink:href="#DejaVuSans-31"/>
       <use xlink:href="#DejaVuSans-30" transform="translate(63.623047 0)"/>
       <use xlink:href="#DejaVuSans-30" transform="translate(127.246094 0)"/>
       <use xlink:href="#DejaVuSans-30" transform="translate(190.869141 0)"/>
      </g>
     </g>
    </g>
    <g id="xtick_3">
     <g id="line2d_5">
      <path d="M 143.729261 386.44 
L 143.729261 7.2 
" clip-path="url(#p00790dc482)" style="fill: none; stroke-dasharray: 2.96,1.28; stroke-dashoffset: 0; stroke: #b0b0b0; stroke-opacity: 0.6; stroke-width: 0.8"/>
     </g>
     <g id="line2d_6">
      <g>
       <use xlink:href="#mc93a5f2981" x="143.729261" y="386.44" style="stroke: #000000; stroke-width: 0.8"/>
      </g>
     </g>
     <g id="text_3">
      <!-- 2000 -->
      <g transform="translate(131.004261 401.038437) scale(0.1 -0.1)">
       <defs>
        <path id="DejaVuSans-32" d="M 1228 531 
L 3431 531 
L 3431 0 
L 469 0 
L 469 531 
Q 828 903 1448 1529 
Q 2069 2156 2228 2338 
Q 2531 2678 2651 2914 
Q 2772 3150 2772 3378 
Q 2772 3750 2511 3984 
Q 2250 4219 1831 4219 
Q 1534 4219 1204 4116 
Q 875 4013 500 3803 
L 500 4441 
Q 881 4594 1212 4672 
Q 1544 4750 1819 4750 
Q 2544 4750 2975 4387 
Q 3406 4025 3406 3419 
Q 3406 3131 3298 2873 
Q 3191 2616 2906 2266 
Q 2828 2175 2409 1742 
Q 1991 1309 1228 531 
z
" transform="scale(0.015625)"/>
       </defs>
       <use xlink:href="#DejaVuSans-32"/>
       <use xlink:href="#DejaVuSans-30" transform="translate(63.623047 0)"/>
       <use xlink:href="#DejaVuSans-30" transform="translate(127.246094 0)"/>
       <use xlink:href="#DejaVuSans-30" transform="translate(190.869141 0)"/>
      </g>
     </g>
    </g>
    <g id="xtick_4">
     <g id="line2d_7">
      <path d="M 184.047443 386.44 
L 184.047443 7.2 
" clip-path="url(#p00790dc482)" style="fill: none; stroke-dasharray: 2.96,1.28; stroke-dashoffset: 0; stroke: #b0b0b0; stroke-opacity: 0.6; stroke-width: 0.8"/>
     </g>
     <g id="line2d_8">
      <g>
       <use xlink:href="#mc93a5f2981" x="184.047443" y="386.44" style="stroke: #000000; stroke-width: 0.8"/>
      </g>
     </g>
     <g id="text_4">
      <!-- 3000 -->
      <g transform="translate(171.322443 401.038437) scale(0.1 -0.1)">
       <defs>
        <path id="DejaVuSans-33" d="M 2597 2516 
Q 3050 2419 3304 2112 
Q 3559 1806 3559 1356 
Q 3559 666 3084 287 
Q 2609 -91 1734 -91 
Q 1441 -91 1130 -33 
Q 819 25 488 141 
L 488 750 
Q 750 597 1062 519 
Q 1375 441 1716 441 
Q 2309 441 2620 675 
Q 2931 909 2931 1356 
Q 2931 1769 2642 2001 
Q 2353 2234 1838 2234 
L 1294 2234 
L 1294 2753 
L 1863 2753 
Q 2328 2753 2575 2939 
Q 2822 3125 2822 3475 
Q 2822 3834 2567 4026 
Q 2313 4219 1838 4219 
Q 1578 4219 1281 4162 
Q 984 4106 628 3988 
L 628 4550 
Q 988 4650 1302 4700 
Q 1616 4750 1894 4750 
Q 2613 4750 3031 4423 
Q 3450 4097 3450 3541 
Q 3450 3153 3228 2886 
Q 3006 2619 2597 2516 
z
" transform="scale(0.015625)"/>
       </defs>
       <use xlink:href="#DejaVuSans-33"/>
       <use xlink:href="#DejaVuSans-30" transform="translate(63.623047 0)"/>
       <use xlink:href="#DejaVuSans-30" transform="translate(127.246094 0)"/>
       <use xlink:href="#DejaVuSans-30" transform="translate(190.869141 0)"/>
      </g>
     </g>
    </g>
    <g id="xtick_5">
     <g id="line2d_9">
      <path d="M 224.365625 386.44 
L 224.365625 7.2 
" clip-path="url(#p00790dc482)" style="fill: none; stroke-dasharray: 2.96,1.28; stroke-dashoffset: 0; stroke: #b0b0b0; stroke-opacity: 0.6; stroke-width: 0.8"/>
     </g>
     <g id="line2d_10">
      <g>
       <use xlink:href="#mc93a5f2981" x="224.365625" y="386.44" style="stroke: #000000; stroke-width: 0.8"/>
      </g>
     </g>
     <g id="text_5">
      <!-- 4000 -->
      <g transform="translate(211.640625 401.038437) scale(0.1 -0.1)">
       <defs>
        <path id="DejaVuSans-34" d="M 2419 4116 
L 825 1625 
L 2419 1625 
L 2419 4116 
z
M 2253 4666 
L 3047 4666 
L 3047 1625 
L 3713 1625 
L 3713 1100 
L 3047 1100 
L 3047 0 
L 2419 0 
L 2419 1100 
L 313 1100 
L 313 1709 
L 2253 4666 
z
" transform="scale(0.015625)"/>
       </defs>
       <use xlink:href="#DejaVuSans-34"/>
       <use xlink:href="#DejaVuSans-30" transform="translate(63.623047 0)"/>
       <use xlink:href="#DejaVuSans-30" transform="translate(127.246094 0)"/>
       <use xlink:href="#DejaVuSans-30" transform="translate(190.869141 0)"/>
      </g>
     </g>
    </g>
    <g id="xtick_6">
     <g id="line2d_11">
      <path d="M 264.683807 386.44 
L 264.683807 7.2 
" clip-path="url(#p00790dc482)" style="fill: none; stroke-dasharray: 2.96,1.28; stroke-dashoffset: 0; stroke: #b0b0b0; stroke-opacity: 0.6; stroke-width: 0.8"/>
     </g>
     <g id="line2d_12">
      <g>
       <use xlink:href="#mc93a5f2981" x="264.683807" y="386.44" style="stroke: #000000; stroke-width: 0.8"/>
      </g>
     </g>
     <g id="text_6">
      <!-- 5000 -->
      <g transform="translate(251.958807 401.038437) scale(0.1 -0.1)">
       <defs>
        <path id="DejaVuSans-35" d="M 691 4666 
L 3169 4666 
L 3169 4134 
L 1269 4134 
L 1269 2991 
Q 1406 3038 1543 3061 
Q 1681 3084 1819 3084 
Q 2600 3084 3056 2656 
Q 3513 2228 3513 1497 
Q 3513 744 3044 326 
Q 2575 -91 1722 -91 
Q 1428 -91 1123 -41 
Q 819 9 494 109 
L 494 744 
Q 775 591 1075 516 
Q 1375 441 1709 441 
Q 2250 441 2565 725 
Q 2881 1009 2881 1497 
Q 2881 1984 2565 2268 
Q 2250 2553 1709 2553 
Q 1456 2553 1204 2497 
Q 953 2441 691 2322 
L 691 4666 
z
" transform="scale(0.015625)"/>
       </defs>
       <use xlink:href="#DejaVuSans-35"/>
       <use xlink:href="#DejaVuSans-30" transform="translate(63.623047 0)"/>
       <use xlink:href="#DejaVuSans-30" transform="translate(127.246094 0)"/>
       <use xlink:href="#DejaVuSans-30" transform="translate(190.869141 0)"/>
      </g>
     </g>
    </g>
    <g id="xtick_7">
     <g id="line2d_13">
      <path d="M 305.001989 386.44 
L 305.001989 7.2 
" clip-path="url(#p00790dc482)" style="fill: none; stroke-dasharray: 2.96,1.28; stroke-dashoffset: 0; stroke: #b0b0b0; stroke-opacity: 0.6; stroke-width: 0.8"/>
     </g>
     <g id="line2d_14">
      <g>
       <use xlink:href="#mc93a5f2981" x="305.001989" y="386.44" style="stroke: #000000; stroke-width: 0.8"/>
      </g>
     </g>
     <g id="text_7">
      <!-- 6000 -->
      <g transform="translate(292.276989 401.038437) scale(0.1 -0.1)">
       <defs>
        <path id="DejaVuSans-36" d="M 2113 2584 
Q 1688 2584 1439 2293 
Q 1191 2003 1191 1497 
Q 1191 994 1439 701 
Q 1688 409 2113 409 
Q 2538 409 2786 701 
Q 3034 994 3034 1497 
Q 3034 2003 2786 2293 
Q 2538 2584 2113 2584 
z
M 3366 4563 
L 3366 3988 
Q 3128 4100 2886 4159 
Q 2644 4219 2406 4219 
Q 1781 4219 1451 3797 
Q 1122 3375 1075 2522 
Q 1259 2794 1537 2939 
Q 1816 3084 2150 3084 
Q 2853 3084 3261 2657 
Q 3669 2231 3669 1497 
Q 3669 778 3244 343 
Q 2819 -91 2113 -91 
Q 1303 -91 875 529 
Q 447 1150 447 2328 
Q 447 3434 972 4092 
Q 1497 4750 2381 4750 
Q 2619 4750 2861 4703 
Q 3103 4656 3366 4563 
z
" transform="scale(0.015625)"/>
       </defs>
       <use xlink:href="#DejaVuSans-36"/>
       <use xlink:href="#DejaVuSans-30" transform="translate(63.623047 0)"/>
       <use xlink:href="#DejaVuSans-30" transform="translate(127.246094 0)"/>
       <use xlink:href="#DejaVuSans-30" transform="translate(190.869141 0)"/>
      </g>
     </g>
    </g>
    <g id="xtick_8">
     <g id="line2d_15">
      <path d="M 345.32017 386.44 
L 345.32017 7.2 
" clip-path="url(#p00790dc482)" style="fill: none; stroke-dasharray: 2.96,1.28; stroke-dashoffset: 0; stroke: #b0b0b0; stroke-opacity: 0.6; stroke-width: 0.8"/>
     </g>
     <g id="line2d_16">
      <g>
       <use xlink:href="#mc93a5f2981" x="345.32017" y="386.44" style="stroke: #000000; stroke-width: 0.8"/>
      </g>
     </g>
     <g id="text_8">
      <!-- 7000 -->
      <g transform="translate(332.59517 401.038437) scale(0.1 -0.1)">
       <defs>
        <path id="DejaVuSans-37" d="M 525 4666 
L 3525 4666 
L 3525 4397 
L 1831 0 
L 1172 0 
L 2766 4134 
L 525 4134 
L 525 4666 
z
" transform="scale(0.015625)"/>
       </defs>
       <use xlink:href="#DejaVuSans-37"/>
       <use xlink:href="#DejaVuSans-30" transform="translate(63.623047 0)"/>
       <use xlink:href="#DejaVuSans-30" transform="translate(127.246094 0)"/>
       <use xlink:href="#DejaVuSans-30" transform="translate(190.869141 0)"/>
      </g>
     </g>
    </g>
    <g id="xtick_9">
     <g id="line2d_17">
      <path d="M 385.638352 386.44 
L 385.638352 7.2 
" clip-path="url(#p00790dc482)" style="fill: none; stroke-dasharray: 2.96,1.28; stroke-dashoffset: 0; stroke: #b0b0b0; stroke-opacity: 0.6; stroke-width: 0.8"/>
     </g>
     <g id="line2d_18">
      <g>
       <use xlink:href="#mc93a5f2981" x="385.638352" y="386.44" style="stroke: #000000; stroke-width: 0.8"/>
      </g>
     </g>
     <g id="text_9">
      <!-- 8000 -->
      <g transform="translate(372.913352 401.038437) scale(0.1 -0.1)">
       <defs>
        <path id="DejaVuSans-38" d="M 2034 2216 
Q 1584 2216 1326 1975 
Q 1069 1734 1069 1313 
Q 1069 891 1326 650 
Q 1584 409 2034 409 
Q 2484 409 2743 651 
Q 3003 894 3003 1313 
Q 3003 1734 2745 1975 
Q 2488 2216 2034 2216 
z
M 1403 2484 
Q 997 2584 770 2862 
Q 544 3141 544 3541 
Q 544 4100 942 4425 
Q 1341 4750 2034 4750 
Q 2731 4750 3128 4425 
Q 3525 4100 3525 3541 
Q 3525 3141 3298 2862 
Q 3072 2584 2669 2484 
Q 3125 2378 3379 2068 
Q 3634 1759 3634 1313 
Q 3634 634 3220 271 
Q 2806 -91 2034 -91 
Q 1263 -91 848 271 
Q 434 634 434 1313 
Q 434 1759 690 2068 
Q 947 2378 1403 2484 
z
M 1172 3481 
Q 1172 3119 1398 2916 
Q 1625 2713 2034 2713 
Q 2441 2713 2670 2916 
Q 2900 3119 2900 3481 
Q 2900 3844 2670 4047 
Q 2441 4250 2034 4250 
Q 1625 4250 1398 4047 
Q 1172 3844 1172 3481 
z
" transform="scale(0.015625)"/>
       </defs>
       <use xlink:href="#DejaVuSans-38"/>
       <use xlink:href="#DejaVuSans-30" transform="translate(63.623047 0)"/>
       <use xlink:href="#DejaVuSans-30" transform="translate(127.246094 0)"/>
       <use xlink:href="#DejaVuSans-30" transform="translate(190.869141 0)"/>
      </g>
     </g>
    </g>
    <g id="text_10">
     <!-- Distance from terminus [nt] -->
     <g transform="translate(154.866406 414.716562) scale(0.1 -0.1)">
      <defs>
       <path id="DejaVuSans-44" d="M 1259 4147 
L 1259 519 
L 2022 519 
Q 2988 519 3436 956 
Q 3884 1394 3884 2338 
Q 3884 3275 3436 3711 
Q 2988 4147 2022 4147 
L 1259 4147 
z
M 628 4666 
L 1925 4666 
Q 3281 4666 3915 4102 
Q 4550 3538 4550 2338 
Q 4550 1131 3912 565 
Q 3275 0 1925 0 
L 628 0 
L 628 4666 
z
" transform="scale(0.015625)"/>
       <path id="DejaVuSans-69" d="M 603 3500 
L 1178 3500 
L 1178 0 
L 603 0 
L 603 3500 
z
M 603 4863 
L 1178 4863 
L 1178 4134 
L 603 4134 
L 603 4863 
z
" transform="scale(0.015625)"/>
       <path id="DejaVuSans-73" d="M 2834 3397 
L 2834 2853 
Q 2591 2978 2328 3040 
Q 2066 3103 1784 3103 
Q 1356 3103 1142 2972 
Q 928 2841 928 2578 
Q 928 2378 1081 2264 
Q 1234 2150 1697 2047 
L 1894 2003 
Q 2506 1872 2764 1633 
Q 3022 1394 3022 966 
Q 3022 478 2636 193 
Q 2250 -91 1575 -91 
Q 1294 -91 989 -36 
Q 684 19 347 128 
L 347 722 
Q 666 556 975 473 
Q 1284 391 1588 391 
Q 1994 391 2212 530 
Q 2431 669 2431 922 
Q 2431 1156 2273 1281 
Q 2116 1406 1581 1522 
L 1381 1569 
Q 847 1681 609 1914 
Q 372 2147 372 2553 
Q 372 3047 722 3315 
Q 1072 3584 1716 3584 
Q 2034 3584 2315 3537 
Q 2597 3491 2834 3397 
z
" transform="scale(0.015625)"/>
       <path id="DejaVuSans-74" d="M 1172 4494 
L 1172 3500 
L 2356 3500 
L 2356 3053 
L 1172 3053 
L 1172 1153 
Q 1172 725 1289 603 
Q 1406 481 1766 481 
L 2356 481 
L 2356 0 
L 1766 0 
Q 1100 0 847 248 
Q 594 497 594 1153 
L 594 3053 
L 172 3053 
L 172 3500 
L 594 3500 
L 594 4494 
L 1172 4494 
z
" transform="scale(0.015625)"/>
       <path id="DejaVuSans-61" d="M 2194 1759 
Q 1497 1759 1228 1600 
Q 959 1441 959 1056 
Q 959 750 1161 570 
Q 1363 391 1709 391 
Q 2188 391 2477 730 
Q 2766 1069 2766 1631 
L 2766 1759 
L 2194 1759 
z
M 3341 1997 
L 3341 0 
L 2766 0 
L 2766 531 
Q 2569 213 2275 61 
Q 1981 -91 1556 -91 
Q 1019 -91 701 211 
Q 384 513 384 1019 
Q 384 1609 779 1909 
Q 1175 2209 1959 2209 
L 2766 2209 
L 2766 2266 
Q 2766 2663 2505 2880 
Q 2244 3097 1772 3097 
Q 1472 3097 1187 3025 
Q 903 2953 641 2809 
L 641 3341 
Q 956 3463 1253 3523 
Q 1550 3584 1831 3584 
Q 2591 3584 2966 3190 
Q 3341 2797 3341 1997 
z
" transform="scale(0.015625)"/>
       <path id="DejaVuSans-6e" d="M 3513 2113 
L 3513 0 
L 2938 0 
L 2938 2094 
Q 2938 2591 2744 2837 
Q 2550 3084 2163 3084 
Q 1697 3084 1428 2787 
Q 1159 2491 1159 1978 
L 1159 0 
L 581 0 
L 581 3500 
L 1159 3500 
L 1159 2956 
Q 1366 3272 1645 3428 
Q 1925 3584 2291 3584 
Q 2894 3584 3203 3211 
Q 3513 2838 3513 2113 
z
" transform="scale(0.015625)"/>
       <path id="DejaVuSans-63" d="M 3122 3366 
L 3122 2828 
Q 2878 2963 2633 3030 
Q 2388 3097 2138 3097 
Q 1578 3097 1268 2742 
Q 959 2388 959 1747 
Q 959 1106 1268 751 
Q 1578 397 2138 397 
Q 2388 397 2633 464 
Q 2878 531 3122 666 
L 3122 134 
Q 2881 22 2623 -34 
Q 2366 -91 2075 -91 
Q 1284 -91 818 406 
Q 353 903 353 1747 
Q 353 2603 823 3093 
Q 1294 3584 2113 3584 
Q 2378 3584 2631 3529 
Q 2884 3475 3122 3366 
z
" transform="scale(0.015625)"/>
       <path id="DejaVuSans-65" d="M 3597 1894 
L 3597 1613 
L 953 1613 
Q 991 1019 1311 708 
Q 1631 397 2203 397 
Q 2534 397 2845 478 
Q 3156 559 3463 722 
L 3463 178 
Q 3153 47 2828 -22 
Q 2503 -91 2169 -91 
Q 1331 -91 842 396 
Q 353 884 353 1716 
Q 353 2575 817 3079 
Q 1281 3584 2069 3584 
Q 2775 3584 3186 3129 
Q 3597 2675 3597 1894 
z
M 3022 2063 
Q 3016 2534 2758 2815 
Q 2500 3097 2075 3097 
Q 1594 3097 1305 2825 
Q 1016 2553 972 2059 
L 3022 2063 
z
" transform="scale(0.015625)"/>
       <path id="DejaVuSans-20" transform="scale(0.015625)"/>
       <path id="DejaVuSans-66" d="M 2375 4863 
L 2375 4384 
L 1825 4384 
Q 1516 4384 1395 4259 
Q 1275 4134 1275 3809 
L 1275 3500 
L 2222 3500 
L 2222 3053 
L 1275 3053 
L 1275 0 
L 697 0 
L 697 3053 
L 147 3053 
L 147 3500 
L 697 3500 
L 697 3744 
Q 697 4328 969 4595 
Q 1241 4863 1831 4863 
L 2375 4863 
z
" transform="scale(0.015625)"/>
       <path id="DejaVuSans-72" d="M 2631 2963 
Q 2534 3019 2420 3045 
Q 2306 3072 2169 3072 
Q 1681 3072 1420 2755 
Q 1159 2438 1159 1844 
L 1159 0 
L 581 0 
L 581 3500 
L 1159 3500 
L 1159 2956 
Q 1341 3275 1631 3429 
Q 1922 3584 2338 3584 
Q 2397 3584 2469 3576 
Q 2541 3569 2628 3553 
L 2631 2963 
z
" transform="scale(0.015625)"/>
       <path id="DejaVuSans-6f" d="M 1959 3097 
Q 1497 3097 1228 2736 
Q 959 2375 959 1747 
Q 959 1119 1226 758 
Q 1494 397 1959 397 
Q 2419 397 2687 759 
Q 2956 1122 2956 1747 
Q 2956 2369 2687 2733 
Q 2419 3097 1959 3097 
z
M 1959 3584 
Q 2709 3584 3137 3096 
Q 3566 2609 3566 1747 
Q 3566 888 3137 398 
Q 2709 -91 1959 -91 
Q 1206 -91 779 398 
Q 353 888 353 1747 
Q 353 2609 779 3096 
Q 1206 3584 1959 3584 
z
" transform="scale(0.015625)"/>
       <path id="DejaVuSans-6d" d="M 3328 2828 
Q 3544 3216 3844 3400 
Q 4144 3584 4550 3584 
Q 5097 3584 5394 3201 
Q 5691 2819 5691 2113 
L 5691 0 
L 5113 0 
L 5113 2094 
Q 5113 2597 4934 2840 
Q 4756 3084 4391 3084 
Q 3944 3084 3684 2787 
Q 3425 2491 3425 1978 
L 3425 0 
L 2847 0 
L 2847 2094 
Q 2847 2600 2669 2842 
Q 2491 3084 2119 3084 
Q 1678 3084 1418 2786 
Q 1159 2488 1159 1978 
L 1159 0 
L 581 0 
L 581 3500 
L 1159 3500 
L 1159 2956 
Q 1356 3278 1631 3431 
Q 1906 3584 2284 3584 
Q 2666 3584 2933 3390 
Q 3200 3197 3328 2828 
z
" transform="scale(0.015625)"/>
       <path id="DejaVuSans-75" d="M 544 1381 
L 544 3500 
L 1119 3500 
L 1119 1403 
Q 1119 906 1312 657 
Q 1506 409 1894 409 
Q 2359 409 2629 706 
Q 2900 1003 2900 1516 
L 2900 3500 
L 3475 3500 
L 3475 0 
L 2900 0 
L 2900 538 
Q 2691 219 2414 64 
Q 2138 -91 1772 -91 
Q 1169 -91 856 284 
Q 544 659 544 1381 
z
M 1991 3584 
L 1991 3584 
z
" transform="scale(0.015625)"/>
       <path id="DejaVuSans-5b" d="M 550 4863 
L 1875 4863 
L 1875 4416 
L 1125 4416 
L 1125 -397 
L 1875 -397 
L 1875 -844 
L 550 -844 
L 550 4863 
z
" transform="scale(0.015625)"/>
       <path id="DejaVuSans-5d" d="M 1947 4863 
L 1947 -844 
L 622 -844 
L 622 -397 
L 1369 -397 
L 1369 4416 
L 622 4416 
L 622 4863 
L 1947 4863 
z
" transform="scale(0.015625)"/>
      </defs>
      <use xlink:href="#DejaVuSans-44"/>
      <use xlink:href="#DejaVuSans-69" transform="translate(77.001953 0)"/>
      <use xlink:href="#DejaVuSans-73" transform="translate(104.785156 0)"/>
      <use xlink:href="#DejaVuSans-74" transform="translate(156.884766 0)"/>
      <use xlink:href="#DejaVuSans-61" transform="translate(196.09375 0)"/>
      <use xlink:href="#DejaVuSans-6e" transform="translate(257.373047 0)"/>
      <use xlink:href="#DejaVuSans-63" transform="translate(320.751953 0)"/>
      <use xlink:href="#DejaVuSans-65" transform="translate(375.732422 0)"/>
      <use xlink:href="#DejaVuSans-20" transform="translate(437.255859 0)"/>
      <use xlink:href="#DejaVuSans-66" transform="translate(469.042969 0)"/>
      <use xlink:href="#DejaVuSans-72" transform="translate(504.248047 0)"/>
      <use xlink:href="#DejaVuSans-6f" transform="translate(543.111328 0)"/>
      <use xlink:href="#DejaVuSans-6d" transform="translate(604.292969 0)"/>
      <use xlink:href="#DejaVuSans-20" transform="translate(701.705078 0)"/>
      <use xlink:href="#DejaVuSans-74" transform="translate(733.492188 0)"/>
      <use xlink:href="#DejaVuSans-65" transform="translate(772.701172 0)"/>
      <use xlink:href="#DejaVuSans-72" transform="translate(834.224609 0)"/>
      <use xlink:href="#DejaVuSans-6d" transform="translate(873.587891 0)"/>
      <use xlink:href="#DejaVuSans-69" transform="translate(971 0)"/>
      <use xlink:href="#DejaVuSans-6e" transform="translate(998.783203 0)"/>
      <use xlink:href="#DejaVuSans-75" transform="translate(1062.162109 0)"/>
      <use xlink:href="#DejaVuSans-73" transform="translate(1125.541016 0)"/>
      <use xlink:href="#DejaVuSans-20" transform="translate(1177.640625 0)"/>
      <use xlink:href="#DejaVuSans-5b" transform="translate(1209.427734 0)"/>
      <use xlink:href="#DejaVuSans-6e" transform="translate(1248.441406 0)"/>
      <use xlink:href="#DejaVuSans-74" transform="translate(1311.820312 0)"/>
      <use xlink:href="#DejaVuSans-5d" transform="translate(1351.029297 0)"/>
     </g>
    </g>
   </g>
   <g id="matplotlib.axis_2">
    <g id="ytick_1">
     <g id="line2d_19">
      <path d="M 46.965625 369.201818 
L 401.765625 369.201818 
" clip-path="url(#p00790dc482)" style="fill: none; stroke-dasharray: 2.96,1.28; stroke-dashoffset: 0; stroke: #b0b0b0; stroke-opacity: 0.6; stroke-width: 0.8"/>
     </g>
     <g id="line2d_20">
      <defs>
       <path id="mc1110fefad" d="M 0 0 
L -3.5 0 
" style="stroke: #000000; stroke-width: 0.8"/>
      </defs>
      <g>
       <use xlink:href="#mc1110fefad" x="46.965625" y="369.201818" style="stroke: #000000; stroke-width: 0.8"/>
      </g>
     </g>
     <g id="text_11">
      <!-- 0 -->
      <g transform="translate(33.603125 373.001037) scale(0.1 -0.1)">
       <use xlink:href="#DejaVuSans-30"/>
      </g>
     </g>
    </g>
    <g id="ytick_2">
     <g id="line2d_21">
      <path d="M 46.965625 289.763192 
L 401.765625 289.763192 
" clip-path="url(#p00790dc482)" style="fill: none; stroke-dasharray: 2.96,1.28; stroke-dashoffset: 0; stroke: #b0b0b0; stroke-opacity: 0.6; stroke-width: 0.8"/>
     </g>
     <g id="line2d_22">
      <g>
       <use xlink:href="#mc1110fefad" x="46.965625" y="289.763192" style="stroke: #000000; stroke-width: 0.8"/>
      </g>
     </g>
     <g id="text_12">
      <!-- 50 -->
      <g transform="translate(27.240625 293.562411) scale(0.1 -0.1)">
       <use xlink:href="#DejaVuSans-35"/>
       <use xlink:href="#DejaVuSans-30" transform="translate(63.623047 0)"/>
      </g>
     </g>
    </g>
    <g id="ytick_3">
     <g id="line2d_23">
      <path d="M 46.965625 210.324566 
L 401.765625 210.324566 
" clip-path="url(#p00790dc482)" style="fill: none; stroke-dasharray: 2.96,1.28; stroke-dashoffset: 0; stroke: #b0b0b0; stroke-opacity: 0.6; stroke-width: 0.8"/>
     </g>
     <g id="line2d_24">
      <g>
       <use xlink:href="#mc1110fefad" x="46.965625" y="210.324566" style="stroke: #000000; stroke-width: 0.8"/>
      </g>
     </g>
     <g id="text_13">
      <!-- 100 -->
      <g transform="translate(20.878125 214.123785) scale(0.1 -0.1)">
       <use xlink:href="#DejaVuSans-31"/>
       <use xlink:href="#DejaVuSans-30" transform="translate(63.623047 0)"/>
       <use xlink:href="#DejaVuSans-30" transform="translate(127.246094 0)"/>
      </g>
     </g>
    </g>
    <g id="ytick_4">
     <g id="line2d_25">
      <path d="M 46.965625 130.885941 
L 401.765625 130.885941 
" clip-path="url(#p00790dc482)" style="fill: none; stroke-dasharray: 2.96,1.28; stroke-dashoffset: 0; stroke: #b0b0b0; stroke-opacity: 0.6; stroke-width: 0.8"/>
     </g>
     <g id="line2d_26">
      <g>
       <use xlink:href="#mc1110fefad" x="46.965625" y="130.885941" style="stroke: #000000; stroke-width: 0.8"/>
      </g>
     </g>
     <g id="text_14">
      <!-- 150 -->
      <g transform="translate(20.878125 134.685159) scale(0.1 -0.1)">
       <use xlink:href="#DejaVuSans-31"/>
       <use xlink:href="#DejaVuSans-35" transform="translate(63.623047 0)"/>
       <use xlink:href="#DejaVuSans-30" transform="translate(127.246094 0)"/>
      </g>
     </g>
    </g>
    <g id="ytick_5">
     <g id="line2d_27">
      <path d="M 46.965625 51.447315 
L 401.765625 51.447315 
" clip-path="url(#p00790dc482)" style="fill: none; stroke-dasharray: 2.96,1.28; stroke-dashoffset: 0; stroke: #b0b0b0; stroke-opacity: 0.6; stroke-width: 0.8"/>
     </g>
     <g id="line2d_28">
      <g>
       <use xlink:href="#mc1110fefad" x="46.965625" y="51.447315" style="stroke: #000000; stroke-width: 0.8"/>
      </g>
     </g>
     <g id="text_15">
      <!-- 200 -->
      <g transform="translate(20.878125 55.246533) scale(0.1 -0.1)">
       <use xlink:href="#DejaVuSans-32"/>
       <use xlink:href="#DejaVuSans-30" transform="translate(63.623047 0)"/>
       <use xlink:href="#DejaVuSans-30" transform="translate(127.246094 0)"/>
      </g>
     </g>
    </g>
    <g id="text_16">
     <!-- Average cumulative count -->
     <g transform="translate(14.798438 262.4325) rotate(-90) scale(0.1 -0.1)">
      <defs>
       <path id="DejaVuSans-41" d="M 2188 4044 
L 1331 1722 
L 3047 1722 
L 2188 4044 
z
M 1831 4666 
L 2547 4666 
L 4325 0 
L 3669 0 
L 3244 1197 
L 1141 1197 
L 716 0 
L 50 0 
L 1831 4666 
z
" transform="scale(0.015625)"/>
       <path id="DejaVuSans-76" d="M 191 3500 
L 800 3500 
L 1894 563 
L 2988 3500 
L 3597 3500 
L 2284 0 
L 1503 0 
L 191 3500 
z
" transform="scale(0.015625)"/>
       <path id="DejaVuSans-67" d="M 2906 1791 
Q 2906 2416 2648 2759 
Q 2391 3103 1925 3103 
Q 1463 3103 1205 2759 
Q 947 2416 947 1791 
Q 947 1169 1205 825 
Q 1463 481 1925 481 
Q 2391 481 2648 825 
Q 2906 1169 2906 1791 
z
M 3481 434 
Q 3481 -459 3084 -895 
Q 2688 -1331 1869 -1331 
Q 1566 -1331 1297 -1286 
Q 1028 -1241 775 -1147 
L 775 -588 
Q 1028 -725 1275 -790 
Q 1522 -856 1778 -856 
Q 2344 -856 2625 -561 
Q 2906 -266 2906 331 
L 2906 616 
Q 2728 306 2450 153 
Q 2172 0 1784 0 
Q 1141 0 747 490 
Q 353 981 353 1791 
Q 353 2603 747 3093 
Q 1141 3584 1784 3584 
Q 2172 3584 2450 3431 
Q 2728 3278 2906 2969 
L 2906 3500 
L 3481 3500 
L 3481 434 
z
" transform="scale(0.015625)"/>
       <path id="DejaVuSans-6c" d="M 603 4863 
L 1178 4863 
L 1178 0 
L 603 0 
L 603 4863 
z
" transform="scale(0.015625)"/>
      </defs>
      <use xlink:href="#DejaVuSans-41"/>
      <use xlink:href="#DejaVuSans-76" transform="translate(62.533203 0)"/>
      <use xlink:href="#DejaVuSans-65" transform="translate(121.712891 0)"/>
      <use xlink:href="#DejaVuSans-72" transform="translate(183.236328 0)"/>
      <use xlink:href="#DejaVuSans-61" transform="translate(224.349609 0)"/>
      <use xlink:href="#DejaVuSans-67" transform="translate(285.628906 0)"/>
      <use xlink:href="#DejaVuSans-65" transform="translate(349.105469 0)"/>
      <use xlink:href="#DejaVuSans-20" transform="translate(410.628906 0)"/>
      <use xlink:href="#DejaVuSans-63" transform="translate(442.416016 0)"/>
      <use xlink:href="#DejaVuSans-75" transform="translate(497.396484 0)"/>
      <use xlink:href="#DejaVuSans-6d" transform="translate(560.775391 0)"/>
      <use xlink:href="#DejaVuSans-75" transform="translate(658.1875 0)"/>
      <use xlink:href="#DejaVuSans-6c" transform="translate(721.566406 0)"/>
      <use xlink:href="#DejaVuSans-61" transform="translate(749.349609 0)"/>
      <use xlink:href="#DejaVuSans-74" transform="translate(810.628906 0)"/>
      <use xlink:href="#DejaVuSans-69" transform="translate(849.837891 0)"/>
      <use xlink:href="#DejaVuSans-76" transform="translate(877.621094 0)"/>
      <use xlink:href="#DejaVuSans-65" transform="translate(936.800781 0)"/>
      <use xlink:href="#DejaVuSans-20" transform="translate(998.324219 0)"/>
      <use xlink:href="#DejaVuSans-63" transform="translate(1030.111328 0)"/>
      <use xlink:href="#DejaVuSans-6f" transform="translate(1085.091797 0)"/>
      <use xlink:href="#DejaVuSans-75" transform="translate(1146.273438 0)"/>
      <use xlink:href="#DejaVuSans-6e" transform="translate(1209.652344 0)"/>
      <use xlink:href="#DejaVuSans-74" transform="translate(1273.03125 0)"/>
     </g>
    </g>
   </g>
   <g id="line2d_29">
    <path d="M 63.092898 369.201818 
L 77.88967 369.201818 
L 78.010625 368.672227 
L 115.304943 368.672227 
L 115.425898 368.142637 
L 385.598034 368.142637 
L 385.598034 368.142637 
" clip-path="url(#p00790dc482)" style="fill: none; stroke: #add8e6; stroke-width: 2; stroke-linecap: square"/>
   </g>
   <g id="line2d_30">
    <path d="M 63.092898 369.201818 
L 70.309852 369.201818 
L 70.430807 368.672227 
L 385.598034 368.672227 
L 385.598034 368.672227 
" clip-path="url(#p00790dc482)" style="fill: none; stroke: #6495ed; stroke-width: 2; stroke-linecap: square"/>
   </g>
   <g id="line2d_31">
    <path d="M 63.092898 368.142637 
L 63.49608 368.142637 
L 63.617034 367.083455 
L 63.93958 367.083455 
L 64.060534 366.024273 
L 64.38308 366.024273 
L 64.504034 364.965091 
L 64.82658 364.965091 
L 64.947534 363.90591 
L 65.27008 363.90591 
L 65.391034 362.846728 
L 65.71358 362.846728 
L 65.834534 361.787546 
L 65.955489 361.787546 
L 66.076443 361.257956 
L 66.15708 361.257956 
L 66.278034 360.198774 
L 66.398989 360.198774 
L 66.519943 359.669183 
L 66.60058 359.669183 
L 66.721534 358.610001 
L 67.04408 358.610001 
L 67.165034 357.55082 
L 67.48758 357.55082 
L 67.608534 356.491638 
L 67.850443 356.491638 
L 68.052034 354.902866 
L 68.37458 354.902866 
L 68.495534 353.843684 
L 68.81808 353.843684 
L 68.939034 352.784502 
L 69.26158 352.784502 
L 69.382534 351.72532 
L 69.46317 351.72532 
L 69.584125 351.19573 
L 69.70508 351.19573 
L 69.826034 350.136548 
L 70.14858 350.136548 
L 70.269534 349.077366 
L 70.59208 349.077366 
L 70.713034 348.018185 
L 70.79367 348.018185 
L 70.914625 347.488594 
L 71.03558 347.488594 
L 71.156534 346.429412 
L 71.23717 346.429412 
L 71.358125 345.899821 
L 71.47908 345.899821 
L 71.600034 344.84064 
L 71.68067 344.84064 
L 71.801625 344.311049 
L 71.92258 344.311049 
L 72.043534 343.781458 
L 72.12417 343.781458 
L 72.245125 343.251867 
L 72.325761 343.251867 
L 72.487034 342.192685 
L 72.56767 342.192685 
L 72.688625 341.663095 
L 72.769261 341.663095 
L 72.930534 340.603913 
L 73.01117 340.603913 
L 73.132125 340.074322 
L 73.212761 340.074322 
L 73.374034 339.01514 
L 73.45467 339.01514 
L 73.575625 338.48555 
L 73.69658 338.48555 
L 73.817534 337.955959 
L 74.059443 337.955959 
L 74.220716 336.896777 
L 74.34167 336.896777 
L 74.462625 336.367186 
L 74.502943 336.367186 
L 74.664216 335.308004 
L 74.78517 335.308004 
L 74.906125 334.778414 
L 75.02708 334.778414 
L 75.148034 334.248823 
L 75.349625 334.248823 
L 75.510898 333.189641 
L 75.793125 333.189641 
L 75.954398 331.600869 
L 76.236625 331.600869 
L 76.397898 330.541687 
L 76.680125 330.541687 
L 76.841398 329.482505 
L 77.042989 329.482505 
L 77.204261 328.423324 
L 77.24458 328.423324 
L 77.365534 327.893733 
L 77.567125 327.893733 
L 77.728398 326.834551 
L 78.010625 326.834551 
L 78.171898 325.775369 
L 78.33317 325.775369 
L 78.494443 324.716188 
L 78.57508 324.716188 
L 78.696034 324.186597 
L 78.77667 324.186597 
L 78.937943 323.127415 
L 79.01858 323.127415 
L 79.139534 322.597824 
L 79.22017 322.597824 
L 79.381443 321.538643 
L 79.46208 321.538643 
L 79.583034 321.009052 
L 79.66367 321.009052 
L 79.824943 319.94987 
L 79.90558 319.94987 
L 80.026534 319.420279 
L 80.10717 319.420279 
L 80.268443 318.361098 
L 80.34908 318.361098 
L 80.470034 317.831507 
L 80.55067 317.831507 
L 80.711943 316.772325 
L 80.79258 316.772325 
L 80.913534 316.242734 
L 80.99417 316.242734 
L 81.155443 315.183553 
L 81.23608 315.183553 
L 81.357034 314.653962 
L 81.43767 314.653962 
L 81.598943 313.59478 
L 81.67958 313.59478 
L 81.800534 313.065189 
L 81.88117 313.065189 
L 82.042443 312.006008 
L 82.12308 312.006008 
L 82.244034 311.476417 
L 82.32467 311.476417 
L 82.485943 310.417235 
L 82.56658 310.417235 
L 82.687534 309.887644 
L 82.889125 309.887644 
L 83.050398 308.828463 
L 83.171352 308.828463 
L 83.292307 308.298872 
L 83.332625 308.298872 
L 83.493898 307.23969 
L 83.614852 307.23969 
L 83.735807 306.710099 
L 83.776125 306.710099 
L 83.937398 305.650917 
L 84.058352 305.650917 
L 84.179307 305.121327 
L 84.219625 305.121327 
L 84.380898 304.062145 
L 84.501852 304.062145 
L 84.622807 303.532554 
L 84.663125 303.532554 
L 84.824398 302.473372 
L 84.945352 302.473372 
L 85.066307 301.943782 
L 85.106625 301.943782 
L 85.267898 300.8846 
L 85.388852 300.8846 
L 85.509807 300.355009 
L 85.550125 300.355009 
L 85.67108 299.825418 
L 85.832352 299.825418 
L 85.953307 299.295827 
L 85.993625 299.295827 
L 86.11458 298.766237 
L 86.154898 298.766237 
L 86.275852 298.236646 
L 86.437125 298.236646 
L 86.55808 297.707055 
L 86.679034 297.707055 
L 86.799989 297.177464 
L 86.880625 297.177464 
L 87.041898 296.118282 
L 87.122534 296.118282 
L 87.243489 295.588692 
L 87.324125 295.588692 
L 87.485398 294.52951 
L 87.566034 294.52951 
L 87.686989 293.999919 
L 87.767625 293.999919 
L 87.928898 292.940737 
L 88.009534 292.940737 
L 88.130489 292.411146 
L 88.211125 292.411146 
L 88.372398 291.351965 
L 88.453034 291.351965 
L 88.573989 290.822374 
L 88.654625 290.822374 
L 88.815898 289.763192 
L 88.896534 289.763192 
L 89.017489 289.233601 
L 89.098125 289.233601 
L 89.259398 288.17442 
L 89.340034 288.17442 
L 89.460989 287.644829 
L 89.541625 287.644829 
L 89.702898 286.585647 
L 89.783534 286.585647 
L 89.904489 286.056056 
L 89.985125 286.056056 
L 90.146398 284.996875 
L 90.227034 284.996875 
L 90.347989 284.467284 
L 90.428625 284.467284 
L 90.589898 283.408102 
L 90.670534 283.408102 
L 90.791489 282.878511 
L 90.872125 282.878511 
L 91.033398 281.81933 
L 91.114034 281.81933 
L 91.234989 281.289739 
L 91.315625 281.289739 
L 91.476898 280.230557 
L 91.557534 280.230557 
L 91.678489 279.700966 
L 91.759125 279.700966 
L 91.920398 278.641785 
L 92.001034 278.641785 
L 92.121989 278.112194 
L 92.202625 278.112194 
L 92.363898 277.053012 
L 92.444534 277.053012 
L 92.565489 276.523421 
L 92.646125 276.523421 
L 92.807398 275.46424 
L 92.888034 275.46424 
L 93.008989 274.934649 
L 93.089625 274.934649 
L 93.250898 273.875467 
L 93.331534 273.875467 
L 93.452489 273.345876 
L 93.533125 273.345876 
L 93.694398 272.286695 
L 93.775034 272.286695 
L 93.895989 271.757104 
L 93.976625 271.757104 
L 94.137898 270.697922 
L 94.218534 270.697922 
L 94.339489 270.168331 
L 94.420125 270.168331 
L 94.581398 269.10915 
L 94.662034 269.10915 
L 94.782989 268.579559 
L 94.863625 268.579559 
L 95.024898 267.520377 
L 95.105534 267.520377 
L 95.226489 266.990786 
L 95.307125 266.990786 
L 95.468398 265.931605 
L 95.549034 265.931605 
L 95.669989 265.402014 
L 95.750625 265.402014 
L 95.911898 264.342832 
L 95.992534 264.342832 
L 96.113489 263.813241 
L 96.234443 263.813241 
L 96.395716 262.754059 
L 96.436034 262.754059 
L 96.556989 262.224469 
L 96.677943 262.224469 
L 96.839216 261.165287 
L 96.879534 261.165287 
L 97.000489 260.635696 
L 97.161761 260.635696 
L 97.363352 259.046924 
L 97.605261 259.046924 
L 97.806852 257.458151 
L 98.048761 257.458151 
L 98.250352 255.869379 
L 98.492261 255.869379 
L 98.693852 254.280606 
L 98.935761 254.280606 
L 99.137352 252.691834 
L 99.379261 252.691834 
L 99.580852 251.103061 
L 99.86308 251.103061 
L 100.024352 249.514289 
L 100.30658 249.514289 
L 100.467852 247.925516 
L 100.75008 247.925516 
L 100.911352 246.336743 
L 101.19358 246.336743 
L 101.354852 244.747971 
L 101.63708 244.747971 
L 101.798352 243.159198 
L 102.08058 243.159198 
L 102.241852 241.570426 
L 102.52408 241.570426 
L 102.685352 239.981653 
L 102.96758 239.981653 
L 103.128852 238.392881 
L 103.41108 238.392881 
L 103.572352 236.804108 
L 103.85458 236.804108 
L 104.015852 235.215336 
L 104.29808 235.215336 
L 104.459352 233.626563 
L 104.74158 233.626563 
L 104.902852 232.567382 
L 105.18508 232.567382 
L 105.38667 230.978609 
L 105.62858 230.978609 
L 105.83017 229.389837 
L 106.07208 229.389837 
L 106.27367 227.801064 
L 106.51558 227.801064 
L 106.676852 226.741882 
L 106.95908 226.741882 
L 107.16067 225.15311 
L 107.40258 225.15311 
L 107.60417 223.564337 
L 107.84608 223.564337 
L 108.04767 221.975565 
L 108.28958 221.975565 
L 108.49117 220.386792 
L 108.73308 220.386792 
L 108.93467 218.79802 
L 109.17658 218.79802 
L 109.337852 217.738838 
L 109.62008 217.738838 
L 109.82167 216.150066 
L 110.06358 216.150066 
L 110.26517 214.561293 
L 110.50708 214.561293 
L 110.70867 212.972521 
L 110.95058 212.972521 
L 111.111852 211.913339 
L 111.39408 211.913339 
L 111.59567 210.324566 
L 111.83758 210.324566 
L 112.03917 208.735794 
L 112.28108 208.735794 
L 112.48267 207.147021 
L 112.72458 207.147021 
L 112.92617 205.558249 
L 113.16808 205.558249 
L 113.36967 203.969476 
L 113.61158 203.969476 
L 113.772852 202.910295 
L 114.05508 202.910295 
L 114.216352 201.851113 
L 114.458261 201.851113 
L 114.659852 200.26234 
L 114.94208 200.26234 
L 115.103352 199.203159 
L 115.38558 199.203159 
L 115.546852 198.143977 
L 115.748443 198.143977 
L 115.909716 197.084795 
L 115.950034 197.084795 
L 116.070989 196.555205 
L 116.191943 196.555205 
L 116.353216 195.496023 
L 116.393534 195.496023 
L 116.514489 194.966432 
L 116.635443 194.966432 
L 116.796716 193.90725 
L 116.837034 193.90725 
L 116.957989 193.37766 
L 117.078943 193.37766 
L 117.240216 192.318478 
L 117.280534 192.318478 
L 117.401489 191.788887 
L 117.522443 191.788887 
L 117.683716 190.729705 
L 117.965943 190.729705 
L 118.127216 189.670524 
L 118.167534 189.670524 
L 118.288489 189.140933 
L 118.409443 189.140933 
L 118.570716 188.081751 
L 118.611034 188.081751 
L 118.731989 187.55216 
L 118.852943 187.55216 
L 119.014216 186.492979 
L 119.054534 186.492979 
L 119.175489 185.963388 
L 119.296443 185.963388 
L 119.457716 184.904206 
L 119.498034 184.904206 
L 119.618989 184.374615 
L 119.739943 184.374615 
L 119.901216 183.315434 
L 119.941534 183.315434 
L 120.062489 182.785843 
L 120.26408 182.785843 
L 120.425352 181.726661 
L 120.586625 181.726661 
L 120.747898 180.667479 
L 120.828534 180.667479 
L 120.949489 180.137889 
L 121.030125 180.137889 
L 121.191398 179.078707 
L 121.272034 179.078707 
L 121.392989 178.549116 
L 121.473625 178.549116 
L 121.634898 177.489934 
L 121.715534 177.489934 
L 121.836489 176.960344 
L 121.917125 176.960344 
L 122.078398 175.901162 
L 122.159034 175.901162 
L 122.279989 175.371571 
L 122.360625 175.371571 
L 122.521898 174.312389 
L 122.602534 174.312389 
L 122.723489 173.782798 
L 122.804125 173.782798 
L 122.965398 172.723617 
L 123.046034 172.723617 
L 123.166989 172.194026 
L 123.247625 172.194026 
L 123.408898 171.134844 
L 123.489534 171.134844 
L 123.610489 170.605253 
L 123.81208 170.605253 
L 123.973352 169.546072 
L 124.134625 169.546072 
L 124.295898 168.48689 
L 124.376534 168.48689 
L 124.497489 167.957299 
L 124.578125 167.957299 
L 124.739398 166.898118 
L 124.820034 166.898118 
L 124.940989 166.368527 
L 125.021625 166.368527 
L 125.14258 165.838936 
L 125.465125 165.838936 
L 125.58608 165.309345 
L 125.626398 165.309345 
L 125.747352 164.779754 
L 125.908625 164.779754 
L 126.02958 164.250163 
L 126.069898 164.250163 
L 126.190852 163.720573 
L 126.352125 163.720573 
L 126.47308 163.190982 
L 126.513398 163.190982 
L 126.634352 162.661391 
L 126.795625 162.661391 
L 126.91658 162.1318 
L 126.956898 162.1318 
L 127.077852 161.602209 
L 127.239125 161.602209 
L 127.36008 161.072618 
L 127.400398 161.072618 
L 127.521352 160.543028 
L 127.682625 160.543028 
L 127.80358 160.013437 
L 127.843898 160.013437 
L 127.964852 159.483846 
L 128.126125 159.483846 
L 128.24708 158.954255 
L 128.287398 158.954255 
L 128.408352 158.424664 
L 128.569625 158.424664 
L 128.69058 157.895073 
L 128.730898 157.895073 
L 128.851852 157.365482 
L 129.013125 157.365482 
L 129.13408 156.835892 
L 129.456625 156.835892 
L 129.617898 155.77671 
L 129.900125 155.77671 
L 130.061398 154.717528 
L 130.343625 154.717528 
L 130.504898 153.658347 
L 130.90808 153.658347 
L 131.029034 153.128756 
L 131.270943 153.128756 
L 131.432216 152.069574 
L 131.714443 152.069574 
L 131.875716 151.010392 
L 132.157943 151.010392 
L 132.319216 149.951211 
L 132.601443 149.951211 
L 132.762716 148.892029 
L 133.044943 148.892029 
L 133.206216 147.832847 
L 133.488443 147.832847 
L 133.649716 146.773666 
L 133.931943 146.773666 
L 134.093216 145.714484 
L 134.375443 145.714484 
L 134.536716 144.655302 
L 134.818943 144.655302 
L 134.980216 143.596121 
L 135.262443 143.596121 
L 135.423716 142.536939 
L 135.705943 142.536939 
L 135.826898 142.007348 
L 136.149443 142.007348 
L 136.310716 140.948166 
L 136.592943 140.948166 
L 136.754216 139.888985 
L 137.036443 139.888985 
L 137.197716 138.829803 
L 137.479943 138.829803 
L 137.641216 137.770621 
L 137.923443 137.770621 
L 138.084716 136.71144 
L 138.366943 136.71144 
L 138.528216 135.652258 
L 138.810443 135.652258 
L 138.971716 134.593076 
L 139.253943 134.593076 
L 139.415216 133.533895 
L 139.697443 133.533895 
L 139.858716 132.474713 
L 140.140943 132.474713 
L 140.302216 131.415531 
L 140.584443 131.415531 
L 140.745716 130.35635 
L 141.027943 130.35635 
L 141.189216 129.297168 
L 141.471443 129.297168 
L 141.632716 128.237986 
L 141.914943 128.237986 
L 142.076216 127.178805 
L 142.358443 127.178805 
L 142.519716 126.119623 
L 142.801943 126.119623 
L 142.963216 125.060441 
L 143.245443 125.060441 
L 143.406716 124.00126 
L 143.688943 124.00126 
L 143.850216 122.942078 
L 144.132443 122.942078 
L 144.293716 121.882896 
L 144.616261 121.882896 
L 144.737216 121.353305 
L 145.059761 121.353305 
L 145.180716 120.294124 
L 145.503261 120.294124 
L 145.624216 119.234942 
L 145.946761 119.234942 
L 146.067716 118.17576 
L 146.390261 118.17576 
L 146.511216 117.116579 
L 146.833761 117.116579 
L 146.954716 116.057397 
L 147.277261 116.057397 
L 147.398216 114.998215 
L 147.720761 114.998215 
L 147.841716 113.939034 
L 148.164261 113.939034 
L 148.285216 112.879852 
L 148.607761 112.879852 
L 148.728716 111.82067 
L 149.051261 111.82067 
L 149.172216 110.761489 
L 149.494761 110.761489 
L 149.656034 109.702307 
L 149.938261 109.702307 
L 150.099534 108.643125 
L 150.381761 108.643125 
L 150.543034 107.583944 
L 150.825261 107.583944 
L 150.946216 107.054353 
L 151.268761 107.054353 
L 151.389716 105.995171 
L 151.712261 105.995171 
L 151.873534 104.935989 
L 152.155761 104.935989 
L 152.276716 104.406399 
L 152.599261 104.406399 
L 152.760534 102.817626 
L 153.042761 102.817626 
L 153.163716 101.758444 
L 153.486261 101.758444 
L 153.607216 100.699263 
L 153.929761 100.699263 
L 154.050716 99.640081 
L 154.373261 99.640081 
L 154.494216 98.580899 
L 154.816761 98.580899 
L 154.937716 97.521718 
L 155.663443 97.521718 
L 155.784398 96.462536 
L 156.106943 96.462536 
L 156.227898 95.932945 
L 156.550443 95.932945 
L 156.711716 94.873763 
L 156.993943 94.873763 
L 157.155216 93.814582 
L 157.437443 93.814582 
L 157.598716 92.7554 
L 157.880943 92.7554 
L 158.042216 91.696218 
L 158.324443 91.696218 
L 158.485716 90.637037 
L 158.767943 90.637037 
L 158.888898 90.107446 
L 159.211443 90.107446 
L 159.372716 89.048264 
L 159.654943 89.048264 
L 159.816216 87.989083 
L 160.098443 87.989083 
L 160.300034 86.40031 
L 160.541943 86.40031 
L 160.703216 85.341128 
L 160.985443 85.341128 
L 161.146716 84.281947 
L 161.428943 84.281947 
L 161.590216 83.222765 
L 161.872443 83.222765 
L 162.033716 82.163583 
L 162.315943 82.163583 
L 162.477216 81.104402 
L 167.557307 81.104402 
L 167.678261 80.574811 
L 174.975852 80.574811 
L 175.096807 80.04522 
L 182.394398 80.04522 
L 182.515352 79.515629 
L 189.853261 79.515629 
L 189.974216 78.986038 
L 190.296761 78.986038 
L 190.458034 77.926857 
L 197.271807 77.926857 
L 197.392761 77.397266 
L 197.674989 77.397266 
L 197.795943 76.867675 
L 204.690352 76.867675 
L 204.811307 76.338084 
L 205.093534 76.338084 
L 205.254807 75.278902 
L 212.108898 75.278902 
L 212.229852 74.749312 
L 212.51208 74.749312 
L 212.673352 73.69013 
L 219.527443 73.69013 
L 219.648398 73.160539 
L 219.930625 73.160539 
L 220.091898 72.101357 
L 226.945989 72.101357 
L 227.066943 71.571767 
L 227.34917 71.571767 
L 227.510443 70.512585 
L 234.767716 70.512585 
L 234.969307 68.923812 
L 242.22658 68.923812 
L 242.42817 67.33504 
L 249.645125 67.33504 
L 249.806398 66.275858 
L 249.846716 66.275858 
L 249.96767 65.746267 
L 257.06367 65.746267 
L 257.224943 64.687086 
L 257.265261 64.687086 
L 257.386216 64.157495 
L 264.482216 64.157495 
L 264.643489 63.098313 
L 264.683807 63.098313 
L 264.804761 62.568722 
L 271.900761 62.568722 
L 272.021716 62.039131 
L 272.465216 62.039131 
L 272.626489 60.97995 
L 279.319307 60.97995 
L 279.440261 60.450359 
L 279.843443 60.450359 
L 279.964398 59.920768 
L 280.004716 59.920768 
L 280.12567 59.391177 
L 287.181352 59.391177 
L 287.342625 58.331996 
L 287.46358 58.331996 
L 287.584534 57.802405 
L 294.599898 57.802405 
L 294.720852 57.272814 
L 294.76117 57.272814 
L 294.922443 56.213632 
L 302.018443 56.213632 
L 302.139398 55.684041 
L 302.30067 55.684041 
L 302.421625 54.62486 
L 309.436989 54.62486 
L 309.557943 54.095269 
L 309.719216 54.095269 
L 309.84017 53.036087 
L 317.17808 53.036087 
L 317.37967 51.447315 
L 324.677261 51.447315 
L 324.798216 50.917724 
L 325.040125 50.917724 
L 325.16108 49.858542 
L 332.095807 49.858542 
L 332.216761 49.328951 
L 332.45867 49.328951 
L 332.579625 48.26977 
L 339.514352 48.26977 
L 339.635307 47.740179 
L 339.877216 47.740179 
L 339.99817 46.680997 
L 346.932898 46.680997 
L 347.053852 46.151406 
L 347.295761 46.151406 
L 347.457034 45.092225 
L 354.794943 45.092225 
L 354.915898 44.562634 
L 355.238443 44.562634 
L 355.359398 43.503452 
L 362.213489 43.503452 
L 362.334443 42.973861 
L 362.656989 42.973861 
L 362.777943 41.91468 
L 369.632034 41.91468 
L 369.752989 41.385089 
L 370.115852 41.385089 
L 370.277125 40.325907 
L 377.05058 40.325907 
L 377.171534 39.796316 
L 377.534398 39.796316 
L 377.69567 38.737134 
L 384.509443 38.737134 
L 384.630398 38.207544 
L 384.952943 38.207544 
L 385.114216 37.148362 
L 385.598034 37.148362 
L 385.598034 37.148362 
" clip-path="url(#p00790dc482)" style="fill: none; stroke: #00008b; stroke-width: 2; stroke-linecap: square"/>
   </g>
   <g id="line2d_32">
    <path d="M 385.638352 369.201818 
L 168.968443 369.201818 
L 168.847489 367.613046 
L 162.033716 367.613046 
L 161.912761 366.024273 
L 63.133216 366.024273 
L 63.133216 366.024273 
" clip-path="url(#p00790dc482)" style="fill: none; stroke-dasharray: 7.4,3.2; stroke-dashoffset: 0; stroke: #fa8072; stroke-width: 2"/>
   </g>
   <g id="line2d_33">
    <path d="M 385.638352 369.201818 
L 63.133216 369.201818 
L 63.133216 369.201818 
" clip-path="url(#p00790dc482)" style="fill: none; stroke-dasharray: 7.4,3.2; stroke-dashoffset: 0; stroke: #ff4500; stroke-width: 2"/>
   </g>
   <g id="line2d_34">
    <path d="M 385.638352 369.201818 
L 174.612989 369.201818 
L 174.492034 367.613046 
L 174.169489 367.613046 
L 174.048534 366.024273 
L 173.725989 366.024273 
L 173.605034 364.435501 
L 173.282489 364.435501 
L 173.161534 362.846728 
L 172.838989 362.846728 
L 172.718034 361.257956 
L 172.395489 361.257956 
L 172.274534 359.669183 
L 171.951989 359.669183 
L 171.831034 358.080411 
L 171.105307 358.080411 
L 170.984352 356.491638 
L 170.258625 356.491638 
L 170.13767 354.902866 
L 169.815125 354.902866 
L 169.69417 353.314093 
L 168.121761 353.314093 
L 168.000807 351.72532 
L 167.678261 351.72532 
L 167.557307 350.136548 
L 167.234761 350.136548 
L 167.113807 348.547775 
L 166.791261 348.547775 
L 166.670307 346.959003 
L 166.347761 346.959003 
L 166.226807 345.37023 
L 165.904261 345.37023 
L 165.783307 343.781458 
L 165.05758 343.781458 
L 164.936625 342.192685 
L 164.61408 342.192685 
L 164.493125 340.603913 
L 163.767398 340.603913 
L 163.646443 339.01514 
L 162.920716 339.01514 
L 162.799761 337.426368 
L 162.477216 337.426368 
L 162.356261 335.837595 
L 161.187034 335.837595 
L 161.06608 334.248823 
L 160.743534 334.248823 
L 160.62258 332.66005 
L 160.300034 332.66005 
L 160.17908 331.071278 
L 159.453352 331.071278 
L 159.332398 329.482505 
L 159.009852 329.482505 
L 158.888898 327.893733 
L 158.566352 327.893733 
L 158.445398 326.30496 
L 158.122852 326.30496 
L 158.001898 324.716188 
L 157.679352 324.716188 
L 157.558398 323.127415 
L 157.235852 323.127415 
L 157.114898 321.538643 
L 156.792352 321.538643 
L 156.671398 319.94987 
L 156.348852 319.94987 
L 156.227898 318.361098 
L 155.905352 318.361098 
L 155.784398 316.772325 
L 155.461852 316.772325 
L 155.340898 315.183553 
L 155.018352 315.183553 
L 154.897398 313.59478 
L 154.574852 313.59478 
L 154.453898 312.006008 
L 154.131352 312.006008 
L 154.010398 310.417235 
L 153.687852 310.417235 
L 153.566898 308.828463 
L 153.244352 308.828463 
L 153.123398 307.23969 
L 152.800852 307.23969 
L 152.679898 305.650917 
L 152.357352 305.650917 
L 152.236398 304.062145 
L 151.913852 304.062145 
L 151.792898 302.473372 
L 151.470352 302.473372 
L 151.349398 300.8846 
L 151.026852 300.8846 
L 150.905898 299.295827 
L 150.583352 299.295827 
L 150.462398 297.707055 
L 149.73667 297.707055 
L 149.615716 296.118282 
L 149.29317 296.118282 
L 149.172216 294.52951 
L 148.84967 294.52951 
L 148.728716 292.940737 
L 148.40617 292.940737 
L 148.285216 291.351965 
L 147.96267 291.351965 
L 147.841716 289.763192 
L 147.51917 289.763192 
L 147.398216 288.17442 
L 147.07567 288.17442 
L 146.954716 286.585647 
L 146.63217 286.585647 
L 146.511216 284.996875 
L 146.18867 284.996875 
L 146.067716 283.408102 
L 145.74517 283.408102 
L 145.624216 281.81933 
L 145.30167 281.81933 
L 145.180716 280.230557 
L 144.85817 280.230557 
L 144.737216 278.641785 
L 144.41467 278.641785 
L 144.293716 277.053012 
L 143.97117 277.053012 
L 143.850216 275.46424 
L 143.124489 275.46424 
L 143.003534 273.875467 
L 142.680989 273.875467 
L 142.560034 272.286695 
L 142.237489 272.286695 
L 142.116534 270.697922 
L 140.987625 270.697922 
L 140.86667 269.10915 
L 140.544125 269.10915 
L 140.42317 267.520377 
L 140.100625 267.520377 
L 139.97967 265.931605 
L 139.657125 265.931605 
L 139.53617 264.342832 
L 139.213625 264.342832 
L 139.09267 262.754059 
L 138.770125 262.754059 
L 138.64917 261.165287 
L 138.326625 261.165287 
L 138.20567 259.576514 
L 137.883125 259.576514 
L 137.76217 257.987742 
L 137.036443 257.987742 
L 136.915489 256.398969 
L 136.592943 256.398969 
L 136.471989 254.810197 
L 135.665625 254.810197 
L 135.54467 253.221424 
L 135.222125 253.221424 
L 135.10117 251.632652 
L 134.778625 251.632652 
L 134.65767 250.043879 
L 134.335125 250.043879 
L 134.21417 248.455107 
L 133.891625 248.455107 
L 133.77067 246.866334 
L 133.448125 246.866334 
L 133.32717 245.277562 
L 133.004625 245.277562 
L 132.88367 243.688789 
L 132.157943 243.688789 
L 132.036989 242.100017 
L 131.714443 242.100017 
L 131.593489 240.511244 
L 131.270943 240.511244 
L 131.149989 238.922472 
L 130.424261 238.922472 
L 130.303307 237.333699 
L 129.57758 237.333699 
L 129.456625 235.744927 
L 128.69058 235.744927 
L 128.569625 234.156154 
L 128.24708 234.156154 
L 128.126125 232.567382 
L 127.80358 232.567382 
L 127.682625 230.978609 
L 127.36008 230.978609 
L 127.239125 229.389837 
L 126.91658 229.389837 
L 126.795625 227.801064 
L 126.47308 227.801064 
L 126.352125 226.212292 
L 126.02958 226.212292 
L 125.908625 224.623519 
L 125.58608 224.623519 
L 125.465125 223.034747 
L 125.14258 223.034747 
L 125.021625 221.445974 
L 124.69908 221.445974 
L 124.578125 219.857202 
L 124.25558 219.857202 
L 124.134625 218.268429 
L 123.81208 218.268429 
L 123.691125 216.679656 
L 122.965398 216.679656 
L 122.844443 215.090884 
L 122.521898 215.090884 
L 122.400943 213.502111 
L 122.078398 213.502111 
L 121.957443 211.913339 
L 121.634898 211.913339 
L 121.513943 210.324566 
L 121.191398 210.324566 
L 121.070443 208.735794 
L 120.747898 208.735794 
L 120.626943 207.147021 
L 120.304398 207.147021 
L 120.183443 205.558249 
L 119.860898 205.558249 
L 119.739943 203.969476 
L 119.417398 203.969476 
L 119.296443 202.380704 
L 118.973898 202.380704 
L 118.852943 200.791931 
L 118.530398 200.791931 
L 118.409443 199.203159 
L 118.086898 199.203159 
L 117.965943 197.614386 
L 117.643398 197.614386 
L 117.522443 196.025614 
L 117.199898 196.025614 
L 117.078943 194.436841 
L 116.756398 194.436841 
L 116.635443 192.848069 
L 116.312898 192.848069 
L 116.191943 191.259296 
L 115.869398 191.259296 
L 115.748443 189.670524 
L 115.425898 189.670524 
L 115.304943 188.081751 
L 114.579216 188.081751 
L 114.458261 186.492979 
L 114.135716 186.492979 
L 114.014761 184.904206 
L 113.692216 184.904206 
L 113.571261 183.315434 
L 113.248716 183.315434 
L 113.127761 181.726661 
L 112.805216 181.726661 
L 112.684261 180.137889 
L 112.361716 180.137889 
L 112.240761 178.549116 
L 111.918216 178.549116 
L 111.797261 176.960344 
L 111.474716 176.960344 
L 111.353761 175.371571 
L 111.031216 175.371571 
L 110.910261 173.782798 
L 110.587716 173.782798 
L 110.466761 172.194026 
L 110.144216 172.194026 
L 110.023261 170.605253 
L 109.700716 170.605253 
L 109.579761 169.016481 
L 109.257216 169.016481 
L 109.136261 167.427708 
L 108.813716 167.427708 
L 108.692761 165.838936 
L 108.370216 165.838936 
L 108.249261 164.250163 
L 107.926716 164.250163 
L 107.805761 162.661391 
L 107.483216 162.661391 
L 107.362261 161.072618 
L 107.039716 161.072618 
L 106.918761 159.483846 
L 106.596216 159.483846 
L 106.475261 157.895073 
L 106.152716 157.895073 
L 106.031761 156.306301 
L 105.709216 156.306301 
L 105.588261 154.717528 
L 105.265716 154.717528 
L 105.144761 153.128756 
L 104.822216 153.128756 
L 104.701261 151.539983 
L 104.378716 151.539983 
L 104.257761 149.951211 
L 103.935216 149.951211 
L 103.814261 148.362438 
L 103.491716 148.362438 
L 103.370761 146.773666 
L 103.048216 146.773666 
L 102.927261 145.184893 
L 102.604716 145.184893 
L 102.483761 143.596121 
L 102.161216 143.596121 
L 102.040261 142.007348 
L 101.717716 142.007348 
L 101.596761 140.418576 
L 101.274216 140.418576 
L 101.153261 138.829803 
L 100.830716 138.829803 
L 100.709761 137.241031 
L 100.387216 137.241031 
L 100.266261 135.652258 
L 99.540534 135.652258 
L 99.41958 134.063486 
L 99.097034 134.063486 
L 98.97608 132.474713 
L 98.653534 132.474713 
L 98.53258 130.885941 
L 98.210034 130.885941 
L 98.08908 129.297168 
L 97.363352 129.297168 
L 97.242398 127.708395 
L 96.919852 127.708395 
L 96.798898 126.119623 
L 96.476352 126.119623 
L 96.355398 124.53085 
L 96.032852 124.53085 
L 95.911898 122.942078 
L 95.589352 122.942078 
L 95.468398 121.353305 
L 95.145852 121.353305 
L 95.024898 119.764533 
L 94.702352 119.764533 
L 94.581398 118.17576 
L 94.258852 118.17576 
L 94.137898 116.586988 
L 93.815352 116.586988 
L 93.694398 114.998215 
L 93.371852 114.998215 
L 93.250898 113.409443 
L 92.928352 113.409443 
L 92.807398 111.82067 
L 92.484852 111.82067 
L 92.363898 110.231898 
L 92.041352 110.231898 
L 91.920398 108.643125 
L 91.597852 108.643125 
L 91.476898 107.054353 
L 91.154352 107.054353 
L 91.033398 105.46558 
L 90.710852 105.46558 
L 90.589898 103.876808 
L 90.267352 103.876808 
L 90.146398 102.288035 
L 89.823852 102.288035 
L 89.702898 100.699263 
L 89.380352 100.699263 
L 89.259398 99.11049 
L 88.936852 99.11049 
L 88.815898 97.521718 
L 88.493352 97.521718 
L 88.372398 95.932945 
L 88.049852 95.932945 
L 87.928898 94.344173 
L 87.606352 94.344173 
L 87.485398 92.7554 
L 87.162852 92.7554 
L 87.041898 91.166628 
L 86.719352 91.166628 
L 86.598398 89.577855 
L 86.275852 89.577855 
L 86.154898 87.989083 
L 85.832352 87.989083 
L 85.711398 86.40031 
L 85.388852 86.40031 
L 85.267898 84.811537 
L 84.945352 84.811537 
L 84.824398 83.222765 
L 84.501852 83.222765 
L 84.380898 81.633992 
L 84.058352 81.633992 
L 83.937398 80.04522 
L 83.614852 80.04522 
L 83.493898 78.456447 
L 83.171352 78.456447 
L 83.050398 76.867675 
L 82.727852 76.867675 
L 82.606898 75.278902 
L 82.284352 75.278902 
L 82.163398 73.69013 
L 81.840852 73.69013 
L 81.719898 72.101357 
L 81.397352 72.101357 
L 81.276398 70.512585 
L 80.953852 70.512585 
L 80.832898 68.923812 
L 80.510352 68.923812 
L 80.389398 67.33504 
L 80.066852 67.33504 
L 79.945898 65.746267 
L 79.623352 65.746267 
L 79.502398 64.157495 
L 78.696034 64.157495 
L 78.57508 62.568722 
L 78.252534 62.568722 
L 78.13158 60.97995 
L 77.809034 60.97995 
L 77.68808 59.391177 
L 77.325216 59.391177 
L 77.204261 57.802405 
L 76.397898 57.802405 
L 76.276943 56.213632 
L 75.954398 56.213632 
L 75.833443 54.62486 
L 75.510898 54.62486 
L 75.389943 53.036087 
L 75.067398 53.036087 
L 74.946443 51.447315 
L 74.623898 51.447315 
L 74.502943 49.858542 
L 74.180398 49.858542 
L 74.059443 48.26977 
L 73.736898 48.26977 
L 73.615943 46.680997 
L 73.293398 46.680997 
L 73.172443 45.092225 
L 72.80958 45.092225 
L 72.688625 43.503452 
L 71.882261 43.503452 
L 71.761307 41.91468 
L 71.438761 41.91468 
L 71.317807 40.325907 
L 70.995261 40.325907 
L 70.874307 38.737134 
L 70.551761 38.737134 
L 70.430807 37.148362 
L 70.108261 37.148362 
L 69.987307 35.559589 
L 69.664761 35.559589 
L 69.543807 33.970817 
L 69.221261 33.970817 
L 69.100307 32.382044 
L 68.777761 32.382044 
L 68.656807 30.793272 
L 68.334261 30.793272 
L 68.213307 29.204499 
L 67.447261 29.204499 
L 67.326307 27.615727 
L 67.003761 27.615727 
L 66.882807 26.026954 
L 64.100852 26.026954 
L 63.979898 24.438182 
L 63.133216 24.438182 
L 63.133216 24.438182 
" clip-path="url(#p00790dc482)" style="fill: none; stroke-dasharray: 7.4,3.2; stroke-dashoffset: 0; stroke: #8b0000; stroke-width: 2"/>
   </g>
   <g id="patch_3">
    <path d="M 46.965625 386.44 
L 46.965625 7.2 
" style="fill: none; stroke: #000000; stroke-width: 0.8; stroke-linejoin: miter; stroke-linecap: square"/>
   </g>
   <g id="patch_4">
    <path d="M 401.765625 386.44 
L 401.765625 7.2 
" style="fill: none; stroke: #000000; stroke-width: 0.8; stroke-linejoin: miter; stroke-linecap: square"/>
   </g>
   <g id="patch_5">
    <path d="M 46.965625 386.44 
L 401.765625 386.44 
" style="fill: none; stroke: #000000; stroke-width: 0.8; stroke-linejoin: miter; stroke-linecap: square"/>
   </g>
   <g id="patch_6">
    <path d="M 46.965625 7.2 
L 401.765625 7.2 
" style="fill: none; stroke: #000000; stroke-width: 0.8; stroke-linejoin: miter; stroke-linecap: square"/>
   </g>
   <g id="legend_1">
    <g id="patch_7">
     <path d="M 408.765625 117.946875 
L 558.923437 117.946875 
Q 560.923437 117.946875 560.923437 115.946875 
L 560.923437 14.2 
Q 560.923437 12.2 558.923437 12.2 
L 408.765625 12.2 
Q 406.765625 12.2 406.765625 14.2 
L 406.765625 115.946875 
Q 406.765625 117.946875 408.765625 117.946875 
z
" style="fill: #ffffff; opacity: 0.8; stroke: #cccccc; stroke-linejoin: miter"/>
    </g>
    <g id="text_17">
     <!-- Motifs &amp; orientation -->
     <g transform="translate(434.328906 23.798437) scale(0.1 -0.1)">
      <defs>
       <path id="DejaVuSans-4d" d="M 628 4666 
L 1569 4666 
L 2759 1491 
L 3956 4666 
L 4897 4666 
L 4897 0 
L 4281 0 
L 4281 4097 
L 3078 897 
L 2444 897 
L 1241 4097 
L 1241 0 
L 628 0 
L 628 4666 
z
" transform="scale(0.015625)"/>
       <path id="DejaVuSans-26" d="M 1556 2509 
Q 1272 2256 1139 2004 
Q 1006 1753 1006 1478 
Q 1006 1022 1337 719 
Q 1669 416 2169 416 
Q 2466 416 2725 514 
Q 2984 613 3213 813 
L 1556 2509 
z
M 1997 2859 
L 3584 1234 
Q 3769 1513 3872 1830 
Q 3975 2147 3994 2503 
L 4575 2503 
Q 4538 2091 4375 1687 
Q 4213 1284 3922 891 
L 4794 0 
L 4006 0 
L 3559 459 
Q 3234 181 2878 45 
Q 2522 -91 2113 -91 
Q 1359 -91 881 339 
Q 403 769 403 1441 
Q 403 1841 612 2192 
Q 822 2544 1241 2853 
Q 1091 3050 1012 3245 
Q 934 3441 934 3628 
Q 934 4134 1281 4442 
Q 1628 4750 2203 4750 
Q 2463 4750 2720 4694 
Q 2978 4638 3244 4525 
L 3244 3956 
Q 2972 4103 2725 4179 
Q 2478 4256 2266 4256 
Q 1938 4256 1733 4082 
Q 1528 3909 1528 3634 
Q 1528 3475 1620 3314 
Q 1713 3153 1997 2859 
z
" transform="scale(0.015625)"/>
      </defs>
      <use xlink:href="#DejaVuSans-4d"/>
      <use xlink:href="#DejaVuSans-6f" transform="translate(86.279297 0)"/>
      <use xlink:href="#DejaVuSans-74" transform="translate(147.460938 0)"/>
      <use xlink:href="#DejaVuSans-69" transform="translate(186.669922 0)"/>
      <use xlink:href="#DejaVuSans-66" transform="translate(214.453125 0)"/>
      <use xlink:href="#DejaVuSans-73" transform="translate(249.658203 0)"/>
      <use xlink:href="#DejaVuSans-20" transform="translate(301.757812 0)"/>
      <use xlink:href="#DejaVuSans-26" transform="translate(333.544922 0)"/>
      <use xlink:href="#DejaVuSans-20" transform="translate(411.523438 0)"/>
      <use xlink:href="#DejaVuSans-6f" transform="translate(443.310547 0)"/>
      <use xlink:href="#DejaVuSans-72" transform="translate(504.492188 0)"/>
      <use xlink:href="#DejaVuSans-69" transform="translate(545.605469 0)"/>
      <use xlink:href="#DejaVuSans-65" transform="translate(573.388672 0)"/>
      <use xlink:href="#DejaVuSans-6e" transform="translate(634.912109 0)"/>
      <use xlink:href="#DejaVuSans-74" transform="translate(698.291016 0)"/>
      <use xlink:href="#DejaVuSans-61" transform="translate(737.5 0)"/>
      <use xlink:href="#DejaVuSans-74" transform="translate(798.779297 0)"/>
      <use xlink:href="#DejaVuSans-69" transform="translate(837.988281 0)"/>
      <use xlink:href="#DejaVuSans-6f" transform="translate(865.771484 0)"/>
      <use xlink:href="#DejaVuSans-6e" transform="translate(926.953125 0)"/>
     </g>
    </g>
    <g id="line2d_35">
     <path d="M 410.765625 34.976562 
L 420.765625 34.976562 
L 430.765625 34.976562 
" style="fill: none; stroke: #add8e6; stroke-width: 2; stroke-linecap: square"/>
    </g>
    <g id="text_18">
     <!-- CCCGAGACTAA (5' end) -->
     <g transform="translate(438.765625 38.476562) scale(0.1 -0.1)">
      <defs>
       <path id="DejaVuSans-43" d="M 4122 4306 
L 4122 3641 
Q 3803 3938 3442 4084 
Q 3081 4231 2675 4231 
Q 1875 4231 1450 3742 
Q 1025 3253 1025 2328 
Q 1025 1406 1450 917 
Q 1875 428 2675 428 
Q 3081 428 3442 575 
Q 3803 722 4122 1019 
L 4122 359 
Q 3791 134 3420 21 
Q 3050 -91 2638 -91 
Q 1578 -91 968 557 
Q 359 1206 359 2328 
Q 359 3453 968 4101 
Q 1578 4750 2638 4750 
Q 3056 4750 3426 4639 
Q 3797 4528 4122 4306 
z
" transform="scale(0.015625)"/>
       <path id="DejaVuSans-47" d="M 3809 666 
L 3809 1919 
L 2778 1919 
L 2778 2438 
L 4434 2438 
L 4434 434 
Q 4069 175 3628 42 
Q 3188 -91 2688 -91 
Q 1594 -91 976 548 
Q 359 1188 359 2328 
Q 359 3472 976 4111 
Q 1594 4750 2688 4750 
Q 3144 4750 3555 4637 
Q 3966 4525 4313 4306 
L 4313 3634 
Q 3963 3931 3569 4081 
Q 3175 4231 2741 4231 
Q 1884 4231 1454 3753 
Q 1025 3275 1025 2328 
Q 1025 1384 1454 906 
Q 1884 428 2741 428 
Q 3075 428 3337 486 
Q 3600 544 3809 666 
z
" transform="scale(0.015625)"/>
       <path id="DejaVuSans-54" d="M -19 4666 
L 3928 4666 
L 3928 4134 
L 2272 4134 
L 2272 0 
L 1638 0 
L 1638 4134 
L -19 4134 
L -19 4666 
z
" transform="scale(0.015625)"/>
       <path id="DejaVuSans-28" d="M 1984 4856 
Q 1566 4138 1362 3434 
Q 1159 2731 1159 2009 
Q 1159 1288 1364 580 
Q 1569 -128 1984 -844 
L 1484 -844 
Q 1016 -109 783 600 
Q 550 1309 550 2009 
Q 550 2706 781 3412 
Q 1013 4119 1484 4856 
L 1984 4856 
z
" transform="scale(0.015625)"/>
       <path id="DejaVuSans-27" d="M 1147 4666 
L 1147 2931 
L 616 2931 
L 616 4666 
L 1147 4666 
z
" transform="scale(0.015625)"/>
       <path id="DejaVuSans-64" d="M 2906 2969 
L 2906 4863 
L 3481 4863 
L 3481 0 
L 2906 0 
L 2906 525 
Q 2725 213 2448 61 
Q 2172 -91 1784 -91 
Q 1150 -91 751 415 
Q 353 922 353 1747 
Q 353 2572 751 3078 
Q 1150 3584 1784 3584 
Q 2172 3584 2448 3432 
Q 2725 3281 2906 2969 
z
M 947 1747 
Q 947 1113 1208 752 
Q 1469 391 1925 391 
Q 2381 391 2643 752 
Q 2906 1113 2906 1747 
Q 2906 2381 2643 2742 
Q 2381 3103 1925 3103 
Q 1469 3103 1208 2742 
Q 947 2381 947 1747 
z
" transform="scale(0.015625)"/>
       <path id="DejaVuSans-29" d="M 513 4856 
L 1013 4856 
Q 1481 4119 1714 3412 
Q 1947 2706 1947 2009 
Q 1947 1309 1714 600 
Q 1481 -109 1013 -844 
L 513 -844 
Q 928 -128 1133 580 
Q 1338 1288 1338 2009 
Q 1338 2731 1133 3434 
Q 928 4138 513 4856 
z
" transform="scale(0.015625)"/>
      </defs>
      <use xlink:href="#DejaVuSans-43"/>
      <use xlink:href="#DejaVuSans-43" transform="translate(69.824219 0)"/>
      <use xlink:href="#DejaVuSans-43" transform="translate(139.648438 0)"/>
      <use xlink:href="#DejaVuSans-47" transform="translate(209.472656 0)"/>
      <use xlink:href="#DejaVuSans-41" transform="translate(286.962891 0)"/>
      <use xlink:href="#DejaVuSans-47" transform="translate(353.621094 0)"/>
      <use xlink:href="#DejaVuSans-41" transform="translate(431.111328 0)"/>
      <use xlink:href="#DejaVuSans-43" transform="translate(497.769531 0)"/>
      <use xlink:href="#DejaVuSans-54" transform="translate(567.59375 0)"/>
      <use xlink:href="#DejaVuSans-41" transform="translate(620.927734 0)"/>
      <use xlink:href="#DejaVuSans-41" transform="translate(692.085938 0)"/>
      <use xlink:href="#DejaVuSans-20" transform="translate(760.494141 0)"/>
      <use xlink:href="#DejaVuSans-28" transform="translate(792.28125 0)"/>
      <use xlink:href="#DejaVuSans-35" transform="translate(831.294922 0)"/>
      <use xlink:href="#DejaVuSans-27" transform="translate(894.917969 0)"/>
      <use xlink:href="#DejaVuSans-20" transform="translate(922.408203 0)"/>
      <use xlink:href="#DejaVuSans-65" transform="translate(954.195312 0)"/>
      <use xlink:href="#DejaVuSans-6e" transform="translate(1015.71875 0)"/>
      <use xlink:href="#DejaVuSans-64" transform="translate(1079.097656 0)"/>
      <use xlink:href="#DejaVuSans-29" transform="translate(1142.574219 0)"/>
     </g>
    </g>
    <g id="line2d_36">
     <path d="M 410.765625 49.654687 
L 420.765625 49.654687 
L 430.765625 49.654687 
" style="fill: none; stroke: #6495ed; stroke-width: 2; stroke-linecap: square"/>
    </g>
    <g id="text_19">
     <!-- TTCCCAA (5' end) -->
     <g transform="translate(438.765625 53.154687) scale(0.1 -0.1)">
      <use xlink:href="#DejaVuSans-54"/>
      <use xlink:href="#DejaVuSans-54" transform="translate(59.333984 0)"/>
      <use xlink:href="#DejaVuSans-43" transform="translate(114.542969 0)"/>
      <use xlink:href="#DejaVuSans-43" transform="translate(184.367188 0)"/>
      <use xlink:href="#DejaVuSans-43" transform="translate(254.191406 0)"/>
      <use xlink:href="#DejaVuSans-41" transform="translate(324.015625 0)"/>
      <use xlink:href="#DejaVuSans-41" transform="translate(395.173828 0)"/>
      <use xlink:href="#DejaVuSans-20" transform="translate(463.582031 0)"/>
      <use xlink:href="#DejaVuSans-28" transform="translate(495.369141 0)"/>
      <use xlink:href="#DejaVuSans-35" transform="translate(534.382812 0)"/>
      <use xlink:href="#DejaVuSans-27" transform="translate(598.005859 0)"/>
      <use xlink:href="#DejaVuSans-20" transform="translate(625.496094 0)"/>
      <use xlink:href="#DejaVuSans-65" transform="translate(657.283203 0)"/>
      <use xlink:href="#DejaVuSans-6e" transform="translate(718.806641 0)"/>
      <use xlink:href="#DejaVuSans-64" transform="translate(782.185547 0)"/>
      <use xlink:href="#DejaVuSans-29" transform="translate(845.662109 0)"/>
     </g>
    </g>
    <g id="line2d_37">
     <path d="M 410.765625 64.332812 
L 420.765625 64.332812 
L 430.765625 64.332812 
" style="fill: none; stroke: #00008b; stroke-width: 2; stroke-linecap: square"/>
    </g>
    <g id="text_20">
     <!-- CCCAAGACTAA (5' end) -->
     <g transform="translate(438.765625 67.832812) scale(0.1 -0.1)">
      <use xlink:href="#DejaVuSans-43"/>
      <use xlink:href="#DejaVuSans-43" transform="translate(69.824219 0)"/>
      <use xlink:href="#DejaVuSans-43" transform="translate(139.648438 0)"/>
      <use xlink:href="#DejaVuSans-41" transform="translate(209.472656 0)"/>
      <use xlink:href="#DejaVuSans-41" transform="translate(280.630859 0)"/>
      <use xlink:href="#DejaVuSans-47" transform="translate(347.289062 0)"/>
      <use xlink:href="#DejaVuSans-41" transform="translate(424.779297 0)"/>
      <use xlink:href="#DejaVuSans-43" transform="translate(491.4375 0)"/>
      <use xlink:href="#DejaVuSans-54" transform="translate(561.261719 0)"/>
      <use xlink:href="#DejaVuSans-41" transform="translate(614.595703 0)"/>
      <use xlink:href="#DejaVuSans-41" transform="translate(685.753906 0)"/>
      <use xlink:href="#DejaVuSans-20" transform="translate(754.162109 0)"/>
      <use xlink:href="#DejaVuSans-28" transform="translate(785.949219 0)"/>
      <use xlink:href="#DejaVuSans-35" transform="translate(824.962891 0)"/>
      <use xlink:href="#DejaVuSans-27" transform="translate(888.585938 0)"/>
      <use xlink:href="#DejaVuSans-20" transform="translate(916.076172 0)"/>
      <use xlink:href="#DejaVuSans-65" transform="translate(947.863281 0)"/>
      <use xlink:href="#DejaVuSans-6e" transform="translate(1009.386719 0)"/>
      <use xlink:href="#DejaVuSans-64" transform="translate(1072.765625 0)"/>
      <use xlink:href="#DejaVuSans-29" transform="translate(1136.242188 0)"/>
     </g>
    </g>
    <g id="line2d_38">
     <path d="M 410.765625 79.010937 
L 420.765625 79.010937 
L 430.765625 79.010937 
" style="fill: none; stroke-dasharray: 7.4,3.2; stroke-dashoffset: 0; stroke: #fa8072; stroke-width: 2"/>
    </g>
    <g id="text_21">
     <!-- TTAGTCTCGGG (3' end) -->
     <g transform="translate(438.765625 82.510937) scale(0.1 -0.1)">
      <use xlink:href="#DejaVuSans-54"/>
      <use xlink:href="#DejaVuSans-54" transform="translate(59.333984 0)"/>
      <use xlink:href="#DejaVuSans-41" transform="translate(112.667969 0)"/>
      <use xlink:href="#DejaVuSans-47" transform="translate(179.326172 0)"/>
      <use xlink:href="#DejaVuSans-54" transform="translate(253.191406 0)"/>
      <use xlink:href="#DejaVuSans-43" transform="translate(308.400391 0)"/>
      <use xlink:href="#DejaVuSans-54" transform="translate(378.224609 0)"/>
      <use xlink:href="#DejaVuSans-43" transform="translate(433.433594 0)"/>
      <use xlink:href="#DejaVuSans-47" transform="translate(503.257812 0)"/>
      <use xlink:href="#DejaVuSans-47" transform="translate(580.748047 0)"/>
      <use xlink:href="#DejaVuSans-47" transform="translate(658.238281 0)"/>
      <use xlink:href="#DejaVuSans-20" transform="translate(735.728516 0)"/>
      <use xlink:href="#DejaVuSans-28" transform="translate(767.515625 0)"/>
      <use xlink:href="#DejaVuSans-33" transform="translate(806.529297 0)"/>
      <use xlink:href="#DejaVuSans-27" transform="translate(870.152344 0)"/>
      <use xlink:href="#DejaVuSans-20" transform="translate(897.642578 0)"/>
      <use xlink:href="#DejaVuSans-65" transform="translate(929.429688 0)"/>
      <use xlink:href="#DejaVuSans-6e" transform="translate(990.953125 0)"/>
      <use xlink:href="#DejaVuSans-64" transform="translate(1054.332031 0)"/>
      <use xlink:href="#DejaVuSans-29" transform="translate(1117.808594 0)"/>
     </g>
    </g>
    <g id="line2d_39">
     <path d="M 410.765625 93.689062 
L 420.765625 93.689062 
L 430.765625 93.689062 
" style="fill: none; stroke-dasharray: 7.4,3.2; stroke-dashoffset: 0; stroke: #ff4500; stroke-width: 2"/>
    </g>
    <g id="text_22">
     <!-- TTGGGAA (3' end) -->
     <g transform="translate(438.765625 97.189062) scale(0.1 -0.1)">
      <use xlink:href="#DejaVuSans-54"/>
      <use xlink:href="#DejaVuSans-54" transform="translate(59.333984 0)"/>
      <use xlink:href="#DejaVuSans-47" transform="translate(120.417969 0)"/>
      <use xlink:href="#DejaVuSans-47" transform="translate(197.908203 0)"/>
      <use xlink:href="#DejaVuSans-47" transform="translate(275.398438 0)"/>
      <use xlink:href="#DejaVuSans-41" transform="translate(352.888672 0)"/>
      <use xlink:href="#DejaVuSans-41" transform="translate(424.046875 0)"/>
      <use xlink:href="#DejaVuSans-20" transform="translate(492.455078 0)"/>
      <use xlink:href="#DejaVuSans-28" transform="translate(524.242188 0)"/>
      <use xlink:href="#DejaVuSans-33" transform="translate(563.255859 0)"/>
      <use xlink:href="#DejaVuSans-27" transform="translate(626.878906 0)"/>
      <use xlink:href="#DejaVuSans-20" transform="translate(654.369141 0)"/>
      <use xlink:href="#DejaVuSans-65" transform="translate(686.15625 0)"/>
      <use xlink:href="#DejaVuSans-6e" transform="translate(747.679688 0)"/>
      <use xlink:href="#DejaVuSans-64" transform="translate(811.058594 0)"/>
      <use xlink:href="#DejaVuSans-29" transform="translate(874.535156 0)"/>
     </g>
    </g>
    <g id="line2d_40">
     <path d="M 410.765625 108.367187 
L 420.765625 108.367187 
L 430.765625 108.367187 
" style="fill: none; stroke-dasharray: 7.4,3.2; stroke-dashoffset: 0; stroke: #8b0000; stroke-width: 2"/>
    </g>
    <g id="text_23">
     <!-- TTAGTCTTGGG (3' end) -->
     <g transform="translate(438.765625 111.867187) scale(0.1 -0.1)">
      <use xlink:href="#DejaVuSans-54"/>
      <use xlink:href="#DejaVuSans-54" transform="translate(59.333984 0)"/>
      <use xlink:href="#DejaVuSans-41" transform="translate(112.667969 0)"/>
      <use xlink:href="#DejaVuSans-47" transform="translate(179.326172 0)"/>
      <use xlink:href="#DejaVuSans-54" transform="translate(253.191406 0)"/>
      <use xlink:href="#DejaVuSans-43" transform="translate(308.400391 0)"/>
      <use xlink:href="#DejaVuSans-54" transform="translate(378.224609 0)"/>
      <use xlink:href="#DejaVuSans-54" transform="translate(437.558594 0)"/>
      <use xlink:href="#DejaVuSans-47" transform="translate(498.642578 0)"/>
      <use xlink:href="#DejaVuSans-47" transform="translate(576.132812 0)"/>
      <use xlink:href="#DejaVuSans-47" transform="translate(653.623047 0)"/>
      <use xlink:href="#DejaVuSans-20" transform="translate(731.113281 0)"/>
      <use xlink:href="#DejaVuSans-28" transform="translate(762.900391 0)"/>
      <use xlink:href="#DejaVuSans-33" transform="translate(801.914062 0)"/>
      <use xlink:href="#DejaVuSans-27" transform="translate(865.537109 0)"/>
      <use xlink:href="#DejaVuSans-20" transform="translate(893.027344 0)"/>
      <use xlink:href="#DejaVuSans-65" transform="translate(924.814453 0)"/>
      <use xlink:href="#DejaVuSans-6e" transform="translate(986.337891 0)"/>
      <use xlink:href="#DejaVuSans-64" transform="translate(1049.716797 0)"/>
      <use xlink:href="#DejaVuSans-29" transform="translate(1113.193359 0)"/>
     </g>
    </g>
   </g>
  </g>
 </g>
 <defs>
  <clipPath id="p00790dc482">
   <rect x="46.965625" y="7.2" width="354.8" height="379.24"/>
  </clipPath>
 </defs>
</svg>
