<?xml version="1.0" encoding="utf-8" standalone="no"?>
<!DOCTYPE svg PUBLIC "-//W3C//DTD SVG 1.1//EN"
  "http://www.w3.org/Graphics/SVG/1.1/DTD/svg11.dtd">
<svg xmlns:xlink="http://www.w3.org/1999/xlink" width="568.136562pt" height="423.99625pt" viewBox="0 0 568.136562 423.99625" xmlns="http://www.w3.org/2000/svg" version="1.1">
 <metadata>
  <rdf:RDF xmlns:dc="http://purl.org/dc/elements/1.1/" xmlns:cc="http://creativecommons.org/ns#" xmlns:rdf="http://www.w3.org/1999/02/22-rdf-syntax-ns#">
   <cc:Work>
    <dc:type rdf:resource="http://purl.org/dc/dcmitype/StillImage"/>
    <dc:date>2026-04-30T15:19:18.988519</dc:date>
    <dc:format>image/svg+xml</dc:format>
    <dc:creator>
     <cc:Agent>
      <dc:title>Matplotlib v3.10.6, https://matplotlib.org/</dc:title>
     </cc:Agent>
    </dc:creator>
   </cc:Work>
  </rdf:RDF>
 </metadata>
 <defs>
  <style type="text/css">*{stroke-linejoin: round; stroke-linecap: butt}</style>
 </defs>
 <g id="figure_1">
  <g id="patch_1">
   <path d="M 0 423.99625 
L 568.136562 423.99625 
L 568.136562 0 
L 0 0 
z
" style="fill: #ffffff"/>
  </g>
  <g id="axes_1">
   <g id="patch_2">
    <path d="M 46.965625 386.44 
L 435.875625 386.44 
L 435.875625 7.2 
L 46.965625 7.2 
z
" style="fill: #ffffff"/>
   </g>
   <g id="matplotlib.axis_1">
    <g id="xtick_1">
     <g id="line2d_1">
      <path d="M 64.643352 386.44 
L 64.643352 7.2 
" clip-path="url(#p0929b2b47a)" style="fill: none; stroke-dasharray: 2.96,1.28; stroke-dashoffset: 0; stroke: #b0b0b0; stroke-opacity: 0.6; stroke-width: 0.8"/>
     </g>
     <g id="line2d_2">
      <defs>
       <path id="m85ae64b9cd" d="M 0 0 
L 0 3.5 
" style="stroke: #000000; stroke-width: 0.8"/>
      </defs>
      <g>
       <use xlink:href="#m85ae64b9cd" x="64.643352" y="386.44" style="stroke: #000000; stroke-width: 0.8"/>
      </g>
     </g>
     <g id="text_1">
      <!-- 0 -->
      <g transform="translate(61.462102 401.038437) scale(0.1 -0.1)">
       <defs>
        <path id="DejaVuSans-30" d="M 2034 4250 
Q 1547 4250 1301 3770 
Q 1056 3291 1056 2328 
Q 1056 1369 1301 889 
Q 1547 409 2034 409 
Q 2525 409 2770 889 
Q 3016 1369 3016 2328 
Q 3016 3291 2770 3770 
Q 2525 4250 2034 4250 
z
M 2034 4750 
Q 2819 4750 3233 4129 
Q 3647 3509 3647 2328 
Q 3647 1150 3233 529 
Q 2819 -91 2034 -91 
Q 1250 -91 836 529 
Q 422 1150 422 2328 
Q 422 3509 836 4129 
Q 1250 4750 2034 4750 
z
" transform="scale(0.015625)"/>
       </defs>
       <use xlink:href="#DejaVuSans-30"/>
      </g>
     </g>
    </g>
    <g id="xtick_2">
     <g id="line2d_3">
      <path d="M 108.83767 386.44 
L 108.83767 7.2 
" clip-path="url(#p0929b2b47a)" style="fill: none; stroke-dasharray: 2.96,1.28; stroke-dashoffset: 0; stroke: #b0b0b0; stroke-opacity: 0.6; stroke-width: 0.8"/>
     </g>
     <g id="line2d_4">
      <g>
       <use xlink:href="#m85ae64b9cd" x="108.83767" y="386.44" style="stroke: #000000; stroke-width: 0.8"/>
      </g>
     </g>
     <g id="text_2">
      <!-- 1000 -->
      <g transform="translate(96.11267 401.038437) scale(0.1 -0.1)">
       <defs>
        <path id="DejaVuSans-31" d="M 794 531 
L 1825 531 
L 1825 4091 
L 703 3866 
L 703 4441 
L 1819 4666 
L 2450 4666 
L 2450 531 
L 3481 531 
L 3481 0 
L 794 0 
L 794 531 
z
" transform="scale(0.015625)"/>
       </defs>
       <use xlink:href="#DejaVuSans-31"/>
       <use xlink:href="#DejaVuSans-30" transform="translate(63.623047 0)"/>
       <use xlink:href="#DejaVuSans-30" transform="translate(127.246094 0)"/>
       <use xlink:href="#DejaVuSans-30" transform="translate(190.869141 0)"/>
      </g>
     </g>
    </g>
    <g id="xtick_3">
     <g id="line2d_5">
      <path d="M 153.031989 386.44 
L 153.031989 7.2 
" clip-path="url(#p0929b2b47a)" style="fill: none; stroke-dasharray: 2.96,1.28; stroke-dashoffset: 0; stroke: #b0b0b0; stroke-opacity: 0.6; stroke-width: 0.8"/>
     </g>
     <g id="line2d_6">
      <g>
       <use xlink:href="#m85ae64b9cd" x="153.031989" y="386.44" style="stroke: #000000; stroke-width: 0.8"/>
      </g>
     </g>
     <g id="text_3">
      <!-- 2000 -->
      <g transform="translate(140.306989 401.038437) scale(0.1 -0.1)">
       <defs>
        <path id="DejaVuSans-32" d="M 1228 531 
L 3431 531 
L 3431 0 
L 469 0 
L 469 531 
Q 828 903 1448 1529 
Q 2069 2156 2228 2338 
Q 2531 2678 2651 2914 
Q 2772 3150 2772 3378 
Q 2772 3750 2511 3984 
Q 2250 4219 1831 4219 
Q 1534 4219 1204 4116 
Q 875 4013 500 3803 
L 500 4441 
Q 881 4594 1212 4672 
Q 1544 4750 1819 4750 
Q 2544 4750 2975 4387 
Q 3406 4025 3406 3419 
Q 3406 3131 3298 2873 
Q 3191 2616 2906 2266 
Q 2828 2175 2409 1742 
Q 1991 1309 1228 531 
z
" transform="scale(0.015625)"/>
       </defs>
       <use xlink:href="#DejaVuSans-32"/>
       <use xlink:href="#DejaVuSans-30" transform="translate(63.623047 0)"/>
       <use xlink:href="#DejaVuSans-30" transform="translate(127.246094 0)"/>
       <use xlink:href="#DejaVuSans-30" transform="translate(190.869141 0)"/>
      </g>
     </g>
    </g>
    <g id="xtick_4">
     <g id="line2d_7">
      <path d="M 197.226307 386.44 
L 197.226307 7.2 
" clip-path="url(#p0929b2b47a)" style="fill: none; stroke-dasharray: 2.96,1.28; stroke-dashoffset: 0; stroke: #b0b0b0; stroke-opacity: 0.6; stroke-width: 0.8"/>
     </g>
     <g id="line2d_8">
      <g>
       <use xlink:href="#m85ae64b9cd" x="197.226307" y="386.44" style="stroke: #000000; stroke-width: 0.8"/>
      </g>
     </g>
     <g id="text_4">
      <!-- 3000 -->
      <g transform="translate(184.501307 401.038437) scale(0.1 -0.1)">
       <defs>
        <path id="DejaVuSans-33" d="M 2597 2516 
Q 3050 2419 3304 2112 
Q 3559 1806 3559 1356 
Q 3559 666 3084 287 
Q 2609 -91 1734 -91 
Q 1441 -91 1130 -33 
Q 819 25 488 141 
L 488 750 
Q 750 597 1062 519 
Q 1375 441 1716 441 
Q 2309 441 2620 675 
Q 2931 909 2931 1356 
Q 2931 1769 2642 2001 
Q 2353 2234 1838 2234 
L 1294 2234 
L 1294 2753 
L 1863 2753 
Q 2328 2753 2575 2939 
Q 2822 3125 2822 3475 
Q 2822 3834 2567 4026 
Q 2313 4219 1838 4219 
Q 1578 4219 1281 4162 
Q 984 4106 628 3988 
L 628 4550 
Q 988 4650 1302 4700 
Q 1616 4750 1894 4750 
Q 2613 4750 3031 4423 
Q 3450 4097 3450 3541 
Q 3450 3153 3228 2886 
Q 3006 2619 2597 2516 
z
" transform="scale(0.015625)"/>
       </defs>
       <use xlink:href="#DejaVuSans-33"/>
       <use xlink:href="#DejaVuSans-30" transform="translate(63.623047 0)"/>
       <use xlink:href="#DejaVuSans-30" transform="translate(127.246094 0)"/>
       <use xlink:href="#DejaVuSans-30" transform="translate(190.869141 0)"/>
      </g>
     </g>
    </g>
    <g id="xtick_5">
     <g id="line2d_9">
      <path d="M 241.420625 386.44 
L 241.420625 7.2 
" clip-path="url(#p0929b2b47a)" style="fill: none; stroke-dasharray: 2.96,1.28; stroke-dashoffset: 0; stroke: #b0b0b0; stroke-opacity: 0.6; stroke-width: 0.8"/>
     </g>
     <g id="line2d_10">
      <g>
       <use xlink:href="#m85ae64b9cd" x="241.420625" y="386.44" style="stroke: #000000; stroke-width: 0.8"/>
      </g>
     </g>
     <g id="text_5">
      <!-- 4000 -->
      <g transform="translate(228.695625 401.038437) scale(0.1 -0.1)">
       <defs>
        <path id="DejaVuSans-34" d="M 2419 4116 
L 825 1625 
L 2419 1625 
L 2419 4116 
z
M 2253 4666 
L 3047 4666 
L 3047 1625 
L 3713 1625 
L 3713 1100 
L 3047 1100 
L 3047 0 
L 2419 0 
L 2419 1100 
L 313 1100 
L 313 1709 
L 2253 4666 
z
" transform="scale(0.015625)"/>
       </defs>
       <use xlink:href="#DejaVuSans-34"/>
       <use xlink:href="#DejaVuSans-30" transform="translate(63.623047 0)"/>
       <use xlink:href="#DejaVuSans-30" transform="translate(127.246094 0)"/>
       <use xlink:href="#DejaVuSans-30" transform="translate(190.869141 0)"/>
      </g>
     </g>
    </g>
    <g id="xtick_6">
     <g id="line2d_11">
      <path d="M 285.614943 386.44 
L 285.614943 7.2 
" clip-path="url(#p0929b2b47a)" style="fill: none; stroke-dasharray: 2.96,1.28; stroke-dashoffset: 0; stroke: #b0b0b0; stroke-opacity: 0.6; stroke-width: 0.8"/>
     </g>
     <g id="line2d_12">
      <g>
       <use xlink:href="#m85ae64b9cd" x="285.614943" y="386.44" style="stroke: #000000; stroke-width: 0.8"/>
      </g>
     </g>
     <g id="text_6">
      <!-- 5000 -->
      <g transform="translate(272.889943 401.038437) scale(0.1 -0.1)">
       <defs>
        <path id="DejaVuSans-35" d="M 691 4666 
L 3169 4666 
L 3169 4134 
L 1269 4134 
L 1269 2991 
Q 1406 3038 1543 3061 
Q 1681 3084 1819 3084 
Q 2600 3084 3056 2656 
Q 3513 2228 3513 1497 
Q 3513 744 3044 326 
Q 2575 -91 1722 -91 
Q 1428 -91 1123 -41 
Q 819 9 494 109 
L 494 744 
Q 775 591 1075 516 
Q 1375 441 1709 441 
Q 2250 441 2565 725 
Q 2881 1009 2881 1497 
Q 2881 1984 2565 2268 
Q 2250 2553 1709 2553 
Q 1456 2553 1204 2497 
Q 953 2441 691 2322 
L 691 4666 
z
" transform="scale(0.015625)"/>
       </defs>
       <use xlink:href="#DejaVuSans-35"/>
       <use xlink:href="#DejaVuSans-30" transform="translate(63.623047 0)"/>
       <use xlink:href="#DejaVuSans-30" transform="translate(127.246094 0)"/>
       <use xlink:href="#DejaVuSans-30" transform="translate(190.869141 0)"/>
      </g>
     </g>
    </g>
    <g id="xtick_7">
     <g id="line2d_13">
      <path d="M 329.809261 386.44 
L 329.809261 7.2 
" clip-path="url(#p0929b2b47a)" style="fill: none; stroke-dasharray: 2.96,1.28; stroke-dashoffset: 0; stroke: #b0b0b0; stroke-opacity: 0.6; stroke-width: 0.8"/>
     </g>
     <g id="line2d_14">
      <g>
       <use xlink:href="#m85ae64b9cd" x="329.809261" y="386.44" style="stroke: #000000; stroke-width: 0.8"/>
      </g>
     </g>
     <g id="text_7">
      <!-- 6000 -->
      <g transform="translate(317.084261 401.038437) scale(0.1 -0.1)">
       <defs>
        <path id="DejaVuSans-36" d="M 2113 2584 
Q 1688 2584 1439 2293 
Q 1191 2003 1191 1497 
Q 1191 994 1439 701 
Q 1688 409 2113 409 
Q 2538 409 2786 701 
Q 3034 994 3034 1497 
Q 3034 2003 2786 2293 
Q 2538 2584 2113 2584 
z
M 3366 4563 
L 3366 3988 
Q 3128 4100 2886 4159 
Q 2644 4219 2406 4219 
Q 1781 4219 1451 3797 
Q 1122 3375 1075 2522 
Q 1259 2794 1537 2939 
Q 1816 3084 2150 3084 
Q 2853 3084 3261 2657 
Q 3669 2231 3669 1497 
Q 3669 778 3244 343 
Q 2819 -91 2113 -91 
Q 1303 -91 875 529 
Q 447 1150 447 2328 
Q 447 3434 972 4092 
Q 1497 4750 2381 4750 
Q 2619 4750 2861 4703 
Q 3103 4656 3366 4563 
z
" transform="scale(0.015625)"/>
       </defs>
       <use xlink:href="#DejaVuSans-36"/>
       <use xlink:href="#DejaVuSans-30" transform="translate(63.623047 0)"/>
       <use xlink:href="#DejaVuSans-30" transform="translate(127.246094 0)"/>
       <use xlink:href="#DejaVuSans-30" transform="translate(190.869141 0)"/>
      </g>
     </g>
    </g>
    <g id="xtick_8">
     <g id="line2d_15">
      <path d="M 374.00358 386.44 
L 374.00358 7.2 
" clip-path="url(#p0929b2b47a)" style="fill: none; stroke-dasharray: 2.96,1.28; stroke-dashoffset: 0; stroke: #b0b0b0; stroke-opacity: 0.6; stroke-width: 0.8"/>
     </g>
     <g id="line2d_16">
      <g>
       <use xlink:href="#m85ae64b9cd" x="374.00358" y="386.44" style="stroke: #000000; stroke-width: 0.8"/>
      </g>
     </g>
     <g id="text_8">
      <!-- 7000 -->
      <g transform="translate(361.27858 401.038437) scale(0.1 -0.1)">
       <defs>
        <path id="DejaVuSans-37" d="M 525 4666 
L 3525 4666 
L 3525 4397 
L 1831 0 
L 1172 0 
L 2766 4134 
L 525 4134 
L 525 4666 
z
" transform="scale(0.015625)"/>
       </defs>
       <use xlink:href="#DejaVuSans-37"/>
       <use xlink:href="#DejaVuSans-30" transform="translate(63.623047 0)"/>
       <use xlink:href="#DejaVuSans-30" transform="translate(127.246094 0)"/>
       <use xlink:href="#DejaVuSans-30" transform="translate(190.869141 0)"/>
      </g>
     </g>
    </g>
    <g id="xtick_9">
     <g id="line2d_17">
      <path d="M 418.197898 386.44 
L 418.197898 7.2 
" clip-path="url(#p0929b2b47a)" style="fill: none; stroke-dasharray: 2.96,1.28; stroke-dashoffset: 0; stroke: #b0b0b0; stroke-opacity: 0.6; stroke-width: 0.8"/>
     </g>
     <g id="line2d_18">
      <g>
       <use xlink:href="#m85ae64b9cd" x="418.197898" y="386.44" style="stroke: #000000; stroke-width: 0.8"/>
      </g>
     </g>
     <g id="text_9">
      <!-- 8000 -->
      <g transform="translate(405.472898 401.038437) scale(0.1 -0.1)">
       <defs>
        <path id="DejaVuSans-38" d="M 2034 2216 
Q 1584 2216 1326 1975 
Q 1069 1734 1069 1313 
Q 1069 891 1326 650 
Q 1584 409 2034 409 
Q 2484 409 2743 651 
Q 3003 894 3003 1313 
Q 3003 1734 2745 1975 
Q 2488 2216 2034 2216 
z
M 1403 2484 
Q 997 2584 770 2862 
Q 544 3141 544 3541 
Q 544 4100 942 4425 
Q 1341 4750 2034 4750 
Q 2731 4750 3128 4425 
Q 3525 4100 3525 3541 
Q 3525 3141 3298 2862 
Q 3072 2584 2669 2484 
Q 3125 2378 3379 2068 
Q 3634 1759 3634 1313 
Q 3634 634 3220 271 
Q 2806 -91 2034 -91 
Q 1263 -91 848 271 
Q 434 634 434 1313 
Q 434 1759 690 2068 
Q 947 2378 1403 2484 
z
M 1172 3481 
Q 1172 3119 1398 2916 
Q 1625 2713 2034 2713 
Q 2441 2713 2670 2916 
Q 2900 3119 2900 3481 
Q 2900 3844 2670 4047 
Q 2441 4250 2034 4250 
Q 1625 4250 1398 4047 
Q 1172 3844 1172 3481 
z
" transform="scale(0.015625)"/>
       </defs>
       <use xlink:href="#DejaVuSans-38"/>
       <use xlink:href="#DejaVuSans-30" transform="translate(63.623047 0)"/>
       <use xlink:href="#DejaVuSans-30" transform="translate(127.246094 0)"/>
       <use xlink:href="#DejaVuSans-30" transform="translate(190.869141 0)"/>
      </g>
     </g>
    </g>
    <g id="text_10">
     <!-- Distance from terminus [nt] -->
     <g transform="translate(171.921406 414.716562) scale(0.1 -0.1)">
      <defs>
       <path id="DejaVuSans-44" d="M 1259 4147 
L 1259 519 
L 2022 519 
Q 2988 519 3436 956 
Q 3884 1394 3884 2338 
Q 3884 3275 3436 3711 
Q 2988 4147 2022 4147 
L 1259 4147 
z
M 628 4666 
L 1925 4666 
Q 3281 4666 3915 4102 
Q 4550 3538 4550 2338 
Q 4550 1131 3912 565 
Q 3275 0 1925 0 
L 628 0 
L 628 4666 
z
" transform="scale(0.015625)"/>
       <path id="DejaVuSans-69" d="M 603 3500 
L 1178 3500 
L 1178 0 
L 603 0 
L 603 3500 
z
M 603 4863 
L 1178 4863 
L 1178 4134 
L 603 4134 
L 603 4863 
z
" transform="scale(0.015625)"/>
       <path id="DejaVuSans-73" d="M 2834 3397 
L 2834 2853 
Q 2591 2978 2328 3040 
Q 2066 3103 1784 3103 
Q 1356 3103 1142 2972 
Q 928 2841 928 2578 
Q 928 2378 1081 2264 
Q 1234 2150 1697 2047 
L 1894 2003 
Q 2506 1872 2764 1633 
Q 3022 1394 3022 966 
Q 3022 478 2636 193 
Q 2250 -91 1575 -91 
Q 1294 -91 989 -36 
Q 684 19 347 128 
L 347 722 
Q 666 556 975 473 
Q 1284 391 1588 391 
Q 1994 391 2212 530 
Q 2431 669 2431 922 
Q 2431 1156 2273 1281 
Q 2116 1406 1581 1522 
L 1381 1569 
Q 847 1681 609 1914 
Q 372 2147 372 2553 
Q 372 3047 722 3315 
Q 1072 3584 1716 3584 
Q 2034 3584 2315 3537 
Q 2597 3491 2834 3397 
z
" transform="scale(0.015625)"/>
       <path id="DejaVuSans-74" d="M 1172 4494 
L 1172 3500 
L 2356 3500 
L 2356 3053 
L 1172 3053 
L 1172 1153 
Q 1172 725 1289 603 
Q 1406 481 1766 481 
L 2356 481 
L 2356 0 
L 1766 0 
Q 1100 0 847 248 
Q 594 497 594 1153 
L 594 3053 
L 172 3053 
L 172 3500 
L 594 3500 
L 594 4494 
L 1172 4494 
z
" transform="scale(0.015625)"/>
       <path id="DejaVuSans-61" d="M 2194 1759 
Q 1497 1759 1228 1600 
Q 959 1441 959 1056 
Q 959 750 1161 570 
Q 1363 391 1709 391 
Q 2188 391 2477 730 
Q 2766 1069 2766 1631 
L 2766 1759 
L 2194 1759 
z
M 3341 1997 
L 3341 0 
L 2766 0 
L 2766 531 
Q 2569 213 2275 61 
Q 1981 -91 1556 -91 
Q 1019 -91 701 211 
Q 384 513 384 1019 
Q 384 1609 779 1909 
Q 1175 2209 1959 2209 
L 2766 2209 
L 2766 2266 
Q 2766 2663 2505 2880 
Q 2244 3097 1772 3097 
Q 1472 3097 1187 3025 
Q 903 2953 641 2809 
L 641 3341 
Q 956 3463 1253 3523 
Q 1550 3584 1831 3584 
Q 2591 3584 2966 3190 
Q 3341 2797 3341 1997 
z
" transform="scale(0.015625)"/>
       <path id="DejaVuSans-6e" d="M 3513 2113 
L 3513 0 
L 2938 0 
L 2938 2094 
Q 2938 2591 2744 2837 
Q 2550 3084 2163 3084 
Q 1697 3084 1428 2787 
Q 1159 2491 1159 1978 
L 1159 0 
L 581 0 
L 581 3500 
L 1159 3500 
L 1159 2956 
Q 1366 3272 1645 3428 
Q 1925 3584 2291 3584 
Q 2894 3584 3203 3211 
Q 3513 2838 3513 2113 
z
" transform="scale(0.015625)"/>
       <path id="DejaVuSans-63" d="M 3122 3366 
L 3122 2828 
Q 2878 2963 2633 3030 
Q 2388 3097 2138 3097 
Q 1578 3097 1268 2742 
Q 959 2388 959 1747 
Q 959 1106 1268 751 
Q 1578 397 2138 397 
Q 2388 397 2633 464 
Q 2878 531 3122 666 
L 3122 134 
Q 2881 22 2623 -34 
Q 2366 -91 2075 -91 
Q 1284 -91 818 406 
Q 353 903 353 1747 
Q 353 2603 823 3093 
Q 1294 3584 2113 3584 
Q 2378 3584 2631 3529 
Q 2884 3475 3122 3366 
z
" transform="scale(0.015625)"/>
       <path id="DejaVuSans-65" d="M 3597 1894 
L 3597 1613 
L 953 1613 
Q 991 1019 1311 708 
Q 1631 397 2203 397 
Q 2534 397 2845 478 
Q 3156 559 3463 722 
L 3463 178 
Q 3153 47 2828 -22 
Q 2503 -91 2169 -91 
Q 1331 -91 842 396 
Q 353 884 353 1716 
Q 353 2575 817 3079 
Q 1281 3584 2069 3584 
Q 2775 3584 3186 3129 
Q 3597 2675 3597 1894 
z
M 3022 2063 
Q 3016 2534 2758 2815 
Q 2500 3097 2075 3097 
Q 1594 3097 1305 2825 
Q 1016 2553 972 2059 
L 3022 2063 
z
" transform="scale(0.015625)"/>
       <path id="DejaVuSans-20" transform="scale(0.015625)"/>
       <path id="DejaVuSans-66" d="M 2375 4863 
L 2375 4384 
L 1825 4384 
Q 1516 4384 1395 4259 
Q 1275 4134 1275 3809 
L 1275 3500 
L 2222 3500 
L 2222 3053 
L 1275 3053 
L 1275 0 
L 697 0 
L 697 3053 
L 147 3053 
L 147 3500 
L 697 3500 
L 697 3744 
Q 697 4328 969 4595 
Q 1241 4863 1831 4863 
L 2375 4863 
z
" transform="scale(0.015625)"/>
       <path id="DejaVuSans-72" d="M 2631 2963 
Q 2534 3019 2420 3045 
Q 2306 3072 2169 3072 
Q 1681 3072 1420 2755 
Q 1159 2438 1159 1844 
L 1159 0 
L 581 0 
L 581 3500 
L 1159 3500 
L 1159 2956 
Q 1341 3275 1631 3429 
Q 1922 3584 2338 3584 
Q 2397 3584 2469 3576 
Q 2541 3569 2628 3553 
L 2631 2963 
z
" transform="scale(0.015625)"/>
       <path id="DejaVuSans-6f" d="M 1959 3097 
Q 1497 3097 1228 2736 
Q 959 2375 959 1747 
Q 959 1119 1226 758 
Q 1494 397 1959 397 
Q 2419 397 2687 759 
Q 2956 1122 2956 1747 
Q 2956 2369 2687 2733 
Q 2419 3097 1959 3097 
z
M 1959 3584 
Q 2709 3584 3137 3096 
Q 3566 2609 3566 1747 
Q 3566 888 3137 398 
Q 2709 -91 1959 -91 
Q 1206 -91 779 398 
Q 353 888 353 1747 
Q 353 2609 779 3096 
Q 1206 3584 1959 3584 
z
" transform="scale(0.015625)"/>
       <path id="DejaVuSans-6d" d="M 3328 2828 
Q 3544 3216 3844 3400 
Q 4144 3584 4550 3584 
Q 5097 3584 5394 3201 
Q 5691 2819 5691 2113 
L 5691 0 
L 5113 0 
L 5113 2094 
Q 5113 2597 4934 2840 
Q 4756 3084 4391 3084 
Q 3944 3084 3684 2787 
Q 3425 2491 3425 1978 
L 3425 0 
L 2847 0 
L 2847 2094 
Q 2847 2600 2669 2842 
Q 2491 3084 2119 3084 
Q 1678 3084 1418 2786 
Q 1159 2488 1159 1978 
L 1159 0 
L 581 0 
L 581 3500 
L 1159 3500 
L 1159 2956 
Q 1356 3278 1631 3431 
Q 1906 3584 2284 3584 
Q 2666 3584 2933 3390 
Q 3200 3197 3328 2828 
z
" transform="scale(0.015625)"/>
       <path id="DejaVuSans-75" d="M 544 1381 
L 544 3500 
L 1119 3500 
L 1119 1403 
Q 1119 906 1312 657 
Q 1506 409 1894 409 
Q 2359 409 2629 706 
Q 2900 1003 2900 1516 
L 2900 3500 
L 3475 3500 
L 3475 0 
L 2900 0 
L 2900 538 
Q 2691 219 2414 64 
Q 2138 -91 1772 -91 
Q 1169 -91 856 284 
Q 544 659 544 1381 
z
M 1991 3584 
L 1991 3584 
z
" transform="scale(0.015625)"/>
       <path id="DejaVuSans-5b" d="M 550 4863 
L 1875 4863 
L 1875 4416 
L 1125 4416 
L 1125 -397 
L 1875 -397 
L 1875 -844 
L 550 -844 
L 550 4863 
z
" transform="scale(0.015625)"/>
       <path id="DejaVuSans-5d" d="M 1947 4863 
L 1947 -844 
L 622 -844 
L 622 -397 
L 1369 -397 
L 1369 4416 
L 622 4416 
L 622 4863 
L 1947 4863 
z
" transform="scale(0.015625)"/>
      </defs>
      <use xlink:href="#DejaVuSans-44"/>
      <use xlink:href="#DejaVuSans-69" transform="translate(77.001953 0)"/>
      <use xlink:href="#DejaVuSans-73" transform="translate(104.785156 0)"/>
      <use xlink:href="#DejaVuSans-74" transform="translate(156.884766 0)"/>
      <use xlink:href="#DejaVuSans-61" transform="translate(196.09375 0)"/>
      <use xlink:href="#DejaVuSans-6e" transform="translate(257.373047 0)"/>
      <use xlink:href="#DejaVuSans-63" transform="translate(320.751953 0)"/>
      <use xlink:href="#DejaVuSans-65" transform="translate(375.732422 0)"/>
      <use xlink:href="#DejaVuSans-20" transform="translate(437.255859 0)"/>
      <use xlink:href="#DejaVuSans-66" transform="translate(469.042969 0)"/>
      <use xlink:href="#DejaVuSans-72" transform="translate(504.248047 0)"/>
      <use xlink:href="#DejaVuSans-6f" transform="translate(543.111328 0)"/>
      <use xlink:href="#DejaVuSans-6d" transform="translate(604.292969 0)"/>
      <use xlink:href="#DejaVuSans-20" transform="translate(701.705078 0)"/>
      <use xlink:href="#DejaVuSans-74" transform="translate(733.492188 0)"/>
      <use xlink:href="#DejaVuSans-65" transform="translate(772.701172 0)"/>
      <use xlink:href="#DejaVuSans-72" transform="translate(834.224609 0)"/>
      <use xlink:href="#DejaVuSans-6d" transform="translate(873.587891 0)"/>
      <use xlink:href="#DejaVuSans-69" transform="translate(971 0)"/>
      <use xlink:href="#DejaVuSans-6e" transform="translate(998.783203 0)"/>
      <use xlink:href="#DejaVuSans-75" transform="translate(1062.162109 0)"/>
      <use xlink:href="#DejaVuSans-73" transform="translate(1125.541016 0)"/>
      <use xlink:href="#DejaVuSans-20" transform="translate(1177.640625 0)"/>
      <use xlink:href="#DejaVuSans-5b" transform="translate(1209.427734 0)"/>
      <use xlink:href="#DejaVuSans-6e" transform="translate(1248.441406 0)"/>
      <use xlink:href="#DejaVuSans-74" transform="translate(1311.820312 0)"/>
      <use xlink:href="#DejaVuSans-5d" transform="translate(1351.029297 0)"/>
     </g>
    </g>
   </g>
   <g id="matplotlib.axis_2">
    <g id="ytick_1">
     <g id="line2d_19">
      <path d="M 46.965625 369.201818 
L 435.875625 369.201818 
" clip-path="url(#p0929b2b47a)" style="fill: none; stroke-dasharray: 2.96,1.28; stroke-dashoffset: 0; stroke: #b0b0b0; stroke-opacity: 0.6; stroke-width: 0.8"/>
     </g>
     <g id="line2d_20">
      <defs>
       <path id="m2257108028" d="M 0 0 
L -3.5 0 
" style="stroke: #000000; stroke-width: 0.8"/>
      </defs>
      <g>
       <use xlink:href="#m2257108028" x="46.965625" y="369.201818" style="stroke: #000000; stroke-width: 0.8"/>
      </g>
     </g>
     <g id="text_11">
      <!-- 0 -->
      <g transform="translate(33.603125 373.001037) scale(0.1 -0.1)">
       <use xlink:href="#DejaVuSans-30"/>
      </g>
     </g>
    </g>
    <g id="ytick_2">
     <g id="line2d_21">
      <path d="M 46.965625 288.46092 
L 435.875625 288.46092 
" clip-path="url(#p0929b2b47a)" style="fill: none; stroke-dasharray: 2.96,1.28; stroke-dashoffset: 0; stroke: #b0b0b0; stroke-opacity: 0.6; stroke-width: 0.8"/>
     </g>
     <g id="line2d_22">
      <g>
       <use xlink:href="#m2257108028" x="46.965625" y="288.46092" style="stroke: #000000; stroke-width: 0.8"/>
      </g>
     </g>
     <g id="text_12">
      <!-- 200 -->
      <g transform="translate(20.878125 292.260138) scale(0.1 -0.1)">
       <use xlink:href="#DejaVuSans-32"/>
       <use xlink:href="#DejaVuSans-30" transform="translate(63.623047 0)"/>
       <use xlink:href="#DejaVuSans-30" transform="translate(127.246094 0)"/>
      </g>
     </g>
    </g>
    <g id="ytick_3">
     <g id="line2d_23">
      <path d="M 46.965625 207.720021 
L 435.875625 207.720021 
" clip-path="url(#p0929b2b47a)" style="fill: none; stroke-dasharray: 2.96,1.28; stroke-dashoffset: 0; stroke: #b0b0b0; stroke-opacity: 0.6; stroke-width: 0.8"/>
     </g>
     <g id="line2d_24">
      <g>
       <use xlink:href="#m2257108028" x="46.965625" y="207.720021" style="stroke: #000000; stroke-width: 0.8"/>
      </g>
     </g>
     <g id="text_13">
      <!-- 400 -->
      <g transform="translate(20.878125 211.51924) scale(0.1 -0.1)">
       <use xlink:href="#DejaVuSans-34"/>
       <use xlink:href="#DejaVuSans-30" transform="translate(63.623047 0)"/>
       <use xlink:href="#DejaVuSans-30" transform="translate(127.246094 0)"/>
      </g>
     </g>
    </g>
    <g id="ytick_4">
     <g id="line2d_25">
      <path d="M 46.965625 126.979123 
L 435.875625 126.979123 
" clip-path="url(#p0929b2b47a)" style="fill: none; stroke-dasharray: 2.96,1.28; stroke-dashoffset: 0; stroke: #b0b0b0; stroke-opacity: 0.6; stroke-width: 0.8"/>
     </g>
     <g id="line2d_26">
      <g>
       <use xlink:href="#m2257108028" x="46.965625" y="126.979123" style="stroke: #000000; stroke-width: 0.8"/>
      </g>
     </g>
     <g id="text_14">
      <!-- 600 -->
      <g transform="translate(20.878125 130.778342) scale(0.1 -0.1)">
       <use xlink:href="#DejaVuSans-36"/>
       <use xlink:href="#DejaVuSans-30" transform="translate(63.623047 0)"/>
       <use xlink:href="#DejaVuSans-30" transform="translate(127.246094 0)"/>
      </g>
     </g>
    </g>
    <g id="ytick_5">
     <g id="line2d_27">
      <path d="M 46.965625 46.238224 
L 435.875625 46.238224 
" clip-path="url(#p0929b2b47a)" style="fill: none; stroke-dasharray: 2.96,1.28; stroke-dashoffset: 0; stroke: #b0b0b0; stroke-opacity: 0.6; stroke-width: 0.8"/>
     </g>
     <g id="line2d_28">
      <g>
       <use xlink:href="#m2257108028" x="46.965625" y="46.238224" style="stroke: #000000; stroke-width: 0.8"/>
      </g>
     </g>
     <g id="text_15">
      <!-- 800 -->
      <g transform="translate(20.878125 50.037443) scale(0.1 -0.1)">
       <use xlink:href="#DejaVuSans-38"/>
       <use xlink:href="#DejaVuSans-30" transform="translate(63.623047 0)"/>
       <use xlink:href="#DejaVuSans-30" transform="translate(127.246094 0)"/>
      </g>
     </g>
    </g>
    <g id="text_16">
     <!-- Average cumulative count -->
     <g transform="translate(14.798438 262.4325) rotate(-90) scale(0.1 -0.1)">
      <defs>
       <path id="DejaVuSans-41" d="M 2188 4044 
L 1331 1722 
L 3047 1722 
L 2188 4044 
z
M 1831 4666 
L 2547 4666 
L 4325 0 
L 3669 0 
L 3244 1197 
L 1141 1197 
L 716 0 
L 50 0 
L 1831 4666 
z
" transform="scale(0.015625)"/>
       <path id="DejaVuSans-76" d="M 191 3500 
L 800 3500 
L 1894 563 
L 2988 3500 
L 3597 3500 
L 2284 0 
L 1503 0 
L 191 3500 
z
" transform="scale(0.015625)"/>
       <path id="DejaVuSans-67" d="M 2906 1791 
Q 2906 2416 2648 2759 
Q 2391 3103 1925 3103 
Q 1463 3103 1205 2759 
Q 947 2416 947 1791 
Q 947 1169 1205 825 
Q 1463 481 1925 481 
Q 2391 481 2648 825 
Q 2906 1169 2906 1791 
z
M 3481 434 
Q 3481 -459 3084 -895 
Q 2688 -1331 1869 -1331 
Q 1566 -1331 1297 -1286 
Q 1028 -1241 775 -1147 
L 775 -588 
Q 1028 -725 1275 -790 
Q 1522 -856 1778 -856 
Q 2344 -856 2625 -561 
Q 2906 -266 2906 331 
L 2906 616 
Q 2728 306 2450 153 
Q 2172 0 1784 0 
Q 1141 0 747 490 
Q 353 981 353 1791 
Q 353 2603 747 3093 
Q 1141 3584 1784 3584 
Q 2172 3584 2450 3431 
Q 2728 3278 2906 2969 
L 2906 3500 
L 3481 3500 
L 3481 434 
z
" transform="scale(0.015625)"/>
       <path id="DejaVuSans-6c" d="M 603 4863 
L 1178 4863 
L 1178 0 
L 603 0 
L 603 4863 
z
" transform="scale(0.015625)"/>
      </defs>
      <use xlink:href="#DejaVuSans-41"/>
      <use xlink:href="#DejaVuSans-76" transform="translate(62.533203 0)"/>
      <use xlink:href="#DejaVuSans-65" transform="translate(121.712891 0)"/>
      <use xlink:href="#DejaVuSans-72" transform="translate(183.236328 0)"/>
      <use xlink:href="#DejaVuSans-61" transform="translate(224.349609 0)"/>
      <use xlink:href="#DejaVuSans-67" transform="translate(285.628906 0)"/>
      <use xlink:href="#DejaVuSans-65" transform="translate(349.105469 0)"/>
      <use xlink:href="#DejaVuSans-20" transform="translate(410.628906 0)"/>
      <use xlink:href="#DejaVuSans-63" transform="translate(442.416016 0)"/>
      <use xlink:href="#DejaVuSans-75" transform="translate(497.396484 0)"/>
      <use xlink:href="#DejaVuSans-6d" transform="translate(560.775391 0)"/>
      <use xlink:href="#DejaVuSans-75" transform="translate(658.1875 0)"/>
      <use xlink:href="#DejaVuSans-6c" transform="translate(721.566406 0)"/>
      <use xlink:href="#DejaVuSans-61" transform="translate(749.349609 0)"/>
      <use xlink:href="#DejaVuSans-74" transform="translate(810.628906 0)"/>
      <use xlink:href="#DejaVuSans-69" transform="translate(849.837891 0)"/>
      <use xlink:href="#DejaVuSans-76" transform="translate(877.621094 0)"/>
      <use xlink:href="#DejaVuSans-65" transform="translate(936.800781 0)"/>
      <use xlink:href="#DejaVuSans-20" transform="translate(998.324219 0)"/>
      <use xlink:href="#DejaVuSans-63" transform="translate(1030.111328 0)"/>
      <use xlink:href="#DejaVuSans-6f" transform="translate(1085.091797 0)"/>
      <use xlink:href="#DejaVuSans-75" transform="translate(1146.273438 0)"/>
      <use xlink:href="#DejaVuSans-6e" transform="translate(1209.652344 0)"/>
      <use xlink:href="#DejaVuSans-74" transform="translate(1273.03125 0)"/>
     </g>
    </g>
   </g>
   <g id="line2d_29">
    <path d="M 64.643352 369.201818 
L 86.254374 369.201818 
L 86.386957 368.798114 
L 102.517883 368.798114 
L 102.650466 368.394409 
L 103.578547 368.394409 
L 103.71113 367.990705 
L 104.63921 367.990705 
L 104.771793 367.587 
L 109.588974 367.587 
L 109.721557 367.183296 
L 110.649638 367.183296 
L 110.78222 366.779591 
L 111.710301 366.779591 
L 111.842884 366.375887 
L 144.767651 366.375887 
L 144.900234 365.972182 
L 145.47476 365.972182 
L 145.607343 365.568478 
L 147.242533 365.568478 
L 147.375116 365.164773 
L 148.303197 365.164773 
L 148.43578 364.761069 
L 159.793719 364.761069 
L 159.926302 364.357364 
L 169.516469 364.357364 
L 169.649052 363.95366 
L 170.577133 363.95366 
L 170.709716 363.549955 
L 171.637797 363.549955 
L 171.77038 363.146251 
L 172.69846 363.146251 
L 172.831043 362.742546 
L 178.355333 362.742546 
L 178.487916 362.338842 
L 179.415997 362.338842 
L 179.54858 361.935137 
L 180.47666 361.935137 
L 180.609243 361.531433 
L 200.982824 361.531433 
L 201.115407 361.127728 
L 201.336378 361.127728 
L 201.468961 360.724024 
L 202.397042 360.724024 
L 202.529625 360.320319 
L 203.104151 360.320319 
L 203.236734 359.916615 
L 207.70036 359.916615 
L 207.832943 359.51291 
L 208.761024 359.51291 
L 208.893607 359.109206 
L 210.352019 359.109206 
L 210.484602 358.705501 
L 216.892778 358.705501 
L 217.025361 358.301797 
L 234.216951 358.301797 
L 234.349534 357.898092 
L 235.100838 357.898092 
L 235.23342 357.494388 
L 235.631169 357.494388 
L 235.763752 357.090683 
L 251.894678 357.090683 
L 252.027261 356.686979 
L 253.485674 356.686979 
L 253.618257 356.283274 
L 265.860083 356.283274 
L 265.992666 355.87957 
L 266.920747 355.87957 
L 267.05333 355.475865 
L 301.03876 355.475865 
L 301.171343 355.072161 
L 302.099424 355.072161 
L 302.232007 354.668456 
L 303.160087 354.668456 
L 303.29267 354.264752 
L 314.473833 354.264752 
L 314.606416 353.861047 
L 315.534497 353.861047 
L 315.66708 353.457343 
L 316.59516 353.457343 
L 316.727743 353.053638 
L 351.066728 353.053638 
L 351.199311 352.649934 
L 351.773837 352.649934 
L 351.90642 352.24623 
L 353.54161 352.24623 
L 353.674193 351.842525 
L 354.602274 351.842525 
L 354.734857 351.438821 
L 366.092797 351.438821 
L 366.22538 351.035116 
L 375.285215 351.035116 
L 375.417798 350.631412 
L 376.345878 350.631412 
L 376.478461 350.227707 
L 377.406542 350.227707 
L 377.539125 349.824003 
L 378.467206 349.824003 
L 378.599789 349.420298 
L 384.124078 349.420298 
L 384.256661 349.016594 
L 385.184742 349.016594 
L 385.317325 348.612889 
L 386.245406 348.612889 
L 386.377989 348.209185 
L 418.153703 348.209185 
L 418.153703 348.209185 
" clip-path="url(#p0929b2b47a)" style="fill: none; stroke: #add8e6; stroke-width: 2; stroke-linecap: square"/>
   </g>
   <g id="line2d_30">
    <path d="M 64.643352 369.201818 
L 418.153703 369.201818 
L 418.153703 369.201818 
" clip-path="url(#p0929b2b47a)" style="fill: none; stroke: #00008b; stroke-width: 2; stroke-linecap: square"/>
   </g>
   <g id="line2d_31">
    <path d="M 418.197898 369.201818 
L 310.363761 369.201818 
L 310.231178 368.798114 
L 256.048944 368.798114 
L 255.916361 368.394409 
L 255.827973 368.394409 
L 255.69539 367.990705 
L 255.607001 367.990705 
L 255.474418 367.587 
L 255.38603 367.587 
L 255.253447 367.183296 
L 255.165058 367.183296 
L 255.032475 366.779591 
L 254.944086 366.779591 
L 254.811503 366.375887 
L 254.723115 366.375887 
L 254.590532 365.972182 
L 254.502143 365.972182 
L 254.36956 365.568478 
L 254.281172 365.568478 
L 254.148589 365.164773 
L 254.0602 365.164773 
L 253.927617 364.761069 
L 253.839228 364.761069 
L 253.706645 364.357364 
L 253.618257 364.357364 
L 253.485674 363.95366 
L 253.397285 363.95366 
L 253.264702 363.549955 
L 253.176314 363.549955 
L 253.043731 363.146251 
L 252.955342 363.146251 
L 252.822759 362.742546 
L 252.73437 362.742546 
L 252.601788 362.338842 
L 252.513399 362.338842 
L 252.380816 361.935137 
L 252.292427 361.935137 
L 252.159844 361.531433 
L 252.071456 361.531433 
L 251.938873 361.127728 
L 251.850484 361.127728 
L 251.717901 360.724024 
L 251.629512 360.724024 
L 251.49693 360.320319 
L 251.408541 360.320319 
L 251.275958 359.916615 
L 251.187569 359.916615 
L 251.054986 359.51291 
L 250.966598 359.51291 
L 250.834015 359.109206 
L 250.745626 359.109206 
L 250.613043 358.705501 
L 250.524655 358.705501 
L 250.392072 358.301797 
L 250.303683 358.301797 
L 250.1711 357.898092 
L 250.082711 357.898092 
L 249.950128 357.494388 
L 249.86174 357.494388 
L 249.729157 357.090683 
L 249.640768 357.090683 
L 249.508185 356.686979 
L 249.419797 356.686979 
L 249.287214 356.283274 
L 249.198825 356.283274 
L 249.066242 355.87957 
L 248.977853 355.87957 
L 248.84527 355.475865 
L 248.756882 355.475865 
L 248.624299 355.072161 
L 248.53591 355.072161 
L 248.403327 354.668456 
L 248.314939 354.668456 
L 248.182356 354.264752 
L 248.093967 354.264752 
L 247.961384 353.861047 
L 247.872995 353.861047 
L 247.740412 353.457343 
L 247.652024 353.457343 
L 247.519441 353.053638 
L 247.431052 353.053638 
L 247.298469 352.649934 
L 247.210081 352.649934 
L 247.077498 352.24623 
L 246.989109 352.24623 
L 246.856526 351.842525 
L 246.768137 351.842525 
L 246.635555 351.438821 
L 246.547166 351.438821 
L 246.414583 351.035116 
L 246.326194 351.035116 
L 246.193611 350.631412 
L 246.105223 350.631412 
L 245.97264 350.227707 
L 245.884251 350.227707 
L 245.751668 349.824003 
L 245.66328 349.824003 
L 245.530697 349.420298 
L 245.442308 349.420298 
L 245.309725 349.016594 
L 245.221336 349.016594 
L 245.088753 348.612889 
L 245.000365 348.612889 
L 244.867782 348.209185 
L 244.779393 348.209185 
L 244.64681 347.80548 
L 244.558422 347.80548 
L 244.425839 347.401776 
L 244.33745 347.401776 
L 244.204867 346.998071 
L 244.116478 346.998071 
L 243.983895 346.594367 
L 243.895507 346.594367 
L 243.762924 346.190662 
L 243.674535 346.190662 
L 243.541952 345.786958 
L 243.453564 345.786958 
L 243.320981 345.383253 
L 243.232592 345.383253 
L 243.100009 344.979549 
L 243.01162 344.979549 
L 242.879037 344.575844 
L 242.790649 344.575844 
L 242.658066 344.17214 
L 242.569677 344.17214 
L 242.437094 343.768435 
L 242.348706 343.768435 
L 242.216123 343.364731 
L 242.127734 343.364731 
L 241.995151 342.961026 
L 241.906762 342.961026 
L 241.77418 342.557322 
L 241.685791 342.557322 
L 241.553208 342.153617 
L 241.464819 342.153617 
L 241.332236 341.749913 
L 241.243848 341.749913 
L 241.111265 341.346208 
L 241.022876 341.346208 
L 240.890293 340.942504 
L 240.801905 340.942504 
L 240.669322 340.538799 
L 240.580933 340.538799 
L 240.44835 340.135095 
L 240.359961 340.135095 
L 240.227378 339.73139 
L 240.13899 339.73139 
L 240.006407 339.327686 
L 239.918018 339.327686 
L 239.785435 338.923981 
L 239.697047 338.923981 
L 239.564464 338.520277 
L 239.476075 338.520277 
L 239.343492 338.116572 
L 239.255103 338.116572 
L 239.12252 337.712868 
L 239.034132 337.712868 
L 238.901549 337.309163 
L 238.81316 337.309163 
L 238.680577 336.905459 
L 238.592189 336.905459 
L 238.459606 336.501754 
L 238.371217 336.501754 
L 238.238634 336.09805 
L 238.150245 336.09805 
L 238.017662 335.694345 
L 237.929274 335.694345 
L 237.796691 335.290641 
L 237.708302 335.290641 
L 237.575719 334.886936 
L 237.487331 334.886936 
L 237.354748 334.483232 
L 237.266359 334.483232 
L 237.133776 334.079527 
L 237.045388 334.079527 
L 236.912805 333.675823 
L 236.824416 333.675823 
L 236.691833 333.272118 
L 236.603444 333.272118 
L 236.470861 332.868414 
L 236.382473 332.868414 
L 236.24989 332.464709 
L 236.161501 332.464709 
L 236.028918 332.061005 
L 235.94053 332.061005 
L 235.807947 331.6573 
L 235.719558 331.6573 
L 235.586975 331.253596 
L 235.498586 331.253596 
L 235.366003 330.849891 
L 235.277615 330.849891 
L 235.145032 330.446187 
L 235.056643 330.446187 
L 234.92406 330.042482 
L 234.835672 330.042482 
L 234.703089 329.638778 
L 234.6147 329.638778 
L 234.482117 329.235073 
L 234.393728 329.235073 
L 234.261145 328.831369 
L 234.172757 328.831369 
L 234.040174 328.427664 
L 233.951785 328.427664 
L 233.819202 328.02396 
L 233.730814 328.02396 
L 233.598231 327.620255 
L 233.509842 327.620255 
L 233.377259 327.216551 
L 233.28887 327.216551 
L 233.156287 326.812846 
L 233.067899 326.812846 
L 232.935316 326.409142 
L 232.846927 326.409142 
L 232.714344 326.005438 
L 232.625956 326.005438 
L 232.493373 325.601733 
L 232.404984 325.601733 
L 232.272401 325.198029 
L 232.184012 325.198029 
L 232.05143 324.794324 
L 231.963041 324.794324 
L 231.830458 324.39062 
L 231.742069 324.39062 
L 231.609486 323.986915 
L 231.521098 323.986915 
L 231.388515 323.583211 
L 231.300126 323.583211 
L 231.167543 323.179506 
L 231.079155 323.179506 
L 230.946572 322.775802 
L 230.681406 322.775802 
L 230.548823 322.372097 
L 230.460434 322.372097 
L 230.327851 321.968393 
L 230.239463 321.968393 
L 230.10688 321.564688 
L 230.018491 321.564688 
L 229.885908 321.160984 
L 229.797519 321.160984 
L 229.664936 320.757279 
L 229.576548 320.757279 
L 229.443965 320.353575 
L 229.355576 320.353575 
L 229.222993 319.94987 
L 229.134605 319.94987 
L 229.002022 319.546166 
L 228.913633 319.546166 
L 228.78105 319.142461 
L 228.692661 319.142461 
L 228.560078 318.738757 
L 228.47169 318.738757 
L 228.339107 318.335052 
L 228.250718 318.335052 
L 228.118135 317.931348 
L 228.029747 317.931348 
L 227.897164 317.527643 
L 227.808775 317.527643 
L 227.676192 317.123939 
L 227.587803 317.123939 
L 227.45522 316.720234 
L 227.366832 316.720234 
L 227.234249 316.31653 
L 227.14586 316.31653 
L 227.013277 315.912825 
L 226.924889 315.912825 
L 226.792306 315.509121 
L 226.703917 315.509121 
L 226.571334 315.105416 
L 226.482945 315.105416 
L 226.350362 314.701712 
L 226.261974 314.701712 
L 226.129391 314.298007 
L 226.041002 314.298007 
L 225.908419 313.894303 
L 225.820031 313.894303 
L 225.687448 313.490598 
L 225.599059 313.490598 
L 225.466476 313.086894 
L 225.378087 313.086894 
L 225.245505 312.683189 
L 225.157116 312.683189 
L 225.024533 312.279485 
L 224.936144 312.279485 
L 224.803561 311.87578 
L 224.715173 311.87578 
L 224.58259 311.472076 
L 224.494201 311.472076 
L 224.361618 311.068371 
L 224.27323 311.068371 
L 224.140647 310.664667 
L 224.052258 310.664667 
L 223.919675 310.260962 
L 223.831286 310.260962 
L 223.698703 309.857258 
L 223.610315 309.857258 
L 223.477732 309.453553 
L 223.389343 309.453553 
L 223.25676 309.049849 
L 223.168372 309.049849 
L 223.035789 308.646144 
L 222.9474 308.646144 
L 222.814817 308.24244 
L 222.726428 308.24244 
L 222.593845 307.838735 
L 222.505457 307.838735 
L 222.372874 307.435031 
L 222.284485 307.435031 
L 222.151902 307.031326 
L 222.063514 307.031326 
L 221.930931 306.627622 
L 221.842542 306.627622 
L 221.709959 306.223917 
L 221.62157 306.223917 
L 221.488988 305.820213 
L 221.400599 305.820213 
L 221.268016 305.416508 
L 221.179627 305.416508 
L 221.047044 305.012804 
L 220.958656 305.012804 
L 220.826073 304.609099 
L 220.737684 304.609099 
L 220.605101 304.205395 
L 220.516712 304.205395 
L 220.38413 303.80169 
L 220.295741 303.80169 
L 220.163158 303.397986 
L 220.074769 303.397986 
L 219.942186 302.994281 
L 219.853798 302.994281 
L 219.721215 302.590577 
L 219.632826 302.590577 
L 219.500243 302.186872 
L 219.411855 302.186872 
L 219.279272 301.783168 
L 219.190883 301.783168 
L 219.0583 301.379463 
L 218.969911 301.379463 
L 218.837328 300.975759 
L 218.74894 300.975759 
L 218.616357 300.572055 
L 218.527968 300.572055 
L 218.395385 300.16835 
L 218.306997 300.16835 
L 218.174414 299.764646 
L 218.086025 299.764646 
L 217.953442 299.360941 
L 217.865053 299.360941 
L 217.73247 298.957237 
L 217.644082 298.957237 
L 217.511499 298.553532 
L 217.42311 298.553532 
L 217.290527 298.149828 
L 217.202139 298.149828 
L 217.069556 297.746123 
L 216.981167 297.746123 
L 216.848584 297.342419 
L 216.760195 297.342419 
L 216.627612 296.938714 
L 216.539224 296.938714 
L 216.406641 296.53501 
L 216.318252 296.53501 
L 216.185669 296.131305 
L 216.097281 296.131305 
L 215.964698 295.727601 
L 215.876309 295.727601 
L 215.743726 295.323896 
L 215.655337 295.323896 
L 215.522755 294.920192 
L 215.434366 294.920192 
L 215.301783 294.516487 
L 215.213394 294.516487 
L 215.080811 294.112783 
L 214.992423 294.112783 
L 214.85984 293.709078 
L 214.771451 293.709078 
L 214.638868 293.305374 
L 214.55048 293.305374 
L 214.417897 292.901669 
L 214.329508 292.901669 
L 214.196925 292.497965 
L 214.108536 292.497965 
L 213.975953 292.09426 
L 213.887565 292.09426 
L 213.754982 291.690556 
L 213.666593 291.690556 
L 213.53401 291.286851 
L 213.445622 291.286851 
L 213.313039 290.883147 
L 213.22465 290.883147 
L 213.092067 290.479442 
L 213.003678 290.479442 
L 212.871095 290.075738 
L 212.782707 290.075738 
L 212.650124 289.672033 
L 212.561735 289.672033 
L 212.429152 289.268329 
L 212.340764 289.268329 
L 212.208181 288.864624 
L 211.943015 288.864624 
L 211.810432 288.46092 
L 211.722043 288.46092 
L 211.58946 288.057215 
L 211.501072 288.057215 
L 211.368489 287.653511 
L 211.2801 287.653511 
L 211.147517 287.249806 
L 211.059128 287.249806 
L 210.926545 286.846102 
L 210.838157 286.846102 
L 210.705574 286.442397 
L 210.617185 286.442397 
L 210.484602 286.038693 
L 210.396214 286.038693 
L 210.263631 285.634988 
L 210.175242 285.634988 
L 210.042659 285.231284 
L 209.95427 285.231284 
L 209.821687 284.827579 
L 209.733299 284.827579 
L 209.600716 284.423875 
L 209.512327 284.423875 
L 209.379744 284.02017 
L 209.291356 284.02017 
L 209.158773 283.616466 
L 209.070384 283.616466 
L 208.937801 283.212761 
L 208.849412 283.212761 
L 208.71683 282.809057 
L 208.628441 282.809057 
L 208.495858 282.405352 
L 208.407469 282.405352 
L 208.274886 282.001648 
L 208.186498 282.001648 
L 208.053915 281.597943 
L 207.965526 281.597943 
L 207.832943 281.194239 
L 207.744555 281.194239 
L 207.611972 280.790534 
L 207.523583 280.790534 
L 207.391 280.38683 
L 207.302611 280.38683 
L 207.170028 279.983125 
L 207.08164 279.983125 
L 206.949057 279.579421 
L 206.860668 279.579421 
L 206.728085 279.175716 
L 206.639697 279.175716 
L 206.507114 278.772012 
L 206.418725 278.772012 
L 206.286142 278.368307 
L 206.197753 278.368307 
L 206.06517 277.964603 
L 205.976782 277.964603 
L 205.844199 277.560898 
L 205.75581 277.560898 
L 205.623227 277.157194 
L 205.534839 277.157194 
L 205.402256 276.753489 
L 205.313867 276.753489 
L 205.181284 276.349785 
L 205.092895 276.349785 
L 204.960312 275.94608 
L 204.871924 275.94608 
L 204.739341 275.542376 
L 204.650952 275.542376 
L 204.518369 275.138671 
L 204.429981 275.138671 
L 204.297398 274.734967 
L 204.209009 274.734967 
L 204.076426 274.331263 
L 203.988037 274.331263 
L 203.855455 273.927558 
L 203.767066 273.927558 
L 203.634483 273.523854 
L 203.546094 273.523854 
L 203.413511 273.120149 
L 203.325123 273.120149 
L 203.19254 272.716445 
L 203.104151 272.716445 
L 202.971568 272.31274 
L 202.88318 272.31274 
L 202.750597 271.909036 
L 202.662208 271.909036 
L 202.529625 271.505331 
L 202.441236 271.505331 
L 202.308653 271.101627 
L 202.220265 271.101627 
L 202.087682 270.697922 
L 201.999293 270.697922 
L 201.86671 270.294218 
L 201.778322 270.294218 
L 201.645739 269.890513 
L 201.55735 269.890513 
L 201.424767 269.486809 
L 201.336378 269.486809 
L 201.203795 269.083104 
L 201.115407 269.083104 
L 200.982824 268.6794 
L 200.894435 268.6794 
L 200.761852 268.275695 
L 200.673464 268.275695 
L 200.540881 267.871991 
L 200.452492 267.871991 
L 200.319909 267.468286 
L 200.23152 267.468286 
L 200.098937 267.064582 
L 200.010549 267.064582 
L 199.877966 266.660877 
L 199.789577 266.660877 
L 199.656994 266.257173 
L 199.568606 266.257173 
L 199.436023 265.853468 
L 199.347634 265.853468 
L 199.215051 265.449764 
L 199.126663 265.449764 
L 198.99408 265.046059 
L 198.905691 265.046059 
L 198.773108 264.642355 
L 198.684719 264.642355 
L 198.552136 264.23865 
L 198.463748 264.23865 
L 198.331165 263.834946 
L 198.242776 263.834946 
L 198.110193 263.431241 
L 198.021805 263.431241 
L 197.889222 263.027537 
L 197.800833 263.027537 
L 197.66825 262.623832 
L 197.579861 262.623832 
L 197.447278 262.220128 
L 197.35889 262.220128 
L 197.226307 261.816423 
L 197.137918 261.816423 
L 197.005335 261.412719 
L 196.916947 261.412719 
L 196.784364 261.009014 
L 196.695975 261.009014 
L 196.563392 260.60531 
L 196.475003 260.60531 
L 196.34242 260.201605 
L 196.254032 260.201605 
L 196.121449 259.797901 
L 196.03306 259.797901 
L 195.900477 259.394196 
L 195.812089 259.394196 
L 195.679506 258.990492 
L 195.591117 258.990492 
L 195.458534 258.586787 
L 195.370145 258.586787 
L 195.237562 258.183083 
L 195.149174 258.183083 
L 195.016591 257.779378 
L 194.928202 257.779378 
L 194.795619 257.375674 
L 194.707231 257.375674 
L 194.574648 256.971969 
L 194.486259 256.971969 
L 194.353676 256.568265 
L 194.265287 256.568265 
L 194.132705 256.16456 
L 194.044316 256.16456 
L 193.911733 255.760856 
L 193.823344 255.760856 
L 193.690761 255.357151 
L 193.602373 255.357151 
L 193.46979 254.953447 
L 193.381401 254.953447 
L 193.248818 254.549742 
L 193.16043 254.549742 
L 193.027847 254.146038 
L 192.939458 254.146038 
L 192.806875 253.742333 
L 192.718486 253.742333 
L 192.585903 253.338629 
L 192.497515 253.338629 
L 192.364932 252.934924 
L 192.276543 252.934924 
L 192.14396 252.53122 
L 192.055572 252.53122 
L 191.922989 252.127515 
L 191.8346 252.127515 
L 191.702017 251.723811 
L 191.613628 251.723811 
L 191.481045 251.320106 
L 191.392657 251.320106 
L 191.260074 250.916402 
L 191.171685 250.916402 
L 191.039102 250.512697 
L 190.950714 250.512697 
L 190.818131 250.108993 
L 190.729742 250.108993 
L 190.597159 249.705288 
L 190.50877 249.705288 
L 190.376187 249.301584 
L 190.287799 249.301584 
L 190.155216 248.897879 
L 190.066827 248.897879 
L 189.934244 248.494175 
L 189.845856 248.494175 
L 189.713273 248.090471 
L 189.624884 248.090471 
L 189.492301 247.686766 
L 189.403912 247.686766 
L 189.27133 247.283062 
L 189.182941 247.283062 
L 189.050358 246.879357 
L 188.961969 246.879357 
L 188.829386 246.475653 
L 188.740998 246.475653 
L 188.608415 246.071948 
L 188.520026 246.071948 
L 188.387443 245.668244 
L 188.299055 245.668244 
L 188.166472 245.264539 
L 188.078083 245.264539 
L 187.9455 244.860835 
L 187.857111 244.860835 
L 187.724528 244.45713 
L 187.63614 244.45713 
L 187.503557 244.053426 
L 187.415168 244.053426 
L 187.282585 243.649721 
L 187.194197 243.649721 
L 187.061614 243.246017 
L 186.973225 243.246017 
L 186.840642 242.842312 
L 186.752253 242.842312 
L 186.61967 242.438608 
L 186.531282 242.438608 
L 186.398699 242.034903 
L 186.31031 242.034903 
L 186.177727 241.631199 
L 186.089339 241.631199 
L 185.956756 241.227494 
L 185.868367 241.227494 
L 185.735784 240.82379 
L 185.647395 240.82379 
L 185.514813 240.420085 
L 185.426424 240.420085 
L 185.293841 240.016381 
L 185.205452 240.016381 
L 185.072869 239.612676 
L 184.984481 239.612676 
L 184.851898 239.208972 
L 184.763509 239.208972 
L 184.630926 238.805267 
L 184.542537 238.805267 
L 184.409955 238.401563 
L 184.321566 238.401563 
L 184.188983 237.997858 
L 184.100594 237.997858 
L 183.968011 237.594154 
L 183.879623 237.594154 
L 183.74704 237.190449 
L 183.658651 237.190449 
L 183.526068 236.786745 
L 183.260902 236.786745 
L 183.128319 236.38304 
L 183.039931 236.38304 
L 182.907348 235.979336 
L 182.818959 235.979336 
L 182.686376 235.575631 
L 182.597987 235.575631 
L 182.465405 235.171927 
L 182.377016 235.171927 
L 182.244433 234.768222 
L 182.156044 234.768222 
L 182.023461 234.364518 
L 181.935073 234.364518 
L 181.80249 233.960813 
L 181.714101 233.960813 
L 181.581518 233.557109 
L 181.49313 233.557109 
L 181.360547 233.153404 
L 181.272158 233.153404 
L 181.139575 232.7497 
L 181.051186 232.7497 
L 180.918603 232.345995 
L 180.830215 232.345995 
L 180.697632 231.942291 
L 180.609243 231.942291 
L 180.47666 231.538586 
L 180.388272 231.538586 
L 180.255689 231.134882 
L 180.1673 231.134882 
L 180.034717 230.731177 
L 179.946328 230.731177 
L 179.813745 230.327473 
L 179.725357 230.327473 
L 179.592774 229.923768 
L 179.504385 229.923768 
L 179.371802 229.520064 
L 179.283414 229.520064 
L 179.150831 229.116359 
L 179.062442 229.116359 
L 178.929859 228.712655 
L 178.84147 228.712655 
L 178.708888 228.30895 
L 178.620499 228.30895 
L 178.487916 227.905246 
L 178.399527 227.905246 
L 178.266944 227.501541 
L 178.178556 227.501541 
L 178.045973 227.097837 
L 177.957584 227.097837 
L 177.825001 226.694132 
L 177.736612 226.694132 
L 177.60403 226.290428 
L 177.515641 226.290428 
L 177.383058 225.886723 
L 177.294669 225.886723 
L 177.162086 225.483019 
L 177.073698 225.483019 
L 176.941115 225.079314 
L 176.852726 225.079314 
L 176.720143 224.67561 
L 176.631755 224.67561 
L 176.499172 224.271905 
L 176.410783 224.271905 
L 176.2782 223.868201 
L 176.189811 223.868201 
L 176.057228 223.464496 
L 175.96884 223.464496 
L 175.836257 223.060792 
L 175.747868 223.060792 
L 175.615285 222.657088 
L 175.526897 222.657088 
L 175.394314 222.253383 
L 175.305925 222.253383 
L 175.173342 221.849679 
L 175.084953 221.849679 
L 174.95237 221.445974 
L 174.863982 221.445974 
L 174.731399 221.04227 
L 174.64301 221.04227 
L 174.510427 220.638565 
L 174.422039 220.638565 
L 174.289456 220.234861 
L 174.201067 220.234861 
L 174.068484 219.831156 
L 173.980095 219.831156 
L 173.847512 219.427452 
L 173.759124 219.427452 
L 173.626541 219.023747 
L 173.538152 219.023747 
L 173.405569 218.620043 
L 173.317181 218.620043 
L 173.184598 218.216338 
L 173.096209 218.216338 
L 172.963626 217.812634 
L 172.875237 217.812634 
L 172.742655 217.408929 
L 172.654266 217.408929 
L 172.521683 217.005225 
L 172.433294 217.005225 
L 172.300711 216.60152 
L 172.212323 216.60152 
L 172.07974 216.197816 
L 171.991351 216.197816 
L 171.858768 215.794111 
L 171.77038 215.794111 
L 171.637797 215.390407 
L 171.549408 215.390407 
L 171.416825 214.986702 
L 171.328436 214.986702 
L 171.195853 214.582998 
L 171.107465 214.582998 
L 170.974882 214.179293 
L 170.886493 214.179293 
L 170.75391 213.775589 
L 170.665522 213.775589 
L 170.532939 213.371884 
L 170.44455 213.371884 
L 170.311967 212.96818 
L 170.223578 212.96818 
L 170.090995 212.564475 
L 170.002607 212.564475 
L 169.870024 212.160771 
L 169.781635 212.160771 
L 169.649052 211.757066 
L 169.560664 211.757066 
L 169.428081 211.353362 
L 169.339692 211.353362 
L 169.207109 210.949657 
L 169.11872 210.949657 
L 168.986137 210.545953 
L 168.897749 210.545953 
L 168.765166 210.142248 
L 168.676777 210.142248 
L 168.544194 209.738544 
L 168.455806 209.738544 
L 168.323223 209.334839 
L 168.234834 209.334839 
L 168.102251 208.931135 
L 168.013863 208.931135 
L 167.88128 208.52743 
L 167.792891 208.52743 
L 167.660308 208.123726 
L 167.571919 208.123726 
L 167.439336 207.720021 
L 167.350948 207.720021 
L 167.218365 207.316317 
L 167.129976 207.316317 
L 166.997393 206.912612 
L 166.909005 206.912612 
L 166.776422 206.508908 
L 166.688033 206.508908 
L 166.55545 206.105203 
L 166.467061 206.105203 
L 166.334478 205.701499 
L 166.24609 205.701499 
L 166.113507 205.297794 
L 166.025118 205.297794 
L 165.892535 204.89409 
L 165.804147 204.89409 
L 165.671564 204.490385 
L 165.583175 204.490385 
L 165.450592 204.086681 
L 165.362203 204.086681 
L 165.22962 203.682976 
L 165.141232 203.682976 
L 165.008649 203.279272 
L 164.92026 203.279272 
L 164.787677 202.875567 
L 164.699289 202.875567 
L 164.566706 202.471863 
L 164.478317 202.471863 
L 164.345734 202.068158 
L 164.257345 202.068158 
L 164.124763 201.664454 
L 164.036374 201.664454 
L 163.903791 201.260749 
L 163.815402 201.260749 
L 163.682819 200.857045 
L 163.594431 200.857045 
L 163.461848 200.45334 
L 163.373459 200.45334 
L 163.240876 200.049636 
L 163.152488 200.049636 
L 163.019905 199.645931 
L 162.931516 199.645931 
L 162.798933 199.242227 
L 162.710544 199.242227 
L 162.577961 198.838522 
L 162.489573 198.838522 
L 162.35699 198.434818 
L 162.268601 198.434818 
L 162.136018 198.031113 
L 162.04763 198.031113 
L 161.915047 197.627409 
L 161.826658 197.627409 
L 161.694075 197.223704 
L 161.605686 197.223704 
L 161.473103 196.82 
L 161.384715 196.82 
L 161.252132 196.416296 
L 161.163743 196.416296 
L 161.03116 196.012591 
L 160.942772 196.012591 
L 160.810189 195.608887 
L 160.7218 195.608887 
L 160.589217 195.205182 
L 160.500828 195.205182 
L 160.368245 194.801478 
L 160.279857 194.801478 
L 160.147274 194.397773 
L 160.058885 194.397773 
L 159.926302 193.994069 
L 159.837914 193.994069 
L 159.705331 193.590364 
L 159.440165 193.590364 
L 159.307582 193.18666 
L 159.219193 193.18666 
L 159.08661 192.782955 
L 158.998222 192.782955 
L 158.865639 192.379251 
L 158.77725 192.379251 
L 158.644667 191.975546 
L 158.556278 191.975546 
L 158.423695 191.571842 
L 158.335307 191.571842 
L 158.202724 191.168137 
L 158.114335 191.168137 
L 157.981752 190.764433 
L 157.893364 190.764433 
L 157.760781 190.360728 
L 157.672392 190.360728 
L 157.539809 189.957024 
L 157.45142 189.957024 
L 157.318838 189.553319 
L 157.230449 189.553319 
L 157.097866 189.149615 
L 157.009477 189.149615 
L 156.876894 188.74591 
L 156.788506 188.74591 
L 156.655923 188.342206 
L 156.567534 188.342206 
L 156.434951 187.938501 
L 156.346563 187.938501 
L 156.21398 187.534797 
L 156.125591 187.534797 
L 155.993008 187.131092 
L 155.904619 187.131092 
L 155.772036 186.727388 
L 155.683648 186.727388 
L 155.551065 186.323683 
L 155.462676 186.323683 
L 155.330093 185.919979 
L 155.241705 185.919979 
L 155.109122 185.516274 
L 155.020733 185.516274 
L 154.88815 185.11257 
L 154.799761 185.11257 
L 154.667178 184.708865 
L 154.57879 184.708865 
L 154.446207 184.305161 
L 154.357818 184.305161 
L 154.225235 183.901456 
L 154.136847 183.901456 
L 154.004264 183.497752 
L 153.915875 183.497752 
L 153.783292 183.094047 
L 153.694903 183.094047 
L 153.56232 182.690343 
L 153.473932 182.690343 
L 153.341349 182.286638 
L 153.25296 182.286638 
L 153.120377 181.882934 
L 153.031989 181.882934 
L 152.899406 181.479229 
L 152.811017 181.479229 
L 152.678434 181.075525 
L 152.590045 181.075525 
L 152.457462 180.67182 
L 152.369074 180.67182 
L 152.236491 180.268116 
L 152.148102 180.268116 
L 152.015519 179.864411 
L 151.927131 179.864411 
L 151.794548 179.460707 
L 151.529382 179.460707 
L 151.396799 179.057002 
L 151.30841 179.057002 
L 151.175827 178.653298 
L 151.087439 178.653298 
L 150.954856 178.249593 
L 150.866467 178.249593 
L 150.733884 177.845889 
L 150.645495 177.845889 
L 150.512912 177.442184 
L 150.424524 177.442184 
L 150.291941 177.03848 
L 150.203552 177.03848 
L 150.070969 176.634775 
L 149.982581 176.634775 
L 149.849998 176.231071 
L 149.761609 176.231071 
L 149.629026 175.827366 
L 149.540638 175.827366 
L 149.408055 175.423662 
L 149.319666 175.423662 
L 149.187083 175.019957 
L 149.098694 175.019957 
L 148.966111 174.616253 
L 148.877723 174.616253 
L 148.74514 174.212548 
L 148.656751 174.212548 
L 148.524168 173.808844 
L 148.43578 173.808844 
L 148.303197 173.405139 
L 148.214808 173.405139 
L 148.082225 173.001435 
L 147.993836 173.001435 
L 147.861253 172.59773 
L 147.772865 172.59773 
L 147.640282 172.194026 
L 147.551893 172.194026 
L 147.41931 171.790321 
L 147.330922 171.790321 
L 147.198339 171.386617 
L 147.10995 171.386617 
L 146.977367 170.982912 
L 146.888978 170.982912 
L 146.756395 170.579208 
L 146.668007 170.579208 
L 146.535424 170.175504 
L 146.447035 170.175504 
L 146.314452 169.771799 
L 146.226064 169.771799 
L 146.093481 169.368095 
L 146.005092 169.368095 
L 145.872509 168.96439 
L 145.78412 168.96439 
L 145.651538 168.560686 
L 145.563149 168.560686 
L 145.430566 168.156981 
L 145.342177 168.156981 
L 145.209594 167.753277 
L 145.121206 167.753277 
L 144.988623 167.349572 
L 144.900234 167.349572 
L 144.767651 166.945868 
L 144.679262 166.945868 
L 144.54668 166.542163 
L 144.458291 166.542163 
L 144.325708 166.138459 
L 144.237319 166.138459 
L 144.104736 165.734754 
L 144.016348 165.734754 
L 143.883765 165.33105 
L 143.795376 165.33105 
L 143.662793 164.927345 
L 143.574405 164.927345 
L 143.441822 164.523641 
L 143.353433 164.523641 
L 143.22085 164.119936 
L 143.132461 164.119936 
L 142.999878 163.716232 
L 142.91149 163.716232 
L 142.778907 163.312527 
L 142.690518 163.312527 
L 142.557935 162.908823 
L 142.469547 162.908823 
L 142.336964 162.505118 
L 142.248575 162.505118 
L 142.115992 162.101414 
L 142.027603 162.101414 
L 141.89502 161.697709 
L 141.806632 161.697709 
L 141.674049 161.294005 
L 141.58566 161.294005 
L 141.453077 160.8903 
L 141.364689 160.8903 
L 141.232106 160.486596 
L 141.143717 160.486596 
L 141.011134 160.082891 
L 140.922745 160.082891 
L 140.790163 159.679187 
L 140.701774 159.679187 
L 140.569191 159.275482 
L 140.480802 159.275482 
L 140.348219 158.871778 
L 140.259831 158.871778 
L 140.127248 158.468073 
L 140.038859 158.468073 
L 139.906276 158.064369 
L 139.817887 158.064369 
L 139.685305 157.660664 
L 139.596916 157.660664 
L 139.464333 157.25696 
L 139.375944 157.25696 
L 139.243361 156.853255 
L 139.154973 156.853255 
L 139.02239 156.449551 
L 138.934001 156.449551 
L 138.801418 156.045846 
L 138.71303 156.045846 
L 138.580447 155.642142 
L 138.492058 155.642142 
L 138.359475 155.238437 
L 138.271086 155.238437 
L 138.138503 154.834733 
L 138.050115 154.834733 
L 137.917532 154.431028 
L 137.829143 154.431028 
L 137.69656 154.027324 
L 137.608172 154.027324 
L 137.475589 153.623619 
L 137.3872 153.623619 
L 137.254617 153.219915 
L 137.166228 153.219915 
L 137.033645 152.81621 
L 136.945257 152.81621 
L 136.812674 152.412506 
L 136.724285 152.412506 
L 136.591702 152.008801 
L 136.503314 152.008801 
L 136.370731 151.605097 
L 136.282342 151.605097 
L 136.149759 151.201392 
L 136.06137 151.201392 
L 135.928787 150.797688 
L 135.840399 150.797688 
L 135.707816 150.393983 
L 135.619427 150.393983 
L 135.486844 149.990279 
L 135.398456 149.990279 
L 135.265873 149.586574 
L 135.177484 149.586574 
L 135.044901 149.18287 
L 134.956513 149.18287 
L 134.82393 148.779165 
L 134.735541 148.779165 
L 134.602958 148.375461 
L 134.514569 148.375461 
L 134.381986 147.971756 
L 134.293598 147.971756 
L 134.161015 147.568052 
L 134.072626 147.568052 
L 133.940043 147.164347 
L 133.851655 147.164347 
L 133.719072 146.760643 
L 133.630683 146.760643 
L 133.4981 146.356938 
L 133.409711 146.356938 
L 133.277128 145.953234 
L 133.18874 145.953234 
L 133.056157 145.549529 
L 132.967768 145.549529 
L 132.835185 145.145825 
L 132.746797 145.145825 
L 132.614214 144.742121 
L 132.525825 144.742121 
L 132.393242 144.338416 
L 132.304853 144.338416 
L 132.17227 143.934712 
L 132.083882 143.934712 
L 131.951299 143.531007 
L 131.86291 143.531007 
L 131.730327 143.127303 
L 131.641939 143.127303 
L 131.509356 142.723598 
L 131.420967 142.723598 
L 131.288384 142.319894 
L 131.199995 142.319894 
L 131.067412 141.916189 
L 130.979024 141.916189 
L 130.846441 141.512485 
L 130.758052 141.512485 
L 130.625469 141.10878 
L 130.537081 141.10878 
L 130.404498 140.705076 
L 130.316109 140.705076 
L 130.183526 140.301371 
L 130.095138 140.301371 
L 129.962555 139.897667 
L 129.874166 139.897667 
L 129.741583 139.493962 
L 129.653194 139.493962 
L 129.520611 139.090258 
L 129.432223 139.090258 
L 129.29964 138.686553 
L 129.211251 138.686553 
L 129.078668 138.282849 
L 128.99028 138.282849 
L 128.857697 137.879144 
L 128.769308 137.879144 
L 128.636725 137.47544 
L 128.548336 137.47544 
L 128.415753 137.071735 
L 128.327365 137.071735 
L 128.194782 136.668031 
L 128.106393 136.668031 
L 127.97381 136.264326 
L 127.885422 136.264326 
L 127.752839 135.860622 
L 127.66445 135.860622 
L 127.531867 135.456917 
L 127.443478 135.456917 
L 127.310895 135.053213 
L 127.222507 135.053213 
L 127.089924 134.649508 
L 127.001535 134.649508 
L 126.868952 134.245804 
L 126.780564 134.245804 
L 126.647981 133.842099 
L 126.559592 133.842099 
L 126.427009 133.438395 
L 126.33862 133.438395 
L 126.206038 133.03469 
L 126.117649 133.03469 
L 125.985066 132.630986 
L 125.896677 132.630986 
L 125.764094 132.227281 
L 125.675706 132.227281 
L 125.543123 131.823577 
L 125.454734 131.823577 
L 125.322151 131.419872 
L 125.233763 131.419872 
L 125.10118 131.016168 
L 125.012791 131.016168 
L 124.880208 130.612463 
L 124.791819 130.612463 
L 124.659236 130.208759 
L 124.570848 130.208759 
L 124.438265 129.805054 
L 124.349876 129.805054 
L 124.217293 129.40135 
L 124.128905 129.40135 
L 123.996322 128.997645 
L 123.907933 128.997645 
L 123.77535 128.593941 
L 123.686961 128.593941 
L 123.554378 128.190236 
L 123.46599 128.190236 
L 123.333407 127.786532 
L 123.245018 127.786532 
L 123.112435 127.382827 
L 123.024047 127.382827 
L 122.891464 126.979123 
L 122.803075 126.979123 
L 122.670492 126.575418 
L 122.582103 126.575418 
L 122.44952 126.171714 
L 122.361132 126.171714 
L 122.228549 125.768009 
L 122.14016 125.768009 
L 122.007577 125.364305 
L 121.919189 125.364305 
L 121.786606 124.9606 
L 121.698217 124.9606 
L 121.565634 124.556896 
L 121.477245 124.556896 
L 121.344662 124.153191 
L 121.256274 124.153191 
L 121.123691 123.749487 
L 121.035302 123.749487 
L 120.902719 123.345782 
L 120.814331 123.345782 
L 120.681748 122.942078 
L 120.593359 122.942078 
L 120.460776 122.538373 
L 120.372388 122.538373 
L 120.239805 122.134669 
L 120.151416 122.134669 
L 120.018833 121.730964 
L 119.930444 121.730964 
L 119.797861 121.32726 
L 119.709473 121.32726 
L 119.57689 120.923555 
L 119.488501 120.923555 
L 119.355918 120.519851 
L 119.26753 120.519851 
L 119.134947 120.116146 
L 119.046558 120.116146 
L 118.913975 119.712442 
L 118.825586 119.712442 
L 118.693003 119.308737 
L 118.604615 119.308737 
L 118.472032 118.905033 
L 118.383643 118.905033 
L 118.25106 118.501329 
L 118.162672 118.501329 
L 118.030089 118.097624 
L 117.9417 118.097624 
L 117.809117 117.69392 
L 117.720728 117.69392 
L 117.588145 117.290215 
L 117.499757 117.290215 
L 117.367174 116.886511 
L 117.278785 116.886511 
L 117.146202 116.482806 
L 117.057814 116.482806 
L 116.925231 116.079102 
L 116.836842 116.079102 
L 116.704259 115.675397 
L 116.61587 115.675397 
L 116.483288 115.271693 
L 116.394899 115.271693 
L 116.262316 114.867988 
L 116.173927 114.867988 
L 116.041344 114.464284 
L 115.952956 114.464284 
L 115.820373 114.060579 
L 115.731984 114.060579 
L 115.599401 113.656875 
L 115.511013 113.656875 
L 115.37843 113.25317 
L 115.290041 113.25317 
L 115.157458 112.849466 
L 115.069069 112.849466 
L 114.936486 112.445761 
L 114.848098 112.445761 
L 114.715515 112.042057 
L 114.582932 112.042057 
L 114.450349 111.638352 
L 114.36196 111.638352 
L 114.229377 111.234648 
L 114.140989 111.234648 
L 114.008406 110.830943 
L 113.920017 110.830943 
L 113.787434 110.427239 
L 113.699045 110.427239 
L 113.566463 110.023534 
L 113.478074 110.023534 
L 113.345491 109.61983 
L 113.257102 109.61983 
L 113.124519 109.216125 
L 113.036131 109.216125 
L 112.903548 108.812421 
L 112.815159 108.812421 
L 112.682576 108.408716 
L 112.594188 108.408716 
L 112.461605 108.005012 
L 112.373216 108.005012 
L 112.240633 107.601307 
L 112.152244 107.601307 
L 112.019661 107.197603 
L 111.931273 107.197603 
L 111.79869 106.793898 
L 111.710301 106.793898 
L 111.577718 106.390194 
L 111.48933 106.390194 
L 111.356747 105.986489 
L 111.268358 105.986489 
L 111.135775 105.582785 
L 111.047386 105.582785 
L 110.914803 105.17908 
L 110.826415 105.17908 
L 110.693832 104.775376 
L 110.605443 104.775376 
L 110.47286 104.371671 
L 110.384472 104.371671 
L 110.251889 103.967967 
L 110.1635 103.967967 
L 110.030917 103.564262 
L 109.942528 103.564262 
L 109.809945 103.160558 
L 109.721557 103.160558 
L 109.588974 102.756853 
L 109.500585 102.756853 
L 109.368002 102.353149 
L 109.279614 102.353149 
L 109.147031 101.949444 
L 109.058642 101.949444 
L 108.926059 101.54574 
L 108.83767 101.54574 
L 108.705088 101.142035 
L 108.616699 101.142035 
L 108.484116 100.738331 
L 108.395727 100.738331 
L 108.263144 100.334626 
L 108.174756 100.334626 
L 108.042173 99.930922 
L 107.953784 99.930922 
L 107.821201 99.527217 
L 107.732813 99.527217 
L 107.60023 99.123513 
L 107.511841 99.123513 
L 107.379258 98.719808 
L 107.290869 98.719808 
L 107.158286 98.316104 
L 107.069898 98.316104 
L 106.937315 97.912399 
L 106.848926 97.912399 
L 106.716343 97.508695 
L 106.627955 97.508695 
L 106.495372 97.10499 
L 106.406983 97.10499 
L 106.2744 96.701286 
L 106.186011 96.701286 
L 106.053428 96.297581 
L 105.788263 96.297581 
L 105.65568 95.893877 
L 105.567291 95.893877 
L 105.434708 95.490172 
L 105.346319 95.490172 
L 105.213736 95.086468 
L 105.125348 95.086468 
L 104.992765 94.682763 
L 104.904376 94.682763 
L 104.771793 94.279059 
L 104.683405 94.279059 
L 104.550822 93.875354 
L 104.462433 93.875354 
L 104.32985 93.47165 
L 104.241461 93.47165 
L 104.108878 93.067945 
L 104.02049 93.067945 
L 103.887907 92.664241 
L 103.799518 92.664241 
L 103.666935 92.260537 
L 103.578547 92.260537 
L 103.445964 91.856832 
L 103.357575 91.856832 
L 103.224992 91.453128 
L 103.136603 91.453128 
L 103.00402 91.049423 
L 102.915632 91.049423 
L 102.783049 90.645719 
L 102.69466 90.645719 
L 102.562077 90.242014 
L 102.473689 90.242014 
L 102.341106 89.83831 
L 102.252717 89.83831 
L 102.120134 89.434605 
L 102.031745 89.434605 
L 101.899163 89.030901 
L 101.810774 89.030901 
L 101.678191 88.627196 
L 101.589802 88.627196 
L 101.457219 88.223492 
L 101.368831 88.223492 
L 101.236248 87.819787 
L 101.147859 87.819787 
L 101.015276 87.416083 
L 100.926888 87.416083 
L 100.794305 87.012378 
L 100.705916 87.012378 
L 100.573333 86.608674 
L 100.484944 86.608674 
L 100.352361 86.204969 
L 100.263973 86.204969 
L 100.13139 85.801265 
L 100.043001 85.801265 
L 99.910418 85.39756 
L 99.82203 85.39756 
L 99.689447 84.993856 
L 99.601058 84.993856 
L 99.468475 84.590151 
L 99.380086 84.590151 
L 99.247503 84.186447 
L 99.159115 84.186447 
L 99.026532 83.782742 
L 98.584589 83.782742 
L 98.452006 83.379038 
L 98.363617 83.379038 
L 98.231034 82.975333 
L 98.142645 82.975333 
L 98.010063 82.571629 
L 97.921674 82.571629 
L 97.789091 82.167924 
L 97.700702 82.167924 
L 97.568119 81.76422 
L 97.479731 81.76422 
L 97.347148 81.360515 
L 97.258759 81.360515 
L 97.126176 80.956811 
L 97.037788 80.956811 
L 96.905205 80.553106 
L 96.816816 80.553106 
L 96.684233 80.149402 
L 96.595844 80.149402 
L 96.463261 79.745697 
L 96.374873 79.745697 
L 96.24229 79.341993 
L 96.153901 79.341993 
L 96.021318 78.938288 
L 95.93293 78.938288 
L 95.800347 78.534584 
L 95.711958 78.534584 
L 95.579375 78.130879 
L 95.490986 78.130879 
L 95.358403 77.727175 
L 95.270015 77.727175 
L 95.137432 77.32347 
L 94.872266 77.32347 
L 94.739683 76.919766 
L 94.651294 76.919766 
L 94.518711 76.516061 
L 94.430323 76.516061 
L 94.29774 76.112357 
L 94.209351 76.112357 
L 94.076768 75.708652 
L 93.98838 75.708652 
L 93.855797 75.304948 
L 93.767408 75.304948 
L 93.634825 74.901243 
L 93.546436 74.901243 
L 93.413853 74.497539 
L 93.325465 74.497539 
L 93.192882 74.093834 
L 93.104493 74.093834 
L 92.97191 73.69013 
L 92.883522 73.69013 
L 92.750939 73.286425 
L 92.66255 73.286425 
L 92.529967 72.882721 
L 92.441578 72.882721 
L 92.308995 72.479016 
L 92.220607 72.479016 
L 92.088024 72.075312 
L 91.999635 72.075312 
L 91.867052 71.671607 
L 91.778664 71.671607 
L 91.646081 71.267903 
L 91.557692 71.267903 
L 91.425109 70.864198 
L 91.33672 70.864198 
L 91.204138 70.460494 
L 91.115749 70.460494 
L 90.983166 70.056789 
L 90.894777 70.056789 
L 90.762194 69.653085 
L 90.673806 69.653085 
L 90.541223 69.24938 
L 90.452834 69.24938 
L 90.320251 68.845676 
L 90.231863 68.845676 
L 90.09928 68.441971 
L 90.010891 68.441971 
L 89.878308 68.038267 
L 89.789919 68.038267 
L 89.657336 67.634562 
L 89.568948 67.634562 
L 89.436365 67.230858 
L 89.347976 67.230858 
L 89.215393 66.827154 
L 89.127005 66.827154 
L 88.994422 66.423449 
L 88.906033 66.423449 
L 88.77345 66.019745 
L 88.685061 66.019745 
L 88.552478 65.61604 
L 88.46409 65.61604 
L 88.331507 65.212336 
L 88.243118 65.212336 
L 88.110535 64.808631 
L 88.022147 64.808631 
L 87.889564 64.404927 
L 87.801175 64.404927 
L 87.668592 64.001222 
L 87.580203 64.001222 
L 87.44762 63.597518 
L 87.359232 63.597518 
L 87.226649 63.193813 
L 87.13826 63.193813 
L 87.005677 62.790109 
L 86.917289 62.790109 
L 86.784706 62.386404 
L 86.696317 62.386404 
L 86.563734 61.9827 
L 86.475345 61.9827 
L 86.342763 61.578995 
L 86.254374 61.578995 
L 86.121791 61.175291 
L 86.033402 61.175291 
L 85.900819 60.771586 
L 85.812431 60.771586 
L 85.679848 60.367882 
L 85.591459 60.367882 
L 85.458876 59.964177 
L 85.370488 59.964177 
L 85.237905 59.560473 
L 85.149516 59.560473 
L 85.016933 59.156768 
L 84.928544 59.156768 
L 84.795961 58.753064 
L 84.707573 58.753064 
L 84.57499 58.349359 
L 84.486601 58.349359 
L 84.354018 57.945655 
L 84.26563 57.945655 
L 84.133047 57.54195 
L 84.044658 57.54195 
L 83.912075 57.138246 
L 83.823686 57.138246 
L 83.691103 56.734541 
L 83.602715 56.734541 
L 83.470132 56.330837 
L 83.381743 56.330837 
L 83.24916 55.927132 
L 83.160772 55.927132 
L 83.028189 55.523428 
L 82.9398 55.523428 
L 82.807217 55.119723 
L 82.718828 55.119723 
L 82.586245 54.716019 
L 82.497857 54.716019 
L 82.365274 54.312314 
L 82.276885 54.312314 
L 82.144302 53.90861 
L 82.055914 53.90861 
L 81.923331 53.504905 
L 81.834942 53.504905 
L 81.702359 53.101201 
L 81.61397 53.101201 
L 81.481388 52.697496 
L 81.392999 52.697496 
L 81.260416 52.293792 
L 81.172027 52.293792 
L 81.039444 51.890087 
L 80.951056 51.890087 
L 80.818473 51.486383 
L 80.730084 51.486383 
L 80.597501 51.082678 
L 80.509113 51.082678 
L 80.37653 50.678974 
L 80.288141 50.678974 
L 80.155558 50.275269 
L 80.067169 50.275269 
L 79.934586 49.871565 
L 79.846198 49.871565 
L 79.713615 49.46786 
L 79.625226 49.46786 
L 79.492643 49.064156 
L 79.227477 49.064156 
L 79.094894 48.660451 
L 79.006506 48.660451 
L 78.873923 48.256747 
L 78.785534 48.256747 
L 78.652951 47.853042 
L 78.564563 47.853042 
L 78.43198 47.449338 
L 78.166814 47.449338 
L 78.034231 47.045633 
L 77.945842 47.045633 
L 77.813259 46.641929 
L 77.72487 46.641929 
L 77.592288 46.238224 
L 77.503899 46.238224 
L 77.371316 45.83452 
L 77.282927 45.83452 
L 77.150344 45.430815 
L 77.061956 45.430815 
L 76.929373 45.027111 
L 76.840984 45.027111 
L 76.708401 44.623406 
L 76.620013 44.623406 
L 76.48743 44.219702 
L 76.399041 44.219702 
L 76.266458 43.815997 
L 76.178069 43.815997 
L 76.045486 43.412293 
L 75.957098 43.412293 
L 75.824515 43.008588 
L 75.736126 43.008588 
L 75.603543 42.604884 
L 75.515155 42.604884 
L 75.382572 42.201179 
L 75.117406 42.201179 
L 74.984823 41.797475 
L 74.896434 41.797475 
L 74.763851 41.39377 
L 74.675463 41.39377 
L 74.54288 40.990066 
L 74.454491 40.990066 
L 74.321908 40.586362 
L 74.233519 40.586362 
L 74.100936 40.182657 
L 74.012548 40.182657 
L 73.879965 39.778953 
L 73.791576 39.778953 
L 73.658993 39.375248 
L 73.570605 39.375248 
L 73.438022 38.971544 
L 73.349633 38.971544 
L 73.21705 38.567839 
L 73.128661 38.567839 
L 72.996078 38.164135 
L 72.730913 38.164135 
L 72.59833 37.76043 
L 72.509941 37.76043 
L 72.377358 37.356726 
L 72.288969 37.356726 
L 72.156386 36.953021 
L 72.067998 36.953021 
L 71.935415 36.549317 
L 71.670249 36.549317 
L 71.537666 36.145612 
L 71.449277 36.145612 
L 71.316694 35.741908 
L 71.228306 35.741908 
L 71.095723 35.338203 
L 71.007334 35.338203 
L 70.874751 34.934499 
L 70.786363 34.934499 
L 70.65378 34.530794 
L 70.565391 34.530794 
L 70.432808 34.12709 
L 70.344419 34.12709 
L 70.211836 33.723385 
L 70.123448 33.723385 
L 69.990865 33.319681 
L 69.725699 33.319681 
L 69.593116 32.915976 
L 69.504727 32.915976 
L 69.372144 32.512272 
L 69.283756 32.512272 
L 69.151173 32.108567 
L 69.062784 32.108567 
L 68.930201 31.704863 
L 68.841813 31.704863 
L 68.70923 31.301158 
L 68.620841 31.301158 
L 68.488258 30.897454 
L 68.399869 30.897454 
L 68.267286 30.493749 
L 68.178898 30.493749 
L 68.046315 30.090045 
L 67.957926 30.090045 
L 67.825343 29.68634 
L 67.736955 29.68634 
L 67.604372 29.282636 
L 67.515983 29.282636 
L 67.3834 28.878931 
L 67.295011 28.878931 
L 67.162428 28.475227 
L 67.07404 28.475227 
L 66.941457 28.071522 
L 66.853068 28.071522 
L 66.720485 27.667818 
L 66.632097 27.667818 
L 66.499514 27.264113 
L 66.411125 27.264113 
L 66.278542 26.860409 
L 66.190153 26.860409 
L 66.05757 26.456704 
L 65.969182 26.456704 
L 65.836599 26.053 
L 65.74821 26.053 
L 65.615627 25.649295 
L 65.350461 25.649295 
L 65.217878 25.245591 
L 65.12949 25.245591 
L 64.996907 24.841886 
L 64.908518 24.841886 
L 64.775935 24.438182 
L 64.687547 24.438182 
L 64.687547 24.438182 
" clip-path="url(#p0929b2b47a)" style="fill: none; stroke-dasharray: 7.4,3.2; stroke-dashoffset: 0; stroke: #fa8072; stroke-width: 2"/>
   </g>
   <g id="line2d_32">
    <path d="M 418.197898 369.201818 
L 64.687547 369.201818 
L 64.687547 369.201818 
" clip-path="url(#p0929b2b47a)" style="fill: none; stroke-dasharray: 7.4,3.2; stroke-dashoffset: 0; stroke: #8b0000; stroke-width: 2"/>
   </g>
   <g id="patch_3">
    <path d="M 46.965625 386.44 
L 46.965625 7.2 
" style="fill: none; stroke: #000000; stroke-width: 0.8; stroke-linejoin: miter; stroke-linecap: square"/>
   </g>
   <g id="patch_4">
    <path d="M 435.875625 386.44 
L 435.875625 7.2 
" style="fill: none; stroke: #000000; stroke-width: 0.8; stroke-linejoin: miter; stroke-linecap: square"/>
   </g>
   <g id="patch_5">
    <path d="M 46.965625 386.44 
L 435.875625 386.44 
" style="fill: none; stroke: #000000; stroke-width: 0.8; stroke-linejoin: miter; stroke-linecap: square"/>
   </g>
   <g id="patch_6">
    <path d="M 46.965625 7.2 
L 435.875625 7.2 
" style="fill: none; stroke: #000000; stroke-width: 0.8; stroke-linejoin: miter; stroke-linecap: square"/>
   </g>
   <g id="legend_1">
    <g id="patch_7">
     <path d="M 442.875625 88.590625 
L 558.936563 88.590625 
Q 560.936563 88.590625 560.936563 86.590625 
L 560.936563 14.2 
Q 560.936563 12.2 558.936563 12.2 
L 442.875625 12.2 
Q 440.875625 12.2 440.875625 14.2 
L 440.875625 86.590625 
Q 440.875625 88.590625 442.875625 88.590625 
z
" style="fill: #ffffff; opacity: 0.8; stroke: #cccccc; stroke-linejoin: miter"/>
    </g>
    <g id="text_17">
     <!-- Motifs &amp; orientation -->
     <g transform="translate(451.390469 23.798437) scale(0.1 -0.1)">
      <defs>
       <path id="DejaVuSans-4d" d="M 628 4666 
L 1569 4666 
L 2759 1491 
L 3956 4666 
L 4897 4666 
L 4897 0 
L 4281 0 
L 4281 4097 
L 3078 897 
L 2444 897 
L 1241 4097 
L 1241 0 
L 628 0 
L 628 4666 
z
" transform="scale(0.015625)"/>
       <path id="DejaVuSans-26" d="M 1556 2509 
Q 1272 2256 1139 2004 
Q 1006 1753 1006 1478 
Q 1006 1022 1337 719 
Q 1669 416 2169 416 
Q 2466 416 2725 514 
Q 2984 613 3213 813 
L 1556 2509 
z
M 1997 2859 
L 3584 1234 
Q 3769 1513 3872 1830 
Q 3975 2147 3994 2503 
L 4575 2503 
Q 4538 2091 4375 1687 
Q 4213 1284 3922 891 
L 4794 0 
L 4006 0 
L 3559 459 
Q 3234 181 2878 45 
Q 2522 -91 2113 -91 
Q 1359 -91 881 339 
Q 403 769 403 1441 
Q 403 1841 612 2192 
Q 822 2544 1241 2853 
Q 1091 3050 1012 3245 
Q 934 3441 934 3628 
Q 934 4134 1281 4442 
Q 1628 4750 2203 4750 
Q 2463 4750 2720 4694 
Q 2978 4638 3244 4525 
L 3244 3956 
Q 2972 4103 2725 4179 
Q 2478 4256 2266 4256 
Q 1938 4256 1733 4082 
Q 1528 3909 1528 3634 
Q 1528 3475 1620 3314 
Q 1713 3153 1997 2859 
z
" transform="scale(0.015625)"/>
      </defs>
      <use xlink:href="#DejaVuSans-4d"/>
      <use xlink:href="#DejaVuSans-6f" transform="translate(86.279297 0)"/>
      <use xlink:href="#DejaVuSans-74" transform="translate(147.460938 0)"/>
      <use xlink:href="#DejaVuSans-69" transform="translate(186.669922 0)"/>
      <use xlink:href="#DejaVuSans-66" transform="translate(214.453125 0)"/>
      <use xlink:href="#DejaVuSans-73" transform="translate(249.658203 0)"/>
      <use xlink:href="#DejaVuSans-20" transform="translate(301.757812 0)"/>
      <use xlink:href="#DejaVuSans-26" transform="translate(333.544922 0)"/>
      <use xlink:href="#DejaVuSans-20" transform="translate(411.523438 0)"/>
      <use xlink:href="#DejaVuSans-6f" transform="translate(443.310547 0)"/>
      <use xlink:href="#DejaVuSans-72" transform="translate(504.492188 0)"/>
      <use xlink:href="#DejaVuSans-69" transform="translate(545.605469 0)"/>
      <use xlink:href="#DejaVuSans-65" transform="translate(573.388672 0)"/>
      <use xlink:href="#DejaVuSans-6e" transform="translate(634.912109 0)"/>
      <use xlink:href="#DejaVuSans-74" transform="translate(698.291016 0)"/>
      <use xlink:href="#DejaVuSans-61" transform="translate(737.5 0)"/>
      <use xlink:href="#DejaVuSans-74" transform="translate(798.779297 0)"/>
      <use xlink:href="#DejaVuSans-69" transform="translate(837.988281 0)"/>
      <use xlink:href="#DejaVuSans-6f" transform="translate(865.771484 0)"/>
      <use xlink:href="#DejaVuSans-6e" transform="translate(926.953125 0)"/>
     </g>
    </g>
    <g id="line2d_33">
     <path d="M 444.875625 34.976562 
L 454.875625 34.976562 
L 464.875625 34.976562 
" style="fill: none; stroke: #add8e6; stroke-width: 2; stroke-linecap: square"/>
    </g>
    <g id="text_18">
     <!-- CCTAA (5' end) -->
     <g transform="translate(472.875625 38.476562) scale(0.1 -0.1)">
      <defs>
       <path id="DejaVuSans-43" d="M 4122 4306 
L 4122 3641 
Q 3803 3938 3442 4084 
Q 3081 4231 2675 4231 
Q 1875 4231 1450 3742 
Q 1025 3253 1025 2328 
Q 1025 1406 1450 917 
Q 1875 428 2675 428 
Q 3081 428 3442 575 
Q 3803 722 4122 1019 
L 4122 359 
Q 3791 134 3420 21 
Q 3050 -91 2638 -91 
Q 1578 -91 968 557 
Q 359 1206 359 2328 
Q 359 3453 968 4101 
Q 1578 4750 2638 4750 
Q 3056 4750 3426 4639 
Q 3797 4528 4122 4306 
z
" transform="scale(0.015625)"/>
       <path id="DejaVuSans-54" d="M -19 4666 
L 3928 4666 
L 3928 4134 
L 2272 4134 
L 2272 0 
L 1638 0 
L 1638 4134 
L -19 4134 
L -19 4666 
z
" transform="scale(0.015625)"/>
       <path id="DejaVuSans-28" d="M 1984 4856 
Q 1566 4138 1362 3434 
Q 1159 2731 1159 2009 
Q 1159 1288 1364 580 
Q 1569 -128 1984 -844 
L 1484 -844 
Q 1016 -109 783 600 
Q 550 1309 550 2009 
Q 550 2706 781 3412 
Q 1013 4119 1484 4856 
L 1984 4856 
z
" transform="scale(0.015625)"/>
       <path id="DejaVuSans-27" d="M 1147 4666 
L 1147 2931 
L 616 2931 
L 616 4666 
L 1147 4666 
z
" transform="scale(0.015625)"/>
       <path id="DejaVuSans-64" d="M 2906 2969 
L 2906 4863 
L 3481 4863 
L 3481 0 
L 2906 0 
L 2906 525 
Q 2725 213 2448 61 
Q 2172 -91 1784 -91 
Q 1150 -91 751 415 
Q 353 922 353 1747 
Q 353 2572 751 3078 
Q 1150 3584 1784 3584 
Q 2172 3584 2448 3432 
Q 2725 3281 2906 2969 
z
M 947 1747 
Q 947 1113 1208 752 
Q 1469 391 1925 391 
Q 2381 391 2643 752 
Q 2906 1113 2906 1747 
Q 2906 2381 2643 2742 
Q 2381 3103 1925 3103 
Q 1469 3103 1208 2742 
Q 947 2381 947 1747 
z
" transform="scale(0.015625)"/>
       <path id="DejaVuSans-29" d="M 513 4856 
L 1013 4856 
Q 1481 4119 1714 3412 
Q 1947 2706 1947 2009 
Q 1947 1309 1714 600 
Q 1481 -109 1013 -844 
L 513 -844 
Q 928 -128 1133 580 
Q 1338 1288 1338 2009 
Q 1338 2731 1133 3434 
Q 928 4138 513 4856 
z
" transform="scale(0.015625)"/>
      </defs>
      <use xlink:href="#DejaVuSans-43"/>
      <use xlink:href="#DejaVuSans-43" transform="translate(69.824219 0)"/>
      <use xlink:href="#DejaVuSans-54" transform="translate(139.648438 0)"/>
      <use xlink:href="#DejaVuSans-41" transform="translate(192.982422 0)"/>
      <use xlink:href="#DejaVuSans-41" transform="translate(264.140625 0)"/>
      <use xlink:href="#DejaVuSans-20" transform="translate(332.548828 0)"/>
      <use xlink:href="#DejaVuSans-28" transform="translate(364.335938 0)"/>
      <use xlink:href="#DejaVuSans-35" transform="translate(403.349609 0)"/>
      <use xlink:href="#DejaVuSans-27" transform="translate(466.972656 0)"/>
      <use xlink:href="#DejaVuSans-20" transform="translate(494.462891 0)"/>
      <use xlink:href="#DejaVuSans-65" transform="translate(526.25 0)"/>
      <use xlink:href="#DejaVuSans-6e" transform="translate(587.773438 0)"/>
      <use xlink:href="#DejaVuSans-64" transform="translate(651.152344 0)"/>
      <use xlink:href="#DejaVuSans-29" transform="translate(714.628906 0)"/>
     </g>
    </g>
    <g id="line2d_34">
     <path d="M 444.875625 49.654687 
L 454.875625 49.654687 
L 464.875625 49.654687 
" style="fill: none; stroke: #00008b; stroke-width: 2; stroke-linecap: square"/>
    </g>
    <g id="text_19">
     <!-- CTCCAA (5' end) -->
     <g transform="translate(472.875625 53.154687) scale(0.1 -0.1)">
      <use xlink:href="#DejaVuSans-43"/>
      <use xlink:href="#DejaVuSans-54" transform="translate(69.824219 0)"/>
      <use xlink:href="#DejaVuSans-43" transform="translate(125.033203 0)"/>
      <use xlink:href="#DejaVuSans-43" transform="translate(194.857422 0)"/>
      <use xlink:href="#DejaVuSans-41" transform="translate(264.681641 0)"/>
      <use xlink:href="#DejaVuSans-41" transform="translate(335.839844 0)"/>
      <use xlink:href="#DejaVuSans-20" transform="translate(404.248047 0)"/>
      <use xlink:href="#DejaVuSans-28" transform="translate(436.035156 0)"/>
      <use xlink:href="#DejaVuSans-35" transform="translate(475.048828 0)"/>
      <use xlink:href="#DejaVuSans-27" transform="translate(538.671875 0)"/>
      <use xlink:href="#DejaVuSans-20" transform="translate(566.162109 0)"/>
      <use xlink:href="#DejaVuSans-65" transform="translate(597.949219 0)"/>
      <use xlink:href="#DejaVuSans-6e" transform="translate(659.472656 0)"/>
      <use xlink:href="#DejaVuSans-64" transform="translate(722.851562 0)"/>
      <use xlink:href="#DejaVuSans-29" transform="translate(786.328125 0)"/>
     </g>
    </g>
    <g id="line2d_35">
     <path d="M 444.875625 64.332812 
L 454.875625 64.332812 
L 464.875625 64.332812 
" style="fill: none; stroke-dasharray: 7.4,3.2; stroke-dashoffset: 0; stroke: #fa8072; stroke-width: 2"/>
    </g>
    <g id="text_20">
     <!-- TTAGG (3' end) -->
     <g transform="translate(472.875625 67.832812) scale(0.1 -0.1)">
      <defs>
       <path id="DejaVuSans-47" d="M 3809 666 
L 3809 1919 
L 2778 1919 
L 2778 2438 
L 4434 2438 
L 4434 434 
Q 4069 175 3628 42 
Q 3188 -91 2688 -91 
Q 1594 -91 976 548 
Q 359 1188 359 2328 
Q 359 3472 976 4111 
Q 1594 4750 2688 4750 
Q 3144 4750 3555 4637 
Q 3966 4525 4313 4306 
L 4313 3634 
Q 3963 3931 3569 4081 
Q 3175 4231 2741 4231 
Q 1884 4231 1454 3753 
Q 1025 3275 1025 2328 
Q 1025 1384 1454 906 
Q 1884 428 2741 428 
Q 3075 428 3337 486 
Q 3600 544 3809 666 
z
" transform="scale(0.015625)"/>
      </defs>
      <use xlink:href="#DejaVuSans-54"/>
      <use xlink:href="#DejaVuSans-54" transform="translate(59.333984 0)"/>
      <use xlink:href="#DejaVuSans-41" transform="translate(112.667969 0)"/>
      <use xlink:href="#DejaVuSans-47" transform="translate(179.326172 0)"/>
      <use xlink:href="#DejaVuSans-47" transform="translate(256.816406 0)"/>
      <use xlink:href="#DejaVuSans-20" transform="translate(334.306641 0)"/>
      <use xlink:href="#DejaVuSans-28" transform="translate(366.09375 0)"/>
      <use xlink:href="#DejaVuSans-33" transform="translate(405.107422 0)"/>
      <use xlink:href="#DejaVuSans-27" transform="translate(468.730469 0)"/>
      <use xlink:href="#DejaVuSans-20" transform="translate(496.220703 0)"/>
      <use xlink:href="#DejaVuSans-65" transform="translate(528.007812 0)"/>
      <use xlink:href="#DejaVuSans-6e" transform="translate(589.53125 0)"/>
      <use xlink:href="#DejaVuSans-64" transform="translate(652.910156 0)"/>
      <use xlink:href="#DejaVuSans-29" transform="translate(716.386719 0)"/>
     </g>
    </g>
    <g id="line2d_36">
     <path d="M 444.875625 79.010937 
L 454.875625 79.010937 
L 464.875625 79.010937 
" style="fill: none; stroke-dasharray: 7.4,3.2; stroke-dashoffset: 0; stroke: #8b0000; stroke-width: 2"/>
    </g>
    <g id="text_21">
     <!-- TTGGAG (3' end) -->
     <g transform="translate(472.875625 82.510937) scale(0.1 -0.1)">
      <use xlink:href="#DejaVuSans-54"/>
      <use xlink:href="#DejaVuSans-54" transform="translate(59.333984 0)"/>
      <use xlink:href="#DejaVuSans-47" transform="translate(120.417969 0)"/>
      <use xlink:href="#DejaVuSans-47" transform="translate(197.908203 0)"/>
      <use xlink:href="#DejaVuSans-41" transform="translate(275.398438 0)"/>
      <use xlink:href="#DejaVuSans-47" transform="translate(342.056641 0)"/>
      <use xlink:href="#DejaVuSans-20" transform="translate(419.546875 0)"/>
      <use xlink:href="#DejaVuSans-28" transform="translate(451.333984 0)"/>
      <use xlink:href="#DejaVuSans-33" transform="translate(490.347656 0)"/>
      <use xlink:href="#DejaVuSans-27" transform="translate(553.970703 0)"/>
      <use xlink:href="#DejaVuSans-20" transform="translate(581.460938 0)"/>
      <use xlink:href="#DejaVuSans-65" transform="translate(613.248047 0)"/>
      <use xlink:href="#DejaVuSans-6e" transform="translate(674.771484 0)"/>
      <use xlink:href="#DejaVuSans-64" transform="translate(738.150391 0)"/>
      <use xlink:href="#DejaVuSans-29" transform="translate(801.626953 0)"/>
     </g>
    </g>
   </g>
  </g>
 </g>
 <defs>
  <clipPath id="p0929b2b47a">
   <rect x="46.965625" y="7.2" width="388.91" height="379.24"/>
  </clipPath>
 </defs>
</svg>
