<?xml version="1.0" encoding="utf-8" standalone="no"?>
<!DOCTYPE svg PUBLIC "-//W3C//DTD SVG 1.1//EN"
  "http://www.w3.org/Graphics/SVG/1.1/DTD/svg11.dtd">
<svg xmlns:xlink="http://www.w3.org/1999/xlink" width="568.109062pt" height="423.99625pt" viewBox="0 0 568.109062 423.99625" xmlns="http://www.w3.org/2000/svg" version="1.1">
 <metadata>
  <rdf:RDF xmlns:dc="http://purl.org/dc/elements/1.1/" xmlns:cc="http://creativecommons.org/ns#" xmlns:rdf="http://www.w3.org/1999/02/22-rdf-syntax-ns#">
   <cc:Work>
    <dc:type rdf:resource="http://purl.org/dc/dcmitype/StillImage"/>
    <dc:date>2026-04-30T15:19:18.050286</dc:date>
    <dc:format>image/svg+xml</dc:format>
    <dc:creator>
     <cc:Agent>
      <dc:title>Matplotlib v3.10.6, https://matplotlib.org/</dc:title>
     </cc:Agent>
    </dc:creator>
   </cc:Work>
  </rdf:RDF>
 </metadata>
 <defs>
  <style type="text/css">*{stroke-linejoin: round; stroke-linecap: butt}</style>
 </defs>
 <g id="figure_1">
  <g id="patch_1">
   <path d="M 0 423.99625 
L 568.109062 423.99625 
L 568.109062 0 
L 0 0 
z
" style="fill: #ffffff"/>
  </g>
  <g id="axes_1">
   <g id="patch_2">
    <path d="M 53.328125 386.44 
L 435.848125 386.44 
L 435.848125 7.2 
L 53.328125 7.2 
z
" style="fill: #ffffff"/>
   </g>
   <g id="matplotlib.axis_1">
    <g id="xtick_1">
     <g id="line2d_1">
      <path d="M 70.671924 386.44 
L 70.671924 7.2 
" clip-path="url(#pd33ad7db52)" style="fill: none; stroke-dasharray: 2.96,1.28; stroke-dashoffset: 0; stroke: #b0b0b0; stroke-opacity: 0.6; stroke-width: 0.8"/>
     </g>
     <g id="line2d_2">
      <defs>
       <path id="mca90a13f8d" d="M 0 0 
L 0 3.5 
" style="stroke: #000000; stroke-width: 0.8"/>
      </defs>
      <g>
       <use xlink:href="#mca90a13f8d" x="70.671924" y="386.44" style="stroke: #000000; stroke-width: 0.8"/>
      </g>
     </g>
     <g id="text_1">
      <!-- 0 -->
      <g transform="translate(67.490674 401.038437) scale(0.1 -0.1)">
       <defs>
        <path id="DejaVuSans-30" d="M 2034 4250 
Q 1547 4250 1301 3770 
Q 1056 3291 1056 2328 
Q 1056 1369 1301 889 
Q 1547 409 2034 409 
Q 2525 409 2770 889 
Q 3016 1369 3016 2328 
Q 3016 3291 2770 3770 
Q 2525 4250 2034 4250 
z
M 2034 4750 
Q 2819 4750 3233 4129 
Q 3647 3509 3647 2328 
Q 3647 1150 3233 529 
Q 2819 -91 2034 -91 
Q 1250 -91 836 529 
Q 422 1150 422 2328 
Q 422 3509 836 4129 
Q 1250 4750 2034 4750 
z
" transform="scale(0.015625)"/>
       </defs>
       <use xlink:href="#DejaVuSans-30"/>
      </g>
     </g>
    </g>
    <g id="xtick_2">
     <g id="line2d_3">
      <path d="M 114.14554 386.44 
L 114.14554 7.2 
" clip-path="url(#pd33ad7db52)" style="fill: none; stroke-dasharray: 2.96,1.28; stroke-dashoffset: 0; stroke: #b0b0b0; stroke-opacity: 0.6; stroke-width: 0.8"/>
     </g>
     <g id="line2d_4">
      <g>
       <use xlink:href="#mca90a13f8d" x="114.14554" y="386.44" style="stroke: #000000; stroke-width: 0.8"/>
      </g>
     </g>
     <g id="text_2">
      <!-- 1000 -->
      <g transform="translate(101.42054 401.038437) scale(0.1 -0.1)">
       <defs>
        <path id="DejaVuSans-31" d="M 794 531 
L 1825 531 
L 1825 4091 
L 703 3866 
L 703 4441 
L 1819 4666 
L 2450 4666 
L 2450 531 
L 3481 531 
L 3481 0 
L 794 0 
L 794 531 
z
" transform="scale(0.015625)"/>
       </defs>
       <use xlink:href="#DejaVuSans-31"/>
       <use xlink:href="#DejaVuSans-30" transform="translate(63.623047 0)"/>
       <use xlink:href="#DejaVuSans-30" transform="translate(127.246094 0)"/>
       <use xlink:href="#DejaVuSans-30" transform="translate(190.869141 0)"/>
      </g>
     </g>
    </g>
    <g id="xtick_3">
     <g id="line2d_5">
      <path d="M 157.619156 386.44 
L 157.619156 7.2 
" clip-path="url(#pd33ad7db52)" style="fill: none; stroke-dasharray: 2.96,1.28; stroke-dashoffset: 0; stroke: #b0b0b0; stroke-opacity: 0.6; stroke-width: 0.8"/>
     </g>
     <g id="line2d_6">
      <g>
       <use xlink:href="#mca90a13f8d" x="157.619156" y="386.44" style="stroke: #000000; stroke-width: 0.8"/>
      </g>
     </g>
     <g id="text_3">
      <!-- 2000 -->
      <g transform="translate(144.894156 401.038437) scale(0.1 -0.1)">
       <defs>
        <path id="DejaVuSans-32" d="M 1228 531 
L 3431 531 
L 3431 0 
L 469 0 
L 469 531 
Q 828 903 1448 1529 
Q 2069 2156 2228 2338 
Q 2531 2678 2651 2914 
Q 2772 3150 2772 3378 
Q 2772 3750 2511 3984 
Q 2250 4219 1831 4219 
Q 1534 4219 1204 4116 
Q 875 4013 500 3803 
L 500 4441 
Q 881 4594 1212 4672 
Q 1544 4750 1819 4750 
Q 2544 4750 2975 4387 
Q 3406 4025 3406 3419 
Q 3406 3131 3298 2873 
Q 3191 2616 2906 2266 
Q 2828 2175 2409 1742 
Q 1991 1309 1228 531 
z
" transform="scale(0.015625)"/>
       </defs>
       <use xlink:href="#DejaVuSans-32"/>
       <use xlink:href="#DejaVuSans-30" transform="translate(63.623047 0)"/>
       <use xlink:href="#DejaVuSans-30" transform="translate(127.246094 0)"/>
       <use xlink:href="#DejaVuSans-30" transform="translate(190.869141 0)"/>
      </g>
     </g>
    </g>
    <g id="xtick_4">
     <g id="line2d_7">
      <path d="M 201.092772 386.44 
L 201.092772 7.2 
" clip-path="url(#pd33ad7db52)" style="fill: none; stroke-dasharray: 2.96,1.28; stroke-dashoffset: 0; stroke: #b0b0b0; stroke-opacity: 0.6; stroke-width: 0.8"/>
     </g>
     <g id="line2d_8">
      <g>
       <use xlink:href="#mca90a13f8d" x="201.092772" y="386.44" style="stroke: #000000; stroke-width: 0.8"/>
      </g>
     </g>
     <g id="text_4">
      <!-- 3000 -->
      <g transform="translate(188.367772 401.038437) scale(0.1 -0.1)">
       <defs>
        <path id="DejaVuSans-33" d="M 2597 2516 
Q 3050 2419 3304 2112 
Q 3559 1806 3559 1356 
Q 3559 666 3084 287 
Q 2609 -91 1734 -91 
Q 1441 -91 1130 -33 
Q 819 25 488 141 
L 488 750 
Q 750 597 1062 519 
Q 1375 441 1716 441 
Q 2309 441 2620 675 
Q 2931 909 2931 1356 
Q 2931 1769 2642 2001 
Q 2353 2234 1838 2234 
L 1294 2234 
L 1294 2753 
L 1863 2753 
Q 2328 2753 2575 2939 
Q 2822 3125 2822 3475 
Q 2822 3834 2567 4026 
Q 2313 4219 1838 4219 
Q 1578 4219 1281 4162 
Q 984 4106 628 3988 
L 628 4550 
Q 988 4650 1302 4700 
Q 1616 4750 1894 4750 
Q 2613 4750 3031 4423 
Q 3450 4097 3450 3541 
Q 3450 3153 3228 2886 
Q 3006 2619 2597 2516 
z
" transform="scale(0.015625)"/>
       </defs>
       <use xlink:href="#DejaVuSans-33"/>
       <use xlink:href="#DejaVuSans-30" transform="translate(63.623047 0)"/>
       <use xlink:href="#DejaVuSans-30" transform="translate(127.246094 0)"/>
       <use xlink:href="#DejaVuSans-30" transform="translate(190.869141 0)"/>
      </g>
     </g>
    </g>
    <g id="xtick_5">
     <g id="line2d_9">
      <path d="M 244.566388 386.44 
L 244.566388 7.2 
" clip-path="url(#pd33ad7db52)" style="fill: none; stroke-dasharray: 2.96,1.28; stroke-dashoffset: 0; stroke: #b0b0b0; stroke-opacity: 0.6; stroke-width: 0.8"/>
     </g>
     <g id="line2d_10">
      <g>
       <use xlink:href="#mca90a13f8d" x="244.566388" y="386.44" style="stroke: #000000; stroke-width: 0.8"/>
      </g>
     </g>
     <g id="text_5">
      <!-- 4000 -->
      <g transform="translate(231.841388 401.038437) scale(0.1 -0.1)">
       <defs>
        <path id="DejaVuSans-34" d="M 2419 4116 
L 825 1625 
L 2419 1625 
L 2419 4116 
z
M 2253 4666 
L 3047 4666 
L 3047 1625 
L 3713 1625 
L 3713 1100 
L 3047 1100 
L 3047 0 
L 2419 0 
L 2419 1100 
L 313 1100 
L 313 1709 
L 2253 4666 
z
" transform="scale(0.015625)"/>
       </defs>
       <use xlink:href="#DejaVuSans-34"/>
       <use xlink:href="#DejaVuSans-30" transform="translate(63.623047 0)"/>
       <use xlink:href="#DejaVuSans-30" transform="translate(127.246094 0)"/>
       <use xlink:href="#DejaVuSans-30" transform="translate(190.869141 0)"/>
      </g>
     </g>
    </g>
    <g id="xtick_6">
     <g id="line2d_11">
      <path d="M 288.040004 386.44 
L 288.040004 7.2 
" clip-path="url(#pd33ad7db52)" style="fill: none; stroke-dasharray: 2.96,1.28; stroke-dashoffset: 0; stroke: #b0b0b0; stroke-opacity: 0.6; stroke-width: 0.8"/>
     </g>
     <g id="line2d_12">
      <g>
       <use xlink:href="#mca90a13f8d" x="288.040004" y="386.44" style="stroke: #000000; stroke-width: 0.8"/>
      </g>
     </g>
     <g id="text_6">
      <!-- 5000 -->
      <g transform="translate(275.315004 401.038437) scale(0.1 -0.1)">
       <defs>
        <path id="DejaVuSans-35" d="M 691 4666 
L 3169 4666 
L 3169 4134 
L 1269 4134 
L 1269 2991 
Q 1406 3038 1543 3061 
Q 1681 3084 1819 3084 
Q 2600 3084 3056 2656 
Q 3513 2228 3513 1497 
Q 3513 744 3044 326 
Q 2575 -91 1722 -91 
Q 1428 -91 1123 -41 
Q 819 9 494 109 
L 494 744 
Q 775 591 1075 516 
Q 1375 441 1709 441 
Q 2250 441 2565 725 
Q 2881 1009 2881 1497 
Q 2881 1984 2565 2268 
Q 2250 2553 1709 2553 
Q 1456 2553 1204 2497 
Q 953 2441 691 2322 
L 691 4666 
z
" transform="scale(0.015625)"/>
       </defs>
       <use xlink:href="#DejaVuSans-35"/>
       <use xlink:href="#DejaVuSans-30" transform="translate(63.623047 0)"/>
       <use xlink:href="#DejaVuSans-30" transform="translate(127.246094 0)"/>
       <use xlink:href="#DejaVuSans-30" transform="translate(190.869141 0)"/>
      </g>
     </g>
    </g>
    <g id="xtick_7">
     <g id="line2d_13">
      <path d="M 331.51362 386.44 
L 331.51362 7.2 
" clip-path="url(#pd33ad7db52)" style="fill: none; stroke-dasharray: 2.96,1.28; stroke-dashoffset: 0; stroke: #b0b0b0; stroke-opacity: 0.6; stroke-width: 0.8"/>
     </g>
     <g id="line2d_14">
      <g>
       <use xlink:href="#mca90a13f8d" x="331.51362" y="386.44" style="stroke: #000000; stroke-width: 0.8"/>
      </g>
     </g>
     <g id="text_7">
      <!-- 6000 -->
      <g transform="translate(318.78862 401.038437) scale(0.1 -0.1)">
       <defs>
        <path id="DejaVuSans-36" d="M 2113 2584 
Q 1688 2584 1439 2293 
Q 1191 2003 1191 1497 
Q 1191 994 1439 701 
Q 1688 409 2113 409 
Q 2538 409 2786 701 
Q 3034 994 3034 1497 
Q 3034 2003 2786 2293 
Q 2538 2584 2113 2584 
z
M 3366 4563 
L 3366 3988 
Q 3128 4100 2886 4159 
Q 2644 4219 2406 4219 
Q 1781 4219 1451 3797 
Q 1122 3375 1075 2522 
Q 1259 2794 1537 2939 
Q 1816 3084 2150 3084 
Q 2853 3084 3261 2657 
Q 3669 2231 3669 1497 
Q 3669 778 3244 343 
Q 2819 -91 2113 -91 
Q 1303 -91 875 529 
Q 447 1150 447 2328 
Q 447 3434 972 4092 
Q 1497 4750 2381 4750 
Q 2619 4750 2861 4703 
Q 3103 4656 3366 4563 
z
" transform="scale(0.015625)"/>
       </defs>
       <use xlink:href="#DejaVuSans-36"/>
       <use xlink:href="#DejaVuSans-30" transform="translate(63.623047 0)"/>
       <use xlink:href="#DejaVuSans-30" transform="translate(127.246094 0)"/>
       <use xlink:href="#DejaVuSans-30" transform="translate(190.869141 0)"/>
      </g>
     </g>
    </g>
    <g id="xtick_8">
     <g id="line2d_15">
      <path d="M 374.987236 386.44 
L 374.987236 7.2 
" clip-path="url(#pd33ad7db52)" style="fill: none; stroke-dasharray: 2.96,1.28; stroke-dashoffset: 0; stroke: #b0b0b0; stroke-opacity: 0.6; stroke-width: 0.8"/>
     </g>
     <g id="line2d_16">
      <g>
       <use xlink:href="#mca90a13f8d" x="374.987236" y="386.44" style="stroke: #000000; stroke-width: 0.8"/>
      </g>
     </g>
     <g id="text_8">
      <!-- 7000 -->
      <g transform="translate(362.262236 401.038437) scale(0.1 -0.1)">
       <defs>
        <path id="DejaVuSans-37" d="M 525 4666 
L 3525 4666 
L 3525 4397 
L 1831 0 
L 1172 0 
L 2766 4134 
L 525 4134 
L 525 4666 
z
" transform="scale(0.015625)"/>
       </defs>
       <use xlink:href="#DejaVuSans-37"/>
       <use xlink:href="#DejaVuSans-30" transform="translate(63.623047 0)"/>
       <use xlink:href="#DejaVuSans-30" transform="translate(127.246094 0)"/>
       <use xlink:href="#DejaVuSans-30" transform="translate(190.869141 0)"/>
      </g>
     </g>
    </g>
    <g id="xtick_9">
     <g id="line2d_17">
      <path d="M 418.460852 386.44 
L 418.460852 7.2 
" clip-path="url(#pd33ad7db52)" style="fill: none; stroke-dasharray: 2.96,1.28; stroke-dashoffset: 0; stroke: #b0b0b0; stroke-opacity: 0.6; stroke-width: 0.8"/>
     </g>
     <g id="line2d_18">
      <g>
       <use xlink:href="#mca90a13f8d" x="418.460852" y="386.44" style="stroke: #000000; stroke-width: 0.8"/>
      </g>
     </g>
     <g id="text_9">
      <!-- 8000 -->
      <g transform="translate(405.735852 401.038437) scale(0.1 -0.1)">
       <defs>
        <path id="DejaVuSans-38" d="M 2034 2216 
Q 1584 2216 1326 1975 
Q 1069 1734 1069 1313 
Q 1069 891 1326 650 
Q 1584 409 2034 409 
Q 2484 409 2743 651 
Q 3003 894 3003 1313 
Q 3003 1734 2745 1975 
Q 2488 2216 2034 2216 
z
M 1403 2484 
Q 997 2584 770 2862 
Q 544 3141 544 3541 
Q 544 4100 942 4425 
Q 1341 4750 2034 4750 
Q 2731 4750 3128 4425 
Q 3525 4100 3525 3541 
Q 3525 3141 3298 2862 
Q 3072 2584 2669 2484 
Q 3125 2378 3379 2068 
Q 3634 1759 3634 1313 
Q 3634 634 3220 271 
Q 2806 -91 2034 -91 
Q 1263 -91 848 271 
Q 434 634 434 1313 
Q 434 1759 690 2068 
Q 947 2378 1403 2484 
z
M 1172 3481 
Q 1172 3119 1398 2916 
Q 1625 2713 2034 2713 
Q 2441 2713 2670 2916 
Q 2900 3119 2900 3481 
Q 2900 3844 2670 4047 
Q 2441 4250 2034 4250 
Q 1625 4250 1398 4047 
Q 1172 3844 1172 3481 
z
" transform="scale(0.015625)"/>
       </defs>
       <use xlink:href="#DejaVuSans-38"/>
       <use xlink:href="#DejaVuSans-30" transform="translate(63.623047 0)"/>
       <use xlink:href="#DejaVuSans-30" transform="translate(127.246094 0)"/>
       <use xlink:href="#DejaVuSans-30" transform="translate(190.869141 0)"/>
      </g>
     </g>
    </g>
    <g id="text_10">
     <!-- Distance from terminus [nt] -->
     <g transform="translate(175.088906 414.716562) scale(0.1 -0.1)">
      <defs>
       <path id="DejaVuSans-44" d="M 1259 4147 
L 1259 519 
L 2022 519 
Q 2988 519 3436 956 
Q 3884 1394 3884 2338 
Q 3884 3275 3436 3711 
Q 2988 4147 2022 4147 
L 1259 4147 
z
M 628 4666 
L 1925 4666 
Q 3281 4666 3915 4102 
Q 4550 3538 4550 2338 
Q 4550 1131 3912 565 
Q 3275 0 1925 0 
L 628 0 
L 628 4666 
z
" transform="scale(0.015625)"/>
       <path id="DejaVuSans-69" d="M 603 3500 
L 1178 3500 
L 1178 0 
L 603 0 
L 603 3500 
z
M 603 4863 
L 1178 4863 
L 1178 4134 
L 603 4134 
L 603 4863 
z
" transform="scale(0.015625)"/>
       <path id="DejaVuSans-73" d="M 2834 3397 
L 2834 2853 
Q 2591 2978 2328 3040 
Q 2066 3103 1784 3103 
Q 1356 3103 1142 2972 
Q 928 2841 928 2578 
Q 928 2378 1081 2264 
Q 1234 2150 1697 2047 
L 1894 2003 
Q 2506 1872 2764 1633 
Q 3022 1394 3022 966 
Q 3022 478 2636 193 
Q 2250 -91 1575 -91 
Q 1294 -91 989 -36 
Q 684 19 347 128 
L 347 722 
Q 666 556 975 473 
Q 1284 391 1588 391 
Q 1994 391 2212 530 
Q 2431 669 2431 922 
Q 2431 1156 2273 1281 
Q 2116 1406 1581 1522 
L 1381 1569 
Q 847 1681 609 1914 
Q 372 2147 372 2553 
Q 372 3047 722 3315 
Q 1072 3584 1716 3584 
Q 2034 3584 2315 3537 
Q 2597 3491 2834 3397 
z
" transform="scale(0.015625)"/>
       <path id="DejaVuSans-74" d="M 1172 4494 
L 1172 3500 
L 2356 3500 
L 2356 3053 
L 1172 3053 
L 1172 1153 
Q 1172 725 1289 603 
Q 1406 481 1766 481 
L 2356 481 
L 2356 0 
L 1766 0 
Q 1100 0 847 248 
Q 594 497 594 1153 
L 594 3053 
L 172 3053 
L 172 3500 
L 594 3500 
L 594 4494 
L 1172 4494 
z
" transform="scale(0.015625)"/>
       <path id="DejaVuSans-61" d="M 2194 1759 
Q 1497 1759 1228 1600 
Q 959 1441 959 1056 
Q 959 750 1161 570 
Q 1363 391 1709 391 
Q 2188 391 2477 730 
Q 2766 1069 2766 1631 
L 2766 1759 
L 2194 1759 
z
M 3341 1997 
L 3341 0 
L 2766 0 
L 2766 531 
Q 2569 213 2275 61 
Q 1981 -91 1556 -91 
Q 1019 -91 701 211 
Q 384 513 384 1019 
Q 384 1609 779 1909 
Q 1175 2209 1959 2209 
L 2766 2209 
L 2766 2266 
Q 2766 2663 2505 2880 
Q 2244 3097 1772 3097 
Q 1472 3097 1187 3025 
Q 903 2953 641 2809 
L 641 3341 
Q 956 3463 1253 3523 
Q 1550 3584 1831 3584 
Q 2591 3584 2966 3190 
Q 3341 2797 3341 1997 
z
" transform="scale(0.015625)"/>
       <path id="DejaVuSans-6e" d="M 3513 2113 
L 3513 0 
L 2938 0 
L 2938 2094 
Q 2938 2591 2744 2837 
Q 2550 3084 2163 3084 
Q 1697 3084 1428 2787 
Q 1159 2491 1159 1978 
L 1159 0 
L 581 0 
L 581 3500 
L 1159 3500 
L 1159 2956 
Q 1366 3272 1645 3428 
Q 1925 3584 2291 3584 
Q 2894 3584 3203 3211 
Q 3513 2838 3513 2113 
z
" transform="scale(0.015625)"/>
       <path id="DejaVuSans-63" d="M 3122 3366 
L 3122 2828 
Q 2878 2963 2633 3030 
Q 2388 3097 2138 3097 
Q 1578 3097 1268 2742 
Q 959 2388 959 1747 
Q 959 1106 1268 751 
Q 1578 397 2138 397 
Q 2388 397 2633 464 
Q 2878 531 3122 666 
L 3122 134 
Q 2881 22 2623 -34 
Q 2366 -91 2075 -91 
Q 1284 -91 818 406 
Q 353 903 353 1747 
Q 353 2603 823 3093 
Q 1294 3584 2113 3584 
Q 2378 3584 2631 3529 
Q 2884 3475 3122 3366 
z
" transform="scale(0.015625)"/>
       <path id="DejaVuSans-65" d="M 3597 1894 
L 3597 1613 
L 953 1613 
Q 991 1019 1311 708 
Q 1631 397 2203 397 
Q 2534 397 2845 478 
Q 3156 559 3463 722 
L 3463 178 
Q 3153 47 2828 -22 
Q 2503 -91 2169 -91 
Q 1331 -91 842 396 
Q 353 884 353 1716 
Q 353 2575 817 3079 
Q 1281 3584 2069 3584 
Q 2775 3584 3186 3129 
Q 3597 2675 3597 1894 
z
M 3022 2063 
Q 3016 2534 2758 2815 
Q 2500 3097 2075 3097 
Q 1594 3097 1305 2825 
Q 1016 2553 972 2059 
L 3022 2063 
z
" transform="scale(0.015625)"/>
       <path id="DejaVuSans-20" transform="scale(0.015625)"/>
       <path id="DejaVuSans-66" d="M 2375 4863 
L 2375 4384 
L 1825 4384 
Q 1516 4384 1395 4259 
Q 1275 4134 1275 3809 
L 1275 3500 
L 2222 3500 
L 2222 3053 
L 1275 3053 
L 1275 0 
L 697 0 
L 697 3053 
L 147 3053 
L 147 3500 
L 697 3500 
L 697 3744 
Q 697 4328 969 4595 
Q 1241 4863 1831 4863 
L 2375 4863 
z
" transform="scale(0.015625)"/>
       <path id="DejaVuSans-72" d="M 2631 2963 
Q 2534 3019 2420 3045 
Q 2306 3072 2169 3072 
Q 1681 3072 1420 2755 
Q 1159 2438 1159 1844 
L 1159 0 
L 581 0 
L 581 3500 
L 1159 3500 
L 1159 2956 
Q 1341 3275 1631 3429 
Q 1922 3584 2338 3584 
Q 2397 3584 2469 3576 
Q 2541 3569 2628 3553 
L 2631 2963 
z
" transform="scale(0.015625)"/>
       <path id="DejaVuSans-6f" d="M 1959 3097 
Q 1497 3097 1228 2736 
Q 959 2375 959 1747 
Q 959 1119 1226 758 
Q 1494 397 1959 397 
Q 2419 397 2687 759 
Q 2956 1122 2956 1747 
Q 2956 2369 2687 2733 
Q 2419 3097 1959 3097 
z
M 1959 3584 
Q 2709 3584 3137 3096 
Q 3566 2609 3566 1747 
Q 3566 888 3137 398 
Q 2709 -91 1959 -91 
Q 1206 -91 779 398 
Q 353 888 353 1747 
Q 353 2609 779 3096 
Q 1206 3584 1959 3584 
z
" transform="scale(0.015625)"/>
       <path id="DejaVuSans-6d" d="M 3328 2828 
Q 3544 3216 3844 3400 
Q 4144 3584 4550 3584 
Q 5097 3584 5394 3201 
Q 5691 2819 5691 2113 
L 5691 0 
L 5113 0 
L 5113 2094 
Q 5113 2597 4934 2840 
Q 4756 3084 4391 3084 
Q 3944 3084 3684 2787 
Q 3425 2491 3425 1978 
L 3425 0 
L 2847 0 
L 2847 2094 
Q 2847 2600 2669 2842 
Q 2491 3084 2119 3084 
Q 1678 3084 1418 2786 
Q 1159 2488 1159 1978 
L 1159 0 
L 581 0 
L 581 3500 
L 1159 3500 
L 1159 2956 
Q 1356 3278 1631 3431 
Q 1906 3584 2284 3584 
Q 2666 3584 2933 3390 
Q 3200 3197 3328 2828 
z
" transform="scale(0.015625)"/>
       <path id="DejaVuSans-75" d="M 544 1381 
L 544 3500 
L 1119 3500 
L 1119 1403 
Q 1119 906 1312 657 
Q 1506 409 1894 409 
Q 2359 409 2629 706 
Q 2900 1003 2900 1516 
L 2900 3500 
L 3475 3500 
L 3475 0 
L 2900 0 
L 2900 538 
Q 2691 219 2414 64 
Q 2138 -91 1772 -91 
Q 1169 -91 856 284 
Q 544 659 544 1381 
z
M 1991 3584 
L 1991 3584 
z
" transform="scale(0.015625)"/>
       <path id="DejaVuSans-5b" d="M 550 4863 
L 1875 4863 
L 1875 4416 
L 1125 4416 
L 1125 -397 
L 1875 -397 
L 1875 -844 
L 550 -844 
L 550 4863 
z
" transform="scale(0.015625)"/>
       <path id="DejaVuSans-5d" d="M 1947 4863 
L 1947 -844 
L 622 -844 
L 622 -397 
L 1369 -397 
L 1369 4416 
L 622 4416 
L 622 4863 
L 1947 4863 
z
" transform="scale(0.015625)"/>
      </defs>
      <use xlink:href="#DejaVuSans-44"/>
      <use xlink:href="#DejaVuSans-69" transform="translate(77.001953 0)"/>
      <use xlink:href="#DejaVuSans-73" transform="translate(104.785156 0)"/>
      <use xlink:href="#DejaVuSans-74" transform="translate(156.884766 0)"/>
      <use xlink:href="#DejaVuSans-61" transform="translate(196.09375 0)"/>
      <use xlink:href="#DejaVuSans-6e" transform="translate(257.373047 0)"/>
      <use xlink:href="#DejaVuSans-63" transform="translate(320.751953 0)"/>
      <use xlink:href="#DejaVuSans-65" transform="translate(375.732422 0)"/>
      <use xlink:href="#DejaVuSans-20" transform="translate(437.255859 0)"/>
      <use xlink:href="#DejaVuSans-66" transform="translate(469.042969 0)"/>
      <use xlink:href="#DejaVuSans-72" transform="translate(504.248047 0)"/>
      <use xlink:href="#DejaVuSans-6f" transform="translate(543.111328 0)"/>
      <use xlink:href="#DejaVuSans-6d" transform="translate(604.292969 0)"/>
      <use xlink:href="#DejaVuSans-20" transform="translate(701.705078 0)"/>
      <use xlink:href="#DejaVuSans-74" transform="translate(733.492188 0)"/>
      <use xlink:href="#DejaVuSans-65" transform="translate(772.701172 0)"/>
      <use xlink:href="#DejaVuSans-72" transform="translate(834.224609 0)"/>
      <use xlink:href="#DejaVuSans-6d" transform="translate(873.587891 0)"/>
      <use xlink:href="#DejaVuSans-69" transform="translate(971 0)"/>
      <use xlink:href="#DejaVuSans-6e" transform="translate(998.783203 0)"/>
      <use xlink:href="#DejaVuSans-75" transform="translate(1062.162109 0)"/>
      <use xlink:href="#DejaVuSans-73" transform="translate(1125.541016 0)"/>
      <use xlink:href="#DejaVuSans-20" transform="translate(1177.640625 0)"/>
      <use xlink:href="#DejaVuSans-5b" transform="translate(1209.427734 0)"/>
      <use xlink:href="#DejaVuSans-6e" transform="translate(1248.441406 0)"/>
      <use xlink:href="#DejaVuSans-74" transform="translate(1311.820312 0)"/>
      <use xlink:href="#DejaVuSans-5d" transform="translate(1351.029297 0)"/>
     </g>
    </g>
   </g>
   <g id="matplotlib.axis_2">
    <g id="ytick_1">
     <g id="line2d_19">
      <path d="M 53.328125 369.201818 
L 435.848125 369.201818 
" clip-path="url(#pd33ad7db52)" style="fill: none; stroke-dasharray: 2.96,1.28; stroke-dashoffset: 0; stroke: #b0b0b0; stroke-opacity: 0.6; stroke-width: 0.8"/>
     </g>
     <g id="line2d_20">
      <defs>
       <path id="m80414ad8f8" d="M 0 0 
L -3.5 0 
" style="stroke: #000000; stroke-width: 0.8"/>
      </defs>
      <g>
       <use xlink:href="#m80414ad8f8" x="53.328125" y="369.201818" style="stroke: #000000; stroke-width: 0.8"/>
      </g>
     </g>
     <g id="text_11">
      <!-- 0 -->
      <g transform="translate(39.965625 373.001037) scale(0.1 -0.1)">
       <use xlink:href="#DejaVuSans-30"/>
      </g>
     </g>
    </g>
    <g id="ytick_2">
     <g id="line2d_21">
      <path d="M 53.328125 298.144003 
L 435.848125 298.144003 
" clip-path="url(#pd33ad7db52)" style="fill: none; stroke-dasharray: 2.96,1.28; stroke-dashoffset: 0; stroke: #b0b0b0; stroke-opacity: 0.6; stroke-width: 0.8"/>
     </g>
     <g id="line2d_22">
      <g>
       <use xlink:href="#m80414ad8f8" x="53.328125" y="298.144003" style="stroke: #000000; stroke-width: 0.8"/>
      </g>
     </g>
     <g id="text_12">
      <!-- 200 -->
      <g transform="translate(27.240625 301.943222) scale(0.1 -0.1)">
       <use xlink:href="#DejaVuSans-32"/>
       <use xlink:href="#DejaVuSans-30" transform="translate(63.623047 0)"/>
       <use xlink:href="#DejaVuSans-30" transform="translate(127.246094 0)"/>
      </g>
     </g>
    </g>
    <g id="ytick_3">
     <g id="line2d_23">
      <path d="M 53.328125 227.086188 
L 435.848125 227.086188 
" clip-path="url(#pd33ad7db52)" style="fill: none; stroke-dasharray: 2.96,1.28; stroke-dashoffset: 0; stroke: #b0b0b0; stroke-opacity: 0.6; stroke-width: 0.8"/>
     </g>
     <g id="line2d_24">
      <g>
       <use xlink:href="#m80414ad8f8" x="53.328125" y="227.086188" style="stroke: #000000; stroke-width: 0.8"/>
      </g>
     </g>
     <g id="text_13">
      <!-- 400 -->
      <g transform="translate(27.240625 230.885407) scale(0.1 -0.1)">
       <use xlink:href="#DejaVuSans-34"/>
       <use xlink:href="#DejaVuSans-30" transform="translate(63.623047 0)"/>
       <use xlink:href="#DejaVuSans-30" transform="translate(127.246094 0)"/>
      </g>
     </g>
    </g>
    <g id="ytick_4">
     <g id="line2d_25">
      <path d="M 53.328125 156.028373 
L 435.848125 156.028373 
" clip-path="url(#pd33ad7db52)" style="fill: none; stroke-dasharray: 2.96,1.28; stroke-dashoffset: 0; stroke: #b0b0b0; stroke-opacity: 0.6; stroke-width: 0.8"/>
     </g>
     <g id="line2d_26">
      <g>
       <use xlink:href="#m80414ad8f8" x="53.328125" y="156.028373" style="stroke: #000000; stroke-width: 0.8"/>
      </g>
     </g>
     <g id="text_14">
      <!-- 600 -->
      <g transform="translate(27.240625 159.827592) scale(0.1 -0.1)">
       <use xlink:href="#DejaVuSans-36"/>
       <use xlink:href="#DejaVuSans-30" transform="translate(63.623047 0)"/>
       <use xlink:href="#DejaVuSans-30" transform="translate(127.246094 0)"/>
      </g>
     </g>
    </g>
    <g id="ytick_5">
     <g id="line2d_27">
      <path d="M 53.328125 84.970558 
L 435.848125 84.970558 
" clip-path="url(#pd33ad7db52)" style="fill: none; stroke-dasharray: 2.96,1.28; stroke-dashoffset: 0; stroke: #b0b0b0; stroke-opacity: 0.6; stroke-width: 0.8"/>
     </g>
     <g id="line2d_28">
      <g>
       <use xlink:href="#m80414ad8f8" x="53.328125" y="84.970558" style="stroke: #000000; stroke-width: 0.8"/>
      </g>
     </g>
     <g id="text_15">
      <!-- 800 -->
      <g transform="translate(27.240625 88.769777) scale(0.1 -0.1)">
       <use xlink:href="#DejaVuSans-38"/>
       <use xlink:href="#DejaVuSans-30" transform="translate(63.623047 0)"/>
       <use xlink:href="#DejaVuSans-30" transform="translate(127.246094 0)"/>
      </g>
     </g>
    </g>
    <g id="ytick_6">
     <g id="line2d_29">
      <path d="M 53.328125 13.912743 
L 435.848125 13.912743 
" clip-path="url(#pd33ad7db52)" style="fill: none; stroke-dasharray: 2.96,1.28; stroke-dashoffset: 0; stroke: #b0b0b0; stroke-opacity: 0.6; stroke-width: 0.8"/>
     </g>
     <g id="line2d_30">
      <g>
       <use xlink:href="#m80414ad8f8" x="53.328125" y="13.912743" style="stroke: #000000; stroke-width: 0.8"/>
      </g>
     </g>
     <g id="text_16">
      <!-- 1000 -->
      <g transform="translate(20.878125 17.711962) scale(0.1 -0.1)">
       <use xlink:href="#DejaVuSans-31"/>
       <use xlink:href="#DejaVuSans-30" transform="translate(63.623047 0)"/>
       <use xlink:href="#DejaVuSans-30" transform="translate(127.246094 0)"/>
       <use xlink:href="#DejaVuSans-30" transform="translate(190.869141 0)"/>
      </g>
     </g>
    </g>
    <g id="text_17">
     <!-- Average cumulative count -->
     <g transform="translate(14.798438 262.4325) rotate(-90) scale(0.1 -0.1)">
      <defs>
       <path id="DejaVuSans-41" d="M 2188 4044 
L 1331 1722 
L 3047 1722 
L 2188 4044 
z
M 1831 4666 
L 2547 4666 
L 4325 0 
L 3669 0 
L 3244 1197 
L 1141 1197 
L 716 0 
L 50 0 
L 1831 4666 
z
" transform="scale(0.015625)"/>
       <path id="DejaVuSans-76" d="M 191 3500 
L 800 3500 
L 1894 563 
L 2988 3500 
L 3597 3500 
L 2284 0 
L 1503 0 
L 191 3500 
z
" transform="scale(0.015625)"/>
       <path id="DejaVuSans-67" d="M 2906 1791 
Q 2906 2416 2648 2759 
Q 2391 3103 1925 3103 
Q 1463 3103 1205 2759 
Q 947 2416 947 1791 
Q 947 1169 1205 825 
Q 1463 481 1925 481 
Q 2391 481 2648 825 
Q 2906 1169 2906 1791 
z
M 3481 434 
Q 3481 -459 3084 -895 
Q 2688 -1331 1869 -1331 
Q 1566 -1331 1297 -1286 
Q 1028 -1241 775 -1147 
L 775 -588 
Q 1028 -725 1275 -790 
Q 1522 -856 1778 -856 
Q 2344 -856 2625 -561 
Q 2906 -266 2906 331 
L 2906 616 
Q 2728 306 2450 153 
Q 2172 0 1784 0 
Q 1141 0 747 490 
Q 353 981 353 1791 
Q 353 2603 747 3093 
Q 1141 3584 1784 3584 
Q 2172 3584 2450 3431 
Q 2728 3278 2906 2969 
L 2906 3500 
L 3481 3500 
L 3481 434 
z
" transform="scale(0.015625)"/>
       <path id="DejaVuSans-6c" d="M 603 4863 
L 1178 4863 
L 1178 0 
L 603 0 
L 603 4863 
z
" transform="scale(0.015625)"/>
      </defs>
      <use xlink:href="#DejaVuSans-41"/>
      <use xlink:href="#DejaVuSans-76" transform="translate(62.533203 0)"/>
      <use xlink:href="#DejaVuSans-65" transform="translate(121.712891 0)"/>
      <use xlink:href="#DejaVuSans-72" transform="translate(183.236328 0)"/>
      <use xlink:href="#DejaVuSans-61" transform="translate(224.349609 0)"/>
      <use xlink:href="#DejaVuSans-67" transform="translate(285.628906 0)"/>
      <use xlink:href="#DejaVuSans-65" transform="translate(349.105469 0)"/>
      <use xlink:href="#DejaVuSans-20" transform="translate(410.628906 0)"/>
      <use xlink:href="#DejaVuSans-63" transform="translate(442.416016 0)"/>
      <use xlink:href="#DejaVuSans-75" transform="translate(497.396484 0)"/>
      <use xlink:href="#DejaVuSans-6d" transform="translate(560.775391 0)"/>
      <use xlink:href="#DejaVuSans-75" transform="translate(658.1875 0)"/>
      <use xlink:href="#DejaVuSans-6c" transform="translate(721.566406 0)"/>
      <use xlink:href="#DejaVuSans-61" transform="translate(749.349609 0)"/>
      <use xlink:href="#DejaVuSans-74" transform="translate(810.628906 0)"/>
      <use xlink:href="#DejaVuSans-69" transform="translate(849.837891 0)"/>
      <use xlink:href="#DejaVuSans-76" transform="translate(877.621094 0)"/>
      <use xlink:href="#DejaVuSans-65" transform="translate(936.800781 0)"/>
      <use xlink:href="#DejaVuSans-20" transform="translate(998.324219 0)"/>
      <use xlink:href="#DejaVuSans-63" transform="translate(1030.111328 0)"/>
      <use xlink:href="#DejaVuSans-6f" transform="translate(1085.091797 0)"/>
      <use xlink:href="#DejaVuSans-75" transform="translate(1146.273438 0)"/>
      <use xlink:href="#DejaVuSans-6e" transform="translate(1209.652344 0)"/>
      <use xlink:href="#DejaVuSans-74" transform="translate(1273.03125 0)"/>
     </g>
    </g>
   </g>
   <g id="line2d_31">
    <path d="M 418.460852 369.201818 
L 366.683776 369.112996 
L 366.509881 369.068585 
L 351.728852 368.979763 
L 351.554957 368.935351 
L 340.990869 368.846529 
L 340.816974 368.802118 
L 340.16487 368.713296 
L 339.990975 368.668885 
L 339.512766 368.580062 
L 339.251924 368.446829 
L 338.643293 368.358007 
L 338.469399 368.313595 
L 337.991189 368.224773 
L 337.817295 368.180362 
L 337.339085 368.09154 
L 337.16519 368.047129 
L 336.686981 367.958306 
L 336.513086 367.913895 
L 336.034876 367.825073 
L 335.860982 367.780662 
L 335.382772 367.69184 
L 335.208878 367.647428 
L 334.556773 367.558606 
L 334.382879 367.514195 
L 333.904669 367.425373 
L 333.730775 367.380962 
L 333.252565 367.292139 
L 332.991723 367.158906 
L 332.383093 367.070084 
L 332.209198 367.025673 
L 331.730988 366.93685 
L 331.557094 366.892439 
L 331.078884 366.803617 
L 330.90499 366.759206 
L 330.42678 366.670384 
L 330.252885 366.625972 
L 329.774676 366.53715 
L 329.600781 366.492739 
L 329.122571 366.403917 
L 328.948677 366.359506 
L 328.470467 366.270683 
L 328.296573 366.226272 
L 327.948784 366.13745 
L 327.774889 366.093039 
L 327.4271 366.004217 
L 327.253206 365.959805 
L 326.774996 365.870983 
L 326.601102 365.826572 
L 326.122892 365.73775 
L 325.86205 365.604516 
L 325.079525 365.515694 
L 324.862157 365.426872 
L 324.253526 365.338049 
L 324.079632 365.293638 
L 323.601422 365.204816 
L 323.427528 365.160405 
L 322.949318 365.071583 
L 322.775423 365.027172 
L 322.297214 364.938349 
L 322.123319 364.893938 
L 321.471215 364.805116 
L 321.29732 364.760705 
L 320.819111 364.671882 
L 320.558269 364.538649 
L 319.993112 364.449827 
L 319.819218 364.405416 
L 319.341008 364.316593 
L 319.167113 364.272182 
L 318.688904 364.18336 
L 318.515009 364.138949 
L 318.036799 364.050127 
L 317.862905 364.005715 
L 317.384695 363.916893 
L 317.210801 363.872482 
L 316.732591 363.78366 
L 316.558696 363.739249 
L 316.080487 363.650426 
L 315.906592 363.606015 
L 315.428382 363.517193 
L 315.254488 363.472782 
L 314.776278 363.38396 
L 314.602384 363.339548 
L 314.124174 363.250726 
L 313.950279 363.206315 
L 313.47207 363.117493 
L 313.298175 363.073082 
L 312.819965 362.984259 
L 312.646071 362.939848 
L 312.167861 362.851026 
L 311.993967 362.806615 
L 311.515757 362.717793 
L 311.341862 362.673381 
L 310.602811 362.584559 
L 310.428916 362.540148 
L 309.99418 362.451326 
L 309.776812 362.362503 
L 309.298602 362.273681 
L 309.037761 362.140448 
L 308.776919 362.051626 
L 308.516077 361.918392 
L 308.211762 361.82957 
L 307.95092 361.696336 
L 307.690079 361.607514 
L 307.429237 361.474281 
L 307.124922 361.385459 
L 306.86408 361.252225 
L 306.603238 361.163403 
L 306.342397 361.030169 
L 306.038081 360.941347 
L 305.820713 360.852525 
L 305.516398 360.763703 
L 305.168609 360.541647 
L 304.907767 360.452825 
L 304.603452 360.27518 
L 304.212189 360.186358 
L 303.907874 360.008713 
L 303.560085 359.964302 
L 303.429664 359.87548 
L 303.125349 359.786658 
L 302.864507 359.653424 
L 302.473245 359.564602 
L 302.29935 359.520191 
L 302.038509 359.431369 
L 301.777667 359.298135 
L 301.473352 359.209313 
L 301.21251 359.07608 
L 300.951668 358.987257 
L 300.690826 358.854024 
L 300.212617 358.765202 
L 299.951775 358.631968 
L 299.690933 358.543146 
L 299.430092 358.409913 
L 299.125776 358.32109 
L 298.864935 358.187857 
L 298.604093 358.099035 
L 298.386725 358.010212 
L 298.125883 357.92139 
L 297.951989 357.788157 
L 297.691147 357.699334 
L 297.430305 357.566101 
L 297.169464 357.477279 
L 296.908622 357.344045 
L 296.604307 357.255223 
L 296.343465 357.12199 
L 296.082623 357.033167 
L 295.821781 356.899934 
L 295.517466 356.811112 
L 295.256624 356.677878 
L 294.995783 356.589056 
L 294.734941 356.455823 
L 294.430626 356.367 
L 294.082837 356.144945 
L 293.908942 356.056122 
L 293.51768 355.789656 
L 293.343785 355.700833 
L 292.995996 355.478778 
L 292.822102 355.389955 
L 292.430839 355.123489 
L 292.256945 355.034666 
L 291.909156 354.812611 
L 291.735262 354.723788 
L 291.257052 354.368499 
L 291.083157 354.279677 
L 290.691895 354.01321 
L 290.518 353.924388 
L 290.170211 353.702332 
L 289.996317 353.61351 
L 289.605054 353.347043 
L 289.43116 353.258221 
L 288.866003 352.81411 
L 288.735582 352.725287 
L 287.996531 352.103531 
L 287.86611 352.014709 
L 287.127058 351.392953 
L 286.996637 351.304131 
L 286.257586 350.682375 
L 286.170639 350.593553 
L 285.170746 349.70533 
L 284.996851 349.616508 
L 284.301273 349.039163 
L 284.214326 348.994752 
L 284.040432 348.861519 
L 283.431801 348.372996 
L 283.344854 348.328585 
L 283.170959 348.195352 
L 282.562329 347.706829 
L 282.475381 347.662418 
L 282.344961 347.529185 
L 282.258013 347.484773 
L 282.127592 347.35154 
L 282.040645 347.307129 
L 281.910224 347.218307 
L 281.823277 347.173896 
L 281.649383 347.040662 
L 280.823384 346.330084 
L 280.736437 346.285673 
L 280.562542 346.152439 
L 279.780017 345.486272 
L 279.649596 345.39745 
L 279.475702 345.264217 
L 278.693177 344.59805 
L 278.562756 344.553639 
L 278.388861 344.420405 
L 277.64981 343.798649 
L 277.519389 343.754238 
L 277.345495 343.576594 
L 277.258547 343.487771 
L 276.69339 343.04366 
L 276.606443 342.954838 
L 276.041286 342.510726 
L 275.954339 342.421904 
L 275.60655 342.199848 
L 275.519603 342.111026 
L 273.650237 340.334581 
L 273.606764 340.334581 
L 273.432869 340.156936 
L 273.389396 340.156936 
L 273.215501 339.934881 
L 273.172028 339.934881 
L 272.998133 339.712825 
L 272.954659 339.712825 
L 272.780765 339.490769 
L 272.737291 339.490769 
L 272.563397 339.313125 
L 272.519923 339.313125 
L 272.346029 339.13548 
L 272.302555 339.13548 
L 272.172134 338.957836 
L 270.128874 336.78169 
L 269.868033 336.337579 
L 269.781085 336.248756 
L 269.47677 335.849056 
L 269.215928 335.404945 
L 269.128981 335.316123 
L 268.824666 334.916422 
L 268.563824 334.472311 
L 268.476877 334.383489 
L 268.172562 333.983789 
L 267.91172 333.539677 
L 267.824773 333.450855 
L 267.303089 332.829099 
L 267.042248 332.384988 
L 266.650985 331.896465 
L 266.390143 331.452354 
L 265.998881 330.963831 
L 265.738039 330.51972 
L 265.129409 329.809142 
L 264.868567 329.365031 
L 264.390357 328.743275 
L 264.129515 328.299163 
L 264.042568 328.299163 
L 263.781726 327.855052 
L 263.520885 327.499763 
L 263.260043 327.055652 
L 263.173096 327.01124 
L 262.825307 326.478307 
L 262.73836 326.433896 
L 262.477518 325.989784 
L 262.347097 325.900962 
L 262.086255 325.545673 
L 261.825414 325.101562 
L 261.434151 324.613039 
L 261.17331 324.168928 
L 260.6951 323.547172 
L 260.303837 322.969827 
L 259.695207 322.214838 
L 259.390891 321.770727 
L 259.303944 321.726316 
L 258.956155 321.193382 
L 258.825734 321.10456 
L 258.564893 320.660448 
L 257.999736 319.94987 
L 257.651947 319.416937 
L 257.564999 319.328114 
L 257.21721 318.795181 
L 257.130263 318.706358 
L 256.782474 318.173425 
L 256.695527 318.129014 
L 256.304265 317.551669 
L 255.956476 317.063146 
L 255.65216 316.663446 
L 255.347845 316.219335 
L 255.000056 315.730812 
L 254.695741 315.286701 
L 254.347952 314.798179 
L 254.043636 314.354067 
L 253.739321 313.909956 
L 253.652374 313.865545 
L 253.261111 313.2882 
L 252.956796 312.844089 
L 252.609007 312.355566 
L 252.304692 311.911455 
L 251.956903 311.422932 
L 251.652588 310.978821 
L 251.304799 310.490299 
L 251.000483 310.046187 
L 250.652694 309.557665 
L 250.348379 309.113553 
L 250.044064 308.669442 
L 249.957117 308.625031 
L 249.609328 308.092097 
L 249.52238 308.003275 
L 249.131118 307.514752 
L 248.870276 307.070641 
L 248.479014 306.582119 
L 248.261646 306.271241 
L 247.870383 305.693896 
L 247.826909 305.693896 
L 247.566068 305.249785 
L 247.305226 304.850084 
L 246.783543 303.961862 
L 246.740069 303.961862 
L 246.479227 303.51775 
L 246.218386 303.11805 
L 245.957544 302.629528 
L 245.653229 302.229828 
L 245.392387 301.741305 
L 245.131545 301.341605 
L 244.957651 301.119549 
L 244.696809 300.719849 
L 244.435967 300.231326 
L 244.175126 299.831626 
L 243.653442 298.987815 
L 243.392601 298.588114 
L 242.827444 297.61107 
L 242.740496 297.566658 
L 242.175339 296.589613 
L 242.088392 296.545202 
L 241.82755 296.05668 
L 241.784077 296.05668 
L 241.523235 295.612568 
L 241.436288 295.568157 
L 241.175446 295.079635 
L 241.131973 295.079635 
L 240.871131 294.591112 
L 240.566816 294.147001 
L 240.088606 293.347601 
L 240.045132 293.347601 
L 239.78429 292.859078 
L 239.523449 292.459378 
L 239.001765 291.571155 
L 238.958292 291.571155 
L 238.69745 291.082633 
L 238.436608 290.682933 
L 237.914925 289.79471 
L 237.871451 289.79471 
L 237.61061 289.306187 
L 237.306294 288.862076 
L 236.784611 288.018264 
L 236.480296 287.574153 
L 236.089033 286.996808 
L 235.828191 286.641519 
L 235.523876 286.064175 
L 235.176087 285.620063 
L 234.871772 285.042718 
L 234.567457 284.598607 
L 234.523983 284.598607 
L 234.219668 283.976851 
L 233.871879 283.53274 
L 233.567563 282.910984 
L 233.219774 282.466873 
L 232.915459 281.845117 
L 232.56767 281.401005 
L 232.263355 280.823661 
L 231.915566 280.335138 
L 231.654724 279.979849 
L 231.48083 279.668971 
L 231.219988 279.269271 
L 231.046094 278.958393 
L 230.785252 278.558693 
L 230.611357 278.247815 
L 230.350516 277.848115 
L 230.176621 277.537237 
L 229.91578 277.137537 
L 229.741885 276.826659 
L 229.481043 276.426958 
L 229.307149 276.11608 
L 229.046307 275.71638 
L 228.785466 275.227858 
L 228.437677 274.739335 
L 227.87252 273.806701 
L 227.568204 273.36259 
L 227.263889 272.785245 
L 226.9161 272.296723 
L 226.394417 271.4085 
L 226.307469 271.319678 
L 225.742312 270.387044 
L 225.655365 270.298222 
L 225.394524 269.809699 
L 225.003261 269.276766 
L 224.438104 268.344132 
L 224.133789 267.900021 
L 223.525158 266.878565 
L 223.264316 266.478864 
L 222.655686 265.457408 
L 222.568738 265.368586 
L 222.307897 264.880063 
L 222.047055 264.480363 
L 221.612319 263.814196 
L 221.351477 263.414496 
L 220.742847 262.39304 
L 220.482005 261.99334 
L 219.873374 260.971884 
L 219.612533 260.572183 
L 219.134323 259.817194 
L 218.873481 259.417494 
L 218.612639 258.928971 
L 218.221377 258.396038 
L 217.917062 257.818693 
L 217.525799 257.285759 
L 217.004116 256.441948 
L 216.960642 256.441948 
L 216.6998 255.997837 
L 216.134643 255.065203 
L 216.09117 255.065203 
L 215.786854 254.487858 
L 215.439065 254.043747 
L 215.178224 253.555224 
L 214.873908 253.111113 
L 214.395699 252.356124 
L 214.352225 252.356124 
L 214.04791 251.778779 
L 213.787068 251.379079 
L 213.308858 250.624089 
L 213.265385 250.624089 
L 212.961069 250.046745 
L 212.656754 249.602633 
L 212.61328 249.602633 
L 212.439386 249.247344 
L 212.395912 249.247344 
L 212.091597 248.669999 
L 211.569914 247.826188 
L 211.52644 247.826188 
L 211.222125 247.248843 
L 210.700441 246.405032 
L 210.656968 246.405032 
L 210.396126 245.916509 
L 210.135284 245.516809 
L 209.874443 245.028286 
L 209.570127 244.628586 
L 209.309286 244.140064 
L 209.048444 243.740363 
L 208.526761 242.896552 
L 208.483287 242.896552 
L 208.222445 242.408029 
L 207.961604 242.008329 
L 207.43992 241.120107 
L 207.396446 241.120107 
L 207.135605 240.631584 
L 206.831289 240.187473 
L 206.35308 239.432483 
L 206.266132 239.343661 
L 206.005291 238.855139 
L 205.614028 238.322205 
L 205.440134 238.011327 
L 205.179292 237.611627 
L 205.005398 237.300749 
L 204.744556 236.901049 
L 204.570661 236.590171 
L 204.30982 236.190471 
L 204.135925 235.879593 
L 203.875084 235.479892 
L 203.701189 235.169015 
L 203.440347 234.769314 
L 203.266453 234.458436 
L 203.005611 234.058736 
L 202.831717 233.747858 
L 202.570875 233.348158 
L 202.310033 232.904047 
L 202.005718 232.459935 
L 201.614456 231.882591 
L 201.484035 231.793768 
L 201.31014 231.48289 
L 201.223193 231.260835 
L 200.875404 230.772312 
L 200.83193 230.772312 
L 200.527615 230.150556 
L 200.397194 230.061734 
L 200.092879 229.439978 
L 199.962458 229.351156 
L 199.658143 228.7294 
L 199.527722 228.640578 
L 199.223407 228.018822 
L 199.092986 227.93 
L 198.788671 227.308244 
L 198.65825 227.219421 
L 198.353934 226.597666 
L 198.223514 226.508843 
L 197.919198 225.887087 
L 197.788777 225.798265 
L 197.484462 225.176509 
L 197.354041 225.087687 
L 197.049726 224.465931 
L 196.919305 224.377109 
L 196.61499 223.755353 
L 196.484569 223.666531 
L 196.180254 223.089186 
L 196.093306 223.000364 
L 195.832465 222.600664 
L 195.310781 221.712441 
L 195.223834 221.623619 
L 194.962992 221.268329 
L 194.789098 220.957452 
L 194.528256 220.557751 
L 194.354362 220.246873 
L 194.09352 219.847173 
L 193.832678 219.358651 
L 193.484889 218.870128 
L 192.919732 217.893083 
L 192.832785 217.804261 
L 192.267628 216.827216 
L 192.180681 216.738394 
L 191.615524 215.80576 
L 191.354682 215.40606 
L 190.876472 214.65107 
L 190.789525 214.562248 
L 190.311315 213.807259 
L 189.963526 213.318736 
L 189.702685 212.830214 
L 189.398369 212.386103 
L 188.789739 211.364647 
L 188.702792 211.275824 
L 188.44195 210.876124 
L 187.920267 209.987901 
L 187.789846 209.899079 
L 187.181215 208.833212 
L 187.094268 208.74439 
L 186.833426 208.255867 
L 186.572584 207.856167 
L 186.094375 207.101178 
L 186.050901 207.101178 
L 185.746586 206.523833 
L 185.485744 206.124133 
L 185.007534 205.324732 
L 184.964061 205.324732 
L 184.659745 204.747387 
L 184.398904 204.347687 
L 183.920694 203.548287 
L 183.87722 203.548287 
L 183.572905 202.970942 
L 183.225116 202.526831 
L 183.007748 202.171542 
L 182.616485 201.638608 
L 182.007855 200.617152 
L 181.747013 200.217452 
L 181.138382 199.195996 
L 180.877541 198.796295 
L 180.26891 197.774839 
L 179.921121 197.286317 
L 179.442911 196.531328 
L 179.18207 196.131627 
L 178.573439 195.110171 
L 178.312597 194.710471 
L 177.921335 194.133126 
L 177.660493 193.733426 
L 177.182283 192.934026 
L 177.051863 192.845203 
L 176.747547 192.223448 
L 176.617126 192.179036 
L 176.312811 191.557281 
L 176.18239 191.468458 
L 175.878075 190.891114 
L 175.747654 190.802291 
L 175.57376 190.491413 
L 175.486812 190.269358 
L 175.139023 189.780835 
L 175.052076 189.55878 
L 174.704287 189.070257 
L 174.61734 188.848201 
L 174.313025 188.448501 
L 174.052183 188.093212 
L 173.747868 187.515867 
L 173.269658 186.716467 
L 173.182711 186.672056 
L 172.921869 186.183533 
L 172.791448 186.094711 
L 172.747975 186.0503 
L 172.57408 185.739422 
L 172.530606 185.695011 
L 172.356712 185.384133 
L 172.313238 185.339722 
L 172.139344 185.028844 
L 172.09587 184.984433 
L 171.921976 184.673555 
L 171.661134 184.318266 
L 171.48724 184.007388 
L 171.443766 183.962977 
L 171.269872 183.652099 
L 171.226398 183.607688 
L 171.052504 183.29681 
L 171.00903 183.252398 
L 170.835135 182.94152 
L 170.791662 182.897109 
L 170.617767 182.586231 
L 170.574294 182.54182 
L 170.400399 182.230942 
L 170.139558 181.920064 
L 169.965663 181.564775 
L 169.922189 181.564775 
L 169.661348 181.076253 
L 169.574401 180.987431 
L 169.009244 180.010386 
L 168.922296 179.965974 
L 168.444087 179.210985 
L 168.183245 178.811285 
L 167.922403 178.367174 
L 167.835456 178.322763 
L 167.226825 177.301306 
L 167.096404 177.03484 
L 166.618195 176.27985 
L 166.531247 176.235439 
L 166.226932 175.658094 
L 165.922617 175.258394 
L 165.83567 175.08075 
L 165.574828 174.592227 
L 165.227039 174.148116 
L 164.922724 173.52636 
L 164.574935 173.082249 
L 164.270619 172.460493 
L 163.92283 172.016381 
L 163.618515 171.394626 
L 163.270726 170.994925 
L 163.096832 170.684047 
L 163.009885 170.461992 
L 162.662096 169.973469 
L 162.618622 169.973469 
L 162.444728 169.61818 
L 162.401254 169.61818 
L 162.227359 169.307302 
L 162.183886 169.307302 
L 162.009991 168.952013 
L 161.966518 168.952013 
L 161.792623 168.596724 
L 161.74915 168.596724 
L 161.575255 168.241435 
L 161.531782 168.241435 
L 161.357887 167.886146 
L 161.314414 167.886146 
L 161.140519 167.530857 
L 161.097045 167.530857 
L 160.923151 167.175568 
L 160.879677 167.175568 
L 160.705783 166.820279 
L 160.662309 166.820279 
L 160.488415 166.46499 
L 160.444941 166.46499 
L 160.271047 166.154112 
L 160.227573 166.154112 
L 160.053679 165.798823 
L 160.010205 165.798823 
L 159.836311 165.443534 
L 159.792837 165.443534 
L 159.618942 165.088244 
L 159.575469 165.088244 
L 159.401574 164.732955 
L 159.358101 164.732955 
L 159.184206 164.377666 
L 159.140733 164.377666 
L 158.966838 164.022377 
L 158.923365 164.022377 
L 158.74947 163.667088 
L 158.705997 163.667088 
L 158.532102 163.311799 
L 158.488628 163.311799 
L 158.314734 162.95651 
L 158.27126 162.95651 
L 158.097366 162.601221 
L 158.053892 162.601221 
L 157.879998 162.245932 
L 157.836524 162.245932 
L 157.66263 161.890643 
L 157.619156 161.890643 
L 157.445262 161.535354 
L 157.401788 161.535354 
L 157.227894 161.180065 
L 157.18442 161.180065 
L 157.010526 160.824776 
L 156.967052 160.824776 
L 156.793157 160.513898 
L 156.662737 160.247431 
L 156.358421 159.803319 
L 156.314948 159.803319 
L 156.141053 159.44803 
L 156.09758 159.44803 
L 155.923685 159.092741 
L 155.880212 159.092741 
L 155.706317 158.781863 
L 155.575896 158.515397 
L 155.097686 157.715996 
L 155.010739 157.671585 
L 154.836845 157.360707 
L 154.793371 157.360707 
L 154.619477 157.049829 
L 154.576003 157.049829 
L 154.402109 156.69454 
L 154.358635 156.69454 
L 154.18474 156.339251 
L 154.141267 156.339251 
L 153.967372 156.028373 
L 153.923899 156.028373 
L 153.750004 155.717495 
L 153.489163 155.362206 
L 153.315268 155.051328 
L 153.054426 154.651628 
L 152.663164 154.074283 
L 152.315375 153.630172 
L 152.054533 153.141649 
L 151.53285 152.475482 
L 151.05464 151.676082 
L 150.967693 151.58726 
L 150.619904 151.054326 
L 150.532957 151.009915 
L 150.098221 150.343748 
L 149.837379 149.944048 
L 149.315695 149.100236 
L 149.01138 148.656125 
L 148.750538 148.167602 
L 148.663591 148.07878 
L 148.359276 147.634669 
L 148.098434 147.146146 
L 148.011487 147.057324 
L 147.44633 146.080279 
L 147.359383 145.991457 
L 146.794226 145.014412 
L 146.707279 144.925589 
L 146.142122 143.948544 
L 146.055174 143.859722 
L 145.620438 143.193555 
L 145.359596 142.793855 
L 144.837913 141.950043 
L 144.750966 141.861221 
L 144.490124 141.461521 
L 144.229282 140.972998 
L 143.924967 140.573298 
L 143.664125 140.084776 
L 143.403284 139.729487 
L 143.142442 139.240964 
L 142.794653 138.752442 
L 142.229496 137.819808 
L 141.925181 137.375697 
L 141.31655 136.354241 
L 141.273077 136.354241 
L 141.012235 135.865718 
L 140.70792 135.421607 
L 140.22971 134.666617 
L 139.968868 134.266917 
L 139.360237 133.245461 
L 139.27329 133.156639 
L 138.968975 132.712527 
L 138.708133 132.224005 
L 138.66466 132.224005 
L 138.403818 131.735483 
L 138.099503 131.291371 
L 137.838661 130.802849 
L 137.795187 130.802849 
L 137.534346 130.358737 
L 137.447398 130.314326 
L 137.186557 129.825804 
L 136.925715 129.426104 
L 136.664873 128.937581 
L 136.577926 128.89317 
L 136.012769 127.916125 
L 135.882348 127.827303 
L 135.621506 127.33878 
L 135.230244 126.805847 
L 135.056349 126.53938 
L 134.447719 125.517924 
L 134.404245 125.517924 
L 134.09993 124.896168 
L 133.752141 124.452056 
L 133.447826 123.874712 
L 133.100037 123.4306 
L 132.926142 123.075311 
L 132.882669 123.075311 
L 132.708774 122.720022 
L 132.665301 122.720022 
L 132.491406 122.364733 
L 132.447932 122.364733 
L 132.274038 122.009444 
L 132.230564 122.009444 
L 132.05667 121.654155 
L 132.013196 121.654155 
L 131.839302 121.298866 
L 131.795828 121.298866 
L 131.491513 120.721521 
L 131.10025 120.188588 
L 130.839409 119.700065 
L 130.578567 119.300365 
L 130.100357 118.500964 
L 130.01341 118.412142 
L 129.752568 117.968031 
L 129.622147 117.879209 
L 129.317832 117.257453 
L 129.187411 117.16863 
L 128.883096 116.546875 
L 128.752675 116.458052 
L 128.44836 115.880708 
L 128.317939 115.791885 
L 128.144044 115.436596 
L 128.100571 115.436596 
L 127.926676 115.081307 
L 127.883203 115.081307 
L 127.709308 114.81484 
L 127.665835 114.81484 
L 127.361519 114.237496 
L 127.01373 113.748973 
L 126.709415 113.171628 
L 126.361626 112.683106 
L 126.057311 112.105761 
L 125.709522 111.617239 
L 125.405207 111.039894 
L 125.057418 110.595783 
L 124.796576 110.10726 
L 124.535734 109.70756 
L 124.100998 109.041393 
L 123.796683 108.597282 
L 123.231526 107.620237 
L 123.144579 107.575825 
L 122.579422 106.59878 
L 122.492474 106.554369 
L 121.927317 105.577324 
L 121.84037 105.532913 
L 121.536055 104.955568 
L 121.057845 104.156168 
L 120.970898 104.111757 
L 120.666583 103.534412 
L 120.188373 102.735012 
L 120.101426 102.690601 
L 119.79711 102.113256 
L 119.3189 101.358267 
L 119.231953 101.313855 
L 118.971112 100.825333 
L 118.623323 100.336811 
L 118.014692 99.315354 
L 117.75385 98.915654 
L 117.14522 97.894198 
L 116.884378 97.494498 
L 116.319221 96.561864 
L 116.014906 96.162164 
L 115.71059 95.584819 
L 115.362801 95.140708 
L 115.058486 94.563363 
L 114.971539 94.474541 
L 114.710697 94.074841 
L 114.406382 93.497496 
L 114.319435 93.408674 
L 114.058593 93.008973 
L 113.754278 92.431629 
L 113.66733 92.342806 
L 113.406489 91.943106 
L 113.102173 91.365761 
L 112.971752 91.276939 
L 112.667437 90.699594 
L 112.537016 90.610772 
L 112.363122 90.299894 
L 112.276175 90.077838 
L 111.928386 89.589316 
L 111.841438 89.36726 
L 111.49365 88.878738 
L 111.406702 88.656682 
L 111.102387 88.256982 
L 110.798072 87.857282 
L 110.624177 87.501993 
L 110.580704 87.501993 
L 110.406809 87.146704 
L 110.363336 87.146704 
L 110.189441 86.791415 
L 110.145967 86.791415 
L 109.972073 86.480537 
L 109.928599 86.480537 
L 109.754705 86.125248 
L 109.711231 86.125248 
L 109.537337 85.769958 
L 109.493863 85.769958 
L 109.319969 85.414669 
L 109.276495 85.414669 
L 109.102601 85.05938 
L 109.059127 85.05938 
L 108.885233 84.748502 
L 108.841759 84.748502 
L 108.667865 84.393213 
L 108.624391 84.393213 
L 108.450496 84.082335 
L 108.320076 83.815869 
L 107.841866 83.016468 
L 107.754919 82.972057 
L 107.581024 82.661179 
L 107.450603 82.394712 
L 107.146288 81.995012 
L 107.059341 81.772956 
L 106.711552 81.284434 
L 106.624605 81.062378 
L 106.276816 80.573856 
L 106.189868 80.396211 
L 105.929027 79.907689 
L 105.581238 79.463577 
L 105.276922 78.841821 
L 104.929134 78.39771 
L 104.624818 77.820365 
L 104.146608 77.065376 
L 104.059661 77.020965 
L 103.494504 76.088331 
L 103.146715 75.599809 
L 102.885874 75.111286 
L 102.581558 74.667175 
L 102.016401 73.734541 
L 101.712086 73.29043 
L 101.146929 72.357796 
L 100.842614 71.913684 
L 100.364404 71.158695 
L 100.060089 70.714584 
L 99.581879 69.915183 
L 99.538405 69.915183 
L 99.364511 69.559894 
L 99.321037 69.559894 
L 99.147143 69.204605 
L 99.103669 69.204605 
L 98.929775 68.849316 
L 98.886301 68.849316 
L 98.712406 68.494027 
L 98.668933 68.494027 
L 98.495038 68.138738 
L 98.451565 68.138738 
L 98.27767 67.783449 
L 98.234197 67.783449 
L 98.060302 67.42816 
L 98.016829 67.42816 
L 97.755987 66.939637 
L 97.451672 66.495526 
L 96.973462 65.696126 
L 96.929988 65.696126 
L 96.669146 65.207603 
L 96.364831 64.807903 
L 96.103989 64.363792 
L 96.060516 64.363792 
L 95.886621 64.008503 
L 95.843148 64.008503 
L 95.669253 63.653213 
L 95.62578 63.653213 
L 95.451885 63.297924 
L 95.408412 63.297924 
L 95.234517 62.942635 
L 95.191044 62.942635 
L 95.017149 62.587346 
L 94.973675 62.587346 
L 94.799781 62.276468 
L 94.756307 62.276468 
L 94.495466 61.787946 
L 94.408518 61.699124 
L 94.104203 61.255012 
L 93.625993 60.500023 
L 93.58252 60.500023 
L 93.321678 60.0115 
L 93.060836 59.656211 
L 92.799995 59.167689 
L 92.495679 58.723578 
L 92.01747 57.968588 
L 91.756628 57.613299 
L 91.452313 57.035954 
L 91.104524 56.547432 
L 90.843682 56.103321 
L 90.452419 55.570387 
L 90.148104 54.993042 
L 90.061157 54.948631 
L 89.452526 53.927175 
L 89.322105 53.660708 
L 88.843896 52.861308 
L 88.756948 52.816897 
L 88.148318 51.795441 
L 88.017897 51.528974 
L 87.539687 50.729573 
L 87.45274 50.685162 
L 86.887583 49.752528 
L 86.800636 49.663706 
L 86.235479 48.731072 
L 86.148531 48.64225 
L 85.626848 47.798439 
L 85.322533 47.398738 
L 85.061691 46.910216 
L 84.800849 46.510516 
L 84.540008 46.021993 
L 84.235692 45.622293 
L 83.974851 45.13377 
L 83.931377 45.13377 
L 83.627062 44.556426 
L 83.583588 44.556426 
L 83.322746 44.067903 
L 83.279273 44.067903 
L 83.061905 43.757025 
L 82.670642 43.179681 
L 82.366327 42.735569 
L 82.192432 42.469102 
L 81.583802 41.447646 
L 81.496855 41.314413 
L 81.32296 41.047946 
L 80.714329 40.02649 
L 80.410014 39.62679 
L 80.149172 39.138267 
L 80.062225 39.093856 
L 79.801383 38.605334 
L 79.75791 38.605334 
L 79.497068 38.116811 
L 79.410121 38.0724 
L 79.236226 37.761522 
L 79.105806 37.539466 
L 78.844964 37.050944 
L 78.758017 37.006533 
L 78.584122 36.695655 
L 78.453701 36.473599 
L 78.19286 35.985077 
L 78.105912 35.940666 
L 77.932018 35.629788 
L 77.801597 35.407732 
L 77.540755 34.963621 
L 77.453808 34.91921 
L 77.192967 34.430687 
L 76.932125 34.030987 
L 76.453915 33.231586 
L 76.366968 33.142764 
L 75.801811 32.21013 
L 75.758337 32.21013 
L 75.454022 31.632786 
L 75.19318 31.233085 
L 74.932338 30.877796 
L 74.888865 30.877796 
L 74.71497 30.522507 
L 74.671497 30.522507 
L 74.497602 30.167218 
L 74.454129 30.167218 
L 74.280234 29.85634 
L 74.236761 29.85634 
L 74.062866 29.545462 
L 74.019393 29.545462 
L 73.845498 29.234584 
L 73.802024 29.234584 
L 73.497709 28.65724 
L 73.193394 28.213128 
L 73.14992 28.213128 
L 72.976026 27.857839 
L 72.932552 27.857839 
L 72.758658 27.50255 
L 72.715184 27.50255 
L 72.54129 27.147261 
L 72.497816 27.147261 
L 72.323922 26.836383 
L 72.280448 26.836383 
L 72.106553 26.481094 
L 72.06308 26.481094 
L 71.889185 26.170216 
L 71.845712 26.170216 
L 71.671817 25.814927 
L 71.628344 25.814927 
L 71.454449 25.459638 
L 71.410976 25.459638 
L 71.237081 25.104349 
L 71.193608 25.104349 
L 71.019713 24.74906 
L 70.976239 24.74906 
L 70.802345 24.438182 
L 70.715398 24.438182 
L 70.715398 24.438182 
" clip-path="url(#pd33ad7db52)" style="fill: none; stroke-dasharray: 7.4,3.2; stroke-dashoffset: 0; stroke: #fa8072; stroke-width: 2"/>
   </g>
   <g id="line2d_32">
    <path d="M 418.460852 369.201818 
L 70.715398 369.157407 
L 70.715398 369.157407 
" clip-path="url(#pd33ad7db52)" style="fill: none; stroke-dasharray: 7.4,3.2; stroke-dashoffset: 0; stroke: #8b0000; stroke-width: 2"/>
   </g>
   <g id="patch_3">
    <path d="M 53.328125 386.44 
L 53.328125 7.2 
" style="fill: none; stroke: #000000; stroke-width: 0.8; stroke-linejoin: miter; stroke-linecap: square"/>
   </g>
   <g id="patch_4">
    <path d="M 435.848125 386.44 
L 435.848125 7.2 
" style="fill: none; stroke: #000000; stroke-width: 0.8; stroke-linejoin: miter; stroke-linecap: square"/>
   </g>
   <g id="patch_5">
    <path d="M 53.328125 386.44 
L 435.848125 386.44 
" style="fill: none; stroke: #000000; stroke-width: 0.8; stroke-linejoin: miter; stroke-linecap: square"/>
   </g>
   <g id="patch_6">
    <path d="M 53.328125 7.2 
L 435.848125 7.2 
" style="fill: none; stroke: #000000; stroke-width: 0.8; stroke-linejoin: miter; stroke-linecap: square"/>
   </g>
   <g id="legend_1">
    <g id="patch_7">
     <path d="M 442.848125 59.234375 
L 558.909063 59.234375 
Q 560.909063 59.234375 560.909063 57.234375 
L 560.909063 14.2 
Q 560.909063 12.2 558.909063 12.2 
L 442.848125 12.2 
Q 440.848125 12.2 440.848125 14.2 
L 440.848125 57.234375 
Q 440.848125 59.234375 442.848125 59.234375 
z
" style="fill: #ffffff; opacity: 0.8; stroke: #cccccc; stroke-linejoin: miter"/>
    </g>
    <g id="text_18">
     <!-- Motifs &amp; orientation -->
     <g transform="translate(451.362969 23.798437) scale(0.1 -0.1)">
      <defs>
       <path id="DejaVuSans-4d" d="M 628 4666 
L 1569 4666 
L 2759 1491 
L 3956 4666 
L 4897 4666 
L 4897 0 
L 4281 0 
L 4281 4097 
L 3078 897 
L 2444 897 
L 1241 4097 
L 1241 0 
L 628 0 
L 628 4666 
z
" transform="scale(0.015625)"/>
       <path id="DejaVuSans-26" d="M 1556 2509 
Q 1272 2256 1139 2004 
Q 1006 1753 1006 1478 
Q 1006 1022 1337 719 
Q 1669 416 2169 416 
Q 2466 416 2725 514 
Q 2984 613 3213 813 
L 1556 2509 
z
M 1997 2859 
L 3584 1234 
Q 3769 1513 3872 1830 
Q 3975 2147 3994 2503 
L 4575 2503 
Q 4538 2091 4375 1687 
Q 4213 1284 3922 891 
L 4794 0 
L 4006 0 
L 3559 459 
Q 3234 181 2878 45 
Q 2522 -91 2113 -91 
Q 1359 -91 881 339 
Q 403 769 403 1441 
Q 403 1841 612 2192 
Q 822 2544 1241 2853 
Q 1091 3050 1012 3245 
Q 934 3441 934 3628 
Q 934 4134 1281 4442 
Q 1628 4750 2203 4750 
Q 2463 4750 2720 4694 
Q 2978 4638 3244 4525 
L 3244 3956 
Q 2972 4103 2725 4179 
Q 2478 4256 2266 4256 
Q 1938 4256 1733 4082 
Q 1528 3909 1528 3634 
Q 1528 3475 1620 3314 
Q 1713 3153 1997 2859 
z
" transform="scale(0.015625)"/>
      </defs>
      <use xlink:href="#DejaVuSans-4d"/>
      <use xlink:href="#DejaVuSans-6f" transform="translate(86.279297 0)"/>
      <use xlink:href="#DejaVuSans-74" transform="translate(147.460938 0)"/>
      <use xlink:href="#DejaVuSans-69" transform="translate(186.669922 0)"/>
      <use xlink:href="#DejaVuSans-66" transform="translate(214.453125 0)"/>
      <use xlink:href="#DejaVuSans-73" transform="translate(249.658203 0)"/>
      <use xlink:href="#DejaVuSans-20" transform="translate(301.757812 0)"/>
      <use xlink:href="#DejaVuSans-26" transform="translate(333.544922 0)"/>
      <use xlink:href="#DejaVuSans-20" transform="translate(411.523438 0)"/>
      <use xlink:href="#DejaVuSans-6f" transform="translate(443.310547 0)"/>
      <use xlink:href="#DejaVuSans-72" transform="translate(504.492188 0)"/>
      <use xlink:href="#DejaVuSans-69" transform="translate(545.605469 0)"/>
      <use xlink:href="#DejaVuSans-65" transform="translate(573.388672 0)"/>
      <use xlink:href="#DejaVuSans-6e" transform="translate(634.912109 0)"/>
      <use xlink:href="#DejaVuSans-74" transform="translate(698.291016 0)"/>
      <use xlink:href="#DejaVuSans-61" transform="translate(737.5 0)"/>
      <use xlink:href="#DejaVuSans-74" transform="translate(798.779297 0)"/>
      <use xlink:href="#DejaVuSans-69" transform="translate(837.988281 0)"/>
      <use xlink:href="#DejaVuSans-6f" transform="translate(865.771484 0)"/>
      <use xlink:href="#DejaVuSans-6e" transform="translate(926.953125 0)"/>
     </g>
    </g>
    <g id="line2d_33">
     <path d="M 444.848125 34.976562 
L 454.848125 34.976562 
L 464.848125 34.976562 
" style="fill: none; stroke-dasharray: 7.4,3.2; stroke-dashoffset: 0; stroke: #fa8072; stroke-width: 2"/>
    </g>
    <g id="text_19">
     <!-- TTAGG (3' end) -->
     <g transform="translate(472.848125 38.476562) scale(0.1 -0.1)">
      <defs>
       <path id="DejaVuSans-54" d="M -19 4666 
L 3928 4666 
L 3928 4134 
L 2272 4134 
L 2272 0 
L 1638 0 
L 1638 4134 
L -19 4134 
L -19 4666 
z
" transform="scale(0.015625)"/>
       <path id="DejaVuSans-47" d="M 3809 666 
L 3809 1919 
L 2778 1919 
L 2778 2438 
L 4434 2438 
L 4434 434 
Q 4069 175 3628 42 
Q 3188 -91 2688 -91 
Q 1594 -91 976 548 
Q 359 1188 359 2328 
Q 359 3472 976 4111 
Q 1594 4750 2688 4750 
Q 3144 4750 3555 4637 
Q 3966 4525 4313 4306 
L 4313 3634 
Q 3963 3931 3569 4081 
Q 3175 4231 2741 4231 
Q 1884 4231 1454 3753 
Q 1025 3275 1025 2328 
Q 1025 1384 1454 906 
Q 1884 428 2741 428 
Q 3075 428 3337 486 
Q 3600 544 3809 666 
z
" transform="scale(0.015625)"/>
       <path id="DejaVuSans-28" d="M 1984 4856 
Q 1566 4138 1362 3434 
Q 1159 2731 1159 2009 
Q 1159 1288 1364 580 
Q 1569 -128 1984 -844 
L 1484 -844 
Q 1016 -109 783 600 
Q 550 1309 550 2009 
Q 550 2706 781 3412 
Q 1013 4119 1484 4856 
L 1984 4856 
z
" transform="scale(0.015625)"/>
       <path id="DejaVuSans-27" d="M 1147 4666 
L 1147 2931 
L 616 2931 
L 616 4666 
L 1147 4666 
z
" transform="scale(0.015625)"/>
       <path id="DejaVuSans-64" d="M 2906 2969 
L 2906 4863 
L 3481 4863 
L 3481 0 
L 2906 0 
L 2906 525 
Q 2725 213 2448 61 
Q 2172 -91 1784 -91 
Q 1150 -91 751 415 
Q 353 922 353 1747 
Q 353 2572 751 3078 
Q 1150 3584 1784 3584 
Q 2172 3584 2448 3432 
Q 2725 3281 2906 2969 
z
M 947 1747 
Q 947 1113 1208 752 
Q 1469 391 1925 391 
Q 2381 391 2643 752 
Q 2906 1113 2906 1747 
Q 2906 2381 2643 2742 
Q 2381 3103 1925 3103 
Q 1469 3103 1208 2742 
Q 947 2381 947 1747 
z
" transform="scale(0.015625)"/>
       <path id="DejaVuSans-29" d="M 513 4856 
L 1013 4856 
Q 1481 4119 1714 3412 
Q 1947 2706 1947 2009 
Q 1947 1309 1714 600 
Q 1481 -109 1013 -844 
L 513 -844 
Q 928 -128 1133 580 
Q 1338 1288 1338 2009 
Q 1338 2731 1133 3434 
Q 928 4138 513 4856 
z
" transform="scale(0.015625)"/>
      </defs>
      <use xlink:href="#DejaVuSans-54"/>
      <use xlink:href="#DejaVuSans-54" transform="translate(59.333984 0)"/>
      <use xlink:href="#DejaVuSans-41" transform="translate(112.667969 0)"/>
      <use xlink:href="#DejaVuSans-47" transform="translate(179.326172 0)"/>
      <use xlink:href="#DejaVuSans-47" transform="translate(256.816406 0)"/>
      <use xlink:href="#DejaVuSans-20" transform="translate(334.306641 0)"/>
      <use xlink:href="#DejaVuSans-28" transform="translate(366.09375 0)"/>
      <use xlink:href="#DejaVuSans-33" transform="translate(405.107422 0)"/>
      <use xlink:href="#DejaVuSans-27" transform="translate(468.730469 0)"/>
      <use xlink:href="#DejaVuSans-20" transform="translate(496.220703 0)"/>
      <use xlink:href="#DejaVuSans-65" transform="translate(528.007812 0)"/>
      <use xlink:href="#DejaVuSans-6e" transform="translate(589.53125 0)"/>
      <use xlink:href="#DejaVuSans-64" transform="translate(652.910156 0)"/>
      <use xlink:href="#DejaVuSans-29" transform="translate(716.386719 0)"/>
     </g>
    </g>
    <g id="line2d_34">
     <path d="M 444.848125 49.654688 
L 454.848125 49.654688 
L 464.848125 49.654688 
" style="fill: none; stroke-dasharray: 7.4,3.2; stroke-dashoffset: 0; stroke: #8b0000; stroke-width: 2"/>
    </g>
    <g id="text_20">
     <!-- TTGGAG (3' end) -->
     <g transform="translate(472.848125 53.154688) scale(0.1 -0.1)">
      <use xlink:href="#DejaVuSans-54"/>
      <use xlink:href="#DejaVuSans-54" transform="translate(59.333984 0)"/>
      <use xlink:href="#DejaVuSans-47" transform="translate(120.417969 0)"/>
      <use xlink:href="#DejaVuSans-47" transform="translate(197.908203 0)"/>
      <use xlink:href="#DejaVuSans-41" transform="translate(275.398438 0)"/>
      <use xlink:href="#DejaVuSans-47" transform="translate(342.056641 0)"/>
      <use xlink:href="#DejaVuSans-20" transform="translate(419.546875 0)"/>
      <use xlink:href="#DejaVuSans-28" transform="translate(451.333984 0)"/>
      <use xlink:href="#DejaVuSans-33" transform="translate(490.347656 0)"/>
      <use xlink:href="#DejaVuSans-27" transform="translate(553.970703 0)"/>
      <use xlink:href="#DejaVuSans-20" transform="translate(581.460938 0)"/>
      <use xlink:href="#DejaVuSans-65" transform="translate(613.248047 0)"/>
      <use xlink:href="#DejaVuSans-6e" transform="translate(674.771484 0)"/>
      <use xlink:href="#DejaVuSans-64" transform="translate(738.150391 0)"/>
      <use xlink:href="#DejaVuSans-29" transform="translate(801.626953 0)"/>
     </g>
    </g>
   </g>
  </g>
 </g>
 <defs>
  <clipPath id="pd33ad7db52">
   <rect x="53.328125" y="7.2" width="382.52" height="379.24"/>
  </clipPath>
 </defs>
</svg>
