<?xml version="1.0" encoding="utf-8" standalone="no"?>
<!DOCTYPE svg PUBLIC "-//W3C//DTD SVG 1.1//EN"
  "http://www.w3.org/Graphics/SVG/1.1/DTD/svg11.dtd">
<svg xmlns:xlink="http://www.w3.org/1999/xlink" width="567.880937pt" height="423.99625pt" viewBox="0 0 567.880937 423.99625" xmlns="http://www.w3.org/2000/svg" version="1.1">
 <metadata>
  <rdf:RDF xmlns:dc="http://purl.org/dc/elements/1.1/" xmlns:cc="http://creativecommons.org/ns#" xmlns:rdf="http://www.w3.org/1999/02/22-rdf-syntax-ns#">
   <cc:Work>
    <dc:type rdf:resource="http://purl.org/dc/dcmitype/StillImage"/>
    <dc:date>2026-04-28T14:20:17.041404</dc:date>
    <dc:format>image/svg+xml</dc:format>
    <dc:creator>
     <cc:Agent>
      <dc:title>Matplotlib v3.10.6, https://matplotlib.org/</dc:title>
     </cc:Agent>
    </dc:creator>
   </cc:Work>
  </rdf:RDF>
 </metadata>
 <defs>
  <style type="text/css">*{stroke-linejoin: round; stroke-linecap: butt}</style>
 </defs>
 <g id="figure_1">
  <g id="patch_1">
   <path d="M 0 423.99625 
L 567.880937 423.99625 
L 567.880937 0 
L 0 0 
z
" style="fill: #ffffff"/>
  </g>
  <g id="axes_1">
   <g id="patch_2">
    <path d="M 46.965625 386.44 
L 411.035625 386.44 
L 411.035625 7.2 
L 46.965625 7.2 
z
" style="fill: #ffffff"/>
   </g>
   <g id="matplotlib.axis_1">
    <g id="xtick_1">
     <g id="line2d_1">
      <path d="M 63.472885 386.44 
L 63.472885 7.2 
" clip-path="url(#pf2d4d5d48c)" style="fill: none; stroke-dasharray: 2.96,1.28; stroke-dashoffset: 0; stroke: #b0b0b0; stroke-opacity: 0.6; stroke-width: 0.8"/>
     </g>
     <g id="line2d_2">
      <defs>
       <path id="m87ff4b1191" d="M 0 0 
L 0 3.5 
" style="stroke: #000000; stroke-width: 0.8"/>
      </defs>
      <g>
       <use xlink:href="#m87ff4b1191" x="63.472885" y="386.44" style="stroke: #000000; stroke-width: 0.8"/>
      </g>
     </g>
     <g id="text_1">
      <!-- 0 -->
      <g transform="translate(60.291635 401.038437) scale(0.1 -0.1)">
       <defs>
        <path id="DejaVuSans-30" d="M 2034 4250 
Q 1547 4250 1301 3770 
Q 1056 3291 1056 2328 
Q 1056 1369 1301 889 
Q 1547 409 2034 409 
Q 2525 409 2770 889 
Q 3016 1369 3016 2328 
Q 3016 3291 2770 3770 
Q 2525 4250 2034 4250 
z
M 2034 4750 
Q 2819 4750 3233 4129 
Q 3647 3509 3647 2328 
Q 3647 1150 3233 529 
Q 2819 -91 2034 -91 
Q 1250 -91 836 529 
Q 422 1150 422 2328 
Q 422 3509 836 4129 
Q 1250 4750 2034 4750 
z
" transform="scale(0.015625)"/>
       </defs>
       <use xlink:href="#DejaVuSans-30"/>
      </g>
     </g>
    </g>
    <g id="xtick_2">
     <g id="line2d_3">
      <path d="M 104.849648 386.44 
L 104.849648 7.2 
" clip-path="url(#pf2d4d5d48c)" style="fill: none; stroke-dasharray: 2.96,1.28; stroke-dashoffset: 0; stroke: #b0b0b0; stroke-opacity: 0.6; stroke-width: 0.8"/>
     </g>
     <g id="line2d_4">
      <g>
       <use xlink:href="#m87ff4b1191" x="104.849648" y="386.44" style="stroke: #000000; stroke-width: 0.8"/>
      </g>
     </g>
     <g id="text_2">
      <!-- 1000 -->
      <g transform="translate(92.124648 401.038437) scale(0.1 -0.1)">
       <defs>
        <path id="DejaVuSans-31" d="M 794 531 
L 1825 531 
L 1825 4091 
L 703 3866 
L 703 4441 
L 1819 4666 
L 2450 4666 
L 2450 531 
L 3481 531 
L 3481 0 
L 794 0 
L 794 531 
z
" transform="scale(0.015625)"/>
       </defs>
       <use xlink:href="#DejaVuSans-31"/>
       <use xlink:href="#DejaVuSans-30" transform="translate(63.623047 0)"/>
       <use xlink:href="#DejaVuSans-30" transform="translate(127.246094 0)"/>
       <use xlink:href="#DejaVuSans-30" transform="translate(190.869141 0)"/>
      </g>
     </g>
    </g>
    <g id="xtick_3">
     <g id="line2d_5">
      <path d="M 146.226411 386.44 
L 146.226411 7.2 
" clip-path="url(#pf2d4d5d48c)" style="fill: none; stroke-dasharray: 2.96,1.28; stroke-dashoffset: 0; stroke: #b0b0b0; stroke-opacity: 0.6; stroke-width: 0.8"/>
     </g>
     <g id="line2d_6">
      <g>
       <use xlink:href="#m87ff4b1191" x="146.226411" y="386.44" style="stroke: #000000; stroke-width: 0.8"/>
      </g>
     </g>
     <g id="text_3">
      <!-- 2000 -->
      <g transform="translate(133.501411 401.038437) scale(0.1 -0.1)">
       <defs>
        <path id="DejaVuSans-32" d="M 1228 531 
L 3431 531 
L 3431 0 
L 469 0 
L 469 531 
Q 828 903 1448 1529 
Q 2069 2156 2228 2338 
Q 2531 2678 2651 2914 
Q 2772 3150 2772 3378 
Q 2772 3750 2511 3984 
Q 2250 4219 1831 4219 
Q 1534 4219 1204 4116 
Q 875 4013 500 3803 
L 500 4441 
Q 881 4594 1212 4672 
Q 1544 4750 1819 4750 
Q 2544 4750 2975 4387 
Q 3406 4025 3406 3419 
Q 3406 3131 3298 2873 
Q 3191 2616 2906 2266 
Q 2828 2175 2409 1742 
Q 1991 1309 1228 531 
z
" transform="scale(0.015625)"/>
       </defs>
       <use xlink:href="#DejaVuSans-32"/>
       <use xlink:href="#DejaVuSans-30" transform="translate(63.623047 0)"/>
       <use xlink:href="#DejaVuSans-30" transform="translate(127.246094 0)"/>
       <use xlink:href="#DejaVuSans-30" transform="translate(190.869141 0)"/>
      </g>
     </g>
    </g>
    <g id="xtick_4">
     <g id="line2d_7">
      <path d="M 187.603174 386.44 
L 187.603174 7.2 
" clip-path="url(#pf2d4d5d48c)" style="fill: none; stroke-dasharray: 2.96,1.28; stroke-dashoffset: 0; stroke: #b0b0b0; stroke-opacity: 0.6; stroke-width: 0.8"/>
     </g>
     <g id="line2d_8">
      <g>
       <use xlink:href="#m87ff4b1191" x="187.603174" y="386.44" style="stroke: #000000; stroke-width: 0.8"/>
      </g>
     </g>
     <g id="text_4">
      <!-- 3000 -->
      <g transform="translate(174.878174 401.038437) scale(0.1 -0.1)">
       <defs>
        <path id="DejaVuSans-33" d="M 2597 2516 
Q 3050 2419 3304 2112 
Q 3559 1806 3559 1356 
Q 3559 666 3084 287 
Q 2609 -91 1734 -91 
Q 1441 -91 1130 -33 
Q 819 25 488 141 
L 488 750 
Q 750 597 1062 519 
Q 1375 441 1716 441 
Q 2309 441 2620 675 
Q 2931 909 2931 1356 
Q 2931 1769 2642 2001 
Q 2353 2234 1838 2234 
L 1294 2234 
L 1294 2753 
L 1863 2753 
Q 2328 2753 2575 2939 
Q 2822 3125 2822 3475 
Q 2822 3834 2567 4026 
Q 2313 4219 1838 4219 
Q 1578 4219 1281 4162 
Q 984 4106 628 3988 
L 628 4550 
Q 988 4650 1302 4700 
Q 1616 4750 1894 4750 
Q 2613 4750 3031 4423 
Q 3450 4097 3450 3541 
Q 3450 3153 3228 2886 
Q 3006 2619 2597 2516 
z
" transform="scale(0.015625)"/>
       </defs>
       <use xlink:href="#DejaVuSans-33"/>
       <use xlink:href="#DejaVuSans-30" transform="translate(63.623047 0)"/>
       <use xlink:href="#DejaVuSans-30" transform="translate(127.246094 0)"/>
       <use xlink:href="#DejaVuSans-30" transform="translate(190.869141 0)"/>
      </g>
     </g>
    </g>
    <g id="xtick_5">
     <g id="line2d_9">
      <path d="M 228.979937 386.44 
L 228.979937 7.2 
" clip-path="url(#pf2d4d5d48c)" style="fill: none; stroke-dasharray: 2.96,1.28; stroke-dashoffset: 0; stroke: #b0b0b0; stroke-opacity: 0.6; stroke-width: 0.8"/>
     </g>
     <g id="line2d_10">
      <g>
       <use xlink:href="#m87ff4b1191" x="228.979937" y="386.44" style="stroke: #000000; stroke-width: 0.8"/>
      </g>
     </g>
     <g id="text_5">
      <!-- 4000 -->
      <g transform="translate(216.254937 401.038437) scale(0.1 -0.1)">
       <defs>
        <path id="DejaVuSans-34" d="M 2419 4116 
L 825 1625 
L 2419 1625 
L 2419 4116 
z
M 2253 4666 
L 3047 4666 
L 3047 1625 
L 3713 1625 
L 3713 1100 
L 3047 1100 
L 3047 0 
L 2419 0 
L 2419 1100 
L 313 1100 
L 313 1709 
L 2253 4666 
z
" transform="scale(0.015625)"/>
       </defs>
       <use xlink:href="#DejaVuSans-34"/>
       <use xlink:href="#DejaVuSans-30" transform="translate(63.623047 0)"/>
       <use xlink:href="#DejaVuSans-30" transform="translate(127.246094 0)"/>
       <use xlink:href="#DejaVuSans-30" transform="translate(190.869141 0)"/>
      </g>
     </g>
    </g>
    <g id="xtick_6">
     <g id="line2d_11">
      <path d="M 270.3567 386.44 
L 270.3567 7.2 
" clip-path="url(#pf2d4d5d48c)" style="fill: none; stroke-dasharray: 2.96,1.28; stroke-dashoffset: 0; stroke: #b0b0b0; stroke-opacity: 0.6; stroke-width: 0.8"/>
     </g>
     <g id="line2d_12">
      <g>
       <use xlink:href="#m87ff4b1191" x="270.3567" y="386.44" style="stroke: #000000; stroke-width: 0.8"/>
      </g>
     </g>
     <g id="text_6">
      <!-- 5000 -->
      <g transform="translate(257.6317 401.038437) scale(0.1 -0.1)">
       <defs>
        <path id="DejaVuSans-35" d="M 691 4666 
L 3169 4666 
L 3169 4134 
L 1269 4134 
L 1269 2991 
Q 1406 3038 1543 3061 
Q 1681 3084 1819 3084 
Q 2600 3084 3056 2656 
Q 3513 2228 3513 1497 
Q 3513 744 3044 326 
Q 2575 -91 1722 -91 
Q 1428 -91 1123 -41 
Q 819 9 494 109 
L 494 744 
Q 775 591 1075 516 
Q 1375 441 1709 441 
Q 2250 441 2565 725 
Q 2881 1009 2881 1497 
Q 2881 1984 2565 2268 
Q 2250 2553 1709 2553 
Q 1456 2553 1204 2497 
Q 953 2441 691 2322 
L 691 4666 
z
" transform="scale(0.015625)"/>
       </defs>
       <use xlink:href="#DejaVuSans-35"/>
       <use xlink:href="#DejaVuSans-30" transform="translate(63.623047 0)"/>
       <use xlink:href="#DejaVuSans-30" transform="translate(127.246094 0)"/>
       <use xlink:href="#DejaVuSans-30" transform="translate(190.869141 0)"/>
      </g>
     </g>
    </g>
    <g id="xtick_7">
     <g id="line2d_13">
      <path d="M 311.733463 386.44 
L 311.733463 7.2 
" clip-path="url(#pf2d4d5d48c)" style="fill: none; stroke-dasharray: 2.96,1.28; stroke-dashoffset: 0; stroke: #b0b0b0; stroke-opacity: 0.6; stroke-width: 0.8"/>
     </g>
     <g id="line2d_14">
      <g>
       <use xlink:href="#m87ff4b1191" x="311.733463" y="386.44" style="stroke: #000000; stroke-width: 0.8"/>
      </g>
     </g>
     <g id="text_7">
      <!-- 6000 -->
      <g transform="translate(299.008463 401.038437) scale(0.1 -0.1)">
       <defs>
        <path id="DejaVuSans-36" d="M 2113 2584 
Q 1688 2584 1439 2293 
Q 1191 2003 1191 1497 
Q 1191 994 1439 701 
Q 1688 409 2113 409 
Q 2538 409 2786 701 
Q 3034 994 3034 1497 
Q 3034 2003 2786 2293 
Q 2538 2584 2113 2584 
z
M 3366 4563 
L 3366 3988 
Q 3128 4100 2886 4159 
Q 2644 4219 2406 4219 
Q 1781 4219 1451 3797 
Q 1122 3375 1075 2522 
Q 1259 2794 1537 2939 
Q 1816 3084 2150 3084 
Q 2853 3084 3261 2657 
Q 3669 2231 3669 1497 
Q 3669 778 3244 343 
Q 2819 -91 2113 -91 
Q 1303 -91 875 529 
Q 447 1150 447 2328 
Q 447 3434 972 4092 
Q 1497 4750 2381 4750 
Q 2619 4750 2861 4703 
Q 3103 4656 3366 4563 
z
" transform="scale(0.015625)"/>
       </defs>
       <use xlink:href="#DejaVuSans-36"/>
       <use xlink:href="#DejaVuSans-30" transform="translate(63.623047 0)"/>
       <use xlink:href="#DejaVuSans-30" transform="translate(127.246094 0)"/>
       <use xlink:href="#DejaVuSans-30" transform="translate(190.869141 0)"/>
      </g>
     </g>
    </g>
    <g id="xtick_8">
     <g id="line2d_15">
      <path d="M 353.110226 386.44 
L 353.110226 7.2 
" clip-path="url(#pf2d4d5d48c)" style="fill: none; stroke-dasharray: 2.96,1.28; stroke-dashoffset: 0; stroke: #b0b0b0; stroke-opacity: 0.6; stroke-width: 0.8"/>
     </g>
     <g id="line2d_16">
      <g>
       <use xlink:href="#m87ff4b1191" x="353.110226" y="386.44" style="stroke: #000000; stroke-width: 0.8"/>
      </g>
     </g>
     <g id="text_8">
      <!-- 7000 -->
      <g transform="translate(340.385226 401.038437) scale(0.1 -0.1)">
       <defs>
        <path id="DejaVuSans-37" d="M 525 4666 
L 3525 4666 
L 3525 4397 
L 1831 0 
L 1172 0 
L 2766 4134 
L 525 4134 
L 525 4666 
z
" transform="scale(0.015625)"/>
       </defs>
       <use xlink:href="#DejaVuSans-37"/>
       <use xlink:href="#DejaVuSans-30" transform="translate(63.623047 0)"/>
       <use xlink:href="#DejaVuSans-30" transform="translate(127.246094 0)"/>
       <use xlink:href="#DejaVuSans-30" transform="translate(190.869141 0)"/>
      </g>
     </g>
    </g>
    <g id="xtick_9">
     <g id="line2d_17">
      <path d="M 394.486989 386.44 
L 394.486989 7.2 
" clip-path="url(#pf2d4d5d48c)" style="fill: none; stroke-dasharray: 2.96,1.28; stroke-dashoffset: 0; stroke: #b0b0b0; stroke-opacity: 0.6; stroke-width: 0.8"/>
     </g>
     <g id="line2d_18">
      <g>
       <use xlink:href="#m87ff4b1191" x="394.486989" y="386.44" style="stroke: #000000; stroke-width: 0.8"/>
      </g>
     </g>
     <g id="text_9">
      <!-- 8000 -->
      <g transform="translate(381.761989 401.038437) scale(0.1 -0.1)">
       <defs>
        <path id="DejaVuSans-38" d="M 2034 2216 
Q 1584 2216 1326 1975 
Q 1069 1734 1069 1313 
Q 1069 891 1326 650 
Q 1584 409 2034 409 
Q 2484 409 2743 651 
Q 3003 894 3003 1313 
Q 3003 1734 2745 1975 
Q 2488 2216 2034 2216 
z
M 1403 2484 
Q 997 2584 770 2862 
Q 544 3141 544 3541 
Q 544 4100 942 4425 
Q 1341 4750 2034 4750 
Q 2731 4750 3128 4425 
Q 3525 4100 3525 3541 
Q 3525 3141 3298 2862 
Q 3072 2584 2669 2484 
Q 3125 2378 3379 2068 
Q 3634 1759 3634 1313 
Q 3634 634 3220 271 
Q 2806 -91 2034 -91 
Q 1263 -91 848 271 
Q 434 634 434 1313 
Q 434 1759 690 2068 
Q 947 2378 1403 2484 
z
M 1172 3481 
Q 1172 3119 1398 2916 
Q 1625 2713 2034 2713 
Q 2441 2713 2670 2916 
Q 2900 3119 2900 3481 
Q 2900 3844 2670 4047 
Q 2441 4250 2034 4250 
Q 1625 4250 1398 4047 
Q 1172 3844 1172 3481 
z
" transform="scale(0.015625)"/>
       </defs>
       <use xlink:href="#DejaVuSans-38"/>
       <use xlink:href="#DejaVuSans-30" transform="translate(63.623047 0)"/>
       <use xlink:href="#DejaVuSans-30" transform="translate(127.246094 0)"/>
       <use xlink:href="#DejaVuSans-30" transform="translate(190.869141 0)"/>
      </g>
     </g>
    </g>
    <g id="text_10">
     <!-- Distance from terminus [nt] -->
     <g transform="translate(159.501406 414.716562) scale(0.1 -0.1)">
      <defs>
       <path id="DejaVuSans-44" d="M 1259 4147 
L 1259 519 
L 2022 519 
Q 2988 519 3436 956 
Q 3884 1394 3884 2338 
Q 3884 3275 3436 3711 
Q 2988 4147 2022 4147 
L 1259 4147 
z
M 628 4666 
L 1925 4666 
Q 3281 4666 3915 4102 
Q 4550 3538 4550 2338 
Q 4550 1131 3912 565 
Q 3275 0 1925 0 
L 628 0 
L 628 4666 
z
" transform="scale(0.015625)"/>
       <path id="DejaVuSans-69" d="M 603 3500 
L 1178 3500 
L 1178 0 
L 603 0 
L 603 3500 
z
M 603 4863 
L 1178 4863 
L 1178 4134 
L 603 4134 
L 603 4863 
z
" transform="scale(0.015625)"/>
       <path id="DejaVuSans-73" d="M 2834 3397 
L 2834 2853 
Q 2591 2978 2328 3040 
Q 2066 3103 1784 3103 
Q 1356 3103 1142 2972 
Q 928 2841 928 2578 
Q 928 2378 1081 2264 
Q 1234 2150 1697 2047 
L 1894 2003 
Q 2506 1872 2764 1633 
Q 3022 1394 3022 966 
Q 3022 478 2636 193 
Q 2250 -91 1575 -91 
Q 1294 -91 989 -36 
Q 684 19 347 128 
L 347 722 
Q 666 556 975 473 
Q 1284 391 1588 391 
Q 1994 391 2212 530 
Q 2431 669 2431 922 
Q 2431 1156 2273 1281 
Q 2116 1406 1581 1522 
L 1381 1569 
Q 847 1681 609 1914 
Q 372 2147 372 2553 
Q 372 3047 722 3315 
Q 1072 3584 1716 3584 
Q 2034 3584 2315 3537 
Q 2597 3491 2834 3397 
z
" transform="scale(0.015625)"/>
       <path id="DejaVuSans-74" d="M 1172 4494 
L 1172 3500 
L 2356 3500 
L 2356 3053 
L 1172 3053 
L 1172 1153 
Q 1172 725 1289 603 
Q 1406 481 1766 481 
L 2356 481 
L 2356 0 
L 1766 0 
Q 1100 0 847 248 
Q 594 497 594 1153 
L 594 3053 
L 172 3053 
L 172 3500 
L 594 3500 
L 594 4494 
L 1172 4494 
z
" transform="scale(0.015625)"/>
       <path id="DejaVuSans-61" d="M 2194 1759 
Q 1497 1759 1228 1600 
Q 959 1441 959 1056 
Q 959 750 1161 570 
Q 1363 391 1709 391 
Q 2188 391 2477 730 
Q 2766 1069 2766 1631 
L 2766 1759 
L 2194 1759 
z
M 3341 1997 
L 3341 0 
L 2766 0 
L 2766 531 
Q 2569 213 2275 61 
Q 1981 -91 1556 -91 
Q 1019 -91 701 211 
Q 384 513 384 1019 
Q 384 1609 779 1909 
Q 1175 2209 1959 2209 
L 2766 2209 
L 2766 2266 
Q 2766 2663 2505 2880 
Q 2244 3097 1772 3097 
Q 1472 3097 1187 3025 
Q 903 2953 641 2809 
L 641 3341 
Q 956 3463 1253 3523 
Q 1550 3584 1831 3584 
Q 2591 3584 2966 3190 
Q 3341 2797 3341 1997 
z
" transform="scale(0.015625)"/>
       <path id="DejaVuSans-6e" d="M 3513 2113 
L 3513 0 
L 2938 0 
L 2938 2094 
Q 2938 2591 2744 2837 
Q 2550 3084 2163 3084 
Q 1697 3084 1428 2787 
Q 1159 2491 1159 1978 
L 1159 0 
L 581 0 
L 581 3500 
L 1159 3500 
L 1159 2956 
Q 1366 3272 1645 3428 
Q 1925 3584 2291 3584 
Q 2894 3584 3203 3211 
Q 3513 2838 3513 2113 
z
" transform="scale(0.015625)"/>
       <path id="DejaVuSans-63" d="M 3122 3366 
L 3122 2828 
Q 2878 2963 2633 3030 
Q 2388 3097 2138 3097 
Q 1578 3097 1268 2742 
Q 959 2388 959 1747 
Q 959 1106 1268 751 
Q 1578 397 2138 397 
Q 2388 397 2633 464 
Q 2878 531 3122 666 
L 3122 134 
Q 2881 22 2623 -34 
Q 2366 -91 2075 -91 
Q 1284 -91 818 406 
Q 353 903 353 1747 
Q 353 2603 823 3093 
Q 1294 3584 2113 3584 
Q 2378 3584 2631 3529 
Q 2884 3475 3122 3366 
z
" transform="scale(0.015625)"/>
       <path id="DejaVuSans-65" d="M 3597 1894 
L 3597 1613 
L 953 1613 
Q 991 1019 1311 708 
Q 1631 397 2203 397 
Q 2534 397 2845 478 
Q 3156 559 3463 722 
L 3463 178 
Q 3153 47 2828 -22 
Q 2503 -91 2169 -91 
Q 1331 -91 842 396 
Q 353 884 353 1716 
Q 353 2575 817 3079 
Q 1281 3584 2069 3584 
Q 2775 3584 3186 3129 
Q 3597 2675 3597 1894 
z
M 3022 2063 
Q 3016 2534 2758 2815 
Q 2500 3097 2075 3097 
Q 1594 3097 1305 2825 
Q 1016 2553 972 2059 
L 3022 2063 
z
" transform="scale(0.015625)"/>
       <path id="DejaVuSans-20" transform="scale(0.015625)"/>
       <path id="DejaVuSans-66" d="M 2375 4863 
L 2375 4384 
L 1825 4384 
Q 1516 4384 1395 4259 
Q 1275 4134 1275 3809 
L 1275 3500 
L 2222 3500 
L 2222 3053 
L 1275 3053 
L 1275 0 
L 697 0 
L 697 3053 
L 147 3053 
L 147 3500 
L 697 3500 
L 697 3744 
Q 697 4328 969 4595 
Q 1241 4863 1831 4863 
L 2375 4863 
z
" transform="scale(0.015625)"/>
       <path id="DejaVuSans-72" d="M 2631 2963 
Q 2534 3019 2420 3045 
Q 2306 3072 2169 3072 
Q 1681 3072 1420 2755 
Q 1159 2438 1159 1844 
L 1159 0 
L 581 0 
L 581 3500 
L 1159 3500 
L 1159 2956 
Q 1341 3275 1631 3429 
Q 1922 3584 2338 3584 
Q 2397 3584 2469 3576 
Q 2541 3569 2628 3553 
L 2631 2963 
z
" transform="scale(0.015625)"/>
       <path id="DejaVuSans-6f" d="M 1959 3097 
Q 1497 3097 1228 2736 
Q 959 2375 959 1747 
Q 959 1119 1226 758 
Q 1494 397 1959 397 
Q 2419 397 2687 759 
Q 2956 1122 2956 1747 
Q 2956 2369 2687 2733 
Q 2419 3097 1959 3097 
z
M 1959 3584 
Q 2709 3584 3137 3096 
Q 3566 2609 3566 1747 
Q 3566 888 3137 398 
Q 2709 -91 1959 -91 
Q 1206 -91 779 398 
Q 353 888 353 1747 
Q 353 2609 779 3096 
Q 1206 3584 1959 3584 
z
" transform="scale(0.015625)"/>
       <path id="DejaVuSans-6d" d="M 3328 2828 
Q 3544 3216 3844 3400 
Q 4144 3584 4550 3584 
Q 5097 3584 5394 3201 
Q 5691 2819 5691 2113 
L 5691 0 
L 5113 0 
L 5113 2094 
Q 5113 2597 4934 2840 
Q 4756 3084 4391 3084 
Q 3944 3084 3684 2787 
Q 3425 2491 3425 1978 
L 3425 0 
L 2847 0 
L 2847 2094 
Q 2847 2600 2669 2842 
Q 2491 3084 2119 3084 
Q 1678 3084 1418 2786 
Q 1159 2488 1159 1978 
L 1159 0 
L 581 0 
L 581 3500 
L 1159 3500 
L 1159 2956 
Q 1356 3278 1631 3431 
Q 1906 3584 2284 3584 
Q 2666 3584 2933 3390 
Q 3200 3197 3328 2828 
z
" transform="scale(0.015625)"/>
       <path id="DejaVuSans-75" d="M 544 1381 
L 544 3500 
L 1119 3500 
L 1119 1403 
Q 1119 906 1312 657 
Q 1506 409 1894 409 
Q 2359 409 2629 706 
Q 2900 1003 2900 1516 
L 2900 3500 
L 3475 3500 
L 3475 0 
L 2900 0 
L 2900 538 
Q 2691 219 2414 64 
Q 2138 -91 1772 -91 
Q 1169 -91 856 284 
Q 544 659 544 1381 
z
M 1991 3584 
L 1991 3584 
z
" transform="scale(0.015625)"/>
       <path id="DejaVuSans-5b" d="M 550 4863 
L 1875 4863 
L 1875 4416 
L 1125 4416 
L 1125 -397 
L 1875 -397 
L 1875 -844 
L 550 -844 
L 550 4863 
z
" transform="scale(0.015625)"/>
       <path id="DejaVuSans-5d" d="M 1947 4863 
L 1947 -844 
L 622 -844 
L 622 -397 
L 1369 -397 
L 1369 4416 
L 622 4416 
L 622 4863 
L 1947 4863 
z
" transform="scale(0.015625)"/>
      </defs>
      <use xlink:href="#DejaVuSans-44"/>
      <use xlink:href="#DejaVuSans-69" transform="translate(77.001953 0)"/>
      <use xlink:href="#DejaVuSans-73" transform="translate(104.785156 0)"/>
      <use xlink:href="#DejaVuSans-74" transform="translate(156.884766 0)"/>
      <use xlink:href="#DejaVuSans-61" transform="translate(196.09375 0)"/>
      <use xlink:href="#DejaVuSans-6e" transform="translate(257.373047 0)"/>
      <use xlink:href="#DejaVuSans-63" transform="translate(320.751953 0)"/>
      <use xlink:href="#DejaVuSans-65" transform="translate(375.732422 0)"/>
      <use xlink:href="#DejaVuSans-20" transform="translate(437.255859 0)"/>
      <use xlink:href="#DejaVuSans-66" transform="translate(469.042969 0)"/>
      <use xlink:href="#DejaVuSans-72" transform="translate(504.248047 0)"/>
      <use xlink:href="#DejaVuSans-6f" transform="translate(543.111328 0)"/>
      <use xlink:href="#DejaVuSans-6d" transform="translate(604.292969 0)"/>
      <use xlink:href="#DejaVuSans-20" transform="translate(701.705078 0)"/>
      <use xlink:href="#DejaVuSans-74" transform="translate(733.492188 0)"/>
      <use xlink:href="#DejaVuSans-65" transform="translate(772.701172 0)"/>
      <use xlink:href="#DejaVuSans-72" transform="translate(834.224609 0)"/>
      <use xlink:href="#DejaVuSans-6d" transform="translate(873.587891 0)"/>
      <use xlink:href="#DejaVuSans-69" transform="translate(971 0)"/>
      <use xlink:href="#DejaVuSans-6e" transform="translate(998.783203 0)"/>
      <use xlink:href="#DejaVuSans-75" transform="translate(1062.162109 0)"/>
      <use xlink:href="#DejaVuSans-73" transform="translate(1125.541016 0)"/>
      <use xlink:href="#DejaVuSans-20" transform="translate(1177.640625 0)"/>
      <use xlink:href="#DejaVuSans-5b" transform="translate(1209.427734 0)"/>
      <use xlink:href="#DejaVuSans-6e" transform="translate(1248.441406 0)"/>
      <use xlink:href="#DejaVuSans-74" transform="translate(1311.820312 0)"/>
      <use xlink:href="#DejaVuSans-5d" transform="translate(1351.029297 0)"/>
     </g>
    </g>
   </g>
   <g id="matplotlib.axis_2">
    <g id="ytick_1">
     <g id="line2d_19">
      <path d="M 46.965625 369.201818 
L 411.035625 369.201818 
" clip-path="url(#pf2d4d5d48c)" style="fill: none; stroke-dasharray: 2.96,1.28; stroke-dashoffset: 0; stroke: #b0b0b0; stroke-opacity: 0.6; stroke-width: 0.8"/>
     </g>
     <g id="line2d_20">
      <defs>
       <path id="m041b261395" d="M 0 0 
L -3.5 0 
" style="stroke: #000000; stroke-width: 0.8"/>
      </defs>
      <g>
       <use xlink:href="#m041b261395" x="46.965625" y="369.201818" style="stroke: #000000; stroke-width: 0.8"/>
      </g>
     </g>
     <g id="text_11">
      <!-- 0 -->
      <g transform="translate(33.603125 373.001037) scale(0.1 -0.1)">
       <use xlink:href="#DejaVuSans-30"/>
      </g>
     </g>
    </g>
    <g id="ytick_2">
     <g id="line2d_21">
      <path d="M 46.965625 312.027086 
L 411.035625 312.027086 
" clip-path="url(#pf2d4d5d48c)" style="fill: none; stroke-dasharray: 2.96,1.28; stroke-dashoffset: 0; stroke: #b0b0b0; stroke-opacity: 0.6; stroke-width: 0.8"/>
     </g>
     <g id="line2d_22">
      <g>
       <use xlink:href="#m041b261395" x="46.965625" y="312.027086" style="stroke: #000000; stroke-width: 0.8"/>
      </g>
     </g>
     <g id="text_12">
      <!-- 20 -->
      <g transform="translate(27.240625 315.826305) scale(0.1 -0.1)">
       <use xlink:href="#DejaVuSans-32"/>
       <use xlink:href="#DejaVuSans-30" transform="translate(63.623047 0)"/>
      </g>
     </g>
    </g>
    <g id="ytick_3">
     <g id="line2d_23">
      <path d="M 46.965625 254.852353 
L 411.035625 254.852353 
" clip-path="url(#pf2d4d5d48c)" style="fill: none; stroke-dasharray: 2.96,1.28; stroke-dashoffset: 0; stroke: #b0b0b0; stroke-opacity: 0.6; stroke-width: 0.8"/>
     </g>
     <g id="line2d_24">
      <g>
       <use xlink:href="#m041b261395" x="46.965625" y="254.852353" style="stroke: #000000; stroke-width: 0.8"/>
      </g>
     </g>
     <g id="text_13">
      <!-- 40 -->
      <g transform="translate(27.240625 258.651572) scale(0.1 -0.1)">
       <use xlink:href="#DejaVuSans-34"/>
       <use xlink:href="#DejaVuSans-30" transform="translate(63.623047 0)"/>
      </g>
     </g>
    </g>
    <g id="ytick_4">
     <g id="line2d_25">
      <path d="M 46.965625 197.677621 
L 411.035625 197.677621 
" clip-path="url(#pf2d4d5d48c)" style="fill: none; stroke-dasharray: 2.96,1.28; stroke-dashoffset: 0; stroke: #b0b0b0; stroke-opacity: 0.6; stroke-width: 0.8"/>
     </g>
     <g id="line2d_26">
      <g>
       <use xlink:href="#m041b261395" x="46.965625" y="197.677621" style="stroke: #000000; stroke-width: 0.8"/>
      </g>
     </g>
     <g id="text_14">
      <!-- 60 -->
      <g transform="translate(27.240625 201.47684) scale(0.1 -0.1)">
       <use xlink:href="#DejaVuSans-36"/>
       <use xlink:href="#DejaVuSans-30" transform="translate(63.623047 0)"/>
      </g>
     </g>
    </g>
    <g id="ytick_5">
     <g id="line2d_27">
      <path d="M 46.965625 140.502889 
L 411.035625 140.502889 
" clip-path="url(#pf2d4d5d48c)" style="fill: none; stroke-dasharray: 2.96,1.28; stroke-dashoffset: 0; stroke: #b0b0b0; stroke-opacity: 0.6; stroke-width: 0.8"/>
     </g>
     <g id="line2d_28">
      <g>
       <use xlink:href="#m041b261395" x="46.965625" y="140.502889" style="stroke: #000000; stroke-width: 0.8"/>
      </g>
     </g>
     <g id="text_15">
      <!-- 80 -->
      <g transform="translate(27.240625 144.302107) scale(0.1 -0.1)">
       <use xlink:href="#DejaVuSans-38"/>
       <use xlink:href="#DejaVuSans-30" transform="translate(63.623047 0)"/>
      </g>
     </g>
    </g>
    <g id="ytick_6">
     <g id="line2d_29">
      <path d="M 46.965625 83.328156 
L 411.035625 83.328156 
" clip-path="url(#pf2d4d5d48c)" style="fill: none; stroke-dasharray: 2.96,1.28; stroke-dashoffset: 0; stroke: #b0b0b0; stroke-opacity: 0.6; stroke-width: 0.8"/>
     </g>
     <g id="line2d_30">
      <g>
       <use xlink:href="#m041b261395" x="46.965625" y="83.328156" style="stroke: #000000; stroke-width: 0.8"/>
      </g>
     </g>
     <g id="text_16">
      <!-- 100 -->
      <g transform="translate(20.878125 87.127375) scale(0.1 -0.1)">
       <use xlink:href="#DejaVuSans-31"/>
       <use xlink:href="#DejaVuSans-30" transform="translate(63.623047 0)"/>
       <use xlink:href="#DejaVuSans-30" transform="translate(127.246094 0)"/>
      </g>
     </g>
    </g>
    <g id="ytick_7">
     <g id="line2d_31">
      <path d="M 46.965625 26.153424 
L 411.035625 26.153424 
" clip-path="url(#pf2d4d5d48c)" style="fill: none; stroke-dasharray: 2.96,1.28; stroke-dashoffset: 0; stroke: #b0b0b0; stroke-opacity: 0.6; stroke-width: 0.8"/>
     </g>
     <g id="line2d_32">
      <g>
       <use xlink:href="#m041b261395" x="46.965625" y="26.153424" style="stroke: #000000; stroke-width: 0.8"/>
      </g>
     </g>
     <g id="text_17">
      <!-- 120 -->
      <g transform="translate(20.878125 29.952643) scale(0.1 -0.1)">
       <use xlink:href="#DejaVuSans-31"/>
       <use xlink:href="#DejaVuSans-32" transform="translate(63.623047 0)"/>
       <use xlink:href="#DejaVuSans-30" transform="translate(127.246094 0)"/>
      </g>
     </g>
    </g>
    <g id="text_18">
     <!-- Average cumulative count -->
     <g transform="translate(14.798438 262.4325) rotate(-90) scale(0.1 -0.1)">
      <defs>
       <path id="DejaVuSans-41" d="M 2188 4044 
L 1331 1722 
L 3047 1722 
L 2188 4044 
z
M 1831 4666 
L 2547 4666 
L 4325 0 
L 3669 0 
L 3244 1197 
L 1141 1197 
L 716 0 
L 50 0 
L 1831 4666 
z
" transform="scale(0.015625)"/>
       <path id="DejaVuSans-76" d="M 191 3500 
L 800 3500 
L 1894 563 
L 2988 3500 
L 3597 3500 
L 2284 0 
L 1503 0 
L 191 3500 
z
" transform="scale(0.015625)"/>
       <path id="DejaVuSans-67" d="M 2906 1791 
Q 2906 2416 2648 2759 
Q 2391 3103 1925 3103 
Q 1463 3103 1205 2759 
Q 947 2416 947 1791 
Q 947 1169 1205 825 
Q 1463 481 1925 481 
Q 2391 481 2648 825 
Q 2906 1169 2906 1791 
z
M 3481 434 
Q 3481 -459 3084 -895 
Q 2688 -1331 1869 -1331 
Q 1566 -1331 1297 -1286 
Q 1028 -1241 775 -1147 
L 775 -588 
Q 1028 -725 1275 -790 
Q 1522 -856 1778 -856 
Q 2344 -856 2625 -561 
Q 2906 -266 2906 331 
L 2906 616 
Q 2728 306 2450 153 
Q 2172 0 1784 0 
Q 1141 0 747 490 
Q 353 981 353 1791 
Q 353 2603 747 3093 
Q 1141 3584 1784 3584 
Q 2172 3584 2450 3431 
Q 2728 3278 2906 2969 
L 2906 3500 
L 3481 3500 
L 3481 434 
z
" transform="scale(0.015625)"/>
       <path id="DejaVuSans-6c" d="M 603 4863 
L 1178 4863 
L 1178 0 
L 603 0 
L 603 4863 
z
" transform="scale(0.015625)"/>
      </defs>
      <use xlink:href="#DejaVuSans-41"/>
      <use xlink:href="#DejaVuSans-76" transform="translate(62.533203 0)"/>
      <use xlink:href="#DejaVuSans-65" transform="translate(121.712891 0)"/>
      <use xlink:href="#DejaVuSans-72" transform="translate(183.236328 0)"/>
      <use xlink:href="#DejaVuSans-61" transform="translate(224.349609 0)"/>
      <use xlink:href="#DejaVuSans-67" transform="translate(285.628906 0)"/>
      <use xlink:href="#DejaVuSans-65" transform="translate(349.105469 0)"/>
      <use xlink:href="#DejaVuSans-20" transform="translate(410.628906 0)"/>
      <use xlink:href="#DejaVuSans-63" transform="translate(442.416016 0)"/>
      <use xlink:href="#DejaVuSans-75" transform="translate(497.396484 0)"/>
      <use xlink:href="#DejaVuSans-6d" transform="translate(560.775391 0)"/>
      <use xlink:href="#DejaVuSans-75" transform="translate(658.1875 0)"/>
      <use xlink:href="#DejaVuSans-6c" transform="translate(721.566406 0)"/>
      <use xlink:href="#DejaVuSans-61" transform="translate(749.349609 0)"/>
      <use xlink:href="#DejaVuSans-74" transform="translate(810.628906 0)"/>
      <use xlink:href="#DejaVuSans-69" transform="translate(849.837891 0)"/>
      <use xlink:href="#DejaVuSans-76" transform="translate(877.621094 0)"/>
      <use xlink:href="#DejaVuSans-65" transform="translate(936.800781 0)"/>
      <use xlink:href="#DejaVuSans-20" transform="translate(998.324219 0)"/>
      <use xlink:href="#DejaVuSans-63" transform="translate(1030.111328 0)"/>
      <use xlink:href="#DejaVuSans-6f" transform="translate(1085.091797 0)"/>
      <use xlink:href="#DejaVuSans-75" transform="translate(1146.273438 0)"/>
      <use xlink:href="#DejaVuSans-6e" transform="translate(1209.652344 0)"/>
      <use xlink:href="#DejaVuSans-74" transform="translate(1273.03125 0)"/>
     </g>
    </g>
   </g>
   <g id="line2d_33">
    <path d="M 394.486989 369.201818 
L 138.571709 369.201818 
L 138.447579 368.630071 
L 138.157942 368.630071 
L 138.033812 368.058324 
L 137.744174 368.058324 
L 137.620044 367.486576 
L 137.330407 367.486576 
L 137.206276 366.914829 
L 136.916639 366.914829 
L 136.792509 366.343082 
L 136.502871 366.343082 
L 136.378741 365.771334 
L 135.675336 365.771334 
L 135.551206 365.199587 
L 135.261568 365.199587 
L 135.137438 364.62784 
L 134.847801 364.62784 
L 134.72367 364.056092 
L 134.434033 364.056092 
L 134.309903 363.484345 
L 134.020266 363.484345 
L 133.896135 362.912598 
L 133.606498 362.912598 
L 133.440991 361.769103 
L 133.0686 361.769103 
L 132.94447 361.197356 
L 132.778963 361.197356 
L 132.572079 359.482114 
L 132.365195 359.482114 
L 132.158311 357.766872 
L 131.951427 357.766872 
L 131.744544 356.05163 
L 131.53766 356.05163 
L 131.330776 354.336388 
L 131.123892 354.336388 
L 130.958385 353.192893 
L 130.710124 353.192893 
L 130.503241 351.477651 
L 130.296357 351.477651 
L 130.13085 350.334156 
L 129.882589 350.334156 
L 129.675705 348.618915 
L 129.427445 348.618915 
L 129.261938 347.47542 
L 129.013677 347.47542 
L 128.84817 346.331925 
L 128.517156 346.331925 
L 128.351649 345.188431 
L 128.144765 345.188431 
L 127.979258 344.044936 
L 127.813751 344.044936 
L 127.56549 341.757947 
L 127.399983 341.757947 
L 127.234476 340.614452 
L 127.1931 340.614452 
L 127.068969 340.042705 
L 126.986216 340.042705 
L 126.737955 337.755715 
L 126.572448 337.755715 
L 126.324188 335.468726 
L 126.075927 335.468726 
L 125.91042 334.325231 
L 125.744913 334.325231 
L 125.496652 332.038242 
L 125.248392 332.038242 
L 125.041508 330.323 
L 124.917378 330.323 
L 124.669117 328.036011 
L 124.50361 328.036011 
L 124.338103 326.892516 
L 124.296726 326.892516 
L 124.172596 326.320769 
L 124.089842 326.320769 
L 123.924335 325.177274 
L 123.882959 325.177274 
L 123.758828 324.605527 
L 123.676075 324.605527 
L 123.551944 324.03378 
L 123.469191 324.03378 
L 123.345061 323.462032 
L 123.262307 323.462032 
L 123.138177 322.890285 
L 122.84854 322.890285 
L 122.683032 321.74679 
L 122.641656 321.74679 
L 122.517525 321.175043 
L 122.434772 321.175043 
L 122.269265 320.031548 
L 122.227888 320.031548 
L 122.103758 319.459801 
L 121.938251 319.459801 
L 121.731367 317.744559 
L 121.524483 317.744559 
L 121.276223 315.45757 
L 121.193469 315.45757 
L 121.027962 314.314075 
L 120.986585 314.314075 
L 120.821078 313.17058 
L 120.779701 313.17058 
L 120.531441 310.883591 
L 120.490064 310.883591 
L 120.324557 309.740096 
L 120.15905 309.740096 
L 119.993543 308.596602 
L 119.952166 308.596602 
L 119.703906 306.309613 
L 119.662529 306.309613 
L 119.497022 305.166118 
L 119.414268 305.166118 
L 119.290138 304.594371 
L 119.248761 304.594371 
L 119.083254 303.450876 
L 119.041877 303.450876 
L 118.87637 302.307381 
L 118.710863 302.307381 
L 118.545356 301.163887 
L 118.421226 301.163887 
L 118.255719 300.020392 
L 118.172965 300.020392 
L 118.048835 298.876897 
L 118.007458 298.876897 
L 117.841951 297.733403 
L 117.759198 297.733403 
L 117.593691 296.018161 
L 117.428184 294.874666 
L 117.34543 294.874666 
L 117.179923 293.159424 
L 117.014416 292.015929 
L 116.931662 292.015929 
L 116.724779 290.300687 
L 116.642025 290.300687 
L 116.476518 289.157193 
L 116.435141 289.157193 
L 116.269634 288.013698 
L 116.104127 288.013698 
L 115.979997 287.441951 
L 115.81449 287.441951 
L 115.648983 286.298456 
L 115.607606 286.298456 
L 115.442099 285.154962 
L 115.400722 285.154962 
L 115.193838 283.43972 
L 115.111085 283.43972 
L 114.945578 282.296225 
L 114.862824 282.296225 
L 114.697317 280.580983 
L 114.53181 279.437488 
L 114.449057 279.437488 
L 114.28355 277.722246 
L 114.118043 276.578752 
L 114.035289 276.578752 
L 113.869782 274.86351 
L 113.704275 273.720015 
L 113.621521 273.720015 
L 113.456014 272.004773 
L 113.290507 270.861278 
L 113.207754 270.861278 
L 113.042247 269.146036 
L 112.918116 268.574289 
L 112.793986 268.574289 
L 112.628479 266.859047 
L 112.462972 265.715553 
L 112.380218 265.715553 
L 112.214711 264.000311 
L 112.090581 264.000311 
L 111.883697 262.285069 
L 111.676814 262.285069 
L 111.46993 260.569827 
L 111.138916 260.569827 
L 110.973409 259.426332 
L 110.725148 259.426332 
L 110.559641 257.71109 
L 110.394134 256.567595 
L 110.31138 256.567595 
L 110.104497 254.852353 
L 109.897613 254.852353 
L 109.732106 253.137111 
L 109.607975 252.565364 
L 109.483845 252.565364 
L 109.276961 249.706627 
L 109.070077 249.706627 
L 108.90457 247.419638 
L 108.65631 247.419638 
L 108.449426 244.560902 
L 108.242542 244.560902 
L 108.077035 242.84566 
L 107.828775 242.84566 
L 107.621891 241.130418 
L 107.415007 241.130418 
L 107.2495 239.415176 
L 107.12537 238.843428 
L 107.001239 238.843428 
L 106.752979 236.556439 
L 106.587472 236.556439 
L 106.380588 233.697702 
L 106.173704 233.697702 
L 105.96682 231.98246 
L 105.759936 231.98246 
L 105.511676 229.695471 
L 105.346169 229.695471 
L 105.139285 227.980229 
L 104.849648 227.980229 
L 104.684141 226.836735 
L 104.518634 226.836735 
L 104.353126 225.69324 
L 104.270373 225.69324 
L 104.146243 225.121493 
L 104.022112 225.121493 
L 103.815229 223.406251 
L 103.608345 223.406251 
L 103.318707 220.547514 
L 103.194577 220.547514 
L 102.946317 218.260525 
L 102.739433 218.260525 
L 102.532549 216.545283 
L 102.367042 216.545283 
L 102.160158 214.830041 
L 101.953274 214.830041 
L 101.705014 212.543051 
L 101.539507 212.543051 
L 101.291246 210.256062 
L 101.042985 210.256062 
L 100.836102 208.54082 
L 100.670595 208.54082 
L 100.422334 206.253831 
L 100.298204 206.253831 
L 100.09132 204.538589 
L 99.801683 204.538589 
L 99.594799 202.823347 
L 99.387915 202.823347 
L 99.263785 202.2516 
L 99.222408 202.2516 
L 99.098278 201.679852 
L 99.015524 201.679852 
L 98.850017 200.536358 
L 98.80864 200.536358 
L 98.68451 199.96461 
L 98.601756 199.96461 
L 98.353496 197.677621 
L 98.187989 197.677621 
L 97.981105 195.962379 
L 97.774221 195.962379 
L 97.525961 193.67539 
L 97.360454 193.67539 
L 97.112193 191.3884 
L 96.946686 191.3884 
L 96.657049 188.529664 
L 96.491541 188.529664 
L 96.243281 186.242675 
L 96.077774 186.242675 
L 95.87089 184.527433 
L 95.664006 184.527433 
L 95.415746 182.240443 
L 95.250239 182.240443 
L 95.126108 181.096949 
L 94.836471 181.096949 
L 94.670964 179.381707 
L 94.546834 178.809959 
L 94.422703 178.809959 
L 94.298573 177.666465 
L 93.926182 177.666465 
L 93.802052 177.094717 
L 93.512415 177.094717 
L 93.346907 175.951223 
L 93.1814 175.951223 
L 92.93314 173.664233 
L 92.684879 173.664233 
L 92.519372 171.948991 
L 92.395242 171.377244 
L 92.271112 171.377244 
L 92.064228 168.518507 
L 91.857344 168.518507 
L 91.65046 165.659771 
L 91.443576 165.659771 
L 91.195316 163.372782 
L 91.029809 163.372782 
L 90.905678 162.801034 
L 90.864302 162.801034 
L 90.740171 162.229287 
L 90.616041 162.229287 
L 90.409157 160.514045 
L 90.202274 160.514045 
L 90.078143 159.942298 
L 90.036766 159.942298 
L 89.912636 159.37055 
L 89.788506 159.37055 
L 89.664376 158.227056 
L 89.622999 158.227056 
L 89.498869 157.083561 
L 89.374738 157.083561 
L 89.250608 155.940066 
L 89.209231 155.940066 
L 89.085101 154.796572 
L 88.960971 154.796572 
L 88.71271 152.509582 
L 88.547203 152.509582 
L 88.298942 150.222593 
L 88.050682 150.222593 
L 87.885175 149.079098 
L 87.636914 149.079098 
L 87.388654 146.792109 
L 87.223147 146.792109 
L 87.099016 146.220362 
L 87.05764 146.220362 
L 86.933509 145.648615 
L 86.809379 145.648615 
L 86.685249 145.076867 
L 86.643872 145.076867 
L 86.519742 143.933373 
L 86.312858 143.933373 
L 86.064597 141.646383 
L 85.89909 141.646383 
L 85.65083 139.359394 
L 85.568076 139.359394 
L 85.319815 137.072405 
L 85.278439 137.072405 
L 85.112932 135.92891 
L 85.071555 135.92891 
L 84.823294 133.641921 
L 84.740541 133.641921 
L 84.49228 131.354931 
L 84.450903 131.354931 
L 84.285396 130.211437 
L 84.24402 130.211437 
L 83.995759 127.924447 
L 83.747498 127.924447 
L 83.581991 126.209205 
L 83.416484 126.209205 
L 83.168224 123.922216 
L 82.919963 123.922216 
L 82.754456 122.206974 
L 82.506196 122.206974 
L 82.340689 119.919985 
L 82.092428 119.919985 
L 81.885544 118.204743 
L 81.761414 118.204743 
L 81.513153 115.917754 
L 81.347646 115.917754 
L 81.223516 115.346006 
L 81.182139 115.346006 
L 80.975255 113.630764 
L 80.933879 113.630764 
L 80.809748 113.059017 
L 80.768372 113.059017 
L 80.561488 111.343775 
L 80.354604 111.343775 
L 80.064967 108.485038 
L 79.940836 108.485038 
L 79.651199 105.626302 
L 79.527069 105.626302 
L 79.278808 103.339313 
L 79.113301 103.339313 
L 78.86504 101.052323 
L 78.699533 101.052323 
L 78.451273 98.765334 
L 78.285766 98.765334 
L 78.120259 97.621839 
L 78.078882 97.621839 
L 77.954752 97.050092 
L 77.871998 97.050092 
L 77.623738 94.763103 
L 77.45823 94.763103 
L 77.20997 92.476113 
L 76.961709 92.476113 
L 76.796202 91.332619 
L 76.547942 91.332619 
L 76.341058 89.617377 
L 76.134174 89.617377 
L 75.92729 87.902135 
L 75.720406 87.902135 
L 75.513523 86.186893 
L 75.348016 86.186893 
L 75.099755 83.899904 
L 74.934248 83.899904 
L 74.685987 81.612914 
L 74.52048 81.612914 
L 74.27222 79.325925 
L 74.106713 79.325925 
L 73.858452 77.038936 
L 73.692945 77.038936 
L 73.444684 74.751946 
L 73.237801 74.751946 
L 73.030917 73.036704 
L 72.948163 73.036704 
L 72.699903 70.749715 
L 72.658526 70.749715 
L 72.493019 69.60622 
L 72.410265 69.60622 
L 72.162005 67.319231 
L 71.996498 67.319231 
L 71.789614 65.603989 
L 71.70686 65.603989 
L 71.58273 65.032242 
L 71.541353 65.032242 
L 71.375846 63.888747 
L 71.293093 63.888747 
L 71.168963 63.317 
L 71.127586 63.317 
L 70.962079 62.173505 
L 70.879325 62.173505 
L 70.672441 60.458263 
L 70.589688 60.458263 
L 70.424181 59.314769 
L 70.30005 59.314769 
L 70.134543 57.599527 
L 70.05179 57.599527 
L 69.803529 55.312537 
L 69.762153 55.312537 
L 69.638022 54.74079 
L 69.513892 54.74079 
L 69.265631 52.453801 
L 69.100124 52.453801 
L 68.893241 50.738559 
L 68.76911 50.738559 
L 68.479473 47.879822 
L 68.355343 47.879822 
L 68.107082 45.592833 
L 67.941575 45.592833 
L 67.734691 43.877591 
L 67.693314 43.877591 
L 67.569184 43.305844 
L 67.527807 43.305844 
L 67.23817 40.447107 
L 67.11404 40.447107 
L 66.948533 39.303612 
L 66.865779 39.303612 
L 66.741649 38.731865 
L 66.700272 38.731865 
L 66.493388 37.016623 
L 66.452012 37.016623 
L 66.245128 35.301381 
L 66.162374 35.301381 
L 65.996867 33.586139 
L 65.748607 33.586139 
L 65.5831 31.29915 
L 65.334839 31.29915 
L 65.169332 29.583908 
L 64.921071 29.583908 
L 64.755564 27.868666 
L 64.590057 27.868666 
L 64.341797 25.581676 
L 64.093536 25.581676 
L 63.928029 24.438182 
L 63.514261 24.438182 
L 63.514261 24.438182 
" clip-path="url(#pf2d4d5d48c)" style="fill: none; stroke-dasharray: 7.4,3.2; stroke-dashoffset: 0; stroke: #fa8072; stroke-width: 2"/>
   </g>
   <g id="line2d_34">
    <path d="M 394.486989 369.201818 
L 352.613704 369.201818 
L 352.489574 368.630071 
L 352.199937 368.630071 
L 352.075807 368.058324 
L 351.786169 368.058324 
L 351.662039 367.486576 
L 348.020884 367.486576 
L 347.896753 366.914829 
L 347.607116 366.914829 
L 347.441609 365.771334 
L 347.193349 365.771334 
L 347.027841 364.62784 
L 346.696827 364.62784 
L 346.572697 364.056092 
L 342.31089 364.056092 
L 342.18676 363.484345 
L 341.897123 363.484345 
L 341.772993 362.912598 
L 341.483355 362.912598 
L 341.359225 362.34085 
L 335.276841 362.34085 
L 335.15271 361.769103 
L 334.863073 361.769103 
L 334.738943 361.197356 
L 334.449306 361.197356 
L 334.325175 360.625608 
L 136.089104 360.625608 
L 135.964973 360.053861 
L 133.19273 360.053861 
L 133.0686 359.482114 
L 130.999762 359.482114 
L 130.875632 358.910366 
L 130.25498 358.910366 
L 130.13085 358.338619 
L 129.468822 358.338619 
L 129.344691 357.766872 
L 129.055054 357.766872 
L 128.930924 357.195124 
L 128.641286 357.195124 
L 128.517156 356.623377 
L 128.227519 356.623377 
L 128.062012 355.479882 
L 127.31723 355.479882 
L 127.1931 354.908135 
L 126.158681 354.908135 
L 126.03455 354.336388 
L 125.951797 354.336388 
L 125.827666 353.76464 
L 125.331145 353.76464 
L 125.207015 353.192893 
L 124.37948 353.192893 
L 124.255349 352.621146 
L 123.965712 352.621146 
L 123.841582 352.049398 
L 123.593321 352.049398 
L 123.427814 350.905904 
L 123.179554 350.905904 
L 122.97267 349.190662 
L 122.765786 349.190662 
L 122.641656 348.618915 
L 122.352018 348.618915 
L 122.227888 348.047167 
L 122.021004 348.047167 
L 121.896874 347.47542 
L 121.607237 347.47542 
L 121.483106 346.903673 
L 121.069339 346.903673 
L 120.945208 346.331925 
L 120.28318 346.331925 
L 120.117673 345.188431 
L 119.455645 345.188431 
L 119.290138 344.044936 
L 118.917747 344.044936 
L 118.75224 342.901441 
L 118.503979 342.901441 
L 118.379849 342.329694 
L 118.090212 342.329694 
L 117.966081 341.757947 
L 116.931662 341.757947 
L 116.807532 341.186199 
L 116.517895 341.186199 
L 116.393764 340.614452 
L 116.228257 340.614452 
L 116.06275 339.470957 
L 116.021374 339.470957 
L 115.855867 338.327463 
L 115.69036 338.327463 
L 115.566229 337.755715 
L 115.193838 337.755715 
L 115.069708 337.183968 
L 112.918116 337.183968 
L 112.793986 336.612221 
L 112.214711 336.612221 
L 112.090581 336.040473 
L 111.883697 336.040473 
L 111.71819 334.896979 
L 111.46993 334.896979 
L 111.304423 333.753484 
L 111.263046 333.753484 
L 111.097539 332.609989 
L 110.973409 332.609989 
L 110.807901 331.466495 
L 110.31138 331.466495 
L 110.18725 330.894747 
L 109.773482 330.894747 
L 109.649352 330.323 
L 108.90457 330.323 
L 108.78044 329.751253 
L 108.118412 329.751253 
L 107.952905 328.607758 
L 107.828775 328.607758 
L 107.663267 327.464264 
L 107.290877 327.464264 
L 107.166746 326.892516 
L 107.001239 326.892516 
L 106.877109 326.320769 
L 106.173704 326.320769 
L 106.008197 325.177274 
L 105.759936 325.177274 
L 105.635806 324.605527 
L 105.346169 324.605527 
L 105.180662 323.462032 
L 104.932401 323.462032 
L 104.808271 322.890285 
L 104.766894 322.890285 
L 104.601387 321.74679 
L 104.394503 321.74679 
L 104.228996 320.603296 
L 103.980736 320.603296 
L 103.815229 319.459801 
L 103.02907 319.459801 
L 102.90494 318.888054 
L 102.780809 318.888054 
L 102.656679 318.316306 
L 102.615302 318.316306 
L 102.491172 317.744559 
L 102.201535 317.744559 
L 102.077404 316.601064 
L 101.787767 316.601064 
L 101.663637 316.029317 
L 101.374 316.029317 
L 101.249869 315.45757 
L 101.125739 315.45757 
L 100.960232 314.314075 
L 100.711971 314.314075 
L 100.587841 313.742328 
L 100.256827 313.742328 
L 100.09132 312.598833 
L 99.843059 312.598833 
L 99.718929 312.027086 
L 99.636175 312.027086 
L 99.512045 311.455338 
L 99.429292 311.455338 
L 99.222408 309.740096 
L 98.974147 309.740096 
L 98.80864 308.596602 
L 98.477626 308.596602 
L 98.353496 308.024855 
L 98.063858 308.024855 
L 97.898351 306.88136 
L 97.567337 306.88136 
L 97.443207 306.309613 
L 97.15357 306.309613 
L 97.029439 305.737865 
L 96.491541 305.737865 
L 96.367411 305.166118 
L 96.077774 305.166118 
L 95.912267 304.022623 
L 95.664006 304.022623 
L 95.539876 303.450876 
L 95.167485 303.450876 
L 95.001978 301.735634 
L 94.753717 301.735634 
L 94.629587 301.163887 
L 94.33995 301.163887 
L 94.174443 299.448645 
L 94.008936 299.448645 
L 93.843429 297.733403 
L 93.719298 297.161655 
L 93.595168 297.161655 
L 93.429661 295.446413 
L 93.1814 295.446413 
L 93.05727 294.874666 
L 92.519372 294.874666 
L 92.395242 294.302919 
L 91.443576 294.302919 
L 91.319446 293.731171 
L 91.029809 293.731171 
L 90.822925 292.015929 
L 90.616041 292.015929 
L 90.491911 291.444182 
L 90.450534 291.444182 
L 90.326404 290.872435 
L 90.202274 290.872435 
L 89.99539 289.157193 
L 89.705752 289.157193 
L 89.581622 288.585445 
L 89.291985 288.585445 
L 89.167854 288.013698 
L 88.960971 288.013698 
L 88.83684 287.441951 
L 88.547203 287.441951 
L 88.423073 286.870204 
L 88.133435 286.870204 
L 88.009305 285.726709 
L 87.967928 285.726709 
L 87.843798 285.154962 
L 87.719668 285.154962 
L 87.595537 284.583214 
L 87.3059 284.583214 
L 87.18177 284.011467 
L 87.140393 284.011467 
L 87.016263 282.867972 
L 86.726625 282.867972 
L 86.602495 281.724478 
L 86.395611 281.724478 
L 86.271481 281.15273 
L 85.981844 281.15273 
L 85.857713 280.580983 
L 83.913006 280.580983 
L 83.747498 279.437488 
L 83.499238 279.437488 
L 83.375108 278.865741 
L 83.08547 278.865741 
L 82.919963 277.722246 
L 82.588949 277.722246 
L 82.464819 277.150499 
L 82.175181 277.150499 
L 82.009674 276.007004 
L 81.67866 276.007004 
L 81.55453 275.435257 
L 81.264893 275.435257 
L 81.140762 274.86351 
L 80.851125 274.86351 
L 80.726995 274.291762 
L 79.320185 274.291762 
L 79.196055 273.720015 
L 78.906417 273.720015 
L 78.782287 273.148268 
L 78.575403 273.148268 
L 78.451273 272.57652 
L 78.203012 272.57652 
L 78.037505 271.433026 
L 77.747868 271.433026 
L 77.623738 270.861278 
L 77.3341 270.861278 
L 77.20997 270.289531 
L 77.044463 270.289531 
L 76.878956 269.146036 
L 76.837579 269.146036 
L 76.713449 268.574289 
L 76.630695 268.574289 
L 76.506565 268.002542 
L 76.423811 268.002542 
L 76.299681 267.430795 
L 76.092797 267.430795 
L 75.92729 266.2873 
L 75.67903 266.2873 
L 75.554899 265.715553 
L 75.265262 265.715553 
L 75.141132 265.143805 
L 74.851494 265.143805 
L 74.727364 264.572058 
L 74.437727 264.572058 
L 74.313597 264.000311 
L 74.023959 264.000311 
L 73.899829 263.428563 
L 73.196424 263.428563 
L 73.072294 262.856816 
L 71.955121 262.856816 
L 71.830991 262.285069 
L 71.58273 262.285069 
L 71.417223 261.141574 
L 71.168963 261.141574 
L 71.003455 259.998079 
L 70.713818 259.998079 
L 70.589688 259.426332 
L 70.341427 259.426332 
L 70.217297 258.854585 
L 69.638022 258.854585 
L 69.513892 258.282837 
L 67.031286 258.282837 
L 66.865779 257.139343 
L 65.996867 257.139343 
L 65.872737 256.567595 
L 65.5831 256.567595 
L 65.458969 255.995848 
L 65.169332 255.995848 
L 65.003825 254.852353 
L 64.755564 254.852353 
L 64.631434 254.280606 
L 64.341797 254.280606 
L 64.217666 253.708859 
L 64.17629 253.708859 
L 64.010783 252.565364 
L 63.928029 252.565364 
L 63.803899 251.993617 
L 63.514261 251.993617 
L 63.514261 251.993617 
" clip-path="url(#pf2d4d5d48c)" style="fill: none; stroke-dasharray: 7.4,3.2; stroke-dashoffset: 0; stroke: #8b0000; stroke-width: 2"/>
   </g>
   <g id="patch_3">
    <path d="M 46.965625 386.44 
L 46.965625 7.2 
" style="fill: none; stroke: #000000; stroke-width: 0.8; stroke-linejoin: miter; stroke-linecap: square"/>
   </g>
   <g id="patch_4">
    <path d="M 411.035625 386.44 
L 411.035625 7.2 
" style="fill: none; stroke: #000000; stroke-width: 0.8; stroke-linejoin: miter; stroke-linecap: square"/>
   </g>
   <g id="patch_5">
    <path d="M 46.965625 386.44 
L 411.035625 386.44 
" style="fill: none; stroke: #000000; stroke-width: 0.8; stroke-linejoin: miter; stroke-linecap: square"/>
   </g>
   <g id="patch_6">
    <path d="M 46.965625 7.2 
L 411.035625 7.2 
" style="fill: none; stroke: #000000; stroke-width: 0.8; stroke-linejoin: miter; stroke-linecap: square"/>
   </g>
   <g id="legend_1">
    <g id="patch_7">
     <path d="M 418.035625 59.234375 
L 558.680938 59.234375 
Q 560.680938 59.234375 560.680938 57.234375 
L 560.680938 14.2 
Q 560.680938 12.2 558.680938 12.2 
L 418.035625 12.2 
Q 416.035625 12.2 416.035625 14.2 
L 416.035625 57.234375 
Q 416.035625 59.234375 418.035625 59.234375 
z
" style="fill: #ffffff; opacity: 0.8; stroke: #cccccc; stroke-linejoin: miter"/>
    </g>
    <g id="text_19">
     <!-- Motifs &amp; orientation -->
     <g transform="translate(438.842656 23.798437) scale(0.1 -0.1)">
      <defs>
       <path id="DejaVuSans-4d" d="M 628 4666 
L 1569 4666 
L 2759 1491 
L 3956 4666 
L 4897 4666 
L 4897 0 
L 4281 0 
L 4281 4097 
L 3078 897 
L 2444 897 
L 1241 4097 
L 1241 0 
L 628 0 
L 628 4666 
z
" transform="scale(0.015625)"/>
       <path id="DejaVuSans-26" d="M 1556 2509 
Q 1272 2256 1139 2004 
Q 1006 1753 1006 1478 
Q 1006 1022 1337 719 
Q 1669 416 2169 416 
Q 2466 416 2725 514 
Q 2984 613 3213 813 
L 1556 2509 
z
M 1997 2859 
L 3584 1234 
Q 3769 1513 3872 1830 
Q 3975 2147 3994 2503 
L 4575 2503 
Q 4538 2091 4375 1687 
Q 4213 1284 3922 891 
L 4794 0 
L 4006 0 
L 3559 459 
Q 3234 181 2878 45 
Q 2522 -91 2113 -91 
Q 1359 -91 881 339 
Q 403 769 403 1441 
Q 403 1841 612 2192 
Q 822 2544 1241 2853 
Q 1091 3050 1012 3245 
Q 934 3441 934 3628 
Q 934 4134 1281 4442 
Q 1628 4750 2203 4750 
Q 2463 4750 2720 4694 
Q 2978 4638 3244 4525 
L 3244 3956 
Q 2972 4103 2725 4179 
Q 2478 4256 2266 4256 
Q 1938 4256 1733 4082 
Q 1528 3909 1528 3634 
Q 1528 3475 1620 3314 
Q 1713 3153 1997 2859 
z
" transform="scale(0.015625)"/>
      </defs>
      <use xlink:href="#DejaVuSans-4d"/>
      <use xlink:href="#DejaVuSans-6f" transform="translate(86.279297 0)"/>
      <use xlink:href="#DejaVuSans-74" transform="translate(147.460938 0)"/>
      <use xlink:href="#DejaVuSans-69" transform="translate(186.669922 0)"/>
      <use xlink:href="#DejaVuSans-66" transform="translate(214.453125 0)"/>
      <use xlink:href="#DejaVuSans-73" transform="translate(249.658203 0)"/>
      <use xlink:href="#DejaVuSans-20" transform="translate(301.757812 0)"/>
      <use xlink:href="#DejaVuSans-26" transform="translate(333.544922 0)"/>
      <use xlink:href="#DejaVuSans-20" transform="translate(411.523438 0)"/>
      <use xlink:href="#DejaVuSans-6f" transform="translate(443.310547 0)"/>
      <use xlink:href="#DejaVuSans-72" transform="translate(504.492188 0)"/>
      <use xlink:href="#DejaVuSans-69" transform="translate(545.605469 0)"/>
      <use xlink:href="#DejaVuSans-65" transform="translate(573.388672 0)"/>
      <use xlink:href="#DejaVuSans-6e" transform="translate(634.912109 0)"/>
      <use xlink:href="#DejaVuSans-74" transform="translate(698.291016 0)"/>
      <use xlink:href="#DejaVuSans-61" transform="translate(737.5 0)"/>
      <use xlink:href="#DejaVuSans-74" transform="translate(798.779297 0)"/>
      <use xlink:href="#DejaVuSans-69" transform="translate(837.988281 0)"/>
      <use xlink:href="#DejaVuSans-6f" transform="translate(865.771484 0)"/>
      <use xlink:href="#DejaVuSans-6e" transform="translate(926.953125 0)"/>
     </g>
    </g>
    <g id="line2d_35">
     <path d="M 420.035625 34.976562 
L 430.035625 34.976562 
L 440.035625 34.976562 
" style="fill: none; stroke-dasharray: 7.4,3.2; stroke-dashoffset: 0; stroke: #fa8072; stroke-width: 2"/>
    </g>
    <g id="text_20">
     <!-- TTAGTTTGGG (3' end) -->
     <g transform="translate(448.035625 38.476562) scale(0.1 -0.1)">
      <defs>
       <path id="DejaVuSans-54" d="M -19 4666 
L 3928 4666 
L 3928 4134 
L 2272 4134 
L 2272 0 
L 1638 0 
L 1638 4134 
L -19 4134 
L -19 4666 
z
" transform="scale(0.015625)"/>
       <path id="DejaVuSans-47" d="M 3809 666 
L 3809 1919 
L 2778 1919 
L 2778 2438 
L 4434 2438 
L 4434 434 
Q 4069 175 3628 42 
Q 3188 -91 2688 -91 
Q 1594 -91 976 548 
Q 359 1188 359 2328 
Q 359 3472 976 4111 
Q 1594 4750 2688 4750 
Q 3144 4750 3555 4637 
Q 3966 4525 4313 4306 
L 4313 3634 
Q 3963 3931 3569 4081 
Q 3175 4231 2741 4231 
Q 1884 4231 1454 3753 
Q 1025 3275 1025 2328 
Q 1025 1384 1454 906 
Q 1884 428 2741 428 
Q 3075 428 3337 486 
Q 3600 544 3809 666 
z
" transform="scale(0.015625)"/>
       <path id="DejaVuSans-28" d="M 1984 4856 
Q 1566 4138 1362 3434 
Q 1159 2731 1159 2009 
Q 1159 1288 1364 580 
Q 1569 -128 1984 -844 
L 1484 -844 
Q 1016 -109 783 600 
Q 550 1309 550 2009 
Q 550 2706 781 3412 
Q 1013 4119 1484 4856 
L 1984 4856 
z
" transform="scale(0.015625)"/>
       <path id="DejaVuSans-27" d="M 1147 4666 
L 1147 2931 
L 616 2931 
L 616 4666 
L 1147 4666 
z
" transform="scale(0.015625)"/>
       <path id="DejaVuSans-64" d="M 2906 2969 
L 2906 4863 
L 3481 4863 
L 3481 0 
L 2906 0 
L 2906 525 
Q 2725 213 2448 61 
Q 2172 -91 1784 -91 
Q 1150 -91 751 415 
Q 353 922 353 1747 
Q 353 2572 751 3078 
Q 1150 3584 1784 3584 
Q 2172 3584 2448 3432 
Q 2725 3281 2906 2969 
z
M 947 1747 
Q 947 1113 1208 752 
Q 1469 391 1925 391 
Q 2381 391 2643 752 
Q 2906 1113 2906 1747 
Q 2906 2381 2643 2742 
Q 2381 3103 1925 3103 
Q 1469 3103 1208 2742 
Q 947 2381 947 1747 
z
" transform="scale(0.015625)"/>
       <path id="DejaVuSans-29" d="M 513 4856 
L 1013 4856 
Q 1481 4119 1714 3412 
Q 1947 2706 1947 2009 
Q 1947 1309 1714 600 
Q 1481 -109 1013 -844 
L 513 -844 
Q 928 -128 1133 580 
Q 1338 1288 1338 2009 
Q 1338 2731 1133 3434 
Q 928 4138 513 4856 
z
" transform="scale(0.015625)"/>
      </defs>
      <use xlink:href="#DejaVuSans-54"/>
      <use xlink:href="#DejaVuSans-54" transform="translate(59.333984 0)"/>
      <use xlink:href="#DejaVuSans-41" transform="translate(112.667969 0)"/>
      <use xlink:href="#DejaVuSans-47" transform="translate(179.326172 0)"/>
      <use xlink:href="#DejaVuSans-54" transform="translate(253.191406 0)"/>
      <use xlink:href="#DejaVuSans-54" transform="translate(312.525391 0)"/>
      <use xlink:href="#DejaVuSans-54" transform="translate(371.859375 0)"/>
      <use xlink:href="#DejaVuSans-47" transform="translate(432.943359 0)"/>
      <use xlink:href="#DejaVuSans-47" transform="translate(510.433594 0)"/>
      <use xlink:href="#DejaVuSans-47" transform="translate(587.923828 0)"/>
      <use xlink:href="#DejaVuSans-20" transform="translate(665.414062 0)"/>
      <use xlink:href="#DejaVuSans-28" transform="translate(697.201172 0)"/>
      <use xlink:href="#DejaVuSans-33" transform="translate(736.214844 0)"/>
      <use xlink:href="#DejaVuSans-27" transform="translate(799.837891 0)"/>
      <use xlink:href="#DejaVuSans-20" transform="translate(827.328125 0)"/>
      <use xlink:href="#DejaVuSans-65" transform="translate(859.115234 0)"/>
      <use xlink:href="#DejaVuSans-6e" transform="translate(920.638672 0)"/>
      <use xlink:href="#DejaVuSans-64" transform="translate(984.017578 0)"/>
      <use xlink:href="#DejaVuSans-29" transform="translate(1047.494141 0)"/>
     </g>
    </g>
    <g id="line2d_36">
     <path d="M 420.035625 49.654687 
L 430.035625 49.654687 
L 440.035625 49.654687 
" style="fill: none; stroke-dasharray: 7.4,3.2; stroke-dashoffset: 0; stroke: #8b0000; stroke-width: 2"/>
    </g>
    <g id="text_21">
     <!-- TTAGTTTAGG (3' end) -->
     <g transform="translate(448.035625 53.154687) scale(0.1 -0.1)">
      <use xlink:href="#DejaVuSans-54"/>
      <use xlink:href="#DejaVuSans-54" transform="translate(59.333984 0)"/>
      <use xlink:href="#DejaVuSans-41" transform="translate(112.667969 0)"/>
      <use xlink:href="#DejaVuSans-47" transform="translate(179.326172 0)"/>
      <use xlink:href="#DejaVuSans-54" transform="translate(253.191406 0)"/>
      <use xlink:href="#DejaVuSans-54" transform="translate(312.525391 0)"/>
      <use xlink:href="#DejaVuSans-54" transform="translate(371.859375 0)"/>
      <use xlink:href="#DejaVuSans-41" transform="translate(425.193359 0)"/>
      <use xlink:href="#DejaVuSans-47" transform="translate(491.851562 0)"/>
      <use xlink:href="#DejaVuSans-47" transform="translate(569.341797 0)"/>
      <use xlink:href="#DejaVuSans-20" transform="translate(646.832031 0)"/>
      <use xlink:href="#DejaVuSans-28" transform="translate(678.619141 0)"/>
      <use xlink:href="#DejaVuSans-33" transform="translate(717.632812 0)"/>
      <use xlink:href="#DejaVuSans-27" transform="translate(781.255859 0)"/>
      <use xlink:href="#DejaVuSans-20" transform="translate(808.746094 0)"/>
      <use xlink:href="#DejaVuSans-65" transform="translate(840.533203 0)"/>
      <use xlink:href="#DejaVuSans-6e" transform="translate(902.056641 0)"/>
      <use xlink:href="#DejaVuSans-64" transform="translate(965.435547 0)"/>
      <use xlink:href="#DejaVuSans-29" transform="translate(1028.912109 0)"/>
     </g>
    </g>
   </g>
  </g>
 </g>
 <defs>
  <clipPath id="pf2d4d5d48c">
   <rect x="46.965625" y="7.2" width="364.07" height="379.24"/>
  </clipPath>
 </defs>
</svg>
