<?xml version="1.0" encoding="utf-8" standalone="no"?>
<!DOCTYPE svg PUBLIC "-//W3C//DTD SVG 1.1//EN"
  "http://www.w3.org/Graphics/SVG/1.1/DTD/svg11.dtd">
<svg xmlns:xlink="http://www.w3.org/1999/xlink" width="568.105938pt" height="423.99625pt" viewBox="0 0 568.105938 423.99625" xmlns="http://www.w3.org/2000/svg" version="1.1">
 <metadata>
  <rdf:RDF xmlns:dc="http://purl.org/dc/elements/1.1/" xmlns:cc="http://creativecommons.org/ns#" xmlns:rdf="http://www.w3.org/1999/02/22-rdf-syntax-ns#">
   <cc:Work>
    <dc:type rdf:resource="http://purl.org/dc/dcmitype/StillImage"/>
    <dc:date>2026-04-28T13:58:20.214063</dc:date>
    <dc:format>image/svg+xml</dc:format>
    <dc:creator>
     <cc:Agent>
      <dc:title>Matplotlib v3.10.6, https://matplotlib.org/</dc:title>
     </cc:Agent>
    </dc:creator>
   </cc:Work>
  </rdf:RDF>
 </metadata>
 <defs>
  <style type="text/css">*{stroke-linejoin: round; stroke-linecap: butt}</style>
 </defs>
 <g id="figure_1">
  <g id="patch_1">
   <path d="M 0 423.99625 
L 568.105938 423.99625 
L 568.105938 0 
L 0 0 
z
" style="fill: #ffffff"/>
  </g>
  <g id="axes_1">
   <g id="patch_2">
    <path d="M 46.965625 386.44 
L 429.035625 386.44 
L 429.035625 7.2 
L 46.965625 7.2 
z
" style="fill: #ffffff"/>
   </g>
   <g id="matplotlib.axis_1">
    <g id="xtick_1">
     <g id="line2d_1">
      <path d="M 64.332443 386.44 
L 64.332443 7.2 
" clip-path="url(#pae2bb3ac4d)" style="fill: none; stroke-dasharray: 2.96,1.28; stroke-dashoffset: 0; stroke: #b0b0b0; stroke-opacity: 0.6; stroke-width: 0.8"/>
     </g>
     <g id="line2d_2">
      <defs>
       <path id="mfab5c67748" d="M 0 0 
L 0 3.5 
" style="stroke: #000000; stroke-width: 0.8"/>
      </defs>
      <g>
       <use xlink:href="#mfab5c67748" x="64.332443" y="386.44" style="stroke: #000000; stroke-width: 0.8"/>
      </g>
     </g>
     <g id="text_1">
      <!-- 0 -->
      <g transform="translate(61.151193 401.038437) scale(0.1 -0.1)">
       <defs>
        <path id="DejaVuSans-30" d="M 2034 4250 
Q 1547 4250 1301 3770 
Q 1056 3291 1056 2328 
Q 1056 1369 1301 889 
Q 1547 409 2034 409 
Q 2525 409 2770 889 
Q 3016 1369 3016 2328 
Q 3016 3291 2770 3770 
Q 2525 4250 2034 4250 
z
M 2034 4750 
Q 2819 4750 3233 4129 
Q 3647 3509 3647 2328 
Q 3647 1150 3233 529 
Q 2819 -91 2034 -91 
Q 1250 -91 836 529 
Q 422 1150 422 2328 
Q 422 3509 836 4129 
Q 1250 4750 2034 4750 
z
" transform="scale(0.015625)"/>
       </defs>
       <use xlink:href="#DejaVuSans-30"/>
      </g>
     </g>
    </g>
    <g id="xtick_2">
     <g id="line2d_3">
      <path d="M 107.749489 386.44 
L 107.749489 7.2 
" clip-path="url(#pae2bb3ac4d)" style="fill: none; stroke-dasharray: 2.96,1.28; stroke-dashoffset: 0; stroke: #b0b0b0; stroke-opacity: 0.6; stroke-width: 0.8"/>
     </g>
     <g id="line2d_4">
      <g>
       <use xlink:href="#mfab5c67748" x="107.749489" y="386.44" style="stroke: #000000; stroke-width: 0.8"/>
      </g>
     </g>
     <g id="text_2">
      <!-- 25000 -->
      <g transform="translate(91.843239 401.038437) scale(0.1 -0.1)">
       <defs>
        <path id="DejaVuSans-32" d="M 1228 531 
L 3431 531 
L 3431 0 
L 469 0 
L 469 531 
Q 828 903 1448 1529 
Q 2069 2156 2228 2338 
Q 2531 2678 2651 2914 
Q 2772 3150 2772 3378 
Q 2772 3750 2511 3984 
Q 2250 4219 1831 4219 
Q 1534 4219 1204 4116 
Q 875 4013 500 3803 
L 500 4441 
Q 881 4594 1212 4672 
Q 1544 4750 1819 4750 
Q 2544 4750 2975 4387 
Q 3406 4025 3406 3419 
Q 3406 3131 3298 2873 
Q 3191 2616 2906 2266 
Q 2828 2175 2409 1742 
Q 1991 1309 1228 531 
z
" transform="scale(0.015625)"/>
        <path id="DejaVuSans-35" d="M 691 4666 
L 3169 4666 
L 3169 4134 
L 1269 4134 
L 1269 2991 
Q 1406 3038 1543 3061 
Q 1681 3084 1819 3084 
Q 2600 3084 3056 2656 
Q 3513 2228 3513 1497 
Q 3513 744 3044 326 
Q 2575 -91 1722 -91 
Q 1428 -91 1123 -41 
Q 819 9 494 109 
L 494 744 
Q 775 591 1075 516 
Q 1375 441 1709 441 
Q 2250 441 2565 725 
Q 2881 1009 2881 1497 
Q 2881 1984 2565 2268 
Q 2250 2553 1709 2553 
Q 1456 2553 1204 2497 
Q 953 2441 691 2322 
L 691 4666 
z
" transform="scale(0.015625)"/>
       </defs>
       <use xlink:href="#DejaVuSans-32"/>
       <use xlink:href="#DejaVuSans-35" transform="translate(63.623047 0)"/>
       <use xlink:href="#DejaVuSans-30" transform="translate(127.246094 0)"/>
       <use xlink:href="#DejaVuSans-30" transform="translate(190.869141 0)"/>
       <use xlink:href="#DejaVuSans-30" transform="translate(254.492188 0)"/>
      </g>
     </g>
    </g>
    <g id="xtick_3">
     <g id="line2d_5">
      <path d="M 151.166534 386.44 
L 151.166534 7.2 
" clip-path="url(#pae2bb3ac4d)" style="fill: none; stroke-dasharray: 2.96,1.28; stroke-dashoffset: 0; stroke: #b0b0b0; stroke-opacity: 0.6; stroke-width: 0.8"/>
     </g>
     <g id="line2d_6">
      <g>
       <use xlink:href="#mfab5c67748" x="151.166534" y="386.44" style="stroke: #000000; stroke-width: 0.8"/>
      </g>
     </g>
     <g id="text_3">
      <!-- 50000 -->
      <g transform="translate(135.260284 401.038437) scale(0.1 -0.1)">
       <use xlink:href="#DejaVuSans-35"/>
       <use xlink:href="#DejaVuSans-30" transform="translate(63.623047 0)"/>
       <use xlink:href="#DejaVuSans-30" transform="translate(127.246094 0)"/>
       <use xlink:href="#DejaVuSans-30" transform="translate(190.869141 0)"/>
       <use xlink:href="#DejaVuSans-30" transform="translate(254.492188 0)"/>
      </g>
     </g>
    </g>
    <g id="xtick_4">
     <g id="line2d_7">
      <path d="M 194.58358 386.44 
L 194.58358 7.2 
" clip-path="url(#pae2bb3ac4d)" style="fill: none; stroke-dasharray: 2.96,1.28; stroke-dashoffset: 0; stroke: #b0b0b0; stroke-opacity: 0.6; stroke-width: 0.8"/>
     </g>
     <g id="line2d_8">
      <g>
       <use xlink:href="#mfab5c67748" x="194.58358" y="386.44" style="stroke: #000000; stroke-width: 0.8"/>
      </g>
     </g>
     <g id="text_4">
      <!-- 75000 -->
      <g transform="translate(178.67733 401.038437) scale(0.1 -0.1)">
       <defs>
        <path id="DejaVuSans-37" d="M 525 4666 
L 3525 4666 
L 3525 4397 
L 1831 0 
L 1172 0 
L 2766 4134 
L 525 4134 
L 525 4666 
z
" transform="scale(0.015625)"/>
       </defs>
       <use xlink:href="#DejaVuSans-37"/>
       <use xlink:href="#DejaVuSans-35" transform="translate(63.623047 0)"/>
       <use xlink:href="#DejaVuSans-30" transform="translate(127.246094 0)"/>
       <use xlink:href="#DejaVuSans-30" transform="translate(190.869141 0)"/>
       <use xlink:href="#DejaVuSans-30" transform="translate(254.492188 0)"/>
      </g>
     </g>
    </g>
    <g id="xtick_5">
     <g id="line2d_9">
      <path d="M 238.000625 386.44 
L 238.000625 7.2 
" clip-path="url(#pae2bb3ac4d)" style="fill: none; stroke-dasharray: 2.96,1.28; stroke-dashoffset: 0; stroke: #b0b0b0; stroke-opacity: 0.6; stroke-width: 0.8"/>
     </g>
     <g id="line2d_10">
      <g>
       <use xlink:href="#mfab5c67748" x="238.000625" y="386.44" style="stroke: #000000; stroke-width: 0.8"/>
      </g>
     </g>
     <g id="text_5">
      <!-- 100000 -->
      <g transform="translate(218.913125 401.038437) scale(0.1 -0.1)">
       <defs>
        <path id="DejaVuSans-31" d="M 794 531 
L 1825 531 
L 1825 4091 
L 703 3866 
L 703 4441 
L 1819 4666 
L 2450 4666 
L 2450 531 
L 3481 531 
L 3481 0 
L 794 0 
L 794 531 
z
" transform="scale(0.015625)"/>
       </defs>
       <use xlink:href="#DejaVuSans-31"/>
       <use xlink:href="#DejaVuSans-30" transform="translate(63.623047 0)"/>
       <use xlink:href="#DejaVuSans-30" transform="translate(127.246094 0)"/>
       <use xlink:href="#DejaVuSans-30" transform="translate(190.869141 0)"/>
       <use xlink:href="#DejaVuSans-30" transform="translate(254.492188 0)"/>
       <use xlink:href="#DejaVuSans-30" transform="translate(318.115234 0)"/>
      </g>
     </g>
    </g>
    <g id="xtick_6">
     <g id="line2d_11">
      <path d="M 281.41767 386.44 
L 281.41767 7.2 
" clip-path="url(#pae2bb3ac4d)" style="fill: none; stroke-dasharray: 2.96,1.28; stroke-dashoffset: 0; stroke: #b0b0b0; stroke-opacity: 0.6; stroke-width: 0.8"/>
     </g>
     <g id="line2d_12">
      <g>
       <use xlink:href="#mfab5c67748" x="281.41767" y="386.44" style="stroke: #000000; stroke-width: 0.8"/>
      </g>
     </g>
     <g id="text_6">
      <!-- 125000 -->
      <g transform="translate(262.33017 401.038437) scale(0.1 -0.1)">
       <use xlink:href="#DejaVuSans-31"/>
       <use xlink:href="#DejaVuSans-32" transform="translate(63.623047 0)"/>
       <use xlink:href="#DejaVuSans-35" transform="translate(127.246094 0)"/>
       <use xlink:href="#DejaVuSans-30" transform="translate(190.869141 0)"/>
       <use xlink:href="#DejaVuSans-30" transform="translate(254.492188 0)"/>
       <use xlink:href="#DejaVuSans-30" transform="translate(318.115234 0)"/>
      </g>
     </g>
    </g>
    <g id="xtick_7">
     <g id="line2d_13">
      <path d="M 324.834716 386.44 
L 324.834716 7.2 
" clip-path="url(#pae2bb3ac4d)" style="fill: none; stroke-dasharray: 2.96,1.28; stroke-dashoffset: 0; stroke: #b0b0b0; stroke-opacity: 0.6; stroke-width: 0.8"/>
     </g>
     <g id="line2d_14">
      <g>
       <use xlink:href="#mfab5c67748" x="324.834716" y="386.44" style="stroke: #000000; stroke-width: 0.8"/>
      </g>
     </g>
     <g id="text_7">
      <!-- 150000 -->
      <g transform="translate(305.747216 401.038437) scale(0.1 -0.1)">
       <use xlink:href="#DejaVuSans-31"/>
       <use xlink:href="#DejaVuSans-35" transform="translate(63.623047 0)"/>
       <use xlink:href="#DejaVuSans-30" transform="translate(127.246094 0)"/>
       <use xlink:href="#DejaVuSans-30" transform="translate(190.869141 0)"/>
       <use xlink:href="#DejaVuSans-30" transform="translate(254.492188 0)"/>
       <use xlink:href="#DejaVuSans-30" transform="translate(318.115234 0)"/>
      </g>
     </g>
    </g>
    <g id="xtick_8">
     <g id="line2d_15">
      <path d="M 368.251761 386.44 
L 368.251761 7.2 
" clip-path="url(#pae2bb3ac4d)" style="fill: none; stroke-dasharray: 2.96,1.28; stroke-dashoffset: 0; stroke: #b0b0b0; stroke-opacity: 0.6; stroke-width: 0.8"/>
     </g>
     <g id="line2d_16">
      <g>
       <use xlink:href="#mfab5c67748" x="368.251761" y="386.44" style="stroke: #000000; stroke-width: 0.8"/>
      </g>
     </g>
     <g id="text_8">
      <!-- 175000 -->
      <g transform="translate(349.164261 401.038437) scale(0.1 -0.1)">
       <use xlink:href="#DejaVuSans-31"/>
       <use xlink:href="#DejaVuSans-37" transform="translate(63.623047 0)"/>
       <use xlink:href="#DejaVuSans-35" transform="translate(127.246094 0)"/>
       <use xlink:href="#DejaVuSans-30" transform="translate(190.869141 0)"/>
       <use xlink:href="#DejaVuSans-30" transform="translate(254.492188 0)"/>
       <use xlink:href="#DejaVuSans-30" transform="translate(318.115234 0)"/>
      </g>
     </g>
    </g>
    <g id="xtick_9">
     <g id="line2d_17">
      <path d="M 411.668807 386.44 
L 411.668807 7.2 
" clip-path="url(#pae2bb3ac4d)" style="fill: none; stroke-dasharray: 2.96,1.28; stroke-dashoffset: 0; stroke: #b0b0b0; stroke-opacity: 0.6; stroke-width: 0.8"/>
     </g>
     <g id="line2d_18">
      <g>
       <use xlink:href="#mfab5c67748" x="411.668807" y="386.44" style="stroke: #000000; stroke-width: 0.8"/>
      </g>
     </g>
     <g id="text_9">
      <!-- 200000 -->
      <g transform="translate(392.581307 401.038437) scale(0.1 -0.1)">
       <use xlink:href="#DejaVuSans-32"/>
       <use xlink:href="#DejaVuSans-30" transform="translate(63.623047 0)"/>
       <use xlink:href="#DejaVuSans-30" transform="translate(127.246094 0)"/>
       <use xlink:href="#DejaVuSans-30" transform="translate(190.869141 0)"/>
       <use xlink:href="#DejaVuSans-30" transform="translate(254.492188 0)"/>
       <use xlink:href="#DejaVuSans-30" transform="translate(318.115234 0)"/>
      </g>
     </g>
    </g>
    <g id="text_10">
     <!-- Distance from terminus [nt] -->
     <g transform="translate(168.501406 414.716562) scale(0.1 -0.1)">
      <defs>
       <path id="DejaVuSans-44" d="M 1259 4147 
L 1259 519 
L 2022 519 
Q 2988 519 3436 956 
Q 3884 1394 3884 2338 
Q 3884 3275 3436 3711 
Q 2988 4147 2022 4147 
L 1259 4147 
z
M 628 4666 
L 1925 4666 
Q 3281 4666 3915 4102 
Q 4550 3538 4550 2338 
Q 4550 1131 3912 565 
Q 3275 0 1925 0 
L 628 0 
L 628 4666 
z
" transform="scale(0.015625)"/>
       <path id="DejaVuSans-69" d="M 603 3500 
L 1178 3500 
L 1178 0 
L 603 0 
L 603 3500 
z
M 603 4863 
L 1178 4863 
L 1178 4134 
L 603 4134 
L 603 4863 
z
" transform="scale(0.015625)"/>
       <path id="DejaVuSans-73" d="M 2834 3397 
L 2834 2853 
Q 2591 2978 2328 3040 
Q 2066 3103 1784 3103 
Q 1356 3103 1142 2972 
Q 928 2841 928 2578 
Q 928 2378 1081 2264 
Q 1234 2150 1697 2047 
L 1894 2003 
Q 2506 1872 2764 1633 
Q 3022 1394 3022 966 
Q 3022 478 2636 193 
Q 2250 -91 1575 -91 
Q 1294 -91 989 -36 
Q 684 19 347 128 
L 347 722 
Q 666 556 975 473 
Q 1284 391 1588 391 
Q 1994 391 2212 530 
Q 2431 669 2431 922 
Q 2431 1156 2273 1281 
Q 2116 1406 1581 1522 
L 1381 1569 
Q 847 1681 609 1914 
Q 372 2147 372 2553 
Q 372 3047 722 3315 
Q 1072 3584 1716 3584 
Q 2034 3584 2315 3537 
Q 2597 3491 2834 3397 
z
" transform="scale(0.015625)"/>
       <path id="DejaVuSans-74" d="M 1172 4494 
L 1172 3500 
L 2356 3500 
L 2356 3053 
L 1172 3053 
L 1172 1153 
Q 1172 725 1289 603 
Q 1406 481 1766 481 
L 2356 481 
L 2356 0 
L 1766 0 
Q 1100 0 847 248 
Q 594 497 594 1153 
L 594 3053 
L 172 3053 
L 172 3500 
L 594 3500 
L 594 4494 
L 1172 4494 
z
" transform="scale(0.015625)"/>
       <path id="DejaVuSans-61" d="M 2194 1759 
Q 1497 1759 1228 1600 
Q 959 1441 959 1056 
Q 959 750 1161 570 
Q 1363 391 1709 391 
Q 2188 391 2477 730 
Q 2766 1069 2766 1631 
L 2766 1759 
L 2194 1759 
z
M 3341 1997 
L 3341 0 
L 2766 0 
L 2766 531 
Q 2569 213 2275 61 
Q 1981 -91 1556 -91 
Q 1019 -91 701 211 
Q 384 513 384 1019 
Q 384 1609 779 1909 
Q 1175 2209 1959 2209 
L 2766 2209 
L 2766 2266 
Q 2766 2663 2505 2880 
Q 2244 3097 1772 3097 
Q 1472 3097 1187 3025 
Q 903 2953 641 2809 
L 641 3341 
Q 956 3463 1253 3523 
Q 1550 3584 1831 3584 
Q 2591 3584 2966 3190 
Q 3341 2797 3341 1997 
z
" transform="scale(0.015625)"/>
       <path id="DejaVuSans-6e" d="M 3513 2113 
L 3513 0 
L 2938 0 
L 2938 2094 
Q 2938 2591 2744 2837 
Q 2550 3084 2163 3084 
Q 1697 3084 1428 2787 
Q 1159 2491 1159 1978 
L 1159 0 
L 581 0 
L 581 3500 
L 1159 3500 
L 1159 2956 
Q 1366 3272 1645 3428 
Q 1925 3584 2291 3584 
Q 2894 3584 3203 3211 
Q 3513 2838 3513 2113 
z
" transform="scale(0.015625)"/>
       <path id="DejaVuSans-63" d="M 3122 3366 
L 3122 2828 
Q 2878 2963 2633 3030 
Q 2388 3097 2138 3097 
Q 1578 3097 1268 2742 
Q 959 2388 959 1747 
Q 959 1106 1268 751 
Q 1578 397 2138 397 
Q 2388 397 2633 464 
Q 2878 531 3122 666 
L 3122 134 
Q 2881 22 2623 -34 
Q 2366 -91 2075 -91 
Q 1284 -91 818 406 
Q 353 903 353 1747 
Q 353 2603 823 3093 
Q 1294 3584 2113 3584 
Q 2378 3584 2631 3529 
Q 2884 3475 3122 3366 
z
" transform="scale(0.015625)"/>
       <path id="DejaVuSans-65" d="M 3597 1894 
L 3597 1613 
L 953 1613 
Q 991 1019 1311 708 
Q 1631 397 2203 397 
Q 2534 397 2845 478 
Q 3156 559 3463 722 
L 3463 178 
Q 3153 47 2828 -22 
Q 2503 -91 2169 -91 
Q 1331 -91 842 396 
Q 353 884 353 1716 
Q 353 2575 817 3079 
Q 1281 3584 2069 3584 
Q 2775 3584 3186 3129 
Q 3597 2675 3597 1894 
z
M 3022 2063 
Q 3016 2534 2758 2815 
Q 2500 3097 2075 3097 
Q 1594 3097 1305 2825 
Q 1016 2553 972 2059 
L 3022 2063 
z
" transform="scale(0.015625)"/>
       <path id="DejaVuSans-20" transform="scale(0.015625)"/>
       <path id="DejaVuSans-66" d="M 2375 4863 
L 2375 4384 
L 1825 4384 
Q 1516 4384 1395 4259 
Q 1275 4134 1275 3809 
L 1275 3500 
L 2222 3500 
L 2222 3053 
L 1275 3053 
L 1275 0 
L 697 0 
L 697 3053 
L 147 3053 
L 147 3500 
L 697 3500 
L 697 3744 
Q 697 4328 969 4595 
Q 1241 4863 1831 4863 
L 2375 4863 
z
" transform="scale(0.015625)"/>
       <path id="DejaVuSans-72" d="M 2631 2963 
Q 2534 3019 2420 3045 
Q 2306 3072 2169 3072 
Q 1681 3072 1420 2755 
Q 1159 2438 1159 1844 
L 1159 0 
L 581 0 
L 581 3500 
L 1159 3500 
L 1159 2956 
Q 1341 3275 1631 3429 
Q 1922 3584 2338 3584 
Q 2397 3584 2469 3576 
Q 2541 3569 2628 3553 
L 2631 2963 
z
" transform="scale(0.015625)"/>
       <path id="DejaVuSans-6f" d="M 1959 3097 
Q 1497 3097 1228 2736 
Q 959 2375 959 1747 
Q 959 1119 1226 758 
Q 1494 397 1959 397 
Q 2419 397 2687 759 
Q 2956 1122 2956 1747 
Q 2956 2369 2687 2733 
Q 2419 3097 1959 3097 
z
M 1959 3584 
Q 2709 3584 3137 3096 
Q 3566 2609 3566 1747 
Q 3566 888 3137 398 
Q 2709 -91 1959 -91 
Q 1206 -91 779 398 
Q 353 888 353 1747 
Q 353 2609 779 3096 
Q 1206 3584 1959 3584 
z
" transform="scale(0.015625)"/>
       <path id="DejaVuSans-6d" d="M 3328 2828 
Q 3544 3216 3844 3400 
Q 4144 3584 4550 3584 
Q 5097 3584 5394 3201 
Q 5691 2819 5691 2113 
L 5691 0 
L 5113 0 
L 5113 2094 
Q 5113 2597 4934 2840 
Q 4756 3084 4391 3084 
Q 3944 3084 3684 2787 
Q 3425 2491 3425 1978 
L 3425 0 
L 2847 0 
L 2847 2094 
Q 2847 2600 2669 2842 
Q 2491 3084 2119 3084 
Q 1678 3084 1418 2786 
Q 1159 2488 1159 1978 
L 1159 0 
L 581 0 
L 581 3500 
L 1159 3500 
L 1159 2956 
Q 1356 3278 1631 3431 
Q 1906 3584 2284 3584 
Q 2666 3584 2933 3390 
Q 3200 3197 3328 2828 
z
" transform="scale(0.015625)"/>
       <path id="DejaVuSans-75" d="M 544 1381 
L 544 3500 
L 1119 3500 
L 1119 1403 
Q 1119 906 1312 657 
Q 1506 409 1894 409 
Q 2359 409 2629 706 
Q 2900 1003 2900 1516 
L 2900 3500 
L 3475 3500 
L 3475 0 
L 2900 0 
L 2900 538 
Q 2691 219 2414 64 
Q 2138 -91 1772 -91 
Q 1169 -91 856 284 
Q 544 659 544 1381 
z
M 1991 3584 
L 1991 3584 
z
" transform="scale(0.015625)"/>
       <path id="DejaVuSans-5b" d="M 550 4863 
L 1875 4863 
L 1875 4416 
L 1125 4416 
L 1125 -397 
L 1875 -397 
L 1875 -844 
L 550 -844 
L 550 4863 
z
" transform="scale(0.015625)"/>
       <path id="DejaVuSans-5d" d="M 1947 4863 
L 1947 -844 
L 622 -844 
L 622 -397 
L 1369 -397 
L 1369 4416 
L 622 4416 
L 622 4863 
L 1947 4863 
z
" transform="scale(0.015625)"/>
      </defs>
      <use xlink:href="#DejaVuSans-44"/>
      <use xlink:href="#DejaVuSans-69" transform="translate(77.001953 0)"/>
      <use xlink:href="#DejaVuSans-73" transform="translate(104.785156 0)"/>
      <use xlink:href="#DejaVuSans-74" transform="translate(156.884766 0)"/>
      <use xlink:href="#DejaVuSans-61" transform="translate(196.09375 0)"/>
      <use xlink:href="#DejaVuSans-6e" transform="translate(257.373047 0)"/>
      <use xlink:href="#DejaVuSans-63" transform="translate(320.751953 0)"/>
      <use xlink:href="#DejaVuSans-65" transform="translate(375.732422 0)"/>
      <use xlink:href="#DejaVuSans-20" transform="translate(437.255859 0)"/>
      <use xlink:href="#DejaVuSans-66" transform="translate(469.042969 0)"/>
      <use xlink:href="#DejaVuSans-72" transform="translate(504.248047 0)"/>
      <use xlink:href="#DejaVuSans-6f" transform="translate(543.111328 0)"/>
      <use xlink:href="#DejaVuSans-6d" transform="translate(604.292969 0)"/>
      <use xlink:href="#DejaVuSans-20" transform="translate(701.705078 0)"/>
      <use xlink:href="#DejaVuSans-74" transform="translate(733.492188 0)"/>
      <use xlink:href="#DejaVuSans-65" transform="translate(772.701172 0)"/>
      <use xlink:href="#DejaVuSans-72" transform="translate(834.224609 0)"/>
      <use xlink:href="#DejaVuSans-6d" transform="translate(873.587891 0)"/>
      <use xlink:href="#DejaVuSans-69" transform="translate(971 0)"/>
      <use xlink:href="#DejaVuSans-6e" transform="translate(998.783203 0)"/>
      <use xlink:href="#DejaVuSans-75" transform="translate(1062.162109 0)"/>
      <use xlink:href="#DejaVuSans-73" transform="translate(1125.541016 0)"/>
      <use xlink:href="#DejaVuSans-20" transform="translate(1177.640625 0)"/>
      <use xlink:href="#DejaVuSans-5b" transform="translate(1209.427734 0)"/>
      <use xlink:href="#DejaVuSans-6e" transform="translate(1248.441406 0)"/>
      <use xlink:href="#DejaVuSans-74" transform="translate(1311.820312 0)"/>
      <use xlink:href="#DejaVuSans-5d" transform="translate(1351.029297 0)"/>
     </g>
    </g>
   </g>
   <g id="matplotlib.axis_2">
    <g id="ytick_1">
     <g id="line2d_19">
      <path d="M 46.965625 369.201818 
L 429.035625 369.201818 
" clip-path="url(#pae2bb3ac4d)" style="fill: none; stroke-dasharray: 2.96,1.28; stroke-dashoffset: 0; stroke: #b0b0b0; stroke-opacity: 0.6; stroke-width: 0.8"/>
     </g>
     <g id="line2d_20">
      <defs>
       <path id="m6566683c09" d="M 0 0 
L -3.5 0 
" style="stroke: #000000; stroke-width: 0.8"/>
      </defs>
      <g>
       <use xlink:href="#m6566683c09" x="46.965625" y="369.201818" style="stroke: #000000; stroke-width: 0.8"/>
      </g>
     </g>
     <g id="text_11">
      <!-- 0 -->
      <g transform="translate(33.603125 373.001037) scale(0.1 -0.1)">
       <use xlink:href="#DejaVuSans-30"/>
      </g>
     </g>
    </g>
    <g id="ytick_2">
     <g id="line2d_21">
      <path d="M 46.965625 320.64356 
L 429.035625 320.64356 
" clip-path="url(#pae2bb3ac4d)" style="fill: none; stroke-dasharray: 2.96,1.28; stroke-dashoffset: 0; stroke: #b0b0b0; stroke-opacity: 0.6; stroke-width: 0.8"/>
     </g>
     <g id="line2d_22">
      <g>
       <use xlink:href="#m6566683c09" x="46.965625" y="320.64356" style="stroke: #000000; stroke-width: 0.8"/>
      </g>
     </g>
     <g id="text_12">
      <!-- 20 -->
      <g transform="translate(27.240625 324.442778) scale(0.1 -0.1)">
       <use xlink:href="#DejaVuSans-32"/>
       <use xlink:href="#DejaVuSans-30" transform="translate(63.623047 0)"/>
      </g>
     </g>
    </g>
    <g id="ytick_3">
     <g id="line2d_23">
      <path d="M 46.965625 272.085301 
L 429.035625 272.085301 
" clip-path="url(#pae2bb3ac4d)" style="fill: none; stroke-dasharray: 2.96,1.28; stroke-dashoffset: 0; stroke: #b0b0b0; stroke-opacity: 0.6; stroke-width: 0.8"/>
     </g>
     <g id="line2d_24">
      <g>
       <use xlink:href="#m6566683c09" x="46.965625" y="272.085301" style="stroke: #000000; stroke-width: 0.8"/>
      </g>
     </g>
     <g id="text_13">
      <!-- 40 -->
      <g transform="translate(27.240625 275.88452) scale(0.1 -0.1)">
       <defs>
        <path id="DejaVuSans-34" d="M 2419 4116 
L 825 1625 
L 2419 1625 
L 2419 4116 
z
M 2253 4666 
L 3047 4666 
L 3047 1625 
L 3713 1625 
L 3713 1100 
L 3047 1100 
L 3047 0 
L 2419 0 
L 2419 1100 
L 313 1100 
L 313 1709 
L 2253 4666 
z
" transform="scale(0.015625)"/>
       </defs>
       <use xlink:href="#DejaVuSans-34"/>
       <use xlink:href="#DejaVuSans-30" transform="translate(63.623047 0)"/>
      </g>
     </g>
    </g>
    <g id="ytick_4">
     <g id="line2d_25">
      <path d="M 46.965625 223.527042 
L 429.035625 223.527042 
" clip-path="url(#pae2bb3ac4d)" style="fill: none; stroke-dasharray: 2.96,1.28; stroke-dashoffset: 0; stroke: #b0b0b0; stroke-opacity: 0.6; stroke-width: 0.8"/>
     </g>
     <g id="line2d_26">
      <g>
       <use xlink:href="#m6566683c09" x="46.965625" y="223.527042" style="stroke: #000000; stroke-width: 0.8"/>
      </g>
     </g>
     <g id="text_14">
      <!-- 60 -->
      <g transform="translate(27.240625 227.326261) scale(0.1 -0.1)">
       <defs>
        <path id="DejaVuSans-36" d="M 2113 2584 
Q 1688 2584 1439 2293 
Q 1191 2003 1191 1497 
Q 1191 994 1439 701 
Q 1688 409 2113 409 
Q 2538 409 2786 701 
Q 3034 994 3034 1497 
Q 3034 2003 2786 2293 
Q 2538 2584 2113 2584 
z
M 3366 4563 
L 3366 3988 
Q 3128 4100 2886 4159 
Q 2644 4219 2406 4219 
Q 1781 4219 1451 3797 
Q 1122 3375 1075 2522 
Q 1259 2794 1537 2939 
Q 1816 3084 2150 3084 
Q 2853 3084 3261 2657 
Q 3669 2231 3669 1497 
Q 3669 778 3244 343 
Q 2819 -91 2113 -91 
Q 1303 -91 875 529 
Q 447 1150 447 2328 
Q 447 3434 972 4092 
Q 1497 4750 2381 4750 
Q 2619 4750 2861 4703 
Q 3103 4656 3366 4563 
z
" transform="scale(0.015625)"/>
       </defs>
       <use xlink:href="#DejaVuSans-36"/>
       <use xlink:href="#DejaVuSans-30" transform="translate(63.623047 0)"/>
      </g>
     </g>
    </g>
    <g id="ytick_5">
     <g id="line2d_27">
      <path d="M 46.965625 174.968784 
L 429.035625 174.968784 
" clip-path="url(#pae2bb3ac4d)" style="fill: none; stroke-dasharray: 2.96,1.28; stroke-dashoffset: 0; stroke: #b0b0b0; stroke-opacity: 0.6; stroke-width: 0.8"/>
     </g>
     <g id="line2d_28">
      <g>
       <use xlink:href="#m6566683c09" x="46.965625" y="174.968784" style="stroke: #000000; stroke-width: 0.8"/>
      </g>
     </g>
     <g id="text_15">
      <!-- 80 -->
      <g transform="translate(27.240625 178.768002) scale(0.1 -0.1)">
       <defs>
        <path id="DejaVuSans-38" d="M 2034 2216 
Q 1584 2216 1326 1975 
Q 1069 1734 1069 1313 
Q 1069 891 1326 650 
Q 1584 409 2034 409 
Q 2484 409 2743 651 
Q 3003 894 3003 1313 
Q 3003 1734 2745 1975 
Q 2488 2216 2034 2216 
z
M 1403 2484 
Q 997 2584 770 2862 
Q 544 3141 544 3541 
Q 544 4100 942 4425 
Q 1341 4750 2034 4750 
Q 2731 4750 3128 4425 
Q 3525 4100 3525 3541 
Q 3525 3141 3298 2862 
Q 3072 2584 2669 2484 
Q 3125 2378 3379 2068 
Q 3634 1759 3634 1313 
Q 3634 634 3220 271 
Q 2806 -91 2034 -91 
Q 1263 -91 848 271 
Q 434 634 434 1313 
Q 434 1759 690 2068 
Q 947 2378 1403 2484 
z
M 1172 3481 
Q 1172 3119 1398 2916 
Q 1625 2713 2034 2713 
Q 2441 2713 2670 2916 
Q 2900 3119 2900 3481 
Q 2900 3844 2670 4047 
Q 2441 4250 2034 4250 
Q 1625 4250 1398 4047 
Q 1172 3844 1172 3481 
z
" transform="scale(0.015625)"/>
       </defs>
       <use xlink:href="#DejaVuSans-38"/>
       <use xlink:href="#DejaVuSans-30" transform="translate(63.623047 0)"/>
      </g>
     </g>
    </g>
    <g id="ytick_6">
     <g id="line2d_29">
      <path d="M 46.965625 126.410525 
L 429.035625 126.410525 
" clip-path="url(#pae2bb3ac4d)" style="fill: none; stroke-dasharray: 2.96,1.28; stroke-dashoffset: 0; stroke: #b0b0b0; stroke-opacity: 0.6; stroke-width: 0.8"/>
     </g>
     <g id="line2d_30">
      <g>
       <use xlink:href="#m6566683c09" x="46.965625" y="126.410525" style="stroke: #000000; stroke-width: 0.8"/>
      </g>
     </g>
     <g id="text_16">
      <!-- 100 -->
      <g transform="translate(20.878125 130.209744) scale(0.1 -0.1)">
       <use xlink:href="#DejaVuSans-31"/>
       <use xlink:href="#DejaVuSans-30" transform="translate(63.623047 0)"/>
       <use xlink:href="#DejaVuSans-30" transform="translate(127.246094 0)"/>
      </g>
     </g>
    </g>
    <g id="ytick_7">
     <g id="line2d_31">
      <path d="M 46.965625 77.852266 
L 429.035625 77.852266 
" clip-path="url(#pae2bb3ac4d)" style="fill: none; stroke-dasharray: 2.96,1.28; stroke-dashoffset: 0; stroke: #b0b0b0; stroke-opacity: 0.6; stroke-width: 0.8"/>
     </g>
     <g id="line2d_32">
      <g>
       <use xlink:href="#m6566683c09" x="46.965625" y="77.852266" style="stroke: #000000; stroke-width: 0.8"/>
      </g>
     </g>
     <g id="text_17">
      <!-- 120 -->
      <g transform="translate(20.878125 81.651485) scale(0.1 -0.1)">
       <use xlink:href="#DejaVuSans-31"/>
       <use xlink:href="#DejaVuSans-32" transform="translate(63.623047 0)"/>
       <use xlink:href="#DejaVuSans-30" transform="translate(127.246094 0)"/>
      </g>
     </g>
    </g>
    <g id="ytick_8">
     <g id="line2d_33">
      <path d="M 46.965625 29.294008 
L 429.035625 29.294008 
" clip-path="url(#pae2bb3ac4d)" style="fill: none; stroke-dasharray: 2.96,1.28; stroke-dashoffset: 0; stroke: #b0b0b0; stroke-opacity: 0.6; stroke-width: 0.8"/>
     </g>
     <g id="line2d_34">
      <g>
       <use xlink:href="#m6566683c09" x="46.965625" y="29.294008" style="stroke: #000000; stroke-width: 0.8"/>
      </g>
     </g>
     <g id="text_18">
      <!-- 140 -->
      <g transform="translate(20.878125 33.093226) scale(0.1 -0.1)">
       <use xlink:href="#DejaVuSans-31"/>
       <use xlink:href="#DejaVuSans-34" transform="translate(63.623047 0)"/>
       <use xlink:href="#DejaVuSans-30" transform="translate(127.246094 0)"/>
      </g>
     </g>
    </g>
    <g id="text_19">
     <!-- Average cumulative count -->
     <g transform="translate(14.798438 262.4325) rotate(-90) scale(0.1 -0.1)">
      <defs>
       <path id="DejaVuSans-41" d="M 2188 4044 
L 1331 1722 
L 3047 1722 
L 2188 4044 
z
M 1831 4666 
L 2547 4666 
L 4325 0 
L 3669 0 
L 3244 1197 
L 1141 1197 
L 716 0 
L 50 0 
L 1831 4666 
z
" transform="scale(0.015625)"/>
       <path id="DejaVuSans-76" d="M 191 3500 
L 800 3500 
L 1894 563 
L 2988 3500 
L 3597 3500 
L 2284 0 
L 1503 0 
L 191 3500 
z
" transform="scale(0.015625)"/>
       <path id="DejaVuSans-67" d="M 2906 1791 
Q 2906 2416 2648 2759 
Q 2391 3103 1925 3103 
Q 1463 3103 1205 2759 
Q 947 2416 947 1791 
Q 947 1169 1205 825 
Q 1463 481 1925 481 
Q 2391 481 2648 825 
Q 2906 1169 2906 1791 
z
M 3481 434 
Q 3481 -459 3084 -895 
Q 2688 -1331 1869 -1331 
Q 1566 -1331 1297 -1286 
Q 1028 -1241 775 -1147 
L 775 -588 
Q 1028 -725 1275 -790 
Q 1522 -856 1778 -856 
Q 2344 -856 2625 -561 
Q 2906 -266 2906 331 
L 2906 616 
Q 2728 306 2450 153 
Q 2172 0 1784 0 
Q 1141 0 747 490 
Q 353 981 353 1791 
Q 353 2603 747 3093 
Q 1141 3584 1784 3584 
Q 2172 3584 2450 3431 
Q 2728 3278 2906 2969 
L 2906 3500 
L 3481 3500 
L 3481 434 
z
" transform="scale(0.015625)"/>
       <path id="DejaVuSans-6c" d="M 603 4863 
L 1178 4863 
L 1178 0 
L 603 0 
L 603 4863 
z
" transform="scale(0.015625)"/>
      </defs>
      <use xlink:href="#DejaVuSans-41"/>
      <use xlink:href="#DejaVuSans-76" transform="translate(62.533203 0)"/>
      <use xlink:href="#DejaVuSans-65" transform="translate(121.712891 0)"/>
      <use xlink:href="#DejaVuSans-72" transform="translate(183.236328 0)"/>
      <use xlink:href="#DejaVuSans-61" transform="translate(224.349609 0)"/>
      <use xlink:href="#DejaVuSans-67" transform="translate(285.628906 0)"/>
      <use xlink:href="#DejaVuSans-65" transform="translate(349.105469 0)"/>
      <use xlink:href="#DejaVuSans-20" transform="translate(410.628906 0)"/>
      <use xlink:href="#DejaVuSans-63" transform="translate(442.416016 0)"/>
      <use xlink:href="#DejaVuSans-75" transform="translate(497.396484 0)"/>
      <use xlink:href="#DejaVuSans-6d" transform="translate(560.775391 0)"/>
      <use xlink:href="#DejaVuSans-75" transform="translate(658.1875 0)"/>
      <use xlink:href="#DejaVuSans-6c" transform="translate(721.566406 0)"/>
      <use xlink:href="#DejaVuSans-61" transform="translate(749.349609 0)"/>
      <use xlink:href="#DejaVuSans-74" transform="translate(810.628906 0)"/>
      <use xlink:href="#DejaVuSans-69" transform="translate(849.837891 0)"/>
      <use xlink:href="#DejaVuSans-76" transform="translate(877.621094 0)"/>
      <use xlink:href="#DejaVuSans-65" transform="translate(936.800781 0)"/>
      <use xlink:href="#DejaVuSans-20" transform="translate(998.324219 0)"/>
      <use xlink:href="#DejaVuSans-63" transform="translate(1030.111328 0)"/>
      <use xlink:href="#DejaVuSans-6f" transform="translate(1085.091797 0)"/>
      <use xlink:href="#DejaVuSans-75" transform="translate(1146.273438 0)"/>
      <use xlink:href="#DejaVuSans-6e" transform="translate(1209.652344 0)"/>
      <use xlink:href="#DejaVuSans-74" transform="translate(1273.03125 0)"/>
     </g>
    </g>
   </g>
   <g id="line2d_35">
    <path d="M 64.332443 369.201818 
L 64.422751 369.201818 
L 64.533898 367.987862 
L 65.292828 367.987862 
L 65.405713 365.559949 
L 65.46476 365.559949 
L 65.577644 363.132036 
L 73.450023 363.132036 
L 73.56117 361.918079 
L 80.207452 361.918079 
L 80.318599 360.704123 
L 80.520054 360.704123 
L 80.631202 359.490166 
L 80.730193 359.490166 
L 80.848287 353.420384 
L 80.850024 353.420384 
L 80.964645 349.778515 
L 81.824302 349.778515 
L 81.94066 344.922689 
L 82.015337 344.922689 
L 82.126485 343.708732 
L 82.3592 343.708732 
L 82.472085 341.280819 
L 83.017403 341.280819 
L 83.138971 332.783124 
L 83.531461 332.783124 
L 83.646082 329.141255 
L 83.981261 329.141255 
L 84.094146 326.713342 
L 84.97638 326.713342 
L 85.087528 325.499385 
L 86.244158 325.499385 
L 86.358779 321.857516 
L 86.369199 321.857516 
L 86.480346 320.64356 
L 87.317427 320.64356 
L 87.432048 317.00169 
L 87.444205 317.00169 
L 87.558826 313.359821 
L 87.560563 313.359821 
L 87.67171 312.145864 
L 87.673447 312.145864 
L 87.784594 310.931908 
L 87.824538 310.931908 
L 87.935686 309.717951 
L 88.626885 309.717951 
L 88.738033 308.503995 
L 89.279878 308.503995 
L 89.397972 302.434213 
L 89.477859 302.434213 
L 89.589007 301.220256 
L 90.373987 301.220256 
L 90.485135 300.0063 
L 91.579244 300.0063 
L 91.692129 297.578387 
L 91.770279 297.578387 
L 91.883164 295.150474 
L 91.954368 295.150474 
L 92.065515 293.936517 
L 92.860915 293.936517 
L 92.972063 292.722561 
L 93.116208 292.722561 
L 93.229092 290.294648 
L 93.729256 290.294648 
L 93.840404 289.080691 
L 93.993232 289.080691 
L 94.10438 287.866735 
L 94.429139 287.866735 
L 94.542023 285.438822 
L 94.613227 285.438822 
L 94.727848 281.796953 
L 94.856363 281.796953 
L 94.972721 276.941127 
L 95.358264 276.941127 
L 95.471148 274.513214 
L 96.46974 274.513214 
L 96.589571 267.229475 
L 96.601728 267.229475 
L 96.712876 266.015519 
L 98.360987 266.015519 
L 98.475608 262.373649 
L 99.238011 262.373649 
L 99.350895 259.945736 
L 99.84064 259.945736 
L 99.955261 256.303867 
L 99.991731 256.303867 
L 100.102879 255.08991 
L 100.130666 255.08991 
L 100.241813 253.875954 
L 100.774974 253.875954 
L 100.886122 252.661997 
L 101.099734 252.661997 
L 101.212618 250.234085 
L 101.961128 250.234085 
L 102.074012 247.806172 
L 102.271994 247.806172 
L 102.384879 245.378259 
L 102.54118 245.378259 
L 102.655801 241.736389 
L 102.789525 241.736389 
L 102.900673 240.522433 
L 104.758923 240.522433 
L 104.87007 239.308476 
L 105.140993 239.308476 
L 105.25214 238.09452 
L 107.042659 238.09452 
L 107.155543 235.666607 
L 107.84848 235.666607 
L 107.963101 232.024738 
L 108.016938 232.024738 
L 108.129822 229.596825 
L 108.728977 229.596825 
L 108.845335 224.740999 
L 108.855755 224.740999 
L 108.966903 223.527042 
L 109.064157 223.527042 
L 109.175304 222.313086 
L 110.021068 222.313086 
L 110.137426 217.45726 
L 110.154793 217.45726 
L 110.267677 215.029347 
L 110.276361 215.029347 
L 110.389245 212.601434 
L 111.092601 212.601434 
L 111.212432 205.317695 
L 112.442003 205.317695 
L 112.556624 201.675826 
L 112.992531 201.675826 
L 113.103679 200.461869 
L 114.112691 200.461869 
L 114.223838 199.247913 
L 114.347143 199.247913 
L 114.458291 198.033956 
L 114.953245 198.033956 
L 115.064392 196.82 
L 116.613513 196.82 
L 116.726397 194.392087 
L 116.778497 194.392087 
L 116.889645 193.178131 
L 116.986899 193.178131 
L 117.103257 188.322305 
L 118.013278 188.322305 
L 118.129636 183.466479 
L 118.160896 183.466479 
L 118.280727 176.18274 
L 118.702741 176.18274 
L 118.813889 174.968784 
L 118.822572 174.968784 
L 118.93372 173.754827 
L 119.063971 173.754827 
L 119.176855 171.326914 
L 119.296686 171.326914 
L 119.407834 170.112958 
L 119.663126 170.112958 
L 119.774274 168.899001 
L 121.356391 168.899001 
L 121.474485 162.829219 
L 121.491852 162.829219 
L 121.603 161.615262 
L 121.646417 161.615262 
L 121.757564 160.401306 
L 122.40361 160.401306 
L 122.519968 155.54548 
L 122.530388 155.54548 
L 122.645009 151.903611 
L 122.77526 151.903611 
L 122.888144 149.475698 
L 123.020132 149.475698 
L 123.13128 148.261741 
L 123.761695 148.261741 
L 123.872843 147.047785 
L 124.864488 147.047785 
L 124.980846 142.191959 
L 125.085047 142.191959 
L 125.196194 140.978003 
L 125.864817 140.978003 
L 125.975964 139.764046 
L 126.047168 139.764046 
L 126.160053 137.336133 
L 126.290304 137.336133 
L 126.403188 134.90822 
L 126.547333 134.90822 
L 126.660217 132.480307 
L 129.749774 132.480307 
L 129.862658 130.052394 
L 129.871342 130.052394 
L 129.985963 126.410525 
L 130.119687 126.410525 
L 130.230835 125.196569 
L 131.17038 125.196569 
L 131.281527 123.982612 
L 131.55766 123.982612 
L 131.668807 122.768656 
L 132.189812 122.768656 
L 132.30096 121.554699 
L 132.658716 121.554699 
L 132.769864 120.340743 
L 132.940058 120.340743 
L 133.052943 117.91283 
L 133.072046 117.91283 
L 133.186667 114.27096 
L 133.596524 114.27096 
L 133.714619 108.201178 
L 133.982068 108.201178 
L 134.098425 103.345352 
L 134.492652 103.345352 
L 134.607273 99.703483 
L 135.263739 99.703483 
L 135.374886 98.489526 
L 135.840317 98.489526 
L 135.951465 97.27557 
L 136.15292 97.27557 
L 136.267541 93.6337 
L 136.288381 93.6337 
L 136.399529 92.419744 
L 137.168879 92.419744 
L 137.290446 83.922049 
L 137.318233 83.922049 
L 137.432854 80.280179 
L 138.223045 80.280179 
L 138.335929 77.852266 
L 141.812766 77.852266 
L 141.923913 76.63831 
L 142.509175 76.63831 
L 142.620323 75.424353 
L 142.955502 75.424353 
L 143.06665 74.210397 
L 143.342783 74.210397 
L 143.45393 72.99644 
L 143.959305 72.99644 
L 144.073926 69.354571 
L 147.875522 69.354571 
L 147.98667 68.140615 
L 148.613612 68.140615 
L 148.724759 66.926658 
L 153.073411 66.926658 
L 153.184558 65.712702 
L 163.069751 65.712702 
L 163.180899 64.498745 
L 168.425678 64.498745 
L 168.536826 63.284789 
L 176.930209 63.284789 
L 177.041357 62.070832 
L 196.952414 62.070832 
L 197.063561 60.856876 
L 197.403951 60.856876 
L 197.515098 59.642919 
L 202.513269 59.642919 
L 202.624416 58.428963 
L 208.79311 58.428963 
L 208.904258 57.215006 
L 219.942607 57.215006 
L 220.053755 56.00105 
L 225.510409 56.00105 
L 225.621557 54.787093 
L 233.992363 54.787093 
L 234.103511 53.573137 
L 237.528248 53.573137 
L 237.639395 52.359181 
L 237.754016 52.359181 
L 237.865164 51.145224 
L 266.390163 51.145224 
L 266.50131 49.931268 
L 266.864277 49.931268 
L 266.975424 48.717311 
L 271.805137 48.717311 
L 271.916284 47.503355 
L 280.769888 47.503355 
L 280.881036 46.289398 
L 294.632082 46.289398 
L 294.74323 45.075442 
L 300.392656 45.075442 
L 300.503804 43.861485 
L 300.778199 43.861485 
L 300.889347 42.647529 
L 304.022321 42.647529 
L 304.133469 41.433572 
L 314.362525 41.433572 
L 314.473672 40.219616 
L 319.487473 40.219616 
L 319.59862 39.005659 
L 324.306765 39.005659 
L 324.417912 37.791703 
L 326.538401 37.791703 
L 326.649548 36.577746 
L 339.191865 36.577746 
L 339.304749 34.149834 
L 351.086398 34.149834 
L 351.197546 32.935877 
L 380.549205 32.935877 
L 380.660353 31.721921 
L 380.995533 31.721921 
L 381.10668 30.507964 
L 383.880161 30.507964 
L 383.991309 29.294008 
L 386.137847 29.294008 
L 386.248995 28.080051 
L 390.990136 28.080051 
L 391.101284 26.866095 
L 400.98995 26.866095 
L 401.101098 25.652138 
L 405.916917 25.652138 
L 406.028064 24.438182 
L 411.66707 24.438182 
L 411.66707 24.438182 
" clip-path="url(#pae2bb3ac4d)" style="fill: none; stroke: #add8e6; stroke-width: 2; stroke-linecap: square"/>
   </g>
   <g id="line2d_36">
    <path d="M 64.332443 369.201818 
L 64.3446 369.201818 
L 64.455748 367.987862 
L 65.730472 367.987862 
L 65.843356 365.559949 
L 81.763519 365.559949 
L 81.874666 364.345992 
L 82.937516 364.345992 
L 83.0504 361.918079 
L 83.281379 361.918079 
L 83.394263 359.490166 
L 83.944791 359.490166 
L 84.057675 357.062254 
L 84.184453 357.062254 
L 84.297337 354.634341 
L 84.306021 354.634341 
L 84.424115 348.564558 
L 84.493582 348.564558 
L 84.60473 347.350602 
L 84.926016 347.350602 
L 85.037164 346.136645 
L 85.723153 346.136645 
L 85.836037 343.708732 
L 86.403932 343.708732 
L 86.518553 340.066863 
L 86.563707 340.066863 
L 86.676591 337.63895 
L 86.759952 337.63895 
L 86.872837 335.211037 
L 86.91799 335.211037 
L 87.032611 331.569168 
L 87.29485 331.569168 
L 87.407735 329.141255 
L 87.959999 329.141255 
L 88.071147 327.927298 
L 89.180887 327.927298 
L 89.292034 326.713342 
L 89.455282 326.713342 
L 89.57164 321.857516 
L 89.59248 321.857516 
L 89.705365 319.429603 
L 89.830406 319.429603 
L 89.941553 318.215647 
L 90.132588 318.215647 
L 90.243736 317.00169 
L 91.320479 317.00169 
L 91.436836 312.145864 
L 91.457677 312.145864 
L 91.570561 309.717951 
L 92.305177 309.717951 
L 92.416325 308.503995 
L 92.709824 308.503995 
L 92.820972 307.290038 
L 92.848759 307.290038 
L 92.96338 303.648169 
L 93.091894 303.648169 
L 93.203042 302.434213 
L 93.336766 302.434213 
L 93.447914 301.220256 
L 93.515644 301.220256 
L 93.628529 298.792343 
L 93.671946 298.792343 
L 93.786567 295.150474 
L 94.319728 295.150474 
L 94.432612 292.722561 
L 95.278377 292.722561 
L 95.389524 291.508604 
L 96.553101 291.508604 
L 96.664249 290.294648 
L 96.777133 290.294648 
L 96.890017 287.866735 
L 97.173096 287.866735 
L 97.284244 286.652778 
L 97.513486 286.652778 
L 97.62637 284.224866 
L 97.662841 284.224866 
L 97.775725 281.796953 
L 97.808722 281.796953 
L 97.91987 280.582996 
L 98.128271 280.582996 
L 98.239419 279.36904 
L 98.567652 279.36904 
L 98.682273 275.72717 
L 98.734373 275.72717 
L 98.845521 274.513214 
L 98.934092 274.513214 
L 99.045239 273.299257 
L 99.623554 273.299257 
L 99.736439 270.871344 
L 99.757279 270.871344 
L 99.870163 268.443431 
L 100.080302 268.443431 
L 100.191449 267.229475 
L 100.460635 267.229475 
L 100.571783 266.015519 
L 100.995533 266.015519 
L 101.108417 263.587606 
L 101.339396 263.587606 
L 101.45228 261.159693 
L 101.879504 261.159693 
L 101.992388 258.73178 
L 102.364038 258.73178 
L 102.476923 256.303867 
L 106.823837 256.303867 
L 106.936722 253.875954 
L 106.962772 253.875954 
L 107.077393 250.234085 
L 107.620974 250.234085 
L 107.733859 247.806172 
L 107.782486 247.806172 
L 107.893633 246.592215 
L 108.71682 246.592215 
L 108.827968 245.378259 
L 110.859886 245.378259 
L 110.971033 244.164302 
L 111.080444 244.164302 
L 111.191592 242.950346 
L 111.316633 242.950346 
L 111.427781 241.736389 
L 111.775117 241.736389 
L 111.886265 240.522433 
L 112.238811 240.522433 
L 112.353432 236.880563 
L 112.844913 236.880563 
L 112.957797 234.45265 
L 113.855662 234.45265 
L 113.96681 233.238694 
L 114.032803 233.238694 
L 114.145688 230.810781 
L 115.041816 230.810781 
L 115.152963 229.596825 
L 115.305791 229.596825 
L 115.416939 228.382868 
L 115.451673 228.382868 
L 115.56282 227.168912 
L 116.544045 227.168912 
L 116.658666 223.527042 
L 116.860121 223.527042 
L 116.971269 222.313086 
L 117.084153 222.313086 
L 117.198774 218.671216 
L 117.316869 218.671216 
L 117.428016 217.45726 
L 121.578686 217.45726 
L 121.69157 215.029347 
L 122.05801 215.029347 
L 122.169158 213.815391 
L 122.863831 213.815391 
L 122.974978 212.601434 
L 123.624497 212.601434 
L 123.737381 210.173521 
L 123.836372 210.173521 
L 123.949257 207.745608 
L 124.110768 207.745608 
L 124.221916 206.531652 
L 124.30875 206.531652 
L 124.419897 205.317695 
L 124.966952 205.317695 
L 125.081573 201.675826 
L 125.317762 201.675826 
L 125.42891 200.461869 
L 126.121846 200.461869 
L 126.232993 199.247913 
L 126.661954 199.247913 
L 126.774838 196.82 
L 128.518467 196.82 
L 128.629614 195.606044 
L 128.706028 195.606044 
L 128.817176 194.392087 
L 129.826188 194.392087 
L 129.937336 193.178131 
L 130.340246 193.178131 
L 130.451393 191.964174 
L 130.916824 191.964174 
L 131.029708 189.536261 
L 131.090492 189.536261 
L 131.20164 188.322305 
L 131.20685 188.322305 
L 131.317998 187.108348 
L 131.521189 187.108348 
L 131.634074 184.680435 
L 131.799058 184.680435 
L 131.910206 183.466479 
L 131.913679 183.466479 
L 132.030037 178.610653 
L 132.061297 178.610653 
L 132.172445 177.396697 
L 134.075848 177.396697 
L 134.188733 174.968784 
L 134.197416 174.968784 
L 134.3103 172.540871 
L 134.317247 172.540871 
L 134.431868 168.899001 
L 134.433605 168.899001 
L 134.548226 165.257132 
L 134.709737 165.257132 
L 134.820885 164.043175 
L 134.999763 164.043175 
L 135.110911 162.829219 
L 135.178641 162.829219 
L 135.294999 157.973393 
L 135.298472 157.973393 
L 135.411357 155.54548 
L 135.42004 155.54548 
L 135.531188 154.331524 
L 135.779533 154.331524 
L 135.892418 151.903611 
L 136.048719 151.903611 
L 136.161603 149.475698 
L 136.552357 149.475698 
L 136.663504 148.261741 
L 136.798965 148.261741 
L 136.910113 147.047785 
L 137.651676 147.047785 
L 137.762824 145.833828 
L 139.304997 145.833828 
L 139.417882 143.405915 
L 139.445669 143.405915 
L 139.556816 142.191959 
L 139.588076 142.191959 
L 139.699224 140.978003 
L 139.806898 140.978003 
L 139.921519 137.336133 
L 139.945833 137.336133 
L 140.060454 133.694264 
L 141.13025 133.694264 
L 141.244871 130.052394 
L 141.255291 130.052394 
L 141.366439 128.838438 
L 141.385542 128.838438 
L 141.498426 126.410525 
L 141.515793 126.410525 
L 141.626941 125.196569 
L 141.786716 125.196569 
L 141.901337 121.554699 
L 141.923913 121.554699 
L 142.038534 117.91283 
L 143.236845 117.91283 
L 143.347993 116.698873 
L 143.38099 116.698873 
L 143.493874 114.27096 
L 143.587655 114.27096 
L 143.698802 113.057004 
L 143.924571 113.057004 
L 144.035719 111.843047 
L 158.398077 111.843047 
L 158.509225 110.629091 
L 158.603006 110.629091 
L 158.714153 109.415134 
L 192.506508 109.415134 
L 192.617656 108.201178 
L 280.351348 108.201178 
L 280.462495 106.987222 
L 306.311268 106.987222 
L 306.422415 105.773265 
L 307.575572 105.773265 
L 307.68672 104.559309 
L 309.511972 104.559309 
L 309.62312 103.345352 
L 316.285031 103.345352 
L 316.396179 102.131396 
L 329.117373 102.131396 
L 329.228521 100.917439 
L 329.308408 100.917439 
L 329.419556 99.703483 
L 376.105037 99.703483 
L 376.216184 98.489526 
L 395.812902 98.489526 
L 395.924049 97.27557 
L 411.66707 97.27557 
L 411.66707 97.27557 
" clip-path="url(#pae2bb3ac4d)" style="fill: none; stroke: #00008b; stroke-width: 2; stroke-linecap: square"/>
   </g>
   <g id="line2d_37">
    <path d="M 411.668807 369.201818 
L 393.447541 369.201818 
L 393.336394 366.773905 
L 232.642962 366.773905 
L 232.531814 364.345992 
L 228.737164 364.345992 
L 228.626017 361.918079 
L 211.434603 361.918079 
L 211.323456 359.490166 
L 208.591655 359.490166 
L 208.480507 357.062254 
L 208.277316 357.062254 
L 208.166168 354.634341 
L 204.9151 354.634341 
L 204.803952 352.206428 
L 203.629955 352.206428 
L 203.518808 349.778515 
L 202.452485 349.778515 
L 202.339601 344.922689 
L 200.505665 344.922689 
L 200.394517 342.494776 
L 195.81836 342.494776 
L 195.707213 340.066863 
L 194.552319 340.066863 
L 194.441172 337.63895 
L 191.459289 337.63895 
L 191.348141 335.211037 
L 190.891394 335.211037 
L 190.77851 330.355211 
L 188.92547 330.355211 
L 188.814323 327.927298 
L 188.296791 327.927298 
L 188.185644 325.499385 
L 186.393388 325.499385 
L 186.28224 323.071472 
L 185.776866 323.071472 
L 185.665718 320.64356 
L 185.45037 320.64356 
L 185.339222 318.215647 
L 184.580292 318.215647 
L 184.469145 315.787734 
L 183.343775 315.787734 
L 183.232627 313.359821 
L 176.502985 313.359821 
L 176.391838 310.931908 
L 172.571138 310.931908 
L 172.45999 308.503995 
L 157.922226 308.503995 
L 157.811079 306.076082 
L 157.604414 306.076082 
L 157.493266 303.648169 
L 153.552735 303.648169 
L 153.441587 301.220256 
L 150.107158 301.220256 
L 149.996011 298.792343 
L 149.851866 298.792343 
L 149.740718 296.36443 
L 148.243699 296.36443 
L 148.132551 293.936517 
L 145.069044 293.936517 
L 144.957897 291.508604 
L 142.288617 291.508604 
L 142.177469 289.080691 
L 141.652991 289.080691 
L 141.541843 286.652778 
L 140.696079 286.652778 
L 140.584932 284.224866 
L 138.372399 284.224866 
L 138.261252 281.796953 
L 137.73851 281.796953 
L 137.627363 279.36904 
L 132.432947 279.36904 
L 132.3218 276.941127 
L 131.17559 276.941127 
L 131.064442 274.513214 
L 129.739354 274.513214 
L 129.628206 272.085301 
L 127.578922 272.085301 
L 127.467774 269.657388 
L 123.440409 269.657388 
L 123.329261 267.229475 
L 120.684295 267.229475 
L 120.573147 264.801562 
L 120.363009 264.801562 
L 120.251861 262.373649 
L 119.255006 262.373649 
L 119.143858 259.945736 
L 118.621117 259.945736 
L 118.509969 257.517823 
L 110.359721 257.517823 
L 110.248574 255.08991 
L 109.739726 255.08991 
L 109.628578 252.661997 
L 108.473685 252.661997 
L 108.362537 250.234085 
L 108.228813 250.234085 
L 108.117665 247.806172 
L 106.323673 247.806172 
L 106.212525 245.378259 
L 103.260166 245.378259 
L 103.149019 242.950346 
L 101.955918 242.950346 
L 101.84477 240.522433 
L 101.025057 240.522433 
L 100.913909 238.09452 
L 100.403325 238.09452 
L 100.292177 235.666607 
L 98.944512 235.666607 
L 98.833364 233.238694 
L 98.315833 233.238694 
L 98.204685 230.810781 
L 96.711139 230.810781 
L 96.599991 228.382868 
L 93.883821 228.382868 
L 93.772673 225.954955 
L 90.087435 225.954955 
L 89.976287 223.527042 
L 88.856127 223.527042 
L 88.74498 221.099129 
L 86.704378 221.099129 
L 86.593231 218.671216 
L 85.763097 218.671216 
L 85.651949 216.243303 
L 82.048334 216.243303 
L 81.937187 213.815391 
L 77.916768 213.815391 
L 77.805621 211.387478 
L 77.451338 211.387478 
L 77.34019 208.959565 
L 76.497899 208.959565 
L 76.386752 206.531652 
L 75.563565 206.531652 
L 75.452417 204.103739 
L 75.254435 204.103739 
L 75.143288 201.675826 
L 70.542817 201.675826 
L 70.43167 199.247913 
L 68.238241 199.247913 
L 68.127093 196.82 
L 67.984685 196.82 
L 67.873537 194.392087 
L 65.747839 194.392087 
L 65.636691 191.964174 
L 64.33418 191.964174 
L 64.33418 191.964174 
" clip-path="url(#pae2bb3ac4d)" style="fill: none; stroke-dasharray: 7.4,3.2; stroke-dashoffset: 0; stroke: #fa8072; stroke-width: 2"/>
   </g>
   <g id="line2d_38">
    <path d="M 411.668807 369.201818 
L 383.704756 369.201818 
L 383.593609 366.773905 
L 380.007361 366.773905 
L 379.896213 364.345992 
L 327.858279 364.345992 
L 327.747131 361.918079 
L 274.861697 361.918079 
L 274.750549 359.490166 
L 265.127595 359.490166 
L 265.016447 357.062254 
L 243.432966 357.062254 
L 243.321818 354.634341 
L 207.370768 354.634341 
L 207.25962 352.206428 
L 199.854409 352.206428 
L 199.743261 349.778515 
L 191.777102 349.778515 
L 191.665954 347.350602 
L 190.191511 347.350602 
L 190.080364 344.922689 
L 185.144714 344.922689 
L 185.033566 342.494776 
L 179.941615 342.494776 
L 179.830468 340.066863 
L 177.326172 340.066863 
L 177.215025 337.63895 
L 161.098617 337.63895 
L 160.98747 335.211037 
L 147.62023 335.211037 
L 147.509082 332.783124 
L 146.210044 332.783124 
L 146.098897 330.355211 
L 132.948742 330.355211 
L 132.837594 327.927298 
L 128.169393 327.927298 
L 128.058246 325.499385 
L 127.259372 325.499385 
L 127.148225 323.071472 
L 126.56991 323.071472 
L 126.458762 320.64356 
L 124.393847 320.64356 
L 124.2827 318.215647 
L 122.81173 318.215647 
L 122.700582 315.787734 
L 118.940666 315.787734 
L 118.829519 313.359821 
L 117.42628 313.359821 
L 117.315132 310.931908 
L 116.818441 310.931908 
L 116.707293 308.503995 
L 111.28711 308.503995 
L 111.175962 306.076082 
L 103.201119 306.076082 
L 103.089971 303.648169 
L 102.265047 303.648169 
L 102.1539 301.220256 
L 90.401774 301.220256 
L 90.290626 298.792343 
L 89.446599 298.792343 
L 89.335451 296.36443 
L 78.548921 296.36443 
L 78.437773 293.936517 
L 73.043639 293.936517 
L 72.932492 291.508604 
L 72.421907 291.508604 
L 72.310759 289.080691 
L 67.925638 289.080691 
L 67.81449 286.652778 
L 66.063915 286.652778 
L 65.952767 284.224866 
L 65.117423 284.224866 
L 65.006276 281.796953 
L 64.33418 281.796953 
L 64.33418 281.796953 
" clip-path="url(#pae2bb3ac4d)" style="fill: none; stroke-dasharray: 7.4,3.2; stroke-dashoffset: 0; stroke: #8b0000; stroke-width: 2"/>
   </g>
   <g id="patch_3">
    <path d="M 46.965625 386.44 
L 46.965625 7.2 
" style="fill: none; stroke: #000000; stroke-width: 0.8; stroke-linejoin: miter; stroke-linecap: square"/>
   </g>
   <g id="patch_4">
    <path d="M 429.035625 386.44 
L 429.035625 7.2 
" style="fill: none; stroke: #000000; stroke-width: 0.8; stroke-linejoin: miter; stroke-linecap: square"/>
   </g>
   <g id="patch_5">
    <path d="M 46.965625 386.44 
L 429.035625 386.44 
" style="fill: none; stroke: #000000; stroke-width: 0.8; stroke-linejoin: miter; stroke-linecap: square"/>
   </g>
   <g id="patch_6">
    <path d="M 46.965625 7.2 
L 429.035625 7.2 
" style="fill: none; stroke: #000000; stroke-width: 0.8; stroke-linejoin: miter; stroke-linecap: square"/>
   </g>
   <g id="legend_1">
    <g id="patch_7">
     <path d="M 436.035625 88.590625 
L 558.905938 88.590625 
Q 560.905938 88.590625 560.905938 86.590625 
L 560.905938 14.2 
Q 560.905938 12.2 558.905938 12.2 
L 436.035625 12.2 
Q 434.035625 12.2 434.035625 14.2 
L 434.035625 86.590625 
Q 434.035625 88.590625 436.035625 88.590625 
z
" style="fill: #ffffff; opacity: 0.8; stroke: #cccccc; stroke-linejoin: miter"/>
    </g>
    <g id="text_20">
     <!-- Motifs &amp; orientation -->
     <g transform="translate(447.955156 23.798437) scale(0.1 -0.1)">
      <defs>
       <path id="DejaVuSans-4d" d="M 628 4666 
L 1569 4666 
L 2759 1491 
L 3956 4666 
L 4897 4666 
L 4897 0 
L 4281 0 
L 4281 4097 
L 3078 897 
L 2444 897 
L 1241 4097 
L 1241 0 
L 628 0 
L 628 4666 
z
" transform="scale(0.015625)"/>
       <path id="DejaVuSans-26" d="M 1556 2509 
Q 1272 2256 1139 2004 
Q 1006 1753 1006 1478 
Q 1006 1022 1337 719 
Q 1669 416 2169 416 
Q 2466 416 2725 514 
Q 2984 613 3213 813 
L 1556 2509 
z
M 1997 2859 
L 3584 1234 
Q 3769 1513 3872 1830 
Q 3975 2147 3994 2503 
L 4575 2503 
Q 4538 2091 4375 1687 
Q 4213 1284 3922 891 
L 4794 0 
L 4006 0 
L 3559 459 
Q 3234 181 2878 45 
Q 2522 -91 2113 -91 
Q 1359 -91 881 339 
Q 403 769 403 1441 
Q 403 1841 612 2192 
Q 822 2544 1241 2853 
Q 1091 3050 1012 3245 
Q 934 3441 934 3628 
Q 934 4134 1281 4442 
Q 1628 4750 2203 4750 
Q 2463 4750 2720 4694 
Q 2978 4638 3244 4525 
L 3244 3956 
Q 2972 4103 2725 4179 
Q 2478 4256 2266 4256 
Q 1938 4256 1733 4082 
Q 1528 3909 1528 3634 
Q 1528 3475 1620 3314 
Q 1713 3153 1997 2859 
z
" transform="scale(0.015625)"/>
      </defs>
      <use xlink:href="#DejaVuSans-4d"/>
      <use xlink:href="#DejaVuSans-6f" transform="translate(86.279297 0)"/>
      <use xlink:href="#DejaVuSans-74" transform="translate(147.460938 0)"/>
      <use xlink:href="#DejaVuSans-69" transform="translate(186.669922 0)"/>
      <use xlink:href="#DejaVuSans-66" transform="translate(214.453125 0)"/>
      <use xlink:href="#DejaVuSans-73" transform="translate(249.658203 0)"/>
      <use xlink:href="#DejaVuSans-20" transform="translate(301.757812 0)"/>
      <use xlink:href="#DejaVuSans-26" transform="translate(333.544922 0)"/>
      <use xlink:href="#DejaVuSans-20" transform="translate(411.523438 0)"/>
      <use xlink:href="#DejaVuSans-6f" transform="translate(443.310547 0)"/>
      <use xlink:href="#DejaVuSans-72" transform="translate(504.492188 0)"/>
      <use xlink:href="#DejaVuSans-69" transform="translate(545.605469 0)"/>
      <use xlink:href="#DejaVuSans-65" transform="translate(573.388672 0)"/>
      <use xlink:href="#DejaVuSans-6e" transform="translate(634.912109 0)"/>
      <use xlink:href="#DejaVuSans-74" transform="translate(698.291016 0)"/>
      <use xlink:href="#DejaVuSans-61" transform="translate(737.5 0)"/>
      <use xlink:href="#DejaVuSans-74" transform="translate(798.779297 0)"/>
      <use xlink:href="#DejaVuSans-69" transform="translate(837.988281 0)"/>
      <use xlink:href="#DejaVuSans-6f" transform="translate(865.771484 0)"/>
      <use xlink:href="#DejaVuSans-6e" transform="translate(926.953125 0)"/>
     </g>
    </g>
    <g id="line2d_39">
     <path d="M 438.035625 34.976562 
L 448.035625 34.976562 
L 458.035625 34.976562 
" style="fill: none; stroke: #add8e6; stroke-width: 2; stroke-linecap: square"/>
    </g>
    <g id="text_21">
     <!-- CCCTAAA (5' end) -->
     <g transform="translate(466.035625 38.476562) scale(0.1 -0.1)">
      <defs>
       <path id="DejaVuSans-43" d="M 4122 4306 
L 4122 3641 
Q 3803 3938 3442 4084 
Q 3081 4231 2675 4231 
Q 1875 4231 1450 3742 
Q 1025 3253 1025 2328 
Q 1025 1406 1450 917 
Q 1875 428 2675 428 
Q 3081 428 3442 575 
Q 3803 722 4122 1019 
L 4122 359 
Q 3791 134 3420 21 
Q 3050 -91 2638 -91 
Q 1578 -91 968 557 
Q 359 1206 359 2328 
Q 359 3453 968 4101 
Q 1578 4750 2638 4750 
Q 3056 4750 3426 4639 
Q 3797 4528 4122 4306 
z
" transform="scale(0.015625)"/>
       <path id="DejaVuSans-54" d="M -19 4666 
L 3928 4666 
L 3928 4134 
L 2272 4134 
L 2272 0 
L 1638 0 
L 1638 4134 
L -19 4134 
L -19 4666 
z
" transform="scale(0.015625)"/>
       <path id="DejaVuSans-28" d="M 1984 4856 
Q 1566 4138 1362 3434 
Q 1159 2731 1159 2009 
Q 1159 1288 1364 580 
Q 1569 -128 1984 -844 
L 1484 -844 
Q 1016 -109 783 600 
Q 550 1309 550 2009 
Q 550 2706 781 3412 
Q 1013 4119 1484 4856 
L 1984 4856 
z
" transform="scale(0.015625)"/>
       <path id="DejaVuSans-27" d="M 1147 4666 
L 1147 2931 
L 616 2931 
L 616 4666 
L 1147 4666 
z
" transform="scale(0.015625)"/>
       <path id="DejaVuSans-64" d="M 2906 2969 
L 2906 4863 
L 3481 4863 
L 3481 0 
L 2906 0 
L 2906 525 
Q 2725 213 2448 61 
Q 2172 -91 1784 -91 
Q 1150 -91 751 415 
Q 353 922 353 1747 
Q 353 2572 751 3078 
Q 1150 3584 1784 3584 
Q 2172 3584 2448 3432 
Q 2725 3281 2906 2969 
z
M 947 1747 
Q 947 1113 1208 752 
Q 1469 391 1925 391 
Q 2381 391 2643 752 
Q 2906 1113 2906 1747 
Q 2906 2381 2643 2742 
Q 2381 3103 1925 3103 
Q 1469 3103 1208 2742 
Q 947 2381 947 1747 
z
" transform="scale(0.015625)"/>
       <path id="DejaVuSans-29" d="M 513 4856 
L 1013 4856 
Q 1481 4119 1714 3412 
Q 1947 2706 1947 2009 
Q 1947 1309 1714 600 
Q 1481 -109 1013 -844 
L 513 -844 
Q 928 -128 1133 580 
Q 1338 1288 1338 2009 
Q 1338 2731 1133 3434 
Q 928 4138 513 4856 
z
" transform="scale(0.015625)"/>
      </defs>
      <use xlink:href="#DejaVuSans-43"/>
      <use xlink:href="#DejaVuSans-43" transform="translate(69.824219 0)"/>
      <use xlink:href="#DejaVuSans-43" transform="translate(139.648438 0)"/>
      <use xlink:href="#DejaVuSans-54" transform="translate(209.472656 0)"/>
      <use xlink:href="#DejaVuSans-41" transform="translate(262.806641 0)"/>
      <use xlink:href="#DejaVuSans-41" transform="translate(333.964844 0)"/>
      <use xlink:href="#DejaVuSans-41" transform="translate(405.123047 0)"/>
      <use xlink:href="#DejaVuSans-20" transform="translate(473.53125 0)"/>
      <use xlink:href="#DejaVuSans-28" transform="translate(505.318359 0)"/>
      <use xlink:href="#DejaVuSans-35" transform="translate(544.332031 0)"/>
      <use xlink:href="#DejaVuSans-27" transform="translate(607.955078 0)"/>
      <use xlink:href="#DejaVuSans-20" transform="translate(635.445312 0)"/>
      <use xlink:href="#DejaVuSans-65" transform="translate(667.232422 0)"/>
      <use xlink:href="#DejaVuSans-6e" transform="translate(728.755859 0)"/>
      <use xlink:href="#DejaVuSans-64" transform="translate(792.134766 0)"/>
      <use xlink:href="#DejaVuSans-29" transform="translate(855.611328 0)"/>
     </g>
    </g>
    <g id="line2d_40">
     <path d="M 438.035625 49.654687 
L 448.035625 49.654687 
L 458.035625 49.654687 
" style="fill: none; stroke: #00008b; stroke-width: 2; stroke-linecap: square"/>
    </g>
    <g id="text_22">
     <!-- CCCTGAA (5' end) -->
     <g transform="translate(466.035625 53.154687) scale(0.1 -0.1)">
      <defs>
       <path id="DejaVuSans-47" d="M 3809 666 
L 3809 1919 
L 2778 1919 
L 2778 2438 
L 4434 2438 
L 4434 434 
Q 4069 175 3628 42 
Q 3188 -91 2688 -91 
Q 1594 -91 976 548 
Q 359 1188 359 2328 
Q 359 3472 976 4111 
Q 1594 4750 2688 4750 
Q 3144 4750 3555 4637 
Q 3966 4525 4313 4306 
L 4313 3634 
Q 3963 3931 3569 4081 
Q 3175 4231 2741 4231 
Q 1884 4231 1454 3753 
Q 1025 3275 1025 2328 
Q 1025 1384 1454 906 
Q 1884 428 2741 428 
Q 3075 428 3337 486 
Q 3600 544 3809 666 
z
" transform="scale(0.015625)"/>
      </defs>
      <use xlink:href="#DejaVuSans-43"/>
      <use xlink:href="#DejaVuSans-43" transform="translate(69.824219 0)"/>
      <use xlink:href="#DejaVuSans-43" transform="translate(139.648438 0)"/>
      <use xlink:href="#DejaVuSans-54" transform="translate(209.472656 0)"/>
      <use xlink:href="#DejaVuSans-47" transform="translate(270.556641 0)"/>
      <use xlink:href="#DejaVuSans-41" transform="translate(348.046875 0)"/>
      <use xlink:href="#DejaVuSans-41" transform="translate(419.205078 0)"/>
      <use xlink:href="#DejaVuSans-20" transform="translate(487.613281 0)"/>
      <use xlink:href="#DejaVuSans-28" transform="translate(519.400391 0)"/>
      <use xlink:href="#DejaVuSans-35" transform="translate(558.414062 0)"/>
      <use xlink:href="#DejaVuSans-27" transform="translate(622.037109 0)"/>
      <use xlink:href="#DejaVuSans-20" transform="translate(649.527344 0)"/>
      <use xlink:href="#DejaVuSans-65" transform="translate(681.314453 0)"/>
      <use xlink:href="#DejaVuSans-6e" transform="translate(742.837891 0)"/>
      <use xlink:href="#DejaVuSans-64" transform="translate(806.216797 0)"/>
      <use xlink:href="#DejaVuSans-29" transform="translate(869.693359 0)"/>
     </g>
    </g>
    <g id="line2d_41">
     <path d="M 438.035625 64.332812 
L 448.035625 64.332812 
L 458.035625 64.332812 
" style="fill: none; stroke-dasharray: 7.4,3.2; stroke-dashoffset: 0; stroke: #fa8072; stroke-width: 2"/>
    </g>
    <g id="text_23">
     <!-- TTTAGGG (3' end) -->
     <g transform="translate(466.035625 67.832812) scale(0.1 -0.1)">
      <defs>
       <path id="DejaVuSans-33" d="M 2597 2516 
Q 3050 2419 3304 2112 
Q 3559 1806 3559 1356 
Q 3559 666 3084 287 
Q 2609 -91 1734 -91 
Q 1441 -91 1130 -33 
Q 819 25 488 141 
L 488 750 
Q 750 597 1062 519 
Q 1375 441 1716 441 
Q 2309 441 2620 675 
Q 2931 909 2931 1356 
Q 2931 1769 2642 2001 
Q 2353 2234 1838 2234 
L 1294 2234 
L 1294 2753 
L 1863 2753 
Q 2328 2753 2575 2939 
Q 2822 3125 2822 3475 
Q 2822 3834 2567 4026 
Q 2313 4219 1838 4219 
Q 1578 4219 1281 4162 
Q 984 4106 628 3988 
L 628 4550 
Q 988 4650 1302 4700 
Q 1616 4750 1894 4750 
Q 2613 4750 3031 4423 
Q 3450 4097 3450 3541 
Q 3450 3153 3228 2886 
Q 3006 2619 2597 2516 
z
" transform="scale(0.015625)"/>
      </defs>
      <use xlink:href="#DejaVuSans-54"/>
      <use xlink:href="#DejaVuSans-54" transform="translate(59.333984 0)"/>
      <use xlink:href="#DejaVuSans-54" transform="translate(118.667969 0)"/>
      <use xlink:href="#DejaVuSans-41" transform="translate(172.001953 0)"/>
      <use xlink:href="#DejaVuSans-47" transform="translate(238.660156 0)"/>
      <use xlink:href="#DejaVuSans-47" transform="translate(316.150391 0)"/>
      <use xlink:href="#DejaVuSans-47" transform="translate(393.640625 0)"/>
      <use xlink:href="#DejaVuSans-20" transform="translate(471.130859 0)"/>
      <use xlink:href="#DejaVuSans-28" transform="translate(502.917969 0)"/>
      <use xlink:href="#DejaVuSans-33" transform="translate(541.931641 0)"/>
      <use xlink:href="#DejaVuSans-27" transform="translate(605.554688 0)"/>
      <use xlink:href="#DejaVuSans-20" transform="translate(633.044922 0)"/>
      <use xlink:href="#DejaVuSans-65" transform="translate(664.832031 0)"/>
      <use xlink:href="#DejaVuSans-6e" transform="translate(726.355469 0)"/>
      <use xlink:href="#DejaVuSans-64" transform="translate(789.734375 0)"/>
      <use xlink:href="#DejaVuSans-29" transform="translate(853.210938 0)"/>
     </g>
    </g>
    <g id="line2d_42">
     <path d="M 438.035625 79.010937 
L 448.035625 79.010937 
L 458.035625 79.010937 
" style="fill: none; stroke-dasharray: 7.4,3.2; stroke-dashoffset: 0; stroke: #8b0000; stroke-width: 2"/>
    </g>
    <g id="text_24">
     <!-- TTCAGGG (3' end) -->
     <g transform="translate(466.035625 82.510937) scale(0.1 -0.1)">
      <use xlink:href="#DejaVuSans-54"/>
      <use xlink:href="#DejaVuSans-54" transform="translate(59.333984 0)"/>
      <use xlink:href="#DejaVuSans-43" transform="translate(114.542969 0)"/>
      <use xlink:href="#DejaVuSans-41" transform="translate(184.367188 0)"/>
      <use xlink:href="#DejaVuSans-47" transform="translate(251.025391 0)"/>
      <use xlink:href="#DejaVuSans-47" transform="translate(328.515625 0)"/>
      <use xlink:href="#DejaVuSans-47" transform="translate(406.005859 0)"/>
      <use xlink:href="#DejaVuSans-20" transform="translate(483.496094 0)"/>
      <use xlink:href="#DejaVuSans-28" transform="translate(515.283203 0)"/>
      <use xlink:href="#DejaVuSans-33" transform="translate(554.296875 0)"/>
      <use xlink:href="#DejaVuSans-27" transform="translate(617.919922 0)"/>
      <use xlink:href="#DejaVuSans-20" transform="translate(645.410156 0)"/>
      <use xlink:href="#DejaVuSans-65" transform="translate(677.197266 0)"/>
      <use xlink:href="#DejaVuSans-6e" transform="translate(738.720703 0)"/>
      <use xlink:href="#DejaVuSans-64" transform="translate(802.099609 0)"/>
      <use xlink:href="#DejaVuSans-29" transform="translate(865.576172 0)"/>
     </g>
    </g>
   </g>
  </g>
 </g>
 <defs>
  <clipPath id="pae2bb3ac4d">
   <rect x="46.965625" y="7.2" width="382.07" height="379.24"/>
  </clipPath>
 </defs>
</svg>
