<?xml version="1.0" encoding="utf-8" standalone="no"?>
<!DOCTYPE svg PUBLIC "-//W3C//DTD SVG 1.1//EN"
  "http://www.w3.org/Graphics/SVG/1.1/DTD/svg11.dtd">
<svg xmlns:xlink="http://www.w3.org/1999/xlink" width="568.114375pt" height="423.99625pt" viewBox="0 0 568.114375 423.99625" xmlns="http://www.w3.org/2000/svg" version="1.1">
 <metadata>
  <rdf:RDF xmlns:dc="http://purl.org/dc/elements/1.1/" xmlns:cc="http://creativecommons.org/ns#" xmlns:rdf="http://www.w3.org/1999/02/22-rdf-syntax-ns#">
   <cc:Work>
    <dc:type rdf:resource="http://purl.org/dc/dcmitype/StillImage"/>
    <dc:date>2026-04-28T13:58:22.417769</dc:date>
    <dc:format>image/svg+xml</dc:format>
    <dc:creator>
     <cc:Agent>
      <dc:title>Matplotlib v3.10.6, https://matplotlib.org/</dc:title>
     </cc:Agent>
    </dc:creator>
   </cc:Work>
  </rdf:RDF>
 </metadata>
 <defs>
  <style type="text/css">*{stroke-linejoin: round; stroke-linecap: butt}</style>
 </defs>
 <g id="figure_1">
  <g id="patch_1">
   <path d="M 0 423.99625 
L 568.114375 423.99625 
L 568.114375 0 
L 0 0 
z
" style="fill: #ffffff"/>
  </g>
  <g id="axes_1">
   <g id="patch_2">
    <path d="M 53.328125 386.44 
L 429.458125 386.44 
L 429.458125 7.2 
L 53.328125 7.2 
z
" style="fill: #ffffff"/>
   </g>
   <g id="matplotlib.axis_1">
    <g id="xtick_1">
     <g id="line2d_1">
      <path d="M 70.423233 386.44 
L 70.423233 7.2 
" clip-path="url(#p50edc72357)" style="fill: none; stroke-dasharray: 2.96,1.28; stroke-dashoffset: 0; stroke: #b0b0b0; stroke-opacity: 0.6; stroke-width: 0.8"/>
     </g>
     <g id="line2d_2">
      <defs>
       <path id="m50d4a761e3" d="M 0 0 
L 0 3.5 
" style="stroke: #000000; stroke-width: 0.8"/>
      </defs>
      <g>
       <use xlink:href="#m50d4a761e3" x="70.423233" y="386.44" style="stroke: #000000; stroke-width: 0.8"/>
      </g>
     </g>
     <g id="text_1">
      <!-- 0 -->
      <g transform="translate(67.241983 401.038437) scale(0.1 -0.1)">
       <defs>
        <path id="DejaVuSans-30" d="M 2034 4250 
Q 1547 4250 1301 3770 
Q 1056 3291 1056 2328 
Q 1056 1369 1301 889 
Q 1547 409 2034 409 
Q 2525 409 2770 889 
Q 3016 1369 3016 2328 
Q 3016 3291 2770 3770 
Q 2525 4250 2034 4250 
z
M 2034 4750 
Q 2819 4750 3233 4129 
Q 3647 3509 3647 2328 
Q 3647 1150 3233 529 
Q 2819 -91 2034 -91 
Q 1250 -91 836 529 
Q 422 1150 422 2328 
Q 422 3509 836 4129 
Q 1250 4750 2034 4750 
z
" transform="scale(0.015625)"/>
       </defs>
       <use xlink:href="#DejaVuSans-30"/>
      </g>
     </g>
    </g>
    <g id="xtick_2">
     <g id="line2d_3">
      <path d="M 113.165493 386.44 
L 113.165493 7.2 
" clip-path="url(#p50edc72357)" style="fill: none; stroke-dasharray: 2.96,1.28; stroke-dashoffset: 0; stroke: #b0b0b0; stroke-opacity: 0.6; stroke-width: 0.8"/>
     </g>
     <g id="line2d_4">
      <g>
       <use xlink:href="#m50d4a761e3" x="113.165493" y="386.44" style="stroke: #000000; stroke-width: 0.8"/>
      </g>
     </g>
     <g id="text_2">
      <!-- 25000 -->
      <g transform="translate(97.259243 401.038437) scale(0.1 -0.1)">
       <defs>
        <path id="DejaVuSans-32" d="M 1228 531 
L 3431 531 
L 3431 0 
L 469 0 
L 469 531 
Q 828 903 1448 1529 
Q 2069 2156 2228 2338 
Q 2531 2678 2651 2914 
Q 2772 3150 2772 3378 
Q 2772 3750 2511 3984 
Q 2250 4219 1831 4219 
Q 1534 4219 1204 4116 
Q 875 4013 500 3803 
L 500 4441 
Q 881 4594 1212 4672 
Q 1544 4750 1819 4750 
Q 2544 4750 2975 4387 
Q 3406 4025 3406 3419 
Q 3406 3131 3298 2873 
Q 3191 2616 2906 2266 
Q 2828 2175 2409 1742 
Q 1991 1309 1228 531 
z
" transform="scale(0.015625)"/>
        <path id="DejaVuSans-35" d="M 691 4666 
L 3169 4666 
L 3169 4134 
L 1269 4134 
L 1269 2991 
Q 1406 3038 1543 3061 
Q 1681 3084 1819 3084 
Q 2600 3084 3056 2656 
Q 3513 2228 3513 1497 
Q 3513 744 3044 326 
Q 2575 -91 1722 -91 
Q 1428 -91 1123 -41 
Q 819 9 494 109 
L 494 744 
Q 775 591 1075 516 
Q 1375 441 1709 441 
Q 2250 441 2565 725 
Q 2881 1009 2881 1497 
Q 2881 1984 2565 2268 
Q 2250 2553 1709 2553 
Q 1456 2553 1204 2497 
Q 953 2441 691 2322 
L 691 4666 
z
" transform="scale(0.015625)"/>
       </defs>
       <use xlink:href="#DejaVuSans-32"/>
       <use xlink:href="#DejaVuSans-35" transform="translate(63.623047 0)"/>
       <use xlink:href="#DejaVuSans-30" transform="translate(127.246094 0)"/>
       <use xlink:href="#DejaVuSans-30" transform="translate(190.869141 0)"/>
       <use xlink:href="#DejaVuSans-30" transform="translate(254.492188 0)"/>
      </g>
     </g>
    </g>
    <g id="xtick_3">
     <g id="line2d_5">
      <path d="M 155.907752 386.44 
L 155.907752 7.2 
" clip-path="url(#p50edc72357)" style="fill: none; stroke-dasharray: 2.96,1.28; stroke-dashoffset: 0; stroke: #b0b0b0; stroke-opacity: 0.6; stroke-width: 0.8"/>
     </g>
     <g id="line2d_6">
      <g>
       <use xlink:href="#m50d4a761e3" x="155.907752" y="386.44" style="stroke: #000000; stroke-width: 0.8"/>
      </g>
     </g>
     <g id="text_3">
      <!-- 50000 -->
      <g transform="translate(140.001502 401.038437) scale(0.1 -0.1)">
       <use xlink:href="#DejaVuSans-35"/>
       <use xlink:href="#DejaVuSans-30" transform="translate(63.623047 0)"/>
       <use xlink:href="#DejaVuSans-30" transform="translate(127.246094 0)"/>
       <use xlink:href="#DejaVuSans-30" transform="translate(190.869141 0)"/>
       <use xlink:href="#DejaVuSans-30" transform="translate(254.492188 0)"/>
      </g>
     </g>
    </g>
    <g id="xtick_4">
     <g id="line2d_7">
      <path d="M 198.650011 386.44 
L 198.650011 7.2 
" clip-path="url(#p50edc72357)" style="fill: none; stroke-dasharray: 2.96,1.28; stroke-dashoffset: 0; stroke: #b0b0b0; stroke-opacity: 0.6; stroke-width: 0.8"/>
     </g>
     <g id="line2d_8">
      <g>
       <use xlink:href="#m50d4a761e3" x="198.650011" y="386.44" style="stroke: #000000; stroke-width: 0.8"/>
      </g>
     </g>
     <g id="text_4">
      <!-- 75000 -->
      <g transform="translate(182.743761 401.038437) scale(0.1 -0.1)">
       <defs>
        <path id="DejaVuSans-37" d="M 525 4666 
L 3525 4666 
L 3525 4397 
L 1831 0 
L 1172 0 
L 2766 4134 
L 525 4134 
L 525 4666 
z
" transform="scale(0.015625)"/>
       </defs>
       <use xlink:href="#DejaVuSans-37"/>
       <use xlink:href="#DejaVuSans-35" transform="translate(63.623047 0)"/>
       <use xlink:href="#DejaVuSans-30" transform="translate(127.246094 0)"/>
       <use xlink:href="#DejaVuSans-30" transform="translate(190.869141 0)"/>
       <use xlink:href="#DejaVuSans-30" transform="translate(254.492188 0)"/>
      </g>
     </g>
    </g>
    <g id="xtick_5">
     <g id="line2d_9">
      <path d="M 241.39227 386.44 
L 241.39227 7.2 
" clip-path="url(#p50edc72357)" style="fill: none; stroke-dasharray: 2.96,1.28; stroke-dashoffset: 0; stroke: #b0b0b0; stroke-opacity: 0.6; stroke-width: 0.8"/>
     </g>
     <g id="line2d_10">
      <g>
       <use xlink:href="#m50d4a761e3" x="241.39227" y="386.44" style="stroke: #000000; stroke-width: 0.8"/>
      </g>
     </g>
     <g id="text_5">
      <!-- 100000 -->
      <g transform="translate(222.30477 401.038437) scale(0.1 -0.1)">
       <defs>
        <path id="DejaVuSans-31" d="M 794 531 
L 1825 531 
L 1825 4091 
L 703 3866 
L 703 4441 
L 1819 4666 
L 2450 4666 
L 2450 531 
L 3481 531 
L 3481 0 
L 794 0 
L 794 531 
z
" transform="scale(0.015625)"/>
       </defs>
       <use xlink:href="#DejaVuSans-31"/>
       <use xlink:href="#DejaVuSans-30" transform="translate(63.623047 0)"/>
       <use xlink:href="#DejaVuSans-30" transform="translate(127.246094 0)"/>
       <use xlink:href="#DejaVuSans-30" transform="translate(190.869141 0)"/>
       <use xlink:href="#DejaVuSans-30" transform="translate(254.492188 0)"/>
       <use xlink:href="#DejaVuSans-30" transform="translate(318.115234 0)"/>
      </g>
     </g>
    </g>
    <g id="xtick_6">
     <g id="line2d_11">
      <path d="M 284.134529 386.44 
L 284.134529 7.2 
" clip-path="url(#p50edc72357)" style="fill: none; stroke-dasharray: 2.96,1.28; stroke-dashoffset: 0; stroke: #b0b0b0; stroke-opacity: 0.6; stroke-width: 0.8"/>
     </g>
     <g id="line2d_12">
      <g>
       <use xlink:href="#m50d4a761e3" x="284.134529" y="386.44" style="stroke: #000000; stroke-width: 0.8"/>
      </g>
     </g>
     <g id="text_6">
      <!-- 125000 -->
      <g transform="translate(265.047029 401.038437) scale(0.1 -0.1)">
       <use xlink:href="#DejaVuSans-31"/>
       <use xlink:href="#DejaVuSans-32" transform="translate(63.623047 0)"/>
       <use xlink:href="#DejaVuSans-35" transform="translate(127.246094 0)"/>
       <use xlink:href="#DejaVuSans-30" transform="translate(190.869141 0)"/>
       <use xlink:href="#DejaVuSans-30" transform="translate(254.492188 0)"/>
       <use xlink:href="#DejaVuSans-30" transform="translate(318.115234 0)"/>
      </g>
     </g>
    </g>
    <g id="xtick_7">
     <g id="line2d_13">
      <path d="M 326.876788 386.44 
L 326.876788 7.2 
" clip-path="url(#p50edc72357)" style="fill: none; stroke-dasharray: 2.96,1.28; stroke-dashoffset: 0; stroke: #b0b0b0; stroke-opacity: 0.6; stroke-width: 0.8"/>
     </g>
     <g id="line2d_14">
      <g>
       <use xlink:href="#m50d4a761e3" x="326.876788" y="386.44" style="stroke: #000000; stroke-width: 0.8"/>
      </g>
     </g>
     <g id="text_7">
      <!-- 150000 -->
      <g transform="translate(307.789288 401.038437) scale(0.1 -0.1)">
       <use xlink:href="#DejaVuSans-31"/>
       <use xlink:href="#DejaVuSans-35" transform="translate(63.623047 0)"/>
       <use xlink:href="#DejaVuSans-30" transform="translate(127.246094 0)"/>
       <use xlink:href="#DejaVuSans-30" transform="translate(190.869141 0)"/>
       <use xlink:href="#DejaVuSans-30" transform="translate(254.492188 0)"/>
       <use xlink:href="#DejaVuSans-30" transform="translate(318.115234 0)"/>
      </g>
     </g>
    </g>
    <g id="xtick_8">
     <g id="line2d_15">
      <path d="M 369.619048 386.44 
L 369.619048 7.2 
" clip-path="url(#p50edc72357)" style="fill: none; stroke-dasharray: 2.96,1.28; stroke-dashoffset: 0; stroke: #b0b0b0; stroke-opacity: 0.6; stroke-width: 0.8"/>
     </g>
     <g id="line2d_16">
      <g>
       <use xlink:href="#m50d4a761e3" x="369.619048" y="386.44" style="stroke: #000000; stroke-width: 0.8"/>
      </g>
     </g>
     <g id="text_8">
      <!-- 175000 -->
      <g transform="translate(350.531548 401.038437) scale(0.1 -0.1)">
       <use xlink:href="#DejaVuSans-31"/>
       <use xlink:href="#DejaVuSans-37" transform="translate(63.623047 0)"/>
       <use xlink:href="#DejaVuSans-35" transform="translate(127.246094 0)"/>
       <use xlink:href="#DejaVuSans-30" transform="translate(190.869141 0)"/>
       <use xlink:href="#DejaVuSans-30" transform="translate(254.492188 0)"/>
       <use xlink:href="#DejaVuSans-30" transform="translate(318.115234 0)"/>
      </g>
     </g>
    </g>
    <g id="xtick_9">
     <g id="line2d_17">
      <path d="M 412.361307 386.44 
L 412.361307 7.2 
" clip-path="url(#p50edc72357)" style="fill: none; stroke-dasharray: 2.96,1.28; stroke-dashoffset: 0; stroke: #b0b0b0; stroke-opacity: 0.6; stroke-width: 0.8"/>
     </g>
     <g id="line2d_18">
      <g>
       <use xlink:href="#m50d4a761e3" x="412.361307" y="386.44" style="stroke: #000000; stroke-width: 0.8"/>
      </g>
     </g>
     <g id="text_9">
      <!-- 200000 -->
      <g transform="translate(393.273807 401.038437) scale(0.1 -0.1)">
       <use xlink:href="#DejaVuSans-32"/>
       <use xlink:href="#DejaVuSans-30" transform="translate(63.623047 0)"/>
       <use xlink:href="#DejaVuSans-30" transform="translate(127.246094 0)"/>
       <use xlink:href="#DejaVuSans-30" transform="translate(190.869141 0)"/>
       <use xlink:href="#DejaVuSans-30" transform="translate(254.492188 0)"/>
       <use xlink:href="#DejaVuSans-30" transform="translate(318.115234 0)"/>
      </g>
     </g>
    </g>
    <g id="text_10">
     <!-- Distance from terminus [nt] -->
     <g transform="translate(171.893906 414.716562) scale(0.1 -0.1)">
      <defs>
       <path id="DejaVuSans-44" d="M 1259 4147 
L 1259 519 
L 2022 519 
Q 2988 519 3436 956 
Q 3884 1394 3884 2338 
Q 3884 3275 3436 3711 
Q 2988 4147 2022 4147 
L 1259 4147 
z
M 628 4666 
L 1925 4666 
Q 3281 4666 3915 4102 
Q 4550 3538 4550 2338 
Q 4550 1131 3912 565 
Q 3275 0 1925 0 
L 628 0 
L 628 4666 
z
" transform="scale(0.015625)"/>
       <path id="DejaVuSans-69" d="M 603 3500 
L 1178 3500 
L 1178 0 
L 603 0 
L 603 3500 
z
M 603 4863 
L 1178 4863 
L 1178 4134 
L 603 4134 
L 603 4863 
z
" transform="scale(0.015625)"/>
       <path id="DejaVuSans-73" d="M 2834 3397 
L 2834 2853 
Q 2591 2978 2328 3040 
Q 2066 3103 1784 3103 
Q 1356 3103 1142 2972 
Q 928 2841 928 2578 
Q 928 2378 1081 2264 
Q 1234 2150 1697 2047 
L 1894 2003 
Q 2506 1872 2764 1633 
Q 3022 1394 3022 966 
Q 3022 478 2636 193 
Q 2250 -91 1575 -91 
Q 1294 -91 989 -36 
Q 684 19 347 128 
L 347 722 
Q 666 556 975 473 
Q 1284 391 1588 391 
Q 1994 391 2212 530 
Q 2431 669 2431 922 
Q 2431 1156 2273 1281 
Q 2116 1406 1581 1522 
L 1381 1569 
Q 847 1681 609 1914 
Q 372 2147 372 2553 
Q 372 3047 722 3315 
Q 1072 3584 1716 3584 
Q 2034 3584 2315 3537 
Q 2597 3491 2834 3397 
z
" transform="scale(0.015625)"/>
       <path id="DejaVuSans-74" d="M 1172 4494 
L 1172 3500 
L 2356 3500 
L 2356 3053 
L 1172 3053 
L 1172 1153 
Q 1172 725 1289 603 
Q 1406 481 1766 481 
L 2356 481 
L 2356 0 
L 1766 0 
Q 1100 0 847 248 
Q 594 497 594 1153 
L 594 3053 
L 172 3053 
L 172 3500 
L 594 3500 
L 594 4494 
L 1172 4494 
z
" transform="scale(0.015625)"/>
       <path id="DejaVuSans-61" d="M 2194 1759 
Q 1497 1759 1228 1600 
Q 959 1441 959 1056 
Q 959 750 1161 570 
Q 1363 391 1709 391 
Q 2188 391 2477 730 
Q 2766 1069 2766 1631 
L 2766 1759 
L 2194 1759 
z
M 3341 1997 
L 3341 0 
L 2766 0 
L 2766 531 
Q 2569 213 2275 61 
Q 1981 -91 1556 -91 
Q 1019 -91 701 211 
Q 384 513 384 1019 
Q 384 1609 779 1909 
Q 1175 2209 1959 2209 
L 2766 2209 
L 2766 2266 
Q 2766 2663 2505 2880 
Q 2244 3097 1772 3097 
Q 1472 3097 1187 3025 
Q 903 2953 641 2809 
L 641 3341 
Q 956 3463 1253 3523 
Q 1550 3584 1831 3584 
Q 2591 3584 2966 3190 
Q 3341 2797 3341 1997 
z
" transform="scale(0.015625)"/>
       <path id="DejaVuSans-6e" d="M 3513 2113 
L 3513 0 
L 2938 0 
L 2938 2094 
Q 2938 2591 2744 2837 
Q 2550 3084 2163 3084 
Q 1697 3084 1428 2787 
Q 1159 2491 1159 1978 
L 1159 0 
L 581 0 
L 581 3500 
L 1159 3500 
L 1159 2956 
Q 1366 3272 1645 3428 
Q 1925 3584 2291 3584 
Q 2894 3584 3203 3211 
Q 3513 2838 3513 2113 
z
" transform="scale(0.015625)"/>
       <path id="DejaVuSans-63" d="M 3122 3366 
L 3122 2828 
Q 2878 2963 2633 3030 
Q 2388 3097 2138 3097 
Q 1578 3097 1268 2742 
Q 959 2388 959 1747 
Q 959 1106 1268 751 
Q 1578 397 2138 397 
Q 2388 397 2633 464 
Q 2878 531 3122 666 
L 3122 134 
Q 2881 22 2623 -34 
Q 2366 -91 2075 -91 
Q 1284 -91 818 406 
Q 353 903 353 1747 
Q 353 2603 823 3093 
Q 1294 3584 2113 3584 
Q 2378 3584 2631 3529 
Q 2884 3475 3122 3366 
z
" transform="scale(0.015625)"/>
       <path id="DejaVuSans-65" d="M 3597 1894 
L 3597 1613 
L 953 1613 
Q 991 1019 1311 708 
Q 1631 397 2203 397 
Q 2534 397 2845 478 
Q 3156 559 3463 722 
L 3463 178 
Q 3153 47 2828 -22 
Q 2503 -91 2169 -91 
Q 1331 -91 842 396 
Q 353 884 353 1716 
Q 353 2575 817 3079 
Q 1281 3584 2069 3584 
Q 2775 3584 3186 3129 
Q 3597 2675 3597 1894 
z
M 3022 2063 
Q 3016 2534 2758 2815 
Q 2500 3097 2075 3097 
Q 1594 3097 1305 2825 
Q 1016 2553 972 2059 
L 3022 2063 
z
" transform="scale(0.015625)"/>
       <path id="DejaVuSans-20" transform="scale(0.015625)"/>
       <path id="DejaVuSans-66" d="M 2375 4863 
L 2375 4384 
L 1825 4384 
Q 1516 4384 1395 4259 
Q 1275 4134 1275 3809 
L 1275 3500 
L 2222 3500 
L 2222 3053 
L 1275 3053 
L 1275 0 
L 697 0 
L 697 3053 
L 147 3053 
L 147 3500 
L 697 3500 
L 697 3744 
Q 697 4328 969 4595 
Q 1241 4863 1831 4863 
L 2375 4863 
z
" transform="scale(0.015625)"/>
       <path id="DejaVuSans-72" d="M 2631 2963 
Q 2534 3019 2420 3045 
Q 2306 3072 2169 3072 
Q 1681 3072 1420 2755 
Q 1159 2438 1159 1844 
L 1159 0 
L 581 0 
L 581 3500 
L 1159 3500 
L 1159 2956 
Q 1341 3275 1631 3429 
Q 1922 3584 2338 3584 
Q 2397 3584 2469 3576 
Q 2541 3569 2628 3553 
L 2631 2963 
z
" transform="scale(0.015625)"/>
       <path id="DejaVuSans-6f" d="M 1959 3097 
Q 1497 3097 1228 2736 
Q 959 2375 959 1747 
Q 959 1119 1226 758 
Q 1494 397 1959 397 
Q 2419 397 2687 759 
Q 2956 1122 2956 1747 
Q 2956 2369 2687 2733 
Q 2419 3097 1959 3097 
z
M 1959 3584 
Q 2709 3584 3137 3096 
Q 3566 2609 3566 1747 
Q 3566 888 3137 398 
Q 2709 -91 1959 -91 
Q 1206 -91 779 398 
Q 353 888 353 1747 
Q 353 2609 779 3096 
Q 1206 3584 1959 3584 
z
" transform="scale(0.015625)"/>
       <path id="DejaVuSans-6d" d="M 3328 2828 
Q 3544 3216 3844 3400 
Q 4144 3584 4550 3584 
Q 5097 3584 5394 3201 
Q 5691 2819 5691 2113 
L 5691 0 
L 5113 0 
L 5113 2094 
Q 5113 2597 4934 2840 
Q 4756 3084 4391 3084 
Q 3944 3084 3684 2787 
Q 3425 2491 3425 1978 
L 3425 0 
L 2847 0 
L 2847 2094 
Q 2847 2600 2669 2842 
Q 2491 3084 2119 3084 
Q 1678 3084 1418 2786 
Q 1159 2488 1159 1978 
L 1159 0 
L 581 0 
L 581 3500 
L 1159 3500 
L 1159 2956 
Q 1356 3278 1631 3431 
Q 1906 3584 2284 3584 
Q 2666 3584 2933 3390 
Q 3200 3197 3328 2828 
z
" transform="scale(0.015625)"/>
       <path id="DejaVuSans-75" d="M 544 1381 
L 544 3500 
L 1119 3500 
L 1119 1403 
Q 1119 906 1312 657 
Q 1506 409 1894 409 
Q 2359 409 2629 706 
Q 2900 1003 2900 1516 
L 2900 3500 
L 3475 3500 
L 3475 0 
L 2900 0 
L 2900 538 
Q 2691 219 2414 64 
Q 2138 -91 1772 -91 
Q 1169 -91 856 284 
Q 544 659 544 1381 
z
M 1991 3584 
L 1991 3584 
z
" transform="scale(0.015625)"/>
       <path id="DejaVuSans-5b" d="M 550 4863 
L 1875 4863 
L 1875 4416 
L 1125 4416 
L 1125 -397 
L 1875 -397 
L 1875 -844 
L 550 -844 
L 550 4863 
z
" transform="scale(0.015625)"/>
       <path id="DejaVuSans-5d" d="M 1947 4863 
L 1947 -844 
L 622 -844 
L 622 -397 
L 1369 -397 
L 1369 4416 
L 622 4416 
L 622 4863 
L 1947 4863 
z
" transform="scale(0.015625)"/>
      </defs>
      <use xlink:href="#DejaVuSans-44"/>
      <use xlink:href="#DejaVuSans-69" transform="translate(77.001953 0)"/>
      <use xlink:href="#DejaVuSans-73" transform="translate(104.785156 0)"/>
      <use xlink:href="#DejaVuSans-74" transform="translate(156.884766 0)"/>
      <use xlink:href="#DejaVuSans-61" transform="translate(196.09375 0)"/>
      <use xlink:href="#DejaVuSans-6e" transform="translate(257.373047 0)"/>
      <use xlink:href="#DejaVuSans-63" transform="translate(320.751953 0)"/>
      <use xlink:href="#DejaVuSans-65" transform="translate(375.732422 0)"/>
      <use xlink:href="#DejaVuSans-20" transform="translate(437.255859 0)"/>
      <use xlink:href="#DejaVuSans-66" transform="translate(469.042969 0)"/>
      <use xlink:href="#DejaVuSans-72" transform="translate(504.248047 0)"/>
      <use xlink:href="#DejaVuSans-6f" transform="translate(543.111328 0)"/>
      <use xlink:href="#DejaVuSans-6d" transform="translate(604.292969 0)"/>
      <use xlink:href="#DejaVuSans-20" transform="translate(701.705078 0)"/>
      <use xlink:href="#DejaVuSans-74" transform="translate(733.492188 0)"/>
      <use xlink:href="#DejaVuSans-65" transform="translate(772.701172 0)"/>
      <use xlink:href="#DejaVuSans-72" transform="translate(834.224609 0)"/>
      <use xlink:href="#DejaVuSans-6d" transform="translate(873.587891 0)"/>
      <use xlink:href="#DejaVuSans-69" transform="translate(971 0)"/>
      <use xlink:href="#DejaVuSans-6e" transform="translate(998.783203 0)"/>
      <use xlink:href="#DejaVuSans-75" transform="translate(1062.162109 0)"/>
      <use xlink:href="#DejaVuSans-73" transform="translate(1125.541016 0)"/>
      <use xlink:href="#DejaVuSans-20" transform="translate(1177.640625 0)"/>
      <use xlink:href="#DejaVuSans-5b" transform="translate(1209.427734 0)"/>
      <use xlink:href="#DejaVuSans-6e" transform="translate(1248.441406 0)"/>
      <use xlink:href="#DejaVuSans-74" transform="translate(1311.820312 0)"/>
      <use xlink:href="#DejaVuSans-5d" transform="translate(1351.029297 0)"/>
     </g>
    </g>
   </g>
   <g id="matplotlib.axis_2">
    <g id="ytick_1">
     <g id="line2d_19">
      <path d="M 53.328125 369.201818 
L 429.458125 369.201818 
" clip-path="url(#p50edc72357)" style="fill: none; stroke-dasharray: 2.96,1.28; stroke-dashoffset: 0; stroke: #b0b0b0; stroke-opacity: 0.6; stroke-width: 0.8"/>
     </g>
     <g id="line2d_20">
      <defs>
       <path id="m3d95d7d6e0" d="M 0 0 
L -3.5 0 
" style="stroke: #000000; stroke-width: 0.8"/>
      </defs>
      <g>
       <use xlink:href="#m3d95d7d6e0" x="53.328125" y="369.201818" style="stroke: #000000; stroke-width: 0.8"/>
      </g>
     </g>
     <g id="text_11">
      <!-- 0 -->
      <g transform="translate(39.965625 373.001037) scale(0.1 -0.1)">
       <use xlink:href="#DejaVuSans-30"/>
      </g>
     </g>
    </g>
    <g id="ytick_2">
     <g id="line2d_21">
      <path d="M 53.328125 298.949422 
L 429.458125 298.949422 
" clip-path="url(#p50edc72357)" style="fill: none; stroke-dasharray: 2.96,1.28; stroke-dashoffset: 0; stroke: #b0b0b0; stroke-opacity: 0.6; stroke-width: 0.8"/>
     </g>
     <g id="line2d_22">
      <g>
       <use xlink:href="#m3d95d7d6e0" x="53.328125" y="298.949422" style="stroke: #000000; stroke-width: 0.8"/>
      </g>
     </g>
     <g id="text_12">
      <!-- 200 -->
      <g transform="translate(27.240625 302.74864) scale(0.1 -0.1)">
       <use xlink:href="#DejaVuSans-32"/>
       <use xlink:href="#DejaVuSans-30" transform="translate(63.623047 0)"/>
       <use xlink:href="#DejaVuSans-30" transform="translate(127.246094 0)"/>
      </g>
     </g>
    </g>
    <g id="ytick_3">
     <g id="line2d_23">
      <path d="M 53.328125 228.697025 
L 429.458125 228.697025 
" clip-path="url(#p50edc72357)" style="fill: none; stroke-dasharray: 2.96,1.28; stroke-dashoffset: 0; stroke: #b0b0b0; stroke-opacity: 0.6; stroke-width: 0.8"/>
     </g>
     <g id="line2d_24">
      <g>
       <use xlink:href="#m3d95d7d6e0" x="53.328125" y="228.697025" style="stroke: #000000; stroke-width: 0.8"/>
      </g>
     </g>
     <g id="text_13">
      <!-- 400 -->
      <g transform="translate(27.240625 232.496244) scale(0.1 -0.1)">
       <defs>
        <path id="DejaVuSans-34" d="M 2419 4116 
L 825 1625 
L 2419 1625 
L 2419 4116 
z
M 2253 4666 
L 3047 4666 
L 3047 1625 
L 3713 1625 
L 3713 1100 
L 3047 1100 
L 3047 0 
L 2419 0 
L 2419 1100 
L 313 1100 
L 313 1709 
L 2253 4666 
z
" transform="scale(0.015625)"/>
       </defs>
       <use xlink:href="#DejaVuSans-34"/>
       <use xlink:href="#DejaVuSans-30" transform="translate(63.623047 0)"/>
       <use xlink:href="#DejaVuSans-30" transform="translate(127.246094 0)"/>
      </g>
     </g>
    </g>
    <g id="ytick_4">
     <g id="line2d_25">
      <path d="M 53.328125 158.444628 
L 429.458125 158.444628 
" clip-path="url(#p50edc72357)" style="fill: none; stroke-dasharray: 2.96,1.28; stroke-dashoffset: 0; stroke: #b0b0b0; stroke-opacity: 0.6; stroke-width: 0.8"/>
     </g>
     <g id="line2d_26">
      <g>
       <use xlink:href="#m3d95d7d6e0" x="53.328125" y="158.444628" style="stroke: #000000; stroke-width: 0.8"/>
      </g>
     </g>
     <g id="text_14">
      <!-- 600 -->
      <g transform="translate(27.240625 162.243847) scale(0.1 -0.1)">
       <defs>
        <path id="DejaVuSans-36" d="M 2113 2584 
Q 1688 2584 1439 2293 
Q 1191 2003 1191 1497 
Q 1191 994 1439 701 
Q 1688 409 2113 409 
Q 2538 409 2786 701 
Q 3034 994 3034 1497 
Q 3034 2003 2786 2293 
Q 2538 2584 2113 2584 
z
M 3366 4563 
L 3366 3988 
Q 3128 4100 2886 4159 
Q 2644 4219 2406 4219 
Q 1781 4219 1451 3797 
Q 1122 3375 1075 2522 
Q 1259 2794 1537 2939 
Q 1816 3084 2150 3084 
Q 2853 3084 3261 2657 
Q 3669 2231 3669 1497 
Q 3669 778 3244 343 
Q 2819 -91 2113 -91 
Q 1303 -91 875 529 
Q 447 1150 447 2328 
Q 447 3434 972 4092 
Q 1497 4750 2381 4750 
Q 2619 4750 2861 4703 
Q 3103 4656 3366 4563 
z
" transform="scale(0.015625)"/>
       </defs>
       <use xlink:href="#DejaVuSans-36"/>
       <use xlink:href="#DejaVuSans-30" transform="translate(63.623047 0)"/>
       <use xlink:href="#DejaVuSans-30" transform="translate(127.246094 0)"/>
      </g>
     </g>
    </g>
    <g id="ytick_5">
     <g id="line2d_27">
      <path d="M 53.328125 88.192232 
L 429.458125 88.192232 
" clip-path="url(#p50edc72357)" style="fill: none; stroke-dasharray: 2.96,1.28; stroke-dashoffset: 0; stroke: #b0b0b0; stroke-opacity: 0.6; stroke-width: 0.8"/>
     </g>
     <g id="line2d_28">
      <g>
       <use xlink:href="#m3d95d7d6e0" x="53.328125" y="88.192232" style="stroke: #000000; stroke-width: 0.8"/>
      </g>
     </g>
     <g id="text_15">
      <!-- 800 -->
      <g transform="translate(27.240625 91.99145) scale(0.1 -0.1)">
       <defs>
        <path id="DejaVuSans-38" d="M 2034 2216 
Q 1584 2216 1326 1975 
Q 1069 1734 1069 1313 
Q 1069 891 1326 650 
Q 1584 409 2034 409 
Q 2484 409 2743 651 
Q 3003 894 3003 1313 
Q 3003 1734 2745 1975 
Q 2488 2216 2034 2216 
z
M 1403 2484 
Q 997 2584 770 2862 
Q 544 3141 544 3541 
Q 544 4100 942 4425 
Q 1341 4750 2034 4750 
Q 2731 4750 3128 4425 
Q 3525 4100 3525 3541 
Q 3525 3141 3298 2862 
Q 3072 2584 2669 2484 
Q 3125 2378 3379 2068 
Q 3634 1759 3634 1313 
Q 3634 634 3220 271 
Q 2806 -91 2034 -91 
Q 1263 -91 848 271 
Q 434 634 434 1313 
Q 434 1759 690 2068 
Q 947 2378 1403 2484 
z
M 1172 3481 
Q 1172 3119 1398 2916 
Q 1625 2713 2034 2713 
Q 2441 2713 2670 2916 
Q 2900 3119 2900 3481 
Q 2900 3844 2670 4047 
Q 2441 4250 2034 4250 
Q 1625 4250 1398 4047 
Q 1172 3844 1172 3481 
z
" transform="scale(0.015625)"/>
       </defs>
       <use xlink:href="#DejaVuSans-38"/>
       <use xlink:href="#DejaVuSans-30" transform="translate(63.623047 0)"/>
       <use xlink:href="#DejaVuSans-30" transform="translate(127.246094 0)"/>
      </g>
     </g>
    </g>
    <g id="ytick_6">
     <g id="line2d_29">
      <path d="M 53.328125 17.939835 
L 429.458125 17.939835 
" clip-path="url(#p50edc72357)" style="fill: none; stroke-dasharray: 2.96,1.28; stroke-dashoffset: 0; stroke: #b0b0b0; stroke-opacity: 0.6; stroke-width: 0.8"/>
     </g>
     <g id="line2d_30">
      <g>
       <use xlink:href="#m3d95d7d6e0" x="53.328125" y="17.939835" style="stroke: #000000; stroke-width: 0.8"/>
      </g>
     </g>
     <g id="text_16">
      <!-- 1000 -->
      <g transform="translate(20.878125 21.739054) scale(0.1 -0.1)">
       <use xlink:href="#DejaVuSans-31"/>
       <use xlink:href="#DejaVuSans-30" transform="translate(63.623047 0)"/>
       <use xlink:href="#DejaVuSans-30" transform="translate(127.246094 0)"/>
       <use xlink:href="#DejaVuSans-30" transform="translate(190.869141 0)"/>
      </g>
     </g>
    </g>
    <g id="text_17">
     <!-- Average cumulative count -->
     <g transform="translate(14.798438 262.4325) rotate(-90) scale(0.1 -0.1)">
      <defs>
       <path id="DejaVuSans-41" d="M 2188 4044 
L 1331 1722 
L 3047 1722 
L 2188 4044 
z
M 1831 4666 
L 2547 4666 
L 4325 0 
L 3669 0 
L 3244 1197 
L 1141 1197 
L 716 0 
L 50 0 
L 1831 4666 
z
" transform="scale(0.015625)"/>
       <path id="DejaVuSans-76" d="M 191 3500 
L 800 3500 
L 1894 563 
L 2988 3500 
L 3597 3500 
L 2284 0 
L 1503 0 
L 191 3500 
z
" transform="scale(0.015625)"/>
       <path id="DejaVuSans-67" d="M 2906 1791 
Q 2906 2416 2648 2759 
Q 2391 3103 1925 3103 
Q 1463 3103 1205 2759 
Q 947 2416 947 1791 
Q 947 1169 1205 825 
Q 1463 481 1925 481 
Q 2391 481 2648 825 
Q 2906 1169 2906 1791 
z
M 3481 434 
Q 3481 -459 3084 -895 
Q 2688 -1331 1869 -1331 
Q 1566 -1331 1297 -1286 
Q 1028 -1241 775 -1147 
L 775 -588 
Q 1028 -725 1275 -790 
Q 1522 -856 1778 -856 
Q 2344 -856 2625 -561 
Q 2906 -266 2906 331 
L 2906 616 
Q 2728 306 2450 153 
Q 2172 0 1784 0 
Q 1141 0 747 490 
Q 353 981 353 1791 
Q 353 2603 747 3093 
Q 1141 3584 1784 3584 
Q 2172 3584 2450 3431 
Q 2728 3278 2906 2969 
L 2906 3500 
L 3481 3500 
L 3481 434 
z
" transform="scale(0.015625)"/>
       <path id="DejaVuSans-6c" d="M 603 4863 
L 1178 4863 
L 1178 0 
L 603 0 
L 603 4863 
z
" transform="scale(0.015625)"/>
      </defs>
      <use xlink:href="#DejaVuSans-41"/>
      <use xlink:href="#DejaVuSans-76" transform="translate(62.533203 0)"/>
      <use xlink:href="#DejaVuSans-65" transform="translate(121.712891 0)"/>
      <use xlink:href="#DejaVuSans-72" transform="translate(183.236328 0)"/>
      <use xlink:href="#DejaVuSans-61" transform="translate(224.349609 0)"/>
      <use xlink:href="#DejaVuSans-67" transform="translate(285.628906 0)"/>
      <use xlink:href="#DejaVuSans-65" transform="translate(349.105469 0)"/>
      <use xlink:href="#DejaVuSans-20" transform="translate(410.628906 0)"/>
      <use xlink:href="#DejaVuSans-63" transform="translate(442.416016 0)"/>
      <use xlink:href="#DejaVuSans-75" transform="translate(497.396484 0)"/>
      <use xlink:href="#DejaVuSans-6d" transform="translate(560.775391 0)"/>
      <use xlink:href="#DejaVuSans-75" transform="translate(658.1875 0)"/>
      <use xlink:href="#DejaVuSans-6c" transform="translate(721.566406 0)"/>
      <use xlink:href="#DejaVuSans-61" transform="translate(749.349609 0)"/>
      <use xlink:href="#DejaVuSans-74" transform="translate(810.628906 0)"/>
      <use xlink:href="#DejaVuSans-69" transform="translate(849.837891 0)"/>
      <use xlink:href="#DejaVuSans-76" transform="translate(877.621094 0)"/>
      <use xlink:href="#DejaVuSans-65" transform="translate(936.800781 0)"/>
      <use xlink:href="#DejaVuSans-20" transform="translate(998.324219 0)"/>
      <use xlink:href="#DejaVuSans-63" transform="translate(1030.111328 0)"/>
      <use xlink:href="#DejaVuSans-6f" transform="translate(1085.091797 0)"/>
      <use xlink:href="#DejaVuSans-75" transform="translate(1146.273438 0)"/>
      <use xlink:href="#DejaVuSans-6e" transform="translate(1209.652344 0)"/>
      <use xlink:href="#DejaVuSans-74" transform="translate(1273.03125 0)"/>
     </g>
    </g>
   </g>
   <g id="line2d_31">
    <path d="M 412.361307 369.201818 
L 396.156862 369.201818 
L 396.045732 369.026187 
L 395.975634 369.026187 
L 395.864504 368.850556 
L 376.389422 368.850556 
L 376.278292 368.674925 
L 342.638424 368.674925 
L 342.527294 368.499294 
L 309.708078 368.499294 
L 309.596948 368.323663 
L 277.114541 368.323663 
L 277.003411 368.148032 
L 252.074416 368.148032 
L 251.963286 367.972401 
L 250.578436 367.972401 
L 250.467307 367.79677 
L 234.208151 367.79677 
L 234.097021 367.621139 
L 226.285446 367.621139 
L 226.174316 367.445508 
L 215.793076 367.445508 
L 215.681946 367.269877 
L 212.219823 367.269877 
L 212.108694 367.094246 
L 209.212478 367.094246 
L 209.101348 366.918615 
L 207.827629 366.918615 
L 207.716499 366.742984 
L 203.614952 366.742984 
L 203.502112 366.391722 
L 203.435434 366.391722 
L 203.324304 366.216091 
L 203.314046 366.216091 
L 203.202916 366.04046 
L 203.146497 366.04046 
L 203.035367 365.864829 
L 202.197618 365.864829 
L 202.086489 365.689198 
L 200.501606 365.689198 
L 200.388766 365.337936 
L 200.228055 365.337936 
L 200.115216 364.986674 
L 198.453397 364.986674 
L 198.340557 364.635412 
L 198.311492 364.635412 
L 198.193524 363.757257 
L 198.188395 363.757257 
L 198.077265 363.581626 
L 197.256613 363.581626 
L 197.143774 363.230364 
L 197.138645 363.230364 
L 197.027515 363.054733 
L 196.786448 363.054733 
L 196.673609 362.703471 
L 196.588124 362.703471 
L 196.471865 362.000948 
L 196.254735 362.000948 
L 196.143605 361.825317 
L 196.102572 361.825317 
L 195.991442 361.649686 
L 195.95041 361.649686 
L 195.83928 361.474055 
L 195.569149 361.474055 
L 195.456309 361.122793 
L 195.45118 361.122793 
L 195.333212 360.244638 
L 195.23405 360.244638 
L 195.117791 359.542114 
L 195.087016 359.542114 
L 194.972467 359.015221 
L 194.223623 359.015221 
L 194.112493 358.83959 
L 193.787652 358.83959 
L 193.676522 358.663959 
L 193.469649 358.663959 
L 193.358519 358.488328 
L 192.831935 358.488328 
L 192.720805 358.312697 
L 192.368609 358.312697 
L 192.255769 357.961435 
L 192.243801 357.961435 
L 192.132671 357.785804 
L 192.127542 357.785804 
L 192.016412 357.610173 
L 191.872798 357.610173 
L 191.761669 357.434542 
L 191.746281 357.434542 
L 191.630022 356.732018 
L 190.968372 356.732018 
L 190.855533 356.380756 
L 190.674305 356.380756 
L 190.559756 355.853863 
L 190.549498 355.853863 
L 190.434949 355.32697 
L 190.42982 355.32697 
L 190.31527 354.800077 
L 190.243463 354.800077 
L 190.130624 354.448815 
L 190.091301 354.448815 
L 189.976752 353.921922 
L 189.915203 353.921922 
L 189.802363 353.57066 
L 187.663541 353.57066 
L 187.550701 353.219398 
L 187.236118 353.219398 
L 187.124988 353.043767 
L 187.063439 353.043767 
L 186.945471 352.165612 
L 186.899309 352.165612 
L 186.78647 351.81435 
L 186.642856 351.81435 
L 186.531726 351.638719 
L 186.490693 351.638719 
L 186.377854 351.287457 
L 186.336821 351.287457 
L 186.222272 350.760564 
L 185.760655 350.760564 
L 185.647816 350.409302 
L 185.526428 350.409302 
L 185.410169 349.706778 
L 185.398201 349.706778 
L 185.287071 349.531147 
L 183.081571 349.531147 
L 182.967021 349.004254 
L 182.927698 349.004254 
L 182.814859 348.652992 
L 182.671245 348.652992 
L 182.558405 348.30173 
L 182.337855 348.30173 
L 182.221596 347.599206 
L 182.180564 347.599206 
L 182.067724 347.247944 
L 181.990788 347.247944 
L 181.879658 347.072313 
L 181.830077 347.072313 
L 181.718947 346.896682 
L 181.717238 346.896682 
L 181.606108 346.721051 
L 181.460784 346.721051 
L 181.347944 346.369789 
L 181.163298 346.369789 
L 181.052168 346.194158 
L 180.794005 346.194158 
L 180.679456 345.667265 
L 180.503357 345.667265 
L 180.392228 345.491634 
L 180.27084 345.491634 
L 180.15971 345.316003 
L 179.860514 345.316003 
L 179.747674 344.964741 
L 179.694674 344.964741 
L 179.581834 344.613479 
L 179.286058 344.613479 
L 179.174928 344.437848 
L 179.128766 344.437848 
L 179.012507 343.735324 
L 178.920184 343.735324 
L 178.809054 343.559693 
L 178.629537 343.559693 
L 178.516697 343.208431 
L 178.155953 343.208431 
L 178.043113 342.857169 
L 177.911467 342.857169 
L 177.798627 342.505907 
L 177.39514 342.505907 
L 177.28401 342.330276 
L 177.265204 342.330276 
L 177.154074 342.154645 
L 176.51294 342.154645 
L 176.40181 341.979014 
L 176.377875 341.979014 
L 176.265035 341.627753 
L 176.188099 341.627753 
L 176.07355 341.10086 
L 175.671772 341.10086 
L 175.557223 340.573967 
L 175.215285 340.573967 
L 175.102446 340.222705 
L 174.941735 340.222705 
L 174.830605 340.047074 
L 174.562183 340.047074 
L 174.451054 339.871443 
L 174.309149 339.871443 
L 174.198019 339.695812 
L 172.491748 339.695812 
L 172.380619 339.520181 
L 172.243843 339.520181 
L 172.129294 338.993288 
L 171.871131 338.993288 
L 171.754872 338.290764 
L 171.71042 338.290764 
L 171.592451 337.412609 
L 171.587322 337.412609 
L 171.474483 337.061347 
L 171.471063 337.061347 
L 171.356514 336.534454 
L 171.301804 336.534454 
L 171.188964 336.183192 
L 171.084673 336.183192 
L 170.968414 335.480668 
L 170.838478 335.480668 
L 170.723929 334.953775 
L 170.60596 334.953775 
L 170.486282 333.899989 
L 170.241796 333.899989 
L 170.130666 333.724358 
L 170.022955 333.724358 
L 169.910116 333.373096 
L 169.893019 333.373096 
L 169.77847 332.846203 
L 169.768212 332.846203 
L 169.655372 332.494941 
L 169.427983 332.494941 
L 169.313434 331.968048 
L 169.109981 331.968048 
L 168.992012 331.089893 
L 168.923625 331.089893 
L 168.812495 330.914262 
L 168.747526 330.914262 
L 168.632977 330.387369 
L 168.258555 330.387369 
L 168.147425 330.211738 
L 168.138877 330.211738 
L 168.022618 329.509214 
L 167.207095 329.509214 
L 167.092546 328.982321 
L 167.089127 328.982321 
L 166.977997 328.80669 
L 166.201798 328.80669 
L 166.088958 328.455428 
L 165.716245 328.455428 
L 165.603406 328.104166 
L 165.505954 328.104166 
L 165.391404 327.577273 
L 165.273436 327.577273 
L 165.162306 327.401642 
L 165.148628 327.401642 
L 165.035789 327.05038 
L 164.442526 327.05038 
L 164.329687 326.699118 
L 163.895425 326.699118 
L 163.782586 326.347856 
L 163.722746 326.347856 
L 163.606488 325.645332 
L 163.572294 325.645332 
L 163.461164 325.469701 
L 162.973902 325.469701 
L 162.862772 325.29407 
L 162.859353 325.29407 
L 162.748223 325.118439 
L 162.746513 325.118439 
L 162.633674 324.767177 
L 162.131025 324.767177 
L 162.016476 324.240284 
L 161.836958 324.240284 
L 161.722409 323.713391 
L 161.546311 323.713391 
L 161.435181 323.53776 
L 161.062468 323.53776 
L 160.949629 323.186498 
L 160.876112 323.186498 
L 160.763272 322.835236 
L 160.681207 322.835236 
L 160.568368 322.483974 
L 160.561529 322.483974 
L 160.44356 321.605819 
L 160.339269 321.605819 
L 160.22472 321.078927 
L 160.188817 321.078927 
L 160.077687 320.903296 
L 160.026396 320.903296 
L 159.913556 320.552034 
L 159.754555 320.552034 
L 159.641716 320.200772 
L 159.128808 320.200772 
L 159.017679 320.025141 
L 158.986904 320.025141 
L 158.874065 319.673879 
L 158.320125 319.673879 
L 158.207285 319.322617 
L 158.195318 319.322617 
L 158.082478 318.971355 
L 157.949122 318.971355 
L 157.837992 318.795724 
L 157.829444 318.795724 
L 157.718314 318.620093 
L 157.482377 318.620093 
L 157.366118 317.917569 
L 157.321666 317.917569 
L 157.208826 317.566307 
L 157.097696 317.566307 
L 156.986566 317.390676 
L 156.926727 317.390676 
L 156.813888 317.039414 
L 156.666854 317.039414 
L 156.552305 316.512521 
L 156.46853 316.512521 
L 156.3574 316.33689 
L 156.268496 316.33689 
L 156.157367 316.161259 
L 156.087269 316.161259 
L 155.976139 315.985628 
L 155.953913 315.985628 
L 155.842784 315.809997 
L 155.812009 315.809997 
L 155.700879 315.634366 
L 155.623943 315.634366 
L 155.512813 315.458735 
L 155.282005 315.458735 
L 155.169166 315.107473 
L 155.112746 315.107473 
L 155.001616 314.931842 
L 154.970842 314.931842 
L 154.859712 314.756211 
L 154.610097 314.756211 
L 154.497257 314.404949 
L 154.194642 314.404949 
L 154.080093 313.878056 
L 153.786026 313.878056 
L 153.674896 313.702425 
L 153.635573 313.702425 
L 153.522734 313.351163 
L 153.426991 313.351163 
L 153.315861 313.175532 
L 153.278248 313.175532 
L 153.161989 312.473008 
L 152.838858 312.473008 
L 152.724308 311.946115 
L 152.71576 311.946115 
L 152.60463 311.770484 
L 152.461016 311.770484 
L 152.349886 311.594853 
L 152.255853 311.594853 
L 152.144723 311.419222 
L 152.096852 311.419222 
L 151.980593 310.716698 
L 151.648913 310.716698 
L 151.532654 310.014174 
L 151.399298 310.014174 
L 151.286459 309.662912 
L 151.284749 309.662912 
L 151.1702 309.136019 
L 151.06078 309.136019 
L 150.94965 308.960388 
L 150.944521 308.960388 
L 150.826552 308.082233 
L 150.816294 308.082233 
L 150.705164 307.906602 
L 150.624809 307.906602 
L 150.50855 307.204078 
L 150.363226 307.204078 
L 150.250386 306.852816 
L 150.058901 306.852816 
L 149.947771 306.677185 
L 149.106604 306.677185 
L 148.995474 306.501554 
L 148.933925 306.501554 
L 148.821085 306.150292 
L 148.730472 306.150292 
L 148.619342 305.974661 
L 148.280823 305.974661 
L 148.167984 305.623399 
L 148.091047 305.623399 
L 147.979918 305.447768 
L 147.950853 305.447768 
L 147.838013 305.096506 
L 147.670464 305.096506 
L 147.557624 304.745244 
L 147.501204 304.745244 
L 147.388365 304.393982 
L 147.381526 304.393982 
L 147.266977 303.867089 
L 147.08404 303.867089 
L 146.97291 303.691458 
L 146.897684 303.691458 
L 146.786554 303.515827 
L 146.612165 303.515827 
L 146.495906 302.813303 
L 146.449745 302.813303 
L 146.338615 302.637672 
L 146.335195 302.637672 
L 146.224066 302.462041 
L 145.964193 302.462041 
L 145.847934 301.759517 
L 145.582932 301.759517 
L 145.466673 301.056993 
L 145.463253 301.056993 
L 145.346994 300.35447 
L 145.26151 300.35447 
L 145.14867 300.003208 
L 144.998218 300.003208 
L 144.885378 299.651946 
L 144.333148 299.651946 
L 144.216889 298.949422 
L 144.206631 298.949422 
L 144.093791 298.59816 
L 143.895467 298.59816 
L 143.784337 298.422529 
L 143.65782 298.422529 
L 143.543271 297.895636 
L 143.488561 297.895636 
L 143.377431 297.720005 
L 143.281688 297.720005 
L 143.168849 297.368743 
L 142.874782 297.368743 
L 142.761943 297.017481 
L 142.753394 297.017481 
L 142.642264 296.84185 
L 142.339649 296.84185 
L 142.22339 296.139326 
L 142.204584 296.139326 
L 142.091744 295.788064 
L 142.072937 295.788064 
L 141.94813 294.207385 
L 141.901968 294.207385 
L 141.784 293.32923 
L 141.765193 293.32923 
L 141.654063 293.153599 
L 141.141156 293.153599 
L 141.021478 292.099813 
L 141.016349 292.099813 
L 140.89838 291.221658 
L 140.614571 291.221658 
L 140.491474 289.81661 
L 140.489764 289.81661 
L 140.364957 288.235931 
L 140.359828 288.235931 
L 140.233311 286.479621 
L 140.202536 286.479621 
L 140.079438 285.074573 
L 140.019599 285.074573 
L 139.908469 284.898942 
L 139.195528 284.898942 
L 139.080979 284.372049 
L 139.067302 284.372049 
L 138.951043 283.669525 
L 138.915139 283.669525 
L 138.804009 283.493894 
L 138.682621 283.493894 
L 138.566362 282.79137 
L 138.362909 282.79137 
L 138.251779 282.615739 
L 138.229553 282.615739 
L 138.116714 282.264477 
L 137.9731 282.264477 
L 137.86197 282.088846 
L 137.810679 282.088846 
L 137.699549 281.913215 
L 137.470451 281.913215 
L 137.359321 281.737584 
L 137.342224 281.737584 
L 137.229385 281.386322 
L 137.215707 281.386322 
L 137.097738 280.508167 
L 137.082351 280.508167 
L 136.967802 279.981274 
L 136.950705 279.981274 
L 136.839575 279.805643 
L 136.767768 279.805643 
L 136.656638 279.630013 
L 136.625864 279.630013 
L 136.514734 279.454382 
L 136.494218 279.454382 
L 136.381378 279.10312 
L 136.155699 279.10312 
L 136.036021 278.049334 
L 135.918052 278.049334 
L 135.806922 277.873703 
L 135.570985 277.873703 
L 135.456436 277.34681 
L 135.401726 277.34681 
L 135.285467 276.644286 
L 135.26837 276.644286 
L 135.15553 276.293024 
L 134.982851 276.293024 
L 134.866592 275.5905 
L 134.856334 275.5905 
L 134.740075 274.887976 
L 134.731527 274.887976 
L 134.613558 274.009821 
L 134.611849 274.009821 
L 134.497299 273.482928 
L 134.475073 273.482928 
L 134.362234 273.131666 
L 134.297266 273.131666 
L 134.175878 271.902249 
L 134.16391 271.902249 
L 134.04936 271.375356 
L 134.022005 271.375356 
L 133.905746 270.672832 
L 133.861295 270.672832 
L 133.748455 270.32157 
L 133.572357 270.32157 
L 133.459517 269.970308 
L 133.44242 269.970308 
L 133.329581 269.619046 
L 133.327871 269.619046 
L 133.216741 269.443415 
L 133.069708 269.443415 
L 132.95003 268.389629 
L 132.941481 268.389629 
L 132.823512 267.511474 
L 132.808125 267.511474 
L 132.683318 265.930795 
L 132.645705 265.930795 
L 132.522607 264.525747 
L 132.500381 264.525747 
L 132.382412 263.647592 
L 132.372154 263.647592 
L 132.257605 263.120699 
L 132.170411 263.120699 
L 132.057571 262.769437 
L 132.055862 262.769437 
L 131.941312 262.242544 
L 131.934474 262.242544 
L 131.811376 260.837496 
L 131.806247 260.837496 
L 131.686568 259.78371 
L 131.683149 259.78371 
L 131.5686 259.256817 
L 131.426695 259.256817 
L 131.308727 258.378663 
L 131.23863 258.378663 
L 131.120661 257.500508 
L 131.079628 257.500508 
L 130.95995 256.446722 
L 130.939434 256.446722 
L 130.821465 255.568567 
L 130.79411 255.568567 
L 130.676141 254.690412 
L 130.671012 254.690412 
L 130.558173 253.987888 
L 130.542786 253.987888 
L 130.431656 253.812257 
L 130.30001 253.812257 
L 130.18888 253.636626 
L 130.017911 253.636626 
L 129.906781 253.460995 
L 129.879426 253.460995 
L 129.764876 252.934102 
L 129.740941 252.934102 
L 129.622972 252.055947 
L 129.602456 252.055947 
L 129.486197 251.353423 
L 129.482778 251.353423 
L 129.35968 249.948375 
L 129.330615 249.948375 
L 129.212646 249.07022 
L 129.185291 249.07022 
L 129.069032 248.367696 
L 129.058774 248.367696 
L 128.937386 247.138279 
L 128.921999 247.138279 
L 128.80403 246.260124 
L 128.756159 246.260124 
L 128.636481 245.206338 
L 128.631352 245.206338 
L 128.511673 244.152552 
L 128.393705 244.152552 
L 128.277446 243.450028 
L 128.215897 243.450028 
L 128.103057 243.098766 
L 127.850023 243.098766 
L 127.735474 242.571873 
L 127.685893 242.571873 
L 127.574763 242.396242 
L 127.20376 242.396242 
L 127.090921 242.04498 
L 127.046469 242.04498 
L 126.933629 241.693718 
L 126.65324 241.693718 
L 126.538691 241.166825 
L 126.439529 241.166825 
L 126.328399 240.991194 
L 126.244624 240.991194 
L 126.126655 240.113039 
L 126.111268 240.113039 
L 125.99159 239.059253 
L 125.964235 239.059253 
L 125.847976 238.356729 
L 125.839427 238.356729 
L 125.724878 237.829837 
L 125.6582 237.829837 
L 125.541941 237.127313 
L 125.485521 237.127313 
L 125.367553 236.249158 
L 125.350456 236.249158 
L 125.237616 235.897896 
L 125.2171 235.897896 
L 125.100841 235.195372 
L 125.083744 235.195372 
L 124.965776 234.317217 
L 124.897388 234.317217 
L 124.77771 233.263431 
L 124.750355 233.263431 
L 124.634096 232.560907 
L 124.61187 232.560907 
L 124.485353 230.804597 
L 124.481933 230.804597 
L 124.355416 229.048287 
L 124.346868 229.048287 
L 124.22548 227.81887 
L 124.218641 227.81887 
L 124.100672 226.940715 
L 124.069898 226.940715 
L 123.958768 226.765084 
L 123.789509 226.765084 
L 123.676669 226.413822 
L 123.580926 226.413822 
L 123.469796 226.238191 
L 122.744888 226.238191 
L 122.633758 226.06256 
L 122.515789 226.06256 
L 122.404659 225.886929 
L 122.245658 225.886929 
L 122.131109 225.360036 
L 121.90543 225.360036 
L 121.79259 225.008774 
L 121.650686 225.008774 
L 121.536137 224.481881 
L 121.496814 224.481881 
L 121.385684 224.30625 
L 121.250618 224.30625 
L 121.13094 223.252464 
L 121.088198 223.252464 
L 120.975358 222.901202 
L 120.959971 222.901202 
L 120.845422 222.374309 
L 120.838583 222.374309 
L 120.724034 221.847416 
L 120.585549 221.847416 
L 120.471 221.320523 
L 120.41629 221.320523 
L 120.30345 220.969261 
L 120.288063 220.969261 
L 120.175223 220.617999 
L 120.13761 220.617999 
L 120.02477 220.266737 
L 120.014512 220.266737 
L 119.896544 219.388582 
L 119.811059 219.388582 
L 119.6948 218.686058 
L 119.655477 218.686058 
L 119.540928 218.159165 
L 119.515283 218.159165 
L 119.399024 217.456642 
L 119.373378 217.456642 
L 119.25541 216.578487 
L 119.188732 216.578487 
L 119.072473 215.875963 
L 119.050247 215.875963 
L 118.937407 215.524701 
L 118.81431 215.524701 
L 118.698051 214.822177 
L 118.692922 214.822177 
L 118.569824 213.417129 
L 118.511694 213.417129 
L 118.393726 212.538974 
L 118.390306 212.538974 
L 118.270628 211.485188 
L 118.265499 211.485188 
L 118.15095 210.958295 
L 118.135563 210.958295 
L 118.017594 210.08014 
L 118.010755 210.08014 
L 117.897916 209.728878 
L 117.82098 209.728878 
L 117.70643 209.201985 
L 117.667107 209.201985 
L 117.54401 207.796937 
L 117.533752 207.796937 
L 117.408944 206.216258 
L 117.345686 206.216258 
L 117.231136 205.689365 
L 117.1542 205.689365 
L 117.037941 204.986841 
L 117.036232 204.986841 
L 116.919973 204.284317 
L 116.88065 204.284317 
L 116.766101 203.757424 
L 116.747294 203.757424 
L 116.632745 203.230531 
L 116.612228 203.230531 
L 116.501099 203.0549 
L 116.391678 203.0549 
L 116.278839 202.703638 
L 116.265161 202.703638 
L 116.152322 202.352376 
L 116.010417 202.352376 
L 115.894158 201.649852 
L 115.714641 201.649852 
L 115.593253 200.420435 
L 115.584705 200.420435 
L 115.470155 199.893542 
L 115.463317 199.893542 
L 115.352187 199.717911 
L 115.319703 199.717911 
L 115.205153 199.191018 
L 115.177798 199.191018 
L 115.064959 198.839756 
L 115.054701 198.839756 
L 114.935022 197.78597 
L 114.914506 197.78597 
L 114.801666 197.434708 
L 114.642665 197.434708 
L 114.528116 196.907815 
L 114.521277 196.907815 
L 114.39647 195.327137 
L 114.389631 195.327137 
L 114.278501 195.151506 
L 114.165662 195.151506 
L 114.047693 194.273351 
L 113.757046 194.273351 
L 113.642496 193.746458 
L 113.50914 193.746458 
L 113.386043 192.34141 
L 113.382623 192.34141 
L 113.266364 191.638886 
L 113.250977 191.638886 
L 113.129589 190.409469 
L 113.057782 190.409469 
L 112.939814 189.531314 
L 112.856039 189.531314 
L 112.741489 189.004421 
L 112.727812 189.004421 
L 112.614972 188.653159 
L 112.599585 188.653159 
L 112.485036 188.126266 
L 112.473068 188.126266 
L 112.355099 187.248111 
L 112.338003 187.248111 
L 112.225163 186.896849 
L 112.201227 186.896849 
L 112.084968 186.194325 
L 112.045645 186.194325 
L 111.925967 185.140539 
L 111.891773 185.140539 
L 111.775514 184.438015 
L 111.766966 184.438015 
L 111.648997 183.55986 
L 111.630191 183.55986 
L 111.513932 182.857336 
L 111.495125 182.857336 
L 111.373737 181.627919 
L 111.354931 181.627919 
L 111.236962 180.749764 
L 111.074541 180.749764 
L 110.959992 180.222871 
L 110.910411 180.222871 
L 110.787313 178.817823 
L 110.754829 178.817823 
L 110.636861 177.939668 
L 110.628312 177.939668 
L 110.515473 177.588406 
L 110.320568 177.588406 
L 110.206019 177.061513 
L 110.19576 177.061513 
L 110.082921 176.710251 
L 110.007695 176.710251 
L 109.891436 176.007728 
L 109.845274 176.007728 
L 109.729015 175.305204 
L 109.691402 175.305204 
L 109.570014 174.075787 
L 109.527272 174.075787 
L 109.407593 173.022001 
L 109.263979 173.022001 
L 109.15114 172.670739 
L 109.120365 172.670739 
L 109.007526 172.319477 
L 108.957945 172.319477 
L 108.843395 171.792584 
L 108.800653 171.792584 
L 108.687814 171.441322 
L 108.592071 171.441322 
L 108.477522 170.914429 
L 108.434779 170.914429 
L 108.31852 170.211905 
L 108.315101 170.211905 
L 108.193713 168.982488 
L 108.185165 168.982488 
L 108.062067 167.57744 
L 108.053518 167.57744 
L 107.938969 167.050547 
L 107.821001 167.050547 
L 107.706451 166.523654 
L 107.694483 166.523654 
L 107.581644 166.172392 
L 107.482482 166.172392 
L 107.369642 165.82113 
L 107.32519 165.82113 
L 107.208931 165.118606 
L 107.10806 165.118606 
L 106.983252 163.537927 
L 106.976414 163.537927 
L 106.860155 162.835403 
L 106.824251 162.835403 
L 106.713121 162.659772 
L 106.701153 162.659772 
L 106.586604 162.132879 
L 106.540442 162.132879 
L 106.417345 160.727831 
L 106.398538 160.727831 
L 106.285699 160.376569 
L 106.242956 160.376569 
L 106.128407 159.849676 
L 105.861695 159.849676 
L 105.748856 159.498414 
L 105.624048 159.498414 
L 105.509499 158.971521 
L 105.50608 158.971521 
L 105.39324 158.620259 
L 105.068399 158.620259 
L 104.947011 157.390842 
L 104.84101 157.390842 
L 104.726461 156.863949 
L 104.646106 156.863949 
L 104.531556 156.337056 
L 104.45804 156.337056 
L 104.3452 155.985794 
L 104.175941 155.985794 
L 104.063101 155.634532 
L 104.039165 155.634532 
L 103.924616 155.10764 
L 103.770744 155.10764 
L 103.657905 154.756378 
L 103.656195 154.756378 
L 103.536517 153.702592 
L 103.418548 153.702592 
L 103.307418 153.526961 
L 103.203127 153.526961 
L 103.081739 152.297544 
L 103.069771 152.297544 
L 102.953512 151.59502 
L 102.724414 151.59502 
L 102.604735 150.541234 
L 102.599606 150.541234 
L 102.485057 150.014341 
L 102.367088 150.014341 
L 102.254249 149.663079 
L 102.240571 149.663079 
L 102.124312 148.960555 
L 102.098667 148.960555 
L 101.982408 148.258031 
L 101.97215 148.258031 
L 101.855891 147.555507 
L 101.835375 147.555507 
L 101.719116 146.852983 
L 101.483178 146.852983 
L 101.372049 146.677352 
L 101.30879 146.677352 
L 101.194241 146.150459 
L 101.180563 146.150459 
L 101.066014 145.623566 
L 101.060885 145.623566 
L 100.946336 145.096673 
L 100.910432 145.096673 
L 100.797593 144.745411 
L 100.771947 144.745411 
L 100.660817 144.56978 
L 100.583881 144.56978 
L 100.472751 144.394149 
L 100.419751 144.394149 
L 100.308621 144.218518 
L 100.300073 144.218518 
L 100.185523 143.691625 
L 100.178685 143.691625 
L 100.064135 143.164732 
L 100.035071 143.164732 
L 99.918812 142.462208 
L 99.891457 142.462208 
L 99.771778 141.408422 
L 99.768359 141.408422 
L 99.65381 140.881529 
L 99.54097 140.881529 
L 99.424711 140.179005 
L 99.383679 140.179005 
L 99.26742 139.476481 
L 99.238355 139.476481 
L 99.125515 139.125219 
L 99.070805 139.125219 
L 98.951127 138.071433 
L 98.939159 138.071433 
L 98.8229 137.368909 
L 98.817771 137.368909 
L 98.701512 136.666385 
L 98.65706 136.666385 
L 98.542511 136.139492 
L 98.533962 136.139492 
L 98.417704 135.436968 
L 98.414284 135.436968 
L 98.291186 134.031921 
L 98.286057 134.031921 
L 98.171508 133.505028 
L 98.166379 133.505028 
L 98.05012 132.802504 
L 97.964636 132.802504 
L 97.844957 131.748718 
L 97.783408 131.748718 
L 97.66544 130.870563 
L 97.61073 130.870563 
L 97.49618 130.34367 
L 97.291018 130.34367 
L 97.176468 129.816777 
L 97.161081 129.816777 
L 97.039693 128.58736 
L 96.979854 128.58736 
L 96.865305 128.060467 
L 96.793498 128.060467 
L 96.680658 127.709205 
L 96.513108 127.709205 
L 96.398559 127.182312 
L 96.383172 127.182312 
L 96.266913 126.479788 
L 96.261784 126.479788 
L 96.145525 125.777264 
L 96.121589 125.777264 
L 96.00533 125.07474 
L 95.955749 125.07474 
L 95.8412 124.547847 
L 95.743748 124.547847 
L 95.630908 124.196585 
L 95.547133 124.196585 
L 95.434294 123.845323 
L 95.372745 123.845323 
L 95.256486 123.142799 
L 95.244518 123.142799 
L 95.133388 122.967168 
L 95.119711 122.967168 
L 95.005162 122.440275 
L 94.998323 122.440275 
L 94.880354 121.56212 
L 94.854709 121.56212 
L 94.74016 121.035227 
L 94.721353 121.035227 
L 94.606804 120.508334 
L 94.528158 120.508334 
L 94.415318 120.157072 
L 94.261446 120.157072 
L 94.148607 119.80581 
L 94.078509 119.80581 
L 93.957121 118.576393 
L 93.943444 118.576393 
L 93.827185 117.873869 
L 93.784443 117.873869 
L 93.669893 117.346976 
L 93.666474 117.346976 
L 93.555344 117.171345 
L 93.533118 117.171345 
L 93.418569 116.644452 
L 93.394633 116.644452 
L 93.283503 116.468821 
L 93.274955 116.468821 
L 93.160406 115.941928 
L 93.145018 115.941928 
L 93.015082 113.834357 
L 93.008243 113.834357 
L 92.883436 112.253678 
L 92.881726 112.253678 
L 92.763758 111.375523 
L 92.744951 111.375523 
L 92.626982 110.497368 
L 92.620144 110.497368 
L 92.507304 110.146106 
L 92.500465 110.146106 
L 92.384206 109.443582 
L 92.356851 109.443582 
L 92.233753 108.038534 
L 92.226915 108.038534 
L 92.112365 107.511641 
L 92.107236 107.511641 
L 91.990977 106.809117 
L 91.982429 106.809117 
L 91.862751 105.755331 
L 91.664427 105.755331 
L 91.548168 105.052807 
L 91.505425 105.052807 
L 91.392586 104.701545 
L 91.387457 104.701545 
L 91.272908 104.174652 
L 91.255811 104.174652 
L 91.137842 103.296497 
L 91.134423 103.296497 
L 91.019873 102.769604 
L 90.978841 102.769604 
L 90.864292 102.242711 
L 90.679645 102.242711 
L 90.566805 101.891449 
L 90.554838 101.891449 
L 90.438579 101.188925 
L 90.412933 101.188925 
L 90.300094 100.837663 
L 90.269319 100.837663 
L 90.15477 100.31077 
L 90.110318 100.31077 
L 89.99064 99.256984 
L 89.949607 99.256984 
L 89.835058 98.730091 
L 89.8248 98.730091 
L 89.710251 98.203198 
L 89.588863 98.203198 
L 89.477733 98.027567 
L 89.385409 98.027567 
L 89.262312 96.622519 
L 89.246924 96.622519 
L 89.127246 95.568733 
L 89.101601 95.568733 
L 88.983632 94.690578 
L 88.975084 94.690578 
L 88.863954 94.514947 
L 88.812663 94.514947 
L 88.696404 93.812423 
L 88.677598 93.812423 
L 88.566468 93.636792 
L 88.516887 93.636792 
L 88.404047 93.28553 
L 88.327111 93.28553 
L 88.214271 92.934269 
L 88.16811 92.934269 
L 88.050141 92.056114 
L 88.038173 92.056114 
L 87.927043 91.880483 
L 87.923624 91.880483 
L 87.807365 91.177959 
L 87.803946 91.177959 
L 87.685977 90.299804 
L 87.656912 90.299804 
L 87.538944 89.421649 
L 87.537234 89.421649 
L 87.422685 88.894756 
L 87.33891 88.894756 
L 87.22607 88.543494 
L 87.224361 88.543494 
L 87.111521 88.192232 
L 87.002101 88.192232 
L 86.889261 87.84097 
L 86.880713 87.84097 
L 86.767873 87.489708 
L 86.690937 87.489708 
L 86.574678 86.787184 
L 86.559291 86.787184 
L 86.448161 86.611553 
L 86.437903 86.611553 
L 86.321644 85.909029 
L 86.231031 85.909029 
L 86.116481 85.382136 
L 86.109643 85.382136 
L 85.996803 85.030874 
L 85.989964 85.030874 
L 85.873705 84.32835 
L 85.861738 84.32835 
L 85.743769 83.450195 
L 85.695898 83.450195 
L 85.577929 82.57204 
L 85.521509 82.57204 
L 85.40354 81.693885 
L 85.371056 81.693885 
L 85.259926 81.518254 
L 85.258217 81.518254 
L 85.145377 81.166992 
L 85.083828 81.166992 
L 84.970989 80.81573 
L 84.96244 80.81573 
L 84.844472 79.937575 
L 84.823955 79.937575 
L 84.704277 78.883789 
L 84.695729 78.883789 
L 84.581179 78.356896 
L 84.459791 78.356896 
L 84.348662 78.181265 
L 84.30421 78.181265 
L 84.19137 77.830003 
L 84.121273 77.830003 
L 84.008433 77.478741 
L 83.705818 77.478741 
L 83.592978 77.127479 
L 83.30746 77.127479 
L 83.187782 76.073693 
L 83.158717 76.073693 
L 83.044168 75.5468 
L 83.039039 75.5468 
L 82.927909 75.371169 
L 82.926199 75.371169 
L 82.81165 74.844276 
L 82.80994 74.844276 
L 82.697101 74.493014 
L 82.686842 74.493014 
L 82.575713 74.317383 
L 82.551777 74.317383 
L 82.438937 73.966121 
L 82.250871 73.966121 
L 82.139742 73.79049 
L 82.132903 73.79049 
L 82.021773 73.614859 
L 81.98245 73.614859 
L 81.861062 72.385443 
L 81.835417 72.385443 
L 81.719158 71.682919 
L 81.70719 71.682919 
L 81.585802 70.453502 
L 81.510576 70.453502 
L 81.387478 69.048454 
L 81.37722 69.048454 
L 81.259251 68.170299 
L 81.235315 68.170299 
L 81.113927 66.940882 
L 81.072895 66.940882 
L 80.954926 66.062727 
L 80.925861 66.062727 
L 80.813022 65.711465 
L 80.746344 65.711465 
L 80.633504 65.360203 
L 80.510407 65.360203 
L 80.392438 64.482048 
L 80.385599 64.482048 
L 80.265921 63.428262 
L 80.231727 63.428262 
L 80.115468 62.725738 
L 80.028274 62.725738 
L 79.915434 62.374476 
L 79.906886 62.374476 
L 79.785498 61.145059 
L 79.754724 61.145059 
L 79.640174 60.618166 
L 79.511947 60.618166 
L 79.397398 60.091273 
L 79.337559 60.091273 
L 79.22301 59.56438 
L 79.011008 59.56438 
L 78.89304 58.686225 
L 78.744297 58.686225 
L 78.633167 58.510594 
L 78.181808 58.510594 
L 78.070679 58.334963 
L 77.940742 58.334963 
L 77.824483 57.632439 
L 77.821064 57.632439 
L 77.706514 57.105546 
L 77.426125 57.105546 
L 77.314995 56.929915 
L 77.145736 56.929915 
L 77.026058 55.876129 
L 76.930315 55.876129 
L 76.814056 55.173605 
L 76.795249 55.173605 
L 76.6807 54.646712 
L 76.670442 54.646712 
L 76.557603 54.29545 
L 76.555893 54.29545 
L 76.444763 54.119819 
L 76.176342 54.119819 
L 76.058373 53.241664 
L 75.993405 53.241664 
L 75.880565 52.890402 
L 75.858339 52.890402 
L 75.74379 52.363509 
L 75.716435 52.363509 
L 75.593337 50.958462 
L 75.591627 50.958462 
L 75.46853 49.553414 
L 75.330045 49.553414 
L 75.215496 49.026521 
L 75.128301 49.026521 
L 75.015462 48.675259 
L 75.013752 48.675259 
L 74.902622 48.499628 
L 74.842783 48.499628 
L 74.724814 47.621473 
L 74.721395 47.621473 
L 74.608556 47.270211 
L 74.500845 47.270211 
L 74.384586 46.567687 
L 74.376038 46.567687 
L 74.259779 45.865163 
L 74.220456 45.865163 
L 74.109326 45.689532 
L 74.078551 45.689532 
L 73.960583 44.811377 
L 73.957163 44.811377 
L 73.846034 44.635746 
L 73.816969 44.635746 
L 73.70242 44.108853 
L 73.681903 44.108853 
L 73.563935 43.230698 
L 73.558806 43.230698 
L 73.444256 42.703805 
L 73.437418 42.703805 
L 73.31432 41.298757 
L 73.292094 41.298757 
L 73.168996 39.893709 
L 73.122835 39.893709 
L 73.006576 39.191185 
L 72.998027 39.191185 
L 72.885188 38.839923 
L 72.857833 38.839923 
L 72.736445 37.610506 
L 72.729606 37.610506 
L 72.609927 36.55672 
L 72.534701 36.55672 
L 72.415023 35.502934 
L 72.379119 35.502934 
L 72.26286 34.80041 
L 72.172247 34.80041 
L 72.047439 33.219731 
L 72.009826 33.219731 
L 71.891858 32.341576 
L 71.861083 32.341576 
L 71.746534 31.814683 
L 71.667888 31.814683 
L 71.5465 30.585267 
L 71.539661 30.585267 
L 71.423402 29.882743 
L 71.401176 29.882743 
L 71.281498 28.828957 
L 71.279788 28.828957 
L 71.165239 28.302064 
L 71.156691 28.302064 
L 71.037012 27.248278 
L 71.028464 27.248278 
L 70.912205 26.545754 
L 70.900237 26.545754 
L 70.783978 25.84323 
L 70.770301 25.84323 
L 70.652332 24.965075 
L 70.623267 24.965075 
L 70.508718 24.438182 
L 70.424943 24.438182 
L 70.424943 24.438182 
" clip-path="url(#p50edc72357)" style="fill: none; stroke-dasharray: 7.4,3.2; stroke-dashoffset: 0; stroke: #fa8072; stroke-width: 2"/>
   </g>
   <g id="line2d_32">
    <path d="M 412.361307 369.201818 
L 392.997354 369.201818 
L 392.886224 369.026187 
L 386.509079 369.026187 
L 386.397949 368.850556 
L 367.223771 368.850556 
L 367.112642 368.674925 
L 362.287895 368.674925 
L 362.176765 368.499294 
L 355.124293 368.499294 
L 355.013163 368.323663 
L 325.483391 368.323663 
L 325.372261 368.148032 
L 308.225776 368.148032 
L 308.114646 367.972401 
L 296.803335 367.972401 
L 296.692205 367.79677 
L 260.048411 367.79677 
L 259.937282 367.621139 
L 209.824547 367.621139 
L 209.713417 367.445508 
L 209.111606 367.445508 
L 209.000476 367.269877 
L 208.87225 367.269877 
L 208.76112 367.094246 
L 208.588441 367.094246 
L 208.472182 366.391722 
L 208.42944 366.391722 
L 208.311471 365.513567 
L 208.301213 365.513567 
L 208.181535 364.459781 
L 207.98663 364.459781 
L 207.8755 364.28415 
L 207.690854 364.28415 
L 207.579724 364.108519 
L 207.463465 364.108519 
L 207.352335 363.932888 
L 207.196753 363.932888 
L 207.085623 363.757257 
L 206.971074 363.757257 
L 206.858234 363.405995 
L 206.227359 363.405995 
L 206.116229 363.230364 
L 205.993131 363.230364 
L 205.882001 363.054733 
L 205.842678 363.054733 
L 205.729839 362.703471 
L 205.587934 362.703471 
L 205.476805 362.527841 
L 205.232319 362.527841 
L 205.121189 362.35221 
L 205.112641 362.35221 
L 204.999801 362.000948 
L 204.733089 362.000948 
L 204.61854 361.474055 
L 204.322764 361.474055 
L 204.209924 361.122793 
L 203.910728 361.122793 
L 203.797889 360.771531 
L 203.777372 360.771531 
L 203.662823 360.244638 
L 203.657694 360.244638 
L 203.539725 359.366483 
L 202.90885 359.366483 
L 202.79772 359.190852 
L 202.07965 359.190852 
L 201.96852 359.015221 
L 201.212837 359.015221 
L 201.101707 358.83959 
L 199.792084 358.83959 
L 199.680954 358.663959 
L 199.597179 358.663959 
L 199.48605 358.488328 
L 199.467243 358.488328 
L 199.356113 358.312697 
L 199.352694 358.312697 
L 199.241564 358.137066 
L 199.190273 358.137066 
L 199.079143 357.961435 
L 199.029562 357.961435 
L 198.918432 357.785804 
L 197.77294 357.785804 
L 197.66181 357.610173 
L 197.521615 357.610173 
L 197.410485 357.434542 
L 195.257985 357.434542 
L 195.146855 357.258911 
L 194.40485 357.258911 
L 194.29372 357.08328 
L 194.172332 357.08328 
L 194.061202 356.907649 
L 191.517183 356.907649 
L 191.406053 356.732018 
L 191.325697 356.732018 
L 191.214568 356.556387 
L 191.076083 356.556387 
L 190.964953 356.380756 
L 180.190484 356.380756 
L 180.079354 356.205125 
L 179.539092 356.205125 
L 179.427962 356.029494 
L 179.359575 356.029494 
L 179.248445 355.853863 
L 179.041572 355.853863 
L 178.930442 355.678232 
L 178.029435 355.678232 
L 177.918306 355.502601 
L 176.164163 355.502601 
L 176.051324 355.151339 
L 175.974388 355.151339 
L 175.863258 354.975708 
L 175.753838 354.975708 
L 175.642708 354.800077 
L 173.965501 354.800077 
L 173.854372 354.624446 
L 171.98739 354.624446 
L 171.87455 354.273184 
L 166.988255 354.273184 
L 166.877125 354.097553 
L 166.736931 354.097553 
L 166.625801 353.921922 
L 164.25617 353.921922 
L 164.14504 353.746291 
L 164.098878 353.746291 
L 163.986039 353.395029 
L 163.461164 353.395029 
L 163.348324 353.043767 
L 163.134613 353.043767 
L 163.023483 352.868136 
L 162.48664 352.868136 
L 162.373801 352.516874 
L 160.363205 352.516874 
L 160.252075 352.341243 
L 160.154623 352.341243 
L 160.036654 351.463088 
L 158.651805 351.463088 
L 158.540675 351.287457 
L 157.62941 351.287457 
L 157.51657 350.936195 
L 157.143858 350.936195 
L 157.031018 350.584933 
L 156.41382 350.584933 
L 156.30269 350.409302 
L 153.912543 350.409302 
L 153.801413 350.233671 
L 151.77714 350.233671 
L 151.6643 349.882409 
L 151.660881 349.882409 
L 151.549751 349.706778 
L 150.648744 349.706778 
L 150.537614 349.531147 
L 150.457259 349.531147 
L 150.346129 349.355516 
L 148.696278 349.355516 
L 148.585148 349.179885 
L 148.530438 349.179885 
L 148.419308 349.004254 
L 147.865368 349.004254 
L 147.752529 348.652992 
L 147.627721 348.652992 
L 147.516592 348.477361 
L 147.169524 348.477361 
L 147.058394 348.30173 
L 146.842973 348.30173 
L 146.730134 347.950468 
L 146.360841 347.950468 
L 146.246292 347.423575 
L 146.136871 347.423575 
L 146.025742 347.247944 
L 145.769288 347.247944 
L 145.654739 346.721051 
L 144.635763 346.721051 
L 144.524633 346.54542 
L 144.461375 346.54542 
L 144.348535 346.194158 
L 144.163889 346.194158 
L 144.052759 346.018527 
L 143.912564 346.018527 
L 143.801434 345.842896 
L 143.618497 345.842896 
L 143.507368 345.667265 
L 142.565328 345.667265 
L 142.449069 344.964741 
L 142.418295 344.964741 
L 142.305455 344.613479 
L 142.2781 344.613479 
L 142.16697 344.437848 
L 141.966937 344.437848 
L 141.843839 343.0328 
L 141.83871 343.0328 
L 141.722451 342.330276 
L 141.677999 342.330276 
L 141.554901 340.925229 
L 141.553192 340.925229 
L 141.430094 339.520181 
L 141.423255 339.520181 
L 141.298448 337.939502 
L 141.291609 337.939502 
L 141.168511 336.534454 
L 141.166801 336.534454 
L 141.055672 336.358823 
L 140.920606 336.358823 
L 140.794089 334.602513 
L 140.79067 334.602513 
L 140.662443 332.670572 
L 140.660733 332.670572 
L 140.546184 332.143679 
L 140.055503 332.143679 
L 139.937534 331.265524 
L 138.713396 331.265524 
L 138.602266 331.089893 
L 138.535588 331.089893 
L 138.422748 330.738631 
L 138.306489 330.738631 
L 138.19536 330.563 
L 138.019262 330.563 
L 137.908132 330.387369 
L 137.872228 330.387369 
L 137.759389 330.036107 
L 137.629452 330.036107 
L 137.518322 329.860476 
L 137.133642 329.860476 
L 137.022512 329.684845 
L 136.860091 329.684845 
L 136.748962 329.509214 
L 136.581412 329.509214 
L 136.470282 329.333583 
L 136.37283 329.333583 
L 136.25999 328.982321 
L 135.704341 328.982321 
L 135.589792 328.455428 
L 134.045941 328.455428 
L 133.934811 328.279797 
L 133.346678 328.279797 
L 133.232128 327.752904 
L 133.105611 327.752904 
L 132.994482 327.577273 
L 131.708794 327.577273 
L 131.597664 327.401642 
L 131.505341 327.401642 
L 131.394211 327.226011 
L 130.953111 327.226011 
L 130.840272 326.874749 
L 130.614593 326.874749 
L 130.496624 325.996594 
L 130.488075 325.996594 
L 130.376946 325.820963 
L 130.045266 325.820963 
L 129.934136 325.645332 
L 129.927297 325.645332 
L 129.816167 325.469701 
L 129.35626 325.469701 
L 129.245131 325.29407 
L 126.401915 325.29407 
L 126.277108 323.713391 
L 126.135204 323.713391 
L 126.022364 323.362129 
L 125.264971 323.362129 
L 125.150422 322.835236 
L 124.136576 322.835236 
L 124.023736 322.483974 
L 118.229596 322.483974 
L 118.118466 322.308343 
L 117.87398 322.308343 
L 117.76285 322.132712 
L 117.720108 322.132712 
L 117.608978 321.957081 
L 116.772939 321.957081 
L 116.661809 321.78145 
L 116.552389 321.78145 
L 116.441259 321.605819 
L 114.345179 321.605819 
L 114.232339 321.254557 
L 113.881853 321.254557 
L 113.767304 320.727665 
L 112.828684 320.727665 
L 112.712425 320.025141 
L 112.541456 320.025141 
L 112.428616 319.673879 
L 111.240381 319.673879 
L 111.124122 318.971355 
L 111.122413 318.971355 
L 111.011283 318.795724 
L 110.819797 318.795724 
L 110.705248 318.268831 
L 110.616344 318.268831 
L 110.493247 316.863783 
L 110.482988 316.863783 
L 110.3616 315.634366 
L 108.81775 315.634366 
L 108.70662 315.458735 
L 108.6502 315.458735 
L 108.537361 315.107473 
L 108.518554 315.107473 
L 108.407424 314.931842 
L 107.629515 314.931842 
L 107.516676 314.58058 
L 107.32519 314.58058 
L 107.212351 314.229318 
L 106.371183 314.229318 
L 106.260053 314.053687 
L 105.470176 314.053687 
L 105.357337 313.702425 
L 104.880333 313.702425 
L 104.767494 313.351163 
L 103.806648 313.351163 
L 103.695518 313.175532 
L 103.331354 313.175532 
L 103.220224 312.999901 
L 102.473089 312.999901 
L 102.361959 312.82427 
L 102.279894 312.82427 
L 102.167055 312.473008 
L 101.977279 312.473008 
L 101.866149 312.297377 
L 101.690051 312.297377 
L 101.578921 312.121746 
L 101.481469 312.121746 
L 101.370339 311.946115 
L 101.14466 311.946115 
L 101.03353 311.770484 
L 100.799302 311.770484 
L 100.688172 311.594853 
L 100.053877 311.594853 
L 99.941038 311.243591 
L 99.655519 311.243591 
L 99.54439 311.06796 
L 98.43822 311.06796 
L 98.32538 310.716698 
L 98.154411 310.716698 
L 98.041572 310.365436 
L 96.89095 310.365436 
L 96.77982 310.189805 
L 95.542004 310.189805 
L 95.430874 310.014174 
L 95.330003 310.014174 
L 95.218873 309.838543 
L 95.182969 309.838543 
L 95.07184 309.662912 
L 95.049614 309.662912 
L 94.938484 309.487281 
L 94.770934 309.487281 
L 94.659804 309.31165 
L 91.86788 309.31165 
L 91.743072 307.730971 
L 91.736234 307.730971 
L 91.614846 306.501554 
L 89.710251 306.501554 
L 89.585443 304.920875 
L 89.576895 304.920875 
L 89.465765 304.745244 
L 89.417893 304.745244 
L 89.306764 304.569613 
L 89.118698 304.569613 
L 89.007568 304.393982 
L 88.472435 304.393982 
L 88.361305 304.218351 
L 88.357885 304.218351 
L 88.246756 304.04272 
L 88.026206 304.04272 
L 87.913366 303.691458 
L 87.350878 303.691458 
L 87.238038 303.340196 
L 86.135288 303.340196 
L 86.024158 303.164565 
L 83.818658 303.164565 
L 83.707528 302.988934 
L 83.618624 302.988934 
L 83.507494 302.813303 
L 83.459623 302.813303 
L 83.346783 302.462041 
L 82.849263 302.462041 
L 82.738133 302.28641 
L 81.599479 302.28641 
L 81.48835 302.110779 
L 81.413123 302.110779 
L 81.296864 301.408255 
L 81.078024 301.408255 
L 80.963475 300.881362 
L 79.132396 300.881362 
L 79.017847 300.35447 
L 78.899878 300.35447 
L 78.788748 300.178839 
L 78.617779 300.178839 
L 78.50665 300.003208 
L 78.298067 300.003208 
L 78.185228 299.651946 
L 77.544094 299.651946 
L 77.432964 299.476315 
L 77.326963 299.476315 
L 77.212414 298.949422 
L 76.967928 298.949422 
L 76.855089 298.59816 
L 76.819185 298.59816 
L 76.706346 298.246898 
L 76.672152 298.246898 
L 76.561022 298.071267 
L 76.253278 298.071267 
L 76.142148 297.895636 
L 75.311238 297.895636 
L 75.200108 297.720005 
L 74.994946 297.720005 
L 74.882106 297.368743 
L 73.890486 297.368743 
L 73.777646 297.017481 
L 73.620354 297.017481 
L 73.509225 296.84185 
L 72.637283 296.84185 
L 72.526153 296.666219 
L 70.424943 296.666219 
L 70.424943 296.666219 
" clip-path="url(#p50edc72357)" style="fill: none; stroke-dasharray: 7.4,3.2; stroke-dashoffset: 0; stroke: #8b0000; stroke-width: 2"/>
   </g>
   <g id="patch_3">
    <path d="M 53.328125 386.44 
L 53.328125 7.2 
" style="fill: none; stroke: #000000; stroke-width: 0.8; stroke-linejoin: miter; stroke-linecap: square"/>
   </g>
   <g id="patch_4">
    <path d="M 429.458125 386.44 
L 429.458125 7.2 
" style="fill: none; stroke: #000000; stroke-width: 0.8; stroke-linejoin: miter; stroke-linecap: square"/>
   </g>
   <g id="patch_5">
    <path d="M 53.328125 386.44 
L 429.458125 386.44 
" style="fill: none; stroke: #000000; stroke-width: 0.8; stroke-linejoin: miter; stroke-linecap: square"/>
   </g>
   <g id="patch_6">
    <path d="M 53.328125 7.2 
L 429.458125 7.2 
" style="fill: none; stroke: #000000; stroke-width: 0.8; stroke-linejoin: miter; stroke-linecap: square"/>
   </g>
   <g id="legend_1">
    <g id="patch_7">
     <path d="M 436.458125 59.234375 
L 558.914375 59.234375 
Q 560.914375 59.234375 560.914375 57.234375 
L 560.914375 14.2 
Q 560.914375 12.2 558.914375 12.2 
L 436.458125 12.2 
Q 434.458125 12.2 434.458125 14.2 
L 434.458125 57.234375 
Q 434.458125 59.234375 436.458125 59.234375 
z
" style="fill: #ffffff; opacity: 0.8; stroke: #cccccc; stroke-linejoin: miter"/>
    </g>
    <g id="text_18">
     <!-- Motifs &amp; orientation -->
     <g transform="translate(448.170625 23.798437) scale(0.1 -0.1)">
      <defs>
       <path id="DejaVuSans-4d" d="M 628 4666 
L 1569 4666 
L 2759 1491 
L 3956 4666 
L 4897 4666 
L 4897 0 
L 4281 0 
L 4281 4097 
L 3078 897 
L 2444 897 
L 1241 4097 
L 1241 0 
L 628 0 
L 628 4666 
z
" transform="scale(0.015625)"/>
       <path id="DejaVuSans-26" d="M 1556 2509 
Q 1272 2256 1139 2004 
Q 1006 1753 1006 1478 
Q 1006 1022 1337 719 
Q 1669 416 2169 416 
Q 2466 416 2725 514 
Q 2984 613 3213 813 
L 1556 2509 
z
M 1997 2859 
L 3584 1234 
Q 3769 1513 3872 1830 
Q 3975 2147 3994 2503 
L 4575 2503 
Q 4538 2091 4375 1687 
Q 4213 1284 3922 891 
L 4794 0 
L 4006 0 
L 3559 459 
Q 3234 181 2878 45 
Q 2522 -91 2113 -91 
Q 1359 -91 881 339 
Q 403 769 403 1441 
Q 403 1841 612 2192 
Q 822 2544 1241 2853 
Q 1091 3050 1012 3245 
Q 934 3441 934 3628 
Q 934 4134 1281 4442 
Q 1628 4750 2203 4750 
Q 2463 4750 2720 4694 
Q 2978 4638 3244 4525 
L 3244 3956 
Q 2972 4103 2725 4179 
Q 2478 4256 2266 4256 
Q 1938 4256 1733 4082 
Q 1528 3909 1528 3634 
Q 1528 3475 1620 3314 
Q 1713 3153 1997 2859 
z
" transform="scale(0.015625)"/>
      </defs>
      <use xlink:href="#DejaVuSans-4d"/>
      <use xlink:href="#DejaVuSans-6f" transform="translate(86.279297 0)"/>
      <use xlink:href="#DejaVuSans-74" transform="translate(147.460938 0)"/>
      <use xlink:href="#DejaVuSans-69" transform="translate(186.669922 0)"/>
      <use xlink:href="#DejaVuSans-66" transform="translate(214.453125 0)"/>
      <use xlink:href="#DejaVuSans-73" transform="translate(249.658203 0)"/>
      <use xlink:href="#DejaVuSans-20" transform="translate(301.757812 0)"/>
      <use xlink:href="#DejaVuSans-26" transform="translate(333.544922 0)"/>
      <use xlink:href="#DejaVuSans-20" transform="translate(411.523438 0)"/>
      <use xlink:href="#DejaVuSans-6f" transform="translate(443.310547 0)"/>
      <use xlink:href="#DejaVuSans-72" transform="translate(504.492188 0)"/>
      <use xlink:href="#DejaVuSans-69" transform="translate(545.605469 0)"/>
      <use xlink:href="#DejaVuSans-65" transform="translate(573.388672 0)"/>
      <use xlink:href="#DejaVuSans-6e" transform="translate(634.912109 0)"/>
      <use xlink:href="#DejaVuSans-74" transform="translate(698.291016 0)"/>
      <use xlink:href="#DejaVuSans-61" transform="translate(737.5 0)"/>
      <use xlink:href="#DejaVuSans-74" transform="translate(798.779297 0)"/>
      <use xlink:href="#DejaVuSans-69" transform="translate(837.988281 0)"/>
      <use xlink:href="#DejaVuSans-6f" transform="translate(865.771484 0)"/>
      <use xlink:href="#DejaVuSans-6e" transform="translate(926.953125 0)"/>
     </g>
    </g>
    <g id="line2d_33">
     <path d="M 438.458125 34.976562 
L 448.458125 34.976562 
L 458.458125 34.976562 
" style="fill: none; stroke-dasharray: 7.4,3.2; stroke-dashoffset: 0; stroke: #fa8072; stroke-width: 2"/>
    </g>
    <g id="text_19">
     <!-- TTTAGGG (3' end) -->
     <g transform="translate(466.458125 38.476562) scale(0.1 -0.1)">
      <defs>
       <path id="DejaVuSans-54" d="M -19 4666 
L 3928 4666 
L 3928 4134 
L 2272 4134 
L 2272 0 
L 1638 0 
L 1638 4134 
L -19 4134 
L -19 4666 
z
" transform="scale(0.015625)"/>
       <path id="DejaVuSans-47" d="M 3809 666 
L 3809 1919 
L 2778 1919 
L 2778 2438 
L 4434 2438 
L 4434 434 
Q 4069 175 3628 42 
Q 3188 -91 2688 -91 
Q 1594 -91 976 548 
Q 359 1188 359 2328 
Q 359 3472 976 4111 
Q 1594 4750 2688 4750 
Q 3144 4750 3555 4637 
Q 3966 4525 4313 4306 
L 4313 3634 
Q 3963 3931 3569 4081 
Q 3175 4231 2741 4231 
Q 1884 4231 1454 3753 
Q 1025 3275 1025 2328 
Q 1025 1384 1454 906 
Q 1884 428 2741 428 
Q 3075 428 3337 486 
Q 3600 544 3809 666 
z
" transform="scale(0.015625)"/>
       <path id="DejaVuSans-28" d="M 1984 4856 
Q 1566 4138 1362 3434 
Q 1159 2731 1159 2009 
Q 1159 1288 1364 580 
Q 1569 -128 1984 -844 
L 1484 -844 
Q 1016 -109 783 600 
Q 550 1309 550 2009 
Q 550 2706 781 3412 
Q 1013 4119 1484 4856 
L 1984 4856 
z
" transform="scale(0.015625)"/>
       <path id="DejaVuSans-33" d="M 2597 2516 
Q 3050 2419 3304 2112 
Q 3559 1806 3559 1356 
Q 3559 666 3084 287 
Q 2609 -91 1734 -91 
Q 1441 -91 1130 -33 
Q 819 25 488 141 
L 488 750 
Q 750 597 1062 519 
Q 1375 441 1716 441 
Q 2309 441 2620 675 
Q 2931 909 2931 1356 
Q 2931 1769 2642 2001 
Q 2353 2234 1838 2234 
L 1294 2234 
L 1294 2753 
L 1863 2753 
Q 2328 2753 2575 2939 
Q 2822 3125 2822 3475 
Q 2822 3834 2567 4026 
Q 2313 4219 1838 4219 
Q 1578 4219 1281 4162 
Q 984 4106 628 3988 
L 628 4550 
Q 988 4650 1302 4700 
Q 1616 4750 1894 4750 
Q 2613 4750 3031 4423 
Q 3450 4097 3450 3541 
Q 3450 3153 3228 2886 
Q 3006 2619 2597 2516 
z
" transform="scale(0.015625)"/>
       <path id="DejaVuSans-27" d="M 1147 4666 
L 1147 2931 
L 616 2931 
L 616 4666 
L 1147 4666 
z
" transform="scale(0.015625)"/>
       <path id="DejaVuSans-64" d="M 2906 2969 
L 2906 4863 
L 3481 4863 
L 3481 0 
L 2906 0 
L 2906 525 
Q 2725 213 2448 61 
Q 2172 -91 1784 -91 
Q 1150 -91 751 415 
Q 353 922 353 1747 
Q 353 2572 751 3078 
Q 1150 3584 1784 3584 
Q 2172 3584 2448 3432 
Q 2725 3281 2906 2969 
z
M 947 1747 
Q 947 1113 1208 752 
Q 1469 391 1925 391 
Q 2381 391 2643 752 
Q 2906 1113 2906 1747 
Q 2906 2381 2643 2742 
Q 2381 3103 1925 3103 
Q 1469 3103 1208 2742 
Q 947 2381 947 1747 
z
" transform="scale(0.015625)"/>
       <path id="DejaVuSans-29" d="M 513 4856 
L 1013 4856 
Q 1481 4119 1714 3412 
Q 1947 2706 1947 2009 
Q 1947 1309 1714 600 
Q 1481 -109 1013 -844 
L 513 -844 
Q 928 -128 1133 580 
Q 1338 1288 1338 2009 
Q 1338 2731 1133 3434 
Q 928 4138 513 4856 
z
" transform="scale(0.015625)"/>
      </defs>
      <use xlink:href="#DejaVuSans-54"/>
      <use xlink:href="#DejaVuSans-54" transform="translate(59.333984 0)"/>
      <use xlink:href="#DejaVuSans-54" transform="translate(118.667969 0)"/>
      <use xlink:href="#DejaVuSans-41" transform="translate(172.001953 0)"/>
      <use xlink:href="#DejaVuSans-47" transform="translate(238.660156 0)"/>
      <use xlink:href="#DejaVuSans-47" transform="translate(316.150391 0)"/>
      <use xlink:href="#DejaVuSans-47" transform="translate(393.640625 0)"/>
      <use xlink:href="#DejaVuSans-20" transform="translate(471.130859 0)"/>
      <use xlink:href="#DejaVuSans-28" transform="translate(502.917969 0)"/>
      <use xlink:href="#DejaVuSans-33" transform="translate(541.931641 0)"/>
      <use xlink:href="#DejaVuSans-27" transform="translate(605.554688 0)"/>
      <use xlink:href="#DejaVuSans-20" transform="translate(633.044922 0)"/>
      <use xlink:href="#DejaVuSans-65" transform="translate(664.832031 0)"/>
      <use xlink:href="#DejaVuSans-6e" transform="translate(726.355469 0)"/>
      <use xlink:href="#DejaVuSans-64" transform="translate(789.734375 0)"/>
      <use xlink:href="#DejaVuSans-29" transform="translate(853.210938 0)"/>
     </g>
    </g>
    <g id="line2d_34">
     <path d="M 438.458125 49.654687 
L 448.458125 49.654687 
L 458.458125 49.654687 
" style="fill: none; stroke-dasharray: 7.4,3.2; stroke-dashoffset: 0; stroke: #8b0000; stroke-width: 2"/>
    </g>
    <g id="text_20">
     <!-- TTCAGGG (3' end) -->
     <g transform="translate(466.458125 53.154687) scale(0.1 -0.1)">
      <defs>
       <path id="DejaVuSans-43" d="M 4122 4306 
L 4122 3641 
Q 3803 3938 3442 4084 
Q 3081 4231 2675 4231 
Q 1875 4231 1450 3742 
Q 1025 3253 1025 2328 
Q 1025 1406 1450 917 
Q 1875 428 2675 428 
Q 3081 428 3442 575 
Q 3803 722 4122 1019 
L 4122 359 
Q 3791 134 3420 21 
Q 3050 -91 2638 -91 
Q 1578 -91 968 557 
Q 359 1206 359 2328 
Q 359 3453 968 4101 
Q 1578 4750 2638 4750 
Q 3056 4750 3426 4639 
Q 3797 4528 4122 4306 
z
" transform="scale(0.015625)"/>
      </defs>
      <use xlink:href="#DejaVuSans-54"/>
      <use xlink:href="#DejaVuSans-54" transform="translate(59.333984 0)"/>
      <use xlink:href="#DejaVuSans-43" transform="translate(114.542969 0)"/>
      <use xlink:href="#DejaVuSans-41" transform="translate(184.367188 0)"/>
      <use xlink:href="#DejaVuSans-47" transform="translate(251.025391 0)"/>
      <use xlink:href="#DejaVuSans-47" transform="translate(328.515625 0)"/>
      <use xlink:href="#DejaVuSans-47" transform="translate(406.005859 0)"/>
      <use xlink:href="#DejaVuSans-20" transform="translate(483.496094 0)"/>
      <use xlink:href="#DejaVuSans-28" transform="translate(515.283203 0)"/>
      <use xlink:href="#DejaVuSans-33" transform="translate(554.296875 0)"/>
      <use xlink:href="#DejaVuSans-27" transform="translate(617.919922 0)"/>
      <use xlink:href="#DejaVuSans-20" transform="translate(645.410156 0)"/>
      <use xlink:href="#DejaVuSans-65" transform="translate(677.197266 0)"/>
      <use xlink:href="#DejaVuSans-6e" transform="translate(738.720703 0)"/>
      <use xlink:href="#DejaVuSans-64" transform="translate(802.099609 0)"/>
      <use xlink:href="#DejaVuSans-29" transform="translate(865.576172 0)"/>
     </g>
    </g>
   </g>
  </g>
 </g>
 <defs>
  <clipPath id="p50edc72357">
   <rect x="53.328125" y="7.2" width="376.13" height="379.24"/>
  </clipPath>
 </defs>
</svg>
