<?xml version="1.0" encoding="utf-8" standalone="no"?>
<!DOCTYPE svg PUBLIC "-//W3C//DTD SVG 1.1//EN"
  "http://www.w3.org/Graphics/SVG/1.1/DTD/svg11.dtd">
<svg xmlns:xlink="http://www.w3.org/1999/xlink" width="568.169375pt" height="423.99625pt" viewBox="0 0 568.169375 423.99625" xmlns="http://www.w3.org/2000/svg" version="1.1">
 <metadata>
  <rdf:RDF xmlns:dc="http://purl.org/dc/elements/1.1/" xmlns:cc="http://creativecommons.org/ns#" xmlns:rdf="http://www.w3.org/1999/02/22-rdf-syntax-ns#">
   <cc:Work>
    <dc:type rdf:resource="http://purl.org/dc/dcmitype/StillImage"/>
    <dc:date>2026-04-28T13:58:20.689178</dc:date>
    <dc:format>image/svg+xml</dc:format>
    <dc:creator>
     <cc:Agent>
      <dc:title>Matplotlib v3.10.6, https://matplotlib.org/</dc:title>
     </cc:Agent>
    </dc:creator>
   </cc:Work>
  </rdf:RDF>
 </metadata>
 <defs>
  <style type="text/css">*{stroke-linejoin: round; stroke-linecap: butt}</style>
 </defs>
 <g id="figure_1">
  <g id="patch_1">
   <path d="M 0 423.99625 
L 568.169375 423.99625 
L 568.169375 0 
L 0 0 
z
" style="fill: #ffffff"/>
  </g>
  <g id="axes_1">
   <g id="patch_2">
    <path d="M 40.603125 386.44 
L 429.513125 386.44 
L 429.513125 7.2 
L 40.603125 7.2 
z
" style="fill: #ffffff"/>
   </g>
   <g id="matplotlib.axis_1">
    <g id="xtick_1">
     <g id="line2d_1">
      <path d="M 58.279084 386.44 
L 58.279084 7.2 
" clip-path="url(#p2aabd9f129)" style="fill: none; stroke-dasharray: 2.96,1.28; stroke-dashoffset: 0; stroke: #b0b0b0; stroke-opacity: 0.6; stroke-width: 0.8"/>
     </g>
     <g id="line2d_2">
      <defs>
       <path id="m646c4dd77e" d="M 0 0 
L 0 3.5 
" style="stroke: #000000; stroke-width: 0.8"/>
      </defs>
      <g>
       <use xlink:href="#m646c4dd77e" x="58.279084" y="386.44" style="stroke: #000000; stroke-width: 0.8"/>
      </g>
     </g>
     <g id="text_1">
      <!-- 0 -->
      <g transform="translate(55.097834 401.038437) scale(0.1 -0.1)">
       <defs>
        <path id="DejaVuSans-30" d="M 2034 4250 
Q 1547 4250 1301 3770 
Q 1056 3291 1056 2328 
Q 1056 1369 1301 889 
Q 1547 409 2034 409 
Q 2525 409 2770 889 
Q 3016 1369 3016 2328 
Q 3016 3291 2770 3770 
Q 2525 4250 2034 4250 
z
M 2034 4750 
Q 2819 4750 3233 4129 
Q 3647 3509 3647 2328 
Q 3647 1150 3233 529 
Q 2819 -91 2034 -91 
Q 1250 -91 836 529 
Q 422 1150 422 2328 
Q 422 3509 836 4129 
Q 1250 4750 2034 4750 
z
" transform="scale(0.015625)"/>
       </defs>
       <use xlink:href="#DejaVuSans-30"/>
      </g>
     </g>
    </g>
    <g id="xtick_2">
     <g id="line2d_3">
      <path d="M 102.473624 386.44 
L 102.473624 7.2 
" clip-path="url(#p2aabd9f129)" style="fill: none; stroke-dasharray: 2.96,1.28; stroke-dashoffset: 0; stroke: #b0b0b0; stroke-opacity: 0.6; stroke-width: 0.8"/>
     </g>
     <g id="line2d_4">
      <g>
       <use xlink:href="#m646c4dd77e" x="102.473624" y="386.44" style="stroke: #000000; stroke-width: 0.8"/>
      </g>
     </g>
     <g id="text_2">
      <!-- 25000 -->
      <g transform="translate(86.567374 401.038437) scale(0.1 -0.1)">
       <defs>
        <path id="DejaVuSans-32" d="M 1228 531 
L 3431 531 
L 3431 0 
L 469 0 
L 469 531 
Q 828 903 1448 1529 
Q 2069 2156 2228 2338 
Q 2531 2678 2651 2914 
Q 2772 3150 2772 3378 
Q 2772 3750 2511 3984 
Q 2250 4219 1831 4219 
Q 1534 4219 1204 4116 
Q 875 4013 500 3803 
L 500 4441 
Q 881 4594 1212 4672 
Q 1544 4750 1819 4750 
Q 2544 4750 2975 4387 
Q 3406 4025 3406 3419 
Q 3406 3131 3298 2873 
Q 3191 2616 2906 2266 
Q 2828 2175 2409 1742 
Q 1991 1309 1228 531 
z
" transform="scale(0.015625)"/>
        <path id="DejaVuSans-35" d="M 691 4666 
L 3169 4666 
L 3169 4134 
L 1269 4134 
L 1269 2991 
Q 1406 3038 1543 3061 
Q 1681 3084 1819 3084 
Q 2600 3084 3056 2656 
Q 3513 2228 3513 1497 
Q 3513 744 3044 326 
Q 2575 -91 1722 -91 
Q 1428 -91 1123 -41 
Q 819 9 494 109 
L 494 744 
Q 775 591 1075 516 
Q 1375 441 1709 441 
Q 2250 441 2565 725 
Q 2881 1009 2881 1497 
Q 2881 1984 2565 2268 
Q 2250 2553 1709 2553 
Q 1456 2553 1204 2497 
Q 953 2441 691 2322 
L 691 4666 
z
" transform="scale(0.015625)"/>
       </defs>
       <use xlink:href="#DejaVuSans-32"/>
       <use xlink:href="#DejaVuSans-35" transform="translate(63.623047 0)"/>
       <use xlink:href="#DejaVuSans-30" transform="translate(127.246094 0)"/>
       <use xlink:href="#DejaVuSans-30" transform="translate(190.869141 0)"/>
       <use xlink:href="#DejaVuSans-30" transform="translate(254.492188 0)"/>
      </g>
     </g>
    </g>
    <g id="xtick_3">
     <g id="line2d_5">
      <path d="M 146.668163 386.44 
L 146.668163 7.2 
" clip-path="url(#p2aabd9f129)" style="fill: none; stroke-dasharray: 2.96,1.28; stroke-dashoffset: 0; stroke: #b0b0b0; stroke-opacity: 0.6; stroke-width: 0.8"/>
     </g>
     <g id="line2d_6">
      <g>
       <use xlink:href="#m646c4dd77e" x="146.668163" y="386.44" style="stroke: #000000; stroke-width: 0.8"/>
      </g>
     </g>
     <g id="text_3">
      <!-- 50000 -->
      <g transform="translate(130.761913 401.038437) scale(0.1 -0.1)">
       <use xlink:href="#DejaVuSans-35"/>
       <use xlink:href="#DejaVuSans-30" transform="translate(63.623047 0)"/>
       <use xlink:href="#DejaVuSans-30" transform="translate(127.246094 0)"/>
       <use xlink:href="#DejaVuSans-30" transform="translate(190.869141 0)"/>
       <use xlink:href="#DejaVuSans-30" transform="translate(254.492188 0)"/>
      </g>
     </g>
    </g>
    <g id="xtick_4">
     <g id="line2d_7">
      <path d="M 190.862702 386.44 
L 190.862702 7.2 
" clip-path="url(#p2aabd9f129)" style="fill: none; stroke-dasharray: 2.96,1.28; stroke-dashoffset: 0; stroke: #b0b0b0; stroke-opacity: 0.6; stroke-width: 0.8"/>
     </g>
     <g id="line2d_8">
      <g>
       <use xlink:href="#m646c4dd77e" x="190.862702" y="386.44" style="stroke: #000000; stroke-width: 0.8"/>
      </g>
     </g>
     <g id="text_4">
      <!-- 75000 -->
      <g transform="translate(174.956452 401.038437) scale(0.1 -0.1)">
       <defs>
        <path id="DejaVuSans-37" d="M 525 4666 
L 3525 4666 
L 3525 4397 
L 1831 0 
L 1172 0 
L 2766 4134 
L 525 4134 
L 525 4666 
z
" transform="scale(0.015625)"/>
       </defs>
       <use xlink:href="#DejaVuSans-37"/>
       <use xlink:href="#DejaVuSans-35" transform="translate(63.623047 0)"/>
       <use xlink:href="#DejaVuSans-30" transform="translate(127.246094 0)"/>
       <use xlink:href="#DejaVuSans-30" transform="translate(190.869141 0)"/>
       <use xlink:href="#DejaVuSans-30" transform="translate(254.492188 0)"/>
      </g>
     </g>
    </g>
    <g id="xtick_5">
     <g id="line2d_9">
      <path d="M 235.057241 386.44 
L 235.057241 7.2 
" clip-path="url(#p2aabd9f129)" style="fill: none; stroke-dasharray: 2.96,1.28; stroke-dashoffset: 0; stroke: #b0b0b0; stroke-opacity: 0.6; stroke-width: 0.8"/>
     </g>
     <g id="line2d_10">
      <g>
       <use xlink:href="#m646c4dd77e" x="235.057241" y="386.44" style="stroke: #000000; stroke-width: 0.8"/>
      </g>
     </g>
     <g id="text_5">
      <!-- 100000 -->
      <g transform="translate(215.969741 401.038437) scale(0.1 -0.1)">
       <defs>
        <path id="DejaVuSans-31" d="M 794 531 
L 1825 531 
L 1825 4091 
L 703 3866 
L 703 4441 
L 1819 4666 
L 2450 4666 
L 2450 531 
L 3481 531 
L 3481 0 
L 794 0 
L 794 531 
z
" transform="scale(0.015625)"/>
       </defs>
       <use xlink:href="#DejaVuSans-31"/>
       <use xlink:href="#DejaVuSans-30" transform="translate(63.623047 0)"/>
       <use xlink:href="#DejaVuSans-30" transform="translate(127.246094 0)"/>
       <use xlink:href="#DejaVuSans-30" transform="translate(190.869141 0)"/>
       <use xlink:href="#DejaVuSans-30" transform="translate(254.492188 0)"/>
       <use xlink:href="#DejaVuSans-30" transform="translate(318.115234 0)"/>
      </g>
     </g>
    </g>
    <g id="xtick_6">
     <g id="line2d_11">
      <path d="M 279.25178 386.44 
L 279.25178 7.2 
" clip-path="url(#p2aabd9f129)" style="fill: none; stroke-dasharray: 2.96,1.28; stroke-dashoffset: 0; stroke: #b0b0b0; stroke-opacity: 0.6; stroke-width: 0.8"/>
     </g>
     <g id="line2d_12">
      <g>
       <use xlink:href="#m646c4dd77e" x="279.25178" y="386.44" style="stroke: #000000; stroke-width: 0.8"/>
      </g>
     </g>
     <g id="text_6">
      <!-- 125000 -->
      <g transform="translate(260.16428 401.038437) scale(0.1 -0.1)">
       <use xlink:href="#DejaVuSans-31"/>
       <use xlink:href="#DejaVuSans-32" transform="translate(63.623047 0)"/>
       <use xlink:href="#DejaVuSans-35" transform="translate(127.246094 0)"/>
       <use xlink:href="#DejaVuSans-30" transform="translate(190.869141 0)"/>
       <use xlink:href="#DejaVuSans-30" transform="translate(254.492188 0)"/>
       <use xlink:href="#DejaVuSans-30" transform="translate(318.115234 0)"/>
      </g>
     </g>
    </g>
    <g id="xtick_7">
     <g id="line2d_13">
      <path d="M 323.446319 386.44 
L 323.446319 7.2 
" clip-path="url(#p2aabd9f129)" style="fill: none; stroke-dasharray: 2.96,1.28; stroke-dashoffset: 0; stroke: #b0b0b0; stroke-opacity: 0.6; stroke-width: 0.8"/>
     </g>
     <g id="line2d_14">
      <g>
       <use xlink:href="#m646c4dd77e" x="323.446319" y="386.44" style="stroke: #000000; stroke-width: 0.8"/>
      </g>
     </g>
     <g id="text_7">
      <!-- 150000 -->
      <g transform="translate(304.358819 401.038437) scale(0.1 -0.1)">
       <use xlink:href="#DejaVuSans-31"/>
       <use xlink:href="#DejaVuSans-35" transform="translate(63.623047 0)"/>
       <use xlink:href="#DejaVuSans-30" transform="translate(127.246094 0)"/>
       <use xlink:href="#DejaVuSans-30" transform="translate(190.869141 0)"/>
       <use xlink:href="#DejaVuSans-30" transform="translate(254.492188 0)"/>
       <use xlink:href="#DejaVuSans-30" transform="translate(318.115234 0)"/>
      </g>
     </g>
    </g>
    <g id="xtick_8">
     <g id="line2d_15">
      <path d="M 367.640859 386.44 
L 367.640859 7.2 
" clip-path="url(#p2aabd9f129)" style="fill: none; stroke-dasharray: 2.96,1.28; stroke-dashoffset: 0; stroke: #b0b0b0; stroke-opacity: 0.6; stroke-width: 0.8"/>
     </g>
     <g id="line2d_16">
      <g>
       <use xlink:href="#m646c4dd77e" x="367.640859" y="386.44" style="stroke: #000000; stroke-width: 0.8"/>
      </g>
     </g>
     <g id="text_8">
      <!-- 175000 -->
      <g transform="translate(348.553359 401.038437) scale(0.1 -0.1)">
       <use xlink:href="#DejaVuSans-31"/>
       <use xlink:href="#DejaVuSans-37" transform="translate(63.623047 0)"/>
       <use xlink:href="#DejaVuSans-35" transform="translate(127.246094 0)"/>
       <use xlink:href="#DejaVuSans-30" transform="translate(190.869141 0)"/>
       <use xlink:href="#DejaVuSans-30" transform="translate(254.492188 0)"/>
       <use xlink:href="#DejaVuSans-30" transform="translate(318.115234 0)"/>
      </g>
     </g>
    </g>
    <g id="xtick_9">
     <g id="line2d_17">
      <path d="M 411.835398 386.44 
L 411.835398 7.2 
" clip-path="url(#p2aabd9f129)" style="fill: none; stroke-dasharray: 2.96,1.28; stroke-dashoffset: 0; stroke: #b0b0b0; stroke-opacity: 0.6; stroke-width: 0.8"/>
     </g>
     <g id="line2d_18">
      <g>
       <use xlink:href="#m646c4dd77e" x="411.835398" y="386.44" style="stroke: #000000; stroke-width: 0.8"/>
      </g>
     </g>
     <g id="text_9">
      <!-- 200000 -->
      <g transform="translate(392.747898 401.038437) scale(0.1 -0.1)">
       <use xlink:href="#DejaVuSans-32"/>
       <use xlink:href="#DejaVuSans-30" transform="translate(63.623047 0)"/>
       <use xlink:href="#DejaVuSans-30" transform="translate(127.246094 0)"/>
       <use xlink:href="#DejaVuSans-30" transform="translate(190.869141 0)"/>
       <use xlink:href="#DejaVuSans-30" transform="translate(254.492188 0)"/>
       <use xlink:href="#DejaVuSans-30" transform="translate(318.115234 0)"/>
      </g>
     </g>
    </g>
    <g id="text_10">
     <!-- Distance from terminus [nt] -->
     <g transform="translate(165.558906 414.716562) scale(0.1 -0.1)">
      <defs>
       <path id="DejaVuSans-44" d="M 1259 4147 
L 1259 519 
L 2022 519 
Q 2988 519 3436 956 
Q 3884 1394 3884 2338 
Q 3884 3275 3436 3711 
Q 2988 4147 2022 4147 
L 1259 4147 
z
M 628 4666 
L 1925 4666 
Q 3281 4666 3915 4102 
Q 4550 3538 4550 2338 
Q 4550 1131 3912 565 
Q 3275 0 1925 0 
L 628 0 
L 628 4666 
z
" transform="scale(0.015625)"/>
       <path id="DejaVuSans-69" d="M 603 3500 
L 1178 3500 
L 1178 0 
L 603 0 
L 603 3500 
z
M 603 4863 
L 1178 4863 
L 1178 4134 
L 603 4134 
L 603 4863 
z
" transform="scale(0.015625)"/>
       <path id="DejaVuSans-73" d="M 2834 3397 
L 2834 2853 
Q 2591 2978 2328 3040 
Q 2066 3103 1784 3103 
Q 1356 3103 1142 2972 
Q 928 2841 928 2578 
Q 928 2378 1081 2264 
Q 1234 2150 1697 2047 
L 1894 2003 
Q 2506 1872 2764 1633 
Q 3022 1394 3022 966 
Q 3022 478 2636 193 
Q 2250 -91 1575 -91 
Q 1294 -91 989 -36 
Q 684 19 347 128 
L 347 722 
Q 666 556 975 473 
Q 1284 391 1588 391 
Q 1994 391 2212 530 
Q 2431 669 2431 922 
Q 2431 1156 2273 1281 
Q 2116 1406 1581 1522 
L 1381 1569 
Q 847 1681 609 1914 
Q 372 2147 372 2553 
Q 372 3047 722 3315 
Q 1072 3584 1716 3584 
Q 2034 3584 2315 3537 
Q 2597 3491 2834 3397 
z
" transform="scale(0.015625)"/>
       <path id="DejaVuSans-74" d="M 1172 4494 
L 1172 3500 
L 2356 3500 
L 2356 3053 
L 1172 3053 
L 1172 1153 
Q 1172 725 1289 603 
Q 1406 481 1766 481 
L 2356 481 
L 2356 0 
L 1766 0 
Q 1100 0 847 248 
Q 594 497 594 1153 
L 594 3053 
L 172 3053 
L 172 3500 
L 594 3500 
L 594 4494 
L 1172 4494 
z
" transform="scale(0.015625)"/>
       <path id="DejaVuSans-61" d="M 2194 1759 
Q 1497 1759 1228 1600 
Q 959 1441 959 1056 
Q 959 750 1161 570 
Q 1363 391 1709 391 
Q 2188 391 2477 730 
Q 2766 1069 2766 1631 
L 2766 1759 
L 2194 1759 
z
M 3341 1997 
L 3341 0 
L 2766 0 
L 2766 531 
Q 2569 213 2275 61 
Q 1981 -91 1556 -91 
Q 1019 -91 701 211 
Q 384 513 384 1019 
Q 384 1609 779 1909 
Q 1175 2209 1959 2209 
L 2766 2209 
L 2766 2266 
Q 2766 2663 2505 2880 
Q 2244 3097 1772 3097 
Q 1472 3097 1187 3025 
Q 903 2953 641 2809 
L 641 3341 
Q 956 3463 1253 3523 
Q 1550 3584 1831 3584 
Q 2591 3584 2966 3190 
Q 3341 2797 3341 1997 
z
" transform="scale(0.015625)"/>
       <path id="DejaVuSans-6e" d="M 3513 2113 
L 3513 0 
L 2938 0 
L 2938 2094 
Q 2938 2591 2744 2837 
Q 2550 3084 2163 3084 
Q 1697 3084 1428 2787 
Q 1159 2491 1159 1978 
L 1159 0 
L 581 0 
L 581 3500 
L 1159 3500 
L 1159 2956 
Q 1366 3272 1645 3428 
Q 1925 3584 2291 3584 
Q 2894 3584 3203 3211 
Q 3513 2838 3513 2113 
z
" transform="scale(0.015625)"/>
       <path id="DejaVuSans-63" d="M 3122 3366 
L 3122 2828 
Q 2878 2963 2633 3030 
Q 2388 3097 2138 3097 
Q 1578 3097 1268 2742 
Q 959 2388 959 1747 
Q 959 1106 1268 751 
Q 1578 397 2138 397 
Q 2388 397 2633 464 
Q 2878 531 3122 666 
L 3122 134 
Q 2881 22 2623 -34 
Q 2366 -91 2075 -91 
Q 1284 -91 818 406 
Q 353 903 353 1747 
Q 353 2603 823 3093 
Q 1294 3584 2113 3584 
Q 2378 3584 2631 3529 
Q 2884 3475 3122 3366 
z
" transform="scale(0.015625)"/>
       <path id="DejaVuSans-65" d="M 3597 1894 
L 3597 1613 
L 953 1613 
Q 991 1019 1311 708 
Q 1631 397 2203 397 
Q 2534 397 2845 478 
Q 3156 559 3463 722 
L 3463 178 
Q 3153 47 2828 -22 
Q 2503 -91 2169 -91 
Q 1331 -91 842 396 
Q 353 884 353 1716 
Q 353 2575 817 3079 
Q 1281 3584 2069 3584 
Q 2775 3584 3186 3129 
Q 3597 2675 3597 1894 
z
M 3022 2063 
Q 3016 2534 2758 2815 
Q 2500 3097 2075 3097 
Q 1594 3097 1305 2825 
Q 1016 2553 972 2059 
L 3022 2063 
z
" transform="scale(0.015625)"/>
       <path id="DejaVuSans-20" transform="scale(0.015625)"/>
       <path id="DejaVuSans-66" d="M 2375 4863 
L 2375 4384 
L 1825 4384 
Q 1516 4384 1395 4259 
Q 1275 4134 1275 3809 
L 1275 3500 
L 2222 3500 
L 2222 3053 
L 1275 3053 
L 1275 0 
L 697 0 
L 697 3053 
L 147 3053 
L 147 3500 
L 697 3500 
L 697 3744 
Q 697 4328 969 4595 
Q 1241 4863 1831 4863 
L 2375 4863 
z
" transform="scale(0.015625)"/>
       <path id="DejaVuSans-72" d="M 2631 2963 
Q 2534 3019 2420 3045 
Q 2306 3072 2169 3072 
Q 1681 3072 1420 2755 
Q 1159 2438 1159 1844 
L 1159 0 
L 581 0 
L 581 3500 
L 1159 3500 
L 1159 2956 
Q 1341 3275 1631 3429 
Q 1922 3584 2338 3584 
Q 2397 3584 2469 3576 
Q 2541 3569 2628 3553 
L 2631 2963 
z
" transform="scale(0.015625)"/>
       <path id="DejaVuSans-6f" d="M 1959 3097 
Q 1497 3097 1228 2736 
Q 959 2375 959 1747 
Q 959 1119 1226 758 
Q 1494 397 1959 397 
Q 2419 397 2687 759 
Q 2956 1122 2956 1747 
Q 2956 2369 2687 2733 
Q 2419 3097 1959 3097 
z
M 1959 3584 
Q 2709 3584 3137 3096 
Q 3566 2609 3566 1747 
Q 3566 888 3137 398 
Q 2709 -91 1959 -91 
Q 1206 -91 779 398 
Q 353 888 353 1747 
Q 353 2609 779 3096 
Q 1206 3584 1959 3584 
z
" transform="scale(0.015625)"/>
       <path id="DejaVuSans-6d" d="M 3328 2828 
Q 3544 3216 3844 3400 
Q 4144 3584 4550 3584 
Q 5097 3584 5394 3201 
Q 5691 2819 5691 2113 
L 5691 0 
L 5113 0 
L 5113 2094 
Q 5113 2597 4934 2840 
Q 4756 3084 4391 3084 
Q 3944 3084 3684 2787 
Q 3425 2491 3425 1978 
L 3425 0 
L 2847 0 
L 2847 2094 
Q 2847 2600 2669 2842 
Q 2491 3084 2119 3084 
Q 1678 3084 1418 2786 
Q 1159 2488 1159 1978 
L 1159 0 
L 581 0 
L 581 3500 
L 1159 3500 
L 1159 2956 
Q 1356 3278 1631 3431 
Q 1906 3584 2284 3584 
Q 2666 3584 2933 3390 
Q 3200 3197 3328 2828 
z
" transform="scale(0.015625)"/>
       <path id="DejaVuSans-75" d="M 544 1381 
L 544 3500 
L 1119 3500 
L 1119 1403 
Q 1119 906 1312 657 
Q 1506 409 1894 409 
Q 2359 409 2629 706 
Q 2900 1003 2900 1516 
L 2900 3500 
L 3475 3500 
L 3475 0 
L 2900 0 
L 2900 538 
Q 2691 219 2414 64 
Q 2138 -91 1772 -91 
Q 1169 -91 856 284 
Q 544 659 544 1381 
z
M 1991 3584 
L 1991 3584 
z
" transform="scale(0.015625)"/>
       <path id="DejaVuSans-5b" d="M 550 4863 
L 1875 4863 
L 1875 4416 
L 1125 4416 
L 1125 -397 
L 1875 -397 
L 1875 -844 
L 550 -844 
L 550 4863 
z
" transform="scale(0.015625)"/>
       <path id="DejaVuSans-5d" d="M 1947 4863 
L 1947 -844 
L 622 -844 
L 622 -397 
L 1369 -397 
L 1369 4416 
L 622 4416 
L 622 4863 
L 1947 4863 
z
" transform="scale(0.015625)"/>
      </defs>
      <use xlink:href="#DejaVuSans-44"/>
      <use xlink:href="#DejaVuSans-69" transform="translate(77.001953 0)"/>
      <use xlink:href="#DejaVuSans-73" transform="translate(104.785156 0)"/>
      <use xlink:href="#DejaVuSans-74" transform="translate(156.884766 0)"/>
      <use xlink:href="#DejaVuSans-61" transform="translate(196.09375 0)"/>
      <use xlink:href="#DejaVuSans-6e" transform="translate(257.373047 0)"/>
      <use xlink:href="#DejaVuSans-63" transform="translate(320.751953 0)"/>
      <use xlink:href="#DejaVuSans-65" transform="translate(375.732422 0)"/>
      <use xlink:href="#DejaVuSans-20" transform="translate(437.255859 0)"/>
      <use xlink:href="#DejaVuSans-66" transform="translate(469.042969 0)"/>
      <use xlink:href="#DejaVuSans-72" transform="translate(504.248047 0)"/>
      <use xlink:href="#DejaVuSans-6f" transform="translate(543.111328 0)"/>
      <use xlink:href="#DejaVuSans-6d" transform="translate(604.292969 0)"/>
      <use xlink:href="#DejaVuSans-20" transform="translate(701.705078 0)"/>
      <use xlink:href="#DejaVuSans-74" transform="translate(733.492188 0)"/>
      <use xlink:href="#DejaVuSans-65" transform="translate(772.701172 0)"/>
      <use xlink:href="#DejaVuSans-72" transform="translate(834.224609 0)"/>
      <use xlink:href="#DejaVuSans-6d" transform="translate(873.587891 0)"/>
      <use xlink:href="#DejaVuSans-69" transform="translate(971 0)"/>
      <use xlink:href="#DejaVuSans-6e" transform="translate(998.783203 0)"/>
      <use xlink:href="#DejaVuSans-75" transform="translate(1062.162109 0)"/>
      <use xlink:href="#DejaVuSans-73" transform="translate(1125.541016 0)"/>
      <use xlink:href="#DejaVuSans-20" transform="translate(1177.640625 0)"/>
      <use xlink:href="#DejaVuSans-5b" transform="translate(1209.427734 0)"/>
      <use xlink:href="#DejaVuSans-6e" transform="translate(1248.441406 0)"/>
      <use xlink:href="#DejaVuSans-74" transform="translate(1311.820312 0)"/>
      <use xlink:href="#DejaVuSans-5d" transform="translate(1351.029297 0)"/>
     </g>
    </g>
   </g>
   <g id="matplotlib.axis_2">
    <g id="ytick_1">
     <g id="line2d_19">
      <path d="M 40.603125 369.201818 
L 429.513125 369.201818 
" clip-path="url(#p2aabd9f129)" style="fill: none; stroke-dasharray: 2.96,1.28; stroke-dashoffset: 0; stroke: #b0b0b0; stroke-opacity: 0.6; stroke-width: 0.8"/>
     </g>
     <g id="line2d_20">
      <defs>
       <path id="mcdf383577f" d="M 0 0 
L -3.5 0 
" style="stroke: #000000; stroke-width: 0.8"/>
      </defs>
      <g>
       <use xlink:href="#mcdf383577f" x="40.603125" y="369.201818" style="stroke: #000000; stroke-width: 0.8"/>
      </g>
     </g>
     <g id="text_11">
      <!-- 0 -->
      <g transform="translate(27.240625 373.001037) scale(0.1 -0.1)">
       <use xlink:href="#DejaVuSans-30"/>
      </g>
     </g>
    </g>
    <g id="ytick_2">
     <g id="line2d_21">
      <path d="M 40.603125 316.964904 
L 429.513125 316.964904 
" clip-path="url(#p2aabd9f129)" style="fill: none; stroke-dasharray: 2.96,1.28; stroke-dashoffset: 0; stroke: #b0b0b0; stroke-opacity: 0.6; stroke-width: 0.8"/>
     </g>
     <g id="line2d_22">
      <g>
       <use xlink:href="#mcdf383577f" x="40.603125" y="316.964904" style="stroke: #000000; stroke-width: 0.8"/>
      </g>
     </g>
     <g id="text_12">
      <!-- 5 -->
      <g transform="translate(27.240625 320.764122) scale(0.1 -0.1)">
       <use xlink:href="#DejaVuSans-35"/>
      </g>
     </g>
    </g>
    <g id="ytick_3">
     <g id="line2d_23">
      <path d="M 40.603125 264.727989 
L 429.513125 264.727989 
" clip-path="url(#p2aabd9f129)" style="fill: none; stroke-dasharray: 2.96,1.28; stroke-dashoffset: 0; stroke: #b0b0b0; stroke-opacity: 0.6; stroke-width: 0.8"/>
     </g>
     <g id="line2d_24">
      <g>
       <use xlink:href="#mcdf383577f" x="40.603125" y="264.727989" style="stroke: #000000; stroke-width: 0.8"/>
      </g>
     </g>
     <g id="text_13">
      <!-- 10 -->
      <g transform="translate(20.878125 268.527208) scale(0.1 -0.1)">
       <use xlink:href="#DejaVuSans-31"/>
       <use xlink:href="#DejaVuSans-30" transform="translate(63.623047 0)"/>
      </g>
     </g>
    </g>
    <g id="ytick_4">
     <g id="line2d_25">
      <path d="M 40.603125 212.491074 
L 429.513125 212.491074 
" clip-path="url(#p2aabd9f129)" style="fill: none; stroke-dasharray: 2.96,1.28; stroke-dashoffset: 0; stroke: #b0b0b0; stroke-opacity: 0.6; stroke-width: 0.8"/>
     </g>
     <g id="line2d_26">
      <g>
       <use xlink:href="#mcdf383577f" x="40.603125" y="212.491074" style="stroke: #000000; stroke-width: 0.8"/>
      </g>
     </g>
     <g id="text_14">
      <!-- 15 -->
      <g transform="translate(20.878125 216.290293) scale(0.1 -0.1)">
       <use xlink:href="#DejaVuSans-31"/>
       <use xlink:href="#DejaVuSans-35" transform="translate(63.623047 0)"/>
      </g>
     </g>
    </g>
    <g id="ytick_5">
     <g id="line2d_27">
      <path d="M 40.603125 160.25416 
L 429.513125 160.25416 
" clip-path="url(#p2aabd9f129)" style="fill: none; stroke-dasharray: 2.96,1.28; stroke-dashoffset: 0; stroke: #b0b0b0; stroke-opacity: 0.6; stroke-width: 0.8"/>
     </g>
     <g id="line2d_28">
      <g>
       <use xlink:href="#mcdf383577f" x="40.603125" y="160.25416" style="stroke: #000000; stroke-width: 0.8"/>
      </g>
     </g>
     <g id="text_15">
      <!-- 20 -->
      <g transform="translate(20.878125 164.053379) scale(0.1 -0.1)">
       <use xlink:href="#DejaVuSans-32"/>
       <use xlink:href="#DejaVuSans-30" transform="translate(63.623047 0)"/>
      </g>
     </g>
    </g>
    <g id="ytick_6">
     <g id="line2d_29">
      <path d="M 40.603125 108.017245 
L 429.513125 108.017245 
" clip-path="url(#p2aabd9f129)" style="fill: none; stroke-dasharray: 2.96,1.28; stroke-dashoffset: 0; stroke: #b0b0b0; stroke-opacity: 0.6; stroke-width: 0.8"/>
     </g>
     <g id="line2d_30">
      <g>
       <use xlink:href="#mcdf383577f" x="40.603125" y="108.017245" style="stroke: #000000; stroke-width: 0.8"/>
      </g>
     </g>
     <g id="text_16">
      <!-- 25 -->
      <g transform="translate(20.878125 111.816464) scale(0.1 -0.1)">
       <use xlink:href="#DejaVuSans-32"/>
       <use xlink:href="#DejaVuSans-35" transform="translate(63.623047 0)"/>
      </g>
     </g>
    </g>
    <g id="ytick_7">
     <g id="line2d_31">
      <path d="M 40.603125 55.780331 
L 429.513125 55.780331 
" clip-path="url(#p2aabd9f129)" style="fill: none; stroke-dasharray: 2.96,1.28; stroke-dashoffset: 0; stroke: #b0b0b0; stroke-opacity: 0.6; stroke-width: 0.8"/>
     </g>
     <g id="line2d_32">
      <g>
       <use xlink:href="#mcdf383577f" x="40.603125" y="55.780331" style="stroke: #000000; stroke-width: 0.8"/>
      </g>
     </g>
     <g id="text_17">
      <!-- 30 -->
      <g transform="translate(20.878125 59.579549) scale(0.1 -0.1)">
       <defs>
        <path id="DejaVuSans-33" d="M 2597 2516 
Q 3050 2419 3304 2112 
Q 3559 1806 3559 1356 
Q 3559 666 3084 287 
Q 2609 -91 1734 -91 
Q 1441 -91 1130 -33 
Q 819 25 488 141 
L 488 750 
Q 750 597 1062 519 
Q 1375 441 1716 441 
Q 2309 441 2620 675 
Q 2931 909 2931 1356 
Q 2931 1769 2642 2001 
Q 2353 2234 1838 2234 
L 1294 2234 
L 1294 2753 
L 1863 2753 
Q 2328 2753 2575 2939 
Q 2822 3125 2822 3475 
Q 2822 3834 2567 4026 
Q 2313 4219 1838 4219 
Q 1578 4219 1281 4162 
Q 984 4106 628 3988 
L 628 4550 
Q 988 4650 1302 4700 
Q 1616 4750 1894 4750 
Q 2613 4750 3031 4423 
Q 3450 4097 3450 3541 
Q 3450 3153 3228 2886 
Q 3006 2619 2597 2516 
z
" transform="scale(0.015625)"/>
       </defs>
       <use xlink:href="#DejaVuSans-33"/>
       <use xlink:href="#DejaVuSans-30" transform="translate(63.623047 0)"/>
      </g>
     </g>
    </g>
    <g id="text_18">
     <!-- Average cumulative count -->
     <g transform="translate(14.798438 262.4325) rotate(-90) scale(0.1 -0.1)">
      <defs>
       <path id="DejaVuSans-41" d="M 2188 4044 
L 1331 1722 
L 3047 1722 
L 2188 4044 
z
M 1831 4666 
L 2547 4666 
L 4325 0 
L 3669 0 
L 3244 1197 
L 1141 1197 
L 716 0 
L 50 0 
L 1831 4666 
z
" transform="scale(0.015625)"/>
       <path id="DejaVuSans-76" d="M 191 3500 
L 800 3500 
L 1894 563 
L 2988 3500 
L 3597 3500 
L 2284 0 
L 1503 0 
L 191 3500 
z
" transform="scale(0.015625)"/>
       <path id="DejaVuSans-67" d="M 2906 1791 
Q 2906 2416 2648 2759 
Q 2391 3103 1925 3103 
Q 1463 3103 1205 2759 
Q 947 2416 947 1791 
Q 947 1169 1205 825 
Q 1463 481 1925 481 
Q 2391 481 2648 825 
Q 2906 1169 2906 1791 
z
M 3481 434 
Q 3481 -459 3084 -895 
Q 2688 -1331 1869 -1331 
Q 1566 -1331 1297 -1286 
Q 1028 -1241 775 -1147 
L 775 -588 
Q 1028 -725 1275 -790 
Q 1522 -856 1778 -856 
Q 2344 -856 2625 -561 
Q 2906 -266 2906 331 
L 2906 616 
Q 2728 306 2450 153 
Q 2172 0 1784 0 
Q 1141 0 747 490 
Q 353 981 353 1791 
Q 353 2603 747 3093 
Q 1141 3584 1784 3584 
Q 2172 3584 2450 3431 
Q 2728 3278 2906 2969 
L 2906 3500 
L 3481 3500 
L 3481 434 
z
" transform="scale(0.015625)"/>
       <path id="DejaVuSans-6c" d="M 603 4863 
L 1178 4863 
L 1178 0 
L 603 0 
L 603 4863 
z
" transform="scale(0.015625)"/>
      </defs>
      <use xlink:href="#DejaVuSans-41"/>
      <use xlink:href="#DejaVuSans-76" transform="translate(62.533203 0)"/>
      <use xlink:href="#DejaVuSans-65" transform="translate(121.712891 0)"/>
      <use xlink:href="#DejaVuSans-72" transform="translate(183.236328 0)"/>
      <use xlink:href="#DejaVuSans-61" transform="translate(224.349609 0)"/>
      <use xlink:href="#DejaVuSans-67" transform="translate(285.628906 0)"/>
      <use xlink:href="#DejaVuSans-65" transform="translate(349.105469 0)"/>
      <use xlink:href="#DejaVuSans-20" transform="translate(410.628906 0)"/>
      <use xlink:href="#DejaVuSans-63" transform="translate(442.416016 0)"/>
      <use xlink:href="#DejaVuSans-75" transform="translate(497.396484 0)"/>
      <use xlink:href="#DejaVuSans-6d" transform="translate(560.775391 0)"/>
      <use xlink:href="#DejaVuSans-75" transform="translate(658.1875 0)"/>
      <use xlink:href="#DejaVuSans-6c" transform="translate(721.566406 0)"/>
      <use xlink:href="#DejaVuSans-61" transform="translate(749.349609 0)"/>
      <use xlink:href="#DejaVuSans-74" transform="translate(810.628906 0)"/>
      <use xlink:href="#DejaVuSans-69" transform="translate(849.837891 0)"/>
      <use xlink:href="#DejaVuSans-76" transform="translate(877.621094 0)"/>
      <use xlink:href="#DejaVuSans-65" transform="translate(936.800781 0)"/>
      <use xlink:href="#DejaVuSans-20" transform="translate(998.324219 0)"/>
      <use xlink:href="#DejaVuSans-63" transform="translate(1030.111328 0)"/>
      <use xlink:href="#DejaVuSans-6f" transform="translate(1085.091797 0)"/>
      <use xlink:href="#DejaVuSans-75" transform="translate(1146.273438 0)"/>
      <use xlink:href="#DejaVuSans-6e" transform="translate(1209.652344 0)"/>
      <use xlink:href="#DejaVuSans-74" transform="translate(1273.03125 0)"/>
     </g>
    </g>
   </g>
   <g id="line2d_33">
    <path d="M 411.835398 369.201818 
L 402.35125 369.201818 
L 402.239879 358.754435 
L 394.594224 358.754435 
L 394.482854 348.307052 
L 384.249166 348.307052 
L 384.137796 337.859669 
L 319.095809 337.859669 
L 318.984439 327.412287 
L 309.044203 327.412287 
L 308.932833 316.964904 
L 291.506042 316.964904 
L 291.394672 306.517521 
L 284.102573 306.517521 
L 283.991203 296.070138 
L 277.462785 296.070138 
L 277.351415 285.622755 
L 266.746493 285.622755 
L 266.635123 275.175372 
L 234.286488 275.175372 
L 234.175118 264.727989 
L 216.113694 264.727989 
L 216.002324 254.280606 
L 209.339555 254.280606 
L 209.228185 243.833223 
L 206.785111 243.833223 
L 206.67374 233.38584 
L 204.007926 233.38584 
L 203.896555 222.938457 
L 195.708191 222.938457 
L 195.596821 212.491074 
L 183.305436 212.491074 
L 183.194066 202.043691 
L 180.429255 202.043691 
L 180.317885 191.596309 
L 167.087808 191.596309 
L 166.976437 181.148926 
L 162.304191 181.148926 
L 162.192821 170.701543 
L 156.721537 170.701543 
L 156.610166 160.25416 
L 139.377832 160.25416 
L 139.266461 149.806777 
L 114.690762 149.806777 
L 114.579392 139.359394 
L 109.180587 139.359394 
L 109.069217 128.912011 
L 76.948626 128.912011 
L 76.837255 118.464628 
L 62.318465 118.464628 
L 62.207095 108.017245 
L 58.280852 108.017245 
L 58.280852 108.017245 
" clip-path="url(#p2aabd9f129)" style="fill: none; stroke-dasharray: 7.4,3.2; stroke-dashoffset: 0; stroke: #fa8072; stroke-width: 2"/>
   </g>
   <g id="line2d_34">
    <path d="M 411.835398 369.201818 
L 400.500382 369.201818 
L 400.389012 358.754435 
L 398.697245 358.754435 
L 398.585875 348.307052 
L 362.821886 348.307052 
L 362.710516 337.859669 
L 353.482696 337.859669 
L 353.371326 327.412287 
L 351.076745 327.412287 
L 350.965375 316.964904 
L 344.357408 316.964904 
L 344.246037 306.517521 
L 331.293502 306.517521 
L 331.182132 296.070138 
L 326.621255 296.070138 
L 326.509885 285.622755 
L 324.39385 285.622755 
L 324.28248 275.175372 
L 313.928583 275.175372 
L 313.817213 264.727989 
L 313.083584 264.727989 
L 312.972214 254.280606 
L 300.892962 254.280606 
L 300.781592 243.833223 
L 297.240725 243.833223 
L 297.129355 233.38584 
L 286.540344 233.38584 
L 286.428973 222.938457 
L 282.115586 222.938457 
L 282.004216 212.491074 
L 251.73626 212.491074 
L 251.62489 202.043691 
L 246.93143 202.043691 
L 246.82006 191.596309 
L 221.949141 191.596309 
L 221.837771 181.148926 
L 218.526716 181.148926 
L 218.415345 170.701543 
L 218.3959 170.701543 
L 218.28453 160.25416 
L 215.084845 160.25416 
L 214.973475 149.806777 
L 213.435505 149.806777 
L 213.324135 139.359394 
L 205.777475 139.359394 
L 205.666105 128.912011 
L 191.6529 128.912011 
L 191.54153 118.464628 
L 185.985393 118.464628 
L 185.874022 108.017245 
L 171.415337 108.017245 
L 171.303967 97.569862 
L 164.816208 97.569862 
L 164.704838 87.122479 
L 139.489202 87.122479 
L 139.377832 76.675096 
L 133.073923 76.675096 
L 132.962552 66.227713 
L 128.838318 66.227713 
L 128.726948 55.780331 
L 126.312158 55.780331 
L 126.200788 45.332948 
L 120.598688 45.332948 
L 120.487318 34.885565 
L 108.987899 34.885565 
L 108.876528 24.438182 
L 58.280852 24.438182 
L 58.280852 24.438182 
" clip-path="url(#p2aabd9f129)" style="fill: none; stroke-dasharray: 7.4,3.2; stroke-dashoffset: 0; stroke: #8b0000; stroke-width: 2"/>
   </g>
   <g id="patch_3">
    <path d="M 40.603125 386.44 
L 40.603125 7.2 
" style="fill: none; stroke: #000000; stroke-width: 0.8; stroke-linejoin: miter; stroke-linecap: square"/>
   </g>
   <g id="patch_4">
    <path d="M 429.513125 386.44 
L 429.513125 7.2 
" style="fill: none; stroke: #000000; stroke-width: 0.8; stroke-linejoin: miter; stroke-linecap: square"/>
   </g>
   <g id="patch_5">
    <path d="M 40.603125 386.44 
L 429.513125 386.44 
" style="fill: none; stroke: #000000; stroke-width: 0.8; stroke-linejoin: miter; stroke-linecap: square"/>
   </g>
   <g id="patch_6">
    <path d="M 40.603125 7.2 
L 429.513125 7.2 
" style="fill: none; stroke: #000000; stroke-width: 0.8; stroke-linejoin: miter; stroke-linecap: square"/>
   </g>
   <g id="legend_1">
    <g id="patch_7">
     <path d="M 436.513125 59.234375 
L 558.969375 59.234375 
Q 560.969375 59.234375 560.969375 57.234375 
L 560.969375 14.2 
Q 560.969375 12.2 558.969375 12.2 
L 436.513125 12.2 
Q 434.513125 12.2 434.513125 14.2 
L 434.513125 57.234375 
Q 434.513125 59.234375 436.513125 59.234375 
z
" style="fill: #ffffff; opacity: 0.8; stroke: #cccccc; stroke-linejoin: miter"/>
    </g>
    <g id="text_19">
     <!-- Motifs &amp; orientation -->
     <g transform="translate(448.225625 23.798437) scale(0.1 -0.1)">
      <defs>
       <path id="DejaVuSans-4d" d="M 628 4666 
L 1569 4666 
L 2759 1491 
L 3956 4666 
L 4897 4666 
L 4897 0 
L 4281 0 
L 4281 4097 
L 3078 897 
L 2444 897 
L 1241 4097 
L 1241 0 
L 628 0 
L 628 4666 
z
" transform="scale(0.015625)"/>
       <path id="DejaVuSans-26" d="M 1556 2509 
Q 1272 2256 1139 2004 
Q 1006 1753 1006 1478 
Q 1006 1022 1337 719 
Q 1669 416 2169 416 
Q 2466 416 2725 514 
Q 2984 613 3213 813 
L 1556 2509 
z
M 1997 2859 
L 3584 1234 
Q 3769 1513 3872 1830 
Q 3975 2147 3994 2503 
L 4575 2503 
Q 4538 2091 4375 1687 
Q 4213 1284 3922 891 
L 4794 0 
L 4006 0 
L 3559 459 
Q 3234 181 2878 45 
Q 2522 -91 2113 -91 
Q 1359 -91 881 339 
Q 403 769 403 1441 
Q 403 1841 612 2192 
Q 822 2544 1241 2853 
Q 1091 3050 1012 3245 
Q 934 3441 934 3628 
Q 934 4134 1281 4442 
Q 1628 4750 2203 4750 
Q 2463 4750 2720 4694 
Q 2978 4638 3244 4525 
L 3244 3956 
Q 2972 4103 2725 4179 
Q 2478 4256 2266 4256 
Q 1938 4256 1733 4082 
Q 1528 3909 1528 3634 
Q 1528 3475 1620 3314 
Q 1713 3153 1997 2859 
z
" transform="scale(0.015625)"/>
      </defs>
      <use xlink:href="#DejaVuSans-4d"/>
      <use xlink:href="#DejaVuSans-6f" transform="translate(86.279297 0)"/>
      <use xlink:href="#DejaVuSans-74" transform="translate(147.460938 0)"/>
      <use xlink:href="#DejaVuSans-69" transform="translate(186.669922 0)"/>
      <use xlink:href="#DejaVuSans-66" transform="translate(214.453125 0)"/>
      <use xlink:href="#DejaVuSans-73" transform="translate(249.658203 0)"/>
      <use xlink:href="#DejaVuSans-20" transform="translate(301.757812 0)"/>
      <use xlink:href="#DejaVuSans-26" transform="translate(333.544922 0)"/>
      <use xlink:href="#DejaVuSans-20" transform="translate(411.523438 0)"/>
      <use xlink:href="#DejaVuSans-6f" transform="translate(443.310547 0)"/>
      <use xlink:href="#DejaVuSans-72" transform="translate(504.492188 0)"/>
      <use xlink:href="#DejaVuSans-69" transform="translate(545.605469 0)"/>
      <use xlink:href="#DejaVuSans-65" transform="translate(573.388672 0)"/>
      <use xlink:href="#DejaVuSans-6e" transform="translate(634.912109 0)"/>
      <use xlink:href="#DejaVuSans-74" transform="translate(698.291016 0)"/>
      <use xlink:href="#DejaVuSans-61" transform="translate(737.5 0)"/>
      <use xlink:href="#DejaVuSans-74" transform="translate(798.779297 0)"/>
      <use xlink:href="#DejaVuSans-69" transform="translate(837.988281 0)"/>
      <use xlink:href="#DejaVuSans-6f" transform="translate(865.771484 0)"/>
      <use xlink:href="#DejaVuSans-6e" transform="translate(926.953125 0)"/>
     </g>
    </g>
    <g id="line2d_35">
     <path d="M 438.513125 34.976562 
L 448.513125 34.976562 
L 458.513125 34.976562 
" style="fill: none; stroke-dasharray: 7.4,3.2; stroke-dashoffset: 0; stroke: #fa8072; stroke-width: 2"/>
    </g>
    <g id="text_20">
     <!-- TTTAGGG (3' end) -->
     <g transform="translate(466.513125 38.476562) scale(0.1 -0.1)">
      <defs>
       <path id="DejaVuSans-54" d="M -19 4666 
L 3928 4666 
L 3928 4134 
L 2272 4134 
L 2272 0 
L 1638 0 
L 1638 4134 
L -19 4134 
L -19 4666 
z
" transform="scale(0.015625)"/>
       <path id="DejaVuSans-47" d="M 3809 666 
L 3809 1919 
L 2778 1919 
L 2778 2438 
L 4434 2438 
L 4434 434 
Q 4069 175 3628 42 
Q 3188 -91 2688 -91 
Q 1594 -91 976 548 
Q 359 1188 359 2328 
Q 359 3472 976 4111 
Q 1594 4750 2688 4750 
Q 3144 4750 3555 4637 
Q 3966 4525 4313 4306 
L 4313 3634 
Q 3963 3931 3569 4081 
Q 3175 4231 2741 4231 
Q 1884 4231 1454 3753 
Q 1025 3275 1025 2328 
Q 1025 1384 1454 906 
Q 1884 428 2741 428 
Q 3075 428 3337 486 
Q 3600 544 3809 666 
z
" transform="scale(0.015625)"/>
       <path id="DejaVuSans-28" d="M 1984 4856 
Q 1566 4138 1362 3434 
Q 1159 2731 1159 2009 
Q 1159 1288 1364 580 
Q 1569 -128 1984 -844 
L 1484 -844 
Q 1016 -109 783 600 
Q 550 1309 550 2009 
Q 550 2706 781 3412 
Q 1013 4119 1484 4856 
L 1984 4856 
z
" transform="scale(0.015625)"/>
       <path id="DejaVuSans-27" d="M 1147 4666 
L 1147 2931 
L 616 2931 
L 616 4666 
L 1147 4666 
z
" transform="scale(0.015625)"/>
       <path id="DejaVuSans-64" d="M 2906 2969 
L 2906 4863 
L 3481 4863 
L 3481 0 
L 2906 0 
L 2906 525 
Q 2725 213 2448 61 
Q 2172 -91 1784 -91 
Q 1150 -91 751 415 
Q 353 922 353 1747 
Q 353 2572 751 3078 
Q 1150 3584 1784 3584 
Q 2172 3584 2448 3432 
Q 2725 3281 2906 2969 
z
M 947 1747 
Q 947 1113 1208 752 
Q 1469 391 1925 391 
Q 2381 391 2643 752 
Q 2906 1113 2906 1747 
Q 2906 2381 2643 2742 
Q 2381 3103 1925 3103 
Q 1469 3103 1208 2742 
Q 947 2381 947 1747 
z
" transform="scale(0.015625)"/>
       <path id="DejaVuSans-29" d="M 513 4856 
L 1013 4856 
Q 1481 4119 1714 3412 
Q 1947 2706 1947 2009 
Q 1947 1309 1714 600 
Q 1481 -109 1013 -844 
L 513 -844 
Q 928 -128 1133 580 
Q 1338 1288 1338 2009 
Q 1338 2731 1133 3434 
Q 928 4138 513 4856 
z
" transform="scale(0.015625)"/>
      </defs>
      <use xlink:href="#DejaVuSans-54"/>
      <use xlink:href="#DejaVuSans-54" transform="translate(59.333984 0)"/>
      <use xlink:href="#DejaVuSans-54" transform="translate(118.667969 0)"/>
      <use xlink:href="#DejaVuSans-41" transform="translate(172.001953 0)"/>
      <use xlink:href="#DejaVuSans-47" transform="translate(238.660156 0)"/>
      <use xlink:href="#DejaVuSans-47" transform="translate(316.150391 0)"/>
      <use xlink:href="#DejaVuSans-47" transform="translate(393.640625 0)"/>
      <use xlink:href="#DejaVuSans-20" transform="translate(471.130859 0)"/>
      <use xlink:href="#DejaVuSans-28" transform="translate(502.917969 0)"/>
      <use xlink:href="#DejaVuSans-33" transform="translate(541.931641 0)"/>
      <use xlink:href="#DejaVuSans-27" transform="translate(605.554688 0)"/>
      <use xlink:href="#DejaVuSans-20" transform="translate(633.044922 0)"/>
      <use xlink:href="#DejaVuSans-65" transform="translate(664.832031 0)"/>
      <use xlink:href="#DejaVuSans-6e" transform="translate(726.355469 0)"/>
      <use xlink:href="#DejaVuSans-64" transform="translate(789.734375 0)"/>
      <use xlink:href="#DejaVuSans-29" transform="translate(853.210938 0)"/>
     </g>
    </g>
    <g id="line2d_36">
     <path d="M 438.513125 49.654687 
L 448.513125 49.654687 
L 458.513125 49.654687 
" style="fill: none; stroke-dasharray: 7.4,3.2; stroke-dashoffset: 0; stroke: #8b0000; stroke-width: 2"/>
    </g>
    <g id="text_21">
     <!-- TTCAGGG (3' end) -->
     <g transform="translate(466.513125 53.154687) scale(0.1 -0.1)">
      <defs>
       <path id="DejaVuSans-43" d="M 4122 4306 
L 4122 3641 
Q 3803 3938 3442 4084 
Q 3081 4231 2675 4231 
Q 1875 4231 1450 3742 
Q 1025 3253 1025 2328 
Q 1025 1406 1450 917 
Q 1875 428 2675 428 
Q 3081 428 3442 575 
Q 3803 722 4122 1019 
L 4122 359 
Q 3791 134 3420 21 
Q 3050 -91 2638 -91 
Q 1578 -91 968 557 
Q 359 1206 359 2328 
Q 359 3453 968 4101 
Q 1578 4750 2638 4750 
Q 3056 4750 3426 4639 
Q 3797 4528 4122 4306 
z
" transform="scale(0.015625)"/>
      </defs>
      <use xlink:href="#DejaVuSans-54"/>
      <use xlink:href="#DejaVuSans-54" transform="translate(59.333984 0)"/>
      <use xlink:href="#DejaVuSans-43" transform="translate(114.542969 0)"/>
      <use xlink:href="#DejaVuSans-41" transform="translate(184.367188 0)"/>
      <use xlink:href="#DejaVuSans-47" transform="translate(251.025391 0)"/>
      <use xlink:href="#DejaVuSans-47" transform="translate(328.515625 0)"/>
      <use xlink:href="#DejaVuSans-47" transform="translate(406.005859 0)"/>
      <use xlink:href="#DejaVuSans-20" transform="translate(483.496094 0)"/>
      <use xlink:href="#DejaVuSans-28" transform="translate(515.283203 0)"/>
      <use xlink:href="#DejaVuSans-33" transform="translate(554.296875 0)"/>
      <use xlink:href="#DejaVuSans-27" transform="translate(617.919922 0)"/>
      <use xlink:href="#DejaVuSans-20" transform="translate(645.410156 0)"/>
      <use xlink:href="#DejaVuSans-65" transform="translate(677.197266 0)"/>
      <use xlink:href="#DejaVuSans-6e" transform="translate(738.720703 0)"/>
      <use xlink:href="#DejaVuSans-64" transform="translate(802.099609 0)"/>
      <use xlink:href="#DejaVuSans-29" transform="translate(865.576172 0)"/>
     </g>
    </g>
   </g>
  </g>
 </g>
 <defs>
  <clipPath id="p2aabd9f129">
   <rect x="40.603125" y="7.2" width="388.91" height="379.24"/>
  </clipPath>
 </defs>
</svg>
